<?xml version="1.0" encoding="UTF-8" standalone="no"?>
<!DOCTYPE svg PUBLIC "-//W3C//DTD SVG 1.1//EN"
 "http://www.w3.org/Graphics/SVG/1.1/DTD/svg11.dtd">
<!-- Generated by graphviz version 2.40.1 (20161225.0304)
 -->
<!-- Title: itk::simple::AdaptiveHistogramEqualizationImageFilter Pages: 1 -->
<svg width="177pt" height="207pt"
 viewBox="0.00 0.00 177.00 207.00" xmlns="http://www.w3.org/2000/svg" xmlns:xlink="http://www.w3.org/1999/xlink">
<g id="graph0" class="graph" transform="scale(1 1) rotate(0) translate(4 203)">
<title>itk::simple::AdaptiveHistogramEqualizationImageFilter</title>
<polygon fill="#ffffff" stroke="transparent" points="-4,4 -4,-203 173,-203 173,4 -4,4"/>
<!-- Node1 -->
<g id="node1" class="node">
<title>Node1</title>
<g id="a_node1"><a xlink:title="Power Law Adaptive Histogram Equalization.">
<polygon fill="#bfbfbf" stroke="#000000" points="0,-.5 0,-30.5 169,-30.5 169,-.5 0,-.5"/>
<text text-anchor="start" x="8" y="-18.5" font-family="Helvetica,sans-Serif" font-size="10.00" fill="#000000">itk::simple::AdaptiveHistogram</text>
<text text-anchor="middle" x="84.5" y="-7.5" font-family="Helvetica,sans-Serif" font-size="10.00" fill="#000000">EqualizationImageFilter</text>
</a>
</g>
</g>
<!-- Node2 -->
<g id="node2" class="node">
<title>Node2</title>
<g id="a_node2"><a xlink:href="classitk_1_1simple_1_1ImageFilter.html" target="_top" xlink:title="The base interface for SimpleITK filters that take one input image.">
<polygon fill="#ffffff" stroke="#000000" points="20,-67.5 20,-86.5 149,-86.5 149,-67.5 20,-67.5"/>
<text text-anchor="middle" x="84.5" y="-74.5" font-family="Helvetica,sans-Serif" font-size="10.00" fill="#000000">itk::simple::ImageFilter</text>
</a>
</g>
</g>
<!-- Node2&#45;&gt;Node1 -->
<g id="edge1" class="edge">
<title>Node2&#45;&gt;Node1</title>
<path fill="none" stroke="#191970" d="M84.5,-57.3693C84.5,-48.681 84.5,-38.6241 84.5,-30.5446"/>
<polygon fill="#191970" stroke="#191970" points="81.0001,-57.3906 84.5,-67.3906 88.0001,-57.3907 81.0001,-57.3906"/>
</g>
<!-- Node3 -->
<g id="node3" class="node">
<title>Node3</title>
<g id="a_node3"><a xlink:href="classitk_1_1simple_1_1ProcessObject.html" target="_top" xlink:title="Base class for SimpleITK classes based on ProcessObject.">
<polygon fill="#ffffff" stroke="#000000" points="13,-123.5 13,-142.5 156,-142.5 156,-123.5 13,-123.5"/>
<text text-anchor="middle" x="84.5" y="-130.5" font-family="Helvetica,sans-Serif" font-size="10.00" fill="#000000">itk::simple::ProcessObject</text>
</a>
</g>
</g>
<!-- Node3&#45;&gt;Node2 -->
<g id="edge2" class="edge">
<title>Node3&#45;&gt;Node2</title>
<path fill="none" stroke="#191970" d="M84.5,-113.1575C84.5,-104.155 84.5,-93.9199 84.5,-86.6427"/>
<polygon fill="#191970" stroke="#191970" points="81.0001,-113.2455 84.5,-123.2455 88.0001,-113.2456 81.0001,-113.2455"/>
</g>
<!-- Node4 -->
<g id="node4" class="node">
<title>Node4</title>
<g id="a_node4"><a xlink:href="classitk_1_1simple_1_1NonCopyable.html" target="_top" xlink:title="An inheritable class to disable copying of a class.">
<polygon fill="#ffffff" stroke="#000000" points="14.5,-179.5 14.5,-198.5 154.5,-198.5 154.5,-179.5 14.5,-179.5"/>
<text text-anchor="middle" x="84.5" y="-186.5" font-family="Helvetica,sans-Serif" font-size="10.00" fill="#000000">itk::simple::NonCopyable</text>
</a>
</g>
</g>
<!-- Node4&#45;&gt;Node3 -->
<g id="edge3" class="edge">
<title>Node4&#45;&gt;Node3</title>
<path fill="none" stroke="#006400" d="M84.5,-169.1575C84.5,-160.155 84.5,-149.9199 84.5,-142.6427"/>
<polygon fill="#006400" stroke="#006400" points="81.0001,-169.2455 84.5,-179.2455 88.0001,-169.2456 81.0001,-169.2455"/>
</g>
</g>
</svg>
