<?xml version="1.0" encoding="UTF-8" standalone="no"?>
<!DOCTYPE svg PUBLIC "-//W3C//DTD SVG 1.1//EN"
 "http://www.w3.org/Graphics/SVG/1.1/DTD/svg11.dtd">
<!-- Generated by graphviz version 2.40.1 (20161225.0304)
 -->
<!-- Title: itk::simple::SLICImageFilter Pages: 1 -->
<svg width="158pt" height="196pt"
 viewBox="0.00 0.00 158.00 196.00" xmlns="http://www.w3.org/2000/svg" xmlns:xlink="http://www.w3.org/1999/xlink">
<g id="graph0" class="graph" transform="scale(1 1) rotate(0) translate(4 192)">
<title>itk::simple::SLICImageFilter</title>
<polygon fill="#ffffff" stroke="transparent" points="-4,4 -4,-192 154,-192 154,4 -4,4"/>
<!-- Node1 -->
<g id="node1" class="node">
<title>Node1</title>
<g id="a_node1"><a xlink:title="Simple Linear Iterative Clustering (SLIC) super&#45;pixel segmentation.">
<polygon fill="#bfbfbf" stroke="#000000" points="0,-.5 0,-19.5 150,-19.5 150,-.5 0,-.5"/>
<text text-anchor="middle" x="75" y="-7.5" font-family="Helvetica,sans-Serif" font-size="10.00" fill="#000000">itk::simple::SLICImageFilter</text>
</a>
</g>
</g>
<!-- Node2 -->
<g id="node2" class="node">
<title>Node2</title>
<g id="a_node2"><a xlink:href="classitk_1_1simple_1_1ImageFilter.html" target="_top" xlink:title="The base interface for SimpleITK filters that take one input image.">
<polygon fill="#ffffff" stroke="#000000" points="10.5,-56.5 10.5,-75.5 139.5,-75.5 139.5,-56.5 10.5,-56.5"/>
<text text-anchor="middle" x="75" y="-63.5" font-family="Helvetica,sans-Serif" font-size="10.00" fill="#000000">itk::simple::ImageFilter</text>
</a>
</g>
</g>
<!-- Node2&#45;&gt;Node1 -->
<g id="edge1" class="edge">
<title>Node2&#45;&gt;Node1</title>
<path fill="none" stroke="#191970" d="M75,-46.1575C75,-37.155 75,-26.9199 75,-19.6427"/>
<polygon fill="#191970" stroke="#191970" points="71.5001,-46.2455 75,-56.2455 78.5001,-46.2456 71.5001,-46.2455"/>
</g>
<!-- Node3 -->
<g id="node3" class="node">
<title>Node3</title>
<g id="a_node3"><a xlink:href="classitk_1_1simple_1_1ProcessObject.html" target="_top" xlink:title="Base class for SimpleITK classes based on ProcessObject.">
<polygon fill="#ffffff" stroke="#000000" points="3.5,-112.5 3.5,-131.5 146.5,-131.5 146.5,-112.5 3.5,-112.5"/>
<text text-anchor="middle" x="75" y="-119.5" font-family="Helvetica,sans-Serif" font-size="10.00" fill="#000000">itk::simple::ProcessObject</text>
</a>
</g>
</g>
<!-- Node3&#45;&gt;Node2 -->
<g id="edge2" class="edge">
<title>Node3&#45;&gt;Node2</title>
<path fill="none" stroke="#191970" d="M75,-102.1575C75,-93.155 75,-82.9199 75,-75.6427"/>
<polygon fill="#191970" stroke="#191970" points="71.5001,-102.2455 75,-112.2455 78.5001,-102.2456 71.5001,-102.2455"/>
</g>
<!-- Node4 -->
<g id="node4" class="node">
<title>Node4</title>
<g id="a_node4"><a xlink:href="classitk_1_1simple_1_1NonCopyable.html" target="_top" xlink:title="An inheritable class to disable copying of a class.">
<polygon fill="#ffffff" stroke="#000000" points="5,-168.5 5,-187.5 145,-187.5 145,-168.5 5,-168.5"/>
<text text-anchor="middle" x="75" y="-175.5" font-family="Helvetica,sans-Serif" font-size="10.00" fill="#000000">itk::simple::NonCopyable</text>
</a>
</g>
</g>
<!-- Node4&#45;&gt;Node3 -->
<g id="edge3" class="edge">
<title>Node4&#45;&gt;Node3</title>
<path fill="none" stroke="#006400" d="M75,-158.1575C75,-149.155 75,-138.9199 75,-131.6427"/>
<polygon fill="#006400" stroke="#006400" points="71.5001,-158.2455 75,-168.2455 78.5001,-158.2456 71.5001,-158.2455"/>
</g>
</g>
</svg>
