<?xml version="1.0" encoding="UTF-8" standalone="no"?>
<!DOCTYPE svg PUBLIC "-//W3C//DTD SVG 1.1//EN"
 "http://www.w3.org/Graphics/SVG/1.1/DTD/svg11.dtd">
<!-- Generated by graphviz version 2.40.1 (20161225.0304)
 -->
<!-- Title: itk::HolderCommand&lt; T &gt; Pages: 1 -->
<svg width="154pt" height="196pt"
 viewBox="0.00 0.00 154.00 196.00" xmlns="http://www.w3.org/2000/svg" xmlns:xlink="http://www.w3.org/1999/xlink">
<g id="graph0" class="graph" transform="scale(1 1) rotate(0) translate(4 192)">
<title>itk::HolderCommand&lt; T &gt;</title>
<polygon fill="#ffffff" stroke="transparent" points="-4,4 -4,-192 150,-192 150,4 -4,4"/>
<!-- Node1 -->
<g id="node1" class="node">
<title>Node1</title>
<g id="a_node1"><a xlink:title="An ITK Command class to hold a object until destruction.">
<polygon fill="#bfbfbf" stroke="#000000" points="0,-.5 0,-19.5 146,-19.5 146,-.5 0,-.5"/>
<text text-anchor="middle" x="73" y="-7.5" font-family="Helvetica,sans-Serif" font-size="10.00" fill="#000000">itk::HolderCommand&lt; T &gt;</text>
</a>
</g>
</g>
<!-- Node2 -->
<g id="node2" class="node">
<title>Node2</title>
<g id="a_node2"><a xlink:href="https://www.itk.org/Doxygen/html/classitk_1_1Command.html" xlink:title=" ">
<polygon fill="#ffffff" stroke="#000000" points="30,-56.5 30,-75.5 116,-75.5 116,-56.5 30,-56.5"/>
<text text-anchor="middle" x="73" y="-63.5" font-family="Helvetica,sans-Serif" font-size="10.00" fill="#000000">itk::Command</text>
</a>
</g>
</g>
<!-- Node2&#45;&gt;Node1 -->
<g id="edge1" class="edge">
<title>Node2&#45;&gt;Node1</title>
<path fill="none" stroke="#191970" d="M73,-46.1575C73,-37.155 73,-26.9199 73,-19.6427"/>
<polygon fill="#191970" stroke="#191970" points="69.5001,-46.2455 73,-56.2455 76.5001,-46.2456 69.5001,-46.2455"/>
</g>
<!-- Node3 -->
<g id="node3" class="node">
<title>Node3</title>
<g id="a_node3"><a xlink:href="https://www.itk.org/Doxygen/html/classitk_1_1Object.html" xlink:title=" ">
<polygon fill="#ffffff" stroke="#000000" points="39.5,-112.5 39.5,-131.5 106.5,-131.5 106.5,-112.5 39.5,-112.5"/>
<text text-anchor="middle" x="73" y="-119.5" font-family="Helvetica,sans-Serif" font-size="10.00" fill="#000000">itk::Object</text>
</a>
</g>
</g>
<!-- Node3&#45;&gt;Node2 -->
<g id="edge2" class="edge">
<title>Node3&#45;&gt;Node2</title>
<path fill="none" stroke="#191970" d="M73,-102.1575C73,-93.155 73,-82.9199 73,-75.6427"/>
<polygon fill="#191970" stroke="#191970" points="69.5001,-102.2455 73,-112.2455 76.5001,-102.2456 69.5001,-102.2455"/>
</g>
<!-- Node4 -->
<g id="node4" class="node">
<title>Node4</title>
<g id="a_node4"><a xlink:href="https://www.itk.org/Doxygen/html/classitk_1_1LightObject.html" xlink:title=" ">
<polygon fill="#ffffff" stroke="#000000" points="27.5,-168.5 27.5,-187.5 118.5,-187.5 118.5,-168.5 27.5,-168.5"/>
<text text-anchor="middle" x="73" y="-175.5" font-family="Helvetica,sans-Serif" font-size="10.00" fill="#000000">itk::LightObject</text>
</a>
</g>
</g>
<!-- Node4&#45;&gt;Node3 -->
<g id="edge3" class="edge">
<title>Node4&#45;&gt;Node3</title>
<path fill="none" stroke="#191970" d="M73,-158.1575C73,-149.155 73,-138.9199 73,-131.6427"/>
<polygon fill="#191970" stroke="#191970" points="69.5001,-158.2455 73,-168.2455 76.5001,-158.2456 69.5001,-158.2455"/>
</g>
</g>
</svg>
