<?xml version="1.0" encoding="UTF-8" standalone="no"?>
<!DOCTYPE svg PUBLIC "-//W3C//DTD SVG 1.1//EN"
 "http://www.w3.org/Graphics/SVG/1.1/DTD/svg11.dtd">
<!-- Generated by graphviz version 2.40.1 (20161225.0304)
 -->
<!-- Title: itk::simple::InverseDisplacementFieldImageFilter Pages: 1 -->
<svg width="186pt" height="207pt"
 viewBox="0.00 0.00 186.00 207.00" xmlns="http://www.w3.org/2000/svg" xmlns:xlink="http://www.w3.org/1999/xlink">
<g id="graph0" class="graph" transform="scale(1 1) rotate(0) translate(4 203)">
<title>itk::simple::InverseDisplacementFieldImageFilter</title>
<polygon fill="#ffffff" stroke="transparent" points="-4,4 -4,-203 182,-203 182,4 -4,4"/>
<!-- Node1 -->
<g id="node1" class="node">
<title>Node1</title>
<g id="a_node1"><a xlink:title="Computes the inverse of a displacement field.">
<polygon fill="#bfbfbf" stroke="#000000" points="0,-.5 0,-30.5 178,-30.5 178,-.5 0,-.5"/>
<text text-anchor="start" x="8" y="-18.5" font-family="Helvetica,sans-Serif" font-size="10.00" fill="#000000">itk::simple::InverseDisplacement</text>
<text text-anchor="middle" x="89" y="-7.5" font-family="Helvetica,sans-Serif" font-size="10.00" fill="#000000">FieldImageFilter</text>
</a>
</g>
</g>
<!-- Node2 -->
<g id="node2" class="node">
<title>Node2</title>
<g id="a_node2"><a xlink:href="classitk_1_1simple_1_1ImageFilter.html" target="_top" xlink:title="The base interface for SimpleITK filters that take one input image.">
<polygon fill="#ffffff" stroke="#000000" points="24.5,-67.5 24.5,-86.5 153.5,-86.5 153.5,-67.5 24.5,-67.5"/>
<text text-anchor="middle" x="89" y="-74.5" font-family="Helvetica,sans-Serif" font-size="10.00" fill="#000000">itk::simple::ImageFilter</text>
</a>
</g>
</g>
<!-- Node2&#45;&gt;Node1 -->
<g id="edge1" class="edge">
<title>Node2&#45;&gt;Node1</title>
<path fill="none" stroke="#191970" d="M89,-57.3693C89,-48.681 89,-38.6241 89,-30.5446"/>
<polygon fill="#191970" stroke="#191970" points="85.5001,-57.3906 89,-67.3906 92.5001,-57.3907 85.5001,-57.3906"/>
</g>
<!-- Node3 -->
<g id="node3" class="node">
<title>Node3</title>
<g id="a_node3"><a xlink:href="classitk_1_1simple_1_1ProcessObject.html" target="_top" xlink:title="Base class for SimpleITK classes based on ProcessObject.">
<polygon fill="#ffffff" stroke="#000000" points="17.5,-123.5 17.5,-142.5 160.5,-142.5 160.5,-123.5 17.5,-123.5"/>
<text text-anchor="middle" x="89" y="-130.5" font-family="Helvetica,sans-Serif" font-size="10.00" fill="#000000">itk::simple::ProcessObject</text>
</a>
</g>
</g>
<!-- Node3&#45;&gt;Node2 -->
<g id="edge2" class="edge">
<title>Node3&#45;&gt;Node2</title>
<path fill="none" stroke="#191970" d="M89,-113.1575C89,-104.155 89,-93.9199 89,-86.6427"/>
<polygon fill="#191970" stroke="#191970" points="85.5001,-113.2455 89,-123.2455 92.5001,-113.2456 85.5001,-113.2455"/>
</g>
<!-- Node4 -->
<g id="node4" class="node">
<title>Node4</title>
<g id="a_node4"><a xlink:href="classitk_1_1simple_1_1NonCopyable.html" target="_top" xlink:title="An inheritable class to disable copying of a class.">
<polygon fill="#ffffff" stroke="#000000" points="19,-179.5 19,-198.5 159,-198.5 159,-179.5 19,-179.5"/>
<text text-anchor="middle" x="89" y="-186.5" font-family="Helvetica,sans-Serif" font-size="10.00" fill="#000000">itk::simple::NonCopyable</text>
</a>
</g>
</g>
<!-- Node4&#45;&gt;Node3 -->
<g id="edge3" class="edge">
<title>Node4&#45;&gt;Node3</title>
<path fill="none" stroke="#006400" d="M89,-169.1575C89,-160.155 89,-149.9199 89,-142.6427"/>
<polygon fill="#006400" stroke="#006400" points="85.5001,-169.2455 89,-179.2455 92.5001,-169.2456 85.5001,-169.2455"/>
</g>
</g>
</svg>
