<?xml version="1.0" encoding="UTF-8" standalone="no"?>
<!DOCTYPE svg PUBLIC "-//W3C//DTD SVG 1.1//EN"
 "http://www.w3.org/Graphics/SVG/1.1/DTD/svg11.dtd">
<!-- Generated by graphviz version 2.40.1 (20161225.0304)
 -->
<!-- Title: itk::simple::Transform Pages: 1 -->
<!--zoomable 602 -->
<svg id="main" version="1.1" xmlns="http://www.w3.org/2000/svg" xmlns:xlink="http://www.w3.org/1999/xlink" xml:space="preserve" onload="init(evt)">
<style type="text/css"><![CDATA[
.edge:hover path { stroke: red; }
.edge:hover polygon { stroke: red; fill: red; }
]]></style>
<script type="text/javascript"><![CDATA[
var edges = document.getElementsByTagName('g');
if (edges && edges.length) {
  for (var i=0;i<edges.length;i++) {
    if (edges[i].id.substr(0,4)=='edge') {
      edges[i].setAttribute('class','edge');
    }
  }
}
]]></script>
        <defs>
                <circle id="rim" cx="0" cy="0" r="7"/>
                <circle id="rim2" cx="0" cy="0" r="3.5"/>
                <g id="zoomPlus">
                        <use xlink:href="#rim" fill="#404040">
                                <set attributeName="fill" to="#808080" begin="zoomplus.mouseover" end="zoomplus.mouseout"/>
                        </use>
                        <path d="M-4,0h8M0,-4v8" fill="none" stroke="white" stroke-width="1.5" pointer-events="none"/>
                </g>
                <g id="zoomMin">
                        <use xlink:href="#rim" fill="#404040">
                                <set attributeName="fill" to="#808080" begin="zoomminus.mouseover" end="zoomminus.mouseout"/>
                        </use>
                        <path d="M-4,0h8" fill="none" stroke="white" stroke-width="1.5" pointer-events="none"/>
                </g>
                <g id="dirArrow">
                        <path fill="none" stroke="white" stroke-width="1.5" d="M0,-3.0v7 M-2.5,-0.5L0,-3.0L2.5,-0.5"/>
                </g>
               <g id="resetDef">
                       <use xlink:href="#rim2" fill="#404040">
                               <set attributeName="fill" to="#808080" begin="reset.mouseover" end="reset.mouseout"/>
                       </use>
               </g>
        </defs>

<script type="text/javascript">
var viewWidth = 343;
var viewHeight = 602;
var sectionId = 'dynsection-0';
</script>
<script xlink:href="svgpan.js"/>
<svg id="graph" class="graph">
<g id="viewport">
<title>itk::simple::Transform</title>
<polygon fill="#ffffff" stroke="transparent" points="-4,4 -4,-598 339,-598 339,4 -4,4"/>
<!-- Node1 -->
<g id="node1" class="node">
<title>Node1</title>
<g id="a_node1"><a xlink:title="A simplified wrapper around a variety of ITK transforms.">
<polygon fill="#bfbfbf" stroke="#000000" points="0,-306.5 0,-325.5 123,-325.5 123,-306.5 0,-306.5"/>
<text text-anchor="middle" x="61.5" y="-313.5" font-family="Helvetica,sans-Serif" font-size="10.00" fill="#000000">itk::simple::Transform</text>
</a>
</g>
</g>
<!-- Node2 -->
<g id="node2" class="node">
<title>Node2</title>
<g id="a_node2"><a xlink:href="classitk_1_1simple_1_1AffineTransform.html" target="_top" xlink:title="An affine transformation about a fixed center with translation for a 2D or 3D coordinate.">
<polygon fill="#ffffff" stroke="#000000" points="171,-574.5 171,-593.5 323,-593.5 323,-574.5 171,-574.5"/>
<text text-anchor="middle" x="247" y="-581.5" font-family="Helvetica,sans-Serif" font-size="10.00" fill="#000000">itk::simple::AffineTransform</text>
</a>
</g>
</g>
<!-- Node1&#45;&gt;Node2 -->
<g id="edge1" class="edge">
<title>Node1&#45;&gt;Node2</title>
<path fill="none" stroke="#191970" d="M63.0941,-335.8988C68.0167,-383.3991 87.3081,-503.9854 159,-565 163.404,-568.7481 168.3732,-571.8097 173.6523,-574.3048"/>
<polygon fill="#191970" stroke="#191970" points="66.5581,-335.3476 62.1482,-325.7142 59.5881,-335.995 66.5581,-335.3476"/>
</g>
<!-- Node3 -->
<g id="node3" class="node">
<title>Node3</title>
<g id="a_node3"><a xlink:href="classitk_1_1simple_1_1BSplineTransform.html" target="_top" xlink:title="A deformable transform over a bounded spatial domain using a BSpline representation for a 2D or 3D co...">
<polygon fill="#ffffff" stroke="#000000" points="167,-536.5 167,-555.5 327,-555.5 327,-536.5 167,-536.5"/>
<text text-anchor="middle" x="247" y="-543.5" font-family="Helvetica,sans-Serif" font-size="10.00" fill="#000000">itk::simple::BSplineTransform</text>
</a>
</g>
</g>
<!-- Node1&#45;&gt;Node3 -->
<g id="edge2" class="edge">
<title>Node1&#45;&gt;Node3</title>
<path fill="none" stroke="#191970" d="M64.6098,-335.7133C72.3474,-377.865 96.5471,-476.9813 159,-527 163.7578,-530.8105 169.1083,-533.901 174.7605,-536.4024"/>
<polygon fill="#191970" stroke="#191970" points="68.0585,-335.1156 62.9143,-325.8534 61.1597,-336.302 68.0585,-335.1156"/>
</g>
<!-- Node4 -->
<g id="node4" class="node">
<title>Node4</title>
<g id="a_node4"><a xlink:href="classitk_1_1simple_1_1CompositeTransform.html" target="_top" xlink:title="This class contains a stack of transforms and concatenates them by composition.">
<polygon fill="#ffffff" stroke="#000000" points="159,-498.5 159,-517.5 335,-517.5 335,-498.5 159,-498.5"/>
<text text-anchor="middle" x="247" y="-505.5" font-family="Helvetica,sans-Serif" font-size="10.00" fill="#000000">itk::simple::CompositeTransform</text>
</a>
</g>
</g>
<!-- Node1&#45;&gt;Node4 -->
<g id="edge3" class="edge">
<title>Node1&#45;&gt;Node4</title>
<path fill="none" stroke="#191970" d="M66.7221,-335.5969C77.4762,-371.9508 105.6786,-449.7033 159,-489 164.1586,-492.8018 169.9221,-495.8732 175.9644,-498.3506"/>
<polygon fill="#191970" stroke="#191970" points="70.0223,-334.4046 63.9363,-325.7322 63.2858,-336.307 70.0223,-334.4046"/>
</g>
<!-- Node5 -->
<g id="node5" class="node">
<title>Node5</title>
<g id="a_node5"><a xlink:href="classitk_1_1simple_1_1DisplacementFieldTransform.html" target="_top" xlink:title="A dense deformable transform over a bounded spatial domain for 2D or 3D coordinates space.">
<polygon fill="#ffffff" stroke="#000000" points="176,-449 176,-479 318,-479 318,-449 176,-449"/>
<text text-anchor="start" x="184" y="-467" font-family="Helvetica,sans-Serif" font-size="10.00" fill="#000000">itk::simple::Displacement</text>
<text text-anchor="middle" x="247" y="-456" font-family="Helvetica,sans-Serif" font-size="10.00" fill="#000000">FieldTransform</text>
</a>
</g>
</g>
<!-- Node1&#45;&gt;Node5 -->
<g id="edge4" class="edge">
<title>Node1&#45;&gt;Node5</title>
<path fill="none" stroke="#191970" d="M71.1907,-334.5252C86.2967,-361.5793 118.0264,-411.645 159,-439 164.812,-442.8802 171.2257,-446.1651 177.8626,-448.9448"/>
<polygon fill="#191970" stroke="#191970" points="74.238,-332.8024 66.3911,-325.6837 68.086,-336.1421 74.238,-332.8024"/>
</g>
<!-- Node6 -->
<g id="node6" class="node">
<title>Node6</title>
<g id="a_node6"><a xlink:href="classitk_1_1simple_1_1Euler2DTransform.html" target="_top" xlink:title="A rigid 2D transform with rotation in radians around a fixed center with translation.">
<polygon fill="#ffffff" stroke="#000000" points="166.5,-410.5 166.5,-429.5 327.5,-429.5 327.5,-410.5 166.5,-410.5"/>
<text text-anchor="middle" x="247" y="-417.5" font-family="Helvetica,sans-Serif" font-size="10.00" fill="#000000">itk::simple::Euler2DTransform</text>
</a>
</g>
</g>
<!-- Node1&#45;&gt;Node6 -->
<g id="edge5" class="edge">
<title>Node1&#45;&gt;Node6</title>
<path fill="none" stroke="#191970" d="M76.1874,-333.2315C93.825,-352.7667 125.276,-384.0882 159,-401 166.6843,-404.8535 175.1287,-407.9282 183.6518,-410.3809"/>
<polygon fill="#191970" stroke="#191970" points="78.7471,-330.8424 69.5078,-325.6573 73.497,-335.4724 78.7471,-330.8424"/>
</g>
<!-- Node7 -->
<g id="node7" class="node">
<title>Node7</title>
<g id="a_node7"><a xlink:href="classitk_1_1simple_1_1Euler3DTransform.html" target="_top" xlink:title="A rigid 3D transform with rotation in radians around a fixed center with translation.">
<polygon fill="#ffffff" stroke="#000000" points="166.5,-372.5 166.5,-391.5 327.5,-391.5 327.5,-372.5 166.5,-372.5"/>
<text text-anchor="middle" x="247" y="-379.5" font-family="Helvetica,sans-Serif" font-size="10.00" fill="#000000">itk::simple::Euler3DTransform</text>
</a>
</g>
</g>
<!-- Node1&#45;&gt;Node7 -->
<g id="edge6" class="edge">
<title>Node1&#45;&gt;Node7</title>
<path fill="none" stroke="#191970" d="M87.2677,-330.5005C106.5228,-340.8162 133.7629,-354.3298 159,-363 169.7907,-366.7071 181.583,-369.845 192.9282,-372.4368"/>
<polygon fill="#191970" stroke="#191970" points="88.6964,-327.2932 78.2402,-325.5847 85.3487,-333.4409 88.6964,-327.2932"/>
</g>
<!-- Node8 -->
<g id="node8" class="node">
<title>Node8</title>
<g id="a_node8"><a xlink:href="classitk_1_1simple_1_1ScaleSkewVersor3DTransform.html" target="_top" xlink:title="A over parameterized 3D Affine transform composed of the addition of a versor rotation matrix,...">
<polygon fill="#ffffff" stroke="#000000" points="165,-323 165,-353 329,-353 329,-323 165,-323"/>
<text text-anchor="start" x="173" y="-341" font-family="Helvetica,sans-Serif" font-size="10.00" fill="#000000">itk::simple::ScaleSkewVersor3</text>
<text text-anchor="middle" x="247" y="-330" font-family="Helvetica,sans-Serif" font-size="10.00" fill="#000000">DTransform</text>
</a>
</g>
</g>
<!-- Node1&#45;&gt;Node8 -->
<g id="edge7" class="edge">
<title>Node1&#45;&gt;Node8</title>
<path fill="none" stroke="#191970" d="M133.2206,-324.5059C143.5735,-325.7338 154.2954,-327.0054 164.8327,-328.2551"/>
<polygon fill="#191970" stroke="#191970" points="133.3538,-320.9973 123.0112,-323.2951 132.5293,-327.9486 133.3538,-320.9973"/>
</g>
<!-- Node9 -->
<g id="node9" class="node">
<title>Node9</title>
<g id="a_node9"><a xlink:href="classitk_1_1simple_1_1ScaleTransform.html" target="_top" xlink:title="A 2D or 3D anisotropic scale of coordinate space around a fixed center.">
<polygon fill="#ffffff" stroke="#000000" points="172.5,-284.5 172.5,-303.5 321.5,-303.5 321.5,-284.5 172.5,-284.5"/>
<text text-anchor="middle" x="247" y="-291.5" font-family="Helvetica,sans-Serif" font-size="10.00" fill="#000000">itk::simple::ScaleTransform</text>
</a>
</g>
</g>
<!-- Node1&#45;&gt;Node9 -->
<g id="edge8" class="edge">
<title>Node1&#45;&gt;Node9</title>
<path fill="none" stroke="#191970" d="M133.1849,-307.4983C146.0486,-305.9727 159.483,-304.3794 172.426,-302.8444"/>
<polygon fill="#191970" stroke="#191970" points="132.5293,-304.0514 123.0112,-308.7049 133.3538,-311.0027 132.5293,-304.0514"/>
</g>
<!-- Node10 -->
<g id="node10" class="node">
<title>Node10</title>
<g id="a_node10"><a xlink:href="classitk_1_1simple_1_1ScaleVersor3DTransform.html" target="_top" xlink:title="A parameterized 3D transform composed of the addition of a versor rotation matrix and a scale matrix ...">
<polygon fill="#ffffff" stroke="#000000" points="178.5,-235 178.5,-265 315.5,-265 315.5,-235 178.5,-235"/>
<text text-anchor="start" x="186.5" y="-253" font-family="Helvetica,sans-Serif" font-size="10.00" fill="#000000">itk::simple::ScaleVersor3</text>
<text text-anchor="middle" x="247" y="-242" font-family="Helvetica,sans-Serif" font-size="10.00" fill="#000000">DTransform</text>
</a>
</g>
</g>
<!-- Node1&#45;&gt;Node10 -->
<g id="edge9" class="edge">
<title>Node1&#45;&gt;Node10</title>
<path fill="none" stroke="#191970" d="M91.5023,-302.2703C110.5981,-293.8108 135.9818,-283.0759 159,-275 168.8912,-271.5297 179.5314,-268.1871 189.8769,-265.137"/>
<polygon fill="#191970" stroke="#191970" points="89.8344,-299.1821 82.1354,-306.4605 92.6929,-305.5719 89.8344,-299.1821"/>
</g>
<!-- Node11 -->
<g id="node11" class="node">
<title>Node11</title>
<g id="a_node11"><a xlink:href="classitk_1_1simple_1_1Similarity2DTransform.html" target="_top" xlink:title="A similarity 2D transform with rotation in radians and isotropic scaling around a fixed center with t...">
<polygon fill="#ffffff" stroke="#000000" points="183,-186 183,-216 311,-216 311,-186 183,-186"/>
<text text-anchor="start" x="191" y="-204" font-family="Helvetica,sans-Serif" font-size="10.00" fill="#000000">itk::simple::Similarity2</text>
<text text-anchor="middle" x="247" y="-193" font-family="Helvetica,sans-Serif" font-size="10.00" fill="#000000">DTransform</text>
</a>
</g>
</g>
<!-- Node1&#45;&gt;Node11 -->
<g id="edge10" class="edge">
<title>Node1&#45;&gt;Node11</title>
<path fill="none" stroke="#191970" d="M75.9021,-298.4346C93.4763,-278.1169 125.0692,-245.0289 159,-226 166.3419,-221.8826 174.4156,-218.3984 182.6035,-215.4619"/>
<polygon fill="#191970" stroke="#191970" points="73.0497,-296.3872 69.2627,-306.2821 78.3937,-300.9085 73.0497,-296.3872"/>
</g>
<!-- Node12 -->
<g id="node12" class="node">
<title>Node12</title>
<g id="a_node12"><a xlink:href="classitk_1_1simple_1_1Similarity3DTransform.html" target="_top" xlink:title="A similarity 3D transform with rotation as a versor, and isotropic scaling around a fixed center with...">
<polygon fill="#ffffff" stroke="#000000" points="183,-137 183,-167 311,-167 311,-137 183,-137"/>
<text text-anchor="start" x="191" y="-155" font-family="Helvetica,sans-Serif" font-size="10.00" fill="#000000">itk::simple::Similarity3</text>
<text text-anchor="middle" x="247" y="-144" font-family="Helvetica,sans-Serif" font-size="10.00" fill="#000000">DTransform</text>
</a>
</g>
</g>
<!-- Node1&#45;&gt;Node12 -->
<g id="edge11" class="edge">
<title>Node1&#45;&gt;Node12</title>
<path fill="none" stroke="#191970" d="M69.7464,-296.7906C83.6728,-266.6558 114.7274,-208.4699 159,-177 166.1198,-171.9391 174.2423,-167.8988 182.6078,-164.6743"/>
<polygon fill="#191970" stroke="#191970" points="66.4302,-295.6326 65.5412,-306.19 72.8199,-298.4913 66.4302,-295.6326"/>
</g>
<!-- Node13 -->
<g id="node13" class="node">
<title>Node13</title>
<g id="a_node13"><a xlink:href="classitk_1_1simple_1_1TranslationTransform.html" target="_top" xlink:title="Translation of a 2D or 3D coordinate space.">
<polygon fill="#ffffff" stroke="#000000" points="183,-88 183,-118 311,-118 311,-88 183,-88"/>
<text text-anchor="start" x="191" y="-106" font-family="Helvetica,sans-Serif" font-size="10.00" fill="#000000">itk::simple::Translation</text>
<text text-anchor="middle" x="247" y="-95" font-family="Helvetica,sans-Serif" font-size="10.00" fill="#000000">Transform</text>
</a>
</g>
</g>
<!-- Node1&#45;&gt;Node13 -->
<g id="edge12" class="edge">
<title>Node1&#45;&gt;Node13</title>
<path fill="none" stroke="#191970" d="M66.0435,-296.6536C76.0239,-258.4881 103.5229,-173.2842 159,-128 166.0132,-122.2754 174.2659,-117.8606 182.8586,-114.4562"/>
<polygon fill="#191970" stroke="#191970" points="62.6125,-295.9475 63.59,-306.4971 69.4047,-297.6405 62.6125,-295.9475"/>
</g>
<!-- Node14 -->
<g id="node14" class="node">
<title>Node14</title>
<g id="a_node14"><a xlink:href="classitk_1_1simple_1_1VersorRigid3DTransform.html" target="_top" xlink:title="A rotation as a versor around a fixed center with translation of a 3D coordinate space.">
<polygon fill="#ffffff" stroke="#000000" points="179,-39 179,-69 315,-69 315,-39 179,-39"/>
<text text-anchor="start" x="187" y="-57" font-family="Helvetica,sans-Serif" font-size="10.00" fill="#000000">itk::simple::VersorRigid3</text>
<text text-anchor="middle" x="247" y="-46" font-family="Helvetica,sans-Serif" font-size="10.00" fill="#000000">DTransform</text>
</a>
</g>
</g>
<!-- Node1&#45;&gt;Node14 -->
<g id="edge13" class="edge">
<title>Node1&#45;&gt;Node14</title>
<path fill="none" stroke="#191970" d="M63.8315,-296.1068C70.2323,-250.6553 92.2905,-138.5379 159,-79 164.8062,-73.818 171.6137,-69.7038 178.8265,-66.4386"/>
<polygon fill="#191970" stroke="#191970" points="60.3439,-295.7852 62.5238,-306.1534 67.2853,-296.6888 60.3439,-295.7852"/>
</g>
<!-- Node15 -->
<g id="node15" class="node">
<title>Node15</title>
<g id="a_node15"><a xlink:href="classitk_1_1simple_1_1VersorTransform.html" target="_top" xlink:title="A 3D rotation transform with rotation as a versor around a fixed center.">
<polygon fill="#ffffff" stroke="#000000" points="170,-.5 170,-19.5 324,-19.5 324,-.5 170,-.5"/>
<text text-anchor="middle" x="247" y="-7.5" font-family="Helvetica,sans-Serif" font-size="10.00" fill="#000000">itk::simple::VersorTransform</text>
</a>
</g>
</g>
<!-- Node1&#45;&gt;Node15 -->
<g id="edge14" class="edge">
<title>Node1&#45;&gt;Node15</title>
<path fill="none" stroke="#191970" d="M65.593,-296.3655C78.1507,-237.9631 117.7856,-67.0963 159,-30 163.7745,-25.7026 169.2768,-22.2687 175.1514,-19.532"/>
<polygon fill="#191970" stroke="#191970" points="62.1002,-295.965 63.4501,-306.4735 68.948,-297.4168 62.1002,-295.965"/>
</g>
</g>
</svg>
        <g id="navigator" transform="translate(0 0)" fill="#404254">
                <rect fill="#f2f5e9" fill-opacity="0.5" stroke="#606060" stroke-width=".5" x="0" y="0" width="60" height="60"/>
                <use id="zoomplus" xlink:href="#zoomPlus" x="17" y="9" onmousedown="handleZoom(evt,'in')"/>
                <use id="zoomminus" xlink:href="#zoomMin" x="42" y="9" onmousedown="handleZoom(evt,'out')"/>
                <use id="reset" xlink:href="#resetDef" x="30" y="36" onmousedown="handleReset()"/>
                <g id="arrowUp" xlink:href="#dirArrow" transform="translate(30 24)" onmousedown="handlePan(0,-1)">
                  <use xlink:href="#rim" fill="#404040">
                        <set attributeName="fill" to="#808080" begin="arrowUp.mouseover" end="arrowUp.mouseout"/>
                  </use>
                  <path fill="none" stroke="white" stroke-width="1.5" d="M0,-3.0v7 M-2.5,-0.5L0,-3.0L2.5,-0.5"/>
                </g>
                <g id="arrowRight" xlink:href="#dirArrow" transform="rotate(90) translate(36 -43)" onmousedown="handlePan(1,0)">
                  <use xlink:href="#rim" fill="#404040">
                        <set attributeName="fill" to="#808080" begin="arrowRight.mouseover" end="arrowRight.mouseout"/>
                  </use>
                  <path fill="none" stroke="white" stroke-width="1.5" d="M0,-3.0v7 M-2.5,-0.5L0,-3.0L2.5,-0.5"/>
                </g>
                <g id="arrowDown" xlink:href="#dirArrow" transform="rotate(180) translate(-30 -48)" onmousedown="handlePan(0,1)">
                  <use xlink:href="#rim" fill="#404040">
                        <set attributeName="fill" to="#808080" begin="arrowDown.mouseover" end="arrowDown.mouseout"/>
                  </use>
                  <path fill="none" stroke="white" stroke-width="1.5" d="M0,-3.0v7 M-2.5,-0.5L0,-3.0L2.5,-0.5"/>
                </g>
                <g id="arrowLeft" xlink:href="#dirArrow" transform="rotate(270) translate(-36 17)" onmousedown="handlePan(-1,0)">
                  <use xlink:href="#rim" fill="#404040">
                        <set attributeName="fill" to="#808080" begin="arrowLeft.mouseover" end="arrowLeft.mouseout"/>
                  </use>
                  <path fill="none" stroke="white" stroke-width="1.5" d="M0,-3.0v7 M-2.5,-0.5L0,-3.0L2.5,-0.5"/>
                </g>
        </g>
        <svg viewBox="0 0 15 15" width="100%" height="30px" preserveAspectRatio="xMaxYMin meet">
         <g id="arrow_out" transform="scale(0.3 0.3)">
          <a xlink:href="classitk_1_1simple_1_1Transform__inherit__graph_org.svg" target="_base">
           <rect id="button" ry="5" rx="5" y="6" x="6" height="38" width="38"
                fill="#f2f5e9" fill-opacity="0.5" stroke="#606060" stroke-width="1.0"/>
           <path id="arrow"
             d="M 11.500037,31.436501 C 11.940474,20.09759 22.043105,11.32322 32.158766,21.979434 L 37.068811,17.246167 C 37.068811,17.246167 37.088388,32 37.088388,32 L 22.160133,31.978069 C 22.160133,31.978069 26.997745,27.140456 26.997745,27.140456 C 18.528582,18.264221 13.291696,25.230495 11.500037,31.436501 z"
             style="fill:#404040;"/>
          </a>
         </g>
        </svg>
</svg>
