<?xml version="1.0" encoding="UTF-8" standalone="no"?>
<!DOCTYPE svg PUBLIC "-//W3C//DTD SVG 1.1//EN"
 "http://www.w3.org/Graphics/SVG/1.1/DTD/svg11.dtd">
<!-- Generated by graphviz version 2.40.1 (20161225.0304)
 -->
<!-- Title: itk::HolderCommand&lt; T * &gt; Pages: 1 -->
<svg width="126pt" height="207pt"
 viewBox="0.00 0.00 126.00 207.00" xmlns="http://www.w3.org/2000/svg" xmlns:xlink="http://www.w3.org/1999/xlink">
<g id="graph0" class="graph" transform="scale(1 1) rotate(0) translate(4 203)">
<title>itk::HolderCommand&lt; T * &gt;</title>
<polygon fill="#ffffff" stroke="transparent" points="-4,4 -4,-203 122,-203 122,4 -4,4"/>
<!-- Node1 -->
<g id="node1" class="node">
<title>Node1</title>
<g id="a_node1"><a xlink:title=" ">
<polygon fill="#bfbfbf" stroke="#000000" points="0,-.5 0,-30.5 118,-30.5 118,-.5 0,-.5"/>
<text text-anchor="start" x="8" y="-18.5" font-family="Helvetica,sans-Serif" font-size="10.00" fill="#000000">itk::HolderCommand</text>
<text text-anchor="middle" x="59" y="-7.5" font-family="Helvetica,sans-Serif" font-size="10.00" fill="#000000">&lt; T * &gt;</text>
</a>
</g>
</g>
<!-- Node2 -->
<g id="node2" class="node">
<title>Node2</title>
<g id="a_node2"><a xlink:href="https://www.itk.org/Doxygen/html/classitk_1_1Command.html" xlink:title=" ">
<polygon fill="#ffffff" stroke="#000000" points="16,-67.5 16,-86.5 102,-86.5 102,-67.5 16,-67.5"/>
<text text-anchor="middle" x="59" y="-74.5" font-family="Helvetica,sans-Serif" font-size="10.00" fill="#000000">itk::Command</text>
</a>
</g>
</g>
<!-- Node2&#45;&gt;Node1 -->
<g id="edge1" class="edge">
<title>Node2&#45;&gt;Node1</title>
<path fill="none" stroke="#191970" d="M59,-57.3693C59,-48.681 59,-38.6241 59,-30.5446"/>
<polygon fill="#191970" stroke="#191970" points="55.5001,-57.3906 59,-67.3906 62.5001,-57.3907 55.5001,-57.3906"/>
</g>
<!-- Node3 -->
<g id="node3" class="node">
<title>Node3</title>
<g id="a_node3"><a xlink:href="https://www.itk.org/Doxygen/html/classitk_1_1Object.html" xlink:title=" ">
<polygon fill="#ffffff" stroke="#000000" points="25.5,-123.5 25.5,-142.5 92.5,-142.5 92.5,-123.5 25.5,-123.5"/>
<text text-anchor="middle" x="59" y="-130.5" font-family="Helvetica,sans-Serif" font-size="10.00" fill="#000000">itk::Object</text>
</a>
</g>
</g>
<!-- Node3&#45;&gt;Node2 -->
<g id="edge2" class="edge">
<title>Node3&#45;&gt;Node2</title>
<path fill="none" stroke="#191970" d="M59,-113.1575C59,-104.155 59,-93.9199 59,-86.6427"/>
<polygon fill="#191970" stroke="#191970" points="55.5001,-113.2455 59,-123.2455 62.5001,-113.2456 55.5001,-113.2455"/>
</g>
<!-- Node4 -->
<g id="node4" class="node">
<title>Node4</title>
<g id="a_node4"><a xlink:href="https://www.itk.org/Doxygen/html/classitk_1_1LightObject.html" xlink:title=" ">
<polygon fill="#ffffff" stroke="#000000" points="13.5,-179.5 13.5,-198.5 104.5,-198.5 104.5,-179.5 13.5,-179.5"/>
<text text-anchor="middle" x="59" y="-186.5" font-family="Helvetica,sans-Serif" font-size="10.00" fill="#000000">itk::LightObject</text>
</a>
</g>
</g>
<!-- Node4&#45;&gt;Node3 -->
<g id="edge3" class="edge">
<title>Node4&#45;&gt;Node3</title>
<path fill="none" stroke="#191970" d="M59,-169.1575C59,-160.155 59,-149.9199 59,-142.6427"/>
<polygon fill="#191970" stroke="#191970" points="55.5001,-169.2455 59,-179.2455 62.5001,-169.2456 55.5001,-169.2455"/>
</g>
</g>
</svg>
