<?xml version="1.0" encoding="UTF-8" standalone="no"?>
<!DOCTYPE svg PUBLIC "-//W3C//DTD SVG 1.1//EN"
 "http://www.w3.org/Graphics/SVG/1.1/DTD/svg11.dtd">
<!-- Generated by graphviz version 2.40.1 (20161225.0304)
 -->
<!-- Title: itk::simple::LandweberDeconvolutionImageFilter Pages: 1 -->
<svg width="206pt" height="207pt"
 viewBox="0.00 0.00 206.00 207.00" xmlns="http://www.w3.org/2000/svg" xmlns:xlink="http://www.w3.org/1999/xlink">
<g id="graph0" class="graph" transform="scale(1 1) rotate(0) translate(4 203)">
<title>itk::simple::LandweberDeconvolutionImageFilter</title>
<polygon fill="#ffffff" stroke="transparent" points="-4,4 -4,-203 202,-203 202,4 -4,4"/>
<!-- Node1 -->
<g id="node1" class="node">
<title>Node1</title>
<g id="a_node1"><a xlink:title="Deconvolve an image using the Landweber deconvolution algorithm.">
<polygon fill="#bfbfbf" stroke="#000000" points="0,-.5 0,-30.5 198,-30.5 198,-.5 0,-.5"/>
<text text-anchor="start" x="8" y="-18.5" font-family="Helvetica,sans-Serif" font-size="10.00" fill="#000000">itk::simple::LandweberDeconvolution</text>
<text text-anchor="middle" x="99" y="-7.5" font-family="Helvetica,sans-Serif" font-size="10.00" fill="#000000">ImageFilter</text>
</a>
</g>
</g>
<!-- Node2 -->
<g id="node2" class="node">
<title>Node2</title>
<g id="a_node2"><a xlink:href="classitk_1_1simple_1_1ImageFilter.html" target="_top" xlink:title="The base interface for SimpleITK filters that take one input image.">
<polygon fill="#ffffff" stroke="#000000" points="34.5,-67.5 34.5,-86.5 163.5,-86.5 163.5,-67.5 34.5,-67.5"/>
<text text-anchor="middle" x="99" y="-74.5" font-family="Helvetica,sans-Serif" font-size="10.00" fill="#000000">itk::simple::ImageFilter</text>
</a>
</g>
</g>
<!-- Node2&#45;&gt;Node1 -->
<g id="edge1" class="edge">
<title>Node2&#45;&gt;Node1</title>
<path fill="none" stroke="#191970" d="M99,-57.3693C99,-48.681 99,-38.6241 99,-30.5446"/>
<polygon fill="#191970" stroke="#191970" points="95.5001,-57.3906 99,-67.3906 102.5001,-57.3907 95.5001,-57.3906"/>
</g>
<!-- Node3 -->
<g id="node3" class="node">
<title>Node3</title>
<g id="a_node3"><a xlink:href="classitk_1_1simple_1_1ProcessObject.html" target="_top" xlink:title="Base class for SimpleITK classes based on ProcessObject.">
<polygon fill="#ffffff" stroke="#000000" points="27.5,-123.5 27.5,-142.5 170.5,-142.5 170.5,-123.5 27.5,-123.5"/>
<text text-anchor="middle" x="99" y="-130.5" font-family="Helvetica,sans-Serif" font-size="10.00" fill="#000000">itk::simple::ProcessObject</text>
</a>
</g>
</g>
<!-- Node3&#45;&gt;Node2 -->
<g id="edge2" class="edge">
<title>Node3&#45;&gt;Node2</title>
<path fill="none" stroke="#191970" d="M99,-113.1575C99,-104.155 99,-93.9199 99,-86.6427"/>
<polygon fill="#191970" stroke="#191970" points="95.5001,-113.2455 99,-123.2455 102.5001,-113.2456 95.5001,-113.2455"/>
</g>
<!-- Node4 -->
<g id="node4" class="node">
<title>Node4</title>
<g id="a_node4"><a xlink:href="classitk_1_1simple_1_1NonCopyable.html" target="_top" xlink:title="An inheritable class to disable copying of a class.">
<polygon fill="#ffffff" stroke="#000000" points="29,-179.5 29,-198.5 169,-198.5 169,-179.5 29,-179.5"/>
<text text-anchor="middle" x="99" y="-186.5" font-family="Helvetica,sans-Serif" font-size="10.00" fill="#000000">itk::simple::NonCopyable</text>
</a>
</g>
</g>
<!-- Node4&#45;&gt;Node3 -->
<g id="edge3" class="edge">
<title>Node4&#45;&gt;Node3</title>
<path fill="none" stroke="#006400" d="M99,-169.1575C99,-160.155 99,-149.9199 99,-142.6427"/>
<polygon fill="#006400" stroke="#006400" points="95.5001,-169.2455 99,-179.2455 102.5001,-169.2456 95.5001,-169.2455"/>
</g>
</g>
</svg>
