<?xml version="1.0" encoding="UTF-8" standalone="no"?>
<!DOCTYPE svg PUBLIC "-//W3C//DTD SVG 1.1//EN"
 "http://www.w3.org/Graphics/SVG/1.1/DTD/svg11.dtd">
<!-- Generated by graphviz version 2.40.1 (20161225.0304)
 -->
<!-- Title: itk::simple::Command Pages: 1 -->
<svg width="2112pt" height="593pt"
 viewBox="0.00 0.00 2112.00 593.25" xmlns="http://www.w3.org/2000/svg" xmlns:xlink="http://www.w3.org/1999/xlink">
<g id="graph0" class="graph" transform="scale(1 1) rotate(0) translate(4 589.2476)">
<title>itk::simple::Command</title>
<polygon fill="#ffffff" stroke="transparent" points="-4,4 -4,-589.2476 2108,-589.2476 2108,4 -4,4"/>
<!-- Node1 -->
<g id="node1" class="node">
<title>Node1</title>
<g id="a_node1"><a xlink:title="An implementation of the Command design pattern for callback.">
<polygon fill="#bfbfbf" stroke="#000000" points="833,-434.7476 833,-453.7476 958,-453.7476 958,-434.7476 833,-434.7476"/>
<text text-anchor="middle" x="895.5" y="-441.7476" font-family="Helvetica,sans-Serif" font-size="10.00" fill="#000000">itk::simple::Command</text>
</a>
</g>
</g>
<!-- Node8 -->
<g id="node8" class="node">
<title>Node8</title>
<g id="a_node8"><a xlink:href="structitk_1_1simple_1_1ProcessObject_1_1EventCommand.html" target="_top" xlink:title=" ">
<polygon fill="#ffffff" stroke="#000000" points="1132,-430.2476 1132,-460.2476 1275,-460.2476 1275,-430.2476 1132,-430.2476"/>
<text text-anchor="start" x="1140" y="-448.2476" font-family="Helvetica,sans-Serif" font-size="10.00" fill="#000000">itk::simple::ProcessObject</text>
<text text-anchor="middle" x="1203.5" y="-437.2476" font-family="Helvetica,sans-Serif" font-size="10.00" fill="#000000">::EventCommand</text>
</a>
</g>
</g>
<!-- Node1&#45;&gt;Node8 -->
<g id="edge9" class="edge">
<title>Node1&#45;&gt;Node8</title>
<path fill="none" stroke="#9a32cd" stroke-dasharray="5,2" d="M968.4974,-444.4846C1017.915,-444.645 1082.8886,-444.856 1131.9898,-445.0154"/>
<polygon fill="#9a32cd" stroke="#9a32cd" points="968.211,-440.9837 958.1996,-444.4511 968.1882,-447.9837 968.211,-440.9837"/>
<text text-anchor="middle" x="1056" y="-448.2476" font-family="Helvetica,sans-Serif" font-size="10.00" fill="#000000"> m_Command</text>
</g>
<!-- Node2 -->
<g id="node2" class="node">
<title>Node2</title>
<g id="a_node2"><a xlink:href="classitk_1_1simple_1_1NonCopyable.html" target="_top" xlink:title="An inheritable class to disable copying of a class.">
<polygon fill="#ffffff" stroke="#000000" points="473.5,-459.7476 473.5,-478.7476 613.5,-478.7476 613.5,-459.7476 473.5,-459.7476"/>
<text text-anchor="middle" x="543.5" y="-466.7476" font-family="Helvetica,sans-Serif" font-size="10.00" fill="#000000">itk::simple::NonCopyable</text>
</a>
</g>
</g>
<!-- Node2&#45;&gt;Node1 -->
<g id="edge1" class="edge">
<title>Node2&#45;&gt;Node1</title>
<path fill="none" stroke="#006400" d="M624.2492,-463.5125C687.6667,-459.0085 774.6964,-452.8274 832.9038,-448.6933"/>
<polygon fill="#006400" stroke="#006400" points="623.6133,-460.0488 613.8864,-464.2485 624.1093,-467.0312 623.6133,-460.0488"/>
</g>
<!-- Node6 -->
<g id="node6" class="node">
<title>Node6</title>
<g id="a_node6"><a xlink:href="classitk_1_1simple_1_1ProcessObject.html" target="_top" xlink:title="Base class for SimpleITK classes based on ProcessObject.">
<polygon fill="#ffffff" stroke="#000000" points="1782,-443.7476 1782,-462.7476 1925,-462.7476 1925,-443.7476 1782,-443.7476"/>
<text text-anchor="middle" x="1853.5" y="-450.7476" font-family="Helvetica,sans-Serif" font-size="10.00" fill="#000000">itk::simple::ProcessObject</text>
</a>
</g>
</g>
<!-- Node2&#45;&gt;Node6 -->
<g id="edge6" class="edge">
<title>Node2&#45;&gt;Node6</title>
<path fill="none" stroke="#006400" d="M620.8464,-480.1471C711.1273,-492.2737 865.0329,-511.1006 998,-518.2476 1291.5641,-534.0265 1366.529,-523.0733 1659,-493.2476 1705.9618,-488.4585 1717.7986,-486.9312 1764,-477.2476 1783.2089,-473.2215 1804.4359,-467.582 1821.3948,-462.7814"/>
<polygon fill="#006400" stroke="#006400" points="621.0752,-476.6463 610.6966,-478.7759 620.138,-483.5833 621.0752,-476.6463"/>
</g>
<!-- Node3 -->
<g id="node3" class="node">
<title>Node3</title>
<g id="a_node3"><a xlink:title="STL class.">
<polygon fill="#ffffff" stroke="#bfbfbf" points="511,-176.7476 511,-195.7476 576,-195.7476 576,-176.7476 511,-176.7476"/>
<text text-anchor="middle" x="543.5" y="-183.7476" font-family="Helvetica,sans-Serif" font-size="10.00" fill="#000000">std::string</text>
</a>
</g>
</g>
<!-- Node3&#45;&gt;Node1 -->
<g id="edge2" class="edge">
<title>Node3&#45;&gt;Node1</title>
<path fill="none" stroke="#9a32cd" stroke-dasharray="5,2" d="M584.6613,-199.2919C598.8571,-204.5693 614.5583,-211.308 628,-219.2476 636.9664,-224.5437 636.4843,-230.0173 646,-234.2476 706.306,-261.057 747.1905,-207.7392 793,-255.2476 845.7377,-309.9411 760.4712,-368.5071 811,-425.2476 816.8999,-431.8728 824.5687,-436.4534 832.8775,-439.58"/>
<polygon fill="#9a32cd" stroke="#9a32cd" points="585.7149,-195.9515 575.1204,-195.8749 583.3547,-202.5417 585.7149,-195.9515"/>
<text text-anchor="middle" x="719.5" y="-258.2476" font-family="Helvetica,sans-Serif" font-size="10.00" fill="#000000"> m_Name</text>
</g>
<!-- Node12 -->
<g id="node12" class="node">
<title>Node12</title>
<g id="a_node12"><a xlink:href="https://www.itk.org/Doxygen/html/classitk_1_1Object.html" xlink:title=" ">
<polygon fill="#ffffff" stroke="#000000" points="1170,-268.7476 1170,-287.7476 1237,-287.7476 1237,-268.7476 1170,-268.7476"/>
<text text-anchor="middle" x="1203.5" y="-275.7476" font-family="Helvetica,sans-Serif" font-size="10.00" fill="#000000">itk::Object</text>
</a>
</g>
</g>
<!-- Node3&#45;&gt;Node12 -->
<g id="edge18" class="edge">
<title>Node3&#45;&gt;Node12</title>
<path fill="none" stroke="#9a32cd" stroke-dasharray="5,2" d="M586.0682,-183.7432C664.5457,-179.9378 837.0788,-175.3611 980,-198.2476 1041.3705,-208.0751 1063.3589,-202.2143 1114,-238.2476 1125.1557,-246.1853 1120.5235,-255.7812 1132,-263.2476 1143.1631,-270.51 1157.1973,-274.3384 1169.8694,-276.328"/>
<polygon fill="#9a32cd" stroke="#9a32cd" points="585.8881,-180.2478 576.0777,-184.2486 586.2418,-187.2388 585.8881,-180.2478"/>
<text text-anchor="middle" x="895.5" y="-201.2476" font-family="Helvetica,sans-Serif" font-size="10.00" fill="#000000"> m_ObjectName</text>
</g>
<!-- Node22 -->
<g id="node22" class="node">
<title>Node22</title>
<g id="a_node22"><a xlink:title=" ">
<polygon fill="#ffffff" stroke="#bfbfbf" points="814.5,-55.2476 814.5,-85.2476 976.5,-85.2476 976.5,-55.2476 814.5,-55.2476"/>
<text text-anchor="start" x="822.5" y="-73.2476" font-family="Helvetica,sans-Serif" font-size="10.00" fill="#000000">std::set&lt; DataObjectIdentifier</text>
<text text-anchor="middle" x="895.5" y="-62.2476" font-family="Helvetica,sans-Serif" font-size="10.00" fill="#000000">Type &gt;</text>
</a>
</g>
</g>
<!-- Node3&#45;&gt;Node22 -->
<g id="edge29" class="edge">
<title>Node3&#45;&gt;Node22</title>
<path fill="none" stroke="#9a32cd" stroke-dasharray="5,2" d="M586.4581,-182.5792C601.5135,-179.1813 617.3138,-172.8671 628,-161.2476 654.7289,-132.1842 615.5822,-99.4244 646,-74.2476 670.8627,-53.6687 751.3044,-55.6899 814.2051,-60.9745"/>
<polygon fill="#9a32cd" stroke="#9a32cd" points="585.4112,-179.2143 576.2262,-184.4951 586.6995,-186.0948 585.4112,-179.2143"/>
<text text-anchor="middle" x="719.5" y="-77.2476" font-family="Helvetica,sans-Serif" font-size="10.00" fill="#000000"> keys</text>
</g>
<!-- Node24 -->
<g id="node24" class="node">
<title>Node24</title>
<g id="a_node24"><a xlink:title=" ">
<polygon fill="#ffffff" stroke="#bfbfbf" points="811,-219.2476 811,-249.2476 980,-249.2476 980,-219.2476 811,-219.2476"/>
<text text-anchor="start" x="819" y="-237.2476" font-family="Helvetica,sans-Serif" font-size="10.00" fill="#000000">std::map&lt; DataObjectIdentifier</text>
<text text-anchor="middle" x="895.5" y="-226.2476" font-family="Helvetica,sans-Serif" font-size="10.00" fill="#000000">Type, bool &gt;</text>
</a>
</g>
</g>
<!-- Node3&#45;&gt;Node24 -->
<g id="edge33" class="edge">
<title>Node3&#45;&gt;Node24</title>
<path fill="none" stroke="#9a32cd" stroke-dasharray="5,2" d="M586.3788,-192.1072C604.7398,-194.6155 626.4215,-197.5765 646,-200.2476 700.9018,-207.7378 762.6007,-216.1457 810.9072,-222.7265"/>
<polygon fill="#9a32cd" stroke="#9a32cd" points="586.6562,-188.6126 576.2744,-190.7267 585.7086,-195.5482 586.6562,-188.6126"/>
<text text-anchor="middle" x="719.5" y="-223.2476" font-family="Helvetica,sans-Serif" font-size="10.00" fill="#000000"> keys</text>
</g>
<!-- Node29 -->
<g id="node29" class="node">
<title>Node29</title>
<g id="a_node29"><a xlink:title=" ">
<polygon fill="#ffffff" stroke="#bfbfbf" points="811,-115.2476 811,-145.2476 980,-145.2476 980,-115.2476 811,-115.2476"/>
<text text-anchor="start" x="819" y="-133.2476" font-family="Helvetica,sans-Serif" font-size="10.00" fill="#000000">std::map&lt; DataObjectIdentifier</text>
<text text-anchor="middle" x="895.5" y="-122.2476" font-family="Helvetica,sans-Serif" font-size="10.00" fill="#000000">Type, DataObjectPointer &gt;</text>
</a>
</g>
</g>
<!-- Node3&#45;&gt;Node29 -->
<g id="edge44" class="edge">
<title>Node3&#45;&gt;Node29</title>
<path fill="none" stroke="#9a32cd" stroke-dasharray="5,2" d="M585.9816,-176.3725C604.3724,-172.2941 626.1846,-167.7191 646,-164.2476 700.6868,-154.6669 762.5183,-146.2243 810.9466,-140.1485"/>
<polygon fill="#9a32cd" stroke="#9a32cd" points="585.1427,-172.9736 576.1509,-178.577 586.6744,-179.804 585.1427,-172.9736"/>
<text text-anchor="middle" x="719.5" y="-167.2476" font-family="Helvetica,sans-Serif" font-size="10.00" fill="#000000"> keys</text>
</g>
<!-- Node4 -->
<g id="node4" class="node">
<title>Node4</title>
<g id="a_node4"><a xlink:title="STL class.">
<polygon fill="#ffffff" stroke="#bfbfbf" points="133.5,-109.2476 133.5,-139.2476 237.5,-139.2476 237.5,-109.2476 133.5,-109.2476"/>
<text text-anchor="start" x="141.5" y="-127.2476" font-family="Helvetica,sans-Serif" font-size="10.00" fill="#000000">std::basic_string&lt;</text>
<text text-anchor="middle" x="185.5" y="-116.2476" font-family="Helvetica,sans-Serif" font-size="10.00" fill="#000000"> char &gt;</text>
</a>
</g>
</g>
<!-- Node4&#45;&gt;Node3 -->
<g id="edge3" class="edge">
<title>Node4&#45;&gt;Node3</title>
<path fill="none" stroke="#191970" d="M247.533,-134.9907C323.9532,-148.2255 450.9688,-170.2226 510.634,-180.5557"/>
<polygon fill="#191970" stroke="#191970" points="248.0069,-131.5208 237.5563,-133.2629 246.8123,-138.4181 248.0069,-131.5208"/>
</g>
<!-- Node5 -->
<g id="node5" class="node">
<title>Node5</title>
<g id="a_node5"><a xlink:title=" ">
<polygon fill="#ffffff" stroke="#bfbfbf" points="1988,-386.2476 1988,-416.2476 2104,-416.2476 2104,-386.2476 1988,-386.2476"/>
<text text-anchor="start" x="1996" y="-404.2476" font-family="Helvetica,sans-Serif" font-size="10.00" fill="#000000">std::set&lt; itk::simple</text>
<text text-anchor="middle" x="2046" y="-393.2476" font-family="Helvetica,sans-Serif" font-size="10.00" fill="#000000">::ProcessObject * &gt;</text>
</a>
</g>
</g>
<!-- Node5&#45;&gt;Node1 -->
<g id="edge4" class="edge">
<title>Node5&#45;&gt;Node1</title>
<path fill="none" stroke="#9a32cd" stroke-dasharray="5,2" d="M1977.7558,-401.2476C1940.9495,-401.2476 1894.7399,-401.2476 1853.5,-401.2476 1203.5,-401.2476 1203.5,-401.2476 1203.5,-401.2476 1107.3963,-401.2476 996.0313,-422.0363 937.09,-434.7045"/>
<polygon fill="#9a32cd" stroke="#9a32cd" points="1977.8757,-404.7477 1987.8757,-401.2476 1977.8757,-397.7477 1977.8757,-404.7477"/>
<text text-anchor="middle" x="1565.5" y="-404.2476" font-family="Helvetica,sans-Serif" font-size="10.00" fill="#000000"> m_ReferencedObjects</text>
</g>
<!-- Node6&#45;&gt;Node5 -->
<g id="edge5" class="edge">
<title>Node6&#45;&gt;Node5</title>
<path fill="none" stroke="#9a32cd" stroke-dasharray="5,2" d="M1898.5068,-441.0899C1925.8604,-433.7009 1961.0081,-424.2064 1990.1312,-416.3394"/>
<polygon fill="#9a32cd" stroke="#9a32cd" points="1897.5487,-437.7232 1888.8075,-443.71 1899.3742,-444.481 1897.5487,-437.7232"/>
<text text-anchor="middle" x="1956.5" y="-432.2476" font-family="Helvetica,sans-Serif" font-size="10.00" fill="#000000"> keys</text>
</g>
<!-- Node7 -->
<g id="node7" class="node">
<title>Node7</title>
<g id="a_node7"><a xlink:title=" ">
<polygon fill="#ffffff" stroke="#bfbfbf" points="1472,-453.2476 1472,-483.2476 1659,-483.2476 1659,-453.2476 1472,-453.2476"/>
<text text-anchor="start" x="1480" y="-471.2476" font-family="Helvetica,sans-Serif" font-size="10.00" fill="#000000">std::list&lt; itk::simple</text>
<text text-anchor="middle" x="1565.5" y="-460.2476" font-family="Helvetica,sans-Serif" font-size="10.00" fill="#000000">::ProcessObject::EventCommand &gt;</text>
</a>
</g>
</g>
<!-- Node7&#45;&gt;Node6 -->
<g id="edge7" class="edge">
<title>Node7&#45;&gt;Node6</title>
<path fill="none" stroke="#9a32cd" stroke-dasharray="5,2" d="M1669.4171,-462.8352C1706.7314,-460.8918 1747.9471,-458.7451 1781.9028,-456.9766"/>
<polygon fill="#9a32cd" stroke="#9a32cd" points="1668.8097,-459.362 1659.0053,-463.3775 1669.1739,-466.3525 1668.8097,-459.362"/>
<text text-anchor="middle" x="1720.5" y="-465.2476" font-family="Helvetica,sans-Serif" font-size="10.00" fill="#000000"> m_Commands</text>
</g>
<!-- Node8&#45;&gt;Node7 -->
<g id="edge8" class="edge">
<title>Node8&#45;&gt;Node7</title>
<path fill="none" stroke="#9a32cd" stroke-dasharray="5,2" d="M1285.1512,-450.4354C1340.5758,-453.9568 1414.0079,-458.6224 1471.8144,-462.2952"/>
<polygon fill="#9a32cd" stroke="#9a32cd" points="1285.2214,-446.9328 1275.0196,-449.7916 1284.7775,-453.9188 1285.2214,-446.9328"/>
<text text-anchor="middle" x="1373.5" y="-464.2476" font-family="Helvetica,sans-Serif" font-size="10.00" fill="#000000"> elements</text>
</g>
<!-- Node9 -->
<g id="node9" class="node">
<title>Node9</title>
<g id="a_node9"><a xlink:title="STL class.">
<polygon fill="#ffffff" stroke="#bfbfbf" points="317.5,-561.7476 317.5,-580.7476 398.5,-580.7476 398.5,-561.7476 317.5,-561.7476"/>
<text text-anchor="middle" x="358" y="-568.7476" font-family="Helvetica,sans-Serif" font-size="10.00" fill="#000000">std::list&lt; T &gt;</text>
</a>
</g>
</g>
<!-- Node9&#45;&gt;Node7 -->
<g id="edge10" class="edge">
<title>Node9&#45;&gt;Node7</title>
<path fill="none" stroke="#ffa500" stroke-dasharray="5,2" d="M409.0133,-571.9286C566.189,-573.1594 1056.4564,-570.5041 1454,-498.2476 1474.7091,-494.4835 1497.1877,-488.7603 1516.5004,-483.3183"/>
<polygon fill="#ffa500" stroke="#ffa500" points="408.742,-568.4262 398.7117,-571.8384 408.6806,-575.4259 408.742,-568.4262"/>
<text text-anchor="start" x="824.5" y="-577.2476" font-family="Helvetica,sans-Serif" font-size="10.00" fill="#000000"> &lt; itk::simple::ProcessObject</text>
<text text-anchor="middle" x="895.5" y="-566.2476" font-family="Helvetica,sans-Serif" font-size="10.00" fill="#000000">::EventCommand &gt;</text>
</g>
<!-- Node10 -->
<g id="node10" class="node">
<title>Node10</title>
<g id="a_node10"><a xlink:title=" ">
<polygon fill="#ffffff" stroke="#bfbfbf" points="0,-382.7476 0,-401.7476 29,-401.7476 29,-382.7476 0,-382.7476"/>
<text text-anchor="middle" x="14.5" y="-389.7476" font-family="Helvetica,sans-Serif" font-size="10.00" fill="#000000">T</text>
</a>
</g>
</g>
<!-- Node10&#45;&gt;Node9 -->
<g id="edge11" class="edge">
<title>Node10&#45;&gt;Node9</title>
<path fill="none" stroke="#9a32cd" stroke-dasharray="5,2" d="M21.9545,-410.9875C35.323,-441.9182 66.4918,-503.125 114,-532.2476 177.0901,-570.9219 265.9433,-575.1843 317.194,-573.8503"/>
<polygon fill="#9a32cd" stroke="#9a32cd" points="25.1821,-409.6336 18.1053,-401.7488 18.7204,-412.3257 25.1821,-409.6336"/>
<text text-anchor="middle" x="71.5" y="-521.2476" font-family="Helvetica,sans-Serif" font-size="10.00" fill="#000000"> elements</text>
</g>
<!-- Node15 -->
<g id="node15" class="node">
<title>Node15</title>
<g id="a_node15"><a xlink:title="STL class.">
<polygon fill="#ffffff" stroke="#bfbfbf" points="135.5,-382.7476 135.5,-401.7476 235.5,-401.7476 235.5,-382.7476 135.5,-382.7476"/>
<text text-anchor="middle" x="185.5" y="-389.7476" font-family="Helvetica,sans-Serif" font-size="10.00" fill="#000000">std::atomic&lt; T &gt;</text>
</a>
</g>
</g>
<!-- Node10&#45;&gt;Node15 -->
<g id="edge17" class="edge">
<title>Node10&#45;&gt;Node15</title>
<path fill="none" stroke="#9a32cd" stroke-dasharray="5,2" d="M39.1655,-392.2476C64.1796,-392.2476 103.6056,-392.2476 135.2345,-392.2476"/>
<polygon fill="#9a32cd" stroke="#9a32cd" points="39.0794,-388.7477 29.0794,-392.2476 39.0793,-395.7477 39.0794,-388.7477"/>
<text text-anchor="middle" x="71.5" y="-395.2476" font-family="Helvetica,sans-Serif" font-size="10.00" fill="#000000"> ptr</text>
</g>
<!-- Node18 -->
<g id="node18" class="node">
<title>Node18</title>
<g id="a_node18"><a xlink:title="STL class.">
<polygon fill="#ffffff" stroke="#bfbfbf" points="135,-264.7476 135,-283.7476 236,-283.7476 236,-264.7476 135,-264.7476"/>
<text text-anchor="middle" x="185.5" y="-271.7476" font-family="Helvetica,sans-Serif" font-size="10.00" fill="#000000">std::map&lt; K, T &gt;</text>
</a>
</g>
</g>
<!-- Node10&#45;&gt;Node18 -->
<g id="edge23" class="edge">
<title>Node10&#45;&gt;Node18</title>
<path fill="none" stroke="#9a32cd" stroke-dasharray="5,2" d="M36.8151,-376.8488C72.543,-352.1945 141.5812,-304.5541 171.313,-284.0374"/>
<polygon fill="#9a32cd" stroke="#9a32cd" points="34.7364,-374.0308 28.4936,-382.5911 38.7121,-379.7922 34.7364,-374.0308"/>
<text text-anchor="middle" x="71.5" y="-373.2476" font-family="Helvetica,sans-Serif" font-size="10.00" fill="#000000"> elements</text>
</g>
<!-- Node20 -->
<g id="node20" class="node">
<title>Node20</title>
<g id="a_node20"><a xlink:title="STL class.">
<polygon fill="#ffffff" stroke="#bfbfbf" points="126.5,-226.7476 126.5,-245.7476 244.5,-245.7476 244.5,-226.7476 126.5,-226.7476"/>
<text text-anchor="middle" x="185.5" y="-233.7476" font-family="Helvetica,sans-Serif" font-size="10.00" fill="#000000">std::shared_ptr&lt; T &gt;</text>
</a>
</g>
</g>
<!-- Node10&#45;&gt;Node20 -->
<g id="edge25" class="edge">
<title>Node10&#45;&gt;Node20</title>
<path fill="none" stroke="#9a32cd" stroke-dasharray="5,2" d="M15.6344,-372.1714C18.2561,-333.9835 26.1863,-253.172 47,-236.2476 77.689,-211.2932 126.1254,-218.4091 156.8294,-226.6838"/>
<polygon fill="#9a32cd" stroke="#9a32cd" points="12.1172,-372.3365 14.9828,-382.5365 19.1034,-372.7758 12.1172,-372.3365"/>
<text text-anchor="middle" x="71.5" y="-239.2476" font-family="Helvetica,sans-Serif" font-size="10.00" fill="#000000"> ptr</text>
</g>
<!-- Node28 -->
<g id="node28" class="node">
<title>Node28</title>
<g id="a_node28"><a xlink:title="STL class.">
<polygon fill="#ffffff" stroke="#bfbfbf" points="137,-446.7476 137,-465.7476 234,-465.7476 234,-446.7476 137,-446.7476"/>
<text text-anchor="middle" x="185.5" y="-453.7476" font-family="Helvetica,sans-Serif" font-size="10.00" fill="#000000">std::vector&lt; T &gt;</text>
</a>
</g>
</g>
<!-- Node10&#45;&gt;Node28 -->
<g id="edge40" class="edge">
<title>Node10&#45;&gt;Node28</title>
<path fill="none" stroke="#9a32cd" stroke-dasharray="5,2" d="M38.5617,-403.6527C41.3897,-404.9039 44.2476,-406.1283 47,-407.2476 84.0941,-422.332 127.7817,-437.344 156.0239,-446.699"/>
<polygon fill="#9a32cd" stroke="#9a32cd" points="39.8093,-400.3749 29.2586,-399.4091 36.9042,-406.7436 39.8093,-400.3749"/>
<text text-anchor="middle" x="71.5" y="-428.2476" font-family="Helvetica,sans-Serif" font-size="10.00" fill="#000000"> elements</text>
</g>
<!-- Node11 -->
<g id="node11" class="node">
<title>Node11</title>
<g id="a_node11"><a xlink:href="https://www.itk.org/Doxygen/html/classitk_1_1ProcessObject.html" xlink:title=" ">
<polygon fill="#ffffff" stroke="#000000" points="1513.5,-287.7476 1513.5,-306.7476 1617.5,-306.7476 1617.5,-287.7476 1513.5,-287.7476"/>
<text text-anchor="middle" x="1565.5" y="-294.7476" font-family="Helvetica,sans-Serif" font-size="10.00" fill="#000000">itk::ProcessObject</text>
</a>
</g>
</g>
<!-- Node11&#45;&gt;Node6 -->
<g id="edge12" class="edge">
<title>Node11&#45;&gt;Node6</title>
<path fill="none" stroke="#9a32cd" stroke-dasharray="5,2" d="M1592.0074,-311.6057C1650.0131,-343.0255 1786.9143,-417.1803 1835.782,-443.6503"/>
<polygon fill="#9a32cd" stroke="#9a32cd" points="1593.5421,-308.4566 1583.0822,-306.7712 1590.2081,-314.6116 1593.5421,-308.4566"/>
<text text-anchor="middle" x="1720.5" y="-406.2476" font-family="Helvetica,sans-Serif" font-size="10.00" fill="#000000"> m_ActiveProcess</text>
</g>
<!-- Node12&#45;&gt;Node11 -->
<g id="edge13" class="edge">
<title>Node12&#45;&gt;Node11</title>
<path fill="none" stroke="#191970" d="M1247.4375,-280.5537C1314.3695,-284.0667 1441.6291,-290.7461 1513.2178,-294.5035"/>
<polygon fill="#191970" stroke="#191970" points="1247.4007,-277.047 1237.231,-280.018 1247.0338,-284.0374 1247.4007,-277.047"/>
</g>
<!-- Node13 -->
<g id="node13" class="node">
<title>Node13</title>
<g id="a_node13"><a xlink:href="https://www.itk.org/Doxygen/html/classitk_1_1LightObject.html" xlink:title=" ">
<polygon fill="#ffffff" stroke="#000000" points="850,-396.7476 850,-415.7476 941,-415.7476 941,-396.7476 850,-396.7476"/>
<text text-anchor="middle" x="895.5" y="-403.7476" font-family="Helvetica,sans-Serif" font-size="10.00" fill="#000000">itk::LightObject</text>
</a>
</g>
</g>
<!-- Node13&#45;&gt;Node12 -->
<g id="edge14" class="edge">
<title>Node13&#45;&gt;Node12</title>
<path fill="none" stroke="#191970" d="M951.0866,-394.5664C960.8073,-392.1056 970.7613,-389.3138 980,-386.2476 1041.5914,-365.8061 1055.8213,-356.9981 1114,-328.2476 1140.3282,-315.2368 1169.8978,-298.2267 1187.5932,-287.7776"/>
<polygon fill="#191970" stroke="#191970" points="949.9657,-391.2372 941.0808,-397.0086 951.6256,-398.0375 949.9657,-391.2372"/>
</g>
<!-- Node14 -->
<g id="node14" class="node">
<title>Node14</title>
<g id="a_node14"><a xlink:title=" ">
<polygon fill="#ffffff" stroke="#bfbfbf" points="490,-421.7476 490,-440.7476 597,-440.7476 597,-421.7476 490,-421.7476"/>
<text text-anchor="middle" x="543.5" y="-428.7476" font-family="Helvetica,sans-Serif" font-size="10.00" fill="#000000">std::atomic&lt; int &gt;</text>
</a>
</g>
</g>
<!-- Node14&#45;&gt;Node13 -->
<g id="edge15" class="edge">
<title>Node14&#45;&gt;Node13</title>
<path fill="none" stroke="#9a32cd" stroke-dasharray="5,2" d="M607.3692,-426.7114C677.3822,-421.7389 787.9619,-413.8852 849.7892,-409.4941"/>
<polygon fill="#9a32cd" stroke="#9a32cd" points="607.0713,-423.2237 597.3444,-427.4234 607.5673,-430.2061 607.0713,-423.2237"/>
<text text-anchor="middle" x="719.5" y="-427.2476" font-family="Helvetica,sans-Serif" font-size="10.00" fill="#000000"> m_ReferenceCount</text>
</g>
<!-- Node15&#45;&gt;Node14 -->
<g id="edge16" class="edge">
<title>Node15&#45;&gt;Node14</title>
<path fill="none" stroke="#ffa500" stroke-dasharray="5,2" d="M245.6739,-402.1864C255.4618,-403.6515 265.5021,-405.0637 275,-406.2476 349.3308,-415.5125 435.6309,-422.9619 489.9032,-427.246"/>
<polygon fill="#ffa500" stroke="#ffa500" points="246.0123,-398.6976 235.5985,-400.6479 244.9556,-405.6174 246.0123,-398.6976"/>
<text text-anchor="middle" x="358" y="-426.2476" font-family="Helvetica,sans-Serif" font-size="10.00" fill="#000000"> &lt; int &gt;</text>
</g>
<!-- Node21 -->
<g id="node21" class="node">
<title>Node21</title>
<g id="a_node21"><a xlink:href="https://www.itk.org/Doxygen/html/classitk_1_1TimeStamp.html" xlink:title=" ">
<polygon fill="#ffffff" stroke="#000000" points="849.5,-357.7476 849.5,-376.7476 941.5,-376.7476 941.5,-357.7476 849.5,-357.7476"/>
<text text-anchor="middle" x="895.5" y="-364.7476" font-family="Helvetica,sans-Serif" font-size="10.00" fill="#000000">itk::TimeStamp</text>
</a>
</g>
</g>
<!-- Node15&#45;&gt;Node21 -->
<g id="edge27" class="edge">
<title>Node15&#45;&gt;Node21</title>
<path fill="none" stroke="#9a32cd" stroke-dasharray="5,2" d="M245.7589,-390.1258C384.7611,-385.2313 725.4087,-373.2367 849.4039,-368.8707"/>
<polygon fill="#9a32cd" stroke="#9a32cd" points="245.5793,-386.6298 235.7087,-390.4797 245.8257,-393.6255 245.5793,-386.6298"/>
<text text-anchor="middle" x="543.5" y="-385.2476" font-family="Helvetica,sans-Serif" font-size="10.00" fill="#000000"> m_GlobalTimeStamp</text>
</g>
<!-- Node25 -->
<g id="node25" class="node">
<title>Node25</title>
<g id="a_node25"><a xlink:title=" ">
<polygon fill="#ffffff" stroke="#bfbfbf" points="652.5,-334.7476 652.5,-353.7476 786.5,-353.7476 786.5,-334.7476 652.5,-334.7476"/>
<text text-anchor="middle" x="719.5" y="-341.7476" font-family="Helvetica,sans-Serif" font-size="10.00" fill="#000000">std::atomic&lt; uint32_t &gt;</text>
</a>
</g>
</g>
<!-- Node15&#45;&gt;Node25 -->
<g id="edge36" class="edge">
<title>Node15&#45;&gt;Node25</title>
<path fill="none" stroke="#ffa500" stroke-dasharray="5,2" d="M223.6478,-379.5897C239.3746,-374.8985 257.8904,-370.0446 275,-367.2476 407.5036,-345.5865 564.9022,-342.7337 652.3652,-343.1366"/>
<polygon fill="#ffa500" stroke="#ffa500" points="222.2911,-376.3449 213.7587,-382.6257 224.3456,-383.0367 222.2911,-376.3449"/>
<text text-anchor="middle" x="358" y="-370.2476" font-family="Helvetica,sans-Serif" font-size="10.00" fill="#000000"> &lt; uint32_t &gt;</text>
</g>
<!-- Node16 -->
<g id="node16" class="node">
<title>Node16</title>
<g id="a_node16"><a xlink:href="https://www.itk.org/Doxygen/html/classitk_1_1MetaDataDictionary.html" xlink:title=" ">
<polygon fill="#ffffff" stroke="#000000" points="829,-268.7476 829,-287.7476 962,-287.7476 962,-268.7476 829,-268.7476"/>
<text text-anchor="middle" x="895.5" y="-275.7476" font-family="Helvetica,sans-Serif" font-size="10.00" fill="#000000">itk::MetaDataDictionary</text>
</a>
</g>
</g>
<!-- Node16&#45;&gt;Node12 -->
<g id="edge19" class="edge">
<title>Node16&#45;&gt;Node12</title>
<path fill="none" stroke="#9a32cd" stroke-dasharray="5,2" d="M954.1456,-266.2288C962.9099,-263.8984 971.7627,-261.236 980,-258.2476 988.408,-255.1972 989.295,-251.3025 998,-249.2476 1048.1764,-237.4025 1063.0759,-241.2032 1114,-249.2476 1137.3935,-252.943 1162.9996,-261.7559 1180.8068,-268.7035"/>
<polygon fill="#9a32cd" stroke="#9a32cd" points="953.1588,-262.8682 944.3257,-268.7185 954.8792,-269.6535 953.1588,-262.8682"/>
<text text-anchor="middle" x="1056" y="-252.2476" font-family="Helvetica,sans-Serif" font-size="10.00" fill="#000000"> m_MetaDataDictionary</text>
</g>
<!-- Node17 -->
<g id="node17" class="node">
<title>Node17</title>
<g id="a_node17"><a xlink:title=" ">
<polygon fill="#ffffff" stroke="#bfbfbf" points="469.5,-229.2476 469.5,-259.2476 617.5,-259.2476 617.5,-229.2476 469.5,-229.2476"/>
<text text-anchor="start" x="477.5" y="-247.2476" font-family="Helvetica,sans-Serif" font-size="10.00" fill="#000000">std::shared_ptr&lt; MetaData</text>
<text text-anchor="middle" x="543.5" y="-236.2476" font-family="Helvetica,sans-Serif" font-size="10.00" fill="#000000">DictionaryMapType &gt;</text>
</a>
</g>
</g>
<!-- Node17&#45;&gt;Node16 -->
<g id="edge20" class="edge">
<title>Node17&#45;&gt;Node16</title>
<path fill="none" stroke="#9a32cd" stroke-dasharray="5,2" d="M609.0983,-261.5522C621.2897,-264.2126 633.9738,-266.6137 646,-268.2476 707.5347,-276.6075 778.3266,-278.7427 828.7479,-279.0018"/>
<polygon fill="#9a32cd" stroke="#9a32cd" points="609.5245,-258.0602 598.9987,-259.2676 607.9801,-264.8877 609.5245,-258.0602"/>
<text text-anchor="middle" x="719.5" y="-282.2476" font-family="Helvetica,sans-Serif" font-size="10.00" fill="#000000"> m_Dictionary</text>
</g>
<!-- Node18&#45;&gt;Node17 -->
<g id="edge21" class="edge">
<title>Node18&#45;&gt;Node17</title>
<path fill="none" stroke="#9a32cd" stroke-dasharray="5,2" d="M246.3728,-269.1465C307.9684,-263.9849 403.2771,-255.9981 469.2687,-250.4681"/>
<polygon fill="#9a32cd" stroke="#9a32cd" points="245.7061,-265.69 236.0334,-270.0129 246.2907,-272.6656 245.7061,-265.69"/>
<text text-anchor="middle" x="358" y="-269.2476" font-family="Helvetica,sans-Serif" font-size="10.00" fill="#000000"> ptr</text>
</g>
<!-- Node18&#45;&gt;Node24 -->
<g id="edge34" class="edge">
<title>Node18&#45;&gt;Node24</title>
<path fill="none" stroke="#ffa500" stroke-dasharray="5,2" d="M246.1663,-279.9797C390.7825,-293.1169 747.2016,-322.1942 793,-294.2476 807.9317,-285.1361 797.5284,-270.4052 811,-259.2476 815.7129,-255.3442 821.0161,-252.0503 826.6099,-249.2706"/>
<polygon fill="#ffa500" stroke="#ffa500" points="246.4042,-276.4869 236.1272,-279.0623 245.7672,-283.4579 246.4042,-276.4869"/>
<text text-anchor="start" x="474" y="-319.2476" font-family="Helvetica,sans-Serif" font-size="10.00" fill="#000000"> &lt; DataObjectIdentifierType,</text>
<text text-anchor="middle" x="543.5" y="-308.2476" font-family="Helvetica,sans-Serif" font-size="10.00" fill="#000000"> bool &gt;</text>
</g>
<!-- Node18&#45;&gt;Node29 -->
<g id="edge45" class="edge">
<title>Node18&#45;&gt;Node29</title>
<path fill="none" stroke="#ffa500" stroke-dasharray="5,2" d="M245.6762,-261.5405C249.6473,-259.7167 253.4664,-257.6315 257,-255.2476 268.0531,-247.7905 264.6513,-239.6549 275,-231.2476 345.0626,-174.3285 371.2284,-166.3352 459,-145.2476 578.6236,-116.5074 721.952,-118.1723 810.8861,-123.2461"/>
<polygon fill="#ffa500" stroke="#ffa500" points="244.1774,-258.3705 236.197,-265.3393 246.7814,-264.8682 244.1774,-258.3705"/>
<text text-anchor="start" x="474" y="-159.2476" font-family="Helvetica,sans-Serif" font-size="10.00" fill="#000000"> &lt; DataObjectIdentifierType,</text>
<text text-anchor="middle" x="543.5" y="-148.2476" font-family="Helvetica,sans-Serif" font-size="10.00" fill="#000000"> DataObjectPointer &gt;</text>
</g>
<!-- Node19 -->
<g id="node19" class="node">
<title>Node19</title>
<g id="a_node19"><a xlink:title=" ">
<polygon fill="#ffffff" stroke="#bfbfbf" points="0,-147.7476 0,-166.7476 29,-166.7476 29,-147.7476 0,-147.7476"/>
<text text-anchor="middle" x="14.5" y="-154.7476" font-family="Helvetica,sans-Serif" font-size="10.00" fill="#000000">K</text>
</a>
</g>
</g>
<!-- Node19&#45;&gt;Node18 -->
<g id="edge22" class="edge">
<title>Node19&#45;&gt;Node18</title>
<path fill="none" stroke="#9a32cd" stroke-dasharray="5,2" d="M18.804,-176.8901C24.5947,-201.473 35.502,-241.5386 47,-251.2476 71.0238,-271.5335 106.0043,-277.2152 134.7989,-277.86"/>
<polygon fill="#9a32cd" stroke="#9a32cd" points="22.151,-175.8238 16.5198,-166.8494 15.3254,-177.3767 22.151,-175.8238"/>
<text text-anchor="middle" x="71.5" y="-276.2476" font-family="Helvetica,sans-Serif" font-size="10.00" fill="#000000"> keys</text>
</g>
<!-- Node23 -->
<g id="node23" class="node">
<title>Node23</title>
<g id="a_node23"><a xlink:title="STL class.">
<polygon fill="#ffffff" stroke="#bfbfbf" points="502.5,-20.7476 502.5,-39.7476 584.5,-39.7476 584.5,-20.7476 502.5,-20.7476"/>
<text text-anchor="middle" x="543.5" y="-27.7476" font-family="Helvetica,sans-Serif" font-size="10.00" fill="#000000">std::set&lt; K &gt;</text>
</a>
</g>
</g>
<!-- Node19&#45;&gt;Node23 -->
<g id="edge31" class="edge">
<title>Node19&#45;&gt;Node23</title>
<path fill="none" stroke="#9a32cd" stroke-dasharray="5,2" d="M23.6794,-138.4953C38.3762,-110.8666 70.0673,-60.2317 114,-39.2476 244.8975,23.2745 424.8184,-4.0125 503.7103,-20.7313"/>
<polygon fill="#9a32cd" stroke="#9a32cd" points="20.492,-137.0407 19.0425,-147.5359 26.7205,-140.2353 20.492,-137.0407"/>
<text text-anchor="middle" x="185.5" y="-42.2476" font-family="Helvetica,sans-Serif" font-size="10.00" fill="#000000"> keys</text>
</g>
<!-- Node20&#45;&gt;Node17 -->
<g id="edge24" class="edge">
<title>Node20&#45;&gt;Node17</title>
<path fill="none" stroke="#ffa500" stroke-dasharray="5,2" d="M254.6383,-235.3175C306.0573,-234.9177 377.9348,-234.9731 441,-237.2476 450.1799,-237.5787 459.8145,-238.0598 469.3493,-238.6173"/>
<polygon fill="#ffa500" stroke="#ffa500" points="254.6057,-231.8176 244.636,-235.403 254.6656,-238.8173 254.6057,-231.8176"/>
<text text-anchor="middle" x="358" y="-240.2476" font-family="Helvetica,sans-Serif" font-size="10.00" fill="#000000"> &lt; MetaDataDictionaryMapType &gt;</text>
</g>
<!-- Node21&#45;&gt;Node11 -->
<g id="edge46" class="edge">
<title>Node21&#45;&gt;Node11</title>
<path fill="none" stroke="#9a32cd" stroke-dasharray="5,2" d="M951.8299,-367.6176C1053.1406,-367.3762 1272.4587,-362.7111 1454,-330.2476 1483.8086,-324.9171 1516.9658,-314.5037 1539.3134,-306.7939"/>
<polygon fill="#9a32cd" stroke="#9a32cd" points="951.5208,-364.1178 941.5243,-367.6277 951.5277,-371.1178 951.5208,-364.1178"/>
<text text-anchor="middle" x="1203.5" y="-366.2476" font-family="Helvetica,sans-Serif" font-size="10.00" fill="#000000"> m_OutputInformationMTime</text>
</g>
<!-- Node21&#45;&gt;Node12 -->
<g id="edge26" class="edge">
<title>Node21&#45;&gt;Node12</title>
<path fill="none" stroke="#9a32cd" stroke-dasharray="5,2" d="M914.7446,-351.2116C943.7367,-327.0907 995.5215,-284.1676 998,-283.2476 1055.3789,-261.9491 1128.1065,-266.9433 1169.8665,-272.5607"/>
<polygon fill="#9a32cd" stroke="#9a32cd" points="912.3407,-348.6587 906.8946,-357.7466 916.8193,-354.0385 912.3407,-348.6587"/>
<text text-anchor="middle" x="1056" y="-286.2476" font-family="Helvetica,sans-Serif" font-size="10.00" fill="#000000"> m_MTime</text>
</g>
<!-- Node22&#45;&gt;Node11 -->
<g id="edge28" class="edge">
<title>Node22&#45;&gt;Node11</title>
<path fill="none" stroke="#9a32cd" stroke-dasharray="5,2" d="M987.1614,-73.0984C1102.729,-80.2222 1304.3673,-104.6172 1454,-187.2476 1501.608,-213.5377 1542.8827,-265.8882 1558.6623,-287.5335"/>
<polygon fill="#9a32cd" stroke="#9a32cd" points="987.1241,-69.5903 976.9365,-72.4994 986.7147,-76.5783 987.1241,-69.5903"/>
<text text-anchor="middle" x="1203.5" y="-119.2476" font-family="Helvetica,sans-Serif" font-size="10.00" fill="#000000"> m_RequiredInputNames</text>
</g>
<!-- Node23&#45;&gt;Node5 -->
<g id="edge47" class="edge">
<title>Node23&#45;&gt;Node5</title>
<path fill="none" stroke="#ffa500" stroke-dasharray="5,2" d="M594.6868,-23.8511C663.1133,-15.8669 788.2318,-3.2476 895.5,-3.2476 895.5,-3.2476 895.5,-3.2476 1853.5,-3.2476 1940.2332,-3.2476 2023.8545,-313.432 2042.2621,-386.1315"/>
<polygon fill="#ffa500" stroke="#ffa500" points="594.1275,-20.3927 584.6072,-25.0417 594.9487,-27.3444 594.1275,-20.3927"/>
<text text-anchor="middle" x="1373.5" y="-6.2476" font-family="Helvetica,sans-Serif" font-size="10.00" fill="#000000"> &lt; itk::simple::ProcessObject * &gt;</text>
</g>
<!-- Node23&#45;&gt;Node22 -->
<g id="edge30" class="edge">
<title>Node23&#45;&gt;Node22</title>
<path fill="none" stroke="#ffa500" stroke-dasharray="5,2" d="M594.9748,-27.4733C645.7175,-25.7256 725.2723,-25.6384 793,-37.2476 814.9269,-41.0061 838.6168,-48.401 857.6927,-55.2394"/>
<polygon fill="#ffa500" stroke="#ffa500" points="594.771,-23.9784 584.9108,-27.8549 595.0363,-30.9734 594.771,-23.9784"/>
<text text-anchor="middle" x="719.5" y="-40.2476" font-family="Helvetica,sans-Serif" font-size="10.00" fill="#000000"> &lt; DataObjectIdentifierType &gt;</text>
</g>
<!-- Node24&#45;&gt;Node11 -->
<g id="edge32" class="edge">
<title>Node24&#45;&gt;Node11</title>
<path fill="none" stroke="#9a32cd" stroke-dasharray="5,2" d="M990.3293,-229.8718C1067.2745,-227.5521 1178.4361,-226.9937 1275,-237.2476 1368.4594,-247.1718 1476.302,-273.439 1530.5233,-287.7041"/>
<polygon fill="#9a32cd" stroke="#9a32cd" points="990.0605,-226.3785 980.1766,-230.1941 990.2826,-233.375 990.0605,-226.3785"/>
<text text-anchor="start" x="1133" y="-251.2476" font-family="Helvetica,sans-Serif" font-size="10.00" fill="#000000"> m_CachedInputReleaseData</text>
<text text-anchor="middle" x="1203.5" y="-240.2476" font-family="Helvetica,sans-Serif" font-size="10.00" fill="#000000">Flags</text>
</g>
<!-- Node25&#45;&gt;Node11 -->
<g id="edge35" class="edge">
<title>Node25&#45;&gt;Node11</title>
<path fill="none" stroke="#9a32cd" stroke-dasharray="5,2" d="M796.7143,-339.9579C966.7185,-330.5132 1369.6646,-308.1273 1513.423,-300.1407"/>
<polygon fill="#9a32cd" stroke="#9a32cd" points="796.3818,-336.4709 786.5913,-340.5203 796.7701,-343.4601 796.3818,-336.4709"/>
<text text-anchor="middle" x="1056" y="-332.2476" font-family="Helvetica,sans-Serif" font-size="10.00" fill="#000000"> m_Progress</text>
</g>
<!-- Node26 -->
<g id="node26" class="node">
<title>Node26</title>
<g id="a_node26"><a xlink:title=" ">
<polygon fill="#ffffff" stroke="#bfbfbf" points="459,-498.2476 459,-528.2476 628,-528.2476 628,-498.2476 459,-498.2476"/>
<text text-anchor="start" x="467" y="-516.2476" font-family="Helvetica,sans-Serif" font-size="10.00" fill="#000000">std::vector&lt; DataObjectPointer</text>
<text text-anchor="middle" x="543.5" y="-505.2476" font-family="Helvetica,sans-Serif" font-size="10.00" fill="#000000">Map::iterator &gt;</text>
</a>
</g>
</g>
<!-- Node26&#45;&gt;Node11 -->
<g id="edge37" class="edge">
<title>Node26&#45;&gt;Node11</title>
<path fill="none" stroke="#9a32cd" stroke-dasharray="5,2" d="M638.4304,-512.4364C865.5147,-510.0742 1423.556,-501.6052 1454,-475.2476 1486.8191,-446.8337 1450.5023,-416.9609 1472,-379.2476 1490.7115,-346.4221 1527.5334,-320.1566 1548.9616,-306.8217"/>
<polygon fill="#9a32cd" stroke="#9a32cd" points="638.1613,-508.9388 628.1976,-512.541 638.2329,-515.9385 638.1613,-508.9388"/>
<text text-anchor="middle" x="1056" y="-519.2476" font-family="Helvetica,sans-Serif" font-size="10.00" fill="#000000"> m_IndexedOutputs</text>
<text text-anchor="middle" x="1056" y="-508.2476" font-family="Helvetica,sans-Serif" font-size="10.00" fill="#000000">m_IndexedInputs</text>
</g>
<!-- Node27 -->
<g id="node27" class="node">
<title>Node27</title>
<g id="a_node27"><a xlink:title="STL iterator class.">
<polygon fill="#ffffff" stroke="#bfbfbf" points="114,-503.7476 114,-522.7476 257,-522.7476 257,-503.7476 114,-503.7476"/>
<text text-anchor="middle" x="185.5" y="-510.7476" font-family="Helvetica,sans-Serif" font-size="10.00" fill="#000000">std::map&lt; K, T &gt;::iterator</text>
</a>
</g>
</g>
<!-- Node27&#45;&gt;Node26 -->
<g id="edge38" class="edge">
<title>Node27&#45;&gt;Node26</title>
<path fill="none" stroke="#9a32cd" stroke-dasharray="5,2" d="M267.1908,-513.2476C324.4808,-513.2476 400.8764,-513.2476 458.8167,-513.2476"/>
<polygon fill="#9a32cd" stroke="#9a32cd" points="267.0863,-509.7477 257.0862,-513.2476 267.0862,-516.7477 267.0863,-509.7477"/>
<text text-anchor="middle" x="358" y="-516.2476" font-family="Helvetica,sans-Serif" font-size="10.00" fill="#000000"> elements</text>
</g>
<!-- Node28&#45;&gt;Node26 -->
<g id="edge39" class="edge">
<title>Node28&#45;&gt;Node26</title>
<path fill="none" stroke="#ffa500" stroke-dasharray="5,2" d="M244.3328,-461.2342C296.3294,-466.152 374.0846,-474.7541 441,-487.2476 456.8812,-490.2127 473.9559,-494.2115 489.527,-498.1831"/>
<polygon fill="#ffa500" stroke="#ffa500" points="244.569,-457.7411 234.2878,-460.2997 243.9205,-464.711 244.569,-457.7411"/>
<text text-anchor="start" x="296" y="-501.2476" font-family="Helvetica,sans-Serif" font-size="10.00" fill="#000000"> &lt; DataObjectPointerMap</text>
<text text-anchor="middle" x="358" y="-490.2476" font-family="Helvetica,sans-Serif" font-size="10.00" fill="#000000">::iterator &gt;</text>
</g>
<!-- Node29&#45;&gt;Node11 -->
<g id="edge41" class="edge">
<title>Node29&#45;&gt;Node11</title>
<path fill="none" stroke="#9a32cd" stroke-dasharray="5,2" d="M990.4742,-139.1266C1103.5501,-151.7618 1296.851,-179.9352 1454,-236.2476 1491.1816,-249.5711 1530.8802,-274.0858 1551.3975,-287.6276"/>
<polygon fill="#9a32cd" stroke="#9a32cd" points="990.7812,-135.6394 980.4584,-138.0247 990.0156,-142.5974 990.7812,-135.6394"/>
<text text-anchor="middle" x="1203.5" y="-199.2476" font-family="Helvetica,sans-Serif" font-size="10.00" fill="#000000"> m_Outputs</text>
<text text-anchor="middle" x="1203.5" y="-188.2476" font-family="Helvetica,sans-Serif" font-size="10.00" fill="#000000">m_Inputs</text>
</g>
<!-- Node30 -->
<g id="node30" class="node">
<title>Node30</title>
<g id="a_node30"><a xlink:href="https://www.itk.org/Doxygen/html/classitk_1_1SmartPointer.html" xlink:title=" ">
<polygon fill="#ffffff" stroke="#000000" points="490,-67.2476 490,-97.2476 597,-97.2476 597,-67.2476 490,-67.2476"/>
<text text-anchor="start" x="498" y="-85.2476" font-family="Helvetica,sans-Serif" font-size="10.00" fill="#000000">itk::SmartPointer&lt;</text>
<text text-anchor="middle" x="543.5" y="-74.2476" font-family="Helvetica,sans-Serif" font-size="10.00" fill="#000000"> Self &gt;</text>
</a>
</g>
</g>
<!-- Node30&#45;&gt;Node29 -->
<g id="edge42" class="edge">
<title>Node30&#45;&gt;Node29</title>
<path fill="none" stroke="#9a32cd" stroke-dasharray="5,2" d="M607.4695,-85.5434C658.0707,-88.7754 730.3826,-94.7837 793,-105.2476 808.4467,-107.8288 825.0089,-111.4745 840.2184,-115.1857"/>
<polygon fill="#9a32cd" stroke="#9a32cd" points="607.5282,-82.0404 597.3306,-84.9143 607.0946,-89.0269 607.5282,-82.0404"/>
<text text-anchor="middle" x="719.5" y="-108.2476" font-family="Helvetica,sans-Serif" font-size="10.00" fill="#000000"> elements</text>
</g>
<!-- Node31 -->
<g id="node31" class="node">
<title>Node31</title>
<g id="a_node31"><a xlink:href="https://www.itk.org/Doxygen/html/classitk_1_1SmartPointer.html" xlink:title=" ">
<polygon fill="#ffffff" stroke="#000000" points="132,-60.2476 132,-90.2476 239,-90.2476 239,-60.2476 132,-60.2476"/>
<text text-anchor="start" x="140" y="-78.2476" font-family="Helvetica,sans-Serif" font-size="10.00" fill="#000000">itk::SmartPointer&lt;</text>
<text text-anchor="middle" x="185.5" y="-67.2476" font-family="Helvetica,sans-Serif" font-size="10.00" fill="#000000"> TObjectType &gt;</text>
</a>
</g>
</g>
<!-- Node31&#45;&gt;Node30 -->
<g id="edge43" class="edge">
<title>Node31&#45;&gt;Node30</title>
<path fill="none" stroke="#ffa500" stroke-dasharray="5,2" d="M249.3285,-76.4956C317.8515,-77.8355 425.5098,-79.9405 489.8304,-81.1982"/>
<polygon fill="#ffa500" stroke="#ffa500" points="249.1628,-72.9918 239.0962,-76.2955 249.0258,-79.9905 249.1628,-72.9918"/>
<text text-anchor="middle" x="358" y="-83.2476" font-family="Helvetica,sans-Serif" font-size="10.00" fill="#000000"> &lt; Self &gt;</text>
</g>
</g>
</svg>
