<?xml version="1.0" encoding="UTF-8" standalone="no"?>
<!DOCTYPE svg PUBLIC "-//W3C//DTD SVG 1.1//EN"
 "http://www.w3.org/Graphics/SVG/1.1/DTD/svg11.dtd">
<!-- Generated by graphviz version 2.40.1 (20161225.0304)
 -->
<!-- Title: itk::simple::detail::MemberFunctionFactoryBase&lt; TMemberFunctionPointer, TKey, 0 &gt; Pages: 1 -->
<svg width="832pt" height="96pt"
 viewBox="0.00 0.00 832.00 96.00" xmlns="http://www.w3.org/2000/svg" xmlns:xlink="http://www.w3.org/1999/xlink">
<g id="graph0" class="graph" transform="scale(1 1) rotate(0) translate(4 92)">
<title>itk::simple::detail::MemberFunctionFactoryBase&lt; TMemberFunctionPointer, TKey, 0 &gt;</title>
<polygon fill="#ffffff" stroke="transparent" points="-4,4 -4,-92 828,-92 828,4 -4,4"/>
<!-- Node1 -->
<g id="node1" class="node">
<title>Node1</title>
<g id="a_node1"><a xlink:title=" ">
<polygon fill="#bfbfbf" stroke="#000000" points="662,-28 662,-80 824,-80 824,-28 662,-28"/>
<text text-anchor="start" x="670" y="-68" font-family="Helvetica,sans-Serif" font-size="10.00" fill="#000000">itk::simple::detail</text>
<text text-anchor="start" x="670" y="-57" font-family="Helvetica,sans-Serif" font-size="10.00" fill="#000000">::MemberFunctionFactoryBase</text>
<text text-anchor="start" x="670" y="-46" font-family="Helvetica,sans-Serif" font-size="10.00" fill="#000000">&lt; TMemberFunctionPointer,</text>
<text text-anchor="middle" x="743" y="-35" font-family="Helvetica,sans-Serif" font-size="10.00" fill="#000000"> TKey, 0 &gt;</text>
</a>
</g>
</g>
<!-- Node2 -->
<g id="node2" class="node">
<title>Node2</title>
<g id="a_node2"><a xlink:href="classitk_1_1simple_1_1NonCopyable.html" target="_top" xlink:title="An inheritable class to disable copying of a class.">
<polygon fill="#ffffff" stroke="#000000" points="413.5,-68.5 413.5,-87.5 553.5,-87.5 553.5,-68.5 413.5,-68.5"/>
<text text-anchor="middle" x="483.5" y="-75.5" font-family="Helvetica,sans-Serif" font-size="10.00" fill="#000000">itk::simple::NonCopyable</text>
</a>
</g>
</g>
<!-- Node2&#45;&gt;Node1 -->
<g id="edge1" class="edge">
<title>Node2&#45;&gt;Node1</title>
<path fill="none" stroke="#006400" d="M564.0717,-70.5483C595.1186,-67.6769 630.5746,-64.3977 661.6907,-61.5199"/>
<polygon fill="#006400" stroke="#006400" points="563.3596,-67.0991 553.7244,-71.5053 564.0043,-74.0694 563.3596,-67.0991"/>
</g>
<!-- Node3 -->
<g id="node3" class="node">
<title>Node3</title>
<g id="a_node3"><a xlink:title=" ">
<polygon fill="#ffffff" stroke="#bfbfbf" points="406,-8.5 406,-49.5 561,-49.5 561,-8.5 406,-8.5"/>
<text text-anchor="start" x="414" y="-37.5" font-family="Helvetica,sans-Serif" font-size="10.00" fill="#000000">std::unordered_map</text>
<text text-anchor="start" x="414" y="-26.5" font-family="Helvetica,sans-Serif" font-size="10.00" fill="#000000">&lt; TKey, FunctionObjectType,</text>
<text text-anchor="middle" x="483.5" y="-15.5" font-family="Helvetica,sans-Serif" font-size="10.00" fill="#000000"> hash&lt; TKey &gt; &gt;</text>
</a>
</g>
</g>
<!-- Node3&#45;&gt;Node1 -->
<g id="edge2" class="edge">
<title>Node3&#45;&gt;Node1</title>
<path fill="none" stroke="#9a32cd" stroke-dasharray="5,2" d="M571.2287,-37.4517C600.5373,-40.2753 633.0526,-43.4078 661.8386,-46.181"/>
<polygon fill="#9a32cd" stroke="#9a32cd" points="571.2966,-33.9421 561.0071,-36.467 570.6253,-40.9099 571.2966,-33.9421"/>
<text text-anchor="middle" x="611.5" y="-46" font-family="Helvetica,sans-Serif" font-size="10.00" fill="#000000"> m_PFunction</text>
</g>
<!-- Node4 -->
<g id="node4" class="node">
<title>Node4</title>
<g id="a_node4"><a xlink:title="STL class.">
<polygon fill="#ffffff" stroke="#bfbfbf" points="114,-14 114,-44 228,-44 228,-14 114,-14"/>
<text text-anchor="start" x="122" y="-32" font-family="Helvetica,sans-Serif" font-size="10.00" fill="#000000">std::unordered_map</text>
<text text-anchor="middle" x="171" y="-21" font-family="Helvetica,sans-Serif" font-size="10.00" fill="#000000">&lt; K, T &gt;</text>
</a>
</g>
</g>
<!-- Node4&#45;&gt;Node3 -->
<g id="edge3" class="edge">
<title>Node4&#45;&gt;Node3</title>
<path fill="none" stroke="#ffa500" stroke-dasharray="5,2" d="M238.5417,-29C287.7609,-29 354.5421,-29 405.9454,-29"/>
<polygon fill="#ffa500" stroke="#ffa500" points="238.3174,-25.5001 228.3173,-29 238.3173,-32.5001 238.3174,-25.5001"/>
<text text-anchor="start" x="246" y="-43" font-family="Helvetica,sans-Serif" font-size="10.00" fill="#000000"> &lt; TKey, FunctionObjectType,</text>
<text text-anchor="middle" x="317" y="-32" font-family="Helvetica,sans-Serif" font-size="10.00" fill="#000000"> hash&lt; TKey &gt; &gt;</text>
</g>
<!-- Node5 -->
<g id="node5" class="node">
<title>Node5</title>
<g id="a_node5"><a xlink:title=" ">
<polygon fill="#ffffff" stroke="#bfbfbf" points="0,-38.5 0,-57.5 29,-57.5 29,-38.5 0,-38.5"/>
<text text-anchor="middle" x="14.5" y="-45.5" font-family="Helvetica,sans-Serif" font-size="10.00" fill="#000000">K</text>
</a>
</g>
</g>
<!-- Node5&#45;&gt;Node4 -->
<g id="edge4" class="edge">
<title>Node5&#45;&gt;Node4</title>
<path fill="none" stroke="#9a32cd" stroke-dasharray="5,2" d="M39.3124,-44.9876C59.2526,-42.5668 88.0565,-39.0698 113.6442,-35.9633"/>
<polygon fill="#9a32cd" stroke="#9a32cd" points="38.7284,-41.5327 29.2231,-46.2125 39.5721,-48.4817 38.7284,-41.5327"/>
<text text-anchor="middle" x="71.5" y="-46" font-family="Helvetica,sans-Serif" font-size="10.00" fill="#000000"> keys</text>
</g>
<!-- Node6 -->
<g id="node6" class="node">
<title>Node6</title>
<g id="a_node6"><a xlink:title=" ">
<polygon fill="#ffffff" stroke="#bfbfbf" points="0,-.5 0,-19.5 29,-19.5 29,-.5 0,-.5"/>
<text text-anchor="middle" x="14.5" y="-7.5" font-family="Helvetica,sans-Serif" font-size="10.00" fill="#000000">T</text>
</a>
</g>
</g>
<!-- Node6&#45;&gt;Node4 -->
<g id="edge5" class="edge">
<title>Node6&#45;&gt;Node4</title>
<path fill="none" stroke="#9a32cd" stroke-dasharray="5,2" d="M39.3124,-13.0124C59.2526,-15.4332 88.0565,-18.9302 113.6442,-22.0367"/>
<polygon fill="#9a32cd" stroke="#9a32cd" points="39.5721,-9.5183 29.2231,-11.7875 38.7284,-16.4673 39.5721,-9.5183"/>
<text text-anchor="middle" x="71.5" y="-22" font-family="Helvetica,sans-Serif" font-size="10.00" fill="#000000"> elements</text>
</g>
</g>
</svg>
