<?xml version="1.0" encoding="UTF-8" standalone="no"?>
<!DOCTYPE svg PUBLIC "-//W3C//DTD SVG 1.1//EN"
 "http://www.w3.org/Graphics/SVG/1.1/DTD/svg11.dtd">
<!-- Generated by graphviz version 2.40.1 (20161225.0304)
 -->
<!-- Title: itk::simple::FunctionCommand Pages: 1 -->
<svg width="173pt" height="140pt"
 viewBox="0.00 0.00 173.00 140.00" xmlns="http://www.w3.org/2000/svg" xmlns:xlink="http://www.w3.org/1999/xlink">
<g id="graph0" class="graph" transform="scale(1 1) rotate(0) translate(4 136)">
<title>itk::simple::FunctionCommand</title>
<polygon fill="#ffffff" stroke="transparent" points="-4,4 -4,-136 169,-136 169,4 -4,4"/>
<!-- Node1 -->
<g id="node1" class="node">
<title>Node1</title>
<g id="a_node1"><a xlink:title="A Command class which allows setting an external function, or member function.">
<polygon fill="#bfbfbf" stroke="#000000" points="0,-.5 0,-19.5 165,-19.5 165,-.5 0,-.5"/>
<text text-anchor="middle" x="82.5" y="-7.5" font-family="Helvetica,sans-Serif" font-size="10.00" fill="#000000">itk::simple::FunctionCommand</text>
</a>
</g>
</g>
<!-- Node2 -->
<g id="node2" class="node">
<title>Node2</title>
<g id="a_node2"><a xlink:href="classitk_1_1simple_1_1Command.html" target="_top" xlink:title="An implementation of the Command design pattern for callback.">
<polygon fill="#ffffff" stroke="#000000" points="20,-56.5 20,-75.5 145,-75.5 145,-56.5 20,-56.5"/>
<text text-anchor="middle" x="82.5" y="-63.5" font-family="Helvetica,sans-Serif" font-size="10.00" fill="#000000">itk::simple::Command</text>
</a>
</g>
</g>
<!-- Node2&#45;&gt;Node1 -->
<g id="edge1" class="edge">
<title>Node2&#45;&gt;Node1</title>
<path fill="none" stroke="#191970" d="M82.5,-46.1575C82.5,-37.155 82.5,-26.9199 82.5,-19.6427"/>
<polygon fill="#191970" stroke="#191970" points="79.0001,-46.2455 82.5,-56.2455 86.0001,-46.2456 79.0001,-46.2455"/>
</g>
<!-- Node3 -->
<g id="node3" class="node">
<title>Node3</title>
<g id="a_node3"><a xlink:href="classitk_1_1simple_1_1NonCopyable.html" target="_top" xlink:title="An inheritable class to disable copying of a class.">
<polygon fill="#ffffff" stroke="#000000" points="12.5,-112.5 12.5,-131.5 152.5,-131.5 152.5,-112.5 12.5,-112.5"/>
<text text-anchor="middle" x="82.5" y="-119.5" font-family="Helvetica,sans-Serif" font-size="10.00" fill="#000000">itk::simple::NonCopyable</text>
</a>
</g>
</g>
<!-- Node3&#45;&gt;Node2 -->
<g id="edge2" class="edge">
<title>Node3&#45;&gt;Node2</title>
<path fill="none" stroke="#006400" d="M82.5,-102.1575C82.5,-93.155 82.5,-82.9199 82.5,-75.6427"/>
<polygon fill="#006400" stroke="#006400" points="79.0001,-102.2455 82.5,-112.2455 86.0001,-102.2456 79.0001,-102.2455"/>
</g>
</g>
</svg>
