<?xml version="1.0" encoding="UTF-8" standalone="no"?>
<!DOCTYPE svg PUBLIC "-//W3C//DTD SVG 1.1//EN"
 "http://www.w3.org/Graphics/SVG/1.1/DTD/svg11.dtd">
<!-- Generated by graphviz version 2.40.1 (20161225.0304)
 -->
<!-- Title: itk::simple::ImageSeriesWriter Pages: 1 -->
<svg width="151pt" height="151pt"
 viewBox="0.00 0.00 151.00 151.00" xmlns="http://www.w3.org/2000/svg" xmlns:xlink="http://www.w3.org/1999/xlink">
<g id="graph0" class="graph" transform="scale(1 1) rotate(0) translate(4 147)">
<title>itk::simple::ImageSeriesWriter</title>
<polygon fill="#ffffff" stroke="transparent" points="-4,4 -4,-147 147,-147 147,4 -4,4"/>
<!-- Node1 -->
<g id="node1" class="node">
<title>Node1</title>
<g id="a_node1"><a xlink:title="Writer series of image from a SimpleITK image.">
<polygon fill="#bfbfbf" stroke="#000000" points="4,-.5 4,-30.5 139,-30.5 139,-.5 4,-.5"/>
<text text-anchor="start" x="12" y="-18.5" font-family="Helvetica,sans-Serif" font-size="10.00" fill="#000000">itk::simple::ImageSeries</text>
<text text-anchor="middle" x="71.5" y="-7.5" font-family="Helvetica,sans-Serif" font-size="10.00" fill="#000000">Writer</text>
</a>
</g>
</g>
<!-- Node2 -->
<g id="node2" class="node">
<title>Node2</title>
<g id="a_node2"><a xlink:href="classitk_1_1simple_1_1ProcessObject.html" target="_top" xlink:title="Base class for SimpleITK classes based on ProcessObject.">
<polygon fill="#ffffff" stroke="#000000" points="0,-67.5 0,-86.5 143,-86.5 143,-67.5 0,-67.5"/>
<text text-anchor="middle" x="71.5" y="-74.5" font-family="Helvetica,sans-Serif" font-size="10.00" fill="#000000">itk::simple::ProcessObject</text>
</a>
</g>
</g>
<!-- Node2&#45;&gt;Node1 -->
<g id="edge1" class="edge">
<title>Node2&#45;&gt;Node1</title>
<path fill="none" stroke="#191970" d="M71.5,-57.3693C71.5,-48.681 71.5,-38.6241 71.5,-30.5446"/>
<polygon fill="#191970" stroke="#191970" points="68.0001,-57.3906 71.5,-67.3906 75.0001,-57.3907 68.0001,-57.3906"/>
</g>
<!-- Node3 -->
<g id="node3" class="node">
<title>Node3</title>
<g id="a_node3"><a xlink:href="classitk_1_1simple_1_1NonCopyable.html" target="_top" xlink:title="An inheritable class to disable copying of a class.">
<polygon fill="#ffffff" stroke="#000000" points="1.5,-123.5 1.5,-142.5 141.5,-142.5 141.5,-123.5 1.5,-123.5"/>
<text text-anchor="middle" x="71.5" y="-130.5" font-family="Helvetica,sans-Serif" font-size="10.00" fill="#000000">itk::simple::NonCopyable</text>
</a>
</g>
</g>
<!-- Node3&#45;&gt;Node2 -->
<g id="edge2" class="edge">
<title>Node3&#45;&gt;Node2</title>
<path fill="none" stroke="#006400" d="M71.5,-113.1575C71.5,-104.155 71.5,-93.9199 71.5,-86.6427"/>
<polygon fill="#006400" stroke="#006400" points="68.0001,-113.2455 71.5,-123.2455 75.0001,-113.2456 68.0001,-113.2455"/>
</g>
</g>
</svg>
