<?xml version="1.0" encoding="UTF-8" standalone="no"?>
<!DOCTYPE svg PUBLIC "-//W3C//DTD SVG 1.1//EN"
 "http://www.w3.org/Graphics/SVG/1.1/DTD/svg11.dtd">
<!-- Generated by graphviz version 2.40.1 (20161225.0304)
 -->
<!-- Title: itk::simple::detail::MemberFunctionFactory&lt; TMemberFunctionPointer &gt; Pages: 1 -->
<svg width="1073pt" height="230pt"
 viewBox="0.00 0.00 1073.00 230.00" xmlns="http://www.w3.org/2000/svg" xmlns:xlink="http://www.w3.org/1999/xlink">
<g id="graph0" class="graph" transform="scale(1 1) rotate(0) translate(4 226)">
<title>itk::simple::detail::MemberFunctionFactory&lt; TMemberFunctionPointer &gt;</title>
<polygon fill="#ffffff" stroke="transparent" points="-4,4 -4,-226 1069,-226 1069,4 -4,4"/>
<!-- Node1 -->
<g id="node1" class="node">
<title>Node1</title>
<g id="a_node1"><a xlink:title="A class used to instantiate and generate function object to templated member functions.">
<polygon fill="#bfbfbf" stroke="#000000" points="546,-90.5 546,-131.5 706,-131.5 706,-90.5 546,-90.5"/>
<text text-anchor="start" x="554" y="-119.5" font-family="Helvetica,sans-Serif" font-size="10.00" fill="#000000">itk::simple::detail</text>
<text text-anchor="start" x="554" y="-108.5" font-family="Helvetica,sans-Serif" font-size="10.00" fill="#000000">::MemberFunctionFactory</text>
<text text-anchor="middle" x="626" y="-97.5" font-family="Helvetica,sans-Serif" font-size="10.00" fill="#000000">&lt; TMemberFunctionPointer &gt;</text>
</a>
</g>
</g>
<!-- Node4 -->
<g id="node4" class="node">
<title>Node4</title>
<g id="a_node4"><a xlink:href="classitk_1_1simple_1_1detail_1_1MemberFunctionFactory.html" target="_top" xlink:title=" ">
<polygon fill="#ffffff" stroke="#000000" points="898.5,-180.5 898.5,-221.5 1046.5,-221.5 1046.5,-180.5 898.5,-180.5"/>
<text text-anchor="start" x="906.5" y="-209.5" font-family="Helvetica,sans-Serif" font-size="10.00" fill="#000000">itk::simple::detail</text>
<text text-anchor="start" x="906.5" y="-198.5" font-family="Helvetica,sans-Serif" font-size="10.00" fill="#000000">::MemberFunctionFactory</text>
<text text-anchor="middle" x="972.5" y="-187.5" font-family="Helvetica,sans-Serif" font-size="10.00" fill="#000000">&lt; MemberFunction2Type &gt;</text>
</a>
</g>
</g>
<!-- Node1&#45;&gt;Node4 -->
<g id="edge3" class="edge">
<title>Node1&#45;&gt;Node4</title>
<path fill="none" stroke="#ffa500" stroke-dasharray="5,2" d="M689.2862,-134.9065C700.7579,-138.8661 712.6748,-142.7382 724,-146 781.9585,-162.6926 848.7597,-177.2209 898.4956,-187.1472"/>
<polygon fill="#ffa500" stroke="#ffa500" points="690.3723,-131.5785 679.7775,-131.5713 688.0554,-138.1839 690.3723,-131.5785"/>
<text text-anchor="middle" x="793" y="-181" font-family="Helvetica,sans-Serif" font-size="10.00" fill="#000000"> &lt; MemberFunction2Type &gt;</text>
</g>
<!-- Node5 -->
<g id="node5" class="node">
<title>Node5</title>
<g id="a_node5"><a xlink:href="classitk_1_1simple_1_1detail_1_1MemberFunctionFactory.html" target="_top" xlink:title=" ">
<polygon fill="#ffffff" stroke="#000000" points="898.5,-120.5 898.5,-161.5 1046.5,-161.5 1046.5,-120.5 898.5,-120.5"/>
<text text-anchor="start" x="906.5" y="-149.5" font-family="Helvetica,sans-Serif" font-size="10.00" fill="#000000">itk::simple::detail</text>
<text text-anchor="start" x="906.5" y="-138.5" font-family="Helvetica,sans-Serif" font-size="10.00" fill="#000000">::MemberFunctionFactory</text>
<text text-anchor="middle" x="972.5" y="-127.5" font-family="Helvetica,sans-Serif" font-size="10.00" fill="#000000">&lt; MemberFunction1Type &gt;</text>
</a>
</g>
</g>
<!-- Node1&#45;&gt;Node5 -->
<g id="edge4" class="edge">
<title>Node1&#45;&gt;Node5</title>
<path fill="none" stroke="#ffa500" stroke-dasharray="5,2" d="M716.3988,-118.8267C773.0738,-123.7337 845.2205,-129.9801 898.4859,-134.5919"/>
<polygon fill="#ffa500" stroke="#ffa500" points="716.6297,-115.3337 706.365,-117.958 716.0258,-122.3076 716.6297,-115.3337"/>
<text text-anchor="middle" x="793" y="-134" font-family="Helvetica,sans-Serif" font-size="10.00" fill="#000000"> &lt; MemberFunction1Type &gt;</text>
</g>
<!-- Node6 -->
<g id="node6" class="node">
<title>Node6</title>
<g id="a_node6"><a xlink:href="classitk_1_1simple_1_1detail_1_1MemberFunctionFactory.html" target="_top" xlink:title=" ">
<polygon fill="#ffffff" stroke="#000000" points="880,-60.5 880,-101.5 1065,-101.5 1065,-60.5 880,-60.5"/>
<text text-anchor="start" x="888" y="-89.5" font-family="Helvetica,sans-Serif" font-size="10.00" fill="#000000">itk::simple::detail</text>
<text text-anchor="start" x="888" y="-78.5" font-family="Helvetica,sans-Serif" font-size="10.00" fill="#000000">::MemberFunctionFactory</text>
<text text-anchor="middle" x="972.5" y="-67.5" font-family="Helvetica,sans-Serif" font-size="10.00" fill="#000000">&lt; EvaluateMemberFunctionType &gt;</text>
</a>
</g>
</g>
<!-- Node1&#45;&gt;Node6 -->
<g id="edge5" class="edge">
<title>Node1&#45;&gt;Node6</title>
<path fill="none" stroke="#ffa500" stroke-dasharray="5,2" d="M716.2426,-93.9608C718.8538,-93.6167 721.4438,-93.2951 724,-93 775.3818,-87.0675 833.0683,-84.0594 879.9182,-82.5378"/>
<polygon fill="#ffa500" stroke="#ffa500" points="715.5062,-90.5298 706.0919,-95.3901 716.4823,-97.4614 715.5062,-90.5298"/>
<text text-anchor="start" x="724" y="-107" font-family="Helvetica,sans-Serif" font-size="10.00" fill="#000000"> &lt; EvaluateMemberFunction</text>
<text text-anchor="middle" x="793" y="-96" font-family="Helvetica,sans-Serif" font-size="10.00" fill="#000000">Type &gt;</text>
</g>
<!-- Node7 -->
<g id="node7" class="node">
<title>Node7</title>
<g id="a_node7"><a xlink:href="classitk_1_1simple_1_1detail_1_1MemberFunctionFactory.html" target="_top" xlink:title=" ">
<polygon fill="#ffffff" stroke="#000000" points="901.5,-.5 901.5,-41.5 1043.5,-41.5 1043.5,-.5 901.5,-.5"/>
<text text-anchor="start" x="909.5" y="-29.5" font-family="Helvetica,sans-Serif" font-size="10.00" fill="#000000">itk::simple::detail</text>
<text text-anchor="start" x="909.5" y="-18.5" font-family="Helvetica,sans-Serif" font-size="10.00" fill="#000000">::MemberFunctionFactory</text>
<text text-anchor="middle" x="972.5" y="-7.5" font-family="Helvetica,sans-Serif" font-size="10.00" fill="#000000">&lt; MemberFunctionType &gt;</text>
</a>
</g>
</g>
<!-- Node1&#45;&gt;Node7 -->
<g id="edge6" class="edge">
<title>Node1&#45;&gt;Node7</title>
<path fill="none" stroke="#ffa500" stroke-dasharray="5,2" d="M678.0513,-86.2444C692.6791,-79.9639 708.7583,-73.6789 724,-69 782.5972,-51.0117 851.1221,-38.3747 901.3553,-30.5984"/>
<polygon fill="#ffa500" stroke="#ffa500" points="676.4265,-83.1351 668.6718,-90.3541 679.2358,-89.5466 676.4265,-83.1351"/>
<text text-anchor="middle" x="793" y="-72" font-family="Helvetica,sans-Serif" font-size="10.00" fill="#000000"> &lt; MemberFunctionType &gt;</text>
</g>
<!-- Node2 -->
<g id="node2" class="node">
<title>Node2</title>
<g id="a_node2"><a xlink:href="classitk_1_1simple_1_1detail_1_1MemberFunctionFactoryBase.html" target="_top" xlink:title=" ">
<polygon fill="#ffffff" stroke="#000000" points="337,-85 337,-137 509,-137 509,-85 337,-85"/>
<text text-anchor="start" x="345" y="-125" font-family="Helvetica,sans-Serif" font-size="10.00" fill="#000000">itk::simple::detail</text>
<text text-anchor="start" x="345" y="-114" font-family="Helvetica,sans-Serif" font-size="10.00" fill="#000000">::MemberFunctionFactoryBase</text>
<text text-anchor="start" x="345" y="-103" font-family="Helvetica,sans-Serif" font-size="10.00" fill="#000000">&lt; TMemberFunctionPointer,</text>
<text text-anchor="middle" x="423" y="-92" font-family="Helvetica,sans-Serif" font-size="10.00" fill="#000000"> std::pair&lt; unsigned int, int &gt; &gt;</text>
</a>
</g>
</g>
<!-- Node2&#45;&gt;Node1 -->
<g id="edge1" class="edge">
<title>Node2&#45;&gt;Node1</title>
<path fill="none" stroke="#006400" d="M519.1605,-111C528.114,-111 537.123,-111 545.9079,-111"/>
<polygon fill="#006400" stroke="#006400" points="519.0903,-107.5001 509.0903,-111 519.0902,-114.5001 519.0903,-107.5001"/>
</g>
<!-- Node3 -->
<g id="node3" class="node">
<title>Node3</title>
<g id="a_node3"><a xlink:href="classitk_1_1simple_1_1detail_1_1MemberFunctionFactoryBase.html" target="_top" xlink:title="A base class for the MemberFunctionFactory.">
<polygon fill="#ffffff" stroke="#000000" points="0,-96 0,-126 162,-126 162,-96 0,-96"/>
<text text-anchor="start" x="8" y="-114" font-family="Helvetica,sans-Serif" font-size="10.00" fill="#000000">itk::simple::detail</text>
<text text-anchor="middle" x="81" y="-103" font-family="Helvetica,sans-Serif" font-size="10.00" fill="#000000">::MemberFunctionFactoryBase</text>
</a>
</g>
</g>
<!-- Node3&#45;&gt;Node2 -->
<g id="edge2" class="edge">
<title>Node3&#45;&gt;Node2</title>
<path fill="none" stroke="#ffa500" stroke-dasharray="5,2" d="M172.0982,-111C223.1995,-111 286.5818,-111 336.856,-111"/>
<polygon fill="#ffa500" stroke="#ffa500" points="172.0493,-107.5001 162.0492,-111 172.0492,-114.5001 172.0493,-107.5001"/>
<text text-anchor="start" x="180" y="-136" font-family="Helvetica,sans-Serif" font-size="10.00" fill="#000000"> &lt; TMemberFunctionPointer,</text>
<text text-anchor="start" x="180" y="-125" font-family="Helvetica,sans-Serif" font-size="10.00" fill="#000000"> std::pair&lt; unsigned int,</text>
<text text-anchor="middle" x="249.5" y="-114" font-family="Helvetica,sans-Serif" font-size="10.00" fill="#000000"> int &gt; &gt;</text>
</g>
</g>
</svg>
