<?xml version="1.0" encoding="UTF-8" standalone="no"?>
<!DOCTYPE svg PUBLIC "-//W3C//DTD SVG 1.1//EN"
 "http://www.w3.org/Graphics/SVG/1.1/DTD/svg11.dtd">
<!-- Generated by graphviz version 2.40.1 (20161225.0304)
 -->
<!-- Title: IO Pages: 1 -->
<svg width="254pt" height="159pt"
 viewBox="0.00 0.00 254.00 159.00" xmlns="http://www.w3.org/2000/svg" xmlns:xlink="http://www.w3.org/1999/xlink">
<g id="graph0" class="graph" transform="scale(1 1) rotate(0) translate(4 155)">
<title>IO</title>
<polygon fill="#ffffff" stroke="transparent" points="-4,4 -4,-155 250,-155 250,4 -4,4"/>
<g id="clust1" class="cluster">
<title>clusterdir_b9cb50edb61d9a37345e1397b3ccbbdc</title>
<g id="a_clust1"><a xlink:href="dir_b9cb50edb61d9a37345e1397b3ccbbdc.html" target="_top" xlink:title="Code">
<polygon fill="#ddddee" stroke="#000000" points="8,-56 8,-143 238,-143 238,-56 8,-56"/>
<text text-anchor="middle" x="123" y="-131" font-family="Helvetica,sans-Serif" font-size="10.00" fill="#000000">Code</text>
</a>
</g>
</g>
<g id="clust2" class="cluster">
<title>clusterdir_2a34bf78513aea0df2e2c3d4af0cd38f</title>
<g id="a_clust2"><a xlink:href="dir_2a34bf78513aea0df2e2c3d4af0cd38f.html" target="_top">
<polygon fill="#eeeeff" stroke="#000000" points="16,-64 16,-116 230,-116 230,-64 16,-64"/>
</a>
</g>
</g>
<!-- dir_2a34bf78513aea0df2e2c3d4af0cd38f -->
<g id="node1" class="node">
<title>dir_2a34bf78513aea0df2e2c3d4af0cd38f</title>
<text text-anchor="middle" x="195" y="-87.5" font-family="Helvetica,sans-Serif" font-size="10.00" fill="#000000">IO</text>
</g>
<!-- dir_4c1348f0b6a1251c10909f19a7bebedb -->
<g id="node2" class="node">
<title>dir_4c1348f0b6a1251c10909f19a7bebedb</title>
<g id="a_node2"><a xlink:href="dir_4c1348f0b6a1251c10909f19a7bebedb.html" target="_top" xlink:title="include">
<polygon fill="#ffffff" stroke="#000000" points="150,-108 96,-108 96,-72 150,-72 150,-108"/>
<text text-anchor="middle" x="123" y="-87.5" font-family="Helvetica,sans-Serif" font-size="10.00" fill="#000000">include</text>
</a>
</g>
</g>
<!-- dir_1ba33b307118a85c0794d13b60d0caea -->
<g id="node4" class="node">
<title>dir_1ba33b307118a85c0794d13b60d0caea</title>
<g id="a_node4"><a xlink:href="dir_1ba33b307118a85c0794d13b60d0caea.html" target="_top" xlink:title="Common">
<polygon fill="#ffffff" stroke="#ff0000" points="153.5,-36 92.5,-36 92.5,0 153.5,0 153.5,-36"/>
<text text-anchor="middle" x="123" y="-15.5" font-family="Helvetica,sans-Serif" font-size="10.00" fill="#000000">Common</text>
</a>
</g>
</g>
<!-- dir_4c1348f0b6a1251c10909f19a7bebedb&#45;&gt;dir_1ba33b307118a85c0794d13b60d0caea -->
<g id="edge2" class="edge">
<title>dir_4c1348f0b6a1251c10909f19a7bebedb&#45;&gt;dir_1ba33b307118a85c0794d13b60d0caea</title>
<path fill="none" stroke="#000000" d="M117.0476,-71.8314C116.2972,-64.131 116.0763,-54.9743 116.3849,-46.4166"/>
<polygon fill="#000000" stroke="#000000" points="119.8792,-46.6161 117.024,-36.4133 112.8935,-46.1697 119.8792,-46.6161"/>
<g id="a_edge2&#45;headlabel"><a xlink:href="dir_000023_000006.html" target="_top" xlink:title="24">
<text text-anchor="middle" x="122.4836" y="-47.8844" font-family="Helvetica,sans-Serif" font-size="10.00" fill="#000000">24</text>
</a>
</g>
</g>
<!-- dir_56582853a1883067227ec860abc1eb76 -->
<g id="node3" class="node">
<title>dir_56582853a1883067227ec860abc1eb76</title>
<g id="a_node3"><a xlink:href="dir_56582853a1883067227ec860abc1eb76.html" target="_top" xlink:title="src">
<polygon fill="#ffffff" stroke="#000000" points="78,-108 24,-108 24,-72 78,-72 78,-108"/>
<text text-anchor="middle" x="51" y="-87.5" font-family="Helvetica,sans-Serif" font-size="10.00" fill="#000000">src</text>
</a>
</g>
</g>
<!-- dir_1ba33b307118a85c0794d13b60d0caea&#45;&gt;dir_4c1348f0b6a1251c10909f19a7bebedb -->
<g id="edge1" class="edge">
<title>dir_1ba33b307118a85c0794d13b60d0caea&#45;&gt;dir_4c1348f0b6a1251c10909f19a7bebedb</title>
<path fill="none" stroke="#000000" d="M128.976,-36.4133C129.7071,-44.0593 129.9203,-53.1084 129.6155,-61.5726"/>
<polygon fill="#000000" stroke="#000000" points="126.1048,-61.6264 128.9524,-71.8314 133.0902,-62.078 126.1048,-61.6264"/>
<g id="a_edge1&#45;headlabel"><a xlink:href="dir_000006_000023.html" target="_top" xlink:title="7">
<text text-anchor="middle" x="123.5032" y="-55.3562" font-family="Helvetica,sans-Serif" font-size="10.00" fill="#000000">7</text>
</a>
</g>
</g>
</g>
</svg>
