<?xml version="1.0" encoding="UTF-8" standalone="no"?>
<!DOCTYPE svg PUBLIC "-//W3C//DTD SVG 1.1//EN"
 "http://www.w3.org/Graphics/SVG/1.1/DTD/svg11.dtd">
<!-- Generated by graphviz version 2.40.1 (20161225.0304)
 -->
<!-- Title: Registration Pages: 1 -->
<svg width="203pt" height="159pt"
 viewBox="0.00 0.00 203.00 159.00" xmlns="http://www.w3.org/2000/svg" xmlns:xlink="http://www.w3.org/1999/xlink">
<g id="graph0" class="graph" transform="scale(1 1) rotate(0) translate(4 155)">
<title>Registration</title>
<polygon fill="#ffffff" stroke="transparent" points="-4,4 -4,-155 199,-155 199,4 -4,4"/>
<g id="clust1" class="cluster">
<title>clusterdir_b9cb50edb61d9a37345e1397b3ccbbdc</title>
<g id="a_clust1"><a xlink:href="dir_b9cb50edb61d9a37345e1397b3ccbbdc.html" target="_top" xlink:title="Code">
<polygon fill="#ddddee" stroke="#000000" points="8,-56 8,-143 187,-143 187,-56 8,-56"/>
<text text-anchor="middle" x="97.5" y="-131" font-family="Helvetica,sans-Serif" font-size="10.00" fill="#000000">Code</text>
</a>
</g>
</g>
<g id="clust2" class="cluster">
<title>clusterdir_38d004fcec24276f2c541b703d786171</title>
<g id="a_clust2"><a xlink:href="dir_38d004fcec24276f2c541b703d786171.html" target="_top">
<polygon fill="#eeeeff" stroke="#000000" points="16,-64 16,-116 179,-116 179,-64 16,-64"/>
</a>
</g>
</g>
<!-- dir_38d004fcec24276f2c541b703d786171 -->
<g id="node1" class="node">
<title>dir_38d004fcec24276f2c541b703d786171</title>
<text text-anchor="middle" x="134" y="-87.5" font-family="Helvetica,sans-Serif" font-size="10.00" fill="#000000">Registration</text>
</g>
<!-- dir_7d89d2b16d8ddeef6397633d9aa8863c -->
<g id="node2" class="node">
<title>dir_7d89d2b16d8ddeef6397633d9aa8863c</title>
<g id="a_node2"><a xlink:href="dir_7d89d2b16d8ddeef6397633d9aa8863c.html" target="_top" xlink:title="include">
<polygon fill="#ffffff" stroke="#000000" points="78,-108 24,-108 24,-72 78,-72 78,-108"/>
<text text-anchor="middle" x="51" y="-87.5" font-family="Helvetica,sans-Serif" font-size="10.00" fill="#000000">include</text>
</a>
</g>
</g>
<!-- dir_1ba33b307118a85c0794d13b60d0caea -->
<g id="node3" class="node">
<title>dir_1ba33b307118a85c0794d13b60d0caea</title>
<g id="a_node3"><a xlink:href="dir_1ba33b307118a85c0794d13b60d0caea.html" target="_top" xlink:title="Common">
<polygon fill="#ffffff" stroke="#ff0000" points="81.5,-36 20.5,-36 20.5,0 81.5,0 81.5,-36"/>
<text text-anchor="middle" x="51" y="-15.5" font-family="Helvetica,sans-Serif" font-size="10.00" fill="#000000">Common</text>
</a>
</g>
</g>
<!-- dir_7d89d2b16d8ddeef6397633d9aa8863c&#45;&gt;dir_1ba33b307118a85c0794d13b60d0caea -->
<g id="edge2" class="edge">
<title>dir_7d89d2b16d8ddeef6397633d9aa8863c&#45;&gt;dir_1ba33b307118a85c0794d13b60d0caea</title>
<path fill="none" stroke="#000000" d="M45.0476,-71.8314C44.2972,-64.131 44.0763,-54.9743 44.3849,-46.4166"/>
<polygon fill="#000000" stroke="#000000" points="47.8792,-46.6161 45.024,-36.4133 40.8935,-46.1697 47.8792,-46.6161"/>
<g id="a_edge2&#45;headlabel"><a xlink:href="dir_000026_000006.html" target="_top" xlink:title="9">
<text text-anchor="middle" x="50.4836" y="-47.8844" font-family="Helvetica,sans-Serif" font-size="10.00" fill="#000000">9</text>
</a>
</g>
</g>
<!-- dir_1ba33b307118a85c0794d13b60d0caea&#45;&gt;dir_7d89d2b16d8ddeef6397633d9aa8863c -->
<g id="edge1" class="edge">
<title>dir_1ba33b307118a85c0794d13b60d0caea&#45;&gt;dir_7d89d2b16d8ddeef6397633d9aa8863c</title>
<path fill="none" stroke="#000000" d="M56.976,-36.4133C57.7071,-44.0593 57.9203,-53.1084 57.6155,-61.5726"/>
<polygon fill="#000000" stroke="#000000" points="54.1048,-61.6264 56.9524,-71.8314 61.0902,-62.078 54.1048,-61.6264"/>
<g id="a_edge1&#45;headlabel"><a xlink:href="dir_000006_000026.html" target="_top" xlink:title="1">
<text text-anchor="middle" x="51.5032" y="-55.3562" font-family="Helvetica,sans-Serif" font-size="10.00" fill="#000000">1</text>
</a>
</g>
</g>
</g>
</svg>
