<?xml version="1.0" encoding="UTF-8" standalone="no"?>
<!DOCTYPE svg PUBLIC "-//W3C//DTD SVG 1.1//EN"
 "http://www.w3.org/Graphics/SVG/1.1/DTD/svg11.dtd">
<!-- Generated by graphviz version 2.40.1 (20161225.0304)
 -->
<!-- Title: sitkPatchBasedDenoisingImageFilter.h Pages: 1 -->
<svg width="537pt" height="162pt"
 viewBox="0.00 0.00 537.00 162.00" xmlns="http://www.w3.org/2000/svg" xmlns:xlink="http://www.w3.org/1999/xlink">
<g id="graph0" class="graph" transform="scale(1 1) rotate(0) translate(4 158)">
<title>sitkPatchBasedDenoisingImageFilter.h</title>
<polygon fill="#ffffff" stroke="transparent" points="-4,4 -4,-158 533,-158 533,4 -4,4"/>
<!-- Node1 -->
<g id="node1" class="node">
<title>Node1</title>
<g id="a_node1"><a xlink:title=" ">
<polygon fill="#bfbfbf" stroke="#000000" points="166.5,-123.5 166.5,-153.5 336.5,-153.5 336.5,-123.5 166.5,-123.5"/>
<text text-anchor="start" x="174.5" y="-141.5" font-family="Helvetica,sans-Serif" font-size="10.00" fill="#000000">sitkPatchBasedDenoisingImage</text>
<text text-anchor="middle" x="251.5" y="-130.5" font-family="Helvetica,sans-Serif" font-size="10.00" fill="#000000">Filter.h</text>
</a>
</g>
</g>
<!-- Node2 -->
<g id="node2" class="node">
<title>Node2</title>
<g id="a_node2"><a xlink:href="sitkAdditionalProcedures_8h.html" target="_top" xlink:title=" ">
<polygon fill="#ffffff" stroke="#000000" points="0,-62 0,-81 147,-81 147,-62 0,-62"/>
<text text-anchor="middle" x="73.5" y="-69" font-family="Helvetica,sans-Serif" font-size="10.00" fill="#000000">sitkAdditionalProcedures.h</text>
</a>
</g>
</g>
<!-- Node1&#45;&gt;Node2 -->
<g id="edge1" class="edge">
<title>Node1&#45;&gt;Node2</title>
<path fill="none" stroke="#191970" d="M201.9203,-119.838C168.385,-107.2151 125.4917,-91.0699 98.7529,-81.0053"/>
<polygon fill="#191970" stroke="#191970" points="200.9614,-123.2167 211.5533,-123.4639 203.4273,-116.6654 200.9614,-123.2167"/>
</g>
<!-- Node4 -->
<g id="node4" class="node">
<title>Node4</title>
<g id="a_node4"><a xlink:href="CMakeTmp_2SimpleITKBasicFiltersGeneratedHeaders_8h.html" target="_top" xlink:title=" ">
<polygon fill="#ffffff" stroke="#000000" points="165,-56.5 165,-86.5 338,-86.5 338,-56.5 165,-56.5"/>
<text text-anchor="start" x="173" y="-74.5" font-family="Helvetica,sans-Serif" font-size="10.00" fill="#000000">SimpleITKBasicFiltersGenerated</text>
<text text-anchor="middle" x="251.5" y="-63.5" font-family="Helvetica,sans-Serif" font-size="10.00" fill="#000000">Headers.h</text>
</a>
</g>
</g>
<!-- Node1&#45;&gt;Node4 -->
<g id="edge3" class="edge">
<title>Node1&#45;&gt;Node4</title>
<path fill="none" stroke="#191970" d="M251.5,-113.0249C251.5,-104.128 251.5,-94.4287 251.5,-86.6432"/>
<polygon fill="#191970" stroke="#191970" points="248.0001,-113.2966 251.5,-123.2967 255.0001,-113.2967 248.0001,-113.2966"/>
</g>
<!-- Node5 -->
<g id="node5" class="node">
<title>Node5</title>
<g id="a_node5"><a xlink:href="include_2SimpleITKBasicFiltersGeneratedHeaders_8h.html" target="_top" xlink:title=" ">
<polygon fill="#ffffff" stroke="#000000" points="356,-56.5 356,-86.5 529,-86.5 529,-56.5 356,-56.5"/>
<text text-anchor="start" x="364" y="-74.5" font-family="Helvetica,sans-Serif" font-size="10.00" fill="#000000">SimpleITKBasicFiltersGenerated</text>
<text text-anchor="middle" x="442.5" y="-63.5" font-family="Helvetica,sans-Serif" font-size="10.00" fill="#000000">Headers.h</text>
</a>
</g>
</g>
<!-- Node1&#45;&gt;Node5 -->
<g id="edge4" class="edge">
<title>Node1&#45;&gt;Node5</title>
<path fill="none" stroke="#191970" d="M303.8419,-120.1392C333.8771,-109.6033 371.1245,-96.5375 399.4489,-86.6017"/>
<polygon fill="#191970" stroke="#191970" points="302.6418,-116.851 294.3641,-123.4639 304.959,-123.4564 302.6418,-116.851"/>
</g>
<!-- Node3 -->
<g id="node3" class="node">
<title>Node3</title>
<g id="a_node3"><a xlink:href="SimpleITK_8h.html" target="_top" xlink:title=" ">
<polygon fill="#ffffff" stroke="#000000" points="220,-.5 220,-19.5 295,-19.5 295,-.5 220,-.5"/>
<text text-anchor="middle" x="257.5" y="-7.5" font-family="Helvetica,sans-Serif" font-size="10.00" fill="#000000">SimpleITK.h</text>
</a>
</g>
</g>
<!-- Node2&#45;&gt;Node3 -->
<g id="edge2" class="edge">
<title>Node2&#45;&gt;Node3</title>
<path fill="none" stroke="#191970" d="M112.0926,-58.6009C146.9906,-46.9366 197.5723,-30.0302 228.9519,-19.5419"/>
<polygon fill="#191970" stroke="#191970" points="110.6247,-55.4011 102.25,-61.8906 112.8438,-62.04 110.6247,-55.4011"/>
</g>
<!-- Node5&#45;&gt;Node3 -->
<g id="edge5" class="edge">
<title>Node5&#45;&gt;Node3</title>
<path fill="none" stroke="#191970" d="M387.6306,-53.2596C354.3222,-42.1868 313.1659,-28.5052 286.1684,-19.5303"/>
<polygon fill="#191970" stroke="#191970" points="386.6504,-56.622 397.2439,-56.4554 388.8586,-49.9795 386.6504,-56.622"/>
</g>
</g>
</svg>
