<?xml version="1.0" encoding="UTF-8" standalone="no"?>
<!DOCTYPE svg PUBLIC "-//W3C//DTD SVG 1.1//EN"
 "http://www.w3.org/Graphics/SVG/1.1/DTD/svg11.dtd">
<!-- Generated by graphviz version 2.40.1 (20161225.0304)
 -->
<!-- Title: sitkCommon.h Pages: 1 -->
<svg width="4275pt" height="509pt"
 viewBox="0.00 0.00 4275.21 509.00" xmlns="http://www.w3.org/2000/svg" xmlns:xlink="http://www.w3.org/1999/xlink">
<g id="graph0" class="graph" transform="scale(1 1) rotate(0) translate(4 505)">
<title>sitkCommon.h</title>
<polygon fill="#ffffff" stroke="transparent" points="-4,4 -4,-505 4271.2062,-505 4271.2062,4 -4,4"/>
<!-- Node1 -->
<g id="node1" class="node">
<title>Node1</title>
<g id="a_node1"><a xlink:title=" ">
<polygon fill="#bfbfbf" stroke="#000000" points="2173.2062,-481.5 2173.2062,-500.5 2261.2062,-500.5 2261.2062,-481.5 2173.2062,-481.5"/>
<text text-anchor="middle" x="2217.2062" y="-488.5" font-family="Helvetica,sans-Serif" font-size="10.00" fill="#000000">sitkCommon.h</text>
</a>
</g>
</g>
<!-- Node2 -->
<g id="node2" class="node">
<title>Node2</title>
<g id="a_node2"><a xlink:href="sitkNonCopyable_8h.html" target="_top" xlink:title=" ">
<polygon fill="#ffffff" stroke="#000000" points="1400.7062,-313.5 1400.7062,-332.5 1509.7062,-332.5 1509.7062,-313.5 1400.7062,-313.5"/>
<text text-anchor="middle" x="1455.2062" y="-320.5" font-family="Helvetica,sans-Serif" font-size="10.00" fill="#000000">sitkNonCopyable.h</text>
</a>
</g>
</g>
<!-- Node1&#45;&gt;Node2 -->
<g id="edge1" class="edge">
<title>Node1&#45;&gt;Node2</title>
<path fill="none" stroke="#191970" d="M2162.8585,-488.8092C2020.9272,-482.8309 1646.4731,-465.3186 1594.2062,-445 1532.8561,-421.1504 1480.6282,-357.2648 1462.2535,-332.757"/>
<polygon fill="#191970" stroke="#191970" points="2162.9309,-492.3152 2173.0684,-489.2362 2163.2234,-485.3213 2162.9309,-492.3152"/>
</g>
<!-- Node326 -->
<g id="node17" class="node">
<title>Node326</title>
<g id="a_node17"><a xlink:href="sitkProcessObject_8h.html" target="_top" xlink:title=" ">
<polygon fill="#ffffff" stroke="#000000" points="778.7062,-190.5 778.7062,-209.5 891.7062,-209.5 891.7062,-190.5 778.7062,-190.5"/>
<text text-anchor="middle" x="835.2062" y="-197.5" font-family="Helvetica,sans-Serif" font-size="10.00" fill="#000000">sitkProcessObject.h</text>
</a>
</g>
</g>
<!-- Node1&#45;&gt;Node326 -->
<g id="edge146" class="edge">
<title>Node1&#45;&gt;Node326</title>
<path fill="none" stroke="#191970" d="M2163.03,-489.7789C1956.1698,-484.9726 1222.5831,-466.562 1120.2062,-445 1044.1292,-428.9772 958.2062,-456.746 958.2062,-379 958.2062,-379 958.2062,-379 958.2062,-323 958.2062,-266.3762 892.2239,-226.7151 856.913,-209.5443"/>
<polygon fill="#191970" stroke="#191970" points="2162.9723,-493.2784 2173.0506,-490.0106 2163.1343,-486.2803 2162.9723,-493.2784"/>
</g>
<!-- Node338 -->
<g id="node21" class="node">
<title>Node338</title>
<g id="a_node21"><a xlink:href="sitkCommand_8h.html" target="_top" xlink:title=" ">
<polygon fill="#ffffff" stroke="#ff0000" points="1804.2062,-252 1804.2062,-271 1898.2062,-271 1898.2062,-252 1804.2062,-252"/>
<text text-anchor="middle" x="1851.2062" y="-259" font-family="Helvetica,sans-Serif" font-size="10.00" fill="#000000">sitkCommand.h</text>
</a>
</g>
</g>
<!-- Node1&#45;&gt;Node338 -->
<g id="edge147" class="edge">
<title>Node1&#45;&gt;Node338</title>
<path fill="none" stroke="#191970" d="M2162.8764,-482.9738C2110.2354,-474.4929 2034.7256,-460.2551 2009.2062,-445 1932.3473,-399.0547 1874.0068,-302.5326 1856.5765,-271.4035"/>
<polygon fill="#191970" stroke="#191970" points="2162.6532,-486.4821 2173.078,-484.5919 2163.7498,-479.5685 2162.6532,-486.4821"/>
</g>
<!-- Node340 -->
<g id="node22" class="node">
<title>Node340</title>
<g id="a_node22"><a xlink:href="sitkVersion_8h.html" target="_top" xlink:title=" ">
<polygon fill="#ffffff" stroke="#000000" points="4187.2062,-425.5 4187.2062,-444.5 4267.2062,-444.5 4267.2062,-425.5 4187.2062,-425.5"/>
<text text-anchor="middle" x="4227.2062" y="-432.5" font-family="Helvetica,sans-Serif" font-size="10.00" fill="#000000">sitkVersion.h</text>
</a>
</g>
</g>
<!-- Node1&#45;&gt;Node340 -->
<g id="edge46" class="edge">
<title>Node1&#45;&gt;Node340</title>
<path fill="none" stroke="#191970" d="M2271.8477,-489.4777C2563.5768,-481.3499 3933.7373,-443.1762 4186.9213,-436.1224"/>
<polygon fill="#191970" stroke="#191970" points="2271.4291,-485.9879 2261.5305,-489.7651 2271.6241,-492.9851 2271.4291,-485.9879"/>
</g>
<!-- Node6 -->
<g id="node23" class="node">
<title>Node6</title>
<g id="a_node23"><a xlink:href="sitkImage_8h.html" target="_top" xlink:title=" ">
<polygon fill="#ffffff" stroke="#000000" points="675.2062,-313.5 675.2062,-332.5 749.2062,-332.5 749.2062,-313.5 675.2062,-313.5"/>
<text text-anchor="middle" x="712.2062" y="-320.5" font-family="Helvetica,sans-Serif" font-size="10.00" fill="#000000">sitkImage.h</text>
</a>
</g>
</g>
<!-- Node1&#45;&gt;Node6 -->
<g id="edge48" class="edge">
<title>Node1&#45;&gt;Node6</title>
<path fill="none" stroke="#191970" d="M2163.1094,-490.4629C1935.6374,-488.0121 1062.9939,-476.6155 944.2062,-445 854.0546,-421.0061 759.5163,-357.2073 725.4266,-332.7398"/>
<polygon fill="#191970" stroke="#191970" points="2163.0987,-493.9629 2173.1354,-490.5696 2163.1733,-486.9633 2163.0987,-493.9629"/>
</g>
<!-- Node9 -->
<g id="node25" class="node">
<title>Node9</title>
<g id="a_node25"><a xlink:href="sitkTransform_8h.html" target="_top" xlink:title=" ">
<polygon fill="#ffffff" stroke="#000000" points="2486.2062,-252 2486.2062,-271 2578.2062,-271 2578.2062,-252 2486.2062,-252"/>
<text text-anchor="middle" x="2532.2062" y="-259" font-family="Helvetica,sans-Serif" font-size="10.00" fill="#000000">sitkTransform.h</text>
</a>
</g>
</g>
<!-- Node1&#45;&gt;Node9 -->
<g id="edge118" class="edge">
<title>Node1&#45;&gt;Node9</title>
<path fill="none" stroke="#191970" d="M2264.4803,-478.4877C2288.5435,-470.9022 2317.615,-459.8005 2341.2062,-445 2423.7851,-393.1924 2500.5788,-301.3485 2524.5372,-271.3076"/>
<polygon fill="#191970" stroke="#191970" points="2263.3923,-475.1602 2254.8468,-481.4232 2265.4328,-481.8563 2263.3923,-475.1602"/>
</g>
<!-- Node311 -->
<g id="node27" class="node">
<title>Node311</title>
<g id="a_node27"><a xlink:href="sitkBSplineTransform_8h.html" target="_top" xlink:title=" ">
<polygon fill="#ffffff" stroke="#000000" points="2117.7062,-129 2117.7062,-148 2246.7062,-148 2246.7062,-129 2117.7062,-129"/>
<text text-anchor="middle" x="2182.2062" y="-136" font-family="Helvetica,sans-Serif" font-size="10.00" fill="#000000">sitkBSplineTransform.h</text>
</a>
</g>
</g>
<!-- Node1&#45;&gt;Node311 -->
<g id="edge119" class="edge">
<title>Node1&#45;&gt;Node311</title>
<path fill="none" stroke="#191970" d="M2163.2092,-479.918C2112.4459,-465.9722 2044.2062,-436.5267 2044.2062,-379 2044.2062,-379 2044.2062,-379 2044.2062,-323 2044.2062,-287.7513 2047.6475,-273.1819 2025.2062,-246 1998.0363,-213.0906 1920.454,-223.2498 1947.2062,-190 1953.0154,-182.7798 2063.7445,-160.8135 2131.1063,-148.0209"/>
<polygon fill="#191970" stroke="#191970" points="2162.5433,-483.3615 2173.1034,-482.5043 2164.3136,-476.5891 2162.5433,-483.3615"/>
</g>
<!-- Node312 -->
<g id="node28" class="node">
<title>Node312</title>
<g id="a_node28"><a xlink:href="sitkDisplacementFieldTransform_8h.html" target="_top" xlink:title=" ">
<polygon fill="#ffffff" stroke="#000000" points="1956.2062,-190.5 1956.2062,-209.5 2138.2062,-209.5 2138.2062,-190.5 1956.2062,-190.5"/>
<text text-anchor="middle" x="2047.2062" y="-197.5" font-family="Helvetica,sans-Serif" font-size="10.00" fill="#000000">sitkDisplacementFieldTransform.h</text>
</a>
</g>
</g>
<!-- Node1&#45;&gt;Node312 -->
<g id="edge120" class="edge">
<title>Node1&#45;&gt;Node312</title>
<path fill="none" stroke="#191970" d="M2194.1174,-475.3089C2168.644,-455.9311 2131.2062,-420.4081 2131.2062,-379 2131.2062,-379 2131.2062,-379 2131.2062,-323 2131.2062,-273.0926 2083.4628,-228.5261 2059.964,-209.6136"/>
<polygon fill="#191970" stroke="#191970" points="2192.0902,-478.1625 2202.2262,-481.2468 2196.2259,-472.5148 2192.0902,-478.1625"/>
</g>
<!-- Node313 -->
<g id="node29" class="node">
<title>Node313</title>
<g id="a_node29"><a xlink:href="sitkAffineTransform_8h.html" target="_top" xlink:title=" ">
<polygon fill="#ffffff" stroke="#000000" points="2156.7062,-190.5 2156.7062,-209.5 2277.7062,-209.5 2277.7062,-190.5 2156.7062,-190.5"/>
<text text-anchor="middle" x="2217.2062" y="-197.5" font-family="Helvetica,sans-Serif" font-size="10.00" fill="#000000">sitkAffineTransform.h</text>
</a>
</g>
</g>
<!-- Node1&#45;&gt;Node313 -->
<g id="edge127" class="edge">
<title>Node1&#45;&gt;Node313</title>
<path fill="none" stroke="#191970" d="M2217.2062,-471.1952C2217.2062,-448.8128 2217.2062,-411.2884 2217.2062,-379 2217.2062,-379 2217.2062,-379 2217.2062,-323 2217.2062,-280.7188 2217.2062,-230.262 2217.2062,-209.5691"/>
<polygon fill="#191970" stroke="#191970" points="2213.7063,-471.4116 2217.2062,-481.4116 2220.7063,-471.4117 2213.7063,-471.4116"/>
</g>
<!-- Node314 -->
<g id="node30" class="node">
<title>Node314</title>
<g id="a_node30"><a xlink:href="sitkEuler2DTransform_8h.html" target="_top" xlink:title=" ">
<polygon fill="#ffffff" stroke="#000000" points="2334.7062,-190.5 2334.7062,-209.5 2465.7062,-209.5 2465.7062,-190.5 2334.7062,-190.5"/>
<text text-anchor="middle" x="2400.2062" y="-197.5" font-family="Helvetica,sans-Serif" font-size="10.00" fill="#000000">sitkEuler2DTransform.h</text>
</a>
</g>
</g>
<!-- Node1&#45;&gt;Node314 -->
<g id="edge128" class="edge">
<title>Node1&#45;&gt;Node314</title>
<path fill="none" stroke="#191970" d="M2247.3085,-476.6023C2279.8761,-458.6822 2327.2062,-424.7663 2327.2062,-379 2327.2062,-379 2327.2062,-379 2327.2062,-323 2327.2062,-274.8262 2369.1286,-229.0294 2389.4348,-209.6722"/>
<polygon fill="#191970" stroke="#191970" points="2245.3626,-473.6718 2238.1553,-481.4375 2248.6322,-479.8613 2245.3626,-473.6718"/>
</g>
<!-- Node315 -->
<g id="node31" class="node">
<title>Node315</title>
<g id="a_node31"><a xlink:href="sitkEuler3DTransform_8h.html" target="_top" xlink:title=" ">
<polygon fill="#ffffff" stroke="#000000" points="2560.7062,-190.5 2560.7062,-209.5 2691.7062,-209.5 2691.7062,-190.5 2560.7062,-190.5"/>
<text text-anchor="middle" x="2626.2062" y="-197.5" font-family="Helvetica,sans-Serif" font-size="10.00" fill="#000000">sitkEuler3DTransform.h</text>
</a>
</g>
</g>
<!-- Node1&#45;&gt;Node315 -->
<g id="edge129" class="edge">
<title>Node1&#45;&gt;Node315</title>
<path fill="none" stroke="#191970" d="M2271.5884,-487.1396C2380.7509,-477.8918 2616.2062,-449.7453 2616.2062,-379 2616.2062,-379 2616.2062,-379 2616.2062,-323 2616.2062,-280.5792 2622.1883,-230.1988 2624.8989,-209.5477"/>
<polygon fill="#191970" stroke="#191970" points="2271.1096,-483.6671 2261.4307,-487.9764 2271.6843,-490.6435 2271.1096,-483.6671"/>
</g>
<!-- Node316 -->
<g id="node32" class="node">
<title>Node316</title>
<g id="a_node32"><a xlink:href="sitkScaleTransform_8h.html" target="_top" xlink:title=" ">
<polygon fill="#ffffff" stroke="#000000" points="2709.7062,-190.5 2709.7062,-209.5 2828.7062,-209.5 2828.7062,-190.5 2709.7062,-190.5"/>
<text text-anchor="middle" x="2769.2062" y="-197.5" font-family="Helvetica,sans-Serif" font-size="10.00" fill="#000000">sitkScaleTransform.h</text>
</a>
</g>
</g>
<!-- Node1&#45;&gt;Node316 -->
<g id="edge130" class="edge">
<title>Node1&#45;&gt;Node316</title>
<path fill="none" stroke="#191970" d="M2271.7303,-488.8259C2341.4525,-484.9197 2465.3514,-474.169 2567.2062,-445 2635.2762,-425.5062 2712.2062,-449.8063 2712.2062,-379 2712.2062,-379 2712.2062,-379 2712.2062,-323 2712.2062,-276.8701 2745.6186,-229.2763 2761.2806,-209.5006"/>
<polygon fill="#191970" stroke="#191970" points="2271.2308,-485.3475 2261.4314,-489.375 2271.6035,-492.3376 2271.2308,-485.3475"/>
</g>
<!-- Node317 -->
<g id="node33" class="node">
<title>Node317</title>
<g id="a_node33"><a xlink:href="sitkScaleSkewVersor3DTransform_8h.html" target="_top" xlink:title=" ">
<polygon fill="#ffffff" stroke="#000000" points="2846.7062,-190.5 2846.7062,-209.5 3035.7062,-209.5 3035.7062,-190.5 2846.7062,-190.5"/>
<text text-anchor="middle" x="2941.2062" y="-197.5" font-family="Helvetica,sans-Serif" font-size="10.00" fill="#000000">sitkScaleSkewVersor3DTransform.h</text>
</a>
</g>
</g>
<!-- Node1&#45;&gt;Node317 -->
<g id="edge131" class="edge">
<title>Node1&#45;&gt;Node317</title>
<path fill="none" stroke="#191970" d="M2271.4406,-487.029C2423.8955,-475.1458 2845.2062,-437.0547 2845.2062,-379 2845.2062,-379 2845.2062,-379 2845.2062,-323 2845.2062,-271.2613 2898.6452,-228.2578 2925.7822,-209.7555"/>
<polygon fill="#191970" stroke="#191970" points="2271.067,-483.5473 2261.366,-487.8065 2271.6057,-490.5265 2271.067,-483.5473"/>
</g>
<!-- Node318 -->
<g id="node34" class="node">
<title>Node318</title>
<g id="a_node34"><a xlink:href="sitkScaleVersor3DTransform_8h.html" target="_top" xlink:title=" ">
<polygon fill="#ffffff" stroke="#000000" points="3053.7062,-190.5 3053.7062,-209.5 3216.7062,-209.5 3216.7062,-190.5 3053.7062,-190.5"/>
<text text-anchor="middle" x="3135.2062" y="-197.5" font-family="Helvetica,sans-Serif" font-size="10.00" fill="#000000">sitkScaleVersor3DTransform.h</text>
</a>
</g>
</g>
<!-- Node1&#45;&gt;Node318 -->
<g id="edge132" class="edge">
<title>Node1&#45;&gt;Node318</title>
<path fill="none" stroke="#191970" d="M2271.7241,-489.0422C2450.7464,-481.898 3009.2062,-453.6304 3009.2062,-379 3009.2062,-379 3009.2062,-379 3009.2062,-323 3009.2062,-265.8344 3076.4379,-226.5532 3112.6799,-209.5312"/>
<polygon fill="#191970" stroke="#191970" points="2271.3396,-485.5546 2261.4847,-489.4443 2271.6143,-492.5492 2271.3396,-485.5546"/>
</g>
<!-- Node319 -->
<g id="node35" class="node">
<title>Node319</title>
<g id="a_node35"><a xlink:href="sitkSimilarity2DTransform_8h.html" target="_top" xlink:title=" ">
<polygon fill="#ffffff" stroke="#000000" points="3234.7062,-190.5 3234.7062,-209.5 3387.7062,-209.5 3387.7062,-190.5 3234.7062,-190.5"/>
<text text-anchor="middle" x="3311.2062" y="-197.5" font-family="Helvetica,sans-Serif" font-size="10.00" fill="#000000">sitkSimilarity2DTransform.h</text>
</a>
</g>
</g>
<!-- Node1&#45;&gt;Node319 -->
<g id="edge133" class="edge">
<title>Node1&#45;&gt;Node319</title>
<path fill="none" stroke="#191970" d="M2271.4997,-490.4291C2474.7638,-487.585 3179.2062,-471.0855 3179.2062,-379 3179.2062,-379 3179.2062,-379 3179.2062,-323 3179.2062,-264.8945 3248.514,-226.4144 3286.6874,-209.6269"/>
<polygon fill="#191970" stroke="#191970" points="2271.3101,-486.9313 2261.3581,-490.5654 2271.4043,-493.9306 2271.3101,-486.9313"/>
</g>
<!-- Node320 -->
<g id="node36" class="node">
<title>Node320</title>
<g id="a_node36"><a xlink:href="sitkSimilarity3DTransform_8h.html" target="_top" xlink:title=" ">
<polygon fill="#ffffff" stroke="#000000" points="3405.7062,-190.5 3405.7062,-209.5 3558.7062,-209.5 3558.7062,-190.5 3405.7062,-190.5"/>
<text text-anchor="middle" x="3482.2062" y="-197.5" font-family="Helvetica,sans-Serif" font-size="10.00" fill="#000000">sitkSimilarity3DTransform.h</text>
</a>
</g>
</g>
<!-- Node1&#45;&gt;Node320 -->
<g id="edge134" class="edge">
<title>Node1&#45;&gt;Node320</title>
<path fill="none" stroke="#191970" d="M2271.6747,-489.3957C2434.6369,-484.3861 2916.7096,-467.9838 3072.2062,-445 3194.4117,-426.937 3342.2062,-502.5332 3342.2062,-379 3342.2062,-379 3342.2062,-379 3342.2062,-323 3342.2062,-263.4692 3414.5304,-225.972 3455.2128,-209.5887"/>
<polygon fill="#191970" stroke="#191970" points="2271.2975,-485.9055 2261.409,-489.7092 2271.5112,-492.9022 2271.2975,-485.9055"/>
</g>
<!-- Node321 -->
<g id="node37" class="node">
<title>Node321</title>
<g id="a_node37"><a xlink:href="sitkTranslationTransform_8h.html" target="_top" xlink:title=" ">
<polygon fill="#ffffff" stroke="#000000" points="3577.2062,-190.5 3577.2062,-209.5 3723.2062,-209.5 3723.2062,-190.5 3577.2062,-190.5"/>
<text text-anchor="middle" x="3650.2062" y="-197.5" font-family="Helvetica,sans-Serif" font-size="10.00" fill="#000000">sitkTranslationTransform.h</text>
</a>
</g>
</g>
<!-- Node1&#45;&gt;Node321 -->
<g id="edge135" class="edge">
<title>Node1&#45;&gt;Node321</title>
<path fill="none" stroke="#191970" d="M2271.4587,-490.1827C2451.9526,-487.1997 3031.1851,-475.4371 3215.2062,-445 3319.2857,-427.7853 3443.2062,-484.4935 3443.2062,-379 3443.2062,-379 3443.2062,-379 3443.2062,-323 3443.2062,-254.2338 3528.6779,-223.0554 3589.7768,-209.5526"/>
<polygon fill="#191970" stroke="#191970" points="2271.3454,-486.684 2261.4038,-490.3465 2271.4595,-493.683 2271.3454,-486.684"/>
</g>
<!-- Node322 -->
<g id="node38" class="node">
<title>Node322</title>
<g id="a_node38"><a xlink:href="sitkVersorTransform_8h.html" target="_top" xlink:title=" ">
<polygon fill="#ffffff" stroke="#000000" points="3741.7062,-190.5 3741.7062,-209.5 3864.7062,-209.5 3864.7062,-190.5 3741.7062,-190.5"/>
<text text-anchor="middle" x="3803.2062" y="-197.5" font-family="Helvetica,sans-Serif" font-size="10.00" fill="#000000">sitkVersorTransform.h</text>
</a>
</g>
</g>
<!-- Node1&#45;&gt;Node322 -->
<g id="edge136" class="edge">
<title>Node1&#45;&gt;Node322</title>
<path fill="none" stroke="#191970" d="M2271.3509,-489.7742C2480.6751,-484.8982 3230.513,-466.1152 3335.2062,-445 3417.5067,-428.4011 3512.2062,-462.9577 3512.2062,-379 3512.2062,-379 3512.2062,-379 3512.2062,-323 3512.2062,-284.4356 3521.1928,-268.9212 3552.2062,-246 3559.9218,-240.2976 3672.1525,-221.2454 3743.9018,-209.5243"/>
<polygon fill="#191970" stroke="#191970" points="2271.1336,-486.2782 2261.2174,-490.0092 2271.2959,-493.2763 2271.1336,-486.2782"/>
</g>
<!-- Node323 -->
<g id="node39" class="node">
<title>Node323</title>
<g id="a_node39"><a xlink:href="sitkVersorRigid3DTransform_8h.html" target="_top" xlink:title=" ">
<polygon fill="#ffffff" stroke="#000000" points="3882.7062,-190.5 3882.7062,-209.5 4043.7062,-209.5 4043.7062,-190.5 3882.7062,-190.5"/>
<text text-anchor="middle" x="3963.2062" y="-197.5" font-family="Helvetica,sans-Serif" font-size="10.00" fill="#000000">sitkVersorRigid3DTransform.h</text>
</a>
</g>
</g>
<!-- Node1&#45;&gt;Node323 -->
<g id="edge137" class="edge">
<title>Node1&#45;&gt;Node323</title>
<path fill="none" stroke="#191970" d="M2271.511,-490.2341C2492.1594,-486.9459 3315.1669,-472.9067 3428.2062,-445 3494.2115,-428.7049 3566.2062,-446.9869 3566.2062,-379 3566.2062,-379 3566.2062,-379 3566.2062,-323 3566.2062,-285.9402 3568.7292,-268.4619 3598.2062,-246 3603.834,-241.7115 3776.6474,-221.3095 3882.4356,-209.1632"/>
<polygon fill="#191970" stroke="#191970" points="2271.4117,-486.7351 2261.4645,-490.3826 2271.5152,-493.7344 2271.4117,-486.7351"/>
</g>
<!-- Node324 -->
<g id="node40" class="node">
<title>Node324</title>
<g id="a_node40"><a xlink:href="sitkCompositeTransform_8h.html" target="_top" xlink:title=" ">
<polygon fill="#ffffff" stroke="#000000" points="4061.7062,-190.5 4061.7062,-209.5 4206.7062,-209.5 4206.7062,-190.5 4061.7062,-190.5"/>
<text text-anchor="middle" x="4134.2062" y="-197.5" font-family="Helvetica,sans-Serif" font-size="10.00" fill="#000000">sitkCompositeTransform.h</text>
</a>
</g>
</g>
<!-- Node1&#45;&gt;Node324 -->
<g id="edge138" class="edge">
<title>Node1&#45;&gt;Node324</title>
<path fill="none" stroke="#191970" d="M2271.2978,-490.6014C2499.7472,-488.7089 3379.275,-479.2436 3498.2062,-445 3554.4659,-428.8013 3612.2062,-437.5453 3612.2062,-379 3612.2062,-379 3612.2062,-379 3612.2062,-323 3612.2062,-277.3194 3918.9741,-229.3921 4062.1724,-209.5082"/>
<polygon fill="#191970" stroke="#191970" points="2271.2021,-487.102 2261.231,-490.6834 2271.2592,-494.1018 2271.2021,-487.102"/>
</g>
<!-- Node341 -->
<g id="node42" class="node">
<title>Node341</title>
<g id="a_node42"><a xlink:href="sitkTemplateFunctions_8h.html" target="_top" xlink:title=" ">
<polygon fill="#ffffff" stroke="#000000" points="986.2062,-369.5 986.2062,-388.5 1120.2062,-388.5 1120.2062,-369.5 986.2062,-369.5"/>
<text text-anchor="middle" x="1053.2062" y="-376.5" font-family="Helvetica,sans-Serif" font-size="10.00" fill="#000000">sitkTemplateFunctions.h</text>
</a>
</g>
</g>
<!-- Node1&#45;&gt;Node341 -->
<g id="edge104" class="edge">
<title>Node1&#45;&gt;Node341</title>
<path fill="none" stroke="#191970" d="M2163.1956,-490.0731C1962.7005,-486.4336 1267.7587,-471.9794 1172.2062,-445 1130.1453,-433.1241 1086.73,-403.9452 1065.8833,-388.6736"/>
<polygon fill="#191970" stroke="#191970" points="2163.138,-493.5725 2173.1994,-490.2531 2163.2641,-486.5736 2163.138,-493.5725"/>
</g>
<!-- Node343 -->
<g id="node44" class="node">
<title>Node343</title>
<g id="a_node44"><a xlink:href="sitkExceptionObject_8h.html" target="_top" xlink:title=" ">
<polygon fill="#ffffff" stroke="#000000" points="1352.7062,-425.5 1352.7062,-444.5 1475.7062,-444.5 1475.7062,-425.5 1352.7062,-425.5"/>
<text text-anchor="middle" x="1414.2062" y="-432.5" font-family="Helvetica,sans-Serif" font-size="10.00" fill="#000000">sitkExceptionObject.h</text>
</a>
</g>
</g>
<!-- Node1&#45;&gt;Node343 -->
<g id="edge108" class="edge">
<title>Node1&#45;&gt;Node343</title>
<path fill="none" stroke="#191970" d="M2162.7405,-488.8145C2041.6375,-483.6789 1740.9383,-469.3997 1490.2062,-445 1485.5703,-444.5489 1480.7814,-444.0342 1475.968,-443.4817"/>
<polygon fill="#191970" stroke="#191970" points="2162.7278,-492.317 2172.866,-489.2403 2163.0219,-485.3231 2162.7278,-492.317"/>
</g>
<!-- Node344 -->
<g id="node45" class="node">
<title>Node344</title>
<g id="a_node45"><a xlink:href="sitkPixelIDValues_8h.html" target="_top" xlink:title=" ">
<polygon fill="#ffffff" stroke="#000000" points="1181.2062,-425.5 1181.2062,-444.5 1291.2062,-444.5 1291.2062,-425.5 1181.2062,-425.5"/>
<text text-anchor="middle" x="1236.2062" y="-432.5" font-family="Helvetica,sans-Serif" font-size="10.00" fill="#000000">sitkPixelIDValues.h</text>
</a>
</g>
</g>
<!-- Node1&#45;&gt;Node344 -->
<g id="edge111" class="edge">
<title>Node1&#45;&gt;Node344</title>
<path fill="none" stroke="#191970" d="M2162.7979,-488.9053C2025.3412,-483.4461 1652.9964,-467.6192 1343.2062,-445 1326.3662,-443.7704 1308.0604,-442.1605 1291.4298,-440.5927"/>
<polygon fill="#191970" stroke="#191970" points="2162.927,-492.413 2173.0575,-489.3108 2163.2035,-485.4185 2162.927,-492.413"/>
</g>
<!-- Node346 -->
<g id="node47" class="node">
<title>Node346</title>
<g id="a_node47"><a xlink:href="sitkInterpolator_8h.html" target="_top" xlink:title=" ">
<polygon fill="#ffffff" stroke="#000000" points="1916.2062,-252 1916.2062,-271 2016.2062,-271 2016.2062,-252 1916.2062,-252"/>
<text text-anchor="middle" x="1966.2062" y="-259" font-family="Helvetica,sans-Serif" font-size="10.00" fill="#000000">sitkInterpolator.h</text>
</a>
</g>
</g>
<!-- Node1&#45;&gt;Node346 -->
<g id="edge121" class="edge">
<title>Node1&#45;&gt;Node346</title>
<path fill="none" stroke="#191970" d="M2163.0741,-483.5155C2115.0315,-475.856 2049.542,-462.5918 2030.2062,-445 1977.049,-396.6372 1968.0431,-301.7205 1966.5174,-271.1989"/>
<polygon fill="#191970" stroke="#191970" points="2162.6192,-486.9867 2173.0382,-485.0644 2163.6945,-480.0698 2162.6192,-486.9867"/>
</g>
<!-- Node347 -->
<g id="node48" class="node">
<title>Node347</title>
<g id="a_node48"><a xlink:href="sitkEvent_8h.html" target="_top" xlink:title=" ">
<polygon fill="#ffffff" stroke="#000000" points="1512.7062,-252 1512.7062,-271 1583.7062,-271 1583.7062,-252 1512.7062,-252"/>
<text text-anchor="middle" x="1548.2062" y="-259" font-family="Helvetica,sans-Serif" font-size="10.00" fill="#000000">sitkEvent.h</text>
</a>
</g>
</g>
<!-- Node1&#45;&gt;Node347 -->
<g id="edge139" class="edge">
<title>Node1&#45;&gt;Node347</title>
<path fill="none" stroke="#191970" d="M2163.1758,-486.7873C2105.4431,-481.2376 2011.7551,-469.197 1934.2062,-445 1782.978,-397.8133 1615.5192,-301.7028 1564.0856,-271.0916"/>
<polygon fill="#191970" stroke="#191970" points="2162.8934,-490.2761 2173.1748,-487.718 2163.5422,-483.3062 2162.8934,-490.2761"/>
</g>
<!-- Node348 -->
<g id="node49" class="node">
<title>Node348</title>
<g id="a_node49"><a xlink:href="sitkRandomSeed_8h.html" target="_top" xlink:title=" ">
<polygon fill="#ffffff" stroke="#000000" points="1640.2062,-252 1640.2062,-271 1748.2062,-271 1748.2062,-252 1640.2062,-252"/>
<text text-anchor="middle" x="1694.2062" y="-259" font-family="Helvetica,sans-Serif" font-size="10.00" fill="#000000">sitkRandomSeed.h</text>
</a>
</g>
</g>
<!-- Node1&#45;&gt;Node348 -->
<g id="edge142" class="edge">
<title>Node1&#45;&gt;Node348</title>
<path fill="none" stroke="#191970" d="M2162.6538,-486.4075C2113.3068,-480.8803 2039.3736,-469.1353 1979.2062,-445 1862.5975,-398.2241 1742.2625,-301.8392 1705.5213,-271.1256"/>
<polygon fill="#191970" stroke="#191970" points="2162.4809,-489.9089 2172.797,-487.4947 2163.227,-482.9487 2162.4809,-489.9089"/>
</g>
<!-- Node349 -->
<g id="node50" class="node">
<title>Node349</title>
<g id="a_node50"><a xlink:href="sitkKernel_8h.html" target="_top" xlink:title=" ">
<polygon fill="#ffffff" stroke="#ff0000" points="1532.2062,-369.5 1532.2062,-388.5 1606.2062,-388.5 1606.2062,-369.5 1532.2062,-369.5"/>
<text text-anchor="middle" x="1569.2062" y="-376.5" font-family="Helvetica,sans-Serif" font-size="10.00" fill="#000000">sitkKernel.h</text>
</a>
</g>
</g>
<!-- Node1&#45;&gt;Node349 -->
<g id="edge148" class="edge">
<title>Node1&#45;&gt;Node349</title>
<path fill="none" stroke="#191970" d="M2162.4523,-489.3069C2023.9392,-484.6687 1667.2368,-470.3826 1620.2062,-445 1596.7587,-432.3453 1580.6703,-403.786 1573.4753,-388.7224"/>
<polygon fill="#191970" stroke="#191970" points="2162.7142,-492.8174 2172.8244,-489.6498 2162.9455,-485.8212 2162.7142,-492.8174"/>
</g>
<!-- Node3 -->
<g id="node3" class="node">
<title>Node3</title>
<g id="a_node3"><a xlink:href="sitkMemberFunctionFactoryBase_8h.html" target="_top" xlink:title=" ">
<polygon fill="#ffffff" stroke="#ff0000" points="1344.2062,-246.5 1344.2062,-276.5 1494.2062,-276.5 1494.2062,-246.5 1344.2062,-246.5"/>
<text text-anchor="start" x="1352.2062" y="-264.5" font-family="Helvetica,sans-Serif" font-size="10.00" fill="#000000">sitkMemberFunctionFactory</text>
<text text-anchor="middle" x="1419.2062" y="-253.5" font-family="Helvetica,sans-Serif" font-size="10.00" fill="#000000">Base.h</text>
</a>
</g>
</g>
<!-- Node2&#45;&gt;Node3 -->
<g id="edge2" class="edge">
<title>Node2&#45;&gt;Node3</title>
<path fill="none" stroke="#191970" d="M1444.3883,-304.5193C1439.1548,-295.5789 1432.9525,-284.9832 1428.0128,-276.5446"/>
<polygon fill="#191970" stroke="#191970" points="1441.5088,-306.5286 1449.5812,-313.3906 1447.5499,-302.9923 1441.5088,-306.5286"/>
</g>
<!-- Node2&#45;&gt;Node326 -->
<g id="edge27" class="edge">
<title>Node2&#45;&gt;Node326</title>
<path fill="none" stroke="#191970" d="M1397.195,-311.4913C1275.5535,-287.3592 995.7725,-231.8543 883.31,-209.5432"/>
<polygon fill="#191970" stroke="#191970" points="1396.5818,-314.9378 1407.0718,-313.4507 1397.944,-308.0716 1396.5818,-314.9378"/>
</g>
<!-- Node2&#45;&gt;Node338 -->
<g id="edge44" class="edge">
<title>Node2&#45;&gt;Node338</title>
<path fill="none" stroke="#191970" d="M1519.861,-316.3046C1587.5908,-308.7818 1696.899,-295.201 1790.2062,-277 1798.786,-275.3264 1807.9604,-273.1851 1816.52,-271.0319"/>
<polygon fill="#191970" stroke="#191970" points="1519.3241,-312.8424 1509.7668,-317.415 1520.0896,-319.8004 1519.3241,-312.8424"/>
</g>
<!-- Node337 -->
<g id="node4" class="node">
<title>Node337</title>
<g id="a_node4"><a xlink:href="sitkMemberFunctionFactory_8h.html" target="_top" xlink:title=" ">
<polygon fill="#ffffff" stroke="#000000" points="948.2062,-190.5 948.2062,-209.5 1106.2062,-209.5 1106.2062,-190.5 948.2062,-190.5"/>
<text text-anchor="middle" x="1027.2062" y="-197.5" font-family="Helvetica,sans-Serif" font-size="10.00" fill="#000000">sitkMemberFunctionFactory.h</text>
</a>
</g>
</g>
<!-- Node3&#45;&gt;Node337 -->
<g id="edge3" class="edge">
<title>Node3&#45;&gt;Node337</title>
<path fill="none" stroke="#191970" d="M1334.0217,-246.6248C1332.7412,-246.4141 1331.4688,-246.2058 1330.2062,-246 1248.4154,-232.6708 1153.9924,-218.5337 1092.5827,-209.5055"/>
<polygon fill="#191970" stroke="#191970" points="1333.5242,-250.09 1343.9628,-248.2773 1334.6721,-243.1848 1333.5242,-250.09"/>
</g>
<!-- Node12 -->
<g id="node5" class="node">
<title>Node12</title>
<g id="a_node5"><a xlink:href="sitkImageFilter_8h.html" target="_top" xlink:title=" ">
<polygon fill="#ffffff" stroke="#ff0000" points="1053.2062,-129 1053.2062,-148 1151.2062,-148 1151.2062,-129 1053.2062,-129"/>
<text text-anchor="middle" x="1102.2062" y="-136" font-family="Helvetica,sans-Serif" font-size="10.00" fill="#000000">sitkImageFilter.h</text>
</a>
</g>
</g>
<!-- Node337&#45;&gt;Node12 -->
<g id="edge4" class="edge">
<title>Node337&#45;&gt;Node12</title>
<path fill="none" stroke="#191970" d="M1046.8779,-183.8692C1060.6725,-172.5576 1078.662,-157.8062 1090.3222,-148.2449"/>
<polygon fill="#191970" stroke="#191970" points="1044.4384,-181.3433 1038.925,-190.3906 1048.877,-186.7562 1044.4384,-181.3433"/>
</g>
<!-- Node8 -->
<g id="node8" class="node">
<title>Node8</title>
<g id="a_node8"><a xlink:href="sitkHashImageFilter_8h.html" target="_top" xlink:title=" ">
<polygon fill="#ffffff" stroke="#000000" points="1002.2062,-62 1002.2062,-81 1124.2062,-81 1124.2062,-62 1002.2062,-62"/>
<text text-anchor="middle" x="1063.2062" y="-69" font-family="Helvetica,sans-Serif" font-size="10.00" fill="#000000">sitkHashImageFilter.h</text>
</a>
</g>
</g>
<!-- Node337&#45;&gt;Node8 -->
<g id="edge14" class="edge">
<title>Node337&#45;&gt;Node8</title>
<path fill="none" stroke="#191970" d="M1030.7803,-180.3364C1033.8121,-164.6655 1038.5621,-142.2386 1044.2062,-123 1048.5524,-108.1857 1055.0065,-91.4975 1059.1603,-81.2394"/>
<polygon fill="#191970" stroke="#191970" points="1027.2943,-179.9367 1028.8882,-190.411 1034.174,-181.2289 1027.2943,-179.9367"/>
</g>
<!-- Node309 -->
<g id="node9" class="node">
<title>Node309</title>
<g id="a_node9"><a xlink:href="sitkCenteredTransformInitializerFilter_8h.html" target="_top" xlink:title=" ">
<polygon fill="#ffffff" stroke="#000000" points="1169.7062,-123.5 1169.7062,-153.5 1342.7062,-153.5 1342.7062,-123.5 1169.7062,-123.5"/>
<text text-anchor="start" x="1177.7062" y="-141.5" font-family="Helvetica,sans-Serif" font-size="10.00" fill="#000000">sitkCenteredTransformInitializer</text>
<text text-anchor="middle" x="1256.2062" y="-130.5" font-family="Helvetica,sans-Serif" font-size="10.00" fill="#000000">Filter.h</text>
</a>
</g>
</g>
<!-- Node337&#45;&gt;Node309 -->
<g id="edge10" class="edge">
<title>Node337&#45;&gt;Node309</title>
<path fill="none" stroke="#191970" d="M1072.8987,-187.7289C1109.523,-177.8931 1161.0764,-164.048 1200.1865,-153.5446"/>
<polygon fill="#191970" stroke="#191970" points="1071.7374,-184.4166 1062.9875,-190.3906 1073.5531,-191.1771 1071.7374,-184.4166"/>
</g>
<!-- Node310 -->
<g id="node10" class="node">
<title>Node310</title>
<g id="a_node10"><a xlink:href="sitkCenteredVersorTransformInitializerFilter_8h.html" target="_top" xlink:title=" ">
<polygon fill="#ffffff" stroke="#000000" points="1361.2062,-123.5 1361.2062,-153.5 1519.2062,-153.5 1519.2062,-123.5 1361.2062,-123.5"/>
<text text-anchor="start" x="1369.2062" y="-141.5" font-family="Helvetica,sans-Serif" font-size="10.00" fill="#000000">sitkCenteredVersorTransform</text>
<text text-anchor="middle" x="1440.2062" y="-130.5" font-family="Helvetica,sans-Serif" font-size="10.00" fill="#000000">InitializerFilter.h</text>
</a>
</g>
</g>
<!-- Node337&#45;&gt;Node310 -->
<g id="edge12" class="edge">
<title>Node337&#45;&gt;Node310</title>
<path fill="none" stroke="#191970" d="M1109.3172,-189.0672C1174.8767,-180.1635 1269.0404,-166.9844 1351.2062,-154 1354.4595,-153.4859 1357.7779,-152.9518 1361.1289,-152.4046"/>
<polygon fill="#191970" stroke="#191970" points="1108.4866,-185.6477 1099.0471,-190.4588 1109.4265,-192.5843 1108.4866,-185.6477"/>
</g>
<!-- Node328 -->
<g id="node11" class="node">
<title>Node328</title>
<g id="a_node11"><a xlink:href="sitkImageFileReader_8h.html" target="_top" xlink:title=" ">
<polygon fill="#ffffff" stroke="#000000" points="243.2062,-62 243.2062,-81 367.2062,-81 367.2062,-62 243.2062,-62"/>
<text text-anchor="middle" x="305.2062" y="-69" font-family="Helvetica,sans-Serif" font-size="10.00" fill="#000000">sitkImageFileReader.h</text>
</a>
</g>
</g>
<!-- Node337&#45;&gt;Node328 -->
<g id="edge15" class="edge">
<title>Node337&#45;&gt;Node328</title>
<path fill="none" stroke="#191970" d="M937.8772,-192.7565C925.2331,-191.7924 912.393,-190.8459 900.2062,-190 833.6906,-185.3829 346.9169,-202.5404 301.2062,-154 282.5276,-134.165 293.7784,-98.3281 300.8211,-81.1681"/>
<polygon fill="#191970" stroke="#191970" points="937.7203,-196.2547 947.9593,-193.532 938.2572,-189.2753 937.7203,-196.2547"/>
</g>
<!-- Node331 -->
<g id="node12" class="node">
<title>Node331</title>
<g id="a_node12"><a xlink:href="sitkImageFileWriter_8h.html" target="_top" xlink:title=" ">
<polygon fill="#ffffff" stroke="#000000" points="536.7062,-129 536.7062,-148 655.7062,-148 655.7062,-129 536.7062,-129"/>
<text text-anchor="middle" x="596.2062" y="-136" font-family="Helvetica,sans-Serif" font-size="10.00" fill="#000000">sitkImageFileWriter.h</text>
</a>
</g>
</g>
<!-- Node337&#45;&gt;Node331 -->
<g id="edge17" class="edge">
<title>Node337&#45;&gt;Node331</title>
<path fill="none" stroke="#191970" d="M937.7423,-191.1349C864.0435,-183.24 756.9582,-170.4071 664.2062,-154 654.6676,-152.3127 644.45,-150.1663 634.9093,-148.0125"/>
<polygon fill="#191970" stroke="#191970" points="937.601,-194.6395 947.9149,-192.216 938.3408,-187.6787 937.601,-194.6395"/>
</g>
<!-- Node329 -->
<g id="node13" class="node">
<title>Node329</title>
<g id="a_node13"><a xlink:href="sitkImageSeriesReader_8h.html" target="_top" xlink:title=" ">
<polygon fill="#ffffff" stroke="#000000" points="576.7062,-62 576.7062,-81 713.7062,-81 713.7062,-62 576.7062,-62"/>
<text text-anchor="middle" x="645.2062" y="-69" font-family="Helvetica,sans-Serif" font-size="10.00" fill="#000000">sitkImageSeriesReader.h</text>
</a>
</g>
</g>
<!-- Node337&#45;&gt;Node329 -->
<g id="edge19" class="edge">
<title>Node337&#45;&gt;Node329</title>
<path fill="none" stroke="#191970" d="M1010.5368,-183.436C991.5532,-165.5898 958.7953,-137.7694 925.2062,-123 857.1115,-93.0581 772.3089,-80.5221 713.9779,-75.2749"/>
<polygon fill="#191970" stroke="#191970" points="1008.1557,-186.0019 1017.7916,-190.4065 1013.0056,-180.9543 1008.1557,-186.0019"/>
</g>
<!-- Node332 -->
<g id="node14" class="node">
<title>Node332</title>
<g id="a_node14"><a xlink:href="sitkImageSeriesWriter_8h.html" target="_top" xlink:title=" ">
<polygon fill="#ffffff" stroke="#000000" points="673.7062,-129 673.7062,-148 806.7062,-148 806.7062,-129 673.7062,-129"/>
<text text-anchor="middle" x="740.2062" y="-136" font-family="Helvetica,sans-Serif" font-size="10.00" fill="#000000">sitkImageSeriesWriter.h</text>
</a>
</g>
</g>
<!-- Node337&#45;&gt;Node332 -->
<g id="edge21" class="edge">
<title>Node337&#45;&gt;Node332</title>
<path fill="none" stroke="#191970" d="M972.8533,-188.3529C918.3965,-176.6836 835.5755,-158.9363 784.8395,-148.0643"/>
<polygon fill="#191970" stroke="#191970" points="972.166,-191.785 982.6774,-190.4581 973.6327,-184.9404 972.166,-191.785"/>
</g>
<!-- Node330 -->
<g id="node15" class="node">
<title>Node330</title>
<g id="a_node15"><a xlink:href="sitkImportImageFilter_8h.html" target="_top" xlink:title=" ">
<polygon fill="#ffffff" stroke="#000000" points="408.2062,-62 408.2062,-81 538.2062,-81 538.2062,-62 408.2062,-62"/>
<text text-anchor="middle" x="473.2062" y="-69" font-family="Helvetica,sans-Serif" font-size="10.00" fill="#000000">sitkImportImageFilter.h</text>
</a>
</g>
</g>
<!-- Node337&#45;&gt;Node330 -->
<g id="edge23" class="edge">
<title>Node337&#45;&gt;Node330</title>
<path fill="none" stroke="#191970" d="M996.0008,-186.3778C955.2038,-169.1044 881.1638,-139.5802 815.2062,-123 707.1893,-95.8471 677.2692,-104.0612 567.2062,-87 555.1112,-85.1251 542.1543,-83.039 529.8443,-81.0205"/>
<polygon fill="#191970" stroke="#191970" points="994.8198,-189.6792 1005.391,-190.3865 997.5682,-183.2413 994.8198,-189.6792"/>
</g>
<!-- Node325 -->
<g id="node16" class="node">
<title>Node325</title>
<g id="a_node16"><a xlink:href="sitkImageRegistrationMethod_8h.html" target="_top" xlink:title=" ">
<polygon fill="#ffffff" stroke="#000000" points="1536.7062,-129 1536.7062,-148 1705.7062,-148 1705.7062,-129 1536.7062,-129"/>
<text text-anchor="middle" x="1621.2062" y="-136" font-family="Helvetica,sans-Serif" font-size="10.00" fill="#000000">sitkImageRegistrationMethod.h</text>
</a>
</g>
</g>
<!-- Node337&#45;&gt;Node325 -->
<g id="edge25" class="edge">
<title>Node337&#45;&gt;Node325</title>
<path fill="none" stroke="#191970" d="M1116.3607,-190.3789C1117.6511,-190.2509 1118.9335,-190.1246 1120.2062,-190 1301.3784,-172.2683 1347.6247,-176.9805 1528.2062,-154 1541.1963,-152.3469 1555.1496,-150.2133 1568.1956,-148.061"/>
<polygon fill="#191970" stroke="#191970" points="1115.9428,-186.9031 1106.3434,-191.3867 1116.6436,-193.868 1115.9428,-186.9031"/>
</g>
<!-- Node11 -->
<g id="node6" class="node">
<title>Node11</title>
<g id="a_node6"><a xlink:href="sitkBSplineTransformInitializerFilter_8h.html" target="_top" xlink:title=" ">
<polygon fill="#ffffff" stroke="#000000" points="1717.2062,-56.5 1717.2062,-86.5 1883.2062,-86.5 1883.2062,-56.5 1717.2062,-56.5"/>
<text text-anchor="start" x="1725.2062" y="-74.5" font-family="Helvetica,sans-Serif" font-size="10.00" fill="#000000">sitkBSplineTransformInitializer</text>
<text text-anchor="middle" x="1800.2062" y="-63.5" font-family="Helvetica,sans-Serif" font-size="10.00" fill="#000000">Filter.h</text>
</a>
</g>
</g>
<!-- Node12&#45;&gt;Node11 -->
<g id="edge5" class="edge">
<title>Node12&#45;&gt;Node11</title>
<path fill="none" stroke="#191970" d="M1143.6663,-126.4506C1149.1938,-125.1299 1154.8138,-123.9296 1160.2062,-123 1358.0732,-88.8886 1594.3424,-77.2835 1717.0148,-73.4008"/>
<polygon fill="#191970" stroke="#191970" points="1142.7218,-123.0792 1133.8861,-128.9256 1144.4391,-129.8653 1142.7218,-123.0792"/>
</g>
<!-- Node5 -->
<g id="node7" class="node">
<title>Node5</title>
<g id="a_node7"><a xlink:href="SimpleITK_8h.html" target="_top" xlink:title=" ">
<polygon fill="#ffffff" stroke="#000000" points="1930.7062,-.5 1930.7062,-19.5 2005.7062,-19.5 2005.7062,-.5 1930.7062,-.5"/>
<text text-anchor="middle" x="1968.2062" y="-7.5" font-family="Helvetica,sans-Serif" font-size="10.00" fill="#000000">SimpleITK.h</text>
</a>
</g>
</g>
<!-- Node12&#45;&gt;Node5 -->
<g id="edge9" class="edge">
<title>Node12&#45;&gt;Node5</title>
<path fill="none" stroke="#191970" d="M1142.3802,-125.994C1203.3154,-107.5537 1323.0469,-73.3805 1427.2062,-56 1614.5548,-24.7381 1842.1475,-14.1904 1930.5611,-11.1162"/>
<polygon fill="#191970" stroke="#191970" points="1141.3101,-122.6611 1132.7629,-128.9219 1143.3488,-129.3577 1141.3101,-122.6611"/>
</g>
<!-- Node12&#45;&gt;Node8 -->
<g id="edge7" class="edge">
<title>Node12&#45;&gt;Node8</title>
<path fill="none" stroke="#191970" d="M1091.5015,-120.1099C1084.1495,-107.4795 1074.6874,-91.2241 1068.7836,-81.0817"/>
<polygon fill="#191970" stroke="#191970" points="1088.5629,-122.0188 1096.6185,-128.9005 1094.6126,-118.4973 1088.5629,-122.0188"/>
</g>
<!-- Node11&#45;&gt;Node5 -->
<g id="edge6" class="edge">
<title>Node11&#45;&gt;Node5</title>
<path fill="none" stroke="#191970" d="M1850.814,-52.9739C1880.9219,-41.9523 1917.866,-28.4281 1942.1722,-19.5303"/>
<polygon fill="#191970" stroke="#191970" points="1849.491,-49.731 1841.3036,-56.4554 1851.8974,-56.3044 1849.491,-49.731"/>
</g>
<!-- Node8&#45;&gt;Node5 -->
<g id="edge8" class="edge">
<title>Node8&#45;&gt;Node5</title>
<path fill="none" stroke="#191970" d="M1134.581,-62.4991C1154.8017,-60.1516 1176.8493,-57.7832 1197.2062,-56 1478.3935,-31.3683 1818.4486,-16.1426 1930.445,-11.5085"/>
<polygon fill="#191970" stroke="#191970" points="1134.0282,-59.0399 1124.5055,-63.6842 1134.846,-65.992 1134.0282,-59.0399"/>
</g>
<!-- Node309&#45;&gt;Node5 -->
<g id="edge11" class="edge">
<title>Node309&#45;&gt;Node5</title>
<path fill="none" stroke="#191970" d="M1311.1582,-120.4422C1370.4851,-101.6194 1468.0725,-72.5982 1554.2062,-56 1691.4347,-29.5557 1857.3974,-16.8231 1930.5131,-12.17"/>
<polygon fill="#191970" stroke="#191970" points="1310.0774,-117.1131 1301.6143,-123.487 1312.205,-123.782 1310.0774,-117.1131"/>
</g>
<!-- Node310&#45;&gt;Node5 -->
<g id="edge13" class="edge">
<title>Node310&#45;&gt;Node5</title>
<path fill="none" stroke="#191970" d="M1479.3159,-119.1248C1519.2879,-100.1434 1583.6364,-71.8294 1642.2062,-56 1744.2859,-28.4114 1869.0762,-16.6743 1930.4439,-12.2859"/>
<polygon fill="#191970" stroke="#191970" points="1477.6935,-116.0211 1470.1879,-123.4988 1480.7185,-122.3337 1477.6935,-116.0211"/>
</g>
<!-- Node328&#45;&gt;Node5 -->
<g id="edge16" class="edge">
<title>Node328&#45;&gt;Node5</title>
<path fill="none" stroke="#191970" d="M365.4209,-60.3425C376.617,-58.6178 388.2403,-57.06 399.2062,-56 710.1248,-25.9448 1722.4182,-12.83 1930.5769,-10.4173"/>
<polygon fill="#191970" stroke="#191970" points="364.6112,-56.9275 355.2899,-61.9639 365.7174,-63.8395 364.6112,-56.9275"/>
</g>
<!-- Node331&#45;&gt;Node5 -->
<g id="edge18" class="edge">
<title>Node331&#45;&gt;Node5</title>
<path fill="none" stroke="#191970" d="M631.8278,-125.313C657.3505,-115.5344 692.3465,-101.4471 722.2062,-87 747.465,-74.779 750.2077,-63.6446 777.2062,-56 890.2563,-23.9898 1740.1881,-12.5707 1930.4825,-10.4019"/>
<polygon fill="#191970" stroke="#191970" points="630.3046,-122.1475 622.1989,-128.9701 632.7901,-128.6914 630.3046,-122.1475"/>
</g>
<!-- Node329&#45;&gt;Node5 -->
<g id="edge20" class="edge">
<title>Node329&#45;&gt;Node5</title>
<path fill="none" stroke="#191970" d="M705.166,-60.3521C716.1248,-58.644 727.4838,-57.0895 738.2062,-56 978.0413,-31.6298 1750.5519,-14.4852 1930.4957,-10.7599"/>
<polygon fill="#191970" stroke="#191970" points="704.5578,-56.9049 695.2441,-61.9551 705.6743,-63.8153 704.5578,-56.9049"/>
</g>
<!-- Node332&#45;&gt;Node5 -->
<g id="edge22" class="edge">
<title>Node332&#45;&gt;Node5</title>
<path fill="none" stroke="#191970" d="M751.7538,-120.3072C765.5458,-100.4117 790.6332,-69.5552 821.2062,-56 873.0159,-33.0291 1738.5711,-14.5574 1930.6503,-10.7293"/>
<polygon fill="#191970" stroke="#191970" points="748.7111,-118.5614 746.074,-128.8229 754.5346,-122.4457 748.7111,-118.5614"/>
</g>
<!-- Node330&#45;&gt;Node5 -->
<g id="edge24" class="edge">
<title>Node330&#45;&gt;Node5</title>
<path fill="none" stroke="#191970" d="M533.424,-60.3741C544.6198,-58.6463 556.2421,-57.0793 567.2062,-56 842.8483,-28.8662 1735.9492,-13.6171 1930.5451,-10.5701"/>
<polygon fill="#191970" stroke="#191970" points="532.6137,-56.9592 523.2932,-61.9968 533.7209,-63.8711 532.6137,-56.9592"/>
</g>
<!-- Node325&#45;&gt;Node5 -->
<g id="edge26" class="edge">
<title>Node325&#45;&gt;Node5</title>
<path fill="none" stroke="#191970" d="M1628.1657,-119.6522C1636.3317,-100.3559 1651.8033,-71.1157 1675.2062,-56 1716.7837,-29.1456 1861.1557,-16.6828 1930.4814,-12.1411"/>
<polygon fill="#191970" stroke="#191970" points="1624.9101,-118.3674 1624.467,-128.9529 1631.4146,-120.9541 1624.9101,-118.3674"/>
</g>
<!-- Node326&#45;&gt;Node12 -->
<g id="edge28" class="edge">
<title>Node326&#45;&gt;Node12</title>
<path fill="none" stroke="#191970" d="M886.4035,-188.2074C937.0723,-176.5365 1013.6788,-158.8912 1060.6832,-148.0643"/>
<polygon fill="#191970" stroke="#191970" points="885.5912,-184.8027 876.632,-190.4581 887.1625,-191.6241 885.5912,-184.8027"/>
</g>
<!-- Node326&#45;&gt;Node5 -->
<g id="edge32" class="edge">
<title>Node326&#45;&gt;Node5</title>
<path fill="none" stroke="#191970" d="M844.9103,-180.7474C853.9739,-164.0861 868.7105,-140.0541 886.2062,-123 926.3853,-83.8351 939.6579,-72.7578 993.2062,-56 1083.7721,-27.6577 1762.3321,-13.6957 1930.557,-10.648"/>
<polygon fill="#191970" stroke="#191970" points="841.5802,-179.5604 840.026,-190.0406 847.7766,-182.817 841.5802,-179.5604"/>
</g>
<!-- Node326&#45;&gt;Node8 -->
<g id="edge31" class="edge">
<title>Node326&#45;&gt;Node8</title>
<path fill="none" stroke="#191970" d="M853.2801,-183.6123C872.5213,-166.7803 904.3857,-140.6201 935.2062,-123 966.9186,-104.87 1006.271,-90.0648 1032.9075,-81.0568"/>
<polygon fill="#191970" stroke="#191970" points="850.7703,-181.16 845.6116,-190.4141 855.4153,-186.3969 850.7703,-181.16"/>
</g>
<!-- Node326&#45;&gt;Node309 -->
<g id="edge29" class="edge">
<title>Node326&#45;&gt;Node309</title>
<path fill="none" stroke="#191970" d="M902.1339,-190.9148C967.8817,-181.8984 1071.025,-167.5095 1160.2062,-154 1163.2943,-153.5322 1166.4373,-153.0511 1169.6113,-152.561"/>
<polygon fill="#191970" stroke="#191970" points="901.3434,-187.4903 891.9108,-192.3148 902.2932,-194.4256 901.3434,-187.4903"/>
</g>
<!-- Node326&#45;&gt;Node310 -->
<g id="edge30" class="edge">
<title>Node326&#45;&gt;Node310</title>
<path fill="none" stroke="#191970" d="M902.1056,-193.4807C914.4414,-192.3033 927.2113,-191.1007 939.2062,-190 1122.246,-173.2034 1168.9435,-177.7901 1351.2062,-154 1354.4721,-153.5737 1357.8012,-153.1131 1361.1609,-152.6265"/>
<polygon fill="#191970" stroke="#191970" points="901.4929,-190.0233 891.8723,-194.4611 902.1605,-196.9914 901.4929,-190.0233"/>
</g>
<!-- Node326&#45;&gt;Node331 -->
<g id="edge37" class="edge">
<title>Node326&#45;&gt;Node331</title>
<path fill="none" stroke="#191970" d="M788.2393,-187.9144C742.8817,-176.2428 675.0993,-158.8009 633.3747,-148.0643"/>
<polygon fill="#191970" stroke="#191970" points="787.5679,-191.3556 798.1247,-190.4581 789.3124,-184.5764 787.5679,-191.3556"/>
</g>
<!-- Node326&#45;&gt;Node332 -->
<g id="edge38" class="edge">
<title>Node326&#45;&gt;Node332</title>
<path fill="none" stroke="#191970" d="M811.705,-184.786C793.9413,-173.2864 770.1042,-157.855 754.9457,-148.0419"/>
<polygon fill="#191970" stroke="#191970" points="810.0659,-187.8943 820.3625,-190.3906 813.87,-182.0182 810.0659,-187.8943"/>
</g>
<!-- Node326&#45;&gt;Node325 -->
<g id="edge43" class="edge">
<title>Node326&#45;&gt;Node325</title>
<path fill="none" stroke="#191970" d="M902.0837,-193.2229C914.4216,-192.0711 927.198,-190.944 939.2062,-190 1200.6658,-169.4458 1267.6155,-183.5982 1528.2062,-154 1541.7053,-152.4668 1556.227,-150.2984 1569.6893,-148.0679"/>
<polygon fill="#191970" stroke="#191970" points="901.4746,-189.7648 891.8494,-194.1927 902.135,-196.7336 901.4746,-189.7648"/>
</g>
<!-- Node327 -->
<g id="node18" class="node">
<title>Node327</title>
<g id="a_node18"><a xlink:href="sitkImageReaderBase_8h.html" target="_top" xlink:title=" ">
<polygon fill="#ffffff" stroke="#000000" points="310.2062,-129 310.2062,-148 442.2062,-148 442.2062,-129 310.2062,-129"/>
<text text-anchor="middle" x="376.2062" y="-136" font-family="Helvetica,sans-Serif" font-size="10.00" fill="#000000">sitkImageReaderBase.h</text>
</a>
</g>
</g>
<!-- Node326&#45;&gt;Node327 -->
<g id="edge33" class="edge">
<title>Node326&#45;&gt;Node327</title>
<path fill="none" stroke="#191970" d="M768.4149,-191.0508C681.1943,-179.3644 529.4165,-159.0282 442.4614,-147.3773"/>
<polygon fill="#191970" stroke="#191970" points="768.0872,-194.5381 778.4634,-192.3972 769.0169,-187.6001 768.0872,-194.5381"/>
</g>
<!-- Node333 -->
<g id="node19" class="node">
<title>Node333</title>
<g id="a_node19"><a xlink:href="sitkImageViewer_8h.html" target="_top" xlink:title=" ">
<polygon fill="#ffffff" stroke="#000000" points="21.7062,-129 21.7062,-148 128.7062,-148 128.7062,-129 21.7062,-129"/>
<text text-anchor="middle" x="75.2062" y="-136" font-family="Helvetica,sans-Serif" font-size="10.00" fill="#000000">sitkImageViewer.h</text>
</a>
</g>
</g>
<!-- Node326&#45;&gt;Node333 -->
<g id="edge39" class="edge">
<title>Node326&#45;&gt;Node333</title>
<path fill="none" stroke="#191970" d="M768.5598,-197.1345C618.4587,-190.4326 257.6435,-172.8672 137.2062,-154 127.889,-152.5404 117.9238,-150.3413 108.7681,-148.0546"/>
<polygon fill="#191970" stroke="#191970" points="768.4217,-200.6317 778.5673,-197.5791 768.7325,-193.6386 768.4217,-200.6317"/>
</g>
<!-- Node334 -->
<g id="node20" class="node">
<title>Node334</title>
<g id="a_node20"><a xlink:href="sitkShow_8h.html" target="_top" xlink:title=" ">
<polygon fill="#ffffff" stroke="#000000" points="146.7062,-129 146.7062,-148 215.7062,-148 215.7062,-129 146.7062,-129"/>
<text text-anchor="middle" x="181.2062" y="-136" font-family="Helvetica,sans-Serif" font-size="10.00" fill="#000000">sitkShow.h</text>
</a>
</g>
</g>
<!-- Node326&#45;&gt;Node334 -->
<g id="edge41" class="edge">
<title>Node326&#45;&gt;Node334</title>
<path fill="none" stroke="#191970" d="M768.4366,-196.6508C662.2061,-190.8577 448.3045,-177.2949 268.2062,-154 250.8608,-151.7565 231.7113,-148.4374 215.8041,-145.4455"/>
<polygon fill="#191970" stroke="#191970" points="768.5114,-200.1598 778.6855,-197.2038 768.8886,-193.17 768.5114,-200.1598"/>
</g>
<!-- Node327&#45;&gt;Node328 -->
<g id="edge34" class="edge">
<title>Node327&#45;&gt;Node328</title>
<path fill="none" stroke="#191970" d="M358.6576,-121.94C345.0382,-109.0879 326.6347,-91.7212 315.3599,-81.0817"/>
<polygon fill="#191970" stroke="#191970" points="356.3585,-124.5828 366.0337,-128.9005 361.1628,-119.4917 356.3585,-124.5828"/>
</g>
<!-- Node327&#45;&gt;Node329 -->
<g id="edge35" class="edge">
<title>Node327&#45;&gt;Node329</title>
<path fill="none" stroke="#191970" d="M424.4715,-126.4785C476.608,-113.4929 558.6365,-93.062 606.6472,-81.1039"/>
<polygon fill="#191970" stroke="#191970" points="423.3193,-123.1585 414.4617,-128.9717 425.0112,-129.951 423.3193,-123.1585"/>
</g>
<!-- Node327&#45;&gt;Node330 -->
<g id="edge36" class="edge">
<title>Node327&#45;&gt;Node330</title>
<path fill="none" stroke="#191970" d="M398.3767,-123.1864C417.1326,-110.2312 443.4268,-92.0693 459.3343,-81.0817"/>
<polygon fill="#191970" stroke="#191970" points="396.3428,-120.3374 390.104,-128.9005 400.3212,-126.097 396.3428,-120.3374"/>
</g>
<!-- Node333&#45;&gt;Node5 -->
<g id="edge40" class="edge">
<title>Node333&#45;&gt;Node5</title>
<path fill="none" stroke="#191970" d="M92.8239,-122.2857C115.7752,-102.3414 158.0855,-69.4746 201.2062,-56 286.5612,-29.3279 1681.7863,-13.0868 1930.4468,-10.3973"/>
<polygon fill="#191970" stroke="#191970" points="90.4298,-119.7309 85.2784,-128.9891 95.0789,-124.964 90.4298,-119.7309"/>
</g>
<!-- Node334&#45;&gt;Node5 -->
<g id="edge42" class="edge">
<title>Node334&#45;&gt;Node5</title>
<path fill="none" stroke="#191970" d="M187.4531,-119.358C195.0459,-99.5621 209.9426,-69.6724 234.2062,-56 272.4536,-34.4479 1680.5067,-13.9819 1930.4641,-10.5147"/>
<polygon fill="#191970" stroke="#191970" points="184.1125,-118.3059 184.0551,-128.9006 190.7069,-120.6541 184.1125,-118.3059"/>
</g>
<!-- Node338&#45;&gt;Node5 -->
<g id="edge45" class="edge">
<title>Node338&#45;&gt;Node5</title>
<path fill="none" stroke="#191970" d="M1854.4967,-241.619C1857.2523,-227.0382 1861.7759,-206.9173 1868.2062,-190 1886.7957,-141.0938 1899.2691,-132.4384 1925.2062,-87 1939.0208,-62.7987 1954.9264,-34.0904 1962.9674,-19.5155"/>
<polygon fill="#191970" stroke="#191970" points="1851.0366,-241.086 1852.7317,-251.5443 1857.9285,-242.3116 1851.0366,-241.086"/>
</g>
<!-- Node340&#45;&gt;Node5 -->
<g id="edge47" class="edge">
<title>Node340&#45;&gt;Node5</title>
<path fill="none" stroke="#191970" d="M4229.475,-415.2257C4231.8402,-392.8706 4235.2062,-355.3707 4235.2062,-323 4235.2062,-323 4235.2062,-323 4235.2062,-138.5 4235.2062,-22.0238 2302.4607,-11.0883 2006.1316,-10.0962"/>
<polygon fill="#191970" stroke="#191970" points="4225.9672,-415.1052 4228.3524,-425.4281 4232.9252,-415.8709 4225.9672,-415.1052"/>
</g>
<!-- Node6&#45;&gt;Node5 -->
<g id="edge52" class="edge">
<title>Node6&#45;&gt;Node5</title>
<path fill="none" stroke="#191970" d="M664.7963,-322.3882C550.1234,-320.3645 260.6339,-311.8529 171.2062,-277 79.5427,-241.2757 -38.0368,-207.5816 12.2062,-123 43.9983,-69.4797 75.0787,-72.1198 135.2062,-56 224.9975,-31.9276 1677.4878,-13.4816 1930.7039,-10.4411"/>
<polygon fill="#191970" stroke="#191970" points="664.9562,-325.8913 675.0135,-322.5594 665.0736,-318.8923 664.9562,-325.8913"/>
</g>
<!-- Node6&#45;&gt;Node8 -->
<g id="edge51" class="edge">
<title>Node6&#45;&gt;Node8</title>
<path fill="none" stroke="#191970" d="M759.5307,-316.2593C807.9702,-308.5294 879.0578,-294.6213 900.2062,-277 932.7606,-249.875 914.7669,-224.6161 939.2062,-190 972.1806,-143.2947 1025.4434,-99.9911 1050.0139,-81.2584"/>
<polygon fill="#191970" stroke="#191970" points="758.9051,-312.8144 749.5641,-317.8141 759.9841,-319.7308 758.9051,-312.8144"/>
</g>
<!-- Node6&#45;&gt;Node328 -->
<g id="edge96" class="edge">
<title>Node6&#45;&gt;Node328</title>
<path fill="none" stroke="#191970" d="M665.0162,-311.5186C563.5301,-285.7489 330.2147,-220.3511 287.2062,-154 272.2951,-130.996 288.7727,-97.5787 298.7384,-81.2358"/>
<polygon fill="#191970" stroke="#191970" points="664.4407,-314.9829 674.9928,-314.0318 666.1508,-308.195 664.4407,-314.9829"/>
</g>
<!-- Node6&#45;&gt;Node331 -->
<g id="edge97" class="edge">
<title>Node6&#45;&gt;Node331</title>
<path fill="none" stroke="#191970" d="M700.6734,-304.6569C676.3698,-266.0016 620.6176,-177.3267 602.2194,-148.0641"/>
<polygon fill="#191970" stroke="#191970" points="697.8472,-306.7374 706.1329,-313.3402 703.7732,-303.0115 697.8472,-306.7374"/>
</g>
<!-- Node6&#45;&gt;Node329 -->
<g id="edge98" class="edge">
<title>Node6&#45;&gt;Node329</title>
<path fill="none" stroke="#191970" d="M685.1264,-308.3887C642.0569,-283.3958 559.5187,-227.8953 527.2062,-154 521.6862,-141.3763 519.6598,-134.5273 527.2062,-123 541.6527,-100.9325 567.852,-88.2667 591.9002,-81.0238"/>
<polygon fill="#191970" stroke="#191970" points="683.5105,-311.496 693.9342,-313.3927 686.9684,-305.4097 683.5105,-311.496"/>
</g>
<!-- Node6&#45;&gt;Node332 -->
<g id="edge99" class="edge">
<title>Node6&#45;&gt;Node332</title>
<path fill="none" stroke="#191970" d="M715.179,-303.4118C721.1405,-264.1295 734.3609,-177.0167 738.7548,-148.0641"/>
<polygon fill="#191970" stroke="#191970" points="711.7123,-302.9283 713.6722,-313.3402 718.6331,-303.9786 711.7123,-302.9283"/>
</g>
<!-- Node6&#45;&gt;Node330 -->
<g id="edge101" class="edge">
<title>Node6&#45;&gt;Node330</title>
<path fill="none" stroke="#191970" d="M665.6052,-310.7091C643.4264,-303.3424 617.4064,-292.3671 597.2062,-277 525.9048,-222.7583 486.9056,-114.6789 476.2426,-81.4509"/>
<polygon fill="#191970" stroke="#191970" points="664.5775,-314.0549 675.1678,-313.7449 666.6957,-307.383 664.5775,-314.0549"/>
</g>
<!-- Node6&#45;&gt;Node325 -->
<g id="edge103" class="edge">
<title>Node6&#45;&gt;Node325</title>
<path fill="none" stroke="#191970" d="M759.4288,-314.4253C804.5533,-305.9467 874.3663,-292.0849 934.2062,-277 1065.5139,-243.8989 1093.6016,-217.4479 1226.2062,-190 1358.5728,-162.6014 1394.3923,-173.1163 1528.2062,-154 1540.6833,-152.2176 1554.0683,-150.1051 1566.6863,-148.0224"/>
<polygon fill="#191970" stroke="#191970" points="758.5377,-311.0311 749.3497,-316.3066 759.8222,-317.9122 758.5377,-311.0311"/>
</g>
<!-- Node6&#45;&gt;Node326 -->
<g id="edge93" class="edge">
<title>Node6&#45;&gt;Node326</title>
<path fill="none" stroke="#191970" d="M723.4326,-304.5107C733.9831,-288.0308 750.8603,-263.8295 769.2062,-246 784.2302,-231.3989 804.3072,-218.1157 818.3577,-209.6187"/>
<polygon fill="#191970" stroke="#191970" points="720.3238,-302.8808 717.9884,-313.215 726.2586,-306.5928 720.3238,-302.8808"/>
</g>
<!-- Node6&#45;&gt;Node333 -->
<g id="edge100" class="edge">
<title>Node6&#45;&gt;Node333</title>
<path fill="none" stroke="#191970" d="M664.7404,-321.0459C545.748,-315.8203 241.4277,-300.3176 202.2062,-277 162.2608,-253.252 176.1814,-223.7223 144.2062,-190 128.0587,-172.9701 105.7652,-157.4586 90.9375,-148.0082"/>
<polygon fill="#191970" stroke="#191970" points="664.8532,-324.554 674.9956,-321.4909 665.1567,-317.5606 664.8532,-324.554"/>
</g>
<!-- Node6&#45;&gt;Node334 -->
<g id="edge102" class="edge">
<title>Node6&#45;&gt;Node334</title>
<path fill="none" stroke="#191970" d="M664.612,-321.3356C549.6858,-316.9139 263.9773,-303.3698 230.2062,-277 188.5929,-244.5067 182.2388,-174.0065 181.3309,-148.2087"/>
<polygon fill="#191970" stroke="#191970" points="664.7382,-324.8428 674.8633,-321.7231 665.0027,-317.8478 664.7382,-324.8428"/>
</g>
<!-- Node7 -->
<g id="node24" class="node">
<title>Node7</title>
<g id="a_node24"><a xlink:href="sitkAdditionalProcedures_8h.html" target="_top" xlink:title=" ">
<polygon fill="#ffffff" stroke="#000000" points="1913.7062,-129 1913.7062,-148 2060.7062,-148 2060.7062,-129 1913.7062,-129"/>
<text text-anchor="middle" x="1987.2062" y="-136" font-family="Helvetica,sans-Serif" font-size="10.00" fill="#000000">sitkAdditionalProcedures.h</text>
</a>
</g>
</g>
<!-- Node6&#45;&gt;Node7 -->
<g id="edge49" class="edge">
<title>Node6&#45;&gt;Node7</title>
<path fill="none" stroke="#191970" d="M759.3864,-321.7508C956.9948,-316.4127 1710.0589,-294.9697 1757.2062,-277 1777.573,-269.2374 1778.1131,-259.5235 1795.2062,-246 1827.2747,-220.6285 1832.954,-210.7214 1868.2062,-190 1898.0931,-172.4324 1935.0857,-157.3641 1959.8196,-148.1455"/>
<polygon fill="#191970" stroke="#191970" points="759.2221,-318.2539 749.3199,-322.0218 759.4105,-325.2513 759.2221,-318.2539"/>
</g>
<!-- Node6&#45;&gt;Node9 -->
<g id="edge53" class="edge">
<title>Node6&#45;&gt;Node9</title>
<path fill="none" stroke="#191970" d="M759.4665,-321.403C1015.3224,-312.7573 2232.4234,-271.63 2485.8931,-263.065"/>
<polygon fill="#191970" stroke="#191970" points="759.2622,-317.9078 749.3861,-321.7436 759.4987,-324.9038 759.2622,-317.9078"/>
</g>
<!-- Node335 -->
<g id="node41" class="node">
<title>Node335</title>
<g id="a_node41"><a xlink:href="sitkImageConvert_8h.html" target="_top" xlink:title=" ">
<polygon fill="#ffffff" stroke="#000000" points="778.7062,-252 778.7062,-271 891.7062,-271 891.7062,-252 778.7062,-252"/>
<text text-anchor="middle" x="835.2062" y="-259" font-family="Helvetica,sans-Serif" font-size="10.00" fill="#000000">sitkImageConvert.h</text>
</a>
</g>
</g>
<!-- Node6&#45;&gt;Node335 -->
<g id="edge94" class="edge">
<title>Node6&#45;&gt;Node335</title>
<path fill="none" stroke="#191970" d="M740.4436,-308.8813C763.6398,-297.2832 795.8661,-281.1701 816.1224,-271.0419"/>
<polygon fill="#191970" stroke="#191970" points="738.804,-305.7879 731.425,-313.3906 741.9345,-312.0489 738.804,-305.7879"/>
</g>
<!-- Node7&#45;&gt;Node5 -->
<g id="edge50" class="edge">
<title>Node7&#45;&gt;Node5</title>
<path fill="none" stroke="#191970" d="M1984.2746,-118.6733C1980.142,-90.7236 1972.7609,-40.8037 1969.6509,-19.7705"/>
<polygon fill="#191970" stroke="#191970" points="1980.853,-119.4611 1985.7781,-128.8416 1987.7777,-118.4372 1980.853,-119.4611"/>
</g>
<!-- Node9&#45;&gt;Node5 -->
<g id="edge62" class="edge">
<title>Node9&#45;&gt;Node5</title>
<path fill="none" stroke="#191970" d="M2527.0812,-242.0287C2522.2139,-226.5144 2513.6194,-204.984 2500.2062,-190 2421.8114,-102.424 2382.9865,-95.2816 2272.2062,-56 2180.1401,-23.3542 2064.3553,-13.8756 2005.808,-11.1244"/>
<polygon fill="#191970" stroke="#191970" points="2523.725,-243.0221 2529.8687,-251.6538 2530.4487,-241.0748 2523.725,-243.0221"/>
</g>
<!-- Node9&#45;&gt;Node325 -->
<g id="edge92" class="edge">
<title>Node9&#45;&gt;Node325</title>
<path fill="none" stroke="#191970" d="M2476.0648,-258.9543C2371.5127,-253.683 2140.0799,-239.5165 1947.2062,-210 1840.9598,-193.7405 1717.5185,-163.5029 1657.5871,-148.0817"/>
<polygon fill="#191970" stroke="#191970" points="2475.92,-262.4513 2486.0812,-259.4515 2476.2671,-255.4599 2475.92,-262.4513"/>
</g>
<!-- Node9&#45;&gt;Node7 -->
<g id="edge61" class="edge">
<title>Node9&#45;&gt;Node7</title>
<path fill="none" stroke="#191970" d="M2476.238,-251.2164C2433.9771,-242.5845 2374.9622,-228.6628 2325.2062,-210 2306.9674,-203.1589 2304.6834,-196.1685 2286.2062,-190 2244.7991,-176.1765 2131.6684,-158.6643 2057.0488,-148.0348"/>
<polygon fill="#191970" stroke="#191970" points="2475.5721,-254.6525 2486.0655,-253.1902 2476.9505,-247.7895 2475.5721,-254.6525"/>
</g>
<!-- Node10 -->
<g id="node26" class="node">
<title>Node10</title>
<g id="a_node26"><a xlink:href="sitkBasicFilters_8h.html" target="_top" xlink:title=" ">
<polygon fill="#ffffff" stroke="#ff0000" points="1534.7062,-190.5 1534.7062,-209.5 1633.7062,-209.5 1633.7062,-190.5 1534.7062,-190.5"/>
<text text-anchor="middle" x="1584.2062" y="-197.5" font-family="Helvetica,sans-Serif" font-size="10.00" fill="#000000">sitkBasicFilters.h</text>
</a>
</g>
</g>
<!-- Node9&#45;&gt;Node10 -->
<g id="edge54" class="edge">
<title>Node9&#45;&gt;Node10</title>
<path fill="none" stroke="#191970" d="M2475.6724,-258.7812C2339.6177,-252.0807 1983.2066,-233.5907 1686.2062,-210 1669.0897,-208.6404 1650.3838,-206.8849 1633.719,-205.2251"/>
<polygon fill="#191970" stroke="#191970" points="2475.6927,-262.2864 2485.8523,-259.2808 2476.0359,-255.2948 2475.6927,-262.2864"/>
</g>
<!-- Node9&#45;&gt;Node311 -->
<g id="edge63" class="edge">
<title>Node9&#45;&gt;Node311</title>
<path fill="none" stroke="#191970" d="M2522.3091,-242.9172C2512.4212,-226.2737 2495.6247,-202.6048 2474.2062,-190 2436.6073,-167.873 2320.788,-152.4699 2246.8122,-144.5871"/>
<polygon fill="#191970" stroke="#191970" points="2519.3455,-244.787 2527.3153,-251.768 2525.4384,-241.3407 2519.3455,-244.787"/>
</g>
<!-- Node9&#45;&gt;Node312 -->
<g id="edge66" class="edge">
<title>Node9&#45;&gt;Node312</title>
<path fill="none" stroke="#191970" d="M2476.1628,-254.3935C2388.858,-243.3228 2220.2751,-221.9458 2122.4631,-209.5429"/>
<polygon fill="#191970" stroke="#191970" points="2475.7805,-257.8729 2486.1413,-255.6588 2476.6611,-250.9285 2475.7805,-257.8729"/>
</g>
<!-- Node9&#45;&gt;Node313 -->
<g id="edge68" class="edge">
<title>Node9&#45;&gt;Node313</title>
<path fill="none" stroke="#191970" d="M2476.0542,-250.537C2416.3385,-238.8782 2322.8358,-220.6229 2266.0632,-209.5387"/>
<polygon fill="#191970" stroke="#191970" points="2475.5798,-254.0104 2486.0652,-252.4915 2476.9212,-247.1401 2475.5798,-254.0104"/>
</g>
<!-- Node9&#45;&gt;Node314 -->
<g id="edge70" class="edge">
<title>Node9&#45;&gt;Node314</title>
<path fill="none" stroke="#191970" d="M2502.234,-247.5357C2477.3168,-235.9265 2442.5216,-219.7151 2420.6864,-209.5419"/>
<polygon fill="#191970" stroke="#191970" points="2501.0386,-250.8399 2511.5812,-251.8906 2503.9949,-244.4948 2501.0386,-250.8399"/>
</g>
<!-- Node9&#45;&gt;Node315 -->
<g id="edge72" class="edge">
<title>Node9&#45;&gt;Node315</title>
<path fill="none" stroke="#191970" d="M2555.4601,-246.286C2573.0368,-234.7864 2596.623,-219.355 2611.6219,-209.5419"/>
<polygon fill="#191970" stroke="#191970" points="2553.3456,-243.4868 2546.8937,-251.8906 2557.1781,-249.3445 2553.3456,-243.4868"/>
</g>
<!-- Node9&#45;&gt;Node316 -->
<g id="edge74" class="edge">
<title>Node9&#45;&gt;Node316</title>
<path fill="none" stroke="#191970" d="M2578.7801,-249.4144C2623.7582,-237.7428 2690.9734,-220.3009 2732.3487,-209.5643"/>
<polygon fill="#191970" stroke="#191970" points="2577.7777,-246.0585 2568.9774,-251.9581 2579.536,-252.8341 2577.7777,-246.0585"/>
</g>
<!-- Node9&#45;&gt;Node317 -->
<g id="edge76" class="edge">
<title>Node9&#45;&gt;Node317</title>
<path fill="none" stroke="#191970" d="M2588.6228,-253.0168C2664.4129,-241.6205 2798.7124,-221.4263 2877.88,-209.5222"/>
<polygon fill="#191970" stroke="#191970" points="2587.697,-249.6166 2578.3287,-254.5647 2588.738,-256.5388 2587.697,-249.6166"/>
</g>
<!-- Node9&#45;&gt;Node318 -->
<g id="edge78" class="edge">
<title>Node9&#45;&gt;Node318</title>
<path fill="none" stroke="#191970" d="M2588.6406,-255.9948C2682.9894,-246.7526 2878.7136,-227.4157 3044.2062,-210 3047.2094,-209.684 3050.2681,-209.3597 3053.3575,-209.0303"/>
<polygon fill="#191970" stroke="#191970" points="2588.0757,-252.5333 2578.4643,-256.991 2588.7578,-259.5 2588.0757,-252.5333"/>
</g>
<!-- Node9&#45;&gt;Node319 -->
<g id="edge80" class="edge">
<title>Node9&#45;&gt;Node319</title>
<path fill="none" stroke="#191970" d="M2588.7444,-258.0977C2707.0116,-250.8048 2989.1276,-232.4877 3225.2062,-210 3228.1989,-209.7149 3231.2489,-209.4134 3234.3289,-209.0996"/>
<polygon fill="#191970" stroke="#191970" points="2588.2562,-254.621 2578.4896,-258.7278 2588.6855,-261.6079 2588.2562,-254.621"/>
</g>
<!-- Node9&#45;&gt;Node320 -->
<g id="edge82" class="edge">
<title>Node9&#45;&gt;Node320</title>
<path fill="none" stroke="#191970" d="M2588.974,-259.2221C2727.2378,-253.4332 3092.393,-236.6969 3396.2062,-210 3399.2009,-209.7368 3402.2526,-209.4538 3405.3341,-209.1555"/>
<polygon fill="#191970" stroke="#191970" points="2588.4807,-255.7395 2578.6349,-259.6522 2588.7718,-262.7334 2588.4807,-255.7395"/>
</g>
<!-- Node9&#45;&gt;Node321 -->
<g id="edge84" class="edge">
<title>Node9&#45;&gt;Node321</title>
<path fill="none" stroke="#191970" d="M2588.7346,-260.0814C2744.7718,-255.8647 3194.6091,-241.6762 3567.2062,-210 3570.3878,-209.7295 3573.6355,-209.4317 3576.9145,-209.1132"/>
<polygon fill="#191970" stroke="#191970" points="2588.3514,-256.5903 2578.4486,-260.3564 2588.5386,-263.5878 2588.3514,-256.5903"/>
</g>
<!-- Node9&#45;&gt;Node322 -->
<g id="edge86" class="edge">
<title>Node9&#45;&gt;Node322</title>
<path fill="none" stroke="#191970" d="M2588.437,-261.0233C2760.179,-259.152 3292.9062,-250.2675 3732.2062,-210 3735.3052,-209.7159 3738.4761,-209.392 3741.6752,-209.0386"/>
<polygon fill="#191970" stroke="#191970" points="2588.3301,-257.5241 2578.3675,-261.1294 2588.4039,-264.5237 2588.3301,-257.5241"/>
</g>
<!-- Node9&#45;&gt;Node323 -->
<g id="edge88" class="edge">
<title>Node9&#45;&gt;Node323</title>
<path fill="none" stroke="#191970" d="M2588.5732,-260.7927C2773.1443,-258.1651 3376.0708,-247.1159 3873.2062,-210 3876.1849,-209.7776 3879.2173,-209.5331 3882.2789,-209.2711"/>
<polygon fill="#191970" stroke="#191970" points="2588.251,-257.2967 2578.3009,-260.9363 2588.3489,-264.2961 2588.251,-257.2967"/>
</g>
<!-- Node9&#45;&gt;Node324 -->
<g id="edge90" class="edge">
<title>Node9&#45;&gt;Node324</title>
<path fill="none" stroke="#191970" d="M2588.6186,-260.251C2827.8194,-254.8527 3759.4205,-232.7689 4052.2062,-210 4055.2089,-209.7665 4058.2707,-209.504 4061.3618,-209.2189"/>
<polygon fill="#191970" stroke="#191970" points="2588.3327,-256.7564 2578.4141,-260.4806 2588.4903,-263.7547 2588.3327,-256.7564"/>
</g>
<!-- Node10&#45;&gt;Node12 -->
<g id="edge57" class="edge">
<title>Node10&#45;&gt;Node12</title>
<path fill="none" stroke="#191970" d="M1524.3698,-196.4053C1441.876,-190.7928 1288.8121,-178.0145 1160.2062,-154 1151.8047,-152.4312 1142.8346,-150.2771 1134.5222,-148.0736"/>
<polygon fill="#191970" stroke="#191970" points="1524.3487,-199.9116 1534.5599,-197.0865 1524.8156,-192.9272 1524.3487,-199.9116"/>
</g>
<!-- Node10&#45;&gt;Node11 -->
<g id="edge56" class="edge">
<title>Node10&#45;&gt;Node11</title>
<path fill="none" stroke="#191970" d="M1644.2702,-193.5552C1696.2544,-186.7135 1766.0169,-174.0754 1785.2062,-154 1802.4071,-136.0048 1803.3214,-105.24 1802.0323,-86.7942"/>
<polygon fill="#191970" stroke="#191970" points="1643.6083,-190.1111 1634.1307,-194.8467 1644.4928,-197.055 1643.6083,-190.1111"/>
</g>
<!-- Node10&#45;&gt;Node8 -->
<g id="edge60" class="edge">
<title>Node10&#45;&gt;Node8</title>
<path fill="none" stroke="#191970" d="M1640.1739,-187.8932C1687.0381,-175.3113 1742.1275,-153.2173 1714.2062,-123 1694.3337,-101.4933 1282.442,-81.1539 1124.2972,-74.1082"/>
<polygon fill="#191970" stroke="#191970" points="1639.1394,-184.5454 1630.3312,-190.4332 1640.8886,-191.3233 1639.1394,-184.5454"/>
</g>
<!-- Node10&#45;&gt;Node309 -->
<g id="edge58" class="edge">
<title>Node10&#45;&gt;Node309</title>
<path fill="none" stroke="#191970" d="M1524.5056,-188.8061C1471.7346,-178.9116 1394.3371,-164.3995 1336.2162,-153.5019"/>
<polygon fill="#191970" stroke="#191970" points="1523.9163,-192.2566 1534.3901,-190.6595 1525.2064,-185.3765 1523.9163,-192.2566"/>
</g>
<!-- Node10&#45;&gt;Node310 -->
<g id="edge59" class="edge">
<title>Node10&#45;&gt;Node310</title>
<path fill="none" stroke="#191970" d="M1552.4711,-186.4465C1529.6873,-176.7159 1498.9748,-163.5991 1475.4326,-153.5446"/>
<polygon fill="#191970" stroke="#191970" points="1551.1351,-189.6817 1561.7062,-190.3906 1553.8845,-183.2442 1551.1351,-189.6817"/>
</g>
<!-- Node10&#45;&gt;Node7 -->
<g id="edge55" class="edge">
<title>Node10&#45;&gt;Node7</title>
<path fill="none" stroke="#191970" d="M1644.2915,-190.8307C1719.6209,-179.335 1848.1262,-159.7244 1924.6136,-148.052"/>
<polygon fill="#191970" stroke="#191970" points="1643.3836,-187.4286 1634.0261,-192.3972 1644.4397,-194.3485 1643.3836,-187.4286"/>
</g>
<!-- Node311&#45;&gt;Node11 -->
<g id="edge64" class="edge">
<title>Node311&#45;&gt;Node11</title>
<path fill="none" stroke="#191970" d="M2117.8482,-127.2121C2053.4043,-115.9091 1953.9481,-98.4652 1883.5146,-86.1117"/>
<polygon fill="#191970" stroke="#191970" points="2117.4263,-130.6914 2127.8806,-128.9717 2118.6356,-123.7967 2117.4263,-130.6914"/>
</g>
<!-- Node311&#45;&gt;Node5 -->
<g id="edge65" class="edge">
<title>Node311&#45;&gt;Node5</title>
<path fill="none" stroke="#191970" d="M2169.3673,-120.7249C2155.1195,-102.1741 2130.5063,-73.4113 2103.2062,-56 2073.1443,-36.8272 2034.1872,-24.6691 2005.8538,-17.7006"/>
<polygon fill="#191970" stroke="#191970" points="2166.7027,-123.0059 2175.4954,-128.9168 2172.3079,-118.8128 2166.7027,-123.0059"/>
</g>
<!-- Node312&#45;&gt;Node5 -->
<g id="edge67" class="edge">
<title>Node312&#45;&gt;Node5</title>
<path fill="none" stroke="#191970" d="M2148.4425,-189.609C2194.2374,-182.6116 2241.2374,-171.3956 2255.2062,-154 2263.8328,-143.2571 2262.1807,-134.8821 2255.2062,-123 2224.285,-70.3213 2191.7258,-79.1667 2135.2062,-56 2092.215,-38.3784 2040.2889,-25.272 2005.8714,-17.6491"/>
<polygon fill="#191970" stroke="#191970" points="2147.7814,-186.1684 2138.3949,-191.082 2148.7968,-193.0944 2147.7814,-186.1684"/>
</g>
<!-- Node313&#45;&gt;Node5 -->
<g id="edge69" class="edge">
<title>Node313&#45;&gt;Node5</title>
<path fill="none" stroke="#191970" d="M2243.9912,-184.871C2254.8704,-177.1693 2266.2599,-166.7251 2272.2062,-154 2278.039,-141.5178 2277.9961,-135.5022 2272.2062,-123 2252.8595,-81.2243 2234.6103,-76.1297 2193.2062,-56 2131.8902,-26.1896 2052.0975,-15.6796 2005.87,-11.9868"/>
<polygon fill="#191970" stroke="#191970" points="2241.9292,-182.0378 2235.4895,-190.4509 2245.7702,-187.8899 2241.9292,-182.0378"/>
</g>
<!-- Node314&#45;&gt;Node5 -->
<g id="edge71" class="edge">
<title>Node314&#45;&gt;Node5</title>
<path fill="none" stroke="#191970" d="M2385.9065,-182.4771C2359.4952,-151.4239 2299.7437,-87.0858 2234.2062,-56 2194.3498,-37.0953 2069.273,-21.1197 2005.8617,-13.9879"/>
<polygon fill="#191970" stroke="#191970" points="2383.3479,-184.8734 2392.4489,-190.2978 2388.717,-180.3819 2383.3479,-184.8734"/>
</g>
<!-- Node315&#45;&gt;Node5 -->
<g id="edge73" class="edge">
<title>Node315&#45;&gt;Node5</title>
<path fill="none" stroke="#191970" d="M2621.7009,-180.5385C2613.1299,-148.4019 2591.1758,-84.923 2546.2062,-56 2500.9105,-26.8673 2127.4421,-14.2964 2006.1169,-10.9558"/>
<polygon fill="#191970" stroke="#191970" points="2618.3682,-181.6387 2624.1902,-190.4905 2625.159,-179.94 2618.3682,-181.6387"/>
</g>
<!-- Node316&#45;&gt;Node5 -->
<g id="edge75" class="edge">
<title>Node316&#45;&gt;Node5</title>
<path fill="none" stroke="#191970" d="M2753.0749,-182.7056C2722.2472,-150.9719 2651.3202,-84.1242 2576.2062,-56 2522.9206,-36.0488 2130.2929,-17.1639 2005.8962,-11.6265"/>
<polygon fill="#191970" stroke="#191970" points="2750.9129,-185.5091 2760.353,-190.319 2755.9728,-180.672 2750.9129,-185.5091"/>
</g>
<!-- Node317&#45;&gt;Node5 -->
<g id="edge77" class="edge">
<title>Node317&#45;&gt;Node5</title>
<path fill="none" stroke="#191970" d="M2916.3142,-185.1356C2863.7705,-154.6103 2736.7633,-85.2734 2620.2062,-56 2502.5819,-26.4586 2126.8328,-14.1797 2006.0101,-10.9313"/>
<polygon fill="#191970" stroke="#191970" points="2914.842,-188.3296 2925.2394,-190.3653 2918.3809,-182.29 2914.842,-188.3296"/>
</g>
<!-- Node318&#45;&gt;Node5 -->
<g id="edge79" class="edge">
<title>Node318&#45;&gt;Node5</title>
<path fill="none" stroke="#191970" d="M3102.364,-186.5583C3028.4469,-156.9883 2842.7558,-86.5059 2680.2062,-56 2548.8755,-31.353 2133.1987,-15.5774 2005.7344,-11.226"/>
<polygon fill="#191970" stroke="#191970" points="3101.4544,-189.965 3112.0381,-190.4508 3104.0674,-183.4709 3101.4544,-189.965"/>
</g>
<!-- Node319&#45;&gt;Node5 -->
<g id="edge81" class="edge">
<title>Node319&#45;&gt;Node5</title>
<path fill="none" stroke="#191970" d="M3273.198,-187.3241C3184.3067,-158.2951 2955.4191,-87.1085 2758.2062,-56 2610.4551,-32.6937 2142.4918,-15.7546 2005.9497,-11.213"/>
<polygon fill="#191970" stroke="#191970" points="3272.2491,-190.6963 3282.8419,-190.4879 3274.4311,-184.0451 3272.2491,-190.6963"/>
</g>
<!-- Node320&#45;&gt;Node5 -->
<g id="edge83" class="edge">
<title>Node320&#45;&gt;Node5</title>
<path fill="none" stroke="#191970" d="M3439.7846,-187.6854C3338.6151,-158.905 3074.7731,-87.3098 2849.2062,-56 2682.4252,-32.85 2152.2345,-15.5329 2005.9217,-11.1065"/>
<polygon fill="#191970" stroke="#191970" points="3439.0476,-191.1148 3449.6244,-190.4957 3440.9701,-184.3839 3439.0476,-191.1148"/>
</g>
<!-- Node321&#45;&gt;Node5 -->
<g id="edge85" class="edge">
<title>Node321&#45;&gt;Node5</title>
<path fill="none" stroke="#191970" d="M3604.2834,-187.932C3493.1255,-159.2952 3200.3648,-87.2989 2951.2062,-56 2763.1514,-32.3768 2162.6728,-15.1483 2005.9259,-10.9749"/>
<polygon fill="#191970" stroke="#191970" points="3603.5983,-191.37 3614.1561,-190.4847 3605.3506,-184.5928 3603.5983,-191.37"/>
</g>
<!-- Node322&#45;&gt;Node5 -->
<g id="edge87" class="edge">
<title>Node322&#45;&gt;Node5</title>
<path fill="none" stroke="#191970" d="M3745.6325,-188.5149C3669.5605,-173.3666 3531.3754,-145.9434 3413.2062,-123 3257.301,-92.7298 3219.968,-74.2739 3062.2062,-56 2850.9462,-31.5292 2173.2534,-14.6943 2005.8593,-10.8411"/>
<polygon fill="#191970" stroke="#191970" points="3745.0048,-191.9585 3755.4958,-190.4795 3746.3722,-185.0934 3745.0048,-191.9585"/>
</g>
<!-- Node323&#45;&gt;Node5 -->
<g id="edge89" class="edge">
<title>Node323&#45;&gt;Node5</title>
<path fill="none" stroke="#191970" d="M3912.0832,-188.1324C3786.4706,-159.5429 3452.315,-86.9376 3169.2062,-56 2935.5938,-30.4712 2183.2778,-14.2542 2005.9162,-10.7266"/>
<polygon fill="#191970" stroke="#191970" points="3911.6485,-191.6232 3922.1768,-190.4373 3913.2069,-184.7989 3911.6485,-191.6232"/>
</g>
<!-- Node324&#45;&gt;Node5 -->
<g id="edge91" class="edge">
<title>Node324&#45;&gt;Node5</title>
<path fill="none" stroke="#191970" d="M4070.119,-188.7506C3983.9871,-173.6569 3826.0976,-146.0768 3691.2062,-123 3514.3971,-92.752 3471.6746,-74.0401 3293.2062,-56 3033.5703,-29.7553 2194.3609,-13.9139 2005.9779,-10.6365"/>
<polygon fill="#191970" stroke="#191970" points="4069.5524,-192.2046 4080.0066,-190.4837 4070.761,-185.3097 4069.5524,-192.2046"/>
</g>
<!-- Node335&#45;&gt;Node326 -->
<g id="edge95" class="edge">
<title>Node335&#45;&gt;Node326</title>
<path fill="none" stroke="#191970" d="M835.2062,-241.7462C835.2062,-231.0519 835.2062,-218.314 835.2062,-209.7449"/>
<polygon fill="#191970" stroke="#191970" points="831.7063,-241.8906 835.2062,-251.8906 838.7063,-241.8907 831.7063,-241.8906"/>
</g>
<!-- Node341&#45;&gt;Node326 -->
<g id="edge106" class="edge">
<title>Node341&#45;&gt;Node326</title>
<path fill="none" stroke="#191970" d="M1046.4121,-359.6762C1035.3143,-330.8403 1010.6087,-276.6661 972.2062,-246 949.0716,-227.5259 918.1567,-216.3093 891.5493,-209.5848"/>
<polygon fill="#191970" stroke="#191970" points="1043.2505,-361.2181 1049.9994,-369.3853 1049.8167,-358.792 1043.2505,-361.2181"/>
</g>
<!-- Node341&#45;&gt;Node6 -->
<g id="edge105" class="edge">
<title>Node341&#45;&gt;Node6</title>
<path fill="none" stroke="#191970" d="M984.8123,-367.7681C914.0415,-356.146 806.114,-338.4218 749.6319,-329.1461"/>
<polygon fill="#191970" stroke="#191970" points="984.5387,-371.27 994.9737,-369.4369 985.6731,-364.3625 984.5387,-371.27"/>
</g>
<!-- Node342 -->
<g id="node43" class="node">
<title>Node342</title>
<g id="a_node43"><a xlink:href="sitkPimpleImageBase_8h.html" target="_top" xlink:title=" ">
<polygon fill="#ffffff" stroke="#000000" points="1080.2062,-313.5 1080.2062,-332.5 1212.2062,-332.5 1212.2062,-313.5 1080.2062,-313.5"/>
<text text-anchor="middle" x="1146.2062" y="-320.5" font-family="Helvetica,sans-Serif" font-size="10.00" fill="#000000">sitkPimpleImageBase.h</text>
</a>
</g>
</g>
<!-- Node341&#45;&gt;Node342 -->
<g id="edge107" class="edge">
<title>Node341&#45;&gt;Node342</title>
<path fill="none" stroke="#191970" d="M1078.0397,-364.0465C1094.5873,-354.0824 1115.8494,-341.2794 1130.1925,-332.6427"/>
<polygon fill="#191970" stroke="#191970" points="1076.1669,-361.0886 1069.4056,-369.2455 1079.7779,-367.0854 1076.1669,-361.0886"/>
</g>
<!-- Node343&#45;&gt;Node9 -->
<g id="edge110" class="edge">
<title>Node343&#45;&gt;Node9</title>
<path fill="none" stroke="#191970" d="M1485.5331,-423.9309C1696.3046,-391.2218 2312.382,-295.614 2486.1159,-268.6527"/>
<polygon fill="#191970" stroke="#191970" points="1484.8524,-420.4946 1475.5074,-425.4868 1485.9259,-427.4118 1484.8524,-420.4946"/>
</g>
<!-- Node343&#45;&gt;Node341 -->
<g id="edge109" class="edge">
<title>Node343&#45;&gt;Node341</title>
<path fill="none" stroke="#191970" d="M1342.5559,-423.8853C1275.9275,-413.5496 1177.7159,-398.3145 1114.5999,-388.5237"/>
<polygon fill="#191970" stroke="#191970" points="1342.1399,-427.3625 1352.5583,-425.4369 1343.213,-420.4453 1342.1399,-427.3625"/>
</g>
<!-- Node344&#45;&gt;Node337 -->
<g id="edge116" class="edge">
<title>Node344&#45;&gt;Node337</title>
<path fill="none" stroke="#191970" d="M1249.1645,-416.6339C1256.8476,-403.4591 1264.1962,-385.2404 1259.2062,-369 1250.3722,-340.2485 1243.1932,-333.5247 1221.2062,-313 1168.2103,-263.5286 1089.8128,-226.2934 1050.9016,-209.6293"/>
<polygon fill="#191970" stroke="#191970" points="1246.1056,-414.9213 1243.6826,-425.2353 1252.0087,-418.6835 1246.1056,-414.9213"/>
</g>
<!-- Node344&#45;&gt;Node327 -->
<g id="edge117" class="edge">
<title>Node344&#45;&gt;Node327</title>
<path fill="none" stroke="#191970" d="M1170.9454,-432.0587C928.3188,-420.6995 92.2062,-377.5939 92.2062,-323 92.2062,-323 92.2062,-323 92.2062,-261.5 92.2062,-209.9181 251.9562,-166.5215 331.8312,-148.0471"/>
<polygon fill="#191970" stroke="#191970" points="1170.8766,-435.5592 1181.0287,-432.5285 1171.2025,-428.5668 1170.8766,-435.5592"/>
</g>
<!-- Node345 -->
<g id="node46" class="node">
<title>Node345</title>
<g id="a_node46"><a xlink:href="sitkPixelIDTokens_8h.html" target="_top" xlink:title=" ">
<polygon fill="#ffffff" stroke="#ff0000" points="1138.2062,-369.5 1138.2062,-388.5 1250.2062,-388.5 1250.2062,-369.5 1138.2062,-369.5"/>
<text text-anchor="middle" x="1194.2062" y="-376.5" font-family="Helvetica,sans-Serif" font-size="10.00" fill="#000000">sitkPixelIDTokens.h</text>
</a>
</g>
</g>
<!-- Node344&#45;&gt;Node345 -->
<g id="edge112" class="edge">
<title>Node344&#45;&gt;Node345</title>
<path fill="none" stroke="#191970" d="M1222.8646,-417.2112C1215.7666,-407.7472 1207.316,-396.4797 1201.4382,-388.6427"/>
<polygon fill="#191970" stroke="#191970" points="1220.0903,-419.3455 1228.8904,-425.2455 1225.6903,-415.1455 1220.0903,-419.3455"/>
</g>
<!-- Node345&#45;&gt;Node325 -->
<g id="edge115" class="edge">
<title>Node345&#45;&gt;Node325</title>
<path fill="none" stroke="#191970" d="M1208.5877,-361.5322C1232.3431,-333.6633 1282.4264,-278.9341 1335.2062,-246 1415.9848,-195.5949 1524.0937,-163.0236 1581.4922,-148.0582"/>
<polygon fill="#191970" stroke="#191970" points="1205.8429,-359.3582 1202.0868,-369.2649 1211.201,-363.8628 1205.8429,-359.3582"/>
</g>
<!-- Node345&#45;&gt;Node6 -->
<g id="edge113" class="edge">
<title>Node345&#45;&gt;Node6</title>
<path fill="none" stroke="#191970" d="M1127.8205,-368.8603C981.8481,-349.7777 820.6708,-333.5092 749.368,-326.5607"/>
<polygon fill="#191970" stroke="#191970" points="1127.4862,-372.3464 1137.8571,-370.18 1128.3988,-365.4061 1127.4862,-372.3464"/>
</g>
<!-- Node345&#45;&gt;Node342 -->
<g id="edge114" class="edge">
<title>Node345&#45;&gt;Node342</title>
<path fill="none" stroke="#191970" d="M1179.2065,-361.5004C1171.0441,-351.9775 1161.2573,-340.5596 1154.4714,-332.6427"/>
<polygon fill="#191970" stroke="#191970" points="1176.6799,-363.9307 1185.8453,-369.2455 1181.9947,-359.3752 1176.6799,-363.9307"/>
</g>
<!-- Node346&#45;&gt;Node5 -->
<g id="edge125" class="edge">
<title>Node346&#45;&gt;Node5</title>
<path fill="none" stroke="#191970" d="M1942.0229,-246.0519C1922.0618,-231.3781 1899.2533,-208.8239 1914.2062,-190 1958.1955,-134.6229 2025.2169,-209.3771 2069.2062,-154 2107.8581,-105.3421 2021.2375,-43.049 1984.084,-19.5454"/>
<polygon fill="#191970" stroke="#191970" points="1940.0829,-248.9661 1950.2849,-251.8244 1944.092,-243.2279 1940.0829,-248.9661"/>
</g>
<!-- Node346&#45;&gt;Node325 -->
<g id="edge126" class="edge">
<title>Node346&#45;&gt;Node325</title>
<path fill="none" stroke="#191970" d="M1921.9572,-249.3884C1916.9969,-248.1759 1912.0041,-247.0186 1907.2062,-246 1809.8589,-225.3334 1773.6723,-257.4688 1686.2062,-210 1658.634,-195.0363 1636.6601,-163.7823 1626.8178,-148.0216"/>
<polygon fill="#191970" stroke="#191970" points="1921.4677,-252.8746 1932.0202,-251.9281 1923.1807,-246.0874 1921.4677,-252.8746"/>
</g>
<!-- Node346&#45;&gt;Node7 -->
<g id="edge123" class="edge">
<title>Node346&#45;&gt;Node7</title>
<path fill="none" stroke="#191970" d="M1925.7854,-248.4062C1894.7874,-236.0465 1859.857,-215.6086 1876.2062,-190 1890.21,-168.0652 1916.2282,-155.3303 1939.5561,-148.0134"/>
<polygon fill="#191970" stroke="#191970" points="1924.6267,-251.71 1935.2181,-251.9795 1927.1065,-245.1639 1924.6267,-251.71"/>
</g>
<!-- Node346&#45;&gt;Node10 -->
<g id="edge122" class="edge">
<title>Node346&#45;&gt;Node10</title>
<path fill="none" stroke="#191970" d="M1922.7641,-249.4642C1917.5428,-248.2024 1912.2688,-247.0131 1907.2062,-246 1793.2479,-223.1949 1763.1781,-226.9713 1648.2062,-210 1643.5336,-209.3103 1638.6715,-208.5777 1633.8079,-207.8349"/>
<polygon fill="#191970" stroke="#191970" points="1922.1191,-252.9108 1932.6705,-251.9524 1923.8244,-246.1217 1922.1191,-252.9108"/>
</g>
<!-- Node346&#45;&gt;Node312 -->
<g id="edge124" class="edge">
<title>Node346&#45;&gt;Node312</title>
<path fill="none" stroke="#191970" d="M1987.083,-245.6491C2002.1334,-234.222 2021.9514,-219.1749 2034.6388,-209.5419"/>
<polygon fill="#191970" stroke="#191970" points="1984.7105,-243.0559 1978.8625,-251.8906 1988.9434,-248.6311 1984.7105,-243.0559"/>
</g>
<!-- Node347&#45;&gt;Node5 -->
<g id="edge140" class="edge">
<title>Node347&#45;&gt;Node5</title>
<path fill="none" stroke="#191970" d="M1533.6758,-243.2907C1523.0673,-227.6548 1512.5585,-205.2841 1525.2062,-190 1579.7215,-124.1207 1659.6909,-219.8793 1714.2062,-154 1742.0262,-120.3808 1680.1665,-89.4361 1708.2062,-56 1736.1518,-22.6762 1865.5126,-13.4802 1930.5953,-10.9523"/>
<polygon fill="#191970" stroke="#191970" points="1531.0327,-245.6059 1539.7592,-251.6141 1536.6842,-241.4753 1531.0327,-245.6059"/>
</g>
<!-- Node347&#45;&gt;Node326 -->
<g id="edge141" class="edge">
<title>Node347&#45;&gt;Node326</title>
<path fill="none" stroke="#191970" d="M1514.4892,-248.8064C1510.7214,-247.7122 1506.9078,-246.7416 1503.2062,-246 1256.9236,-196.6578 1189.5837,-230.0229 939.2062,-210 923.8373,-208.7709 907.2088,-207.2556 891.8516,-205.7796"/>
<polygon fill="#191970" stroke="#191970" points="1513.6565,-252.2145 1524.2472,-251.9192 1515.784,-245.5456 1513.6565,-252.2145"/>
</g>
<!-- Node348&#45;&gt;Node5 -->
<g id="edge144" class="edge">
<title>Node348&#45;&gt;Node5</title>
<path fill="none" stroke="#191970" d="M1713.3585,-245.3924C1749.1626,-215.1121 1828.3891,-147.3115 1892.2062,-87 1917.0514,-63.5196 1944.9827,-34.5071 1959.0545,-19.6962"/>
<polygon fill="#191970" stroke="#191970" points="1710.9992,-242.8037 1705.6149,-251.9284 1715.5142,-248.1529 1710.9992,-242.8037"/>
</g>
<!-- Node348&#45;&gt;Node325 -->
<g id="edge145" class="edge">
<title>Node348&#45;&gt;Node325</title>
<path fill="none" stroke="#191970" d="M1630.0735,-250.1255C1587.8381,-241.1797 1538.0509,-227.3421 1525.2062,-210 1504.4266,-181.9447 1552.264,-159.9195 1587.6076,-148.0923"/>
<polygon fill="#191970" stroke="#191970" points="1629.5625,-253.5937 1640.0628,-252.182 1630.974,-246.7374 1629.5625,-253.5937"/>
</g>
<!-- Node348&#45;&gt;Node10 -->
<g id="edge143" class="edge">
<title>Node348&#45;&gt;Node10</title>
<path fill="none" stroke="#191970" d="M1668.1192,-246.915C1647.442,-235.3546 1619.1469,-219.535 1601.273,-209.5419"/>
<polygon fill="#191970" stroke="#191970" points="1666.5823,-250.0655 1677.0187,-251.8906 1669.9983,-243.9556 1666.5823,-250.0655"/>
</g>
<!-- Node349&#45;&gt;Node10 -->
<g id="edge149" class="edge">
<title>Node349&#45;&gt;Node10</title>
<path fill="none" stroke="#191970" d="M1575.716,-359.7515C1583.6897,-334.0051 1595.7324,-286.8559 1592.2062,-246 1591.1189,-233.4015 1588.386,-219.0759 1586.4169,-209.8064"/>
<polygon fill="#191970" stroke="#191970" points="1572.3444,-358.8029 1572.605,-369.3945 1579.0063,-360.9521 1572.3444,-358.8029"/>
</g>
</g>
</svg>
