<?xml version="1.0" encoding="UTF-8" standalone="no"?>
<!DOCTYPE svg PUBLIC "-//W3C//DTD SVG 1.1//EN"
 "http://www.w3.org/Graphics/SVG/1.1/DTD/svg11.dtd">
<!-- Generated by graphviz version 2.40.1 (20161225.0304)
 -->
<!-- Title: sitkImageReaderBase.h Pages: 1 -->
<svg width="436pt" height="140pt"
 viewBox="0.00 0.00 436.00 140.00" xmlns="http://www.w3.org/2000/svg" xmlns:xlink="http://www.w3.org/1999/xlink">
<g id="graph0" class="graph" transform="scale(1 1) rotate(0) translate(4 136)">
<title>sitkImageReaderBase.h</title>
<polygon fill="#ffffff" stroke="transparent" points="-4,4 -4,-136 432,-136 432,4 -4,4"/>
<!-- Node1 -->
<g id="node1" class="node">
<title>Node1</title>
<g id="a_node1"><a xlink:title=" ">
<polygon fill="#bfbfbf" stroke="#000000" points="145,-112.5 145,-131.5 277,-131.5 277,-112.5 145,-112.5"/>
<text text-anchor="middle" x="211" y="-119.5" font-family="Helvetica,sans-Serif" font-size="10.00" fill="#000000">sitkImageReaderBase.h</text>
</a>
</g>
</g>
<!-- Node2 -->
<g id="node2" class="node">
<title>Node2</title>
<g id="a_node2"><a xlink:href="sitkImageFileReader_8h.html" target="_top" xlink:title=" ">
<polygon fill="#ffffff" stroke="#000000" points="0,-56.5 0,-75.5 124,-75.5 124,-56.5 0,-56.5"/>
<text text-anchor="middle" x="62" y="-63.5" font-family="Helvetica,sans-Serif" font-size="10.00" fill="#000000">sitkImageFileReader.h</text>
</a>
</g>
</g>
<!-- Node1&#45;&gt;Node2 -->
<g id="edge1" class="edge">
<title>Node1&#45;&gt;Node2</title>
<path fill="none" stroke="#191970" d="M175.8488,-108.7888C148.6432,-98.5639 111.6191,-84.6488 87.2798,-75.5011"/>
<polygon fill="#191970" stroke="#191970" points="174.7939,-112.1313 185.386,-112.3733 177.2566,-105.5788 174.7939,-112.1313"/>
</g>
<!-- Node4 -->
<g id="node4" class="node">
<title>Node4</title>
<g id="a_node4"><a xlink:href="sitkImageSeriesReader_8h.html" target="_top" xlink:title=" ">
<polygon fill="#ffffff" stroke="#000000" points="142.5,-56.5 142.5,-75.5 279.5,-75.5 279.5,-56.5 142.5,-56.5"/>
<text text-anchor="middle" x="211" y="-63.5" font-family="Helvetica,sans-Serif" font-size="10.00" fill="#000000">sitkImageSeriesReader.h</text>
</a>
</g>
</g>
<!-- Node1&#45;&gt;Node4 -->
<g id="edge3" class="edge">
<title>Node1&#45;&gt;Node4</title>
<path fill="none" stroke="#191970" d="M211,-102.1575C211,-93.155 211,-82.9199 211,-75.6427"/>
<polygon fill="#191970" stroke="#191970" points="207.5001,-102.2455 211,-112.2455 214.5001,-102.2456 207.5001,-102.2455"/>
</g>
<!-- Node5 -->
<g id="node5" class="node">
<title>Node5</title>
<g id="a_node5"><a xlink:href="sitkImportImageFilter_8h.html" target="_top" xlink:title=" ">
<polygon fill="#ffffff" stroke="#000000" points="298,-56.5 298,-75.5 428,-75.5 428,-56.5 298,-56.5"/>
<text text-anchor="middle" x="363" y="-63.5" font-family="Helvetica,sans-Serif" font-size="10.00" fill="#000000">sitkImportImageFilter.h</text>
</a>
</g>
</g>
<!-- Node1&#45;&gt;Node5 -->
<g id="edge5" class="edge">
<title>Node1&#45;&gt;Node5</title>
<path fill="none" stroke="#191970" d="M246.859,-108.7888C274.6123,-98.5639 312.3819,-84.6488 337.2112,-75.5011"/>
<polygon fill="#191970" stroke="#191970" points="245.3032,-105.6319 237.1297,-112.3733 247.7232,-112.2003 245.3032,-105.6319"/>
</g>
<!-- Node3 -->
<g id="node3" class="node">
<title>Node3</title>
<g id="a_node3"><a xlink:href="SimpleITK_8h.html" target="_top" xlink:title=" ">
<polygon fill="#ffffff" stroke="#000000" points="173.5,-.5 173.5,-19.5 248.5,-19.5 248.5,-.5 173.5,-.5"/>
<text text-anchor="middle" x="211" y="-7.5" font-family="Helvetica,sans-Serif" font-size="10.00" fill="#000000">SimpleITK.h</text>
</a>
</g>
</g>
<!-- Node2&#45;&gt;Node3 -->
<g id="edge2" class="edge">
<title>Node2&#45;&gt;Node3</title>
<path fill="none" stroke="#191970" d="M97.1512,-52.7888C124.3568,-42.5639 161.3809,-28.6488 185.7202,-19.5011"/>
<polygon fill="#191970" stroke="#191970" points="95.7434,-49.5788 87.614,-56.3733 98.2061,-56.1313 95.7434,-49.5788"/>
</g>
<!-- Node4&#45;&gt;Node3 -->
<g id="edge4" class="edge">
<title>Node4&#45;&gt;Node3</title>
<path fill="none" stroke="#191970" d="M211,-46.1575C211,-37.155 211,-26.9199 211,-19.6427"/>
<polygon fill="#191970" stroke="#191970" points="207.5001,-46.2455 211,-56.2455 214.5001,-46.2456 207.5001,-46.2455"/>
</g>
<!-- Node5&#45;&gt;Node3 -->
<g id="edge6" class="edge">
<title>Node5&#45;&gt;Node3</title>
<path fill="none" stroke="#191970" d="M327.141,-52.7888C299.3877,-42.5639 261.6181,-28.6488 236.7888,-19.5011"/>
<polygon fill="#191970" stroke="#191970" points="326.2768,-56.2003 336.8703,-56.3733 328.6968,-49.6319 326.2768,-56.2003"/>
</g>
</g>
</svg>
