<?xml version="1.0" encoding="UTF-8" standalone="no"?>
<!DOCTYPE svg PUBLIC "-//W3C//DTD SVG 1.1//EN"
 "http://www.w3.org/Graphics/SVG/1.1/DTD/svg11.dtd">
<!-- Generated by graphviz version 2.40.1 (20161225.0304)
 -->
<!-- Title: sitkProcessObject.h Pages: 1 -->
<!--zoomable 487 -->
<svg id="main" version="1.1" xmlns="http://www.w3.org/2000/svg" xmlns:xlink="http://www.w3.org/1999/xlink" xml:space="preserve" onload="init(evt)">
<style type="text/css"><![CDATA[
.edge:hover path { stroke: red; }
.edge:hover polygon { stroke: red; fill: red; }
]]></style>
<script type="text/javascript"><![CDATA[
var edges = document.getElementsByTagName('g');
if (edges && edges.length) {
  for (var i=0;i<edges.length;i++) {
    if (edges[i].id.substr(0,4)=='edge') {
      edges[i].setAttribute('class','edge');
    }
  }
}
]]></script>
        <defs>
                <circle id="rim" cx="0" cy="0" r="7"/>
                <circle id="rim2" cx="0" cy="0" r="3.5"/>
                <g id="zoomPlus">
                        <use xlink:href="#rim" fill="#404040">
                                <set attributeName="fill" to="#808080" begin="zoomplus.mouseover" end="zoomplus.mouseout"/>
                        </use>
                        <path d="M-4,0h8M0,-4v8" fill="none" stroke="white" stroke-width="1.5" pointer-events="none"/>
                </g>
                <g id="zoomMin">
                        <use xlink:href="#rim" fill="#404040">
                                <set attributeName="fill" to="#808080" begin="zoomminus.mouseover" end="zoomminus.mouseout"/>
                        </use>
                        <path d="M-4,0h8" fill="none" stroke="white" stroke-width="1.5" pointer-events="none"/>
                </g>
                <g id="dirArrow">
                        <path fill="none" stroke="white" stroke-width="1.5" d="M0,-3.0v7 M-2.5,-0.5L0,-3.0L2.5,-0.5"/>
                </g>
               <g id="resetDef">
                       <use xlink:href="#rim2" fill="#404040">
                               <set attributeName="fill" to="#808080" begin="reset.mouseover" end="reset.mouseout"/>
                       </use>
               </g>
        </defs>

<script type="text/javascript">
var viewWidth = 1472;
var viewHeight = 487;
var sectionId = 'dynsection-0';
</script>
<script xlink:href="svgpan.js"/>
<svg id="graph" class="graph">
<g id="viewport">
<title>sitkProcessObject.h</title>
<polygon fill="#ffffff" stroke="transparent" points="-4,4 -4,-483 1468.2603,-483 1468.2603,4 -4,4"/>
<!-- Node1 -->
<g id="node1" class="node">
<title>Node1</title>
<g id="a_node1"><a xlink:title=" ">
<polygon fill="#bfbfbf" stroke="#000000" points="598.7603,-459.5 598.7603,-478.5 711.7603,-478.5 711.7603,-459.5 598.7603,-459.5"/>
<text text-anchor="middle" x="655.2603" y="-466.5" font-family="Helvetica,sans-Serif" font-size="10.00" fill="#000000">sitkProcessObject.h</text>
</a>
</g>
</g>
<!-- Node2 -->
<g id="node2" class="node">
<title>Node2</title>
<g id="a_node2"><a xlink:href="sitkCommon_8h.html" target="_top" xlink:title=" ">
<polygon fill="#ffffff" stroke="#000000" points="527.2603,-112.5 527.2603,-131.5 615.2603,-131.5 615.2603,-112.5 527.2603,-112.5"/>
<text text-anchor="middle" x="571.2603" y="-119.5" font-family="Helvetica,sans-Serif" font-size="10.00" fill="#000000">sitkCommon.h</text>
</a>
</g>
</g>
<!-- Node1&#45;&gt;Node2 -->
<g id="edge1" class="edge">
<title>Node1&#45;&gt;Node2</title>
<path fill="none" stroke="#191970" d="M712.1951,-467.8406C840.9242,-463.6772 1143.2603,-444.5769 1143.2603,-357 1143.2603,-357 1143.2603,-357 1143.2603,-239.5 1143.2603,-172.3885 1074.3974,-187.7581 1010.2603,-168 939.6328,-146.2424 726.234,-131.1585 625.2892,-125.0426"/>
<polygon fill="#191970" stroke="#191970" points="625.4884,-121.5484 615.2971,-124.4443 625.07,-128.5358 625.4884,-121.5484"/>
</g>
<!-- Node10 -->
<g id="node10" class="node">
<title>Node10</title>
<g id="a_node10"><a xlink:href="sitkNonCopyable_8h.html" target="_top" xlink:title=" ">
<polygon fill="#ffffff" stroke="#000000" points="638.7603,-168.5 638.7603,-187.5 747.7603,-187.5 747.7603,-168.5 638.7603,-168.5"/>
<text text-anchor="middle" x="693.2603" y="-175.5" font-family="Helvetica,sans-Serif" font-size="10.00" fill="#000000">sitkNonCopyable.h</text>
</a>
</g>
</g>
<!-- Node1&#45;&gt;Node10 -->
<g id="edge9" class="edge">
<title>Node1&#45;&gt;Node10</title>
<path fill="none" stroke="#191970" d="M661.791,-459.2931C673.8201,-440.4432 698.2603,-397.1986 698.2603,-357 698.2603,-357 698.2603,-357 698.2603,-301 698.2603,-264.4692 696.0312,-221.8859 694.5497,-197.6186"/>
<polygon fill="#191970" stroke="#191970" points="698.0381,-197.3229 693.9139,-187.5638 691.0521,-197.7647 698.0381,-197.3229"/>
</g>
<!-- Node11 -->
<g id="node11" class="node">
<title>Node11</title>
<g id="a_node11"><a xlink:href="sitkTemplateFunctions_8h.html" target="_top" xlink:title=" ">
<polygon fill="#ffffff" stroke="#000000" points="164.2603,-230 164.2603,-249 298.2603,-249 298.2603,-230 164.2603,-230"/>
<text text-anchor="middle" x="231.2603" y="-237" font-family="Helvetica,sans-Serif" font-size="10.00" fill="#000000">sitkTemplateFunctions.h</text>
</a>
</g>
</g>
<!-- Node1&#45;&gt;Node11 -->
<g id="edge11" class="edge">
<title>Node1&#45;&gt;Node11</title>
<path fill="none" stroke="#191970" d="M611.3902,-459.4311C580.3128,-451.7734 538.1221,-439.5694 503.2603,-423 401.2201,-374.5015 294.0266,-291.0079 250.9132,-255.8547"/>
<polygon fill="#191970" stroke="#191970" points="252.8868,-252.9465 242.9375,-249.3047 248.4442,-258.3561 252.8868,-252.9465"/>
</g>
<!-- Node16 -->
<g id="node16" class="node">
<title>Node16</title>
<g id="a_node16"><a xlink:href="sitkEvent_8h.html" target="_top" xlink:title=" ">
<polygon fill="#ffffff" stroke="#000000" points="354.7603,-230 354.7603,-249 425.7603,-249 425.7603,-230 354.7603,-230"/>
<text text-anchor="middle" x="390.2603" y="-237" font-family="Helvetica,sans-Serif" font-size="10.00" fill="#000000">sitkEvent.h</text>
</a>
</g>
</g>
<!-- Node1&#45;&gt;Node16 -->
<g id="edge20" class="edge">
<title>Node1&#45;&gt;Node16</title>
<path fill="none" stroke="#191970" d="M615.5442,-459.4493C590.2371,-452.1305 557.5701,-440.312 532.2603,-423 467.527,-378.7221 419.1234,-295.6563 399.6531,-258.4118"/>
<polygon fill="#191970" stroke="#191970" points="402.6079,-256.5026 394.9392,-249.1923 396.3754,-259.6893 402.6079,-256.5026"/>
</g>
<!-- Node17 -->
<g id="node17" class="node">
<title>Node17</title>
<g id="a_node17"><a xlink:href="sitkImage_8h.html" target="_top" xlink:title=" ">
<polygon fill="#ffffff" stroke="#000000" points="491.2603,-347.5 491.2603,-366.5 565.2603,-366.5 565.2603,-347.5 491.2603,-347.5"/>
<text text-anchor="middle" x="528.2603" y="-354.5" font-family="Helvetica,sans-Serif" font-size="10.00" fill="#000000">sitkImage.h</text>
</a>
</g>
</g>
<!-- Node1&#45;&gt;Node17 -->
<g id="edge23" class="edge">
<title>Node1&#45;&gt;Node17</title>
<path fill="none" stroke="#191970" d="M611.2483,-459.4165C589.5683,-452.607 564.6346,-441.3153 548.2603,-423 536.9263,-410.3225 532.0124,-391.3965 529.8835,-377.0578"/>
<polygon fill="#191970" stroke="#191970" points="533.3182,-376.2861 528.7039,-366.7489 526.3636,-377.082 533.3182,-376.2861"/>
</g>
<!-- Node33 -->
<g id="node33" class="node">
<title>Node33</title>
<g id="a_node33"><a xlink:href="sitkImageConvert_8h.html" target="_top" xlink:title=" ">
<polygon fill="#ffffff" stroke="#000000" points="556.7603,-403.5 556.7603,-422.5 669.7603,-422.5 669.7603,-403.5 556.7603,-403.5"/>
<text text-anchor="middle" x="613.2603" y="-410.5" font-family="Helvetica,sans-Serif" font-size="10.00" fill="#000000">sitkImageConvert.h</text>
</a>
</g>
</g>
<!-- Node1&#45;&gt;Node33 -->
<g id="edge55" class="edge">
<title>Node1&#45;&gt;Node33</title>
<path fill="none" stroke="#191970" d="M647.9444,-459.2455C642.0424,-451.3761 633.586,-440.101 626.5009,-430.6542"/>
<polygon fill="#191970" stroke="#191970" points="629.2923,-428.5427 620.4923,-422.6427 623.6923,-432.7427 629.2923,-428.5427"/>
</g>
<!-- Node34 -->
<g id="node34" class="node">
<title>Node34</title>
<g id="a_node34"><a xlink:title=" ">
<polygon fill="#ffffff" stroke="#bfbfbf" points="1171.2603,-403.5 1171.2603,-422.5 1231.2603,-422.5 1231.2603,-403.5 1171.2603,-403.5"/>
<text text-anchor="middle" x="1201.2603" y="-410.5" font-family="Helvetica,sans-Serif" font-size="10.00" fill="#000000">iostream</text>
</a>
</g>
</g>
<!-- Node1&#45;&gt;Node34 -->
<g id="edge57" class="edge">
<title>Node1&#45;&gt;Node34</title>
<path fill="none" stroke="#191970" d="M712.026,-466.2465C805.3695,-461.1713 996.9221,-448.4522 1157.2603,-423 1158.5223,-422.7997 1159.8022,-422.5842 1161.0925,-422.3565"/>
<polygon fill="#191970" stroke="#191970" points="1161.919,-425.7614 1171.0656,-420.4143 1160.5809,-418.8904 1161.919,-425.7614"/>
</g>
<!-- Node35 -->
<g id="node35" class="node">
<title>Node35</title>
<g id="a_node35"><a xlink:title=" ">
<polygon fill="#ffffff" stroke="#bfbfbf" points="1249.2603,-403.5 1249.2603,-422.5 1281.2603,-422.5 1281.2603,-403.5 1249.2603,-403.5"/>
<text text-anchor="middle" x="1265.2603" y="-410.5" font-family="Helvetica,sans-Serif" font-size="10.00" fill="#000000">list</text>
</a>
</g>
</g>
<!-- Node1&#45;&gt;Node35 -->
<g id="edge58" class="edge">
<title>Node1&#45;&gt;Node35</title>
<path fill="none" stroke="#191970" d="M711.8018,-466.7272C834.589,-461.4495 1123.2329,-447.1067 1239.0755,-422.5412"/>
<polygon fill="#191970" stroke="#191970" points="1240.0953,-425.8994 1249.0827,-420.289 1238.5583,-419.0702 1240.0953,-425.8994"/>
</g>
<!-- Node3 -->
<g id="node3" class="node">
<title>Node3</title>
<g id="a_node3"><a xlink:href="sitkMacro_8h.html" target="_top" xlink:title=" ">
<polygon fill="#ffffff" stroke="#000000" points="651.7603,-56.5 651.7603,-75.5 724.7603,-75.5 724.7603,-56.5 651.7603,-56.5"/>
<text text-anchor="middle" x="688.2603" y="-63.5" font-family="Helvetica,sans-Serif" font-size="10.00" fill="#000000">sitkMacro.h</text>
</a>
</g>
</g>
<!-- Node2&#45;&gt;Node3 -->
<g id="edge2" class="edge">
<title>Node2&#45;&gt;Node3</title>
<path fill="none" stroke="#191970" d="M591.3733,-112.3733C610.0706,-103.4241 638.1347,-89.9917 659.2537,-79.8835"/>
<polygon fill="#191970" stroke="#191970" points="660.9007,-82.9755 668.4097,-75.5011 657.8786,-76.6614 660.9007,-82.9755"/>
</g>
<!-- Node4 -->
<g id="node4" class="node">
<title>Node4</title>
<g id="a_node4"><a xlink:title=" ">
<polygon fill="#ffffff" stroke="#bfbfbf" points="1145.7603,-.5 1145.7603,-19.5 1198.7603,-19.5 1198.7603,-.5 1145.7603,-.5"/>
<text text-anchor="middle" x="1172.2603" y="-7.5" font-family="Helvetica,sans-Serif" font-size="10.00" fill="#000000">stdint.h</text>
</a>
</g>
</g>
<!-- Node3&#45;&gt;Node4 -->
<g id="edge3" class="edge">
<title>Node3&#45;&gt;Node4</title>
<path fill="none" stroke="#191970" d="M725.0362,-61.7449C815.1154,-51.3225 1045.9686,-24.6123 1135.76,-14.2232"/>
<polygon fill="#191970" stroke="#191970" points="1136.2132,-17.6942 1145.7446,-13.0679 1135.4086,-10.7406 1136.2132,-17.6942"/>
</g>
<!-- Node5 -->
<g id="node5" class="node">
<title>Node5</title>
<g id="a_node5"><a xlink:title=" ">
<polygon fill="#ffffff" stroke="#bfbfbf" points="762.2603,-.5 762.2603,-19.5 818.2603,-19.5 818.2603,-.5 762.2603,-.5"/>
<text text-anchor="middle" x="790.2603" y="-7.5" font-family="Helvetica,sans-Serif" font-size="10.00" fill="#000000">stddef.h</text>
</a>
</g>
</g>
<!-- Node3&#45;&gt;Node5 -->
<g id="edge4" class="edge">
<title>Node3&#45;&gt;Node5</title>
<path fill="none" stroke="#191970" d="M706.0273,-56.2455C721.9698,-47.4928 745.5862,-34.527 763.7592,-24.5496"/>
<polygon fill="#191970" stroke="#191970" points="765.6154,-27.5233 772.6968,-19.6427 762.2466,-21.3873 765.6154,-27.5233"/>
</g>
<!-- Node6 -->
<g id="node6" class="node">
<title>Node6</title>
<g id="a_node6"><a xlink:title=" ">
<polygon fill="#ffffff" stroke="#bfbfbf" points="556.2603,-.5 556.2603,-19.5 608.2603,-19.5 608.2603,-.5 556.2603,-.5"/>
<text text-anchor="middle" x="582.2603" y="-7.5" font-family="Helvetica,sans-Serif" font-size="10.00" fill="#000000">cassert</text>
</a>
</g>
</g>
<!-- Node3&#45;&gt;Node6 -->
<g id="edge5" class="edge">
<title>Node3&#45;&gt;Node6</title>
<path fill="none" stroke="#191970" d="M669.7965,-56.2455C653.1528,-47.4527 628.461,-34.4079 609.5411,-24.4125"/>
<polygon fill="#191970" stroke="#191970" points="610.9894,-21.2193 600.5125,-19.6427 607.7195,-27.4086 610.9894,-21.2193"/>
</g>
<!-- Node7 -->
<g id="node7" class="node">
<title>Node7</title>
<g id="a_node7"><a xlink:title=" ">
<polygon fill="#ffffff" stroke="#bfbfbf" points="626.2603,-.5 626.2603,-19.5 682.2603,-19.5 682.2603,-.5 626.2603,-.5"/>
<text text-anchor="middle" x="654.2603" y="-7.5" font-family="Helvetica,sans-Serif" font-size="10.00" fill="#000000">sstream</text>
</a>
</g>
</g>
<!-- Node3&#45;&gt;Node7 -->
<g id="edge6" class="edge">
<title>Node3&#45;&gt;Node7</title>
<path fill="none" stroke="#191970" d="M682.3379,-56.2455C677.6576,-48.5367 670.993,-37.5598 665.3314,-28.2348"/>
<polygon fill="#191970" stroke="#191970" points="668.2963,-26.3741 660.1147,-19.6427 662.3128,-30.007 668.2963,-26.3741"/>
</g>
<!-- Node8 -->
<g id="node8" class="node">
<title>Node8</title>
<g id="a_node8"><a xlink:title=" ">
<polygon fill="#ffffff" stroke="#bfbfbf" points="700.2603,-.5 700.2603,-19.5 744.2603,-19.5 744.2603,-.5 700.2603,-.5"/>
<text text-anchor="middle" x="722.2603" y="-7.5" font-family="Helvetica,sans-Serif" font-size="10.00" fill="#000000">limits</text>
</a>
</g>
</g>
<!-- Node3&#45;&gt;Node8 -->
<g id="edge7" class="edge">
<title>Node3&#45;&gt;Node8</title>
<path fill="none" stroke="#191970" d="M694.1826,-56.2455C698.863,-48.5367 705.5275,-37.5598 711.1891,-28.2348"/>
<polygon fill="#191970" stroke="#191970" points="714.2077,-30.007 716.4058,-19.6427 708.2242,-26.3741 714.2077,-30.007"/>
</g>
<!-- Node9 -->
<g id="node9" class="node">
<title>Node9</title>
<g id="a_node9"><a xlink:href="sitkConfigure_8h.html" target="_top" xlink:title=" ">
<polygon fill="#ffffff" stroke="#000000" points="1303.2603,-.5 1303.2603,-19.5 1393.2603,-19.5 1393.2603,-.5 1303.2603,-.5"/>
<text text-anchor="middle" x="1348.2603" y="-7.5" font-family="Helvetica,sans-Serif" font-size="10.00" fill="#000000">sitkConfigure.h</text>
</a>
</g>
</g>
<!-- Node3&#45;&gt;Node9 -->
<g id="edge8" class="edge">
<title>Node3&#45;&gt;Node9</title>
<path fill="none" stroke="#191970" d="M725.159,-62.8692C835.2446,-53.5286 1161.8247,-25.8188 1292.9025,-14.697"/>
<polygon fill="#191970" stroke="#191970" points="1293.4452,-18.1636 1303.1135,-13.8306 1292.8533,-11.1887 1293.4452,-18.1636"/>
</g>
<!-- Node10&#45;&gt;Node2 -->
<g id="edge10" class="edge">
<title>Node10&#45;&gt;Node2</title>
<path fill="none" stroke="#191970" d="M672.2877,-168.3733C652.7035,-159.3838 623.2642,-145.8706 601.2093,-135.7471"/>
<polygon fill="#191970" stroke="#191970" points="602.5075,-132.4919 591.9591,-131.5011 599.5873,-138.8538 602.5075,-132.4919"/>
</g>
<!-- Node11&#45;&gt;Node2 -->
<g id="edge13" class="edge">
<title>Node11&#45;&gt;Node2</title>
<path fill="none" stroke="#191970" d="M231.4691,-229.8873C232.3676,-214.2813 236.5664,-183.6103 255.2603,-168 293.9492,-135.6927 437.1056,-126.073 516.8043,-123.2107"/>
<polygon fill="#191970" stroke="#191970" points="517.2631,-126.6974 527.1403,-122.8646 517.0287,-119.7013 517.2631,-126.6974"/>
</g>
<!-- Node11&#45;&gt;Node3 -->
<g id="edge12" class="edge">
<title>Node11&#45;&gt;Node3</title>
<path fill="none" stroke="#191970" d="M163.9835,-233.4065C104.4337,-226.4549 23.9922,-212.71 4.2603,-188 -1.2864,-181.054 -1.4869,-174.781 4.2603,-168 45.718,-119.0847 494.2767,-80.7798 641.645,-69.4385"/>
<polygon fill="#191970" stroke="#191970" points="642.0208,-72.9201 651.7252,-68.6688 641.4877,-65.9404 642.0208,-72.9201"/>
</g>
<!-- Node12 -->
<g id="node12" class="node">
<title>Node12</title>
<g id="a_node12"><a xlink:href="sitkExceptionObject_8h.html" target="_top" xlink:title=" ">
<polygon fill="#ffffff" stroke="#000000" points="13.7603,-168.5 13.7603,-187.5 136.7603,-187.5 136.7603,-168.5 13.7603,-168.5"/>
<text text-anchor="middle" x="75.2603" y="-175.5" font-family="Helvetica,sans-Serif" font-size="10.00" fill="#000000">sitkExceptionObject.h</text>
</a>
</g>
</g>
<!-- Node11&#45;&gt;Node12 -->
<g id="edge14" class="edge">
<title>Node11&#45;&gt;Node12</title>
<path fill="none" stroke="#191970" d="M206.8853,-229.8906C180.5546,-219.5103 138.4223,-202.9004 108.9374,-191.2766"/>
<polygon fill="#191970" stroke="#191970" points="110.0509,-187.9534 99.4641,-187.5419 107.4836,-194.4657 110.0509,-187.9534"/>
</g>
<!-- Node13 -->
<g id="node13" class="node">
<title>Node13</title>
<g id="a_node13"><a xlink:title=" ">
<polygon fill="#ffffff" stroke="#bfbfbf" points="264.7603,-168.5 264.7603,-187.5 311.7603,-187.5 311.7603,-168.5 264.7603,-168.5"/>
<text text-anchor="middle" x="288.2603" y="-175.5" font-family="Helvetica,sans-Serif" font-size="10.00" fill="#000000">vector</text>
</a>
</g>
</g>
<!-- Node11&#45;&gt;Node13 -->
<g id="edge17" class="edge">
<title>Node11&#45;&gt;Node13</title>
<path fill="none" stroke="#191970" d="M240.1665,-229.8906C248.733,-220.6478 261.8771,-206.466 272.2606,-195.2628"/>
<polygon fill="#191970" stroke="#191970" points="274.9978,-197.4584 279.2284,-187.7449 269.8637,-192.7 274.9978,-197.4584"/>
</g>
<!-- Node14 -->
<g id="node14" class="node">
<title>Node14</title>
<g id="a_node14"><a xlink:title=" ">
<polygon fill="#ffffff" stroke="#bfbfbf" points="368.7603,-168.5 368.7603,-187.5 425.7603,-187.5 425.7603,-168.5 368.7603,-168.5"/>
<text text-anchor="middle" x="397.2603" y="-175.5" font-family="Helvetica,sans-Serif" font-size="10.00" fill="#000000">ostream</text>
</a>
</g>
</g>
<!-- Node11&#45;&gt;Node14 -->
<g id="edge18" class="edge">
<title>Node11&#45;&gt;Node14</title>
<path fill="none" stroke="#191970" d="M257.1978,-229.8906C285.3381,-219.4652 330.4396,-202.7559 361.8328,-191.1252"/>
<polygon fill="#191970" stroke="#191970" points="363.3437,-194.298 371.5049,-187.5419 360.9118,-187.734 363.3437,-194.298"/>
</g>
<!-- Node15 -->
<g id="node15" class="node">
<title>Node15</title>
<g id="a_node15"><a xlink:title=" ">
<polygon fill="#ffffff" stroke="#bfbfbf" points="154.7603,-168.5 154.7603,-187.5 207.7603,-187.5 207.7603,-168.5 154.7603,-168.5"/>
<text text-anchor="middle" x="181.2603" y="-175.5" font-family="Helvetica,sans-Serif" font-size="10.00" fill="#000000">iterator</text>
</a>
</g>
</g>
<!-- Node11&#45;&gt;Node15 -->
<g id="edge19" class="edge">
<title>Node11&#45;&gt;Node15</title>
<path fill="none" stroke="#191970" d="M223.4478,-229.8906C216.0062,-220.7376 204.6269,-206.7409 195.5611,-195.59"/>
<polygon fill="#191970" stroke="#191970" points="198.207,-193.2962 189.1829,-187.7449 192.7755,-197.712 198.207,-193.2962"/>
</g>
<!-- Node12&#45;&gt;Node2 -->
<g id="edge16" class="edge">
<title>Node12&#45;&gt;Node2</title>
<path fill="none" stroke="#191970" d="M137.0813,-169.051C139.8443,-168.6881 142.5805,-168.336 145.2603,-168 278.6862,-151.2708 436.091,-135.2312 517.0822,-127.2487"/>
<polygon fill="#191970" stroke="#191970" points="517.4373,-130.7308 527.0469,-126.2693 516.7525,-123.7643 517.4373,-130.7308"/>
</g>
<!-- Node12&#45;&gt;Node3 -->
<g id="edge15" class="edge">
<title>Node12&#45;&gt;Node3</title>
<path fill="none" stroke="#191970" d="M127.2599,-168.4993C244.7213,-147.0381 529.0566,-95.0878 641.4341,-74.5555"/>
<polygon fill="#191970" stroke="#191970" points="642.2378,-77.9667 651.4458,-72.7263 640.9796,-71.0807 642.2378,-77.9667"/>
</g>
<!-- Node16&#45;&gt;Node2 -->
<g id="edge21" class="edge">
<title>Node16&#45;&gt;Node2</title>
<path fill="none" stroke="#191970" d="M380.1126,-229.8361C365.9932,-215.2206 343.8043,-187.1692 359.2603,-168 378.7329,-143.8491 460.941,-131.7317 517.0747,-126.1617"/>
<polygon fill="#191970" stroke="#191970" points="517.6076,-129.6269 527.2316,-125.1964 516.9453,-122.6583 517.6076,-129.6269"/>
</g>
<!-- Node16&#45;&gt;Node14 -->
<g id="edge22" class="edge">
<title>Node16&#45;&gt;Node14</title>
<path fill="none" stroke="#191970" d="M391.354,-229.8906C392.3243,-221.3657 393.7729,-208.6392 394.9925,-197.9235"/>
<polygon fill="#191970" stroke="#191970" points="398.4976,-198.0766 396.1511,-187.7449 391.5425,-197.2849 398.4976,-198.0766"/>
</g>
<!-- Node17&#45;&gt;Node2 -->
<g id="edge24" class="edge">
<title>Node17&#45;&gt;Node2</title>
<path fill="none" stroke="#191970" d="M509.977,-347.4509C497.0745,-339.5902 480.7961,-327.1269 473.2603,-311 446.3542,-253.4207 439.1796,-221.6453 473.2603,-168 483.3372,-152.1382 500.4917,-141.6497 517.6581,-134.7567"/>
<polygon fill="#191970" stroke="#191970" points="518.9612,-138.007 527.1514,-131.286 516.5576,-131.4326 518.9612,-138.007"/>
</g>
<!-- Node17&#45;&gt;Node11 -->
<g id="edge25" class="edge">
<title>Node17&#45;&gt;Node11</title>
<path fill="none" stroke="#191970" d="M490.922,-352.7021C450.2277,-347.0247 383.8939,-334.8247 331.2603,-311 299.9271,-296.817 268.4153,-272.157 249.3662,-255.8309"/>
<polygon fill="#191970" stroke="#191970" points="251.602,-253.1366 241.7691,-249.1914 246.9956,-258.4074 251.602,-253.1366"/>
</g>
<!-- Node17&#45;&gt;Node13 -->
<g id="edge52" class="edge">
<title>Node17&#45;&gt;Node13</title>
<path fill="none" stroke="#191970" d="M503.5585,-347.4631C466.1935,-332.1641 394.4524,-299.2984 345.2603,-255 326.2498,-237.8808 309.5067,-213.5363 299.169,-196.8288"/>
<polygon fill="#191970" stroke="#191970" points="302.0056,-194.7541 293.8538,-187.9866 296.006,-198.3605 302.0056,-194.7541"/>
</g>
<!-- Node18 -->
<g id="node18" class="node">
<title>Node18</title>
<g id="a_node18"><a xlink:href="sitkDetail_8h.html" target="_top" xlink:title=" ">
<polygon fill="#ffffff" stroke="#000000" points="558.7603,-291.5 558.7603,-310.5 631.7603,-310.5 631.7603,-291.5 558.7603,-291.5"/>
<text text-anchor="middle" x="595.2603" y="-298.5" font-family="Helvetica,sans-Serif" font-size="10.00" fill="#000000">sitkDetail.h</text>
</a>
</g>
</g>
<!-- Node17&#45;&gt;Node18 -->
<g id="edge26" class="edge">
<title>Node17&#45;&gt;Node18</title>
<path fill="none" stroke="#191970" d="M539.9308,-347.2455C549.8263,-338.9746 564.223,-326.9416 575.8503,-317.2232"/>
<polygon fill="#191970" stroke="#191970" points="578.2952,-319.7413 583.7235,-310.6427 573.806,-314.3703 578.2952,-319.7413"/>
</g>
<!-- Node28 -->
<g id="node28" class="node">
<title>Node28</title>
<g id="a_node28"><a xlink:href="sitkPixelIDTokens_8h.html" target="_top" xlink:title=" ">
<polygon fill="#ffffff" stroke="#000000" points="1003.2603,-291.5 1003.2603,-310.5 1115.2603,-310.5 1115.2603,-291.5 1003.2603,-291.5"/>
<text text-anchor="middle" x="1059.2603" y="-298.5" font-family="Helvetica,sans-Serif" font-size="10.00" fill="#000000">sitkPixelIDTokens.h</text>
</a>
</g>
</g>
<!-- Node17&#45;&gt;Node28 -->
<g id="edge44" class="edge">
<title>Node17&#45;&gt;Node28</title>
<path fill="none" stroke="#191970" d="M565.5991,-353.0622C654.5352,-343.6829 879.8717,-319.9186 992.7244,-308.017"/>
<polygon fill="#191970" stroke="#191970" points="993.3795,-311.4674 1002.9573,-306.9378 992.6453,-304.506 993.3795,-311.4674"/>
</g>
<!-- Node31 -->
<g id="node31" class="node">
<title>Node31</title>
<g id="a_node31"><a xlink:title=" ">
<polygon fill="#ffffff" stroke="#bfbfbf" points="1024.7603,-230 1024.7603,-249 1093.7603,-249 1093.7603,-230 1024.7603,-230"/>
<text text-anchor="middle" x="1059.2603" y="-237" font-family="Helvetica,sans-Serif" font-size="10.00" fill="#000000">type_traits</text>
</a>
</g>
</g>
<!-- Node17&#45;&gt;Node31 -->
<g id="edge54" class="edge">
<title>Node17&#45;&gt;Node31</title>
<path fill="none" stroke="#191970" d="M565.4185,-351.0627C647.5819,-337.5372 850.5387,-301.9386 1016.2603,-255 1019.0518,-254.2093 1021.9232,-253.3283 1024.7945,-252.3989"/>
<polygon fill="#191970" stroke="#191970" points="1026.1033,-255.6507 1034.4409,-249.1136 1023.8465,-249.0244 1026.1033,-255.6507"/>
</g>
<!-- Node32 -->
<g id="node32" class="node">
<title>Node32</title>
<g id="a_node32"><a xlink:title=" ">
<polygon fill="#ffffff" stroke="#bfbfbf" points="482.2603,-291.5 482.2603,-310.5 540.2603,-310.5 540.2603,-291.5 482.2603,-291.5"/>
<text text-anchor="middle" x="511.2603" y="-298.5" font-family="Helvetica,sans-Serif" font-size="10.00" fill="#000000">memory</text>
</a>
</g>
</g>
<!-- Node17&#45;&gt;Node32 -->
<g id="edge53" class="edge">
<title>Node17&#45;&gt;Node32</title>
<path fill="none" stroke="#191970" d="M525.2991,-347.2455C523.0564,-339.8579 519.9026,-329.4689 517.1522,-320.4087"/>
<polygon fill="#191970" stroke="#191970" points="520.4415,-319.1948 514.1875,-310.6427 513.7433,-321.2282 520.4415,-319.1948"/>
</g>
<!-- Node19 -->
<g id="node19" class="node">
<title>Node19</title>
<g id="a_node19"><a xlink:href="sitkMemberFunctionFactoryBase_8h.html" target="_top" xlink:title=" ">
<polygon fill="#ffffff" stroke="#000000" points="857.2603,-224.5 857.2603,-254.5 1007.2603,-254.5 1007.2603,-224.5 857.2603,-224.5"/>
<text text-anchor="start" x="865.2603" y="-242.5" font-family="Helvetica,sans-Serif" font-size="10.00" fill="#000000">sitkMemberFunctionFactory</text>
<text text-anchor="middle" x="932.2603" y="-231.5" font-family="Helvetica,sans-Serif" font-size="10.00" fill="#000000">Base.h</text>
</a>
</g>
</g>
<!-- Node18&#45;&gt;Node19 -->
<g id="edge27" class="edge">
<title>Node18&#45;&gt;Node19</title>
<path fill="none" stroke="#191970" d="M632.0183,-293.7221C636.8072,-292.7946 641.6493,-291.8672 646.2603,-291 713.7315,-278.3112 790.2839,-264.5604 847.1986,-254.462"/>
<polygon fill="#191970" stroke="#191970" points="847.9961,-257.8753 857.2317,-252.6836 846.7743,-250.9828 847.9961,-257.8753"/>
</g>
<!-- Node24 -->
<g id="node24" class="node">
<title>Node24</title>
<g id="a_node24"><a xlink:title=" ">
<polygon fill="#ffffff" stroke="#bfbfbf" points="482.2603,-168.5 482.2603,-187.5 620.2603,-187.5 620.2603,-168.5 482.2603,-168.5"/>
<text text-anchor="middle" x="551.2603" y="-175.5" font-family="Helvetica,sans-Serif" font-size="10.00" fill="#000000">Ancillary/FunctionTraits.h</text>
</a>
</g>
</g>
<!-- Node18&#45;&gt;Node24 -->
<g id="edge43" class="edge">
<title>Node18&#45;&gt;Node24</title>
<path fill="none" stroke="#191970" d="M591.8077,-291.3484C584.5785,-271.1397 567.7308,-224.0427 558.1832,-197.3528"/>
<polygon fill="#191970" stroke="#191970" points="561.3606,-195.8436 554.6968,-187.6068 554.7696,-198.2014 561.3606,-195.8436"/>
</g>
<!-- Node19&#45;&gt;Node3 -->
<g id="edge36" class="edge">
<title>Node19&#45;&gt;Node3</title>
<path fill="none" stroke="#191970" d="M969.4047,-224.4446C996.7643,-211.0972 1026.5934,-190.3068 1010.2603,-168 993.5946,-145.2389 820.0502,-99.0646 734.8857,-77.5354"/>
<polygon fill="#191970" stroke="#191970" points="735.5062,-74.0824 724.9543,-75.0352 733.7973,-80.8707 735.5062,-74.0824"/>
</g>
<!-- Node19&#45;&gt;Node9 -->
<g id="edge28" class="edge">
<title>Node19&#45;&gt;Node9</title>
<path fill="none" stroke="#191970" d="M1007.3212,-225.3708C1010.3375,-224.8914 1013.326,-224.4322 1016.2603,-224 1088.3672,-213.3802 1291.9631,-240.7484 1342.2603,-188 1383.2556,-145.0068 1366.0973,-66.29 1354.9827,-29.685"/>
<polygon fill="#191970" stroke="#191970" points="1358.1869,-28.2151 1351.7984,-19.763 1351.5217,-30.3542 1358.1869,-28.2151"/>
</g>
<!-- Node19&#45;&gt;Node10 -->
<g id="edge37" class="edge">
<title>Node19&#45;&gt;Node10</title>
<path fill="none" stroke="#191970" d="M873.7943,-224.4554C832.6922,-213.8789 778.422,-199.914 740.1522,-190.0663"/>
<polygon fill="#191970" stroke="#191970" points="740.8535,-186.6329 730.2968,-187.5303 739.109,-193.412 740.8535,-186.6329"/>
</g>
<!-- Node20 -->
<g id="node20" class="node">
<title>Node20</title>
<g id="a_node20"><a xlink:href="sitkPixelIDTypes_8h.html" target="_top" xlink:title=" ">
<polygon fill="#ffffff" stroke="#000000" points="1079.2603,-112.5 1079.2603,-131.5 1185.2603,-131.5 1185.2603,-112.5 1079.2603,-112.5"/>
<text text-anchor="middle" x="1132.2603" y="-119.5" font-family="Helvetica,sans-Serif" font-size="10.00" fill="#000000">sitkPixelIDTypes.h</text>
</a>
</g>
</g>
<!-- Node19&#45;&gt;Node20 -->
<g id="edge29" class="edge">
<title>Node19&#45;&gt;Node20</title>
<path fill="none" stroke="#191970" d="M979.5857,-224.4918C1004.0428,-215.6816 1033.8053,-203.2696 1058.2603,-188 1080.437,-174.153 1102.3455,-153.5064 1116.4988,-139.0018"/>
<polygon fill="#191970" stroke="#191970" points="1119.1382,-141.3057 1123.5162,-131.6577 1114.0772,-136.4697 1119.1382,-141.3057"/>
</g>
<!-- Node21 -->
<g id="node21" class="node">
<title>Node21</title>
<g id="a_node21"><a xlink:href="sitkPixelIDTypeLists_8h.html" target="_top" xlink:title=" ">
<polygon fill="#ffffff" stroke="#000000" points="1209.7603,-168.5 1209.7603,-187.5 1332.7603,-187.5 1332.7603,-168.5 1209.7603,-168.5"/>
<text text-anchor="middle" x="1271.2603" y="-175.5" font-family="Helvetica,sans-Serif" font-size="10.00" fill="#000000">sitkPixelIDTypeLists.h</text>
</a>
</g>
</g>
<!-- Node19&#45;&gt;Node21 -->
<g id="edge30" class="edge">
<title>Node19&#45;&gt;Node21</title>
<path fill="none" stroke="#191970" d="M1007.3633,-225.6263C1010.368,-225.0761 1013.3425,-224.5324 1016.2603,-224 1081.6052,-212.0773 1156.4034,-198.6051 1208.011,-189.3372"/>
<polygon fill="#191970" stroke="#191970" points="1208.7896,-192.7534 1218.0137,-187.5413 1207.5526,-185.8636 1208.7896,-192.7534"/>
</g>
<!-- Node22 -->
<g id="node22" class="node">
<title>Node22</title>
<g id="a_node22"><a xlink:title=" ">
<polygon fill="#ffffff" stroke="#bfbfbf" points="949.7603,-112.5 949.7603,-131.5 1060.7603,-131.5 1060.7603,-112.5 949.7603,-112.5"/>
<text text-anchor="middle" x="1005.2603" y="-119.5" font-family="Helvetica,sans-Serif" font-size="10.00" fill="#000000">Ancillary/TypeList.h</text>
</a>
</g>
</g>
<!-- Node19&#45;&gt;Node22 -->
<g id="edge38" class="edge">
<title>Node19&#45;&gt;Node22</title>
<path fill="none" stroke="#191970" d="M995.2786,-224.4391C1013.9329,-216.7294 1032.2859,-205.1897 1043.2603,-188 1053.8258,-171.4507 1039.347,-151.8928 1025.324,-138.3854"/>
<polygon fill="#191970" stroke="#191970" points="1027.5165,-135.6499 1017.7423,-131.5613 1022.8335,-140.8527 1027.5165,-135.6499"/>
</g>
<!-- Node19&#45;&gt;Node24 -->
<g id="edge39" class="edge">
<title>Node19&#45;&gt;Node24</title>
<path fill="none" stroke="#191970" d="M856.9869,-227.3496C788.0907,-216.2285 686.9859,-199.9085 620.1684,-189.123"/>
<polygon fill="#191970" stroke="#191970" points="620.5883,-185.6455 610.1584,-187.5072 619.4728,-192.5561 620.5883,-185.6455"/>
</g>
<!-- Node25 -->
<g id="node25" class="node">
<title>Node25</title>
<g id="a_node25"><a xlink:title=" ">
<polygon fill="#ffffff" stroke="#bfbfbf" points="824.7603,-168.5 824.7603,-187.5 917.7603,-187.5 917.7603,-168.5 824.7603,-168.5"/>
<text text-anchor="middle" x="871.2603" y="-175.5" font-family="Helvetica,sans-Serif" font-size="10.00" fill="#000000">unordered_map</text>
</a>
</g>
</g>
<!-- Node19&#45;&gt;Node25 -->
<g id="edge40" class="edge">
<title>Node19&#45;&gt;Node25</title>
<path fill="none" stroke="#191970" d="M917.1816,-224.2977C908.3614,-215.4052 897.2061,-204.1586 888.0991,-194.9769"/>
<polygon fill="#191970" stroke="#191970" points="890.5543,-192.4821 881.0271,-187.8469 885.5843,-197.4116 890.5543,-192.4821"/>
</g>
<!-- Node26 -->
<g id="node26" class="node">
<title>Node26</title>
<g id="a_node26"><a xlink:title=" ">
<polygon fill="#ffffff" stroke="#bfbfbf" points="935.7603,-168.5 935.7603,-187.5 1000.7603,-187.5 1000.7603,-168.5 935.7603,-168.5"/>
<text text-anchor="middle" x="968.2603" y="-175.5" font-family="Helvetica,sans-Serif" font-size="10.00" fill="#000000">functional</text>
</a>
</g>
</g>
<!-- Node19&#45;&gt;Node26 -->
<g id="edge41" class="edge">
<title>Node19&#45;&gt;Node26</title>
<path fill="none" stroke="#191970" d="M941.1591,-224.2977C946.0522,-215.9388 952.1629,-205.4997 957.3427,-196.6509"/>
<polygon fill="#191970" stroke="#191970" points="960.4649,-198.2452 962.4962,-187.8469 954.4238,-194.7089 960.4649,-198.2452"/>
</g>
<!-- Node27 -->
<g id="node27" class="node">
<title>Node27</title>
<g id="a_node27"><a xlink:title=" ">
<polygon fill="#ffffff" stroke="#bfbfbf" points="765.7603,-168.5 765.7603,-187.5 806.7603,-187.5 806.7603,-168.5 765.7603,-168.5"/>
<text text-anchor="middle" x="786.2603" y="-175.5" font-family="Helvetica,sans-Serif" font-size="10.00" fill="#000000">tuple</text>
</a>
</g>
</g>
<!-- Node19&#45;&gt;Node27 -->
<g id="edge42" class="edge">
<title>Node19&#45;&gt;Node27</title>
<path fill="none" stroke="#191970" d="M896.5446,-224.4554C872.0206,-214.1251 839.8225,-200.5622 816.5534,-190.7605"/>
<polygon fill="#191970" stroke="#191970" points="817.7506,-187.467 807.1761,-186.8104 815.0331,-193.918 817.7506,-187.467"/>
</g>
<!-- Node21&#45;&gt;Node4 -->
<g id="edge31" class="edge">
<title>Node21&#45;&gt;Node4</title>
<path fill="none" stroke="#191970" d="M1262.1145,-168.2786C1253.9466,-159.3 1241.9631,-145.3693 1233.2603,-132 1210.7651,-97.4429 1190.6503,-53.4536 1180.0848,-28.8507"/>
<polygon fill="#191970" stroke="#191970" points="1183.2816,-27.424 1176.1624,-19.5776 1176.8347,-30.1511 1183.2816,-27.424"/>
</g>
<!-- Node21&#45;&gt;Node9 -->
<g id="edge32" class="edge">
<title>Node21&#45;&gt;Node9</title>
<path fill="none" stroke="#191970" d="M1281.5446,-168.2981C1290.2826,-159.5483 1302.5943,-145.9465 1310.2603,-132 1328.7013,-98.4509 1339.5478,-54.6943 1344.6588,-29.7372"/>
<polygon fill="#191970" stroke="#191970" points="1348.1379,-30.1816 1346.6103,-19.6975 1341.2665,-28.846 1348.1379,-30.1816"/>
</g>
<!-- Node21&#45;&gt;Node20 -->
<g id="edge33" class="edge">
<title>Node21&#45;&gt;Node20</title>
<path fill="none" stroke="#191970" d="M1247.3653,-168.3733C1224.752,-159.2629 1190.6061,-145.5062 1165.373,-135.3404"/>
<polygon fill="#191970" stroke="#191970" points="1166.4269,-131.9917 1155.8434,-131.5011 1163.811,-138.4845 1166.4269,-131.9917"/>
</g>
<!-- Node21&#45;&gt;Node22 -->
<g id="edge34" class="edge">
<title>Node21&#45;&gt;Node22</title>
<path fill="none" stroke="#191970" d="M1225.8355,-168.4369C1180.0247,-158.7925 1109.2605,-143.8948 1060.2927,-133.5858"/>
<polygon fill="#191970" stroke="#191970" points="1061.0043,-130.1589 1050.4977,-131.5237 1059.5621,-137.0088 1061.0043,-130.1589"/>
</g>
<!-- Node23 -->
<g id="node23" class="node">
<title>Node23</title>
<g id="a_node23"><a xlink:title=" ">
<polygon fill="#ffffff" stroke="#bfbfbf" points="1241.7603,-112.5 1241.7603,-131.5 1300.7603,-131.5 1300.7603,-112.5 1241.7603,-112.5"/>
<text text-anchor="middle" x="1271.2603" y="-119.5" font-family="Helvetica,sans-Serif" font-size="10.00" fill="#000000">complex</text>
</a>
</g>
</g>
<!-- Node21&#45;&gt;Node23 -->
<g id="edge35" class="edge">
<title>Node21&#45;&gt;Node23</title>
<path fill="none" stroke="#191970" d="M1271.2603,-168.2455C1271.2603,-160.9382 1271.2603,-150.6944 1271.2603,-141.7046"/>
<polygon fill="#191970" stroke="#191970" points="1274.7604,-141.6426 1271.2603,-131.6427 1267.7604,-141.6427 1274.7604,-141.6426"/>
</g>
<!-- Node28&#45;&gt;Node9 -->
<g id="edge45" class="edge">
<title>Node28&#45;&gt;Node9</title>
<path fill="none" stroke="#191970" d="M1115.5738,-295.7649C1226.8567,-283.8569 1464.2603,-250.014 1464.2603,-178 1464.2603,-178 1464.2603,-178 1464.2603,-122 1464.2603,-75.0456 1414.4634,-41.5403 1380.1232,-24.0171"/>
<polygon fill="#191970" stroke="#191970" points="1381.4218,-20.756 1370.9016,-19.5006 1378.3428,-27.0425 1381.4218,-20.756"/>
</g>
<!-- Node29 -->
<g id="node29" class="node">
<title>Node29</title>
<g id="a_node29"><a xlink:href="sitkPixelIDValues_8h.html" target="_top" xlink:title=" ">
<polygon fill="#ffffff" stroke="#000000" points="1171.2603,-230 1171.2603,-249 1281.2603,-249 1281.2603,-230 1171.2603,-230"/>
<text text-anchor="middle" x="1226.2603" y="-237" font-family="Helvetica,sans-Serif" font-size="10.00" fill="#000000">sitkPixelIDValues.h</text>
</a>
</g>
</g>
<!-- Node28&#45;&gt;Node29 -->
<g id="edge46" class="edge">
<title>Node28&#45;&gt;Node29</title>
<path fill="none" stroke="#191970" d="M1085.354,-291.3906C1113.6638,-280.9652 1159.037,-264.2559 1190.6194,-252.6252"/>
<polygon fill="#191970" stroke="#191970" points="1192.1754,-255.7821 1200.3497,-249.0419 1189.7563,-249.2133 1192.1754,-255.7821"/>
</g>
<!-- Node28&#45;&gt;Node31 -->
<g id="edge51" class="edge">
<title>Node28&#45;&gt;Node31</title>
<path fill="none" stroke="#191970" d="M1059.2603,-291.3906C1059.2603,-282.8657 1059.2603,-270.1392 1059.2603,-259.4235"/>
<polygon fill="#191970" stroke="#191970" points="1062.7604,-259.2448 1059.2603,-249.2449 1055.7604,-259.2449 1062.7604,-259.2448"/>
</g>
<!-- Node29&#45;&gt;Node2 -->
<g id="edge47" class="edge">
<title>Node29&#45;&gt;Node2</title>
<path fill="none" stroke="#191970" d="M1220.45,-229.9744C1210.0549,-213.9109 1186.592,-181.8362 1157.2603,-168 1109.9228,-145.6703 762.1143,-129.5879 625.8236,-124.0804"/>
<polygon fill="#191970" stroke="#191970" points="625.7434,-120.5744 615.6114,-123.6715 625.4634,-127.5688 625.7434,-120.5744"/>
</g>
<!-- Node29&#45;&gt;Node14 -->
<g id="edge50" class="edge">
<title>Node29&#45;&gt;Node14</title>
<path fill="none" stroke="#191970" d="M1171.2413,-231.7523C1150.0305,-228.9794 1125.5512,-226.039 1103.2603,-224 823.9695,-198.4527 752.4801,-214.3113 473.2603,-188 461.168,-186.8605 448.0384,-185.2626 436.1479,-183.6778"/>
<polygon fill="#191970" stroke="#191970" points="436.4568,-180.1876 426.0748,-182.3004 435.5084,-187.123 436.4568,-180.1876"/>
</g>
<!-- Node29&#45;&gt;Node21 -->
<g id="edge48" class="edge">
<title>Node29&#45;&gt;Node21</title>
<path fill="none" stroke="#191970" d="M1233.2915,-229.8906C1239.9232,-220.8273 1250.0299,-207.0149 1258.149,-195.9188"/>
<polygon fill="#191970" stroke="#191970" points="1261.0493,-197.882 1264.1299,-187.7449 1255.4001,-193.7484 1261.0493,-197.882"/>
</g>
<!-- Node30 -->
<g id="node30" class="node">
<title>Node30</title>
<g id="a_node30"><a xlink:title=" ">
<polygon fill="#ffffff" stroke="#bfbfbf" points="1392.2603,-168.5 1392.2603,-187.5 1436.2603,-187.5 1436.2603,-168.5 1392.2603,-168.5"/>
<text text-anchor="middle" x="1414.2603" y="-175.5" font-family="Helvetica,sans-Serif" font-size="10.00" fill="#000000">string</text>
</a>
</g>
</g>
<!-- Node29&#45;&gt;Node30 -->
<g id="edge49" class="edge">
<title>Node29&#45;&gt;Node30</title>
<path fill="none" stroke="#191970" d="M1255.6353,-229.8906C1290.0368,-218.6369 1346.8206,-200.0614 1382.2996,-188.4552"/>
<polygon fill="#191970" stroke="#191970" points="1383.7253,-191.6714 1392.1414,-185.2357 1381.5488,-185.0184 1383.7253,-191.6714"/>
</g>
<!-- Node33&#45;&gt;Node17 -->
<g id="edge56" class="edge">
<title>Node33&#45;&gt;Node17</title>
<path fill="none" stroke="#191970" d="M598.4544,-403.2455C585.5347,-394.7337 566.5672,-382.2375 551.605,-372.3801"/>
<polygon fill="#191970" stroke="#191970" points="553.1727,-369.2216 542.8965,-366.6427 549.3215,-375.067 553.1727,-369.2216"/>
</g>
</g>
</svg>
        <g id="navigator" transform="translate(0 0)" fill="#404254">
                <rect fill="#f2f5e9" fill-opacity="0.5" stroke="#606060" stroke-width=".5" x="0" y="0" width="60" height="60"/>
                <use id="zoomplus" xlink:href="#zoomPlus" x="17" y="9" onmousedown="handleZoom(evt,'in')"/>
                <use id="zoomminus" xlink:href="#zoomMin" x="42" y="9" onmousedown="handleZoom(evt,'out')"/>
                <use id="reset" xlink:href="#resetDef" x="30" y="36" onmousedown="handleReset()"/>
                <g id="arrowUp" xlink:href="#dirArrow" transform="translate(30 24)" onmousedown="handlePan(0,-1)">
                  <use xlink:href="#rim" fill="#404040">
                        <set attributeName="fill" to="#808080" begin="arrowUp.mouseover" end="arrowUp.mouseout"/>
                  </use>
                  <path fill="none" stroke="white" stroke-width="1.5" d="M0,-3.0v7 M-2.5,-0.5L0,-3.0L2.5,-0.5"/>
                </g>
                <g id="arrowRight" xlink:href="#dirArrow" transform="rotate(90) translate(36 -43)" onmousedown="handlePan(1,0)">
                  <use xlink:href="#rim" fill="#404040">
                        <set attributeName="fill" to="#808080" begin="arrowRight.mouseover" end="arrowRight.mouseout"/>
                  </use>
                  <path fill="none" stroke="white" stroke-width="1.5" d="M0,-3.0v7 M-2.5,-0.5L0,-3.0L2.5,-0.5"/>
                </g>
                <g id="arrowDown" xlink:href="#dirArrow" transform="rotate(180) translate(-30 -48)" onmousedown="handlePan(0,1)">
                  <use xlink:href="#rim" fill="#404040">
                        <set attributeName="fill" to="#808080" begin="arrowDown.mouseover" end="arrowDown.mouseout"/>
                  </use>
                  <path fill="none" stroke="white" stroke-width="1.5" d="M0,-3.0v7 M-2.5,-0.5L0,-3.0L2.5,-0.5"/>
                </g>
                <g id="arrowLeft" xlink:href="#dirArrow" transform="rotate(270) translate(-36 17)" onmousedown="handlePan(-1,0)">
                  <use xlink:href="#rim" fill="#404040">
                        <set attributeName="fill" to="#808080" begin="arrowLeft.mouseover" end="arrowLeft.mouseout"/>
                  </use>
                  <path fill="none" stroke="white" stroke-width="1.5" d="M0,-3.0v7 M-2.5,-0.5L0,-3.0L2.5,-0.5"/>
                </g>
        </g>
        <svg viewBox="0 0 15 15" width="100%" height="30px" preserveAspectRatio="xMaxYMin meet">
         <g id="arrow_out" transform="scale(0.3 0.3)">
          <a xlink:href="sitkProcessObject_8h__incl_org.svg" target="_base">
           <rect id="button" ry="5" rx="5" y="6" x="6" height="38" width="38"
                fill="#f2f5e9" fill-opacity="0.5" stroke="#606060" stroke-width="1.0"/>
           <path id="arrow"
             d="M 11.500037,31.436501 C 11.940474,20.09759 22.043105,11.32322 32.158766,21.979434 L 37.068811,17.246167 C 37.068811,17.246167 37.088388,32 37.088388,32 L 22.160133,31.978069 C 22.160133,31.978069 26.997745,27.140456 26.997745,27.140456 C 18.528582,18.264221 13.291696,25.230495 11.500037,31.436501 z"
             style="fill:#404040;"/>
          </a>
         </g>
        </svg>
</svg>
