<?xml version="1.0" encoding="UTF-8" standalone="no"?>
<!DOCTYPE svg PUBLIC "-//W3C//DTD SVG 1.1//EN"
 "http://www.w3.org/Graphics/SVG/1.1/DTD/svg11.dtd">
<!-- Generated by graphviz version 2.40.1 (20161225.0304)
 -->
<!-- Title: sitkIO.h Pages: 1 -->
<svg width="781pt" height="196pt"
 viewBox="0.00 0.00 780.50 196.00" xmlns="http://www.w3.org/2000/svg" xmlns:xlink="http://www.w3.org/1999/xlink">
<g id="graph0" class="graph" transform="scale(1 1) rotate(0) translate(4 192)">
<title>sitkIO.h</title>
<polygon fill="#ffffff" stroke="transparent" points="-4,4 -4,-192 776.5,-192 776.5,4 -4,4"/>
<!-- Node1 -->
<g id="node1" class="node">
<title>Node1</title>
<g id="a_node1"><a xlink:title=" ">
<polygon fill="#bfbfbf" stroke="#000000" points="467.5,-168.5 467.5,-187.5 520.5,-187.5 520.5,-168.5 467.5,-168.5"/>
<text text-anchor="middle" x="494" y="-175.5" font-family="Helvetica,sans-Serif" font-size="10.00" fill="#000000">sitkIO.h</text>
</a>
</g>
</g>
<!-- Node2 -->
<g id="node2" class="node">
<title>Node2</title>
<g id="a_node2"><a xlink:href="sitkImageReaderBase_8h.html" target="_top" xlink:title=" ">
<polygon fill="#ffffff" stroke="#000000" points="192,-112.5 192,-131.5 324,-131.5 324,-112.5 192,-112.5"/>
<text text-anchor="middle" x="258" y="-119.5" font-family="Helvetica,sans-Serif" font-size="10.00" fill="#000000">sitkImageReaderBase.h</text>
</a>
</g>
</g>
<!-- Node1&#45;&gt;Node2 -->
<g id="edge1" class="edge">
<title>Node1&#45;&gt;Node2</title>
<path fill="none" stroke="#191970" d="M457.6019,-169.3632C414.5199,-159.1403 343.0001,-142.1695 298.287,-131.5596"/>
<polygon fill="#191970" stroke="#191970" points="456.8486,-172.7815 467.3866,-171.6849 458.4648,-165.9707 456.8486,-172.7815"/>
</g>
<!-- Node7 -->
<g id="node7" class="node">
<title>Node7</title>
<g id="a_node7"><a xlink:href="sitkImageFileWriter_8h.html" target="_top" xlink:title=" ">
<polygon fill="#ffffff" stroke="#000000" points="446.5,-56.5 446.5,-75.5 565.5,-75.5 565.5,-56.5 446.5,-56.5"/>
<text text-anchor="middle" x="506" y="-63.5" font-family="Helvetica,sans-Serif" font-size="10.00" fill="#000000">sitkImageFileWriter.h</text>
</a>
</g>
</g>
<!-- Node1&#45;&gt;Node7 -->
<g id="edge8" class="edge">
<title>Node1&#45;&gt;Node7</title>
<path fill="none" stroke="#191970" d="M457.7326,-164.2186C432.5964,-152.409 405.8255,-133.8686 419,-112 429.9327,-93.8527 450.6862,-82.4931 469.1816,-75.6034"/>
<polygon fill="#191970" stroke="#191970" points="456.6386,-167.5618 467.1996,-168.4081 459.4714,-161.1606 456.6386,-167.5618"/>
</g>
<!-- Node8 -->
<g id="node8" class="node">
<title>Node8</title>
<g id="a_node8"><a xlink:href="sitkImageSeriesWriter_8h.html" target="_top" xlink:title=" ">
<polygon fill="#ffffff" stroke="#000000" points="427.5,-112.5 427.5,-131.5 560.5,-131.5 560.5,-112.5 427.5,-112.5"/>
<text text-anchor="middle" x="494" y="-119.5" font-family="Helvetica,sans-Serif" font-size="10.00" fill="#000000">sitkImageSeriesWriter.h</text>
</a>
</g>
</g>
<!-- Node1&#45;&gt;Node8 -->
<g id="edge10" class="edge">
<title>Node1&#45;&gt;Node8</title>
<path fill="none" stroke="#191970" d="M494,-158.1575C494,-149.155 494,-138.9199 494,-131.6427"/>
<polygon fill="#191970" stroke="#191970" points="490.5001,-158.2455 494,-168.2455 497.5001,-158.2456 490.5001,-158.2455"/>
</g>
<!-- Node9 -->
<g id="node9" class="node">
<title>Node9</title>
<g id="a_node9"><a xlink:href="sitkImageViewer_8h.html" target="_top" xlink:title=" ">
<polygon fill="#ffffff" stroke="#000000" points="578.5,-112.5 578.5,-131.5 685.5,-131.5 685.5,-112.5 578.5,-112.5"/>
<text text-anchor="middle" x="632" y="-119.5" font-family="Helvetica,sans-Serif" font-size="10.00" fill="#000000">sitkImageViewer.h</text>
</a>
</g>
</g>
<!-- Node1&#45;&gt;Node9 -->
<g id="edge12" class="edge">
<title>Node1&#45;&gt;Node9</title>
<path fill="none" stroke="#191970" d="M527.2213,-164.5189C552.354,-154.3201 586.2418,-140.5685 608.5865,-131.5011"/>
<polygon fill="#191970" stroke="#191970" points="525.6731,-161.3699 517.723,-168.3733 528.3053,-167.8562 525.6731,-161.3699"/>
</g>
<!-- Node10 -->
<g id="node10" class="node">
<title>Node10</title>
<g id="a_node10"><a xlink:href="sitkShow_8h.html" target="_top" xlink:title=" ">
<polygon fill="#ffffff" stroke="#000000" points="703.5,-112.5 703.5,-131.5 772.5,-131.5 772.5,-112.5 703.5,-112.5"/>
<text text-anchor="middle" x="738" y="-119.5" font-family="Helvetica,sans-Serif" font-size="10.00" fill="#000000">sitkShow.h</text>
</a>
</g>
</g>
<!-- Node1&#45;&gt;Node10 -->
<g id="edge14" class="edge">
<title>Node1&#45;&gt;Node10</title>
<path fill="none" stroke="#191970" d="M530.5648,-169.6725C570.8532,-160.4875 637.5616,-145.2514 695,-132 697.6886,-131.3797 700.4714,-130.7361 703.2687,-130.0881"/>
<polygon fill="#191970" stroke="#191970" points="529.6399,-166.2935 520.6677,-171.9283 531.1955,-173.1185 529.6399,-166.2935"/>
</g>
<!-- Node3 -->
<g id="node3" class="node">
<title>Node3</title>
<g id="a_node3"><a xlink:href="sitkImageFileReader_8h.html" target="_top" xlink:title=" ">
<polygon fill="#ffffff" stroke="#000000" points="0,-56.5 0,-75.5 124,-75.5 124,-56.5 0,-56.5"/>
<text text-anchor="middle" x="62" y="-63.5" font-family="Helvetica,sans-Serif" font-size="10.00" fill="#000000">sitkImageFileReader.h</text>
</a>
</g>
</g>
<!-- Node2&#45;&gt;Node3 -->
<g id="edge2" class="edge">
<title>Node2&#45;&gt;Node3</title>
<path fill="none" stroke="#191970" d="M214.5587,-109.5882C178.5484,-99.2996 128.1132,-84.8895 95.2539,-75.5011"/>
<polygon fill="#191970" stroke="#191970" points="213.7296,-112.9913 224.3064,-112.3733 215.6527,-106.2606 213.7296,-112.9913"/>
</g>
<!-- Node5 -->
<g id="node5" class="node">
<title>Node5</title>
<g id="a_node5"><a xlink:href="sitkImageSeriesReader_8h.html" target="_top" xlink:title=" ">
<polygon fill="#ffffff" stroke="#000000" points="142.5,-56.5 142.5,-75.5 279.5,-75.5 279.5,-56.5 142.5,-56.5"/>
<text text-anchor="middle" x="211" y="-63.5" font-family="Helvetica,sans-Serif" font-size="10.00" fill="#000000">sitkImageSeriesReader.h</text>
</a>
</g>
</g>
<!-- Node2&#45;&gt;Node5 -->
<g id="edge4" class="edge">
<title>Node2&#45;&gt;Node5</title>
<path fill="none" stroke="#191970" d="M243.3128,-104.5004C235.3204,-94.9775 225.7375,-83.5596 219.093,-75.6427"/>
<polygon fill="#191970" stroke="#191970" points="240.7036,-106.8358 249.8132,-112.2455 246.0654,-102.3357 240.7036,-106.8358"/>
</g>
<!-- Node6 -->
<g id="node6" class="node">
<title>Node6</title>
<g id="a_node6"><a xlink:href="sitkImportImageFilter_8h.html" target="_top" xlink:title=" ">
<polygon fill="#ffffff" stroke="#000000" points="298,-56.5 298,-75.5 428,-75.5 428,-56.5 298,-56.5"/>
<text text-anchor="middle" x="363" y="-63.5" font-family="Helvetica,sans-Serif" font-size="10.00" fill="#000000">sitkImportImageFilter.h</text>
</a>
</g>
</g>
<!-- Node2&#45;&gt;Node6 -->
<g id="edge6" class="edge">
<title>Node2&#45;&gt;Node6</title>
<path fill="none" stroke="#191970" d="M285.2625,-107.46C304.0522,-97.4388 328.5013,-84.3993 344.92,-75.6427"/>
<polygon fill="#191970" stroke="#191970" points="283.4661,-104.4514 276.2896,-112.2455 286.7602,-110.6278 283.4661,-104.4514"/>
</g>
<!-- Node4 -->
<g id="node4" class="node">
<title>Node4</title>
<g id="a_node4"><a xlink:href="SimpleITK_8h.html" target="_top" xlink:title=" ">
<polygon fill="#ffffff" stroke="#000000" points="468.5,-.5 468.5,-19.5 543.5,-19.5 543.5,-.5 468.5,-.5"/>
<text text-anchor="middle" x="506" y="-7.5" font-family="Helvetica,sans-Serif" font-size="10.00" fill="#000000">SimpleITK.h</text>
</a>
</g>
</g>
<!-- Node3&#45;&gt;Node4 -->
<g id="edge3" class="edge">
<title>Node3&#45;&gt;Node4</title>
<path fill="none" stroke="#191970" d="M134.3534,-55.8378C262.9173,-38.9315 402.7773,-22.1813 468.3825,-14.422"/>
<polygon fill="#191970" stroke="#191970" points="133.7865,-52.3822 124.3298,-57.1593 134.7015,-59.3221 133.7865,-52.3822"/>
</g>
<!-- Node5&#45;&gt;Node4 -->
<g id="edge5" class="edge">
<title>Node5&#45;&gt;Node4</title>
<path fill="none" stroke="#191970" d="M271.3344,-54.5467C330.4694,-43.3211 418.7541,-26.5619 468.469,-17.1245"/>
<polygon fill="#191970" stroke="#191970" points="270.5489,-51.1332 261.3771,-56.4369 271.8544,-58.0104 270.5489,-51.1332"/>
</g>
<!-- Node6&#45;&gt;Node4 -->
<g id="edge7" class="edge">
<title>Node6&#45;&gt;Node4</title>
<path fill="none" stroke="#191970" d="M397.0798,-52.6541C423.1573,-42.4419 458.4815,-28.6086 481.7382,-19.5011"/>
<polygon fill="#191970" stroke="#191970" points="395.6178,-49.4677 387.5826,-56.3733 398.1703,-55.9858 395.6178,-49.4677"/>
</g>
<!-- Node7&#45;&gt;Node4 -->
<g id="edge9" class="edge">
<title>Node7&#45;&gt;Node4</title>
<path fill="none" stroke="#191970" d="M506,-46.1575C506,-37.155 506,-26.9199 506,-19.6427"/>
<polygon fill="#191970" stroke="#191970" points="502.5001,-46.2455 506,-56.2455 509.5001,-46.2456 502.5001,-46.2455"/>
</g>
<!-- Node8&#45;&gt;Node4 -->
<g id="edge11" class="edge">
<title>Node8&#45;&gt;Node4</title>
<path fill="none" stroke="#191970" d="M535.9562,-108.3877C551.0066,-101.248 566.3761,-90.815 575,-76 589.0103,-51.9316 554.9163,-31.0291 529.8211,-19.5027"/>
<polygon fill="#191970" stroke="#191970" points="534.4644,-105.2198 526.6897,-112.4174 537.2559,-111.6391 534.4644,-105.2198"/>
</g>
<!-- Node9&#45;&gt;Node4 -->
<g id="edge13" class="edge">
<title>Node9&#45;&gt;Node4</title>
<path fill="none" stroke="#191970" d="M623.2431,-103.0812C615.9154,-88.8047 604.3598,-69.4459 590,-56 572.7657,-39.8626 548.8057,-27.4744 530.884,-19.6413"/>
<polygon fill="#191970" stroke="#191970" points="620.2735,-104.9758 627.8112,-112.4211 626.5617,-101.9002 620.2735,-104.9758"/>
</g>
<!-- Node10&#45;&gt;Node4 -->
<g id="edge15" class="edge">
<title>Node10&#45;&gt;Node4</title>
<path fill="none" stroke="#191970" d="M711.7123,-107.5124C686.4181,-93.7441 646.9667,-72.7176 612,-56 583.9469,-42.5878 551.0056,-28.5537 529.3794,-19.5676"/>
<polygon fill="#191970" stroke="#191970" points="710.2208,-110.6859 720.6745,-112.4098 713.5775,-104.5432 710.2208,-110.6859"/>
</g>
</g>
</svg>
