<?xml version="1.0" encoding="UTF-8" standalone="no"?>
<!DOCTYPE svg PUBLIC "-//W3C//DTD SVG 1.1//EN"
 "http://www.w3.org/Graphics/SVG/1.1/DTD/svg11.dtd">
<!-- Generated by graphviz version 2.40.1 (20161225.0304)
 -->
<!-- Title: sitkDualMemberFunctionFactory.h Pages: 1 -->
<!--zoomable 218 -->
<svg id="main" version="1.1" xmlns="http://www.w3.org/2000/svg" xmlns:xlink="http://www.w3.org/1999/xlink" xml:space="preserve" onload="init(evt)">
<style type="text/css"><![CDATA[
.edge:hover path { stroke: red; }
.edge:hover polygon { stroke: red; fill: red; }
]]></style>
<script type="text/javascript"><![CDATA[
var edges = document.getElementsByTagName('g');
if (edges && edges.length) {
  for (var i=0;i<edges.length;i++) {
    if (edges[i].id.substr(0,4)=='edge') {
      edges[i].setAttribute('class','edge');
    }
  }
}
]]></script>
        <defs>
                <circle id="rim" cx="0" cy="0" r="7"/>
                <circle id="rim2" cx="0" cy="0" r="3.5"/>
                <g id="zoomPlus">
                        <use xlink:href="#rim" fill="#404040">
                                <set attributeName="fill" to="#808080" begin="zoomplus.mouseover" end="zoomplus.mouseout"/>
                        </use>
                        <path d="M-4,0h8M0,-4v8" fill="none" stroke="white" stroke-width="1.5" pointer-events="none"/>
                </g>
                <g id="zoomMin">
                        <use xlink:href="#rim" fill="#404040">
                                <set attributeName="fill" to="#808080" begin="zoomminus.mouseover" end="zoomminus.mouseout"/>
                        </use>
                        <path d="M-4,0h8" fill="none" stroke="white" stroke-width="1.5" pointer-events="none"/>
                </g>
                <g id="dirArrow">
                        <path fill="none" stroke="white" stroke-width="1.5" d="M0,-3.0v7 M-2.5,-0.5L0,-3.0L2.5,-0.5"/>
                </g>
               <g id="resetDef">
                       <use xlink:href="#rim2" fill="#404040">
                               <set attributeName="fill" to="#808080" begin="reset.mouseover" end="reset.mouseout"/>
                       </use>
               </g>
        </defs>

<script type="text/javascript">
var viewWidth = 1962;
var viewHeight = 218;
var sectionId = 'dynsection-1';
</script>
<script xlink:href="svgpan.js"/>
<svg id="graph" class="graph">
<g id="viewport">
<title>sitkDualMemberFunctionFactory.h</title>
<polygon fill="#ffffff" stroke="transparent" points="-4,4 -4,-214 1958.4343,-214 1958.4343,4 -4,4"/>
<!-- Node1 -->
<g id="node1" class="node">
<title>Node1</title>
<g id="a_node1"><a xlink:title=" ">
<polygon fill="#bfbfbf" stroke="#000000" points="765.9343,-190.5 765.9343,-209.5 945.9343,-209.5 945.9343,-190.5 765.9343,-190.5"/>
<text text-anchor="middle" x="855.9343" y="-197.5" font-family="Helvetica,sans-Serif" font-size="10.00" fill="#000000">sitkDualMemberFunctionFactory.h</text>
</a>
</g>
</g>
<!-- Node2 -->
<g id="node2" class="node">
<title>Node2</title>
<g id="a_node2"><a xlink:href="sitkCastImageFilter_8h.html" target="_top" xlink:title=" ">
<polygon fill="#ffffff" stroke="#000000" points="263.4343,-62 263.4343,-81 382.4343,-81 382.4343,-62 263.4343,-62"/>
<text text-anchor="middle" x="322.9343" y="-69" font-family="Helvetica,sans-Serif" font-size="10.00" fill="#000000">sitkCastImageFilter.h</text>
</a>
</g>
</g>
<!-- Node1&#45;&gt;Node2 -->
<g id="edge1" class="edge">
<title>Node1&#45;&gt;Node2</title>
<path fill="none" stroke="#191970" d="M755.7174,-198.2104C536.6,-193.8069 32.3224,-180.8009 6.9343,-154 -2.5409,-143.9976 -1.9902,-133.4967 6.9343,-123 23.3165,-103.7318 176.1218,-85.8308 263.0935,-77.0918"/>
<polygon fill="#191970" stroke="#191970" points="755.8653,-201.7139 765.933,-198.4136 756.0046,-194.7153 755.8653,-201.7139"/>
</g>
<!-- Node4 -->
<g id="node4" class="node">
<title>Node4</title>
<g id="a_node4"><a xlink:href="sitkClampImageFilter_8h.html" target="_top" xlink:title=" ">
<polygon fill="#ffffff" stroke="#000000" points="791.4343,-129 791.4343,-148 920.4343,-148 920.4343,-129 791.4343,-129"/>
<text text-anchor="middle" x="855.9343" y="-136" font-family="Helvetica,sans-Serif" font-size="10.00" fill="#000000">sitkClampImageFilter.h</text>
</a>
</g>
</g>
<!-- Node1&#45;&gt;Node4 -->
<g id="edge3" class="edge">
<title>Node1&#45;&gt;Node4</title>
<path fill="none" stroke="#191970" d="M855.9343,-180.2462C855.9343,-169.5519 855.9343,-156.814 855.9343,-148.2449"/>
<polygon fill="#191970" stroke="#191970" points="852.4344,-180.3906 855.9343,-190.3906 859.4344,-180.3907 852.4344,-180.3906"/>
</g>
<!-- Node7 -->
<g id="node7" class="node">
<title>Node7</title>
<g id="a_node7"><a xlink:href="sitkLabelIntensityStatisticsImageFilter_8h.html" target="_top" xlink:title=" ">
<polygon fill="#ffffff" stroke="#000000" points="938.4343,-123.5 938.4343,-153.5 1087.4343,-153.5 1087.4343,-123.5 938.4343,-123.5"/>
<text text-anchor="start" x="946.4343" y="-141.5" font-family="Helvetica,sans-Serif" font-size="10.00" fill="#000000">sitkLabelIntensityStatistics</text>
<text text-anchor="middle" x="1012.9343" y="-130.5" font-family="Helvetica,sans-Serif" font-size="10.00" fill="#000000">ImageFilter.h</text>
</a>
</g>
</g>
<!-- Node1&#45;&gt;Node7 -->
<g id="edge7" class="edge">
<title>Node1&#45;&gt;Node7</title>
<path fill="none" stroke="#191970" d="M889.871,-186.7063C914.7765,-176.9503 948.631,-163.6889 974.5278,-153.5446"/>
<polygon fill="#191970" stroke="#191970" points="888.5001,-183.4843 880.4655,-190.3906 891.0532,-190.0021 888.5001,-183.4843"/>
</g>
<!-- Node8 -->
<g id="node8" class="node">
<title>Node8</title>
<g id="a_node8"><a xlink:href="sitkLabelMapContourOverlayImageFilter_8h.html" target="_top" xlink:title=" ">
<polygon fill="#ffffff" stroke="#000000" points="1104.9343,-123.5 1104.9343,-153.5 1262.9343,-153.5 1262.9343,-123.5 1104.9343,-123.5"/>
<text text-anchor="start" x="1112.9343" y="-141.5" font-family="Helvetica,sans-Serif" font-size="10.00" fill="#000000">sitkLabelMapContourOverlay</text>
<text text-anchor="middle" x="1183.9343" y="-130.5" font-family="Helvetica,sans-Serif" font-size="10.00" fill="#000000">ImageFilter.h</text>
</a>
</g>
</g>
<!-- Node1&#45;&gt;Node8 -->
<g id="edge10" class="edge">
<title>Node1&#45;&gt;Node8</title>
<path fill="none" stroke="#191970" d="M916.7586,-188.5954C969.7596,-178.6578 1046.9701,-164.1808 1104.7748,-153.3424"/>
<polygon fill="#191970" stroke="#191970" points="916.0081,-185.1751 906.8244,-190.4581 917.2982,-192.0552 916.0081,-185.1751"/>
</g>
<!-- Node9 -->
<g id="node9" class="node">
<title>Node9</title>
<g id="a_node9"><a xlink:href="sitkLabelMapMaskImageFilter_8h.html" target="_top" xlink:title=" ">
<polygon fill="#ffffff" stroke="#000000" points="1280.9343,-129 1280.9343,-148 1450.9343,-148 1450.9343,-129 1280.9343,-129"/>
<text text-anchor="middle" x="1365.9343" y="-136" font-family="Helvetica,sans-Serif" font-size="10.00" fill="#000000">sitkLabelMapMaskImageFilter.h</text>
</a>
</g>
</g>
<!-- Node1&#45;&gt;Node9 -->
<g id="edge13" class="edge">
<title>Node1&#45;&gt;Node9</title>
<path fill="none" stroke="#191970" d="M956.2717,-190.4183C1040.6458,-181.9985 1164.3719,-168.8044 1271.9343,-154 1284.7149,-152.2409 1298.4337,-150.1149 1311.3326,-148.0087"/>
<polygon fill="#191970" stroke="#191970" points="955.7858,-186.9492 946.181,-191.4212 956.4782,-193.9149 955.7858,-186.9492"/>
</g>
<!-- Node10 -->
<g id="node10" class="node">
<title>Node10</title>
<g id="a_node10"><a xlink:href="sitkLabelMapOverlayImageFilter_8h.html" target="_top" xlink:title=" ">
<polygon fill="#ffffff" stroke="#000000" points="1468.9343,-123.5 1468.9343,-153.5 1618.9343,-153.5 1618.9343,-123.5 1468.9343,-123.5"/>
<text text-anchor="start" x="1476.9343" y="-141.5" font-family="Helvetica,sans-Serif" font-size="10.00" fill="#000000">sitkLabelMapOverlayImage</text>
<text text-anchor="middle" x="1543.9343" y="-130.5" font-family="Helvetica,sans-Serif" font-size="10.00" fill="#000000">Filter.h</text>
</a>
</g>
</g>
<!-- Node1&#45;&gt;Node10 -->
<g id="edge16" class="edge">
<title>Node1&#45;&gt;Node10</title>
<path fill="none" stroke="#191970" d="M956.3162,-195.6299C1076.4409,-189.6452 1283.486,-176.9323 1459.9343,-154 1462.8755,-153.6177 1465.8698,-153.2006 1468.891,-152.7564"/>
<polygon fill="#191970" stroke="#191970" points="955.853,-192.1484 946.0373,-196.1362 956.1974,-199.14 955.853,-192.1484"/>
</g>
<!-- Node11 -->
<g id="node11" class="node">
<title>Node11</title>
<g id="a_node11"><a xlink:href="sitkLabelOverlayImageFilter_8h.html" target="_top" xlink:title=" ">
<polygon fill="#ffffff" stroke="#000000" points="1636.9343,-129 1636.9343,-148 1798.9343,-148 1798.9343,-129 1636.9343,-129"/>
<text text-anchor="middle" x="1717.9343" y="-136" font-family="Helvetica,sans-Serif" font-size="10.00" fill="#000000">sitkLabelOverlayImageFilter.h</text>
</a>
</g>
</g>
<!-- Node1&#45;&gt;Node11 -->
<g id="edge19" class="edge">
<title>Node1&#45;&gt;Node11</title>
<path fill="none" stroke="#191970" d="M956.3454,-197.574C1103.9372,-193.2033 1387.9448,-181.7289 1627.9343,-154 1641.1645,-152.4714 1655.4023,-150.2771 1668.5621,-148.0185"/>
<polygon fill="#191970" stroke="#191970" points="955.8509,-194.0869 945.957,-197.8766 956.0547,-201.0839 955.8509,-194.0869"/>
</g>
<!-- Node12 -->
<g id="node12" class="node">
<title>Node12</title>
<g id="a_node12"><a xlink:href="sitkLabelStatisticsImageFilter_8h.html" target="_top" xlink:title=" ">
<polygon fill="#ffffff" stroke="#000000" points="1817.4343,-123.5 1817.4343,-153.5 1954.4343,-153.5 1954.4343,-123.5 1817.4343,-123.5"/>
<text text-anchor="start" x="1825.4343" y="-141.5" font-family="Helvetica,sans-Serif" font-size="10.00" fill="#000000">sitkLabelStatisticsImage</text>
<text text-anchor="middle" x="1885.9343" y="-130.5" font-family="Helvetica,sans-Serif" font-size="10.00" fill="#000000">Filter.h</text>
</a>
</g>
</g>
<!-- Node1&#45;&gt;Node12 -->
<g id="edge22" class="edge">
<title>Node1&#45;&gt;Node12</title>
<path fill="none" stroke="#191970" d="M956.1123,-197.0383C1165.9258,-190.5273 1645.5365,-173.948 1807.9343,-154 1810.949,-153.6297 1814.0217,-153.2085 1817.12,-152.7481"/>
<polygon fill="#191970" stroke="#191970" points="955.9106,-193.5428 946.0235,-197.3501 956.1269,-200.5394 955.9106,-193.5428"/>
</g>
<!-- Node13 -->
<g id="node13" class="node">
<title>Node13</title>
<g id="a_node13"><a xlink:href="sitkMaskImageFilter_8h.html" target="_top" xlink:title=" ">
<polygon fill="#ffffff" stroke="#000000" points="16.4343,-129 16.4343,-148 139.4343,-148 139.4343,-129 16.4343,-129"/>
<text text-anchor="middle" x="77.9343" y="-136" font-family="Helvetica,sans-Serif" font-size="10.00" fill="#000000">sitkMaskImageFilter.h</text>
</a>
</g>
</g>
<!-- Node1&#45;&gt;Node13 -->
<g id="edge25" class="edge">
<title>Node1&#45;&gt;Node13</title>
<path fill="none" stroke="#191970" d="M755.6807,-198.3084C618.0423,-194.8902 363.1201,-184.6309 147.9343,-154 137.4598,-152.509 126.2239,-150.2993 115.887,-148.0126"/>
<polygon fill="#191970" stroke="#191970" points="755.7095,-201.8101 765.7911,-198.5524 755.8785,-194.8121 755.7095,-201.8101"/>
</g>
<!-- Node14 -->
<g id="node14" class="node">
<title>Node14</title>
<g id="a_node14"><a xlink:href="sitkMorphologicalWatershedFromMarkersImageFilter_8h.html" target="_top" xlink:title=" ">
<polygon fill="#ffffff" stroke="#000000" points="157.4343,-123.5 157.4343,-153.5 312.4343,-153.5 312.4343,-123.5 157.4343,-123.5"/>
<text text-anchor="start" x="165.4343" y="-141.5" font-family="Helvetica,sans-Serif" font-size="10.00" fill="#000000">sitkMorphologicalWatershed</text>
<text text-anchor="middle" x="234.9343" y="-130.5" font-family="Helvetica,sans-Serif" font-size="10.00" fill="#000000">FromMarkersImageFilter.h</text>
</a>
</g>
</g>
<!-- Node1&#45;&gt;Node14 -->
<g id="edge28" class="edge">
<title>Node1&#45;&gt;Node14</title>
<path fill="none" stroke="#191970" d="M755.7156,-194.08C648.1828,-187.0951 472.5227,-173.8592 321.9343,-154 318.8922,-153.5988 315.7945,-153.1657 312.6683,-152.7081"/>
<polygon fill="#191970" stroke="#191970" points="755.7019,-197.5862 765.9062,-194.7364 756.1519,-190.6007 755.7019,-197.5862"/>
</g>
<!-- Node15 -->
<g id="node15" class="node">
<title>Node15</title>
<g id="a_node15"><a xlink:href="sitkResampleImageFilter_8h.html" target="_top" xlink:title=" ">
<polygon fill="#ffffff" stroke="#000000" points="330.9343,-129 330.9343,-148 476.9343,-148 476.9343,-129 330.9343,-129"/>
<text text-anchor="middle" x="403.9343" y="-136" font-family="Helvetica,sans-Serif" font-size="10.00" fill="#000000">sitkResampleImageFilter.h</text>
</a>
</g>
</g>
<!-- Node1&#45;&gt;Node15 -->
<g id="edge31" class="edge">
<title>Node1&#45;&gt;Node15</title>
<path fill="none" stroke="#191970" d="M756.0473,-189.3107C681.453,-180.9087 577.095,-168.268 485.9343,-154 474.7694,-152.2525 462.7957,-150.131 451.5425,-148.0256"/>
<polygon fill="#191970" stroke="#191970" points="756.0432,-192.8321 766.3708,-190.4678 756.823,-185.8756 756.0432,-192.8321"/>
</g>
<!-- Node16 -->
<g id="node16" class="node">
<title>Node16</title>
<g id="a_node16"><a xlink:href="sitkVectorIndexSelectionCastImageFilter_8h.html" target="_top" xlink:title=" ">
<polygon fill="#ffffff" stroke="#000000" points="495.4343,-123.5 495.4343,-153.5 632.4343,-153.5 632.4343,-123.5 495.4343,-123.5"/>
<text text-anchor="start" x="503.4343" y="-141.5" font-family="Helvetica,sans-Serif" font-size="10.00" fill="#000000">sitkVectorIndexSelection</text>
<text text-anchor="middle" x="563.9343" y="-130.5" font-family="Helvetica,sans-Serif" font-size="10.00" fill="#000000">CastImageFilter.h</text>
</a>
</g>
</g>
<!-- Node1&#45;&gt;Node16 -->
<g id="edge34" class="edge">
<title>Node1&#45;&gt;Node16</title>
<path fill="none" stroke="#191970" d="M800.7806,-188.3837C753.028,-178.3263 683.7592,-163.7371 632.4576,-152.9321"/>
<polygon fill="#191970" stroke="#191970" points="800.123,-191.8219 810.6297,-190.4581 801.5657,-184.9722 800.123,-191.8219"/>
</g>
<!-- Node17 -->
<g id="node17" class="node">
<title>Node17</title>
<g id="a_node17"><a xlink:href="sitkWarpImageFilter_8h.html" target="_top" xlink:title=" ">
<polygon fill="#ffffff" stroke="#000000" points="650.9343,-129 650.9343,-148 772.9343,-148 772.9343,-129 650.9343,-129"/>
<text text-anchor="middle" x="711.9343" y="-136" font-family="Helvetica,sans-Serif" font-size="10.00" fill="#000000">sitkWarpImageFilter.h</text>
</a>
</g>
</g>
<!-- Node1&#45;&gt;Node17 -->
<g id="edge37" class="edge">
<title>Node1&#45;&gt;Node17</title>
<path fill="none" stroke="#191970" d="M823.9565,-186.3428C796.7279,-174.7139 758.3073,-158.3051 734.2763,-148.0419"/>
<polygon fill="#191970" stroke="#191970" points="822.8632,-189.6817 833.4343,-190.3906 825.6126,-183.2442 822.8632,-189.6817"/>
</g>
<!-- Node3 -->
<g id="node3" class="node">
<title>Node3</title>
<g id="a_node3"><a xlink:href="SimpleITK_8h.html" target="_top" xlink:title=" ">
<polygon fill="#ffffff" stroke="#000000" points="462.4343,-.5 462.4343,-19.5 537.4343,-19.5 537.4343,-.5 462.4343,-.5"/>
<text text-anchor="middle" x="499.9343" y="-7.5" font-family="Helvetica,sans-Serif" font-size="10.00" fill="#000000">SimpleITK.h</text>
</a>
</g>
</g>
<!-- Node2&#45;&gt;Node3 -->
<g id="edge2" class="edge">
<title>Node2&#45;&gt;Node3</title>
<path fill="none" stroke="#191970" d="M360.0587,-58.6009C393.629,-46.9366 442.2864,-30.0302 472.4722,-19.5419"/>
<polygon fill="#191970" stroke="#191970" points="358.8878,-55.3023 350.5905,-61.8906 361.1853,-61.9146 358.8878,-55.3023"/>
</g>
<!-- Node5 -->
<g id="node5" class="node">
<title>Node5</title>
<g id="a_node5"><a xlink:href="CMakeTmp_2SimpleITKBasicFiltersGeneratedHeaders_8h.html" target="_top" xlink:title=" ">
<polygon fill="#ffffff" stroke="#000000" points="735.4343,-56.5 735.4343,-86.5 908.4343,-86.5 908.4343,-56.5 735.4343,-56.5"/>
<text text-anchor="start" x="743.4343" y="-74.5" font-family="Helvetica,sans-Serif" font-size="10.00" fill="#000000">SimpleITKBasicFiltersGenerated</text>
<text text-anchor="middle" x="821.9343" y="-63.5" font-family="Helvetica,sans-Serif" font-size="10.00" fill="#000000">Headers.h</text>
</a>
</g>
</g>
<!-- Node4&#45;&gt;Node5 -->
<g id="edge4" class="edge">
<title>Node4&#45;&gt;Node5</title>
<path fill="none" stroke="#191970" d="M846.4227,-119.7565C841.096,-109.2598 834.5435,-96.3476 829.5573,-86.5218"/>
<polygon fill="#191970" stroke="#191970" points="843.4164,-121.5669 851.0629,-128.9005 849.6587,-118.3992 843.4164,-121.5669"/>
</g>
<!-- Node6 -->
<g id="node6" class="node">
<title>Node6</title>
<g id="a_node6"><a xlink:href="include_2SimpleITKBasicFiltersGeneratedHeaders_8h.html" target="_top" xlink:title=" ">
<polygon fill="#ffffff" stroke="#000000" points="926.4343,-56.5 926.4343,-86.5 1099.4343,-86.5 1099.4343,-56.5 926.4343,-56.5"/>
<text text-anchor="start" x="934.4343" y="-74.5" font-family="Helvetica,sans-Serif" font-size="10.00" fill="#000000">SimpleITKBasicFiltersGenerated</text>
<text text-anchor="middle" x="1012.9343" y="-63.5" font-family="Helvetica,sans-Serif" font-size="10.00" fill="#000000">Headers.h</text>
</a>
</g>
</g>
<!-- Node4&#45;&gt;Node6 -->
<g id="edge5" class="edge">
<title>Node4&#45;&gt;Node6</title>
<path fill="none" stroke="#191970" d="M887.8586,-124.8763C913.9493,-113.742 950.7928,-98.019 977.734,-86.5218"/>
<polygon fill="#191970" stroke="#191970" points="886.2523,-121.7563 878.4286,-128.9005 888.9999,-128.1946 886.2523,-121.7563"/>
</g>
<!-- Node6&#45;&gt;Node3 -->
<g id="edge6" class="edge">
<title>Node6&#45;&gt;Node3</title>
<path fill="none" stroke="#191970" d="M916.2222,-55.8039C770.4998,-36.1562 609.1295,-20.234 537.4843,-13.47"/>
<polygon fill="#191970" stroke="#191970" points="915.8609,-59.2869 926.2409,-57.1641 916.8027,-52.3506 915.8609,-59.2869"/>
</g>
<!-- Node7&#45;&gt;Node5 -->
<g id="edge8" class="edge">
<title>Node7&#45;&gt;Node5</title>
<path fill="none" stroke="#191970" d="M960.5924,-120.1392C930.5572,-109.6033 893.3098,-96.5375 864.9854,-86.6017"/>
<polygon fill="#191970" stroke="#191970" points="959.4753,-123.4564 970.0702,-123.4639 961.7924,-116.851 959.4753,-123.4564"/>
</g>
<!-- Node7&#45;&gt;Node6 -->
<g id="edge9" class="edge">
<title>Node7&#45;&gt;Node6</title>
<path fill="none" stroke="#191970" d="M1012.9343,-113.0249C1012.9343,-104.128 1012.9343,-94.4287 1012.9343,-86.6432"/>
<polygon fill="#191970" stroke="#191970" points="1009.4344,-113.2966 1012.9343,-123.2967 1016.4344,-113.2967 1009.4344,-113.2966"/>
</g>
<!-- Node8&#45;&gt;Node5 -->
<g id="edge11" class="edge">
<title>Node8&#45;&gt;Node5</title>
<path fill="none" stroke="#191970" d="M1094.5033,-121.9479C1035.9041,-111.1022 959.9207,-97.0389 903.0702,-86.5169"/>
<polygon fill="#191970" stroke="#191970" points="1094.0218,-125.4181 1104.4918,-123.7966 1095.2958,-118.535 1094.0218,-125.4181"/>
</g>
<!-- Node8&#45;&gt;Node6 -->
<g id="edge12" class="edge">
<title>Node8&#45;&gt;Node6</title>
<path fill="none" stroke="#191970" d="M1136.0223,-119.7275C1109.3183,-109.2645 1076.5066,-96.4084 1051.4774,-86.6017"/>
<polygon fill="#191970" stroke="#191970" points="1134.9709,-123.0745 1145.5585,-123.4639 1137.5246,-116.5569 1134.9709,-123.0745"/>
</g>
<!-- Node9&#45;&gt;Node5 -->
<g id="edge14" class="edge">
<title>Node9&#45;&gt;Node5</title>
<path fill="none" stroke="#191970" d="M1301.923,-127.3988C1291.9012,-125.8186 1281.6484,-124.2936 1271.9343,-123 1115.1733,-102.1251 1074.73,-107.6126 917.9343,-87 914.8377,-86.5929 911.6873,-86.1637 908.507,-85.7177"/>
<polygon fill="#191970" stroke="#191970" points="1301.411,-130.8613 1311.8393,-128.9907 1302.5206,-123.9498 1301.411,-130.8613"/>
</g>
<!-- Node9&#45;&gt;Node6 -->
<g id="edge15" class="edge">
<title>Node9&#45;&gt;Node6</title>
<path fill="none" stroke="#191970" d="M1305.8421,-127.0944C1246.9863,-115.9235 1156.9623,-98.8368 1092.2557,-86.5553"/>
<polygon fill="#191970" stroke="#191970" points="1305.2556,-130.5455 1315.7329,-128.9717 1306.561,-123.6683 1305.2556,-130.5455"/>
</g>
<!-- Node10&#45;&gt;Node5 -->
<g id="edge17" class="edge">
<title>Node10&#45;&gt;Node5</title>
<path fill="none" stroke="#191970" d="M1458.8059,-122.9583C1218.6361,-93.6168 1154.5293,-113.8976 917.9343,-87 914.831,-86.6472 911.6749,-86.2644 908.4898,-85.8579"/>
<polygon fill="#191970" stroke="#191970" points="1458.5413,-126.4521 1468.8956,-124.2073 1459.4013,-119.5052 1458.5413,-126.4521"/>
</g>
<!-- Node10&#45;&gt;Node6 -->
<g id="edge18" class="edge">
<title>Node10&#45;&gt;Node6</title>
<path fill="none" stroke="#191970" d="M1458.6648,-122.8687C1327.8244,-103.5346 1187.6296,-88.487 1099.6913,-79.7368"/>
<polygon fill="#191970" stroke="#191970" points="1458.4642,-126.3774 1468.8707,-124.3885 1459.4953,-119.4537 1458.4642,-126.3774"/>
</g>
<!-- Node11&#45;&gt;Node5 -->
<g id="edge20" class="edge">
<title>Node11&#45;&gt;Node5</title>
<path fill="none" stroke="#191970" d="M1658.8945,-127.2925C1648.6038,-125.6369 1637.9801,-124.1157 1627.9343,-123 1313.904,-88.1244 1232.1428,-120.2309 917.9343,-87 914.8283,-86.6715 911.67,-86.3096 908.4829,-85.9207"/>
<polygon fill="#191970" stroke="#191970" points="1658.6013,-130.7918 1669.0406,-128.9828 1659.7517,-123.887 1658.6013,-130.7918"/>
</g>
<!-- Node11&#45;&gt;Node6 -->
<g id="edge21" class="edge">
<title>Node11&#45;&gt;Node6</title>
<path fill="none" stroke="#191970" d="M1657.0996,-127.2841C1647.3664,-125.703 1637.3891,-124.2077 1627.9343,-123 1440.2155,-99.0217 1218.7749,-83.6157 1099.5023,-76.3673"/>
<polygon fill="#191970" stroke="#191970" points="1656.6826,-130.7628 1667.1219,-128.9545 1657.8334,-123.8581 1656.6826,-130.7628"/>
</g>
<!-- Node12&#45;&gt;Node5 -->
<g id="edge23" class="edge">
<title>Node12&#45;&gt;Node5</title>
<path fill="none" stroke="#191970" d="M1807.1669,-123.0486C1413.092,-77.1082 1308.556,-126.2924 917.9343,-87 914.8267,-86.6874 911.6669,-86.3391 908.4787,-85.9617"/>
<polygon fill="#191970" stroke="#191970" points="1806.7826,-126.5274 1817.1236,-124.2223 1807.6021,-119.5755 1806.7826,-126.5274"/>
</g>
<!-- Node12&#45;&gt;Node6 -->
<g id="edge24" class="edge">
<title>Node12&#45;&gt;Node6</title>
<path fill="none" stroke="#191970" d="M1806.9832,-122.9947C1543.9248,-89.0817 1244.0456,-77.3525 1099.4684,-73.3842"/>
<polygon fill="#191970" stroke="#191970" points="1806.7438,-126.493 1817.1121,-124.3139 1807.648,-119.5516 1806.7438,-126.493"/>
</g>
<!-- Node13&#45;&gt;Node5 -->
<g id="edge26" class="edge">
<title>Node13&#45;&gt;Node5</title>
<path fill="none" stroke="#191970" d="M126.0617,-126.9058C133.3589,-125.4204 140.8237,-124.0535 147.9343,-123 357.4728,-91.9554 606.5983,-79.0861 735.3181,-74.1954"/>
<polygon fill="#191970" stroke="#191970" points="125.3186,-123.4855 116.2637,-128.9865 126.7727,-130.3328 125.3186,-123.4855"/>
</g>
<!-- Node13&#45;&gt;Node6 -->
<g id="edge27" class="edge">
<title>Node13&#45;&gt;Node6</title>
<path fill="none" stroke="#191970" d="M125.5139,-126.8211C132.98,-125.3202 140.6392,-123.9709 147.9343,-123 487.5357,-77.8013 577.1974,-122.6428 917.9343,-87 920.6767,-86.7131 923.4602,-86.3989 926.2681,-86.0619"/>
<polygon fill="#191970" stroke="#191970" points="124.5628,-123.4449 115.505,-128.9408 126.0131,-130.293 124.5628,-123.4449"/>
</g>
<!-- Node14&#45;&gt;Node5 -->
<g id="edge29" class="edge">
<title>Node14&#45;&gt;Node5</title>
<path fill="none" stroke="#191970" d="M322.6097,-122.9696C473.7012,-102.0358 637.7071,-86.7675 735.4333,-78.4613"/>
<polygon fill="#191970" stroke="#191970" points="322.0969,-119.5071 312.6771,-124.3566 323.0651,-126.4399 322.0969,-119.5071"/>
</g>
<!-- Node14&#45;&gt;Node6 -->
<g id="edge30" class="edge">
<title>Node14&#45;&gt;Node6</title>
<path fill="none" stroke="#191970" d="M322.9477,-122.9815C587.2275,-92.2936 657.5449,-116.0307 917.9343,-87 920.6746,-86.6945 923.4564,-86.364 926.2628,-86.0129"/>
<polygon fill="#191970" stroke="#191970" points="322.1783,-119.5478 312.6559,-124.1925 322.9964,-126.4998 322.1783,-119.5478"/>
</g>
<!-- Node15&#45;&gt;Node5 -->
<g id="edge32" class="edge">
<title>Node15&#45;&gt;Node5</title>
<path fill="none" stroke="#191970" d="M462.9462,-127.0913C470.6714,-125.6724 478.4871,-124.2742 485.9343,-123 570.4252,-108.5439 667.2049,-93.9131 735.129,-83.9595"/>
<polygon fill="#191970" stroke="#191970" points="462.0746,-123.6932 452.8815,-128.9598 463.3524,-130.5757 462.0746,-123.6932"/>
</g>
<!-- Node15&#45;&gt;Node6 -->
<g id="edge33" class="edge">
<title>Node15&#45;&gt;Node6</title>
<path fill="none" stroke="#191970" d="M459.8553,-127.1291C468.5614,-125.5907 477.473,-124.1491 485.9343,-123 676.8473,-97.0728 726.7111,-110.5305 917.9343,-87 920.671,-86.6632 923.4495,-86.3055 926.2532,-85.9309"/>
<polygon fill="#191970" stroke="#191970" points="458.979,-123.7311 449.7689,-128.9679 460.2345,-130.6176 458.979,-123.7311"/>
</g>
<!-- Node16&#45;&gt;Node5 -->
<g id="edge35" class="edge">
<title>Node16&#45;&gt;Node5</title>
<path fill="none" stroke="#191970" d="M631.7559,-120.8874C672.8053,-110.2273 724.6104,-96.774 763.7815,-86.6017"/>
<polygon fill="#191970" stroke="#191970" points="630.6337,-117.5627 621.8345,-123.4639 632.3932,-124.3379 630.6337,-117.5627"/>
</g>
<!-- Node16&#45;&gt;Node6 -->
<g id="edge36" class="edge">
<title>Node16&#45;&gt;Node6</title>
<path fill="none" stroke="#191970" d="M642.967,-122.8967C765.7279,-103.0265 798.7668,-104.4888 917.9343,-87 920.6624,-86.5996 923.4335,-86.1865 926.2307,-85.7639"/>
<polygon fill="#191970" stroke="#191970" points="642.0975,-119.4922 632.7926,-124.5587 643.2261,-126.4007 642.0975,-119.4922"/>
</g>
<!-- Node17&#45;&gt;Node5 -->
<g id="edge38" class="edge">
<title>Node17&#45;&gt;Node5</title>
<path fill="none" stroke="#191970" d="M736.5105,-123.5308C754.6178,-112.5019 779.1441,-97.5631 797.2717,-86.5218"/>
<polygon fill="#191970" stroke="#191970" points="734.4144,-120.7094 727.6946,-128.9005 738.0558,-126.6877 734.4144,-120.7094"/>
</g>
<!-- Node17&#45;&gt;Node6 -->
<g id="edge39" class="edge">
<title>Node17&#45;&gt;Node6</title>
<path fill="none" stroke="#191970" d="M764.7382,-126.7463C814.9439,-115.571 890.6928,-98.7099 945.2976,-86.5553"/>
<polygon fill="#191970" stroke="#191970" points="763.7412,-123.3825 754.7406,-128.9717 765.2622,-130.2153 763.7412,-123.3825"/>
</g>
</g>
</svg>
        <g id="navigator" transform="translate(0 0)" fill="#404254">
                <rect fill="#f2f5e9" fill-opacity="0.5" stroke="#606060" stroke-width=".5" x="0" y="0" width="60" height="60"/>
                <use id="zoomplus" xlink:href="#zoomPlus" x="17" y="9" onmousedown="handleZoom(evt,'in')"/>
                <use id="zoomminus" xlink:href="#zoomMin" x="42" y="9" onmousedown="handleZoom(evt,'out')"/>
                <use id="reset" xlink:href="#resetDef" x="30" y="36" onmousedown="handleReset()"/>
                <g id="arrowUp" xlink:href="#dirArrow" transform="translate(30 24)" onmousedown="handlePan(0,-1)">
                  <use xlink:href="#rim" fill="#404040">
                        <set attributeName="fill" to="#808080" begin="arrowUp.mouseover" end="arrowUp.mouseout"/>
                  </use>
                  <path fill="none" stroke="white" stroke-width="1.5" d="M0,-3.0v7 M-2.5,-0.5L0,-3.0L2.5,-0.5"/>
                </g>
                <g id="arrowRight" xlink:href="#dirArrow" transform="rotate(90) translate(36 -43)" onmousedown="handlePan(1,0)">
                  <use xlink:href="#rim" fill="#404040">
                        <set attributeName="fill" to="#808080" begin="arrowRight.mouseover" end="arrowRight.mouseout"/>
                  </use>
                  <path fill="none" stroke="white" stroke-width="1.5" d="M0,-3.0v7 M-2.5,-0.5L0,-3.0L2.5,-0.5"/>
                </g>
                <g id="arrowDown" xlink:href="#dirArrow" transform="rotate(180) translate(-30 -48)" onmousedown="handlePan(0,1)">
                  <use xlink:href="#rim" fill="#404040">
                        <set attributeName="fill" to="#808080" begin="arrowDown.mouseover" end="arrowDown.mouseout"/>
                  </use>
                  <path fill="none" stroke="white" stroke-width="1.5" d="M0,-3.0v7 M-2.5,-0.5L0,-3.0L2.5,-0.5"/>
                </g>
                <g id="arrowLeft" xlink:href="#dirArrow" transform="rotate(270) translate(-36 17)" onmousedown="handlePan(-1,0)">
                  <use xlink:href="#rim" fill="#404040">
                        <set attributeName="fill" to="#808080" begin="arrowLeft.mouseover" end="arrowLeft.mouseout"/>
                  </use>
                  <path fill="none" stroke="white" stroke-width="1.5" d="M0,-3.0v7 M-2.5,-0.5L0,-3.0L2.5,-0.5"/>
                </g>
        </g>
        <svg viewBox="0 0 15 15" width="100%" height="30px" preserveAspectRatio="xMaxYMin meet">
         <g id="arrow_out" transform="scale(0.3 0.3)">
          <a xlink:href="sitkDualMemberFunctionFactory_8h__dep__incl_org.svg" target="_base">
           <rect id="button" ry="5" rx="5" y="6" x="6" height="38" width="38"
                fill="#f2f5e9" fill-opacity="0.5" stroke="#606060" stroke-width="1.0"/>
           <path id="arrow"
             d="M 11.500037,31.436501 C 11.940474,20.09759 22.043105,11.32322 32.158766,21.979434 L 37.068811,17.246167 C 37.068811,17.246167 37.088388,32 37.088388,32 L 22.160133,31.978069 C 22.160133,31.978069 26.997745,27.140456 26.997745,27.140456 C 18.528582,18.264221 13.291696,25.230495 11.500037,31.436501 z"
             style="fill:#404040;"/>
          </a>
         </g>
        </svg>
</svg>
