<?xml version="1.0" encoding="UTF-8" standalone="no"?>
<!DOCTYPE svg PUBLIC "-//W3C//DTD SVG 1.1//EN"
 "http://www.w3.org/Graphics/SVG/1.1/DTD/svg11.dtd">
<!-- Generated by graphviz version 2.40.1 (20161225.0304)
 -->
<!-- Title: sitkImageIOUtilities.h Pages: 1 -->
<svg width="193pt" height="84pt"
 viewBox="0.00 0.00 192.50 84.00" xmlns="http://www.w3.org/2000/svg" xmlns:xlink="http://www.w3.org/1999/xlink">
<g id="graph0" class="graph" transform="scale(1 1) rotate(0) translate(4 80)">
<title>sitkImageIOUtilities.h</title>
<polygon fill="#ffffff" stroke="transparent" points="-4,4 -4,-80 188.5,-80 188.5,4 -4,4"/>
<!-- Node1 -->
<g id="node1" class="node">
<title>Node1</title>
<g id="a_node1"><a xlink:title=" ">
<polygon fill="#bfbfbf" stroke="#000000" points="24.5,-56.5 24.5,-75.5 147.5,-75.5 147.5,-56.5 24.5,-56.5"/>
<text text-anchor="middle" x="86" y="-63.5" font-family="Helvetica,sans-Serif" font-size="10.00" fill="#000000">sitkImageIOUtilities.h</text>
</a>
</g>
</g>
<!-- Node2 -->
<g id="node2" class="node">
<title>Node2</title>
<g id="a_node2"><a xlink:title=" ">
<polygon fill="#ffffff" stroke="#bfbfbf" points="0,-.5 0,-19.5 44,-19.5 44,-.5 0,-.5"/>
<text text-anchor="middle" x="22" y="-7.5" font-family="Helvetica,sans-Serif" font-size="10.00" fill="#000000">string</text>
</a>
</g>
</g>
<!-- Node1&#45;&gt;Node2 -->
<g id="edge1" class="edge">
<title>Node1&#45;&gt;Node2</title>
<path fill="none" stroke="#191970" d="M74.8521,-56.2455C65.4913,-48.0549 51.9142,-36.1749 40.8651,-26.5069"/>
<polygon fill="#191970" stroke="#191970" points="42.8508,-23.5937 33.0202,-19.6427 38.2412,-28.8618 42.8508,-23.5937"/>
</g>
<!-- Node3 -->
<g id="node3" class="node">
<title>Node3</title>
<g id="a_node3"><a xlink:title=" ">
<polygon fill="#ffffff" stroke="#bfbfbf" points="62.5,-.5 62.5,-19.5 109.5,-19.5 109.5,-.5 62.5,-.5"/>
<text text-anchor="middle" x="86" y="-7.5" font-family="Helvetica,sans-Serif" font-size="10.00" fill="#000000">vector</text>
</a>
</g>
</g>
<!-- Node1&#45;&gt;Node3 -->
<g id="edge2" class="edge">
<title>Node1&#45;&gt;Node3</title>
<path fill="none" stroke="#191970" d="M86,-56.2455C86,-48.9382 86,-38.6944 86,-29.7046"/>
<polygon fill="#191970" stroke="#191970" points="89.5001,-29.6426 86,-19.6427 82.5001,-29.6427 89.5001,-29.6426"/>
</g>
<!-- Node4 -->
<g id="node4" class="node">
<title>Node4</title>
<g id="a_node4"><a xlink:title=" ">
<polygon fill="#ffffff" stroke="#bfbfbf" points="127.5,-.5 127.5,-19.5 184.5,-19.5 184.5,-.5 127.5,-.5"/>
<text text-anchor="middle" x="156" y="-7.5" font-family="Helvetica,sans-Serif" font-size="10.00" fill="#000000">ostream</text>
</a>
</g>
</g>
<!-- Node1&#45;&gt;Node4 -->
<g id="edge3" class="edge">
<title>Node1&#45;&gt;Node4</title>
<path fill="none" stroke="#191970" d="M98.1931,-56.2455C108.6321,-47.8943 123.8655,-35.7076 136.074,-25.9408"/>
<polygon fill="#191970" stroke="#191970" points="138.3244,-28.6227 143.9467,-19.6427 133.9515,-23.1566 138.3244,-28.6227"/>
</g>
</g>
</svg>
