<?xml version="1.0" encoding="UTF-8" standalone="no"?>
<!DOCTYPE svg PUBLIC "-//W3C//DTD SVG 1.1//EN"
 "http://www.w3.org/Graphics/SVG/1.1/DTD/svg11.dtd">
<!-- Generated by graphviz version 2.40.1 (20161225.0304)
 -->
<!-- Title: sitkAndImageFilter.h Pages: 1 -->
<svg width="513pt" height="151pt"
 viewBox="0.00 0.00 512.50 151.00" xmlns="http://www.w3.org/2000/svg" xmlns:xlink="http://www.w3.org/1999/xlink">
<g id="graph0" class="graph" transform="scale(1 1) rotate(0) translate(4 147)">
<title>sitkAndImageFilter.h</title>
<polygon fill="#ffffff" stroke="transparent" points="-4,4 -4,-147 508.5,-147 508.5,4 -4,4"/>
<!-- Node1 -->
<g id="node1" class="node">
<title>Node1</title>
<g id="a_node1"><a xlink:title=" ">
<polygon fill="#bfbfbf" stroke="#000000" points="169,-123.5 169,-142.5 285,-142.5 285,-123.5 169,-123.5"/>
<text text-anchor="middle" x="227" y="-130.5" font-family="Helvetica,sans-Serif" font-size="10.00" fill="#000000">sitkAndImageFilter.h</text>
</a>
</g>
</g>
<!-- Node2 -->
<g id="node2" class="node">
<title>Node2</title>
<g id="a_node2"><a xlink:href="sitkImageOperators_8h.html" target="_top" xlink:title=" ">
<polygon fill="#ffffff" stroke="#000000" points="0,-62 0,-81 122,-81 122,-62 0,-62"/>
<text text-anchor="middle" x="61" y="-69" font-family="Helvetica,sans-Serif" font-size="10.00" fill="#000000">sitkImageOperators.h</text>
</a>
</g>
</g>
<!-- Node1&#45;&gt;Node2 -->
<g id="edge1" class="edge">
<title>Node1&#45;&gt;Node2</title>
<path fill="none" stroke="#191970" d="M191.3689,-119.7993C159.9166,-108.1468 114.8222,-91.4402 86.7554,-81.0419"/>
<polygon fill="#191970" stroke="#191970" points="190.4694,-123.1985 201.0625,-123.3906 192.9013,-116.6345 190.4694,-123.1985"/>
</g>
<!-- Node3 -->
<g id="node3" class="node">
<title>Node3</title>
<g id="a_node3"><a xlink:href="CMakeTmp_2SimpleITKBasicFiltersGeneratedHeaders_8h.html" target="_top" xlink:title=" ">
<polygon fill="#ffffff" stroke="#000000" points="140.5,-56.5 140.5,-86.5 313.5,-86.5 313.5,-56.5 140.5,-56.5"/>
<text text-anchor="start" x="148.5" y="-74.5" font-family="Helvetica,sans-Serif" font-size="10.00" fill="#000000">SimpleITKBasicFiltersGenerated</text>
<text text-anchor="middle" x="227" y="-63.5" font-family="Helvetica,sans-Serif" font-size="10.00" fill="#000000">Headers.h</text>
</a>
</g>
</g>
<!-- Node1&#45;&gt;Node3 -->
<g id="edge2" class="edge">
<title>Node1&#45;&gt;Node3</title>
<path fill="none" stroke="#191970" d="M227,-113.3693C227,-104.681 227,-94.6241 227,-86.5446"/>
<polygon fill="#191970" stroke="#191970" points="223.5001,-113.3906 227,-123.3906 230.5001,-113.3907 223.5001,-113.3906"/>
</g>
<!-- Node4 -->
<g id="node4" class="node">
<title>Node4</title>
<g id="a_node4"><a xlink:href="include_2SimpleITKBasicFiltersGeneratedHeaders_8h.html" target="_top" xlink:title=" ">
<polygon fill="#ffffff" stroke="#000000" points="331.5,-56.5 331.5,-86.5 504.5,-86.5 504.5,-56.5 331.5,-56.5"/>
<text text-anchor="start" x="339.5" y="-74.5" font-family="Helvetica,sans-Serif" font-size="10.00" fill="#000000">SimpleITKBasicFiltersGenerated</text>
<text text-anchor="middle" x="418" y="-63.5" font-family="Helvetica,sans-Serif" font-size="10.00" fill="#000000">Headers.h</text>
</a>
</g>
</g>
<!-- Node1&#45;&gt;Node4 -->
<g id="edge3" class="edge">
<title>Node1&#45;&gt;Node4</title>
<path fill="none" stroke="#191970" d="M266.6877,-120.221C297.1242,-110.4207 339.2135,-96.8684 371.2761,-86.5446"/>
<polygon fill="#191970" stroke="#191970" points="265.2897,-116.9941 256.8438,-123.3906 267.4352,-123.6572 265.2897,-116.9941"/>
</g>
<!-- Node5 -->
<g id="node5" class="node">
<title>Node5</title>
<g id="a_node5"><a xlink:href="SimpleITK_8h.html" target="_top" xlink:title=" ">
<polygon fill="#ffffff" stroke="#000000" points="380.5,-.5 380.5,-19.5 455.5,-19.5 455.5,-.5 380.5,-.5"/>
<text text-anchor="middle" x="418" y="-7.5" font-family="Helvetica,sans-Serif" font-size="10.00" fill="#000000">SimpleITK.h</text>
</a>
</g>
</g>
<!-- Node4&#45;&gt;Node5 -->
<g id="edge4" class="edge">
<title>Node4&#45;&gt;Node5</title>
<path fill="none" stroke="#191970" d="M418,-46.2849C418,-36.9858 418,-26.9883 418,-19.8469"/>
<polygon fill="#191970" stroke="#191970" points="414.5001,-46.2977 418,-56.2977 421.5001,-46.2978 414.5001,-46.2977"/>
</g>
</g>
</svg>
