<?xml version="1.0" encoding="UTF-8" standalone="no"?>
<!DOCTYPE svg PUBLIC "-//W3C//DTD SVG 1.1//EN"
 "http://www.w3.org/Graphics/SVG/1.1/DTD/svg11.dtd">
<!-- Generated by graphviz version 2.40.1 (20161225.0304)
 -->
<!-- Title: sitkImageConvert.h Pages: 1 -->
<svg width="7389pt" height="274pt"
 viewBox="0.00 0.00 7388.50 274.00" xmlns="http://www.w3.org/2000/svg" xmlns:xlink="http://www.w3.org/1999/xlink">
<g id="graph0" class="graph" transform="scale(1 1) rotate(0) translate(4 270)">
<title>sitkImageConvert.h</title>
<polygon fill="#ffffff" stroke="transparent" points="-4,4 -4,-270 7384.5,-270 7384.5,4 -4,4"/>
<!-- Node1 -->
<g id="node1" class="node">
<title>Node1</title>
<g id="a_node1"><a xlink:title=" ">
<polygon fill="#bfbfbf" stroke="#000000" points="6570.5,-246.5 6570.5,-265.5 6683.5,-265.5 6683.5,-246.5 6570.5,-246.5"/>
<text text-anchor="middle" x="6627" y="-253.5" font-family="Helvetica,sans-Serif" font-size="10.00" fill="#000000">sitkImageConvert.h</text>
</a>
</g>
</g>
<!-- Node2 -->
<g id="node2" class="node">
<title>Node2</title>
<g id="a_node2"><a xlink:href="sitkProcessObject_8h.html" target="_top" xlink:title=" ">
<polygon fill="#ffffff" stroke="#000000" points="6570.5,-190.5 6570.5,-209.5 6683.5,-209.5 6683.5,-190.5 6570.5,-190.5"/>
<text text-anchor="middle" x="6627" y="-197.5" font-family="Helvetica,sans-Serif" font-size="10.00" fill="#000000">sitkProcessObject.h</text>
</a>
</g>
</g>
<!-- Node1&#45;&gt;Node2 -->
<g id="edge1" class="edge">
<title>Node1&#45;&gt;Node2</title>
<path fill="none" stroke="#191970" d="M6627,-236.1575C6627,-227.155 6627,-216.9199 6627,-209.6427"/>
<polygon fill="#191970" stroke="#191970" points="6623.5001,-236.2455 6627,-246.2455 6630.5001,-236.2456 6623.5001,-236.2455"/>
</g>
<!-- Node3 -->
<g id="node3" class="node">
<title>Node3</title>
<g id="a_node3"><a xlink:href="sitkImageFilter_8h.html" target="_top" xlink:title=" ">
<polygon fill="#ffffff" stroke="#ff0000" points="2975,-129 2975,-148 3073,-148 3073,-129 2975,-129"/>
<text text-anchor="middle" x="3024" y="-136" font-family="Helvetica,sans-Serif" font-size="10.00" fill="#000000">sitkImageFilter.h</text>
</a>
</g>
</g>
<!-- Node2&#45;&gt;Node3 -->
<g id="edge2" class="edge">
<title>Node2&#45;&gt;Node3</title>
<path fill="none" stroke="#191970" d="M6560.3878,-198.863C6105.7706,-191.1031 3466.3068,-146.0498 3073.0061,-139.3365"/>
<polygon fill="#191970" stroke="#191970" points="6560.3472,-202.3627 6570.4055,-199.034 6560.4667,-195.3637 6560.3472,-202.3627"/>
</g>
<!-- Node5 -->
<g id="node5" class="node">
<title>Node5</title>
<g id="a_node5"><a xlink:href="SimpleITK_8h.html" target="_top" xlink:title=" ">
<polygon fill="#ffffff" stroke="#000000" points="6350.5,-.5 6350.5,-19.5 6425.5,-19.5 6425.5,-.5 6350.5,-.5"/>
<text text-anchor="middle" x="6388" y="-7.5" font-family="Helvetica,sans-Serif" font-size="10.00" fill="#000000">SimpleITK.h</text>
</a>
</g>
</g>
<!-- Node2&#45;&gt;Node5 -->
<g id="edge53" class="edge">
<title>Node2&#45;&gt;Node5</title>
<path fill="none" stroke="#191970" d="M6559.8334,-197.867C6442.3448,-193.4386 6209.5998,-181.2929 6185,-154 6175.7756,-143.7658 6176.2428,-133.6366 6185,-123 6237.9639,-58.6694 6308.6606,-144.4697 6369,-87 6387.7443,-69.1472 6389.2047,-35.9891 6388.6581,-19.6335"/>
<polygon fill="#191970" stroke="#191970" points="6560.0253,-201.3764 6570.1474,-198.2471 6560.2831,-194.3811 6560.0253,-201.3764"/>
</g>
<!-- Node8 -->
<g id="node8" class="node">
<title>Node8</title>
<g id="a_node8"><a xlink:href="sitkHashImageFilter_8h.html" target="_top" xlink:title=" ">
<polygon fill="#ffffff" stroke="#000000" points="6238,-62 6238,-81 6360,-81 6360,-62 6238,-62"/>
<text text-anchor="middle" x="6299" y="-69" font-family="Helvetica,sans-Serif" font-size="10.00" fill="#000000">sitkHashImageFilter.h</text>
</a>
</g>
</g>
<!-- Node2&#45;&gt;Node8 -->
<g id="edge52" class="edge">
<title>Node2&#45;&gt;Node8</title>
<path fill="none" stroke="#191970" d="M6560.2093,-198.4198C6435.6408,-194.7783 6177.9732,-183.7055 6151,-154 6141.738,-143.7998 6143.0175,-134.2297 6151,-123 6163.2946,-105.7041 6215.5632,-90.3637 6254.522,-81.0181"/>
<polygon fill="#191970" stroke="#191970" points="6560.2959,-201.9235 6570.3915,-198.7095 6560.4951,-194.9264 6560.2959,-201.9235"/>
</g>
<!-- Node304 -->
<g id="node43" class="node">
<title>Node304</title>
<g id="a_node43"><a xlink:href="sitkCenteredTransformInitializerFilter_8h.html" target="_top" xlink:title=" ">
<polygon fill="#ffffff" stroke="#000000" points="6193.5,-123.5 6193.5,-153.5 6366.5,-153.5 6366.5,-123.5 6193.5,-123.5"/>
<text text-anchor="start" x="6201.5" y="-141.5" font-family="Helvetica,sans-Serif" font-size="10.00" fill="#000000">sitkCenteredTransformInitializer</text>
<text text-anchor="middle" x="6280" y="-130.5" font-family="Helvetica,sans-Serif" font-size="10.00" fill="#000000">Filter.h</text>
</a>
</g>
</g>
<!-- Node2&#45;&gt;Node304 -->
<g id="edge48" class="edge">
<title>Node2&#45;&gt;Node304</title>
<path fill="none" stroke="#191970" d="M6563.0551,-188.6668C6507.2768,-178.781 6425.9317,-164.364 6364.7431,-153.5193"/>
<polygon fill="#191970" stroke="#191970" points="6562.7046,-192.1592 6573.162,-190.4581 6563.9263,-185.2666 6562.7046,-192.1592"/>
</g>
<!-- Node305 -->
<g id="node44" class="node">
<title>Node305</title>
<g id="a_node44"><a xlink:href="sitkCenteredVersorTransformInitializerFilter_8h.html" target="_top" xlink:title=" ">
<polygon fill="#ffffff" stroke="#000000" points="6385,-123.5 6385,-153.5 6543,-153.5 6543,-123.5 6385,-123.5"/>
<text text-anchor="start" x="6393" y="-141.5" font-family="Helvetica,sans-Serif" font-size="10.00" fill="#000000">sitkCenteredVersorTransform</text>
<text text-anchor="middle" x="6464" y="-130.5" font-family="Helvetica,sans-Serif" font-size="10.00" fill="#000000">InitializerFilter.h</text>
</a>
</g>
</g>
<!-- Node2&#45;&gt;Node305 -->
<g id="edge50" class="edge">
<title>Node2&#45;&gt;Node305</title>
<path fill="none" stroke="#191970" d="M6592.109,-186.8356C6566.2202,-177.0678 6530.8797,-163.7338 6503.8743,-153.5446"/>
<polygon fill="#191970" stroke="#191970" points="6590.9395,-190.1351 6601.5313,-190.3906 6593.4106,-183.5858 6590.9395,-190.1351"/>
</g>
<!-- Node306 -->
<g id="node45" class="node">
<title>Node306</title>
<g id="a_node45"><a xlink:href="sitkImageReaderBase_8h.html" target="_top" xlink:title=" ">
<polygon fill="#ffffff" stroke="#ff0000" points="6561,-129 6561,-148 6693,-148 6693,-129 6561,-129"/>
<text text-anchor="middle" x="6627" y="-136" font-family="Helvetica,sans-Serif" font-size="10.00" fill="#000000">sitkImageReaderBase.h</text>
</a>
</g>
</g>
<!-- Node2&#45;&gt;Node306 -->
<g id="edge54" class="edge">
<title>Node2&#45;&gt;Node306</title>
<path fill="none" stroke="#191970" d="M6627,-180.2462C6627,-169.5519 6627,-156.814 6627,-148.2449"/>
<polygon fill="#191970" stroke="#191970" points="6623.5001,-180.3906 6627,-190.3906 6630.5001,-180.3907 6623.5001,-180.3906"/>
</g>
<!-- Node310 -->
<g id="node46" class="node">
<title>Node310</title>
<g id="a_node46"><a xlink:href="sitkImageFileWriter_8h.html" target="_top" xlink:title=" ">
<polygon fill="#ffffff" stroke="#000000" points="6711.5,-129 6711.5,-148 6830.5,-148 6830.5,-129 6711.5,-129"/>
<text text-anchor="middle" x="6771" y="-136" font-family="Helvetica,sans-Serif" font-size="10.00" fill="#000000">sitkImageFileWriter.h</text>
</a>
</g>
</g>
<!-- Node2&#45;&gt;Node310 -->
<g id="edge55" class="edge">
<title>Node2&#45;&gt;Node310</title>
<path fill="none" stroke="#191970" d="M6658.9778,-186.3428C6686.2064,-174.7139 6724.627,-158.3051 6748.658,-148.0419"/>
<polygon fill="#191970" stroke="#191970" points="6657.3217,-183.2442 6649.5,-190.3906 6660.0711,-189.6817 6657.3217,-183.2442"/>
</g>
<!-- Node311 -->
<g id="node47" class="node">
<title>Node311</title>
<g id="a_node47"><a xlink:href="sitkImageSeriesWriter_8h.html" target="_top" xlink:title=" ">
<polygon fill="#ffffff" stroke="#000000" points="6848.5,-129 6848.5,-148 6981.5,-148 6981.5,-129 6848.5,-129"/>
<text text-anchor="middle" x="6915" y="-136" font-family="Helvetica,sans-Serif" font-size="10.00" fill="#000000">sitkImageSeriesWriter.h</text>
</a>
</g>
</g>
<!-- Node2&#45;&gt;Node311 -->
<g id="edge57" class="edge">
<title>Node2&#45;&gt;Node311</title>
<path fill="none" stroke="#191970" d="M6681.5423,-188.3529C6736.1889,-176.6836 6819.2985,-158.9363 6870.2112,-148.0643"/>
<polygon fill="#191970" stroke="#191970" points="6680.7326,-184.9469 6671.684,-190.4581 6682.1945,-191.7925 6680.7326,-184.9469"/>
</g>
<!-- Node312 -->
<g id="node48" class="node">
<title>Node312</title>
<g id="a_node48"><a xlink:href="sitkImageViewer_8h.html" target="_top" xlink:title=" ">
<polygon fill="#ffffff" stroke="#000000" points="6999.5,-129 6999.5,-148 7106.5,-148 7106.5,-129 6999.5,-129"/>
<text text-anchor="middle" x="7053" y="-136" font-family="Helvetica,sans-Serif" font-size="10.00" fill="#000000">sitkImageViewer.h</text>
</a>
</g>
</g>
<!-- Node2&#45;&gt;Node312 -->
<g id="edge59" class="edge">
<title>Node2&#45;&gt;Node312</title>
<path fill="none" stroke="#191970" d="M6693.7761,-193.9732C6767.0644,-186.799 6888.0053,-173.311 6991,-154 6999.8332,-152.3438 7009.2836,-150.184 7018.0764,-148.0049"/>
<polygon fill="#191970" stroke="#191970" points="6693.3739,-190.4957 6683.7579,-194.9436 6694.0488,-197.4631 6693.3739,-190.4957"/>
</g>
<!-- Node313 -->
<g id="node49" class="node">
<title>Node313</title>
<g id="a_node49"><a xlink:href="sitkShow_8h.html" target="_top" xlink:title=" ">
<polygon fill="#ffffff" stroke="#000000" points="7124.5,-129 7124.5,-148 7193.5,-148 7193.5,-129 7124.5,-129"/>
<text text-anchor="middle" x="7159" y="-136" font-family="Helvetica,sans-Serif" font-size="10.00" fill="#000000">sitkShow.h</text>
</a>
</g>
</g>
<!-- Node2&#45;&gt;Node313 -->
<g id="edge61" class="edge">
<title>Node2&#45;&gt;Node313</title>
<path fill="none" stroke="#191970" d="M6693.7116,-195.8137C6808.1949,-188.2804 7037.3409,-171.5798 7116,-154 7122.5053,-152.5461 7129.3711,-150.3775 7135.6605,-148.1198"/>
<polygon fill="#191970" stroke="#191970" points="6693.4168,-192.3254 6683.6665,-196.4705 6693.8736,-199.3105 6693.4168,-192.3254"/>
</g>
<!-- Node314 -->
<g id="node50" class="node">
<title>Node314</title>
<g id="a_node50"><a xlink:href="sitkImageRegistrationMethod_8h.html" target="_top" xlink:title=" ">
<polygon fill="#ffffff" stroke="#000000" points="7211.5,-129 7211.5,-148 7380.5,-148 7380.5,-129 7211.5,-129"/>
<text text-anchor="middle" x="7296" y="-136" font-family="Helvetica,sans-Serif" font-size="10.00" fill="#000000">sitkImageRegistrationMethod.h</text>
</a>
</g>
</g>
<!-- Node2&#45;&gt;Node314 -->
<g id="edge63" class="edge">
<title>Node2&#45;&gt;Node314</title>
<path fill="none" stroke="#191970" d="M6693.625,-196.5334C6801.0924,-190.5254 7019.2511,-176.6077 7203,-154 7216.1593,-152.3809 7230.3017,-150.2347 7243.4877,-148.057"/>
<polygon fill="#191970" stroke="#191970" points="6693.3664,-193.0422 6683.5754,-197.0901 6693.7537,-200.0315 6693.3664,-193.0422"/>
</g>
<!-- Node4 -->
<g id="node4" class="node">
<title>Node4</title>
<g id="a_node4"><a xlink:href="sitkBSplineTransformInitializerFilter_8h.html" target="_top" xlink:title=" ">
<polygon fill="#ffffff" stroke="#000000" points="0,-56.5 0,-86.5 166,-86.5 166,-56.5 0,-56.5"/>
<text text-anchor="start" x="8" y="-74.5" font-family="Helvetica,sans-Serif" font-size="10.00" fill="#000000">sitkBSplineTransformInitializer</text>
<text text-anchor="middle" x="83" y="-63.5" font-family="Helvetica,sans-Serif" font-size="10.00" fill="#000000">Filter.h</text>
</a>
</g>
</g>
<!-- Node3&#45;&gt;Node4 -->
<g id="edge3" class="edge">
<title>Node3&#45;&gt;Node4</title>
<path fill="none" stroke="#191970" d="M2964.9853,-137.9298C2582.9236,-134.1726 466.233,-112.3346 180,-87 175.4983,-86.6016 170.8892,-86.1195 166.2432,-85.5754"/>
<polygon fill="#191970" stroke="#191970" points="2964.9644,-141.4297 2974.9983,-138.0281 2965.0332,-134.43 2964.9644,-141.4297"/>
</g>
<!-- Node3&#45;&gt;Node5 -->
<g id="edge15" class="edge">
<title>Node3&#45;&gt;Node5</title>
<path fill="none" stroke="#191970" d="M2964.5017,-137.9766C2560.7456,-134.3574 237.9784,-112.4402 213,-87 203.3473,-77.1688 203.294,-65.7786 213,-56 241.8232,-26.9613 5836.8088,-11.4601 6350.3503,-10.0983"/>
<polygon fill="#191970" stroke="#191970" points="2964.7555,-141.4789 2974.7864,-138.0686 2964.8182,-134.4792 2964.7555,-141.4789"/>
</g>
<!-- Node6 -->
<g id="node6" class="node">
<title>Node6</title>
<g id="a_node6"><a xlink:href="sitkCastImageFilter_8h.html" target="_top" xlink:title=" ">
<polygon fill="#ffffff" stroke="#000000" points="222.5,-62 222.5,-81 341.5,-81 341.5,-62 222.5,-62"/>
<text text-anchor="middle" x="282" y="-69" font-family="Helvetica,sans-Serif" font-size="10.00" fill="#000000">sitkCastImageFilter.h</text>
</a>
</g>
</g>
<!-- Node3&#45;&gt;Node6 -->
<g id="edge5" class="edge">
<title>Node3&#45;&gt;Node6</title>
<path fill="none" stroke="#191970" d="M2964.7707,-138.076C2595.6966,-135.339 618.2177,-119.2526 351,-87 340.1516,-85.6906 328.5065,-83.4183 317.9299,-81.0108"/>
<polygon fill="#191970" stroke="#191970" points="2964.94,-141.5773 2974.9656,-138.1513 2964.9918,-134.5775 2964.94,-141.5773"/>
</g>
<!-- Node7 -->
<g id="node7" class="node">
<title>Node7</title>
<g id="a_node7"><a xlink:href="sitkExtractImageFilter_8h.html" target="_top" xlink:title=" ">
<polygon fill="#ffffff" stroke="#000000" points="360,-62 360,-81 492,-81 492,-62 360,-62"/>
<text text-anchor="middle" x="426" y="-69" font-family="Helvetica,sans-Serif" font-size="10.00" fill="#000000">sitkExtractImageFilter.h</text>
</a>
</g>
</g>
<!-- Node3&#45;&gt;Node7 -->
<g id="edge7" class="edge">
<title>Node3&#45;&gt;Node7</title>
<path fill="none" stroke="#191970" d="M2964.7304,-137.9421C2607.9182,-134.4971 752.6607,-115.3308 501,-87 489.373,-85.6911 476.8772,-83.4505 465.4839,-81.0734"/>
<polygon fill="#191970" stroke="#191970" points="2964.8135,-141.443 2974.8468,-138.0395 2964.8809,-134.4433 2964.8135,-141.443"/>
</g>
<!-- Node3&#45;&gt;Node8 -->
<g id="edge9" class="edge">
<title>Node3&#45;&gt;Node8</title>
<path fill="none" stroke="#191970" d="M3083.212,-138.2686C3493.4069,-136.5705 5905.5272,-125.0166 6229,-87 6240.0022,-85.7069 6251.815,-83.4396 6262.545,-81.0316"/>
<polygon fill="#191970" stroke="#191970" points="3083.0404,-134.7692 3073.0549,-138.3103 3083.0692,-141.7691 3083.0404,-134.7692"/>
</g>
<!-- Node9 -->
<g id="node9" class="node">
<title>Node9</title>
<g id="a_node9"><a xlink:href="sitkLandmarkBasedTransformInitializerFilter_8h.html" target="_top" xlink:title=" ">
<polygon fill="#ffffff" stroke="#000000" points="510,-56.5 510,-86.5 672,-86.5 672,-56.5 510,-56.5"/>
<text text-anchor="start" x="518" y="-74.5" font-family="Helvetica,sans-Serif" font-size="10.00" fill="#000000">sitkLandmarkBasedTransform</text>
<text text-anchor="middle" x="591" y="-63.5" font-family="Helvetica,sans-Serif" font-size="10.00" fill="#000000">InitializerFilter.h</text>
</a>
</g>
</g>
<!-- Node3&#45;&gt;Node9 -->
<g id="edge11" class="edge">
<title>Node3&#45;&gt;Node9</title>
<path fill="none" stroke="#191970" d="M2964.322,-138.3906C2645.8255,-137.6238 1143.505,-131.6602 681,-87 678.1593,-86.7257 675.2731,-86.4133 672.3619,-86.0696"/>
<polygon fill="#191970" stroke="#191970" points="2964.7049,-141.8914 2974.7131,-138.4147 2964.7213,-134.8914 2964.7049,-141.8914"/>
</g>
<!-- Node10 -->
<g id="node10" class="node">
<title>Node10</title>
<g id="a_node10"><a xlink:href="sitkPasteImageFilter_8h.html" target="_top" xlink:title=" ">
<polygon fill="#ffffff" stroke="#000000" points="690,-62 690,-81 814,-81 814,-62 690,-62"/>
<text text-anchor="middle" x="752" y="-69" font-family="Helvetica,sans-Serif" font-size="10.00" fill="#000000">sitkPasteImageFilter.h</text>
</a>
</g>
</g>
<!-- Node3&#45;&gt;Node10 -->
<g id="edge13" class="edge">
<title>Node3&#45;&gt;Node10</title>
<path fill="none" stroke="#191970" d="M2964.6303,-137.7907C2635.3779,-133.7664 1040.6351,-113.0581 823,-87 811.976,-85.6801 800.1414,-83.436 789.3561,-81.0592"/>
<polygon fill="#191970" stroke="#191970" points="2964.8632,-141.2937 2974.9051,-137.9159 2964.9486,-134.2942 2964.8632,-141.2937"/>
</g>
<!-- Node11 -->
<g id="node11" class="node">
<title>Node11</title>
<g id="a_node11"><a xlink:href="sitkAbsImageFilter_8h.html" target="_top" xlink:title=" ">
<polygon fill="#ffffff" stroke="#ff0000" points="832,-62 832,-81 948,-81 948,-62 832,-62"/>
<text text-anchor="middle" x="890" y="-69" font-family="Helvetica,sans-Serif" font-size="10.00" fill="#000000">sitkAbsImageFilter.h</text>
</a>
</g>
</g>
<!-- Node3&#45;&gt;Node11 -->
<g id="edge16" class="edge">
<title>Node3&#45;&gt;Node11</title>
<path fill="none" stroke="#191970" d="M2964.2177,-137.7326C2646.2494,-133.5546 1160.3463,-112.7843 957,-87 946.577,-85.6784 935.4028,-83.4338 925.2255,-81.057"/>
<polygon fill="#191970" stroke="#191970" points="2964.5516,-141.2372 2974.5966,-137.8686 2964.6433,-134.2378 2964.5516,-141.2372"/>
</g>
<!-- Node14 -->
<g id="node12" class="node">
<title>Node14</title>
<g id="a_node12"><a xlink:href="sitkAbsoluteValueDifferenceImageFilter_8h.html" target="_top" xlink:title=" ">
<polygon fill="#ffffff" stroke="#ff0000" points="966.5,-56.5 966.5,-86.5 1121.5,-86.5 1121.5,-56.5 966.5,-56.5"/>
<text text-anchor="start" x="974.5" y="-74.5" font-family="Helvetica,sans-Serif" font-size="10.00" fill="#000000">sitkAbsoluteValueDifference</text>
<text text-anchor="middle" x="1044" y="-63.5" font-family="Helvetica,sans-Serif" font-size="10.00" fill="#000000">ImageFilter.h</text>
</a>
</g>
</g>
<!-- Node3&#45;&gt;Node14 -->
<g id="edge17" class="edge">
<title>Node3&#45;&gt;Node14</title>
<path fill="none" stroke="#191970" d="M2964.4565,-138.0935C2684.6307,-135.9977 1498.4813,-124.9957 1130,-87 1127.2836,-86.7199 1124.524,-86.4026 1121.7408,-86.0546"/>
<polygon fill="#191970" stroke="#191970" points="2964.7721,-141.5959 2974.7977,-138.17 2964.8239,-134.5961 2964.7721,-141.5959"/>
</g>
<!-- Node15 -->
<g id="node13" class="node">
<title>Node15</title>
<g id="a_node13"><a xlink:href="sitkAcosImageFilter_8h.html" target="_top" xlink:title=" ">
<polygon fill="#ffffff" stroke="#ff0000" points="1139.5,-62 1139.5,-81 1260.5,-81 1260.5,-62 1139.5,-62"/>
<text text-anchor="middle" x="1200" y="-69" font-family="Helvetica,sans-Serif" font-size="10.00" fill="#000000">sitkAcosImageFilter.h</text>
</a>
</g>
</g>
<!-- Node3&#45;&gt;Node15 -->
<g id="edge18" class="edge">
<title>Node3&#45;&gt;Node15</title>
<path fill="none" stroke="#191970" d="M2964.4939,-138.2848C2697.4248,-137.084 1607.7378,-129.6168 1269,-87 1258.2801,-85.6513 1246.7769,-83.3983 1236.2955,-81.0221"/>
<polygon fill="#191970" stroke="#191970" points="2964.7383,-141.7858 2974.7535,-138.3297 2964.769,-134.7859 2964.7383,-141.7858"/>
</g>
<!-- Node16 -->
<g id="node14" class="node">
<title>Node16</title>
<g id="a_node14"><a xlink:href="sitkAdaptiveHistogramEqualizationImageFilter_8h.html" target="_top" xlink:title=" ">
<polygon fill="#ffffff" stroke="#ff0000" points="1278.5,-56.5 1278.5,-86.5 1467.5,-86.5 1467.5,-56.5 1278.5,-56.5"/>
<text text-anchor="start" x="1286.5" y="-74.5" font-family="Helvetica,sans-Serif" font-size="10.00" fill="#000000">sitkAdaptiveHistogramEqualization</text>
<text text-anchor="middle" x="1373" y="-63.5" font-family="Helvetica,sans-Serif" font-size="10.00" fill="#000000">ImageFilter.h</text>
</a>
</g>
</g>
<!-- Node3&#45;&gt;Node16 -->
<g id="edge19" class="edge">
<title>Node3&#45;&gt;Node16</title>
<path fill="none" stroke="#191970" d="M2964.4852,-137.4329C2717.6891,-132.8667 1773.8123,-113.9691 1477,-87 1473.9094,-86.7192 1470.7706,-86.4073 1467.6037,-86.0697"/>
<polygon fill="#191970" stroke="#191970" points="2964.6216,-140.9359 2974.6844,-137.6208 2964.7506,-133.9371 2964.6216,-140.9359"/>
</g>
<!-- Node17 -->
<g id="node15" class="node">
<title>Node17</title>
<g id="a_node15"><a xlink:href="sitkAddImageFilter_8h.html" target="_top" xlink:title=" ">
<polygon fill="#ffffff" stroke="#ff0000" points="1486,-62 1486,-81 1602,-81 1602,-62 1486,-62"/>
<text text-anchor="middle" x="1544" y="-69" font-family="Helvetica,sans-Serif" font-size="10.00" fill="#000000">sitkAddImageFilter.h</text>
</a>
</g>
</g>
<!-- Node3&#45;&gt;Node17 -->
<g id="edge20" class="edge">
<title>Node3&#45;&gt;Node17</title>
<path fill="none" stroke="#191970" d="M2964.6754,-137.847C2731.6789,-135.0484 1878.97,-122.5482 1611,-87 1600.7031,-85.634 1589.6668,-83.4064 1579.5829,-81.0604"/>
<polygon fill="#191970" stroke="#191970" points="2964.934,-141.3502 2974.9748,-137.9692 2965.0171,-134.3507 2964.934,-141.3502"/>
</g>
<!-- Node19 -->
<g id="node16" class="node">
<title>Node19</title>
<g id="a_node16"><a xlink:href="sitkAdditiveGaussianNoiseImageFilter_8h.html" target="_top" xlink:title=" ">
<polygon fill="#ffffff" stroke="#ff0000" points="1620,-56.5 1620,-86.5 1768,-86.5 1768,-56.5 1620,-56.5"/>
<text text-anchor="start" x="1628" y="-74.5" font-family="Helvetica,sans-Serif" font-size="10.00" fill="#000000">sitkAdditiveGaussianNoise</text>
<text text-anchor="middle" x="1694" y="-63.5" font-family="Helvetica,sans-Serif" font-size="10.00" fill="#000000">ImageFilter.h</text>
</a>
</g>
</g>
<!-- Node3&#45;&gt;Node19 -->
<g id="edge21" class="edge">
<title>Node3&#45;&gt;Node19</title>
<path fill="none" stroke="#191970" d="M2964.6734,-137.1791C2749.6393,-132.2154 2011.4669,-113.5958 1777,-87 1774.0869,-86.6696 1771.1224,-86.2962 1768.1323,-85.8885"/>
<polygon fill="#191970" stroke="#191970" points="2964.7352,-140.6814 2974.8129,-137.412 2964.8959,-133.6832 2964.7352,-140.6814"/>
</g>
<!-- Node20 -->
<g id="node17" class="node">
<title>Node20</title>
<g id="a_node17"><a xlink:href="sitkAggregateLabelMapFilter_8h.html" target="_top" xlink:title=" ">
<polygon fill="#ffffff" stroke="#ff0000" points="1786,-62 1786,-81 1950,-81 1950,-62 1786,-62"/>
<text text-anchor="middle" x="1868" y="-69" font-family="Helvetica,sans-Serif" font-size="10.00" fill="#000000">sitkAggregateLabelMapFilter.h</text>
</a>
</g>
</g>
<!-- Node3&#45;&gt;Node20 -->
<g id="edge22" class="edge">
<title>Node3&#45;&gt;Node20</title>
<path fill="none" stroke="#191970" d="M2964.5097,-138.1304C2802.5858,-136.5835 2340.5221,-128.5641 1959,-87 1945.4579,-85.5247 1930.8763,-83.3203 1917.4385,-81.0336"/>
<polygon fill="#191970" stroke="#191970" points="2964.7059,-141.6322 2974.7373,-138.2232 2964.7695,-134.6325 2964.7059,-141.6322"/>
</g>
<!-- Node21 -->
<g id="node18" class="node">
<title>Node21</title>
<g id="a_node18"><a xlink:href="sitkAndImageFilter_8h.html" target="_top" xlink:title=" ">
<polygon fill="#ffffff" stroke="#ff0000" points="1968,-62 1968,-81 2084,-81 2084,-62 1968,-62"/>
<text text-anchor="middle" x="2026" y="-69" font-family="Helvetica,sans-Serif" font-size="10.00" fill="#000000">sitkAndImageFilter.h</text>
</a>
</g>
</g>
<!-- Node3&#45;&gt;Node21 -->
<g id="edge23" class="edge">
<title>Node3&#45;&gt;Node21</title>
<path fill="none" stroke="#191970" d="M2964.5317,-136.5506C2786.9555,-130.5175 2262.4117,-111.0988 2093,-87 2082.8347,-85.554 2071.9379,-83.3303 2061.9484,-81.0146"/>
<polygon fill="#191970" stroke="#191970" points="2964.6127,-140.0553 2974.7253,-136.8952 2964.8492,-133.0593 2964.6127,-140.0553"/>
</g>
<!-- Node22 -->
<g id="node19" class="node">
<title>Node22</title>
<g id="a_node19"><a xlink:href="sitkAntiAliasBinaryImageFilter_8h.html" target="_top" xlink:title=" ">
<polygon fill="#ffffff" stroke="#ff0000" points="2102,-56.5 2102,-86.5 2242,-86.5 2242,-56.5 2102,-56.5"/>
<text text-anchor="start" x="2110" y="-74.5" font-family="Helvetica,sans-Serif" font-size="10.00" fill="#000000">sitkAntiAliasBinaryImage</text>
<text text-anchor="middle" x="2172" y="-63.5" font-family="Helvetica,sans-Serif" font-size="10.00" fill="#000000">Filter.h</text>
</a>
</g>
</g>
<!-- Node3&#45;&gt;Node22 -->
<g id="edge24" class="edge">
<title>Node3&#45;&gt;Node22</title>
<path fill="none" stroke="#191970" d="M2964.8291,-137.1227C2835.0589,-133.5411 2515.8844,-121.6662 2251,-87 2248.0897,-86.6191 2245.1253,-86.1964 2242.1352,-85.7413"/>
<polygon fill="#191970" stroke="#191970" points="2964.8598,-140.6247 2974.9506,-137.3958 2965.0486,-133.6273 2964.8598,-140.6247"/>
</g>
<!-- Node23 -->
<g id="node20" class="node">
<title>Node23</title>
<g id="a_node20"><a xlink:href="sitkApproximateSignedDistanceMapImageFilter_8h.html" target="_top" xlink:title=" ">
<polygon fill="#ffffff" stroke="#ff0000" points="2260.5,-56.5 2260.5,-86.5 2433.5,-86.5 2433.5,-56.5 2260.5,-56.5"/>
<text text-anchor="start" x="2268.5" y="-74.5" font-family="Helvetica,sans-Serif" font-size="10.00" fill="#000000">sitkApproximateSignedDistance</text>
<text text-anchor="middle" x="2347" y="-63.5" font-family="Helvetica,sans-Serif" font-size="10.00" fill="#000000">MapImageFilter.h</text>
</a>
</g>
</g>
<!-- Node3&#45;&gt;Node23 -->
<g id="edge25" class="edge">
<title>Node3&#45;&gt;Node23</title>
<path fill="none" stroke="#191970" d="M2964.694,-134.6976C2859.2712,-127.6165 2632.4202,-110.9264 2442,-87 2439.2642,-86.6562 2436.4864,-86.2924 2433.6833,-85.9125"/>
<polygon fill="#191970" stroke="#191970" points="2964.6051,-138.1994 2974.8159,-135.373 2965.0711,-131.2149 2964.6051,-138.1994"/>
</g>
<!-- Node24 -->
<g id="node21" class="node">
<title>Node24</title>
<g id="a_node21"><a xlink:href="sitkAsinImageFilter_8h.html" target="_top" xlink:title=" ">
<polygon fill="#ffffff" stroke="#ff0000" points="2451.5,-62 2451.5,-81 2570.5,-81 2570.5,-62 2451.5,-62"/>
<text text-anchor="middle" x="2511" y="-69" font-family="Helvetica,sans-Serif" font-size="10.00" fill="#000000">sitkAsinImageFilter.h</text>
</a>
</g>
</g>
<!-- Node3&#45;&gt;Node24 -->
<g id="edge26" class="edge">
<title>Node3&#45;&gt;Node24</title>
<path fill="none" stroke="#191970" d="M2964.7898,-133.6342C2879.4086,-126.1646 2716.924,-110.2534 2580,-87 2570.3165,-85.3555 2559.9469,-83.2251 2550.2657,-81.0731"/>
<polygon fill="#191970" stroke="#191970" points="2964.5481,-137.1262 2974.8131,-134.5032 2965.1528,-130.1524 2964.5481,-137.1262"/>
</g>
<!-- Node25 -->
<g id="node22" class="node">
<title>Node25</title>
<g id="a_node22"><a xlink:href="sitkAtan2ImageFilter_8h.html" target="_top" xlink:title=" ">
<polygon fill="#ffffff" stroke="#ff0000" points="2589,-62 2589,-81 2715,-81 2715,-62 2589,-62"/>
<text text-anchor="middle" x="2652" y="-69" font-family="Helvetica,sans-Serif" font-size="10.00" fill="#000000">sitkAtan2ImageFilter.h</text>
</a>
</g>
</g>
<!-- Node3&#45;&gt;Node25 -->
<g id="edge27" class="edge">
<title>Node3&#45;&gt;Node25</title>
<path fill="none" stroke="#191970" d="M2964.6297,-129.0635C2904.011,-119.2514 2807.2565,-103.1004 2724,-87 2714.5847,-85.1792 2704.5063,-83.0949 2694.9616,-81.0578"/>
<polygon fill="#191970" stroke="#191970" points="2964.3479,-132.5632 2974.7779,-130.7015 2965.4634,-125.6527 2964.3479,-132.5632"/>
</g>
<!-- Node26 -->
<g id="node23" class="node">
<title>Node26</title>
<g id="a_node23"><a xlink:href="sitkAtanImageFilter_8h.html" target="_top" xlink:title=" ">
<polygon fill="#ffffff" stroke="#ff0000" points="2733,-62 2733,-81 2853,-81 2853,-62 2733,-62"/>
<text text-anchor="middle" x="2793" y="-69" font-family="Helvetica,sans-Serif" font-size="10.00" fill="#000000">sitkAtanImageFilter.h</text>
</a>
</g>
</g>
<!-- Node3&#45;&gt;Node26 -->
<g id="edge28" class="edge">
<title>Node3&#45;&gt;Node26</title>
<path fill="none" stroke="#191970" d="M2981.1717,-126.0779C2936.316,-113.0678 2866.832,-92.9145 2826.0353,-81.0817"/>
<polygon fill="#191970" stroke="#191970" points="2980.3242,-129.4763 2990.9033,-128.9005 2982.2741,-122.7534 2980.3242,-129.4763"/>
</g>
<!-- Node27 -->
<g id="node24" class="node">
<title>Node27</title>
<g id="a_node24"><a xlink:href="sitkBSplineDecompositionImageFilter_8h.html" target="_top" xlink:title=" ">
<polygon fill="#ffffff" stroke="#ff0000" points="2871.5,-56.5 2871.5,-86.5 3016.5,-86.5 3016.5,-56.5 2871.5,-56.5"/>
<text text-anchor="start" x="2879.5" y="-74.5" font-family="Helvetica,sans-Serif" font-size="10.00" fill="#000000">sitkBSplineDecomposition</text>
<text text-anchor="middle" x="2944" y="-63.5" font-family="Helvetica,sans-Serif" font-size="10.00" fill="#000000">ImageFilter.h</text>
</a>
</g>
</g>
<!-- Node3&#45;&gt;Node27 -->
<g id="edge29" class="edge">
<title>Node3&#45;&gt;Node27</title>
<path fill="none" stroke="#191970" d="M3004.6582,-122.3012C2991.6546,-111.4107 2974.6364,-97.1579 2961.9364,-86.5218"/>
<polygon fill="#191970" stroke="#191970" points="3002.6242,-125.1631 3012.538,-128.9005 3007.1187,-119.7965 3002.6242,-125.1631"/>
</g>
<!-- Node28 -->
<g id="node25" class="node">
<title>Node28</title>
<g id="a_node25"><a xlink:href="sitkBilateralImageFilter_8h.html" target="_top" xlink:title=" ">
<polygon fill="#ffffff" stroke="#ff0000" points="3034.5,-62 3034.5,-81 3173.5,-81 3173.5,-62 3034.5,-62"/>
<text text-anchor="middle" x="3104" y="-69" font-family="Helvetica,sans-Serif" font-size="10.00" fill="#000000">sitkBilateralImageFilter.h</text>
</a>
</g>
</g>
<!-- Node3&#45;&gt;Node28 -->
<g id="edge30" class="edge">
<title>Node3&#45;&gt;Node28</title>
<path fill="none" stroke="#191970" d="M3043.3442,-122.2992C3058.7306,-109.4131 3079.7365,-91.8207 3092.5592,-81.0817"/>
<polygon fill="#191970" stroke="#191970" points="3040.8813,-119.7965 3035.462,-128.9005 3045.3758,-125.1631 3040.8813,-119.7965"/>
</g>
<!-- Node29 -->
<g id="node26" class="node">
<title>Node29</title>
<g id="a_node26"><a xlink:href="sitkBinShrinkImageFilter_8h.html" target="_top" xlink:title=" ">
<polygon fill="#ffffff" stroke="#ff0000" points="3192,-62 3192,-81 3336,-81 3336,-62 3192,-62"/>
<text text-anchor="middle" x="3264" y="-69" font-family="Helvetica,sans-Serif" font-size="10.00" fill="#000000">sitkBinShrinkImageFilter.h</text>
</a>
</g>
</g>
<!-- Node3&#45;&gt;Node29 -->
<g id="edge31" class="edge">
<title>Node3&#45;&gt;Node29</title>
<path fill="none" stroke="#191970" d="M3067.9372,-126.2342C3114.4914,-113.2378 3187.0308,-92.9872 3229.5979,-81.1039"/>
<polygon fill="#191970" stroke="#191970" points="3066.8219,-122.9117 3058.1313,-128.9717 3068.7041,-129.6539 3066.8219,-122.9117"/>
</g>
<!-- Node30 -->
<g id="node27" class="node">
<title>Node30</title>
<g id="a_node27"><a xlink:href="sitkBinaryClosingByReconstructionImageFilter_8h.html" target="_top" xlink:title=" ">
<polygon fill="#ffffff" stroke="#ff0000" points="3354.5,-56.5 3354.5,-86.5 3541.5,-86.5 3541.5,-56.5 3354.5,-56.5"/>
<text text-anchor="start" x="3362.5" y="-74.5" font-family="Helvetica,sans-Serif" font-size="10.00" fill="#000000">sitkBinaryClosingByReconstruction</text>
<text text-anchor="middle" x="3448" y="-63.5" font-family="Helvetica,sans-Serif" font-size="10.00" fill="#000000">ImageFilter.h</text>
</a>
</g>
</g>
<!-- Node3&#45;&gt;Node30 -->
<g id="edge32" class="edge">
<title>Node3&#45;&gt;Node30</title>
<path fill="none" stroke="#191970" d="M3083.0607,-129.1673C3153.3184,-118.0653 3271.4871,-99.3924 3354.272,-86.3108"/>
<polygon fill="#191970" stroke="#191970" points="3082.3835,-125.7308 3073.0524,-130.7488 3083.4762,-132.645 3082.3835,-125.7308"/>
</g>
<!-- Node31 -->
<g id="node28" class="node">
<title>Node31</title>
<g id="a_node28"><a xlink:href="sitkBinaryContourImageFilter_8h.html" target="_top" xlink:title=" ">
<polygon fill="#ffffff" stroke="#ff0000" points="3559.5,-62 3559.5,-81 3726.5,-81 3726.5,-62 3559.5,-62"/>
<text text-anchor="middle" x="3643" y="-69" font-family="Helvetica,sans-Serif" font-size="10.00" fill="#000000">sitkBinaryContourImageFilter.h</text>
</a>
</g>
</g>
<!-- Node3&#45;&gt;Node31 -->
<g id="edge33" class="edge">
<title>Node3&#45;&gt;Node31</title>
<path fill="none" stroke="#191970" d="M3083.3258,-134.0057C3180.8988,-126.3194 3381.2671,-109.2954 3550,-87 3562.8197,-85.3061 3576.5837,-83.1816 3589.4883,-81.0535"/>
<polygon fill="#191970" stroke="#191970" points="3082.772,-130.5383 3073.0758,-134.8086 3083.3186,-137.5169 3082.772,-130.5383"/>
</g>
<!-- Node32 -->
<g id="node29" class="node">
<title>Node32</title>
<g id="a_node29"><a xlink:href="sitkBinaryDilateImageFilter_8h.html" target="_top" xlink:title=" ">
<polygon fill="#ffffff" stroke="#ff0000" points="3744,-62 3744,-81 3902,-81 3902,-62 3744,-62"/>
<text text-anchor="middle" x="3823" y="-69" font-family="Helvetica,sans-Serif" font-size="10.00" fill="#000000">sitkBinaryDilateImageFilter.h</text>
</a>
</g>
</g>
<!-- Node3&#45;&gt;Node32 -->
<g id="edge34" class="edge">
<title>Node3&#45;&gt;Node32</title>
<path fill="none" stroke="#191970" d="M3083.5774,-136.2405C3205.992,-131.1456 3494.5247,-116.8085 3735,-87 3747.624,-85.4352 3761.1896,-83.2825 3773.7983,-81.0791"/>
<polygon fill="#191970" stroke="#191970" points="3083.1504,-132.755 3073.3025,-136.6626 3083.4378,-139.7491 3083.1504,-132.755"/>
</g>
<!-- Node33 -->
<g id="node30" class="node">
<title>Node33</title>
<g id="a_node30"><a xlink:href="sitkBinaryErodeImageFilter_8h.html" target="_top" xlink:title=" ">
<polygon fill="#ffffff" stroke="#ff0000" points="3920.5,-62 3920.5,-81 4077.5,-81 4077.5,-62 3920.5,-62"/>
<text text-anchor="middle" x="3999" y="-69" font-family="Helvetica,sans-Serif" font-size="10.00" fill="#000000">sitkBinaryErodeImageFilter.h</text>
</a>
</g>
</g>
<!-- Node3&#45;&gt;Node33 -->
<g id="edge35" class="edge">
<title>Node3&#45;&gt;Node33</title>
<path fill="none" stroke="#191970" d="M3083.5149,-137.4332C3226.5656,-134.3496 3600.8453,-123.1942 3911,-87 3923.9431,-85.4896 3937.8668,-83.3016 3950.7342,-81.0432"/>
<polygon fill="#191970" stroke="#191970" points="3083.1386,-133.9403 3073.2144,-137.6498 3083.2858,-140.9387 3083.1386,-133.9403"/>
</g>
<!-- Node34 -->
<g id="node31" class="node">
<title>Node34</title>
<g id="a_node31"><a xlink:href="sitkBinaryFillholeImageFilter_8h.html" target="_top" xlink:title=" ">
<polygon fill="#ffffff" stroke="#ff0000" points="4096,-62 4096,-81 4260,-81 4260,-62 4096,-62"/>
<text text-anchor="middle" x="4178" y="-69" font-family="Helvetica,sans-Serif" font-size="10.00" fill="#000000">sitkBinaryFillholeImageFilter.h</text>
</a>
</g>
</g>
<!-- Node3&#45;&gt;Node34 -->
<g id="edge36" class="edge">
<title>Node3&#45;&gt;Node34</title>
<path fill="none" stroke="#191970" d="M3083.3187,-138.0834C3244.7764,-136.4187 3705.5157,-128.1308 4086,-87 4099.688,-85.5203 4114.4288,-83.3144 4128.0143,-81.0277"/>
<polygon fill="#191970" stroke="#191970" points="3083.0856,-134.5854 3073.1206,-138.1838 3083.1546,-141.5851 3083.0856,-134.5854"/>
</g>
<!-- Node35 -->
<g id="node32" class="node">
<title>Node35</title>
<g id="a_node32"><a xlink:href="sitkBinaryGrindPeakImageFilter_8h.html" target="_top" xlink:title=" ">
<polygon fill="#ffffff" stroke="#ff0000" points="4278.5,-56.5 4278.5,-86.5 4425.5,-86.5 4425.5,-56.5 4278.5,-56.5"/>
<text text-anchor="start" x="4286.5" y="-74.5" font-family="Helvetica,sans-Serif" font-size="10.00" fill="#000000">sitkBinaryGrindPeakImage</text>
<text text-anchor="middle" x="4352" y="-63.5" font-family="Helvetica,sans-Serif" font-size="10.00" fill="#000000">Filter.h</text>
</a>
</g>
</g>
<!-- Node3&#45;&gt;Node35 -->
<g id="edge37" class="edge">
<title>Node3&#45;&gt;Node35</title>
<path fill="none" stroke="#191970" d="M3083.2315,-137.1768C3297.9207,-132.205 4034.9094,-113.5609 4269,-87 4272.0587,-86.6529 4275.1742,-86.2585 4278.3164,-85.8268"/>
<polygon fill="#191970" stroke="#191970" points="3083.0249,-133.6805 3073.1082,-137.41 3083.1862,-140.6787 3083.0249,-133.6805"/>
</g>
<!-- Node36 -->
<g id="node33" class="node">
<title>Node36</title>
<g id="a_node33"><a xlink:href="sitkBinaryImageToLabelMapFilter_8h.html" target="_top" xlink:title=" ">
<polygon fill="#ffffff" stroke="#ff0000" points="4444,-56.5 4444,-86.5 4598,-86.5 4598,-56.5 4444,-56.5"/>
<text text-anchor="start" x="4452" y="-74.5" font-family="Helvetica,sans-Serif" font-size="10.00" fill="#000000">sitkBinaryImageToLabelMap</text>
<text text-anchor="middle" x="4521" y="-63.5" font-family="Helvetica,sans-Serif" font-size="10.00" fill="#000000">Filter.h</text>
</a>
</g>
</g>
<!-- Node3&#45;&gt;Node36 -->
<g id="edge38" class="edge">
<title>Node3&#45;&gt;Node36</title>
<path fill="none" stroke="#191970" d="M3083.541,-137.4359C3316.4224,-133.1015 4165.9313,-115.6333 4434,-87 4437.2036,-86.6578 4440.467,-86.2675 4443.759,-85.8392"/>
<polygon fill="#191970" stroke="#191970" points="3083.1781,-133.9419 3073.2446,-137.6264 3083.3077,-140.9407 3083.1781,-133.9419"/>
</g>
<!-- Node37 -->
<g id="node34" class="node">
<title>Node37</title>
<g id="a_node34"><a xlink:href="sitkBinaryMagnitudeImageFilter_8h.html" target="_top" xlink:title=" ">
<polygon fill="#ffffff" stroke="#ff0000" points="4616,-56.5 4616,-86.5 4764,-86.5 4764,-56.5 4616,-56.5"/>
<text text-anchor="start" x="4624" y="-74.5" font-family="Helvetica,sans-Serif" font-size="10.00" fill="#000000">sitkBinaryMagnitudeImage</text>
<text text-anchor="middle" x="4690" y="-63.5" font-family="Helvetica,sans-Serif" font-size="10.00" fill="#000000">Filter.h</text>
</a>
</g>
</g>
<!-- Node3&#45;&gt;Node37 -->
<g id="edge39" class="edge">
<title>Node3&#45;&gt;Node37</title>
<path fill="none" stroke="#191970" d="M3083.6719,-137.7742C3334.3638,-134.5376 4303.3274,-120.1002 4607,-87 4609.9145,-86.6823 4612.8802,-86.3197 4615.8713,-85.921"/>
<polygon fill="#191970" stroke="#191970" points="3083.2725,-134.279 3073.3181,-137.9068 3083.3622,-141.2784 3083.2725,-134.279"/>
</g>
<!-- Node38 -->
<g id="node35" class="node">
<title>Node38</title>
<g id="a_node35"><a xlink:href="sitkBinaryMedianImageFilter_8h.html" target="_top" xlink:title=" ">
<polygon fill="#ffffff" stroke="#ff0000" points="4782,-62 4782,-81 4946,-81 4946,-62 4782,-62"/>
<text text-anchor="middle" x="4864" y="-69" font-family="Helvetica,sans-Serif" font-size="10.00" fill="#000000">sitkBinaryMedianImageFilter.h</text>
</a>
</g>
</g>
<!-- Node3&#45;&gt;Node38 -->
<g id="edge40" class="edge">
<title>Node3&#45;&gt;Node38</title>
<path fill="none" stroke="#191970" d="M3083.2561,-137.8649C3349.2103,-134.8438 4434.4266,-120.6539 4773,-87 4786.8744,-85.6209 4801.8284,-83.389 4815.526,-81.0432"/>
<polygon fill="#191970" stroke="#191970" points="3082.9992,-134.3675 3073.0393,-137.98 3083.0782,-141.367 3082.9992,-134.3675"/>
</g>
<!-- Node39 -->
<g id="node36" class="node">
<title>Node39</title>
<g id="a_node36"><a xlink:href="sitkBinaryMinMaxCurvatureFlowImageFilter_8h.html" target="_top" xlink:title=" ">
<polygon fill="#ffffff" stroke="#ff0000" points="4964,-56.5 4964,-86.5 5116,-86.5 5116,-56.5 4964,-56.5"/>
<text text-anchor="start" x="4972" y="-74.5" font-family="Helvetica,sans-Serif" font-size="10.00" fill="#000000">sitkBinaryMinMaxCurvature</text>
<text text-anchor="middle" x="5040" y="-63.5" font-family="Helvetica,sans-Serif" font-size="10.00" fill="#000000">FlowImageFilter.h</text>
</a>
</g>
</g>
<!-- Node3&#45;&gt;Node39 -->
<g id="edge41" class="edge">
<title>Node3&#45;&gt;Node39</title>
<path fill="none" stroke="#191970" d="M3083.3535,-138.1471C3366.1572,-136.2776 4578.7577,-126.0874 4955,-87 4957.8348,-86.7055 4960.717,-86.3693 4963.624,-85.9993"/>
<polygon fill="#191970" stroke="#191970" points="3083.2752,-134.6475 3073.2983,-138.2127 3083.3209,-141.6473 3083.2752,-134.6475"/>
</g>
<!-- Node40 -->
<g id="node37" class="node">
<title>Node40</title>
<g id="a_node37"><a xlink:href="sitkBinaryMorphologicalClosingImageFilter_8h.html" target="_top" xlink:title=" ">
<polygon fill="#ffffff" stroke="#ff0000" points="5134,-56.5 5134,-86.5 5304,-86.5 5304,-56.5 5134,-56.5"/>
<text text-anchor="start" x="5142" y="-74.5" font-family="Helvetica,sans-Serif" font-size="10.00" fill="#000000">sitkBinaryMorphologicalClosing</text>
<text text-anchor="middle" x="5219" y="-63.5" font-family="Helvetica,sans-Serif" font-size="10.00" fill="#000000">ImageFilter.h</text>
</a>
</g>
</g>
<!-- Node3&#45;&gt;Node40 -->
<g id="edge42" class="edge">
<title>Node3&#45;&gt;Node40</title>
<path fill="none" stroke="#191970" d="M3083.1619,-138.1613C3380.4096,-136.2901 4712.8231,-125.8447 5125,-87 5127.8817,-86.7284 5130.8087,-86.4215 5133.7613,-86.0855"/>
<polygon fill="#191970" stroke="#191970" points="3083.0058,-134.6621 3073.0278,-138.2243 3083.0494,-141.662 3083.0058,-134.6621"/>
</g>
<!-- Node41 -->
<g id="node38" class="node">
<title>Node41</title>
<g id="a_node38"><a xlink:href="sitkBinaryMorphologicalOpeningImageFilter_8h.html" target="_top" xlink:title=" ">
<polygon fill="#ffffff" stroke="#ff0000" points="5322.5,-56.5 5322.5,-86.5 5497.5,-86.5 5497.5,-56.5 5322.5,-56.5"/>
<text text-anchor="start" x="5330.5" y="-74.5" font-family="Helvetica,sans-Serif" font-size="10.00" fill="#000000">sitkBinaryMorphologicalOpening</text>
<text text-anchor="middle" x="5410" y="-63.5" font-family="Helvetica,sans-Serif" font-size="10.00" fill="#000000">ImageFilter.h</text>
</a>
</g>
</g>
<!-- Node3&#45;&gt;Node41 -->
<g id="edge43" class="edge">
<title>Node3&#45;&gt;Node41</title>
<path fill="none" stroke="#191970" d="M3083.308,-138.2589C3396.5799,-136.8189 4861.3936,-127.9708 5313,-87 5316.0572,-86.7226 5319.1639,-86.4077 5322.2983,-86.0617"/>
<polygon fill="#191970" stroke="#191970" points="3083.0664,-134.7598 3073.0824,-138.3051 3083.0981,-141.7598 3083.0664,-134.7598"/>
</g>
<!-- Node42 -->
<g id="node39" class="node">
<title>Node42</title>
<g id="a_node39"><a xlink:href="sitkBinaryNotImageFilter_8h.html" target="_top" xlink:title=" ">
<polygon fill="#ffffff" stroke="#ff0000" points="5516,-62 5516,-81 5662,-81 5662,-62 5516,-62"/>
<text text-anchor="middle" x="5589" y="-69" font-family="Helvetica,sans-Serif" font-size="10.00" fill="#000000">sitkBinaryNotImageFilter.h</text>
</a>
</g>
</g>
<!-- Node3&#45;&gt;Node42 -->
<g id="edge44" class="edge">
<title>Node3&#45;&gt;Node42</title>
<path fill="none" stroke="#191970" d="M3083.1477,-137.8542C3436.201,-133.9219 5258.3746,-112.5168 5506,-87 5518.8318,-85.6777 5532.6494,-83.433 5545.2587,-81.0562"/>
<polygon fill="#191970" stroke="#191970" points="3083.0944,-134.3544 3073.1339,-137.9654 3083.1722,-141.354 3083.0944,-134.3544"/>
</g>
<!-- Node43 -->
<g id="node40" class="node">
<title>Node43</title>
<g id="a_node40"><a xlink:href="sitkBinaryOpeningByReconstructionImageFilter_8h.html" target="_top" xlink:title=" ">
<polygon fill="#ffffff" stroke="#ff0000" points="5680.5,-56.5 5680.5,-86.5 5871.5,-86.5 5871.5,-56.5 5680.5,-56.5"/>
<text text-anchor="start" x="5688.5" y="-74.5" font-family="Helvetica,sans-Serif" font-size="10.00" fill="#000000">sitkBinaryOpeningByReconstruction</text>
<text text-anchor="middle" x="5776" y="-63.5" font-family="Helvetica,sans-Serif" font-size="10.00" fill="#000000">ImageFilter.h</text>
</a>
</g>
</g>
<!-- Node3&#45;&gt;Node43 -->
<g id="edge45" class="edge">
<title>Node3&#45;&gt;Node43</title>
<path fill="none" stroke="#191970" d="M3083.2705,-138.3725C3424.7144,-137.4826 5143.8318,-130.8595 5671,-87 5674.1218,-86.7403 5677.2919,-86.4467 5680.4903,-86.1249"/>
<polygon fill="#191970" stroke="#191970" points="3083.0958,-134.8728 3073.1048,-138.3983 3083.1137,-141.8728 3083.0958,-134.8728"/>
</g>
<!-- Node44 -->
<g id="node41" class="node">
<title>Node44</title>
<g id="a_node41"><a xlink:href="sitkBinaryProjectionImageFilter_8h.html" target="_top" xlink:title=" ">
<polygon fill="#ffffff" stroke="#ff0000" points="5890,-56.5 5890,-86.5 6036,-86.5 6036,-56.5 5890,-56.5"/>
<text text-anchor="start" x="5898" y="-74.5" font-family="Helvetica,sans-Serif" font-size="10.00" fill="#000000">sitkBinaryProjectionImage</text>
<text text-anchor="middle" x="5963" y="-63.5" font-family="Helvetica,sans-Serif" font-size="10.00" fill="#000000">Filter.h</text>
</a>
</g>
</g>
<!-- Node3&#45;&gt;Node44 -->
<g id="edge46" class="edge">
<title>Node3&#45;&gt;Node44</title>
<path fill="none" stroke="#191970" d="M3083.2725,-138.0252C3467.0023,-134.8726 5592.916,-116.1888 5880,-87 5883.2084,-86.6738 5886.4783,-86.2892 5889.7755,-85.8586"/>
<polygon fill="#191970" stroke="#191970" points="3083.1868,-134.5257 3073.2158,-138.1075 3083.2441,-141.5254 3083.1868,-134.5257"/>
</g>
<!-- Node45 -->
<g id="node42" class="node">
<title>Node45</title>
<g id="a_node42"><a xlink:href="sitkBinaryPruningImageFilter_8h.html" target="_top" xlink:title=" ">
<polygon fill="#ffffff" stroke="#ff0000" points="6054,-62 6054,-81 6220,-81 6220,-62 6054,-62"/>
<text text-anchor="middle" x="6137" y="-69" font-family="Helvetica,sans-Serif" font-size="10.00" fill="#000000">sitkBinaryPruningImageFilter.h</text>
</a>
</g>
</g>
<!-- Node3&#45;&gt;Node45 -->
<g id="edge47" class="edge">
<title>Node3&#45;&gt;Node45</title>
<path fill="none" stroke="#191970" d="M3083.1963,-138.0253C3479.453,-134.7772 5740.1763,-115.1165 6045,-87 6059.1934,-85.6908 6074.4999,-83.4502 6088.4772,-81.0731"/>
<polygon fill="#191970" stroke="#191970" points="3083.0689,-134.5261 3073.0979,-138.1078 3083.1262,-141.5259 3083.0689,-134.5261"/>
</g>
<!-- Node4&#45;&gt;Node5 -->
<g id="edge4" class="edge">
<title>Node4&#45;&gt;Node5</title>
<path fill="none" stroke="#191970" d="M176.6032,-56.297C177.7414,-56.1927 178.8741,-56.0936 180,-56 507.5175,-28.7759 5847.6165,-11.6673 6350.1311,-10.1154"/>
<polygon fill="#191970" stroke="#191970" points="175.8261,-52.8585 166.2382,-57.3665 176.5446,-59.8216 175.8261,-52.8585"/>
</g>
<!-- Node6&#45;&gt;Node5 -->
<g id="edge6" class="edge">
<title>Node6&#45;&gt;Node5</title>
<path fill="none" stroke="#191970" d="M327.5745,-59.8264C335.3427,-58.2503 343.367,-56.8762 351,-56 668.347,-19.5702 5857.0868,-10.807 6350.4126,-10.0551"/>
<polygon fill="#191970" stroke="#191970" points="326.5993,-56.4562 317.5644,-61.9898 328.0781,-63.2983 326.5993,-56.4562"/>
</g>
<!-- Node7&#45;&gt;Node5 -->
<g id="edge8" class="edge">
<title>Node7&#45;&gt;Node5</title>
<path fill="none" stroke="#191970" d="M474.7243,-59.9907C483.4281,-58.3473 492.4473,-56.9083 501,-56 810.5146,-23.1289 5862.5268,-11.1618 6350.2306,-10.0816"/>
<polygon fill="#191970" stroke="#191970" points="473.8186,-56.6024 464.6985,-61.9943 475.1905,-63.4667 473.8186,-56.6024"/>
</g>
<!-- Node8&#45;&gt;Node5 -->
<g id="edge10" class="edge">
<title>Node8&#45;&gt;Node5</title>
<path fill="none" stroke="#191970" d="M6321.4764,-55.9685C6338.0678,-44.5037 6360.1206,-29.265 6374.1914,-19.5419"/>
<polygon fill="#191970" stroke="#191970" points="6319.1435,-53.3263 6312.9063,-61.8906 6323.1229,-59.0851 6319.1435,-53.3263"/>
</g>
<!-- Node9&#45;&gt;Node5 -->
<g id="edge12" class="edge">
<title>Node9&#45;&gt;Node5</title>
<path fill="none" stroke="#191970" d="M682.4202,-56.0887C1074.0217,-28.781 5875.668,-11.7492 6350.2894,-10.1272"/>
<polygon fill="#191970" stroke="#191970" points="682.0524,-52.6067 672.3572,-56.8791 682.6006,-59.5852 682.0524,-52.6067"/>
</g>
<!-- Node10&#45;&gt;Node5 -->
<g id="edge14" class="edge">
<title>Node10&#45;&gt;Node5</title>
<path fill="none" stroke="#191970" d="M798.64,-59.8848C806.7155,-58.2859 815.0657,-56.8892 823,-56 1115.0262,-23.2734 5879.0061,-11.2027 6350.4997,-10.0866"/>
<polygon fill="#191970" stroke="#191970" points="797.6749,-56.5112 788.6099,-61.9954 799.1163,-63.3612 797.6749,-56.5112"/>
</g>
<!-- Node304&#45;&gt;Node5 -->
<g id="edge49" class="edge">
<title>Node304&#45;&gt;Node5</title>
<path fill="none" stroke="#191970" d="M6362.0198,-119.4143C6377.7998,-111.9191 6392.3859,-101.494 6402,-87 6415.8194,-66.1662 6402.541,-35.5027 6393.9787,-19.9024"/>
<polygon fill="#191970" stroke="#191970" points="6360.3972,-116.3032 6352.6195,-123.4975 6363.186,-122.7237 6360.3972,-116.3032"/>
</g>
<!-- Node305&#45;&gt;Node5 -->
<g id="edge51" class="edge">
<title>Node305&#45;&gt;Node5</title>
<path fill="none" stroke="#191970" d="M6460.5064,-113.5754C6457.2311,-96.372 6451.1083,-73.5296 6440,-56 6430.4516,-40.9319 6414.5636,-27.9118 6402.8576,-19.6079"/>
<polygon fill="#191970" stroke="#191970" points="6457.0612,-114.1935 6462.197,-123.4603 6463.9611,-113.0134 6457.0612,-114.1935"/>
</g>
<!-- Node310&#45;&gt;Node5 -->
<g id="edge56" class="edge">
<title>Node310&#45;&gt;Node5</title>
<path fill="none" stroke="#191970" d="M6732.7652,-125.6719C6655.912,-99.8869 6484.2685,-42.299 6416.4015,-19.529"/>
<polygon fill="#191970" stroke="#191970" points="6731.9317,-129.0839 6742.5257,-128.9466 6734.1583,-122.4475 6731.9317,-129.0839"/>
</g>
<!-- Node311&#45;&gt;Node5 -->
<g id="edge58" class="edge">
<title>Node311&#45;&gt;Node5</title>
<path fill="none" stroke="#191970" d="M6868.4442,-126.4901C6804.9257,-110.173 6687.5059,-80.2537 6587,-56 6530.986,-42.4829 6465.901,-27.5915 6425.8304,-18.517"/>
<polygon fill="#191970" stroke="#191970" points="6867.6083,-129.889 6878.1649,-128.9891 6869.3513,-123.1094 6867.6083,-129.889"/>
</g>
<!-- Node312&#45;&gt;Node5 -->
<g id="edge60" class="edge">
<title>Node312&#45;&gt;Node5</title>
<path fill="none" stroke="#191970" d="M7006.2363,-126.5665C7001.1026,-125.3288 6995.9463,-124.1168 6991,-123 6844.1657,-89.8479 6806.9993,-83.4877 6659,-56 6575.953,-40.5758 6478.1949,-24.4904 6425.7684,-16.0316"/>
<polygon fill="#191970" stroke="#191970" points="7005.4741,-129.9832 7016.0194,-128.96 7007.1377,-123.1838 7005.4741,-129.9832"/>
</g>
<!-- Node313&#45;&gt;Node5 -->
<g id="edge62" class="edge">
<title>Node313&#45;&gt;Node5</title>
<path fill="none" stroke="#191970" d="M7125.0704,-125.6931C7122.0231,-124.7182 7118.9683,-123.8031 7116,-123 6857.3451,-53.0157 6534.4851,-21.8986 6425.7301,-12.9033"/>
<polygon fill="#191970" stroke="#191970" points="7124.0682,-129.0489 7134.6625,-128.946 7126.3164,-122.4197 7124.0682,-129.0489"/>
</g>
<!-- Node314&#45;&gt;Node5 -->
<g id="edge64" class="edge">
<title>Node314&#45;&gt;Node5</title>
<path fill="none" stroke="#191970" d="M7246.6083,-126.5402C7170.9342,-108.6372 7021.5469,-74.9525 6893,-56 6719.2454,-30.3823 6509.6153,-16.7562 6425.5468,-11.9894"/>
<polygon fill="#191970" stroke="#191970" points="7246.2489,-130.0522 7256.7872,-128.9585 7247.867,-123.2418 7246.2489,-130.0522"/>
</g>
</g>
</svg>
