<?xml version="1.0" encoding="UTF-8" standalone="no"?>
<!DOCTYPE svg PUBLIC "-//W3C//DTD SVG 1.1//EN"
 "http://www.w3.org/Graphics/SVG/1.1/DTD/svg11.dtd">
<!-- Generated by graphviz version 2.40.1 (20161225.0304)
 -->
<!-- Title: sitkMacro.h Pages: 1 -->
<svg width="5794pt" height="285pt"
 viewBox="0.00 0.00 5793.50 285.00" xmlns="http://www.w3.org/2000/svg" xmlns:xlink="http://www.w3.org/1999/xlink">
<g id="graph0" class="graph" transform="scale(1 1) rotate(0) translate(4 281)">
<title>sitkMacro.h</title>
<polygon fill="#ffffff" stroke="transparent" points="-4,4 -4,-281 5789.5,-281 5789.5,4 -4,4"/>
<!-- Node1 -->
<g id="node1" class="node">
<title>Node1</title>
<g id="a_node1"><a xlink:title=" ">
<polygon fill="#bfbfbf" stroke="#000000" points="2868,-257.5 2868,-276.5 2941,-276.5 2941,-257.5 2868,-257.5"/>
<text text-anchor="middle" x="2904.5" y="-264.5" font-family="Helvetica,sans-Serif" font-size="10.00" fill="#000000">sitkMacro.h</text>
</a>
</g>
</g>
<!-- Node2 -->
<g id="node2" class="node">
<title>Node2</title>
<g id="a_node2"><a xlink:href="sitkBasicFilters_8h.html" target="_top" xlink:title=" ">
<polygon fill="#ffffff" stroke="#ff0000" points="2798,-196 2798,-215 2897,-215 2897,-196 2798,-196"/>
<text text-anchor="middle" x="2847.5" y="-203" font-family="Helvetica,sans-Serif" font-size="10.00" fill="#000000">sitkBasicFilters.h</text>
</a>
</g>
</g>
<!-- Node1&#45;&gt;Node2 -->
<g id="edge1" class="edge">
<title>Node1&#45;&gt;Node2</title>
<path fill="none" stroke="#191970" d="M2888.6519,-249.9007C2878.2956,-238.7268 2865.1428,-224.5356 2856.5318,-215.2449"/>
<polygon fill="#191970" stroke="#191970" points="2886.2291,-252.4355 2895.5938,-257.3906 2891.3631,-247.6771 2886.2291,-252.4355"/>
</g>
<!-- Node4 -->
<g id="node4" class="node">
<title>Node4</title>
<g id="a_node4"><a xlink:href="SimpleITK_8h.html" target="_top" xlink:title=" ">
<polygon fill="#ffffff" stroke="#000000" points="411,-.5 411,-19.5 486,-19.5 486,-.5 411,-.5"/>
<text text-anchor="middle" x="448.5" y="-7.5" font-family="Helvetica,sans-Serif" font-size="10.00" fill="#000000">SimpleITK.h</text>
</a>
</g>
</g>
<!-- Node1&#45;&gt;Node4 -->
<g id="edge79" class="edge">
<title>Node1&#45;&gt;Node4</title>
<path fill="none" stroke="#191970" d="M2857.7166,-266.3507C2626.525,-263.038 1604.5038,-247.1495 1287.5,-221 1068.8787,-202.966 453.7018,-252.3068 309.5,-87 276.7666,-49.4758 359.2942,-26.5872 410.8197,-16.3503"/>
<polygon fill="#191970" stroke="#191970" points="2857.7617,-269.8516 2867.8106,-266.4945 2857.8615,-262.8523 2857.7617,-269.8516"/>
</g>
<!-- Node6 -->
<g id="node6" class="node">
<title>Node6</title>
<g id="a_node6"><a xlink:href="sitkImageFilter_8h.html" target="_top" xlink:title=" ">
<polygon fill="#ffffff" stroke="#ff0000" points="2904.5,-129 2904.5,-148 3002.5,-148 3002.5,-129 2904.5,-129"/>
<text text-anchor="middle" x="2953.5" y="-136" font-family="Helvetica,sans-Serif" font-size="10.00" fill="#000000">sitkImageFilter.h</text>
</a>
</g>
</g>
<!-- Node1&#45;&gt;Node6 -->
<g id="edge77" class="edge">
<title>Node1&#45;&gt;Node6</title>
<path fill="none" stroke="#191970" d="M2911.7782,-247.9134C2922.3789,-220.1134 2941.6825,-169.4907 2949.7743,-148.2705"/>
<polygon fill="#191970" stroke="#191970" points="2908.4757,-246.7508 2908.183,-257.3416 2915.0163,-249.2449 2908.4757,-246.7508"/>
</g>
<!-- Node9 -->
<g id="node8" class="node">
<title>Node9</title>
<g id="a_node8"><a xlink:href="sitkHashImageFilter_8h.html" target="_top" xlink:title=" ">
<polygon fill="#ffffff" stroke="#000000" points="5511.5,-62 5511.5,-81 5633.5,-81 5633.5,-62 5511.5,-62"/>
<text text-anchor="middle" x="5572.5" y="-69" font-family="Helvetica,sans-Serif" font-size="10.00" fill="#000000">sitkHashImageFilter.h</text>
</a>
</g>
</g>
<!-- Node1&#45;&gt;Node9 -->
<g id="edge78" class="edge">
<title>Node1&#45;&gt;Node9</title>
<path fill="none" stroke="#191970" d="M2951.2024,-260.2446C3060.9158,-244.1384 3343.4996,-201.2783 3577.5,-154 3636.1452,-142.1511 3649.1457,-130.5315 3708.5,-123 4499.6501,-22.611 4710.645,-181.6687 5502.5,-87 5513.4996,-85.685 5525.3116,-83.4109 5536.0417,-81.0035"/>
<polygon fill="#191970" stroke="#191970" points="2950.5195,-256.8072 2941.1321,-261.719 2951.5336,-263.7334 2950.5195,-256.8072"/>
</g>
<!-- Node306 -->
<g id="node39" class="node">
<title>Node306</title>
<g id="a_node39"><a xlink:href="sitkMemberFunctionFactoryBase_8h.html" target="_top" xlink:title=" ">
<polygon fill="#ffffff" stroke="#ff0000" points="3544.5,-190.5 3544.5,-220.5 3694.5,-220.5 3694.5,-190.5 3544.5,-190.5"/>
<text text-anchor="start" x="3552.5" y="-208.5" font-family="Helvetica,sans-Serif" font-size="10.00" fill="#000000">sitkMemberFunctionFactory</text>
<text text-anchor="middle" x="3619.5" y="-197.5" font-family="Helvetica,sans-Serif" font-size="10.00" fill="#000000">Base.h</text>
</a>
</g>
</g>
<!-- Node1&#45;&gt;Node306 -->
<g id="edge80" class="edge">
<title>Node1&#45;&gt;Node306</title>
<path fill="none" stroke="#191970" d="M2951.5216,-265.1384C3055.9734,-260.6546 3315.1048,-247.6038 3530.5,-221 3535.014,-220.4425 3539.6475,-219.8123 3544.3153,-219.1332"/>
<polygon fill="#191970" stroke="#191970" points="2951.1584,-261.6506 2941.3153,-265.5703 2951.4543,-268.6443 2951.1584,-261.6506"/>
</g>
<!-- Node337 -->
<g id="node40" class="node">
<title>Node337</title>
<g id="a_node40"><a xlink:href="sitkCommon_8h.html" target="_top" xlink:title=" ">
<polygon fill="#ffffff" stroke="#ff0000" points="3750.5,-196 3750.5,-215 3838.5,-215 3838.5,-196 3750.5,-196"/>
<text text-anchor="middle" x="3794.5" y="-203" font-family="Helvetica,sans-Serif" font-size="10.00" fill="#000000">sitkCommon.h</text>
</a>
</g>
</g>
<!-- Node1&#45;&gt;Node337 -->
<g id="edge81" class="edge">
<title>Node1&#45;&gt;Node337</title>
<path fill="none" stroke="#191970" d="M2951.7536,-265.6678C3104.4505,-261.1617 3583.5615,-245.3965 3736.5,-221 3745.3517,-219.588 3754.8017,-217.3754 3763.4491,-215.0596"/>
<polygon fill="#191970" stroke="#191970" points="2951.2259,-262.1817 2941.3325,-265.9728 2951.4307,-269.1787 2951.2259,-262.1817"/>
</g>
<!-- Node342 -->
<g id="node41" class="node">
<title>Node342</title>
<g id="a_node41"><a xlink:href="sitkTemplateFunctions_8h.html" target="_top" xlink:title=" ">
<polygon fill="#ffffff" stroke="#ff0000" points="5651.5,-62 5651.5,-81 5785.5,-81 5785.5,-62 5651.5,-62"/>
<text text-anchor="middle" x="5718.5" y="-69" font-family="Helvetica,sans-Serif" font-size="10.00" fill="#000000">sitkTemplateFunctions.h</text>
</a>
</g>
</g>
<!-- Node1&#45;&gt;Node342 -->
<g id="edge85" class="edge">
<title>Node1&#45;&gt;Node342</title>
<path fill="none" stroke="#191970" d="M2951.4017,-266.3585C3112.3032,-263.876 3635.714,-253.3689 3703.5,-221 3756.5938,-195.6469 3738.9335,-147.3384 3792.5,-123 3886.0897,-80.4766 5540.3277,-98.3179 5642.5,-87 5654.2781,-85.6953 5666.9392,-83.4561 5678.4845,-81.0789"/>
<polygon fill="#191970" stroke="#191970" points="2951.2823,-262.8598 2941.3364,-266.5106 2951.3881,-269.859 2951.2823,-262.8598"/>
</g>
<!-- Node344 -->
<g id="node42" class="node">
<title>Node344</title>
<g id="a_node42"><a xlink:href="sitkExceptionObject_8h.html" target="_top" xlink:title=" ">
<polygon fill="#ffffff" stroke="#ff0000" points="3823,-129 3823,-148 3946,-148 3946,-129 3823,-129"/>
<text text-anchor="middle" x="3884.5" y="-136" font-family="Helvetica,sans-Serif" font-size="10.00" fill="#000000">sitkExceptionObject.h</text>
</a>
</g>
</g>
<!-- Node1&#45;&gt;Node344 -->
<g id="edge86" class="edge">
<title>Node1&#45;&gt;Node344</title>
<path fill="none" stroke="#191970" d="M2951.4853,-266.0659C3136.9871,-262.2042 3810.1714,-246.4816 3847.5,-221 3872.3923,-204.0078 3880.7586,-166.0976 3883.3861,-148.2046"/>
<polygon fill="#191970" stroke="#191970" points="2951.1673,-262.5716 2941.2417,-266.2774 2951.3118,-269.5701 2951.1673,-262.5716"/>
</g>
<!-- Node352 -->
<g id="node43" class="node">
<title>Node352</title>
<g id="a_node43"><a xlink:href="sitkExplicit_8h.html" target="_top" xlink:title=" ">
<polygon fill="#ffffff" stroke="#ff0000" points="3894.5,-196 3894.5,-215 3974.5,-215 3974.5,-196 3894.5,-196"/>
<text text-anchor="middle" x="3934.5" y="-203" font-family="Helvetica,sans-Serif" font-size="10.00" fill="#000000">sitkExplicit.h</text>
</a>
</g>
</g>
<!-- Node1&#45;&gt;Node352 -->
<g id="edge87" class="edge">
<title>Node1&#45;&gt;Node352</title>
<path fill="none" stroke="#191970" d="M2951.2852,-266.2347C3120.2193,-263.2473 3698.3183,-251.0193 3880.5,-221 3888.8727,-219.6204 3897.7912,-217.3883 3905.9176,-215.0425"/>
<polygon fill="#191970" stroke="#191970" points="2951.1571,-262.7363 2941.2197,-266.4103 2951.2792,-269.7353 2951.1571,-262.7363"/>
</g>
<!-- Node327 -->
<g id="node44" class="node">
<title>Node327</title>
<g id="a_node44"><a xlink:href="sitkImageFileReader_8h.html" target="_top" xlink:title=" ">
<polygon fill="#ffffff" stroke="#000000" points="850.5,-129 850.5,-148 974.5,-148 974.5,-129 850.5,-129"/>
<text text-anchor="middle" x="912.5" y="-136" font-family="Helvetica,sans-Serif" font-size="10.00" fill="#000000">sitkImageFileReader.h</text>
</a>
</g>
</g>
<!-- Node1&#45;&gt;Node327 -->
<g id="edge88" class="edge">
<title>Node1&#45;&gt;Node327</title>
<path fill="none" stroke="#191970" d="M2857.6346,-266.8309C2687.0783,-265.9038 2083.4644,-259.8968 1587.5,-221 1360.9311,-203.231 1093.433,-165.5366 974.669,-147.93"/>
<polygon fill="#191970" stroke="#191970" points="2857.7552,-270.3315 2867.773,-266.8827 2857.7911,-263.3316 2857.7552,-270.3315"/>
</g>
<!-- Node371 -->
<g id="node45" class="node">
<title>Node371</title>
<g id="a_node45"><a xlink:href="sitkIO_8h.html" target="_top" xlink:title=" ">
<polygon fill="#ffffff" stroke="#ff0000" points="1652,-196 1652,-215 1705,-215 1705,-196 1652,-196"/>
<text text-anchor="middle" x="1678.5" y="-203" font-family="Helvetica,sans-Serif" font-size="10.00" fill="#000000">sitkIO.h</text>
</a>
</g>
</g>
<!-- Node1&#45;&gt;Node371 -->
<g id="edge90" class="edge">
<title>Node1&#45;&gt;Node371</title>
<path fill="none" stroke="#191970" d="M2857.8201,-264.6584C2655.8955,-254.5292 1860.7855,-214.644 1705.0448,-206.8316"/>
<polygon fill="#191970" stroke="#191970" points="2857.6454,-268.1539 2867.8083,-265.1594 2857.9962,-261.1627 2857.6454,-268.1539"/>
</g>
<!-- Node330 -->
<g id="node46" class="node">
<title>Node330</title>
<g id="a_node46"><a xlink:href="sitkImageFileWriter_8h.html" target="_top" xlink:title=" ">
<polygon fill="#ffffff" stroke="#000000" points="1475,-129 1475,-148 1594,-148 1594,-129 1475,-129"/>
<text text-anchor="middle" x="1534.5" y="-136" font-family="Helvetica,sans-Serif" font-size="10.00" fill="#000000">sitkImageFileWriter.h</text>
</a>
</g>
</g>
<!-- Node1&#45;&gt;Node330 -->
<g id="edge95" class="edge">
<title>Node1&#45;&gt;Node330</title>
<path fill="none" stroke="#191970" d="M2857.6705,-266.0885C2636.0281,-261.6734 1700.6849,-241.8695 1642.5,-221 1599.6361,-205.6258 1560.0185,-166.5421 1543.1151,-148.2367"/>
<polygon fill="#191970" stroke="#191970" points="2857.9114,-269.5939 2867.9789,-266.293 2858.0503,-262.5953 2857.9114,-269.5939"/>
</g>
<!-- Node331 -->
<g id="node47" class="node">
<title>Node331</title>
<g id="a_node47"><a xlink:href="sitkImageSeriesWriter_8h.html" target="_top" xlink:title=" ">
<polygon fill="#ffffff" stroke="#000000" points="1612,-129 1612,-148 1745,-148 1745,-129 1612,-129"/>
<text text-anchor="middle" x="1678.5" y="-136" font-family="Helvetica,sans-Serif" font-size="10.00" fill="#000000">sitkImageSeriesWriter.h</text>
</a>
</g>
</g>
<!-- Node1&#45;&gt;Node331 -->
<g id="edge98" class="edge">
<title>Node1&#45;&gt;Node331</title>
<path fill="none" stroke="#191970" d="M2857.2869,-264.1657C2699.9625,-254.3377 2179.4372,-218.7356 1753.5,-154 1742.8525,-152.3818 1731.4344,-150.2358 1720.7993,-148.0581"/>
<polygon fill="#191970" stroke="#191970" points="2857.3531,-267.6764 2867.5506,-264.8023 2857.7865,-260.6898 2857.3531,-267.6764"/>
</g>
<!-- Node328 -->
<g id="node48" class="node">
<title>Node328</title>
<g id="a_node48"><a xlink:href="sitkImageSeriesReader_8h.html" target="_top" xlink:title=" ">
<polygon fill="#ffffff" stroke="#000000" points="0,-196 0,-215 137,-215 137,-196 0,-196"/>
<text text-anchor="middle" x="68.5" y="-203" font-family="Helvetica,sans-Serif" font-size="10.00" fill="#000000">sitkImageSeriesReader.h</text>
</a>
</g>
</g>
<!-- Node1&#45;&gt;Node328 -->
<g id="edge96" class="edge">
<title>Node1&#45;&gt;Node328</title>
<path fill="none" stroke="#191970" d="M2857.7968,-266.7271C2517.6227,-264.6731 426.3309,-250.8925 146.5,-221 134.2818,-219.6948 121.1316,-217.4237 109.1742,-215.0161"/>
<polygon fill="#191970" stroke="#191970" points="2857.7809,-270.227 2867.8017,-266.7872 2857.823,-263.2271 2857.7809,-270.227"/>
</g>
<!-- Node329 -->
<g id="node49" class="node">
<title>Node329</title>
<g id="a_node49"><a xlink:href="sitkImportImageFilter_8h.html" target="_top" xlink:title=" ">
<polygon fill="#ffffff" stroke="#000000" points="155.5,-196 155.5,-215 285.5,-215 285.5,-196 155.5,-196"/>
<text text-anchor="middle" x="220.5" y="-203" font-family="Helvetica,sans-Serif" font-size="10.00" fill="#000000">sitkImportImageFilter.h</text>
</a>
</g>
</g>
<!-- Node1&#45;&gt;Node329 -->
<g id="edge99" class="edge">
<title>Node1&#45;&gt;Node329</title>
<path fill="none" stroke="#191970" d="M2857.851,-266.6717C2528.8386,-264.2911 563.1454,-248.9713 299.5,-221 287.1301,-219.6876 273.8128,-217.4144 261.702,-215.0069"/>
<polygon fill="#191970" stroke="#191970" points="2857.9608,-270.1725 2867.9858,-266.7447 2858.0113,-263.1727 2857.9608,-270.1725"/>
</g>
<!-- Node372 -->
<g id="node50" class="node">
<title>Node372</title>
<g id="a_node50"><a xlink:href="sitkRegistration_8h.html" target="_top" xlink:title=" ">
<polygon fill="#ffffff" stroke="#ff0000" points="3992.5,-196 3992.5,-215 4094.5,-215 4094.5,-196 3992.5,-196"/>
<text text-anchor="middle" x="4043.5" y="-203" font-family="Helvetica,sans-Serif" font-size="10.00" fill="#000000">sitkRegistration.h</text>
</a>
</g>
</g>
<!-- Node1&#45;&gt;Node372 -->
<g id="edge101" class="edge">
<title>Node1&#45;&gt;Node372</title>
<path fill="none" stroke="#191970" d="M2951.3278,-266.3131C3131.4714,-263.4675 3779.8473,-251.3015 3983.5,-221 3992.7581,-219.6225 4002.6532,-217.3911 4011.6831,-215.0453"/>
<polygon fill="#191970" stroke="#191970" points="2951.0711,-262.8166 2941.1269,-266.4721 2951.1803,-269.8157 2951.0711,-262.8166"/>
</g>
<!-- Node3 -->
<g id="node3" class="node">
<title>Node3</title>
<g id="a_node3"><a xlink:href="sitkAdditionalProcedures_8h.html" target="_top" xlink:title=" ">
<polygon fill="#ffffff" stroke="#000000" points="2131,-129 2131,-148 2278,-148 2278,-129 2131,-129"/>
<text text-anchor="middle" x="2204.5" y="-136" font-family="Helvetica,sans-Serif" font-size="10.00" fill="#000000">sitkAdditionalProcedures.h</text>
</a>
</g>
</g>
<!-- Node2&#45;&gt;Node3 -->
<g id="edge2" class="edge">
<title>Node2&#45;&gt;Node3</title>
<path fill="none" stroke="#191970" d="M2787.8822,-201.5757C2686.0427,-194.513 2472.1516,-178.1156 2292.5,-154 2280.2,-152.3489 2266.9937,-150.2161 2254.6488,-148.0638"/>
<polygon fill="#191970" stroke="#191970" points="2787.7556,-205.0751 2797.9724,-202.2702 2788.2364,-198.0917 2787.7556,-205.0751"/>
</g>
<!-- Node5 -->
<g id="node5" class="node">
<title>Node5</title>
<g id="a_node5"><a xlink:href="sitkBSplineTransformInitializerFilter_8h.html" target="_top" xlink:title=" ">
<polygon fill="#ffffff" stroke="#000000" points="3348.5,-56.5 3348.5,-86.5 3514.5,-86.5 3514.5,-56.5 3348.5,-56.5"/>
<text text-anchor="start" x="3356.5" y="-74.5" font-family="Helvetica,sans-Serif" font-size="10.00" fill="#000000">sitkBSplineTransformInitializer</text>
<text text-anchor="middle" x="3431.5" y="-63.5" font-family="Helvetica,sans-Serif" font-size="10.00" fill="#000000">Filter.h</text>
</a>
</g>
</g>
<!-- Node2&#45;&gt;Node5 -->
<g id="edge4" class="edge">
<title>Node2&#45;&gt;Node5</title>
<path fill="none" stroke="#191970" d="M2907.2664,-195.8095C2948.0178,-187.8473 3002.5344,-174.4932 3047.5,-154 3069.5994,-143.9281 3069.8949,-131.8789 3092.5,-123 3195.3486,-82.6027 3229.3308,-104.0837 3338.5,-87 3341.7343,-86.4939 3345.031,-85.9722 3348.3604,-85.4405"/>
<polygon fill="#191970" stroke="#191970" points="2906.3877,-192.4138 2897.2167,-197.7187 2907.6942,-199.2908 2906.3877,-192.4138"/>
</g>
<!-- Node2&#45;&gt;Node6 -->
<g id="edge6" class="edge">
<title>Node2&#45;&gt;Node6</title>
<path fill="none" stroke="#191970" d="M2871.1731,-190.5368C2891.7027,-177.5605 2920.8003,-159.1687 2938.341,-148.0817"/>
<polygon fill="#191970" stroke="#191970" points="2869.2702,-187.599 2862.6872,-195.9005 2873.0103,-193.5161 2869.2702,-187.599"/>
</g>
<!-- Node8 -->
<g id="node7" class="node">
<title>Node8</title>
<g id="a_node7"><a xlink:href="sitkExtractImageFilter_8h.html" target="_top" xlink:title=" ">
<polygon fill="#ffffff" stroke="#000000" points="5039.5,-62 5039.5,-81 5171.5,-81 5171.5,-62 5039.5,-62"/>
<text text-anchor="middle" x="5105.5" y="-69" font-family="Helvetica,sans-Serif" font-size="10.00" fill="#000000">sitkExtractImageFilter.h</text>
</a>
</g>
</g>
<!-- Node2&#45;&gt;Node8 -->
<g id="edge47" class="edge">
<title>Node2&#45;&gt;Node8</title>
<path fill="none" stroke="#191970" d="M2907.359,-203.8694C3035.2223,-199.7875 3331.0436,-186.9852 3425.5,-154 3449.1244,-145.7501 3448.6172,-130.4689 3472.5,-123 3637.6582,-71.3496 4857.5409,-106.3669 5029.5,-87 5041.2757,-85.6738 5053.9361,-83.4278 5065.4814,-81.0511"/>
<polygon fill="#191970" stroke="#191970" points="2907.2336,-200.3715 2897.3477,-204.182 2907.4522,-207.3681 2907.2336,-200.3715"/>
</g>
<!-- Node2&#45;&gt;Node9 -->
<g id="edge48" class="edge">
<title>Node2&#45;&gt;Node9</title>
<path fill="none" stroke="#191970" d="M2907.466,-204.894C3053.3429,-202.8042 3423.2786,-193.6375 3539.5,-154 3563.1839,-145.9226 3562.6011,-130.4172 3586.5,-123 3789.8577,-59.8864 5291.063,-112.141 5502.5,-87 5513.5005,-85.692 5525.3127,-83.42 5536.0427,-81.0125"/>
<polygon fill="#191970" stroke="#191970" points="2907.3077,-201.3957 2897.3567,-205.0325 2907.4037,-208.395 2907.3077,-201.3957"/>
</g>
<!-- Node10 -->
<g id="node9" class="node">
<title>Node10</title>
<g id="a_node9"><a xlink:href="sitkLandmarkBasedTransformInitializerFilter_8h.html" target="_top" xlink:title=" ">
<polygon fill="#ffffff" stroke="#000000" points="5189.5,-56.5 5189.5,-86.5 5351.5,-86.5 5351.5,-56.5 5189.5,-56.5"/>
<text text-anchor="start" x="5197.5" y="-74.5" font-family="Helvetica,sans-Serif" font-size="10.00" fill="#000000">sitkLandmarkBasedTransform</text>
<text text-anchor="middle" x="5270.5" y="-63.5" font-family="Helvetica,sans-Serif" font-size="10.00" fill="#000000">InitializerFilter.h</text>
</a>
</g>
</g>
<!-- Node2&#45;&gt;Node10 -->
<g id="edge49" class="edge">
<title>Node2&#45;&gt;Node10</title>
<path fill="none" stroke="#191970" d="M2907.4167,-204.2514C3041.4763,-200.8527 3361.8197,-189.1969 3463.5,-154 3487.1468,-145.8146 3486.6114,-130.4503 3510.5,-123 3687.6817,-67.7415 4995.7568,-104.7996 5180.5,-87 5183.3408,-86.7263 5186.227,-86.4145 5189.1382,-86.0712"/>
<polygon fill="#191970" stroke="#191970" points="2907.2362,-200.7547 2897.3256,-204.5005 2907.409,-207.7526 2907.2362,-200.7547"/>
</g>
<!-- Node11 -->
<g id="node10" class="node">
<title>Node11</title>
<g id="a_node10"><a xlink:href="sitkPasteImageFilter_8h.html" target="_top" xlink:title=" ">
<polygon fill="#ffffff" stroke="#000000" points="5369.5,-62 5369.5,-81 5493.5,-81 5493.5,-62 5369.5,-62"/>
<text text-anchor="middle" x="5431.5" y="-69" font-family="Helvetica,sans-Serif" font-size="10.00" fill="#000000">sitkPasteImageFilter.h</text>
</a>
</g>
</g>
<!-- Node2&#45;&gt;Node11 -->
<g id="edge50" class="edge">
<title>Node2&#45;&gt;Node11</title>
<path fill="none" stroke="#191970" d="M2907.6038,-204.5878C3047.7607,-201.8482 3392.6033,-191.4009 3501.5,-154 3525.1665,-145.8717 3524.6051,-130.4301 3548.5,-123 3740.7913,-63.2073 5160.5131,-110.5872 5360.5,-87 5371.6516,-85.6847 5383.6307,-83.4106 5394.5142,-81.0033"/>
<polygon fill="#191970" stroke="#191970" points="2907.405,-201.0908 2897.473,-204.7793 2907.5374,-208.0895 2907.405,-201.0908"/>
</g>
<!-- Node12 -->
<g id="node11" class="node">
<title>Node12</title>
<g id="a_node11"><a xlink:href="sitkAbsImageFilter_8h.html" target="_top" xlink:title=" ">
<polygon fill="#ffffff" stroke="#ff0000" points="1552.5,-62 1552.5,-81 1668.5,-81 1668.5,-62 1552.5,-62"/>
<text text-anchor="middle" x="1610.5" y="-69" font-family="Helvetica,sans-Serif" font-size="10.00" fill="#000000">sitkAbsImageFilter.h</text>
</a>
</g>
</g>
<!-- Node2&#45;&gt;Node12 -->
<g id="edge51" class="edge">
<title>Node2&#45;&gt;Node12</title>
<path fill="none" stroke="#191970" d="M2787.7306,-198.8534C2713.0982,-189.9272 2590.1615,-172.9774 2548.5,-154 2528.665,-144.9648 2530.8698,-130.7544 2510.5,-123 2337.3389,-57.0807 1861.0914,-111.9865 1677.5,-87 1667.2078,-85.5993 1656.173,-83.3604 1646.089,-81.0149"/>
<polygon fill="#191970" stroke="#191970" points="2787.5856,-202.3606 2797.9274,-200.0591 2788.4076,-195.409 2787.5856,-202.3606"/>
</g>
<!-- Node15 -->
<g id="node12" class="node">
<title>Node15</title>
<g id="a_node12"><a xlink:href="sitkAbsoluteValueDifferenceImageFilter_8h.html" target="_top" xlink:title=" ">
<polygon fill="#ffffff" stroke="#ff0000" points="1687,-56.5 1687,-86.5 1842,-86.5 1842,-56.5 1687,-56.5"/>
<text text-anchor="start" x="1695" y="-74.5" font-family="Helvetica,sans-Serif" font-size="10.00" fill="#000000">sitkAbsoluteValueDifference</text>
<text text-anchor="middle" x="1764.5" y="-63.5" font-family="Helvetica,sans-Serif" font-size="10.00" fill="#000000">ImageFilter.h</text>
</a>
</g>
</g>
<!-- Node2&#45;&gt;Node15 -->
<g id="edge52" class="edge">
<title>Node2&#45;&gt;Node15</title>
<path fill="none" stroke="#191970" d="M2787.4431,-201.9566C2732.8122,-196.8431 2651.0912,-184.3732 2586.5,-154 2566.776,-144.725 2568.8373,-130.8393 2548.5,-123 2403.5765,-67.1373 2004.7927,-104.8105 1850.5,-87 1847.7872,-86.6869 1845.0307,-86.3411 1842.2501,-85.9689"/>
<polygon fill="#191970" stroke="#191970" points="2787.3878,-205.4652 2797.6564,-202.8564 2788.0022,-198.4922 2787.3878,-205.4652"/>
</g>
<!-- Node16 -->
<g id="node13" class="node">
<title>Node16</title>
<g id="a_node13"><a xlink:href="sitkAcosImageFilter_8h.html" target="_top" xlink:title=" ">
<polygon fill="#ffffff" stroke="#ff0000" points="1860,-62 1860,-81 1981,-81 1981,-62 1860,-62"/>
<text text-anchor="middle" x="1920.5" y="-69" font-family="Helvetica,sans-Serif" font-size="10.00" fill="#000000">sitkAcosImageFilter.h</text>
</a>
</g>
</g>
<!-- Node2&#45;&gt;Node16 -->
<g id="edge53" class="edge">
<title>Node2&#45;&gt;Node16</title>
<path fill="none" stroke="#191970" d="M2787.7377,-199.2165C2741.3504,-192.5969 2676.4141,-179.4388 2624.5,-154 2604.9276,-144.4092 2606.803,-130.9277 2586.5,-123 2462.6956,-74.6584 2121.0962,-105.6252 1989.5,-87 1979.1669,-85.5375 1968.0888,-83.3374 1957.8995,-81.0508"/>
<polygon fill="#191970" stroke="#191970" points="2787.5489,-202.7231 2797.9306,-200.6087 2788.4963,-195.7875 2787.5489,-202.7231"/>
</g>
<!-- Node17 -->
<g id="node14" class="node">
<title>Node17</title>
<g id="a_node14"><a xlink:href="sitkAdaptiveHistogramEqualizationImageFilter_8h.html" target="_top" xlink:title=" ">
<polygon fill="#ffffff" stroke="#ff0000" points="1999,-56.5 1999,-86.5 2188,-86.5 2188,-56.5 1999,-56.5"/>
<text text-anchor="start" x="2007" y="-74.5" font-family="Helvetica,sans-Serif" font-size="10.00" fill="#000000">sitkAdaptiveHistogramEqualization</text>
<text text-anchor="middle" x="2093.5" y="-63.5" font-family="Helvetica,sans-Serif" font-size="10.00" fill="#000000">ImageFilter.h</text>
</a>
</g>
</g>
<!-- Node2&#45;&gt;Node17 -->
<g id="edge54" class="edge">
<title>Node2&#45;&gt;Node17</title>
<path fill="none" stroke="#191970" d="M2787.682,-195.3807C2750.2664,-187.4964 2701.8723,-174.3926 2662.5,-154 2643.146,-143.9757 2644.7069,-131.1695 2624.5,-123 2536.2166,-87.3076 2292.0852,-98.0242 2197.5,-87 2194.4175,-86.6407 2191.2858,-86.2608 2188.125,-85.8646"/>
<polygon fill="#191970" stroke="#191970" points="2787.4299,-198.9011 2797.9273,-197.4678 2788.8272,-192.042 2787.4299,-198.9011"/>
</g>
<!-- Node18 -->
<g id="node15" class="node">
<title>Node18</title>
<g id="a_node15"><a xlink:href="sitkAddImageFilter_8h.html" target="_top" xlink:title=" ">
<polygon fill="#ffffff" stroke="#ff0000" points="2206.5,-62 2206.5,-81 2322.5,-81 2322.5,-62 2206.5,-62"/>
<text text-anchor="middle" x="2264.5" y="-69" font-family="Helvetica,sans-Serif" font-size="10.00" fill="#000000">sitkAddImageFilter.h</text>
</a>
</g>
</g>
<!-- Node2&#45;&gt;Node18 -->
<g id="edge55" class="edge">
<title>Node2&#45;&gt;Node18</title>
<path fill="none" stroke="#191970" d="M2799.1082,-193.1611C2769.5324,-184.5169 2731.5522,-171.3953 2700.5,-154 2681.4845,-143.3476 2682.6065,-131.4137 2662.5,-123 2525.9912,-65.877 2477.3992,-111.7202 2331.5,-87 2321.9652,-85.3845 2311.7565,-83.2395 2302.2551,-81.0619"/>
<polygon fill="#191970" stroke="#191970" points="2798.2176,-196.5466 2808.7939,-195.9207 2800.1357,-189.8145 2798.2176,-196.5466"/>
</g>
<!-- Node20 -->
<g id="node16" class="node">
<title>Node20</title>
<g id="a_node16"><a xlink:href="sitkAdditiveGaussianNoiseImageFilter_8h.html" target="_top" xlink:title=" ">
<polygon fill="#ffffff" stroke="#ff0000" points="2340.5,-56.5 2340.5,-86.5 2488.5,-86.5 2488.5,-56.5 2340.5,-56.5"/>
<text text-anchor="start" x="2348.5" y="-74.5" font-family="Helvetica,sans-Serif" font-size="10.00" fill="#000000">sitkAdditiveGaussianNoise</text>
<text text-anchor="middle" x="2414.5" y="-63.5" font-family="Helvetica,sans-Serif" font-size="10.00" fill="#000000">ImageFilter.h</text>
</a>
</g>
</g>
<!-- Node2&#45;&gt;Node20 -->
<g id="edge56" class="edge">
<title>Node2&#45;&gt;Node20</title>
<path fill="none" stroke="#191970" d="M2813.4914,-191.9687C2791.4098,-182.5776 2762.3998,-169.0787 2738.5,-154 2720.0663,-142.3699 2720.3126,-132.0842 2700.5,-123 2617.2079,-84.8101 2587.6484,-103.4106 2497.5,-87 2494.6156,-86.4749 2491.6754,-85.9373 2488.7055,-85.3923"/>
<polygon fill="#191970" stroke="#191970" points="2812.224,-195.2324 2822.8003,-195.8598 2814.9237,-188.7739 2812.224,-195.2324"/>
</g>
<!-- Node21 -->
<g id="node17" class="node">
<title>Node21</title>
<g id="a_node17"><a xlink:href="sitkAggregateLabelMapFilter_8h.html" target="_top" xlink:title=" ">
<polygon fill="#ffffff" stroke="#ff0000" points="2506.5,-62 2506.5,-81 2670.5,-81 2670.5,-62 2506.5,-62"/>
<text text-anchor="middle" x="2588.5" y="-69" font-family="Helvetica,sans-Serif" font-size="10.00" fill="#000000">sitkAggregateLabelMapFilter.h</text>
</a>
</g>
</g>
<!-- Node2&#45;&gt;Node21 -->
<g id="edge57" class="edge">
<title>Node2&#45;&gt;Node21</title>
<path fill="none" stroke="#191970" d="M2827.6616,-189.275C2801.5885,-168.1669 2756.9441,-132.8214 2738.5,-123 2702.5316,-103.8469 2658.0174,-89.6268 2626.8601,-81.0374"/>
<polygon fill="#191970" stroke="#191970" points="2825.7594,-192.2392 2835.7271,-195.8302 2830.1743,-186.8071 2825.7594,-192.2392"/>
</g>
<!-- Node22 -->
<g id="node18" class="node">
<title>Node22</title>
<g id="a_node18"><a xlink:href="sitkAndImageFilter_8h.html" target="_top" xlink:title=" ">
<polygon fill="#ffffff" stroke="#ff0000" points="2688.5,-62 2688.5,-81 2804.5,-81 2804.5,-62 2688.5,-62"/>
<text text-anchor="middle" x="2746.5" y="-69" font-family="Helvetica,sans-Serif" font-size="10.00" fill="#000000">sitkAndImageFilter.h</text>
</a>
</g>
</g>
<!-- Node2&#45;&gt;Node22 -->
<g id="edge58" class="edge">
<title>Node2&#45;&gt;Node22</title>
<path fill="none" stroke="#191970" d="M2833.9556,-187.5301C2812.2578,-158.743 2770.4478,-103.2724 2753.6979,-81.0496"/>
<polygon fill="#191970" stroke="#191970" points="2831.4222,-189.984 2840.2363,-195.8631 2837.0122,-185.7707 2831.4222,-189.984"/>
</g>
<!-- Node23 -->
<g id="node19" class="node">
<title>Node23</title>
<g id="a_node19"><a xlink:href="sitkAntiAliasBinaryImageFilter_8h.html" target="_top" xlink:title=" ">
<polygon fill="#ffffff" stroke="#ff0000" points="2822.5,-56.5 2822.5,-86.5 2962.5,-86.5 2962.5,-56.5 2822.5,-56.5"/>
<text text-anchor="start" x="2830.5" y="-74.5" font-family="Helvetica,sans-Serif" font-size="10.00" fill="#000000">sitkAntiAliasBinaryImage</text>
<text text-anchor="middle" x="2892.5" y="-63.5" font-family="Helvetica,sans-Serif" font-size="10.00" fill="#000000">Filter.h</text>
</a>
</g>
</g>
<!-- Node2&#45;&gt;Node23 -->
<g id="edge59" class="edge">
<title>Node2&#45;&gt;Node23</title>
<path fill="none" stroke="#191970" d="M2849.2146,-185.1459C2851.1129,-168.1231 2854.9624,-143.4169 2862.5,-123 2867.3021,-109.9927 2875.2966,-96.4921 2881.8258,-86.5784"/>
<polygon fill="#191970" stroke="#191970" points="2845.6864,-185.2617 2848.1907,-195.5563 2852.6528,-185.9469 2845.6864,-185.2617"/>
</g>
<!-- Node24 -->
<g id="node20" class="node">
<title>Node24</title>
<g id="a_node20"><a xlink:href="sitkApproximateSignedDistanceMapImageFilter_8h.html" target="_top" xlink:title=" ">
<polygon fill="#ffffff" stroke="#ff0000" points="2981,-56.5 2981,-86.5 3154,-86.5 3154,-56.5 2981,-56.5"/>
<text text-anchor="start" x="2989" y="-74.5" font-family="Helvetica,sans-Serif" font-size="10.00" fill="#000000">sitkApproximateSignedDistance</text>
<text text-anchor="middle" x="3067.5" y="-63.5" font-family="Helvetica,sans-Serif" font-size="10.00" fill="#000000">MapImageFilter.h</text>
</a>
</g>
</g>
<!-- Node2&#45;&gt;Node24 -->
<g id="edge60" class="edge">
<title>Node2&#45;&gt;Node24</title>
<path fill="none" stroke="#191970" d="M2853.9605,-186.1679C2861.2044,-167.3831 2874.7314,-139.3659 2895.5,-123 2911.9648,-110.0256 2958.6067,-96.4686 2999.1714,-86.5226"/>
<polygon fill="#191970" stroke="#191970" points="2850.6003,-185.1682 2850.4952,-195.7625 2857.1841,-187.5461 2850.6003,-185.1682"/>
</g>
<!-- Node25 -->
<g id="node21" class="node">
<title>Node25</title>
<g id="a_node21"><a xlink:href="sitkAsinImageFilter_8h.html" target="_top" xlink:title=" ">
<polygon fill="#ffffff" stroke="#ff0000" points="3211,-62 3211,-81 3330,-81 3330,-62 3211,-62"/>
<text text-anchor="middle" x="3270.5" y="-69" font-family="Helvetica,sans-Serif" font-size="10.00" fill="#000000">sitkAsinImageFilter.h</text>
</a>
</g>
</g>
<!-- Node2&#45;&gt;Node25 -->
<g id="edge61" class="edge">
<title>Node2&#45;&gt;Node25</title>
<path fill="none" stroke="#191970" d="M2900.6342,-193.4374C2933.577,-184.8485 2976.1968,-171.6872 3011.5,-154 3032.564,-143.4468 3033.0786,-132.8074 3054.5,-123 3070.0544,-115.8787 3167.8806,-93.8742 3226.4131,-81.0488"/>
<polygon fill="#191970" stroke="#191970" points="2899.5675,-190.0973 2890.7401,-195.9561 2901.2945,-196.8809 2899.5675,-190.0973"/>
</g>
<!-- Node26 -->
<g id="node22" class="node">
<title>Node26</title>
<g id="a_node22"><a xlink:href="sitkAtan2ImageFilter_8h.html" target="_top" xlink:title=" ">
<polygon fill="#ffffff" stroke="#ff0000" points="3532.5,-62 3532.5,-81 3658.5,-81 3658.5,-62 3532.5,-62"/>
<text text-anchor="middle" x="3595.5" y="-69" font-family="Helvetica,sans-Serif" font-size="10.00" fill="#000000">sitkAtan2ImageFilter.h</text>
</a>
</g>
</g>
<!-- Node2&#45;&gt;Node26 -->
<g id="edge62" class="edge">
<title>Node2&#45;&gt;Node26</title>
<path fill="none" stroke="#191970" d="M2907.4127,-198.862C2956.511,-191.9369 3027.0163,-178.5404 3084.5,-154 3107.1739,-144.3203 3107.2756,-131.2722 3130.5,-123 3295.7296,-64.1475 3350.1162,-113.505 3523.5,-87 3533.8644,-85.4156 3544.9763,-83.2559 3555.2935,-81.052"/>
<polygon fill="#191970" stroke="#191970" points="2906.709,-195.4255 2897.273,-200.2432 2907.6539,-202.3614 2906.709,-195.4255"/>
</g>
<!-- Node27 -->
<g id="node23" class="node">
<title>Node27</title>
<g id="a_node23"><a xlink:href="sitkAtanImageFilter_8h.html" target="_top" xlink:title=" ">
<polygon fill="#ffffff" stroke="#ff0000" points="3676.5,-62 3676.5,-81 3796.5,-81 3796.5,-62 3676.5,-62"/>
<text text-anchor="middle" x="3736.5" y="-69" font-family="Helvetica,sans-Serif" font-size="10.00" fill="#000000">sitkAtanImageFilter.h</text>
</a>
</g>
</g>
<!-- Node2&#45;&gt;Node27 -->
<g id="edge63" class="edge">
<title>Node2&#45;&gt;Node27</title>
<path fill="none" stroke="#191970" d="M2907.4106,-201.1096C2964.2436,-195.3703 3051.1696,-182.453 3121.5,-154 3144.697,-144.6154 3144.8069,-131.0506 3168.5,-123 3379.0325,-51.4637 3447.5275,-119.4573 3667.5,-87 3677.7028,-85.4946 3688.639,-83.3082 3698.7287,-81.05"/>
<polygon fill="#191970" stroke="#191970" points="2906.7767,-197.6544 2897.1596,-202.0998 2907.4498,-204.622 2906.7767,-197.6544"/>
</g>
<!-- Node28 -->
<g id="node24" class="node">
<title>Node28</title>
<g id="a_node24"><a xlink:href="sitkBSplineDecompositionImageFilter_8h.html" target="_top" xlink:title=" ">
<polygon fill="#ffffff" stroke="#ff0000" points="3815,-56.5 3815,-86.5 3960,-86.5 3960,-56.5 3815,-56.5"/>
<text text-anchor="start" x="3823" y="-74.5" font-family="Helvetica,sans-Serif" font-size="10.00" fill="#000000">sitkBSplineDecomposition</text>
<text text-anchor="middle" x="3887.5" y="-63.5" font-family="Helvetica,sans-Serif" font-size="10.00" fill="#000000">ImageFilter.h</text>
</a>
</g>
</g>
<!-- Node2&#45;&gt;Node28 -->
<g id="edge64" class="edge">
<title>Node2&#45;&gt;Node28</title>
<path fill="none" stroke="#191970" d="M2907.365,-203.0214C2971.6581,-198.6854 3075.8505,-186.7657 3159.5,-154 3182.7998,-144.8734 3182.7591,-130.9084 3206.5,-123 3333.0165,-80.8557 3673.1631,-103.417 3805.5,-87 3808.5194,-86.6254 3811.5952,-86.208 3814.6978,-85.7573"/>
<polygon fill="#191970" stroke="#191970" points="2906.7675,-199.5521 2897.0088,-203.6773 2907.21,-206.5381 2906.7675,-199.5521"/>
</g>
<!-- Node29 -->
<g id="node25" class="node">
<title>Node29</title>
<g id="a_node25"><a xlink:href="sitkBilateralImageFilter_8h.html" target="_top" xlink:title=" ">
<polygon fill="#ffffff" stroke="#ff0000" points="3978,-62 3978,-81 4117,-81 4117,-62 3978,-62"/>
<text text-anchor="middle" x="4047.5" y="-69" font-family="Helvetica,sans-Serif" font-size="10.00" fill="#000000">sitkBilateralImageFilter.h</text>
</a>
</g>
</g>
<!-- Node2&#45;&gt;Node29 -->
<g id="edge65" class="edge">
<title>Node2&#45;&gt;Node29</title>
<path fill="none" stroke="#191970" d="M2907.1363,-199.8834C2992.6922,-191.2905 3145.6686,-173.7813 3197.5,-154 3220.8787,-145.0776 3220.7185,-130.7855 3244.5,-123 3397.5926,-72.8811 3808.604,-106.558 3968.5,-87 3980.2924,-85.5576 3992.9632,-83.3642 4004.6291,-81.0776"/>
<polygon fill="#191970" stroke="#191970" points="2906.6527,-196.4142 2897.0482,-200.8867 2907.3455,-203.3798 2906.6527,-196.4142"/>
</g>
<!-- Node30 -->
<g id="node26" class="node">
<title>Node30</title>
<g id="a_node26"><a xlink:href="sitkBinShrinkImageFilter_8h.html" target="_top" xlink:title=" ">
<polygon fill="#ffffff" stroke="#ff0000" points="4135.5,-62 4135.5,-81 4279.5,-81 4279.5,-62 4135.5,-62"/>
<text text-anchor="middle" x="4207.5" y="-69" font-family="Helvetica,sans-Serif" font-size="10.00" fill="#000000">sitkBinShrinkImageFilter.h</text>
</a>
</g>
</g>
<!-- Node2&#45;&gt;Node30 -->
<g id="edge66" class="edge">
<title>Node2&#45;&gt;Node30</title>
<path fill="none" stroke="#191970" d="M2907.1628,-200.8665C3000.5536,-193.063 3176.6758,-175.9751 3235.5,-154 3258.9412,-145.243 3258.6914,-130.7022 3282.5,-123 3460.9011,-65.2867 3939.229,-108.4688 4125.5,-87 4137.8779,-85.5734 4151.1934,-83.356 4163.4197,-81.0402"/>
<polygon fill="#191970" stroke="#191970" points="2906.697,-197.393 2897.0192,-201.7047 2907.2735,-204.3692 2906.697,-197.393"/>
</g>
<!-- Node31 -->
<g id="node27" class="node">
<title>Node31</title>
<g id="a_node27"><a xlink:href="sitkBinaryClosingByReconstructionImageFilter_8h.html" target="_top" xlink:title=" ">
<polygon fill="#ffffff" stroke="#ff0000" points="4298,-56.5 4298,-86.5 4485,-86.5 4485,-56.5 4298,-56.5"/>
<text text-anchor="start" x="4306" y="-74.5" font-family="Helvetica,sans-Serif" font-size="10.00" fill="#000000">sitkBinaryClosingByReconstruction</text>
<text text-anchor="middle" x="4391.5" y="-63.5" font-family="Helvetica,sans-Serif" font-size="10.00" fill="#000000">ImageFilter.h</text>
</a>
</g>
</g>
<!-- Node2&#45;&gt;Node31 -->
<g id="edge67" class="edge">
<title>Node2&#45;&gt;Node31</title>
<path fill="none" stroke="#191970" d="M2907.3315,-201.6674C3008.2299,-194.6395 3207.6601,-178.1598 3273.5,-154 3296.9918,-145.3797 3296.6703,-130.6366 3320.5,-123 3525.491,-57.3076 4074.1758,-107.0479 4288.5,-87 4291.5608,-86.7137 4294.6693,-86.3971 4297.8056,-86.0554"/>
<polygon fill="#191970" stroke="#191970" points="2907.0301,-198.1798 2897.2939,-202.358 2907.5106,-205.1633 2907.0301,-198.1798"/>
</g>
<!-- Node32 -->
<g id="node28" class="node">
<title>Node32</title>
<g id="a_node28"><a xlink:href="sitkBinaryContourImageFilter_8h.html" target="_top" xlink:title=" ">
<polygon fill="#ffffff" stroke="#ff0000" points="4503,-62 4503,-81 4670,-81 4670,-62 4503,-62"/>
<text text-anchor="middle" x="4586.5" y="-69" font-family="Helvetica,sans-Serif" font-size="10.00" fill="#000000">sitkBinaryContourImageFilter.h</text>
</a>
</g>
</g>
<!-- Node2&#45;&gt;Node32 -->
<g id="edge68" class="edge">
<title>Node2&#45;&gt;Node32</title>
<path fill="none" stroke="#191970" d="M2907.4138,-202.3463C3015.4809,-196.0818 3238.5804,-180.3543 3311.5,-154 3335.0336,-145.4946 3334.6495,-130.5714 3358.5,-123 3478.7602,-84.8229 4367.9362,-99.3991 4493.5,-87 4507.6717,-85.6006 4522.952,-83.3622 4536.9507,-81.0167"/>
<polygon fill="#191970" stroke="#191970" points="2907.1076,-198.8579 2897.3237,-202.923 2907.5071,-205.8465 2907.1076,-198.8579"/>
</g>
<!-- Node33 -->
<g id="node29" class="node">
<title>Node33</title>
<g id="a_node29"><a xlink:href="sitkBinaryDilateImageFilter_8h.html" target="_top" xlink:title=" ">
<polygon fill="#ffffff" stroke="#ff0000" points="4687.5,-62 4687.5,-81 4845.5,-81 4845.5,-62 4687.5,-62"/>
<text text-anchor="middle" x="4766.5" y="-69" font-family="Helvetica,sans-Serif" font-size="10.00" fill="#000000">sitkBinaryDilateImageFilter.h</text>
</a>
</g>
</g>
<!-- Node2&#45;&gt;Node33 -->
<g id="edge69" class="edge">
<title>Node2&#45;&gt;Node33</title>
<path fill="none" stroke="#191970" d="M2907.2376,-202.9373C3022.0832,-197.4273 3269.4004,-182.5736 3349.5,-154 3373.0687,-145.5924 3372.6358,-130.5281 3396.5,-123 3532.3991,-80.1299 4536.7286,-101.398 4678.5,-87 4691.9272,-85.6364 4706.3916,-83.4094 4719.6374,-81.0634"/>
<polygon fill="#191970" stroke="#191970" points="2907.0331,-199.4429 2897.2093,-203.4108 2907.3633,-206.4352 2907.0331,-199.4429"/>
</g>
<!-- Node34 -->
<g id="node30" class="node">
<title>Node34</title>
<g id="a_node30"><a xlink:href="sitkBinaryErodeImageFilter_8h.html" target="_top" xlink:title=" ">
<polygon fill="#ffffff" stroke="#ff0000" points="4864,-62 4864,-81 5021,-81 5021,-62 4864,-62"/>
<text text-anchor="middle" x="4942.5" y="-69" font-family="Helvetica,sans-Serif" font-size="10.00" fill="#000000">sitkBinaryErodeImageFilter.h</text>
</a>
</g>
</g>
<!-- Node2&#45;&gt;Node34 -->
<g id="edge70" class="edge">
<title>Node2&#45;&gt;Node34</title>
<path fill="none" stroke="#191970" d="M2907.2701,-203.4364C3028.7217,-198.6519 3300.2312,-184.7799 3387.5,-154 3411.0986,-145.6767 3410.6255,-130.4955 3434.5,-123 3585.0815,-75.7239 4697.4576,-102.7326 4854.5,-87 4868.0834,-85.6392 4882.7267,-83.3824 4896.096,-81.0064"/>
<polygon fill="#191970" stroke="#191970" points="2906.8987,-199.948 2897.0414,-203.8317 2907.1691,-206.9428 2906.8987,-199.948"/>
</g>
<!-- Node35 -->
<g id="node31" class="node">
<title>Node35</title>
<g id="a_node31"><a xlink:href="sitkBinaryFillholeImageFilter_8h.html" target="_top" xlink:title=" ">
<polygon fill="#ffffff" stroke="#ff0000" points="514.5,-62 514.5,-81 678.5,-81 678.5,-62 514.5,-62"/>
<text text-anchor="middle" x="596.5" y="-69" font-family="Helvetica,sans-Serif" font-size="10.00" fill="#000000">sitkBinaryFillholeImageFilter.h</text>
</a>
</g>
</g>
<!-- Node2&#45;&gt;Node35 -->
<g id="edge71" class="edge">
<title>Node2&#45;&gt;Node35</title>
<path fill="none" stroke="#191970" d="M2787.8557,-204.3722C2668.1042,-201.3482 2402.8364,-190.6059 2320.5,-154 2301.8142,-145.6925 2305.4837,-130.602 2286.5,-123 2204.0122,-89.9678 775.95,-95.4826 687.5,-87 673.4614,-85.6537 658.3214,-83.4014 644.4961,-81.0251"/>
<polygon fill="#191970" stroke="#191970" points="2787.8654,-207.8733 2797.9475,-204.6174 2788.0355,-200.8754 2787.8654,-207.8733"/>
</g>
<!-- Node36 -->
<g id="node32" class="node">
<title>Node36</title>
<g id="a_node32"><a xlink:href="sitkBinaryGrindPeakImageFilter_8h.html" target="_top" xlink:title=" ">
<polygon fill="#ffffff" stroke="#ff0000" points="697,-56.5 697,-86.5 844,-86.5 844,-56.5 697,-56.5"/>
<text text-anchor="start" x="705" y="-74.5" font-family="Helvetica,sans-Serif" font-size="10.00" fill="#000000">sitkBinaryGrindPeakImage</text>
<text text-anchor="middle" x="770.5" y="-63.5" font-family="Helvetica,sans-Serif" font-size="10.00" fill="#000000">Filter.h</text>
</a>
</g>
</g>
<!-- Node2&#45;&gt;Node36 -->
<g id="edge72" class="edge">
<title>Node2&#45;&gt;Node36</title>
<path fill="none" stroke="#191970" d="M2787.4311,-203.4477C2674.4052,-198.8887 2434.6324,-185.7059 2358.5,-154 2338.3792,-145.6206 2340.9413,-130.5641 2320.5,-123 2167.5845,-66.4152 1015.6583,-104.0202 853.5,-87 850.4385,-86.6787 847.3207,-86.3057 844.1765,-85.8919"/>
<polygon fill="#191970" stroke="#191970" points="2787.5072,-206.9534 2797.6372,-203.8498 2787.7828,-199.9588 2787.5072,-206.9534"/>
</g>
<!-- Node37 -->
<g id="node33" class="node">
<title>Node37</title>
<g id="a_node33"><a xlink:href="sitkBinaryImageToLabelMapFilter_8h.html" target="_top" xlink:title=" ">
<polygon fill="#ffffff" stroke="#ff0000" points="862.5,-56.5 862.5,-86.5 1016.5,-86.5 1016.5,-56.5 862.5,-56.5"/>
<text text-anchor="start" x="870.5" y="-74.5" font-family="Helvetica,sans-Serif" font-size="10.00" fill="#000000">sitkBinaryImageToLabelMap</text>
<text text-anchor="middle" x="939.5" y="-63.5" font-family="Helvetica,sans-Serif" font-size="10.00" fill="#000000">Filter.h</text>
</a>
</g>
</g>
<!-- Node2&#45;&gt;Node37 -->
<g id="edge73" class="edge">
<title>Node2&#45;&gt;Node37</title>
<path fill="none" stroke="#191970" d="M2787.4681,-202.8305C2681.4283,-197.427 2465.635,-183.1481 2396.5,-154 2376.4161,-145.5324 2378.9319,-130.5893 2358.5,-123 2219.6069,-71.4093 1172.8851,-102.1838 1025.5,-87 1022.6327,-86.7046 1019.7172,-86.3677 1016.7766,-85.997"/>
<polygon fill="#191970" stroke="#191970" points="2787.5246,-206.3376 2797.6868,-203.341 2787.8739,-199.3463 2787.5246,-206.3376"/>
</g>
<!-- Node38 -->
<g id="node34" class="node">
<title>Node38</title>
<g id="a_node34"><a xlink:href="sitkBinaryMagnitudeImageFilter_8h.html" target="_top" xlink:title=" ">
<polygon fill="#ffffff" stroke="#ff0000" points="1034.5,-56.5 1034.5,-86.5 1182.5,-86.5 1182.5,-56.5 1034.5,-56.5"/>
<text text-anchor="start" x="1042.5" y="-74.5" font-family="Helvetica,sans-Serif" font-size="10.00" fill="#000000">sitkBinaryMagnitudeImage</text>
<text text-anchor="middle" x="1108.5" y="-63.5" font-family="Helvetica,sans-Serif" font-size="10.00" fill="#000000">Filter.h</text>
</a>
</g>
</g>
<!-- Node2&#45;&gt;Node38 -->
<g id="edge74" class="edge">
<title>Node2&#45;&gt;Node38</title>
<path fill="none" stroke="#191970" d="M2787.7859,-202.1203C2689.1126,-195.8619 2496.7391,-180.6212 2434.5,-154 2414.4603,-145.4285 2416.9211,-130.6186 2396.5,-123 2271.0007,-76.1795 1324.6791,-101.3376 1191.5,-87 1188.5851,-86.6862 1185.619,-86.3268 1182.6276,-85.9309"/>
<polygon fill="#191970" stroke="#191970" points="2787.7014,-205.6218 2797.8999,-202.7512 2788.1372,-198.6354 2787.7014,-205.6218"/>
</g>
<!-- Node39 -->
<g id="node35" class="node">
<title>Node39</title>
<g id="a_node35"><a xlink:href="sitkBinaryMedianImageFilter_8h.html" target="_top" xlink:title=" ">
<polygon fill="#ffffff" stroke="#ff0000" points="1200.5,-62 1200.5,-81 1364.5,-81 1364.5,-62 1200.5,-62"/>
<text text-anchor="middle" x="1282.5" y="-69" font-family="Helvetica,sans-Serif" font-size="10.00" fill="#000000">sitkBinaryMedianImageFilter.h</text>
</a>
</g>
</g>
<!-- Node2&#45;&gt;Node39 -->
<g id="edge75" class="edge">
<title>Node2&#45;&gt;Node39</title>
<path fill="none" stroke="#191970" d="M2787.5055,-201.2279C2696.3618,-194.0734 2527.7664,-178.046 2472.5,-154 2452.5139,-145.3042 2454.9056,-130.6599 2434.5,-123 2324.0676,-81.5456 1490.8519,-98.9302 1373.5,-87 1359.6287,-85.5898 1344.6757,-83.348 1330.9781,-81.0026"/>
<polygon fill="#191970" stroke="#191970" points="2787.4472,-204.7337 2797.6874,-202.0155 2787.9871,-197.7546 2787.4472,-204.7337"/>
</g>
<!-- Node40 -->
<g id="node36" class="node">
<title>Node40</title>
<g id="a_node36"><a xlink:href="sitkBinaryMinMaxCurvatureFlowImageFilter_8h.html" target="_top" xlink:title=" ">
<polygon fill="#ffffff" stroke="#ff0000" points="1382.5,-56.5 1382.5,-86.5 1534.5,-86.5 1534.5,-56.5 1382.5,-56.5"/>
<text text-anchor="start" x="1390.5" y="-74.5" font-family="Helvetica,sans-Serif" font-size="10.00" fill="#000000">sitkBinaryMinMaxCurvature</text>
<text text-anchor="middle" x="1458.5" y="-63.5" font-family="Helvetica,sans-Serif" font-size="10.00" fill="#000000">FlowImageFilter.h</text>
</a>
</g>
</g>
<!-- Node2&#45;&gt;Node40 -->
<g id="edge76" class="edge">
<title>Node2&#45;&gt;Node40</title>
<path fill="none" stroke="#191970" d="M2787.8948,-200.1977C2704.8277,-192.1638 2558.9853,-175.5343 2510.5,-154 2490.5804,-145.1529 2492.8871,-130.709 2472.5,-123 2375.8773,-86.4639 1646.1804,-98.294 1543.5,-87 1540.667,-86.6884 1537.7864,-86.3377 1534.8807,-85.9553"/>
<polygon fill="#191970" stroke="#191970" points="2787.6621,-203.6913 2797.9495,-201.1578 2788.3276,-196.723 2787.6621,-203.6913"/>
</g>
<!-- Node304 -->
<g id="node37" class="node">
<title>Node304</title>
<g id="a_node37"><a xlink:href="sitkCenteredTransformInitializerFilter_8h.html" target="_top" xlink:title=" ">
<polygon fill="#ffffff" stroke="#000000" points="1763,-123.5 1763,-153.5 1936,-153.5 1936,-123.5 1763,-123.5"/>
<text text-anchor="start" x="1771" y="-141.5" font-family="Helvetica,sans-Serif" font-size="10.00" fill="#000000">sitkCenteredTransformInitializer</text>
<text text-anchor="middle" x="1849.5" y="-130.5" font-family="Helvetica,sans-Serif" font-size="10.00" fill="#000000">Filter.h</text>
</a>
</g>
</g>
<!-- Node2&#45;&gt;Node304 -->
<g id="edge43" class="edge">
<title>Node2&#45;&gt;Node304</title>
<path fill="none" stroke="#191970" d="M2787.9712,-204.2214C2643.2947,-200.6529 2261.85,-188.477 1945.5,-154 1942.3951,-153.6616 1939.2377,-153.2912 1936.0514,-152.8951"/>
<polygon fill="#191970" stroke="#191970" points="2787.8928,-207.7204 2797.9746,-204.4637 2788.0623,-200.7225 2787.8928,-207.7204"/>
</g>
<!-- Node305 -->
<g id="node38" class="node">
<title>Node305</title>
<g id="a_node38"><a xlink:href="sitkCenteredVersorTransformInitializerFilter_8h.html" target="_top" xlink:title=" ">
<polygon fill="#ffffff" stroke="#000000" points="1954.5,-123.5 1954.5,-153.5 2112.5,-153.5 2112.5,-123.5 1954.5,-123.5"/>
<text text-anchor="start" x="1962.5" y="-141.5" font-family="Helvetica,sans-Serif" font-size="10.00" fill="#000000">sitkCenteredVersorTransform</text>
<text text-anchor="middle" x="2033.5" y="-130.5" font-family="Helvetica,sans-Serif" font-size="10.00" fill="#000000">InitializerFilter.h</text>
</a>
</g>
</g>
<!-- Node2&#45;&gt;Node305 -->
<g id="edge45" class="edge">
<title>Node2&#45;&gt;Node305</title>
<path fill="none" stroke="#191970" d="M2787.5051,-203.3473C2662.9911,-198.4172 2367.5967,-184.3193 2121.5,-154 2118.5747,-153.6396 2115.5988,-153.2473 2112.596,-152.8299"/>
<polygon fill="#191970" stroke="#191970" points="2787.4672,-206.8484 2797.5962,-203.7415 2787.7405,-199.8537 2787.4672,-206.8484"/>
</g>
<!-- Node3&#45;&gt;Node4 -->
<g id="edge3" class="edge">
<title>Node3&#45;&gt;Node4</title>
<path fill="none" stroke="#191970" d="M2150.8016,-127.1575C2141.0891,-125.4817 2131.0229,-123.9886 2121.5,-123 2032.18,-113.727 585.2384,-128.3017 505.5,-87 491.1005,-79.5416 465.5655,-38.769 454.214,-19.7618"/>
<polygon fill="#191970" stroke="#191970" points="2150.2944,-130.6224 2160.7574,-128.9565 2151.5392,-123.734 2150.2944,-130.6224"/>
</g>
<!-- Node5&#45;&gt;Node4 -->
<g id="edge5" class="edge">
<title>Node5&#45;&gt;Node4</title>
<path fill="none" stroke="#191970" d="M3338.3816,-56.1665C2995.8711,-28.7041 801.4233,-12.466 486.1901,-10.2586"/>
<polygon fill="#191970" stroke="#191970" points="3338.1651,-59.6606 3348.4265,-57.0236 3338.7603,-52.686 3338.1651,-59.6606"/>
</g>
<!-- Node6&#45;&gt;Node4 -->
<g id="edge16" class="edge">
<title>Node6&#45;&gt;Node4</title>
<path fill="none" stroke="#191970" d="M2995.5931,-126.1918C2999.6101,-125.0854 3003.6277,-124.0047 3007.5,-123 3080.1438,-104.1515 3215.1163,-109.5156 3162.5,-56 3137.921,-31.0009 812.062,-12.7172 486.2445,-10.2777"/>
<polygon fill="#191970" stroke="#191970" points="2994.3767,-122.8978 2985.6924,-128.9668 2996.2659,-129.6381 2994.3767,-122.8978"/>
</g>
<!-- Node6&#45;&gt;Node5 -->
<g id="edge7" class="edge">
<title>Node6&#45;&gt;Node5</title>
<path fill="none" stroke="#191970" d="M3012.7974,-129.1345C3026.4833,-127.0467 3040.9901,-124.8926 3054.5,-123 3180.5019,-105.3486 3212.6143,-105.4619 3338.5,-87 3341.7391,-86.525 3345.0396,-86.0296 3348.3724,-85.5199"/>
<polygon fill="#191970" stroke="#191970" points="3011.8745,-125.7351 3002.5218,-130.7127 3012.9373,-132.654 3011.8745,-125.7351"/>
</g>
<!-- Node6&#45;&gt;Node8 -->
<g id="edge8" class="edge">
<title>Node6&#45;&gt;Node8</title>
<path fill="none" stroke="#191970" d="M3012.7548,-136.4065C3103.5364,-133.2409 3282.5069,-127.1641 3434.5,-123 3788.9017,-113.2905 4677.1817,-126.5817 5029.5,-87 5041.276,-85.677 5053.9365,-83.432 5065.4819,-81.0553"/>
<polygon fill="#191970" stroke="#191970" points="3012.53,-132.9122 3002.6583,-136.7593 3012.7745,-139.9079 3012.53,-132.9122"/>
</g>
<!-- Node6&#45;&gt;Node9 -->
<g id="edge10" class="edge">
<title>Node6&#45;&gt;Node9</title>
<path fill="none" stroke="#191970" d="M3013.1477,-136.7957C3120.314,-133.7672 3352.5415,-127.3575 3548.5,-123 3982.6886,-113.3451 5071.2327,-138.2001 5502.5,-87 5513.5007,-85.694 5525.313,-83.4227 5536.043,-81.0151"/>
<polygon fill="#191970" stroke="#191970" points="3012.7608,-133.3052 3002.8639,-137.0868 3012.9589,-140.3024 3012.7608,-133.3052"/>
</g>
<!-- Node6&#45;&gt;Node10 -->
<g id="edge12" class="edge">
<title>Node6&#45;&gt;Node10</title>
<path fill="none" stroke="#191970" d="M3012.6357,-136.5649C3108.9693,-133.4506 3305.7791,-127.2465 3472.5,-123 3852.0168,-113.3334 4802.6013,-123.3183 5180.5,-87 5183.3408,-86.727 5186.2271,-86.4157 5189.1384,-86.073"/>
<polygon fill="#191970" stroke="#191970" points="3012.3933,-133.0708 3002.5119,-136.8928 3012.62,-140.0671 3012.3933,-133.0708"/>
</g>
<!-- Node6&#45;&gt;Node11 -->
<g id="edge14" class="edge">
<title>Node6&#45;&gt;Node11</title>
<path fill="none" stroke="#191970" d="M3012.7532,-136.6884C3114.5255,-133.6132 3329.1087,-127.2887 3510.5,-123 3921.5741,-113.2809 4952.1317,-135.08 5360.5,-87 5371.6518,-85.687 5383.6311,-83.4136 5394.5145,-81.0062"/>
<polygon fill="#191970" stroke="#191970" points="3012.5622,-133.1924 3002.6727,-136.9935 3012.774,-140.1892 3012.5622,-133.1924"/>
</g>
<!-- Node6&#45;&gt;Node12 -->
<g id="edge17" class="edge">
<title>Node6&#45;&gt;Node12</title>
<path fill="none" stroke="#191970" d="M2893.8021,-136.1654C2643.7429,-126.3769 1692.7645,-89.0553 1677.5,-87 1667.2058,-85.6139 1656.1704,-83.3798 1646.0864,-81.0341"/>
<polygon fill="#191970" stroke="#191970" points="2894.0094,-139.6761 2904.1386,-136.5699 2894.2832,-132.6814 2894.0094,-139.6761"/>
</g>
<!-- Node6&#45;&gt;Node15 -->
<g id="edge18" class="edge">
<title>Node6&#45;&gt;Node15</title>
<path fill="none" stroke="#191970" d="M2894.0029,-135.9397C2672.0782,-126.3614 1902.6229,-92.888 1850.5,-87 1847.7865,-86.6935 1845.0293,-86.3534 1842.2482,-85.9861"/>
<polygon fill="#191970" stroke="#191970" points="2894.0103,-139.4432 2904.1519,-136.3775 2894.312,-132.4497 2894.0103,-139.4432"/>
</g>
<!-- Node6&#45;&gt;Node16 -->
<g id="edge19" class="edge">
<title>Node6&#45;&gt;Node16</title>
<path fill="none" stroke="#191970" d="M2894.2106,-135.6074C2691.2523,-125.6694 2034.3767,-93.1947 1989.5,-87 1979.0404,-85.5562 1967.8214,-83.3332 1957.5336,-81.0175"/>
<polygon fill="#191970" stroke="#191970" points="2894.2207,-139.1119 2904.3798,-136.105 2894.5629,-132.1203 2894.2207,-139.1119"/>
</g>
<!-- Node6&#45;&gt;Node17 -->
<g id="edge20" class="edge">
<title>Node6&#45;&gt;Node17</title>
<path fill="none" stroke="#191970" d="M2894.2481,-135.079C2740.6802,-126.1137 2332.3821,-101.6219 2197.5,-87 2194.4147,-86.6655 2191.2806,-86.3072 2188.1177,-85.9295"/>
<polygon fill="#191970" stroke="#191970" points="2894.2371,-138.5842 2904.4238,-135.6721 2894.6444,-131.5961 2894.2371,-138.5842"/>
</g>
<!-- Node6&#45;&gt;Node18 -->
<g id="edge21" class="edge">
<title>Node6&#45;&gt;Node18</title>
<path fill="none" stroke="#191970" d="M2894.1448,-134.6875C2760.4373,-125.92 2438.9689,-103.7898 2331.5,-87 2321.7093,-85.4704 2311.2243,-83.3033 2301.5245,-81.0729"/>
<polygon fill="#191970" stroke="#191970" points="2893.9985,-138.1853 2904.2055,-135.3452 2894.4552,-131.2002 2893.9985,-138.1853"/>
</g>
<!-- Node6&#45;&gt;Node20 -->
<g id="edge22" class="edge">
<title>Node6&#45;&gt;Node20</title>
<path fill="none" stroke="#191970" d="M2894.4656,-133.2058C2807.3699,-125.0844 2639.42,-108.2374 2497.5,-87 2494.6005,-86.5661 2491.6475,-86.1054 2488.667,-85.6247"/>
<polygon fill="#191970" stroke="#191970" points="2894.1436,-136.6908 2904.4241,-134.1291 2894.79,-129.7207 2894.1436,-136.6908"/>
</g>
<!-- Node6&#45;&gt;Node21 -->
<g id="edge23" class="edge">
<title>Node6&#45;&gt;Node21</title>
<path fill="none" stroke="#191970" d="M2894.2318,-127.6206C2823.8296,-114.6975 2707.5094,-93.3456 2640.4745,-81.0405"/>
<polygon fill="#191970" stroke="#191970" points="2893.8069,-131.101 2904.2745,-129.4641 2895.0707,-124.2161 2893.8069,-131.101"/>
</g>
<!-- Node6&#45;&gt;Node22 -->
<g id="edge24" class="edge">
<title>Node6&#45;&gt;Node22</title>
<path fill="none" stroke="#191970" d="M2914.1034,-125.7484C2873.8814,-112.7297 2812.3539,-92.815 2776.103,-81.0817"/>
<polygon fill="#191970" stroke="#191970" points="2913.2501,-129.151 2923.8419,-128.9005 2915.4057,-122.4911 2913.2501,-129.151"/>
</g>
<!-- Node6&#45;&gt;Node23 -->
<g id="edge25" class="edge">
<title>Node6&#45;&gt;Node23</title>
<path fill="none" stroke="#191970" d="M2937.8946,-121.3597C2928.0978,-110.5992 2915.5835,-96.8541 2906.1765,-86.5218"/>
<polygon fill="#191970" stroke="#191970" points="2935.4399,-123.8624 2944.7602,-128.9005 2940.616,-119.1498 2935.4399,-123.8624"/>
</g>
<!-- Node6&#45;&gt;Node24 -->
<g id="edge26" class="edge">
<title>Node6&#45;&gt;Node24</title>
<path fill="none" stroke="#191970" d="M2978.4551,-123.8334C2997.2687,-112.7763 3022.9814,-97.6644 3041.9406,-86.5218"/>
<polygon fill="#191970" stroke="#191970" points="2976.6813,-120.8161 2969.8334,-128.9005 2980.2282,-126.851 2976.6813,-120.8161"/>
</g>
<!-- Node6&#45;&gt;Node25 -->
<g id="edge27" class="edge">
<title>Node6&#45;&gt;Node25</title>
<path fill="none" stroke="#191970" d="M3001.0212,-126.573C3006.237,-125.3341 3011.4755,-124.12 3016.5,-123 3096.13,-105.2502 3116.5735,-103.363 3196.5,-87 3205.7587,-85.1045 3215.6629,-83.0492 3225.1171,-81.0738"/>
<polygon fill="#191970" stroke="#191970" points="2999.9829,-123.2229 2991.0809,-128.9679 3001.6226,-130.0282 2999.9829,-123.2229"/>
</g>
<!-- Node6&#45;&gt;Node26 -->
<g id="edge28" class="edge">
<title>Node6&#45;&gt;Node26</title>
<path fill="none" stroke="#191970" d="M3012.6141,-131.5423C3037.2917,-128.7329 3066.268,-125.5576 3092.5,-123 3283.8154,-104.3468 3333.3699,-115.2858 3523.5,-87 3533.9972,-85.4383 3545.256,-83.26 3555.6793,-81.029"/>
<polygon fill="#191970" stroke="#191970" points="3012.2142,-128.0652 3002.6773,-132.6801 3013.0106,-135.0197 3012.2142,-128.0652"/>
</g>
<!-- Node6&#45;&gt;Node27 -->
<g id="edge29" class="edge">
<title>Node6&#45;&gt;Node27</title>
<path fill="none" stroke="#191970" d="M3013.0178,-132.9831C3047.348,-129.8772 3091.3402,-126.0269 3130.5,-123 3368.991,-104.5654 3430.7718,-121.3154 3667.5,-87 3677.8281,-85.5029 3688.9046,-83.2911 3699.0939,-81.0044"/>
<polygon fill="#191970" stroke="#191970" points="3012.3322,-129.5309 3002.6899,-133.9213 3012.9655,-136.5021 3012.3322,-129.5309"/>
</g>
<!-- Node6&#45;&gt;Node28 -->
<g id="edge30" class="edge">
<title>Node6&#45;&gt;Node28</title>
<path fill="none" stroke="#191970" d="M3012.6338,-133.9889C3055.8134,-130.7553 3115.7741,-126.3903 3168.5,-123 3451.4785,-104.8045 3524.0323,-121.4069 3805.5,-87 3808.52,-86.6308 3811.5964,-86.2179 3814.6995,-85.7709"/>
<polygon fill="#191970" stroke="#191970" points="3012.2945,-130.5044 3002.5848,-134.7437 3012.8189,-137.4848 3012.2945,-130.5044"/>
</g>
<!-- Node6&#45;&gt;Node29 -->
<g id="edge31" class="edge">
<title>Node6&#45;&gt;Node29</title>
<path fill="none" stroke="#191970" d="M3013.1691,-134.6084C3064.4283,-131.3219 3140.3142,-126.5907 3206.5,-123 3545.0466,-104.6332 3631.9131,-127.7477 3968.5,-87 3980.4329,-85.5554 3993.2638,-83.3321 4005.0428,-81.0164"/>
<polygon fill="#191970" stroke="#191970" points="3012.6915,-131.1318 3002.9367,-135.2663 3013.1407,-138.1174 3012.6915,-131.1318"/>
</g>
<!-- Node6&#45;&gt;Node30 -->
<g id="edge32" class="edge">
<title>Node6&#45;&gt;Node30</title>
<path fill="none" stroke="#191970" d="M3012.8778,-135.1217C3071.6786,-131.8271 3164.2883,-126.7749 3244.5,-123 3635.9491,-104.5777 3736.1538,-131.5117 4125.5,-87 4137.8792,-85.5848 4151.1952,-83.3711 4163.4215,-81.0553"/>
<polygon fill="#191970" stroke="#191970" points="3012.45,-131.6402 3002.662,-135.6955 3012.8426,-138.6291 3012.45,-131.6402"/>
</g>
<!-- Node6&#45;&gt;Node31 -->
<g id="edge33" class="edge">
<title>Node6&#45;&gt;Node31</title>
<path fill="none" stroke="#191970" d="M3012.7293,-135.5077C3078.5901,-132.2273 3188.1379,-126.9111 3282.5,-123 3729.5135,-104.4724 3843.0181,-128.3553 4288.5,-87 4291.561,-86.7158 4294.6697,-86.4011 4297.8062,-86.061"/>
<polygon fill="#191970" stroke="#191970" points="3012.3562,-132.0218 3002.5432,-136.0161 3012.7053,-139.0131 3012.3562,-132.0218"/>
</g>
<!-- Node6&#45;&gt;Node32 -->
<g id="edge34" class="edge">
<title>Node6&#45;&gt;Node32</title>
<path fill="none" stroke="#191970" d="M3013.0748,-135.7726C3085.6721,-132.4979 3212.0748,-126.9533 3320.5,-123 3841.7324,-103.9952 3974.4195,-137.9887 4493.5,-87 4507.6724,-85.6079 4522.9529,-83.3718 4536.9516,-81.0262"/>
<polygon fill="#191970" stroke="#191970" points="3012.5944,-132.2907 3002.7627,-136.2389 3012.9106,-139.2835 3012.5944,-132.2907"/>
</g>
<!-- Node6&#45;&gt;Node33 -->
<g id="edge35" class="edge">
<title>Node6&#45;&gt;Node33</title>
<path fill="none" stroke="#191970" d="M3012.9791,-136.019C3091.9252,-132.7729 3235.6695,-127.0253 3358.5,-123 3945.0699,-103.7774 4094.5946,-146.062 4678.5,-87 4691.9278,-85.6418 4706.3923,-83.4166 4719.6381,-81.0705"/>
<polygon fill="#191970" stroke="#191970" points="3012.5926,-132.5319 3002.7452,-136.4407 3012.8809,-139.5259 3012.5926,-132.5319"/>
</g>
<!-- Node6&#45;&gt;Node34 -->
<g id="edge36" class="edge">
<title>Node6&#45;&gt;Node34</title>
<path fill="none" stroke="#191970" d="M3012.8912,-136.2278C3097.8924,-133.02 3259.1527,-127.0983 3396.5,-123 4044.4091,-103.6669 4209.5096,-151.4004 4854.5,-87 4868.0839,-85.6437 4882.7273,-83.3883 4896.0966,-81.0122"/>
<polygon fill="#191970" stroke="#191970" points="3012.5211,-132.7392 3002.6605,-136.6147 3012.7856,-139.7342 3012.5211,-132.7392"/>
</g>
<!-- Node6&#45;&gt;Node35 -->
<g id="edge37" class="edge">
<title>Node6&#45;&gt;Node35</title>
<path fill="none" stroke="#191970" d="M2894.1677,-136.9989C2782.0809,-134.1738 2531.5126,-127.9094 2320.5,-123 1957.6211,-114.5573 1048.8274,-121.5669 687.5,-87 673.4611,-85.6569 658.321,-83.4057 644.4957,-81.0293"/>
<polygon fill="#191970" stroke="#191970" points="2894.1698,-140.4999 2904.2549,-137.2533 2894.3464,-133.5022 2894.1698,-140.4999"/>
</g>
<!-- Node6&#45;&gt;Node36 -->
<g id="edge38" class="edge">
<title>Node6&#45;&gt;Node36</title>
<path fill="none" stroke="#191970" d="M2893.8497,-136.9041C2786.6794,-134.0461 2554.4458,-127.8958 2358.5,-123 2024.0643,-114.644 1186.2232,-121.8187 853.5,-87 850.4384,-86.6796 847.3205,-86.3075 844.1763,-85.8943"/>
<polygon fill="#191970" stroke="#191970" points="2894.0441,-140.4104 2904.134,-137.1785 2894.2309,-133.4129 2894.0441,-140.4104"/>
</g>
<!-- Node6&#45;&gt;Node37 -->
<g id="edge39" class="edge">
<title>Node6&#45;&gt;Node37</title>
<path fill="none" stroke="#191970" d="M2894.2434,-136.8205C2792.4662,-133.9427 2577.8757,-127.9049 2396.5,-123 1787.1794,-106.5222 1631.8575,-149.2386 1025.5,-87 1022.6326,-86.7057 1019.717,-86.3697 1016.7763,-85.9998"/>
<polygon fill="#191970" stroke="#191970" points="2894.2295,-140.3214 2904.3245,-137.1057 2894.4275,-133.3242 2894.2295,-140.3214"/>
</g>
<!-- Node6&#45;&gt;Node38 -->
<g id="edge40" class="edge">
<title>Node6&#45;&gt;Node38</title>
<path fill="none" stroke="#191970" d="M2894.3601,-136.7164C2798.0207,-133.8149 2601.2029,-127.9033 2434.5,-123 1882.0628,-106.7508 1741.0279,-145.9067 1191.5,-87 1188.5849,-86.6875 1185.6188,-86.3293 1182.6272,-85.9343"/>
<polygon fill="#191970" stroke="#191970" points="2894.3837,-140.2186 2904.4846,-137.0214 2894.5946,-133.2218 2894.3837,-140.2186"/>
</g>
<!-- Node6&#45;&gt;Node39 -->
<g id="edge41" class="edge">
<title>Node6&#45;&gt;Node39</title>
<path fill="none" stroke="#191970" d="M2893.9995,-136.5741C2606.8969,-127.2796 1378.323,-87.4871 1373.5,-87 1359.6278,-85.5991 1344.6744,-83.3602 1330.9769,-81.0147"/>
<polygon fill="#191970" stroke="#191970" points="2894.1,-140.0791 2904.208,-136.9046 2894.3265,-133.0828 2894.1,-140.0791"/>
</g>
<!-- Node6&#45;&gt;Node40 -->
<g id="edge42" class="edge">
<title>Node6&#45;&gt;Node40</title>
<path fill="none" stroke="#191970" d="M2894.1786,-136.3907C2628.5378,-126.938 1560.5561,-88.8568 1543.5,-87 1540.6667,-86.6915 1537.7857,-86.3435 1534.8798,-85.9634"/>
<polygon fill="#191970" stroke="#191970" points="2894.273,-139.8961 2904.3912,-136.754 2894.522,-132.9006 2894.273,-139.8961"/>
</g>
<!-- Node8&#45;&gt;Node4 -->
<g id="edge9" class="edge">
<title>Node8&#45;&gt;Node4</title>
<path fill="none" stroke="#191970" d="M5055.8245,-59.9526C5047.0966,-58.3301 5038.0661,-56.9081 5029.5,-56 4790.3082,-30.6435 911.6822,-12.1292 486.2854,-10.1716"/>
<polygon fill="#191970" stroke="#191970" points="5055.3981,-63.4357 5065.8855,-61.9306 5056.7485,-56.5672 5055.3981,-63.4357"/>
</g>
<!-- Node9&#45;&gt;Node4 -->
<g id="edge11" class="edge">
<title>Node9&#45;&gt;Node4</title>
<path fill="none" stroke="#191970" d="M5526.2572,-59.8366C5518.3773,-58.2593 5510.2391,-56.8822 5502.5,-56 5238.0932,-25.8584 935.1794,-11.5315 486.2803,-10.1167"/>
<polygon fill="#191970" stroke="#191970" points="5525.5413,-63.2626 5536.0506,-61.9195 5526.9975,-56.4157 5525.5413,-63.2626"/>
</g>
<!-- Node10&#45;&gt;Node4 -->
<g id="edge13" class="edge">
<title>Node10&#45;&gt;Node4</title>
<path fill="none" stroke="#191970" d="M5179.0941,-56.1019C4843.083,-33.1386 913.7686,-12.3891 486.1768,-10.1918"/>
<polygon fill="#191970" stroke="#191970" points="5178.9005,-59.5974 5189.1423,-56.8852 5179.4446,-52.6185 5178.9005,-59.5974"/>
</g>
<!-- Node11&#45;&gt;Node4 -->
<g id="edge15" class="edge">
<title>Node11&#45;&gt;Node4</title>
<path fill="none" stroke="#191970" d="M5384.5898,-59.839C5376.5982,-58.2614 5368.3457,-56.8836 5360.5,-56 5103.6807,-27.0761 927.9625,-11.6802 486.2366,-10.1301"/>
<polygon fill="#191970" stroke="#191970" points="5384.0173,-63.295 5394.5228,-61.922 5385.4541,-56.444 5384.0173,-63.295"/>
</g>
<!-- Node304&#45;&gt;Node4 -->
<g id="edge44" class="edge">
<title>Node304&#45;&gt;Node4</title>
<path fill="none" stroke="#191970" d="M1752.9069,-123.374C1611.4848,-117.4483 484.1248,-137.9977 434.5,-87 416.6858,-68.6929 432.5865,-35.7478 442.2907,-19.5373"/>
<polygon fill="#191970" stroke="#191970" points="1752.7666,-126.8718 1762.9607,-123.9855 1753.1917,-119.8847 1752.7666,-126.8718"/>
</g>
<!-- Node305&#45;&gt;Node4 -->
<g id="edge46" class="edge">
<title>Node305&#45;&gt;Node4</title>
<path fill="none" stroke="#191970" d="M1944.8075,-123.0305C1944.7049,-123.0203 1944.6024,-123.0101 1944.5,-123 1863.0938,-114.9604 537.7918,-136.2807 472.5,-87 451.2652,-70.9725 448.3306,-36.3209 448.2289,-19.5191"/>
<polygon fill="#191970" stroke="#191970" points="1944.157,-126.4794 1954.4844,-124.1141 1944.936,-119.5229 1944.157,-126.4794"/>
</g>
<!-- Node337&#45;&gt;Node342 -->
<g id="edge82" class="edge">
<title>Node337&#45;&gt;Node342</title>
<path fill="none" stroke="#191970" d="M3792.8143,-185.8314C3792.3689,-166.5235 3795.1876,-137.871 3813.5,-123 3852.9468,-90.9663 5591.9942,-92.6004 5642.5,-87 5654.2779,-85.694 5666.939,-83.4543 5678.4843,-81.0772"/>
<polygon fill="#191970" stroke="#191970" points="3789.3263,-186.1486 3793.3613,-195.9449 3796.316,-185.7705 3789.3263,-186.1486"/>
</g>
<!-- Node337&#45;&gt;Node344 -->
<g id="edge83" class="edge">
<title>Node337&#45;&gt;Node344</title>
<path fill="none" stroke="#191970" d="M3815.7831,-189.6559C3833.1335,-176.7395 3857.07,-158.9201 3871.6291,-148.0817"/>
<polygon fill="#191970" stroke="#191970" points="3813.3261,-187.1216 3807.3948,-195.9005 3817.5062,-192.7365 3813.3261,-187.1216"/>
</g>
<!-- Node344&#45;&gt;Node342 -->
<g id="edge84" class="edge">
<title>Node344&#45;&gt;Node342</title>
<path fill="none" stroke="#191970" d="M3956.6705,-138.0409C4244.0902,-135.9561 5307.8714,-125.7333 5642.5,-87 5654.2715,-85.6374 5666.9306,-83.3801 5678.4761,-81.0041"/>
<polygon fill="#191970" stroke="#191970" points="3956.348,-134.543 3946.3733,-138.1145 3956.3981,-141.5428 3956.348,-134.543"/>
</g>
<!-- Node327&#45;&gt;Node4 -->
<g id="edge89" class="edge">
<title>Node327&#45;&gt;Node4</title>
<path fill="none" stroke="#191970" d="M840.3105,-137.5619C690.1112,-134.8592 355.0013,-124.633 320.5,-87 289.3932,-53.0697 362.9585,-29.1736 410.9995,-17.7091"/>
<polygon fill="#191970" stroke="#191970" points="840.3059,-141.0622 850.3652,-137.7365 840.4275,-134.0633 840.3059,-141.0622"/>
</g>
<!-- Node371&#45;&gt;Node330 -->
<g id="edge91" class="edge">
<title>Node371&#45;&gt;Node330</title>
<path fill="none" stroke="#191970" d="M1648.5656,-191.5722C1620.5895,-178.5555 1579.5634,-159.467 1555.0934,-148.0817"/>
<polygon fill="#191970" stroke="#191970" points="1647.3252,-194.8553 1657.8683,-195.9005 1650.2781,-188.5086 1647.3252,-194.8553"/>
</g>
<!-- Node371&#45;&gt;Node331 -->
<g id="edge93" class="edge">
<title>Node371&#45;&gt;Node331</title>
<path fill="none" stroke="#191970" d="M1678.5,-185.6079C1678.5,-173.214 1678.5,-157.8263 1678.5,-148.0817"/>
<polygon fill="#191970" stroke="#191970" points="1675.0001,-185.9005 1678.5,-195.9005 1682.0001,-185.9006 1675.0001,-185.9005"/>
</g>
<!-- Node330&#45;&gt;Node4 -->
<g id="edge92" class="edge">
<title>Node330&#45;&gt;Node4</title>
<path fill="none" stroke="#191970" d="M1464.8101,-136.7384C1214.9397,-130.2603 377.7297,-107.0903 358.5,-87 348.9731,-77.0468 351.3085,-67.752 358.5,-56 369.949,-37.2905 391.675,-25.8848 410.9122,-19.1109"/>
<polygon fill="#191970" stroke="#191970" points="1464.7713,-140.2385 1474.8584,-136.9982 1464.9523,-133.2409 1464.7713,-140.2385"/>
</g>
<!-- Node331&#45;&gt;Node4 -->
<g id="edge94" class="edge">
<title>Node331&#45;&gt;Node4</title>
<path fill="none" stroke="#191970" d="M1628.2199,-126.9855C1619.677,-125.3917 1610.8644,-123.9705 1602.5,-123 1535.9169,-115.2743 443.1848,-135.0992 396.5,-87 375.7156,-65.5859 412.1272,-34.91 433.923,-19.5416"/>
<polygon fill="#191970" stroke="#191970" points="1627.5949,-130.4296 1638.0816,-128.9191 1628.9419,-123.5604 1627.5949,-130.4296"/>
</g>
<!-- Node328&#45;&gt;Node4 -->
<g id="edge97" class="edge">
<title>Node328&#45;&gt;Node4</title>
<path fill="none" stroke="#191970" d="M81.3612,-187.5157C105.2588,-155.5477 159.8158,-89.0883 222.5,-56 254.7232,-38.9907 355.3567,-22.9166 410.843,-15.045"/>
<polygon fill="#191970" stroke="#191970" points="78.2965,-185.7761 75.2021,-195.909 83.9401,-189.9174 78.2965,-185.7761"/>
</g>
<!-- Node329&#45;&gt;Node4 -->
<g id="edge100" class="edge">
<title>Node329&#45;&gt;Node4</title>
<path fill="none" stroke="#191970" d="M217.3468,-185.6887C213.5047,-153.904 211.1606,-91.4948 244.5,-56 266.8084,-32.2494 358.1277,-19.1898 410.7132,-13.5055"/>
<polygon fill="#191970" stroke="#191970" points="213.9235,-186.4837 218.7668,-195.9067 220.8569,-185.5201 213.9235,-186.4837"/>
</g>
</g>
</svg>
