<?xml version="1.0" encoding="UTF-8" standalone="no"?>
<!DOCTYPE svg PUBLIC "-//W3C//DTD SVG 1.1//EN"
 "http://www.w3.org/Graphics/SVG/1.1/DTD/svg11.dtd">
<!-- Generated by graphviz version 2.40.1 (20161225.0304)
 -->
<!-- Title: sitkPixelIDTypeLists.h Pages: 1 -->
<svg width="500pt" height="84pt"
 viewBox="0.00 0.00 500.00 84.00" xmlns="http://www.w3.org/2000/svg" xmlns:xlink="http://www.w3.org/1999/xlink">
<g id="graph0" class="graph" transform="scale(1 1) rotate(0) translate(4 80)">
<title>sitkPixelIDTypeLists.h</title>
<polygon fill="#ffffff" stroke="transparent" points="-4,4 -4,-80 496,-80 496,4 -4,4"/>
<!-- Node1 -->
<g id="node1" class="node">
<title>Node1</title>
<g id="a_node1"><a xlink:title=" ">
<polygon fill="#bfbfbf" stroke="#000000" points="171,-56.5 171,-75.5 294,-75.5 294,-56.5 171,-56.5"/>
<text text-anchor="middle" x="232.5" y="-63.5" font-family="Helvetica,sans-Serif" font-size="10.00" fill="#000000">sitkPixelIDTypeLists.h</text>
</a>
</g>
</g>
<!-- Node2 -->
<g id="node2" class="node">
<title>Node2</title>
<g id="a_node2"><a xlink:title=" ">
<polygon fill="#ffffff" stroke="#bfbfbf" points="0,-.5 0,-19.5 53,-19.5 53,-.5 0,-.5"/>
<text text-anchor="middle" x="26.5" y="-7.5" font-family="Helvetica,sans-Serif" font-size="10.00" fill="#000000">stdint.h</text>
</a>
</g>
</g>
<!-- Node1&#45;&gt;Node2 -->
<g id="edge1" class="edge">
<title>Node1&#45;&gt;Node2</title>
<path fill="none" stroke="#191970" d="M196.991,-56.4658C164.6018,-47.7527 115.1624,-34.4121 62.9991,-20.1245"/>
<polygon fill="#191970" stroke="#191970" points="63.8004,-16.7151 53.2308,-17.4466 61.9496,-23.4661 63.8004,-16.7151"/>
</g>
<!-- Node3 -->
<g id="node3" class="node">
<title>Node3</title>
<g id="a_node3"><a xlink:href="sitkConfigure_8h.html" target="_top" xlink:title=" ">
<polygon fill="#ffffff" stroke="#000000" points="71.5,-.5 71.5,-19.5 161.5,-19.5 161.5,-.5 71.5,-.5"/>
<text text-anchor="middle" x="116.5" y="-7.5" font-family="Helvetica,sans-Serif" font-size="10.00" fill="#000000">sitkConfigure.h</text>
</a>
</g>
</g>
<!-- Node1&#45;&gt;Node3 -->
<g id="edge2" class="edge">
<title>Node1&#45;&gt;Node3</title>
<path fill="none" stroke="#191970" d="M212.5589,-56.3733C194.0214,-47.4241 166.1972,-33.9917 145.2587,-23.8835"/>
<polygon fill="#191970" stroke="#191970" points="146.7081,-20.6967 136.1809,-19.5011 143.6648,-27.0006 146.7081,-20.6967"/>
</g>
<!-- Node4 -->
<g id="node4" class="node">
<title>Node4</title>
<g id="a_node4"><a xlink:href="sitkPixelIDTypes_8h.html" target="_top" xlink:title=" ">
<polygon fill="#ffffff" stroke="#000000" points="179.5,-.5 179.5,-19.5 285.5,-19.5 285.5,-.5 179.5,-.5"/>
<text text-anchor="middle" x="232.5" y="-7.5" font-family="Helvetica,sans-Serif" font-size="10.00" fill="#000000">sitkPixelIDTypes.h</text>
</a>
</g>
</g>
<!-- Node1&#45;&gt;Node4 -->
<g id="edge3" class="edge">
<title>Node1&#45;&gt;Node4</title>
<path fill="none" stroke="#191970" d="M232.5,-56.2455C232.5,-48.9382 232.5,-38.6944 232.5,-29.7046"/>
<polygon fill="#191970" stroke="#191970" points="236.0001,-29.6426 232.5,-19.6427 229.0001,-29.6427 236.0001,-29.6426"/>
</g>
<!-- Node5 -->
<g id="node5" class="node">
<title>Node5</title>
<g id="a_node5"><a xlink:title=" ">
<polygon fill="#ffffff" stroke="#bfbfbf" points="304,-.5 304,-19.5 415,-19.5 415,-.5 304,-.5"/>
<text text-anchor="middle" x="359.5" y="-7.5" font-family="Helvetica,sans-Serif" font-size="10.00" fill="#000000">Ancillary/TypeList.h</text>
</a>
</g>
</g>
<!-- Node1&#45;&gt;Node5 -->
<g id="edge4" class="edge">
<title>Node1&#45;&gt;Node5</title>
<path fill="none" stroke="#191970" d="M254.3321,-56.3733C274.8103,-47.3435 305.6399,-33.7494 328.6319,-23.6111"/>
<polygon fill="#191970" stroke="#191970" points="330.215,-26.7383 337.9528,-19.5011 327.3907,-20.3333 330.215,-26.7383"/>
</g>
<!-- Node6 -->
<g id="node6" class="node">
<title>Node6</title>
<g id="a_node6"><a xlink:title=" ">
<polygon fill="#ffffff" stroke="#bfbfbf" points="433,-.5 433,-19.5 492,-19.5 492,-.5 433,-.5"/>
<text text-anchor="middle" x="462.5" y="-7.5" font-family="Helvetica,sans-Serif" font-size="10.00" fill="#000000">complex</text>
</a>
</g>
</g>
<!-- Node1&#45;&gt;Node6 -->
<g id="edge5" class="edge">
<title>Node1&#45;&gt;Node6</title>
<path fill="none" stroke="#191970" d="M273.3898,-56.4806C310.176,-47.8546 365.9575,-34.6223 422.7772,-20.4007"/>
<polygon fill="#191970" stroke="#191970" points="423.7986,-23.753 432.6454,-17.9233 422.0941,-16.9637 423.7986,-23.753"/>
</g>
</g>
</svg>
