<?xml version="1.0" encoding="UTF-8" standalone="no"?>
<!DOCTYPE svg PUBLIC "-//W3C//DTD SVG 1.1//EN"
 "http://www.w3.org/Graphics/SVG/1.1/DTD/svg11.dtd">
<!-- Generated by graphviz version 2.40.1 (20161225.0304)
 -->
<!-- Title: itk::simple::CompositeTransform::MyVisitor Pages: 1 -->
<svg width="1607pt" height="191pt"
 viewBox="0.00 0.00 1607.00 190.50" xmlns="http://www.w3.org/2000/svg" xmlns:xlink="http://www.w3.org/1999/xlink">
<g id="graph0" class="graph" transform="scale(1 1) rotate(0) translate(4 186.5)">
<title>itk::simple::CompositeTransform::MyVisitor</title>
<polygon fill="#ffffff" stroke="transparent" points="-4,4 -4,-186.5 1603,-186.5 1603,4 -4,4"/>
<!-- Node1 -->
<g id="node1" class="node">
<title>Node1</title>
<g id="a_node1"><a xlink:title=" ">
<polygon fill="#bfbfbf" stroke="#000000" points="1423,-80.5 1423,-110.5 1599,-110.5 1599,-80.5 1423,-80.5"/>
<text text-anchor="start" x="1431" y="-98.5" font-family="Helvetica,sans-Serif" font-size="10.00" fill="#000000">itk::simple::CompositeTransform</text>
<text text-anchor="middle" x="1511" y="-87.5" font-family="Helvetica,sans-Serif" font-size="10.00" fill="#000000">::MyVisitor</text>
</a>
</g>
</g>
<!-- Node2 -->
<g id="node2" class="node">
<title>Node2</title>
<g id="a_node2"><a xlink:href="classitk_1_1simple_1_1CompositeTransform.html" target="_top" xlink:title="This class contains a stack of transforms and concatenates them by composition.">
<polygon fill="#ffffff" stroke="#000000" points="1159,-108 1159,-127 1335,-127 1335,-108 1159,-108"/>
<text text-anchor="middle" x="1247" y="-115" font-family="Helvetica,sans-Serif" font-size="10.00" fill="#000000">itk::simple::CompositeTransform</text>
</a>
</g>
</g>
<!-- Node2&#45;&gt;Node1 -->
<g id="edge1" class="edge">
<title>Node2&#45;&gt;Node1</title>
<path fill="none" stroke="#9a32cd" stroke-dasharray="5,2" d="M1345.2962,-109.3086C1370.7217,-107.1899 1397.9352,-104.9221 1422.808,-102.8493"/>
<polygon fill="#9a32cd" stroke="#9a32cd" points="1344.95,-105.8253 1335.2752,-110.1437 1345.5314,-112.8011 1344.95,-105.8253"/>
<text text-anchor="middle" x="1379" y="-110.5" font-family="Helvetica,sans-Serif" font-size="10.00" fill="#000000"> that</text>
</g>
<!-- Node3 -->
<g id="node3" class="node">
<title>Node3</title>
<g id="a_node3"><a xlink:href="classitk_1_1simple_1_1Transform.html" target="_top" xlink:title="A simplified wrapper around a variety of ITK transforms.">
<polygon fill="#ffffff" stroke="#000000" points="999,-108 999,-127 1122,-127 1122,-108 999,-108"/>
<text text-anchor="middle" x="1060.5" y="-115" font-family="Helvetica,sans-Serif" font-size="10.00" fill="#000000">itk::simple::Transform</text>
</a>
</g>
</g>
<!-- Node3&#45;&gt;Node2 -->
<g id="edge2" class="edge">
<title>Node3&#45;&gt;Node2</title>
<path fill="none" stroke="#191970" d="M1132.1827,-117.5C1140.9063,-117.5 1149.8964,-117.5 1158.8243,-117.5"/>
<polygon fill="#191970" stroke="#191970" points="1132.084,-114.0001 1122.0839,-117.5 1132.0839,-121.0001 1132.084,-114.0001"/>
</g>
<!-- Node4 -->
<g id="node4" class="node">
<title>Node4</title>
<g id="a_node4"><a xlink:href="https://www.itk.org/Doxygen/html/classitk_1_1TransformBaseTemplate.html" xlink:title=" ">
<polygon fill="#ffffff" stroke="#000000" points="1170.5,-58.5 1170.5,-88.5 1323.5,-88.5 1323.5,-58.5 1170.5,-58.5"/>
<text text-anchor="start" x="1178.5" y="-76.5" font-family="Helvetica,sans-Serif" font-size="10.00" fill="#000000">itk::TransformBaseTemplate</text>
<text text-anchor="middle" x="1247" y="-65.5" font-family="Helvetica,sans-Serif" font-size="10.00" fill="#000000">&lt; TParametersValueType &gt;</text>
</a>
</g>
</g>
<!-- Node4&#45;&gt;Node1 -->
<g id="edge3" class="edge">
<title>Node4&#45;&gt;Node1</title>
<path fill="none" stroke="#9a32cd" stroke-dasharray="5,2" d="M1333.6968,-80.7247C1362.33,-83.1108 1394.1996,-85.7666 1422.9342,-88.1612"/>
<polygon fill="#9a32cd" stroke="#9a32cd" points="1333.9705,-77.2355 1323.7144,-79.8929 1333.3891,-84.2113 1333.9705,-77.2355"/>
<text text-anchor="middle" x="1379" y="-88.5" font-family="Helvetica,sans-Serif" font-size="10.00" fill="#000000"> transform</text>
</g>
<!-- Node5 -->
<g id="node5" class="node">
<title>Node5</title>
<g id="a_node5"><a xlink:href="https://www.itk.org/Doxygen/html/classitk_1_1Object.html" xlink:title=" ">
<polygon fill="#ffffff" stroke="#000000" points="1027,-64 1027,-83 1094,-83 1094,-64 1027,-64"/>
<text text-anchor="middle" x="1060.5" y="-71" font-family="Helvetica,sans-Serif" font-size="10.00" fill="#000000">itk::Object</text>
</a>
</g>
</g>
<!-- Node5&#45;&gt;Node4 -->
<g id="edge4" class="edge">
<title>Node5&#45;&gt;Node4</title>
<path fill="none" stroke="#191970" d="M1104.4235,-73.5C1124.0414,-73.5 1147.7492,-73.5 1170.1529,-73.5"/>
<polygon fill="#191970" stroke="#191970" points="1104.2738,-70.0001 1094.2737,-73.5 1104.2737,-77.0001 1104.2738,-70.0001"/>
</g>
<!-- Node6 -->
<g id="node6" class="node">
<title>Node6</title>
<g id="a_node6"><a xlink:href="https://www.itk.org/Doxygen/html/classitk_1_1LightObject.html" xlink:title=" ">
<polygon fill="#ffffff" stroke="#000000" points="735,-91 735,-110 826,-110 826,-91 735,-91"/>
<text text-anchor="middle" x="780.5" y="-98" font-family="Helvetica,sans-Serif" font-size="10.00" fill="#000000">itk::LightObject</text>
</a>
</g>
</g>
<!-- Node6&#45;&gt;Node5 -->
<g id="edge5" class="edge">
<title>Node6&#45;&gt;Node5</title>
<path fill="none" stroke="#191970" d="M836.3734,-95.1122C893.2616,-89.6266 979.6055,-81.3005 1026.794,-76.7502"/>
<polygon fill="#191970" stroke="#191970" points="835.7279,-91.6581 826.11,-96.1019 836.3998,-98.6258 835.7279,-91.6581"/>
</g>
<!-- Node7 -->
<g id="node7" class="node">
<title>Node7</title>
<g id="a_node7"><a xlink:title=" ">
<polygon fill="#ffffff" stroke="#bfbfbf" points="454.5,-90 454.5,-109 561.5,-109 561.5,-90 454.5,-90"/>
<text text-anchor="middle" x="508" y="-97" font-family="Helvetica,sans-Serif" font-size="10.00" fill="#000000">std::atomic&lt; int &gt;</text>
</a>
</g>
</g>
<!-- Node7&#45;&gt;Node6 -->
<g id="edge6" class="edge">
<title>Node7&#45;&gt;Node6</title>
<path fill="none" stroke="#9a32cd" stroke-dasharray="5,2" d="M571.5731,-99.7333C621.592,-99.9169 690.0857,-100.1682 734.802,-100.3323"/>
<polygon fill="#9a32cd" stroke="#9a32cd" points="571.5249,-96.2332 561.5121,-99.6964 571.4992,-103.2331 571.5249,-96.2332"/>
<text text-anchor="middle" x="648" y="-102.5" font-family="Helvetica,sans-Serif" font-size="10.00" fill="#000000"> m_ReferenceCount</text>
</g>
<!-- Node8 -->
<g id="node8" class="node">
<title>Node8</title>
<g id="a_node8"><a xlink:title="STL class.">
<polygon fill="#ffffff" stroke="#bfbfbf" points="123,-87 123,-106 223,-106 223,-87 123,-87"/>
<text text-anchor="middle" x="173" y="-94" font-family="Helvetica,sans-Serif" font-size="10.00" fill="#000000">std::atomic&lt; T &gt;</text>
</a>
</g>
</g>
<!-- Node8&#45;&gt;Node7 -->
<g id="edge7" class="edge">
<title>Node8&#45;&gt;Node7</title>
<path fill="none" stroke="#ffa500" stroke-dasharray="5,2" d="M233.3342,-97.0403C296.3105,-97.6043 394.1283,-98.4803 454.4514,-99.0205"/>
<polygon fill="#ffa500" stroke="#ffa500" points="233.1839,-93.5389 223.1529,-96.9491 233.1211,-100.5386 233.1839,-93.5389"/>
<text text-anchor="middle" x="333" y="-101.5" font-family="Helvetica,sans-Serif" font-size="10.00" fill="#000000"> &lt; int &gt;</text>
</g>
<!-- Node17 -->
<g id="node17" class="node">
<title>Node17</title>
<g id="a_node17"><a xlink:href="https://www.itk.org/Doxygen/html/classitk_1_1TimeStamp.html" xlink:title=" ">
<polygon fill="#ffffff" stroke="#000000" points="602,-52 602,-71 694,-71 694,-52 602,-52"/>
<text text-anchor="middle" x="648" y="-59" font-family="Helvetica,sans-Serif" font-size="10.00" fill="#000000">itk::TimeStamp</text>
</a>
</g>
</g>
<!-- Node8&#45;&gt;Node17 -->
<g id="edge19" class="edge">
<title>Node8&#45;&gt;Node17</title>
<path fill="none" stroke="#9a32cd" stroke-dasharray="5,2" d="M226.2981,-85.0992C234.2156,-83.702 242.3004,-82.4386 250,-81.5 376.7073,-66.0543 527.5043,-62.4839 601.8545,-61.6943"/>
<polygon fill="#9a32cd" stroke="#9a32cd" points="225.5989,-81.669 216.4004,-86.9262 226.8696,-88.5527 225.5989,-81.669"/>
<text text-anchor="middle" x="333" y="-84.5" font-family="Helvetica,sans-Serif" font-size="10.00" fill="#000000"> m_GlobalTimeStamp</text>
</g>
<!-- Node9 -->
<g id="node9" class="node">
<title>Node9</title>
<g id="a_node9"><a xlink:title=" ">
<polygon fill="#ffffff" stroke="#bfbfbf" points="0,-126 0,-145 29,-145 29,-126 0,-126"/>
<text text-anchor="middle" x="14.5" y="-133" font-family="Helvetica,sans-Serif" font-size="10.00" fill="#000000">T</text>
</a>
</g>
</g>
<!-- Node9&#45;&gt;Node8 -->
<g id="edge8" class="edge">
<title>Node9&#45;&gt;Node8</title>
<path fill="none" stroke="#9a32cd" stroke-dasharray="5,2" d="M38.0713,-122.9618C41.0275,-121.6688 44.0496,-120.4745 47,-119.5 71.3873,-111.445 99.4169,-105.9766 122.8381,-102.4004"/>
<polygon fill="#9a32cd" stroke="#9a32cd" points="36.5385,-119.8151 29.0203,-127.2802 39.5528,-126.1328 36.5385,-119.8151"/>
<text text-anchor="middle" x="71.5" y="-122.5" font-family="Helvetica,sans-Serif" font-size="10.00" fill="#000000"> ptr</text>
</g>
<!-- Node14 -->
<g id="node14" class="node">
<title>Node14</title>
<g id="a_node14"><a xlink:title="STL class.">
<polygon fill="#ffffff" stroke="#bfbfbf" points="122.5,-125 122.5,-144 223.5,-144 223.5,-125 122.5,-125"/>
<text text-anchor="middle" x="173" y="-132" font-family="Helvetica,sans-Serif" font-size="10.00" fill="#000000">std::map&lt; K, T &gt;</text>
</a>
</g>
</g>
<!-- Node9&#45;&gt;Node14 -->
<g id="edge15" class="edge">
<title>Node9&#45;&gt;Node14</title>
<path fill="none" stroke="#9a32cd" stroke-dasharray="5,2" d="M39.327,-135.3434C61.4563,-135.2037 94.5356,-134.995 122.2502,-134.8202"/>
<polygon fill="#9a32cd" stroke="#9a32cd" points="39.1049,-131.8446 29.1272,-135.4077 39.1491,-138.8445 39.1049,-131.8446"/>
<text text-anchor="middle" x="71.5" y="-137.5" font-family="Helvetica,sans-Serif" font-size="10.00" fill="#000000"> elements</text>
</g>
<!-- Node16 -->
<g id="node16" class="node">
<title>Node16</title>
<g id="a_node16"><a xlink:title="STL class.">
<polygon fill="#ffffff" stroke="#bfbfbf" points="114,-163 114,-182 232,-182 232,-163 114,-163"/>
<text text-anchor="middle" x="173" y="-170" font-family="Helvetica,sans-Serif" font-size="10.00" fill="#000000">std::shared_ptr&lt; T &gt;</text>
</a>
</g>
</g>
<!-- Node9&#45;&gt;Node16 -->
<g id="edge17" class="edge">
<title>Node9&#45;&gt;Node16</title>
<path fill="none" stroke="#9a32cd" stroke-dasharray="5,2" d="M38.444,-146.5305C41.2932,-147.6288 44.1883,-148.6498 47,-149.5 68.391,-155.9685 92.4056,-160.9029 113.687,-164.5108"/>
<polygon fill="#9a32cd" stroke="#9a32cd" points="39.6975,-143.261 29.1212,-142.6343 36.9983,-149.7197 39.6975,-143.261"/>
<text text-anchor="middle" x="71.5" y="-163.5" font-family="Helvetica,sans-Serif" font-size="10.00" fill="#000000"> ptr</text>
</g>
<!-- Node10 -->
<g id="node10" class="node">
<title>Node10</title>
<g id="a_node10"><a xlink:title="STL class.">
<polygon fill="#ffffff" stroke="#bfbfbf" points="748,-6 748,-25 813,-25 813,-6 748,-6"/>
<text text-anchor="middle" x="780.5" y="-13" font-family="Helvetica,sans-Serif" font-size="10.00" fill="#000000">std::string</text>
</a>
</g>
</g>
<!-- Node10&#45;&gt;Node5 -->
<g id="edge9" class="edge">
<title>Node10&#45;&gt;Node5</title>
<path fill="none" stroke="#9a32cd" stroke-dasharray="5,2" d="M823.2627,-15.9096C864.3812,-17.2488 927.9379,-21.816 981,-36.5 1003.8887,-42.834 1028.4031,-55.188 1044.0625,-63.873"/>
<polygon fill="#9a32cd" stroke="#9a32cd" points="823.1491,-12.4053 813.0566,-15.6288 822.9565,-19.4026 823.1491,-12.4053"/>
<text text-anchor="middle" x="923" y="-39.5" font-family="Helvetica,sans-Serif" font-size="10.00" fill="#000000"> m_ObjectName</text>
</g>
<!-- Node11 -->
<g id="node11" class="node">
<title>Node11</title>
<g id="a_node11"><a xlink:title="STL class.">
<polygon fill="#ffffff" stroke="#bfbfbf" points="456,-.5 456,-30.5 560,-30.5 560,-.5 456,-.5"/>
<text text-anchor="start" x="464" y="-18.5" font-family="Helvetica,sans-Serif" font-size="10.00" fill="#000000">std::basic_string&lt;</text>
<text text-anchor="middle" x="508" y="-7.5" font-family="Helvetica,sans-Serif" font-size="10.00" fill="#000000"> char &gt;</text>
</a>
</g>
</g>
<!-- Node11&#45;&gt;Node10 -->
<g id="edge10" class="edge">
<title>Node11&#45;&gt;Node10</title>
<path fill="none" stroke="#191970" d="M570.2419,-15.5C625.4471,-15.5 703.9232,-15.5 747.718,-15.5"/>
<polygon fill="#191970" stroke="#191970" points="570.2184,-12.0001 560.2183,-15.5 570.2183,-19.0001 570.2184,-12.0001"/>
</g>
<!-- Node12 -->
<g id="node12" class="node">
<title>Node12</title>
<g id="a_node12"><a xlink:href="https://www.itk.org/Doxygen/html/classitk_1_1MetaDataDictionary.html" xlink:title=" ">
<polygon fill="#ffffff" stroke="#000000" points="714,-131 714,-150 847,-150 847,-131 714,-131"/>
<text text-anchor="middle" x="780.5" y="-138" font-family="Helvetica,sans-Serif" font-size="10.00" fill="#000000">itk::MetaDataDictionary</text>
</a>
</g>
</g>
<!-- Node12&#45;&gt;Node5 -->
<g id="edge11" class="edge">
<title>Node12&#45;&gt;Node5</title>
<path fill="none" stroke="#9a32cd" stroke-dasharray="5,2" d="M849.0542,-129.1118C888.0272,-122.0683 937.5714,-112.1534 981,-100.5 999.3018,-95.589 1019.5168,-88.7032 1034.9823,-83.1146"/>
<polygon fill="#9a32cd" stroke="#9a32cd" points="848.1001,-125.7267 838.8713,-130.9305 849.3309,-132.6177 848.1001,-125.7267"/>
<text text-anchor="middle" x="923" y="-128.5" font-family="Helvetica,sans-Serif" font-size="10.00" fill="#000000"> m_MetaDataDictionary</text>
</g>
<!-- Node13 -->
<g id="node13" class="node">
<title>Node13</title>
<g id="a_node13"><a xlink:title=" ">
<polygon fill="#ffffff" stroke="#bfbfbf" points="434,-128.5 434,-158.5 582,-158.5 582,-128.5 434,-128.5"/>
<text text-anchor="start" x="442" y="-146.5" font-family="Helvetica,sans-Serif" font-size="10.00" fill="#000000">std::shared_ptr&lt; MetaData</text>
<text text-anchor="middle" x="508" y="-135.5" font-family="Helvetica,sans-Serif" font-size="10.00" fill="#000000">DictionaryMapType &gt;</text>
</a>
</g>
</g>
<!-- Node13&#45;&gt;Node12 -->
<g id="edge12" class="edge">
<title>Node13&#45;&gt;Node12</title>
<path fill="none" stroke="#9a32cd" stroke-dasharray="5,2" d="M592.4076,-142.5707C631.4896,-142.1405 677.2598,-141.6366 713.8642,-141.2336"/>
<polygon fill="#9a32cd" stroke="#9a32cd" points="592.0627,-139.0742 582.1019,-142.6842 592.1398,-146.0738 592.0627,-139.0742"/>
<text text-anchor="middle" x="648" y="-144.5" font-family="Helvetica,sans-Serif" font-size="10.00" fill="#000000"> m_Dictionary</text>
</g>
<!-- Node14&#45;&gt;Node13 -->
<g id="edge13" class="edge">
<title>Node14&#45;&gt;Node13</title>
<path fill="none" stroke="#9a32cd" stroke-dasharray="5,2" d="M233.893,-134.8645C283.0524,-135.3124 353.9975,-136.3056 416,-138.5 421.7549,-138.7037 427.7105,-138.9489 433.6967,-139.2201"/>
<polygon fill="#9a32cd" stroke="#9a32cd" points="233.7745,-131.3634 223.7446,-134.7769 233.714,-138.3631 233.7745,-131.3634"/>
<text text-anchor="middle" x="333" y="-141.5" font-family="Helvetica,sans-Serif" font-size="10.00" fill="#000000"> ptr</text>
</g>
<!-- Node15 -->
<g id="node15" class="node">
<title>Node15</title>
<g id="a_node15"><a xlink:title=" ">
<polygon fill="#ffffff" stroke="#bfbfbf" points="0,-58 0,-77 29,-77 29,-58 0,-58"/>
<text text-anchor="middle" x="14.5" y="-65" font-family="Helvetica,sans-Serif" font-size="10.00" fill="#000000">K</text>
</a>
</g>
</g>
<!-- Node15&#45;&gt;Node14 -->
<g id="edge14" class="edge">
<title>Node15&#45;&gt;Node14</title>
<path fill="none" stroke="#9a32cd" stroke-dasharray="5,2" d="M39.5921,-70.655C56.6973,-73.7693 79.2026,-79.8388 96,-91.5 106.9527,-99.1037 103.1438,-107.7591 114,-115.5 119.4323,-119.3734 125.694,-122.4851 132.0647,-124.9768"/>
<polygon fill="#9a32cd" stroke="#9a32cd" points="39.6719,-67.1236 29.2456,-69.0061 38.5702,-74.0364 39.6719,-67.1236"/>
<text text-anchor="middle" x="71.5" y="-94.5" font-family="Helvetica,sans-Serif" font-size="10.00" fill="#000000"> keys</text>
</g>
<!-- Node16&#45;&gt;Node13 -->
<g id="edge16" class="edge">
<title>Node16&#45;&gt;Node13</title>
<path fill="none" stroke="#ffa500" stroke-dasharray="5,2" d="M242.2928,-166.5015C298.2365,-161.6586 376.7767,-154.8596 433.9521,-149.9101"/>
<polygon fill="#ffa500" stroke="#ffa500" points="241.781,-163.0326 232.1201,-167.3821 242.3848,-170.0066 241.781,-163.0326"/>
<text text-anchor="middle" x="333" y="-167.5" font-family="Helvetica,sans-Serif" font-size="10.00" fill="#000000"> &lt; MetaDataDictionaryMapType &gt;</text>
</g>
<!-- Node17&#45;&gt;Node5 -->
<g id="edge18" class="edge">
<title>Node17&#45;&gt;Node5</title>
<path fill="none" stroke="#9a32cd" stroke-dasharray="5,2" d="M704.3436,-63.1391C791.4382,-65.6727 956.0854,-70.4625 1026.8196,-72.5202"/>
<polygon fill="#9a32cd" stroke="#9a32cd" points="704.2159,-59.634 694.1183,-62.8416 704.0122,-66.631 704.2159,-59.634"/>
<text text-anchor="middle" x="780.5" y="-69.5" font-family="Helvetica,sans-Serif" font-size="10.00" fill="#000000"> m_MTime</text>
</g>
</g>
</svg>
