<?xml version="1.0" encoding="UTF-8" standalone="no"?>
<!DOCTYPE svg PUBLIC "-//W3C//DTD SVG 1.1//EN"
 "http://www.w3.org/Graphics/SVG/1.1/DTD/svg11.dtd">
<!-- Generated by graphviz version 2.40.1 (20161225.0304)
 -->
<!-- Title: itk::simple::TranslationTransform::MyVisitor Pages: 1 -->
<svg width="1536pt" height="191pt"
 viewBox="0.00 0.00 1536.00 190.50" xmlns="http://www.w3.org/2000/svg" xmlns:xlink="http://www.w3.org/1999/xlink">
<g id="graph0" class="graph" transform="scale(1 1) rotate(0) translate(4 186.5)">
<title>itk::simple::TranslationTransform::MyVisitor</title>
<polygon fill="#ffffff" stroke="transparent" points="-4,4 -4,-186.5 1532,-186.5 1532,4 -4,4"/>
<!-- Node1 -->
<g id="node1" class="node">
<title>Node1</title>
<g id="a_node1"><a xlink:title=" ">
<polygon fill="#bfbfbf" stroke="#000000" points="1400,-37.5 1400,-67.5 1528,-67.5 1528,-37.5 1400,-37.5"/>
<text text-anchor="start" x="1408" y="-55.5" font-family="Helvetica,sans-Serif" font-size="10.00" fill="#000000">itk::simple::Translation</text>
<text text-anchor="middle" x="1464" y="-44.5" font-family="Helvetica,sans-Serif" font-size="10.00" fill="#000000">Transform::MyVisitor</text>
</a>
</g>
</g>
<!-- Node2 -->
<g id="node2" class="node">
<title>Node2</title>
<g id="a_node2"><a xlink:href="https://www.itk.org/Doxygen/html/classitk_1_1TransformBaseTemplate.html" xlink:title=" ">
<polygon fill="#ffffff" stroke="#000000" points="1159,-62.5 1159,-92.5 1312,-92.5 1312,-62.5 1159,-62.5"/>
<text text-anchor="start" x="1167" y="-80.5" font-family="Helvetica,sans-Serif" font-size="10.00" fill="#000000">itk::TransformBaseTemplate</text>
<text text-anchor="middle" x="1235.5" y="-69.5" font-family="Helvetica,sans-Serif" font-size="10.00" fill="#000000">&lt; TParametersValueType &gt;</text>
</a>
</g>
</g>
<!-- Node2&#45;&gt;Node1 -->
<g id="edge1" class="edge">
<title>Node2&#45;&gt;Node1</title>
<path fill="none" stroke="#9a32cd" stroke-dasharray="5,2" d="M1322.3352,-67.9994C1348.0222,-65.189 1375.6742,-62.1637 1399.6694,-59.5384"/>
<polygon fill="#9a32cd" stroke="#9a32cd" points="1321.7828,-64.5389 1312.2229,-69.1058 1322.5442,-71.4974 1321.7828,-64.5389"/>
<text text-anchor="middle" x="1356" y="-68.5" font-family="Helvetica,sans-Serif" font-size="10.00" fill="#000000"> transform</text>
</g>
<!-- Node3 -->
<g id="node3" class="node">
<title>Node3</title>
<g id="a_node3"><a xlink:href="https://www.itk.org/Doxygen/html/classitk_1_1Object.html" xlink:title=" ">
<polygon fill="#ffffff" stroke="#000000" points="1027,-68 1027,-87 1094,-87 1094,-68 1027,-68"/>
<text text-anchor="middle" x="1060.5" y="-75" font-family="Helvetica,sans-Serif" font-size="10.00" fill="#000000">itk::Object</text>
</a>
</g>
</g>
<!-- Node3&#45;&gt;Node2 -->
<g id="edge2" class="edge">
<title>Node3&#45;&gt;Node2</title>
<path fill="none" stroke="#191970" d="M1104.6114,-77.5C1121.0443,-77.5 1140.2107,-77.5 1158.7265,-77.5"/>
<polygon fill="#191970" stroke="#191970" points="1104.2418,-74.0001 1094.2418,-77.5 1104.2417,-81.0001 1104.2418,-74.0001"/>
</g>
<!-- Node4 -->
<g id="node4" class="node">
<title>Node4</title>
<g id="a_node4"><a xlink:href="https://www.itk.org/Doxygen/html/classitk_1_1LightObject.html" xlink:title=" ">
<polygon fill="#ffffff" stroke="#000000" points="735,-91 735,-110 826,-110 826,-91 735,-91"/>
<text text-anchor="middle" x="780.5" y="-98" font-family="Helvetica,sans-Serif" font-size="10.00" fill="#000000">itk::LightObject</text>
</a>
</g>
</g>
<!-- Node4&#45;&gt;Node3 -->
<g id="edge3" class="edge">
<title>Node4&#45;&gt;Node3</title>
<path fill="none" stroke="#191970" d="M836.3734,-95.9104C893.2616,-91.2374 979.6055,-84.1449 1026.794,-80.2687"/>
<polygon fill="#191970" stroke="#191970" points="835.7899,-92.4465 826.11,-96.7535 836.363,-99.423 835.7899,-92.4465"/>
</g>
<!-- Node5 -->
<g id="node5" class="node">
<title>Node5</title>
<g id="a_node5"><a xlink:title=" ">
<polygon fill="#ffffff" stroke="#bfbfbf" points="454.5,-90 454.5,-109 561.5,-109 561.5,-90 454.5,-90"/>
<text text-anchor="middle" x="508" y="-97" font-family="Helvetica,sans-Serif" font-size="10.00" fill="#000000">std::atomic&lt; int &gt;</text>
</a>
</g>
</g>
<!-- Node5&#45;&gt;Node4 -->
<g id="edge4" class="edge">
<title>Node5&#45;&gt;Node4</title>
<path fill="none" stroke="#9a32cd" stroke-dasharray="5,2" d="M571.5731,-99.7333C621.592,-99.9169 690.0857,-100.1682 734.802,-100.3323"/>
<polygon fill="#9a32cd" stroke="#9a32cd" points="571.5249,-96.2332 561.5121,-99.6964 571.4992,-103.2331 571.5249,-96.2332"/>
<text text-anchor="middle" x="648" y="-102.5" font-family="Helvetica,sans-Serif" font-size="10.00" fill="#000000"> m_ReferenceCount</text>
</g>
<!-- Node6 -->
<g id="node6" class="node">
<title>Node6</title>
<g id="a_node6"><a xlink:title="STL class.">
<polygon fill="#ffffff" stroke="#bfbfbf" points="123,-87 123,-106 223,-106 223,-87 123,-87"/>
<text text-anchor="middle" x="173" y="-94" font-family="Helvetica,sans-Serif" font-size="10.00" fill="#000000">std::atomic&lt; T &gt;</text>
</a>
</g>
</g>
<!-- Node6&#45;&gt;Node5 -->
<g id="edge5" class="edge">
<title>Node6&#45;&gt;Node5</title>
<path fill="none" stroke="#ffa500" stroke-dasharray="5,2" d="M233.3342,-97.0403C296.3105,-97.6043 394.1283,-98.4803 454.4514,-99.0205"/>
<polygon fill="#ffa500" stroke="#ffa500" points="233.1839,-93.5389 223.1529,-96.9491 233.1211,-100.5386 233.1839,-93.5389"/>
<text text-anchor="middle" x="333" y="-101.5" font-family="Helvetica,sans-Serif" font-size="10.00" fill="#000000"> &lt; int &gt;</text>
</g>
<!-- Node15 -->
<g id="node15" class="node">
<title>Node15</title>
<g id="a_node15"><a xlink:href="https://www.itk.org/Doxygen/html/classitk_1_1TimeStamp.html" xlink:title=" ">
<polygon fill="#ffffff" stroke="#000000" points="602,-52 602,-71 694,-71 694,-52 602,-52"/>
<text text-anchor="middle" x="648" y="-59" font-family="Helvetica,sans-Serif" font-size="10.00" fill="#000000">itk::TimeStamp</text>
</a>
</g>
</g>
<!-- Node6&#45;&gt;Node15 -->
<g id="edge17" class="edge">
<title>Node6&#45;&gt;Node15</title>
<path fill="none" stroke="#9a32cd" stroke-dasharray="5,2" d="M226.2981,-85.0992C234.2156,-83.702 242.3004,-82.4386 250,-81.5 376.7073,-66.0543 527.5043,-62.4839 601.8545,-61.6943"/>
<polygon fill="#9a32cd" stroke="#9a32cd" points="225.5989,-81.669 216.4004,-86.9262 226.8696,-88.5527 225.5989,-81.669"/>
<text text-anchor="middle" x="333" y="-84.5" font-family="Helvetica,sans-Serif" font-size="10.00" fill="#000000"> m_GlobalTimeStamp</text>
</g>
<!-- Node7 -->
<g id="node7" class="node">
<title>Node7</title>
<g id="a_node7"><a xlink:title=" ">
<polygon fill="#ffffff" stroke="#bfbfbf" points="0,-126 0,-145 29,-145 29,-126 0,-126"/>
<text text-anchor="middle" x="14.5" y="-133" font-family="Helvetica,sans-Serif" font-size="10.00" fill="#000000">T</text>
</a>
</g>
</g>
<!-- Node7&#45;&gt;Node6 -->
<g id="edge6" class="edge">
<title>Node7&#45;&gt;Node6</title>
<path fill="none" stroke="#9a32cd" stroke-dasharray="5,2" d="M38.0713,-122.9618C41.0275,-121.6688 44.0496,-120.4745 47,-119.5 71.3873,-111.445 99.4169,-105.9766 122.8381,-102.4004"/>
<polygon fill="#9a32cd" stroke="#9a32cd" points="36.5385,-119.8151 29.0203,-127.2802 39.5528,-126.1328 36.5385,-119.8151"/>
<text text-anchor="middle" x="71.5" y="-122.5" font-family="Helvetica,sans-Serif" font-size="10.00" fill="#000000"> ptr</text>
</g>
<!-- Node12 -->
<g id="node12" class="node">
<title>Node12</title>
<g id="a_node12"><a xlink:title="STL class.">
<polygon fill="#ffffff" stroke="#bfbfbf" points="122.5,-125 122.5,-144 223.5,-144 223.5,-125 122.5,-125"/>
<text text-anchor="middle" x="173" y="-132" font-family="Helvetica,sans-Serif" font-size="10.00" fill="#000000">std::map&lt; K, T &gt;</text>
</a>
</g>
</g>
<!-- Node7&#45;&gt;Node12 -->
<g id="edge13" class="edge">
<title>Node7&#45;&gt;Node12</title>
<path fill="none" stroke="#9a32cd" stroke-dasharray="5,2" d="M39.327,-135.3434C61.4563,-135.2037 94.5356,-134.995 122.2502,-134.8202"/>
<polygon fill="#9a32cd" stroke="#9a32cd" points="39.1049,-131.8446 29.1272,-135.4077 39.1491,-138.8445 39.1049,-131.8446"/>
<text text-anchor="middle" x="71.5" y="-137.5" font-family="Helvetica,sans-Serif" font-size="10.00" fill="#000000"> elements</text>
</g>
<!-- Node14 -->
<g id="node14" class="node">
<title>Node14</title>
<g id="a_node14"><a xlink:title="STL class.">
<polygon fill="#ffffff" stroke="#bfbfbf" points="114,-163 114,-182 232,-182 232,-163 114,-163"/>
<text text-anchor="middle" x="173" y="-170" font-family="Helvetica,sans-Serif" font-size="10.00" fill="#000000">std::shared_ptr&lt; T &gt;</text>
</a>
</g>
</g>
<!-- Node7&#45;&gt;Node14 -->
<g id="edge15" class="edge">
<title>Node7&#45;&gt;Node14</title>
<path fill="none" stroke="#9a32cd" stroke-dasharray="5,2" d="M38.444,-146.5305C41.2932,-147.6288 44.1883,-148.6498 47,-149.5 68.391,-155.9685 92.4056,-160.9029 113.687,-164.5108"/>
<polygon fill="#9a32cd" stroke="#9a32cd" points="39.6975,-143.261 29.1212,-142.6343 36.9983,-149.7197 39.6975,-143.261"/>
<text text-anchor="middle" x="71.5" y="-163.5" font-family="Helvetica,sans-Serif" font-size="10.00" fill="#000000"> ptr</text>
</g>
<!-- Node8 -->
<g id="node8" class="node">
<title>Node8</title>
<g id="a_node8"><a xlink:title="STL class.">
<polygon fill="#ffffff" stroke="#bfbfbf" points="748,-6 748,-25 813,-25 813,-6 748,-6"/>
<text text-anchor="middle" x="780.5" y="-13" font-family="Helvetica,sans-Serif" font-size="10.00" fill="#000000">std::string</text>
</a>
</g>
</g>
<!-- Node8&#45;&gt;Node3 -->
<g id="edge7" class="edge">
<title>Node8&#45;&gt;Node3</title>
<path fill="none" stroke="#9a32cd" stroke-dasharray="5,2" d="M823.0439,-14.5792C864.4407,-14.9184 928.5878,-18.755 981,-36.5 989.8804,-39.5066 990.7776,-42.9953 999,-47.5 1012.3358,-54.8061 1027.7108,-62.3061 1039.7518,-67.9796"/>
<polygon fill="#9a32cd" stroke="#9a32cd" points="823.0365,-11.0793 813.0304,-14.5619 823.0244,-18.0792 823.0365,-11.0793"/>
<text text-anchor="middle" x="923" y="-39.5" font-family="Helvetica,sans-Serif" font-size="10.00" fill="#000000"> m_ObjectName</text>
</g>
<!-- Node9 -->
<g id="node9" class="node">
<title>Node9</title>
<g id="a_node9"><a xlink:title="STL class.">
<polygon fill="#ffffff" stroke="#bfbfbf" points="456,-.5 456,-30.5 560,-30.5 560,-.5 456,-.5"/>
<text text-anchor="start" x="464" y="-18.5" font-family="Helvetica,sans-Serif" font-size="10.00" fill="#000000">std::basic_string&lt;</text>
<text text-anchor="middle" x="508" y="-7.5" font-family="Helvetica,sans-Serif" font-size="10.00" fill="#000000"> char &gt;</text>
</a>
</g>
</g>
<!-- Node9&#45;&gt;Node8 -->
<g id="edge8" class="edge">
<title>Node9&#45;&gt;Node8</title>
<path fill="none" stroke="#191970" d="M570.2419,-15.5C625.4471,-15.5 703.9232,-15.5 747.718,-15.5"/>
<polygon fill="#191970" stroke="#191970" points="570.2184,-12.0001 560.2183,-15.5 570.2183,-19.0001 570.2184,-12.0001"/>
</g>
<!-- Node10 -->
<g id="node10" class="node">
<title>Node10</title>
<g id="a_node10"><a xlink:href="https://www.itk.org/Doxygen/html/classitk_1_1MetaDataDictionary.html" xlink:title=" ">
<polygon fill="#ffffff" stroke="#000000" points="714,-131 714,-150 847,-150 847,-131 714,-131"/>
<text text-anchor="middle" x="780.5" y="-138" font-family="Helvetica,sans-Serif" font-size="10.00" fill="#000000">itk::MetaDataDictionary</text>
</a>
</g>
</g>
<!-- Node10&#45;&gt;Node3 -->
<g id="edge9" class="edge">
<title>Node10&#45;&gt;Node3</title>
<path fill="none" stroke="#9a32cd" stroke-dasharray="5,2" d="M851.1037,-129.2048C889.718,-122.5053 938.2587,-113.2312 981,-102.5 998.4008,-98.1311 1017.5968,-92.1291 1032.7663,-87.1011"/>
<polygon fill="#9a32cd" stroke="#9a32cd" points="850.2649,-125.7975 841.0009,-130.9383 851.4488,-132.6966 850.2649,-125.7975"/>
<text text-anchor="middle" x="923" y="-128.5" font-family="Helvetica,sans-Serif" font-size="10.00" fill="#000000"> m_MetaDataDictionary</text>
</g>
<!-- Node11 -->
<g id="node11" class="node">
<title>Node11</title>
<g id="a_node11"><a xlink:title=" ">
<polygon fill="#ffffff" stroke="#bfbfbf" points="434,-128.5 434,-158.5 582,-158.5 582,-128.5 434,-128.5"/>
<text text-anchor="start" x="442" y="-146.5" font-family="Helvetica,sans-Serif" font-size="10.00" fill="#000000">std::shared_ptr&lt; MetaData</text>
<text text-anchor="middle" x="508" y="-135.5" font-family="Helvetica,sans-Serif" font-size="10.00" fill="#000000">DictionaryMapType &gt;</text>
</a>
</g>
</g>
<!-- Node11&#45;&gt;Node10 -->
<g id="edge10" class="edge">
<title>Node11&#45;&gt;Node10</title>
<path fill="none" stroke="#9a32cd" stroke-dasharray="5,2" d="M592.4076,-142.5707C631.4896,-142.1405 677.2598,-141.6366 713.8642,-141.2336"/>
<polygon fill="#9a32cd" stroke="#9a32cd" points="592.0627,-139.0742 582.1019,-142.6842 592.1398,-146.0738 592.0627,-139.0742"/>
<text text-anchor="middle" x="648" y="-144.5" font-family="Helvetica,sans-Serif" font-size="10.00" fill="#000000"> m_Dictionary</text>
</g>
<!-- Node12&#45;&gt;Node11 -->
<g id="edge11" class="edge">
<title>Node12&#45;&gt;Node11</title>
<path fill="none" stroke="#9a32cd" stroke-dasharray="5,2" d="M233.893,-134.8645C283.0524,-135.3124 353.9975,-136.3056 416,-138.5 421.7549,-138.7037 427.7105,-138.9489 433.6967,-139.2201"/>
<polygon fill="#9a32cd" stroke="#9a32cd" points="233.7745,-131.3634 223.7446,-134.7769 233.714,-138.3631 233.7745,-131.3634"/>
<text text-anchor="middle" x="333" y="-141.5" font-family="Helvetica,sans-Serif" font-size="10.00" fill="#000000"> ptr</text>
</g>
<!-- Node13 -->
<g id="node13" class="node">
<title>Node13</title>
<g id="a_node13"><a xlink:title=" ">
<polygon fill="#ffffff" stroke="#bfbfbf" points="0,-58 0,-77 29,-77 29,-58 0,-58"/>
<text text-anchor="middle" x="14.5" y="-65" font-family="Helvetica,sans-Serif" font-size="10.00" fill="#000000">K</text>
</a>
</g>
</g>
<!-- Node13&#45;&gt;Node12 -->
<g id="edge12" class="edge">
<title>Node13&#45;&gt;Node12</title>
<path fill="none" stroke="#9a32cd" stroke-dasharray="5,2" d="M39.5921,-70.655C56.6973,-73.7693 79.2026,-79.8388 96,-91.5 106.9527,-99.1037 103.1438,-107.7591 114,-115.5 119.4323,-119.3734 125.694,-122.4851 132.0647,-124.9768"/>
<polygon fill="#9a32cd" stroke="#9a32cd" points="39.6719,-67.1236 29.2456,-69.0061 38.5702,-74.0364 39.6719,-67.1236"/>
<text text-anchor="middle" x="71.5" y="-94.5" font-family="Helvetica,sans-Serif" font-size="10.00" fill="#000000"> keys</text>
</g>
<!-- Node14&#45;&gt;Node11 -->
<g id="edge14" class="edge">
<title>Node14&#45;&gt;Node11</title>
<path fill="none" stroke="#ffa500" stroke-dasharray="5,2" d="M242.2928,-166.5015C298.2365,-161.6586 376.7767,-154.8596 433.9521,-149.9101"/>
<polygon fill="#ffa500" stroke="#ffa500" points="241.781,-163.0326 232.1201,-167.3821 242.3848,-170.0066 241.781,-163.0326"/>
<text text-anchor="middle" x="333" y="-167.5" font-family="Helvetica,sans-Serif" font-size="10.00" fill="#000000"> &lt; MetaDataDictionaryMapType &gt;</text>
</g>
<!-- Node15&#45;&gt;Node3 -->
<g id="edge16" class="edge">
<title>Node15&#45;&gt;Node3</title>
<path fill="none" stroke="#9a32cd" stroke-dasharray="5,2" d="M704.3436,-63.6854C791.4382,-67.0637 956.0854,-73.45 1026.8196,-76.1936"/>
<polygon fill="#9a32cd" stroke="#9a32cd" points="704.2465,-60.1791 694.1183,-63.2888 703.9751,-67.1739 704.2465,-60.1791"/>
<text text-anchor="middle" x="780.5" y="-71.5" font-family="Helvetica,sans-Serif" font-size="10.00" fill="#000000"> m_MTime</text>
</g>
<!-- Node16 -->
<g id="node16" class="node">
<title>Node16</title>
<g id="a_node16"><a xlink:href="classitk_1_1simple_1_1TranslationTransform.html" target="_top" xlink:title="Translation of a 2D or 3D coordinate space.">
<polygon fill="#ffffff" stroke="#000000" points="1171.5,-13.5 1171.5,-43.5 1299.5,-43.5 1299.5,-13.5 1171.5,-13.5"/>
<text text-anchor="start" x="1179.5" y="-31.5" font-family="Helvetica,sans-Serif" font-size="10.00" fill="#000000">itk::simple::Translation</text>
<text text-anchor="middle" x="1235.5" y="-20.5" font-family="Helvetica,sans-Serif" font-size="10.00" fill="#000000">Transform</text>
</a>
</g>
</g>
<!-- Node16&#45;&gt;Node1 -->
<g id="edge18" class="edge">
<title>Node16&#45;&gt;Node1</title>
<path fill="none" stroke="#9a32cd" stroke-dasharray="5,2" d="M1309.8652,-33.6699C1333.0062,-35.526 1358.5883,-37.8308 1382,-40.5 1387.7181,-41.1519 1393.6512,-41.8931 1399.5925,-42.6797"/>
<polygon fill="#9a32cd" stroke="#9a32cd" points="1310.0108,-30.1706 1299.7671,-32.8757 1309.4619,-37.1491 1310.0108,-30.1706"/>
<text text-anchor="middle" x="1356" y="-43.5" font-family="Helvetica,sans-Serif" font-size="10.00" fill="#000000"> that</text>
</g>
<!-- Node17 -->
<g id="node17" class="node">
<title>Node17</title>
<g id="a_node17"><a xlink:href="classitk_1_1simple_1_1Transform.html" target="_top" xlink:title="A simplified wrapper around a variety of ITK transforms.">
<polygon fill="#ffffff" stroke="#000000" points="999,-19 999,-38 1122,-38 1122,-19 999,-19"/>
<text text-anchor="middle" x="1060.5" y="-26" font-family="Helvetica,sans-Serif" font-size="10.00" fill="#000000">itk::simple::Transform</text>
</a>
</g>
</g>
<!-- Node17&#45;&gt;Node16 -->
<g id="edge19" class="edge">
<title>Node17&#45;&gt;Node16</title>
<path fill="none" stroke="#191970" d="M1132.4316,-28.5C1145.3444,-28.5 1158.7246,-28.5 1171.398,-28.5"/>
<polygon fill="#191970" stroke="#191970" points="1132.1985,-25.0001 1122.1985,-28.5 1132.1984,-32.0001 1132.1985,-25.0001"/>
</g>
</g>
</svg>
