<?xml version="1.0" encoding="UTF-8" standalone="no"?>
<!DOCTYPE svg PUBLIC "-//W3C//DTD SVG 1.1//EN"
 "http://www.w3.org/Graphics/SVG/1.1/DTD/svg11.dtd">
<!-- Generated by graphviz version 2.40.1 (20161225.0304)
 -->
<!-- Title: itk::simple::IsInstantiated&lt; itk::Image&lt; TPixelType, VImageDimension &gt;, 0 &gt; Pages: 1 -->
<svg width="818pt" height="79pt"
 viewBox="0.00 0.00 818.00 78.50" xmlns="http://www.w3.org/2000/svg" xmlns:xlink="http://www.w3.org/1999/xlink">
<g id="graph0" class="graph" transform="scale(1 1) rotate(0) translate(4 74.5)">
<title>itk::simple::IsInstantiated&lt; itk::Image&lt; TPixelType, VImageDimension &gt;, 0 &gt;</title>
<polygon fill="#ffffff" stroke="transparent" points="-4,4 -4,-74.5 814,-74.5 814,4 -4,4"/>
<!-- Node1 -->
<g id="node1" class="node">
<title>Node1</title>
<g id="a_node1"><a xlink:title=" ">
<polygon fill="#bfbfbf" stroke="#000000" points="666,-6 666,-47 810,-47 810,-6 666,-6"/>
<text text-anchor="start" x="674" y="-35" font-family="Helvetica,sans-Serif" font-size="10.00" fill="#000000">itk::simple::IsInstantiated</text>
<text text-anchor="start" x="674" y="-24" font-family="Helvetica,sans-Serif" font-size="10.00" fill="#000000">&lt; itk::Image&lt; TPixelType,</text>
<text text-anchor="middle" x="738" y="-13" font-family="Helvetica,sans-Serif" font-size="10.00" fill="#000000"> VImageDimension &gt;, 0 &gt;</text>
</a>
</g>
</g>
<!-- Node2 -->
<g id="node2" class="node">
<title>Node2</title>
<g id="a_node2"><a xlink:href="structitk_1_1simple_1_1IsInstantiated.html" target="_top" xlink:title=" ">
<polygon fill="#ffffff" stroke="#000000" points="416,-.5 416,-52.5 629,-52.5 629,-.5 416,-.5"/>
<text text-anchor="start" x="424" y="-40.5" font-family="Helvetica,sans-Serif" font-size="10.00" fill="#000000">itk::simple::IsInstantiated</text>
<text text-anchor="start" x="424" y="-29.5" font-family="Helvetica,sans-Serif" font-size="10.00" fill="#000000">&lt; ImageTypeToPixelID&lt; itk</text>
<text text-anchor="start" x="424" y="-18.5" font-family="Helvetica,sans-Serif" font-size="10.00" fill="#000000">::Image&lt; TPixelType, VImageDimension</text>
<text text-anchor="middle" x="522.5" y="-7.5" font-family="Helvetica,sans-Serif" font-size="10.00" fill="#000000"> &gt; &gt;::PixelIDType, VImageDimension &gt;</text>
</a>
</g>
</g>
<!-- Node2&#45;&gt;Node1 -->
<g id="edge1" class="edge">
<title>Node2&#45;&gt;Node1</title>
<path fill="none" stroke="#191970" d="M639.4513,-26.5C648.4194,-26.5 657.3018,-26.5 665.8477,-26.5"/>
<polygon fill="#191970" stroke="#191970" points="639.303,-23.0001 629.303,-26.5 639.303,-30.0001 639.303,-23.0001"/>
</g>
<!-- Node3 -->
<g id="node3" class="node">
<title>Node3</title>
<g id="a_node3"><a xlink:href="structitk_1_1simple_1_1IsInstantiated.html" target="_top" xlink:title=" ">
<polygon fill="#ffffff" stroke="#000000" points="0,-11.5 0,-41.5 198,-41.5 198,-11.5 0,-11.5"/>
<text text-anchor="start" x="8" y="-29.5" font-family="Helvetica,sans-Serif" font-size="10.00" fill="#000000">itk::simple::IsInstantiated</text>
<text text-anchor="middle" x="99" y="-18.5" font-family="Helvetica,sans-Serif" font-size="10.00" fill="#000000">&lt; TPixelIDType, VImageDimension &gt;</text>
</a>
</g>
</g>
<!-- Node3&#45;&gt;Node2 -->
<g id="edge2" class="edge">
<title>Node3&#45;&gt;Node2</title>
<path fill="none" stroke="#ffa500" stroke-dasharray="5,2" d="M208.1378,-26.5C272.0633,-26.5 352.4436,-26.5 415.9222,-26.5"/>
<polygon fill="#ffa500" stroke="#ffa500" points="208.0246,-23.0001 198.0246,-26.5 208.0245,-30.0001 208.0246,-23.0001"/>
<text text-anchor="start" x="216" y="-62.5" font-family="Helvetica,sans-Serif" font-size="10.00" fill="#000000"> &lt; ImageTypeToPixelID</text>
<text text-anchor="start" x="216" y="-51.5" font-family="Helvetica,sans-Serif" font-size="10.00" fill="#000000">&lt; itk::Image&lt; TPixelType,</text>
<text text-anchor="start" x="216" y="-40.5" font-family="Helvetica,sans-Serif" font-size="10.00" fill="#000000"> VImageDimension &gt; &gt;::PixelIDType,</text>
<text text-anchor="middle" x="307" y="-29.5" font-family="Helvetica,sans-Serif" font-size="10.00" fill="#000000"> VImageDimension &gt;</text>
</g>
</g>
</svg>
