<?xml version="1.0" encoding="UTF-8" standalone="no"?>
<!DOCTYPE svg PUBLIC "-//W3C//DTD SVG 1.1//EN"
 "http://www.w3.org/Graphics/SVG/1.1/DTD/svg11.dtd">
<!-- Generated by graphviz version 2.40.1 (20161225.0304)
 -->
<!-- Title: itk::ObjectToObjectOptimizerBaseTemplate&lt; TInternalComputationValueType &gt; Pages: 1 -->
<svg width="211pt" height="128pt"
 viewBox="0.00 0.00 211.00 128.00" xmlns="http://www.w3.org/2000/svg" xmlns:xlink="http://www.w3.org/1999/xlink">
<g id="graph0" class="graph" transform="scale(1 1) rotate(0) translate(4 124)">
<title>itk::ObjectToObjectOptimizerBaseTemplate&lt; TInternalComputationValueType &gt;</title>
<polygon fill="#ffffff" stroke="transparent" points="-4,4 -4,-124 207,-124 207,4 -4,4"/>
<!-- Node1 -->
<g id="node1" class="node">
<title>Node1</title>
<g id="a_node1"><a xlink:title=" ">
<polygon fill="#bfbfbf" stroke="#000000" points="0,-78.5 0,-119.5 203,-119.5 203,-78.5 0,-78.5"/>
<text text-anchor="start" x="8" y="-107.5" font-family="Helvetica,sans-Serif" font-size="10.00" fill="#000000">itk::ObjectToObjectOptimizer</text>
<text text-anchor="start" x="8" y="-96.5" font-family="Helvetica,sans-Serif" font-size="10.00" fill="#000000">BaseTemplate&lt; TInternalComputation</text>
<text text-anchor="middle" x="101.5" y="-85.5" font-family="Helvetica,sans-Serif" font-size="10.00" fill="#000000">ValueType &gt;</text>
</a>
</g>
</g>
<!-- Node2 -->
<g id="node2" class="node">
<title>Node2</title>
<g id="a_node2"><a xlink:href="classitk_1_1ObjectToObjectOptimizerBaseTemplate.html" target="_top" xlink:title=" ">
<polygon fill="#ffffff" stroke="#000000" points="23,-.5 23,-30.5 180,-30.5 180,-.5 23,-.5"/>
<text text-anchor="start" x="31" y="-18.5" font-family="Helvetica,sans-Serif" font-size="10.00" fill="#000000">itk::ObjectToObjectOptimizer</text>
<text text-anchor="middle" x="101.5" y="-7.5" font-family="Helvetica,sans-Serif" font-size="10.00" fill="#000000">BaseTemplate&lt; double &gt;</text>
</a>
</g>
</g>
<!-- Node1&#45;&gt;Node2 -->
<g id="edge1" class="edge">
<title>Node1&#45;&gt;Node2</title>
<path fill="none" stroke="#ffa500" stroke-dasharray="5,2" d="M101.5,-68.0892C101.5,-55.3184 101.5,-41.0939 101.5,-30.6621"/>
<polygon fill="#ffa500" stroke="#ffa500" points="98.0001,-68.3595 101.5,-78.3595 105.0001,-68.3596 98.0001,-68.3595"/>
<text text-anchor="middle" x="131" y="-52" font-family="Helvetica,sans-Serif" font-size="10.00" fill="#000000"> &lt; double &gt;</text>
</g>
</g>
</svg>
