<?xml version="1.0" encoding="UTF-8" standalone="no"?>
<!DOCTYPE svg PUBLIC "-//W3C//DTD SVG 1.1//EN"
 "http://www.w3.org/Graphics/SVG/1.1/DTD/svg11.dtd">
<!-- Generated by graphviz version 2.40.1 (20161225.0304)
 -->
<!-- Title: itk::simple::MaskedFFTNormalizedCorrelationImageFilter Pages: 1 -->
<svg width="193pt" height="207pt"
 viewBox="0.00 0.00 193.00 207.00" xmlns="http://www.w3.org/2000/svg" xmlns:xlink="http://www.w3.org/1999/xlink">
<g id="graph0" class="graph" transform="scale(1 1) rotate(0) translate(4 203)">
<title>itk::simple::MaskedFFTNormalizedCorrelationImageFilter</title>
<polygon fill="#ffffff" stroke="transparent" points="-4,4 -4,-203 189,-203 189,4 -4,4"/>
<!-- Node1 -->
<g id="node1" class="node">
<title>Node1</title>
<g id="a_node1"><a xlink:title="Calculate masked normalized cross correlation using FFTs.">
<polygon fill="#bfbfbf" stroke="#000000" points="0,-.5 0,-30.5 185,-30.5 185,-.5 0,-.5"/>
<text text-anchor="start" x="8" y="-18.5" font-family="Helvetica,sans-Serif" font-size="10.00" fill="#000000">itk::simple::MaskedFFTNormalized</text>
<text text-anchor="middle" x="92.5" y="-7.5" font-family="Helvetica,sans-Serif" font-size="10.00" fill="#000000">CorrelationImageFilter</text>
</a>
</g>
</g>
<!-- Node2 -->
<g id="node2" class="node">
<title>Node2</title>
<g id="a_node2"><a xlink:href="classitk_1_1simple_1_1ImageFilter.html" target="_top" xlink:title="The base interface for SimpleITK filters that take one input image.">
<polygon fill="#ffffff" stroke="#000000" points="28,-67.5 28,-86.5 157,-86.5 157,-67.5 28,-67.5"/>
<text text-anchor="middle" x="92.5" y="-74.5" font-family="Helvetica,sans-Serif" font-size="10.00" fill="#000000">itk::simple::ImageFilter</text>
</a>
</g>
</g>
<!-- Node2&#45;&gt;Node1 -->
<g id="edge1" class="edge">
<title>Node2&#45;&gt;Node1</title>
<path fill="none" stroke="#191970" d="M92.5,-57.3693C92.5,-48.681 92.5,-38.6241 92.5,-30.5446"/>
<polygon fill="#191970" stroke="#191970" points="89.0001,-57.3906 92.5,-67.3906 96.0001,-57.3907 89.0001,-57.3906"/>
</g>
<!-- Node3 -->
<g id="node3" class="node">
<title>Node3</title>
<g id="a_node3"><a xlink:href="classitk_1_1simple_1_1ProcessObject.html" target="_top" xlink:title="Base class for SimpleITK classes based on ProcessObject.">
<polygon fill="#ffffff" stroke="#000000" points="21,-123.5 21,-142.5 164,-142.5 164,-123.5 21,-123.5"/>
<text text-anchor="middle" x="92.5" y="-130.5" font-family="Helvetica,sans-Serif" font-size="10.00" fill="#000000">itk::simple::ProcessObject</text>
</a>
</g>
</g>
<!-- Node3&#45;&gt;Node2 -->
<g id="edge2" class="edge">
<title>Node3&#45;&gt;Node2</title>
<path fill="none" stroke="#191970" d="M92.5,-113.1575C92.5,-104.155 92.5,-93.9199 92.5,-86.6427"/>
<polygon fill="#191970" stroke="#191970" points="89.0001,-113.2455 92.5,-123.2455 96.0001,-113.2456 89.0001,-113.2455"/>
</g>
<!-- Node4 -->
<g id="node4" class="node">
<title>Node4</title>
<g id="a_node4"><a xlink:href="classitk_1_1simple_1_1NonCopyable.html" target="_top" xlink:title="An inheritable class to disable copying of a class.">
<polygon fill="#ffffff" stroke="#000000" points="22.5,-179.5 22.5,-198.5 162.5,-198.5 162.5,-179.5 22.5,-179.5"/>
<text text-anchor="middle" x="92.5" y="-186.5" font-family="Helvetica,sans-Serif" font-size="10.00" fill="#000000">itk::simple::NonCopyable</text>
</a>
</g>
</g>
<!-- Node4&#45;&gt;Node3 -->
<g id="edge3" class="edge">
<title>Node4&#45;&gt;Node3</title>
<path fill="none" stroke="#006400" d="M92.5,-169.1575C92.5,-160.155 92.5,-149.9199 92.5,-142.6427"/>
<polygon fill="#006400" stroke="#006400" points="89.0001,-169.2455 92.5,-179.2455 96.0001,-169.2456 89.0001,-169.2455"/>
</g>
</g>
</svg>
