<?xml version="1.0" encoding="UTF-8" standalone="no"?>
<!DOCTYPE svg PUBLIC "-//W3C//DTD SVG 1.1//EN"
 "http://www.w3.org/Graphics/SVG/1.1/DTD/svg11.dtd">
<!-- Generated by graphviz version 2.40.1 (20161225.0304)
 -->
<!-- Title: itk::simple::FastMarchingUpwindGradientImageFilter Pages: 1 -->
<svg width="2436pt" height="495pt"
 viewBox="0.00 0.00 2436.00 494.50" xmlns="http://www.w3.org/2000/svg" xmlns:xlink="http://www.w3.org/1999/xlink">
<g id="graph0" class="graph" transform="scale(1 1) rotate(0) translate(4 490.5)">
<title>itk::simple::FastMarchingUpwindGradientImageFilter</title>
<polygon fill="#ffffff" stroke="transparent" points="-4,4 -4,-490.5 2432,-490.5 2432,4 -4,4"/>
<!-- Node1 -->
<g id="node1" class="node">
<title>Node1</title>
<g id="a_node1"><a xlink:title="Generates the upwind gradient field of fast marching arrival times.">
<polygon fill="#bfbfbf" stroke="#000000" points="1758,-239.5 1758,-269.5 1908,-269.5 1908,-239.5 1758,-239.5"/>
<text text-anchor="start" x="1766" y="-257.5" font-family="Helvetica,sans-Serif" font-size="10.00" fill="#000000">itk::simple::FastMarching</text>
<text text-anchor="middle" x="1833" y="-246.5" font-family="Helvetica,sans-Serif" font-size="10.00" fill="#000000">UpwindGradientImageFilter</text>
</a>
</g>
</g>
<!-- Node2 -->
<g id="node2" class="node">
<title>Node2</title>
<g id="a_node2"><a xlink:href="classitk_1_1simple_1_1ImageFilter.html" target="_top" xlink:title="The base interface for SimpleITK filters that take one input image.">
<polygon fill="#ffffff" stroke="#000000" points="1421.5,-181 1421.5,-200 1550.5,-200 1550.5,-181 1421.5,-181"/>
<text text-anchor="middle" x="1486" y="-188" font-family="Helvetica,sans-Serif" font-size="10.00" fill="#000000">itk::simple::ImageFilter</text>
</a>
</g>
</g>
<!-- Node2&#45;&gt;Node1 -->
<g id="edge1" class="edge">
<title>Node2&#45;&gt;Node1</title>
<path fill="none" stroke="#191970" d="M1560.6375,-200.8942C1611.4027,-208.3685 1679.9919,-219.2582 1740,-231.5 1751.4076,-233.8272 1763.5301,-236.6014 1775.1237,-239.4041"/>
<polygon fill="#191970" stroke="#191970" points="1561.1311,-197.4293 1550.7299,-199.4455 1560.1183,-204.3556 1561.1311,-197.4293"/>
</g>
<!-- Node3 -->
<g id="node3" class="node">
<title>Node3</title>
<g id="a_node3"><a xlink:href="classitk_1_1simple_1_1ProcessObject.html" target="_top" xlink:title="Base class for SimpleITK classes based on ProcessObject.">
<polygon fill="#ffffff" stroke="#000000" points="1042,-134 1042,-153 1185,-153 1185,-134 1042,-134"/>
<text text-anchor="middle" x="1113.5" y="-141" font-family="Helvetica,sans-Serif" font-size="10.00" fill="#000000">itk::simple::ProcessObject</text>
</a>
</g>
</g>
<!-- Node3&#45;&gt;Node2 -->
<g id="edge2" class="edge">
<title>Node3&#45;&gt;Node2</title>
<path fill="none" stroke="#191970" d="M1166.1275,-155.0976C1181.2097,-158.1438 1197.7087,-161.2129 1213,-163.5 1283.8902,-174.1032 1365.782,-181.5709 1421.2392,-185.9252"/>
<polygon fill="#191970" stroke="#191970" points="1166.4449,-151.5896 1155.9447,-153.0022 1165.034,-158.4459 1166.4449,-151.5896"/>
</g>
<!-- Node10 -->
<g id="node10" class="node">
<title>Node10</title>
<g id="a_node10"><a xlink:title=" ">
<polygon fill="#ffffff" stroke="#bfbfbf" points="1428,-88.5 1428,-118.5 1544,-118.5 1544,-88.5 1428,-88.5"/>
<text text-anchor="start" x="1436" y="-106.5" font-family="Helvetica,sans-Serif" font-size="10.00" fill="#000000">std::set&lt; itk::simple</text>
<text text-anchor="middle" x="1486" y="-95.5" font-family="Helvetica,sans-Serif" font-size="10.00" fill="#000000">::ProcessObject * &gt;</text>
</a>
</g>
</g>
<!-- Node3&#45;&gt;Node10 -->
<g id="edge11" class="edge">
<title>Node3&#45;&gt;Node10</title>
<path fill="none" stroke="#9a32cd" stroke-dasharray="5,2" d="M1178.1833,-132.4088C1189.7563,-130.6214 1201.7196,-128.901 1213,-127.5 1286.8929,-118.3228 1372.4663,-111.3969 1427.8236,-107.3993"/>
<polygon fill="#9a32cd" stroke="#9a32cd" points="1177.4742,-128.9773 1168.1405,-133.9905 1178.5633,-135.892 1177.4742,-128.9773"/>
<text text-anchor="middle" x="1293.5" y="-130.5" font-family="Helvetica,sans-Serif" font-size="10.00" fill="#000000"> keys</text>
</g>
<!-- Node4 -->
<g id="node4" class="node">
<title>Node4</title>
<g id="a_node4"><a xlink:href="classitk_1_1simple_1_1NonCopyable.html" target="_top" xlink:title="An inheritable class to disable copying of a class.">
<polygon fill="#ffffff" stroke="#000000" points="717,-94 717,-113 857,-113 857,-94 717,-94"/>
<text text-anchor="middle" x="787" y="-101" font-family="Helvetica,sans-Serif" font-size="10.00" fill="#000000">itk::simple::NonCopyable</text>
</a>
</g>
</g>
<!-- Node4&#45;&gt;Node3 -->
<g id="edge3" class="edge">
<title>Node4&#45;&gt;Node3</title>
<path fill="none" stroke="#006400" d="M867.1669,-113.3214C920.623,-119.8703 990.2836,-128.4046 1041.8813,-134.7259"/>
<polygon fill="#006400" stroke="#006400" points="867.3939,-109.8231 857.0424,-112.081 866.5426,-116.7711 867.3939,-109.8231"/>
</g>
<!-- Node7 -->
<g id="node7" class="node">
<title>Node7</title>
<g id="a_node7"><a xlink:href="classitk_1_1simple_1_1Command.html" target="_top" xlink:title="An implementation of the Command design pattern for callback.">
<polygon fill="#ffffff" stroke="#000000" points="1770.5,-70 1770.5,-89 1895.5,-89 1895.5,-70 1770.5,-70"/>
<text text-anchor="middle" x="1833" y="-77" font-family="Helvetica,sans-Serif" font-size="10.00" fill="#000000">itk::simple::Command</text>
</a>
</g>
</g>
<!-- Node4&#45;&gt;Node7 -->
<g id="edge7" class="edge">
<title>Node4&#45;&gt;Node7</title>
<path fill="none" stroke="#006400" d="M867.059,-93.2554C914.8461,-87.659 976.7873,-81.3097 1032,-78.5 1306.8145,-64.5152 1635.3516,-72.7469 1770.3735,-77.2059"/>
<polygon fill="#006400" stroke="#006400" points="866.6031,-89.7849 857.0841,-94.4367 867.4264,-96.7363 866.6031,-89.7849"/>
</g>
<!-- Node5 -->
<g id="node5" class="node">
<title>Node5</title>
<g id="a_node5"><a xlink:title=" ">
<polygon fill="#ffffff" stroke="#bfbfbf" points="2241,-137.5 2241,-167.5 2428,-167.5 2428,-137.5 2241,-137.5"/>
<text text-anchor="start" x="2249" y="-155.5" font-family="Helvetica,sans-Serif" font-size="10.00" fill="#000000">std::list&lt; itk::simple</text>
<text text-anchor="middle" x="2334.5" y="-144.5" font-family="Helvetica,sans-Serif" font-size="10.00" fill="#000000">::ProcessObject::EventCommand &gt;</text>
</a>
</g>
</g>
<!-- Node5&#45;&gt;Node3 -->
<g id="edge4" class="edge">
<title>Node5&#45;&gt;Node3</title>
<path fill="none" stroke="#9a32cd" stroke-dasharray="5,2" d="M2230.6648,-152.5C2185.7233,-152.5 2132.5177,-152.5 2084.5,-152.5 1486,-152.5 1486,-152.5 1486,-152.5 1381.3655,-152.5 1260.2465,-148.9071 1185.2458,-146.2615"/>
<polygon fill="#9a32cd" stroke="#9a32cd" points="2230.714,-156.0001 2240.714,-152.5 2230.714,-149.0001 2230.714,-156.0001"/>
<text text-anchor="middle" x="1833" y="-155.5" font-family="Helvetica,sans-Serif" font-size="10.00" fill="#000000"> m_Commands</text>
</g>
<!-- Node6 -->
<g id="node6" class="node">
<title>Node6</title>
<g id="a_node6"><a xlink:href="structitk_1_1simple_1_1ProcessObject_1_1EventCommand.html" target="_top" xlink:title=" ">
<polygon fill="#ffffff" stroke="#000000" points="2013,-92.5 2013,-122.5 2156,-122.5 2156,-92.5 2013,-92.5"/>
<text text-anchor="start" x="2021" y="-110.5" font-family="Helvetica,sans-Serif" font-size="10.00" fill="#000000">itk::simple::ProcessObject</text>
<text text-anchor="middle" x="2084.5" y="-99.5" font-family="Helvetica,sans-Serif" font-size="10.00" fill="#000000">::EventCommand</text>
</a>
</g>
</g>
<!-- Node6&#45;&gt;Node5 -->
<g id="edge5" class="edge">
<title>Node6&#45;&gt;Node5</title>
<path fill="none" stroke="#9a32cd" stroke-dasharray="5,2" d="M2166.1731,-118.2253C2184.8898,-120.9795 2204.6707,-124.1269 2223,-127.5 2238.7061,-130.3903 2255.5597,-133.9349 2271.2861,-137.4365"/>
<polygon fill="#9a32cd" stroke="#9a32cd" points="2166.5981,-114.7504 2156.1994,-116.7795 2165.5938,-121.678 2166.5981,-114.7504"/>
<text text-anchor="middle" x="2198.5" y="-130.5" font-family="Helvetica,sans-Serif" font-size="10.00" fill="#000000"> elements</text>
</g>
<!-- Node7&#45;&gt;Node6 -->
<g id="edge6" class="edge">
<title>Node7&#45;&gt;Node6</title>
<path fill="none" stroke="#9a32cd" stroke-dasharray="5,2" d="M1906.0238,-87.6299C1939.5954,-91.3675 1979.2895,-95.7867 2012.709,-99.5074"/>
<polygon fill="#9a32cd" stroke="#9a32cd" points="1906.1412,-84.1214 1895.8153,-86.4934 1905.3666,-91.0784 1906.1412,-84.1214"/>
<text text-anchor="middle" x="1960.5" y="-100.5" font-family="Helvetica,sans-Serif" font-size="10.00" fill="#000000"> m_Command</text>
</g>
<!-- Node8 -->
<g id="node8" class="node">
<title>Node8</title>
<g id="a_node8"><a xlink:title="STL class.">
<polygon fill="#ffffff" stroke="#bfbfbf" points="1453.5,-9 1453.5,-28 1518.5,-28 1518.5,-9 1453.5,-9"/>
<text text-anchor="middle" x="1486" y="-16" font-family="Helvetica,sans-Serif" font-size="10.00" fill="#000000">std::string</text>
</a>
</g>
</g>
<!-- Node8&#45;&gt;Node7 -->
<g id="edge8" class="edge">
<title>Node8&#45;&gt;Node7</title>
<path fill="none" stroke="#9a32cd" stroke-dasharray="5,2" d="M1528.7402,-16.2262C1579.8696,-14.6336 1667.6336,-15.4979 1740,-34.5 1769.1455,-42.1531 1800.0893,-59.1414 1817.9192,-69.9165"/>
<polygon fill="#9a32cd" stroke="#9a32cd" points="1528.5798,-12.7296 1518.7115,-16.5852 1528.8303,-19.7251 1528.5798,-12.7296"/>
<text text-anchor="middle" x="1669" y="-37.5" font-family="Helvetica,sans-Serif" font-size="10.00" fill="#000000"> m_Name</text>
</g>
<!-- Node9 -->
<g id="node9" class="node">
<title>Node9</title>
<g id="a_node9"><a xlink:title="STL class.">
<polygon fill="#ffffff" stroke="#bfbfbf" points="1061.5,-.5 1061.5,-30.5 1165.5,-30.5 1165.5,-.5 1061.5,-.5"/>
<text text-anchor="start" x="1069.5" y="-18.5" font-family="Helvetica,sans-Serif" font-size="10.00" fill="#000000">std::basic_string&lt;</text>
<text text-anchor="middle" x="1113.5" y="-7.5" font-family="Helvetica,sans-Serif" font-size="10.00" fill="#000000"> char &gt;</text>
</a>
</g>
</g>
<!-- Node9&#45;&gt;Node8 -->
<g id="edge9" class="edge">
<title>Node9&#45;&gt;Node8</title>
<path fill="none" stroke="#191970" d="M1176.1118,-16.0043C1256.0866,-16.6483 1391.5301,-17.7392 1453.4082,-18.2375"/>
<polygon fill="#191970" stroke="#191970" points="1175.7146,-12.501 1165.6868,-15.9203 1175.6582,-19.5008 1175.7146,-12.501"/>
</g>
<!-- Node10&#45;&gt;Node7 -->
<g id="edge10" class="edge">
<title>Node10&#45;&gt;Node7</title>
<path fill="none" stroke="#9a32cd" stroke-dasharray="5,2" d="M1554.2803,-98.7774C1617.0634,-94.4351 1709.3835,-88.0498 1770.3266,-83.8348"/>
<polygon fill="#9a32cd" stroke="#9a32cd" points="1553.8146,-95.3012 1544.08,-99.4829 1554.2977,-102.2845 1553.8146,-95.3012"/>
<text text-anchor="middle" x="1669" y="-99.5" font-family="Helvetica,sans-Serif" font-size="10.00" fill="#000000"> m_ReferencedObjects</text>
</g>
<!-- Node11 -->
<g id="node11" class="node">
<title>Node11</title>
<g id="a_node11"><a xlink:title="STL class.">
<polygon fill="#ffffff" stroke="#bfbfbf" points="1072.5,-88 1072.5,-107 1154.5,-107 1154.5,-88 1072.5,-88"/>
<text text-anchor="middle" x="1113.5" y="-95" font-family="Helvetica,sans-Serif" font-size="10.00" fill="#000000">std::set&lt; K &gt;</text>
</a>
</g>
</g>
<!-- Node11&#45;&gt;Node10 -->
<g id="edge12" class="edge">
<title>Node11&#45;&gt;Node10</title>
<path fill="none" stroke="#ffa500" stroke-dasharray="5,2" d="M1165.0343,-95.0337C1180.4571,-94.4022 1197.4113,-93.8132 1213,-93.5 1284.5411,-92.0626 1302.5154,-90.3151 1374,-93.5 1391.5522,-94.282 1410.6058,-95.7502 1427.9357,-97.3253"/>
<polygon fill="#ffa500" stroke="#ffa500" points="1164.4798,-91.554 1154.6372,-95.4749 1164.7767,-98.5477 1164.4798,-91.554"/>
<text text-anchor="middle" x="1293.5" y="-96.5" font-family="Helvetica,sans-Serif" font-size="10.00" fill="#000000"> &lt; itk::simple::ProcessObject * &gt;</text>
</g>
<!-- Node12 -->
<g id="node12" class="node">
<title>Node12</title>
<g id="a_node12"><a xlink:title=" ">
<polygon fill="#ffffff" stroke="#bfbfbf" points="772.5,-24 772.5,-43 801.5,-43 801.5,-24 772.5,-24"/>
<text text-anchor="middle" x="787" y="-31" font-family="Helvetica,sans-Serif" font-size="10.00" fill="#000000">K</text>
</a>
</g>
</g>
<!-- Node12&#45;&gt;Node11 -->
<g id="edge13" class="edge">
<title>Node12&#45;&gt;Node11</title>
<path fill="none" stroke="#9a32cd" stroke-dasharray="5,2" d="M811.9539,-38.3914C867.8817,-49.3543 1003.727,-75.9825 1072.3617,-89.4361"/>
<polygon fill="#9a32cd" stroke="#9a32cd" points="812.364,-34.9053 801.8774,-36.4163 811.0174,-41.7745 812.364,-34.9053"/>
<text text-anchor="middle" x="949.5" y="-80.5" font-family="Helvetica,sans-Serif" font-size="10.00" fill="#000000"> keys</text>
</g>
<!-- Node13 -->
<g id="node13" class="node">
<title>Node13</title>
<g id="a_node13"><a xlink:title="STL class.">
<polygon fill="#ffffff" stroke="#bfbfbf" points="909,-439 909,-458 990,-458 990,-439 909,-439"/>
<text text-anchor="middle" x="949.5" y="-446" font-family="Helvetica,sans-Serif" font-size="10.00" fill="#000000">std::list&lt; T &gt;</text>
</a>
</g>
</g>
<!-- Node13&#45;&gt;Node5 -->
<g id="edge14" class="edge">
<title>Node13&#45;&gt;Node5</title>
<path fill="none" stroke="#ffa500" stroke-dasharray="5,2" d="M1000.5424,-452.3583C1067.6832,-457.093 1189.3624,-464.5 1293.5,-464.5 1293.5,-464.5 1293.5,-464.5 2084.5,-464.5 2238.5915,-464.5 2313.4341,-229.8716 2330.5961,-167.5484"/>
<polygon fill="#ffa500" stroke="#ffa500" points="1000.47,-448.8443 990.246,-451.6229 999.9713,-455.8265 1000.47,-448.8443"/>
<text text-anchor="start" x="1598" y="-478.5" font-family="Helvetica,sans-Serif" font-size="10.00" fill="#000000"> &lt; itk::simple::ProcessObject</text>
<text text-anchor="middle" x="1669" y="-467.5" font-family="Helvetica,sans-Serif" font-size="10.00" fill="#000000">::EventCommand &gt;</text>
</g>
<!-- Node14 -->
<g id="node14" class="node">
<title>Node14</title>
<g id="a_node14"><a xlink:title=" ">
<polygon fill="#ffffff" stroke="#bfbfbf" points="408.5,-381 408.5,-400 437.5,-400 437.5,-381 408.5,-381"/>
<text text-anchor="middle" x="423" y="-388" font-family="Helvetica,sans-Serif" font-size="10.00" fill="#000000">T</text>
</a>
</g>
</g>
<!-- Node14&#45;&gt;Node13 -->
<g id="edge15" class="edge">
<title>Node14&#45;&gt;Node13</title>
<path fill="none" stroke="#9a32cd" stroke-dasharray="5,2" d="M447.8093,-394.376C468.855,-397.5925 499.8636,-402.1636 527,-405.5 666.954,-422.7071 833.6003,-438.2033 908.9465,-444.9414"/>
<polygon fill="#9a32cd" stroke="#9a32cd" points="448.2016,-390.8952 437.7852,-392.8312 447.1354,-397.8136 448.2016,-390.8952"/>
<text text-anchor="middle" x="608" y="-425.5" font-family="Helvetica,sans-Serif" font-size="10.00" fill="#000000"> elements</text>
</g>
<!-- Node21 -->
<g id="node21" class="node">
<title>Node21</title>
<g id="a_node21"><a xlink:title="STL class.">
<polygon fill="#ffffff" stroke="#bfbfbf" points="890.5,-295 890.5,-314 1008.5,-314 1008.5,-295 890.5,-295"/>
<text text-anchor="middle" x="949.5" y="-302" font-family="Helvetica,sans-Serif" font-size="10.00" fill="#000000">std::unique_ptr&lt; T &gt;</text>
</a>
</g>
</g>
<!-- Node14&#45;&gt;Node21 -->
<g id="edge24" class="edge">
<title>Node14&#45;&gt;Node21</title>
<path fill="none" stroke="#9a32cd" stroke-dasharray="5,2" d="M447.6433,-386.4747C526.8328,-373.5397 776.3006,-332.7909 890.8942,-314.0728"/>
<polygon fill="#9a32cd" stroke="#9a32cd" points="446.9361,-383.0437 437.6311,-388.1101 448.0646,-389.9522 446.9361,-383.0437"/>
<text text-anchor="middle" x="608" y="-375.5" font-family="Helvetica,sans-Serif" font-size="10.00" fill="#000000"> ptr</text>
</g>
<!-- Node24 -->
<g id="node24" class="node">
<title>Node24</title>
<g id="a_node24"><a xlink:title="STL class.">
<polygon fill="#ffffff" stroke="#bfbfbf" points="738.5,-381 738.5,-400 835.5,-400 835.5,-381 738.5,-381"/>
<text text-anchor="middle" x="787" y="-388" font-family="Helvetica,sans-Serif" font-size="10.00" fill="#000000">std::vector&lt; T &gt;</text>
</a>
</g>
</g>
<!-- Node14&#45;&gt;Node24 -->
<g id="edge28" class="edge">
<title>Node14&#45;&gt;Node24</title>
<path fill="none" stroke="#9a32cd" stroke-dasharray="5,2" d="M447.7285,-390.5C507.3227,-390.5 659.751,-390.5 738.4122,-390.5"/>
<polygon fill="#9a32cd" stroke="#9a32cd" points="447.7201,-387.0001 437.7201,-390.5 447.72,-394.0001 447.7201,-387.0001"/>
<text text-anchor="middle" x="608" y="-393.5" font-family="Helvetica,sans-Serif" font-size="10.00" fill="#000000"> elements</text>
</g>
<!-- Node15 -->
<g id="node15" class="node">
<title>Node15</title>
<g id="a_node15"><a xlink:title=" ">
<polygon fill="#ffffff" stroke="#bfbfbf" points="1392,-257 1392,-298 1580,-298 1580,-257 1392,-257"/>
<text text-anchor="start" x="1400" y="-286" font-family="Helvetica,sans-Serif" font-size="10.00" fill="#000000">std::unique_ptr&lt; itk</text>
<text text-anchor="start" x="1400" y="-275" font-family="Helvetica,sans-Serif" font-size="10.00" fill="#000000">::simple::detail::MemberFunction</text>
<text text-anchor="middle" x="1486" y="-264" font-family="Helvetica,sans-Serif" font-size="10.00" fill="#000000">Factory&lt; MemberFunctionType &gt; &gt;</text>
</a>
</g>
</g>
<!-- Node15&#45;&gt;Node1 -->
<g id="edge16" class="edge">
<title>Node15&#45;&gt;Node1</title>
<path fill="none" stroke="#9a32cd" stroke-dasharray="5,2" d="M1590.6408,-270.5642C1644.5269,-266.9925 1708.9912,-262.7196 1757.8848,-259.4788"/>
<polygon fill="#9a32cd" stroke="#9a32cd" points="1590.1075,-267.0917 1580.3609,-271.2455 1590.5705,-274.0764 1590.1075,-267.0917"/>
<text text-anchor="middle" x="1669" y="-272.5" font-family="Helvetica,sans-Serif" font-size="10.00" fill="#000000"> m_MemberFactory</text>
</g>
<!-- Node16 -->
<g id="node16" class="node">
<title>Node16</title>
<g id="a_node16"><a xlink:href="classitk_1_1simple_1_1detail_1_1MemberFunctionFactory.html" target="_top" xlink:title=" ">
<polygon fill="#ffffff" stroke="#000000" points="1042.5,-218 1042.5,-259 1184.5,-259 1184.5,-218 1042.5,-218"/>
<text text-anchor="start" x="1050.5" y="-247" font-family="Helvetica,sans-Serif" font-size="10.00" fill="#000000">itk::simple::detail</text>
<text text-anchor="start" x="1050.5" y="-236" font-family="Helvetica,sans-Serif" font-size="10.00" fill="#000000">::MemberFunctionFactory</text>
<text text-anchor="middle" x="1113.5" y="-225" font-family="Helvetica,sans-Serif" font-size="10.00" fill="#000000">&lt; MemberFunctionType &gt;</text>
</a>
</g>
</g>
<!-- Node16&#45;&gt;Node15 -->
<g id="edge17" class="edge">
<title>Node16&#45;&gt;Node15</title>
<path fill="none" stroke="#9a32cd" stroke-dasharray="5,2" d="M1195.1115,-247.0446C1253.159,-253.122 1331.2807,-261.3012 1391.9485,-267.653"/>
<polygon fill="#9a32cd" stroke="#9a32cd" points="1195.1911,-243.5338 1184.881,-245.9734 1194.4622,-250.4958 1195.1911,-243.5338"/>
<text text-anchor="middle" x="1293.5" y="-267.5" font-family="Helvetica,sans-Serif" font-size="10.00" fill="#000000"> ptr</text>
</g>
<!-- Node17 -->
<g id="node17" class="node">
<title>Node17</title>
<g id="a_node17"><a xlink:href="classitk_1_1simple_1_1detail_1_1MemberFunctionFactoryBase.html" target="_top" xlink:title=" ">
<polygon fill="#ffffff" stroke="#000000" points="527,-195.5 527,-247.5 689,-247.5 689,-195.5 527,-195.5"/>
<text text-anchor="start" x="535" y="-235.5" font-family="Helvetica,sans-Serif" font-size="10.00" fill="#000000">itk::simple::detail</text>
<text text-anchor="start" x="535" y="-224.5" font-family="Helvetica,sans-Serif" font-size="10.00" fill="#000000">::MemberFunctionFactoryBase</text>
<text text-anchor="start" x="535" y="-213.5" font-family="Helvetica,sans-Serif" font-size="10.00" fill="#000000">&lt; MemberFunctionType, std</text>
<text text-anchor="middle" x="608" y="-202.5" font-family="Helvetica,sans-Serif" font-size="10.00" fill="#000000">::pair&lt; unsigned int, int &gt; &gt;</text>
</a>
</g>
</g>
<!-- Node17&#45;&gt;Node16 -->
<g id="edge18" class="edge">
<title>Node17&#45;&gt;Node16</title>
<path fill="none" stroke="#006400" d="M699.4549,-224.5756C797.9187,-227.887 952.4768,-233.0848 1042.2883,-236.1051"/>
<polygon fill="#006400" stroke="#006400" points="699.3293,-221.0695 689.2173,-224.2313 699.094,-228.0656 699.3293,-221.0695"/>
</g>
<!-- Node18 -->
<g id="node18" class="node">
<title>Node18</title>
<g id="a_node18"><a xlink:href="classitk_1_1simple_1_1detail_1_1MemberFunctionFactoryBase.html" target="_top" xlink:title="A base class for the MemberFunctionFactory.">
<polygon fill="#ffffff" stroke="#000000" points="0,-232.5 0,-262.5 162,-262.5 162,-232.5 0,-232.5"/>
<text text-anchor="start" x="8" y="-250.5" font-family="Helvetica,sans-Serif" font-size="10.00" fill="#000000">itk::simple::detail</text>
<text text-anchor="middle" x="81" y="-239.5" font-family="Helvetica,sans-Serif" font-size="10.00" fill="#000000">::MemberFunctionFactoryBase</text>
</a>
</g>
</g>
<!-- Node18&#45;&gt;Node17 -->
<g id="edge19" class="edge">
<title>Node18&#45;&gt;Node17</title>
<path fill="none" stroke="#ffa500" stroke-dasharray="5,2" d="M132.4875,-229.406C147.6019,-224.9198 164.2939,-220.7531 180,-218.5 299.7098,-201.3275 440.1944,-207.2021 526.6561,-213.7603"/>
<polygon fill="#ffa500" stroke="#ffa500" points="131.3381,-226.0976 122.8092,-232.3832 133.3963,-232.7882 131.3381,-226.0976"/>
<text text-anchor="start" x="189" y="-243.5" font-family="Helvetica,sans-Serif" font-size="10.00" fill="#000000"> &lt; MemberFunctionType,</text>
<text text-anchor="start" x="189" y="-232.5" font-family="Helvetica,sans-Serif" font-size="10.00" fill="#000000"> std::pair&lt; unsigned</text>
<text text-anchor="middle" x="249.5" y="-221.5" font-family="Helvetica,sans-Serif" font-size="10.00" fill="#000000"> int, int &gt; &gt;</text>
</g>
<!-- Node20 -->
<g id="node20" class="node">
<title>Node20</title>
<g id="a_node20"><a xlink:href="classitk_1_1simple_1_1detail_1_1MemberFunctionFactoryBase.html" target="_top" xlink:title=" ">
<polygon fill="#ffffff" stroke="#000000" points="337,-249.5 337,-301.5 509,-301.5 509,-249.5 337,-249.5"/>
<text text-anchor="start" x="345" y="-289.5" font-family="Helvetica,sans-Serif" font-size="10.00" fill="#000000">itk::simple::detail</text>
<text text-anchor="start" x="345" y="-278.5" font-family="Helvetica,sans-Serif" font-size="10.00" fill="#000000">::MemberFunctionFactoryBase</text>
<text text-anchor="start" x="345" y="-267.5" font-family="Helvetica,sans-Serif" font-size="10.00" fill="#000000">&lt; TMemberFunctionPointer,</text>
<text text-anchor="middle" x="423" y="-256.5" font-family="Helvetica,sans-Serif" font-size="10.00" fill="#000000"> std::pair&lt; unsigned int, int &gt; &gt;</text>
</a>
</g>
</g>
<!-- Node18&#45;&gt;Node20 -->
<g id="edge22" class="edge">
<title>Node18&#45;&gt;Node20</title>
<path fill="none" stroke="#ffa500" stroke-dasharray="5,2" d="M172.0982,-254.9583C223.1995,-259.1421 286.5818,-264.3313 336.856,-268.4473"/>
<polygon fill="#ffa500" stroke="#ffa500" points="172.3015,-251.4634 162.0492,-254.1356 171.7303,-258.44 172.3015,-251.4634"/>
<text text-anchor="start" x="180" y="-290.5" font-family="Helvetica,sans-Serif" font-size="10.00" fill="#000000"> &lt; TMemberFunctionPointer,</text>
<text text-anchor="start" x="180" y="-279.5" font-family="Helvetica,sans-Serif" font-size="10.00" fill="#000000"> std::pair&lt; unsigned int,</text>
<text text-anchor="middle" x="249.5" y="-268.5" font-family="Helvetica,sans-Serif" font-size="10.00" fill="#000000"> int &gt; &gt;</text>
</g>
<!-- Node19 -->
<g id="node19" class="node">
<title>Node19</title>
<g id="a_node19"><a xlink:href="classitk_1_1simple_1_1detail_1_1MemberFunctionFactory.html" target="_top" xlink:title="A class used to instantiate and generate function object to templated member functions.">
<polygon fill="#ffffff" stroke="#000000" points="707,-251 707,-292 867,-292 867,-251 707,-251"/>
<text text-anchor="start" x="715" y="-280" font-family="Helvetica,sans-Serif" font-size="10.00" fill="#000000">itk::simple::detail</text>
<text text-anchor="start" x="715" y="-269" font-family="Helvetica,sans-Serif" font-size="10.00" fill="#000000">::MemberFunctionFactory</text>
<text text-anchor="middle" x="787" y="-258" font-family="Helvetica,sans-Serif" font-size="10.00" fill="#000000">&lt; TMemberFunctionPointer &gt;</text>
</a>
</g>
</g>
<!-- Node19&#45;&gt;Node16 -->
<g id="edge20" class="edge">
<title>Node19&#45;&gt;Node16</title>
<path fill="none" stroke="#ffa500" stroke-dasharray="5,2" d="M877.5257,-262.3504C929.5774,-257.0894 994.027,-250.5754 1042.4122,-245.685"/>
<polygon fill="#ffa500" stroke="#ffa500" points="876.8864,-258.8971 867.2891,-263.385 877.5904,-265.8616 876.8864,-258.8971"/>
<text text-anchor="middle" x="949.5" y="-263.5" font-family="Helvetica,sans-Serif" font-size="10.00" fill="#000000"> &lt; MemberFunctionType &gt;</text>
</g>
<!-- Node20&#45;&gt;Node19 -->
<g id="edge21" class="edge">
<title>Node20&#45;&gt;Node19</title>
<path fill="none" stroke="#006400" d="M519.623,-274.4382C578.0927,-273.7957 651.7628,-272.9861 706.9603,-272.3796"/>
<polygon fill="#006400" stroke="#006400" points="519.2238,-270.9423 509.2629,-274.5521 519.3008,-277.9419 519.2238,-270.9423"/>
</g>
<!-- Node21&#45;&gt;Node15 -->
<g id="edge23" class="edge">
<title>Node21&#45;&gt;Node15</title>
<path fill="none" stroke="#ffa500" stroke-dasharray="5,2" d="M1018.7964,-301.0126C1113.9368,-296.2245 1285.3212,-287.5994 1391.9661,-282.2324"/>
<polygon fill="#ffa500" stroke="#ffa500" points="1018.5183,-297.522 1008.7069,-301.5203 1018.8702,-304.5132 1018.5183,-297.522"/>
<text text-anchor="start" x="1045" y="-324.5" font-family="Helvetica,sans-Serif" font-size="10.00" fill="#000000"> &lt; itk::simple::detail</text>
<text text-anchor="start" x="1045" y="-313.5" font-family="Helvetica,sans-Serif" font-size="10.00" fill="#000000">::MemberFunctionFactory</text>
<text text-anchor="middle" x="1113.5" y="-302.5" font-family="Helvetica,sans-Serif" font-size="10.00" fill="#000000">&lt; MemberFunctionType &gt; &gt;</text>
</g>
<!-- Node22 -->
<g id="node22" class="node">
<title>Node22</title>
<g id="a_node22"><a xlink:title=" ">
<polygon fill="#ffffff" stroke="#bfbfbf" points="1420.5,-347.5 1420.5,-377.5 1551.5,-377.5 1551.5,-347.5 1420.5,-347.5"/>
<text text-anchor="start" x="1428.5" y="-365.5" font-family="Helvetica,sans-Serif" font-size="10.00" fill="#000000">std::vector&lt; std::vector</text>
<text text-anchor="middle" x="1486" y="-354.5" font-family="Helvetica,sans-Serif" font-size="10.00" fill="#000000">&lt; unsigned int &gt; &gt;</text>
</a>
</g>
</g>
<!-- Node22&#45;&gt;Node1 -->
<g id="edge25" class="edge">
<title>Node22&#45;&gt;Node1</title>
<path fill="none" stroke="#9a32cd" stroke-dasharray="5,2" d="M1545.3485,-344.5333C1596.8719,-328.8737 1673.4481,-305.4516 1740,-284.5 1755.2112,-279.7113 1771.7906,-274.3945 1786.6825,-269.583"/>
<polygon fill="#9a32cd" stroke="#9a32cd" points="1544.2592,-341.2061 1535.7082,-347.4615 1546.2937,-347.904 1544.2592,-341.2061"/>
<text text-anchor="middle" x="1669" y="-340.5" font-family="Helvetica,sans-Serif" font-size="10.00" fill="#000000"> m_TargetPoints</text>
<text text-anchor="middle" x="1669" y="-329.5" font-family="Helvetica,sans-Serif" font-size="10.00" fill="#000000">m_TrialPoints</text>
</g>
<!-- Node23 -->
<g id="node23" class="node">
<title>Node23</title>
<g id="a_node23"><a xlink:title=" ">
<polygon fill="#ffffff" stroke="#bfbfbf" points="1051.5,-347.5 1051.5,-377.5 1175.5,-377.5 1175.5,-347.5 1051.5,-347.5"/>
<text text-anchor="start" x="1059.5" y="-365.5" font-family="Helvetica,sans-Serif" font-size="10.00" fill="#000000">std::vector&lt; unsigned</text>
<text text-anchor="middle" x="1113.5" y="-354.5" font-family="Helvetica,sans-Serif" font-size="10.00" fill="#000000"> int &gt;</text>
</a>
</g>
</g>
<!-- Node23&#45;&gt;Node22 -->
<g id="edge26" class="edge">
<title>Node23&#45;&gt;Node22</title>
<path fill="none" stroke="#9a32cd" stroke-dasharray="5,2" d="M1186.0459,-362.5C1254.002,-362.5 1354.6717,-362.5 1420.3104,-362.5"/>
<polygon fill="#9a32cd" stroke="#9a32cd" points="1185.8482,-359.0001 1175.8481,-362.5 1185.8481,-366.0001 1185.8482,-359.0001"/>
<text text-anchor="middle" x="1293.5" y="-365.5" font-family="Helvetica,sans-Serif" font-size="10.00" fill="#000000"> elements</text>
</g>
<!-- Node24&#45;&gt;Node22 -->
<g id="edge29" class="edge">
<title>Node24&#45;&gt;Node22</title>
<path fill="none" stroke="#ffa500" stroke-dasharray="5,2" d="M845.7645,-393.9867C858.6853,-394.6169 872.301,-395.1763 885,-395.5 1102.4099,-401.0426 1157.4893,-398.0153 1374,-377.5 1389.0385,-376.075 1405.163,-374.1502 1420.3597,-372.1552"/>
<polygon fill="#ffa500" stroke="#ffa500" points="845.7467,-390.4813 835.5819,-393.4692 845.3913,-397.4723 845.7467,-390.4813"/>
<text text-anchor="start" x="1052.5" y="-411.5" font-family="Helvetica,sans-Serif" font-size="10.00" fill="#000000"> &lt; std::vector&lt; unsigned</text>
<text text-anchor="middle" x="1113.5" y="-400.5" font-family="Helvetica,sans-Serif" font-size="10.00" fill="#000000"> int &gt; &gt;</text>
</g>
<!-- Node24&#45;&gt;Node23 -->
<g id="edge27" class="edge">
<title>Node24&#45;&gt;Node23</title>
<path fill="none" stroke="#ffa500" stroke-dasharray="5,2" d="M845.6327,-385.4718C903.6318,-380.4979 992.0729,-372.9134 1051.287,-367.8353"/>
<polygon fill="#ffa500" stroke="#ffa500" points="845.1921,-381.9966 835.5278,-386.3384 845.7903,-388.971 845.1921,-381.9966"/>
<text text-anchor="middle" x="949.5" y="-383.5" font-family="Helvetica,sans-Serif" font-size="10.00" fill="#000000"> &lt; unsigned int &gt;</text>
</g>
<!-- Node25 -->
<g id="node25" class="node">
<title>Node25</title>
<g id="a_node25"><a xlink:href="classitk_1_1simple_1_1Image.html" target="_top" xlink:title="The Image class for SimpleITK.">
<polygon fill="#ffffff" stroke="#000000" points="1433.5,-219 1433.5,-238 1538.5,-238 1538.5,-219 1433.5,-219"/>
<text text-anchor="middle" x="1486" y="-226" font-family="Helvetica,sans-Serif" font-size="10.00" fill="#000000">itk::simple::Image</text>
</a>
</g>
</g>
<!-- Node25&#45;&gt;Node1 -->
<g id="edge30" class="edge">
<title>Node25&#45;&gt;Node1</title>
<path fill="none" stroke="#9a32cd" stroke-dasharray="5,2" d="M1548.8598,-232.1872C1600.2856,-235.3288 1674.8889,-240.1717 1740,-245.5 1745.8202,-245.9763 1751.8426,-246.4966 1757.8952,-247.0391"/>
<polygon fill="#9a32cd" stroke="#9a32cd" points="1548.7656,-228.6752 1538.5718,-231.5626 1548.3413,-235.6623 1548.7656,-228.6752"/>
<text text-anchor="middle" x="1669" y="-248.5" font-family="Helvetica,sans-Serif" font-size="10.00" fill="#000000"> m_GradientImage</text>
</g>
<!-- Node26 -->
<g id="node26" class="node">
<title>Node26</title>
<g id="a_node26"><a xlink:href="classitk_1_1simple_1_1PimpleImageBase.html" target="_top" xlink:title="Private implementation idiom image base class.">
<polygon fill="#ffffff" stroke="#000000" points="1032,-180 1032,-199 1195,-199 1195,-180 1032,-180"/>
<text text-anchor="middle" x="1113.5" y="-187" font-family="Helvetica,sans-Serif" font-size="10.00" fill="#000000">itk::simple::PimpleImageBase</text>
</a>
</g>
</g>
<!-- Node26&#45;&gt;Node25 -->
<g id="edge31" class="edge">
<title>Node26&#45;&gt;Node25</title>
<path fill="none" stroke="#9a32cd" stroke-dasharray="5,2" d="M1205.1989,-199.1007C1276.9757,-206.6156 1374.2497,-216.8 1433.4391,-222.997"/>
<polygon fill="#9a32cd" stroke="#9a32cd" points="1205.5568,-195.6191 1195.2467,-198.0587 1204.8279,-202.5811 1205.5568,-195.6191"/>
<text text-anchor="middle" x="1293.5" y="-218.5" font-family="Helvetica,sans-Serif" font-size="10.00" fill="#000000"> m_PimpleImage</text>
</g>
</g>
</svg>
