<?xml version="1.0" encoding="UTF-8" standalone="no"?>
<!DOCTYPE svg PUBLIC "-//W3C//DTD SVG 1.1//EN"
 "http://www.w3.org/Graphics/SVG/1.1/DTD/svg11.dtd">
<!-- Generated by graphviz version 2.40.1 (20161225.0304)
 -->
<!-- Title: itk::simple::CollidingFrontsImageFilter Pages: 1 -->
<svg width="2412pt" height="522pt"
 viewBox="0.00 0.00 2412.00 522.00" xmlns="http://www.w3.org/2000/svg" xmlns:xlink="http://www.w3.org/1999/xlink">
<g id="graph0" class="graph" transform="scale(1 1) rotate(0) translate(4 518)">
<title>itk::simple::CollidingFrontsImageFilter</title>
<polygon fill="#ffffff" stroke="transparent" points="-4,4 -4,-518 2408,-518 2408,4 -4,4"/>
<!-- Node1 -->
<g id="node1" class="node">
<title>Node1</title>
<g id="a_node1"><a xlink:title="Selects a region of space where two independent fronts run towards each other.">
<polygon fill="#bfbfbf" stroke="#000000" points="1738,-302.5 1738,-332.5 1884,-332.5 1884,-302.5 1738,-302.5"/>
<text text-anchor="start" x="1746" y="-320.5" font-family="Helvetica,sans-Serif" font-size="10.00" fill="#000000">itk::simple::CollidingFronts</text>
<text text-anchor="middle" x="1811" y="-309.5" font-family="Helvetica,sans-Serif" font-size="10.00" fill="#000000">ImageFilter</text>
</a>
</g>
</g>
<!-- Node2 -->
<g id="node2" class="node">
<title>Node2</title>
<g id="a_node2"><a xlink:href="classitk_1_1simple_1_1ImageFilter.html" target="_top" xlink:title="The base interface for SimpleITK filters that take one input image.">
<polygon fill="#ffffff" stroke="#000000" points="1401.5,-181 1401.5,-200 1530.5,-200 1530.5,-181 1401.5,-181"/>
<text text-anchor="middle" x="1466" y="-188" font-family="Helvetica,sans-Serif" font-size="10.00" fill="#000000">itk::simple::ImageFilter</text>
</a>
</g>
</g>
<!-- Node2&#45;&gt;Node1 -->
<g id="edge1" class="edge">
<title>Node2&#45;&gt;Node1</title>
<path fill="none" stroke="#191970" d="M1488.5037,-205.6542C1510.5182,-219.9152 1545.3979,-241.0374 1578,-254.5 1629.8036,-275.8916 1691.0775,-292.1275 1737.7853,-302.7558"/>
<polygon fill="#191970" stroke="#191970" points="1490.1807,-202.5683 1479.9007,-200.0047 1486.3383,-208.4194 1490.1807,-202.5683"/>
</g>
<!-- Node3 -->
<g id="node3" class="node">
<title>Node3</title>
<g id="a_node3"><a xlink:href="classitk_1_1simple_1_1ProcessObject.html" target="_top" xlink:title="Base class for SimpleITK classes based on ProcessObject.">
<polygon fill="#ffffff" stroke="#000000" points="1032,-135 1032,-154 1175,-154 1175,-135 1032,-135"/>
<text text-anchor="middle" x="1103.5" y="-142" font-family="Helvetica,sans-Serif" font-size="10.00" fill="#000000">itk::simple::ProcessObject</text>
</a>
</g>
</g>
<!-- Node3&#45;&gt;Node2 -->
<g id="edge2" class="edge">
<title>Node3&#45;&gt;Node2</title>
<path fill="none" stroke="#191970" d="M1146.9802,-156.6081C1161.5146,-160.2743 1177.866,-163.99 1193,-166.5 1263.7582,-178.2356 1345.8487,-184.4721 1401.3887,-187.6165"/>
<polygon fill="#191970" stroke="#191970" points="1147.8032,-153.2059 1137.2456,-154.0933 1146.0523,-159.9834 1147.8032,-153.2059"/>
</g>
<!-- Node10 -->
<g id="node10" class="node">
<title>Node10</title>
<g id="a_node10"><a xlink:title=" ">
<polygon fill="#ffffff" stroke="#bfbfbf" points="1408,-88.5 1408,-118.5 1524,-118.5 1524,-88.5 1408,-88.5"/>
<text text-anchor="start" x="1416" y="-106.5" font-family="Helvetica,sans-Serif" font-size="10.00" fill="#000000">std::set&lt; itk::simple</text>
<text text-anchor="middle" x="1466" y="-95.5" font-family="Helvetica,sans-Serif" font-size="10.00" fill="#000000">::ProcessObject * &gt;</text>
</a>
</g>
</g>
<!-- Node3&#45;&gt;Node10 -->
<g id="edge11" class="edge">
<title>Node3&#45;&gt;Node10</title>
<path fill="none" stroke="#9a32cd" stroke-dasharray="5,2" d="M1159.0079,-133.0631C1170.2269,-131.0038 1181.965,-129.0292 1193,-127.5 1266.7558,-117.2793 1352.3597,-110.5857 1407.7614,-106.9264"/>
<polygon fill="#9a32cd" stroke="#9a32cd" points="1158.0661,-129.6788 1148.8858,-134.9677 1159.3606,-136.5581 1158.0661,-129.6788"/>
<text text-anchor="middle" x="1273.5" y="-130.5" font-family="Helvetica,sans-Serif" font-size="10.00" fill="#000000"> keys</text>
</g>
<!-- Node4 -->
<g id="node4" class="node">
<title>Node4</title>
<g id="a_node4"><a xlink:href="classitk_1_1simple_1_1NonCopyable.html" target="_top" xlink:title="An inheritable class to disable copying of a class.">
<polygon fill="#ffffff" stroke="#000000" points="717,-78 717,-97 857,-97 857,-78 717,-78"/>
<text text-anchor="middle" x="787" y="-85" font-family="Helvetica,sans-Serif" font-size="10.00" fill="#000000">itk::simple::NonCopyable</text>
</a>
</g>
</g>
<!-- Node4&#45;&gt;Node3 -->
<g id="edge3" class="edge">
<title>Node4&#45;&gt;Node3</title>
<path fill="none" stroke="#006400" d="M849.8784,-98.8241C908.6252,-109.4041 995.3386,-125.0207 1050.6162,-134.9759"/>
<polygon fill="#006400" stroke="#006400" points="850.437,-95.3684 839.975,-97.0405 849.1963,-102.2576 850.437,-95.3684"/>
</g>
<!-- Node7 -->
<g id="node7" class="node">
<title>Node7</title>
<g id="a_node7"><a xlink:href="classitk_1_1simple_1_1Command.html" target="_top" xlink:title="An implementation of the Command design pattern for callback.">
<polygon fill="#ffffff" stroke="#000000" points="1748.5,-70 1748.5,-89 1873.5,-89 1873.5,-70 1748.5,-70"/>
<text text-anchor="middle" x="1811" y="-77" font-family="Helvetica,sans-Serif" font-size="10.00" fill="#000000">itk::simple::Command</text>
</a>
</g>
</g>
<!-- Node4&#45;&gt;Node7 -->
<g id="edge7" class="edge">
<title>Node4&#45;&gt;Node7</title>
<path fill="none" stroke="#006400" d="M867.4963,-83.7985C915.2897,-81.7865 977.0887,-79.5082 1032,-78.5 1298.3841,-73.6089 1616.0934,-76.8377 1748.3882,-78.5857"/>
<polygon fill="#006400" stroke="#006400" points="867.0523,-80.3141 857.2102,-84.2364 867.3501,-87.3078 867.0523,-80.3141"/>
</g>
<!-- Node5 -->
<g id="node5" class="node">
<title>Node5</title>
<g id="a_node5"><a xlink:title=" ">
<polygon fill="#ffffff" stroke="#bfbfbf" points="2217,-137.5 2217,-167.5 2404,-167.5 2404,-137.5 2217,-137.5"/>
<text text-anchor="start" x="2225" y="-155.5" font-family="Helvetica,sans-Serif" font-size="10.00" fill="#000000">std::list&lt; itk::simple</text>
<text text-anchor="middle" x="2310.5" y="-144.5" font-family="Helvetica,sans-Serif" font-size="10.00" fill="#000000">::ProcessObject::EventCommand &gt;</text>
</a>
</g>
</g>
<!-- Node5&#45;&gt;Node3 -->
<g id="edge4" class="edge">
<title>Node5&#45;&gt;Node3</title>
<path fill="none" stroke="#9a32cd" stroke-dasharray="5,2" d="M2206.6648,-152.5C2161.7233,-152.5 2108.5177,-152.5 2060.5,-152.5 1466,-152.5 1466,-152.5 1466,-152.5 1364.9663,-152.5 1248.1314,-149.3554 1175.0219,-147.0093"/>
<polygon fill="#9a32cd" stroke="#9a32cd" points="2206.714,-156.0001 2216.714,-152.5 2206.714,-149.0001 2206.714,-156.0001"/>
<text text-anchor="middle" x="1811" y="-155.5" font-family="Helvetica,sans-Serif" font-size="10.00" fill="#000000"> m_Commands</text>
</g>
<!-- Node6 -->
<g id="node6" class="node">
<title>Node6</title>
<g id="a_node6"><a xlink:href="structitk_1_1simple_1_1ProcessObject_1_1EventCommand.html" target="_top" xlink:title=" ">
<polygon fill="#ffffff" stroke="#000000" points="1989,-92.5 1989,-122.5 2132,-122.5 2132,-92.5 1989,-92.5"/>
<text text-anchor="start" x="1997" y="-110.5" font-family="Helvetica,sans-Serif" font-size="10.00" fill="#000000">itk::simple::ProcessObject</text>
<text text-anchor="middle" x="2060.5" y="-99.5" font-family="Helvetica,sans-Serif" font-size="10.00" fill="#000000">::EventCommand</text>
</a>
</g>
</g>
<!-- Node6&#45;&gt;Node5 -->
<g id="edge5" class="edge">
<title>Node6&#45;&gt;Node5</title>
<path fill="none" stroke="#9a32cd" stroke-dasharray="5,2" d="M2142.1731,-118.2253C2160.8898,-120.9795 2180.6707,-124.1269 2199,-127.5 2214.7061,-130.3903 2231.5597,-133.9349 2247.2861,-137.4365"/>
<polygon fill="#9a32cd" stroke="#9a32cd" points="2142.5981,-114.7504 2132.1994,-116.7795 2141.5938,-121.678 2142.5981,-114.7504"/>
<text text-anchor="middle" x="2174.5" y="-130.5" font-family="Helvetica,sans-Serif" font-size="10.00" fill="#000000"> elements</text>
</g>
<!-- Node7&#45;&gt;Node6 -->
<g id="edge6" class="edge">
<title>Node7&#45;&gt;Node6</title>
<path fill="none" stroke="#9a32cd" stroke-dasharray="5,2" d="M1883.6789,-87.6563C1916.691,-91.3611 1955.6319,-95.7312 1988.5553,-99.426"/>
<polygon fill="#9a32cd" stroke="#9a32cd" points="1883.9653,-84.1666 1873.6373,-86.5294 1883.1846,-91.1229 1883.9653,-84.1666"/>
<text text-anchor="middle" x="1936.5" y="-99.5" font-family="Helvetica,sans-Serif" font-size="10.00" fill="#000000"> m_Command</text>
</g>
<!-- Node8 -->
<g id="node8" class="node">
<title>Node8</title>
<g id="a_node8"><a xlink:title="STL class.">
<polygon fill="#ffffff" stroke="#bfbfbf" points="1433.5,-9 1433.5,-28 1498.5,-28 1498.5,-9 1433.5,-9"/>
<text text-anchor="middle" x="1466" y="-16" font-family="Helvetica,sans-Serif" font-size="10.00" fill="#000000">std::string</text>
</a>
</g>
</g>
<!-- Node8&#45;&gt;Node7 -->
<g id="edge8" class="edge">
<title>Node8&#45;&gt;Node7</title>
<path fill="none" stroke="#9a32cd" stroke-dasharray="5,2" d="M1508.7685,-16.1195C1559.9252,-14.4235 1647.7158,-15.1876 1720,-34.5 1748.6062,-42.1428 1778.8572,-59.1343 1796.2745,-69.9129"/>
<polygon fill="#9a32cd" stroke="#9a32cd" points="1508.5943,-12.6235 1498.7341,-16.4998 1508.8595,-19.6185 1508.5943,-12.6235"/>
<text text-anchor="middle" x="1649" y="-37.5" font-family="Helvetica,sans-Serif" font-size="10.00" fill="#000000"> m_Name</text>
</g>
<!-- Node9 -->
<g id="node9" class="node">
<title>Node9</title>
<g id="a_node9"><a xlink:title="STL class.">
<polygon fill="#ffffff" stroke="#bfbfbf" points="1051.5,-.5 1051.5,-30.5 1155.5,-30.5 1155.5,-.5 1051.5,-.5"/>
<text text-anchor="start" x="1059.5" y="-18.5" font-family="Helvetica,sans-Serif" font-size="10.00" fill="#000000">std::basic_string&lt;</text>
<text text-anchor="middle" x="1103.5" y="-7.5" font-family="Helvetica,sans-Serif" font-size="10.00" fill="#000000"> char &gt;</text>
</a>
</g>
</g>
<!-- Node9&#45;&gt;Node8 -->
<g id="edge9" class="edge">
<title>Node9&#45;&gt;Node8</title>
<path fill="none" stroke="#191970" d="M1165.94,-16.0167C1243.4554,-16.6583 1372.7938,-17.7286 1433.1316,-18.228"/>
<polygon fill="#191970" stroke="#191970" points="1165.8521,-12.516 1155.8235,-15.933 1165.7941,-19.5158 1165.8521,-12.516"/>
</g>
<!-- Node10&#45;&gt;Node7 -->
<g id="edge10" class="edge">
<title>Node10&#45;&gt;Node7</title>
<path fill="none" stroke="#9a32cd" stroke-dasharray="5,2" d="M1534.2527,-98.752C1596.5135,-94.4208 1687.766,-88.0728 1748.2429,-83.8657"/>
<polygon fill="#9a32cd" stroke="#9a32cd" points="1533.8674,-95.2702 1524.1344,-99.4559 1534.3532,-102.2534 1533.8674,-95.2702"/>
<text text-anchor="middle" x="1649" y="-97.5" font-family="Helvetica,sans-Serif" font-size="10.00" fill="#000000"> m_ReferencedObjects</text>
</g>
<!-- Node11 -->
<g id="node11" class="node">
<title>Node11</title>
<g id="a_node11"><a xlink:title="STL class.">
<polygon fill="#ffffff" stroke="#bfbfbf" points="1062.5,-88 1062.5,-107 1144.5,-107 1144.5,-88 1062.5,-88"/>
<text text-anchor="middle" x="1103.5" y="-95" font-family="Helvetica,sans-Serif" font-size="10.00" fill="#000000">std::set&lt; K &gt;</text>
</a>
</g>
</g>
<!-- Node11&#45;&gt;Node10 -->
<g id="edge12" class="edge">
<title>Node11&#45;&gt;Node10</title>
<path fill="none" stroke="#ffa500" stroke-dasharray="5,2" d="M1155.1179,-94.7992C1167.5213,-94.2592 1180.7302,-93.774 1193,-93.5 1264.5377,-91.9022 1282.5154,-90.3151 1354,-93.5 1371.5522,-94.282 1390.6058,-95.7502 1407.9357,-97.3253"/>
<polygon fill="#ffa500" stroke="#ffa500" points="1154.7576,-91.3119 1144.9268,-95.2624 1155.0754,-98.3047 1154.7576,-91.3119"/>
<text text-anchor="middle" x="1273.5" y="-96.5" font-family="Helvetica,sans-Serif" font-size="10.00" fill="#000000"> &lt; itk::simple::ProcessObject * &gt;</text>
</g>
<!-- Node12 -->
<g id="node12" class="node">
<title>Node12</title>
<g id="a_node12"><a xlink:title=" ">
<polygon fill="#ffffff" stroke="#bfbfbf" points="772.5,-24 772.5,-43 801.5,-43 801.5,-24 772.5,-24"/>
<text text-anchor="middle" x="787" y="-31" font-family="Helvetica,sans-Serif" font-size="10.00" fill="#000000">K</text>
</a>
</g>
</g>
<!-- Node12&#45;&gt;Node11 -->
<g id="edge13" class="edge">
<title>Node12&#45;&gt;Node11</title>
<path fill="none" stroke="#9a32cd" stroke-dasharray="5,2" d="M811.9574,-38.5467C866.2999,-49.5354 995.7864,-75.7191 1062.3856,-89.1862"/>
<polygon fill="#9a32cd" stroke="#9a32cd" points="812.3363,-35.0525 801.8409,-36.501 810.9488,-41.9137 812.3363,-35.0525"/>
<text text-anchor="middle" x="949.5" y="-81.5" font-family="Helvetica,sans-Serif" font-size="10.00" fill="#000000"> keys</text>
</g>
<!-- Node13 -->
<g id="node13" class="node">
<title>Node13</title>
<g id="a_node13"><a xlink:title="STL class.">
<polygon fill="#ffffff" stroke="#bfbfbf" points="909,-226 909,-245 990,-245 990,-226 909,-226"/>
<text text-anchor="middle" x="949.5" y="-233" font-family="Helvetica,sans-Serif" font-size="10.00" fill="#000000">std::list&lt; T &gt;</text>
</a>
</g>
</g>
<!-- Node13&#45;&gt;Node5 -->
<g id="edge14" class="edge">
<title>Node13&#45;&gt;Node5</title>
<path fill="none" stroke="#ffa500" stroke-dasharray="5,2" d="M1000.3445,-233.7225C1064.139,-231.6486 1176.9008,-228.5 1273.5,-228.5 1273.5,-228.5 1273.5,-228.5 2060.5,-228.5 2143.5162,-228.5 2235.5956,-189.6639 2281.3592,-167.5152"/>
<polygon fill="#ffa500" stroke="#ffa500" points="1000.036,-230.2306 990.1567,-234.0581 1000.2665,-237.2268 1000.036,-230.2306"/>
<text text-anchor="start" x="1578" y="-242.5" font-family="Helvetica,sans-Serif" font-size="10.00" fill="#000000"> &lt; itk::simple::ProcessObject</text>
<text text-anchor="middle" x="1649" y="-231.5" font-family="Helvetica,sans-Serif" font-size="10.00" fill="#000000">::EventCommand &gt;</text>
</g>
<!-- Node14 -->
<g id="node14" class="node">
<title>Node14</title>
<g id="a_node14"><a xlink:title=" ">
<polygon fill="#ffffff" stroke="#bfbfbf" points="408.5,-286 408.5,-305 437.5,-305 437.5,-286 408.5,-286"/>
<text text-anchor="middle" x="423" y="-293" font-family="Helvetica,sans-Serif" font-size="10.00" fill="#000000">T</text>
</a>
</g>
</g>
<!-- Node14&#45;&gt;Node13 -->
<g id="edge15" class="edge">
<title>Node14&#45;&gt;Node13</title>
<path fill="none" stroke="#9a32cd" stroke-dasharray="5,2" d="M447.8134,-291.6567C468.8616,-288.4601 499.8714,-283.8999 527,-280.5 666.9816,-262.9567 833.6142,-246.5104 908.9518,-239.3132"/>
<polygon fill="#9a32cd" stroke="#9a32cd" points="447.1435,-288.2184 437.7879,-293.1907 448.2022,-295.1379 447.1435,-288.2184"/>
<text text-anchor="middle" x="608" y="-283.5" font-family="Helvetica,sans-Serif" font-size="10.00" fill="#000000"> elements</text>
</g>
<!-- Node21 -->
<g id="node21" class="node">
<title>Node21</title>
<g id="a_node21"><a xlink:title="STL class.">
<polygon fill="#ffffff" stroke="#bfbfbf" points="890.5,-358 890.5,-377 1008.5,-377 1008.5,-358 890.5,-358"/>
<text text-anchor="middle" x="949.5" y="-365" font-family="Helvetica,sans-Serif" font-size="10.00" fill="#000000">std::unique_ptr&lt; T &gt;</text>
</a>
</g>
</g>
<!-- Node14&#45;&gt;Node21 -->
<g id="edge24" class="edge">
<title>Node14&#45;&gt;Node21</title>
<path fill="none" stroke="#9a32cd" stroke-dasharray="5,2" d="M447.8393,-299.1477C468.9032,-302.2253 499.9217,-306.7207 527,-310.5 656.5661,-328.5833 808.6225,-348.8676 890.35,-359.6935"/>
<polygon fill="#9a32cd" stroke="#9a32cd" points="448.2067,-295.6642 437.8052,-297.6788 447.1927,-302.5904 448.2067,-295.6642"/>
<text text-anchor="middle" x="608" y="-334.5" font-family="Helvetica,sans-Serif" font-size="10.00" fill="#000000"> ptr</text>
</g>
<!-- Node24 -->
<g id="node24" class="node">
<title>Node24</title>
<g id="a_node24"><a xlink:title="STL class.">
<polygon fill="#ffffff" stroke="#bfbfbf" points="738.5,-286 738.5,-305 835.5,-305 835.5,-286 738.5,-286"/>
<text text-anchor="middle" x="787" y="-293" font-family="Helvetica,sans-Serif" font-size="10.00" fill="#000000">std::vector&lt; T &gt;</text>
</a>
</g>
</g>
<!-- Node14&#45;&gt;Node24 -->
<g id="edge28" class="edge">
<title>Node14&#45;&gt;Node24</title>
<path fill="none" stroke="#9a32cd" stroke-dasharray="5,2" d="M447.7285,-295.5C507.3227,-295.5 659.751,-295.5 738.4122,-295.5"/>
<polygon fill="#9a32cd" stroke="#9a32cd" points="447.7201,-292.0001 437.7201,-295.5 447.72,-299.0001 447.7201,-292.0001"/>
<text text-anchor="middle" x="608" y="-298.5" font-family="Helvetica,sans-Serif" font-size="10.00" fill="#000000"> elements</text>
</g>
<!-- Node15 -->
<g id="node15" class="node">
<title>Node15</title>
<g id="a_node15"><a xlink:title=" ">
<polygon fill="#ffffff" stroke="#bfbfbf" points="1372,-362 1372,-403 1560,-403 1560,-362 1372,-362"/>
<text text-anchor="start" x="1380" y="-391" font-family="Helvetica,sans-Serif" font-size="10.00" fill="#000000">std::unique_ptr&lt; itk</text>
<text text-anchor="start" x="1380" y="-380" font-family="Helvetica,sans-Serif" font-size="10.00" fill="#000000">::simple::detail::MemberFunction</text>
<text text-anchor="middle" x="1466" y="-369" font-family="Helvetica,sans-Serif" font-size="10.00" fill="#000000">Factory&lt; MemberFunctionType &gt; &gt;</text>
</a>
</g>
</g>
<!-- Node15&#45;&gt;Node1 -->
<g id="edge16" class="edge">
<title>Node15&#45;&gt;Node1</title>
<path fill="none" stroke="#9a32cd" stroke-dasharray="5,2" d="M1570.0292,-369.5429C1616.2106,-363.0171 1671.0717,-354.2015 1720,-343.5 1733.9647,-340.4457 1748.9477,-336.4645 1762.644,-332.5392"/>
<polygon fill="#9a32cd" stroke="#9a32cd" points="1569.4292,-366.0926 1560.0094,-370.9423 1570.3975,-373.0254 1569.4292,-366.0926"/>
<text text-anchor="middle" x="1649" y="-370.5" font-family="Helvetica,sans-Serif" font-size="10.00" fill="#000000"> m_MemberFactory</text>
</g>
<!-- Node16 -->
<g id="node16" class="node">
<title>Node16</title>
<g id="a_node16"><a xlink:href="classitk_1_1simple_1_1detail_1_1MemberFunctionFactory.html" target="_top" xlink:title=" ">
<polygon fill="#ffffff" stroke="#000000" points="1032.5,-434 1032.5,-475 1174.5,-475 1174.5,-434 1032.5,-434"/>
<text text-anchor="start" x="1040.5" y="-463" font-family="Helvetica,sans-Serif" font-size="10.00" fill="#000000">itk::simple::detail</text>
<text text-anchor="start" x="1040.5" y="-452" font-family="Helvetica,sans-Serif" font-size="10.00" fill="#000000">::MemberFunctionFactory</text>
<text text-anchor="middle" x="1103.5" y="-441" font-family="Helvetica,sans-Serif" font-size="10.00" fill="#000000">&lt; MemberFunctionType &gt;</text>
</a>
</g>
</g>
<!-- Node16&#45;&gt;Node15 -->
<g id="edge17" class="edge">
<title>Node16&#45;&gt;Node15</title>
<path fill="none" stroke="#9a32cd" stroke-dasharray="5,2" d="M1184.8262,-438.3469C1240.3079,-427.3271 1313.9602,-412.6983 1371.9652,-401.1773"/>
<polygon fill="#9a32cd" stroke="#9a32cd" points="1183.8123,-434.9799 1174.6858,-440.361 1185.1761,-441.8457 1183.8123,-434.9799"/>
<text text-anchor="middle" x="1273.5" y="-437.5" font-family="Helvetica,sans-Serif" font-size="10.00" fill="#000000"> ptr</text>
</g>
<!-- Node17 -->
<g id="node17" class="node">
<title>Node17</title>
<g id="a_node17"><a xlink:href="classitk_1_1simple_1_1detail_1_1MemberFunctionFactoryBase.html" target="_top" xlink:title=" ">
<polygon fill="#ffffff" stroke="#000000" points="527,-407.5 527,-459.5 689,-459.5 689,-407.5 527,-407.5"/>
<text text-anchor="start" x="535" y="-447.5" font-family="Helvetica,sans-Serif" font-size="10.00" fill="#000000">itk::simple::detail</text>
<text text-anchor="start" x="535" y="-436.5" font-family="Helvetica,sans-Serif" font-size="10.00" fill="#000000">::MemberFunctionFactoryBase</text>
<text text-anchor="start" x="535" y="-425.5" font-family="Helvetica,sans-Serif" font-size="10.00" fill="#000000">&lt; MemberFunctionType, std</text>
<text text-anchor="middle" x="608" y="-414.5" font-family="Helvetica,sans-Serif" font-size="10.00" fill="#000000">::pair&lt; unsigned int, int &gt; &gt;</text>
</a>
</g>
</g>
<!-- Node17&#45;&gt;Node16 -->
<g id="edge18" class="edge">
<title>Node17&#45;&gt;Node16</title>
<path fill="none" stroke="#006400" d="M699.2597,-437.3677C795.3107,-441.4385 944.495,-447.7611 1032.2427,-451.48"/>
<polygon fill="#006400" stroke="#006400" points="699.4062,-433.8709 689.2669,-436.9442 699.1097,-440.8646 699.4062,-433.8709"/>
</g>
<!-- Node18 -->
<g id="node18" class="node">
<title>Node18</title>
<g id="a_node18"><a xlink:href="classitk_1_1simple_1_1detail_1_1MemberFunctionFactoryBase.html" target="_top" xlink:title="A base class for the MemberFunctionFactory.">
<polygon fill="#ffffff" stroke="#000000" points="0,-445.5 0,-475.5 162,-475.5 162,-445.5 0,-445.5"/>
<text text-anchor="start" x="8" y="-463.5" font-family="Helvetica,sans-Serif" font-size="10.00" fill="#000000">itk::simple::detail</text>
<text text-anchor="middle" x="81" y="-452.5" font-family="Helvetica,sans-Serif" font-size="10.00" fill="#000000">::MemberFunctionFactoryBase</text>
</a>
</g>
</g>
<!-- Node18&#45;&gt;Node17 -->
<g id="edge19" class="edge">
<title>Node18&#45;&gt;Node17</title>
<path fill="none" stroke="#ffa500" stroke-dasharray="5,2" d="M131.1897,-442.1715C146.6304,-437.3843 163.8239,-432.8971 180,-430.5 299.6289,-412.7724 440.1355,-418.7977 526.6239,-425.5394"/>
<polygon fill="#ffa500" stroke="#ffa500" points="129.774,-438.9501 121.3244,-445.3417 131.9157,-445.6144 129.774,-438.9501"/>
<text text-anchor="start" x="189" y="-455.5" font-family="Helvetica,sans-Serif" font-size="10.00" fill="#000000"> &lt; MemberFunctionType,</text>
<text text-anchor="start" x="189" y="-444.5" font-family="Helvetica,sans-Serif" font-size="10.00" fill="#000000"> std::pair&lt; unsigned</text>
<text text-anchor="middle" x="249.5" y="-433.5" font-family="Helvetica,sans-Serif" font-size="10.00" fill="#000000"> int, int &gt; &gt;</text>
</g>
<!-- Node20 -->
<g id="node20" class="node">
<title>Node20</title>
<g id="a_node20"><a xlink:href="classitk_1_1simple_1_1detail_1_1MemberFunctionFactoryBase.html" target="_top" xlink:title=" ">
<polygon fill="#ffffff" stroke="#000000" points="337,-461.5 337,-513.5 509,-513.5 509,-461.5 337,-461.5"/>
<text text-anchor="start" x="345" y="-501.5" font-family="Helvetica,sans-Serif" font-size="10.00" fill="#000000">itk::simple::detail</text>
<text text-anchor="start" x="345" y="-490.5" font-family="Helvetica,sans-Serif" font-size="10.00" fill="#000000">::MemberFunctionFactoryBase</text>
<text text-anchor="start" x="345" y="-479.5" font-family="Helvetica,sans-Serif" font-size="10.00" fill="#000000">&lt; TMemberFunctionPointer,</text>
<text text-anchor="middle" x="423" y="-468.5" font-family="Helvetica,sans-Serif" font-size="10.00" fill="#000000"> std::pair&lt; unsigned int, int &gt; &gt;</text>
</a>
</g>
</g>
<!-- Node18&#45;&gt;Node20 -->
<g id="edge22" class="edge">
<title>Node18&#45;&gt;Node20</title>
<path fill="none" stroke="#ffa500" stroke-dasharray="5,2" d="M172.0982,-467.692C223.1995,-471.7263 286.5818,-476.7301 336.856,-480.6992"/>
<polygon fill="#ffa500" stroke="#ffa500" points="172.2937,-464.1966 162.0492,-466.8986 171.7427,-471.1749 172.2937,-464.1966"/>
<text text-anchor="start" x="180" y="-503.5" font-family="Helvetica,sans-Serif" font-size="10.00" fill="#000000"> &lt; TMemberFunctionPointer,</text>
<text text-anchor="start" x="180" y="-492.5" font-family="Helvetica,sans-Serif" font-size="10.00" fill="#000000"> std::pair&lt; unsigned int,</text>
<text text-anchor="middle" x="249.5" y="-481.5" font-family="Helvetica,sans-Serif" font-size="10.00" fill="#000000"> int &gt; &gt;</text>
</g>
<!-- Node19 -->
<g id="node19" class="node">
<title>Node19</title>
<g id="a_node19"><a xlink:href="classitk_1_1simple_1_1detail_1_1MemberFunctionFactory.html" target="_top" xlink:title="A class used to instantiate and generate function object to templated member functions.">
<polygon fill="#ffffff" stroke="#000000" points="707,-466 707,-507 867,-507 867,-466 707,-466"/>
<text text-anchor="start" x="715" y="-495" font-family="Helvetica,sans-Serif" font-size="10.00" fill="#000000">itk::simple::detail</text>
<text text-anchor="start" x="715" y="-484" font-family="Helvetica,sans-Serif" font-size="10.00" fill="#000000">::MemberFunctionFactory</text>
<text text-anchor="middle" x="787" y="-473" font-family="Helvetica,sans-Serif" font-size="10.00" fill="#000000">&lt; TMemberFunctionPointer &gt;</text>
</a>
</g>
</g>
<!-- Node19&#45;&gt;Node16 -->
<g id="edge20" class="edge">
<title>Node19&#45;&gt;Node16</title>
<path fill="none" stroke="#ffa500" stroke-dasharray="5,2" d="M877.2905,-477.3711C926.5336,-472.3923 986.6147,-466.3178 1032.4789,-461.6806"/>
<polygon fill="#ffa500" stroke="#ffa500" points="876.8726,-473.8954 867.2755,-478.3837 877.5768,-480.8599 876.8726,-473.8954"/>
<text text-anchor="middle" x="949.5" y="-478.5" font-family="Helvetica,sans-Serif" font-size="10.00" fill="#000000"> &lt; MemberFunctionType &gt;</text>
</g>
<!-- Node20&#45;&gt;Node19 -->
<g id="edge21" class="edge">
<title>Node20&#45;&gt;Node19</title>
<path fill="none" stroke="#006400" d="M519.623,-487.2346C578.0927,-487.0739 651.7628,-486.8715 706.9603,-486.7199"/>
<polygon fill="#006400" stroke="#006400" points="519.2532,-483.7355 509.2629,-487.263 519.2725,-490.7354 519.2532,-483.7355"/>
</g>
<!-- Node21&#45;&gt;Node15 -->
<g id="edge23" class="edge">
<title>Node21&#45;&gt;Node15</title>
<path fill="none" stroke="#ffa500" stroke-dasharray="5,2" d="M1018.9529,-369.517C1109.9253,-372.159 1269.8003,-376.802 1371.6696,-379.7605"/>
<polygon fill="#ffa500" stroke="#ffa500" points="1018.8465,-366.0126 1008.7491,-369.2207 1018.6433,-373.0096 1018.8465,-366.0126"/>
<text text-anchor="start" x="1035" y="-398.5" font-family="Helvetica,sans-Serif" font-size="10.00" fill="#000000"> &lt; itk::simple::detail</text>
<text text-anchor="start" x="1035" y="-387.5" font-family="Helvetica,sans-Serif" font-size="10.00" fill="#000000">::MemberFunctionFactory</text>
<text text-anchor="middle" x="1103.5" y="-376.5" font-family="Helvetica,sans-Serif" font-size="10.00" fill="#000000">&lt; MemberFunctionType &gt; &gt;</text>
</g>
<!-- Node22 -->
<g id="node22" class="node">
<title>Node22</title>
<g id="a_node22"><a xlink:title=" ">
<polygon fill="#ffffff" stroke="#bfbfbf" points="1400.5,-302.5 1400.5,-332.5 1531.5,-332.5 1531.5,-302.5 1400.5,-302.5"/>
<text text-anchor="start" x="1408.5" y="-320.5" font-family="Helvetica,sans-Serif" font-size="10.00" fill="#000000">std::vector&lt; std::vector</text>
<text text-anchor="middle" x="1466" y="-309.5" font-family="Helvetica,sans-Serif" font-size="10.00" fill="#000000">&lt; unsigned int &gt; &gt;</text>
</a>
</g>
</g>
<!-- Node22&#45;&gt;Node1 -->
<g id="edge25" class="edge">
<title>Node22&#45;&gt;Node1</title>
<path fill="none" stroke="#9a32cd" stroke-dasharray="5,2" d="M1541.9569,-317.5C1600.2334,-317.5 1680.1932,-317.5 1737.7767,-317.5"/>
<polygon fill="#9a32cd" stroke="#9a32cd" points="1541.704,-314.0001 1531.7039,-317.5 1541.7039,-321.0001 1541.704,-314.0001"/>
<text text-anchor="middle" x="1649" y="-331.5" font-family="Helvetica,sans-Serif" font-size="10.00" fill="#000000"> m_SeedPoints1</text>
<text text-anchor="middle" x="1649" y="-320.5" font-family="Helvetica,sans-Serif" font-size="10.00" fill="#000000">m_SeedPoints2</text>
</g>
<!-- Node23 -->
<g id="node23" class="node">
<title>Node23</title>
<g id="a_node23"><a xlink:title=" ">
<polygon fill="#ffffff" stroke="#bfbfbf" points="1041.5,-257.5 1041.5,-287.5 1165.5,-287.5 1165.5,-257.5 1041.5,-257.5"/>
<text text-anchor="start" x="1049.5" y="-275.5" font-family="Helvetica,sans-Serif" font-size="10.00" fill="#000000">std::vector&lt; unsigned</text>
<text text-anchor="middle" x="1103.5" y="-264.5" font-family="Helvetica,sans-Serif" font-size="10.00" fill="#000000"> int &gt;</text>
</a>
</g>
</g>
<!-- Node23&#45;&gt;Node22 -->
<g id="edge26" class="edge">
<title>Node23&#45;&gt;Node22</title>
<path fill="none" stroke="#9a32cd" stroke-dasharray="5,2" d="M1175.7218,-279.2809C1225.8302,-284.2312 1294.0743,-291.4605 1354,-299.5 1369.0297,-301.5163 1385.1507,-303.9482 1400.3467,-306.3631"/>
<polygon fill="#9a32cd" stroke="#9a32cd" points="1175.9263,-275.7843 1165.6322,-278.2907 1175.2425,-282.7508 1175.9263,-275.7843"/>
<text text-anchor="middle" x="1273.5" y="-302.5" font-family="Helvetica,sans-Serif" font-size="10.00" fill="#000000"> elements</text>
</g>
<!-- Node24&#45;&gt;Node22 -->
<g id="edge29" class="edge">
<title>Node24&#45;&gt;Node22</title>
<path fill="none" stroke="#ffa500" stroke-dasharray="5,2" d="M845.7571,-300.1325C858.6784,-301.0296 872.2961,-301.8816 885,-302.5 1071.6993,-311.5878 1292.4325,-315.3778 1400.1795,-316.7786"/>
<polygon fill="#ffa500" stroke="#ffa500" points="845.798,-296.6266 835.5745,-299.407 845.3004,-303.6089 845.798,-296.6266"/>
<text text-anchor="start" x="1042.5" y="-325.5" font-family="Helvetica,sans-Serif" font-size="10.00" fill="#000000"> &lt; std::vector&lt; unsigned</text>
<text text-anchor="middle" x="1103.5" y="-314.5" font-family="Helvetica,sans-Serif" font-size="10.00" fill="#000000"> int &gt; &gt;</text>
</g>
<!-- Node24&#45;&gt;Node23 -->
<g id="edge27" class="edge">
<title>Node24&#45;&gt;Node23</title>
<path fill="none" stroke="#ffa500" stroke-dasharray="5,2" d="M845.8139,-291.226C901.4462,-287.1832 984.6413,-281.1374 1041.3452,-277.0168"/>
<polygon fill="#ffa500" stroke="#ffa500" points="845.4795,-287.741 835.7595,-291.9567 845.9869,-294.7226 845.4795,-287.741"/>
<text text-anchor="middle" x="949.5" y="-290.5" font-family="Helvetica,sans-Serif" font-size="10.00" fill="#000000"> &lt; unsigned int &gt;</text>
</g>
</g>
</svg>
