<?xml version="1.0" encoding="UTF-8" standalone="no"?>
<!DOCTYPE svg PUBLIC "-//W3C//DTD SVG 1.1//EN"
 "http://www.w3.org/Graphics/SVG/1.1/DTD/svg11.dtd">
<!-- Generated by graphviz version 2.40.1 (20161225.0304)
 -->
<!-- Title: itk::simple::LabelMapToRGBImageFilter Pages: 1 -->
<!--zoomable 409 -->
<svg id="main" version="1.1" xmlns="http://www.w3.org/2000/svg" xmlns:xlink="http://www.w3.org/1999/xlink" xml:space="preserve" onload="init(evt)">
<style type="text/css"><![CDATA[
.edge:hover path { stroke: red; }
.edge:hover polygon { stroke: red; fill: red; }
]]></style>
<script type="text/javascript"><![CDATA[
var edges = document.getElementsByTagName('g');
if (edges && edges.length) {
  for (var i=0;i<edges.length;i++) {
    if (edges[i].id.substr(0,4)=='edge') {
      edges[i].setAttribute('class','edge');
    }
  }
}
]]></script>
        <defs>
                <circle id="rim" cx="0" cy="0" r="7"/>
                <circle id="rim2" cx="0" cy="0" r="3.5"/>
                <g id="zoomPlus">
                        <use xlink:href="#rim" fill="#404040">
                                <set attributeName="fill" to="#808080" begin="zoomplus.mouseover" end="zoomplus.mouseout"/>
                        </use>
                        <path d="M-4,0h8M0,-4v8" fill="none" stroke="white" stroke-width="1.5" pointer-events="none"/>
                </g>
                <g id="zoomMin">
                        <use xlink:href="#rim" fill="#404040">
                                <set attributeName="fill" to="#808080" begin="zoomminus.mouseover" end="zoomminus.mouseout"/>
                        </use>
                        <path d="M-4,0h8" fill="none" stroke="white" stroke-width="1.5" pointer-events="none"/>
                </g>
                <g id="dirArrow">
                        <path fill="none" stroke="white" stroke-width="1.5" d="M0,-3.0v7 M-2.5,-0.5L0,-3.0L2.5,-0.5"/>
                </g>
               <g id="resetDef">
                       <use xlink:href="#rim2" fill="#404040">
                               <set attributeName="fill" to="#808080" begin="reset.mouseover" end="reset.mouseout"/>
                       </use>
               </g>
        </defs>

<script type="text/javascript">
var viewWidth = 2087;
var viewHeight = 409;
var sectionId = 'dynsection-1';
</script>
<script xlink:href="svgpan.js"/>
<svg id="graph" class="graph">
<g id="viewport">
<title>itk::simple::LabelMapToRGBImageFilter</title>
<polygon fill="#ffffff" stroke="transparent" points="-4,4 -4,-404.5 2083,-404.5 2083,4 -4,4"/>
<!-- Node1 -->
<g id="node1" class="node">
<title>Node1</title>
<g id="a_node1"><a xlink:title="Convert a LabelMap to a colored image.">
<polygon fill="#bfbfbf" stroke="#000000" points="1896,-90 1896,-120 2079,-120 2079,-90 1896,-90"/>
<text text-anchor="start" x="1904" y="-108" font-family="Helvetica,sans-Serif" font-size="10.00" fill="#000000">itk::simple::LabelMapToRGBImage</text>
<text text-anchor="middle" x="1987.5" y="-97" font-family="Helvetica,sans-Serif" font-size="10.00" fill="#000000">Filter</text>
</a>
</g>
</g>
<!-- Node2 -->
<g id="node2" class="node">
<title>Node2</title>
<g id="a_node2"><a xlink:href="classitk_1_1simple_1_1ImageFilter.html" target="_top" xlink:title="The base interface for SimpleITK filters that take one input image.">
<polygon fill="#ffffff" stroke="#000000" points="768.5,-196.5 768.5,-215.5 897.5,-215.5 897.5,-196.5 768.5,-196.5"/>
<text text-anchor="middle" x="833" y="-203.5" font-family="Helvetica,sans-Serif" font-size="10.00" fill="#000000">itk::simple::ImageFilter</text>
</a>
</g>
</g>
<!-- Node2&#45;&gt;Node1 -->
<g id="edge1" class="edge">
<title>Node2&#45;&gt;Node1</title>
<path fill="none" stroke="#191970" d="M907.8731,-204.619C977.0601,-203.4626 1082.7137,-202 1174.5,-202 1174.5,-202 1174.5,-202 1672,-202 1782.0249,-202 1904.4812,-147.4375 1958.8328,-120.1563"/>
<polygon fill="#191970" stroke="#191970" points="907.4524,-201.1255 897.5132,-204.7944 907.571,-208.1245 907.4524,-201.1255"/>
</g>
<!-- Node3 -->
<g id="node3" class="node">
<title>Node3</title>
<g id="a_node3"><a xlink:href="classitk_1_1simple_1_1ProcessObject.html" target="_top" xlink:title="Base class for SimpleITK classes based on ProcessObject.">
<polygon fill="#ffffff" stroke="#000000" points="212.5,-247.5 212.5,-266.5 355.5,-266.5 355.5,-247.5 212.5,-247.5"/>
<text text-anchor="middle" x="284" y="-254.5" font-family="Helvetica,sans-Serif" font-size="10.00" fill="#000000">itk::simple::ProcessObject</text>
</a>
</g>
</g>
<!-- Node3&#45;&gt;Node2 -->
<g id="edge2" class="edge">
<title>Node3&#45;&gt;Node2</title>
<path fill="none" stroke="#191970" d="M328.7012,-244.9542C345.5967,-240.841 365.0712,-236.6219 383,-234 519.1224,-214.0938 680.4339,-208.323 768.1922,-206.661"/>
<polygon fill="#191970" stroke="#191970" points="327.4069,-241.6698 318.5515,-247.4863 329.1013,-248.4616 327.4069,-241.6698"/>
</g>
<!-- Node10 -->
<g id="node10" class="node">
<title>Node10</title>
<g id="a_node10"><a xlink:title=" ">
<polygon fill="#ffffff" stroke="#bfbfbf" points="590,-282 590,-312 706,-312 706,-282 590,-282"/>
<text text-anchor="start" x="598" y="-300" font-family="Helvetica,sans-Serif" font-size="10.00" fill="#000000">std::set&lt; itk::simple</text>
<text text-anchor="middle" x="648" y="-289" font-family="Helvetica,sans-Serif" font-size="10.00" fill="#000000">::ProcessObject * &gt;</text>
</a>
</g>
</g>
<!-- Node3&#45;&gt;Node10 -->
<g id="edge11" class="edge">
<title>Node3&#45;&gt;Node10</title>
<path fill="none" stroke="#9a32cd" stroke-dasharray="5,2" d="M365.7997,-265.0528C417.0273,-270.2053 484.4,-277.1811 544,-284 558.9145,-285.7064 575.017,-287.663 589.993,-289.5315"/>
<polygon fill="#9a32cd" stroke="#9a32cd" points="366.076,-261.563 355.7766,-264.0471 365.3772,-268.528 366.076,-261.563"/>
<text text-anchor="middle" x="463.5" y="-287" font-family="Helvetica,sans-Serif" font-size="10.00" fill="#000000"> keys</text>
</g>
<!-- Node4 -->
<g id="node4" class="node">
<title>Node4</title>
<g id="a_node4"><a xlink:href="classitk_1_1simple_1_1NonCopyable.html" target="_top" xlink:title="An inheritable class to disable copying of a class.">
<polygon fill="#ffffff" stroke="#000000" points="0,-316.5 0,-335.5 140,-335.5 140,-316.5 0,-316.5"/>
<text text-anchor="middle" x="70" y="-323.5" font-family="Helvetica,sans-Serif" font-size="10.00" fill="#000000">itk::simple::NonCopyable</text>
</a>
</g>
</g>
<!-- Node4&#45;&gt;Node3 -->
<g id="edge3" class="edge">
<title>Node4&#45;&gt;Node3</title>
<path fill="none" stroke="#006400" d="M109.3652,-313.3075C151.3142,-299.7819 216.7694,-278.6771 254.4969,-266.5127"/>
<polygon fill="#006400" stroke="#006400" points="108.1992,-310.0059 99.7558,-316.4058 110.3474,-316.6682 108.1992,-310.0059"/>
</g>
<!-- Node7 -->
<g id="node7" class="node">
<title>Node7</title>
<g id="a_node7"><a xlink:href="classitk_1_1simple_1_1Command.html" target="_top" xlink:title="An implementation of the Command design pattern for callback.">
<polygon fill="#ffffff" stroke="#000000" points="949.5,-318.5 949.5,-337.5 1074.5,-337.5 1074.5,-318.5 949.5,-318.5"/>
<text text-anchor="middle" x="1012" y="-325.5" font-family="Helvetica,sans-Serif" font-size="10.00" fill="#000000">itk::simple::Command</text>
</a>
</g>
</g>
<!-- Node4&#45;&gt;Node7 -->
<g id="edge7" class="edge">
<title>Node4&#45;&gt;Node7</title>
<path fill="none" stroke="#006400" d="M150.1813,-326.1702C334.187,-326.5609 783.6416,-327.5152 949.3264,-327.8669"/>
<polygon fill="#006400" stroke="#006400" points="150.041,-322.67 140.0335,-326.1487 150.026,-329.67 150.041,-322.67"/>
</g>
<!-- Node5 -->
<g id="node5" class="node">
<title>Node5</title>
<g id="a_node5"><a xlink:title=" ">
<polygon fill="#ffffff" stroke="#bfbfbf" points="1578.5,-233 1578.5,-263 1765.5,-263 1765.5,-233 1578.5,-233"/>
<text text-anchor="start" x="1586.5" y="-251" font-family="Helvetica,sans-Serif" font-size="10.00" fill="#000000">std::list&lt; itk::simple</text>
<text text-anchor="middle" x="1672" y="-240" font-family="Helvetica,sans-Serif" font-size="10.00" fill="#000000">::ProcessObject::EventCommand &gt;</text>
</a>
</g>
</g>
<!-- Node5&#45;&gt;Node3 -->
<g id="edge4" class="edge">
<title>Node5&#45;&gt;Node3</title>
<path fill="none" stroke="#9a32cd" stroke-dasharray="5,2" d="M1568.0224,-248C1499.8981,-248 1408.9056,-248 1328.5,-248 648,-248 648,-248 648,-248 546.5419,-248 429.2252,-251.5376 355.8152,-254.177"/>
<polygon fill="#9a32cd" stroke="#9a32cd" points="1568.3286,-251.5001 1578.3285,-248 1568.3285,-244.5001 1568.3286,-251.5001"/>
<text text-anchor="middle" x="1012" y="-251" font-family="Helvetica,sans-Serif" font-size="10.00" fill="#000000"> m_Commands</text>
</g>
<!-- Node6 -->
<g id="node6" class="node">
<title>Node6</title>
<g id="a_node6"><a xlink:href="structitk_1_1simple_1_1ProcessObject_1_1EventCommand.html" target="_top" xlink:title=" ">
<polygon fill="#ffffff" stroke="#000000" points="1257,-290 1257,-320 1400,-320 1400,-290 1257,-290"/>
<text text-anchor="start" x="1265" y="-308" font-family="Helvetica,sans-Serif" font-size="10.00" fill="#000000">itk::simple::ProcessObject</text>
<text text-anchor="middle" x="1328.5" y="-297" font-family="Helvetica,sans-Serif" font-size="10.00" fill="#000000">::EventCommand</text>
</a>
</g>
</g>
<!-- Node6&#45;&gt;Node5 -->
<g id="edge5" class="edge">
<title>Node6&#45;&gt;Node5</title>
<path fill="none" stroke="#9a32cd" stroke-dasharray="5,2" d="M1410.1891,-291.4446C1461.7289,-282.8921 1528.3575,-271.8359 1581.5003,-263.0174"/>
<polygon fill="#9a32cd" stroke="#9a32cd" points="1409.3829,-288.0304 1400.0907,-293.1203 1410.5288,-294.936 1409.3829,-288.0304"/>
<text text-anchor="middle" x="1489" y="-293" font-family="Helvetica,sans-Serif" font-size="10.00" fill="#000000"> elements</text>
</g>
<!-- Node7&#45;&gt;Node6 -->
<g id="edge6" class="edge">
<title>Node7&#45;&gt;Node6</title>
<path fill="none" stroke="#9a32cd" stroke-dasharray="5,2" d="M1084.6302,-322.722C1136.3459,-318.9638 1205.5158,-313.9372 1256.9794,-310.1974"/>
<polygon fill="#9a32cd" stroke="#9a32cd" points="1084.2502,-319.2403 1074.5302,-323.4559 1084.7576,-326.2219 1084.2502,-319.2403"/>
<text text-anchor="middle" x="1174.5" y="-324" font-family="Helvetica,sans-Serif" font-size="10.00" fill="#000000"> m_Command</text>
</g>
<!-- Node8 -->
<g id="node8" class="node">
<title>Node8</title>
<g id="a_node8"><a xlink:title="STL class.">
<polygon fill="#ffffff" stroke="#bfbfbf" points="615.5,-372.5 615.5,-391.5 680.5,-391.5 680.5,-372.5 615.5,-372.5"/>
<text text-anchor="middle" x="648" y="-379.5" font-family="Helvetica,sans-Serif" font-size="10.00" fill="#000000">std::string</text>
</a>
</g>
</g>
<!-- Node8&#45;&gt;Node7 -->
<g id="edge8" class="edge">
<title>Node8&#45;&gt;Node7</title>
<path fill="none" stroke="#9a32cd" stroke-dasharray="5,2" d="M690.5871,-379.5511C743.3561,-376.0509 835.8651,-368.3881 914,-354 936.678,-349.824 961.8084,-343.1136 980.9429,-337.5561"/>
<polygon fill="#9a32cd" stroke="#9a32cd" points="690.3332,-376.0601 680.5792,-380.1964 690.7837,-383.0456 690.3332,-376.0601"/>
<text text-anchor="middle" x="833" y="-377" font-family="Helvetica,sans-Serif" font-size="10.00" fill="#000000"> m_Name</text>
</g>
<!-- Node9 -->
<g id="node9" class="node">
<title>Node9</title>
<g id="a_node9"><a xlink:title="STL class.">
<polygon fill="#ffffff" stroke="#bfbfbf" points="232,-370 232,-400 336,-400 336,-370 232,-370"/>
<text text-anchor="start" x="240" y="-388" font-family="Helvetica,sans-Serif" font-size="10.00" fill="#000000">std::basic_string&lt;</text>
<text text-anchor="middle" x="284" y="-377" font-family="Helvetica,sans-Serif" font-size="10.00" fill="#000000"> char &gt;</text>
</a>
</g>
</g>
<!-- Node9&#45;&gt;Node8 -->
<g id="edge9" class="edge">
<title>Node9&#45;&gt;Node8</title>
<path fill="none" stroke="#191970" d="M346.325,-384.4863C424.2948,-383.8437 554.9016,-382.7673 615.4072,-382.2686"/>
<polygon fill="#191970" stroke="#191970" points="346.1231,-380.9878 336.1523,-384.5702 346.1809,-387.9875 346.1231,-380.9878"/>
</g>
<!-- Node10&#45;&gt;Node7 -->
<g id="edge10" class="edge">
<title>Node10&#45;&gt;Node7</title>
<path fill="none" stroke="#9a32cd" stroke-dasharray="5,2" d="M716.2898,-300.9254C770.0688,-304.2466 846.8969,-309.4993 914,-316 925.4309,-317.1074 937.5912,-318.4571 949.316,-319.8464"/>
<polygon fill="#9a32cd" stroke="#9a32cd" points="716.3829,-297.4246 706.1878,-300.3075 715.9555,-304.4116 716.3829,-297.4246"/>
<text text-anchor="middle" x="833" y="-319" font-family="Helvetica,sans-Serif" font-size="10.00" fill="#000000"> m_ReferencedObjects</text>
</g>
<!-- Node11 -->
<g id="node11" class="node">
<title>Node11</title>
<g id="a_node11"><a xlink:title="STL class.">
<polygon fill="#ffffff" stroke="#bfbfbf" points="243,-293.5 243,-312.5 325,-312.5 325,-293.5 243,-293.5"/>
<text text-anchor="middle" x="284" y="-300.5" font-family="Helvetica,sans-Serif" font-size="10.00" fill="#000000">std::set&lt; K &gt;</text>
</a>
</g>
</g>
<!-- Node11&#45;&gt;Node10 -->
<g id="edge12" class="edge">
<title>Node11&#45;&gt;Node10</title>
<path fill="none" stroke="#ffa500" stroke-dasharray="5,2" d="M335.3639,-302.1533C402.4082,-301.0482 519.4541,-299.1189 589.7379,-297.9604"/>
<polygon fill="#ffa500" stroke="#ffa500" points="334.9888,-298.659 325.0479,-302.3234 335.1042,-305.658 334.9888,-298.659"/>
<text text-anchor="middle" x="463.5" y="-305" font-family="Helvetica,sans-Serif" font-size="10.00" fill="#000000"> &lt; itk::simple::ProcessObject * &gt;</text>
</g>
<!-- Node12 -->
<g id="node12" class="node">
<title>Node12</title>
<g id="a_node12"><a xlink:title=" ">
<polygon fill="#ffffff" stroke="#bfbfbf" points="55.5,-364.5 55.5,-383.5 84.5,-383.5 84.5,-364.5 55.5,-364.5"/>
<text text-anchor="middle" x="70" y="-371.5" font-family="Helvetica,sans-Serif" font-size="10.00" fill="#000000">K</text>
</a>
</g>
</g>
<!-- Node12&#45;&gt;Node11 -->
<g id="edge13" class="edge">
<title>Node12&#45;&gt;Node11</title>
<path fill="none" stroke="#9a32cd" stroke-dasharray="5,2" d="M94.3936,-365.9068C134.1961,-352.7013 212.9142,-326.5845 255.3264,-312.5132"/>
<polygon fill="#9a32cd" stroke="#9a32cd" points="93.0982,-362.6489 84.7091,-369.1199 95.3025,-369.2928 93.0982,-362.6489"/>
<text text-anchor="middle" x="171.5" y="-346" font-family="Helvetica,sans-Serif" font-size="10.00" fill="#000000"> keys</text>
</g>
<!-- Node13 -->
<g id="node13" class="node">
<title>Node13</title>
<g id="a_node13"><a xlink:title="STL class.">
<polygon fill="#ffffff" stroke="#bfbfbf" points="1288,-76.5 1288,-95.5 1369,-95.5 1369,-76.5 1288,-76.5"/>
<text text-anchor="middle" x="1328.5" y="-83.5" font-family="Helvetica,sans-Serif" font-size="10.00" fill="#000000">std::list&lt; T &gt;</text>
</a>
</g>
</g>
<!-- Node13&#45;&gt;Node5 -->
<g id="edge14" class="edge">
<title>Node13&#45;&gt;Node5</title>
<path fill="none" stroke="#ffa500" stroke-dasharray="5,2" d="M1378.858,-93.5497C1386.4773,-96.2792 1393.8377,-99.9816 1400,-105 1413.8709,-116.296 1404.9469,-128.7683 1418,-141 1449.3371,-170.3651 1561.6059,-211.1559 1625.9057,-232.9126"/>
<polygon fill="#ffa500" stroke="#ffa500" points="1379.7251,-90.155 1369.1391,-90.5869 1377.6838,-96.8508 1379.7251,-90.155"/>
<text text-anchor="start" x="1418" y="-222" font-family="Helvetica,sans-Serif" font-size="10.00" fill="#000000"> &lt; itk::simple::ProcessObject</text>
<text text-anchor="middle" x="1489" y="-211" font-family="Helvetica,sans-Serif" font-size="10.00" fill="#000000">::EventCommand &gt;</text>
</g>
<!-- Node14 -->
<g id="node14" class="node">
<title>Node14</title>
<g id="a_node14"><a xlink:title=" ">
<polygon fill="#ffffff" stroke="#bfbfbf" points="997.5,-34.5 997.5,-53.5 1026.5,-53.5 1026.5,-34.5 997.5,-34.5"/>
<text text-anchor="middle" x="1012" y="-41.5" font-family="Helvetica,sans-Serif" font-size="10.00" fill="#000000">T</text>
</a>
</g>
</g>
<!-- Node14&#45;&gt;Node13 -->
<g id="edge15" class="edge">
<title>Node14&#45;&gt;Node13</title>
<path fill="none" stroke="#9a32cd" stroke-dasharray="5,2" d="M1036.987,-47.3158C1091.5003,-54.5498 1221.5295,-71.8049 1287.9476,-80.6186"/>
<polygon fill="#9a32cd" stroke="#9a32cd" points="1037.2145,-43.8154 1026.8409,-45.9694 1036.2936,-50.7546 1037.2145,-43.8154"/>
<text text-anchor="middle" x="1174.5" y="-77" font-family="Helvetica,sans-Serif" font-size="10.00" fill="#000000"> elements</text>
</g>
<!-- Node16 -->
<g id="node16" class="node">
<title>Node16</title>
<g id="a_node16"><a xlink:title="STL class.">
<polygon fill="#ffffff" stroke="#bfbfbf" points="1280,-.5 1280,-19.5 1377,-19.5 1377,-.5 1280,-.5"/>
<text text-anchor="middle" x="1328.5" y="-7.5" font-family="Helvetica,sans-Serif" font-size="10.00" fill="#000000">std::vector&lt; T &gt;</text>
</a>
</g>
</g>
<!-- Node14&#45;&gt;Node16 -->
<g id="edge18" class="edge">
<title>Node14&#45;&gt;Node16</title>
<path fill="none" stroke="#9a32cd" stroke-dasharray="5,2" d="M1036.5828,-39.783C1056.3669,-36.499 1084.9102,-32.0078 1110,-29 1168.222,-22.0204 1235.4659,-16.5624 1279.8079,-13.3212"/>
<polygon fill="#9a32cd" stroke="#9a32cd" points="1035.8517,-36.3567 1026.5703,-41.4661 1037.0122,-43.2598 1035.8517,-36.3567"/>
<text text-anchor="middle" x="1174.5" y="-32" font-family="Helvetica,sans-Serif" font-size="10.00" fill="#000000"> elements</text>
</g>
<!-- Node23 -->
<g id="node23" class="node">
<title>Node23</title>
<g id="a_node23"><a xlink:title="STL class.">
<polygon fill="#ffffff" stroke="#bfbfbf" points="1269.5,-38.5 1269.5,-57.5 1387.5,-57.5 1387.5,-38.5 1269.5,-38.5"/>
<text text-anchor="middle" x="1328.5" y="-45.5" font-family="Helvetica,sans-Serif" font-size="10.00" fill="#000000">std::unique_ptr&lt; T &gt;</text>
</a>
</g>
</g>
<!-- Node14&#45;&gt;Node23 -->
<g id="edge27" class="edge">
<title>Node14&#45;&gt;Node23</title>
<path fill="none" stroke="#9a32cd" stroke-dasharray="5,2" d="M1036.6536,-43.8738C1078.3364,-43.7132 1165.3925,-43.6045 1239,-45 1248.7928,-45.1857 1259.186,-45.4616 1269.2911,-45.7722"/>
<polygon fill="#9a32cd" stroke="#9a32cd" points="1036.5928,-40.374 1026.6081,-43.9171 1036.6231,-47.3739 1036.5928,-40.374"/>
<text text-anchor="middle" x="1174.5" y="-48" font-family="Helvetica,sans-Serif" font-size="10.00" fill="#000000"> ptr</text>
</g>
<!-- Node15 -->
<g id="node15" class="node">
<title>Node15</title>
<g id="a_node15"><a xlink:title=" ">
<polygon fill="#ffffff" stroke="#bfbfbf" points="1609.5,-24.5 1609.5,-43.5 1734.5,-43.5 1734.5,-24.5 1609.5,-24.5"/>
<text text-anchor="middle" x="1672" y="-31.5" font-family="Helvetica,sans-Serif" font-size="10.00" fill="#000000">std::vector&lt; uint8_t &gt;</text>
</a>
</g>
</g>
<!-- Node15&#45;&gt;Node1 -->
<g id="edge16" class="edge">
<title>Node15&#45;&gt;Node1</title>
<path fill="none" stroke="#9a32cd" stroke-dasharray="5,2" d="M1724.2367,-45.7553C1778.0585,-57.8674 1862.1413,-76.7893 1920.7525,-89.9792"/>
<polygon fill="#9a32cd" stroke="#9a32cd" points="1724.7468,-42.2827 1714.2224,-43.5017 1723.2099,-49.1119 1724.7468,-42.2827"/>
<text text-anchor="middle" x="1831" y="-84" font-family="Helvetica,sans-Serif" font-size="10.00" fill="#000000"> m_Colormap</text>
</g>
<!-- Node16&#45;&gt;Node15 -->
<g id="edge17" class="edge">
<title>Node16&#45;&gt;Node15</title>
<path fill="none" stroke="#ffa500" stroke-dasharray="5,2" d="M1387.3408,-14.1111C1449.1833,-18.432 1546.0953,-25.2032 1609.3378,-29.6219"/>
<polygon fill="#ffa500" stroke="#ffa500" points="1387.57,-10.6187 1377.3504,-13.4131 1387.0821,-17.6017 1387.57,-10.6187"/>
<text text-anchor="middle" x="1489" y="-29" font-family="Helvetica,sans-Serif" font-size="10.00" fill="#000000"> &lt; uint8_t &gt;</text>
</g>
<!-- Node17 -->
<g id="node17" class="node">
<title>Node17</title>
<g id="a_node17"><a xlink:title=" ">
<polygon fill="#ffffff" stroke="#bfbfbf" points="1578,-84.5 1578,-125.5 1766,-125.5 1766,-84.5 1578,-84.5"/>
<text text-anchor="start" x="1586" y="-113.5" font-family="Helvetica,sans-Serif" font-size="10.00" fill="#000000">std::unique_ptr&lt; itk</text>
<text text-anchor="start" x="1586" y="-102.5" font-family="Helvetica,sans-Serif" font-size="10.00" fill="#000000">::simple::detail::MemberFunction</text>
<text text-anchor="middle" x="1672" y="-91.5" font-family="Helvetica,sans-Serif" font-size="10.00" fill="#000000">Factory&lt; MemberFunctionType &gt; &gt;</text>
</a>
</g>
</g>
<!-- Node17&#45;&gt;Node1 -->
<g id="edge19" class="edge">
<title>Node17&#45;&gt;Node1</title>
<path fill="none" stroke="#9a32cd" stroke-dasharray="5,2" d="M1776.463,-105C1815.0829,-105 1858.5311,-105 1895.9216,-105"/>
<polygon fill="#9a32cd" stroke="#9a32cd" points="1776.2331,-101.5001 1766.233,-105 1776.233,-108.5001 1776.2331,-101.5001"/>
<text text-anchor="middle" x="1831" y="-108" font-family="Helvetica,sans-Serif" font-size="10.00" fill="#000000"> m_MemberFactory</text>
</g>
<!-- Node18 -->
<g id="node18" class="node">
<title>Node18</title>
<g id="a_node18"><a xlink:href="classitk_1_1simple_1_1detail_1_1MemberFunctionFactory.html" target="_top" xlink:title=" ">
<polygon fill="#ffffff" stroke="#000000" points="1257.5,-114.5 1257.5,-155.5 1399.5,-155.5 1399.5,-114.5 1257.5,-114.5"/>
<text text-anchor="start" x="1265.5" y="-143.5" font-family="Helvetica,sans-Serif" font-size="10.00" fill="#000000">itk::simple::detail</text>
<text text-anchor="start" x="1265.5" y="-132.5" font-family="Helvetica,sans-Serif" font-size="10.00" fill="#000000">::MemberFunctionFactory</text>
<text text-anchor="middle" x="1328.5" y="-121.5" font-family="Helvetica,sans-Serif" font-size="10.00" fill="#000000">&lt; MemberFunctionType &gt;</text>
</a>
</g>
</g>
<!-- Node18&#45;&gt;Node17 -->
<g id="edge20" class="edge">
<title>Node18&#45;&gt;Node17</title>
<path fill="none" stroke="#9a32cd" stroke-dasharray="5,2" d="M1409.8718,-127.8933C1460.2577,-123.4928 1525.1552,-117.8249 1577.7698,-113.2297"/>
<polygon fill="#9a32cd" stroke="#9a32cd" points="1409.331,-124.4271 1399.6734,-128.784 1409.9401,-131.4006 1409.331,-124.4271"/>
<text text-anchor="middle" x="1489" y="-130" font-family="Helvetica,sans-Serif" font-size="10.00" fill="#000000"> ptr</text>
</g>
<!-- Node19 -->
<g id="node19" class="node">
<title>Node19</title>
<g id="a_node19"><a xlink:href="classitk_1_1simple_1_1detail_1_1MemberFunctionFactoryBase.html" target="_top" xlink:title=" ">
<polygon fill="#ffffff" stroke="#000000" points="752,-75 752,-127 914,-127 914,-75 752,-75"/>
<text text-anchor="start" x="760" y="-115" font-family="Helvetica,sans-Serif" font-size="10.00" fill="#000000">itk::simple::detail</text>
<text text-anchor="start" x="760" y="-104" font-family="Helvetica,sans-Serif" font-size="10.00" fill="#000000">::MemberFunctionFactoryBase</text>
<text text-anchor="start" x="760" y="-93" font-family="Helvetica,sans-Serif" font-size="10.00" fill="#000000">&lt; MemberFunctionType, std</text>
<text text-anchor="middle" x="833" y="-82" font-family="Helvetica,sans-Serif" font-size="10.00" fill="#000000">::pair&lt; unsigned int, int &gt; &gt;</text>
</a>
</g>
</g>
<!-- Node19&#45;&gt;Node18 -->
<g id="edge21" class="edge">
<title>Node19&#45;&gt;Node18</title>
<path fill="none" stroke="#006400" d="M924.2597,-107.262C1020.3107,-113.8528 1169.495,-124.0895 1257.2427,-130.1105"/>
<polygon fill="#006400" stroke="#006400" points="924.4831,-103.7692 914.2669,-106.5763 924.0038,-110.7528 924.4831,-103.7692"/>
</g>
<!-- Node20 -->
<g id="node20" class="node">
<title>Node20</title>
<g id="a_node20"><a xlink:href="classitk_1_1simple_1_1detail_1_1MemberFunctionFactoryBase.html" target="_top" xlink:title="A base class for the MemberFunctionFactory.">
<polygon fill="#ffffff" stroke="#000000" points="203,-112 203,-142 365,-142 365,-112 203,-112"/>
<text text-anchor="start" x="211" y="-130" font-family="Helvetica,sans-Serif" font-size="10.00" fill="#000000">itk::simple::detail</text>
<text text-anchor="middle" x="284" y="-119" font-family="Helvetica,sans-Serif" font-size="10.00" fill="#000000">::MemberFunctionFactoryBase</text>
</a>
</g>
</g>
<!-- Node20&#45;&gt;Node19 -->
<g id="edge22" class="edge">
<title>Node20&#45;&gt;Node19</title>
<path fill="none" stroke="#ffa500" stroke-dasharray="5,2" d="M335.4875,-108.906C350.6019,-104.4198 367.2939,-100.2531 383,-98 510.7962,-79.6675 661.1117,-86.2526 751.6235,-93.2251"/>
<polygon fill="#ffa500" stroke="#ffa500" points="334.3381,-105.5976 325.8092,-111.8832 336.3963,-112.2882 334.3381,-105.5976"/>
<text text-anchor="start" x="403" y="-123" font-family="Helvetica,sans-Serif" font-size="10.00" fill="#000000"> &lt; MemberFunctionType,</text>
<text text-anchor="start" x="403" y="-112" font-family="Helvetica,sans-Serif" font-size="10.00" fill="#000000"> std::pair&lt; unsigned</text>
<text text-anchor="middle" x="463.5" y="-101" font-family="Helvetica,sans-Serif" font-size="10.00" fill="#000000"> int, int &gt; &gt;</text>
</g>
<!-- Node22 -->
<g id="node22" class="node">
<title>Node22</title>
<g id="a_node22"><a xlink:href="classitk_1_1simple_1_1detail_1_1MemberFunctionFactoryBase.html" target="_top" xlink:title=" ">
<polygon fill="#ffffff" stroke="#000000" points="562,-128 562,-180 734,-180 734,-128 562,-128"/>
<text text-anchor="start" x="570" y="-168" font-family="Helvetica,sans-Serif" font-size="10.00" fill="#000000">itk::simple::detail</text>
<text text-anchor="start" x="570" y="-157" font-family="Helvetica,sans-Serif" font-size="10.00" fill="#000000">::MemberFunctionFactoryBase</text>
<text text-anchor="start" x="570" y="-146" font-family="Helvetica,sans-Serif" font-size="10.00" fill="#000000">&lt; TMemberFunctionPointer,</text>
<text text-anchor="middle" x="648" y="-135" font-family="Helvetica,sans-Serif" font-size="10.00" fill="#000000"> std::pair&lt; unsigned int, int &gt; &gt;</text>
</a>
</g>
</g>
<!-- Node20&#45;&gt;Node22 -->
<g id="edge25" class="edge">
<title>Node20&#45;&gt;Node22</title>
<path fill="none" stroke="#ffa500" stroke-dasharray="5,2" d="M375.3568,-133.7765C432.5494,-138.0188 505.7782,-143.4506 561.9397,-147.6164"/>
<polygon fill="#ffa500" stroke="#ffa500" points="375.4672,-130.2751 365.2356,-133.0257 374.9493,-137.2559 375.4672,-130.2751"/>
<text text-anchor="start" x="394" y="-172" font-family="Helvetica,sans-Serif" font-size="10.00" fill="#000000"> &lt; TMemberFunctionPointer,</text>
<text text-anchor="start" x="394" y="-161" font-family="Helvetica,sans-Serif" font-size="10.00" fill="#000000"> std::pair&lt; unsigned int,</text>
<text text-anchor="middle" x="463.5" y="-150" font-family="Helvetica,sans-Serif" font-size="10.00" fill="#000000"> int &gt; &gt;</text>
</g>
<!-- Node21 -->
<g id="node21" class="node">
<title>Node21</title>
<g id="a_node21"><a xlink:href="classitk_1_1simple_1_1detail_1_1MemberFunctionFactory.html" target="_top" xlink:title="A class used to instantiate and generate function object to templated member functions.">
<polygon fill="#ffffff" stroke="#000000" points="932,-132.5 932,-173.5 1092,-173.5 1092,-132.5 932,-132.5"/>
<text text-anchor="start" x="940" y="-161.5" font-family="Helvetica,sans-Serif" font-size="10.00" fill="#000000">itk::simple::detail</text>
<text text-anchor="start" x="940" y="-150.5" font-family="Helvetica,sans-Serif" font-size="10.00" fill="#000000">::MemberFunctionFactory</text>
<text text-anchor="middle" x="1012" y="-139.5" font-family="Helvetica,sans-Serif" font-size="10.00" fill="#000000">&lt; TMemberFunctionPointer &gt;</text>
</a>
</g>
</g>
<!-- Node21&#45;&gt;Node18 -->
<g id="edge23" class="edge">
<title>Node21&#45;&gt;Node18</title>
<path fill="none" stroke="#ffa500" stroke-dasharray="5,2" d="M1102.2905,-147.865C1151.5336,-145.0644 1211.6147,-141.6475 1257.4789,-139.0391"/>
<polygon fill="#ffa500" stroke="#ffa500" points="1102.0606,-144.3723 1092.2755,-148.4346 1102.4581,-151.361 1102.0606,-144.3723"/>
<text text-anchor="middle" x="1174.5" y="-151" font-family="Helvetica,sans-Serif" font-size="10.00" fill="#000000"> &lt; MemberFunctionType &gt;</text>
</g>
<!-- Node22&#45;&gt;Node21 -->
<g id="edge24" class="edge">
<title>Node22&#45;&gt;Node21</title>
<path fill="none" stroke="#006400" d="M744.623,-153.7346C803.0927,-153.5739 876.7628,-153.3715 931.9603,-153.2199"/>
<polygon fill="#006400" stroke="#006400" points="744.2532,-150.2355 734.2629,-153.763 744.2725,-157.2354 744.2532,-150.2355"/>
</g>
<!-- Node23&#45;&gt;Node17 -->
<g id="edge26" class="edge">
<title>Node23&#45;&gt;Node17</title>
<path fill="none" stroke="#ffa500" stroke-dasharray="5,2" d="M1397.9223,-55.5508C1444.0466,-60.9957 1505.8554,-69.1132 1560,-79 1568.9348,-80.6315 1578.2315,-82.5044 1587.4793,-84.4813"/>
<polygon fill="#ffa500" stroke="#ffa500" points="1398.0748,-52.0449 1387.7364,-54.3616 1397.263,-58.9977 1398.0748,-52.0449"/>
<text text-anchor="start" x="1420.5" y="-104" font-family="Helvetica,sans-Serif" font-size="10.00" fill="#000000"> &lt; itk::simple::detail</text>
<text text-anchor="start" x="1420.5" y="-93" font-family="Helvetica,sans-Serif" font-size="10.00" fill="#000000">::MemberFunctionFactory</text>
<text text-anchor="middle" x="1489" y="-82" font-family="Helvetica,sans-Serif" font-size="10.00" fill="#000000">&lt; MemberFunctionType &gt; &gt;</text>
</g>
</g>
</svg>
        <g id="navigator" transform="translate(0 0)" fill="#404254">
                <rect fill="#f2f5e9" fill-opacity="0.5" stroke="#606060" stroke-width=".5" x="0" y="0" width="60" height="60"/>
                <use id="zoomplus" xlink:href="#zoomPlus" x="17" y="9" onmousedown="handleZoom(evt,'in')"/>
                <use id="zoomminus" xlink:href="#zoomMin" x="42" y="9" onmousedown="handleZoom(evt,'out')"/>
                <use id="reset" xlink:href="#resetDef" x="30" y="36" onmousedown="handleReset()"/>
                <g id="arrowUp" xlink:href="#dirArrow" transform="translate(30 24)" onmousedown="handlePan(0,-1)">
                  <use xlink:href="#rim" fill="#404040">
                        <set attributeName="fill" to="#808080" begin="arrowUp.mouseover" end="arrowUp.mouseout"/>
                  </use>
                  <path fill="none" stroke="white" stroke-width="1.5" d="M0,-3.0v7 M-2.5,-0.5L0,-3.0L2.5,-0.5"/>
                </g>
                <g id="arrowRight" xlink:href="#dirArrow" transform="rotate(90) translate(36 -43)" onmousedown="handlePan(1,0)">
                  <use xlink:href="#rim" fill="#404040">
                        <set attributeName="fill" to="#808080" begin="arrowRight.mouseover" end="arrowRight.mouseout"/>
                  </use>
                  <path fill="none" stroke="white" stroke-width="1.5" d="M0,-3.0v7 M-2.5,-0.5L0,-3.0L2.5,-0.5"/>
                </g>
                <g id="arrowDown" xlink:href="#dirArrow" transform="rotate(180) translate(-30 -48)" onmousedown="handlePan(0,1)">
                  <use xlink:href="#rim" fill="#404040">
                        <set attributeName="fill" to="#808080" begin="arrowDown.mouseover" end="arrowDown.mouseout"/>
                  </use>
                  <path fill="none" stroke="white" stroke-width="1.5" d="M0,-3.0v7 M-2.5,-0.5L0,-3.0L2.5,-0.5"/>
                </g>
                <g id="arrowLeft" xlink:href="#dirArrow" transform="rotate(270) translate(-36 17)" onmousedown="handlePan(-1,0)">
                  <use xlink:href="#rim" fill="#404040">
                        <set attributeName="fill" to="#808080" begin="arrowLeft.mouseover" end="arrowLeft.mouseout"/>
                  </use>
                  <path fill="none" stroke="white" stroke-width="1.5" d="M0,-3.0v7 M-2.5,-0.5L0,-3.0L2.5,-0.5"/>
                </g>
        </g>
        <svg viewBox="0 0 15 15" width="100%" height="30px" preserveAspectRatio="xMaxYMin meet">
         <g id="arrow_out" transform="scale(0.3 0.3)">
          <a xlink:href="classitk_1_1simple_1_1LabelMapToRGBImageFilter__coll__graph_org.svg" target="_base">
           <rect id="button" ry="5" rx="5" y="6" x="6" height="38" width="38"
                fill="#f2f5e9" fill-opacity="0.5" stroke="#606060" stroke-width="1.0"/>
           <path id="arrow"
             d="M 11.500037,31.436501 C 11.940474,20.09759 22.043105,11.32322 32.158766,21.979434 L 37.068811,17.246167 C 37.068811,17.246167 37.088388,32 37.088388,32 L 22.160133,31.978069 C 22.160133,31.978069 26.997745,27.140456 26.997745,27.140456 C 18.528582,18.264221 13.291696,25.230495 11.500037,31.436501 z"
             style="fill:#404040;"/>
          </a>
         </g>
        </svg>
</svg>
