<?xml version="1.0" encoding="UTF-8" standalone="no"?>
<!DOCTYPE svg PUBLIC "-//W3C//DTD SVG 1.1//EN"
 "http://www.w3.org/Graphics/SVG/1.1/DTD/svg11.dtd">
<!-- Generated by graphviz version 2.40.1 (20161225.0304)
 -->
<!-- Title: itk::simple::detail::MemberFunctionFactoryBase Pages: 1 -->
<svg width="1250pt" height="479pt"
 viewBox="0.00 0.00 1250.00 479.00" xmlns="http://www.w3.org/2000/svg" xmlns:xlink="http://www.w3.org/1999/xlink">
<g id="graph0" class="graph" transform="scale(1 1) rotate(0) translate(4 475)">
<title>itk::simple::detail::MemberFunctionFactoryBase</title>
<polygon fill="#ffffff" stroke="transparent" points="-4,4 -4,-475 1246,-475 1246,4 -4,4"/>
<!-- Node1 -->
<g id="node1" class="node">
<title>Node1</title>
<g id="a_node1"><a xlink:title="A base class for the MemberFunctionFactory.">
<polygon fill="#bfbfbf" stroke="#000000" points="0,-228 0,-258 162,-258 162,-228 0,-228"/>
<text text-anchor="start" x="8" y="-246" font-family="Helvetica,sans-Serif" font-size="10.00" fill="#000000">itk::simple::detail</text>
<text text-anchor="middle" x="81" y="-235" font-family="Helvetica,sans-Serif" font-size="10.00" fill="#000000">::MemberFunctionFactoryBase</text>
</a>
</g>
</g>
<!-- Node2 -->
<g id="node2" class="node">
<title>Node2</title>
<g id="a_node2"><a xlink:href="classitk_1_1simple_1_1detail_1_1MemberFunctionFactoryBase.html" target="_top" xlink:title=" ">
<polygon fill="#ffffff" stroke="#000000" points="337,-273 337,-325 509,-325 509,-273 337,-273"/>
<text text-anchor="start" x="345" y="-313" font-family="Helvetica,sans-Serif" font-size="10.00" fill="#000000">itk::simple::detail</text>
<text text-anchor="start" x="345" y="-302" font-family="Helvetica,sans-Serif" font-size="10.00" fill="#000000">::MemberFunctionFactoryBase</text>
<text text-anchor="start" x="345" y="-291" font-family="Helvetica,sans-Serif" font-size="10.00" fill="#000000">&lt; TMemberFunctionPointer,</text>
<text text-anchor="middle" x="423" y="-280" font-family="Helvetica,sans-Serif" font-size="10.00" fill="#000000"> std::pair&lt; unsigned int, int &gt; &gt;</text>
</a>
</g>
</g>
<!-- Node1&#45;&gt;Node2 -->
<g id="edge1" class="edge">
<title>Node1&#45;&gt;Node2</title>
<path fill="none" stroke="#ffa500" stroke-dasharray="5,2" d="M127.8218,-261.6636C144.1007,-267.4565 162.6339,-273.2885 180,-277 231.3665,-287.978 289.9841,-293.4827 336.7768,-296.2407"/>
<polygon fill="#ffa500" stroke="#ffa500" points="128.6016,-258.2224 118.0077,-258.0811 126.2012,-264.798 128.6016,-258.2224"/>
<text text-anchor="start" x="180" y="-319" font-family="Helvetica,sans-Serif" font-size="10.00" fill="#000000"> &lt; TMemberFunctionPointer,</text>
<text text-anchor="start" x="180" y="-308" font-family="Helvetica,sans-Serif" font-size="10.00" fill="#000000"> std::pair&lt; unsigned int,</text>
<text text-anchor="middle" x="249.5" y="-297" font-family="Helvetica,sans-Serif" font-size="10.00" fill="#000000"> int &gt; &gt;</text>
</g>
<!-- Node8 -->
<g id="node8" class="node">
<title>Node8</title>
<g id="a_node8"><a xlink:href="classitk_1_1simple_1_1detail_1_1MemberFunctionFactoryBase.html" target="_top" xlink:title=" ">
<polygon fill="#ffffff" stroke="#000000" points="534,-198 534,-250 696,-250 696,-198 534,-198"/>
<text text-anchor="start" x="542" y="-238" font-family="Helvetica,sans-Serif" font-size="10.00" fill="#000000">itk::simple::detail</text>
<text text-anchor="start" x="542" y="-227" font-family="Helvetica,sans-Serif" font-size="10.00" fill="#000000">::MemberFunctionFactoryBase</text>
<text text-anchor="start" x="542" y="-216" font-family="Helvetica,sans-Serif" font-size="10.00" fill="#000000">&lt; MemberFunction2Type, std</text>
<text text-anchor="middle" x="615" y="-205" font-family="Helvetica,sans-Serif" font-size="10.00" fill="#000000">::pair&lt; unsigned int, int &gt; &gt;</text>
</a>
</g>
</g>
<!-- Node1&#45;&gt;Node8 -->
<g id="edge7" class="edge">
<title>Node1&#45;&gt;Node8</title>
<path fill="none" stroke="#ffa500" stroke-dasharray="5,2" d="M172.3409,-239.75C273.8486,-236.1383 436.251,-230.36 533.5724,-226.8972"/>
<polygon fill="#ffa500" stroke="#ffa500" points="171.9723,-236.2608 162.1031,-240.1143 172.2213,-243.2564 171.9723,-236.2608"/>
<text text-anchor="start" x="186" y="-264" font-family="Helvetica,sans-Serif" font-size="10.00" fill="#000000"> &lt; MemberFunction2Type,</text>
<text text-anchor="start" x="186" y="-253" font-family="Helvetica,sans-Serif" font-size="10.00" fill="#000000"> std::pair&lt; unsigned</text>
<text text-anchor="middle" x="249.5" y="-242" font-family="Helvetica,sans-Serif" font-size="10.00" fill="#000000"> int, int &gt; &gt;</text>
</g>
<!-- Node9 -->
<g id="node9" class="node">
<title>Node9</title>
<g id="a_node9"><a xlink:href="classitk_1_1simple_1_1detail_1_1MemberFunctionFactoryBase.html" target="_top" xlink:title=" ">
<polygon fill="#ffffff" stroke="#000000" points="527,-404 527,-456 703,-456 703,-404 527,-404"/>
<text text-anchor="start" x="535" y="-444" font-family="Helvetica,sans-Serif" font-size="10.00" fill="#000000">itk::simple::detail</text>
<text text-anchor="start" x="535" y="-433" font-family="Helvetica,sans-Serif" font-size="10.00" fill="#000000">::MemberFunctionFactoryBase</text>
<text text-anchor="start" x="535" y="-422" font-family="Helvetica,sans-Serif" font-size="10.00" fill="#000000">&lt; EvaluateMemberFunctionType,</text>
<text text-anchor="middle" x="615" y="-411" font-family="Helvetica,sans-Serif" font-size="10.00" fill="#000000"> std::pair&lt; unsigned int, int &gt; &gt;</text>
</a>
</g>
</g>
<!-- Node1&#45;&gt;Node9 -->
<g id="edge9" class="edge">
<title>Node1&#45;&gt;Node9</title>
<path fill="none" stroke="#ffa500" stroke-dasharray="5,2" d="M89.67,-267.722C103.1223,-301.9812 132.5315,-362.8467 180,-391 286.3024,-454.0473 433.589,-452.6188 526.5729,-443.2604"/>
<polygon fill="#ffa500" stroke="#ffa500" points="92.8102,-266.1301 86.0051,-258.0097 86.261,-268.6014 92.8102,-266.1301"/>
<text text-anchor="start" x="180.5" y="-463" font-family="Helvetica,sans-Serif" font-size="10.00" fill="#000000"> &lt; EvaluateMemberFunction</text>
<text text-anchor="start" x="180.5" y="-452" font-family="Helvetica,sans-Serif" font-size="10.00" fill="#000000">Type, std::pair&lt; unsigned</text>
<text text-anchor="middle" x="249.5" y="-441" font-family="Helvetica,sans-Serif" font-size="10.00" fill="#000000"> int, int &gt; &gt;</text>
</g>
<!-- Node10 -->
<g id="node10" class="node">
<title>Node10</title>
<g id="a_node10"><a xlink:href="classitk_1_1simple_1_1detail_1_1MemberFunctionFactoryBase.html" target="_top" xlink:title=" ">
<polygon fill="#ffffff" stroke="#000000" points="342,-82.5 342,-145.5 504,-145.5 504,-82.5 342,-82.5"/>
<text text-anchor="start" x="350" y="-133.5" font-family="Helvetica,sans-Serif" font-size="10.00" fill="#000000">itk::simple::detail</text>
<text text-anchor="start" x="350" y="-122.5" font-family="Helvetica,sans-Serif" font-size="10.00" fill="#000000">::MemberFunctionFactoryBase</text>
<text text-anchor="start" x="350" y="-111.5" font-family="Helvetica,sans-Serif" font-size="10.00" fill="#000000">&lt; MemberFunctionType, std</text>
<text text-anchor="start" x="350" y="-100.5" font-family="Helvetica,sans-Serif" font-size="10.00" fill="#000000">::tuple&lt; unsigned int, int,</text>
<text text-anchor="middle" x="423" y="-89.5" font-family="Helvetica,sans-Serif" font-size="10.00" fill="#000000"> unsigned int, int &gt; &gt;</text>
</a>
</g>
</g>
<!-- Node1&#45;&gt;Node10 -->
<g id="edge11" class="edge">
<title>Node1&#45;&gt;Node10</title>
<path fill="none" stroke="#ffa500" stroke-dasharray="5,2" d="M92.9506,-218.9401C108.5749,-190.456 138.873,-144.3255 180,-124 229.7764,-99.3998 292.533,-97.4339 341.8008,-101.3401"/>
<polygon fill="#ffa500" stroke="#ffa500" points="89.8129,-217.3863 88.22,-227.8607 95.9972,-220.6658 89.8129,-217.3863"/>
<text text-anchor="start" x="189" y="-160" font-family="Helvetica,sans-Serif" font-size="10.00" fill="#000000"> &lt; MemberFunctionType,</text>
<text text-anchor="start" x="189" y="-149" font-family="Helvetica,sans-Serif" font-size="10.00" fill="#000000"> std::tuple&lt; unsigned</text>
<text text-anchor="start" x="189" y="-138" font-family="Helvetica,sans-Serif" font-size="10.00" fill="#000000"> int, int, unsigned int,</text>
<text text-anchor="middle" x="249.5" y="-127" font-family="Helvetica,sans-Serif" font-size="10.00" fill="#000000"> int &gt; &gt;</text>
</g>
<!-- Node12 -->
<g id="node12" class="node">
<title>Node12</title>
<g id="a_node12"><a xlink:href="classitk_1_1simple_1_1detail_1_1MemberFunctionFactoryBase.html" target="_top" xlink:title=" ">
<polygon fill="#ffffff" stroke="#000000" points="721,-141 721,-193 883,-193 883,-141 721,-141"/>
<text text-anchor="start" x="729" y="-181" font-family="Helvetica,sans-Serif" font-size="10.00" fill="#000000">itk::simple::detail</text>
<text text-anchor="start" x="729" y="-170" font-family="Helvetica,sans-Serif" font-size="10.00" fill="#000000">::MemberFunctionFactoryBase</text>
<text text-anchor="start" x="729" y="-159" font-family="Helvetica,sans-Serif" font-size="10.00" fill="#000000">&lt; MemberFunctionType, std</text>
<text text-anchor="middle" x="802" y="-148" font-family="Helvetica,sans-Serif" font-size="10.00" fill="#000000">::pair&lt; unsigned int, int &gt; &gt;</text>
</a>
</g>
</g>
<!-- Node1&#45;&gt;Node12 -->
<g id="edge13" class="edge">
<title>Node1&#45;&gt;Node12</title>
<path fill="none" stroke="#ffa500" stroke-dasharray="5,2" d="M151.8259,-225.6582C202.9587,-213.8644 273.8346,-199.0001 337,-191 470.7268,-174.063 627.5329,-169.0077 720.6146,-167.5414"/>
<polygon fill="#ffa500" stroke="#ffa500" points="150.8181,-222.299 141.8707,-227.973 152.4036,-229.1171 150.8181,-222.299"/>
<text text-anchor="start" x="362.5" y="-216" font-family="Helvetica,sans-Serif" font-size="10.00" fill="#000000"> &lt; MemberFunctionType,</text>
<text text-anchor="start" x="362.5" y="-205" font-family="Helvetica,sans-Serif" font-size="10.00" fill="#000000"> std::pair&lt; unsigned</text>
<text text-anchor="middle" x="423" y="-194" font-family="Helvetica,sans-Serif" font-size="10.00" fill="#000000"> int, int &gt; &gt;</text>
</g>
<!-- Node13 -->
<g id="node13" class="node">
<title>Node13</title>
<g id="a_node13"><a xlink:href="classitk_1_1simple_1_1detail_1_1MemberFunctionFactoryBase.html" target="_top" xlink:title=" ">
<polygon fill="#ffffff" stroke="#000000" points="342,-.5 342,-63.5 504,-63.5 504,-.5 342,-.5"/>
<text text-anchor="start" x="350" y="-51.5" font-family="Helvetica,sans-Serif" font-size="10.00" fill="#000000">itk::simple::detail</text>
<text text-anchor="start" x="350" y="-40.5" font-family="Helvetica,sans-Serif" font-size="10.00" fill="#000000">::MemberFunctionFactoryBase</text>
<text text-anchor="start" x="350" y="-29.5" font-family="Helvetica,sans-Serif" font-size="10.00" fill="#000000">&lt; TMemberFunctionPointer,</text>
<text text-anchor="start" x="350" y="-18.5" font-family="Helvetica,sans-Serif" font-size="10.00" fill="#000000"> std::tuple&lt; unsigned int,</text>
<text text-anchor="middle" x="423" y="-7.5" font-family="Helvetica,sans-Serif" font-size="10.00" fill="#000000"> int, unsigned int, int &gt; &gt;</text>
</a>
</g>
</g>
<!-- Node1&#45;&gt;Node13 -->
<g id="edge15" class="edge">
<title>Node1&#45;&gt;Node13</title>
<path fill="none" stroke="#ffa500" stroke-dasharray="5,2" d="M86.8156,-218.1246C97.6316,-177.9225 124.9205,-99.4046 180,-62 227.0339,-30.0592 291.2516,-23.3051 341.8588,-24.1383"/>
<polygon fill="#ffa500" stroke="#ffa500" points="83.3955,-217.3717 84.3025,-227.9277 90.1762,-219.1101 83.3955,-217.3717"/>
<text text-anchor="start" x="180" y="-87" font-family="Helvetica,sans-Serif" font-size="10.00" fill="#000000"> &lt; TMemberFunctionPointer,</text>
<text text-anchor="start" x="180" y="-76" font-family="Helvetica,sans-Serif" font-size="10.00" fill="#000000"> std::tuple&lt; unsigned int,</text>
<text text-anchor="middle" x="249.5" y="-65" font-family="Helvetica,sans-Serif" font-size="10.00" fill="#000000"> int, unsigned int, int &gt; &gt;</text>
</g>
<!-- Node15 -->
<g id="node15" class="node">
<title>Node15</title>
<g id="a_node15"><a xlink:href="classitk_1_1simple_1_1detail_1_1MemberFunctionFactoryBase.html" target="_top" xlink:title=" ">
<polygon fill="#ffffff" stroke="#000000" points="534,-336 534,-388 696,-388 696,-336 534,-336"/>
<text text-anchor="start" x="542" y="-376" font-family="Helvetica,sans-Serif" font-size="10.00" fill="#000000">itk::simple::detail</text>
<text text-anchor="start" x="542" y="-365" font-family="Helvetica,sans-Serif" font-size="10.00" fill="#000000">::MemberFunctionFactoryBase</text>
<text text-anchor="start" x="542" y="-354" font-family="Helvetica,sans-Serif" font-size="10.00" fill="#000000">&lt; MemberFunction1Type, std</text>
<text text-anchor="middle" x="615" y="-343" font-family="Helvetica,sans-Serif" font-size="10.00" fill="#000000">::pair&lt; unsigned int, int &gt; &gt;</text>
</a>
</g>
</g>
<!-- Node1&#45;&gt;Node15 -->
<g id="edge18" class="edge">
<title>Node1&#45;&gt;Node15</title>
<path fill="none" stroke="#ffa500" stroke-dasharray="5,2" d="M98.9908,-265.9549C116.9797,-287.0027 146.7008,-316.9647 180,-331 241.7449,-357.0248 426.0567,-361.8815 533.9317,-362.4007"/>
<polygon fill="#ffa500" stroke="#ffa500" points="101.5491,-263.5571 92.4663,-258.1023 96.165,-268.0306 101.5491,-263.5571"/>
<text text-anchor="start" x="186" y="-379" font-family="Helvetica,sans-Serif" font-size="10.00" fill="#000000"> &lt; MemberFunction1Type,</text>
<text text-anchor="start" x="186" y="-368" font-family="Helvetica,sans-Serif" font-size="10.00" fill="#000000"> std::pair&lt; unsigned</text>
<text text-anchor="middle" x="249.5" y="-357" font-family="Helvetica,sans-Serif" font-size="10.00" fill="#000000"> int, int &gt; &gt;</text>
</g>
<!-- Node3 -->
<g id="node3" class="node">
<title>Node3</title>
<g id="a_node3"><a xlink:href="classitk_1_1simple_1_1detail_1_1MemberFunctionFactory.html" target="_top" xlink:title="A class used to instantiate and generate function object to templated member functions.">
<polygon fill="#ffffff" stroke="#000000" points="722,-278.5 722,-319.5 882,-319.5 882,-278.5 722,-278.5"/>
<text text-anchor="start" x="730" y="-307.5" font-family="Helvetica,sans-Serif" font-size="10.00" fill="#000000">itk::simple::detail</text>
<text text-anchor="start" x="730" y="-296.5" font-family="Helvetica,sans-Serif" font-size="10.00" fill="#000000">::MemberFunctionFactory</text>
<text text-anchor="middle" x="802" y="-285.5" font-family="Helvetica,sans-Serif" font-size="10.00" fill="#000000">&lt; TMemberFunctionPointer &gt;</text>
</a>
</g>
</g>
<!-- Node2&#45;&gt;Node3 -->
<g id="edge2" class="edge">
<title>Node2&#45;&gt;Node3</title>
<path fill="none" stroke="#006400" d="M519.2893,-299C581.941,-299 662.6941,-299 721.8428,-299"/>
<polygon fill="#006400" stroke="#006400" points="519.001,-295.5001 509.001,-299 519.0009,-302.5001 519.001,-295.5001"/>
</g>
<!-- Node4 -->
<g id="node4" class="node">
<title>Node4</title>
<g id="a_node4"><a xlink:href="classitk_1_1simple_1_1detail_1_1MemberFunctionFactory.html" target="_top" xlink:title=" ">
<polygon fill="#ffffff" stroke="#000000" points="1075.5,-246.5 1075.5,-287.5 1223.5,-287.5 1223.5,-246.5 1075.5,-246.5"/>
<text text-anchor="start" x="1083.5" y="-275.5" font-family="Helvetica,sans-Serif" font-size="10.00" fill="#000000">itk::simple::detail</text>
<text text-anchor="start" x="1083.5" y="-264.5" font-family="Helvetica,sans-Serif" font-size="10.00" fill="#000000">::MemberFunctionFactory</text>
<text text-anchor="middle" x="1149.5" y="-253.5" font-family="Helvetica,sans-Serif" font-size="10.00" fill="#000000">&lt; MemberFunction2Type &gt;</text>
</a>
</g>
</g>
<!-- Node3&#45;&gt;Node4 -->
<g id="edge3" class="edge">
<title>Node3&#45;&gt;Node4</title>
<path fill="none" stroke="#ffa500" stroke-dasharray="5,2" d="M892.2389,-290.6902C949.1792,-285.4468 1021.8194,-278.7576 1075.3808,-273.8254"/>
<polygon fill="#ffa500" stroke="#ffa500" points="891.7967,-287.216 882.1598,-291.6184 892.4387,-294.1866 891.7967,-287.216"/>
<text text-anchor="middle" x="970" y="-292" font-family="Helvetica,sans-Serif" font-size="10.00" fill="#000000"> &lt; MemberFunction2Type &gt;</text>
</g>
<!-- Node5 -->
<g id="node5" class="node">
<title>Node5</title>
<g id="a_node5"><a xlink:href="classitk_1_1simple_1_1detail_1_1MemberFunctionFactory.html" target="_top" xlink:title=" ">
<polygon fill="#ffffff" stroke="#000000" points="1075.5,-314.5 1075.5,-355.5 1223.5,-355.5 1223.5,-314.5 1075.5,-314.5"/>
<text text-anchor="start" x="1083.5" y="-343.5" font-family="Helvetica,sans-Serif" font-size="10.00" fill="#000000">itk::simple::detail</text>
<text text-anchor="start" x="1083.5" y="-332.5" font-family="Helvetica,sans-Serif" font-size="10.00" fill="#000000">::MemberFunctionFactory</text>
<text text-anchor="middle" x="1149.5" y="-321.5" font-family="Helvetica,sans-Serif" font-size="10.00" fill="#000000">&lt; MemberFunction1Type &gt;</text>
</a>
</g>
</g>
<!-- Node3&#45;&gt;Node5 -->
<g id="edge4" class="edge">
<title>Node3&#45;&gt;Node5</title>
<path fill="none" stroke="#ffa500" stroke-dasharray="5,2" d="M892.2389,-308.3485C949.1792,-314.2473 1021.8194,-321.7727 1075.3808,-327.3215"/>
<polygon fill="#ffa500" stroke="#ffa500" points="892.4673,-304.8535 882.1598,-307.3043 891.7459,-311.8162 892.4673,-304.8535"/>
<text text-anchor="middle" x="970" y="-326" font-family="Helvetica,sans-Serif" font-size="10.00" fill="#000000"> &lt; MemberFunction1Type &gt;</text>
</g>
<!-- Node6 -->
<g id="node6" class="node">
<title>Node6</title>
<g id="a_node6"><a xlink:href="classitk_1_1simple_1_1detail_1_1MemberFunctionFactory.html" target="_top" xlink:title=" ">
<polygon fill="#ffffff" stroke="#000000" points="1057,-398.5 1057,-439.5 1242,-439.5 1242,-398.5 1057,-398.5"/>
<text text-anchor="start" x="1065" y="-427.5" font-family="Helvetica,sans-Serif" font-size="10.00" fill="#000000">itk::simple::detail</text>
<text text-anchor="start" x="1065" y="-416.5" font-family="Helvetica,sans-Serif" font-size="10.00" fill="#000000">::MemberFunctionFactory</text>
<text text-anchor="middle" x="1149.5" y="-405.5" font-family="Helvetica,sans-Serif" font-size="10.00" fill="#000000">&lt; EvaluateMemberFunctionType &gt;</text>
</a>
</g>
</g>
<!-- Node3&#45;&gt;Node6 -->
<g id="edge5" class="edge">
<title>Node3&#45;&gt;Node6</title>
<path fill="none" stroke="#ffa500" stroke-dasharray="5,2" d="M867.6127,-323.097C878.7395,-327.1152 890.1884,-331.2075 901,-335 964.2782,-357.1968 1036.9779,-381.65 1087.3251,-398.42"/>
<polygon fill="#ffa500" stroke="#ffa500" points="868.5359,-319.7089 857.9416,-319.5943 866.1521,-326.2906 868.5359,-319.7089"/>
<text text-anchor="start" x="901" y="-395" font-family="Helvetica,sans-Serif" font-size="10.00" fill="#000000"> &lt; EvaluateMemberFunction</text>
<text text-anchor="middle" x="970" y="-384" font-family="Helvetica,sans-Serif" font-size="10.00" fill="#000000">Type &gt;</text>
</g>
<!-- Node7 -->
<g id="node7" class="node">
<title>Node7</title>
<g id="a_node7"><a xlink:href="classitk_1_1simple_1_1detail_1_1MemberFunctionFactory.html" target="_top" xlink:title=" ">
<polygon fill="#ffffff" stroke="#000000" points="1078.5,-171.5 1078.5,-212.5 1220.5,-212.5 1220.5,-171.5 1078.5,-171.5"/>
<text text-anchor="start" x="1086.5" y="-200.5" font-family="Helvetica,sans-Serif" font-size="10.00" fill="#000000">itk::simple::detail</text>
<text text-anchor="start" x="1086.5" y="-189.5" font-family="Helvetica,sans-Serif" font-size="10.00" fill="#000000">::MemberFunctionFactory</text>
<text text-anchor="middle" x="1149.5" y="-178.5" font-family="Helvetica,sans-Serif" font-size="10.00" fill="#000000">&lt; MemberFunctionType &gt;</text>
</a>
</g>
</g>
<!-- Node3&#45;&gt;Node7 -->
<g id="edge6" class="edge">
<title>Node3&#45;&gt;Node7</title>
<path fill="none" stroke="#ffa500" stroke-dasharray="5,2" d="M864.0158,-274.9237C876.2123,-270.4437 888.9593,-265.9384 901,-262 960.2146,-242.6316 1028.3874,-223.659 1078.333,-210.3625"/>
<polygon fill="#ffa500" stroke="#ffa500" points="862.5346,-271.74 854.3765,-278.4998 864.9695,-278.3029 862.5346,-271.74"/>
<text text-anchor="middle" x="970" y="-265" font-family="Helvetica,sans-Serif" font-size="10.00" fill="#000000"> &lt; MemberFunctionType &gt;</text>
</g>
<!-- Node8&#45;&gt;Node4 -->
<g id="edge8" class="edge">
<title>Node8&#45;&gt;Node4</title>
<path fill="none" stroke="#006400" d="M706.0417,-220.1697C792.2944,-218.0492 925.1998,-218.6956 1039,-236 1054.5616,-238.3663 1071.0417,-242.2243 1086.3915,-246.4279"/>
<polygon fill="#006400" stroke="#006400" points="705.9242,-216.6715 696.0199,-220.4338 706.1087,-223.6691 705.9242,-216.6715"/>
</g>
<!-- Node9&#45;&gt;Node6 -->
<g id="edge10" class="edge">
<title>Node9&#45;&gt;Node6</title>
<path fill="none" stroke="#006400" d="M713.4664,-427.9736C811.4408,-425.9573 960.647,-422.8866 1056.6167,-420.9115"/>
<polygon fill="#006400" stroke="#006400" points="713.1876,-424.4785 703.2618,-428.1836 713.3317,-431.477 713.1876,-424.4785"/>
</g>
<!-- Node11 -->
<g id="node11" class="node">
<title>Node11</title>
<g id="a_node11"><a xlink:href="classitk_1_1simple_1_1detail_1_1DualMemberFunctionFactory.html" target="_top" xlink:title=" ">
<polygon fill="#ffffff" stroke="#000000" points="1069,-69.5 1069,-110.5 1230,-110.5 1230,-69.5 1069,-69.5"/>
<text text-anchor="start" x="1077" y="-98.5" font-family="Helvetica,sans-Serif" font-size="10.00" fill="#000000">itk::simple::detail</text>
<text text-anchor="start" x="1077" y="-87.5" font-family="Helvetica,sans-Serif" font-size="10.00" fill="#000000">::DualMemberFunctionFactory</text>
<text text-anchor="middle" x="1149.5" y="-76.5" font-family="Helvetica,sans-Serif" font-size="10.00" fill="#000000">&lt; MemberFunctionType &gt;</text>
</a>
</g>
</g>
<!-- Node10&#45;&gt;Node11 -->
<g id="edge12" class="edge">
<title>Node10&#45;&gt;Node11</title>
<path fill="none" stroke="#006400" d="M514.3004,-110.9839C657.4658,-106.2544 932.4707,-97.1696 1068.7985,-92.666"/>
<polygon fill="#006400" stroke="#006400" points="514.103,-107.4884 504.2241,-111.3168 514.3342,-114.4846 514.103,-107.4884"/>
</g>
<!-- Node12&#45;&gt;Node7 -->
<g id="edge14" class="edge">
<title>Node12&#45;&gt;Node7</title>
<path fill="none" stroke="#006400" d="M893.2753,-173.5666C951.1249,-177.7284 1024.8569,-183.0329 1078.3602,-186.882"/>
<polygon fill="#006400" stroke="#006400" points="893.2601,-170.0565 883.0347,-172.8298 892.7578,-177.0385 893.2601,-170.0565"/>
</g>
<!-- Node14 -->
<g id="node14" class="node">
<title>Node14</title>
<g id="a_node14"><a xlink:href="classitk_1_1simple_1_1detail_1_1DualMemberFunctionFactory.html" target="_top" xlink:title="A class used to instantiate and generate function objects of templated member functions with two temp...">
<polygon fill="#ffffff" stroke="#000000" points="721.5,-30.5 721.5,-71.5 882.5,-71.5 882.5,-30.5 721.5,-30.5"/>
<text text-anchor="start" x="729.5" y="-59.5" font-family="Helvetica,sans-Serif" font-size="10.00" fill="#000000">itk::simple::detail</text>
<text text-anchor="start" x="729.5" y="-48.5" font-family="Helvetica,sans-Serif" font-size="10.00" fill="#000000">::DualMemberFunctionFactory</text>
<text text-anchor="middle" x="802" y="-37.5" font-family="Helvetica,sans-Serif" font-size="10.00" fill="#000000">&lt; TMemberFunctionPointer &gt;</text>
</a>
</g>
</g>
<!-- Node13&#45;&gt;Node14 -->
<g id="edge16" class="edge">
<title>Node13&#45;&gt;Node14</title>
<path fill="none" stroke="#006400" d="M514.6563,-36.5949C577.7915,-39.76 660.8939,-43.9261 721.4808,-46.9634"/>
<polygon fill="#006400" stroke="#006400" points="514.4677,-33.0811 504.305,-36.076 514.1172,-40.0724 514.4677,-33.0811"/>
</g>
<!-- Node14&#45;&gt;Node11 -->
<g id="edge17" class="edge">
<title>Node14&#45;&gt;Node11</title>
<path fill="none" stroke="#ffa500" stroke-dasharray="5,2" d="M892.611,-61.1693C947.1719,-67.2927 1016.0441,-75.0222 1068.739,-80.9362"/>
<polygon fill="#ffa500" stroke="#ffa500" points="892.9249,-57.6826 882.5969,-60.0454 892.1441,-64.639 892.9249,-57.6826"/>
<text text-anchor="middle" x="970" y="-80" font-family="Helvetica,sans-Serif" font-size="10.00" fill="#000000"> &lt; MemberFunctionType &gt;</text>
</g>
<!-- Node15&#45;&gt;Node5 -->
<g id="edge19" class="edge">
<title>Node15&#45;&gt;Node5</title>
<path fill="none" stroke="#006400" d="M706.3968,-378.1305C792.9024,-390.525 925.9804,-402.1307 1039,-380 1063.3933,-375.2235 1089.1977,-365.0373 1109.7304,-355.5624"/>
<polygon fill="#006400" stroke="#006400" points="706.7467,-374.6444 696.3447,-376.6565 705.7311,-381.5704 706.7467,-374.6444"/>
</g>
</g>
</svg>
