<?xml version="1.0" encoding="UTF-8" standalone="no"?>
<!DOCTYPE svg PUBLIC "-//W3C//DTD SVG 1.1//EN"
 "http://www.w3.org/Graphics/SVG/1.1/DTD/svg11.dtd">
<!-- Generated by graphviz version 2.40.1 (20161225.0304)
 -->
<!-- Title: itk::simple::detail::DualMemberFunctionFactory&lt; TMemberFunctionPointer &gt; Pages: 1 -->
<svg width="1031pt" height="61pt"
 viewBox="0.00 0.00 1031.00 61.00" xmlns="http://www.w3.org/2000/svg" xmlns:xlink="http://www.w3.org/1999/xlink">
<g id="graph0" class="graph" transform="scale(1 1) rotate(0) translate(4 57)">
<title>itk::simple::detail::DualMemberFunctionFactory&lt; TMemberFunctionPointer &gt;</title>
<polygon fill="#ffffff" stroke="transparent" points="-4,4 -4,-57 1027,-57 1027,4 -4,4"/>
<!-- Node1 -->
<g id="node1" class="node">
<title>Node1</title>
<g id="a_node1"><a xlink:title="A class used to instantiate and generate function objects of templated member functions with two temp...">
<polygon fill="#bfbfbf" stroke="#000000" points="536,-6 536,-47 697,-47 697,-6 536,-6"/>
<text text-anchor="start" x="544" y="-35" font-family="Helvetica,sans-Serif" font-size="10.00" fill="#000000">itk::simple::detail</text>
<text text-anchor="start" x="544" y="-24" font-family="Helvetica,sans-Serif" font-size="10.00" fill="#000000">::DualMemberFunctionFactory</text>
<text text-anchor="middle" x="616.5" y="-13" font-family="Helvetica,sans-Serif" font-size="10.00" fill="#000000">&lt; TMemberFunctionPointer &gt;</text>
</a>
</g>
</g>
<!-- Node4 -->
<g id="node4" class="node">
<title>Node4</title>
<g id="a_node4"><a xlink:href="classitk_1_1simple_1_1detail_1_1DualMemberFunctionFactory.html" target="_top" xlink:title=" ">
<polygon fill="#ffffff" stroke="#000000" points="862,-6 862,-47 1023,-47 1023,-6 862,-6"/>
<text text-anchor="start" x="870" y="-35" font-family="Helvetica,sans-Serif" font-size="10.00" fill="#000000">itk::simple::detail</text>
<text text-anchor="start" x="870" y="-24" font-family="Helvetica,sans-Serif" font-size="10.00" fill="#000000">::DualMemberFunctionFactory</text>
<text text-anchor="middle" x="942.5" y="-13" font-family="Helvetica,sans-Serif" font-size="10.00" fill="#000000">&lt; MemberFunctionType &gt;</text>
</a>
</g>
</g>
<!-- Node1&#45;&gt;Node4 -->
<g id="edge3" class="edge">
<title>Node1&#45;&gt;Node4</title>
<path fill="none" stroke="#ffa500" stroke-dasharray="5,2" d="M707.2741,-26.5C755.8274,-26.5 815.098,-26.5 861.9958,-26.5"/>
<polygon fill="#ffa500" stroke="#ffa500" points="707.0843,-23.0001 697.0843,-26.5 707.0843,-30.0001 707.0843,-23.0001"/>
<text text-anchor="middle" x="779.5" y="-29.5" font-family="Helvetica,sans-Serif" font-size="10.00" fill="#000000"> &lt; MemberFunctionType &gt;</text>
</g>
<!-- Node2 -->
<g id="node2" class="node">
<title>Node2</title>
<g id="a_node2"><a xlink:href="classitk_1_1simple_1_1detail_1_1MemberFunctionFactoryBase.html" target="_top" xlink:title=" ">
<polygon fill="#ffffff" stroke="#000000" points="337,-.5 337,-52.5 499,-52.5 499,-.5 337,-.5"/>
<text text-anchor="start" x="345" y="-40.5" font-family="Helvetica,sans-Serif" font-size="10.00" fill="#000000">itk::simple::detail</text>
<text text-anchor="start" x="345" y="-29.5" font-family="Helvetica,sans-Serif" font-size="10.00" fill="#000000">::MemberFunctionFactoryBase</text>
<text text-anchor="start" x="345" y="-18.5" font-family="Helvetica,sans-Serif" font-size="10.00" fill="#000000">&lt; TMemberFunctionPointer,</text>
<text text-anchor="middle" x="418" y="-7.5" font-family="Helvetica,sans-Serif" font-size="10.00" fill="#000000"> std::pair&lt; int, int &gt; &gt;</text>
</a>
</g>
</g>
<!-- Node2&#45;&gt;Node1 -->
<g id="edge1" class="edge">
<title>Node2&#45;&gt;Node1</title>
<path fill="none" stroke="#006400" d="M509.0297,-26.5C517.9391,-26.5 526.9375,-26.5 535.7351,-26.5"/>
<polygon fill="#006400" stroke="#006400" points="509.0239,-23.0001 499.0238,-26.5 509.0238,-30.0001 509.0239,-23.0001"/>
</g>
<!-- Node3 -->
<g id="node3" class="node">
<title>Node3</title>
<g id="a_node3"><a xlink:href="classitk_1_1simple_1_1detail_1_1MemberFunctionFactoryBase.html" target="_top" xlink:title="A base class for the MemberFunctionFactory.">
<polygon fill="#ffffff" stroke="#000000" points="0,-11.5 0,-41.5 162,-41.5 162,-11.5 0,-11.5"/>
<text text-anchor="start" x="8" y="-29.5" font-family="Helvetica,sans-Serif" font-size="10.00" fill="#000000">itk::simple::detail</text>
<text text-anchor="middle" x="81" y="-18.5" font-family="Helvetica,sans-Serif" font-size="10.00" fill="#000000">::MemberFunctionFactoryBase</text>
</a>
</g>
</g>
<!-- Node3&#45;&gt;Node2 -->
<g id="edge2" class="edge">
<title>Node3&#45;&gt;Node2</title>
<path fill="none" stroke="#ffa500" stroke-dasharray="5,2" d="M172.2604,-26.5C223.6738,-26.5 287.3304,-26.5 336.9719,-26.5"/>
<polygon fill="#ffa500" stroke="#ffa500" points="172.1488,-23.0001 162.1487,-26.5 172.1487,-30.0001 172.1488,-23.0001"/>
<text text-anchor="start" x="180" y="-40.5" font-family="Helvetica,sans-Serif" font-size="10.00" fill="#000000"> &lt; TMemberFunctionPointer,</text>
<text text-anchor="middle" x="249.5" y="-29.5" font-family="Helvetica,sans-Serif" font-size="10.00" fill="#000000"> std::pair&lt; int, int &gt; &gt;</text>
</g>
</g>
</svg>
