<?xml version="1.0" encoding="UTF-8" standalone="no"?>
<!DOCTYPE svg PUBLIC "-//W3C//DTD SVG 1.1//EN"
 "http://www.w3.org/Graphics/SVG/1.1/DTD/svg11.dtd">
<!-- Generated by graphviz version 2.40.1 (20161225.0304)
 -->
<!-- Title: itk::simple::ThresholdImageFilter Pages: 1 -->
<svg width="2057pt" height="318pt"
 viewBox="0.00 0.00 2057.00 317.50" xmlns="http://www.w3.org/2000/svg" xmlns:xlink="http://www.w3.org/1999/xlink">
<g id="graph0" class="graph" transform="scale(1 1) rotate(0) translate(4 313.5)">
<title>itk::simple::ThresholdImageFilter</title>
<polygon fill="#ffffff" stroke="transparent" points="-4,4 -4,-313.5 2053,-313.5 2053,4 -4,4"/>
<!-- Node1 -->
<g id="node1" class="node">
<title>Node1</title>
<g id="a_node1"><a xlink:title="Set image values to a user&#45;specified value if they are below, above, or between simple threshold valu...">
<polygon fill="#bfbfbf" stroke="#000000" points="1896,-9 1896,-39 2049,-39 2049,-9 1896,-9"/>
<text text-anchor="start" x="1904" y="-27" font-family="Helvetica,sans-Serif" font-size="10.00" fill="#000000">itk::simple::ThresholdImage</text>
<text text-anchor="middle" x="1972.5" y="-16" font-family="Helvetica,sans-Serif" font-size="10.00" fill="#000000">Filter</text>
</a>
</g>
</g>
<!-- Node2 -->
<g id="node2" class="node">
<title>Node2</title>
<g id="a_node2"><a xlink:href="classitk_1_1simple_1_1ImageFilter.html" target="_top" xlink:title="The base interface for SimpleITK filters that take one input image.">
<polygon fill="#ffffff" stroke="#000000" points="768.5,-.5 768.5,-19.5 897.5,-19.5 897.5,-.5 768.5,-.5"/>
<text text-anchor="middle" x="833" y="-7.5" font-family="Helvetica,sans-Serif" font-size="10.00" fill="#000000">itk::simple::ImageFilter</text>
</a>
</g>
</g>
<!-- Node2&#45;&gt;Node1 -->
<g id="edge1" class="edge">
<title>Node2&#45;&gt;Node1</title>
<path fill="none" stroke="#191970" d="M907.8753,-9.3095C977.0638,-8.7313 1082.7184,-8 1174.5,-8 1174.5,-8 1174.5,-8 1672,-8 1748.2763,-8 1835.2895,-13.2041 1895.9834,-17.6764"/>
<polygon fill="#191970" stroke="#191970" points="907.4851,-5.8126 897.5151,-9.3972 907.5444,-12.8123 907.4851,-5.8126"/>
</g>
<!-- Node3 -->
<g id="node3" class="node">
<title>Node3</title>
<g id="a_node3"><a xlink:href="classitk_1_1simple_1_1ProcessObject.html" target="_top" xlink:title="Base class for SimpleITK classes based on ProcessObject.">
<polygon fill="#ffffff" stroke="#000000" points="212.5,-44.5 212.5,-63.5 355.5,-63.5 355.5,-44.5 212.5,-44.5"/>
<text text-anchor="middle" x="284" y="-51.5" font-family="Helvetica,sans-Serif" font-size="10.00" fill="#000000">itk::simple::ProcessObject</text>
</a>
</g>
</g>
<!-- Node3&#45;&gt;Node2 -->
<g id="edge2" class="edge">
<title>Node3&#45;&gt;Node2</title>
<path fill="none" stroke="#191970" d="M356.3045,-43.1451C365.282,-41.9833 374.3443,-40.8993 383,-40 519.8727,-25.7794 680.9043,-16.9449 768.4134,-12.8035"/>
<polygon fill="#191970" stroke="#191970" points="355.6822,-39.697 346.2306,-44.4842 356.6047,-46.6359 355.6822,-39.697"/>
</g>
<!-- Node10 -->
<g id="node10" class="node">
<title>Node10</title>
<g id="a_node10"><a xlink:title=" ">
<polygon fill="#ffffff" stroke="#bfbfbf" points="590,-121 590,-151 706,-151 706,-121 590,-121"/>
<text text-anchor="start" x="598" y="-139" font-family="Helvetica,sans-Serif" font-size="10.00" fill="#000000">std::set&lt; itk::simple</text>
<text text-anchor="middle" x="648" y="-128" font-family="Helvetica,sans-Serif" font-size="10.00" fill="#000000">::ProcessObject * &gt;</text>
</a>
</g>
</g>
<!-- Node3&#45;&gt;Node10 -->
<g id="edge11" class="edge">
<title>Node3&#45;&gt;Node10</title>
<path fill="none" stroke="#9a32cd" stroke-dasharray="5,2" d="M336.4278,-65.8107C403.7042,-80.9663 520.0454,-107.1751 589.9372,-122.9199"/>
<polygon fill="#9a32cd" stroke="#9a32cd" points="336.9926,-62.3502 326.4678,-63.5669 335.4541,-69.1791 336.9926,-62.3502"/>
<text text-anchor="middle" x="463.5" y="-115" font-family="Helvetica,sans-Serif" font-size="10.00" fill="#000000"> keys</text>
</g>
<!-- Node4 -->
<g id="node4" class="node">
<title>Node4</title>
<g id="a_node4"><a xlink:href="classitk_1_1simple_1_1NonCopyable.html" target="_top" xlink:title="An inheritable class to disable copying of a class.">
<polygon fill="#ffffff" stroke="#000000" points="0,-67.5 0,-86.5 140,-86.5 140,-67.5 0,-67.5"/>
<text text-anchor="middle" x="70" y="-74.5" font-family="Helvetica,sans-Serif" font-size="10.00" fill="#000000">itk::simple::NonCopyable</text>
</a>
</g>
</g>
<!-- Node4&#45;&gt;Node3 -->
<g id="edge3" class="edge">
<title>Node4&#45;&gt;Node3</title>
<path fill="none" stroke="#006400" d="M150.2632,-68.3736C170.635,-66.1841 192.3884,-63.8461 212.304,-61.7056"/>
<polygon fill="#006400" stroke="#006400" points="149.6403,-64.9203 140.0716,-69.4689 150.3884,-71.8802 149.6403,-64.9203"/>
</g>
<!-- Node7 -->
<g id="node7" class="node">
<title>Node7</title>
<g id="a_node7"><a xlink:href="classitk_1_1simple_1_1Command.html" target="_top" xlink:title="An implementation of the Command design pattern for callback.">
<polygon fill="#ffffff" stroke="#000000" points="949.5,-107.5 949.5,-126.5 1074.5,-126.5 1074.5,-107.5 949.5,-107.5"/>
<text text-anchor="middle" x="1012" y="-114.5" font-family="Helvetica,sans-Serif" font-size="10.00" fill="#000000">itk::simple::Command</text>
</a>
</g>
</g>
<!-- Node4&#45;&gt;Node7 -->
<g id="edge7" class="edge">
<title>Node4&#45;&gt;Node7</title>
<path fill="none" stroke="#006400" d="M150.1813,-80.4047C334.187,-88.2181 783.6416,-107.3033 949.3264,-114.3387"/>
<polygon fill="#006400" stroke="#006400" points="150.173,-76.9013 140.0335,-79.9738 149.876,-83.895 150.173,-76.9013"/>
</g>
<!-- Node5 -->
<g id="node5" class="node">
<title>Node5</title>
<g id="a_node5"><a xlink:title=" ">
<polygon fill="#ffffff" stroke="#bfbfbf" points="1578.5,-83 1578.5,-113 1765.5,-113 1765.5,-83 1578.5,-83"/>
<text text-anchor="start" x="1586.5" y="-101" font-family="Helvetica,sans-Serif" font-size="10.00" fill="#000000">std::list&lt; itk::simple</text>
<text text-anchor="middle" x="1672" y="-90" font-family="Helvetica,sans-Serif" font-size="10.00" fill="#000000">::ProcessObject::EventCommand &gt;</text>
</a>
</g>
</g>
<!-- Node5&#45;&gt;Node3 -->
<g id="edge4" class="edge">
<title>Node5&#45;&gt;Node3</title>
<path fill="none" stroke="#9a32cd" stroke-dasharray="5,2" d="M1587.9829,-81.1673C1518.6733,-68.748 1417.6084,-54 1328.5,-54 648,-54 648,-54 648,-54 546.5729,-54 429.2483,-54 355.8282,-54"/>
<polygon fill="#9a32cd" stroke="#9a32cd" points="1587.5089,-84.6384 1597.9732,-82.9808 1588.7591,-77.751 1587.5089,-84.6384"/>
<text text-anchor="middle" x="1012" y="-57" font-family="Helvetica,sans-Serif" font-size="10.00" fill="#000000"> m_Commands</text>
</g>
<!-- Node6 -->
<g id="node6" class="node">
<title>Node6</title>
<g id="a_node6"><a xlink:href="structitk_1_1simple_1_1ProcessObject_1_1EventCommand.html" target="_top" xlink:title=" ">
<polygon fill="#ffffff" stroke="#000000" points="1257,-83 1257,-113 1400,-113 1400,-83 1257,-83"/>
<text text-anchor="start" x="1265" y="-101" font-family="Helvetica,sans-Serif" font-size="10.00" fill="#000000">itk::simple::ProcessObject</text>
<text text-anchor="middle" x="1328.5" y="-90" font-family="Helvetica,sans-Serif" font-size="10.00" fill="#000000">::EventCommand</text>
</a>
</g>
</g>
<!-- Node6&#45;&gt;Node5 -->
<g id="edge5" class="edge">
<title>Node6&#45;&gt;Node5</title>
<path fill="none" stroke="#9a32cd" stroke-dasharray="5,2" d="M1410.3129,-98C1460.8095,-98 1525.7546,-98 1578.3118,-98"/>
<polygon fill="#9a32cd" stroke="#9a32cd" points="1410.0908,-94.5001 1400.0907,-98 1410.0907,-101.5001 1410.0908,-94.5001"/>
<text text-anchor="middle" x="1489" y="-101" font-family="Helvetica,sans-Serif" font-size="10.00" fill="#000000"> elements</text>
</g>
<!-- Node7&#45;&gt;Node6 -->
<g id="edge6" class="edge">
<title>Node7&#45;&gt;Node6</title>
<path fill="none" stroke="#9a32cd" stroke-dasharray="5,2" d="M1084.9684,-111.6549C1093.4073,-111.0762 1101.8913,-110.5122 1110,-110 1158.9111,-106.9103 1214.0109,-103.8874 1256.6427,-101.6485"/>
<polygon fill="#9a32cd" stroke="#9a32cd" points="1084.4591,-108.1817 1074.7254,-112.3656 1084.9437,-115.1649 1084.4591,-108.1817"/>
<text text-anchor="middle" x="1174.5" y="-113" font-family="Helvetica,sans-Serif" font-size="10.00" fill="#000000"> m_Command</text>
</g>
<!-- Node8 -->
<g id="node8" class="node">
<title>Node8</title>
<g id="a_node8"><a xlink:title="STL class.">
<polygon fill="#ffffff" stroke="#bfbfbf" points="615.5,-179.5 615.5,-198.5 680.5,-198.5 680.5,-179.5 615.5,-179.5"/>
<text text-anchor="middle" x="648" y="-186.5" font-family="Helvetica,sans-Serif" font-size="10.00" fill="#000000">std::string</text>
</a>
</g>
</g>
<!-- Node8&#45;&gt;Node7 -->
<g id="edge8" class="edge">
<title>Node8&#45;&gt;Node7</title>
<path fill="none" stroke="#9a32cd" stroke-dasharray="5,2" d="M690.619,-183.8142C743.4202,-176.9995 835.9616,-163.778 914,-146 937.5279,-140.6401 963.7156,-132.7905 983.0969,-126.6093"/>
<polygon fill="#9a32cd" stroke="#9a32cd" points="690.0816,-180.3543 680.6047,-185.0912 690.9671,-187.2981 690.0816,-180.3543"/>
<text text-anchor="middle" x="833" y="-177" font-family="Helvetica,sans-Serif" font-size="10.00" fill="#000000"> m_Name</text>
</g>
<!-- Node9 -->
<g id="node9" class="node">
<title>Node9</title>
<g id="a_node9"><a xlink:title="STL class.">
<polygon fill="#ffffff" stroke="#bfbfbf" points="232,-177 232,-207 336,-207 336,-177 232,-177"/>
<text text-anchor="start" x="240" y="-195" font-family="Helvetica,sans-Serif" font-size="10.00" fill="#000000">std::basic_string&lt;</text>
<text text-anchor="middle" x="284" y="-184" font-family="Helvetica,sans-Serif" font-size="10.00" fill="#000000"> char &gt;</text>
</a>
</g>
</g>
<!-- Node9&#45;&gt;Node8 -->
<g id="edge9" class="edge">
<title>Node9&#45;&gt;Node8</title>
<path fill="none" stroke="#191970" d="M346.325,-191.4863C424.2948,-190.8437 554.9016,-189.7673 615.4072,-189.2686"/>
<polygon fill="#191970" stroke="#191970" points="346.1231,-187.9878 336.1523,-191.5702 346.1809,-194.9875 346.1231,-187.9878"/>
</g>
<!-- Node10&#45;&gt;Node7 -->
<g id="edge10" class="edge">
<title>Node10&#45;&gt;Node7</title>
<path fill="none" stroke="#9a32cd" stroke-dasharray="5,2" d="M716.1019,-132.4452C783.0065,-128.953 884.2464,-123.6685 949.2441,-120.2757"/>
<polygon fill="#9a32cd" stroke="#9a32cd" points="715.8833,-128.9518 706.0794,-132.9684 716.2483,-135.9423 715.8833,-128.9518"/>
<text text-anchor="middle" x="833" y="-134" font-family="Helvetica,sans-Serif" font-size="10.00" fill="#000000"> m_ReferencedObjects</text>
</g>
<!-- Node11 -->
<g id="node11" class="node">
<title>Node11</title>
<g id="a_node11"><a xlink:title="STL class.">
<polygon fill="#ffffff" stroke="#bfbfbf" points="243,-138.5 243,-157.5 325,-157.5 325,-138.5 243,-138.5"/>
<text text-anchor="middle" x="284" y="-145.5" font-family="Helvetica,sans-Serif" font-size="10.00" fill="#000000">std::set&lt; K &gt;</text>
</a>
</g>
</g>
<!-- Node11&#45;&gt;Node10 -->
<g id="edge12" class="edge">
<title>Node11&#45;&gt;Node10</title>
<path fill="none" stroke="#ffa500" stroke-dasharray="5,2" d="M335.3639,-146.3067C402.4082,-144.0964 519.4541,-140.2378 589.7379,-137.9207"/>
<polygon fill="#ffa500" stroke="#ffa500" points="334.9271,-142.8191 325.0479,-146.6468 335.1578,-149.8153 334.9271,-142.8191"/>
<text text-anchor="middle" x="463.5" y="-148" font-family="Helvetica,sans-Serif" font-size="10.00" fill="#000000"> &lt; itk::simple::ProcessObject * &gt;</text>
</g>
<!-- Node12 -->
<g id="node12" class="node">
<title>Node12</title>
<g id="a_node12"><a xlink:title=" ">
<polygon fill="#ffffff" stroke="#bfbfbf" points="55.5,-138.5 55.5,-157.5 84.5,-157.5 84.5,-138.5 55.5,-138.5"/>
<text text-anchor="middle" x="70" y="-145.5" font-family="Helvetica,sans-Serif" font-size="10.00" fill="#000000">K</text>
</a>
</g>
</g>
<!-- Node12&#45;&gt;Node11 -->
<g id="edge13" class="edge">
<title>Node12&#45;&gt;Node11</title>
<path fill="none" stroke="#9a32cd" stroke-dasharray="5,2" d="M94.9038,-148C131.2222,-148 199.1487,-148 242.9345,-148"/>
<polygon fill="#9a32cd" stroke="#9a32cd" points="94.7091,-144.5001 84.7091,-148 94.7091,-151.5001 94.7091,-144.5001"/>
<text text-anchor="middle" x="171.5" y="-151" font-family="Helvetica,sans-Serif" font-size="10.00" fill="#000000"> keys</text>
</g>
<!-- Node13 -->
<g id="node13" class="node">
<title>Node13</title>
<g id="a_node13"><a xlink:title="STL class.">
<polygon fill="#ffffff" stroke="#bfbfbf" points="1288,-132.5 1288,-151.5 1369,-151.5 1369,-132.5 1288,-132.5"/>
<text text-anchor="middle" x="1328.5" y="-139.5" font-family="Helvetica,sans-Serif" font-size="10.00" fill="#000000">std::list&lt; T &gt;</text>
</a>
</g>
</g>
<!-- Node13&#45;&gt;Node5 -->
<g id="edge14" class="edge">
<title>Node13&#45;&gt;Node5</title>
<path fill="none" stroke="#ffa500" stroke-dasharray="5,2" d="M1379.2828,-135.4951C1431.5268,-128.803 1514.1043,-118.2254 1578.2506,-110.0087"/>
<polygon fill="#ffa500" stroke="#ffa500" points="1378.7271,-132.0376 1369.2529,-136.7798 1379.6165,-138.9808 1378.7271,-132.0376"/>
<text text-anchor="start" x="1418" y="-145" font-family="Helvetica,sans-Serif" font-size="10.00" fill="#000000"> &lt; itk::simple::ProcessObject</text>
<text text-anchor="middle" x="1489" y="-134" font-family="Helvetica,sans-Serif" font-size="10.00" fill="#000000">::EventCommand &gt;</text>
</g>
<!-- Node14 -->
<g id="node14" class="node">
<title>Node14</title>
<g id="a_node14"><a xlink:title=" ">
<polygon fill="#ffffff" stroke="#bfbfbf" points="997.5,-164.5 997.5,-183.5 1026.5,-183.5 1026.5,-164.5 997.5,-164.5"/>
<text text-anchor="middle" x="1012" y="-171.5" font-family="Helvetica,sans-Serif" font-size="10.00" fill="#000000">T</text>
</a>
</g>
</g>
<!-- Node14&#45;&gt;Node13 -->
<g id="edge15" class="edge">
<title>Node14&#45;&gt;Node13</title>
<path fill="none" stroke="#9a32cd" stroke-dasharray="5,2" d="M1036.5914,-170.0718C1056.3804,-167.011 1084.9261,-162.8212 1110,-160 1171.842,-153.0417 1243.817,-147.6293 1287.7563,-144.6265"/>
<polygon fill="#9a32cd" stroke="#9a32cd" points="1035.9142,-166.6351 1026.5761,-171.6402 1036.9972,-173.5508 1035.9142,-166.6351"/>
<text text-anchor="middle" x="1174.5" y="-163" font-family="Helvetica,sans-Serif" font-size="10.00" fill="#000000"> elements</text>
</g>
<!-- Node21 -->
<g id="node21" class="node">
<title>Node21</title>
<g id="a_node21"><a xlink:title="STL class.">
<polygon fill="#ffffff" stroke="#bfbfbf" points="1269.5,-170.5 1269.5,-189.5 1387.5,-189.5 1387.5,-170.5 1269.5,-170.5"/>
<text text-anchor="middle" x="1328.5" y="-177.5" font-family="Helvetica,sans-Serif" font-size="10.00" fill="#000000">std::unique_ptr&lt; T &gt;</text>
</a>
</g>
</g>
<!-- Node14&#45;&gt;Node21 -->
<g id="edge24" class="edge">
<title>Node14&#45;&gt;Node21</title>
<path fill="none" stroke="#9a32cd" stroke-dasharray="5,2" d="M1037.0086,-174.4741C1086.7793,-175.4176 1199.4369,-177.5533 1269.214,-178.8761"/>
<polygon fill="#9a32cd" stroke="#9a32cd" points="1036.9055,-170.9716 1026.8409,-174.2813 1036.7728,-177.9704 1036.9055,-170.9716"/>
<text text-anchor="middle" x="1174.5" y="-181" font-family="Helvetica,sans-Serif" font-size="10.00" fill="#000000"> ptr</text>
</g>
<!-- Node15 -->
<g id="node15" class="node">
<title>Node15</title>
<g id="a_node15"><a xlink:title=" ">
<polygon fill="#ffffff" stroke="#bfbfbf" points="1578,-158.5 1578,-199.5 1766,-199.5 1766,-158.5 1578,-158.5"/>
<text text-anchor="start" x="1586" y="-187.5" font-family="Helvetica,sans-Serif" font-size="10.00" fill="#000000">std::unique_ptr&lt; itk</text>
<text text-anchor="start" x="1586" y="-176.5" font-family="Helvetica,sans-Serif" font-size="10.00" fill="#000000">::simple::detail::MemberFunction</text>
<text text-anchor="middle" x="1672" y="-165.5" font-family="Helvetica,sans-Serif" font-size="10.00" fill="#000000">Factory&lt; MemberFunctionType &gt; &gt;</text>
</a>
</g>
</g>
<!-- Node15&#45;&gt;Node1 -->
<g id="edge16" class="edge">
<title>Node15&#45;&gt;Node1</title>
<path fill="none" stroke="#9a32cd" stroke-dasharray="5,2" d="M1720.8734,-153.7908C1783.9433,-121.2588 1891.68,-65.6875 1943.2768,-39.0735"/>
<polygon fill="#9a32cd" stroke="#9a32cd" points="1719.187,-150.7224 1711.9041,-158.4172 1722.3959,-156.9436 1719.187,-150.7224"/>
<text text-anchor="middle" x="1831" y="-123" font-family="Helvetica,sans-Serif" font-size="10.00" fill="#000000"> m_MemberFactory</text>
</g>
<!-- Node16 -->
<g id="node16" class="node">
<title>Node16</title>
<g id="a_node16"><a xlink:href="classitk_1_1simple_1_1detail_1_1MemberFunctionFactory.html" target="_top" xlink:title=" ">
<polygon fill="#ffffff" stroke="#000000" points="1257.5,-214.5 1257.5,-255.5 1399.5,-255.5 1399.5,-214.5 1257.5,-214.5"/>
<text text-anchor="start" x="1265.5" y="-243.5" font-family="Helvetica,sans-Serif" font-size="10.00" fill="#000000">itk::simple::detail</text>
<text text-anchor="start" x="1265.5" y="-232.5" font-family="Helvetica,sans-Serif" font-size="10.00" fill="#000000">::MemberFunctionFactory</text>
<text text-anchor="middle" x="1328.5" y="-221.5" font-family="Helvetica,sans-Serif" font-size="10.00" fill="#000000">&lt; MemberFunctionType &gt;</text>
</a>
</g>
</g>
<!-- Node16&#45;&gt;Node15 -->
<g id="edge17" class="edge">
<title>Node16&#45;&gt;Node15</title>
<path fill="none" stroke="#9a32cd" stroke-dasharray="5,2" d="M1409.9093,-231.2517C1454.5417,-228.2 1510.6677,-222.7302 1560,-213 1577.2451,-209.5986 1595.6234,-204.614 1612.4001,-199.5045"/>
<polygon fill="#9a32cd" stroke="#9a32cd" points="1409.4466,-227.7745 1399.6973,-231.9217 1409.905,-234.7594 1409.4466,-227.7745"/>
<text text-anchor="middle" x="1489" y="-233" font-family="Helvetica,sans-Serif" font-size="10.00" fill="#000000"> ptr</text>
</g>
<!-- Node17 -->
<g id="node17" class="node">
<title>Node17</title>
<g id="a_node17"><a xlink:href="classitk_1_1simple_1_1detail_1_1MemberFunctionFactoryBase.html" target="_top" xlink:title=" ">
<polygon fill="#ffffff" stroke="#000000" points="752,-202 752,-254 914,-254 914,-202 752,-202"/>
<text text-anchor="start" x="760" y="-242" font-family="Helvetica,sans-Serif" font-size="10.00" fill="#000000">itk::simple::detail</text>
<text text-anchor="start" x="760" y="-231" font-family="Helvetica,sans-Serif" font-size="10.00" fill="#000000">::MemberFunctionFactoryBase</text>
<text text-anchor="start" x="760" y="-220" font-family="Helvetica,sans-Serif" font-size="10.00" fill="#000000">&lt; MemberFunctionType, std</text>
<text text-anchor="middle" x="833" y="-209" font-family="Helvetica,sans-Serif" font-size="10.00" fill="#000000">::pair&lt; unsigned int, int &gt; &gt;</text>
</a>
</g>
</g>
<!-- Node17&#45;&gt;Node16 -->
<g id="edge18" class="edge">
<title>Node17&#45;&gt;Node16</title>
<path fill="none" stroke="#006400" d="M924.5512,-229.2934C1020.6123,-230.6504 1169.5838,-232.755 1257.2427,-233.9933"/>
<polygon fill="#006400" stroke="#006400" points="924.3154,-225.7898 914.2669,-229.1481 924.2164,-232.7891 924.3154,-225.7898"/>
</g>
<!-- Node18 -->
<g id="node18" class="node">
<title>Node18</title>
<g id="a_node18"><a xlink:href="classitk_1_1simple_1_1detail_1_1MemberFunctionFactoryBase.html" target="_top" xlink:title="A base class for the MemberFunctionFactory.">
<polygon fill="#ffffff" stroke="#000000" points="203,-246 203,-276 365,-276 365,-246 203,-246"/>
<text text-anchor="start" x="211" y="-264" font-family="Helvetica,sans-Serif" font-size="10.00" fill="#000000">itk::simple::detail</text>
<text text-anchor="middle" x="284" y="-253" font-family="Helvetica,sans-Serif" font-size="10.00" fill="#000000">::MemberFunctionFactoryBase</text>
</a>
</g>
</g>
<!-- Node18&#45;&gt;Node17 -->
<g id="edge19" class="edge">
<title>Node18&#45;&gt;Node17</title>
<path fill="none" stroke="#ffa500" stroke-dasharray="5,2" d="M332.4557,-242.6547C348.325,-237.5074 366.1981,-232.6073 383,-230 510.7689,-210.1728 661.4105,-215.1457 751.9512,-221.1395"/>
<polygon fill="#ffa500" stroke="#ffa500" points="331.2288,-239.3745 322.8612,-245.8733 333.4552,-246.0111 331.2288,-239.3745"/>
<text text-anchor="start" x="403" y="-255" font-family="Helvetica,sans-Serif" font-size="10.00" fill="#000000"> &lt; MemberFunctionType,</text>
<text text-anchor="start" x="403" y="-244" font-family="Helvetica,sans-Serif" font-size="10.00" fill="#000000"> std::pair&lt; unsigned</text>
<text text-anchor="middle" x="463.5" y="-233" font-family="Helvetica,sans-Serif" font-size="10.00" fill="#000000"> int, int &gt; &gt;</text>
</g>
<!-- Node20 -->
<g id="node20" class="node">
<title>Node20</title>
<g id="a_node20"><a xlink:href="classitk_1_1simple_1_1detail_1_1MemberFunctionFactoryBase.html" target="_top" xlink:title=" ">
<polygon fill="#ffffff" stroke="#000000" points="562,-257 562,-309 734,-309 734,-257 562,-257"/>
<text text-anchor="start" x="570" y="-297" font-family="Helvetica,sans-Serif" font-size="10.00" fill="#000000">itk::simple::detail</text>
<text text-anchor="start" x="570" y="-286" font-family="Helvetica,sans-Serif" font-size="10.00" fill="#000000">::MemberFunctionFactoryBase</text>
<text text-anchor="start" x="570" y="-275" font-family="Helvetica,sans-Serif" font-size="10.00" fill="#000000">&lt; TMemberFunctionPointer,</text>
<text text-anchor="middle" x="648" y="-264" font-family="Helvetica,sans-Serif" font-size="10.00" fill="#000000"> std::pair&lt; unsigned int, int &gt; &gt;</text>
</a>
</g>
</g>
<!-- Node18&#45;&gt;Node20 -->
<g id="edge22" class="edge">
<title>Node18&#45;&gt;Node20</title>
<path fill="none" stroke="#ffa500" stroke-dasharray="5,2" d="M375.3568,-266.5216C432.5494,-269.9783 505.7782,-274.4042 561.9397,-277.7986"/>
<polygon fill="#ffa500" stroke="#ffa500" points="375.4286,-263.0196 365.2356,-265.9098 375.0062,-270.0069 375.4286,-263.0196"/>
<text text-anchor="start" x="394" y="-301" font-family="Helvetica,sans-Serif" font-size="10.00" fill="#000000"> &lt; TMemberFunctionPointer,</text>
<text text-anchor="start" x="394" y="-290" font-family="Helvetica,sans-Serif" font-size="10.00" fill="#000000"> std::pair&lt; unsigned int,</text>
<text text-anchor="middle" x="463.5" y="-279" font-family="Helvetica,sans-Serif" font-size="10.00" fill="#000000"> int &gt; &gt;</text>
</g>
<!-- Node19 -->
<g id="node19" class="node">
<title>Node19</title>
<g id="a_node19"><a xlink:href="classitk_1_1simple_1_1detail_1_1MemberFunctionFactory.html" target="_top" xlink:title="A class used to instantiate and generate function object to templated member functions.">
<polygon fill="#ffffff" stroke="#000000" points="932,-261.5 932,-302.5 1092,-302.5 1092,-261.5 932,-261.5"/>
<text text-anchor="start" x="940" y="-290.5" font-family="Helvetica,sans-Serif" font-size="10.00" fill="#000000">itk::simple::detail</text>
<text text-anchor="start" x="940" y="-279.5" font-family="Helvetica,sans-Serif" font-size="10.00" fill="#000000">::MemberFunctionFactory</text>
<text text-anchor="middle" x="1012" y="-268.5" font-family="Helvetica,sans-Serif" font-size="10.00" fill="#000000">&lt; TMemberFunctionPointer &gt;</text>
</a>
</g>
</g>
<!-- Node19&#45;&gt;Node16 -->
<g id="edge20" class="edge">
<title>Node19&#45;&gt;Node16</title>
<path fill="none" stroke="#ffa500" stroke-dasharray="5,2" d="M1102.2905,-268.5919C1151.5336,-261.2794 1211.6147,-252.3574 1257.4789,-245.5466"/>
<polygon fill="#ffa500" stroke="#ffa500" points="1101.6529,-265.1482 1092.2755,-270.0792 1102.6811,-272.0722 1101.6529,-265.1482"/>
<text text-anchor="middle" x="1174.5" y="-269" font-family="Helvetica,sans-Serif" font-size="10.00" fill="#000000"> &lt; MemberFunctionType &gt;</text>
</g>
<!-- Node20&#45;&gt;Node19 -->
<g id="edge21" class="edge">
<title>Node20&#45;&gt;Node19</title>
<path fill="none" stroke="#006400" d="M744.623,-282.7346C803.0927,-282.5739 876.7628,-282.3715 931.9603,-282.2199"/>
<polygon fill="#006400" stroke="#006400" points="744.2532,-279.2355 734.2629,-282.763 744.2725,-286.2354 744.2532,-279.2355"/>
</g>
<!-- Node21&#45;&gt;Node15 -->
<g id="edge23" class="edge">
<title>Node21&#45;&gt;Node15</title>
<path fill="none" stroke="#ffa500" stroke-dasharray="5,2" d="M1397.6327,-179.7987C1449.4073,-179.648 1520.826,-179.4401 1577.8186,-179.2742"/>
<polygon fill="#ffa500" stroke="#ffa500" points="1397.5395,-176.2989 1387.5498,-179.8281 1397.5599,-183.2989 1397.5395,-176.2989"/>
<text text-anchor="start" x="1420.5" y="-204" font-family="Helvetica,sans-Serif" font-size="10.00" fill="#000000"> &lt; itk::simple::detail</text>
<text text-anchor="start" x="1420.5" y="-193" font-family="Helvetica,sans-Serif" font-size="10.00" fill="#000000">::MemberFunctionFactory</text>
<text text-anchor="middle" x="1489" y="-182" font-family="Helvetica,sans-Serif" font-size="10.00" fill="#000000">&lt; MemberFunctionType &gt; &gt;</text>
</g>
</g>
</svg>
