<?xml version="1.0" encoding="UTF-8" standalone="no"?>
<!DOCTYPE svg PUBLIC "-//W3C//DTD SVG 1.1//EN"
 "http://www.w3.org/Graphics/SVG/1.1/DTD/svg11.dtd">
<!-- Generated by graphviz version 2.40.1 (20161225.0304)
 -->
<!-- Title: itk::simple::LandmarkBasedTransformInitializerFilter Pages: 1 -->
<svg width="2088pt" height="482pt"
 viewBox="0.00 0.00 2088.00 482.00" xmlns="http://www.w3.org/2000/svg" xmlns:xlink="http://www.w3.org/1999/xlink">
<g id="graph0" class="graph" transform="scale(1 1) rotate(0) translate(4 478)">
<title>itk::simple::LandmarkBasedTransformInitializerFilter</title>
<polygon fill="#ffffff" stroke="transparent" points="-4,4 -4,-478 2084,-478 2084,4 -4,4"/>
<!-- Node1 -->
<g id="node1" class="node">
<title>Node1</title>
<g id="a_node1"><a xlink:title=" ">
<polygon fill="#bfbfbf" stroke="#000000" points="1927,-125.5 1927,-155.5 2080,-155.5 2080,-125.5 1927,-125.5"/>
<text text-anchor="start" x="1935" y="-143.5" font-family="Helvetica,sans-Serif" font-size="10.00" fill="#000000">itk::simple::LandmarkBased</text>
<text text-anchor="middle" x="2003.5" y="-132.5" font-family="Helvetica,sans-Serif" font-size="10.00" fill="#000000">TransformInitializerFilter</text>
</a>
</g>
</g>
<!-- Node2 -->
<g id="node2" class="node">
<title>Node2</title>
<g id="a_node2"><a xlink:href="classitk_1_1simple_1_1ImageFilter.html" target="_top" xlink:title="The base interface for SimpleITK filters that take one input image.">
<polygon fill="#ffffff" stroke="#000000" points="768.5,-157 768.5,-176 897.5,-176 897.5,-157 768.5,-157"/>
<text text-anchor="middle" x="833" y="-164" font-family="Helvetica,sans-Serif" font-size="10.00" fill="#000000">itk::simple::ImageFilter</text>
</a>
</g>
</g>
<!-- Node2&#45;&gt;Node1 -->
<g id="edge1" class="edge">
<title>Node2&#45;&gt;Node1</title>
<path fill="none" stroke="#191970" d="M890.31,-155.1026C957.942,-142.6649 1073.9319,-124.5 1174.5,-124.5 1174.5,-124.5 1174.5,-124.5 1692,-124.5 1772.1437,-124.5 1863.7334,-129.8477 1926.7484,-134.3597"/>
<polygon fill="#191970" stroke="#191970" points="889.4755,-151.6978 880.2854,-156.9695 890.7572,-158.5794 889.4755,-151.6978"/>
</g>
<!-- Node3 -->
<g id="node3" class="node">
<title>Node3</title>
<g id="a_node3"><a xlink:href="classitk_1_1simple_1_1ProcessObject.html" target="_top" xlink:title="Base class for SimpleITK classes based on ProcessObject.">
<polygon fill="#ffffff" stroke="#000000" points="212.5,-309 212.5,-328 355.5,-328 355.5,-309 212.5,-309"/>
<text text-anchor="middle" x="284" y="-316" font-family="Helvetica,sans-Serif" font-size="10.00" fill="#000000">itk::simple::ProcessObject</text>
</a>
</g>
</g>
<!-- Node3&#45;&gt;Node2 -->
<g id="edge2" class="edge">
<title>Node3&#45;&gt;Node2</title>
<path fill="none" stroke="#191970" d="M328.115,-306.286C434.4525,-276.8447 703.1743,-202.4444 798.6706,-176.0047"/>
<polygon fill="#191970" stroke="#191970" points="327.0459,-302.9503 318.3424,-308.9917 328.9138,-309.6965 327.0459,-302.9503"/>
</g>
<!-- Node10 -->
<g id="node10" class="node">
<title>Node10</title>
<g id="a_node10"><a xlink:title=" ">
<polygon fill="#ffffff" stroke="#bfbfbf" points="590,-385.5 590,-415.5 706,-415.5 706,-385.5 590,-385.5"/>
<text text-anchor="start" x="598" y="-403.5" font-family="Helvetica,sans-Serif" font-size="10.00" fill="#000000">std::set&lt; itk::simple</text>
<text text-anchor="middle" x="648" y="-392.5" font-family="Helvetica,sans-Serif" font-size="10.00" fill="#000000">::ProcessObject * &gt;</text>
</a>
</g>
</g>
<!-- Node3&#45;&gt;Node10 -->
<g id="edge11" class="edge">
<title>Node3&#45;&gt;Node10</title>
<path fill="none" stroke="#9a32cd" stroke-dasharray="5,2" d="M336.4278,-330.3107C403.7042,-345.4663 520.0454,-371.6751 589.9372,-387.4199"/>
<polygon fill="#9a32cd" stroke="#9a32cd" points="336.9926,-326.8502 326.4678,-328.0669 335.4541,-333.6791 336.9926,-326.8502"/>
<text text-anchor="middle" x="463.5" y="-378.5" font-family="Helvetica,sans-Serif" font-size="10.00" fill="#000000"> keys</text>
</g>
<!-- Node4 -->
<g id="node4" class="node">
<title>Node4</title>
<g id="a_node4"><a xlink:href="classitk_1_1simple_1_1NonCopyable.html" target="_top" xlink:title="An inheritable class to disable copying of a class.">
<polygon fill="#ffffff" stroke="#000000" points="0,-332 0,-351 140,-351 140,-332 0,-332"/>
<text text-anchor="middle" x="70" y="-339" font-family="Helvetica,sans-Serif" font-size="10.00" fill="#000000">itk::simple::NonCopyable</text>
</a>
</g>
</g>
<!-- Node4&#45;&gt;Node3 -->
<g id="edge3" class="edge">
<title>Node4&#45;&gt;Node3</title>
<path fill="none" stroke="#006400" d="M150.2632,-332.8736C170.635,-330.6841 192.3884,-328.3461 212.304,-326.2056"/>
<polygon fill="#006400" stroke="#006400" points="149.6403,-329.4203 140.0716,-333.9689 150.3884,-336.3802 149.6403,-329.4203"/>
</g>
<!-- Node7 -->
<g id="node7" class="node">
<title>Node7</title>
<g id="a_node7"><a xlink:href="classitk_1_1simple_1_1Command.html" target="_top" xlink:title="An implementation of the Command design pattern for callback.">
<polygon fill="#ffffff" stroke="#000000" points="949.5,-380 949.5,-399 1074.5,-399 1074.5,-380 949.5,-380"/>
<text text-anchor="middle" x="1012" y="-387" font-family="Helvetica,sans-Serif" font-size="10.00" fill="#000000">itk::simple::Command</text>
</a>
</g>
</g>
<!-- Node4&#45;&gt;Node7 -->
<g id="edge7" class="edge">
<title>Node4&#45;&gt;Node7</title>
<path fill="none" stroke="#006400" d="M150.1813,-345.5857C334.187,-354.9618 783.6416,-377.8639 949.3264,-386.3064"/>
<polygon fill="#006400" stroke="#006400" points="150.1987,-342.0821 140.0335,-345.0686 149.8424,-349.073 150.1987,-342.0821"/>
</g>
<!-- Node5 -->
<g id="node5" class="node">
<title>Node5</title>
<g id="a_node5"><a xlink:title=" ">
<polygon fill="#ffffff" stroke="#bfbfbf" points="1598.5,-303.5 1598.5,-333.5 1785.5,-333.5 1785.5,-303.5 1598.5,-303.5"/>
<text text-anchor="start" x="1606.5" y="-321.5" font-family="Helvetica,sans-Serif" font-size="10.00" fill="#000000">std::list&lt; itk::simple</text>
<text text-anchor="middle" x="1692" y="-310.5" font-family="Helvetica,sans-Serif" font-size="10.00" fill="#000000">::ProcessObject::EventCommand &gt;</text>
</a>
</g>
</g>
<!-- Node5&#45;&gt;Node3 -->
<g id="edge4" class="edge">
<title>Node5&#45;&gt;Node3</title>
<path fill="none" stroke="#9a32cd" stroke-dasharray="5,2" d="M1588.0144,-318.5C1517.5916,-318.5 1422.4399,-318.5 1338.5,-318.5 648,-318.5 648,-318.5 648,-318.5 546.5729,-318.5 429.2483,-318.5 355.8282,-318.5"/>
<polygon fill="#9a32cd" stroke="#9a32cd" points="1588.221,-322.0001 1598.221,-318.5 1588.2209,-315.0001 1588.221,-322.0001"/>
<text text-anchor="middle" x="1012" y="-321.5" font-family="Helvetica,sans-Serif" font-size="10.00" fill="#000000"> m_Commands</text>
</g>
<!-- Node6 -->
<g id="node6" class="node">
<title>Node6</title>
<g id="a_node6"><a xlink:href="structitk_1_1simple_1_1ProcessObject_1_1EventCommand.html" target="_top" xlink:title=" ">
<polygon fill="#ffffff" stroke="#000000" points="1267,-360.5 1267,-390.5 1410,-390.5 1410,-360.5 1267,-360.5"/>
<text text-anchor="start" x="1275" y="-378.5" font-family="Helvetica,sans-Serif" font-size="10.00" fill="#000000">itk::simple::ProcessObject</text>
<text text-anchor="middle" x="1338.5" y="-367.5" font-family="Helvetica,sans-Serif" font-size="10.00" fill="#000000">::EventCommand</text>
</a>
</g>
</g>
<!-- Node6&#45;&gt;Node5 -->
<g id="edge5" class="edge">
<title>Node6&#45;&gt;Node5</title>
<path fill="none" stroke="#9a32cd" stroke-dasharray="5,2" d="M1420.1333,-362.3371C1473.46,-353.7384 1543.2385,-342.487 1598.75,-333.5361"/>
<polygon fill="#9a32cd" stroke="#9a32cd" points="1419.3513,-358.9179 1410.036,-363.9652 1420.4657,-365.8286 1419.3513,-358.9179"/>
<text text-anchor="middle" x="1509" y="-361.5" font-family="Helvetica,sans-Serif" font-size="10.00" fill="#000000"> elements</text>
</g>
<!-- Node7&#45;&gt;Node6 -->
<g id="edge6" class="edge">
<title>Node7&#45;&gt;Node6</title>
<path fill="none" stroke="#9a32cd" stroke-dasharray="5,2" d="M1084.8022,-386.3783C1139.0523,-384.0521 1212.7744,-380.891 1266.7665,-378.5759"/>
<polygon fill="#9a32cd" stroke="#9a32cd" points="1084.407,-382.8919 1074.5662,-386.8172 1084.707,-389.8855 1084.407,-382.8919"/>
<text text-anchor="middle" x="1174.5" y="-387.5" font-family="Helvetica,sans-Serif" font-size="10.00" fill="#000000"> m_Command</text>
</g>
<!-- Node8 -->
<g id="node8" class="node">
<title>Node8</title>
<g id="a_node8"><a xlink:title="STL class.">
<polygon fill="#ffffff" stroke="#bfbfbf" points="615.5,-442 615.5,-461 680.5,-461 680.5,-442 615.5,-442"/>
<text text-anchor="middle" x="648" y="-449" font-family="Helvetica,sans-Serif" font-size="10.00" fill="#000000">std::string</text>
</a>
</g>
</g>
<!-- Node8&#45;&gt;Node7 -->
<g id="edge8" class="edge">
<title>Node8&#45;&gt;Node7</title>
<path fill="none" stroke="#9a32cd" stroke-dasharray="5,2" d="M690.8881,-446.0126C743.5959,-439.0475 835.6788,-426.1605 914,-411.5 933.3678,-407.8746 954.7317,-403.1633 972.556,-399.0311"/>
<polygon fill="#9a32cd" stroke="#9a32cd" points="690.3467,-442.5535 680.8873,-447.3254 691.2578,-449.494 690.3467,-442.5535"/>
<text text-anchor="middle" x="833" y="-439.5" font-family="Helvetica,sans-Serif" font-size="10.00" fill="#000000"> m_Name</text>
</g>
<!-- Node9 -->
<g id="node9" class="node">
<title>Node9</title>
<g id="a_node9"><a xlink:title="STL class.">
<polygon fill="#ffffff" stroke="#bfbfbf" points="232,-443.5 232,-473.5 336,-473.5 336,-443.5 232,-443.5"/>
<text text-anchor="start" x="240" y="-461.5" font-family="Helvetica,sans-Serif" font-size="10.00" fill="#000000">std::basic_string&lt;</text>
<text text-anchor="middle" x="284" y="-450.5" font-family="Helvetica,sans-Serif" font-size="10.00" fill="#000000"> char &gt;</text>
</a>
</g>
</g>
<!-- Node9&#45;&gt;Node8 -->
<g id="edge9" class="edge">
<title>Node9&#45;&gt;Node8</title>
<path fill="none" stroke="#191970" d="M346.325,-457.3014C424.2948,-455.802 554.9016,-453.2904 615.4072,-452.1268"/>
<polygon fill="#191970" stroke="#191970" points="346.0831,-453.8053 336.1523,-457.4971 346.2178,-460.8041 346.0831,-453.8053"/>
</g>
<!-- Node10&#45;&gt;Node7 -->
<g id="edge10" class="edge">
<title>Node10&#45;&gt;Node7</title>
<path fill="none" stroke="#9a32cd" stroke-dasharray="5,2" d="M716.1019,-398.442C783.0065,-396.4201 884.2464,-393.3607 949.2441,-391.3965"/>
<polygon fill="#9a32cd" stroke="#9a32cd" points="715.9691,-394.9443 706.0794,-398.7449 716.1806,-401.9411 715.9691,-394.9443"/>
<text text-anchor="middle" x="833" y="-399.5" font-family="Helvetica,sans-Serif" font-size="10.00" fill="#000000"> m_ReferencedObjects</text>
</g>
<!-- Node11 -->
<g id="node11" class="node">
<title>Node11</title>
<g id="a_node11"><a xlink:title="STL class.">
<polygon fill="#ffffff" stroke="#bfbfbf" points="243,-405 243,-424 325,-424 325,-405 243,-405"/>
<text text-anchor="middle" x="284" y="-412" font-family="Helvetica,sans-Serif" font-size="10.00" fill="#000000">std::set&lt; K &gt;</text>
</a>
</g>
</g>
<!-- Node11&#45;&gt;Node10 -->
<g id="edge12" class="edge">
<title>Node11&#45;&gt;Node10</title>
<path fill="none" stroke="#ffa500" stroke-dasharray="5,2" d="M335.3639,-412.5245C402.4082,-409.9458 519.4541,-405.4441 589.7379,-402.7408"/>
<polygon fill="#ffa500" stroke="#ffa500" points="334.9059,-409.0394 325.0479,-412.9212 335.175,-416.0342 334.9059,-409.0394"/>
<text text-anchor="middle" x="463.5" y="-412.5" font-family="Helvetica,sans-Serif" font-size="10.00" fill="#000000"> &lt; itk::simple::ProcessObject * &gt;</text>
</g>
<!-- Node12 -->
<g id="node12" class="node">
<title>Node12</title>
<g id="a_node12"><a xlink:title=" ">
<polygon fill="#ffffff" stroke="#bfbfbf" points="55.5,-405 55.5,-424 84.5,-424 84.5,-405 55.5,-405"/>
<text text-anchor="middle" x="70" y="-412" font-family="Helvetica,sans-Serif" font-size="10.00" fill="#000000">K</text>
</a>
</g>
</g>
<!-- Node12&#45;&gt;Node11 -->
<g id="edge13" class="edge">
<title>Node12&#45;&gt;Node11</title>
<path fill="none" stroke="#9a32cd" stroke-dasharray="5,2" d="M94.9038,-414.5C131.2222,-414.5 199.1487,-414.5 242.9345,-414.5"/>
<polygon fill="#9a32cd" stroke="#9a32cd" points="94.7091,-411.0001 84.7091,-414.5 94.7091,-418.0001 94.7091,-411.0001"/>
<text text-anchor="middle" x="171.5" y="-417.5" font-family="Helvetica,sans-Serif" font-size="10.00" fill="#000000"> keys</text>
</g>
<!-- Node13 -->
<g id="node13" class="node">
<title>Node13</title>
<g id="a_node13"><a xlink:title="STL class.">
<polygon fill="#ffffff" stroke="#bfbfbf" points="1298,-271 1298,-290 1379,-290 1379,-271 1298,-271"/>
<text text-anchor="middle" x="1338.5" y="-278" font-family="Helvetica,sans-Serif" font-size="10.00" fill="#000000">std::list&lt; T &gt;</text>
</a>
</g>
</g>
<!-- Node13&#45;&gt;Node5 -->
<g id="edge14" class="edge">
<title>Node13&#45;&gt;Node5</title>
<path fill="none" stroke="#ffa500" stroke-dasharray="5,2" d="M1389.4663,-276.4879C1438.6011,-273.6609 1514.8807,-272.0151 1580,-282.5 1605.6089,-286.6233 1633.3732,-295.5154 1654.8517,-303.43"/>
<polygon fill="#ffa500" stroke="#ffa500" points="1389.1741,-272.9992 1379.4073,-277.1052 1389.6029,-279.986 1389.1741,-272.9992"/>
<text text-anchor="start" x="1438" y="-296.5" font-family="Helvetica,sans-Serif" font-size="10.00" fill="#000000"> &lt; itk::simple::ProcessObject</text>
<text text-anchor="middle" x="1509" y="-285.5" font-family="Helvetica,sans-Serif" font-size="10.00" fill="#000000">::EventCommand &gt;</text>
</g>
<!-- Node14 -->
<g id="node14" class="node">
<title>Node14</title>
<g id="a_node14"><a xlink:title=" ">
<polygon fill="#ffffff" stroke="#bfbfbf" points="997.5,-233 997.5,-252 1026.5,-252 1026.5,-233 997.5,-233"/>
<text text-anchor="middle" x="1012" y="-240" font-family="Helvetica,sans-Serif" font-size="10.00" fill="#000000">T</text>
</a>
</g>
</g>
<!-- Node14&#45;&gt;Node13 -->
<g id="edge15" class="edge">
<title>Node14&#45;&gt;Node13</title>
<path fill="none" stroke="#9a32cd" stroke-dasharray="5,2" d="M1036.6096,-246.2747C1056.4088,-249.249 1084.9594,-253.3974 1110,-256.5 1175.7122,-264.6418 1252.2816,-272.316 1297.9976,-276.7057"/>
<polygon fill="#9a32cd" stroke="#9a32cd" points="1036.9996,-242.7939 1026.5882,-244.7572 1035.9515,-249.715 1036.9996,-242.7939"/>
<text text-anchor="middle" x="1174.5" y="-272.5" font-family="Helvetica,sans-Serif" font-size="10.00" fill="#000000"> elements</text>
</g>
<!-- Node21 -->
<g id="node21" class="node">
<title>Node21</title>
<g id="a_node21"><a xlink:title="STL class.">
<polygon fill="#ffffff" stroke="#bfbfbf" points="1279.5,-189 1279.5,-208 1397.5,-208 1397.5,-189 1279.5,-189"/>
<text text-anchor="middle" x="1338.5" y="-196" font-family="Helvetica,sans-Serif" font-size="10.00" fill="#000000">std::unique_ptr&lt; T &gt;</text>
</a>
</g>
</g>
<!-- Node14&#45;&gt;Node21 -->
<g id="edge24" class="edge">
<title>Node14&#45;&gt;Node21</title>
<path fill="none" stroke="#9a32cd" stroke-dasharray="5,2" d="M1036.6178,-238.5531C1056.4217,-235.4212 1084.9745,-231.0027 1110,-227.5 1167.4234,-219.4628 1233.1033,-211.2265 1279.2643,-205.5952"/>
<polygon fill="#9a32cd" stroke="#9a32cd" points="1035.9202,-235.12 1026.5938,-240.1467 1037.0193,-242.0331 1035.9202,-235.12"/>
<text text-anchor="middle" x="1174.5" y="-230.5" font-family="Helvetica,sans-Serif" font-size="10.00" fill="#000000"> ptr</text>
</g>
<!-- Node25 -->
<g id="node25" class="node">
<title>Node25</title>
<g id="a_node25"><a xlink:title="STL class.">
<polygon fill="#ffffff" stroke="#bfbfbf" points="1290,-233 1290,-252 1387,-252 1387,-233 1290,-233"/>
<text text-anchor="middle" x="1338.5" y="-240" font-family="Helvetica,sans-Serif" font-size="10.00" fill="#000000">std::vector&lt; T &gt;</text>
</a>
</g>
</g>
<!-- Node14&#45;&gt;Node25 -->
<g id="edge29" class="edge">
<title>Node14&#45;&gt;Node25</title>
<path fill="none" stroke="#9a32cd" stroke-dasharray="5,2" d="M1036.9255,-242.5C1090.882,-242.5 1219.3167,-242.5 1289.9254,-242.5"/>
<polygon fill="#9a32cd" stroke="#9a32cd" points="1036.8775,-239.0001 1026.8774,-242.5 1036.8774,-246.0001 1036.8775,-239.0001"/>
<text text-anchor="middle" x="1174.5" y="-245.5" font-family="Helvetica,sans-Serif" font-size="10.00" fill="#000000"> elements</text>
</g>
<!-- Node15 -->
<g id="node15" class="node">
<title>Node15</title>
<g id="a_node15"><a xlink:title=" ">
<polygon fill="#ffffff" stroke="#bfbfbf" points="1598,-153 1598,-194 1786,-194 1786,-153 1598,-153"/>
<text text-anchor="start" x="1606" y="-182" font-family="Helvetica,sans-Serif" font-size="10.00" fill="#000000">std::unique_ptr&lt; itk</text>
<text text-anchor="start" x="1606" y="-171" font-family="Helvetica,sans-Serif" font-size="10.00" fill="#000000">::simple::detail::MemberFunction</text>
<text text-anchor="middle" x="1692" y="-160" font-family="Helvetica,sans-Serif" font-size="10.00" fill="#000000">Factory&lt; MemberFunctionType &gt; &gt;</text>
</a>
</g>
</g>
<!-- Node15&#45;&gt;Node1 -->
<g id="edge16" class="edge">
<title>Node15&#45;&gt;Node1</title>
<path fill="none" stroke="#9a32cd" stroke-dasharray="5,2" d="M1796.4398,-162.4358C1839.0714,-157.9194 1887.477,-152.7914 1926.7607,-148.6297"/>
<polygon fill="#9a32cd" stroke="#9a32cd" points="1795.8812,-158.9753 1786.3056,-163.5094 1796.6187,-165.9363 1795.8812,-158.9753"/>
<text text-anchor="middle" x="1856.5" y="-163.5" font-family="Helvetica,sans-Serif" font-size="10.00" fill="#000000"> m_MemberFactory</text>
</g>
<!-- Node16 -->
<g id="node16" class="node">
<title>Node16</title>
<g id="a_node16"><a xlink:href="classitk_1_1simple_1_1detail_1_1MemberFunctionFactory.html" target="_top" xlink:title=" ">
<polygon fill="#ffffff" stroke="#000000" points="1267.5,-55 1267.5,-96 1409.5,-96 1409.5,-55 1267.5,-55"/>
<text text-anchor="start" x="1275.5" y="-84" font-family="Helvetica,sans-Serif" font-size="10.00" fill="#000000">itk::simple::detail</text>
<text text-anchor="start" x="1275.5" y="-73" font-family="Helvetica,sans-Serif" font-size="10.00" fill="#000000">::MemberFunctionFactory</text>
<text text-anchor="middle" x="1338.5" y="-62" font-family="Helvetica,sans-Serif" font-size="10.00" fill="#000000">&lt; MemberFunctionType &gt;</text>
</a>
</g>
</g>
<!-- Node16&#45;&gt;Node15 -->
<g id="edge17" class="edge">
<title>Node16&#45;&gt;Node15</title>
<path fill="none" stroke="#9a32cd" stroke-dasharray="5,2" d="M1419.3897,-97.9249C1479.1544,-114.4933 1559.8836,-136.8737 1617.9587,-152.9737"/>
<polygon fill="#9a32cd" stroke="#9a32cd" points="1420.1824,-94.5127 1409.6108,-95.2139 1418.3123,-101.2583 1420.1824,-94.5127"/>
<text text-anchor="middle" x="1509" y="-145.5" font-family="Helvetica,sans-Serif" font-size="10.00" fill="#000000"> ptr</text>
</g>
<!-- Node17 -->
<g id="node17" class="node">
<title>Node17</title>
<g id="a_node17"><a xlink:href="classitk_1_1simple_1_1detail_1_1MemberFunctionFactoryBase.html" target="_top" xlink:title=" ">
<polygon fill="#ffffff" stroke="#000000" points="752,-55.5 752,-107.5 914,-107.5 914,-55.5 752,-55.5"/>
<text text-anchor="start" x="760" y="-95.5" font-family="Helvetica,sans-Serif" font-size="10.00" fill="#000000">itk::simple::detail</text>
<text text-anchor="start" x="760" y="-84.5" font-family="Helvetica,sans-Serif" font-size="10.00" fill="#000000">::MemberFunctionFactoryBase</text>
<text text-anchor="start" x="760" y="-73.5" font-family="Helvetica,sans-Serif" font-size="10.00" fill="#000000">&lt; MemberFunctionType, std</text>
<text text-anchor="middle" x="833" y="-62.5" font-family="Helvetica,sans-Serif" font-size="10.00" fill="#000000">::pair&lt; unsigned int, int &gt; &gt;</text>
</a>
</g>
</g>
<!-- Node17&#45;&gt;Node16 -->
<g id="edge18" class="edge">
<title>Node17&#45;&gt;Node16</title>
<path fill="none" stroke="#006400" d="M924.4549,-80.4145C1022.9187,-79.2458 1177.4768,-77.4113 1267.2883,-76.3452"/>
<polygon fill="#006400" stroke="#006400" points="924.175,-76.9175 914.2173,-80.536 924.2582,-83.917 924.175,-76.9175"/>
</g>
<!-- Node18 -->
<g id="node18" class="node">
<title>Node18</title>
<g id="a_node18"><a xlink:href="classitk_1_1simple_1_1detail_1_1MemberFunctionFactoryBase.html" target="_top" xlink:title="A base class for the MemberFunctionFactory.">
<polygon fill="#ffffff" stroke="#000000" points="203,-39.5 203,-69.5 365,-69.5 365,-39.5 203,-39.5"/>
<text text-anchor="start" x="211" y="-57.5" font-family="Helvetica,sans-Serif" font-size="10.00" fill="#000000">itk::simple::detail</text>
<text text-anchor="middle" x="284" y="-46.5" font-family="Helvetica,sans-Serif" font-size="10.00" fill="#000000">::MemberFunctionFactoryBase</text>
</a>
</g>
</g>
<!-- Node18&#45;&gt;Node17 -->
<g id="edge19" class="edge">
<title>Node18&#45;&gt;Node17</title>
<path fill="none" stroke="#ffa500" stroke-dasharray="5,2" d="M375.2289,-60.0765C377.8477,-60.2213 380.4423,-60.3628 383,-60.5 511.8613,-67.4113 661.5516,-74.1373 751.6893,-78.0458"/>
<polygon fill="#ffa500" stroke="#ffa500" points="375.2168,-56.5704 365.036,-59.5032 374.8237,-63.5593 375.2168,-56.5704"/>
<text text-anchor="start" x="403" y="-94.5" font-family="Helvetica,sans-Serif" font-size="10.00" fill="#000000"> &lt; MemberFunctionType,</text>
<text text-anchor="start" x="403" y="-83.5" font-family="Helvetica,sans-Serif" font-size="10.00" fill="#000000"> std::pair&lt; unsigned</text>
<text text-anchor="middle" x="463.5" y="-72.5" font-family="Helvetica,sans-Serif" font-size="10.00" fill="#000000"> int, int &gt; &gt;</text>
</g>
<!-- Node20 -->
<g id="node20" class="node">
<title>Node20</title>
<g id="a_node20"><a xlink:href="classitk_1_1simple_1_1detail_1_1MemberFunctionFactoryBase.html" target="_top" xlink:title=" ">
<polygon fill="#ffffff" stroke="#000000" points="562,-.5 562,-52.5 734,-52.5 734,-.5 562,-.5"/>
<text text-anchor="start" x="570" y="-40.5" font-family="Helvetica,sans-Serif" font-size="10.00" fill="#000000">itk::simple::detail</text>
<text text-anchor="start" x="570" y="-29.5" font-family="Helvetica,sans-Serif" font-size="10.00" fill="#000000">::MemberFunctionFactoryBase</text>
<text text-anchor="start" x="570" y="-18.5" font-family="Helvetica,sans-Serif" font-size="10.00" fill="#000000">&lt; TMemberFunctionPointer,</text>
<text text-anchor="middle" x="648" y="-7.5" font-family="Helvetica,sans-Serif" font-size="10.00" fill="#000000"> std::pair&lt; unsigned int, int &gt; &gt;</text>
</a>
</g>
</g>
<!-- Node18&#45;&gt;Node20 -->
<g id="edge22" class="edge">
<title>Node18&#45;&gt;Node20</title>
<path fill="none" stroke="#ffa500" stroke-dasharray="5,2" d="M339.3503,-36.6598C353.437,-32.8817 368.6527,-29.4489 383,-27.5 442.3791,-19.434 509.9349,-19.3169 561.9757,-21.1481"/>
<polygon fill="#ffa500" stroke="#ffa500" points="338.0141,-33.3987 329.3212,-39.4555 339.8938,-40.1416 338.0141,-33.3987"/>
<text text-anchor="start" x="394" y="-52.5" font-family="Helvetica,sans-Serif" font-size="10.00" fill="#000000"> &lt; TMemberFunctionPointer,</text>
<text text-anchor="start" x="394" y="-41.5" font-family="Helvetica,sans-Serif" font-size="10.00" fill="#000000"> std::pair&lt; unsigned int,</text>
<text text-anchor="middle" x="463.5" y="-30.5" font-family="Helvetica,sans-Serif" font-size="10.00" fill="#000000"> int &gt; &gt;</text>
</g>
<!-- Node19 -->
<g id="node19" class="node">
<title>Node19</title>
<g id="a_node19"><a xlink:href="classitk_1_1simple_1_1detail_1_1MemberFunctionFactory.html" target="_top" xlink:title="A class used to instantiate and generate function object to templated member functions.">
<polygon fill="#ffffff" stroke="#000000" points="932,-11 932,-52 1092,-52 1092,-11 932,-11"/>
<text text-anchor="start" x="940" y="-40" font-family="Helvetica,sans-Serif" font-size="10.00" fill="#000000">itk::simple::detail</text>
<text text-anchor="start" x="940" y="-29" font-family="Helvetica,sans-Serif" font-size="10.00" fill="#000000">::MemberFunctionFactory</text>
<text text-anchor="middle" x="1012" y="-18" font-family="Helvetica,sans-Serif" font-size="10.00" fill="#000000">&lt; TMemberFunctionPointer &gt;</text>
</a>
</g>
</g>
<!-- Node19&#45;&gt;Node16 -->
<g id="edge20" class="edge">
<title>Node19&#45;&gt;Node16</title>
<path fill="none" stroke="#ffa500" stroke-dasharray="5,2" d="M1102.1835,-39.7797C1143.914,-44.0342 1194.0859,-49.7492 1239,-56.5 1248.2173,-57.8854 1257.8828,-59.5115 1267.4159,-61.2193"/>
<polygon fill="#ffa500" stroke="#ffa500" points="1102.3416,-36.278 1092.041,-38.7573 1101.6395,-43.2427 1102.3416,-36.278"/>
<text text-anchor="middle" x="1174.5" y="-59.5" font-family="Helvetica,sans-Serif" font-size="10.00" fill="#000000"> &lt; MemberFunctionType &gt;</text>
</g>
<!-- Node20&#45;&gt;Node19 -->
<g id="edge21" class="edge">
<title>Node20&#45;&gt;Node19</title>
<path fill="none" stroke="#006400" d="M744.623,-27.8272C803.0927,-28.6304 876.7628,-29.6423 931.9603,-30.4006"/>
<polygon fill="#006400" stroke="#006400" points="744.3101,-24.3227 734.2629,-27.6849 744.2139,-31.322 744.3101,-24.3227"/>
</g>
<!-- Node21&#45;&gt;Node15 -->
<g id="edge23" class="edge">
<title>Node21&#45;&gt;Node15</title>
<path fill="none" stroke="#ffa500" stroke-dasharray="5,2" d="M1407.8844,-193.593C1462.1798,-189.7532 1538.2377,-184.3743 1597.9974,-180.148"/>
<polygon fill="#ffa500" stroke="#ffa500" points="1407.3961,-190.1187 1397.668,-194.3156 1407.89,-197.1013 1407.3961,-190.1187"/>
<text text-anchor="start" x="1440.5" y="-215.5" font-family="Helvetica,sans-Serif" font-size="10.00" fill="#000000"> &lt; itk::simple::detail</text>
<text text-anchor="start" x="1440.5" y="-204.5" font-family="Helvetica,sans-Serif" font-size="10.00" fill="#000000">::MemberFunctionFactory</text>
<text text-anchor="middle" x="1509" y="-193.5" font-family="Helvetica,sans-Serif" font-size="10.00" fill="#000000">&lt; MemberFunctionType &gt; &gt;</text>
</g>
<!-- Node22 -->
<g id="node22" class="node">
<title>Node22</title>
<g id="a_node22"><a xlink:href="classitk_1_1simple_1_1Image.html" target="_top" xlink:title="The Image class for SimpleITK.">
<polygon fill="#ffffff" stroke="#000000" points="1639.5,-47 1639.5,-66 1744.5,-66 1744.5,-47 1639.5,-47"/>
<text text-anchor="middle" x="1692" y="-54" font-family="Helvetica,sans-Serif" font-size="10.00" fill="#000000">itk::simple::Image</text>
</a>
</g>
</g>
<!-- Node22&#45;&gt;Node1 -->
<g id="edge25" class="edge">
<title>Node22&#45;&gt;Node1</title>
<path fill="none" stroke="#9a32cd" stroke-dasharray="5,2" d="M1754.463,-65.2457C1798.3064,-72.2605 1857.9805,-83.5786 1909,-99.5 1931.0227,-106.3725 1954.8463,-116.7296 1973.0637,-125.3144"/>
<polygon fill="#9a32cd" stroke="#9a32cd" points="1754.939,-61.7777 1744.5172,-63.6847 1753.8535,-68.693 1754.939,-61.7777"/>
<text text-anchor="middle" x="1856.5" y="-102.5" font-family="Helvetica,sans-Serif" font-size="10.00" fill="#000000"> m_ReferenceImage</text>
</g>
<!-- Node23 -->
<g id="node23" class="node">
<title>Node23</title>
<g id="a_node23"><a xlink:href="classitk_1_1simple_1_1PimpleImageBase.html" target="_top" xlink:title="Private implementation idiom image base class.">
<polygon fill="#ffffff" stroke="#000000" points="1257,-17 1257,-36 1420,-36 1420,-17 1257,-17"/>
<text text-anchor="middle" x="1338.5" y="-24" font-family="Helvetica,sans-Serif" font-size="10.00" fill="#000000">itk::simple::PimpleImageBase</text>
</a>
</g>
</g>
<!-- Node23&#45;&gt;Node22 -->
<g id="edge26" class="edge">
<title>Node23&#45;&gt;Node22</title>
<path fill="none" stroke="#9a32cd" stroke-dasharray="5,2" d="M1430.1118,-34.2747C1496.6182,-39.9188 1584.2536,-47.356 1639.3721,-52.0337"/>
<polygon fill="#9a32cd" stroke="#9a32cd" points="1430.3041,-30.7785 1420.0439,-33.4203 1429.7121,-37.7534 1430.3041,-30.7785"/>
<text text-anchor="middle" x="1509" y="-50.5" font-family="Helvetica,sans-Serif" font-size="10.00" fill="#000000"> m_PimpleImage</text>
</g>
<!-- Node24 -->
<g id="node24" class="node">
<title>Node24</title>
<g id="a_node24"><a xlink:title=" ">
<polygon fill="#ffffff" stroke="#bfbfbf" points="1630,-225 1630,-244 1754,-244 1754,-225 1630,-225"/>
<text text-anchor="middle" x="1692" y="-232" font-family="Helvetica,sans-Serif" font-size="10.00" fill="#000000">std::vector&lt; double &gt;</text>
</a>
</g>
</g>
<!-- Node24&#45;&gt;Node1 -->
<g id="edge27" class="edge">
<title>Node24&#45;&gt;Node1</title>
<path fill="none" stroke="#9a32cd" stroke-dasharray="5,2" d="M1741.0243,-222.5023C1785.2462,-211.3652 1851.915,-193.7915 1909,-175.5 1927.6603,-169.5208 1948.0807,-162.0742 1965.1494,-155.5886"/>
<polygon fill="#9a32cd" stroke="#9a32cd" points="1739.9637,-219.1598 1731.114,-224.985 1741.6648,-225.9499 1739.9637,-219.1598"/>
<text text-anchor="middle" x="1856.5" y="-229.5" font-family="Helvetica,sans-Serif" font-size="10.00" fill="#000000"> m_LandmarkWeight</text>
<text text-anchor="middle" x="1856.5" y="-218.5" font-family="Helvetica,sans-Serif" font-size="10.00" fill="#000000">m_MovingLandmarks</text>
<text text-anchor="middle" x="1856.5" y="-207.5" font-family="Helvetica,sans-Serif" font-size="10.00" fill="#000000">m_FixedLandmarks</text>
</g>
<!-- Node25&#45;&gt;Node24 -->
<g id="edge28" class="edge">
<title>Node25&#45;&gt;Node24</title>
<path fill="none" stroke="#ffa500" stroke-dasharray="5,2" d="M1397.6537,-241.1613C1461.9521,-239.7062 1564.2565,-237.3909 1629.7462,-235.9089"/>
<polygon fill="#ffa500" stroke="#ffa500" points="1397.1997,-237.6706 1387.2815,-241.396 1397.3582,-244.6688 1397.1997,-237.6706"/>
<text text-anchor="middle" x="1509" y="-242.5" font-family="Helvetica,sans-Serif" font-size="10.00" fill="#000000"> &lt; double &gt;</text>
</g>
</g>
</svg>
