<?xml version="1.0" encoding="UTF-8" standalone="no"?>
<!DOCTYPE svg PUBLIC "-//W3C//DTD SVG 1.1//EN"
 "http://www.w3.org/Graphics/SVG/1.1/DTD/svg11.dtd">
<!-- Generated by graphviz version 2.40.1 (20161225.0304)
 -->
<!-- Title: itk::simple::ImageFilter Pages: 1 -->
<!--zoomable 547 -->
<svg id="main" version="1.1" xmlns="http://www.w3.org/2000/svg" xmlns:xlink="http://www.w3.org/1999/xlink" xml:space="preserve" onload="init(evt)">
<style type="text/css"><![CDATA[
.edge:hover path { stroke: red; }
.edge:hover polygon { stroke: red; fill: red; }
]]></style>
<script type="text/javascript"><![CDATA[
var edges = document.getElementsByTagName('g');
if (edges && edges.length) {
  for (var i=0;i<edges.length;i++) {
    if (edges[i].id.substr(0,4)=='edge') {
      edges[i].setAttribute('class','edge');
    }
  }
}
]]></script>
        <defs>
                <circle id="rim" cx="0" cy="0" r="7"/>
                <circle id="rim2" cx="0" cy="0" r="3.5"/>
                <g id="zoomPlus">
                        <use xlink:href="#rim" fill="#404040">
                                <set attributeName="fill" to="#808080" begin="zoomplus.mouseover" end="zoomplus.mouseout"/>
                        </use>
                        <path d="M-4,0h8M0,-4v8" fill="none" stroke="white" stroke-width="1.5" pointer-events="none"/>
                </g>
                <g id="zoomMin">
                        <use xlink:href="#rim" fill="#404040">
                                <set attributeName="fill" to="#808080" begin="zoomminus.mouseover" end="zoomminus.mouseout"/>
                        </use>
                        <path d="M-4,0h8" fill="none" stroke="white" stroke-width="1.5" pointer-events="none"/>
                </g>
                <g id="dirArrow">
                        <path fill="none" stroke="white" stroke-width="1.5" d="M0,-3.0v7 M-2.5,-0.5L0,-3.0L2.5,-0.5"/>
                </g>
               <g id="resetDef">
                       <use xlink:href="#rim2" fill="#404040">
                               <set attributeName="fill" to="#808080" begin="reset.mouseover" end="reset.mouseout"/>
                       </use>
               </g>
        </defs>

<script type="text/javascript">
var viewWidth = 2938;
var viewHeight = 547;
var sectionId = 'dynsection-0';
</script>
<script xlink:href="svgpan.js"/>
<svg id="graph" class="graph">
<g id="viewport">
<title>itk::simple::ImageFilter</title>
<polygon fill="#ffffff" stroke="transparent" points="-4,4 -4,-543.4012 2934,-543.4012 2934,4 -4,4"/>
<!-- Node1 -->
<g id="node1" class="node">
<title>Node1</title>
<g id="a_node1"><a xlink:title="The base interface for SimpleITK filters that take one input image.">
<polygon fill="#bfbfbf" stroke="#000000" points="2010,-343.9012 2010,-362.9012 2139,-362.9012 2139,-343.9012 2010,-343.9012"/>
<text text-anchor="middle" x="2074.5" y="-350.9012" font-family="Helvetica,sans-Serif" font-size="10.00" fill="#000000">itk::simple::ImageFilter</text>
</a>
</g>
</g>
<!-- Node2 -->
<g id="node2" class="node">
<title>Node2</title>
<g id="a_node2"><a xlink:href="classitk_1_1simple_1_1ProcessObject.html" target="_top" xlink:title="Base class for SimpleITK classes based on ProcessObject.">
<polygon fill="#ffffff" stroke="#000000" points="1804,-343.9012 1804,-362.9012 1947,-362.9012 1947,-343.9012 1804,-343.9012"/>
<text text-anchor="middle" x="1875.5" y="-350.9012" font-family="Helvetica,sans-Serif" font-size="10.00" fill="#000000">itk::simple::ProcessObject</text>
</a>
</g>
</g>
<!-- Node2&#45;&gt;Node1 -->
<g id="edge1" class="edge">
<title>Node2&#45;&gt;Node1</title>
<path fill="none" stroke="#191970" d="M1957.2756,-353.4012C1974.7996,-353.4012 1993.0816,-353.4012 2009.8517,-353.4012"/>
<polygon fill="#191970" stroke="#191970" points="1957.0625,-349.9013 1947.0624,-353.4012 1957.0624,-356.9013 1957.0625,-349.9013"/>
</g>
<!-- Node9 -->
<g id="node9" class="node">
<title>Node9</title>
<g id="a_node9"><a xlink:title=" ">
<polygon fill="#ffffff" stroke="#bfbfbf" points="2016.5,-420.4012 2016.5,-450.4012 2132.5,-450.4012 2132.5,-420.4012 2016.5,-420.4012"/>
<text text-anchor="start" x="2024.5" y="-438.4012" font-family="Helvetica,sans-Serif" font-size="10.00" fill="#000000">std::set&lt; itk::simple</text>
<text text-anchor="middle" x="2074.5" y="-427.4012" font-family="Helvetica,sans-Serif" font-size="10.00" fill="#000000">::ProcessObject * &gt;</text>
</a>
</g>
</g>
<!-- Node2&#45;&gt;Node9 -->
<g id="edge10" class="edge">
<title>Node2&#45;&gt;Node9</title>
<path fill="none" stroke="#9a32cd" stroke-dasharray="5,2" d="M1908.1791,-366.867C1943.8498,-381.5654 2000.8231,-405.0419 2037.9515,-420.341"/>
<polygon fill="#9a32cd" stroke="#9a32cd" points="1909.2966,-363.542 1898.7173,-362.9681 1906.6297,-370.0141 1909.2966,-363.542"/>
<text text-anchor="middle" x="1978.5" y="-401.4012" font-family="Helvetica,sans-Serif" font-size="10.00" fill="#000000"> keys</text>
</g>
<!-- Node3 -->
<g id="node3" class="node">
<title>Node3</title>
<g id="a_node3"><a xlink:href="classitk_1_1simple_1_1NonCopyable.html" target="_top" xlink:title="An inheritable class to disable copying of a class.">
<polygon fill="#ffffff" stroke="#000000" points="1475.5,-369.9012 1475.5,-388.9012 1615.5,-388.9012 1615.5,-369.9012 1475.5,-369.9012"/>
<text text-anchor="middle" x="1545.5" y="-376.9012" font-family="Helvetica,sans-Serif" font-size="10.00" fill="#000000">itk::simple::NonCopyable</text>
</a>
</g>
</g>
<!-- Node3&#45;&gt;Node2 -->
<g id="edge2" class="edge">
<title>Node3&#45;&gt;Node2</title>
<path fill="none" stroke="#006400" d="M1626.1722,-373.0452C1680.4832,-368.7662 1751.4645,-363.1737 1803.796,-359.0506"/>
<polygon fill="#006400" stroke="#006400" points="1625.5827,-369.5807 1615.8885,-373.8554 1626.1326,-376.5591 1625.5827,-369.5807"/>
</g>
<!-- Node6 -->
<g id="node6" class="node">
<title>Node6</title>
<g id="a_node6"><a xlink:href="classitk_1_1simple_1_1Command.html" target="_top" xlink:title="An implementation of the Command design pattern for callback.">
<polygon fill="#ffffff" stroke="#000000" points="2285,-404.9012 2285,-423.9012 2410,-423.9012 2410,-404.9012 2285,-404.9012"/>
<text text-anchor="middle" x="2347.5" y="-411.9012" font-family="Helvetica,sans-Serif" font-size="10.00" fill="#000000">itk::simple::Command</text>
</a>
</g>
</g>
<!-- Node3&#45;&gt;Node6 -->
<g id="edge6" class="edge">
<title>Node3&#45;&gt;Node6</title>
<path fill="none" stroke="#006400" d="M1625.8664,-382.9085C1785.7923,-389.8878 2140.8774,-405.384 2284.9469,-411.6713"/>
<polygon fill="#006400" stroke="#006400" points="1625.762,-379.4007 1615.6189,-382.4613 1625.4568,-386.394 1625.762,-379.4007"/>
</g>
<!-- Node4 -->
<g id="node4" class="node">
<title>Node4</title>
<g id="a_node4"><a xlink:title=" ">
<polygon fill="#ffffff" stroke="#bfbfbf" points="2743,-300.4012 2743,-330.4012 2930,-330.4012 2930,-300.4012 2743,-300.4012"/>
<text text-anchor="start" x="2751" y="-318.4012" font-family="Helvetica,sans-Serif" font-size="10.00" fill="#000000">std::list&lt; itk::simple</text>
<text text-anchor="middle" x="2836.5" y="-307.4012" font-family="Helvetica,sans-Serif" font-size="10.00" fill="#000000">::ProcessObject::EventCommand &gt;</text>
</a>
</g>
</g>
<!-- Node4&#45;&gt;Node2 -->
<g id="edge3" class="edge">
<title>Node4&#45;&gt;Node2</title>
<path fill="none" stroke="#9a32cd" stroke-dasharray="5,2" d="M2732.6648,-315.4012C2687.7233,-315.4012 2634.5177,-315.4012 2586.5,-315.4012 2074.5,-315.4012 2074.5,-315.4012 2074.5,-315.4012 2014.0027,-315.4012 1944.9669,-332.555 1906.1756,-343.8122"/>
<polygon fill="#9a32cd" stroke="#9a32cd" points="2732.714,-318.9013 2742.714,-315.4012 2732.714,-311.9013 2732.714,-318.9013"/>
<text text-anchor="middle" x="2347.5" y="-318.4012" font-family="Helvetica,sans-Serif" font-size="10.00" fill="#000000"> m_Commands</text>
</g>
<!-- Node5 -->
<g id="node5" class="node">
<title>Node5</title>
<g id="a_node5"><a xlink:href="structitk_1_1simple_1_1ProcessObject_1_1EventCommand.html" target="_top" xlink:title=" ">
<polygon fill="#ffffff" stroke="#000000" points="2515,-382.4012 2515,-412.4012 2658,-412.4012 2658,-382.4012 2515,-382.4012"/>
<text text-anchor="start" x="2523" y="-400.4012" font-family="Helvetica,sans-Serif" font-size="10.00" fill="#000000">itk::simple::ProcessObject</text>
<text text-anchor="middle" x="2586.5" y="-389.4012" font-family="Helvetica,sans-Serif" font-size="10.00" fill="#000000">::EventCommand</text>
</a>
</g>
</g>
<!-- Node5&#45;&gt;Node4 -->
<g id="edge4" class="edge">
<title>Node5&#45;&gt;Node4</title>
<path fill="none" stroke="#9a32cd" stroke-dasharray="5,2" d="M2641.8862,-379.2345C2686.5343,-364.59 2748.5788,-344.2394 2790.5142,-330.4845"/>
<polygon fill="#9a32cd" stroke="#9a32cd" points="2640.7649,-375.9188 2632.3539,-382.3611 2642.9466,-382.5701 2640.7649,-375.9188"/>
<text text-anchor="middle" x="2700.5" y="-369.4012" font-family="Helvetica,sans-Serif" font-size="10.00" fill="#000000"> elements</text>
</g>
<!-- Node6&#45;&gt;Node5 -->
<g id="edge5" class="edge">
<title>Node6&#45;&gt;Node5</title>
<path fill="none" stroke="#9a32cd" stroke-dasharray="5,2" d="M2420.2769,-409.2246C2450.2797,-407.0905 2484.9464,-404.6247 2514.8326,-402.4989"/>
<polygon fill="#9a32cd" stroke="#9a32cd" points="2420.0209,-405.7339 2410.2944,-409.9347 2420.5176,-412.7162 2420.0209,-405.7339"/>
<text text-anchor="middle" x="2462.5" y="-411.4012" font-family="Helvetica,sans-Serif" font-size="10.00" fill="#000000"> m_Command</text>
</g>
<!-- Node7 -->
<g id="node7" class="node">
<title>Node7</title>
<g id="a_node7"><a xlink:title="STL class.">
<polygon fill="#ffffff" stroke="#bfbfbf" points="837,-378.9012 837,-397.9012 902,-397.9012 902,-378.9012 837,-378.9012"/>
<text text-anchor="middle" x="869.5" y="-385.9012" font-family="Helvetica,sans-Serif" font-size="10.00" fill="#000000">std::string</text>
</a>
</g>
</g>
<!-- Node7&#45;&gt;Node6 -->
<g id="edge7" class="edge">
<title>Node7&#45;&gt;Node6</title>
<path fill="none" stroke="#9a32cd" stroke-dasharray="5,2" d="M887.6714,-404.5733C903.8856,-418.0495 928.8835,-436.573 954,-446.4012 1129.77,-515.1807 1187.7522,-489.4012 1376.5,-489.4012 1376.5,-489.4012 1376.5,-489.4012 2074.5,-489.4012 2172.0665,-489.4012 2282.4647,-444.3089 2327.1354,-424.0526"/>
<polygon fill="#9a32cd" stroke="#9a32cd" points="889.9174,-401.8888 880.0389,-398.059 885.373,-407.2131 889.9174,-401.8888"/>
<text text-anchor="middle" x="1715" y="-492.4012" font-family="Helvetica,sans-Serif" font-size="10.00" fill="#000000"> m_Name</text>
</g>
<!-- Node15 -->
<g id="node15" class="node">
<title>Node15</title>
<g id="a_node15"><a xlink:href="https://www.itk.org/Doxygen/html/classitk_1_1Object.html" xlink:title=" ">
<polygon fill="#ffffff" stroke="#000000" points="1170,-232.9012 1170,-251.9012 1237,-251.9012 1237,-232.9012 1170,-232.9012"/>
<text text-anchor="middle" x="1203.5" y="-239.9012" font-family="Helvetica,sans-Serif" font-size="10.00" fill="#000000">itk::Object</text>
</a>
</g>
</g>
<!-- Node7&#45;&gt;Node15 -->
<g id="edge21" class="edge">
<title>Node7&#45;&gt;Node15</title>
<path fill="none" stroke="#9a32cd" stroke-dasharray="5,2" d="M889.7332,-372.5108C906.2497,-360.1678 930.6017,-343.361 954,-332.4012 1015.7581,-303.4737 1038.1587,-314.8935 1101,-288.4012 1109.4329,-284.8461 1110.7791,-282.4224 1119,-278.4012 1138.9107,-268.6621 1162.1115,-258.8857 1179.1596,-251.9837"/>
<polygon fill="#9a32cd" stroke="#9a32cd" points="887.2538,-369.9996 881.4194,-378.8433 891.4953,-375.5683 887.2538,-369.9996"/>
<text text-anchor="middle" x="1027.5" y="-335.4012" font-family="Helvetica,sans-Serif" font-size="10.00" fill="#000000"> m_ObjectName</text>
</g>
<!-- Node24 -->
<g id="node24" class="node">
<title>Node24</title>
<g id="a_node24"><a xlink:title=" ">
<polygon fill="#ffffff" stroke="#bfbfbf" points="1122.5,-430.4012 1122.5,-460.4012 1284.5,-460.4012 1284.5,-430.4012 1122.5,-430.4012"/>
<text text-anchor="start" x="1130.5" y="-448.4012" font-family="Helvetica,sans-Serif" font-size="10.00" fill="#000000">std::set&lt; DataObjectIdentifier</text>
<text text-anchor="middle" x="1203.5" y="-437.4012" font-family="Helvetica,sans-Serif" font-size="10.00" fill="#000000">Type &gt;</text>
</a>
</g>
</g>
<!-- Node7&#45;&gt;Node24 -->
<g id="edge32" class="edge">
<title>Node7&#45;&gt;Node24</title>
<path fill="none" stroke="#9a32cd" stroke-dasharray="5,2" d="M912.1453,-399.2415C925.4955,-402.4338 940.3149,-405.7719 954,-408.4012 1009.9041,-419.142 1073.3701,-428.5155 1122.3017,-435.1406"/>
<polygon fill="#9a32cd" stroke="#9a32cd" points="912.8092,-395.8011 902.2657,-396.8429 911.1577,-402.6035 912.8092,-395.8011"/>
<text text-anchor="middle" x="1027.5" y="-434.4012" font-family="Helvetica,sans-Serif" font-size="10.00" fill="#000000"> keys</text>
</g>
<!-- Node25 -->
<g id="node25" class="node">
<title>Node25</title>
<g id="a_node25"><a xlink:title=" ">
<polygon fill="#ffffff" stroke="#bfbfbf" points="1119,-381.4012 1119,-411.4012 1288,-411.4012 1288,-381.4012 1119,-381.4012"/>
<text text-anchor="start" x="1127" y="-399.4012" font-family="Helvetica,sans-Serif" font-size="10.00" fill="#000000">std::map&lt; DataObjectIdentifier</text>
<text text-anchor="middle" x="1203.5" y="-388.4012" font-family="Helvetica,sans-Serif" font-size="10.00" fill="#000000">Type, bool &gt;</text>
</a>
</g>
</g>
<!-- Node7&#45;&gt;Node25 -->
<g id="edge35" class="edge">
<title>Node7&#45;&gt;Node25</title>
<path fill="none" stroke="#9a32cd" stroke-dasharray="5,2" d="M912.3127,-389.4267C964.1903,-390.6692 1052.8234,-392.7922 1118.71,-394.3703"/>
<polygon fill="#9a32cd" stroke="#9a32cd" points="912.2144,-385.9234 902.1335,-389.1828 912.0467,-392.9214 912.2144,-385.9234"/>
<text text-anchor="middle" x="1027.5" y="-396.4012" font-family="Helvetica,sans-Serif" font-size="10.00" fill="#000000"> keys</text>
</g>
<!-- Node30 -->
<g id="node30" class="node">
<title>Node30</title>
<g id="a_node30"><a xlink:title=" ">
<polygon fill="#ffffff" stroke="#bfbfbf" points="1119,-288.4012 1119,-318.4012 1288,-318.4012 1288,-288.4012 1119,-288.4012"/>
<text text-anchor="start" x="1127" y="-306.4012" font-family="Helvetica,sans-Serif" font-size="10.00" fill="#000000">std::map&lt; DataObjectIdentifier</text>
<text text-anchor="middle" x="1203.5" y="-295.4012" font-family="Helvetica,sans-Serif" font-size="10.00" fill="#000000">Type, DataObjectPointer &gt;</text>
</a>
</g>
</g>
<!-- Node7&#45;&gt;Node30 -->
<g id="edge46" class="edge">
<title>Node7&#45;&gt;Node30</title>
<path fill="none" stroke="#9a32cd" stroke-dasharray="5,2" d="M912.3976,-381.3526C974.3063,-371.0966 1083.2549,-352.704 1101,-347.4012 1126.0488,-339.9158 1153.1833,-328.0892 1173.2379,-318.5815"/>
<polygon fill="#9a32cd" stroke="#9a32cd" points="911.4472,-377.9621 902.1522,-383.0467 912.5892,-384.8683 911.4472,-377.9621"/>
<text text-anchor="middle" x="1027.5" y="-377.4012" font-family="Helvetica,sans-Serif" font-size="10.00" fill="#000000"> keys</text>
</g>
<!-- Node8 -->
<g id="node8" class="node">
<title>Node8</title>
<g id="a_node8"><a xlink:title="STL class.">
<polygon fill="#ffffff" stroke="#bfbfbf" points="491.5,-370.4012 491.5,-400.4012 595.5,-400.4012 595.5,-370.4012 491.5,-370.4012"/>
<text text-anchor="start" x="499.5" y="-388.4012" font-family="Helvetica,sans-Serif" font-size="10.00" fill="#000000">std::basic_string&lt;</text>
<text text-anchor="middle" x="543.5" y="-377.4012" font-family="Helvetica,sans-Serif" font-size="10.00" fill="#000000"> char &gt;</text>
</a>
</g>
</g>
<!-- Node8&#45;&gt;Node7 -->
<g id="edge8" class="edge">
<title>Node8&#45;&gt;Node7</title>
<path fill="none" stroke="#191970" d="M605.8076,-385.9746C674.744,-386.609 783.1833,-387.6069 836.9855,-388.102"/>
<polygon fill="#191970" stroke="#191970" points="605.548,-382.4721 595.5161,-385.8799 605.4835,-389.4718 605.548,-382.4721"/>
</g>
<!-- Node9&#45;&gt;Node6 -->
<g id="edge9" class="edge">
<title>Node9&#45;&gt;Node6</title>
<path fill="none" stroke="#9a32cd" stroke-dasharray="5,2" d="M2142.9329,-430.1371C2186.4011,-426.7934 2242.2463,-422.4976 2284.6025,-419.2395"/>
<polygon fill="#9a32cd" stroke="#9a32cd" points="2142.4326,-426.6652 2132.7305,-430.9219 2142.9695,-433.6446 2142.4326,-426.6652"/>
<text text-anchor="middle" x="2212" y="-431.4012" font-family="Helvetica,sans-Serif" font-size="10.00" fill="#000000"> m_ReferencedObjects</text>
</g>
<!-- Node10 -->
<g id="node10" class="node">
<title>Node10</title>
<g id="a_node10"><a xlink:title="STL class.">
<polygon fill="#ffffff" stroke="#bfbfbf" points="828.5,-511.9012 828.5,-530.9012 910.5,-530.9012 910.5,-511.9012 828.5,-511.9012"/>
<text text-anchor="middle" x="869.5" y="-518.9012" font-family="Helvetica,sans-Serif" font-size="10.00" fill="#000000">std::set&lt; K &gt;</text>
</a>
</g>
</g>
<!-- Node10&#45;&gt;Node9 -->
<g id="edge11" class="edge">
<title>Node10&#45;&gt;Node9</title>
<path fill="none" stroke="#ffa500" stroke-dasharray="5,2" d="M920.8289,-524.3125C1060.4744,-531.4013 1458.7222,-546.0748 1786,-504.4012 1871.6983,-493.4889 1968.962,-467.2502 2025.8367,-450.4567"/>
<polygon fill="#ffa500" stroke="#ffa500" points="921.0036,-520.817 910.8361,-523.7956 920.6419,-527.8076 921.0036,-520.817"/>
<text text-anchor="middle" x="1545.5" y="-531.4012" font-family="Helvetica,sans-Serif" font-size="10.00" fill="#000000"> &lt; itk::simple::ProcessObject * &gt;</text>
</g>
<!-- Node10&#45;&gt;Node24 -->
<g id="edge33" class="edge">
<title>Node10&#45;&gt;Node24</title>
<path fill="none" stroke="#ffa500" stroke-dasharray="5,2" d="M920.8397,-509.7191C978.917,-496.5039 1073.6689,-474.9436 1137.2718,-460.4711"/>
<polygon fill="#ffa500" stroke="#ffa500" points="919.7641,-506.3743 910.7899,-512.0059 921.3173,-513.1998 919.7641,-506.3743"/>
<text text-anchor="middle" x="1027.5" y="-503.4012" font-family="Helvetica,sans-Serif" font-size="10.00" fill="#000000"> &lt; DataObjectIdentifierType &gt;</text>
</g>
<!-- Node11 -->
<g id="node11" class="node">
<title>Node11</title>
<g id="a_node11"><a xlink:title=" ">
<polygon fill="#ffffff" stroke="#bfbfbf" points="0,-419.9012 0,-438.9012 29,-438.9012 29,-419.9012 0,-419.9012"/>
<text text-anchor="middle" x="14.5" y="-426.9012" font-family="Helvetica,sans-Serif" font-size="10.00" fill="#000000">K</text>
</a>
</g>
</g>
<!-- Node11&#45;&gt;Node10 -->
<g id="edge12" class="edge">
<title>Node11&#45;&gt;Node10</title>
<path fill="none" stroke="#9a32cd" stroke-dasharray="5,2" d="M39.3779,-432.0781C159.2439,-444.976 677.5943,-500.7517 828.2751,-516.9653"/>
<polygon fill="#9a32cd" stroke="#9a32cd" points="39.6572,-428.5881 29.3401,-430.998 38.9083,-435.5479 39.6572,-428.5881"/>
<text text-anchor="middle" x="358" y="-476.4012" font-family="Helvetica,sans-Serif" font-size="10.00" fill="#000000"> keys</text>
</g>
<!-- Node21 -->
<g id="node21" class="node">
<title>Node21</title>
<g id="a_node21"><a xlink:title="STL class.">
<polygon fill="#ffffff" stroke="#bfbfbf" points="135,-326.9012 135,-345.9012 236,-345.9012 236,-326.9012 135,-326.9012"/>
<text text-anchor="middle" x="185.5" y="-333.9012" font-family="Helvetica,sans-Serif" font-size="10.00" fill="#000000">std::map&lt; K, T &gt;</text>
</a>
</g>
</g>
<!-- Node11&#45;&gt;Node21 -->
<g id="edge25" class="edge">
<title>Node11&#45;&gt;Node21</title>
<path fill="none" stroke="#9a32cd" stroke-dasharray="5,2" d="M38.0443,-416.5964C72.7849,-397.7024 136.9963,-362.7804 167.9339,-345.9547"/>
<polygon fill="#9a32cd" stroke="#9a32cd" points="36.192,-413.6196 29.0794,-421.4721 39.5364,-419.769 36.192,-413.6196"/>
<text text-anchor="middle" x="71.5" y="-414.4012" font-family="Helvetica,sans-Serif" font-size="10.00" fill="#000000"> keys</text>
</g>
<!-- Node12 -->
<g id="node12" class="node">
<title>Node12</title>
<g id="a_node12"><a xlink:title="STL class.">
<polygon fill="#ffffff" stroke="#bfbfbf" points="317.5,-1.9012 317.5,-20.9012 398.5,-20.9012 398.5,-1.9012 317.5,-1.9012"/>
<text text-anchor="middle" x="358" y="-8.9012" font-family="Helvetica,sans-Serif" font-size="10.00" fill="#000000">std::list&lt; T &gt;</text>
</a>
</g>
</g>
<!-- Node12&#45;&gt;Node4 -->
<g id="edge13" class="edge">
<title>Node12&#45;&gt;Node4</title>
<path fill="none" stroke="#ffa500" stroke-dasharray="5,2" d="M408.9347,-14.1864C478.2627,-17.7315 606.223,-23.4012 715.5,-23.4012 715.5,-23.4012 715.5,-23.4012 2586.5,-23.4012 2733.6534,-23.4012 2812.7836,-240.032 2831.9001,-300.1131"/>
<polygon fill="#ffa500" stroke="#ffa500" points="408.8995,-10.68 398.7319,-13.6583 408.5376,-17.6706 408.8995,-10.68"/>
<text text-anchor="start" x="1644" y="-37.4012" font-family="Helvetica,sans-Serif" font-size="10.00" fill="#000000"> &lt; itk::simple::ProcessObject</text>
<text text-anchor="middle" x="1715" y="-26.4012" font-family="Helvetica,sans-Serif" font-size="10.00" fill="#000000">::EventCommand &gt;</text>
</g>
<!-- Node13 -->
<g id="node13" class="node">
<title>Node13</title>
<g id="a_node13"><a xlink:title=" ">
<polygon fill="#ffffff" stroke="#bfbfbf" points="0,-150.9012 0,-169.9012 29,-169.9012 29,-150.9012 0,-150.9012"/>
<text text-anchor="middle" x="14.5" y="-157.9012" font-family="Helvetica,sans-Serif" font-size="10.00" fill="#000000">T</text>
</a>
</g>
</g>
<!-- Node13&#45;&gt;Node12 -->
<g id="edge14" class="edge">
<title>Node13&#45;&gt;Node12</title>
<path fill="none" stroke="#9a32cd" stroke-dasharray="5,2" d="M22.3641,-141.4128C35.9872,-111.281 67.0946,-53.3751 114,-28.4012 178.4692,5.9242 266.4534,1.7989 317.2519,-4.604"/>
<polygon fill="#9a32cd" stroke="#9a32cd" points="19.0546,-140.2467 18.2773,-150.813 25.4742,-143.0376 19.0546,-140.2467"/>
<text text-anchor="middle" x="71.5" y="-98.4012" font-family="Helvetica,sans-Serif" font-size="10.00" fill="#000000"> elements</text>
</g>
<!-- Node18 -->
<g id="node18" class="node">
<title>Node18</title>
<g id="a_node18"><a xlink:title="STL class.">
<polygon fill="#ffffff" stroke="#bfbfbf" points="135.5,-150.9012 135.5,-169.9012 235.5,-169.9012 235.5,-150.9012 135.5,-150.9012"/>
<text text-anchor="middle" x="185.5" y="-157.9012" font-family="Helvetica,sans-Serif" font-size="10.00" fill="#000000">std::atomic&lt; T &gt;</text>
</a>
</g>
</g>
<!-- Node13&#45;&gt;Node18 -->
<g id="edge20" class="edge">
<title>Node13&#45;&gt;Node18</title>
<path fill="none" stroke="#9a32cd" stroke-dasharray="5,2" d="M39.1655,-160.4012C64.1796,-160.4012 103.6056,-160.4012 135.2345,-160.4012"/>
<polygon fill="#9a32cd" stroke="#9a32cd" points="39.0794,-156.9013 29.0794,-160.4012 39.0793,-163.9013 39.0794,-156.9013"/>
<text text-anchor="middle" x="71.5" y="-163.4012" font-family="Helvetica,sans-Serif" font-size="10.00" fill="#000000"> ptr</text>
</g>
<!-- Node13&#45;&gt;Node21 -->
<g id="edge26" class="edge">
<title>Node13&#45;&gt;Node21</title>
<path fill="none" stroke="#9a32cd" stroke-dasharray="5,2" d="M25.5721,-178.8398C31.4654,-188.0799 39.1129,-199.2247 47,-208.4012 88.8291,-257.0685 147.7936,-306.2452 173.1354,-326.6235"/>
<polygon fill="#9a32cd" stroke="#9a32cd" points="28.3739,-176.7167 20.1293,-170.0626 22.4249,-180.4057 28.3739,-176.7167"/>
<text text-anchor="middle" x="71.5" y="-260.4012" font-family="Helvetica,sans-Serif" font-size="10.00" fill="#000000"> elements</text>
</g>
<!-- Node22 -->
<g id="node22" class="node">
<title>Node22</title>
<g id="a_node22"><a xlink:title="STL class.">
<polygon fill="#ffffff" stroke="#bfbfbf" points="126.5,-208.9012 126.5,-227.9012 244.5,-227.9012 244.5,-208.9012 126.5,-208.9012"/>
<text text-anchor="middle" x="185.5" y="-215.9012" font-family="Helvetica,sans-Serif" font-size="10.00" fill="#000000">std::shared_ptr&lt; T &gt;</text>
</a>
</g>
</g>
<!-- Node13&#45;&gt;Node22 -->
<g id="edge28" class="edge">
<title>Node13&#45;&gt;Node22</title>
<path fill="none" stroke="#9a32cd" stroke-dasharray="5,2" d="M38.5194,-171.9133C41.3551,-173.1452 44.2263,-174.3359 47,-175.4012 81.5498,-188.6716 122.0885,-200.8801 150.3463,-208.8705"/>
<polygon fill="#9a32cd" stroke="#9a32cd" points="39.7618,-168.6335 29.2092,-167.6876 36.8686,-175.0077 39.7618,-168.6335"/>
<text text-anchor="middle" x="71.5" y="-196.4012" font-family="Helvetica,sans-Serif" font-size="10.00" fill="#000000"> ptr</text>
</g>
<!-- Node29 -->
<g id="node29" class="node">
<title>Node29</title>
<g id="a_node29"><a xlink:title="STL class.">
<polygon fill="#ffffff" stroke="#bfbfbf" points="137,-94.9012 137,-113.9012 234,-113.9012 234,-94.9012 137,-94.9012"/>
<text text-anchor="middle" x="185.5" y="-101.9012" font-family="Helvetica,sans-Serif" font-size="10.00" fill="#000000">std::vector&lt; T &gt;</text>
</a>
</g>
</g>
<!-- Node13&#45;&gt;Node29 -->
<g id="edge42" class="edge">
<title>Node13&#45;&gt;Node29</title>
<path fill="none" stroke="#9a32cd" stroke-dasharray="5,2" d="M38.5055,-148.8527C41.3437,-147.6273 44.2194,-146.4482 47,-145.4012 80.5594,-132.7652 119.8424,-121.4528 147.9832,-113.9282"/>
<polygon fill="#9a32cd" stroke="#9a32cd" points="36.8571,-145.7571 29.1931,-153.0723 39.7462,-152.1331 36.8571,-145.7571"/>
<text text-anchor="middle" x="71.5" y="-148.4012" font-family="Helvetica,sans-Serif" font-size="10.00" fill="#000000"> elements</text>
</g>
<!-- Node14 -->
<g id="node14" class="node">
<title>Node14</title>
<g id="a_node14"><a xlink:href="https://www.itk.org/Doxygen/html/classitk_1_1ProcessObject.html" xlink:title=" ">
<polygon fill="#ffffff" stroke="#000000" points="1493.5,-249.9012 1493.5,-268.9012 1597.5,-268.9012 1597.5,-249.9012 1493.5,-249.9012"/>
<text text-anchor="middle" x="1545.5" y="-256.9012" font-family="Helvetica,sans-Serif" font-size="10.00" fill="#000000">itk::ProcessObject</text>
</a>
</g>
</g>
<!-- Node14&#45;&gt;Node2 -->
<g id="edge15" class="edge">
<title>Node14&#45;&gt;Node2</title>
<path fill="none" stroke="#9a32cd" stroke-dasharray="5,2" d="M1588.7296,-271.7151C1655.3563,-290.6936 1781.7273,-326.6902 1841.9532,-343.8455"/>
<polygon fill="#9a32cd" stroke="#9a32cd" points="1589.5345,-268.3052 1578.9582,-268.9317 1587.6168,-275.0374 1589.5345,-268.3052"/>
<text text-anchor="middle" x="1715" y="-329.4012" font-family="Helvetica,sans-Serif" font-size="10.00" fill="#000000"> m_ActiveProcess</text>
</g>
<!-- Node15&#45;&gt;Node14 -->
<g id="edge16" class="edge">
<title>Node15&#45;&gt;Node14</title>
<path fill="none" stroke="#191970" d="M1247.2342,-244.5751C1310.2043,-247.7052 1426.2158,-253.4719 1493.4933,-256.8161"/>
<polygon fill="#191970" stroke="#191970" points="1247.3897,-241.0786 1237.2282,-244.0778 1247.0421,-248.07 1247.3897,-241.0786"/>
</g>
<!-- Node16 -->
<g id="node16" class="node">
<title>Node16</title>
<g id="a_node16"><a xlink:href="https://www.itk.org/Doxygen/html/classitk_1_1LightObject.html" xlink:title=" ">
<polygon fill="#ffffff" stroke="#000000" points="824,-192.9012 824,-211.9012 915,-211.9012 915,-192.9012 824,-192.9012"/>
<text text-anchor="middle" x="869.5" y="-199.9012" font-family="Helvetica,sans-Serif" font-size="10.00" fill="#000000">itk::LightObject</text>
</a>
</g>
</g>
<!-- Node16&#45;&gt;Node15 -->
<g id="edge17" class="edge">
<title>Node16&#45;&gt;Node15</title>
<path fill="none" stroke="#191970" d="M925.1848,-209.07C995.0138,-217.4328 1112.5183,-231.5052 1169.913,-238.3788"/>
<polygon fill="#191970" stroke="#191970" points="925.5862,-205.5932 915.241,-207.8792 924.7538,-212.5435 925.5862,-205.5932"/>
</g>
<!-- Node17 -->
<g id="node17" class="node">
<title>Node17</title>
<g id="a_node17"><a xlink:title=" ">
<polygon fill="#ffffff" stroke="#bfbfbf" points="490,-189.9012 490,-208.9012 597,-208.9012 597,-189.9012 490,-189.9012"/>
<text text-anchor="middle" x="543.5" y="-196.9012" font-family="Helvetica,sans-Serif" font-size="10.00" fill="#000000">std::atomic&lt; int &gt;</text>
</a>
</g>
</g>
<!-- Node17&#45;&gt;Node16 -->
<g id="edge18" class="edge">
<title>Node17&#45;&gt;Node16</title>
<path fill="none" stroke="#9a32cd" stroke-dasharray="5,2" d="M607.6573,-199.9916C671.3558,-200.5778 767.4107,-201.4617 823.7553,-201.9802"/>
<polygon fill="#9a32cd" stroke="#9a32cd" points="607.3641,-196.4889 597.3323,-199.8966 607.2996,-203.4886 607.3641,-196.4889"/>
<text text-anchor="middle" x="715.5" y="-205.4012" font-family="Helvetica,sans-Serif" font-size="10.00" fill="#000000"> m_ReferenceCount</text>
</g>
<!-- Node18&#45;&gt;Node17 -->
<g id="edge19" class="edge">
<title>Node18&#45;&gt;Node17</title>
<path fill="none" stroke="#ffa500" stroke-dasharray="5,2" d="M245.6739,-170.3401C255.4618,-171.8051 265.5021,-173.2173 275,-174.4012 349.3308,-183.6661 435.6309,-191.1155 489.9032,-195.3997"/>
<polygon fill="#ffa500" stroke="#ffa500" points="246.0123,-166.8512 235.5985,-168.8015 244.9556,-173.771 246.0123,-166.8512"/>
<text text-anchor="middle" x="358" y="-194.4012" font-family="Helvetica,sans-Serif" font-size="10.00" fill="#000000"> &lt; int &gt;</text>
</g>
<!-- Node23 -->
<g id="node23" class="node">
<title>Node23</title>
<g id="a_node23"><a xlink:href="https://www.itk.org/Doxygen/html/classitk_1_1TimeStamp.html" xlink:title=" ">
<polygon fill="#ffffff" stroke="#000000" points="823.5,-150.9012 823.5,-169.9012 915.5,-169.9012 915.5,-150.9012 823.5,-150.9012"/>
<text text-anchor="middle" x="869.5" y="-157.9012" font-family="Helvetica,sans-Serif" font-size="10.00" fill="#000000">itk::TimeStamp</text>
</a>
</g>
</g>
<!-- Node18&#45;&gt;Node23 -->
<g id="edge30" class="edge">
<title>Node18&#45;&gt;Node23</title>
<path fill="none" stroke="#9a32cd" stroke-dasharray="5,2" d="M245.6397,-160.4012C380.1226,-160.4012 702.7873,-160.4012 823.1726,-160.4012"/>
<polygon fill="#9a32cd" stroke="#9a32cd" points="245.5191,-156.9013 235.519,-160.4012 245.519,-163.9013 245.5191,-156.9013"/>
<text text-anchor="middle" x="543.5" y="-163.4012" font-family="Helvetica,sans-Serif" font-size="10.00" fill="#000000"> m_GlobalTimeStamp</text>
</g>
<!-- Node26 -->
<g id="node26" class="node">
<title>Node26</title>
<g id="a_node26"><a xlink:title=" ">
<polygon fill="#ffffff" stroke="#bfbfbf" points="648.5,-103.9012 648.5,-122.9012 782.5,-122.9012 782.5,-103.9012 648.5,-103.9012"/>
<text text-anchor="middle" x="715.5" y="-110.9012" font-family="Helvetica,sans-Serif" font-size="10.00" fill="#000000">std::atomic&lt; uint32_t &gt;</text>
</a>
</g>
</g>
<!-- Node18&#45;&gt;Node26 -->
<g id="edge38" class="edge">
<title>Node18&#45;&gt;Node26</title>
<path fill="none" stroke="#ffa500" stroke-dasharray="5,2" d="M223.2856,-147.8353C239.0889,-143.1085 257.7573,-138.2041 275,-135.4012 405.9406,-114.1163 561.4005,-111.5648 648.2216,-112.1393"/>
<polygon fill="#ffa500" stroke="#ffa500" points="221.8855,-144.6042 213.3582,-150.8919 223.9454,-151.2942 221.8855,-144.6042"/>
<text text-anchor="middle" x="358" y="-138.4012" font-family="Helvetica,sans-Serif" font-size="10.00" fill="#000000"> &lt; uint32_t &gt;</text>
</g>
<!-- Node19 -->
<g id="node19" class="node">
<title>Node19</title>
<g id="a_node19"><a xlink:href="https://www.itk.org/Doxygen/html/classitk_1_1MetaDataDictionary.html" xlink:title=" ">
<polygon fill="#ffffff" stroke="#000000" points="803,-233.9012 803,-252.9012 936,-252.9012 936,-233.9012 803,-233.9012"/>
<text text-anchor="middle" x="869.5" y="-240.9012" font-family="Helvetica,sans-Serif" font-size="10.00" fill="#000000">itk::MetaDataDictionary</text>
</a>
</g>
</g>
<!-- Node19&#45;&gt;Node15 -->
<g id="edge22" class="edge">
<title>Node19&#45;&gt;Node15</title>
<path fill="none" stroke="#9a32cd" stroke-dasharray="5,2" d="M946.4598,-243.1708C1016.9746,-242.9597 1118.042,-242.6571 1169.9347,-242.5017"/>
<polygon fill="#9a32cd" stroke="#9a32cd" points="946.2766,-239.6712 936.2871,-243.2012 946.2976,-246.6712 946.2766,-239.6712"/>
<text text-anchor="middle" x="1027.5" y="-246.4012" font-family="Helvetica,sans-Serif" font-size="10.00" fill="#000000"> m_MetaDataDictionary</text>
</g>
<!-- Node20 -->
<g id="node20" class="node">
<title>Node20</title>
<g id="a_node20"><a xlink:title=" ">
<polygon fill="#ffffff" stroke="#bfbfbf" points="469.5,-228.4012 469.5,-258.4012 617.5,-258.4012 617.5,-228.4012 469.5,-228.4012"/>
<text text-anchor="start" x="477.5" y="-246.4012" font-family="Helvetica,sans-Serif" font-size="10.00" fill="#000000">std::shared_ptr&lt; MetaData</text>
<text text-anchor="middle" x="543.5" y="-235.4012" font-family="Helvetica,sans-Serif" font-size="10.00" fill="#000000">DictionaryMapType &gt;</text>
</a>
</g>
</g>
<!-- Node20&#45;&gt;Node19 -->
<g id="edge23" class="edge">
<title>Node20&#45;&gt;Node19</title>
<path fill="none" stroke="#9a32cd" stroke-dasharray="5,2" d="M628.2122,-243.4012C682.6717,-243.4012 752.4222,-243.4012 802.9097,-243.4012"/>
<polygon fill="#9a32cd" stroke="#9a32cd" points="627.8824,-239.9013 617.8824,-243.4012 627.8823,-246.9013 627.8824,-239.9013"/>
<text text-anchor="middle" x="715.5" y="-246.4012" font-family="Helvetica,sans-Serif" font-size="10.00" fill="#000000"> m_Dictionary</text>
</g>
<!-- Node21&#45;&gt;Node20 -->
<g id="edge24" class="edge">
<title>Node21&#45;&gt;Node20</title>
<path fill="none" stroke="#9a32cd" stroke-dasharray="5,2" d="M228.8304,-324.0687C243.4723,-319.9625 259.9265,-315.4145 275,-311.4012 345.979,-292.5029 427.8477,-271.9473 482.3404,-258.4404"/>
<polygon fill="#9a32cd" stroke="#9a32cd" points="227.7004,-320.7507 219.0225,-326.8289 229.5968,-327.4889 227.7004,-320.7507"/>
<text text-anchor="middle" x="358" y="-314.4012" font-family="Helvetica,sans-Serif" font-size="10.00" fill="#000000"> ptr</text>
</g>
<!-- Node21&#45;&gt;Node25 -->
<g id="edge36" class="edge">
<title>Node21&#45;&gt;Node25</title>
<path fill="none" stroke="#ffa500" stroke-dasharray="5,2" d="M221.5084,-349.4323C273.227,-367.3875 371.9154,-398.8282 459,-410.4012 521.8581,-418.7547 763.6507,-428.797 1101,-408.4012 1106.8123,-408.0498 1112.8008,-407.5942 1118.8272,-407.0666"/>
<polygon fill="#ffa500" stroke="#ffa500" points="222.4031,-346.0371 211.8083,-346.0309 220.0868,-352.6428 222.4031,-346.0371"/>
<text text-anchor="start" x="646" y="-433.4012" font-family="Helvetica,sans-Serif" font-size="10.00" fill="#000000"> &lt; DataObjectIdentifierType,</text>
<text text-anchor="middle" x="715.5" y="-422.4012" font-family="Helvetica,sans-Serif" font-size="10.00" fill="#000000"> bool &gt;</text>
</g>
<!-- Node21&#45;&gt;Node30 -->
<g id="edge47" class="edge">
<title>Node21&#45;&gt;Node30</title>
<path fill="none" stroke="#ffa500" stroke-dasharray="5,2" d="M246.2077,-338.9821C393.3,-344.4724 780.2829,-354.3497 1101,-322.4012 1110.7249,-321.4324 1120.9079,-320.027 1130.9229,-318.4122"/>
<polygon fill="#ffa500" stroke="#ffa500" points="246.1617,-335.4779 236.0358,-338.595 245.8954,-342.4728 246.1617,-335.4779"/>
<text text-anchor="start" x="646" y="-359.4012" font-family="Helvetica,sans-Serif" font-size="10.00" fill="#000000"> &lt; DataObjectIdentifierType,</text>
<text text-anchor="middle" x="715.5" y="-348.4012" font-family="Helvetica,sans-Serif" font-size="10.00" fill="#000000"> DataObjectPointer &gt;</text>
</g>
<!-- Node22&#45;&gt;Node20 -->
<g id="edge27" class="edge">
<title>Node22&#45;&gt;Node20</title>
<path fill="none" stroke="#ffa500" stroke-dasharray="5,2" d="M254.6388,-223.2293C316.2848,-227.5342 406.2772,-233.8186 469.39,-238.2259"/>
<polygon fill="#ffa500" stroke="#ffa500" points="254.836,-219.7347 244.6164,-222.5294 254.3483,-226.7177 254.836,-219.7347"/>
<text text-anchor="middle" x="358" y="-239.4012" font-family="Helvetica,sans-Serif" font-size="10.00" fill="#000000"> &lt; MetaDataDictionaryMapType &gt;</text>
</g>
<!-- Node23&#45;&gt;Node14 -->
<g id="edge48" class="edge">
<title>Node23&#45;&gt;Node14</title>
<path fill="none" stroke="#9a32cd" stroke-dasharray="5,2" d="M926.0726,-159.031C973.0678,-158.5718 1041.5983,-159.4747 1101,-166.4012 1255.6633,-184.4357 1436.2471,-229.996 1510.7031,-249.8768"/>
<polygon fill="#9a32cd" stroke="#9a32cd" points="925.7491,-155.5346 915.7927,-159.1565 925.8347,-162.534 925.7491,-155.5346"/>
<text text-anchor="middle" x="1203.5" y="-200.4012" font-family="Helvetica,sans-Serif" font-size="10.00" fill="#000000"> m_OutputInformationMTime</text>
</g>
<!-- Node23&#45;&gt;Node15 -->
<g id="edge29" class="edge">
<title>Node23&#45;&gt;Node15</title>
<path fill="none" stroke="#9a32cd" stroke-dasharray="5,2" d="M925.9866,-165.7951C973.3922,-171.2383 1042.5399,-181.3317 1101,-198.4012 1131.4863,-207.3028 1164.9781,-222.8568 1185.113,-232.8867"/>
<polygon fill="#9a32cd" stroke="#9a32cd" points="926.242,-162.3019 915.9154,-164.6711 925.4655,-169.2587 926.242,-162.3019"/>
<text text-anchor="middle" x="1027.5" y="-201.4012" font-family="Helvetica,sans-Serif" font-size="10.00" fill="#000000"> m_MTime</text>
</g>
<!-- Node24&#45;&gt;Node14 -->
<g id="edge31" class="edge">
<title>Node24&#45;&gt;Node14</title>
<path fill="none" stroke="#9a32cd" stroke-dasharray="5,2" d="M1294.6589,-443.2918C1343.8662,-438.0565 1403.2976,-424.6931 1447,-392.4012 1460.1238,-382.704 1455.8854,-373.9362 1465,-360.4012 1488.797,-325.0633 1521.6131,-286.545 1536.9522,-269.0329"/>
<polygon fill="#9a32cd" stroke="#9a32cd" points="1294.2589,-439.8141 1284.6428,-444.2617 1294.9336,-446.7815 1294.2589,-439.8141"/>
<text text-anchor="middle" x="1376.5" y="-443.4012" font-family="Helvetica,sans-Serif" font-size="10.00" fill="#000000"> m_RequiredInputNames</text>
</g>
<!-- Node25&#45;&gt;Node14 -->
<g id="edge34" class="edge">
<title>Node25&#45;&gt;Node14</title>
<path fill="none" stroke="#9a32cd" stroke-dasharray="5,2" d="M1268.5008,-378.5584C1318.3135,-363.9874 1388.2435,-341.573 1447,-315.4012 1477.907,-301.6344 1511.7472,-281.0874 1530.6272,-269.0857"/>
<polygon fill="#9a32cd" stroke="#9a32cd" points="1267.4453,-375.2202 1258.8157,-381.3668 1269.3949,-381.9433 1267.4453,-375.2202"/>
<text text-anchor="start" x="1306" y="-380.4012" font-family="Helvetica,sans-Serif" font-size="10.00" fill="#000000"> m_CachedInputReleaseData</text>
<text text-anchor="middle" x="1376.5" y="-369.4012" font-family="Helvetica,sans-Serif" font-size="10.00" fill="#000000">Flags</text>
</g>
<!-- Node26&#45;&gt;Node14 -->
<g id="edge37" class="edge">
<title>Node26&#45;&gt;Node14</title>
<path fill="none" stroke="#9a32cd" stroke-dasharray="5,2" d="M793.0419,-109.4358C930.2034,-105.2001 1222.3269,-108.778 1447,-198.4012 1480.4422,-211.7414 1515.2749,-236.2495 1533.2034,-249.7858"/>
<polygon fill="#9a32cd" stroke="#9a32cd" points="792.5195,-105.9512 782.6413,-109.7814 792.752,-112.9473 792.5195,-105.9512"/>
<text text-anchor="middle" x="1027.5" y="-122.4012" font-family="Helvetica,sans-Serif" font-size="10.00" fill="#000000"> m_Progress</text>
</g>
<!-- Node27 -->
<g id="node27" class="node">
<title>Node27</title>
<g id="a_node27"><a xlink:title=" ">
<polygon fill="#ffffff" stroke="#bfbfbf" points="459,-52.4012 459,-82.4012 628,-82.4012 628,-52.4012 459,-52.4012"/>
<text text-anchor="start" x="467" y="-70.4012" font-family="Helvetica,sans-Serif" font-size="10.00" fill="#000000">std::vector&lt; DataObjectPointer</text>
<text text-anchor="middle" x="543.5" y="-59.4012" font-family="Helvetica,sans-Serif" font-size="10.00" fill="#000000">Map::iterator &gt;</text>
</a>
</g>
</g>
<!-- Node27&#45;&gt;Node14 -->
<g id="edge39" class="edge">
<title>Node27&#45;&gt;Node14</title>
<path fill="none" stroke="#9a32cd" stroke-dasharray="5,2" d="M638.4791,-65.9928C749.6688,-65.3392 939.2141,-67.3234 1101,-84.4012 1185.007,-93.2688 1205.0826,-102.2612 1288,-118.4012 1358.843,-132.1909 1384.2958,-115.665 1447,-151.4012 1491.0956,-176.5321 1526.4115,-228.3139 1539.7521,-249.7659"/>
<polygon fill="#9a32cd" stroke="#9a32cd" points="638.274,-62.494 628.2979,-66.0614 638.3212,-69.4939 638.274,-62.494"/>
<text text-anchor="middle" x="1027.5" y="-98.4012" font-family="Helvetica,sans-Serif" font-size="10.00" fill="#000000"> m_IndexedOutputs</text>
<text text-anchor="middle" x="1027.5" y="-87.4012" font-family="Helvetica,sans-Serif" font-size="10.00" fill="#000000">m_IndexedInputs</text>
</g>
<!-- Node28 -->
<g id="node28" class="node">
<title>Node28</title>
<g id="a_node28"><a xlink:title="STL iterator class.">
<polygon fill="#ffffff" stroke="#bfbfbf" points="114,-37.9012 114,-56.9012 257,-56.9012 257,-37.9012 114,-37.9012"/>
<text text-anchor="middle" x="185.5" y="-44.9012" font-family="Helvetica,sans-Serif" font-size="10.00" fill="#000000">std::map&lt; K, T &gt;::iterator</text>
</a>
</g>
</g>
<!-- Node28&#45;&gt;Node27 -->
<g id="edge40" class="edge">
<title>Node28&#45;&gt;Node27</title>
<path fill="none" stroke="#9a32cd" stroke-dasharray="5,2" d="M267.3498,-46.4497C269.9295,-46.4315 272.4846,-46.4153 275,-46.4012 348.7766,-45.9891 367.5985,-38.9593 441,-46.4012 453.8312,-47.7021 467.4294,-49.8967 480.3821,-52.3893"/>
<polygon fill="#9a32cd" stroke="#9a32cd" points="267.2812,-42.95 257.309,-46.5283 267.3361,-49.9498 267.2812,-42.95"/>
<text text-anchor="middle" x="358" y="-49.4012" font-family="Helvetica,sans-Serif" font-size="10.00" fill="#000000"> elements</text>
</g>
<!-- Node29&#45;&gt;Node27 -->
<g id="edge41" class="edge">
<title>Node29&#45;&gt;Node27</title>
<path fill="none" stroke="#ffa500" stroke-dasharray="5,2" d="M224.7631,-91.9267C240.2563,-87.5186 258.3115,-83.012 275,-80.4012 336.0936,-70.8435 405.8734,-67.697 458.9818,-66.8854"/>
<polygon fill="#ffa500" stroke="#ffa500" points="223.6051,-88.6187 214.9919,-94.7882 225.5726,-95.3366 223.6051,-88.6187"/>
<text text-anchor="start" x="296" y="-94.4012" font-family="Helvetica,sans-Serif" font-size="10.00" fill="#000000"> &lt; DataObjectPointerMap</text>
<text text-anchor="middle" x="358" y="-83.4012" font-family="Helvetica,sans-Serif" font-size="10.00" fill="#000000">::iterator &gt;</text>
</g>
<!-- Node30&#45;&gt;Node14 -->
<g id="edge43" class="edge">
<title>Node30&#45;&gt;Node14</title>
<path fill="none" stroke="#9a32cd" stroke-dasharray="5,2" d="M1297.9971,-291.2437C1361.0198,-283.1355 1441.5064,-272.7805 1493.2814,-266.1194"/>
<polygon fill="#9a32cd" stroke="#9a32cd" points="1297.511,-287.7773 1288.0393,-292.5248 1298.4042,-294.7201 1297.511,-287.7773"/>
<text text-anchor="middle" x="1376.5" y="-303.4012" font-family="Helvetica,sans-Serif" font-size="10.00" fill="#000000"> m_Outputs</text>
<text text-anchor="middle" x="1376.5" y="-292.4012" font-family="Helvetica,sans-Serif" font-size="10.00" fill="#000000">m_Inputs</text>
</g>
<!-- Node31 -->
<g id="node31" class="node">
<title>Node31</title>
<g id="a_node31"><a xlink:href="https://www.itk.org/Doxygen/html/classitk_1_1SmartPointer.html" xlink:title=" ">
<polygon fill="#ffffff" stroke="#000000" points="816,-275.4012 816,-305.4012 923,-305.4012 923,-275.4012 816,-275.4012"/>
<text text-anchor="start" x="824" y="-293.4012" font-family="Helvetica,sans-Serif" font-size="10.00" fill="#000000">itk::SmartPointer&lt;</text>
<text text-anchor="middle" x="869.5" y="-282.4012" font-family="Helvetica,sans-Serif" font-size="10.00" fill="#000000"> Self &gt;</text>
</a>
</g>
</g>
<!-- Node31&#45;&gt;Node30 -->
<g id="edge44" class="edge">
<title>Node31&#45;&gt;Node30</title>
<path fill="none" stroke="#9a32cd" stroke-dasharray="5,2" d="M933.5051,-279.5039C940.406,-278.6429 947.3379,-277.9107 954,-277.4012 1019.1431,-272.4195 1036.17,-269.307 1101,-277.4012 1118.7618,-279.6188 1137.8622,-283.9186 1154.705,-288.3929"/>
<polygon fill="#9a32cd" stroke="#9a32cd" points="932.9005,-276.0535 923.4518,-280.8464 933.8271,-282.9919 932.9005,-276.0535"/>
<text text-anchor="middle" x="1027.5" y="-280.4012" font-family="Helvetica,sans-Serif" font-size="10.00" fill="#000000"> elements</text>
</g>
<!-- Node32 -->
<g id="node32" class="node">
<title>Node32</title>
<g id="a_node32"><a xlink:href="https://www.itk.org/Doxygen/html/classitk_1_1SmartPointer.html" xlink:title=" ">
<polygon fill="#ffffff" stroke="#000000" points="490,-277.4012 490,-307.4012 597,-307.4012 597,-277.4012 490,-277.4012"/>
<text text-anchor="start" x="498" y="-295.4012" font-family="Helvetica,sans-Serif" font-size="10.00" fill="#000000">itk::SmartPointer&lt;</text>
<text text-anchor="middle" x="543.5" y="-284.4012" font-family="Helvetica,sans-Serif" font-size="10.00" fill="#000000"> TObjectType &gt;</text>
</a>
</g>
</g>
<!-- Node32&#45;&gt;Node31 -->
<g id="edge45" class="edge">
<title>Node32&#45;&gt;Node31</title>
<path fill="none" stroke="#ffa500" stroke-dasharray="5,2" d="M607.5778,-292.0081C668.3911,-291.635 758.7482,-291.0807 815.8589,-290.7303"/>
<polygon fill="#ffa500" stroke="#ffa500" points="607.3106,-288.5096 597.3323,-292.0709 607.3536,-295.5094 607.3106,-288.5096"/>
<text text-anchor="middle" x="715.5" y="-295.4012" font-family="Helvetica,sans-Serif" font-size="10.00" fill="#000000"> &lt; Self &gt;</text>
</g>
</g>
</svg>
        <g id="navigator" transform="translate(0 0)" fill="#404254">
                <rect fill="#f2f5e9" fill-opacity="0.5" stroke="#606060" stroke-width=".5" x="0" y="0" width="60" height="60"/>
                <use id="zoomplus" xlink:href="#zoomPlus" x="17" y="9" onmousedown="handleZoom(evt,'in')"/>
                <use id="zoomminus" xlink:href="#zoomMin" x="42" y="9" onmousedown="handleZoom(evt,'out')"/>
                <use id="reset" xlink:href="#resetDef" x="30" y="36" onmousedown="handleReset()"/>
                <g id="arrowUp" xlink:href="#dirArrow" transform="translate(30 24)" onmousedown="handlePan(0,-1)">
                  <use xlink:href="#rim" fill="#404040">
                        <set attributeName="fill" to="#808080" begin="arrowUp.mouseover" end="arrowUp.mouseout"/>
                  </use>
                  <path fill="none" stroke="white" stroke-width="1.5" d="M0,-3.0v7 M-2.5,-0.5L0,-3.0L2.5,-0.5"/>
                </g>
                <g id="arrowRight" xlink:href="#dirArrow" transform="rotate(90) translate(36 -43)" onmousedown="handlePan(1,0)">
                  <use xlink:href="#rim" fill="#404040">
                        <set attributeName="fill" to="#808080" begin="arrowRight.mouseover" end="arrowRight.mouseout"/>
                  </use>
                  <path fill="none" stroke="white" stroke-width="1.5" d="M0,-3.0v7 M-2.5,-0.5L0,-3.0L2.5,-0.5"/>
                </g>
                <g id="arrowDown" xlink:href="#dirArrow" transform="rotate(180) translate(-30 -48)" onmousedown="handlePan(0,1)">
                  <use xlink:href="#rim" fill="#404040">
                        <set attributeName="fill" to="#808080" begin="arrowDown.mouseover" end="arrowDown.mouseout"/>
                  </use>
                  <path fill="none" stroke="white" stroke-width="1.5" d="M0,-3.0v7 M-2.5,-0.5L0,-3.0L2.5,-0.5"/>
                </g>
                <g id="arrowLeft" xlink:href="#dirArrow" transform="rotate(270) translate(-36 17)" onmousedown="handlePan(-1,0)">
                  <use xlink:href="#rim" fill="#404040">
                        <set attributeName="fill" to="#808080" begin="arrowLeft.mouseover" end="arrowLeft.mouseout"/>
                  </use>
                  <path fill="none" stroke="white" stroke-width="1.5" d="M0,-3.0v7 M-2.5,-0.5L0,-3.0L2.5,-0.5"/>
                </g>
        </g>
        <svg viewBox="0 0 15 15" width="100%" height="30px" preserveAspectRatio="xMaxYMin meet">
         <g id="arrow_out" transform="scale(0.3 0.3)">
          <a xlink:href="classitk_1_1simple_1_1ImageFilter__coll__graph_org.svg" target="_base">
           <rect id="button" ry="5" rx="5" y="6" x="6" height="38" width="38"
                fill="#f2f5e9" fill-opacity="0.5" stroke="#606060" stroke-width="1.0"/>
           <path id="arrow"
             d="M 11.500037,31.436501 C 11.940474,20.09759 22.043105,11.32322 32.158766,21.979434 L 37.068811,17.246167 C 37.068811,17.246167 37.088388,32 37.088388,32 L 22.160133,31.978069 C 22.160133,31.978069 26.997745,27.140456 26.997745,27.140456 C 18.528582,18.264221 13.291696,25.230495 11.500037,31.436501 z"
             style="fill:#404040;"/>
          </a>
         </g>
        </svg>
</svg>
