<?xml version="1.0" encoding="UTF-8" standalone="no"?>
<!DOCTYPE svg PUBLIC "-//W3C//DTD SVG 1.1//EN"
 "http://www.w3.org/Graphics/SVG/1.1/DTD/svg11.dtd">
<!-- Generated by graphviz version 2.40.1 (20161225.0304)
 -->
<!-- Title: itk::simple::RegionOfInterestImageFilter Pages: 1 -->
<!--zoomable 516 -->
<svg id="main" version="1.1" xmlns="http://www.w3.org/2000/svg" xmlns:xlink="http://www.w3.org/1999/xlink" xml:space="preserve" onload="init(evt)">
<style type="text/css"><![CDATA[
.edge:hover path { stroke: red; }
.edge:hover polygon { stroke: red; fill: red; }
]]></style>
<script type="text/javascript"><![CDATA[
var edges = document.getElementsByTagName('g');
if (edges && edges.length) {
  for (var i=0;i<edges.length;i++) {
    if (edges[i].id.substr(0,4)=='edge') {
      edges[i].setAttribute('class','edge');
    }
  }
}
]]></script>
        <defs>
                <circle id="rim" cx="0" cy="0" r="7"/>
                <circle id="rim2" cx="0" cy="0" r="3.5"/>
                <g id="zoomPlus">
                        <use xlink:href="#rim" fill="#404040">
                                <set attributeName="fill" to="#808080" begin="zoomplus.mouseover" end="zoomplus.mouseout"/>
                        </use>
                        <path d="M-4,0h8M0,-4v8" fill="none" stroke="white" stroke-width="1.5" pointer-events="none"/>
                </g>
                <g id="zoomMin">
                        <use xlink:href="#rim" fill="#404040">
                                <set attributeName="fill" to="#808080" begin="zoomminus.mouseover" end="zoomminus.mouseout"/>
                        </use>
                        <path d="M-4,0h8" fill="none" stroke="white" stroke-width="1.5" pointer-events="none"/>
                </g>
                <g id="dirArrow">
                        <path fill="none" stroke="white" stroke-width="1.5" d="M0,-3.0v7 M-2.5,-0.5L0,-3.0L2.5,-0.5"/>
                </g>
               <g id="resetDef">
                       <use xlink:href="#rim2" fill="#404040">
                               <set attributeName="fill" to="#808080" begin="reset.mouseover" end="reset.mouseout"/>
                       </use>
               </g>
        </defs>

<script type="text/javascript">
var viewWidth = 2060;
var viewHeight = 516;
var sectionId = 'dynsection-1';
</script>
<script xlink:href="svgpan.js"/>
<svg id="graph" class="graph">
<g id="viewport">
<title>itk::simple::RegionOfInterestImageFilter</title>
<polygon fill="#ffffff" stroke="transparent" points="-4,4 -4,-512 2056,-512 2056,4 -4,4"/>
<!-- Node1 -->
<g id="node1" class="node">
<title>Node1</title>
<g id="a_node1"><a xlink:title="Extract a region of interest from the input image.">
<polygon fill="#bfbfbf" stroke="#000000" points="1896,-197.5 1896,-227.5 2052,-227.5 2052,-197.5 1896,-197.5"/>
<text text-anchor="start" x="1904" y="-215.5" font-family="Helvetica,sans-Serif" font-size="10.00" fill="#000000">itk::simple::RegionOfInterest</text>
<text text-anchor="middle" x="1974" y="-204.5" font-family="Helvetica,sans-Serif" font-size="10.00" fill="#000000">ImageFilter</text>
</a>
</g>
</g>
<!-- Node2 -->
<g id="node2" class="node">
<title>Node2</title>
<g id="a_node2"><a xlink:href="classitk_1_1simple_1_1ImageFilter.html" target="_top" xlink:title="The base interface for SimpleITK filters that take one input image.">
<polygon fill="#ffffff" stroke="#000000" points="768.5,-166 768.5,-185 897.5,-185 897.5,-166 768.5,-166"/>
<text text-anchor="middle" x="833" y="-173" font-family="Helvetica,sans-Serif" font-size="10.00" fill="#000000">itk::simple::ImageFilter</text>
</a>
</g>
</g>
<!-- Node2&#45;&gt;Node1 -->
<g id="edge1" class="edge">
<title>Node2&#45;&gt;Node1</title>
<path fill="none" stroke="#191970" d="M881.4724,-163.631C947.3653,-148.5624 1069.0898,-124.5 1174.5,-124.5 1174.5,-124.5 1174.5,-124.5 1672,-124.5 1774.9419,-124.5 1890.0239,-172.2118 1943.5548,-197.3723"/>
<polygon fill="#191970" stroke="#191970" points="880.3396,-160.3006 871.3875,-165.9671 881.9194,-167.1201 880.3396,-160.3006"/>
</g>
<!-- Node3 -->
<g id="node3" class="node">
<title>Node3</title>
<g id="a_node3"><a xlink:href="classitk_1_1simple_1_1ProcessObject.html" target="_top" xlink:title="Base class for SimpleITK classes based on ProcessObject.">
<polygon fill="#ffffff" stroke="#000000" points="212.5,-343 212.5,-362 355.5,-362 355.5,-343 212.5,-343"/>
<text text-anchor="middle" x="284" y="-350" font-family="Helvetica,sans-Serif" font-size="10.00" fill="#000000">itk::simple::ProcessObject</text>
</a>
</g>
</g>
<!-- Node3&#45;&gt;Node2 -->
<g id="edge2" class="edge">
<title>Node3&#45;&gt;Node2</title>
<path fill="none" stroke="#191970" d="M323.0375,-339.9142C427.3276,-306.2905 710.7909,-214.9008 803.3374,-185.0633"/>
<polygon fill="#191970" stroke="#191970" points="321.9602,-336.584 313.5166,-342.9837 324.1082,-343.2463 321.9602,-336.584"/>
</g>
<!-- Node10 -->
<g id="node10" class="node">
<title>Node10</title>
<g id="a_node10"><a xlink:title=" ">
<polygon fill="#ffffff" stroke="#bfbfbf" points="590,-419.5 590,-449.5 706,-449.5 706,-419.5 590,-419.5"/>
<text text-anchor="start" x="598" y="-437.5" font-family="Helvetica,sans-Serif" font-size="10.00" fill="#000000">std::set&lt; itk::simple</text>
<text text-anchor="middle" x="648" y="-426.5" font-family="Helvetica,sans-Serif" font-size="10.00" fill="#000000">::ProcessObject * &gt;</text>
</a>
</g>
</g>
<!-- Node3&#45;&gt;Node10 -->
<g id="edge11" class="edge">
<title>Node3&#45;&gt;Node10</title>
<path fill="none" stroke="#9a32cd" stroke-dasharray="5,2" d="M336.4278,-364.3107C403.7042,-379.4663 520.0454,-405.6751 589.9372,-421.4199"/>
<polygon fill="#9a32cd" stroke="#9a32cd" points="336.9926,-360.8502 326.4678,-362.0669 335.4541,-367.6791 336.9926,-360.8502"/>
<text text-anchor="middle" x="463.5" y="-413.5" font-family="Helvetica,sans-Serif" font-size="10.00" fill="#000000"> keys</text>
</g>
<!-- Node4 -->
<g id="node4" class="node">
<title>Node4</title>
<g id="a_node4"><a xlink:href="classitk_1_1simple_1_1NonCopyable.html" target="_top" xlink:title="An inheritable class to disable copying of a class.">
<polygon fill="#ffffff" stroke="#000000" points="0,-366 0,-385 140,-385 140,-366 0,-366"/>
<text text-anchor="middle" x="70" y="-373" font-family="Helvetica,sans-Serif" font-size="10.00" fill="#000000">itk::simple::NonCopyable</text>
</a>
</g>
</g>
<!-- Node4&#45;&gt;Node3 -->
<g id="edge3" class="edge">
<title>Node4&#45;&gt;Node3</title>
<path fill="none" stroke="#006400" d="M150.2632,-366.8736C170.635,-364.6841 192.3884,-362.3461 212.304,-360.2056"/>
<polygon fill="#006400" stroke="#006400" points="149.6403,-363.4203 140.0716,-367.9689 150.3884,-370.3802 149.6403,-363.4203"/>
</g>
<!-- Node7 -->
<g id="node7" class="node">
<title>Node7</title>
<g id="a_node7"><a xlink:href="classitk_1_1simple_1_1Command.html" target="_top" xlink:title="An implementation of the Command design pattern for callback.">
<polygon fill="#ffffff" stroke="#000000" points="949.5,-403 949.5,-422 1074.5,-422 1074.5,-403 949.5,-403"/>
<text text-anchor="middle" x="1012" y="-410" font-family="Helvetica,sans-Serif" font-size="10.00" fill="#000000">itk::simple::Command</text>
</a>
</g>
</g>
<!-- Node4&#45;&gt;Node7 -->
<g id="edge7" class="edge">
<title>Node4&#45;&gt;Node7</title>
<path fill="none" stroke="#006400" d="M150.1813,-378.6494C334.187,-385.8768 783.6416,-403.5305 949.3264,-410.0383"/>
<polygon fill="#006400" stroke="#006400" points="150.1632,-375.1461 140.0335,-378.2508 149.8884,-382.1407 150.1632,-375.1461"/>
</g>
<!-- Node5 -->
<g id="node5" class="node">
<title>Node5</title>
<g id="a_node5"><a xlink:title=" ">
<polygon fill="#ffffff" stroke="#bfbfbf" points="1578.5,-337.5 1578.5,-367.5 1765.5,-367.5 1765.5,-337.5 1578.5,-337.5"/>
<text text-anchor="start" x="1586.5" y="-355.5" font-family="Helvetica,sans-Serif" font-size="10.00" fill="#000000">std::list&lt; itk::simple</text>
<text text-anchor="middle" x="1672" y="-344.5" font-family="Helvetica,sans-Serif" font-size="10.00" fill="#000000">::ProcessObject::EventCommand &gt;</text>
</a>
</g>
</g>
<!-- Node5&#45;&gt;Node3 -->
<g id="edge4" class="edge">
<title>Node5&#45;&gt;Node3</title>
<path fill="none" stroke="#9a32cd" stroke-dasharray="5,2" d="M1568.0224,-352.5C1499.8981,-352.5 1408.9056,-352.5 1328.5,-352.5 648,-352.5 648,-352.5 648,-352.5 546.5729,-352.5 429.2483,-352.5 355.8282,-352.5"/>
<polygon fill="#9a32cd" stroke="#9a32cd" points="1568.3286,-356.0001 1578.3285,-352.5 1568.3285,-349.0001 1568.3286,-356.0001"/>
<text text-anchor="middle" x="1012" y="-355.5" font-family="Helvetica,sans-Serif" font-size="10.00" fill="#000000"> m_Commands</text>
</g>
<!-- Node6 -->
<g id="node6" class="node">
<title>Node6</title>
<g id="a_node6"><a xlink:href="structitk_1_1simple_1_1ProcessObject_1_1EventCommand.html" target="_top" xlink:title=" ">
<polygon fill="#ffffff" stroke="#000000" points="1257,-385.5 1257,-415.5 1400,-415.5 1400,-385.5 1257,-385.5"/>
<text text-anchor="start" x="1265" y="-403.5" font-family="Helvetica,sans-Serif" font-size="10.00" fill="#000000">itk::simple::ProcessObject</text>
<text text-anchor="middle" x="1328.5" y="-392.5" font-family="Helvetica,sans-Serif" font-size="10.00" fill="#000000">::EventCommand</text>
</a>
</g>
</g>
<!-- Node6&#45;&gt;Node5 -->
<g id="edge5" class="edge">
<title>Node6&#45;&gt;Node5</title>
<path fill="none" stroke="#9a32cd" stroke-dasharray="5,2" d="M1409.9968,-389.1118C1460.5382,-382.0492 1525.6449,-372.9514 1578.3118,-365.5918"/>
<polygon fill="#9a32cd" stroke="#9a32cd" points="1409.5101,-385.6457 1400.0907,-390.4961 1410.4789,-392.5784 1409.5101,-385.6457"/>
<text text-anchor="middle" x="1489" y="-391.5" font-family="Helvetica,sans-Serif" font-size="10.00" fill="#000000"> elements</text>
</g>
<!-- Node7&#45;&gt;Node6 -->
<g id="edge6" class="edge">
<title>Node7&#45;&gt;Node6</title>
<path fill="none" stroke="#9a32cd" stroke-dasharray="5,2" d="M1084.6302,-409.7462C1136.3459,-407.7855 1205.5158,-405.1629 1256.9794,-403.2117"/>
<polygon fill="#9a32cd" stroke="#9a32cd" points="1084.3904,-406.2527 1074.5302,-410.1292 1084.6557,-413.2477 1084.3904,-406.2527"/>
<text text-anchor="middle" x="1174.5" y="-412.5" font-family="Helvetica,sans-Serif" font-size="10.00" fill="#000000"> m_Command</text>
</g>
<!-- Node8 -->
<g id="node8" class="node">
<title>Node8</title>
<g id="a_node8"><a xlink:title="STL class.">
<polygon fill="#ffffff" stroke="#bfbfbf" points="615.5,-476 615.5,-495 680.5,-495 680.5,-476 615.5,-476"/>
<text text-anchor="middle" x="648" y="-483" font-family="Helvetica,sans-Serif" font-size="10.00" fill="#000000">std::string</text>
</a>
</g>
</g>
<!-- Node8&#45;&gt;Node7 -->
<g id="edge8" class="edge">
<title>Node8&#45;&gt;Node7</title>
<path fill="none" stroke="#9a32cd" stroke-dasharray="5,2" d="M690.6787,-480.7606C743.5403,-474.4335 836.1427,-461.8517 914,-443.5 938.6638,-437.6865 966.1186,-428.7843 985.6797,-422.0087"/>
<polygon fill="#9a32cd" stroke="#9a32cd" points="690.1739,-477.2958 680.6524,-481.9425 690.9934,-484.2476 690.1739,-477.2958"/>
<text text-anchor="middle" x="833" y="-474.5" font-family="Helvetica,sans-Serif" font-size="10.00" fill="#000000"> m_Name</text>
</g>
<!-- Node9 -->
<g id="node9" class="node">
<title>Node9</title>
<g id="a_node9"><a xlink:title="STL class.">
<polygon fill="#ffffff" stroke="#bfbfbf" points="232,-477.5 232,-507.5 336,-507.5 336,-477.5 232,-477.5"/>
<text text-anchor="start" x="240" y="-495.5" font-family="Helvetica,sans-Serif" font-size="10.00" fill="#000000">std::basic_string&lt;</text>
<text text-anchor="middle" x="284" y="-484.5" font-family="Helvetica,sans-Serif" font-size="10.00" fill="#000000"> char &gt;</text>
</a>
</g>
</g>
<!-- Node9&#45;&gt;Node8 -->
<g id="edge9" class="edge">
<title>Node9&#45;&gt;Node8</title>
<path fill="none" stroke="#191970" d="M346.325,-491.3014C424.2948,-489.802 554.9016,-487.2904 615.4072,-486.1268"/>
<polygon fill="#191970" stroke="#191970" points="346.0831,-487.8053 336.1523,-491.4971 346.2178,-494.8041 346.0831,-487.8053"/>
</g>
<!-- Node10&#45;&gt;Node7 -->
<g id="edge10" class="edge">
<title>Node10&#45;&gt;Node7</title>
<path fill="none" stroke="#9a32cd" stroke-dasharray="5,2" d="M716.1019,-430.3839C783.0065,-426.3403 884.2464,-420.2214 949.2441,-416.2929"/>
<polygon fill="#9a32cd" stroke="#9a32cd" points="715.85,-426.8927 706.0794,-430.9897 716.2723,-433.8799 715.85,-426.8927"/>
<text text-anchor="middle" x="833" y="-431.5" font-family="Helvetica,sans-Serif" font-size="10.00" fill="#000000"> m_ReferencedObjects</text>
</g>
<!-- Node11 -->
<g id="node11" class="node">
<title>Node11</title>
<g id="a_node11"><a xlink:title="STL class.">
<polygon fill="#ffffff" stroke="#bfbfbf" points="243,-439 243,-458 325,-458 325,-439 243,-439"/>
<text text-anchor="middle" x="284" y="-446" font-family="Helvetica,sans-Serif" font-size="10.00" fill="#000000">std::set&lt; K &gt;</text>
</a>
</g>
</g>
<!-- Node11&#45;&gt;Node10 -->
<g id="edge12" class="edge">
<title>Node11&#45;&gt;Node10</title>
<path fill="none" stroke="#ffa500" stroke-dasharray="5,2" d="M335.3639,-446.5245C402.4082,-443.9458 519.4541,-439.4441 589.7379,-436.7408"/>
<polygon fill="#ffa500" stroke="#ffa500" points="334.9059,-443.0394 325.0479,-446.9212 335.175,-450.0342 334.9059,-443.0394"/>
<text text-anchor="middle" x="463.5" y="-447.5" font-family="Helvetica,sans-Serif" font-size="10.00" fill="#000000"> &lt; itk::simple::ProcessObject * &gt;</text>
</g>
<!-- Node12 -->
<g id="node12" class="node">
<title>Node12</title>
<g id="a_node12"><a xlink:title=" ">
<polygon fill="#ffffff" stroke="#bfbfbf" points="55.5,-439 55.5,-458 84.5,-458 84.5,-439 55.5,-439"/>
<text text-anchor="middle" x="70" y="-446" font-family="Helvetica,sans-Serif" font-size="10.00" fill="#000000">K</text>
</a>
</g>
</g>
<!-- Node12&#45;&gt;Node11 -->
<g id="edge13" class="edge">
<title>Node12&#45;&gt;Node11</title>
<path fill="none" stroke="#9a32cd" stroke-dasharray="5,2" d="M94.9038,-448.5C131.2222,-448.5 199.1487,-448.5 242.9345,-448.5"/>
<polygon fill="#9a32cd" stroke="#9a32cd" points="94.7091,-445.0001 84.7091,-448.5 94.7091,-452.0001 94.7091,-445.0001"/>
<text text-anchor="middle" x="171.5" y="-451.5" font-family="Helvetica,sans-Serif" font-size="10.00" fill="#000000"> keys</text>
</g>
<!-- Node13 -->
<g id="node13" class="node">
<title>Node13</title>
<g id="a_node13"><a xlink:title="STL class.">
<polygon fill="#ffffff" stroke="#bfbfbf" points="1288,-299 1288,-318 1369,-318 1369,-299 1288,-299"/>
<text text-anchor="middle" x="1328.5" y="-306" font-family="Helvetica,sans-Serif" font-size="10.00" fill="#000000">std::list&lt; T &gt;</text>
</a>
</g>
</g>
<!-- Node13&#45;&gt;Node5 -->
<g id="edge14" class="edge">
<title>Node13&#45;&gt;Node5</title>
<path fill="none" stroke="#ffa500" stroke-dasharray="5,2" d="M1379.6843,-306.2447C1426.8734,-305.1136 1498.6768,-305.7984 1560,-316.5 1585.2508,-320.9065 1612.6609,-329.6445 1634.0447,-337.408"/>
<polygon fill="#ffa500" stroke="#ffa500" points="1379.3144,-302.7535 1369.4151,-306.5289 1379.5082,-309.7508 1379.3144,-302.7535"/>
<text text-anchor="start" x="1418" y="-330.5" font-family="Helvetica,sans-Serif" font-size="10.00" fill="#000000"> &lt; itk::simple::ProcessObject</text>
<text text-anchor="middle" x="1489" y="-319.5" font-family="Helvetica,sans-Serif" font-size="10.00" fill="#000000">::EventCommand &gt;</text>
</g>
<!-- Node14 -->
<g id="node14" class="node">
<title>Node14</title>
<g id="a_node14"><a xlink:title=" ">
<polygon fill="#ffffff" stroke="#bfbfbf" points="997.5,-249 997.5,-268 1026.5,-268 1026.5,-249 997.5,-249"/>
<text text-anchor="middle" x="1012" y="-256" font-family="Helvetica,sans-Serif" font-size="10.00" fill="#000000">T</text>
</a>
</g>
</g>
<!-- Node14&#45;&gt;Node13 -->
<g id="edge15" class="edge">
<title>Node14&#45;&gt;Node13</title>
<path fill="none" stroke="#9a32cd" stroke-dasharray="5,2" d="M1036.987,-262.4474C1091.5003,-271.0593 1221.5295,-291.601 1287.9476,-302.0936"/>
<polygon fill="#9a32cd" stroke="#9a32cd" points="1037.2646,-258.9479 1026.8409,-260.8445 1036.1723,-265.8622 1037.2646,-258.9479"/>
<text text-anchor="middle" x="1174.5" y="-297.5" font-family="Helvetica,sans-Serif" font-size="10.00" fill="#000000"> elements</text>
</g>
<!-- Node21 -->
<g id="node21" class="node">
<title>Node21</title>
<g id="a_node21"><a xlink:title="STL class.">
<polygon fill="#ffffff" stroke="#bfbfbf" points="1269.5,-188 1269.5,-207 1387.5,-207 1387.5,-188 1269.5,-188"/>
<text text-anchor="middle" x="1328.5" y="-195" font-family="Helvetica,sans-Serif" font-size="10.00" fill="#000000">std::unique_ptr&lt; T &gt;</text>
</a>
</g>
</g>
<!-- Node14&#45;&gt;Node21 -->
<g id="edge24" class="edge">
<title>Node14&#45;&gt;Node21</title>
<path fill="none" stroke="#9a32cd" stroke-dasharray="5,2" d="M1036.8551,-253.7096C1088.9188,-243.6752 1210.2767,-220.2855 1278.9089,-207.0578"/>
<polygon fill="#9a32cd" stroke="#9a32cd" points="1035.9978,-250.3103 1026.8409,-255.6397 1037.3226,-257.1838 1035.9978,-250.3103"/>
<text text-anchor="middle" x="1174.5" y="-242.5" font-family="Helvetica,sans-Serif" font-size="10.00" fill="#000000"> ptr</text>
</g>
<!-- Node23 -->
<g id="node23" class="node">
<title>Node23</title>
<g id="a_node23"><a xlink:title="STL class.">
<polygon fill="#ffffff" stroke="#bfbfbf" points="1280,-249 1280,-268 1377,-268 1377,-249 1280,-249"/>
<text text-anchor="middle" x="1328.5" y="-256" font-family="Helvetica,sans-Serif" font-size="10.00" fill="#000000">std::vector&lt; T &gt;</text>
</a>
</g>
</g>
<!-- Node14&#45;&gt;Node23 -->
<g id="edge27" class="edge">
<title>Node14&#45;&gt;Node23</title>
<path fill="none" stroke="#9a32cd" stroke-dasharray="5,2" d="M1036.9008,-258.5C1089.2195,-258.5 1211.3678,-258.5 1279.8134,-258.5"/>
<polygon fill="#9a32cd" stroke="#9a32cd" points="1036.841,-255.0001 1026.8409,-258.5 1036.8409,-262.0001 1036.841,-255.0001"/>
<text text-anchor="middle" x="1174.5" y="-261.5" font-family="Helvetica,sans-Serif" font-size="10.00" fill="#000000"> elements</text>
</g>
<!-- Node15 -->
<g id="node15" class="node">
<title>Node15</title>
<g id="a_node15"><a xlink:title=" ">
<polygon fill="#ffffff" stroke="#bfbfbf" points="1578,-168 1578,-209 1766,-209 1766,-168 1578,-168"/>
<text text-anchor="start" x="1586" y="-197" font-family="Helvetica,sans-Serif" font-size="10.00" fill="#000000">std::unique_ptr&lt; itk</text>
<text text-anchor="start" x="1586" y="-186" font-family="Helvetica,sans-Serif" font-size="10.00" fill="#000000">::simple::detail::MemberFunction</text>
<text text-anchor="middle" x="1672" y="-175" font-family="Helvetica,sans-Serif" font-size="10.00" fill="#000000">Factory&lt; MemberFunctionType &gt; &gt;</text>
</a>
</g>
</g>
<!-- Node15&#45;&gt;Node1 -->
<g id="edge16" class="edge">
<title>Node15&#45;&gt;Node1</title>
<path fill="none" stroke="#9a32cd" stroke-dasharray="5,2" d="M1776.1956,-193.2263C1808.8251,-195.0668 1844.9417,-197.4743 1878,-200.5 1883.8543,-201.0358 1889.9022,-201.6494 1895.9814,-202.3095"/>
<polygon fill="#9a32cd" stroke="#9a32cd" points="1776.3664,-189.7305 1766.1884,-192.6733 1775.98,-196.7199 1776.3664,-189.7305"/>
<text text-anchor="middle" x="1831" y="-203.5" font-family="Helvetica,sans-Serif" font-size="10.00" fill="#000000"> m_MemberFactory</text>
</g>
<!-- Node16 -->
<g id="node16" class="node">
<title>Node16</title>
<g id="a_node16"><a xlink:href="classitk_1_1simple_1_1detail_1_1MemberFunctionFactory.html" target="_top" xlink:title=" ">
<polygon fill="#ffffff" stroke="#000000" points="1257.5,-55 1257.5,-96 1399.5,-96 1399.5,-55 1257.5,-55"/>
<text text-anchor="start" x="1265.5" y="-84" font-family="Helvetica,sans-Serif" font-size="10.00" fill="#000000">itk::simple::detail</text>
<text text-anchor="start" x="1265.5" y="-73" font-family="Helvetica,sans-Serif" font-size="10.00" fill="#000000">::MemberFunctionFactory</text>
<text text-anchor="middle" x="1328.5" y="-62" font-family="Helvetica,sans-Serif" font-size="10.00" fill="#000000">&lt; MemberFunctionType &gt;</text>
</a>
</g>
</g>
<!-- Node16&#45;&gt;Node15 -->
<g id="edge17" class="edge">
<title>Node16&#45;&gt;Node15</title>
<path fill="none" stroke="#9a32cd" stroke-dasharray="5,2" d="M1400.7945,-99.2825C1462.6318,-119.6249 1550.7128,-148.6006 1609.5368,-167.9517"/>
<polygon fill="#9a32cd" stroke="#9a32cd" points="1401.6967,-95.8948 1391.1038,-96.0945 1399.5092,-102.5443 1401.6967,-95.8948"/>
<text text-anchor="middle" x="1489" y="-152.5" font-family="Helvetica,sans-Serif" font-size="10.00" fill="#000000"> ptr</text>
</g>
<!-- Node17 -->
<g id="node17" class="node">
<title>Node17</title>
<g id="a_node17"><a xlink:href="classitk_1_1simple_1_1detail_1_1MemberFunctionFactoryBase.html" target="_top" xlink:title=" ">
<polygon fill="#ffffff" stroke="#000000" points="752,-55.5 752,-107.5 914,-107.5 914,-55.5 752,-55.5"/>
<text text-anchor="start" x="760" y="-95.5" font-family="Helvetica,sans-Serif" font-size="10.00" fill="#000000">itk::simple::detail</text>
<text text-anchor="start" x="760" y="-84.5" font-family="Helvetica,sans-Serif" font-size="10.00" fill="#000000">::MemberFunctionFactoryBase</text>
<text text-anchor="start" x="760" y="-73.5" font-family="Helvetica,sans-Serif" font-size="10.00" fill="#000000">&lt; MemberFunctionType, std</text>
<text text-anchor="middle" x="833" y="-62.5" font-family="Helvetica,sans-Serif" font-size="10.00" fill="#000000">::pair&lt; unsigned int, int &gt; &gt;</text>
</a>
</g>
</g>
<!-- Node17&#45;&gt;Node16 -->
<g id="edge18" class="edge">
<title>Node17&#45;&gt;Node16</title>
<path fill="none" stroke="#006400" d="M924.5512,-80.3914C1020.6123,-79.2282 1169.5838,-77.4243 1257.2427,-76.3629"/>
<polygon fill="#006400" stroke="#006400" points="924.2238,-76.895 914.2669,-80.5159 924.3086,-83.8945 924.2238,-76.895"/>
</g>
<!-- Node18 -->
<g id="node18" class="node">
<title>Node18</title>
<g id="a_node18"><a xlink:href="classitk_1_1simple_1_1detail_1_1MemberFunctionFactoryBase.html" target="_top" xlink:title="A base class for the MemberFunctionFactory.">
<polygon fill="#ffffff" stroke="#000000" points="203,-39.5 203,-69.5 365,-69.5 365,-39.5 203,-39.5"/>
<text text-anchor="start" x="211" y="-57.5" font-family="Helvetica,sans-Serif" font-size="10.00" fill="#000000">itk::simple::detail</text>
<text text-anchor="middle" x="284" y="-46.5" font-family="Helvetica,sans-Serif" font-size="10.00" fill="#000000">::MemberFunctionFactoryBase</text>
</a>
</g>
</g>
<!-- Node18&#45;&gt;Node17 -->
<g id="edge19" class="edge">
<title>Node18&#45;&gt;Node17</title>
<path fill="none" stroke="#ffa500" stroke-dasharray="5,2" d="M375.2289,-60.0765C377.8477,-60.2213 380.4423,-60.3628 383,-60.5 511.8613,-67.4113 661.5516,-74.1373 751.6893,-78.0458"/>
<polygon fill="#ffa500" stroke="#ffa500" points="375.2168,-56.5704 365.036,-59.5032 374.8237,-63.5593 375.2168,-56.5704"/>
<text text-anchor="start" x="403" y="-94.5" font-family="Helvetica,sans-Serif" font-size="10.00" fill="#000000"> &lt; MemberFunctionType,</text>
<text text-anchor="start" x="403" y="-83.5" font-family="Helvetica,sans-Serif" font-size="10.00" fill="#000000"> std::pair&lt; unsigned</text>
<text text-anchor="middle" x="463.5" y="-72.5" font-family="Helvetica,sans-Serif" font-size="10.00" fill="#000000"> int, int &gt; &gt;</text>
</g>
<!-- Node20 -->
<g id="node20" class="node">
<title>Node20</title>
<g id="a_node20"><a xlink:href="classitk_1_1simple_1_1detail_1_1MemberFunctionFactoryBase.html" target="_top" xlink:title=" ">
<polygon fill="#ffffff" stroke="#000000" points="562,-.5 562,-52.5 734,-52.5 734,-.5 562,-.5"/>
<text text-anchor="start" x="570" y="-40.5" font-family="Helvetica,sans-Serif" font-size="10.00" fill="#000000">itk::simple::detail</text>
<text text-anchor="start" x="570" y="-29.5" font-family="Helvetica,sans-Serif" font-size="10.00" fill="#000000">::MemberFunctionFactoryBase</text>
<text text-anchor="start" x="570" y="-18.5" font-family="Helvetica,sans-Serif" font-size="10.00" fill="#000000">&lt; TMemberFunctionPointer,</text>
<text text-anchor="middle" x="648" y="-7.5" font-family="Helvetica,sans-Serif" font-size="10.00" fill="#000000"> std::pair&lt; unsigned int, int &gt; &gt;</text>
</a>
</g>
</g>
<!-- Node18&#45;&gt;Node20 -->
<g id="edge22" class="edge">
<title>Node18&#45;&gt;Node20</title>
<path fill="none" stroke="#ffa500" stroke-dasharray="5,2" d="M339.3503,-36.6598C353.437,-32.8817 368.6527,-29.4489 383,-27.5 442.3791,-19.434 509.9349,-19.3169 561.9757,-21.1481"/>
<polygon fill="#ffa500" stroke="#ffa500" points="338.0141,-33.3987 329.3212,-39.4555 339.8938,-40.1416 338.0141,-33.3987"/>
<text text-anchor="start" x="394" y="-52.5" font-family="Helvetica,sans-Serif" font-size="10.00" fill="#000000"> &lt; TMemberFunctionPointer,</text>
<text text-anchor="start" x="394" y="-41.5" font-family="Helvetica,sans-Serif" font-size="10.00" fill="#000000"> std::pair&lt; unsigned int,</text>
<text text-anchor="middle" x="463.5" y="-30.5" font-family="Helvetica,sans-Serif" font-size="10.00" fill="#000000"> int &gt; &gt;</text>
</g>
<!-- Node19 -->
<g id="node19" class="node">
<title>Node19</title>
<g id="a_node19"><a xlink:href="classitk_1_1simple_1_1detail_1_1MemberFunctionFactory.html" target="_top" xlink:title="A class used to instantiate and generate function object to templated member functions.">
<polygon fill="#ffffff" stroke="#000000" points="932,-11 932,-52 1092,-52 1092,-11 932,-11"/>
<text text-anchor="start" x="940" y="-40" font-family="Helvetica,sans-Serif" font-size="10.00" fill="#000000">itk::simple::detail</text>
<text text-anchor="start" x="940" y="-29" font-family="Helvetica,sans-Serif" font-size="10.00" fill="#000000">::MemberFunctionFactory</text>
<text text-anchor="middle" x="1012" y="-18" font-family="Helvetica,sans-Serif" font-size="10.00" fill="#000000">&lt; TMemberFunctionPointer &gt;</text>
</a>
</g>
</g>
<!-- Node19&#45;&gt;Node16 -->
<g id="edge20" class="edge">
<title>Node19&#45;&gt;Node16</title>
<path fill="none" stroke="#ffa500" stroke-dasharray="5,2" d="M1102.249,-39.3584C1143.9931,-43.5258 1194.1574,-49.2892 1239,-56.5 1244.9595,-57.4583 1251.1219,-58.5508 1257.2954,-59.7164"/>
<polygon fill="#ffa500" stroke="#ffa500" points="1102.3974,-35.8562 1092.1027,-38.3601 1101.712,-42.8225 1102.3974,-35.8562"/>
<text text-anchor="middle" x="1174.5" y="-59.5" font-family="Helvetica,sans-Serif" font-size="10.00" fill="#000000"> &lt; MemberFunctionType &gt;</text>
</g>
<!-- Node20&#45;&gt;Node19 -->
<g id="edge21" class="edge">
<title>Node20&#45;&gt;Node19</title>
<path fill="none" stroke="#006400" d="M744.623,-27.8272C803.0927,-28.6304 876.7628,-29.6423 931.9603,-30.4006"/>
<polygon fill="#006400" stroke="#006400" points="744.3101,-24.3227 734.2629,-27.6849 744.2139,-31.322 744.3101,-24.3227"/>
</g>
<!-- Node21&#45;&gt;Node15 -->
<g id="edge23" class="edge">
<title>Node21&#45;&gt;Node15</title>
<path fill="none" stroke="#ffa500" stroke-dasharray="5,2" d="M1397.7104,-193.3573C1404.564,-193.03 1411.4169,-192.7356 1418,-192.5 1470.8894,-190.607 1530.0055,-189.6097 1577.8896,-189.0845"/>
<polygon fill="#ffa500" stroke="#ffa500" points="1397.5129,-189.8627 1387.7,-193.8574 1397.8622,-196.854 1397.5129,-189.8627"/>
<text text-anchor="start" x="1420.5" y="-217.5" font-family="Helvetica,sans-Serif" font-size="10.00" fill="#000000"> &lt; itk::simple::detail</text>
<text text-anchor="start" x="1420.5" y="-206.5" font-family="Helvetica,sans-Serif" font-size="10.00" fill="#000000">::MemberFunctionFactory</text>
<text text-anchor="middle" x="1489" y="-195.5" font-family="Helvetica,sans-Serif" font-size="10.00" fill="#000000">&lt; MemberFunctionType &gt; &gt;</text>
</g>
<!-- Node22 -->
<g id="node22" class="node">
<title>Node22</title>
<g id="a_node22"><a xlink:title=" ">
<polygon fill="#ffffff" stroke="#bfbfbf" points="1620,-228 1620,-247 1724,-247 1724,-228 1620,-228"/>
<text text-anchor="middle" x="1672" y="-235" font-family="Helvetica,sans-Serif" font-size="10.00" fill="#000000">std::vector&lt; int &gt;</text>
</a>
</g>
</g>
<!-- Node22&#45;&gt;Node1 -->
<g id="edge25" class="edge">
<title>Node22&#45;&gt;Node1</title>
<path fill="none" stroke="#9a32cd" stroke-dasharray="5,2" d="M1734.2634,-232.3457C1781.059,-228.4719 1845.4775,-223.1393 1895.7549,-218.9772"/>
<polygon fill="#9a32cd" stroke="#9a32cd" points="1733.9367,-228.8607 1724.2596,-233.1739 1734.5143,-235.8369 1733.9367,-228.8607"/>
<text text-anchor="middle" x="1831" y="-231.5" font-family="Helvetica,sans-Serif" font-size="10.00" fill="#000000"> m_Index</text>
</g>
<!-- Node23&#45;&gt;Node22 -->
<g id="edge26" class="edge">
<title>Node23&#45;&gt;Node22</title>
<path fill="none" stroke="#ffa500" stroke-dasharray="5,2" d="M1387.3006,-251.3534C1397.5242,-250.2758 1408.0625,-249.2695 1418,-248.5 1487.7508,-243.0992 1568.4976,-240.1695 1619.8864,-238.7212"/>
<polygon fill="#ffa500" stroke="#ffa500" points="1386.7795,-247.8893 1377.2158,-252.4485 1387.5352,-254.8484 1386.7795,-247.8893"/>
<text text-anchor="middle" x="1489" y="-251.5" font-family="Helvetica,sans-Serif" font-size="10.00" fill="#000000"> &lt; int &gt;</text>
</g>
<!-- Node24 -->
<g id="node24" class="node">
<title>Node24</title>
<g id="a_node24"><a xlink:title=" ">
<polygon fill="#ffffff" stroke="#bfbfbf" points="1610,-266.5 1610,-296.5 1734,-296.5 1734,-266.5 1610,-266.5"/>
<text text-anchor="start" x="1618" y="-284.5" font-family="Helvetica,sans-Serif" font-size="10.00" fill="#000000">std::vector&lt; unsigned</text>
<text text-anchor="middle" x="1672" y="-273.5" font-family="Helvetica,sans-Serif" font-size="10.00" fill="#000000"> int &gt;</text>
</a>
</g>
</g>
<!-- Node23&#45;&gt;Node24 -->
<g id="edge29" class="edge">
<title>Node23&#45;&gt;Node24</title>
<path fill="none" stroke="#ffa500" stroke-dasharray="5,2" d="M1387.3722,-262.442C1449.4146,-266.5962 1546.7283,-273.1121 1609.9455,-277.345"/>
<polygon fill="#ffa500" stroke="#ffa500" points="1387.5619,-258.9469 1377.3504,-261.7709 1387.0942,-265.9313 1387.5619,-258.9469"/>
<text text-anchor="middle" x="1489" y="-276.5" font-family="Helvetica,sans-Serif" font-size="10.00" fill="#000000"> &lt; unsigned int &gt;</text>
</g>
<!-- Node24&#45;&gt;Node1 -->
<g id="edge28" class="edge">
<title>Node24&#45;&gt;Node1</title>
<path fill="none" stroke="#9a32cd" stroke-dasharray="5,2" d="M1744.0784,-270.5629C1783.8465,-263.9393 1833.9551,-254.6237 1878,-243.5 1895.6601,-239.0399 1914.8152,-233.0874 1931.3359,-227.5912"/>
<polygon fill="#9a32cd" stroke="#9a32cd" points="1743.4996,-267.111 1734.2007,-272.1884 1744.6363,-274.0181 1743.4996,-267.111"/>
<text text-anchor="middle" x="1831" y="-266.5" font-family="Helvetica,sans-Serif" font-size="10.00" fill="#000000"> m_Size</text>
</g>
</g>
</svg>
        <g id="navigator" transform="translate(0 0)" fill="#404254">
                <rect fill="#f2f5e9" fill-opacity="0.5" stroke="#606060" stroke-width=".5" x="0" y="0" width="60" height="60"/>
                <use id="zoomplus" xlink:href="#zoomPlus" x="17" y="9" onmousedown="handleZoom(evt,'in')"/>
                <use id="zoomminus" xlink:href="#zoomMin" x="42" y="9" onmousedown="handleZoom(evt,'out')"/>
                <use id="reset" xlink:href="#resetDef" x="30" y="36" onmousedown="handleReset()"/>
                <g id="arrowUp" xlink:href="#dirArrow" transform="translate(30 24)" onmousedown="handlePan(0,-1)">
                  <use xlink:href="#rim" fill="#404040">
                        <set attributeName="fill" to="#808080" begin="arrowUp.mouseover" end="arrowUp.mouseout"/>
                  </use>
                  <path fill="none" stroke="white" stroke-width="1.5" d="M0,-3.0v7 M-2.5,-0.5L0,-3.0L2.5,-0.5"/>
                </g>
                <g id="arrowRight" xlink:href="#dirArrow" transform="rotate(90) translate(36 -43)" onmousedown="handlePan(1,0)">
                  <use xlink:href="#rim" fill="#404040">
                        <set attributeName="fill" to="#808080" begin="arrowRight.mouseover" end="arrowRight.mouseout"/>
                  </use>
                  <path fill="none" stroke="white" stroke-width="1.5" d="M0,-3.0v7 M-2.5,-0.5L0,-3.0L2.5,-0.5"/>
                </g>
                <g id="arrowDown" xlink:href="#dirArrow" transform="rotate(180) translate(-30 -48)" onmousedown="handlePan(0,1)">
                  <use xlink:href="#rim" fill="#404040">
                        <set attributeName="fill" to="#808080" begin="arrowDown.mouseover" end="arrowDown.mouseout"/>
                  </use>
                  <path fill="none" stroke="white" stroke-width="1.5" d="M0,-3.0v7 M-2.5,-0.5L0,-3.0L2.5,-0.5"/>
                </g>
                <g id="arrowLeft" xlink:href="#dirArrow" transform="rotate(270) translate(-36 17)" onmousedown="handlePan(-1,0)">
                  <use xlink:href="#rim" fill="#404040">
                        <set attributeName="fill" to="#808080" begin="arrowLeft.mouseover" end="arrowLeft.mouseout"/>
                  </use>
                  <path fill="none" stroke="white" stroke-width="1.5" d="M0,-3.0v7 M-2.5,-0.5L0,-3.0L2.5,-0.5"/>
                </g>
        </g>
        <svg viewBox="0 0 15 15" width="100%" height="30px" preserveAspectRatio="xMaxYMin meet">
         <g id="arrow_out" transform="scale(0.3 0.3)">
          <a xlink:href="classitk_1_1simple_1_1RegionOfInterestImageFilter__coll__graph_org.svg" target="_base">
           <rect id="button" ry="5" rx="5" y="6" x="6" height="38" width="38"
                fill="#f2f5e9" fill-opacity="0.5" stroke="#606060" stroke-width="1.0"/>
           <path id="arrow"
             d="M 11.500037,31.436501 C 11.940474,20.09759 22.043105,11.32322 32.158766,21.979434 L 37.068811,17.246167 C 37.068811,17.246167 37.088388,32 37.088388,32 L 22.160133,31.978069 C 22.160133,31.978069 26.997745,27.140456 26.997745,27.140456 C 18.528582,18.264221 13.291696,25.230495 11.500037,31.436501 z"
             style="fill:#404040;"/>
          </a>
         </g>
        </svg>
</svg>
