<?xml version="1.0" encoding="UTF-8" standalone="no"?>
<!DOCTYPE svg PUBLIC "-//W3C//DTD SVG 1.1//EN"
 "http://www.w3.org/Graphics/SVG/1.1/DTD/svg11.dtd">
<!-- Generated by graphviz version 2.40.1 (20161225.0304)
 -->
<!-- Title: itk::simple::NeighborhoodConnectedImageFilter Pages: 1 -->
<svg width="2409pt" height="585pt"
 viewBox="0.00 0.00 2409.00 585.00" xmlns="http://www.w3.org/2000/svg" xmlns:xlink="http://www.w3.org/1999/xlink">
<g id="graph0" class="graph" transform="scale(1 1) rotate(0) translate(4 581)">
<title>itk::simple::NeighborhoodConnectedImageFilter</title>
<polygon fill="#ffffff" stroke="transparent" points="-4,4 -4,-581 2405,-581 2405,4 -4,4"/>
<!-- Node1 -->
<g id="node1" class="node">
<title>Node1</title>
<g id="a_node1"><a xlink:title="Label pixels that are connected to a seed and lie within a neighborhood.">
<polygon fill="#bfbfbf" stroke="#000000" points="1738,-274.5 1738,-304.5 1881,-304.5 1881,-274.5 1738,-274.5"/>
<text text-anchor="start" x="1746" y="-292.5" font-family="Helvetica,sans-Serif" font-size="10.00" fill="#000000">itk::simple::Neighborhood</text>
<text text-anchor="middle" x="1809.5" y="-281.5" font-family="Helvetica,sans-Serif" font-size="10.00" fill="#000000">ConnectedImageFilter</text>
</a>
</g>
</g>
<!-- Node2 -->
<g id="node2" class="node">
<title>Node2</title>
<g id="a_node2"><a xlink:href="classitk_1_1simple_1_1ImageFilter.html" target="_top" xlink:title="The base interface for SimpleITK filters that take one input image.">
<polygon fill="#ffffff" stroke="#000000" points="1401.5,-339 1401.5,-358 1530.5,-358 1530.5,-339 1401.5,-339"/>
<text text-anchor="middle" x="1466" y="-346" font-family="Helvetica,sans-Serif" font-size="10.00" fill="#000000">itk::simple::ImageFilter</text>
</a>
</g>
</g>
<!-- Node2&#45;&gt;Node1 -->
<g id="edge1" class="edge">
<title>Node2&#45;&gt;Node1</title>
<path fill="none" stroke="#191970" d="M1540.9923,-346.3271C1592.0213,-343.5842 1660.7757,-337.4032 1720,-323.5 1739.0944,-319.0175 1759.6016,-311.4435 1776.1624,-304.5804"/>
<polygon fill="#191970" stroke="#191970" points="1540.5176,-342.8466 1530.7069,-346.8465 1540.8707,-349.8376 1540.5176,-342.8466"/>
</g>
<!-- Node3 -->
<g id="node3" class="node">
<title>Node3</title>
<g id="a_node3"><a xlink:href="classitk_1_1simple_1_1ProcessObject.html" target="_top" xlink:title="Base class for SimpleITK classes based on ProcessObject.">
<polygon fill="#ffffff" stroke="#000000" points="1032,-393 1032,-412 1175,-412 1175,-393 1032,-393"/>
<text text-anchor="middle" x="1103.5" y="-400" font-family="Helvetica,sans-Serif" font-size="10.00" fill="#000000">itk::simple::ProcessObject</text>
</a>
</g>
</g>
<!-- Node3&#45;&gt;Node2 -->
<g id="edge2" class="edge">
<title>Node3&#45;&gt;Node2</title>
<path fill="none" stroke="#191970" d="M1136.8026,-389.2516C1153.4284,-383.1771 1174.0017,-376.4612 1193,-372.5 1263.3313,-357.8359 1345.6746,-352.1208 1401.3901,-349.8997"/>
<polygon fill="#191970" stroke="#191970" points="1135.1465,-386.1344 1127.0102,-392.9206 1137.6025,-392.6895 1135.1465,-386.1344"/>
</g>
<!-- Node10 -->
<g id="node10" class="node">
<title>Node10</title>
<g id="a_node10"><a xlink:title=" ">
<polygon fill="#ffffff" stroke="#bfbfbf" points="1408,-420.5 1408,-450.5 1524,-450.5 1524,-420.5 1408,-420.5"/>
<text text-anchor="start" x="1416" y="-438.5" font-family="Helvetica,sans-Serif" font-size="10.00" fill="#000000">std::set&lt; itk::simple</text>
<text text-anchor="middle" x="1466" y="-427.5" font-family="Helvetica,sans-Serif" font-size="10.00" fill="#000000">::ProcessObject * &gt;</text>
</a>
</g>
</g>
<!-- Node3&#45;&gt;Node10 -->
<g id="edge11" class="edge">
<title>Node3&#45;&gt;Node10</title>
<path fill="none" stroke="#9a32cd" stroke-dasharray="5,2" d="M1185.3628,-407.1098C1234.3532,-410.1853 1297.8161,-414.7246 1354,-420.5 1371.5637,-422.3055 1390.6207,-424.6954 1407.9502,-427.0357"/>
<polygon fill="#9a32cd" stroke="#9a32cd" points="1185.3337,-403.6014 1175.1363,-406.4758 1184.9005,-410.5879 1185.3337,-403.6014"/>
<text text-anchor="middle" x="1273.5" y="-423.5" font-family="Helvetica,sans-Serif" font-size="10.00" fill="#000000"> keys</text>
</g>
<!-- Node4 -->
<g id="node4" class="node">
<title>Node4</title>
<g id="a_node4"><a xlink:href="classitk_1_1simple_1_1NonCopyable.html" target="_top" xlink:title="An inheritable class to disable copying of a class.">
<polygon fill="#ffffff" stroke="#000000" points="717,-424 717,-443 857,-443 857,-424 717,-424"/>
<text text-anchor="middle" x="787" y="-431" font-family="Helvetica,sans-Serif" font-size="10.00" fill="#000000">itk::simple::NonCopyable</text>
</a>
</g>
</g>
<!-- Node4&#45;&gt;Node3 -->
<g id="edge3" class="edge">
<title>Node4&#45;&gt;Node3</title>
<path fill="none" stroke="#006400" d="M867.4985,-425.6155C918.1472,-420.6546 982.9352,-414.3089 1031.811,-409.5217"/>
<polygon fill="#006400" stroke="#006400" points="866.8528,-422.1619 857.2416,-426.6201 867.5352,-429.1285 866.8528,-422.1619"/>
</g>
<!-- Node7 -->
<g id="node7" class="node">
<title>Node7</title>
<g id="a_node7"><a xlink:href="classitk_1_1simple_1_1Command.html" target="_top" xlink:title="An implementation of the Command design pattern for callback.">
<polygon fill="#ffffff" stroke="#000000" points="1747,-452 1747,-471 1872,-471 1872,-452 1747,-452"/>
<text text-anchor="middle" x="1809.5" y="-459" font-family="Helvetica,sans-Serif" font-size="10.00" fill="#000000">itk::simple::Command</text>
</a>
</g>
</g>
<!-- Node4&#45;&gt;Node7 -->
<g id="edge7" class="edge">
<title>Node4&#45;&gt;Node7</title>
<path fill="none" stroke="#006400" d="M867.2916,-441.7021C949.1154,-449.6194 1079.7385,-461.0434 1193,-465.5 1427.0411,-474.709 1485.8362,-470.7301 1720,-465.5 1728.7079,-465.3055 1737.8888,-465.0047 1746.9191,-464.6534"/>
<polygon fill="#006400" stroke="#006400" points="867.6049,-438.2161 857.3127,-440.7304 866.9264,-445.1832 867.6049,-438.2161"/>
</g>
<!-- Node5 -->
<g id="node5" class="node">
<title>Node5</title>
<g id="a_node5"><a xlink:title=" ">
<polygon fill="#ffffff" stroke="#bfbfbf" points="2214,-371.5 2214,-401.5 2401,-401.5 2401,-371.5 2214,-371.5"/>
<text text-anchor="start" x="2222" y="-389.5" font-family="Helvetica,sans-Serif" font-size="10.00" fill="#000000">std::list&lt; itk::simple</text>
<text text-anchor="middle" x="2307.5" y="-378.5" font-family="Helvetica,sans-Serif" font-size="10.00" fill="#000000">::ProcessObject::EventCommand &gt;</text>
</a>
</g>
</g>
<!-- Node5&#45;&gt;Node3 -->
<g id="edge4" class="edge">
<title>Node5&#45;&gt;Node3</title>
<path fill="none" stroke="#9a32cd" stroke-dasharray="5,2" d="M2203.6648,-386.5C2158.7233,-386.5 2105.5177,-386.5 2057.5,-386.5 1466,-386.5 1466,-386.5 1466,-386.5 1365.05,-386.5 1248.4403,-392.7695 1175.333,-397.4595"/>
<polygon fill="#9a32cd" stroke="#9a32cd" points="2203.714,-390.0001 2213.714,-386.5 2203.714,-383.0001 2203.714,-390.0001"/>
<text text-anchor="middle" x="1809.5" y="-389.5" font-family="Helvetica,sans-Serif" font-size="10.00" fill="#000000"> m_Commands</text>
</g>
<!-- Node6 -->
<g id="node6" class="node">
<title>Node6</title>
<g id="a_node6"><a xlink:href="structitk_1_1simple_1_1ProcessObject_1_1EventCommand.html" target="_top" xlink:title=" ">
<polygon fill="#ffffff" stroke="#000000" points="1986,-430.5 1986,-460.5 2129,-460.5 2129,-430.5 1986,-430.5"/>
<text text-anchor="start" x="1994" y="-448.5" font-family="Helvetica,sans-Serif" font-size="10.00" fill="#000000">itk::simple::ProcessObject</text>
<text text-anchor="middle" x="2057.5" y="-437.5" font-family="Helvetica,sans-Serif" font-size="10.00" fill="#000000">::EventCommand</text>
</a>
</g>
</g>
<!-- Node6&#45;&gt;Node5 -->
<g id="edge5" class="edge">
<title>Node6&#45;&gt;Node5</title>
<path fill="none" stroke="#9a32cd" stroke-dasharray="5,2" d="M2131.1349,-428.1222C2166.9274,-419.6751 2209.5219,-409.6228 2243.884,-401.5134"/>
<polygon fill="#9a32cd" stroke="#9a32cd" points="2130.1611,-424.7557 2121.2324,-430.4592 2131.769,-431.5686 2130.1611,-424.7557"/>
<text text-anchor="middle" x="2171.5" y="-426.5" font-family="Helvetica,sans-Serif" font-size="10.00" fill="#000000"> elements</text>
</g>
<!-- Node7&#45;&gt;Node6 -->
<g id="edge6" class="edge">
<title>Node7&#45;&gt;Node6</title>
<path fill="none" stroke="#9a32cd" stroke-dasharray="5,2" d="M1882.4415,-456.7941C1915.0137,-454.6927 1953.2808,-452.2238 1985.7161,-450.1312"/>
<polygon fill="#9a32cd" stroke="#9a32cd" points="1881.8348,-453.3259 1872.0809,-457.4625 1882.2855,-460.3114 1881.8348,-453.3259"/>
<text text-anchor="middle" x="1933.5" y="-458.5" font-family="Helvetica,sans-Serif" font-size="10.00" fill="#000000"> m_Command</text>
</g>
<!-- Node8 -->
<g id="node8" class="node">
<title>Node8</title>
<g id="a_node8"><a xlink:title="STL class.">
<polygon fill="#ffffff" stroke="#bfbfbf" points="1433.5,-540 1433.5,-559 1498.5,-559 1498.5,-540 1433.5,-540"/>
<text text-anchor="middle" x="1466" y="-547" font-family="Helvetica,sans-Serif" font-size="10.00" fill="#000000">std::string</text>
</a>
</g>
</g>
<!-- Node8&#45;&gt;Node7 -->
<g id="edge8" class="edge">
<title>Node8&#45;&gt;Node7</title>
<path fill="none" stroke="#9a32cd" stroke-dasharray="5,2" d="M1508.7778,-541.7824C1559.5963,-532.2211 1646.72,-514.587 1720,-493.5 1742.5184,-487.0201 1767.5926,-477.8832 1785.4589,-471.0305"/>
<polygon fill="#9a32cd" stroke="#9a32cd" points="1507.9966,-538.3676 1498.8079,-543.642 1509.2802,-545.2489 1507.9966,-538.3676"/>
<text text-anchor="middle" x="1649" y="-529.5" font-family="Helvetica,sans-Serif" font-size="10.00" fill="#000000"> m_Name</text>
</g>
<!-- Node9 -->
<g id="node9" class="node">
<title>Node9</title>
<g id="a_node9"><a xlink:title="STL class.">
<polygon fill="#ffffff" stroke="#bfbfbf" points="1051.5,-546.5 1051.5,-576.5 1155.5,-576.5 1155.5,-546.5 1051.5,-546.5"/>
<text text-anchor="start" x="1059.5" y="-564.5" font-family="Helvetica,sans-Serif" font-size="10.00" fill="#000000">std::basic_string&lt;</text>
<text text-anchor="middle" x="1103.5" y="-553.5" font-family="Helvetica,sans-Serif" font-size="10.00" fill="#000000"> char &gt;</text>
</a>
</g>
</g>
<!-- Node9&#45;&gt;Node8 -->
<g id="edge9" class="edge">
<title>Node9&#45;&gt;Node8</title>
<path fill="none" stroke="#191970" d="M1165.94,-559.433C1243.4554,-556.867 1372.7938,-552.5854 1433.1316,-550.5881"/>
<polygon fill="#191970" stroke="#191970" points="1165.7022,-555.9389 1155.8235,-559.7679 1165.9338,-562.935 1165.7022,-555.9389"/>
</g>
<!-- Node10&#45;&gt;Node7 -->
<g id="edge10" class="edge">
<title>Node10&#45;&gt;Node7</title>
<path fill="none" stroke="#9a32cd" stroke-dasharray="5,2" d="M1534.2771,-440.5443C1585.4137,-444.3376 1657.0942,-449.6872 1720,-454.5 1728.7025,-455.1658 1737.8804,-455.8753 1746.9093,-456.5775"/>
<polygon fill="#9a32cd" stroke="#9a32cd" points="1534.2417,-437.0322 1524.0102,-439.7832 1533.7241,-444.013 1534.2417,-437.0322"/>
<text text-anchor="middle" x="1649" y="-457.5" font-family="Helvetica,sans-Serif" font-size="10.00" fill="#000000"> m_ReferencedObjects</text>
</g>
<!-- Node11 -->
<g id="node11" class="node">
<title>Node11</title>
<g id="a_node11"><a xlink:title="STL class.">
<polygon fill="#ffffff" stroke="#bfbfbf" points="1062.5,-508 1062.5,-527 1144.5,-527 1144.5,-508 1062.5,-508"/>
<text text-anchor="middle" x="1103.5" y="-515" font-family="Helvetica,sans-Serif" font-size="10.00" fill="#000000">std::set&lt; K &gt;</text>
</a>
</g>
</g>
<!-- Node11&#45;&gt;Node10 -->
<g id="edge12" class="edge">
<title>Node11&#45;&gt;Node10</title>
<path fill="none" stroke="#ffa500" stroke-dasharray="5,2" d="M1154.5959,-505.9418C1221.2946,-490.854 1337.7546,-464.51 1407.7891,-448.6677"/>
<polygon fill="#ffa500" stroke="#ffa500" points="1153.7118,-502.5532 1144.7304,-508.1734 1155.2562,-509.3807 1153.7118,-502.5532"/>
<text text-anchor="middle" x="1273.5" y="-499.5" font-family="Helvetica,sans-Serif" font-size="10.00" fill="#000000"> &lt; itk::simple::ProcessObject * &gt;</text>
</g>
<!-- Node12 -->
<g id="node12" class="node">
<title>Node12</title>
<g id="a_node12"><a xlink:title=" ">
<polygon fill="#ffffff" stroke="#bfbfbf" points="772.5,-508 772.5,-527 801.5,-527 801.5,-508 772.5,-508"/>
<text text-anchor="middle" x="787" y="-515" font-family="Helvetica,sans-Serif" font-size="10.00" fill="#000000">K</text>
</a>
</g>
</g>
<!-- Node12&#45;&gt;Node11 -->
<g id="edge13" class="edge">
<title>Node12&#45;&gt;Node11</title>
<path fill="none" stroke="#9a32cd" stroke-dasharray="5,2" d="M811.9574,-517.5C866.2999,-517.5 995.7864,-517.5 1062.3856,-517.5"/>
<polygon fill="#9a32cd" stroke="#9a32cd" points="811.841,-514.0001 801.8409,-517.5 811.8409,-521.0001 811.841,-514.0001"/>
<text text-anchor="middle" x="949.5" y="-520.5" font-family="Helvetica,sans-Serif" font-size="10.00" fill="#000000"> keys</text>
</g>
<!-- Node13 -->
<g id="node13" class="node">
<title>Node13</title>
<g id="a_node13"><a xlink:title="STL class.">
<polygon fill="#ffffff" stroke="#bfbfbf" points="909,-121 909,-140 990,-140 990,-121 909,-121"/>
<text text-anchor="middle" x="949.5" y="-128" font-family="Helvetica,sans-Serif" font-size="10.00" fill="#000000">std::list&lt; T &gt;</text>
</a>
</g>
</g>
<!-- Node13&#45;&gt;Node5 -->
<g id="edge14" class="edge">
<title>Node13&#45;&gt;Node5</title>
<path fill="none" stroke="#ffa500" stroke-dasharray="5,2" d="M1000.3423,-128.4685C1064.1344,-126.0984 1176.8939,-122.5 1273.5,-122.5 1273.5,-122.5 1273.5,-122.5 2057.5,-122.5 2195.4235,-122.5 2280.0295,-314.8211 2301.8569,-371.1651"/>
<polygon fill="#ffa500" stroke="#ffa500" points="1000.016,-124.9782 990.1548,-128.8521 1000.2795,-131.9733 1000.016,-124.9782"/>
<text text-anchor="start" x="1578" y="-136.5" font-family="Helvetica,sans-Serif" font-size="10.00" fill="#000000"> &lt; itk::simple::ProcessObject</text>
<text text-anchor="middle" x="1649" y="-125.5" font-family="Helvetica,sans-Serif" font-size="10.00" fill="#000000">::EventCommand &gt;</text>
</g>
<!-- Node14 -->
<g id="node14" class="node">
<title>Node14</title>
<g id="a_node14"><a xlink:title=" ">
<polygon fill="#ffffff" stroke="#bfbfbf" points="408.5,-172 408.5,-191 437.5,-191 437.5,-172 408.5,-172"/>
<text text-anchor="middle" x="423" y="-179" font-family="Helvetica,sans-Serif" font-size="10.00" fill="#000000">T</text>
</a>
</g>
</g>
<!-- Node14&#45;&gt;Node13 -->
<g id="edge15" class="edge">
<title>Node14&#45;&gt;Node13</title>
<path fill="none" stroke="#9a32cd" stroke-dasharray="5,2" d="M447.7957,-177.509C468.8331,-174.2226 499.8371,-169.6134 527,-166.5 666.8757,-150.4674 833.5606,-138.2976 908.9314,-133.1671"/>
<polygon fill="#9a32cd" stroke="#9a32cd" points="447.1073,-174.0743 437.776,-179.0921 448.1998,-180.9885 447.1073,-174.0743"/>
<text text-anchor="middle" x="608" y="-169.5" font-family="Helvetica,sans-Serif" font-size="10.00" fill="#000000"> elements</text>
</g>
<!-- Node21 -->
<g id="node21" class="node">
<title>Node21</title>
<g id="a_node21"><a xlink:title="STL class.">
<polygon fill="#ffffff" stroke="#bfbfbf" points="890.5,-172 890.5,-191 1008.5,-191 1008.5,-172 890.5,-172"/>
<text text-anchor="middle" x="949.5" y="-179" font-family="Helvetica,sans-Serif" font-size="10.00" fill="#000000">std::unique_ptr&lt; T &gt;</text>
</a>
</g>
</g>
<!-- Node14&#45;&gt;Node21 -->
<g id="edge24" class="edge">
<title>Node14&#45;&gt;Node21</title>
<path fill="none" stroke="#9a32cd" stroke-dasharray="5,2" d="M448.1163,-181.5C527.7154,-181.5 775.8658,-181.5 890.4366,-181.5"/>
<polygon fill="#9a32cd" stroke="#9a32cd" points="447.6312,-178.0001 437.6311,-181.5 447.6311,-185.0001 447.6312,-178.0001"/>
<text text-anchor="middle" x="608" y="-184.5" font-family="Helvetica,sans-Serif" font-size="10.00" fill="#000000"> ptr</text>
</g>
<!-- Node24 -->
<g id="node24" class="node">
<title>Node24</title>
<g id="a_node24"><a xlink:title="STL class.">
<polygon fill="#ffffff" stroke="#bfbfbf" points="738.5,-241 738.5,-260 835.5,-260 835.5,-241 738.5,-241"/>
<text text-anchor="middle" x="787" y="-248" font-family="Helvetica,sans-Serif" font-size="10.00" fill="#000000">std::vector&lt; T &gt;</text>
</a>
</g>
</g>
<!-- Node14&#45;&gt;Node24 -->
<g id="edge28" class="edge">
<title>Node14&#45;&gt;Node24</title>
<path fill="none" stroke="#9a32cd" stroke-dasharray="5,2" d="M447.7285,-186.1876C507.3227,-197.4843 659.751,-226.3786 738.4122,-241.2897"/>
<polygon fill="#9a32cd" stroke="#9a32cd" points="448.197,-182.7141 437.7201,-184.2903 446.8932,-189.5916 448.197,-182.7141"/>
<text text-anchor="middle" x="608" y="-233.5" font-family="Helvetica,sans-Serif" font-size="10.00" fill="#000000"> elements</text>
</g>
<!-- Node15 -->
<g id="node15" class="node">
<title>Node15</title>
<g id="a_node15"><a xlink:title=" ">
<polygon fill="#ffffff" stroke="#bfbfbf" points="1372,-161 1372,-202 1560,-202 1560,-161 1372,-161"/>
<text text-anchor="start" x="1380" y="-190" font-family="Helvetica,sans-Serif" font-size="10.00" fill="#000000">std::unique_ptr&lt; itk</text>
<text text-anchor="start" x="1380" y="-179" font-family="Helvetica,sans-Serif" font-size="10.00" fill="#000000">::simple::detail::MemberFunction</text>
<text text-anchor="middle" x="1466" y="-168" font-family="Helvetica,sans-Serif" font-size="10.00" fill="#000000">Factory&lt; MemberFunctionType &gt; &gt;</text>
</a>
</g>
</g>
<!-- Node15&#45;&gt;Node1 -->
<g id="edge16" class="edge">
<title>Node15&#45;&gt;Node1</title>
<path fill="none" stroke="#9a32cd" stroke-dasharray="5,2" d="M1554.0521,-204.6391C1603.2236,-218.1013 1665.4021,-236.0232 1720,-254.5 1737.7001,-260.49 1757.0434,-267.938 1773.2043,-274.4216"/>
<polygon fill="#9a32cd" stroke="#9a32cd" points="1554.9659,-201.2606 1544.3974,-202.0073 1553.1248,-208.0141 1554.9659,-201.2606"/>
<text text-anchor="middle" x="1649" y="-257.5" font-family="Helvetica,sans-Serif" font-size="10.00" fill="#000000"> m_MemberFactory</text>
</g>
<!-- Node16 -->
<g id="node16" class="node">
<title>Node16</title>
<g id="a_node16"><a xlink:href="classitk_1_1simple_1_1detail_1_1MemberFunctionFactory.html" target="_top" xlink:title=" ">
<polygon fill="#ffffff" stroke="#000000" points="1032.5,-53 1032.5,-94 1174.5,-94 1174.5,-53 1032.5,-53"/>
<text text-anchor="start" x="1040.5" y="-82" font-family="Helvetica,sans-Serif" font-size="10.00" fill="#000000">itk::simple::detail</text>
<text text-anchor="start" x="1040.5" y="-71" font-family="Helvetica,sans-Serif" font-size="10.00" fill="#000000">::MemberFunctionFactory</text>
<text text-anchor="middle" x="1103.5" y="-60" font-family="Helvetica,sans-Serif" font-size="10.00" fill="#000000">&lt; MemberFunctionType &gt;</text>
</a>
</g>
</g>
<!-- Node16&#45;&gt;Node15 -->
<g id="edge17" class="edge">
<title>Node16&#45;&gt;Node15</title>
<path fill="none" stroke="#9a32cd" stroke-dasharray="5,2" d="M1182.1859,-96.943C1246.1943,-116.013 1335.6414,-142.6621 1396.9123,-160.9166"/>
<polygon fill="#9a32cd" stroke="#9a32cd" points="1183.1198,-93.5692 1172.5367,-94.0682 1181.1211,-100.2778 1183.1198,-93.5692"/>
<text text-anchor="middle" x="1273.5" y="-150.5" font-family="Helvetica,sans-Serif" font-size="10.00" fill="#000000"> ptr</text>
</g>
<!-- Node17 -->
<g id="node17" class="node">
<title>Node17</title>
<g id="a_node17"><a xlink:href="classitk_1_1simple_1_1detail_1_1MemberFunctionFactoryBase.html" target="_top" xlink:title=" ">
<polygon fill="#ffffff" stroke="#000000" points="527,-.5 527,-52.5 689,-52.5 689,-.5 527,-.5"/>
<text text-anchor="start" x="535" y="-40.5" font-family="Helvetica,sans-Serif" font-size="10.00" fill="#000000">itk::simple::detail</text>
<text text-anchor="start" x="535" y="-29.5" font-family="Helvetica,sans-Serif" font-size="10.00" fill="#000000">::MemberFunctionFactoryBase</text>
<text text-anchor="start" x="535" y="-18.5" font-family="Helvetica,sans-Serif" font-size="10.00" fill="#000000">&lt; MemberFunctionType, std</text>
<text text-anchor="middle" x="608" y="-7.5" font-family="Helvetica,sans-Serif" font-size="10.00" fill="#000000">::pair&lt; unsigned int, int &gt; &gt;</text>
</a>
</g>
</g>
<!-- Node17&#45;&gt;Node16 -->
<g id="edge18" class="edge">
<title>Node17&#45;&gt;Node16</title>
<path fill="none" stroke="#006400" d="M699.17,-34.3145C748.8079,-38.6402 811.2933,-44.2002 867,-49.5 922.5666,-54.7865 985.4317,-61.186 1032.3736,-66.0469"/>
<polygon fill="#006400" stroke="#006400" points="699.3658,-30.8185 689.1001,-33.4386 698.7592,-37.7921 699.3658,-30.8185"/>
</g>
<!-- Node18 -->
<g id="node18" class="node">
<title>Node18</title>
<g id="a_node18"><a xlink:href="classitk_1_1simple_1_1detail_1_1MemberFunctionFactoryBase.html" target="_top" xlink:title="A base class for the MemberFunctionFactory.">
<polygon fill="#ffffff" stroke="#000000" points="0,-37.5 0,-67.5 162,-67.5 162,-37.5 0,-37.5"/>
<text text-anchor="start" x="8" y="-55.5" font-family="Helvetica,sans-Serif" font-size="10.00" fill="#000000">itk::simple::detail</text>
<text text-anchor="middle" x="81" y="-44.5" font-family="Helvetica,sans-Serif" font-size="10.00" fill="#000000">::MemberFunctionFactoryBase</text>
</a>
</g>
</g>
<!-- Node18&#45;&gt;Node17 -->
<g id="edge19" class="edge">
<title>Node18&#45;&gt;Node17</title>
<path fill="none" stroke="#ffa500" stroke-dasharray="5,2" d="M134.2141,-34.5481C148.8779,-30.4012 164.9062,-26.5934 180,-24.5 299.787,-7.8863 440.2507,-13.205 526.6868,-19.2841"/>
<polygon fill="#ffa500" stroke="#ffa500" points="132.9175,-31.281 124.3086,-37.4564 134.8896,-37.9975 132.9175,-31.281"/>
<text text-anchor="start" x="189" y="-49.5" font-family="Helvetica,sans-Serif" font-size="10.00" fill="#000000"> &lt; MemberFunctionType,</text>
<text text-anchor="start" x="189" y="-38.5" font-family="Helvetica,sans-Serif" font-size="10.00" fill="#000000"> std::pair&lt; unsigned</text>
<text text-anchor="middle" x="249.5" y="-27.5" font-family="Helvetica,sans-Serif" font-size="10.00" fill="#000000"> int, int &gt; &gt;</text>
</g>
<!-- Node20 -->
<g id="node20" class="node">
<title>Node20</title>
<g id="a_node20"><a xlink:href="classitk_1_1simple_1_1detail_1_1MemberFunctionFactoryBase.html" target="_top" xlink:title=" ">
<polygon fill="#ffffff" stroke="#000000" points="337,-54.5 337,-106.5 509,-106.5 509,-54.5 337,-54.5"/>
<text text-anchor="start" x="345" y="-94.5" font-family="Helvetica,sans-Serif" font-size="10.00" fill="#000000">itk::simple::detail</text>
<text text-anchor="start" x="345" y="-83.5" font-family="Helvetica,sans-Serif" font-size="10.00" fill="#000000">::MemberFunctionFactoryBase</text>
<text text-anchor="start" x="345" y="-72.5" font-family="Helvetica,sans-Serif" font-size="10.00" fill="#000000">&lt; TMemberFunctionPointer,</text>
<text text-anchor="middle" x="423" y="-61.5" font-family="Helvetica,sans-Serif" font-size="10.00" fill="#000000"> std::pair&lt; unsigned int, int &gt; &gt;</text>
</a>
</g>
</g>
<!-- Node18&#45;&gt;Node20 -->
<g id="edge22" class="edge">
<title>Node18&#45;&gt;Node20</title>
<path fill="none" stroke="#ffa500" stroke-dasharray="5,2" d="M172.0982,-59.9583C223.1995,-64.1421 286.5818,-69.3313 336.856,-73.4473"/>
<polygon fill="#ffa500" stroke="#ffa500" points="172.3015,-56.4634 162.0492,-59.1356 171.7303,-63.44 172.3015,-56.4634"/>
<text text-anchor="start" x="180" y="-96.5" font-family="Helvetica,sans-Serif" font-size="10.00" fill="#000000"> &lt; TMemberFunctionPointer,</text>
<text text-anchor="start" x="180" y="-85.5" font-family="Helvetica,sans-Serif" font-size="10.00" fill="#000000"> std::pair&lt; unsigned int,</text>
<text text-anchor="middle" x="249.5" y="-74.5" font-family="Helvetica,sans-Serif" font-size="10.00" fill="#000000"> int &gt; &gt;</text>
</g>
<!-- Node19 -->
<g id="node19" class="node">
<title>Node19</title>
<g id="a_node19"><a xlink:href="classitk_1_1simple_1_1detail_1_1MemberFunctionFactory.html" target="_top" xlink:title="A class used to instantiate and generate function object to templated member functions.">
<polygon fill="#ffffff" stroke="#000000" points="707,-59 707,-100 867,-100 867,-59 707,-59"/>
<text text-anchor="start" x="715" y="-88" font-family="Helvetica,sans-Serif" font-size="10.00" fill="#000000">itk::simple::detail</text>
<text text-anchor="start" x="715" y="-77" font-family="Helvetica,sans-Serif" font-size="10.00" fill="#000000">::MemberFunctionFactory</text>
<text text-anchor="middle" x="787" y="-66" font-family="Helvetica,sans-Serif" font-size="10.00" fill="#000000">&lt; TMemberFunctionPointer &gt;</text>
</a>
</g>
</g>
<!-- Node19&#45;&gt;Node16 -->
<g id="edge20" class="edge">
<title>Node19&#45;&gt;Node16</title>
<path fill="none" stroke="#ffa500" stroke-dasharray="5,2" d="M877.2905,-77.7883C926.5336,-76.8548 986.6147,-75.7158 1032.4789,-74.8464"/>
<polygon fill="#ffa500" stroke="#ffa500" points="877.2073,-74.2892 867.2755,-77.9782 877.34,-81.2879 877.2073,-74.2892"/>
<text text-anchor="middle" x="949.5" y="-81.5" font-family="Helvetica,sans-Serif" font-size="10.00" fill="#000000"> &lt; MemberFunctionType &gt;</text>
</g>
<!-- Node20&#45;&gt;Node19 -->
<g id="edge21" class="edge">
<title>Node20&#45;&gt;Node19</title>
<path fill="none" stroke="#006400" d="M519.623,-80.2346C578.0927,-80.0739 651.7628,-79.8715 706.9603,-79.7199"/>
<polygon fill="#006400" stroke="#006400" points="519.2532,-76.7355 509.2629,-80.263 519.2725,-83.7354 519.2532,-76.7355"/>
</g>
<!-- Node21&#45;&gt;Node15 -->
<g id="edge23" class="edge">
<title>Node21&#45;&gt;Node15</title>
<path fill="none" stroke="#ffa500" stroke-dasharray="5,2" d="M1018.9529,-181.5C1109.9253,-181.5 1269.8003,-181.5 1371.6696,-181.5"/>
<polygon fill="#ffa500" stroke="#ffa500" points="1018.7492,-178.0001 1008.7491,-181.5 1018.7491,-185.0001 1018.7492,-178.0001"/>
<text text-anchor="start" x="1035" y="-206.5" font-family="Helvetica,sans-Serif" font-size="10.00" fill="#000000"> &lt; itk::simple::detail</text>
<text text-anchor="start" x="1035" y="-195.5" font-family="Helvetica,sans-Serif" font-size="10.00" fill="#000000">::MemberFunctionFactory</text>
<text text-anchor="middle" x="1103.5" y="-184.5" font-family="Helvetica,sans-Serif" font-size="10.00" fill="#000000">&lt; MemberFunctionType &gt; &gt;</text>
</g>
<!-- Node22 -->
<g id="node22" class="node">
<title>Node22</title>
<g id="a_node22"><a xlink:title=" ">
<polygon fill="#ffffff" stroke="#bfbfbf" points="1400.5,-242.5 1400.5,-272.5 1531.5,-272.5 1531.5,-242.5 1400.5,-242.5"/>
<text text-anchor="start" x="1408.5" y="-260.5" font-family="Helvetica,sans-Serif" font-size="10.00" fill="#000000">std::vector&lt; std::vector</text>
<text text-anchor="middle" x="1466" y="-249.5" font-family="Helvetica,sans-Serif" font-size="10.00" fill="#000000">&lt; unsigned int &gt; &gt;</text>
</a>
</g>
</g>
<!-- Node22&#45;&gt;Node1 -->
<g id="edge25" class="edge">
<title>Node22&#45;&gt;Node1</title>
<path fill="none" stroke="#9a32cd" stroke-dasharray="5,2" d="M1542.1076,-264.5901C1600.5566,-270.0351 1680.7008,-277.5012 1737.9737,-282.8367"/>
<polygon fill="#9a32cd" stroke="#9a32cd" points="1542.1054,-261.0748 1531.8238,-263.6321 1541.456,-268.0446 1542.1054,-261.0748"/>
<text text-anchor="middle" x="1649" y="-284.5" font-family="Helvetica,sans-Serif" font-size="10.00" fill="#000000"> m_SeedList</text>
</g>
<!-- Node23 -->
<g id="node23" class="node">
<title>Node23</title>
<g id="a_node23"><a xlink:title=" ">
<polygon fill="#ffffff" stroke="#bfbfbf" points="1041.5,-291.5 1041.5,-321.5 1165.5,-321.5 1165.5,-291.5 1041.5,-291.5"/>
<text text-anchor="start" x="1049.5" y="-309.5" font-family="Helvetica,sans-Serif" font-size="10.00" fill="#000000">std::vector&lt; unsigned</text>
<text text-anchor="middle" x="1103.5" y="-298.5" font-family="Helvetica,sans-Serif" font-size="10.00" fill="#000000"> int &gt;</text>
</a>
</g>
</g>
<!-- Node23&#45;&gt;Node1 -->
<g id="edge30" class="edge">
<title>Node23&#45;&gt;Node1</title>
<path fill="none" stroke="#9a32cd" stroke-dasharray="5,2" d="M1175.765,-306.3595C1290.9504,-305.8767 1523.2635,-303.8446 1720,-295.5 1725.7569,-295.2558 1731.7192,-294.9569 1737.7074,-294.6241"/>
<polygon fill="#9a32cd" stroke="#9a32cd" points="1175.6461,-302.8598 1165.66,-306.3991 1175.6736,-309.8597 1175.6461,-302.8598"/>
<text text-anchor="middle" x="1466" y="-308.5" font-family="Helvetica,sans-Serif" font-size="10.00" fill="#000000"> m_Radius</text>
</g>
<!-- Node23&#45;&gt;Node22 -->
<g id="edge26" class="edge">
<title>Node23&#45;&gt;Node22</title>
<path fill="none" stroke="#9a32cd" stroke-dasharray="5,2" d="M1169.4971,-289.1562C1177.3832,-287.4166 1185.3488,-285.8119 1193,-284.5 1263.2958,-272.4473 1344.7659,-265.2565 1400.2836,-261.3637"/>
<polygon fill="#9a32cd" stroke="#9a32cd" points="1168.5506,-285.7821 1159.5802,-291.4198 1170.1084,-292.6066 1168.5506,-285.7821"/>
<text text-anchor="middle" x="1273.5" y="-287.5" font-family="Helvetica,sans-Serif" font-size="10.00" fill="#000000"> elements</text>
</g>
<!-- Node24&#45;&gt;Node22 -->
<g id="edge29" class="edge">
<title>Node24&#45;&gt;Node22</title>
<path fill="none" stroke="#ffa500" stroke-dasharray="5,2" d="M845.7936,-251.1061C972.0045,-252.4073 1268.1239,-255.46 1400.2911,-256.8226"/>
<polygon fill="#ffa500" stroke="#ffa500" points="845.5951,-247.604 835.5595,-251.0006 845.5229,-254.6036 845.5951,-247.604"/>
<text text-anchor="start" x="1042.5" y="-268.5" font-family="Helvetica,sans-Serif" font-size="10.00" fill="#000000"> &lt; std::vector&lt; unsigned</text>
<text text-anchor="middle" x="1103.5" y="-257.5" font-family="Helvetica,sans-Serif" font-size="10.00" fill="#000000"> int &gt; &gt;</text>
</g>
<!-- Node24&#45;&gt;Node23 -->
<g id="edge27" class="edge">
<title>Node24&#45;&gt;Node23</title>
<path fill="none" stroke="#ffa500" stroke-dasharray="5,2" d="M845.8139,-260.9063C901.4462,-270.7496 984.6413,-285.4697 1041.3452,-295.5026"/>
<polygon fill="#ffa500" stroke="#ffa500" points="846.2164,-257.4232 835.7595,-259.1273 844.9967,-264.3161 846.2164,-257.4232"/>
<text text-anchor="middle" x="949.5" y="-293.5" font-family="Helvetica,sans-Serif" font-size="10.00" fill="#000000"> &lt; unsigned int &gt;</text>
</g>
</g>
</svg>
