<?xml version="1.0" encoding="UTF-8" standalone="no"?>
<!DOCTYPE svg PUBLIC "-//W3C//DTD SVG 1.1//EN"
 "http://www.w3.org/Graphics/SVG/1.1/DTD/svg11.dtd">
<!-- Generated by graphviz version 2.40.1 (20161225.0304)
 -->
<!-- Title: itk::HashImageFilter&lt; TImageType &gt; Pages: 1 -->
<!--zoomable 111 -->
<svg id="main" version="1.1" xmlns="http://www.w3.org/2000/svg" xmlns:xlink="http://www.w3.org/1999/xlink" xml:space="preserve" onload="init(evt)">
<style type="text/css"><![CDATA[
.edge:hover path { stroke: red; }
.edge:hover polygon { stroke: red; fill: red; }
]]></style>
<script type="text/javascript"><![CDATA[
var edges = document.getElementsByTagName('g');
if (edges && edges.length) {
  for (var i=0;i<edges.length;i++) {
    if (edges[i].id.substr(0,4)=='edge') {
      edges[i].setAttribute('class','edge');
    }
  }
}
]]></script>
        <defs>
                <circle id="rim" cx="0" cy="0" r="7"/>
                <circle id="rim2" cx="0" cy="0" r="3.5"/>
                <g id="zoomPlus">
                        <use xlink:href="#rim" fill="#404040">
                                <set attributeName="fill" to="#808080" begin="zoomplus.mouseover" end="zoomplus.mouseout"/>
                        </use>
                        <path d="M-4,0h8M0,-4v8" fill="none" stroke="white" stroke-width="1.5" pointer-events="none"/>
                </g>
                <g id="zoomMin">
                        <use xlink:href="#rim" fill="#404040">
                                <set attributeName="fill" to="#808080" begin="zoomminus.mouseover" end="zoomminus.mouseout"/>
                        </use>
                        <path d="M-4,0h8" fill="none" stroke="white" stroke-width="1.5" pointer-events="none"/>
                </g>
                <g id="dirArrow">
                        <path fill="none" stroke="white" stroke-width="1.5" d="M0,-3.0v7 M-2.5,-0.5L0,-3.0L2.5,-0.5"/>
                </g>
               <g id="resetDef">
                       <use xlink:href="#rim2" fill="#404040">
                               <set attributeName="fill" to="#808080" begin="reset.mouseover" end="reset.mouseout"/>
                       </use>
               </g>
        </defs>

<script type="text/javascript">
var viewWidth = 1738;
var viewHeight = 111;
var sectionId = 'dynsection-0';
</script>
<script xlink:href="svgpan.js"/>
<svg id="graph" class="graph">
<g id="viewport">
<title>itk::HashImageFilter&lt; TImageType &gt;</title>
<polygon fill="#ffffff" stroke="transparent" points="-4,4 -4,-106.5 1734,-106.5 1734,4 -4,4"/>
<!-- Node1 -->
<g id="node1" class="node">
<title>Node1</title>
<g id="a_node1"><a xlink:title="Generates a hash string from an image.">
<polygon fill="#bfbfbf" stroke="#000000" points="1615,-22.5 1615,-52.5 1730,-52.5 1730,-22.5 1615,-22.5"/>
<text text-anchor="start" x="1623" y="-40.5" font-family="Helvetica,sans-Serif" font-size="10.00" fill="#000000">itk::HashImageFilter</text>
<text text-anchor="middle" x="1672.5" y="-29.5" font-family="Helvetica,sans-Serif" font-size="10.00" fill="#000000">&lt; TImageType &gt;</text>
</a>
</g>
</g>
<!-- Node2 -->
<g id="node2" class="node">
<title>Node2</title>
<g id="a_node2"><a xlink:href="https://www.itk.org/Doxygen/html/classitk_1_1CastImageFilter.html" xlink:title=" ">
<polygon fill="#ffffff" stroke="#000000" points="1414,-22.5 1414,-52.5 1578,-52.5 1578,-22.5 1414,-22.5"/>
<text text-anchor="start" x="1422" y="-40.5" font-family="Helvetica,sans-Serif" font-size="10.00" fill="#000000">itk::CastImageFilter</text>
<text text-anchor="middle" x="1496" y="-29.5" font-family="Helvetica,sans-Serif" font-size="10.00" fill="#000000">&lt; TImageType, TImageType &gt;</text>
</a>
</g>
</g>
<!-- Node2&#45;&gt;Node1 -->
<g id="edge1" class="edge">
<title>Node2&#45;&gt;Node1</title>
<path fill="none" stroke="#191970" d="M1588.257,-37.5C1597.2949,-37.5 1606.2765,-37.5 1614.8218,-37.5"/>
<polygon fill="#191970" stroke="#191970" points="1588.0495,-34.0001 1578.0495,-37.5 1588.0494,-41.0001 1588.0495,-34.0001"/>
</g>
<!-- Node3 -->
<g id="node3" class="node">
<title>Node3</title>
<g id="a_node3"><a xlink:href="https://www.itk.org/Doxygen/html/classitk_1_1InPlaceImageFilter.html" xlink:title=" ">
<polygon fill="#ffffff" stroke="#000000" points="838,-22.5 838,-52.5 1014,-52.5 1014,-22.5 838,-22.5"/>
<text text-anchor="start" x="846" y="-40.5" font-family="Helvetica,sans-Serif" font-size="10.00" fill="#000000">itk::InPlaceImageFilter</text>
<text text-anchor="middle" x="926" y="-29.5" font-family="Helvetica,sans-Serif" font-size="10.00" fill="#000000">&lt; TInputImage, TOutputImage &gt;</text>
</a>
</g>
</g>
<!-- Node3&#45;&gt;Node2 -->
<g id="edge2" class="edge">
<title>Node3&#45;&gt;Node2</title>
<path fill="none" stroke="#191970" d="M1024.2998,-40.2985C1026.8933,-40.3671 1029.4637,-40.4343 1032,-40.5 1193.7389,-44.6871 1234.3358,-51.9563 1396,-45.5 1401.8299,-45.2672 1407.8464,-44.9583 1413.9009,-44.5972"/>
<polygon fill="#191970" stroke="#191970" points="1024.2952,-36.7972 1014.2052,-40.0287 1024.1081,-43.7947 1024.2952,-36.7972"/>
</g>
<!-- Node11 -->
<g id="node11" class="node">
<title>Node11</title>
<g id="a_node11"><a xlink:href="https://www.itk.org/Doxygen/html/classitk_1_1CastImageFilter.html" xlink:title=" ">
<polygon fill="#ffffff" stroke="#000000" points="1051,-.5 1051,-30.5 1227,-30.5 1227,-.5 1051,-.5"/>
<text text-anchor="start" x="1059" y="-18.5" font-family="Helvetica,sans-Serif" font-size="10.00" fill="#000000">itk::CastImageFilter</text>
<text text-anchor="middle" x="1139" y="-7.5" font-family="Helvetica,sans-Serif" font-size="10.00" fill="#000000">&lt; TInputImage, TOutputImage &gt;</text>
</a>
</g>
</g>
<!-- Node3&#45;&gt;Node11 -->
<g id="edge11" class="edge">
<title>Node3&#45;&gt;Node11</title>
<path fill="none" stroke="#191970" d="M1024.1844,-27.3589C1033.0931,-26.4387 1042.0799,-25.5105 1050.8933,-24.6002"/>
<polygon fill="#191970" stroke="#191970" points="1023.7603,-23.884 1014.1728,-28.393 1024.4795,-30.8469 1023.7603,-23.884"/>
</g>
<!-- Node4 -->
<g id="node4" class="node">
<title>Node4</title>
<g id="a_node4"><a xlink:href="https://www.itk.org/Doxygen/html/classitk_1_1ImageToImageFilter.html" xlink:title=" ">
<polygon fill="#ffffff" stroke="#000000" points="625,-22.5 625,-52.5 801,-52.5 801,-22.5 625,-22.5"/>
<text text-anchor="start" x="633" y="-40.5" font-family="Helvetica,sans-Serif" font-size="10.00" fill="#000000">itk::ImageToImageFilter</text>
<text text-anchor="middle" x="713" y="-29.5" font-family="Helvetica,sans-Serif" font-size="10.00" fill="#000000">&lt; TInputImage, TOutputImage &gt;</text>
</a>
</g>
</g>
<!-- Node4&#45;&gt;Node3 -->
<g id="edge3" class="edge">
<title>Node4&#45;&gt;Node3</title>
<path fill="none" stroke="#191970" d="M811.1844,-37.5C820.0931,-37.5 829.0799,-37.5 837.8933,-37.5"/>
<polygon fill="#191970" stroke="#191970" points="811.1728,-34.0001 801.1728,-37.5 811.1728,-41.0001 811.1728,-34.0001"/>
</g>
<!-- Node5 -->
<g id="node5" class="node">
<title>Node5</title>
<g id="a_node5"><a xlink:href="https://www.itk.org/Doxygen/html/classitk_1_1ImageSource.html" xlink:title=" ">
<polygon fill="#ffffff" stroke="#000000" points="425.5,-54.5 425.5,-84.5 574.5,-84.5 574.5,-54.5 425.5,-54.5"/>
<text text-anchor="start" x="433.5" y="-72.5" font-family="Helvetica,sans-Serif" font-size="10.00" fill="#000000">itk::ImageSource&lt; TOutput</text>
<text text-anchor="middle" x="500" y="-61.5" font-family="Helvetica,sans-Serif" font-size="10.00" fill="#000000">Image &gt;</text>
</a>
</g>
</g>
<!-- Node5&#45;&gt;Node4 -->
<g id="edge4" class="edge">
<title>Node5&#45;&gt;Node4</title>
<path fill="none" stroke="#191970" d="M584.7764,-56.7636C597.9641,-54.7824 611.616,-52.7314 624.8759,-50.7393"/>
<polygon fill="#191970" stroke="#191970" points="584.1653,-53.3161 574.7963,-58.263 585.2054,-60.2384 584.1653,-53.3161"/>
</g>
<!-- Node6 -->
<g id="node6" class="node">
<title>Node6</title>
<g id="a_node6"><a xlink:href="https://www.itk.org/Doxygen/html/classitk_1_1ProcessObject.html" xlink:title=" ">
<polygon fill="#ffffff" stroke="#000000" points="251.5,-83 251.5,-102 355.5,-102 355.5,-83 251.5,-83"/>
<text text-anchor="middle" x="303.5" y="-90" font-family="Helvetica,sans-Serif" font-size="10.00" fill="#000000">itk::ProcessObject</text>
</a>
</g>
</g>
<!-- Node6&#45;&gt;Node5 -->
<g id="edge5" class="edge">
<title>Node6&#45;&gt;Node5</title>
<path fill="none" stroke="#191970" d="M365.654,-85.225C384.6345,-83.0033 405.7025,-80.5374 425.4185,-78.2296"/>
<polygon fill="#191970" stroke="#191970" points="365.1678,-81.7579 355.6425,-86.3968 365.9816,-88.7104 365.1678,-81.7579"/>
</g>
<!-- Node7 -->
<g id="node7" class="node">
<title>Node7</title>
<g id="a_node7"><a xlink:href="https://www.itk.org/Doxygen/html/classitk_1_1Object.html" xlink:title=" ">
<polygon fill="#ffffff" stroke="#000000" points="128,-83 128,-102 195,-102 195,-83 128,-83"/>
<text text-anchor="middle" x="161.5" y="-90" font-family="Helvetica,sans-Serif" font-size="10.00" fill="#000000">itk::Object</text>
</a>
</g>
</g>
<!-- Node7&#45;&gt;Node6 -->
<g id="edge6" class="edge">
<title>Node7&#45;&gt;Node6</title>
<path fill="none" stroke="#191970" d="M205.407,-92.5C219.9852,-92.5 236.3562,-92.5 251.4858,-92.5"/>
<polygon fill="#191970" stroke="#191970" points="205.1521,-89.0001 195.152,-92.5 205.152,-96.0001 205.1521,-89.0001"/>
</g>
<!-- Node8 -->
<g id="node8" class="node">
<title>Node8</title>
<g id="a_node8"><a xlink:href="https://www.itk.org/Doxygen/html/classitk_1_1LightObject.html" xlink:title=" ">
<polygon fill="#ffffff" stroke="#000000" points="0,-83 0,-102 91,-102 91,-83 0,-83"/>
<text text-anchor="middle" x="45.5" y="-90" font-family="Helvetica,sans-Serif" font-size="10.00" fill="#000000">itk::LightObject</text>
</a>
</g>
</g>
<!-- Node8&#45;&gt;Node7 -->
<g id="edge7" class="edge">
<title>Node8&#45;&gt;Node7</title>
<path fill="none" stroke="#191970" d="M101.2429,-92.5C110.3743,-92.5 119.5804,-92.5 127.9541,-92.5"/>
<polygon fill="#191970" stroke="#191970" points="101.0134,-89.0001 91.0133,-92.5 101.0133,-96.0001 101.0134,-89.0001"/>
</g>
<!-- Node9 -->
<g id="node9" class="node">
<title>Node9</title>
<g id="a_node9"><a xlink:href="https://www.itk.org/Doxygen/html/structitk_1_1ImageSourceCommon.html" xlink:title=" ">
<polygon fill="#ffffff" stroke="#000000" points="232,-45 232,-64 375,-64 375,-45 232,-45"/>
<text text-anchor="middle" x="303.5" y="-52" font-family="Helvetica,sans-Serif" font-size="10.00" fill="#000000">itk::ImageSourceCommon</text>
</a>
</g>
</g>
<!-- Node9&#45;&gt;Node5 -->
<g id="edge8" class="edge">
<title>Node9&#45;&gt;Node5</title>
<path fill="none" stroke="#8b1a1a" d="M385.3435,-60.7476C398.6368,-61.7623 412.3424,-62.8086 425.4497,-63.8091"/>
<polygon fill="#8b1a1a" stroke="#8b1a1a" points="385.5125,-57.2504 375.2751,-59.979 384.9797,-64.2301 385.5125,-57.2504"/>
</g>
<!-- Node10 -->
<g id="node10" class="node">
<title>Node10</title>
<g id="a_node10"><a xlink:href="https://www.itk.org/Doxygen/html/classitk_1_1ImageToImageFilterCommon.html" xlink:title=" ">
<polygon fill="#ffffff" stroke="#000000" points="412,-16 412,-35 588,-35 588,-16 412,-16"/>
<text text-anchor="middle" x="500" y="-23" font-family="Helvetica,sans-Serif" font-size="10.00" fill="#000000">itk::ImageToImageFilterCommon</text>
</a>
</g>
</g>
<!-- Node10&#45;&gt;Node4 -->
<g id="edge9" class="edge">
<title>Node10&#45;&gt;Node4</title>
<path fill="none" stroke="#8b1a1a" d="M598.1844,-31.0315C607.0931,-31.5334 616.0799,-32.0397 624.8933,-32.5362"/>
<polygon fill="#8b1a1a" stroke="#8b1a1a" points="598.3539,-27.5356 588.1728,-30.4675 597.9601,-34.5245 598.3539,-27.5356"/>
</g>
<!-- Node11&#45;&gt;Node2 -->
<g id="edge10" class="edge">
<title>Node11&#45;&gt;Node2</title>
<path fill="none" stroke="#ffa500" stroke-dasharray="5,2" d="M1237.4481,-21.5668C1292.9266,-24.9857 1361.4175,-29.2064 1413.9657,-32.4447"/>
<polygon fill="#ffa500" stroke="#ffa500" points="1237.4436,-18.06 1227.2472,-20.9382 1237.013,-25.0467 1237.4436,-18.06"/>
<text text-anchor="middle" x="1320.5" y="-34.5" font-family="Helvetica,sans-Serif" font-size="10.00" fill="#000000"> &lt; TImageType, TImageType &gt;</text>
</g>
</g>
</svg>
        <g id="navigator" transform="translate(0 0)" fill="#404254">
                <rect fill="#f2f5e9" fill-opacity="0.5" stroke="#606060" stroke-width=".5" x="0" y="0" width="60" height="60"/>
                <use id="zoomplus" xlink:href="#zoomPlus" x="17" y="9" onmousedown="handleZoom(evt,'in')"/>
                <use id="zoomminus" xlink:href="#zoomMin" x="42" y="9" onmousedown="handleZoom(evt,'out')"/>
                <use id="reset" xlink:href="#resetDef" x="30" y="36" onmousedown="handleReset()"/>
                <g id="arrowUp" xlink:href="#dirArrow" transform="translate(30 24)" onmousedown="handlePan(0,-1)">
                  <use xlink:href="#rim" fill="#404040">
                        <set attributeName="fill" to="#808080" begin="arrowUp.mouseover" end="arrowUp.mouseout"/>
                  </use>
                  <path fill="none" stroke="white" stroke-width="1.5" d="M0,-3.0v7 M-2.5,-0.5L0,-3.0L2.5,-0.5"/>
                </g>
                <g id="arrowRight" xlink:href="#dirArrow" transform="rotate(90) translate(36 -43)" onmousedown="handlePan(1,0)">
                  <use xlink:href="#rim" fill="#404040">
                        <set attributeName="fill" to="#808080" begin="arrowRight.mouseover" end="arrowRight.mouseout"/>
                  </use>
                  <path fill="none" stroke="white" stroke-width="1.5" d="M0,-3.0v7 M-2.5,-0.5L0,-3.0L2.5,-0.5"/>
                </g>
                <g id="arrowDown" xlink:href="#dirArrow" transform="rotate(180) translate(-30 -48)" onmousedown="handlePan(0,1)">
                  <use xlink:href="#rim" fill="#404040">
                        <set attributeName="fill" to="#808080" begin="arrowDown.mouseover" end="arrowDown.mouseout"/>
                  </use>
                  <path fill="none" stroke="white" stroke-width="1.5" d="M0,-3.0v7 M-2.5,-0.5L0,-3.0L2.5,-0.5"/>
                </g>
                <g id="arrowLeft" xlink:href="#dirArrow" transform="rotate(270) translate(-36 17)" onmousedown="handlePan(-1,0)">
                  <use xlink:href="#rim" fill="#404040">
                        <set attributeName="fill" to="#808080" begin="arrowLeft.mouseover" end="arrowLeft.mouseout"/>
                  </use>
                  <path fill="none" stroke="white" stroke-width="1.5" d="M0,-3.0v7 M-2.5,-0.5L0,-3.0L2.5,-0.5"/>
                </g>
        </g>
        <svg viewBox="0 0 15 15" width="100%" height="30px" preserveAspectRatio="xMaxYMin meet">
         <g id="arrow_out" transform="scale(0.3 0.3)">
          <a xlink:href="classitk_1_1HashImageFilter__inherit__graph_org.svg" target="_base">
           <rect id="button" ry="5" rx="5" y="6" x="6" height="38" width="38"
                fill="#f2f5e9" fill-opacity="0.5" stroke="#606060" stroke-width="1.0"/>
           <path id="arrow"
             d="M 11.500037,31.436501 C 11.940474,20.09759 22.043105,11.32322 32.158766,21.979434 L 37.068811,17.246167 C 37.068811,17.246167 37.088388,32 37.088388,32 L 22.160133,31.978069 C 22.160133,31.978069 26.997745,27.140456 26.997745,27.140456 C 18.528582,18.264221 13.291696,25.230495 11.500037,31.436501 z"
             style="fill:#404040;"/>
          </a>
         </g>
        </svg>
</svg>
