<?xml version="1.0" encoding="UTF-8" standalone="no"?>
<!DOCTYPE svg PUBLIC "-//W3C//DTD SVG 1.1//EN"
 "http://www.w3.org/Graphics/SVG/1.1/DTD/svg11.dtd">
<!-- Generated by graphviz version 2.40.1 (20161225.0304)
 -->
<!-- Title: itk::simple::CannySegmentationLevelSetImageFilter Pages: 1 -->
<svg width="2097pt" height="384pt"
 viewBox="0.00 0.00 2097.00 383.50" xmlns="http://www.w3.org/2000/svg" xmlns:xlink="http://www.w3.org/1999/xlink">
<g id="graph0" class="graph" transform="scale(1 1) rotate(0) translate(4 379.5)">
<title>itk::simple::CannySegmentationLevelSetImageFilter</title>
<polygon fill="#ffffff" stroke="transparent" points="-4,4 -4,-379.5 2093,-379.5 2093,4 -4,4"/>
<!-- Node1 -->
<g id="node1" class="node">
<title>Node1</title>
<g id="a_node1"><a xlink:title="Segments structures in images based on image features derived from pseudo&#45;canny&#45;edges.">
<polygon fill="#bfbfbf" stroke="#000000" points="1916,-33 1916,-63 2089,-63 2089,-33 1916,-33"/>
<text text-anchor="start" x="1924" y="-51" font-family="Helvetica,sans-Serif" font-size="10.00" fill="#000000">itk::simple::CannySegmentation</text>
<text text-anchor="middle" x="2002.5" y="-40" font-family="Helvetica,sans-Serif" font-size="10.00" fill="#000000">LevelSetImageFilter</text>
</a>
</g>
</g>
<!-- Node2 -->
<g id="node2" class="node">
<title>Node2</title>
<g id="a_node2"><a xlink:href="classitk_1_1simple_1_1ImageFilter.html" target="_top" xlink:title="The base interface for SimpleITK filters that take one input image.">
<polygon fill="#ffffff" stroke="#000000" points="768.5,-40.5 768.5,-59.5 897.5,-59.5 897.5,-40.5 768.5,-40.5"/>
<text text-anchor="middle" x="833" y="-47.5" font-family="Helvetica,sans-Serif" font-size="10.00" fill="#000000">itk::simple::ImageFilter</text>
</a>
</g>
</g>
<!-- Node2&#45;&gt;Node1 -->
<g id="edge1" class="edge">
<title>Node2&#45;&gt;Node1</title>
<path fill="none" stroke="#191970" d="M907.8753,-49.3095C977.0638,-48.7313 1082.7184,-48 1174.5,-48 1174.5,-48 1174.5,-48 1692,-48 1767.6035,-48 1853.5619,-48 1915.8376,-48"/>
<polygon fill="#191970" stroke="#191970" points="907.4851,-45.8126 897.5151,-49.3972 907.5444,-52.8123 907.4851,-45.8126"/>
</g>
<!-- Node3 -->
<g id="node3" class="node">
<title>Node3</title>
<g id="a_node3"><a xlink:href="classitk_1_1simple_1_1ProcessObject.html" target="_top" xlink:title="Base class for SimpleITK classes based on ProcessObject.">
<polygon fill="#ffffff" stroke="#000000" points="212.5,-95.5 212.5,-114.5 355.5,-114.5 355.5,-95.5 212.5,-95.5"/>
<text text-anchor="middle" x="284" y="-102.5" font-family="Helvetica,sans-Serif" font-size="10.00" fill="#000000">itk::simple::ProcessObject</text>
</a>
</g>
</g>
<!-- Node3&#45;&gt;Node2 -->
<g id="edge2" class="edge">
<title>Node3&#45;&gt;Node2</title>
<path fill="none" stroke="#191970" d="M325.7208,-92.6823C343.2596,-87.9711 363.9725,-83.0113 383,-80 518.9178,-58.4893 680.3056,-52.3743 768.1319,-50.6544"/>
<polygon fill="#191970" stroke="#191970" points="324.512,-89.3848 315.7979,-95.4109 326.368,-96.1342 324.512,-89.3848"/>
</g>
<!-- Node10 -->
<g id="node10" class="node">
<title>Node10</title>
<g id="a_node10"><a xlink:title=" ">
<polygon fill="#ffffff" stroke="#bfbfbf" points="590,-182 590,-212 706,-212 706,-182 590,-182"/>
<text text-anchor="start" x="598" y="-200" font-family="Helvetica,sans-Serif" font-size="10.00" fill="#000000">std::set&lt; itk::simple</text>
<text text-anchor="middle" x="648" y="-189" font-family="Helvetica,sans-Serif" font-size="10.00" fill="#000000">::ProcessObject * &gt;</text>
</a>
</g>
</g>
<!-- Node3&#45;&gt;Node10 -->
<g id="edge11" class="edge">
<title>Node3&#45;&gt;Node10</title>
<path fill="none" stroke="#9a32cd" stroke-dasharray="5,2" d="M331.7127,-117.0593C398.1224,-133.8441 518.3031,-164.2195 589.8655,-182.3067"/>
<polygon fill="#9a32cd" stroke="#9a32cd" points="332.4771,-113.6425 321.9243,-114.5853 330.7617,-120.429 332.4771,-113.6425"/>
<text text-anchor="middle" x="463.5" y="-172" font-family="Helvetica,sans-Serif" font-size="10.00" fill="#000000"> keys</text>
</g>
<!-- Node4 -->
<g id="node4" class="node">
<title>Node4</title>
<g id="a_node4"><a xlink:href="classitk_1_1simple_1_1NonCopyable.html" target="_top" xlink:title="An inheritable class to disable copying of a class.">
<polygon fill="#ffffff" stroke="#000000" points="0,-128.5 0,-147.5 140,-147.5 140,-128.5 0,-128.5"/>
<text text-anchor="middle" x="70" y="-135.5" font-family="Helvetica,sans-Serif" font-size="10.00" fill="#000000">itk::simple::NonCopyable</text>
</a>
</g>
</g>
<!-- Node4&#45;&gt;Node3 -->
<g id="edge3" class="edge">
<title>Node4&#45;&gt;Node3</title>
<path fill="none" stroke="#006400" d="M141.7937,-126.929C167.8222,-122.9153 196.9787,-118.4192 222.0833,-114.5479"/>
<polygon fill="#006400" stroke="#006400" points="140.9603,-123.5161 131.6106,-128.4993 142.0272,-130.4343 140.9603,-123.5161"/>
</g>
<!-- Node7 -->
<g id="node7" class="node">
<title>Node7</title>
<g id="a_node7"><a xlink:href="classitk_1_1simple_1_1Command.html" target="_top" xlink:title="An implementation of the Command design pattern for callback.">
<polygon fill="#ffffff" stroke="#000000" points="949.5,-150.5 949.5,-169.5 1074.5,-169.5 1074.5,-150.5 949.5,-150.5"/>
<text text-anchor="middle" x="1012" y="-157.5" font-family="Helvetica,sans-Serif" font-size="10.00" fill="#000000">itk::simple::Command</text>
</a>
</g>
</g>
<!-- Node4&#45;&gt;Node7 -->
<g id="edge7" class="edge">
<title>Node4&#45;&gt;Node7</title>
<path fill="none" stroke="#006400" d="M150.1813,-139.8726C334.187,-144.17 783.6416,-154.6668 949.3264,-158.5363"/>
<polygon fill="#006400" stroke="#006400" points="150.1125,-136.3701 140.0335,-139.6356 149.949,-143.3682 150.1125,-136.3701"/>
</g>
<!-- Node5 -->
<g id="node5" class="node">
<title>Node5</title>
<g id="a_node5"><a xlink:title=" ">
<polygon fill="#ffffff" stroke="#bfbfbf" points="1598.5,-125 1598.5,-155 1785.5,-155 1785.5,-125 1598.5,-125"/>
<text text-anchor="start" x="1606.5" y="-143" font-family="Helvetica,sans-Serif" font-size="10.00" fill="#000000">std::list&lt; itk::simple</text>
<text text-anchor="middle" x="1692" y="-132" font-family="Helvetica,sans-Serif" font-size="10.00" fill="#000000">::ProcessObject::EventCommand &gt;</text>
</a>
</g>
</g>
<!-- Node5&#45;&gt;Node3 -->
<g id="edge4" class="edge">
<title>Node5&#45;&gt;Node3</title>
<path fill="none" stroke="#9a32cd" stroke-dasharray="5,2" d="M1609.4023,-123.107C1538.0109,-109.9834 1431.8919,-94 1338.5,-94 648,-94 648,-94 648,-94 546.5266,-94 429.2138,-98.3238 355.8088,-101.5497"/>
<polygon fill="#9a32cd" stroke="#9a32cd" points="1608.7689,-126.5492 1619.2405,-124.9379 1610.0497,-119.6673 1608.7689,-126.5492"/>
<text text-anchor="middle" x="1012" y="-97" font-family="Helvetica,sans-Serif" font-size="10.00" fill="#000000"> m_Commands</text>
</g>
<!-- Node6 -->
<g id="node6" class="node">
<title>Node6</title>
<g id="a_node6"><a xlink:href="structitk_1_1simple_1_1ProcessObject_1_1EventCommand.html" target="_top" xlink:title=" ">
<polygon fill="#ffffff" stroke="#000000" points="1267,-125 1267,-155 1410,-155 1410,-125 1267,-125"/>
<text text-anchor="start" x="1275" y="-143" font-family="Helvetica,sans-Serif" font-size="10.00" fill="#000000">itk::simple::ProcessObject</text>
<text text-anchor="middle" x="1338.5" y="-132" font-family="Helvetica,sans-Serif" font-size="10.00" fill="#000000">::EventCommand</text>
</a>
</g>
</g>
<!-- Node6&#45;&gt;Node5 -->
<g id="edge5" class="edge">
<title>Node6&#45;&gt;Node5</title>
<path fill="none" stroke="#9a32cd" stroke-dasharray="5,2" d="M1420.1142,-140C1473.338,-140 1542.9563,-140 1598.421,-140"/>
<polygon fill="#9a32cd" stroke="#9a32cd" points="1420.036,-136.5001 1410.036,-140 1420.036,-143.5001 1420.036,-136.5001"/>
<text text-anchor="middle" x="1509" y="-143" font-family="Helvetica,sans-Serif" font-size="10.00" fill="#000000"> elements</text>
</g>
<!-- Node7&#45;&gt;Node6 -->
<g id="edge6" class="edge">
<title>Node7&#45;&gt;Node6</title>
<path fill="none" stroke="#9a32cd" stroke-dasharray="5,2" d="M1084.96,-153.8091C1093.4004,-153.1626 1101.8871,-152.5441 1110,-152 1162.5174,-148.4782 1221.8833,-145.3873 1266.9397,-143.2248"/>
<polygon fill="#9a32cd" stroke="#9a32cd" points="1084.4131,-150.3411 1074.7157,-154.6084 1084.9576,-157.3199 1084.4131,-150.3411"/>
<text text-anchor="middle" x="1174.5" y="-155" font-family="Helvetica,sans-Serif" font-size="10.00" fill="#000000"> m_Command</text>
</g>
<!-- Node8 -->
<g id="node8" class="node">
<title>Node8</title>
<g id="a_node8"><a xlink:title="STL class.">
<polygon fill="#ffffff" stroke="#bfbfbf" points="615.5,-231.5 615.5,-250.5 680.5,-250.5 680.5,-231.5 615.5,-231.5"/>
<text text-anchor="middle" x="648" y="-238.5" font-family="Helvetica,sans-Serif" font-size="10.00" fill="#000000">std::string</text>
</a>
</g>
</g>
<!-- Node8&#45;&gt;Node7 -->
<g id="edge8" class="edge">
<title>Node8&#45;&gt;Node7</title>
<path fill="none" stroke="#9a32cd" stroke-dasharray="5,2" d="M690.9792,-237.8214C744.1442,-233.1441 837.0532,-222.5235 914,-201 917.863,-199.9194 961.7483,-181.3668 989.466,-169.5924"/>
<polygon fill="#9a32cd" stroke="#9a32cd" points="690.5601,-234.3443 680.8926,-238.6791 691.1532,-241.3191 690.5601,-234.3443"/>
<text text-anchor="middle" x="833" y="-233" font-family="Helvetica,sans-Serif" font-size="10.00" fill="#000000"> m_Name</text>
</g>
<!-- Node9 -->
<g id="node9" class="node">
<title>Node9</title>
<g id="a_node9"><a xlink:title="STL class.">
<polygon fill="#ffffff" stroke="#bfbfbf" points="232,-226 232,-256 336,-256 336,-226 232,-226"/>
<text text-anchor="start" x="240" y="-244" font-family="Helvetica,sans-Serif" font-size="10.00" fill="#000000">std::basic_string&lt;</text>
<text text-anchor="middle" x="284" y="-233" font-family="Helvetica,sans-Serif" font-size="10.00" fill="#000000"> char &gt;</text>
</a>
</g>
</g>
<!-- Node9&#45;&gt;Node8 -->
<g id="edge9" class="edge">
<title>Node9&#45;&gt;Node8</title>
<path fill="none" stroke="#191970" d="M346.325,-241C424.2948,-241 554.9016,-241 615.4072,-241"/>
<polygon fill="#191970" stroke="#191970" points="346.1524,-237.5001 336.1523,-241 346.1523,-244.5001 346.1524,-237.5001"/>
</g>
<!-- Node10&#45;&gt;Node7 -->
<g id="edge10" class="edge">
<title>Node10&#45;&gt;Node7</title>
<path fill="none" stroke="#9a32cd" stroke-dasharray="5,2" d="M716.1019,-190.0775C783.0065,-183.2768 884.2464,-172.9859 949.2441,-166.379"/>
<polygon fill="#9a32cd" stroke="#9a32cd" points="715.6741,-186.6029 706.0794,-191.0963 716.3821,-193.567 715.6741,-186.6029"/>
<text text-anchor="middle" x="833" y="-189" font-family="Helvetica,sans-Serif" font-size="10.00" fill="#000000"> m_ReferencedObjects</text>
</g>
<!-- Node11 -->
<g id="node11" class="node">
<title>Node11</title>
<g id="a_node11"><a xlink:title="STL class.">
<polygon fill="#ffffff" stroke="#bfbfbf" points="243,-187.5 243,-206.5 325,-206.5 325,-187.5 243,-187.5"/>
<text text-anchor="middle" x="284" y="-194.5" font-family="Helvetica,sans-Serif" font-size="10.00" fill="#000000">std::set&lt; K &gt;</text>
</a>
</g>
</g>
<!-- Node11&#45;&gt;Node10 -->
<g id="edge12" class="edge">
<title>Node11&#45;&gt;Node10</title>
<path fill="none" stroke="#ffa500" stroke-dasharray="5,2" d="M335.3639,-197C402.4082,-197 519.4541,-197 589.7379,-197"/>
<polygon fill="#ffa500" stroke="#ffa500" points="335.0479,-193.5001 325.0479,-197 335.0478,-200.5001 335.0479,-193.5001"/>
<text text-anchor="middle" x="463.5" y="-200" font-family="Helvetica,sans-Serif" font-size="10.00" fill="#000000"> &lt; itk::simple::ProcessObject * &gt;</text>
</g>
<!-- Node12 -->
<g id="node12" class="node">
<title>Node12</title>
<g id="a_node12"><a xlink:title=" ">
<polygon fill="#ffffff" stroke="#bfbfbf" points="55.5,-187.5 55.5,-206.5 84.5,-206.5 84.5,-187.5 55.5,-187.5"/>
<text text-anchor="middle" x="70" y="-194.5" font-family="Helvetica,sans-Serif" font-size="10.00" fill="#000000">K</text>
</a>
</g>
</g>
<!-- Node12&#45;&gt;Node11 -->
<g id="edge13" class="edge">
<title>Node12&#45;&gt;Node11</title>
<path fill="none" stroke="#9a32cd" stroke-dasharray="5,2" d="M94.9038,-197C131.2222,-197 199.1487,-197 242.9345,-197"/>
<polygon fill="#9a32cd" stroke="#9a32cd" points="94.7091,-193.5001 84.7091,-197 94.7091,-200.5001 94.7091,-193.5001"/>
<text text-anchor="middle" x="171.5" y="-200" font-family="Helvetica,sans-Serif" font-size="10.00" fill="#000000"> keys</text>
</g>
<!-- Node13 -->
<g id="node13" class="node">
<title>Node13</title>
<g id="a_node13"><a xlink:title="STL class.">
<polygon fill="#ffffff" stroke="#bfbfbf" points="1298,-174.5 1298,-193.5 1379,-193.5 1379,-174.5 1298,-174.5"/>
<text text-anchor="middle" x="1338.5" y="-181.5" font-family="Helvetica,sans-Serif" font-size="10.00" fill="#000000">std::list&lt; T &gt;</text>
</a>
</g>
</g>
<!-- Node13&#45;&gt;Node5 -->
<g id="edge14" class="edge">
<title>Node13&#45;&gt;Node5</title>
<path fill="none" stroke="#ffa500" stroke-dasharray="5,2" d="M1389.0948,-177.7263C1437.9586,-171.6646 1514.0474,-162.2185 1580,-154 1586.0281,-153.2488 1592.2385,-152.4743 1598.4989,-151.6931"/>
<polygon fill="#ffa500" stroke="#ffa500" points="1388.5875,-174.2624 1379.0945,-178.9668 1389.4493,-181.2091 1388.5875,-174.2624"/>
<text text-anchor="start" x="1438" y="-185" font-family="Helvetica,sans-Serif" font-size="10.00" fill="#000000"> &lt; itk::simple::ProcessObject</text>
<text text-anchor="middle" x="1509" y="-174" font-family="Helvetica,sans-Serif" font-size="10.00" fill="#000000">::EventCommand &gt;</text>
</g>
<!-- Node14 -->
<g id="node14" class="node">
<title>Node14</title>
<g id="a_node14"><a xlink:title=" ">
<polygon fill="#ffffff" stroke="#bfbfbf" points="997.5,-203.5 997.5,-222.5 1026.5,-222.5 1026.5,-203.5 997.5,-203.5"/>
<text text-anchor="middle" x="1012" y="-210.5" font-family="Helvetica,sans-Serif" font-size="10.00" fill="#000000">T</text>
</a>
</g>
</g>
<!-- Node14&#45;&gt;Node13 -->
<g id="edge15" class="edge">
<title>Node14&#45;&gt;Node13</title>
<path fill="none" stroke="#9a32cd" stroke-dasharray="5,2" d="M1036.594,-209.3077C1056.3844,-206.4405 1084.9308,-202.538 1110,-200 1175.678,-193.3508 1252.2575,-188.5973 1297.9849,-186.0767"/>
<polygon fill="#9a32cd" stroke="#9a32cd" points="1035.963,-205.8628 1026.5778,-210.7789 1036.9803,-212.7885 1035.963,-205.8628"/>
<text text-anchor="middle" x="1174.5" y="-203" font-family="Helvetica,sans-Serif" font-size="10.00" fill="#000000"> elements</text>
</g>
<!-- Node21 -->
<g id="node21" class="node">
<title>Node21</title>
<g id="a_node21"><a xlink:title="STL class.">
<polygon fill="#ffffff" stroke="#bfbfbf" points="1279.5,-212.5 1279.5,-231.5 1397.5,-231.5 1397.5,-212.5 1279.5,-212.5"/>
<text text-anchor="middle" x="1338.5" y="-219.5" font-family="Helvetica,sans-Serif" font-size="10.00" fill="#000000">std::unique_ptr&lt; T &gt;</text>
</a>
</g>
</g>
<!-- Node14&#45;&gt;Node21 -->
<g id="edge24" class="edge">
<title>Node14&#45;&gt;Node21</title>
<path fill="none" stroke="#9a32cd" stroke-dasharray="5,2" d="M1037.0726,-213.6911C1088.5298,-215.1096 1207.2784,-218.3829 1279.4191,-220.3714"/>
<polygon fill="#9a32cd" stroke="#9a32cd" points="1036.9701,-210.1871 1026.8774,-213.4101 1036.7772,-217.1844 1036.9701,-210.1871"/>
<text text-anchor="middle" x="1174.5" y="-222" font-family="Helvetica,sans-Serif" font-size="10.00" fill="#000000"> ptr</text>
</g>
<!-- Node15 -->
<g id="node15" class="node">
<title>Node15</title>
<g id="a_node15"><a xlink:title=" ">
<polygon fill="#ffffff" stroke="#bfbfbf" points="1598,-201.5 1598,-242.5 1786,-242.5 1786,-201.5 1598,-201.5"/>
<text text-anchor="start" x="1606" y="-230.5" font-family="Helvetica,sans-Serif" font-size="10.00" fill="#000000">std::unique_ptr&lt; itk</text>
<text text-anchor="start" x="1606" y="-219.5" font-family="Helvetica,sans-Serif" font-size="10.00" fill="#000000">::simple::detail::MemberFunction</text>
<text text-anchor="middle" x="1692" y="-208.5" font-family="Helvetica,sans-Serif" font-size="10.00" fill="#000000">Factory&lt; MemberFunctionType &gt; &gt;</text>
</a>
</g>
</g>
<!-- Node15&#45;&gt;Node1 -->
<g id="edge16" class="edge">
<title>Node15&#45;&gt;Node1</title>
<path fill="none" stroke="#9a32cd" stroke-dasharray="5,2" d="M1737.7463,-196.3644C1803.4788,-159.5288 1922.5666,-92.7936 1975.6782,-63.0306"/>
<polygon fill="#9a32cd" stroke="#9a32cd" points="1735.8503,-193.4147 1728.8377,-201.3566 1739.2724,-199.5213 1735.8503,-193.4147"/>
<text text-anchor="middle" x="1851" y="-158" font-family="Helvetica,sans-Serif" font-size="10.00" fill="#000000"> m_MemberFactory</text>
</g>
<!-- Node16 -->
<g id="node16" class="node">
<title>Node16</title>
<g id="a_node16"><a xlink:href="classitk_1_1simple_1_1detail_1_1MemberFunctionFactory.html" target="_top" xlink:title=" ">
<polygon fill="#ffffff" stroke="#000000" points="1267.5,-275.5 1267.5,-316.5 1409.5,-316.5 1409.5,-275.5 1267.5,-275.5"/>
<text text-anchor="start" x="1275.5" y="-304.5" font-family="Helvetica,sans-Serif" font-size="10.00" fill="#000000">itk::simple::detail</text>
<text text-anchor="start" x="1275.5" y="-293.5" font-family="Helvetica,sans-Serif" font-size="10.00" fill="#000000">::MemberFunctionFactory</text>
<text text-anchor="middle" x="1338.5" y="-282.5" font-family="Helvetica,sans-Serif" font-size="10.00" fill="#000000">&lt; MemberFunctionType &gt;</text>
</a>
</g>
</g>
<!-- Node16&#45;&gt;Node15 -->
<g id="edge17" class="edge">
<title>Node16&#45;&gt;Node15</title>
<path fill="none" stroke="#9a32cd" stroke-dasharray="5,2" d="M1419.8011,-286.9841C1466.9562,-280.9015 1527.2609,-271.6576 1580,-259 1598.4191,-254.5794 1618.15,-248.5227 1635.84,-242.5894"/>
<polygon fill="#9a32cd" stroke="#9a32cd" points="1419.122,-283.5421 1409.6416,-288.2721 1420.0025,-290.4865 1419.122,-283.5421"/>
<text text-anchor="middle" x="1509" y="-286" font-family="Helvetica,sans-Serif" font-size="10.00" fill="#000000"> ptr</text>
</g>
<!-- Node17 -->
<g id="node17" class="node">
<title>Node17</title>
<g id="a_node17"><a xlink:href="classitk_1_1simple_1_1detail_1_1MemberFunctionFactoryBase.html" target="_top" xlink:title=" ">
<polygon fill="#ffffff" stroke="#000000" points="752,-323 752,-375 914,-375 914,-323 752,-323"/>
<text text-anchor="start" x="760" y="-363" font-family="Helvetica,sans-Serif" font-size="10.00" fill="#000000">itk::simple::detail</text>
<text text-anchor="start" x="760" y="-352" font-family="Helvetica,sans-Serif" font-size="10.00" fill="#000000">::MemberFunctionFactoryBase</text>
<text text-anchor="start" x="760" y="-341" font-family="Helvetica,sans-Serif" font-size="10.00" fill="#000000">&lt; MemberFunctionType, std</text>
<text text-anchor="middle" x="833" y="-330" font-family="Helvetica,sans-Serif" font-size="10.00" fill="#000000">::pair&lt; unsigned int, int &gt; &gt;</text>
</a>
</g>
</g>
<!-- Node17&#45;&gt;Node16 -->
<g id="edge18" class="edge">
<title>Node17&#45;&gt;Node16</title>
<path fill="none" stroke="#006400" d="M924.1385,-342.1647C1006.5442,-335.5816 1131.1219,-324.6275 1239,-311 1248.1858,-309.8396 1257.8329,-308.5168 1267.3565,-307.1485"/>
<polygon fill="#006400" stroke="#006400" points="923.7433,-338.685 914.0516,-342.9655 924.2973,-345.663 923.7433,-338.685"/>
</g>
<!-- Node18 -->
<g id="node18" class="node">
<title>Node18</title>
<g id="a_node18"><a xlink:href="classitk_1_1simple_1_1detail_1_1MemberFunctionFactoryBase.html" target="_top" xlink:title="A base class for the MemberFunctionFactory.">
<polygon fill="#ffffff" stroke="#000000" points="203,-308 203,-338 365,-338 365,-308 203,-308"/>
<text text-anchor="start" x="211" y="-326" font-family="Helvetica,sans-Serif" font-size="10.00" fill="#000000">itk::simple::detail</text>
<text text-anchor="middle" x="284" y="-315" font-family="Helvetica,sans-Serif" font-size="10.00" fill="#000000">::MemberFunctionFactoryBase</text>
</a>
</g>
</g>
<!-- Node18&#45;&gt;Node17 -->
<g id="edge19" class="edge">
<title>Node18&#45;&gt;Node17</title>
<path fill="none" stroke="#ffa500" stroke-dasharray="5,2" d="M375.2285,-328.584C377.8474,-328.7267 380.4422,-328.8657 383,-329 511.8559,-335.7677 661.5477,-342.1199 751.6873,-345.7806"/>
<polygon fill="#ffa500" stroke="#ffa500" points="375.214,-325.0779 365.0353,-328.0179 374.8257,-332.0672 375.214,-325.0779"/>
<text text-anchor="start" x="403" y="-361" font-family="Helvetica,sans-Serif" font-size="10.00" fill="#000000"> &lt; MemberFunctionType,</text>
<text text-anchor="start" x="403" y="-350" font-family="Helvetica,sans-Serif" font-size="10.00" fill="#000000"> std::pair&lt; unsigned</text>
<text text-anchor="middle" x="463.5" y="-339" font-family="Helvetica,sans-Serif" font-size="10.00" fill="#000000"> int, int &gt; &gt;</text>
</g>
<!-- Node20 -->
<g id="node20" class="node">
<title>Node20</title>
<g id="a_node20"><a xlink:href="classitk_1_1simple_1_1detail_1_1MemberFunctionFactoryBase.html" target="_top" xlink:title=" ">
<polygon fill="#ffffff" stroke="#000000" points="562,-270 562,-322 734,-322 734,-270 562,-270"/>
<text text-anchor="start" x="570" y="-310" font-family="Helvetica,sans-Serif" font-size="10.00" fill="#000000">itk::simple::detail</text>
<text text-anchor="start" x="570" y="-299" font-family="Helvetica,sans-Serif" font-size="10.00" fill="#000000">::MemberFunctionFactoryBase</text>
<text text-anchor="start" x="570" y="-288" font-family="Helvetica,sans-Serif" font-size="10.00" fill="#000000">&lt; TMemberFunctionPointer,</text>
<text text-anchor="middle" x="648" y="-277" font-family="Helvetica,sans-Serif" font-size="10.00" fill="#000000"> std::pair&lt; unsigned int, int &gt; &gt;</text>
</a>
</g>
</g>
<!-- Node18&#45;&gt;Node20 -->
<g id="edge22" class="edge">
<title>Node18&#45;&gt;Node20</title>
<path fill="none" stroke="#ffa500" stroke-dasharray="5,2" d="M339.3452,-305.1219C353.432,-301.3448 368.6491,-297.9219 383,-296 442.3938,-288.0461 509.9494,-288.1859 561.9864,-290.2424"/>
<polygon fill="#ffa500" stroke="#ffa500" points="338.0086,-301.861 329.3162,-307.9185 339.8888,-308.6038 338.0086,-301.861"/>
<text text-anchor="start" x="394" y="-321" font-family="Helvetica,sans-Serif" font-size="10.00" fill="#000000"> &lt; TMemberFunctionPointer,</text>
<text text-anchor="start" x="394" y="-310" font-family="Helvetica,sans-Serif" font-size="10.00" fill="#000000"> std::pair&lt; unsigned int,</text>
<text text-anchor="middle" x="463.5" y="-299" font-family="Helvetica,sans-Serif" font-size="10.00" fill="#000000"> int &gt; &gt;</text>
</g>
<!-- Node19 -->
<g id="node19" class="node">
<title>Node19</title>
<g id="a_node19"><a xlink:href="classitk_1_1simple_1_1detail_1_1MemberFunctionFactory.html" target="_top" xlink:title="A class used to instantiate and generate function object to templated member functions.">
<polygon fill="#ffffff" stroke="#000000" points="932,-275.5 932,-316.5 1092,-316.5 1092,-275.5 932,-275.5"/>
<text text-anchor="start" x="940" y="-304.5" font-family="Helvetica,sans-Serif" font-size="10.00" fill="#000000">itk::simple::detail</text>
<text text-anchor="start" x="940" y="-293.5" font-family="Helvetica,sans-Serif" font-size="10.00" fill="#000000">::MemberFunctionFactory</text>
<text text-anchor="middle" x="1012" y="-282.5" font-family="Helvetica,sans-Serif" font-size="10.00" fill="#000000">&lt; TMemberFunctionPointer &gt;</text>
</a>
</g>
</g>
<!-- Node19&#45;&gt;Node16 -->
<g id="edge20" class="edge">
<title>Node19&#45;&gt;Node16</title>
<path fill="none" stroke="#ffa500" stroke-dasharray="5,2" d="M1102.5257,-296C1154.5774,-296 1219.027,-296 1267.4122,-296"/>
<polygon fill="#ffa500" stroke="#ffa500" points="1102.2891,-292.5001 1092.2891,-296 1102.289,-299.5001 1102.2891,-292.5001"/>
<text text-anchor="middle" x="1174.5" y="-299" font-family="Helvetica,sans-Serif" font-size="10.00" fill="#000000"> &lt; MemberFunctionType &gt;</text>
</g>
<!-- Node20&#45;&gt;Node19 -->
<g id="edge21" class="edge">
<title>Node20&#45;&gt;Node19</title>
<path fill="none" stroke="#006400" d="M744.623,-296C803.0927,-296 876.7628,-296 931.9603,-296"/>
<polygon fill="#006400" stroke="#006400" points="744.263,-292.5001 734.2629,-296 744.2629,-299.5001 744.263,-292.5001"/>
</g>
<!-- Node21&#45;&gt;Node15 -->
<g id="edge23" class="edge">
<title>Node21&#45;&gt;Node15</title>
<path fill="none" stroke="#ffa500" stroke-dasharray="5,2" d="M1407.8844,-222C1462.1798,-222 1538.2377,-222 1597.9974,-222"/>
<polygon fill="#ffa500" stroke="#ffa500" points="1407.668,-218.5001 1397.668,-222 1407.6679,-225.5001 1407.668,-218.5001"/>
<text text-anchor="start" x="1440.5" y="-247" font-family="Helvetica,sans-Serif" font-size="10.00" fill="#000000"> &lt; itk::simple::detail</text>
<text text-anchor="start" x="1440.5" y="-236" font-family="Helvetica,sans-Serif" font-size="10.00" fill="#000000">::MemberFunctionFactory</text>
<text text-anchor="middle" x="1509" y="-225" font-family="Helvetica,sans-Serif" font-size="10.00" fill="#000000">&lt; MemberFunctionType &gt; &gt;</text>
</g>
<!-- Node22 -->
<g id="node22" class="node">
<title>Node22</title>
<g id="a_node22"><a xlink:href="classitk_1_1simple_1_1Image.html" target="_top" xlink:title="The Image class for SimpleITK.">
<polygon fill="#ffffff" stroke="#000000" points="1639.5,-.5 1639.5,-19.5 1744.5,-19.5 1744.5,-.5 1639.5,-.5"/>
<text text-anchor="middle" x="1692" y="-7.5" font-family="Helvetica,sans-Serif" font-size="10.00" fill="#000000">itk::simple::Image</text>
</a>
</g>
</g>
<!-- Node22&#45;&gt;Node1 -->
<g id="edge25" class="edge">
<title>Node22&#45;&gt;Node1</title>
<path fill="none" stroke="#9a32cd" stroke-dasharray="5,2" d="M1754.8655,-11.1697C1795.8167,-12.6189 1850.3021,-15.8438 1898,-23 1914.2341,-25.4356 1931.6554,-29.1509 1947.5294,-32.9782"/>
<polygon fill="#9a32cd" stroke="#9a32cd" points="1754.8675,-7.668 1744.7581,-10.8382 1754.638,-14.6642 1754.8675,-7.668"/>
<text text-anchor="middle" x="1851" y="-26" font-family="Helvetica,sans-Serif" font-size="10.00" fill="#000000"> m_CannyImage</text>
</g>
<!-- Node23 -->
<g id="node23" class="node">
<title>Node23</title>
<g id="a_node23"><a xlink:href="classitk_1_1simple_1_1PimpleImageBase.html" target="_top" xlink:title="Private implementation idiom image base class.">
<polygon fill="#ffffff" stroke="#000000" points="1257,-.5 1257,-19.5 1420,-19.5 1420,-.5 1257,-.5"/>
<text text-anchor="middle" x="1338.5" y="-7.5" font-family="Helvetica,sans-Serif" font-size="10.00" fill="#000000">itk::simple::PimpleImageBase</text>
</a>
</g>
</g>
<!-- Node23&#45;&gt;Node22 -->
<g id="edge26" class="edge">
<title>Node23&#45;&gt;Node22</title>
<path fill="none" stroke="#9a32cd" stroke-dasharray="5,2" d="M1430.1118,-10C1496.6182,-10 1584.2536,-10 1639.3721,-10"/>
<polygon fill="#9a32cd" stroke="#9a32cd" points="1430.0439,-6.5001 1420.0439,-10 1430.0439,-13.5001 1430.0439,-6.5001"/>
<text text-anchor="middle" x="1509" y="-13" font-family="Helvetica,sans-Serif" font-size="10.00" fill="#000000"> m_PimpleImage</text>
</g>
</g>
</svg>
