<?xml version="1.0" encoding="UTF-8" standalone="no"?>
<!DOCTYPE svg PUBLIC "-//W3C//DTD SVG 1.1//EN"
 "http://www.w3.org/Graphics/SVG/1.1/DTD/svg11.dtd">
<!-- Generated by graphviz version 2.40.1 (20161225.0304)
 -->
<!-- Title: itk::simple::detail::MemberFunctionFactoryBase&lt; TMemberFunctionPointer, TKey, 3 &gt; Pages: 1 -->
<svg width="838pt" height="102pt"
 viewBox="0.00 0.00 838.00 102.00" xmlns="http://www.w3.org/2000/svg" xmlns:xlink="http://www.w3.org/1999/xlink">
<g id="graph0" class="graph" transform="scale(1 1) rotate(0) translate(4 98)">
<title>itk::simple::detail::MemberFunctionFactoryBase&lt; TMemberFunctionPointer, TKey, 3 &gt;</title>
<polygon fill="#ffffff" stroke="transparent" points="-4,4 -4,-98 834,-98 834,4 -4,4"/>
<!-- Node1 -->
<g id="node1" class="node">
<title>Node1</title>
<g id="a_node1"><a xlink:title=" ">
<polygon fill="#bfbfbf" stroke="#000000" points="668,-31 668,-83 830,-83 830,-31 668,-31"/>
<text text-anchor="start" x="676" y="-71" font-family="Helvetica,sans-Serif" font-size="10.00" fill="#000000">itk::simple::detail</text>
<text text-anchor="start" x="676" y="-60" font-family="Helvetica,sans-Serif" font-size="10.00" fill="#000000">::MemberFunctionFactoryBase</text>
<text text-anchor="start" x="676" y="-49" font-family="Helvetica,sans-Serif" font-size="10.00" fill="#000000">&lt; TMemberFunctionPointer,</text>
<text text-anchor="middle" x="749" y="-38" font-family="Helvetica,sans-Serif" font-size="10.00" fill="#000000"> TKey, 3 &gt;</text>
</a>
</g>
</g>
<!-- Node2 -->
<g id="node2" class="node">
<title>Node2</title>
<g id="a_node2"><a xlink:href="classitk_1_1simple_1_1NonCopyable.html" target="_top" xlink:title="An inheritable class to disable copying of a class.">
<polygon fill="#ffffff" stroke="#000000" points="413.5,-74.5 413.5,-93.5 553.5,-93.5 553.5,-74.5 413.5,-74.5"/>
<text text-anchor="middle" x="483.5" y="-81.5" font-family="Helvetica,sans-Serif" font-size="10.00" fill="#000000">itk::simple::NonCopyable</text>
</a>
</g>
</g>
<!-- Node2&#45;&gt;Node1 -->
<g id="edge1" class="edge">
<title>Node2&#45;&gt;Node1</title>
<path fill="none" stroke="#006400" d="M563.9447,-77.9983C591.2831,-75.7561 621.996,-73.0143 650,-70 655.8601,-69.3692 661.9098,-68.6767 667.9955,-67.9499"/>
<polygon fill="#006400" stroke="#006400" points="563.3296,-74.5366 553.6449,-78.8328 563.8949,-81.5138 563.3296,-74.5366"/>
</g>
<!-- Node3 -->
<g id="node3" class="node">
<title>Node3</title>
<g id="a_node3"><a xlink:title=" ">
<polygon fill="#ffffff" stroke="#bfbfbf" points="406,-3 406,-55 561,-55 561,-3 406,-3"/>
<text text-anchor="start" x="414" y="-43" font-family="Helvetica,sans-Serif" font-size="10.00" fill="#000000">std::unordered_map</text>
<text text-anchor="start" x="414" y="-32" font-family="Helvetica,sans-Serif" font-size="10.00" fill="#000000">&lt; TKey, FunctionObjectType,</text>
<text text-anchor="start" x="414" y="-21" font-family="Helvetica,sans-Serif" font-size="10.00" fill="#000000"> itk::simple::detail::hash</text>
<text text-anchor="middle" x="483.5" y="-10" font-family="Helvetica,sans-Serif" font-size="10.00" fill="#000000">&lt; TKey &gt; &gt;</text>
</a>
</g>
</g>
<!-- Node3&#45;&gt;Node1 -->
<g id="edge2" class="edge">
<title>Node3&#45;&gt;Node1</title>
<path fill="none" stroke="#9a32cd" stroke-dasharray="5,2" d="M571.287,-27.6017C596.7624,-28.1426 624.5658,-29.6508 650,-33 655.8739,-33.7735 661.9058,-34.7555 667.9537,-35.8782"/>
<polygon fill="#9a32cd" stroke="#9a32cd" points="571.3328,-24.102 561.276,-27.4353 571.2164,-31.1011 571.3328,-24.102"/>
<text text-anchor="middle" x="614.5" y="-58" font-family="Helvetica,sans-Serif" font-size="10.00" fill="#000000"> m_PFunction2</text>
<text text-anchor="middle" x="614.5" y="-47" font-family="Helvetica,sans-Serif" font-size="10.00" fill="#000000">m_PFunction3</text>
<text text-anchor="middle" x="614.5" y="-36" font-family="Helvetica,sans-Serif" font-size="10.00" fill="#000000">m_PFunction4</text>
</g>
<!-- Node4 -->
<g id="node4" class="node">
<title>Node4</title>
<g id="a_node4"><a xlink:title="STL class.">
<polygon fill="#ffffff" stroke="#bfbfbf" points="114,-14 114,-44 228,-44 228,-14 114,-14"/>
<text text-anchor="start" x="122" y="-32" font-family="Helvetica,sans-Serif" font-size="10.00" fill="#000000">std::unordered_map</text>
<text text-anchor="middle" x="171" y="-21" font-family="Helvetica,sans-Serif" font-size="10.00" fill="#000000">&lt; K, T &gt;</text>
</a>
</g>
</g>
<!-- Node4&#45;&gt;Node3 -->
<g id="edge3" class="edge">
<title>Node4&#45;&gt;Node3</title>
<path fill="none" stroke="#ffa500" stroke-dasharray="5,2" d="M238.5417,-29C287.7609,-29 354.5421,-29 405.9454,-29"/>
<polygon fill="#ffa500" stroke="#ffa500" points="238.3174,-25.5001 228.3173,-29 238.3173,-32.5001 238.3174,-25.5001"/>
<text text-anchor="start" x="246" y="-54" font-family="Helvetica,sans-Serif" font-size="10.00" fill="#000000"> &lt; TKey, FunctionObjectType,</text>
<text text-anchor="start" x="246" y="-43" font-family="Helvetica,sans-Serif" font-size="10.00" fill="#000000"> itk::simple::detail::hash</text>
<text text-anchor="middle" x="317" y="-32" font-family="Helvetica,sans-Serif" font-size="10.00" fill="#000000">&lt; TKey &gt; &gt;</text>
</g>
<!-- Node5 -->
<g id="node5" class="node">
<title>Node5</title>
<g id="a_node5"><a xlink:title=" ">
<polygon fill="#ffffff" stroke="#bfbfbf" points="0,-38.5 0,-57.5 29,-57.5 29,-38.5 0,-38.5"/>
<text text-anchor="middle" x="14.5" y="-45.5" font-family="Helvetica,sans-Serif" font-size="10.00" fill="#000000">K</text>
</a>
</g>
</g>
<!-- Node5&#45;&gt;Node4 -->
<g id="edge4" class="edge">
<title>Node5&#45;&gt;Node4</title>
<path fill="none" stroke="#9a32cd" stroke-dasharray="5,2" d="M39.3124,-44.9876C59.2526,-42.5668 88.0565,-39.0698 113.6442,-35.9633"/>
<polygon fill="#9a32cd" stroke="#9a32cd" points="38.7284,-41.5327 29.2231,-46.2125 39.5721,-48.4817 38.7284,-41.5327"/>
<text text-anchor="middle" x="71.5" y="-46" font-family="Helvetica,sans-Serif" font-size="10.00" fill="#000000"> keys</text>
</g>
<!-- Node6 -->
<g id="node6" class="node">
<title>Node6</title>
<g id="a_node6"><a xlink:title=" ">
<polygon fill="#ffffff" stroke="#bfbfbf" points="0,-.5 0,-19.5 29,-19.5 29,-.5 0,-.5"/>
<text text-anchor="middle" x="14.5" y="-7.5" font-family="Helvetica,sans-Serif" font-size="10.00" fill="#000000">T</text>
</a>
</g>
</g>
<!-- Node6&#45;&gt;Node4 -->
<g id="edge5" class="edge">
<title>Node6&#45;&gt;Node4</title>
<path fill="none" stroke="#9a32cd" stroke-dasharray="5,2" d="M39.3124,-13.0124C59.2526,-15.4332 88.0565,-18.9302 113.6442,-22.0367"/>
<polygon fill="#9a32cd" stroke="#9a32cd" points="39.5721,-9.5183 29.2231,-11.7875 38.7284,-16.4673 39.5721,-9.5183"/>
<text text-anchor="middle" x="71.5" y="-23" font-family="Helvetica,sans-Serif" font-size="10.00" fill="#000000"> elements</text>
</g>
</g>
</svg>
