<?xml version="1.0" encoding="UTF-8" standalone="no"?>
<!DOCTYPE svg PUBLIC "-//W3C//DTD SVG 1.1//EN"
 "http://www.w3.org/Graphics/SVG/1.1/DTD/svg11.dtd">
<!-- Generated by graphviz version 2.40.1 (20161225.0304)
 -->
<!-- Title: itk::simple::ImageSeriesReader Pages: 1 -->
<svg width="2168pt" height="364pt"
 viewBox="0.00 0.00 2168.00 364.00" xmlns="http://www.w3.org/2000/svg" xmlns:xlink="http://www.w3.org/1999/xlink">
<g id="graph0" class="graph" transform="scale(1 1) rotate(0) translate(4 360)">
<title>itk::simple::ImageSeriesReader</title>
<polygon fill="#ffffff" stroke="transparent" points="-4,4 -4,-360 2164,-360 2164,4 -4,4"/>
<!-- Node1 -->
<g id="node1" class="node">
<title>Node1</title>
<g id="a_node1"><a xlink:title="Read series of image files into a SimpleITK image.">
<polygon fill="#bfbfbf" stroke="#000000" points="1749,-189 1749,-219 1884,-219 1884,-189 1749,-189"/>
<text text-anchor="start" x="1757" y="-207" font-family="Helvetica,sans-Serif" font-size="10.00" fill="#000000">itk::simple::ImageSeries</text>
<text text-anchor="middle" x="1816.5" y="-196" font-family="Helvetica,sans-Serif" font-size="10.00" fill="#000000">Reader</text>
</a>
</g>
</g>
<!-- Node2 -->
<g id="node2" class="node">
<title>Node2</title>
<g id="a_node2"><a xlink:href="classitk_1_1simple_1_1ImageReaderBase.html" target="_top" xlink:title="An abract base class for image readers.">
<polygon fill="#ffffff" stroke="#000000" points="1391.5,-148.5 1391.5,-167.5 1554.5,-167.5 1554.5,-148.5 1391.5,-148.5"/>
<text text-anchor="middle" x="1473" y="-155.5" font-family="Helvetica,sans-Serif" font-size="10.00" fill="#000000">itk::simple::ImageReaderBase</text>
</a>
</g>
</g>
<!-- Node2&#45;&gt;Node1 -->
<g id="edge1" class="edge">
<title>Node2&#45;&gt;Node1</title>
<path fill="none" stroke="#191970" d="M1554.2582,-168.8817C1613.5812,-176.826 1693.0656,-187.4702 1748.9237,-194.9505"/>
<polygon fill="#191970" stroke="#191970" points="1554.5495,-165.3896 1544.1734,-167.5312 1553.6204,-172.3277 1554.5495,-165.3896"/>
</g>
<!-- Node3 -->
<g id="node3" class="node">
<title>Node3</title>
<g id="a_node3"><a xlink:href="classitk_1_1simple_1_1ProcessObject.html" target="_top" xlink:title="Base class for SimpleITK classes based on ProcessObject.">
<polygon fill="#ffffff" stroke="#000000" points="715.5,-33.5 715.5,-52.5 858.5,-52.5 858.5,-33.5 715.5,-33.5"/>
<text text-anchor="middle" x="787" y="-40.5" font-family="Helvetica,sans-Serif" font-size="10.00" fill="#000000">itk::simple::ProcessObject</text>
</a>
</g>
</g>
<!-- Node3&#45;&gt;Node2 -->
<g id="edge2" class="edge">
<title>Node3&#45;&gt;Node2</title>
<path fill="none" stroke="#191970" d="M832.5243,-56.2428C844.5676,-61.1628 856.9871,-67.6456 867,-76 878.3593,-85.4778 872.3532,-96.3239 885,-104 906.3197,-116.9401 1235.0784,-141.4159 1391.4902,-152.4081"/>
<polygon fill="#191970" stroke="#191970" points="833.591,-52.9041 822.9998,-52.6263 831.1061,-59.4482 833.591,-52.9041"/>
</g>
<!-- Node10 -->
<g id="node10" class="node">
<title>Node10</title>
<g id="a_node10"><a xlink:title=" ">
<polygon fill="#ffffff" stroke="#bfbfbf" points="1077,-57 1077,-87 1193,-87 1193,-57 1077,-57"/>
<text text-anchor="start" x="1085" y="-75" font-family="Helvetica,sans-Serif" font-size="10.00" fill="#000000">std::set&lt; itk::simple</text>
<text text-anchor="middle" x="1135" y="-64" font-family="Helvetica,sans-Serif" font-size="10.00" fill="#000000">::ProcessObject * &gt;</text>
</a>
</g>
</g>
<!-- Node3&#45;&gt;Node10 -->
<g id="edge11" class="edge">
<title>Node3&#45;&gt;Node10</title>
<path fill="none" stroke="#9a32cd" stroke-dasharray="5,2" d="M868.7243,-49.4424C919.7091,-53.5072 986.6885,-58.9299 1046,-64 1055.8927,-64.8457 1066.4015,-65.7685 1076.6001,-66.677"/>
<polygon fill="#9a32cd" stroke="#9a32cd" points="868.9939,-45.9529 858.7477,-48.6481 868.4383,-52.9308 868.9939,-45.9529"/>
<text text-anchor="middle" x="965.5" y="-67" font-family="Helvetica,sans-Serif" font-size="10.00" fill="#000000"> keys</text>
</g>
<!-- Node4 -->
<g id="node4" class="node">
<title>Node4</title>
<g id="a_node4"><a xlink:href="classitk_1_1simple_1_1NonCopyable.html" target="_top" xlink:title="An inheritable class to disable copying of a class.">
<polygon fill="#ffffff" stroke="#000000" points="353,-.5 353,-19.5 493,-19.5 493,-.5 353,-.5"/>
<text text-anchor="middle" x="423" y="-7.5" font-family="Helvetica,sans-Serif" font-size="10.00" fill="#000000">itk::simple::NonCopyable</text>
</a>
</g>
</g>
<!-- Node4&#45;&gt;Node3 -->
<g id="edge3" class="edge">
<title>Node4&#45;&gt;Node3</title>
<path fill="none" stroke="#006400" d="M503.1484,-17.2662C566.5931,-23.0181 654.3921,-30.9779 715.4789,-36.5159"/>
<polygon fill="#006400" stroke="#006400" points="503.4581,-13.78 493.1829,-16.3627 502.826,-20.7514 503.4581,-13.78"/>
</g>
<!-- Node7 -->
<g id="node7" class="node">
<title>Node7</title>
<g id="a_node7"><a xlink:href="classitk_1_1simple_1_1Command.html" target="_top" xlink:title="An implementation of the Command design pattern for callback.">
<polygon fill="#ffffff" stroke="#000000" points="1410.5,-53.5 1410.5,-72.5 1535.5,-72.5 1535.5,-53.5 1410.5,-53.5"/>
<text text-anchor="middle" x="1473" y="-60.5" font-family="Helvetica,sans-Serif" font-size="10.00" fill="#000000">itk::simple::Command</text>
</a>
</g>
</g>
<!-- Node4&#45;&gt;Node7 -->
<g id="edge7" class="edge">
<title>Node4&#45;&gt;Node7</title>
<path fill="none" stroke="#006400" d="M503.3304,-11.3446C556.1119,-12.3433 626.6759,-13.8968 689,-16 957.6378,-25.0654 1277.4201,-48.0375 1410.2989,-58.1242"/>
<polygon fill="#006400" stroke="#006400" points="503.0824,-7.8394 493.0189,-11.1522 502.9518,-14.8382 503.0824,-7.8394"/>
</g>
<!-- Node5 -->
<g id="node5" class="node">
<title>Node5</title>
<g id="a_node5"><a xlink:title=" ">
<polygon fill="#ffffff" stroke="#bfbfbf" points="1973,-48 1973,-78 2160,-78 2160,-48 1973,-48"/>
<text text-anchor="start" x="1981" y="-66" font-family="Helvetica,sans-Serif" font-size="10.00" fill="#000000">std::list&lt; itk::simple</text>
<text text-anchor="middle" x="2066.5" y="-55" font-family="Helvetica,sans-Serif" font-size="10.00" fill="#000000">::ProcessObject::EventCommand &gt;</text>
</a>
</g>
</g>
<!-- Node5&#45;&gt;Node3 -->
<g id="edge4" class="edge">
<title>Node5&#45;&gt;Node3</title>
<path fill="none" stroke="#9a32cd" stroke-dasharray="5,2" d="M1965.1063,-46.5851C1939.975,-43.1283 1913.0636,-39.9429 1888,-38 1500.6541,-7.9738 1034.3567,-28.7777 858.6373,-38.626"/>
<polygon fill="#9a32cd" stroke="#9a32cd" points="1964.6226,-50.0514 1975.0117,-47.9738 1965.5945,-43.1192 1964.6226,-50.0514"/>
<text text-anchor="middle" x="1473" y="-27" font-family="Helvetica,sans-Serif" font-size="10.00" fill="#000000"> m_Commands</text>
</g>
<!-- Node6 -->
<g id="node6" class="node">
<title>Node6</title>
<g id="a_node6"><a xlink:href="structitk_1_1simple_1_1ProcessObject_1_1EventCommand.html" target="_top" xlink:title=" ">
<polygon fill="#ffffff" stroke="#000000" points="1745,-48 1745,-78 1888,-78 1888,-48 1745,-48"/>
<text text-anchor="start" x="1753" y="-66" font-family="Helvetica,sans-Serif" font-size="10.00" fill="#000000">itk::simple::ProcessObject</text>
<text text-anchor="middle" x="1816.5" y="-55" font-family="Helvetica,sans-Serif" font-size="10.00" fill="#000000">::EventCommand</text>
</a>
</g>
</g>
<!-- Node6&#45;&gt;Node5 -->
<g id="edge5" class="edge">
<title>Node6&#45;&gt;Node5</title>
<path fill="none" stroke="#9a32cd" stroke-dasharray="5,2" d="M1898.2129,-63C1922.0878,-63 1948.3664,-63 1972.9162,-63"/>
<polygon fill="#9a32cd" stroke="#9a32cd" points="1898.14,-59.5001 1888.14,-63 1898.1399,-66.5001 1898.14,-59.5001"/>
<text text-anchor="middle" x="1930.5" y="-66" font-family="Helvetica,sans-Serif" font-size="10.00" fill="#000000"> elements</text>
</g>
<!-- Node7&#45;&gt;Node6 -->
<g id="edge6" class="edge">
<title>Node7&#45;&gt;Node6</title>
<path fill="none" stroke="#9a32cd" stroke-dasharray="5,2" d="M1545.9051,-63C1604.5512,-63 1686.5083,-63 1744.8252,-63"/>
<polygon fill="#9a32cd" stroke="#9a32cd" points="1545.6038,-59.5001 1535.6038,-63 1545.6037,-66.5001 1545.6038,-59.5001"/>
<text text-anchor="middle" x="1656" y="-66" font-family="Helvetica,sans-Serif" font-size="10.00" fill="#000000"> m_Command</text>
</g>
<!-- Node8 -->
<g id="node8" class="node">
<title>Node8</title>
<g id="a_node8"><a xlink:title="STL class.">
<polygon fill="#ffffff" stroke="#bfbfbf" points="1102.5,-150.5 1102.5,-169.5 1167.5,-169.5 1167.5,-150.5 1102.5,-150.5"/>
<text text-anchor="middle" x="1135" y="-157.5" font-family="Helvetica,sans-Serif" font-size="10.00" fill="#000000">std::string</text>
</a>
</g>
</g>
<!-- Node8&#45;&gt;Node2 -->
<g id="edge16" class="edge">
<title>Node8&#45;&gt;Node2</title>
<path fill="none" stroke="#9a32cd" stroke-dasharray="5,2" d="M1177.8386,-159.4561C1192.4797,-159.2868 1208.9549,-159.1147 1224,-159 1279.8725,-158.5739 1342.7987,-158.3232 1391.4136,-158.1793"/>
<polygon fill="#9a32cd" stroke="#9a32cd" points="1177.5063,-155.9597 1167.5485,-159.578 1177.5893,-162.9592 1177.5063,-155.9597"/>
<text text-anchor="middle" x="1292.5" y="-162" font-family="Helvetica,sans-Serif" font-size="10.00" fill="#000000"> m_ImageIOName</text>
</g>
<!-- Node8&#45;&gt;Node7 -->
<g id="edge8" class="edge">
<title>Node8&#45;&gt;Node7</title>
<path fill="none" stroke="#9a32cd" stroke-dasharray="5,2" d="M1177.6983,-147.7463C1245.917,-128.1688 1378.0713,-90.2429 1439.7673,-72.5372"/>
<polygon fill="#9a32cd" stroke="#9a32cd" points="1176.3625,-144.4883 1167.716,-150.6111 1178.2935,-151.2168 1176.3625,-144.4883"/>
<text text-anchor="middle" x="1292.5" y="-136" font-family="Helvetica,sans-Serif" font-size="10.00" fill="#000000"> m_Name</text>
</g>
<!-- Node22 -->
<g id="node22" class="node">
<title>Node22</title>
<g id="a_node22"><a xlink:title=" ">
<polygon fill="#ffffff" stroke="#bfbfbf" points="1403,-194.5 1403,-213.5 1543,-213.5 1543,-194.5 1403,-194.5"/>
<text text-anchor="middle" x="1473" y="-201.5" font-family="Helvetica,sans-Serif" font-size="10.00" fill="#000000">std::vector&lt; std::string &gt;</text>
</a>
</g>
</g>
<!-- Node8&#45;&gt;Node22 -->
<g id="edge27" class="edge">
<title>Node8&#45;&gt;Node22</title>
<path fill="none" stroke="#9a32cd" stroke-dasharray="5,2" d="M1177.7577,-165.5661C1234.372,-172.936 1334.9454,-186.0284 1402.7882,-194.86"/>
<polygon fill="#9a32cd" stroke="#9a32cd" points="1178.0841,-162.0791 1167.716,-164.2589 1177.1805,-169.0206 1178.0841,-162.0791"/>
<text text-anchor="middle" x="1292.5" y="-191" font-family="Helvetica,sans-Serif" font-size="10.00" fill="#000000"> elements</text>
</g>
<!-- Node9 -->
<g id="node9" class="node">
<title>Node9</title>
<g id="a_node9"><a xlink:title="STL class.">
<polygon fill="#ffffff" stroke="#bfbfbf" points="735,-126 735,-156 839,-156 839,-126 735,-126"/>
<text text-anchor="start" x="743" y="-144" font-family="Helvetica,sans-Serif" font-size="10.00" fill="#000000">std::basic_string&lt;</text>
<text text-anchor="middle" x="787" y="-133" font-family="Helvetica,sans-Serif" font-size="10.00" fill="#000000"> char &gt;</text>
</a>
</g>
</g>
<!-- Node9&#45;&gt;Node8 -->
<g id="edge9" class="edge">
<title>Node9&#45;&gt;Node8</title>
<path fill="none" stroke="#191970" d="M849.2464,-144.3985C923.4522,-148.45 1044.6649,-155.0679 1102.4174,-158.2211"/>
<polygon fill="#191970" stroke="#191970" points="849.2751,-140.895 839.0991,-143.8445 848.8934,-147.8845 849.2751,-140.895"/>
</g>
<!-- Node10&#45;&gt;Node7 -->
<g id="edge10" class="edge">
<title>Node10&#45;&gt;Node7</title>
<path fill="none" stroke="#9a32cd" stroke-dasharray="5,2" d="M1203.4714,-65.2499C1210.4004,-64.7454 1217.3364,-64.3123 1224,-64 1287.3698,-61.0301 1359.9101,-61.1366 1410.2834,-61.7683"/>
<polygon fill="#9a32cd" stroke="#9a32cd" points="1203.0567,-61.7714 1193.3573,-66.0344 1203.5981,-68.7505 1203.0567,-61.7714"/>
<text text-anchor="middle" x="1292.5" y="-67" font-family="Helvetica,sans-Serif" font-size="10.00" fill="#000000"> m_ReferencedObjects</text>
</g>
<!-- Node11 -->
<g id="node11" class="node">
<title>Node11</title>
<g id="a_node11"><a xlink:title="STL class.">
<polygon fill="#ffffff" stroke="#bfbfbf" points="746,-85.5 746,-104.5 828,-104.5 828,-85.5 746,-85.5"/>
<text text-anchor="middle" x="787" y="-92.5" font-family="Helvetica,sans-Serif" font-size="10.00" fill="#000000">std::set&lt; K &gt;</text>
</a>
</g>
</g>
<!-- Node11&#45;&gt;Node10 -->
<g id="edge12" class="edge">
<title>Node11&#45;&gt;Node10</title>
<path fill="none" stroke="#ffa500" stroke-dasharray="5,2" d="M838.4997,-91.5963C902.2167,-87.3851 1010.4124,-80.2342 1076.9944,-75.8337"/>
<polygon fill="#ffa500" stroke="#ffa500" points="838.0341,-88.1193 828.2867,-92.2713 838.4958,-95.1041 838.0341,-88.1193"/>
<text text-anchor="middle" x="965.5" y="-92" font-family="Helvetica,sans-Serif" font-size="10.00" fill="#000000"> &lt; itk::simple::ProcessObject * &gt;</text>
</g>
<!-- Node12 -->
<g id="node12" class="node">
<title>Node12</title>
<g id="a_node12"><a xlink:title=" ">
<polygon fill="#ffffff" stroke="#bfbfbf" points="408.5,-85.5 408.5,-104.5 437.5,-104.5 437.5,-85.5 408.5,-85.5"/>
<text text-anchor="middle" x="423" y="-92.5" font-family="Helvetica,sans-Serif" font-size="10.00" fill="#000000">K</text>
</a>
</g>
</g>
<!-- Node12&#45;&gt;Node11 -->
<g id="edge13" class="edge">
<title>Node12&#45;&gt;Node11</title>
<path fill="none" stroke="#9a32cd" stroke-dasharray="5,2" d="M448.0676,-95C509.8336,-95 669.8261,-95 745.7923,-95"/>
<polygon fill="#9a32cd" stroke="#9a32cd" points="447.7201,-91.5001 437.7201,-95 447.72,-98.5001 447.7201,-91.5001"/>
<text text-anchor="middle" x="608" y="-98" font-family="Helvetica,sans-Serif" font-size="10.00" fill="#000000"> keys</text>
</g>
<!-- Node13 -->
<g id="node13" class="node">
<title>Node13</title>
<g id="a_node13"><a xlink:title="STL class.">
<polygon fill="#ffffff" stroke="#bfbfbf" points="1252,-336.5 1252,-355.5 1333,-355.5 1333,-336.5 1252,-336.5"/>
<text text-anchor="middle" x="1292.5" y="-343.5" font-family="Helvetica,sans-Serif" font-size="10.00" fill="#000000">std::list&lt; T &gt;</text>
</a>
</g>
</g>
<!-- Node13&#45;&gt;Node5 -->
<g id="edge14" class="edge">
<title>Node13&#45;&gt;Node5</title>
<path fill="none" stroke="#ffa500" stroke-dasharray="5,2" d="M1343.4415,-345.243C1450.2754,-341.7368 1703.1453,-323.2643 1888,-229 1963.2123,-190.6464 2029.6029,-111.2581 2055.2445,-78.0838"/>
<polygon fill="#ffa500" stroke="#ffa500" points="1343.1541,-341.7499 1333.2626,-345.5457 1343.3622,-348.7468 1343.1541,-341.7499"/>
<text text-anchor="start" x="1585" y="-334" font-family="Helvetica,sans-Serif" font-size="10.00" fill="#000000"> &lt; itk::simple::ProcessObject</text>
<text text-anchor="middle" x="1656" y="-323" font-family="Helvetica,sans-Serif" font-size="10.00" fill="#000000">::EventCommand &gt;</text>
</g>
<!-- Node14 -->
<g id="node14" class="node">
<title>Node14</title>
<g id="a_node14"><a xlink:title=" ">
<polygon fill="#ffffff" stroke="#bfbfbf" points="772.5,-302.5 772.5,-321.5 801.5,-321.5 801.5,-302.5 772.5,-302.5"/>
<text text-anchor="middle" x="787" y="-309.5" font-family="Helvetica,sans-Serif" font-size="10.00" fill="#000000">T</text>
</a>
</g>
</g>
<!-- Node14&#45;&gt;Node13 -->
<g id="edge15" class="edge">
<title>Node14&#45;&gt;Node13</title>
<path fill="none" stroke="#9a32cd" stroke-dasharray="5,2" d="M811.5947,-315.4813C831.3855,-318.1691 859.9321,-321.7911 885,-324 1019.0946,-335.8159 1178.6107,-342.2111 1251.9484,-344.7233"/>
<polygon fill="#9a32cd" stroke="#9a32cd" points="811.9629,-311.999 801.5783,-314.0991 811.0059,-318.9333 811.9629,-311.999"/>
<text text-anchor="middle" x="965.5" y="-338" font-family="Helvetica,sans-Serif" font-size="10.00" fill="#000000"> elements</text>
</g>
<!-- Node21 -->
<g id="node21" class="node">
<title>Node21</title>
<g id="a_node21"><a xlink:title="STL class.">
<polygon fill="#ffffff" stroke="#bfbfbf" points="1076,-298.5 1076,-317.5 1194,-317.5 1194,-298.5 1076,-298.5"/>
<text text-anchor="middle" x="1135" y="-305.5" font-family="Helvetica,sans-Serif" font-size="10.00" fill="#000000">std::unique_ptr&lt; T &gt;</text>
</a>
</g>
</g>
<!-- Node14&#45;&gt;Node21 -->
<g id="edge25" class="edge">
<title>Node14&#45;&gt;Node21</title>
<path fill="none" stroke="#9a32cd" stroke-dasharray="5,2" d="M811.6324,-311.7169C866.1703,-311.09 998.402,-309.5701 1075.8295,-308.6801"/>
<polygon fill="#9a32cd" stroke="#9a32cd" points="811.4692,-308.2184 801.5101,-311.8332 811.5497,-315.218 811.4692,-308.2184"/>
<text text-anchor="middle" x="965.5" y="-313" font-family="Helvetica,sans-Serif" font-size="10.00" fill="#000000"> ptr</text>
</g>
<!-- Node23 -->
<g id="node23" class="node">
<title>Node23</title>
<g id="a_node23"><a xlink:title="STL class.">
<polygon fill="#ffffff" stroke="#bfbfbf" points="1086.5,-260.5 1086.5,-279.5 1183.5,-279.5 1183.5,-260.5 1086.5,-260.5"/>
<text text-anchor="middle" x="1135" y="-267.5" font-family="Helvetica,sans-Serif" font-size="10.00" fill="#000000">std::vector&lt; T &gt;</text>
</a>
</g>
</g>
<!-- Node14&#45;&gt;Node23 -->
<g id="edge29" class="edge">
<title>Node14&#45;&gt;Node23</title>
<path fill="none" stroke="#9a32cd" stroke-dasharray="5,2" d="M811.5485,-306.8857C831.3133,-302.9146 859.8475,-297.5106 885,-294 954.7417,-284.2659 1035.9849,-277.2619 1086.4619,-273.4174"/>
<polygon fill="#9a32cd" stroke="#9a32cd" points="810.6473,-303.4974 801.5474,-308.9234 812.0449,-310.3564 810.6473,-303.4974"/>
<text text-anchor="middle" x="965.5" y="-297" font-family="Helvetica,sans-Serif" font-size="10.00" fill="#000000"> elements</text>
</g>
<!-- Node15 -->
<g id="node15" class="node">
<title>Node15</title>
<g id="a_node15"><a xlink:title=" ">
<polygon fill="#ffffff" stroke="#bfbfbf" points="1379,-239.5 1379,-280.5 1567,-280.5 1567,-239.5 1379,-239.5"/>
<text text-anchor="start" x="1387" y="-268.5" font-family="Helvetica,sans-Serif" font-size="10.00" fill="#000000">std::unique_ptr&lt; itk</text>
<text text-anchor="start" x="1387" y="-257.5" font-family="Helvetica,sans-Serif" font-size="10.00" fill="#000000">::simple::detail::MemberFunction</text>
<text text-anchor="middle" x="1473" y="-246.5" font-family="Helvetica,sans-Serif" font-size="10.00" fill="#000000">Factory&lt; MemberFunctionType &gt; &gt;</text>
</a>
</g>
</g>
<!-- Node15&#45;&gt;Node1 -->
<g id="edge17" class="edge">
<title>Node15&#45;&gt;Node1</title>
<path fill="none" stroke="#9a32cd" stroke-dasharray="5,2" d="M1577.0811,-243.3444C1623.0463,-235.9514 1677.7248,-227.1061 1727,-219 1733.9957,-217.8492 1741.2974,-216.6394 1748.5814,-215.4271"/>
<polygon fill="#9a32cd" stroke="#9a32cd" points="1576.4269,-239.9045 1567.1092,-244.9475 1577.538,-246.8158 1576.4269,-239.9045"/>
<text text-anchor="middle" x="1656" y="-244" font-family="Helvetica,sans-Serif" font-size="10.00" fill="#000000"> m_MemberFactory</text>
</g>
<!-- Node16 -->
<g id="node16" class="node">
<title>Node16</title>
<g id="a_node16"><a xlink:href="classitk_1_1simple_1_1detail_1_1MemberFunctionFactory.html" target="_top" xlink:title=" ">
<polygon fill="#ffffff" stroke="#000000" points="1064,-200.5 1064,-241.5 1206,-241.5 1206,-200.5 1064,-200.5"/>
<text text-anchor="start" x="1072" y="-229.5" font-family="Helvetica,sans-Serif" font-size="10.00" fill="#000000">itk::simple::detail</text>
<text text-anchor="start" x="1072" y="-218.5" font-family="Helvetica,sans-Serif" font-size="10.00" fill="#000000">::MemberFunctionFactory</text>
<text text-anchor="middle" x="1135" y="-207.5" font-family="Helvetica,sans-Serif" font-size="10.00" fill="#000000">&lt; MemberFunctionType &gt;</text>
</a>
</g>
</g>
<!-- Node16&#45;&gt;Node15 -->
<g id="edge18" class="edge">
<title>Node16&#45;&gt;Node15</title>
<path fill="none" stroke="#9a32cd" stroke-dasharray="5,2" d="M1216.3379,-236.8796C1218.919,-237.2737 1221.4779,-237.6486 1224,-238 1274.9342,-245.0963 1332.0671,-250.3368 1378.7465,-253.9192"/>
<polygon fill="#9a32cd" stroke="#9a32cd" points="1216.7311,-233.3981 1206.3037,-235.274 1215.625,-240.3102 1216.7311,-233.3981"/>
<text text-anchor="middle" x="1292.5" y="-255" font-family="Helvetica,sans-Serif" font-size="10.00" fill="#000000"> ptr</text>
</g>
<!-- Node17 -->
<g id="node17" class="node">
<title>Node17</title>
<g id="a_node17"><a xlink:href="classitk_1_1simple_1_1detail_1_1MemberFunctionFactoryBase.html" target="_top" xlink:title=" ">
<polygon fill="#ffffff" stroke="#000000" points="527,-220 527,-272 689,-272 689,-220 527,-220"/>
<text text-anchor="start" x="535" y="-260" font-family="Helvetica,sans-Serif" font-size="10.00" fill="#000000">itk::simple::detail</text>
<text text-anchor="start" x="535" y="-249" font-family="Helvetica,sans-Serif" font-size="10.00" fill="#000000">::MemberFunctionFactoryBase</text>
<text text-anchor="start" x="535" y="-238" font-family="Helvetica,sans-Serif" font-size="10.00" fill="#000000">&lt; MemberFunctionType, std</text>
<text text-anchor="middle" x="608" y="-227" font-family="Helvetica,sans-Serif" font-size="10.00" fill="#000000">::pair&lt; unsigned int, int &gt; &gt;</text>
</a>
</g>
</g>
<!-- Node17&#45;&gt;Node16 -->
<g id="edge19" class="edge">
<title>Node17&#45;&gt;Node16</title>
<path fill="none" stroke="#006400" d="M699.2166,-243.8107C787.8642,-241.3641 926.2596,-236.7003 1046,-229 1051.7282,-228.6316 1057.6598,-228.2026 1063.6162,-227.7382"/>
<polygon fill="#006400" stroke="#006400" points="699.0939,-240.3127 689.1929,-244.0838 699.2845,-247.3101 699.0939,-240.3127"/>
</g>
<!-- Node18 -->
<g id="node18" class="node">
<title>Node18</title>
<g id="a_node18"><a xlink:href="classitk_1_1simple_1_1detail_1_1MemberFunctionFactoryBase.html" target="_top" xlink:title="A base class for the MemberFunctionFactory.">
<polygon fill="#ffffff" stroke="#000000" points="0,-204 0,-234 162,-234 162,-204 0,-204"/>
<text text-anchor="start" x="8" y="-222" font-family="Helvetica,sans-Serif" font-size="10.00" fill="#000000">itk::simple::detail</text>
<text text-anchor="middle" x="81" y="-211" font-family="Helvetica,sans-Serif" font-size="10.00" fill="#000000">::MemberFunctionFactoryBase</text>
</a>
</g>
</g>
<!-- Node18&#45;&gt;Node17 -->
<g id="edge20" class="edge">
<title>Node18&#45;&gt;Node17</title>
<path fill="none" stroke="#ffa500" stroke-dasharray="5,2" d="M172.2293,-224.5683C174.848,-224.7156 177.4425,-224.8598 180,-225 300.7104,-231.619 440.6281,-238.2965 526.7313,-242.2912"/>
<polygon fill="#ffa500" stroke="#ffa500" points="172.2199,-221.0622 162.0369,-223.9875 171.8215,-228.0509 172.2199,-221.0622"/>
<text text-anchor="start" x="189" y="-257" font-family="Helvetica,sans-Serif" font-size="10.00" fill="#000000"> &lt; MemberFunctionType,</text>
<text text-anchor="start" x="189" y="-246" font-family="Helvetica,sans-Serif" font-size="10.00" fill="#000000"> std::pair&lt; unsigned</text>
<text text-anchor="middle" x="249.5" y="-235" font-family="Helvetica,sans-Serif" font-size="10.00" fill="#000000"> int, int &gt; &gt;</text>
</g>
<!-- Node20 -->
<g id="node20" class="node">
<title>Node20</title>
<g id="a_node20"><a xlink:href="classitk_1_1simple_1_1detail_1_1MemberFunctionFactoryBase.html" target="_top" xlink:title=" ">
<polygon fill="#ffffff" stroke="#000000" points="337,-166 337,-218 509,-218 509,-166 337,-166"/>
<text text-anchor="start" x="345" y="-206" font-family="Helvetica,sans-Serif" font-size="10.00" fill="#000000">itk::simple::detail</text>
<text text-anchor="start" x="345" y="-195" font-family="Helvetica,sans-Serif" font-size="10.00" fill="#000000">::MemberFunctionFactoryBase</text>
<text text-anchor="start" x="345" y="-184" font-family="Helvetica,sans-Serif" font-size="10.00" fill="#000000">&lt; TMemberFunctionPointer,</text>
<text text-anchor="middle" x="423" y="-173" font-family="Helvetica,sans-Serif" font-size="10.00" fill="#000000"> std::pair&lt; unsigned int, int &gt; &gt;</text>
</a>
</g>
</g>
<!-- Node18&#45;&gt;Node20 -->
<g id="edge23" class="edge">
<title>Node18&#45;&gt;Node20</title>
<path fill="none" stroke="#ffa500" stroke-dasharray="5,2" d="M136.3452,-201.1219C150.432,-197.3448 165.6491,-193.9219 180,-192 231.7451,-185.0704 290.246,-184.8403 336.8797,-186.4519"/>
<polygon fill="#ffa500" stroke="#ffa500" points="135.0086,-197.861 126.3162,-203.9185 136.8888,-204.6038 135.0086,-197.861"/>
<text text-anchor="start" x="180" y="-217" font-family="Helvetica,sans-Serif" font-size="10.00" fill="#000000"> &lt; TMemberFunctionPointer,</text>
<text text-anchor="start" x="180" y="-206" font-family="Helvetica,sans-Serif" font-size="10.00" fill="#000000"> std::pair&lt; unsigned int,</text>
<text text-anchor="middle" x="249.5" y="-195" font-family="Helvetica,sans-Serif" font-size="10.00" fill="#000000"> int &gt; &gt;</text>
</g>
<!-- Node19 -->
<g id="node19" class="node">
<title>Node19</title>
<g id="a_node19"><a xlink:href="classitk_1_1simple_1_1detail_1_1MemberFunctionFactory.html" target="_top" xlink:title="A class used to instantiate and generate function object to templated member functions.">
<polygon fill="#ffffff" stroke="#000000" points="707,-175.5 707,-216.5 867,-216.5 867,-175.5 707,-175.5"/>
<text text-anchor="start" x="715" y="-204.5" font-family="Helvetica,sans-Serif" font-size="10.00" fill="#000000">itk::simple::detail</text>
<text text-anchor="start" x="715" y="-193.5" font-family="Helvetica,sans-Serif" font-size="10.00" fill="#000000">::MemberFunctionFactory</text>
<text text-anchor="middle" x="787" y="-182.5" font-family="Helvetica,sans-Serif" font-size="10.00" fill="#000000">&lt; TMemberFunctionPointer &gt;</text>
</a>
</g>
</g>
<!-- Node19&#45;&gt;Node16 -->
<g id="edge21" class="edge">
<title>Node19&#45;&gt;Node16</title>
<path fill="none" stroke="#ffa500" stroke-dasharray="5,2" d="M877.5632,-202.506C935.7015,-206.6826 1010.122,-212.0289 1063.9803,-215.898"/>
<polygon fill="#ffa500" stroke="#ffa500" points="877.5003,-198.9925 867.2752,-201.7669 876.9987,-205.9745 877.5003,-198.9925"/>
<text text-anchor="middle" x="965.5" y="-217" font-family="Helvetica,sans-Serif" font-size="10.00" fill="#000000"> &lt; MemberFunctionType &gt;</text>
</g>
<!-- Node20&#45;&gt;Node19 -->
<g id="edge22" class="edge">
<title>Node20&#45;&gt;Node19</title>
<path fill="none" stroke="#006400" d="M519.623,-193.0618C578.0927,-193.7043 651.7628,-194.5139 706.9603,-195.1204"/>
<polygon fill="#006400" stroke="#006400" points="519.3008,-189.5581 509.2629,-192.9479 519.2238,-196.5577 519.3008,-189.5581"/>
</g>
<!-- Node21&#45;&gt;Node15 -->
<g id="edge24" class="edge">
<title>Node21&#45;&gt;Node15</title>
<path fill="none" stroke="#ffa500" stroke-dasharray="5,2" d="M1204.6078,-296.9116C1211.1603,-295.9096 1217.7035,-294.925 1224,-294 1275.1529,-286.4852 1332.302,-278.6423 1378.9358,-272.3853"/>
<polygon fill="#ffa500" stroke="#ffa500" points="1203.6879,-293.5119 1194.3377,-298.4942 1204.7541,-300.4303 1203.6879,-293.5119"/>
<text text-anchor="start" x="1224" y="-319" font-family="Helvetica,sans-Serif" font-size="10.00" fill="#000000"> &lt; itk::simple::detail</text>
<text text-anchor="start" x="1224" y="-308" font-family="Helvetica,sans-Serif" font-size="10.00" fill="#000000">::MemberFunctionFactory</text>
<text text-anchor="middle" x="1292.5" y="-297" font-family="Helvetica,sans-Serif" font-size="10.00" fill="#000000">&lt; MemberFunctionType &gt; &gt;</text>
</g>
<!-- Node22&#45;&gt;Node1 -->
<g id="edge26" class="edge">
<title>Node22&#45;&gt;Node1</title>
<path fill="none" stroke="#9a32cd" stroke-dasharray="5,2" d="M1553.4347,-204C1612.83,-204 1692.7695,-204 1748.8845,-204"/>
<polygon fill="#9a32cd" stroke="#9a32cd" points="1553.3413,-200.5001 1543.3412,-204 1553.3412,-207.5001 1553.3413,-200.5001"/>
<text text-anchor="middle" x="1656" y="-207" font-family="Helvetica,sans-Serif" font-size="10.00" fill="#000000"> m_FileNames</text>
</g>
<!-- Node23&#45;&gt;Node22 -->
<g id="edge28" class="edge">
<title>Node23&#45;&gt;Node22</title>
<path fill="none" stroke="#ffa500" stroke-dasharray="5,2" d="M1193.1455,-258.2036C1197.6828,-256.1722 1202.035,-253.7911 1206,-251 1217.4926,-242.9099 1211.8361,-232.0406 1224,-225 1253.3803,-207.9943 1339.8954,-203.9326 1402.709,-203.3442"/>
<polygon fill="#ffa500" stroke="#ffa500" points="1191.6888,-255.0147 1183.6374,-261.9014 1194.226,-261.5387 1191.6888,-255.0147"/>
<text text-anchor="middle" x="1292.5" y="-228" font-family="Helvetica,sans-Serif" font-size="10.00" fill="#000000"> &lt; std::string &gt;</text>
</g>
</g>
</svg>
