<?xml version="1.0" encoding="UTF-8" standalone="no"?>
<!DOCTYPE svg PUBLIC "-//W3C//DTD SVG 1.1//EN"
 "http://www.w3.org/Graphics/SVG/1.1/DTD/svg11.dtd">
<!-- Generated by graphviz version 2.40.1 (20161225.0304)
 -->
<!-- Title: itk::simple::DICOMOrientImageFilter Pages: 1 -->
<!--zoomable 497 -->
<svg id="main" version="1.1" xmlns="http://www.w3.org/2000/svg" xmlns:xlink="http://www.w3.org/1999/xlink" xml:space="preserve" onload="init(evt)">
<style type="text/css"><![CDATA[
.edge:hover path { stroke: red; }
.edge:hover polygon { stroke: red; fill: red; }
]]></style>
<script type="text/javascript"><![CDATA[
var edges = document.getElementsByTagName('g');
if (edges && edges.length) {
  for (var i=0;i<edges.length;i++) {
    if (edges[i].id.substr(0,4)=='edge') {
      edges[i].setAttribute('class','edge');
    }
  }
}
]]></script>
        <defs>
                <circle id="rim" cx="0" cy="0" r="7"/>
                <circle id="rim2" cx="0" cy="0" r="3.5"/>
                <g id="zoomPlus">
                        <use xlink:href="#rim" fill="#404040">
                                <set attributeName="fill" to="#808080" begin="zoomplus.mouseover" end="zoomplus.mouseout"/>
                        </use>
                        <path d="M-4,0h8M0,-4v8" fill="none" stroke="white" stroke-width="1.5" pointer-events="none"/>
                </g>
                <g id="zoomMin">
                        <use xlink:href="#rim" fill="#404040">
                                <set attributeName="fill" to="#808080" begin="zoomminus.mouseover" end="zoomminus.mouseout"/>
                        </use>
                        <path d="M-4,0h8" fill="none" stroke="white" stroke-width="1.5" pointer-events="none"/>
                </g>
                <g id="dirArrow">
                        <path fill="none" stroke="white" stroke-width="1.5" d="M0,-3.0v7 M-2.5,-0.5L0,-3.0L2.5,-0.5"/>
                </g>
               <g id="resetDef">
                       <use xlink:href="#rim2" fill="#404040">
                               <set attributeName="fill" to="#808080" begin="reset.mouseover" end="reset.mouseout"/>
                       </use>
               </g>
        </defs>

<script type="text/javascript">
var viewWidth = 2430;
var viewHeight = 497;
var sectionId = 'dynsection-1';
</script>
<script xlink:href="svgpan.js"/>
<svg id="graph" class="graph">
<g id="viewport">
<title>itk::simple::DICOMOrientImageFilter</title>
<polygon fill="#ffffff" stroke="transparent" points="-4,4 -4,-493.088 2426,-493.088 2426,4 -4,4"/>
<!-- Node1 -->
<g id="node1" class="node">
<title>Node1</title>
<g id="a_node1"><a xlink:title="Permute axes and flip images as needed to obtain an approximation to the desired orientation.">
<polygon fill="#bfbfbf" stroke="#000000" points="1762.5,-211.5 1762.5,-241.5 1899.5,-241.5 1899.5,-211.5 1762.5,-211.5"/>
<text text-anchor="start" x="1770.5" y="-229.5" font-family="Helvetica,sans-Serif" font-size="10.00" fill="#000000">itk::simple::DICOMOrient</text>
<text text-anchor="middle" x="1831" y="-218.5" font-family="Helvetica,sans-Serif" font-size="10.00" fill="#000000">ImageFilter</text>
</a>
</g>
</g>
<!-- Node2 -->
<g id="node2" class="node">
<title>Node2</title>
<g id="a_node2"><a xlink:href="classitk_1_1simple_1_1ImageFilter.html" target="_top" xlink:title="The base interface for SimpleITK filters that take one input image.">
<polygon fill="#ffffff" stroke="#000000" points="1401.5,-374 1401.5,-393 1530.5,-393 1530.5,-374 1401.5,-374"/>
<text text-anchor="middle" x="1466" y="-381" font-family="Helvetica,sans-Serif" font-size="10.00" fill="#000000">itk::simple::ImageFilter</text>
</a>
</g>
</g>
<!-- Node2&#45;&gt;Node1 -->
<g id="edge1" class="edge">
<title>Node2&#45;&gt;Node1</title>
<path fill="none" stroke="#191970" d="M1519.2257,-371.7098C1588.0734,-355.9378 1703.7113,-327.5233 1742,-306.5 1772.9595,-289.501 1802.0481,-259.8005 1818.098,-241.7638"/>
<polygon fill="#191970" stroke="#191970" points="1518.3951,-368.3093 1509.4221,-373.9427 1519.9497,-375.1345 1518.3951,-368.3093"/>
</g>
<!-- Node3 -->
<g id="node3" class="node">
<title>Node3</title>
<g id="a_node3"><a xlink:href="classitk_1_1simple_1_1ProcessObject.html" target="_top" xlink:title="Base class for SimpleITK classes based on ProcessObject.">
<polygon fill="#ffffff" stroke="#000000" points="1032,-389 1032,-408 1175,-408 1175,-389 1032,-389"/>
<text text-anchor="middle" x="1103.5" y="-396" font-family="Helvetica,sans-Serif" font-size="10.00" fill="#000000">itk::simple::ProcessObject</text>
</a>
</g>
</g>
<!-- Node3&#45;&gt;Node2 -->
<g id="edge2" class="edge">
<title>Node3&#45;&gt;Node2</title>
<path fill="none" stroke="#191970" d="M1185.3435,-392.9003C1187.9251,-392.7598 1190.4823,-392.6259 1193,-392.5 1264.2805,-388.9368 1346.1037,-386.4526 1401.4381,-385.0102"/>
<polygon fill="#191970" stroke="#191970" points="1185.0822,-389.4094 1175.297,-393.4714 1185.4795,-396.3981 1185.0822,-389.4094"/>
</g>
<!-- Node10 -->
<g id="node10" class="node">
<title>Node10</title>
<g id="a_node10"><a xlink:title=" ">
<polygon fill="#ffffff" stroke="#bfbfbf" points="1408,-412.5 1408,-442.5 1524,-442.5 1524,-412.5 1408,-412.5"/>
<text text-anchor="start" x="1416" y="-430.5" font-family="Helvetica,sans-Serif" font-size="10.00" fill="#000000">std::set&lt; itk::simple</text>
<text text-anchor="middle" x="1466" y="-419.5" font-family="Helvetica,sans-Serif" font-size="10.00" fill="#000000">::ProcessObject * &gt;</text>
</a>
</g>
</g>
<!-- Node3&#45;&gt;Node10 -->
<g id="edge11" class="edge">
<title>Node3&#45;&gt;Node10</title>
<path fill="none" stroke="#9a32cd" stroke-dasharray="5,2" d="M1185.2532,-405.0165C1234.2053,-408.9212 1297.6664,-413.9878 1354,-418.5 1371.5004,-419.9018 1390.5386,-421.4303 1407.8703,-422.8232"/>
<polygon fill="#9a32cd" stroke="#9a32cd" points="1185.2821,-401.5078 1175.0354,-404.2016 1184.7255,-408.4857 1185.2821,-401.5078"/>
<text text-anchor="middle" x="1273.5" y="-421.5" font-family="Helvetica,sans-Serif" font-size="10.00" fill="#000000"> keys</text>
</g>
<!-- Node4 -->
<g id="node4" class="node">
<title>Node4</title>
<g id="a_node4"><a xlink:href="classitk_1_1simple_1_1NonCopyable.html" target="_top" xlink:title="An inheritable class to disable copying of a class.">
<polygon fill="#ffffff" stroke="#000000" points="717,-349 717,-368 857,-368 857,-349 717,-349"/>
<text text-anchor="middle" x="787" y="-356" font-family="Helvetica,sans-Serif" font-size="10.00" fill="#000000">itk::simple::NonCopyable</text>
</a>
</g>
</g>
<!-- Node4&#45;&gt;Node3 -->
<g id="edge3" class="edge">
<title>Node4&#45;&gt;Node3</title>
<path fill="none" stroke="#006400" d="M867.1815,-368.6335C917.8766,-375.0405 982.8331,-383.2498 1031.811,-389.4398"/>
<polygon fill="#006400" stroke="#006400" points="867.6016,-365.1589 857.2416,-367.3773 866.7238,-372.1036 867.6016,-365.1589"/>
</g>
<!-- Node7 -->
<g id="node7" class="node">
<title>Node7</title>
<g id="a_node7"><a xlink:href="classitk_1_1simple_1_1Command.html" target="_top" xlink:title="An implementation of the Command design pattern for callback.">
<polygon fill="#ffffff" stroke="#000000" points="1768.5,-336 1768.5,-355 1893.5,-355 1893.5,-336 1768.5,-336"/>
<text text-anchor="middle" x="1831" y="-343" font-family="Helvetica,sans-Serif" font-size="10.00" fill="#000000">itk::simple::Command</text>
</a>
</g>
</g>
<!-- Node4&#45;&gt;Node7 -->
<g id="edge7" class="edge">
<title>Node4&#45;&gt;Node7</title>
<path fill="none" stroke="#006400" d="M867.2913,-357.5002C1067.8902,-355.0023 1587.7714,-348.5287 1768.2104,-346.2819"/>
<polygon fill="#006400" stroke="#006400" points="867.0765,-354.0025 857.1209,-357.6268 867.1637,-361.002 867.0765,-354.0025"/>
</g>
<!-- Node5 -->
<g id="node5" class="node">
<title>Node5</title>
<g id="a_node5"><a xlink:title=" ">
<polygon fill="#ffffff" stroke="#bfbfbf" points="2235,-330.5 2235,-360.5 2422,-360.5 2422,-330.5 2235,-330.5"/>
<text text-anchor="start" x="2243" y="-348.5" font-family="Helvetica,sans-Serif" font-size="10.00" fill="#000000">std::list&lt; itk::simple</text>
<text text-anchor="middle" x="2328.5" y="-337.5" font-family="Helvetica,sans-Serif" font-size="10.00" fill="#000000">::ProcessObject::EventCommand &gt;</text>
</a>
</g>
</g>
<!-- Node5&#45;&gt;Node3 -->
<g id="edge4" class="edge">
<title>Node5&#45;&gt;Node3</title>
<path fill="none" stroke="#9a32cd" stroke-dasharray="5,2" d="M2304.2735,-367.4655C2261.839,-403.57 2169.8597,-471.5 2078.5,-471.5 1466,-471.5 1466,-471.5 1466,-471.5 1344.4837,-471.5 1297.0607,-519.2502 1193,-456.5 1179.6844,-448.4705 1186.8745,-436.5386 1175,-426.5 1165.3285,-418.3237 1152.9887,-412.3599 1141.2929,-408.0924"/>
<polygon fill="#9a32cd" stroke="#9a32cd" points="2306.8183,-369.8917 2312.0849,-360.6985 2302.2349,-364.6009 2306.8183,-369.8917"/>
<text text-anchor="middle" x="1831" y="-474.5" font-family="Helvetica,sans-Serif" font-size="10.00" fill="#000000"> m_Commands</text>
</g>
<!-- Node6 -->
<g id="node6" class="node">
<title>Node6</title>
<g id="a_node6"><a xlink:href="structitk_1_1simple_1_1ProcessObject_1_1EventCommand.html" target="_top" xlink:title=" ">
<polygon fill="#ffffff" stroke="#000000" points="2007,-330.5 2007,-360.5 2150,-360.5 2150,-330.5 2007,-330.5"/>
<text text-anchor="start" x="2015" y="-348.5" font-family="Helvetica,sans-Serif" font-size="10.00" fill="#000000">itk::simple::ProcessObject</text>
<text text-anchor="middle" x="2078.5" y="-337.5" font-family="Helvetica,sans-Serif" font-size="10.00" fill="#000000">::EventCommand</text>
</a>
</g>
</g>
<!-- Node6&#45;&gt;Node5 -->
<g id="edge5" class="edge">
<title>Node6&#45;&gt;Node5</title>
<path fill="none" stroke="#9a32cd" stroke-dasharray="5,2" d="M2160.2129,-345.5C2184.0878,-345.5 2210.3664,-345.5 2234.9162,-345.5"/>
<polygon fill="#9a32cd" stroke="#9a32cd" points="2160.14,-342.0001 2150.14,-345.5 2160.1399,-349.0001 2160.14,-342.0001"/>
<text text-anchor="middle" x="2192.5" y="-348.5" font-family="Helvetica,sans-Serif" font-size="10.00" fill="#000000"> elements</text>
</g>
<!-- Node7&#45;&gt;Node6 -->
<g id="edge6" class="edge">
<title>Node7&#45;&gt;Node6</title>
<path fill="none" stroke="#9a32cd" stroke-dasharray="5,2" d="M1904.0693,-345.5C1936.4256,-345.5 1974.3698,-345.5 2006.5907,-345.5"/>
<polygon fill="#9a32cd" stroke="#9a32cd" points="1903.7747,-342.0001 1893.7747,-345.5 1903.7746,-349.0001 1903.7747,-342.0001"/>
<text text-anchor="middle" x="1954.5" y="-348.5" font-family="Helvetica,sans-Serif" font-size="10.00" fill="#000000"> m_Command</text>
</g>
<!-- Node8 -->
<g id="node8" class="node">
<title>Node8</title>
<g id="a_node8"><a xlink:title="STL class.">
<polygon fill="#ffffff" stroke="#bfbfbf" points="1433.5,-282 1433.5,-301 1498.5,-301 1498.5,-282 1433.5,-282"/>
<text text-anchor="middle" x="1466" y="-289" font-family="Helvetica,sans-Serif" font-size="10.00" fill="#000000">std::string</text>
</a>
</g>
</g>
<!-- Node8&#45;&gt;Node1 -->
<g id="edge25" class="edge">
<title>Node8&#45;&gt;Node1</title>
<path fill="none" stroke="#9a32cd" stroke-dasharray="5,2" d="M1508.6091,-283.9121C1570.9998,-272.8014 1687.8756,-251.9879 1762.4451,-238.7084"/>
<polygon fill="#9a32cd" stroke="#9a32cd" points="1507.944,-280.4754 1498.7125,-285.6745 1509.1713,-287.3669 1507.944,-280.4754"/>
<text text-anchor="middle" x="1660" y="-273.5" font-family="Helvetica,sans-Serif" font-size="10.00" fill="#000000"> m_DesiredCoordinateOrientation</text>
</g>
<!-- Node8&#45;&gt;Node7 -->
<g id="edge8" class="edge">
<title>Node8&#45;&gt;Node7</title>
<path fill="none" stroke="#9a32cd" stroke-dasharray="5,2" d="M1508.5416,-293.7315C1563.0308,-297.1003 1660.2028,-304.8311 1742,-320.5 1762.1764,-324.3649 1784.4264,-330.6149 1801.6323,-335.8987"/>
<polygon fill="#9a32cd" stroke="#9a32cd" points="1508.745,-290.2375 1498.5537,-293.1335 1508.3266,-297.225 1508.745,-290.2375"/>
<text text-anchor="middle" x="1660" y="-323.5" font-family="Helvetica,sans-Serif" font-size="10.00" fill="#000000"> m_Name</text>
</g>
<!-- Node9 -->
<g id="node9" class="node">
<title>Node9</title>
<g id="a_node9"><a xlink:title="STL class.">
<polygon fill="#ffffff" stroke="#bfbfbf" points="1051.5,-276.5 1051.5,-306.5 1155.5,-306.5 1155.5,-276.5 1051.5,-276.5"/>
<text text-anchor="start" x="1059.5" y="-294.5" font-family="Helvetica,sans-Serif" font-size="10.00" fill="#000000">std::basic_string&lt;</text>
<text text-anchor="middle" x="1103.5" y="-283.5" font-family="Helvetica,sans-Serif" font-size="10.00" fill="#000000"> char &gt;</text>
</a>
</g>
</g>
<!-- Node9&#45;&gt;Node8 -->
<g id="edge9" class="edge">
<title>Node9&#45;&gt;Node8</title>
<path fill="none" stroke="#191970" d="M1165.94,-291.5C1243.4554,-291.5 1372.7938,-291.5 1433.1316,-291.5"/>
<polygon fill="#191970" stroke="#191970" points="1165.8235,-288.0001 1155.8235,-291.5 1165.8234,-295.0001 1165.8235,-288.0001"/>
</g>
<!-- Node10&#45;&gt;Node7 -->
<g id="edge10" class="edge">
<title>Node10&#45;&gt;Node7</title>
<path fill="none" stroke="#9a32cd" stroke-dasharray="5,2" d="M1534.0245,-412.2178C1608.6647,-395.4493 1726.153,-369.0547 1788.6312,-355.0185"/>
<polygon fill="#9a32cd" stroke="#9a32cd" points="1533.2285,-408.8093 1524.2389,-414.4162 1534.763,-415.6391 1533.2285,-408.8093"/>
<text text-anchor="middle" x="1660" y="-404.5" font-family="Helvetica,sans-Serif" font-size="10.00" fill="#000000"> m_ReferencedObjects</text>
</g>
<!-- Node11 -->
<g id="node11" class="node">
<title>Node11</title>
<g id="a_node11"><a xlink:title="STL class.">
<polygon fill="#ffffff" stroke="#bfbfbf" points="1062.5,-436 1062.5,-455 1144.5,-455 1144.5,-436 1062.5,-436"/>
<text text-anchor="middle" x="1103.5" y="-443" font-family="Helvetica,sans-Serif" font-size="10.00" fill="#000000">std::set&lt; K &gt;</text>
</a>
</g>
</g>
<!-- Node11&#45;&gt;Node10 -->
<g id="edge12" class="edge">
<title>Node11&#45;&gt;Node10</title>
<path fill="none" stroke="#ffa500" stroke-dasharray="5,2" d="M1155.0074,-442.9424C1221.7727,-439.6271 1337.8984,-433.8609 1407.7891,-430.3905"/>
<polygon fill="#ffa500" stroke="#ffa500" points="1154.5445,-439.461 1144.7304,-443.4527 1154.8917,-446.4524 1154.5445,-439.461"/>
<text text-anchor="middle" x="1273.5" y="-444.5" font-family="Helvetica,sans-Serif" font-size="10.00" fill="#000000"> &lt; itk::simple::ProcessObject * &gt;</text>
</g>
<!-- Node12 -->
<g id="node12" class="node">
<title>Node12</title>
<g id="a_node12"><a xlink:title=" ">
<polygon fill="#ffffff" stroke="#bfbfbf" points="772.5,-436 772.5,-455 801.5,-455 801.5,-436 772.5,-436"/>
<text text-anchor="middle" x="787" y="-443" font-family="Helvetica,sans-Serif" font-size="10.00" fill="#000000">K</text>
</a>
</g>
</g>
<!-- Node12&#45;&gt;Node11 -->
<g id="edge13" class="edge">
<title>Node12&#45;&gt;Node11</title>
<path fill="none" stroke="#9a32cd" stroke-dasharray="5,2" d="M811.9574,-445.5C866.2999,-445.5 995.7864,-445.5 1062.3856,-445.5"/>
<polygon fill="#9a32cd" stroke="#9a32cd" points="811.841,-442.0001 801.8409,-445.5 811.8409,-449.0001 811.841,-442.0001"/>
<text text-anchor="middle" x="949.5" y="-448.5" font-family="Helvetica,sans-Serif" font-size="10.00" fill="#000000"> keys</text>
</g>
<!-- Node13 -->
<g id="node13" class="node">
<title>Node13</title>
<g id="a_node13"><a xlink:title="STL class.">
<polygon fill="#ffffff" stroke="#bfbfbf" points="1233,-74 1233,-93 1314,-93 1314,-74 1233,-74"/>
<text text-anchor="middle" x="1273.5" y="-81" font-family="Helvetica,sans-Serif" font-size="10.00" fill="#000000">std::list&lt; T &gt;</text>
</a>
</g>
</g>
<!-- Node13&#45;&gt;Node5 -->
<g id="edge14" class="edge">
<title>Node13&#45;&gt;Node5</title>
<path fill="none" stroke="#ffa500" stroke-dasharray="5,2" d="M1324.5265,-85.2285C1398.4726,-87.5805 1539.7382,-91.5 1660,-91.5 1660,-91.5 1660,-91.5 2078.5,-91.5 2213.3849,-91.5 2299.8336,-275.6903 2322.5261,-330.3718"/>
<polygon fill="#ffa500" stroke="#ffa500" points="1324.2229,-81.717 1314.1154,-84.8935 1323.9977,-88.7134 1324.2229,-81.717"/>
<text text-anchor="start" x="1760" y="-105.5" font-family="Helvetica,sans-Serif" font-size="10.00" fill="#000000"> &lt; itk::simple::ProcessObject</text>
<text text-anchor="middle" x="1831" y="-94.5" font-family="Helvetica,sans-Serif" font-size="10.00" fill="#000000">::EventCommand &gt;</text>
</g>
<!-- Node14 -->
<g id="node14" class="node">
<title>Node14</title>
<g id="a_node14"><a xlink:title=" ">
<polygon fill="#ffffff" stroke="#bfbfbf" points="772.5,-150 772.5,-169 801.5,-169 801.5,-150 772.5,-150"/>
<text text-anchor="middle" x="787" y="-157" font-family="Helvetica,sans-Serif" font-size="10.00" fill="#000000">T</text>
</a>
</g>
</g>
<!-- Node14&#45;&gt;Node13 -->
<g id="edge15" class="edge">
<title>Node14&#45;&gt;Node13</title>
<path fill="none" stroke="#9a32cd" stroke-dasharray="5,2" d="M811.6352,-155.6731C831.4488,-152.6088 860.0063,-148.2226 885,-144.5 1013.8127,-125.3144 1047.557,-129.3156 1175,-102.5 1183.125,-100.7904 1184.9001,-99.3247 1193,-97.5 1205.87,-94.6008 1220.013,-91.9604 1232.8055,-89.7735"/>
<polygon fill="#9a32cd" stroke="#9a32cd" points="810.9516,-152.2372 801.6054,-157.2269 812.0233,-159.1547 810.9516,-152.2372"/>
<text text-anchor="middle" x="949.5" y="-147.5" font-family="Helvetica,sans-Serif" font-size="10.00" fill="#000000"> elements</text>
</g>
<!-- Node21 -->
<g id="node21" class="node">
<title>Node21</title>
<g id="a_node21"><a xlink:title="STL class.">
<polygon fill="#ffffff" stroke="#bfbfbf" points="1044.5,-150 1044.5,-169 1162.5,-169 1162.5,-150 1044.5,-150"/>
<text text-anchor="middle" x="1103.5" y="-157" font-family="Helvetica,sans-Serif" font-size="10.00" fill="#000000">std::unique_ptr&lt; T &gt;</text>
</a>
</g>
</g>
<!-- Node14&#45;&gt;Node21 -->
<g id="edge24" class="edge">
<title>Node14&#45;&gt;Node21</title>
<path fill="none" stroke="#9a32cd" stroke-dasharray="5,2" d="M812.0086,-159.5C861.7793,-159.5 974.4369,-159.5 1044.214,-159.5"/>
<polygon fill="#9a32cd" stroke="#9a32cd" points="811.841,-156.0001 801.8409,-159.5 811.8409,-163.0001 811.841,-156.0001"/>
<text text-anchor="middle" x="949.5" y="-162.5" font-family="Helvetica,sans-Serif" font-size="10.00" fill="#000000"> ptr</text>
</g>
<!-- Node23 -->
<g id="node23" class="node">
<title>Node23</title>
<g id="a_node23"><a xlink:title="STL class.">
<polygon fill="#ffffff" stroke="#bfbfbf" points="1055,-197 1055,-216 1152,-216 1152,-197 1055,-197"/>
<text text-anchor="middle" x="1103.5" y="-204" font-family="Helvetica,sans-Serif" font-size="10.00" fill="#000000">std::vector&lt; T &gt;</text>
</a>
</g>
</g>
<!-- Node14&#45;&gt;Node23 -->
<g id="edge28" class="edge">
<title>Node14&#45;&gt;Node23</title>
<path fill="none" stroke="#9a32cd" stroke-dasharray="5,2" d="M811.9008,-163.1978C864.2195,-170.967 986.3678,-189.106 1054.8134,-199.2701"/>
<polygon fill="#9a32cd" stroke="#9a32cd" points="812.2466,-159.7108 801.8409,-161.7039 811.2183,-166.6349 812.2466,-159.7108"/>
<text text-anchor="middle" x="949.5" y="-196.5" font-family="Helvetica,sans-Serif" font-size="10.00" fill="#000000"> elements</text>
</g>
<!-- Node15 -->
<g id="node15" class="node">
<title>Node15</title>
<g id="a_node15"><a xlink:title=" ">
<polygon fill="#ffffff" stroke="#bfbfbf" points="1372,-127 1372,-168 1560,-168 1560,-127 1372,-127"/>
<text text-anchor="start" x="1380" y="-156" font-family="Helvetica,sans-Serif" font-size="10.00" fill="#000000">std::unique_ptr&lt; itk</text>
<text text-anchor="start" x="1380" y="-145" font-family="Helvetica,sans-Serif" font-size="10.00" fill="#000000">::simple::detail::MemberFunction</text>
<text text-anchor="middle" x="1466" y="-134" font-family="Helvetica,sans-Serif" font-size="10.00" fill="#000000">Factory&lt; MemberFunctionType &gt; &gt;</text>
</a>
</g>
</g>
<!-- Node15&#45;&gt;Node1 -->
<g id="edge16" class="edge">
<title>Node15&#45;&gt;Node1</title>
<path fill="none" stroke="#9a32cd" stroke-dasharray="5,2" d="M1570.1609,-153.1779C1622.5497,-158.0114 1686.5341,-166.955 1742,-183.5 1764.3642,-190.1711 1788.0846,-201.8899 1805.4085,-211.4104"/>
<polygon fill="#9a32cd" stroke="#9a32cd" points="1570.4515,-149.69 1560.1815,-152.2936 1569.8336,-156.6627 1570.4515,-149.69"/>
<text text-anchor="middle" x="1660" y="-186.5" font-family="Helvetica,sans-Serif" font-size="10.00" fill="#000000"> m_MemberFactory</text>
</g>
<!-- Node16 -->
<g id="node16" class="node">
<title>Node16</title>
<g id="a_node16"><a xlink:href="classitk_1_1simple_1_1detail_1_1MemberFunctionFactory.html" target="_top" xlink:title=" ">
<polygon fill="#ffffff" stroke="#000000" points="1032.5,-52 1032.5,-93 1174.5,-93 1174.5,-52 1032.5,-52"/>
<text text-anchor="start" x="1040.5" y="-81" font-family="Helvetica,sans-Serif" font-size="10.00" fill="#000000">itk::simple::detail</text>
<text text-anchor="start" x="1040.5" y="-70" font-family="Helvetica,sans-Serif" font-size="10.00" fill="#000000">::MemberFunctionFactory</text>
<text text-anchor="middle" x="1103.5" y="-59" font-family="Helvetica,sans-Serif" font-size="10.00" fill="#000000">&lt; MemberFunctionType &gt;</text>
</a>
</g>
</g>
<!-- Node16&#45;&gt;Node15 -->
<g id="edge17" class="edge">
<title>Node16&#45;&gt;Node15</title>
<path fill="none" stroke="#9a32cd" stroke-dasharray="5,2" d="M1184.5311,-92.606C1187.3867,-93.2548 1190.2163,-93.8881 1193,-94.5 1252.2971,-107.5356 1319.2111,-120.553 1371.9513,-130.4247"/>
<polygon fill="#9a32cd" stroke="#9a32cd" points="1185.2813,-89.1872 1174.7504,-90.3496 1183.7076,-96.0081 1185.2813,-89.1872"/>
<text text-anchor="middle" x="1273.5" y="-129.5" font-family="Helvetica,sans-Serif" font-size="10.00" fill="#000000"> ptr</text>
</g>
<!-- Node17 -->
<g id="node17" class="node">
<title>Node17</title>
<g id="a_node17"><a xlink:href="classitk_1_1simple_1_1detail_1_1MemberFunctionFactoryBase.html" target="_top" xlink:title=" ">
<polygon fill="#ffffff" stroke="#000000" points="527,-54.5 527,-106.5 689,-106.5 689,-54.5 527,-54.5"/>
<text text-anchor="start" x="535" y="-94.5" font-family="Helvetica,sans-Serif" font-size="10.00" fill="#000000">itk::simple::detail</text>
<text text-anchor="start" x="535" y="-83.5" font-family="Helvetica,sans-Serif" font-size="10.00" fill="#000000">::MemberFunctionFactoryBase</text>
<text text-anchor="start" x="535" y="-72.5" font-family="Helvetica,sans-Serif" font-size="10.00" fill="#000000">&lt; MemberFunctionType, std</text>
<text text-anchor="middle" x="608" y="-61.5" font-family="Helvetica,sans-Serif" font-size="10.00" fill="#000000">::pair&lt; unsigned int, int &gt; &gt;</text>
</a>
</g>
</g>
<!-- Node17&#45;&gt;Node16 -->
<g id="edge18" class="edge">
<title>Node17&#45;&gt;Node16</title>
<path fill="none" stroke="#006400" d="M699.5512,-79.0219C795.6123,-77.4709 944.5838,-75.0658 1032.2427,-73.6505"/>
<polygon fill="#006400" stroke="#006400" points="699.2091,-75.5268 689.2669,-79.1879 699.3221,-82.5259 699.2091,-75.5268"/>
</g>
<!-- Node18 -->
<g id="node18" class="node">
<title>Node18</title>
<g id="a_node18"><a xlink:href="classitk_1_1simple_1_1detail_1_1MemberFunctionFactoryBase.html" target="_top" xlink:title="A base class for the MemberFunctionFactory.">
<polygon fill="#ffffff" stroke="#000000" points="0,-38.5 0,-68.5 162,-68.5 162,-38.5 0,-38.5"/>
<text text-anchor="start" x="8" y="-56.5" font-family="Helvetica,sans-Serif" font-size="10.00" fill="#000000">itk::simple::detail</text>
<text text-anchor="middle" x="81" y="-45.5" font-family="Helvetica,sans-Serif" font-size="10.00" fill="#000000">::MemberFunctionFactoryBase</text>
</a>
</g>
</g>
<!-- Node18&#45;&gt;Node17 -->
<g id="edge19" class="edge">
<title>Node18&#45;&gt;Node17</title>
<path fill="none" stroke="#ffa500" stroke-dasharray="5,2" d="M172.2293,-59.0683C174.848,-59.2156 177.4425,-59.3598 180,-59.5 300.7104,-66.119 440.6281,-72.7965 526.7313,-76.7912"/>
<polygon fill="#ffa500" stroke="#ffa500" points="172.2199,-55.5622 162.0369,-58.4875 171.8215,-62.5509 172.2199,-55.5622"/>
<text text-anchor="start" x="189" y="-92.5" font-family="Helvetica,sans-Serif" font-size="10.00" fill="#000000"> &lt; MemberFunctionType,</text>
<text text-anchor="start" x="189" y="-81.5" font-family="Helvetica,sans-Serif" font-size="10.00" fill="#000000"> std::pair&lt; unsigned</text>
<text text-anchor="middle" x="249.5" y="-70.5" font-family="Helvetica,sans-Serif" font-size="10.00" fill="#000000"> int, int &gt; &gt;</text>
</g>
<!-- Node20 -->
<g id="node20" class="node">
<title>Node20</title>
<g id="a_node20"><a xlink:href="classitk_1_1simple_1_1detail_1_1MemberFunctionFactoryBase.html" target="_top" xlink:title=" ">
<polygon fill="#ffffff" stroke="#000000" points="337,-.5 337,-52.5 509,-52.5 509,-.5 337,-.5"/>
<text text-anchor="start" x="345" y="-40.5" font-family="Helvetica,sans-Serif" font-size="10.00" fill="#000000">itk::simple::detail</text>
<text text-anchor="start" x="345" y="-29.5" font-family="Helvetica,sans-Serif" font-size="10.00" fill="#000000">::MemberFunctionFactoryBase</text>
<text text-anchor="start" x="345" y="-18.5" font-family="Helvetica,sans-Serif" font-size="10.00" fill="#000000">&lt; TMemberFunctionPointer,</text>
<text text-anchor="middle" x="423" y="-7.5" font-family="Helvetica,sans-Serif" font-size="10.00" fill="#000000"> std::pair&lt; unsigned int, int &gt; &gt;</text>
</a>
</g>
</g>
<!-- Node18&#45;&gt;Node20 -->
<g id="edge22" class="edge">
<title>Node18&#45;&gt;Node20</title>
<path fill="none" stroke="#ffa500" stroke-dasharray="5,2" d="M136.3452,-35.6219C150.432,-31.8448 165.6491,-28.4219 180,-26.5 231.7451,-19.5704 290.246,-19.3403 336.8797,-20.9519"/>
<polygon fill="#ffa500" stroke="#ffa500" points="135.0086,-32.361 126.3162,-38.4185 136.8888,-39.1038 135.0086,-32.361"/>
<text text-anchor="start" x="180" y="-51.5" font-family="Helvetica,sans-Serif" font-size="10.00" fill="#000000"> &lt; TMemberFunctionPointer,</text>
<text text-anchor="start" x="180" y="-40.5" font-family="Helvetica,sans-Serif" font-size="10.00" fill="#000000"> std::pair&lt; unsigned int,</text>
<text text-anchor="middle" x="249.5" y="-29.5" font-family="Helvetica,sans-Serif" font-size="10.00" fill="#000000"> int &gt; &gt;</text>
</g>
<!-- Node19 -->
<g id="node19" class="node">
<title>Node19</title>
<g id="a_node19"><a xlink:href="classitk_1_1simple_1_1detail_1_1MemberFunctionFactory.html" target="_top" xlink:title="A class used to instantiate and generate function object to templated member functions.">
<polygon fill="#ffffff" stroke="#000000" points="707,-10 707,-51 867,-51 867,-10 707,-10"/>
<text text-anchor="start" x="715" y="-39" font-family="Helvetica,sans-Serif" font-size="10.00" fill="#000000">itk::simple::detail</text>
<text text-anchor="start" x="715" y="-28" font-family="Helvetica,sans-Serif" font-size="10.00" fill="#000000">::MemberFunctionFactory</text>
<text text-anchor="middle" x="787" y="-17" font-family="Helvetica,sans-Serif" font-size="10.00" fill="#000000">&lt; TMemberFunctionPointer &gt;</text>
</a>
</g>
</g>
<!-- Node19&#45;&gt;Node16 -->
<g id="edge20" class="edge">
<title>Node19&#45;&gt;Node16</title>
<path fill="none" stroke="#ffa500" stroke-dasharray="5,2" d="M877.1805,-38.7998C918.9104,-43.0584 969.0826,-48.7712 1014,-55.5 1019.9438,-56.3904 1026.095,-57.391 1032.2611,-58.4496"/>
<polygon fill="#ffa500" stroke="#ffa500" points="877.339,-35.2981 867.0381,-37.7762 876.6361,-42.2627 877.339,-35.2981"/>
<text text-anchor="middle" x="949.5" y="-58.5" font-family="Helvetica,sans-Serif" font-size="10.00" fill="#000000"> &lt; MemberFunctionType &gt;</text>
</g>
<!-- Node20&#45;&gt;Node19 -->
<g id="edge21" class="edge">
<title>Node20&#45;&gt;Node19</title>
<path fill="none" stroke="#006400" d="M519.623,-27.5618C578.0927,-28.2043 651.7628,-29.0139 706.9603,-29.6204"/>
<polygon fill="#006400" stroke="#006400" points="519.3008,-24.0581 509.2629,-27.4479 519.2238,-31.0577 519.3008,-24.0581"/>
</g>
<!-- Node21&#45;&gt;Node15 -->
<g id="edge23" class="edge">
<title>Node21&#45;&gt;Node15</title>
<path fill="none" stroke="#ffa500" stroke-dasharray="5,2" d="M1172.8085,-157.2057C1229.2931,-155.3358 1309.6166,-152.6768 1371.9113,-150.6147"/>
<polygon fill="#ffa500" stroke="#ffa500" points="1172.4274,-153.7163 1162.5487,-157.5453 1172.659,-160.7124 1172.4274,-153.7163"/>
<text text-anchor="start" x="1205" y="-181.5" font-family="Helvetica,sans-Serif" font-size="10.00" fill="#000000"> &lt; itk::simple::detail</text>
<text text-anchor="start" x="1205" y="-170.5" font-family="Helvetica,sans-Serif" font-size="10.00" fill="#000000">::MemberFunctionFactory</text>
<text text-anchor="middle" x="1273.5" y="-159.5" font-family="Helvetica,sans-Serif" font-size="10.00" fill="#000000">&lt; MemberFunctionType &gt; &gt;</text>
</g>
<!-- Node22 -->
<g id="node22" class="node">
<title>Node22</title>
<g id="a_node22"><a xlink:title=" ">
<polygon fill="#ffffff" stroke="#bfbfbf" points="1410,-187 1410,-206 1522,-206 1522,-187 1410,-187"/>
<text text-anchor="middle" x="1466" y="-194" font-family="Helvetica,sans-Serif" font-size="10.00" fill="#000000">std::vector&lt; bool &gt;</text>
</a>
</g>
</g>
<!-- Node22&#45;&gt;Node1 -->
<g id="edge26" class="edge">
<title>Node22&#45;&gt;Node1</title>
<path fill="none" stroke="#9a32cd" stroke-dasharray="5,2" d="M1532.3748,-196.9939C1588.417,-198.0403 1670.6956,-201.0539 1742,-209.5 1748.561,-210.2772 1755.3648,-211.2569 1762.1551,-212.3518"/>
<polygon fill="#9a32cd" stroke="#9a32cd" points="1532.2827,-193.492 1522.2243,-196.8206 1532.1631,-200.4909 1532.2827,-193.492"/>
<text text-anchor="middle" x="1660" y="-212.5" font-family="Helvetica,sans-Serif" font-size="10.00" fill="#000000"> m_FlipAxes</text>
</g>
<!-- Node23&#45;&gt;Node22 -->
<g id="edge27" class="edge">
<title>Node23&#45;&gt;Node22</title>
<path fill="none" stroke="#ffa500" stroke-dasharray="5,2" d="M1162.174,-204.8814C1230.4788,-202.9971 1342.4881,-199.9072 1409.742,-198.0519"/>
<polygon fill="#ffa500" stroke="#ffa500" points="1161.9119,-201.3872 1152.0122,-205.1617 1162.105,-208.3845 1161.9119,-201.3872"/>
<text text-anchor="middle" x="1273.5" y="-207.5" font-family="Helvetica,sans-Serif" font-size="10.00" fill="#000000"> &lt; bool &gt;</text>
</g>
<!-- Node24 -->
<g id="node24" class="node">
<title>Node24</title>
<g id="a_node24"><a xlink:title=" ">
<polygon fill="#ffffff" stroke="#bfbfbf" points="1404,-225.5 1404,-255.5 1528,-255.5 1528,-225.5 1404,-225.5"/>
<text text-anchor="start" x="1412" y="-243.5" font-family="Helvetica,sans-Serif" font-size="10.00" fill="#000000">std::vector&lt; unsigned</text>
<text text-anchor="middle" x="1466" y="-232.5" font-family="Helvetica,sans-Serif" font-size="10.00" fill="#000000"> int &gt;</text>
</a>
</g>
</g>
<!-- Node23&#45;&gt;Node24 -->
<g id="edge30" class="edge">
<title>Node23&#45;&gt;Node24</title>
<path fill="none" stroke="#ffa500" stroke-dasharray="5,2" d="M1162.301,-214.8349C1172.5246,-216.155 1183.0628,-217.4342 1193,-218.5 1265.2176,-226.2458 1348.4489,-232.5807 1403.8393,-236.4306"/>
<polygon fill="#ffa500" stroke="#ffa500" points="1162.5875,-211.3425 1152.2162,-213.5075 1161.6739,-218.2826 1162.5875,-211.3425"/>
<text text-anchor="middle" x="1273.5" y="-235.5" font-family="Helvetica,sans-Serif" font-size="10.00" fill="#000000"> &lt; unsigned int &gt;</text>
</g>
<!-- Node24&#45;&gt;Node1 -->
<g id="edge29" class="edge">
<title>Node24&#45;&gt;Node1</title>
<path fill="none" stroke="#9a32cd" stroke-dasharray="5,2" d="M1538.1093,-230.9307C1551.3542,-229.5146 1565.0761,-228.2732 1578,-227.5 1640.3703,-223.7687 1711.5437,-223.8754 1762.4794,-224.7068"/>
<polygon fill="#9a32cd" stroke="#9a32cd" points="1537.6475,-227.4604 1528.0949,-232.0428 1538.4202,-234.4176 1537.6475,-227.4604"/>
<text text-anchor="middle" x="1660" y="-230.5" font-family="Helvetica,sans-Serif" font-size="10.00" fill="#000000"> m_PermuteOrder</text>
</g>
</g>
</svg>
        <g id="navigator" transform="translate(0 0)" fill="#404254">
                <rect fill="#f2f5e9" fill-opacity="0.5" stroke="#606060" stroke-width=".5" x="0" y="0" width="60" height="60"/>
                <use id="zoomplus" xlink:href="#zoomPlus" x="17" y="9" onmousedown="handleZoom(evt,'in')"/>
                <use id="zoomminus" xlink:href="#zoomMin" x="42" y="9" onmousedown="handleZoom(evt,'out')"/>
                <use id="reset" xlink:href="#resetDef" x="30" y="36" onmousedown="handleReset()"/>
                <g id="arrowUp" xlink:href="#dirArrow" transform="translate(30 24)" onmousedown="handlePan(0,-1)">
                  <use xlink:href="#rim" fill="#404040">
                        <set attributeName="fill" to="#808080" begin="arrowUp.mouseover" end="arrowUp.mouseout"/>
                  </use>
                  <path fill="none" stroke="white" stroke-width="1.5" d="M0,-3.0v7 M-2.5,-0.5L0,-3.0L2.5,-0.5"/>
                </g>
                <g id="arrowRight" xlink:href="#dirArrow" transform="rotate(90) translate(36 -43)" onmousedown="handlePan(1,0)">
                  <use xlink:href="#rim" fill="#404040">
                        <set attributeName="fill" to="#808080" begin="arrowRight.mouseover" end="arrowRight.mouseout"/>
                  </use>
                  <path fill="none" stroke="white" stroke-width="1.5" d="M0,-3.0v7 M-2.5,-0.5L0,-3.0L2.5,-0.5"/>
                </g>
                <g id="arrowDown" xlink:href="#dirArrow" transform="rotate(180) translate(-30 -48)" onmousedown="handlePan(0,1)">
                  <use xlink:href="#rim" fill="#404040">
                        <set attributeName="fill" to="#808080" begin="arrowDown.mouseover" end="arrowDown.mouseout"/>
                  </use>
                  <path fill="none" stroke="white" stroke-width="1.5" d="M0,-3.0v7 M-2.5,-0.5L0,-3.0L2.5,-0.5"/>
                </g>
                <g id="arrowLeft" xlink:href="#dirArrow" transform="rotate(270) translate(-36 17)" onmousedown="handlePan(-1,0)">
                  <use xlink:href="#rim" fill="#404040">
                        <set attributeName="fill" to="#808080" begin="arrowLeft.mouseover" end="arrowLeft.mouseout"/>
                  </use>
                  <path fill="none" stroke="white" stroke-width="1.5" d="M0,-3.0v7 M-2.5,-0.5L0,-3.0L2.5,-0.5"/>
                </g>
        </g>
        <svg viewBox="0 0 15 15" width="100%" height="30px" preserveAspectRatio="xMaxYMin meet">
         <g id="arrow_out" transform="scale(0.3 0.3)">
          <a xlink:href="classitk_1_1simple_1_1DICOMOrientImageFilter__coll__graph_org.svg" target="_base">
           <rect id="button" ry="5" rx="5" y="6" x="6" height="38" width="38"
                fill="#f2f5e9" fill-opacity="0.5" stroke="#606060" stroke-width="1.0"/>
           <path id="arrow"
             d="M 11.500037,31.436501 C 11.940474,20.09759 22.043105,11.32322 32.158766,21.979434 L 37.068811,17.246167 C 37.068811,17.246167 37.088388,32 37.088388,32 L 22.160133,31.978069 C 22.160133,31.978069 26.997745,27.140456 26.997745,27.140456 C 18.528582,18.264221 13.291696,25.230495 11.500037,31.436501 z"
             style="fill:#404040;"/>
          </a>
         </g>
        </svg>
</svg>
