<?xml version="1.0" encoding="UTF-8" standalone="no"?>
<!DOCTYPE svg PUBLIC "-//W3C//DTD SVG 1.1//EN"
 "http://www.w3.org/Graphics/SVG/1.1/DTD/svg11.dtd">
<!-- Generated by graphviz version 2.40.1 (20161225.0304)
 -->
<!-- Title: itk::simple::ConfidenceConnectedImageFilter Pages: 1 -->
<!--zoomable 522 -->
<svg id="main" version="1.1" xmlns="http://www.w3.org/2000/svg" xmlns:xlink="http://www.w3.org/1999/xlink" xml:space="preserve" onload="init(evt)">
<style type="text/css"><![CDATA[
.edge:hover path { stroke: red; }
.edge:hover polygon { stroke: red; fill: red; }
]]></style>
<script type="text/javascript"><![CDATA[
var edges = document.getElementsByTagName('g');
if (edges && edges.length) {
  for (var i=0;i<edges.length;i++) {
    if (edges[i].id.substr(0,4)=='edge') {
      edges[i].setAttribute('class','edge');
    }
  }
}
]]></script>
        <defs>
                <circle id="rim" cx="0" cy="0" r="7"/>
                <circle id="rim2" cx="0" cy="0" r="3.5"/>
                <g id="zoomPlus">
                        <use xlink:href="#rim" fill="#404040">
                                <set attributeName="fill" to="#808080" begin="zoomplus.mouseover" end="zoomplus.mouseout"/>
                        </use>
                        <path d="M-4,0h8M0,-4v8" fill="none" stroke="white" stroke-width="1.5" pointer-events="none"/>
                </g>
                <g id="zoomMin">
                        <use xlink:href="#rim" fill="#404040">
                                <set attributeName="fill" to="#808080" begin="zoomminus.mouseover" end="zoomminus.mouseout"/>
                        </use>
                        <path d="M-4,0h8" fill="none" stroke="white" stroke-width="1.5" pointer-events="none"/>
                </g>
                <g id="dirArrow">
                        <path fill="none" stroke="white" stroke-width="1.5" d="M0,-3.0v7 M-2.5,-0.5L0,-3.0L2.5,-0.5"/>
                </g>
               <g id="resetDef">
                       <use xlink:href="#rim2" fill="#404040">
                               <set attributeName="fill" to="#808080" begin="reset.mouseover" end="reset.mouseout"/>
                       </use>
               </g>
        </defs>

<script type="text/javascript">
var viewWidth = 2446;
var viewHeight = 522;
var sectionId = 'dynsection-1';
</script>
<script xlink:href="svgpan.js"/>
<svg id="graph" class="graph">
<g id="viewport">
<title>itk::simple::ConfidenceConnectedImageFilter</title>
<polygon fill="#ffffff" stroke="transparent" points="-4,4 -4,-518 2442,-518 2442,4 -4,4"/>
<!-- Node1 -->
<g id="node1" class="node">
<title>Node1</title>
<g id="a_node1"><a xlink:title="Segment pixels with similar statistics using connectivity.">
<polygon fill="#bfbfbf" stroke="#000000" points="1738,-302.5 1738,-332.5 1918,-332.5 1918,-302.5 1738,-302.5"/>
<text text-anchor="start" x="1746" y="-320.5" font-family="Helvetica,sans-Serif" font-size="10.00" fill="#000000">itk::simple::ConfidenceConnected</text>
<text text-anchor="middle" x="1828" y="-309.5" font-family="Helvetica,sans-Serif" font-size="10.00" fill="#000000">ImageFilter</text>
</a>
</g>
</g>
<!-- Node2 -->
<g id="node2" class="node">
<title>Node2</title>
<g id="a_node2"><a xlink:href="classitk_1_1simple_1_1ImageFilter.html" target="_top" xlink:title="The base interface for SimpleITK filters that take one input image.">
<polygon fill="#ffffff" stroke="#000000" points="1401.5,-181 1401.5,-200 1530.5,-200 1530.5,-181 1401.5,-181"/>
<text text-anchor="middle" x="1466" y="-188" font-family="Helvetica,sans-Serif" font-size="10.00" fill="#000000">itk::simple::ImageFilter</text>
</a>
</g>
</g>
<!-- Node2&#45;&gt;Node1 -->
<g id="edge1" class="edge">
<title>Node2&#45;&gt;Node1</title>
<path fill="none" stroke="#191970" d="M1488.4528,-205.779C1510.4299,-220.1315 1545.2832,-241.3184 1578,-254.5 1631.8679,-276.2033 1695.3521,-292.0902 1744.8671,-302.4814"/>
<polygon fill="#191970" stroke="#191970" points="1490.1355,-202.6954 1479.8661,-200.0896 1486.2691,-208.5307 1490.1355,-202.6954"/>
</g>
<!-- Node3 -->
<g id="node3" class="node">
<title>Node3</title>
<g id="a_node3"><a xlink:href="classitk_1_1simple_1_1ProcessObject.html" target="_top" xlink:title="Base class for SimpleITK classes based on ProcessObject.">
<polygon fill="#ffffff" stroke="#000000" points="1032,-135 1032,-154 1175,-154 1175,-135 1032,-135"/>
<text text-anchor="middle" x="1103.5" y="-142" font-family="Helvetica,sans-Serif" font-size="10.00" fill="#000000">itk::simple::ProcessObject</text>
</a>
</g>
</g>
<!-- Node3&#45;&gt;Node2 -->
<g id="edge2" class="edge">
<title>Node3&#45;&gt;Node2</title>
<path fill="none" stroke="#191970" d="M1146.9802,-156.6081C1161.5146,-160.2743 1177.866,-163.99 1193,-166.5 1263.7582,-178.2356 1345.8487,-184.4721 1401.3887,-187.6165"/>
<polygon fill="#191970" stroke="#191970" points="1147.8032,-153.2059 1137.2456,-154.0933 1146.0523,-159.9834 1147.8032,-153.2059"/>
</g>
<!-- Node10 -->
<g id="node10" class="node">
<title>Node10</title>
<g id="a_node10"><a xlink:title=" ">
<polygon fill="#ffffff" stroke="#bfbfbf" points="1408,-88.5 1408,-118.5 1524,-118.5 1524,-88.5 1408,-88.5"/>
<text text-anchor="start" x="1416" y="-106.5" font-family="Helvetica,sans-Serif" font-size="10.00" fill="#000000">std::set&lt; itk::simple</text>
<text text-anchor="middle" x="1466" y="-95.5" font-family="Helvetica,sans-Serif" font-size="10.00" fill="#000000">::ProcessObject * &gt;</text>
</a>
</g>
</g>
<!-- Node3&#45;&gt;Node10 -->
<g id="edge11" class="edge">
<title>Node3&#45;&gt;Node10</title>
<path fill="none" stroke="#9a32cd" stroke-dasharray="5,2" d="M1159.0079,-133.0631C1170.2269,-131.0038 1181.965,-129.0292 1193,-127.5 1266.7558,-117.2793 1352.3597,-110.5857 1407.7614,-106.9264"/>
<polygon fill="#9a32cd" stroke="#9a32cd" points="1158.0661,-129.6788 1148.8858,-134.9677 1159.3606,-136.5581 1158.0661,-129.6788"/>
<text text-anchor="middle" x="1273.5" y="-130.5" font-family="Helvetica,sans-Serif" font-size="10.00" fill="#000000"> keys</text>
</g>
<!-- Node4 -->
<g id="node4" class="node">
<title>Node4</title>
<g id="a_node4"><a xlink:href="classitk_1_1simple_1_1NonCopyable.html" target="_top" xlink:title="An inheritable class to disable copying of a class.">
<polygon fill="#ffffff" stroke="#000000" points="717,-78 717,-97 857,-97 857,-78 717,-78"/>
<text text-anchor="middle" x="787" y="-85" font-family="Helvetica,sans-Serif" font-size="10.00" fill="#000000">itk::simple::NonCopyable</text>
</a>
</g>
</g>
<!-- Node4&#45;&gt;Node3 -->
<g id="edge3" class="edge">
<title>Node4&#45;&gt;Node3</title>
<path fill="none" stroke="#006400" d="M849.8784,-98.8241C908.6252,-109.4041 995.3386,-125.0207 1050.6162,-134.9759"/>
<polygon fill="#006400" stroke="#006400" points="850.437,-95.3684 839.975,-97.0405 849.1963,-102.2576 850.437,-95.3684"/>
</g>
<!-- Node7 -->
<g id="node7" class="node">
<title>Node7</title>
<g id="a_node7"><a xlink:href="classitk_1_1simple_1_1Command.html" target="_top" xlink:title="An implementation of the Command design pattern for callback.">
<polygon fill="#ffffff" stroke="#000000" points="1765.5,-70 1765.5,-89 1890.5,-89 1890.5,-70 1765.5,-70"/>
<text text-anchor="middle" x="1828" y="-77" font-family="Helvetica,sans-Serif" font-size="10.00" fill="#000000">itk::simple::Command</text>
</a>
</g>
</g>
<!-- Node4&#45;&gt;Node7 -->
<g id="edge7" class="edge">
<title>Node4&#45;&gt;Node7</title>
<path fill="none" stroke="#006400" d="M867.4963,-83.7985C915.2897,-81.7865 977.0887,-79.5082 1032,-78.5 1305.061,-73.4863 1630.9004,-76.8094 1765.3028,-78.5856"/>
<polygon fill="#006400" stroke="#006400" points="867.0523,-80.3141 857.2102,-84.2364 867.3501,-87.3078 867.0523,-80.3141"/>
</g>
<!-- Node5 -->
<g id="node5" class="node">
<title>Node5</title>
<g id="a_node5"><a xlink:title=" ">
<polygon fill="#ffffff" stroke="#bfbfbf" points="2251,-137.5 2251,-167.5 2438,-167.5 2438,-137.5 2251,-137.5"/>
<text text-anchor="start" x="2259" y="-155.5" font-family="Helvetica,sans-Serif" font-size="10.00" fill="#000000">std::list&lt; itk::simple</text>
<text text-anchor="middle" x="2344.5" y="-144.5" font-family="Helvetica,sans-Serif" font-size="10.00" fill="#000000">::ProcessObject::EventCommand &gt;</text>
</a>
</g>
</g>
<!-- Node5&#45;&gt;Node3 -->
<g id="edge4" class="edge">
<title>Node5&#45;&gt;Node3</title>
<path fill="none" stroke="#9a32cd" stroke-dasharray="5,2" d="M2240.6648,-152.5C2195.7233,-152.5 2142.5177,-152.5 2094.5,-152.5 1466,-152.5 1466,-152.5 1466,-152.5 1364.9663,-152.5 1248.1314,-149.3554 1175.0219,-147.0093"/>
<polygon fill="#9a32cd" stroke="#9a32cd" points="2240.714,-156.0001 2250.714,-152.5 2240.714,-149.0001 2240.714,-156.0001"/>
<text text-anchor="middle" x="1828" y="-155.5" font-family="Helvetica,sans-Serif" font-size="10.00" fill="#000000"> m_Commands</text>
</g>
<!-- Node6 -->
<g id="node6" class="node">
<title>Node6</title>
<g id="a_node6"><a xlink:href="structitk_1_1simple_1_1ProcessObject_1_1EventCommand.html" target="_top" xlink:title=" ">
<polygon fill="#ffffff" stroke="#000000" points="2023,-92.5 2023,-122.5 2166,-122.5 2166,-92.5 2023,-92.5"/>
<text text-anchor="start" x="2031" y="-110.5" font-family="Helvetica,sans-Serif" font-size="10.00" fill="#000000">itk::simple::ProcessObject</text>
<text text-anchor="middle" x="2094.5" y="-99.5" font-family="Helvetica,sans-Serif" font-size="10.00" fill="#000000">::EventCommand</text>
</a>
</g>
</g>
<!-- Node6&#45;&gt;Node5 -->
<g id="edge5" class="edge">
<title>Node6&#45;&gt;Node5</title>
<path fill="none" stroke="#9a32cd" stroke-dasharray="5,2" d="M2176.1731,-118.2253C2194.8898,-120.9795 2214.6707,-124.1269 2233,-127.5 2248.7061,-130.3903 2265.5597,-133.9349 2281.2861,-137.4365"/>
<polygon fill="#9a32cd" stroke="#9a32cd" points="2176.5981,-114.7504 2166.1994,-116.7795 2175.5938,-121.678 2176.5981,-114.7504"/>
<text text-anchor="middle" x="2208.5" y="-130.5" font-family="Helvetica,sans-Serif" font-size="10.00" fill="#000000"> elements</text>
</g>
<!-- Node7&#45;&gt;Node6 -->
<g id="edge6" class="edge">
<title>Node7&#45;&gt;Node6</title>
<path fill="none" stroke="#9a32cd" stroke-dasharray="5,2" d="M1900.7745,-87.1461C1938.6945,-91.1302 1984.9079,-95.9856 2022.6864,-99.9549"/>
<polygon fill="#9a32cd" stroke="#9a32cd" points="1901.1303,-83.6643 1890.8193,-86.1002 1900.3988,-90.626 1901.1303,-83.6643"/>
<text text-anchor="middle" x="1970.5" y="-100.5" font-family="Helvetica,sans-Serif" font-size="10.00" fill="#000000"> m_Command</text>
</g>
<!-- Node8 -->
<g id="node8" class="node">
<title>Node8</title>
<g id="a_node8"><a xlink:title="STL class.">
<polygon fill="#ffffff" stroke="#bfbfbf" points="1433.5,-9 1433.5,-28 1498.5,-28 1498.5,-9 1433.5,-9"/>
<text text-anchor="middle" x="1466" y="-16" font-family="Helvetica,sans-Serif" font-size="10.00" fill="#000000">std::string</text>
</a>
</g>
</g>
<!-- Node8&#45;&gt;Node7 -->
<g id="edge8" class="edge">
<title>Node8&#45;&gt;Node7</title>
<path fill="none" stroke="#9a32cd" stroke-dasharray="5,2" d="M1508.8871,-16.918C1559.895,-16.0136 1647.2832,-17.562 1720,-34.5 1753.2353,-42.2415 1789.361,-59.2022 1810.2702,-69.9479"/>
<polygon fill="#9a32cd" stroke="#9a32cd" points="1508.4942,-13.4257 1498.5731,-17.1436 1508.6473,-20.424 1508.4942,-13.4257"/>
<text text-anchor="middle" x="1649" y="-37.5" font-family="Helvetica,sans-Serif" font-size="10.00" fill="#000000"> m_Name</text>
</g>
<!-- Node9 -->
<g id="node9" class="node">
<title>Node9</title>
<g id="a_node9"><a xlink:title="STL class.">
<polygon fill="#ffffff" stroke="#bfbfbf" points="1051.5,-.5 1051.5,-30.5 1155.5,-30.5 1155.5,-.5 1051.5,-.5"/>
<text text-anchor="start" x="1059.5" y="-18.5" font-family="Helvetica,sans-Serif" font-size="10.00" fill="#000000">std::basic_string&lt;</text>
<text text-anchor="middle" x="1103.5" y="-7.5" font-family="Helvetica,sans-Serif" font-size="10.00" fill="#000000"> char &gt;</text>
</a>
</g>
</g>
<!-- Node9&#45;&gt;Node8 -->
<g id="edge9" class="edge">
<title>Node9&#45;&gt;Node8</title>
<path fill="none" stroke="#191970" d="M1165.94,-16.0167C1243.4554,-16.6583 1372.7938,-17.7286 1433.1316,-18.228"/>
<polygon fill="#191970" stroke="#191970" points="1165.8521,-12.516 1155.8235,-15.933 1165.7941,-19.5158 1165.8521,-12.516"/>
</g>
<!-- Node10&#45;&gt;Node7 -->
<g id="edge10" class="edge">
<title>Node10&#45;&gt;Node7</title>
<path fill="none" stroke="#9a32cd" stroke-dasharray="5,2" d="M1534.5336,-98.9563C1601.0196,-94.5484 1701.041,-87.9172 1765.427,-83.6485"/>
<polygon fill="#9a32cd" stroke="#9a32cd" points="1533.9081,-95.49 1524.1616,-99.644 1534.3712,-102.4747 1533.9081,-95.49"/>
<text text-anchor="middle" x="1649" y="-98.5" font-family="Helvetica,sans-Serif" font-size="10.00" fill="#000000"> m_ReferencedObjects</text>
</g>
<!-- Node11 -->
<g id="node11" class="node">
<title>Node11</title>
<g id="a_node11"><a xlink:title="STL class.">
<polygon fill="#ffffff" stroke="#bfbfbf" points="1062.5,-88 1062.5,-107 1144.5,-107 1144.5,-88 1062.5,-88"/>
<text text-anchor="middle" x="1103.5" y="-95" font-family="Helvetica,sans-Serif" font-size="10.00" fill="#000000">std::set&lt; K &gt;</text>
</a>
</g>
</g>
<!-- Node11&#45;&gt;Node10 -->
<g id="edge12" class="edge">
<title>Node11&#45;&gt;Node10</title>
<path fill="none" stroke="#ffa500" stroke-dasharray="5,2" d="M1155.1179,-94.7992C1167.5213,-94.2592 1180.7302,-93.774 1193,-93.5 1264.5377,-91.9022 1282.5154,-90.3151 1354,-93.5 1371.5522,-94.282 1390.6058,-95.7502 1407.9357,-97.3253"/>
<polygon fill="#ffa500" stroke="#ffa500" points="1154.7576,-91.3119 1144.9268,-95.2624 1155.0754,-98.3047 1154.7576,-91.3119"/>
<text text-anchor="middle" x="1273.5" y="-96.5" font-family="Helvetica,sans-Serif" font-size="10.00" fill="#000000"> &lt; itk::simple::ProcessObject * &gt;</text>
</g>
<!-- Node12 -->
<g id="node12" class="node">
<title>Node12</title>
<g id="a_node12"><a xlink:title=" ">
<polygon fill="#ffffff" stroke="#bfbfbf" points="772.5,-24 772.5,-43 801.5,-43 801.5,-24 772.5,-24"/>
<text text-anchor="middle" x="787" y="-31" font-family="Helvetica,sans-Serif" font-size="10.00" fill="#000000">K</text>
</a>
</g>
</g>
<!-- Node12&#45;&gt;Node11 -->
<g id="edge13" class="edge">
<title>Node12&#45;&gt;Node11</title>
<path fill="none" stroke="#9a32cd" stroke-dasharray="5,2" d="M811.9574,-38.5467C866.2999,-49.5354 995.7864,-75.7191 1062.3856,-89.1862"/>
<polygon fill="#9a32cd" stroke="#9a32cd" points="812.3363,-35.0525 801.8409,-36.501 810.9488,-41.9137 812.3363,-35.0525"/>
<text text-anchor="middle" x="949.5" y="-81.5" font-family="Helvetica,sans-Serif" font-size="10.00" fill="#000000"> keys</text>
</g>
<!-- Node13 -->
<g id="node13" class="node">
<title>Node13</title>
<g id="a_node13"><a xlink:title="STL class.">
<polygon fill="#ffffff" stroke="#bfbfbf" points="909,-226 909,-245 990,-245 990,-226 909,-226"/>
<text text-anchor="middle" x="949.5" y="-233" font-family="Helvetica,sans-Serif" font-size="10.00" fill="#000000">std::list&lt; T &gt;</text>
</a>
</g>
</g>
<!-- Node13&#45;&gt;Node5 -->
<g id="edge14" class="edge">
<title>Node13&#45;&gt;Node5</title>
<path fill="none" stroke="#ffa500" stroke-dasharray="5,2" d="M1000.3445,-233.7225C1064.139,-231.6486 1176.9008,-228.5 1273.5,-228.5 1273.5,-228.5 1273.5,-228.5 2094.5,-228.5 2177.5162,-228.5 2269.5956,-189.6639 2315.3592,-167.5152"/>
<polygon fill="#ffa500" stroke="#ffa500" points="1000.036,-230.2306 990.1567,-234.0581 1000.2665,-237.2268 1000.036,-230.2306"/>
<text text-anchor="start" x="1578" y="-242.5" font-family="Helvetica,sans-Serif" font-size="10.00" fill="#000000"> &lt; itk::simple::ProcessObject</text>
<text text-anchor="middle" x="1649" y="-231.5" font-family="Helvetica,sans-Serif" font-size="10.00" fill="#000000">::EventCommand &gt;</text>
</g>
<!-- Node14 -->
<g id="node14" class="node">
<title>Node14</title>
<g id="a_node14"><a xlink:title=" ">
<polygon fill="#ffffff" stroke="#bfbfbf" points="408.5,-286 408.5,-305 437.5,-305 437.5,-286 408.5,-286"/>
<text text-anchor="middle" x="423" y="-293" font-family="Helvetica,sans-Serif" font-size="10.00" fill="#000000">T</text>
</a>
</g>
</g>
<!-- Node14&#45;&gt;Node13 -->
<g id="edge15" class="edge">
<title>Node14&#45;&gt;Node13</title>
<path fill="none" stroke="#9a32cd" stroke-dasharray="5,2" d="M447.8134,-291.6567C468.8616,-288.4601 499.8714,-283.8999 527,-280.5 666.9816,-262.9567 833.6142,-246.5104 908.9518,-239.3132"/>
<polygon fill="#9a32cd" stroke="#9a32cd" points="447.1435,-288.2184 437.7879,-293.1907 448.2022,-295.1379 447.1435,-288.2184"/>
<text text-anchor="middle" x="608" y="-283.5" font-family="Helvetica,sans-Serif" font-size="10.00" fill="#000000"> elements</text>
</g>
<!-- Node21 -->
<g id="node21" class="node">
<title>Node21</title>
<g id="a_node21"><a xlink:title="STL class.">
<polygon fill="#ffffff" stroke="#bfbfbf" points="890.5,-358 890.5,-377 1008.5,-377 1008.5,-358 890.5,-358"/>
<text text-anchor="middle" x="949.5" y="-365" font-family="Helvetica,sans-Serif" font-size="10.00" fill="#000000">std::unique_ptr&lt; T &gt;</text>
</a>
</g>
</g>
<!-- Node14&#45;&gt;Node21 -->
<g id="edge24" class="edge">
<title>Node14&#45;&gt;Node21</title>
<path fill="none" stroke="#9a32cd" stroke-dasharray="5,2" d="M447.8393,-299.1477C468.9032,-302.2253 499.9217,-306.7207 527,-310.5 656.5661,-328.5833 808.6225,-348.8676 890.35,-359.6935"/>
<polygon fill="#9a32cd" stroke="#9a32cd" points="448.2067,-295.6642 437.8052,-297.6788 447.1927,-302.5904 448.2067,-295.6642"/>
<text text-anchor="middle" x="608" y="-334.5" font-family="Helvetica,sans-Serif" font-size="10.00" fill="#000000"> ptr</text>
</g>
<!-- Node24 -->
<g id="node24" class="node">
<title>Node24</title>
<g id="a_node24"><a xlink:title="STL class.">
<polygon fill="#ffffff" stroke="#bfbfbf" points="738.5,-286 738.5,-305 835.5,-305 835.5,-286 738.5,-286"/>
<text text-anchor="middle" x="787" y="-293" font-family="Helvetica,sans-Serif" font-size="10.00" fill="#000000">std::vector&lt; T &gt;</text>
</a>
</g>
</g>
<!-- Node14&#45;&gt;Node24 -->
<g id="edge28" class="edge">
<title>Node14&#45;&gt;Node24</title>
<path fill="none" stroke="#9a32cd" stroke-dasharray="5,2" d="M447.7285,-295.5C507.3227,-295.5 659.751,-295.5 738.4122,-295.5"/>
<polygon fill="#9a32cd" stroke="#9a32cd" points="447.7201,-292.0001 437.7201,-295.5 447.72,-299.0001 447.7201,-292.0001"/>
<text text-anchor="middle" x="608" y="-298.5" font-family="Helvetica,sans-Serif" font-size="10.00" fill="#000000"> elements</text>
</g>
<!-- Node15 -->
<g id="node15" class="node">
<title>Node15</title>
<g id="a_node15"><a xlink:title=" ">
<polygon fill="#ffffff" stroke="#bfbfbf" points="1372,-362 1372,-403 1560,-403 1560,-362 1372,-362"/>
<text text-anchor="start" x="1380" y="-391" font-family="Helvetica,sans-Serif" font-size="10.00" fill="#000000">std::unique_ptr&lt; itk</text>
<text text-anchor="start" x="1380" y="-380" font-family="Helvetica,sans-Serif" font-size="10.00" fill="#000000">::simple::detail::MemberFunction</text>
<text text-anchor="middle" x="1466" y="-369" font-family="Helvetica,sans-Serif" font-size="10.00" fill="#000000">Factory&lt; MemberFunctionType &gt; &gt;</text>
</a>
</g>
</g>
<!-- Node15&#45;&gt;Node1 -->
<g id="edge16" class="edge">
<title>Node15&#45;&gt;Node1</title>
<path fill="none" stroke="#9a32cd" stroke-dasharray="5,2" d="M1570.331,-363.7665C1625.53,-353.8551 1692.3991,-341.8482 1744.1824,-332.5501"/>
<polygon fill="#9a32cd" stroke="#9a32cd" points="1569.3902,-360.3794 1560.1662,-365.5917 1570.6274,-367.2692 1569.3902,-360.3794"/>
<text text-anchor="middle" x="1649" y="-363.5" font-family="Helvetica,sans-Serif" font-size="10.00" fill="#000000"> m_MemberFactory</text>
</g>
<!-- Node16 -->
<g id="node16" class="node">
<title>Node16</title>
<g id="a_node16"><a xlink:href="classitk_1_1simple_1_1detail_1_1MemberFunctionFactory.html" target="_top" xlink:title=" ">
<polygon fill="#ffffff" stroke="#000000" points="1032.5,-434 1032.5,-475 1174.5,-475 1174.5,-434 1032.5,-434"/>
<text text-anchor="start" x="1040.5" y="-463" font-family="Helvetica,sans-Serif" font-size="10.00" fill="#000000">itk::simple::detail</text>
<text text-anchor="start" x="1040.5" y="-452" font-family="Helvetica,sans-Serif" font-size="10.00" fill="#000000">::MemberFunctionFactory</text>
<text text-anchor="middle" x="1103.5" y="-441" font-family="Helvetica,sans-Serif" font-size="10.00" fill="#000000">&lt; MemberFunctionType &gt;</text>
</a>
</g>
</g>
<!-- Node16&#45;&gt;Node15 -->
<g id="edge17" class="edge">
<title>Node16&#45;&gt;Node15</title>
<path fill="none" stroke="#9a32cd" stroke-dasharray="5,2" d="M1184.8262,-438.3469C1240.3079,-427.3271 1313.9602,-412.6983 1371.9652,-401.1773"/>
<polygon fill="#9a32cd" stroke="#9a32cd" points="1183.8123,-434.9799 1174.6858,-440.361 1185.1761,-441.8457 1183.8123,-434.9799"/>
<text text-anchor="middle" x="1273.5" y="-437.5" font-family="Helvetica,sans-Serif" font-size="10.00" fill="#000000"> ptr</text>
</g>
<!-- Node17 -->
<g id="node17" class="node">
<title>Node17</title>
<g id="a_node17"><a xlink:href="classitk_1_1simple_1_1detail_1_1MemberFunctionFactoryBase.html" target="_top" xlink:title=" ">
<polygon fill="#ffffff" stroke="#000000" points="527,-407.5 527,-459.5 689,-459.5 689,-407.5 527,-407.5"/>
<text text-anchor="start" x="535" y="-447.5" font-family="Helvetica,sans-Serif" font-size="10.00" fill="#000000">itk::simple::detail</text>
<text text-anchor="start" x="535" y="-436.5" font-family="Helvetica,sans-Serif" font-size="10.00" fill="#000000">::MemberFunctionFactoryBase</text>
<text text-anchor="start" x="535" y="-425.5" font-family="Helvetica,sans-Serif" font-size="10.00" fill="#000000">&lt; MemberFunctionType, std</text>
<text text-anchor="middle" x="608" y="-414.5" font-family="Helvetica,sans-Serif" font-size="10.00" fill="#000000">::pair&lt; unsigned int, int &gt; &gt;</text>
</a>
</g>
</g>
<!-- Node17&#45;&gt;Node16 -->
<g id="edge18" class="edge">
<title>Node17&#45;&gt;Node16</title>
<path fill="none" stroke="#006400" d="M699.2597,-437.3677C795.3107,-441.4385 944.495,-447.7611 1032.2427,-451.48"/>
<polygon fill="#006400" stroke="#006400" points="699.4062,-433.8709 689.2669,-436.9442 699.1097,-440.8646 699.4062,-433.8709"/>
</g>
<!-- Node18 -->
<g id="node18" class="node">
<title>Node18</title>
<g id="a_node18"><a xlink:href="classitk_1_1simple_1_1detail_1_1MemberFunctionFactoryBase.html" target="_top" xlink:title="A base class for the MemberFunctionFactory.">
<polygon fill="#ffffff" stroke="#000000" points="0,-445.5 0,-475.5 162,-475.5 162,-445.5 0,-445.5"/>
<text text-anchor="start" x="8" y="-463.5" font-family="Helvetica,sans-Serif" font-size="10.00" fill="#000000">itk::simple::detail</text>
<text text-anchor="middle" x="81" y="-452.5" font-family="Helvetica,sans-Serif" font-size="10.00" fill="#000000">::MemberFunctionFactoryBase</text>
</a>
</g>
</g>
<!-- Node18&#45;&gt;Node17 -->
<g id="edge19" class="edge">
<title>Node18&#45;&gt;Node17</title>
<path fill="none" stroke="#ffa500" stroke-dasharray="5,2" d="M131.1897,-442.1715C146.6304,-437.3843 163.8239,-432.8971 180,-430.5 299.6289,-412.7724 440.1355,-418.7977 526.6239,-425.5394"/>
<polygon fill="#ffa500" stroke="#ffa500" points="129.774,-438.9501 121.3244,-445.3417 131.9157,-445.6144 129.774,-438.9501"/>
<text text-anchor="start" x="189" y="-455.5" font-family="Helvetica,sans-Serif" font-size="10.00" fill="#000000"> &lt; MemberFunctionType,</text>
<text text-anchor="start" x="189" y="-444.5" font-family="Helvetica,sans-Serif" font-size="10.00" fill="#000000"> std::pair&lt; unsigned</text>
<text text-anchor="middle" x="249.5" y="-433.5" font-family="Helvetica,sans-Serif" font-size="10.00" fill="#000000"> int, int &gt; &gt;</text>
</g>
<!-- Node20 -->
<g id="node20" class="node">
<title>Node20</title>
<g id="a_node20"><a xlink:href="classitk_1_1simple_1_1detail_1_1MemberFunctionFactoryBase.html" target="_top" xlink:title=" ">
<polygon fill="#ffffff" stroke="#000000" points="337,-461.5 337,-513.5 509,-513.5 509,-461.5 337,-461.5"/>
<text text-anchor="start" x="345" y="-501.5" font-family="Helvetica,sans-Serif" font-size="10.00" fill="#000000">itk::simple::detail</text>
<text text-anchor="start" x="345" y="-490.5" font-family="Helvetica,sans-Serif" font-size="10.00" fill="#000000">::MemberFunctionFactoryBase</text>
<text text-anchor="start" x="345" y="-479.5" font-family="Helvetica,sans-Serif" font-size="10.00" fill="#000000">&lt; TMemberFunctionPointer,</text>
<text text-anchor="middle" x="423" y="-468.5" font-family="Helvetica,sans-Serif" font-size="10.00" fill="#000000"> std::pair&lt; unsigned int, int &gt; &gt;</text>
</a>
</g>
</g>
<!-- Node18&#45;&gt;Node20 -->
<g id="edge22" class="edge">
<title>Node18&#45;&gt;Node20</title>
<path fill="none" stroke="#ffa500" stroke-dasharray="5,2" d="M172.0982,-467.692C223.1995,-471.7263 286.5818,-476.7301 336.856,-480.6992"/>
<polygon fill="#ffa500" stroke="#ffa500" points="172.2937,-464.1966 162.0492,-466.8986 171.7427,-471.1749 172.2937,-464.1966"/>
<text text-anchor="start" x="180" y="-503.5" font-family="Helvetica,sans-Serif" font-size="10.00" fill="#000000"> &lt; TMemberFunctionPointer,</text>
<text text-anchor="start" x="180" y="-492.5" font-family="Helvetica,sans-Serif" font-size="10.00" fill="#000000"> std::pair&lt; unsigned int,</text>
<text text-anchor="middle" x="249.5" y="-481.5" font-family="Helvetica,sans-Serif" font-size="10.00" fill="#000000"> int &gt; &gt;</text>
</g>
<!-- Node19 -->
<g id="node19" class="node">
<title>Node19</title>
<g id="a_node19"><a xlink:href="classitk_1_1simple_1_1detail_1_1MemberFunctionFactory.html" target="_top" xlink:title="A class used to instantiate and generate function object to templated member functions.">
<polygon fill="#ffffff" stroke="#000000" points="707,-466 707,-507 867,-507 867,-466 707,-466"/>
<text text-anchor="start" x="715" y="-495" font-family="Helvetica,sans-Serif" font-size="10.00" fill="#000000">itk::simple::detail</text>
<text text-anchor="start" x="715" y="-484" font-family="Helvetica,sans-Serif" font-size="10.00" fill="#000000">::MemberFunctionFactory</text>
<text text-anchor="middle" x="787" y="-473" font-family="Helvetica,sans-Serif" font-size="10.00" fill="#000000">&lt; TMemberFunctionPointer &gt;</text>
</a>
</g>
</g>
<!-- Node19&#45;&gt;Node16 -->
<g id="edge20" class="edge">
<title>Node19&#45;&gt;Node16</title>
<path fill="none" stroke="#ffa500" stroke-dasharray="5,2" d="M877.2905,-477.3711C926.5336,-472.3923 986.6147,-466.3178 1032.4789,-461.6806"/>
<polygon fill="#ffa500" stroke="#ffa500" points="876.8726,-473.8954 867.2755,-478.3837 877.5768,-480.8599 876.8726,-473.8954"/>
<text text-anchor="middle" x="949.5" y="-478.5" font-family="Helvetica,sans-Serif" font-size="10.00" fill="#000000"> &lt; MemberFunctionType &gt;</text>
</g>
<!-- Node20&#45;&gt;Node19 -->
<g id="edge21" class="edge">
<title>Node20&#45;&gt;Node19</title>
<path fill="none" stroke="#006400" d="M519.623,-487.2346C578.0927,-487.0739 651.7628,-486.8715 706.9603,-486.7199"/>
<polygon fill="#006400" stroke="#006400" points="519.2532,-483.7355 509.2629,-487.263 519.2725,-490.7354 519.2532,-483.7355"/>
</g>
<!-- Node21&#45;&gt;Node15 -->
<g id="edge23" class="edge">
<title>Node21&#45;&gt;Node15</title>
<path fill="none" stroke="#ffa500" stroke-dasharray="5,2" d="M1018.9529,-369.517C1109.9253,-372.159 1269.8003,-376.802 1371.6696,-379.7605"/>
<polygon fill="#ffa500" stroke="#ffa500" points="1018.8465,-366.0126 1008.7491,-369.2207 1018.6433,-373.0096 1018.8465,-366.0126"/>
<text text-anchor="start" x="1035" y="-398.5" font-family="Helvetica,sans-Serif" font-size="10.00" fill="#000000"> &lt; itk::simple::detail</text>
<text text-anchor="start" x="1035" y="-387.5" font-family="Helvetica,sans-Serif" font-size="10.00" fill="#000000">::MemberFunctionFactory</text>
<text text-anchor="middle" x="1103.5" y="-376.5" font-family="Helvetica,sans-Serif" font-size="10.00" fill="#000000">&lt; MemberFunctionType &gt; &gt;</text>
</g>
<!-- Node22 -->
<g id="node22" class="node">
<title>Node22</title>
<g id="a_node22"><a xlink:title=" ">
<polygon fill="#ffffff" stroke="#bfbfbf" points="1400.5,-302.5 1400.5,-332.5 1531.5,-332.5 1531.5,-302.5 1400.5,-302.5"/>
<text text-anchor="start" x="1408.5" y="-320.5" font-family="Helvetica,sans-Serif" font-size="10.00" fill="#000000">std::vector&lt; std::vector</text>
<text text-anchor="middle" x="1466" y="-309.5" font-family="Helvetica,sans-Serif" font-size="10.00" fill="#000000">&lt; unsigned int &gt; &gt;</text>
</a>
</g>
</g>
<!-- Node22&#45;&gt;Node1 -->
<g id="edge25" class="edge">
<title>Node22&#45;&gt;Node1</title>
<path fill="none" stroke="#9a32cd" stroke-dasharray="5,2" d="M1541.6028,-317.5C1598.7211,-317.5 1677.3302,-317.5 1737.7443,-317.5"/>
<polygon fill="#9a32cd" stroke="#9a32cd" points="1541.5555,-314.0001 1531.5555,-317.5 1541.5554,-321.0001 1541.5555,-314.0001"/>
<text text-anchor="middle" x="1649" y="-320.5" font-family="Helvetica,sans-Serif" font-size="10.00" fill="#000000"> m_SeedList</text>
</g>
<!-- Node23 -->
<g id="node23" class="node">
<title>Node23</title>
<g id="a_node23"><a xlink:title=" ">
<polygon fill="#ffffff" stroke="#bfbfbf" points="1041.5,-257.5 1041.5,-287.5 1165.5,-287.5 1165.5,-257.5 1041.5,-257.5"/>
<text text-anchor="start" x="1049.5" y="-275.5" font-family="Helvetica,sans-Serif" font-size="10.00" fill="#000000">std::vector&lt; unsigned</text>
<text text-anchor="middle" x="1103.5" y="-264.5" font-family="Helvetica,sans-Serif" font-size="10.00" fill="#000000"> int &gt;</text>
</a>
</g>
</g>
<!-- Node23&#45;&gt;Node22 -->
<g id="edge26" class="edge">
<title>Node23&#45;&gt;Node22</title>
<path fill="none" stroke="#9a32cd" stroke-dasharray="5,2" d="M1175.7218,-279.2809C1225.8302,-284.2312 1294.0743,-291.4605 1354,-299.5 1369.0297,-301.5163 1385.1507,-303.9482 1400.3467,-306.3631"/>
<polygon fill="#9a32cd" stroke="#9a32cd" points="1175.9263,-275.7843 1165.6322,-278.2907 1175.2425,-282.7508 1175.9263,-275.7843"/>
<text text-anchor="middle" x="1273.5" y="-302.5" font-family="Helvetica,sans-Serif" font-size="10.00" fill="#000000"> elements</text>
</g>
<!-- Node24&#45;&gt;Node22 -->
<g id="edge29" class="edge">
<title>Node24&#45;&gt;Node22</title>
<path fill="none" stroke="#ffa500" stroke-dasharray="5,2" d="M845.7571,-300.1325C858.6784,-301.0296 872.2961,-301.8816 885,-302.5 1071.6993,-311.5878 1292.4325,-315.3778 1400.1795,-316.7786"/>
<polygon fill="#ffa500" stroke="#ffa500" points="845.798,-296.6266 835.5745,-299.407 845.3004,-303.6089 845.798,-296.6266"/>
<text text-anchor="start" x="1042.5" y="-325.5" font-family="Helvetica,sans-Serif" font-size="10.00" fill="#000000"> &lt; std::vector&lt; unsigned</text>
<text text-anchor="middle" x="1103.5" y="-314.5" font-family="Helvetica,sans-Serif" font-size="10.00" fill="#000000"> int &gt; &gt;</text>
</g>
<!-- Node24&#45;&gt;Node23 -->
<g id="edge27" class="edge">
<title>Node24&#45;&gt;Node23</title>
<path fill="none" stroke="#ffa500" stroke-dasharray="5,2" d="M845.8139,-291.226C901.4462,-287.1832 984.6413,-281.1374 1041.3452,-277.0168"/>
<polygon fill="#ffa500" stroke="#ffa500" points="845.4795,-287.741 835.7595,-291.9567 845.9869,-294.7226 845.4795,-287.741"/>
<text text-anchor="middle" x="949.5" y="-290.5" font-family="Helvetica,sans-Serif" font-size="10.00" fill="#000000"> &lt; unsigned int &gt;</text>
</g>
</g>
</svg>
        <g id="navigator" transform="translate(0 0)" fill="#404254">
                <rect fill="#f2f5e9" fill-opacity="0.5" stroke="#606060" stroke-width=".5" x="0" y="0" width="60" height="60"/>
                <use id="zoomplus" xlink:href="#zoomPlus" x="17" y="9" onmousedown="handleZoom(evt,'in')"/>
                <use id="zoomminus" xlink:href="#zoomMin" x="42" y="9" onmousedown="handleZoom(evt,'out')"/>
                <use id="reset" xlink:href="#resetDef" x="30" y="36" onmousedown="handleReset()"/>
                <g id="arrowUp" xlink:href="#dirArrow" transform="translate(30 24)" onmousedown="handlePan(0,-1)">
                  <use xlink:href="#rim" fill="#404040">
                        <set attributeName="fill" to="#808080" begin="arrowUp.mouseover" end="arrowUp.mouseout"/>
                  </use>
                  <path fill="none" stroke="white" stroke-width="1.5" d="M0,-3.0v7 M-2.5,-0.5L0,-3.0L2.5,-0.5"/>
                </g>
                <g id="arrowRight" xlink:href="#dirArrow" transform="rotate(90) translate(36 -43)" onmousedown="handlePan(1,0)">
                  <use xlink:href="#rim" fill="#404040">
                        <set attributeName="fill" to="#808080" begin="arrowRight.mouseover" end="arrowRight.mouseout"/>
                  </use>
                  <path fill="none" stroke="white" stroke-width="1.5" d="M0,-3.0v7 M-2.5,-0.5L0,-3.0L2.5,-0.5"/>
                </g>
                <g id="arrowDown" xlink:href="#dirArrow" transform="rotate(180) translate(-30 -48)" onmousedown="handlePan(0,1)">
                  <use xlink:href="#rim" fill="#404040">
                        <set attributeName="fill" to="#808080" begin="arrowDown.mouseover" end="arrowDown.mouseout"/>
                  </use>
                  <path fill="none" stroke="white" stroke-width="1.5" d="M0,-3.0v7 M-2.5,-0.5L0,-3.0L2.5,-0.5"/>
                </g>
                <g id="arrowLeft" xlink:href="#dirArrow" transform="rotate(270) translate(-36 17)" onmousedown="handlePan(-1,0)">
                  <use xlink:href="#rim" fill="#404040">
                        <set attributeName="fill" to="#808080" begin="arrowLeft.mouseover" end="arrowLeft.mouseout"/>
                  </use>
                  <path fill="none" stroke="white" stroke-width="1.5" d="M0,-3.0v7 M-2.5,-0.5L0,-3.0L2.5,-0.5"/>
                </g>
        </g>
        <svg viewBox="0 0 15 15" width="100%" height="30px" preserveAspectRatio="xMaxYMin meet">
         <g id="arrow_out" transform="scale(0.3 0.3)">
          <a xlink:href="classitk_1_1simple_1_1ConfidenceConnectedImageFilter__coll__graph_org.svg" target="_base">
           <rect id="button" ry="5" rx="5" y="6" x="6" height="38" width="38"
                fill="#f2f5e9" fill-opacity="0.5" stroke="#606060" stroke-width="1.0"/>
           <path id="arrow"
             d="M 11.500037,31.436501 C 11.940474,20.09759 22.043105,11.32322 32.158766,21.979434 L 37.068811,17.246167 C 37.068811,17.246167 37.088388,32 37.088388,32 L 22.160133,31.978069 C 22.160133,31.978069 26.997745,27.140456 26.997745,27.140456 C 18.528582,18.264221 13.291696,25.230495 11.500037,31.436501 z"
             style="fill:#404040;"/>
          </a>
         </g>
        </svg>
</svg>
