<?xml version="1.0" encoding="UTF-8" standalone="no"?>
<!DOCTYPE svg PUBLIC "-//W3C//DTD SVG 1.1//EN"
 "http://www.w3.org/Graphics/SVG/1.1/DTD/svg11.dtd">
<!-- Generated by graphviz version 2.40.1 (20161225.0304)
 -->
<!-- Title: itk::simple::ImportImageFilter Pages: 1 -->
<svg width="2044pt" height="408pt"
 viewBox="0.00 0.00 2044.00 408.00" xmlns="http://www.w3.org/2000/svg" xmlns:xlink="http://www.w3.org/1999/xlink">
<g id="graph0" class="graph" transform="scale(1 1) rotate(0) translate(4 404)">
<title>itk::simple::ImportImageFilter</title>
<polygon fill="#ffffff" stroke="transparent" points="-4,4 -4,-404 2040,-404 2040,4 -4,4"/>
<!-- Node1 -->
<g id="node1" class="node">
<title>Node1</title>
<g id="a_node1"><a xlink:title="Compose a 2D or 3D image and return a smart pointer to a SimpleITK image.">
<polygon fill="#bfbfbf" stroke="#000000" points="1899,-240.5 1899,-270.5 2036,-270.5 2036,-240.5 1899,-240.5"/>
<text text-anchor="start" x="1907" y="-258.5" font-family="Helvetica,sans-Serif" font-size="10.00" fill="#000000">itk::simple::ImportImage</text>
<text text-anchor="middle" x="1967.5" y="-247.5" font-family="Helvetica,sans-Serif" font-size="10.00" fill="#000000">Filter</text>
</a>
</g>
</g>
<!-- Node2 -->
<g id="node2" class="node">
<title>Node2</title>
<g id="a_node2"><a xlink:href="classitk_1_1simple_1_1ImageReaderBase.html" target="_top" xlink:title="An abract base class for image readers.">
<polygon fill="#ffffff" stroke="#000000" points="932,-71 932,-90 1095,-90 1095,-71 932,-71"/>
<text text-anchor="middle" x="1013.5" y="-78" font-family="Helvetica,sans-Serif" font-size="10.00" fill="#000000">itk::simple::ImageReaderBase</text>
</a>
</g>
</g>
<!-- Node2&#45;&gt;Node1 -->
<g id="edge1" class="edge">
<title>Node2&#45;&gt;Node1</title>
<path fill="none" stroke="#191970" d="M1105.1867,-75.0191C1250.0549,-69.2602 1539.0503,-69.6322 1769,-144.5 1839.0198,-167.2973 1912.3695,-215.7898 1947.0353,-240.4395"/>
<polygon fill="#191970" stroke="#191970" points="1104.8536,-71.5299 1095.008,-75.4434 1105.1452,-78.5238 1104.8536,-71.5299"/>
</g>
<!-- Node3 -->
<g id="node3" class="node">
<title>Node3</title>
<g id="a_node3"><a xlink:href="classitk_1_1simple_1_1ProcessObject.html" target="_top" xlink:title="Base class for SimpleITK classes based on ProcessObject.">
<polygon fill="#ffffff" stroke="#000000" points="212.5,-142 212.5,-161 355.5,-161 355.5,-142 212.5,-142"/>
<text text-anchor="middle" x="284" y="-149" font-family="Helvetica,sans-Serif" font-size="10.00" fill="#000000">itk::simple::ProcessObject</text>
</a>
</g>
</g>
<!-- Node3&#45;&gt;Node2 -->
<g id="edge2" class="edge">
<title>Node3&#45;&gt;Node2</title>
<path fill="none" stroke="#191970" d="M330.049,-139.4441C346.6664,-135.3305 365.6104,-130.9124 383,-127.5 461.9497,-112.0073 481.9226,-108.291 562,-100.5 690.8543,-87.9633 841.1697,-83.2788 931.7528,-81.5325"/>
<polygon fill="#191970" stroke="#191970" points="328.8862,-136.1273 320.0378,-141.9544 330.5888,-142.9171 328.8862,-136.1273"/>
</g>
<!-- Node10 -->
<g id="node10" class="node">
<title>Node10</title>
<g id="a_node10"><a xlink:title=" ">
<polygon fill="#ffffff" stroke="#bfbfbf" points="590,-109.5 590,-139.5 706,-139.5 706,-109.5 590,-109.5"/>
<text text-anchor="start" x="598" y="-127.5" font-family="Helvetica,sans-Serif" font-size="10.00" fill="#000000">std::set&lt; itk::simple</text>
<text text-anchor="middle" x="648" y="-116.5" font-family="Helvetica,sans-Serif" font-size="10.00" fill="#000000">::ProcessObject * &gt;</text>
</a>
</g>
</g>
<!-- Node3&#45;&gt;Node10 -->
<g id="edge11" class="edge">
<title>Node3&#45;&gt;Node10</title>
<path fill="none" stroke="#9a32cd" stroke-dasharray="5,2" d="M366.0083,-144.8152C371.7582,-144.3643 377.4658,-143.922 383,-143.5 454.1719,-138.073 536.1319,-132.2644 589.8305,-128.5186"/>
<polygon fill="#9a32cd" stroke="#9a32cd" points="365.3347,-141.3574 355.6411,-145.6336 365.8855,-148.3357 365.3347,-141.3574"/>
<text text-anchor="middle" x="463.5" y="-146.5" font-family="Helvetica,sans-Serif" font-size="10.00" fill="#000000"> keys</text>
</g>
<!-- Node4 -->
<g id="node4" class="node">
<title>Node4</title>
<g id="a_node4"><a xlink:href="classitk_1_1simple_1_1NonCopyable.html" target="_top" xlink:title="An inheritable class to disable copying of a class.">
<polygon fill="#ffffff" stroke="#000000" points="0,-178 0,-197 140,-197 140,-178 0,-178"/>
<text text-anchor="middle" x="70" y="-185" font-family="Helvetica,sans-Serif" font-size="10.00" fill="#000000">itk::simple::NonCopyable</text>
</a>
</g>
</g>
<!-- Node4&#45;&gt;Node3 -->
<g id="edge3" class="edge">
<title>Node4&#45;&gt;Node3</title>
<path fill="none" stroke="#006400" d="M136.5693,-176.3014C165.6184,-171.4147 199.3287,-165.7438 227.1771,-161.059"/>
<polygon fill="#006400" stroke="#006400" points="135.7867,-172.8838 126.5059,-177.9943 136.948,-179.7868 135.7867,-172.8838"/>
</g>
<!-- Node7 -->
<g id="node7" class="node">
<title>Node7</title>
<g id="a_node7"><a xlink:href="classitk_1_1simple_1_1Command.html" target="_top" xlink:title="An implementation of the Command design pattern for callback.">
<polygon fill="#ffffff" stroke="#000000" points="951,-113 951,-132 1076,-132 1076,-113 951,-113"/>
<text text-anchor="middle" x="1013.5" y="-120" font-family="Helvetica,sans-Serif" font-size="10.00" fill="#000000">itk::simple::Command</text>
</a>
</g>
</g>
<!-- Node4&#45;&gt;Node7 -->
<g id="edge7" class="edge">
<title>Node4&#45;&gt;Node7</title>
<path fill="none" stroke="#006400" d="M150.4041,-189.2873C244.7727,-190.7748 405.9276,-191.4119 544,-182.5 709.2592,-171.8333 749.9918,-161.4286 914,-138.5 927.8622,-136.5621 942.7773,-134.2728 956.7335,-132.0411"/>
<polygon fill="#006400" stroke="#006400" points="150.4153,-185.7871 140.3589,-189.1217 150.2998,-192.7862 150.4153,-185.7871"/>
</g>
<!-- Node5 -->
<g id="node5" class="node">
<title>Node5</title>
<g id="a_node5"><a xlink:title=" ">
<polygon fill="#ffffff" stroke="#bfbfbf" points="1581.5,-153.5 1581.5,-183.5 1768.5,-183.5 1768.5,-153.5 1581.5,-153.5"/>
<text text-anchor="start" x="1589.5" y="-171.5" font-family="Helvetica,sans-Serif" font-size="10.00" fill="#000000">std::list&lt; itk::simple</text>
<text text-anchor="middle" x="1675" y="-160.5" font-family="Helvetica,sans-Serif" font-size="10.00" fill="#000000">::ProcessObject::EventCommand &gt;</text>
</a>
</g>
</g>
<!-- Node5&#45;&gt;Node3 -->
<g id="edge4" class="edge">
<title>Node5&#45;&gt;Node3</title>
<path fill="none" stroke="#9a32cd" stroke-dasharray="5,2" d="M1571.0224,-168.5C1502.8981,-168.5 1411.9056,-168.5 1331.5,-168.5 648,-168.5 648,-168.5 648,-168.5 546.4624,-168.5 429.1658,-161.8178 355.782,-156.8323"/>
<polygon fill="#9a32cd" stroke="#9a32cd" points="1571.3286,-172.0001 1581.3285,-168.5 1571.3285,-165.0001 1571.3286,-172.0001"/>
<text text-anchor="middle" x="1013.5" y="-171.5" font-family="Helvetica,sans-Serif" font-size="10.00" fill="#000000"> m_Commands</text>
</g>
<!-- Node6 -->
<g id="node6" class="node">
<title>Node6</title>
<g id="a_node6"><a xlink:href="structitk_1_1simple_1_1ProcessObject_1_1EventCommand.html" target="_top" xlink:title=" ">
<polygon fill="#ffffff" stroke="#000000" points="1260,-109.5 1260,-139.5 1403,-139.5 1403,-109.5 1260,-109.5"/>
<text text-anchor="start" x="1268" y="-127.5" font-family="Helvetica,sans-Serif" font-size="10.00" fill="#000000">itk::simple::ProcessObject</text>
<text text-anchor="middle" x="1331.5" y="-116.5" font-family="Helvetica,sans-Serif" font-size="10.00" fill="#000000">::EventCommand</text>
</a>
</g>
</g>
<!-- Node6&#45;&gt;Node5 -->
<g id="edge5" class="edge">
<title>Node6&#45;&gt;Node5</title>
<path fill="none" stroke="#9a32cd" stroke-dasharray="5,2" d="M1413.4012,-128.4655C1457.8364,-131.309 1513.6215,-135.9992 1563,-143.5 1579.9394,-146.0732 1598.1373,-149.7388 1614.8365,-153.4726"/>
<polygon fill="#9a32cd" stroke="#9a32cd" points="1413.4301,-124.9606 1403.2324,-127.8342 1412.9962,-131.9472 1413.4301,-124.9606"/>
<text text-anchor="middle" x="1492" y="-146.5" font-family="Helvetica,sans-Serif" font-size="10.00" fill="#000000"> elements</text>
</g>
<!-- Node7&#45;&gt;Node6 -->
<g id="edge6" class="edge">
<title>Node7&#45;&gt;Node6</title>
<path fill="none" stroke="#9a32cd" stroke-dasharray="5,2" d="M1086.4922,-122.9591C1138.5461,-123.2865 1208.1932,-123.7245 1259.924,-124.0498"/>
<polygon fill="#9a32cd" stroke="#9a32cd" points="1086.3484,-119.4582 1076.3266,-122.8951 1086.3043,-126.4581 1086.3484,-119.4582"/>
<text text-anchor="middle" x="1177.5" y="-126.5" font-family="Helvetica,sans-Serif" font-size="10.00" fill="#000000"> m_Command</text>
</g>
<!-- Node8 -->
<g id="node8" class="node">
<title>Node8</title>
<g id="a_node8"><a xlink:title="STL class.">
<polygon fill="#ffffff" stroke="#bfbfbf" points="615.5,-11 615.5,-30 680.5,-30 680.5,-11 615.5,-11"/>
<text text-anchor="middle" x="648" y="-18" font-family="Helvetica,sans-Serif" font-size="10.00" fill="#000000">std::string</text>
</a>
</g>
</g>
<!-- Node8&#45;&gt;Node2 -->
<g id="edge16" class="edge">
<title>Node8&#45;&gt;Node2</title>
<path fill="none" stroke="#9a32cd" stroke-dasharray="5,2" d="M690.8004,-13.87C744.155,-7.1356 837.6307,-.4057 914,-21.5 949.2315,-31.2315 984.6587,-56.9465 1002.1962,-70.9999"/>
<polygon fill="#9a32cd" stroke="#9a32cd" points="690.1359,-10.4273 680.6814,-15.2087 691.054,-17.3669 690.1359,-10.4273"/>
<text text-anchor="middle" x="833" y="-24.5" font-family="Helvetica,sans-Serif" font-size="10.00" fill="#000000"> m_ImageIOName</text>
</g>
<!-- Node8&#45;&gt;Node7 -->
<g id="edge8" class="edge">
<title>Node8&#45;&gt;Node7</title>
<path fill="none" stroke="#9a32cd" stroke-dasharray="5,2" d="M690.5812,-32.3831C763.8568,-52.8321 912.3673,-94.2769 979.3587,-112.9722"/>
<polygon fill="#9a32cd" stroke="#9a32cd" points="691.3301,-28.9585 680.7573,-29.6416 689.4485,-35.7008 691.3301,-28.9585"/>
<text text-anchor="middle" x="833" y="-94.5" font-family="Helvetica,sans-Serif" font-size="10.00" fill="#000000"> m_Name</text>
</g>
<!-- Node9 -->
<g id="node9" class="node">
<title>Node9</title>
<g id="a_node9"><a xlink:title="STL class.">
<polygon fill="#ffffff" stroke="#bfbfbf" points="232,-.5 232,-30.5 336,-30.5 336,-.5 232,-.5"/>
<text text-anchor="start" x="240" y="-18.5" font-family="Helvetica,sans-Serif" font-size="10.00" fill="#000000">std::basic_string&lt;</text>
<text text-anchor="middle" x="284" y="-7.5" font-family="Helvetica,sans-Serif" font-size="10.00" fill="#000000"> char &gt;</text>
</a>
</g>
</g>
<!-- Node9&#45;&gt;Node8 -->
<g id="edge9" class="edge">
<title>Node9&#45;&gt;Node8</title>
<path fill="none" stroke="#191970" d="M346.325,-16.3561C424.2948,-17.4271 554.9016,-19.2212 615.4072,-20.0523"/>
<polygon fill="#191970" stroke="#191970" points="346.1995,-12.8542 336.1523,-16.2164 346.1033,-19.8535 346.1995,-12.8542"/>
</g>
<!-- Node10&#45;&gt;Node7 -->
<g id="edge10" class="edge">
<title>Node10&#45;&gt;Node7</title>
<path fill="none" stroke="#9a32cd" stroke-dasharray="5,2" d="M716.3982,-124.1257C783.6853,-123.7575 885.5479,-123.2001 950.7962,-122.8431"/>
<polygon fill="#9a32cd" stroke="#9a32cd" points="716.2994,-120.6261 706.3187,-124.1809 716.3377,-127.626 716.2994,-120.6261"/>
<text text-anchor="middle" x="833" y="-126.5" font-family="Helvetica,sans-Serif" font-size="10.00" fill="#000000"> m_ReferencedObjects</text>
</g>
<!-- Node11 -->
<g id="node11" class="node">
<title>Node11</title>
<g id="a_node11"><a xlink:title="STL class.">
<polygon fill="#ffffff" stroke="#bfbfbf" points="243,-50 243,-69 325,-69 325,-50 243,-50"/>
<text text-anchor="middle" x="284" y="-57" font-family="Helvetica,sans-Serif" font-size="10.00" fill="#000000">std::set&lt; K &gt;</text>
</a>
</g>
</g>
<!-- Node11&#45;&gt;Node10 -->
<g id="edge12" class="edge">
<title>Node11&#45;&gt;Node10</title>
<path fill="none" stroke="#ffa500" stroke-dasharray="5,2" d="M334.9507,-68.5983C401.9263,-80.5583 519.3095,-101.5196 589.7379,-114.0961"/>
<polygon fill="#ffa500" stroke="#ffa500" points="335.5074,-65.1425 325.0479,-66.83 334.2768,-72.0335 335.5074,-65.1425"/>
<text text-anchor="middle" x="463.5" y="-107.5" font-family="Helvetica,sans-Serif" font-size="10.00" fill="#000000"> &lt; itk::simple::ProcessObject * &gt;</text>
</g>
<!-- Node12 -->
<g id="node12" class="node">
<title>Node12</title>
<g id="a_node12"><a xlink:title=" ">
<polygon fill="#ffffff" stroke="#bfbfbf" points="55.5,-50 55.5,-69 84.5,-69 84.5,-50 55.5,-50"/>
<text text-anchor="middle" x="70" y="-57" font-family="Helvetica,sans-Serif" font-size="10.00" fill="#000000">K</text>
</a>
</g>
</g>
<!-- Node12&#45;&gt;Node11 -->
<g id="edge13" class="edge">
<title>Node12&#45;&gt;Node11</title>
<path fill="none" stroke="#9a32cd" stroke-dasharray="5,2" d="M94.9038,-59.5C131.2222,-59.5 199.1487,-59.5 242.9345,-59.5"/>
<polygon fill="#9a32cd" stroke="#9a32cd" points="94.7091,-56.0001 84.7091,-59.5 94.7091,-63.0001 94.7091,-56.0001"/>
<text text-anchor="middle" x="171.5" y="-62.5" font-family="Helvetica,sans-Serif" font-size="10.00" fill="#000000"> keys</text>
</g>
<!-- Node13 -->
<g id="node13" class="node">
<title>Node13</title>
<g id="a_node13"><a xlink:title="STL class.">
<polygon fill="#ffffff" stroke="#bfbfbf" points="1291,-203 1291,-222 1372,-222 1372,-203 1291,-203"/>
<text text-anchor="middle" x="1331.5" y="-210" font-family="Helvetica,sans-Serif" font-size="10.00" fill="#000000">std::list&lt; T &gt;</text>
</a>
</g>
</g>
<!-- Node13&#45;&gt;Node5 -->
<g id="edge14" class="edge">
<title>Node13&#45;&gt;Node5</title>
<path fill="none" stroke="#ffa500" stroke-dasharray="5,2" d="M1382.2828,-205.9951C1434.5268,-199.303 1517.1043,-188.7254 1581.2506,-180.5087"/>
<polygon fill="#ffa500" stroke="#ffa500" points="1381.7271,-202.5376 1372.2529,-207.2798 1382.6165,-209.4808 1381.7271,-202.5376"/>
<text text-anchor="start" x="1421" y="-214.5" font-family="Helvetica,sans-Serif" font-size="10.00" fill="#000000"> &lt; itk::simple::ProcessObject</text>
<text text-anchor="middle" x="1492" y="-203.5" font-family="Helvetica,sans-Serif" font-size="10.00" fill="#000000">::EventCommand &gt;</text>
</g>
<!-- Node14 -->
<g id="node14" class="node">
<title>Node14</title>
<g id="a_node14"><a xlink:title=" ">
<polygon fill="#ffffff" stroke="#bfbfbf" points="999,-255 999,-274 1028,-274 1028,-255 999,-255"/>
<text text-anchor="middle" x="1013.5" y="-262" font-family="Helvetica,sans-Serif" font-size="10.00" fill="#000000">T</text>
</a>
</g>
</g>
<!-- Node14&#45;&gt;Node13 -->
<g id="edge15" class="edge">
<title>Node14&#45;&gt;Node13</title>
<path fill="none" stroke="#9a32cd" stroke-dasharray="5,2" d="M1038.6054,-260.3947C1093.3771,-251.4383 1224.0225,-230.0749 1290.7554,-219.1626"/>
<polygon fill="#9a32cd" stroke="#9a32cd" points="1037.7154,-256.9937 1028.4113,-262.0617 1038.8451,-263.9019 1037.7154,-256.9937"/>
<text text-anchor="middle" x="1177.5" y="-250.5" font-family="Helvetica,sans-Serif" font-size="10.00" fill="#000000"> elements</text>
</g>
<!-- Node21 -->
<g id="node21" class="node">
<title>Node21</title>
<g id="a_node21"><a xlink:title="STL class.">
<polygon fill="#ffffff" stroke="#bfbfbf" points="1272.5,-303 1272.5,-322 1390.5,-322 1390.5,-303 1272.5,-303"/>
<text text-anchor="middle" x="1331.5" y="-310" font-family="Helvetica,sans-Serif" font-size="10.00" fill="#000000">std::unique_ptr&lt; T &gt;</text>
</a>
</g>
</g>
<!-- Node14&#45;&gt;Node21 -->
<g id="edge25" class="edge">
<title>Node14&#45;&gt;Node21</title>
<path fill="none" stroke="#9a32cd" stroke-dasharray="5,2" d="M1038.3285,-268.2477C1088.2585,-275.7843 1202.0346,-292.958 1272.2568,-303.5576"/>
<polygon fill="#9a32cd" stroke="#9a32cd" points="1038.8217,-264.7826 1028.4113,-266.7508 1037.7769,-271.7042 1038.8217,-264.7826"/>
<text text-anchor="middle" x="1177.5" y="-300.5" font-family="Helvetica,sans-Serif" font-size="10.00" fill="#000000"> ptr</text>
</g>
<!-- Node23 -->
<g id="node23" class="node">
<title>Node23</title>
<g id="a_node23"><a xlink:title="STL class.">
<polygon fill="#ffffff" stroke="#bfbfbf" points="1283,-255 1283,-274 1380,-274 1380,-255 1283,-255"/>
<text text-anchor="middle" x="1331.5" y="-262" font-family="Helvetica,sans-Serif" font-size="10.00" fill="#000000">std::vector&lt; T &gt;</text>
</a>
</g>
</g>
<!-- Node14&#45;&gt;Node23 -->
<g id="edge28" class="edge">
<title>Node14&#45;&gt;Node23</title>
<path fill="none" stroke="#9a32cd" stroke-dasharray="5,2" d="M1038.5342,-264.5C1091.1863,-264.5 1214.1787,-264.5 1282.8842,-264.5"/>
<polygon fill="#9a32cd" stroke="#9a32cd" points="1038.4113,-261.0001 1028.4113,-264.5 1038.4112,-268.0001 1038.4113,-261.0001"/>
<text text-anchor="middle" x="1177.5" y="-267.5" font-family="Helvetica,sans-Serif" font-size="10.00" fill="#000000"> elements</text>
</g>
<!-- Node15 -->
<g id="node15" class="node">
<title>Node15</title>
<g id="a_node15"><a xlink:title=" ">
<polygon fill="#ffffff" stroke="#bfbfbf" points="1581,-315 1581,-356 1769,-356 1769,-315 1581,-315"/>
<text text-anchor="start" x="1589" y="-344" font-family="Helvetica,sans-Serif" font-size="10.00" fill="#000000">std::unique_ptr&lt; itk</text>
<text text-anchor="start" x="1589" y="-333" font-family="Helvetica,sans-Serif" font-size="10.00" fill="#000000">::simple::detail::MemberFunction</text>
<text text-anchor="middle" x="1675" y="-322" font-family="Helvetica,sans-Serif" font-size="10.00" fill="#000000">Factory&lt; MemberFunctionType &gt; &gt;</text>
</a>
</g>
</g>
<!-- Node15&#45;&gt;Node1 -->
<g id="edge17" class="edge">
<title>Node15&#45;&gt;Node1</title>
<path fill="none" stroke="#9a32cd" stroke-dasharray="5,2" d="M1774.5693,-312.5685C1808.4958,-304.2999 1846.5474,-294.5223 1881,-284.5 1895.2959,-280.3413 1910.7558,-275.3267 1924.5973,-270.6454"/>
<polygon fill="#9a32cd" stroke="#9a32cd" points="1773.545,-309.2153 1764.6504,-314.9718 1775.1934,-316.0185 1773.545,-309.2153"/>
<text text-anchor="middle" x="1834" y="-311.5" font-family="Helvetica,sans-Serif" font-size="10.00" fill="#000000"> m_MemberFactory</text>
</g>
<!-- Node16 -->
<g id="node16" class="node">
<title>Node16</title>
<g id="a_node16"><a xlink:href="classitk_1_1simple_1_1detail_1_1MemberFunctionFactory.html" target="_top" xlink:title=" ">
<polygon fill="#ffffff" stroke="#000000" points="1260.5,-350 1260.5,-391 1402.5,-391 1402.5,-350 1260.5,-350"/>
<text text-anchor="start" x="1268.5" y="-379" font-family="Helvetica,sans-Serif" font-size="10.00" fill="#000000">itk::simple::detail</text>
<text text-anchor="start" x="1268.5" y="-368" font-family="Helvetica,sans-Serif" font-size="10.00" fill="#000000">::MemberFunctionFactory</text>
<text text-anchor="middle" x="1331.5" y="-357" font-family="Helvetica,sans-Serif" font-size="10.00" fill="#000000">&lt; MemberFunctionType &gt;</text>
</a>
</g>
</g>
<!-- Node16&#45;&gt;Node15 -->
<g id="edge18" class="edge">
<title>Node16&#45;&gt;Node15</title>
<path fill="none" stroke="#9a32cd" stroke-dasharray="5,2" d="M1412.8746,-363.1838C1457.2689,-359.0874 1513.1812,-353.7579 1563,-348.5 1568.8401,-347.8836 1574.8494,-347.2332 1580.9083,-346.5652"/>
<polygon fill="#9a32cd" stroke="#9a32cd" points="1412.3556,-359.7167 1402.7183,-364.118 1412.9969,-366.6872 1412.3556,-359.7167"/>
<text text-anchor="middle" x="1492" y="-364.5" font-family="Helvetica,sans-Serif" font-size="10.00" fill="#000000"> ptr</text>
</g>
<!-- Node17 -->
<g id="node17" class="node">
<title>Node17</title>
<g id="a_node17"><a xlink:href="classitk_1_1simple_1_1detail_1_1MemberFunctionFactoryBase.html" target="_top" xlink:title=" ">
<polygon fill="#ffffff" stroke="#000000" points="752,-347.5 752,-399.5 914,-399.5 914,-347.5 752,-347.5"/>
<text text-anchor="start" x="760" y="-387.5" font-family="Helvetica,sans-Serif" font-size="10.00" fill="#000000">itk::simple::detail</text>
<text text-anchor="start" x="760" y="-376.5" font-family="Helvetica,sans-Serif" font-size="10.00" fill="#000000">::MemberFunctionFactoryBase</text>
<text text-anchor="start" x="760" y="-365.5" font-family="Helvetica,sans-Serif" font-size="10.00" fill="#000000">&lt; MemberFunctionType, std</text>
<text text-anchor="middle" x="833" y="-354.5" font-family="Helvetica,sans-Serif" font-size="10.00" fill="#000000">::pair&lt; unsigned int, int &gt; &gt;</text>
</a>
</g>
</g>
<!-- Node17&#45;&gt;Node16 -->
<g id="edge19" class="edge">
<title>Node17&#45;&gt;Node16</title>
<path fill="none" stroke="#006400" d="M924.2747,-372.9507C1021.1129,-372.3679 1172.0715,-371.4594 1260.4299,-370.9277"/>
<polygon fill="#006400" stroke="#006400" points="924.1808,-369.4511 914.2021,-373.0113 924.223,-376.451 924.1808,-369.4511"/>
</g>
<!-- Node18 -->
<g id="node18" class="node">
<title>Node18</title>
<g id="a_node18"><a xlink:href="classitk_1_1simple_1_1detail_1_1MemberFunctionFactoryBase.html" target="_top" xlink:title="A base class for the MemberFunctionFactory.">
<polygon fill="#ffffff" stroke="#000000" points="203,-330.5 203,-360.5 365,-360.5 365,-330.5 203,-330.5"/>
<text text-anchor="start" x="211" y="-348.5" font-family="Helvetica,sans-Serif" font-size="10.00" fill="#000000">itk::simple::detail</text>
<text text-anchor="middle" x="284" y="-337.5" font-family="Helvetica,sans-Serif" font-size="10.00" fill="#000000">::MemberFunctionFactoryBase</text>
</a>
</g>
</g>
<!-- Node18&#45;&gt;Node17 -->
<g id="edge20" class="edge">
<title>Node18&#45;&gt;Node17</title>
<path fill="none" stroke="#ffa500" stroke-dasharray="5,2" d="M375.2293,-351.0689C377.848,-351.216 380.4425,-351.36 383,-351.5 511.8672,-358.5549 661.5558,-365.6549 751.6916,-369.811"/>
<polygon fill="#ffa500" stroke="#ffa500" points="375.2197,-347.5628 365.0368,-350.4886 374.8217,-354.5515 375.2197,-347.5628"/>
<text text-anchor="start" x="403" y="-384.5" font-family="Helvetica,sans-Serif" font-size="10.00" fill="#000000"> &lt; MemberFunctionType,</text>
<text text-anchor="start" x="403" y="-373.5" font-family="Helvetica,sans-Serif" font-size="10.00" fill="#000000"> std::pair&lt; unsigned</text>
<text text-anchor="middle" x="463.5" y="-362.5" font-family="Helvetica,sans-Serif" font-size="10.00" fill="#000000"> int, int &gt; &gt;</text>
</g>
<!-- Node20 -->
<g id="node20" class="node">
<title>Node20</title>
<g id="a_node20"><a xlink:href="classitk_1_1simple_1_1detail_1_1MemberFunctionFactoryBase.html" target="_top" xlink:title=" ">
<polygon fill="#ffffff" stroke="#000000" points="562,-292.5 562,-344.5 734,-344.5 734,-292.5 562,-292.5"/>
<text text-anchor="start" x="570" y="-332.5" font-family="Helvetica,sans-Serif" font-size="10.00" fill="#000000">itk::simple::detail</text>
<text text-anchor="start" x="570" y="-321.5" font-family="Helvetica,sans-Serif" font-size="10.00" fill="#000000">::MemberFunctionFactoryBase</text>
<text text-anchor="start" x="570" y="-310.5" font-family="Helvetica,sans-Serif" font-size="10.00" fill="#000000">&lt; TMemberFunctionPointer,</text>
<text text-anchor="middle" x="648" y="-299.5" font-family="Helvetica,sans-Serif" font-size="10.00" fill="#000000"> std::pair&lt; unsigned int, int &gt; &gt;</text>
</a>
</g>
</g>
<!-- Node18&#45;&gt;Node20 -->
<g id="edge23" class="edge">
<title>Node18&#45;&gt;Node20</title>
<path fill="none" stroke="#ffa500" stroke-dasharray="5,2" d="M339.3452,-327.6219C353.432,-323.8448 368.6491,-320.4219 383,-318.5 442.3938,-310.5461 509.9494,-310.6859 561.9864,-312.7424"/>
<polygon fill="#ffa500" stroke="#ffa500" points="338.0086,-324.361 329.3162,-330.4185 339.8888,-331.1038 338.0086,-324.361"/>
<text text-anchor="start" x="394" y="-343.5" font-family="Helvetica,sans-Serif" font-size="10.00" fill="#000000"> &lt; TMemberFunctionPointer,</text>
<text text-anchor="start" x="394" y="-332.5" font-family="Helvetica,sans-Serif" font-size="10.00" fill="#000000"> std::pair&lt; unsigned int,</text>
<text text-anchor="middle" x="463.5" y="-321.5" font-family="Helvetica,sans-Serif" font-size="10.00" fill="#000000"> int &gt; &gt;</text>
</g>
<!-- Node19 -->
<g id="node19" class="node">
<title>Node19</title>
<g id="a_node19"><a xlink:href="classitk_1_1simple_1_1detail_1_1MemberFunctionFactory.html" target="_top" xlink:title="A class used to instantiate and generate function object to templated member functions.">
<polygon fill="#ffffff" stroke="#000000" points="933.5,-300 933.5,-341 1093.5,-341 1093.5,-300 933.5,-300"/>
<text text-anchor="start" x="941.5" y="-329" font-family="Helvetica,sans-Serif" font-size="10.00" fill="#000000">itk::simple::detail</text>
<text text-anchor="start" x="941.5" y="-318" font-family="Helvetica,sans-Serif" font-size="10.00" fill="#000000">::MemberFunctionFactory</text>
<text text-anchor="middle" x="1013.5" y="-307" font-family="Helvetica,sans-Serif" font-size="10.00" fill="#000000">&lt; TMemberFunctionPointer &gt;</text>
</a>
</g>
</g>
<!-- Node19&#45;&gt;Node16 -->
<g id="edge21" class="edge">
<title>Node19&#45;&gt;Node16</title>
<path fill="none" stroke="#ffa500" stroke-dasharray="5,2" d="M1103.7128,-328.3469C1145.9162,-332.7356 1196.7403,-339.0499 1242,-347.5 1247.9928,-348.6189 1254.1785,-349.9124 1260.3678,-351.304"/>
<polygon fill="#ffa500" stroke="#ffa500" points="1104.04,-324.8622 1093.7362,-327.3284 1103.329,-331.826 1104.04,-324.8622"/>
<text text-anchor="middle" x="1177.5" y="-350.5" font-family="Helvetica,sans-Serif" font-size="10.00" fill="#000000"> &lt; MemberFunctionType &gt;</text>
</g>
<!-- Node20&#45;&gt;Node19 -->
<g id="edge22" class="edge">
<title>Node20&#45;&gt;Node19</title>
<path fill="none" stroke="#006400" d="M744.2109,-319.0265C803.0883,-319.3486 877.5474,-319.7561 933.2396,-320.0608"/>
<polygon fill="#006400" stroke="#006400" points="744.1746,-315.5263 734.1556,-318.9714 744.1362,-322.5262 744.1746,-315.5263"/>
</g>
<!-- Node21&#45;&gt;Node15 -->
<g id="edge24" class="edge">
<title>Node21&#45;&gt;Node15</title>
<path fill="none" stroke="#ffa500" stroke-dasharray="5,2" d="M1400.8112,-310.4437C1446.8889,-309.8027 1508.6876,-310.3339 1563,-315.5 1568.8007,-316.0518 1574.7517,-316.7419 1580.7414,-317.5313"/>
<polygon fill="#ffa500" stroke="#ffa500" points="1400.5786,-306.9469 1390.6364,-310.6078 1400.6916,-313.946 1400.5786,-306.9469"/>
<text text-anchor="start" x="1423.5" y="-340.5" font-family="Helvetica,sans-Serif" font-size="10.00" fill="#000000"> &lt; itk::simple::detail</text>
<text text-anchor="start" x="1423.5" y="-329.5" font-family="Helvetica,sans-Serif" font-size="10.00" fill="#000000">::MemberFunctionFactory</text>
<text text-anchor="middle" x="1492" y="-318.5" font-family="Helvetica,sans-Serif" font-size="10.00" fill="#000000">&lt; MemberFunctionType &gt; &gt;</text>
</g>
<!-- Node22 -->
<g id="node22" class="node">
<title>Node22</title>
<g id="a_node22"><a xlink:title=" ">
<polygon fill="#ffffff" stroke="#bfbfbf" points="1613,-265.5 1613,-295.5 1737,-295.5 1737,-265.5 1613,-265.5"/>
<text text-anchor="start" x="1621" y="-283.5" font-family="Helvetica,sans-Serif" font-size="10.00" fill="#000000">std::vector&lt; unsigned</text>
<text text-anchor="middle" x="1675" y="-272.5" font-family="Helvetica,sans-Serif" font-size="10.00" fill="#000000"> int &gt;</text>
</a>
</g>
</g>
<!-- Node22&#45;&gt;Node1 -->
<g id="edge26" class="edge">
<title>Node22&#45;&gt;Node1</title>
<path fill="none" stroke="#9a32cd" stroke-dasharray="5,2" d="M1747.005,-274.3457C1793.3556,-270.3841 1853.2467,-265.2652 1898.9102,-261.3624"/>
<polygon fill="#9a32cd" stroke="#9a32cd" points="1746.6973,-270.8592 1737.0317,-275.1981 1747.2935,-277.8337 1746.6973,-270.8592"/>
<text text-anchor="middle" x="1834" y="-272.5" font-family="Helvetica,sans-Serif" font-size="10.00" fill="#000000"> m_Size</text>
</g>
<!-- Node23&#45;&gt;Node22 -->
<g id="edge27" class="edge">
<title>Node23&#45;&gt;Node22</title>
<path fill="none" stroke="#ffa500" stroke-dasharray="5,2" d="M1390.3722,-267.2422C1452.4146,-270.1321 1549.7283,-274.6649 1612.9455,-277.6095"/>
<polygon fill="#ffa500" stroke="#ffa500" points="1390.5024,-263.7446 1380.3504,-266.7754 1390.1767,-270.737 1390.5024,-263.7446"/>
<text text-anchor="middle" x="1492" y="-277.5" font-family="Helvetica,sans-Serif" font-size="10.00" fill="#000000"> &lt; unsigned int &gt;</text>
</g>
<!-- Node24 -->
<g id="node24" class="node">
<title>Node24</title>
<g id="a_node24"><a xlink:title=" ">
<polygon fill="#ffffff" stroke="#bfbfbf" points="1613,-221 1613,-240 1737,-240 1737,-221 1613,-221"/>
<text text-anchor="middle" x="1675" y="-228" font-family="Helvetica,sans-Serif" font-size="10.00" fill="#000000">std::vector&lt; double &gt;</text>
</a>
</g>
</g>
<!-- Node23&#45;&gt;Node24 -->
<g id="edge30" class="edge">
<title>Node23&#45;&gt;Node24</title>
<path fill="none" stroke="#ffa500" stroke-dasharray="5,2" d="M1390.3238,-256.9982C1400.5448,-255.7725 1411.0762,-254.5589 1421,-253.5 1486.3812,-246.5238 1561.3786,-239.9018 1612.8358,-235.5705"/>
<polygon fill="#ffa500" stroke="#ffa500" points="1389.7454,-253.5426 1380.2402,-258.2226 1390.5892,-260.4916 1389.7454,-253.5426"/>
<text text-anchor="middle" x="1492" y="-256.5" font-family="Helvetica,sans-Serif" font-size="10.00" fill="#000000"> &lt; double &gt;</text>
</g>
<!-- Node24&#45;&gt;Node1 -->
<g id="edge29" class="edge">
<title>Node24&#45;&gt;Node1</title>
<path fill="none" stroke="#9a32cd" stroke-dasharray="5,2" d="M1747.2884,-222.7506C1787.003,-220.0801 1836.9941,-219.3197 1881,-226.5 1897.8827,-229.2547 1915.9158,-234.8465 1931.1238,-240.3913"/>
<polygon fill="#9a32cd" stroke="#9a32cd" points="1746.881,-219.2709 1737.1614,-223.4875 1747.389,-226.2525 1746.881,-219.2709"/>
<text text-anchor="middle" x="1834" y="-251.5" font-family="Helvetica,sans-Serif" font-size="10.00" fill="#000000"> m_Spacing</text>
<text text-anchor="middle" x="1834" y="-240.5" font-family="Helvetica,sans-Serif" font-size="10.00" fill="#000000">m_Origin</text>
<text text-anchor="middle" x="1834" y="-229.5" font-family="Helvetica,sans-Serif" font-size="10.00" fill="#000000">m_Direction</text>
</g>
</g>
</svg>
