<?xml version="1.0" encoding="UTF-8" standalone="no"?>
<!DOCTYPE svg PUBLIC "-//W3C//DTD SVG 1.1//EN"
 "http://www.w3.org/Graphics/SVG/1.1/DTD/svg11.dtd">
<!-- Generated by graphviz version 2.40.1 (20161225.0304)
 -->
<!-- Title: itk::simple::detail::MemberFunctionFactoryBase Pages: 1 -->
<!--zoomable 424 -->
<svg id="main" version="1.1" xmlns="http://www.w3.org/2000/svg" xmlns:xlink="http://www.w3.org/1999/xlink" xml:space="preserve" onload="init(evt)">
<style type="text/css"><![CDATA[
.edge:hover path { stroke: red; }
.edge:hover polygon { stroke: red; fill: red; }
]]></style>
<script type="text/javascript"><![CDATA[
var edges = document.getElementsByTagName('g');
if (edges && edges.length) {
  for (var i=0;i<edges.length;i++) {
    if (edges[i].id.substr(0,4)=='edge') {
      edges[i].setAttribute('class','edge');
    }
  }
}
]]></script>
        <defs>
                <circle id="rim" cx="0" cy="0" r="7"/>
                <circle id="rim2" cx="0" cy="0" r="3.5"/>
                <g id="zoomPlus">
                        <use xlink:href="#rim" fill="#404040">
                                <set attributeName="fill" to="#808080" begin="zoomplus.mouseover" end="zoomplus.mouseout"/>
                        </use>
                        <path d="M-4,0h8M0,-4v8" fill="none" stroke="white" stroke-width="1.5" pointer-events="none"/>
                </g>
                <g id="zoomMin">
                        <use xlink:href="#rim" fill="#404040">
                                <set attributeName="fill" to="#808080" begin="zoomminus.mouseover" end="zoomminus.mouseout"/>
                        </use>
                        <path d="M-4,0h8" fill="none" stroke="white" stroke-width="1.5" pointer-events="none"/>
                </g>
                <g id="dirArrow">
                        <path fill="none" stroke="white" stroke-width="1.5" d="M0,-3.0v7 M-2.5,-0.5L0,-3.0L2.5,-0.5"/>
                </g>
               <g id="resetDef">
                       <use xlink:href="#rim2" fill="#404040">
                               <set attributeName="fill" to="#808080" begin="reset.mouseover" end="reset.mouseout"/>
                       </use>
               </g>
        </defs>

<script type="text/javascript">
var viewWidth = 1289;
var viewHeight = 424;
var sectionId = 'dynsection-0';
</script>
<script xlink:href="svgpan.js"/>
<svg id="graph" class="graph">
<g id="viewport">
<title>itk::simple::detail::MemberFunctionFactoryBase</title>
<polygon fill="#ffffff" stroke="transparent" points="-4,4 -4,-419.5 1285,-419.5 1285,4 -4,4"/>
<!-- Node1 -->
<g id="node1" class="node">
<title>Node1</title>
<g id="a_node1"><a xlink:title="A base class for the MemberFunctionFactory.">
<polygon fill="#bfbfbf" stroke="#000000" points="0,-195.5 0,-225.5 162,-225.5 162,-195.5 0,-195.5"/>
<text text-anchor="start" x="8" y="-213.5" font-family="Helvetica,sans-Serif" font-size="10.00" fill="#000000">itk::simple::detail</text>
<text text-anchor="middle" x="81" y="-202.5" font-family="Helvetica,sans-Serif" font-size="10.00" fill="#000000">::MemberFunctionFactoryBase</text>
</a>
</g>
</g>
<!-- Node2 -->
<g id="node2" class="node">
<title>Node2</title>
<g id="a_node2"><a xlink:href="classitk_1_1simple_1_1detail_1_1MemberFunctionFactoryBase.html" target="_top" xlink:title=" ">
<polygon fill="#ffffff" stroke="#000000" points="554.5,-374 554.5,-415 716.5,-415 716.5,-374 554.5,-374"/>
<text text-anchor="start" x="562.5" y="-403" font-family="Helvetica,sans-Serif" font-size="10.00" fill="#000000">itk::simple::detail</text>
<text text-anchor="start" x="562.5" y="-392" font-family="Helvetica,sans-Serif" font-size="10.00" fill="#000000">::MemberFunctionFactoryBase</text>
<text text-anchor="middle" x="635.5" y="-381" font-family="Helvetica,sans-Serif" font-size="10.00" fill="#000000">&lt; MemberFunctionType, int &gt;</text>
</a>
</g>
</g>
<!-- Node1&#45;&gt;Node2 -->
<g id="edge1" class="edge">
<title>Node1&#45;&gt;Node2</title>
<path fill="none" stroke="#ffa500" stroke-dasharray="5,2" d="M92.5844,-235.0832C108.0123,-264.8123 138.2865,-313.8056 180,-337.5 297.2859,-404.1214 458.5862,-407.5661 554.4369,-402.2505"/>
<polygon fill="#ffa500" stroke="#ffa500" points="95.5408,-233.1711 87.9265,-225.8041 89.2848,-236.3115 95.5408,-233.1711"/>
<text text-anchor="start" x="189" y="-399.5" font-family="Helvetica,sans-Serif" font-size="10.00" fill="#000000"> &lt; MemberFunctionType,</text>
<text text-anchor="middle" x="249.5" y="-388.5" font-family="Helvetica,sans-Serif" font-size="10.00" fill="#000000"> int &gt;</text>
</g>
<!-- Node4 -->
<g id="node4" class="node">
<title>Node4</title>
<g id="a_node4"><a xlink:href="classitk_1_1simple_1_1detail_1_1MemberFunctionFactoryBase.html" target="_top" xlink:title=" ">
<polygon fill="#ffffff" stroke="#000000" points="534,-305 534,-346 737,-346 737,-305 534,-305"/>
<text text-anchor="start" x="542" y="-334" font-family="Helvetica,sans-Serif" font-size="10.00" fill="#000000">itk::simple::detail</text>
<text text-anchor="start" x="542" y="-323" font-family="Helvetica,sans-Serif" font-size="10.00" fill="#000000">::MemberFunctionFactoryBase</text>
<text text-anchor="middle" x="635.5" y="-312" font-family="Helvetica,sans-Serif" font-size="10.00" fill="#000000">&lt; EvaluateMemberFunctionType, int &gt;</text>
</a>
</g>
</g>
<!-- Node1&#45;&gt;Node4 -->
<g id="edge3" class="edge">
<title>Node1&#45;&gt;Node4</title>
<path fill="none" stroke="#ffa500" stroke-dasharray="5,2" d="M105.599,-232.2359C124.5521,-247.6497 152.1488,-267.3342 180,-277.5 296.1545,-319.8967 439.2613,-328.4982 533.7211,-328.7176"/>
<polygon fill="#ffa500" stroke="#ffa500" points="107.7024,-229.4326 97.78,-225.7182 103.2203,-234.8096 107.7024,-229.4326"/>
<text text-anchor="start" x="180.5" y="-325.5" font-family="Helvetica,sans-Serif" font-size="10.00" fill="#000000"> &lt; EvaluateMemberFunction</text>
<text text-anchor="middle" x="249.5" y="-314.5" font-family="Helvetica,sans-Serif" font-size="10.00" fill="#000000">Type, int &gt;</text>
</g>
<!-- Node6 -->
<g id="node6" class="node">
<title>Node6</title>
<g id="a_node6"><a xlink:href="classitk_1_1simple_1_1detail_1_1MemberFunctionFactoryBase.html" target="_top" xlink:title=" ">
<polygon fill="#ffffff" stroke="#000000" points="345.5,-71.5 345.5,-123.5 507.5,-123.5 507.5,-71.5 345.5,-71.5"/>
<text text-anchor="start" x="353.5" y="-111.5" font-family="Helvetica,sans-Serif" font-size="10.00" fill="#000000">itk::simple::detail</text>
<text text-anchor="start" x="353.5" y="-100.5" font-family="Helvetica,sans-Serif" font-size="10.00" fill="#000000">::MemberFunctionFactoryBase</text>
<text text-anchor="start" x="353.5" y="-89.5" font-family="Helvetica,sans-Serif" font-size="10.00" fill="#000000">&lt; MemberFunctionType, std</text>
<text text-anchor="middle" x="426.5" y="-78.5" font-family="Helvetica,sans-Serif" font-size="10.00" fill="#000000">::pair&lt; int, int &gt; &gt;</text>
</a>
</g>
</g>
<!-- Node1&#45;&gt;Node6 -->
<g id="edge5" class="edge">
<title>Node1&#45;&gt;Node6</title>
<path fill="none" stroke="#ffa500" stroke-dasharray="5,2" d="M99.8396,-187.6523C118.0517,-167.3198 147.5884,-138.6708 180,-124.5 231.9697,-101.7781 295.7359,-95.2925 345.3916,-94.3494"/>
<polygon fill="#ffa500" stroke="#ffa500" points="97.1422,-185.4202 93.2054,-195.2564 102.4169,-190.0221 97.1422,-185.4202"/>
<text text-anchor="start" x="189" y="-138.5" font-family="Helvetica,sans-Serif" font-size="10.00" fill="#000000"> &lt; MemberFunctionType,</text>
<text text-anchor="middle" x="249.5" y="-127.5" font-family="Helvetica,sans-Serif" font-size="10.00" fill="#000000"> std::pair&lt; int, int &gt; &gt;</text>
</g>
<!-- Node8 -->
<g id="node8" class="node">
<title>Node8</title>
<g id="a_node8"><a xlink:href="classitk_1_1simple_1_1detail_1_1MemberFunctionFactoryBase.html" target="_top" xlink:title=" ">
<polygon fill="#ffffff" stroke="#000000" points="552,-183 552,-224 719,-224 719,-183 552,-183"/>
<text text-anchor="start" x="560" y="-212" font-family="Helvetica,sans-Serif" font-size="10.00" fill="#000000">itk::simple::detail</text>
<text text-anchor="start" x="560" y="-201" font-family="Helvetica,sans-Serif" font-size="10.00" fill="#000000">::MemberFunctionFactoryBase</text>
<text text-anchor="middle" x="635.5" y="-190" font-family="Helvetica,sans-Serif" font-size="10.00" fill="#000000">&lt; MemberFunction1Type, int &gt;</text>
</a>
</g>
</g>
<!-- Node1&#45;&gt;Node8 -->
<g id="edge7" class="edge">
<title>Node1&#45;&gt;Node8</title>
<path fill="none" stroke="#ffa500" stroke-dasharray="5,2" d="M172.5309,-209.3445C277.9742,-208.0134 449.7665,-205.8447 551.7897,-204.5568"/>
<polygon fill="#ffa500" stroke="#ffa500" points="172.1779,-205.8486 162.2229,-209.4746 172.2663,-212.848 172.1779,-205.8486"/>
<text text-anchor="start" x="186" y="-222.5" font-family="Helvetica,sans-Serif" font-size="10.00" fill="#000000"> &lt; MemberFunction1Type,</text>
<text text-anchor="middle" x="249.5" y="-211.5" font-family="Helvetica,sans-Serif" font-size="10.00" fill="#000000"> int &gt;</text>
</g>
<!-- Node10 -->
<g id="node10" class="node">
<title>Node10</title>
<g id="a_node10"><a xlink:href="classitk_1_1simple_1_1detail_1_1MemberFunctionFactoryBase.html" target="_top" xlink:title=" ">
<polygon fill="#ffffff" stroke="#000000" points="755,-121 755,-162 922,-162 922,-121 755,-121"/>
<text text-anchor="start" x="763" y="-150" font-family="Helvetica,sans-Serif" font-size="10.00" fill="#000000">itk::simple::detail</text>
<text text-anchor="start" x="763" y="-139" font-family="Helvetica,sans-Serif" font-size="10.00" fill="#000000">::MemberFunctionFactoryBase</text>
<text text-anchor="middle" x="838.5" y="-128" font-family="Helvetica,sans-Serif" font-size="10.00" fill="#000000">&lt; MemberFunction2Type, int &gt;</text>
</a>
</g>
</g>
<!-- Node1&#45;&gt;Node10 -->
<g id="edge9" class="edge">
<title>Node1&#45;&gt;Node10</title>
<path fill="none" stroke="#ffa500" stroke-dasharray="5,2" d="M172.3814,-197.9357C221.1699,-191.5164 282.2813,-183.9349 337,-178.5 483.819,-163.9172 655.3479,-152.4634 754.9772,-146.3627"/>
<polygon fill="#ffa500" stroke="#ffa500" points="171.6191,-194.506 162.1643,-199.2867 172.5368,-201.4456 171.6191,-194.506"/>
<text text-anchor="start" x="363" y="-192.5" font-family="Helvetica,sans-Serif" font-size="10.00" fill="#000000"> &lt; MemberFunction2Type,</text>
<text text-anchor="middle" x="426.5" y="-181.5" font-family="Helvetica,sans-Serif" font-size="10.00" fill="#000000"> int &gt;</text>
</g>
<!-- Node12 -->
<g id="node12" class="node">
<title>Node12</title>
<g id="a_node12"><a xlink:href="classitk_1_1simple_1_1detail_1_1MemberFunctionFactoryBase.html" target="_top" xlink:title=" ">
<polygon fill="#ffffff" stroke="#000000" points="337,-239 337,-280 516,-280 516,-239 337,-239"/>
<text text-anchor="start" x="345" y="-268" font-family="Helvetica,sans-Serif" font-size="10.00" fill="#000000">itk::simple::detail</text>
<text text-anchor="start" x="345" y="-257" font-family="Helvetica,sans-Serif" font-size="10.00" fill="#000000">::MemberFunctionFactoryBase</text>
<text text-anchor="middle" x="426.5" y="-246" font-family="Helvetica,sans-Serif" font-size="10.00" fill="#000000">&lt; TMemberFunctionPointer, int &gt;</text>
</a>
</g>
</g>
<!-- Node1&#45;&gt;Node12 -->
<g id="edge11" class="edge">
<title>Node1&#45;&gt;Node12</title>
<path fill="none" stroke="#ffa500" stroke-dasharray="5,2" d="M144.18,-227.9571C156.0158,-230.7987 168.334,-233.471 180,-235.5 231.5752,-244.4704 289.8473,-250.3368 336.7812,-254.0226"/>
<polygon fill="#ffa500" stroke="#ffa500" points="144.9233,-224.5356 134.3763,-225.5407 143.2481,-231.3322 144.9233,-224.5356"/>
<text text-anchor="start" x="180" y="-265.5" font-family="Helvetica,sans-Serif" font-size="10.00" fill="#000000"> &lt; TMemberFunctionPointer,</text>
<text text-anchor="middle" x="249.5" y="-254.5" font-family="Helvetica,sans-Serif" font-size="10.00" fill="#000000"> int &gt;</text>
</g>
<!-- Node14 -->
<g id="node14" class="node">
<title>Node14</title>
<g id="a_node14"><a xlink:href="classitk_1_1simple_1_1detail_1_1MemberFunctionFactoryBase.html" target="_top" xlink:title=" ">
<polygon fill="#ffffff" stroke="#000000" points="345.5,-.5 345.5,-52.5 507.5,-52.5 507.5,-.5 345.5,-.5"/>
<text text-anchor="start" x="353.5" y="-40.5" font-family="Helvetica,sans-Serif" font-size="10.00" fill="#000000">itk::simple::detail</text>
<text text-anchor="start" x="353.5" y="-29.5" font-family="Helvetica,sans-Serif" font-size="10.00" fill="#000000">::MemberFunctionFactoryBase</text>
<text text-anchor="start" x="353.5" y="-18.5" font-family="Helvetica,sans-Serif" font-size="10.00" fill="#000000">&lt; TMemberFunctionPointer,</text>
<text text-anchor="middle" x="426.5" y="-7.5" font-family="Helvetica,sans-Serif" font-size="10.00" fill="#000000"> std::pair&lt; int, int &gt; &gt;</text>
</a>
</g>
</g>
<!-- Node1&#45;&gt;Node14 -->
<g id="edge17" class="edge">
<title>Node1&#45;&gt;Node14</title>
<path fill="none" stroke="#ffa500" stroke-dasharray="5,2" d="M90.9229,-185.7629C105.357,-153.2068 135.3852,-96.8058 180,-68.5 229.12,-37.3359 294.3553,-27.2893 345.3769,-24.7913"/>
<polygon fill="#ffa500" stroke="#ffa500" points="87.6677,-184.4733 86.945,-195.0435 94.1016,-187.231 87.6677,-184.4733"/>
<text text-anchor="start" x="180" y="-82.5" font-family="Helvetica,sans-Serif" font-size="10.00" fill="#000000"> &lt; TMemberFunctionPointer,</text>
<text text-anchor="middle" x="249.5" y="-71.5" font-family="Helvetica,sans-Serif" font-size="10.00" fill="#000000"> std::pair&lt; int, int &gt; &gt;</text>
</g>
<!-- Node3 -->
<g id="node3" class="node">
<title>Node3</title>
<g id="a_node3"><a xlink:href="classitk_1_1simple_1_1detail_1_1MemberFunctionFactory.html" target="_top" xlink:title=" ">
<polygon fill="#ffffff" stroke="#000000" points="1117.5,-367 1117.5,-408 1259.5,-408 1259.5,-367 1117.5,-367"/>
<text text-anchor="start" x="1125.5" y="-396" font-family="Helvetica,sans-Serif" font-size="10.00" fill="#000000">itk::simple::detail</text>
<text text-anchor="start" x="1125.5" y="-385" font-family="Helvetica,sans-Serif" font-size="10.00" fill="#000000">::MemberFunctionFactory</text>
<text text-anchor="middle" x="1188.5" y="-374" font-family="Helvetica,sans-Serif" font-size="10.00" fill="#000000">&lt; MemberFunctionType &gt;</text>
</a>
</g>
</g>
<!-- Node2&#45;&gt;Node3 -->
<g id="edge2" class="edge">
<title>Node2&#45;&gt;Node3</title>
<path fill="none" stroke="#006400" d="M726.5454,-393.3475C836.069,-391.9612 1017.6178,-389.6631 1117.3861,-388.4002"/>
<polygon fill="#006400" stroke="#006400" points="726.458,-389.8483 716.5032,-393.4746 726.5467,-396.8477 726.458,-389.8483"/>
</g>
<!-- Node5 -->
<g id="node5" class="node">
<title>Node5</title>
<g id="a_node5"><a xlink:href="classitk_1_1simple_1_1detail_1_1MemberFunctionFactory.html" target="_top" xlink:title=" ">
<polygon fill="#ffffff" stroke="#000000" points="1096,-283 1096,-324 1281,-324 1281,-283 1096,-283"/>
<text text-anchor="start" x="1104" y="-312" font-family="Helvetica,sans-Serif" font-size="10.00" fill="#000000">itk::simple::detail</text>
<text text-anchor="start" x="1104" y="-301" font-family="Helvetica,sans-Serif" font-size="10.00" fill="#000000">::MemberFunctionFactory</text>
<text text-anchor="middle" x="1188.5" y="-290" font-family="Helvetica,sans-Serif" font-size="10.00" fill="#000000">&lt; EvaluateMemberFunctionType &gt;</text>
</a>
</g>
</g>
<!-- Node4&#45;&gt;Node5 -->
<g id="edge4" class="edge">
<title>Node4&#45;&gt;Node5</title>
<path fill="none" stroke="#006400" d="M747.0695,-346.2148C837.1876,-359.3869 966.8512,-370.2643 1078,-348.5 1102.3933,-343.7235 1128.1977,-333.5373 1148.7304,-324.0624"/>
<polygon fill="#006400" stroke="#006400" points="747.512,-342.7421 737.1044,-344.7253 746.4772,-349.6652 747.512,-342.7421"/>
</g>
<!-- Node7 -->
<g id="node7" class="node">
<title>Node7</title>
<g id="a_node7"><a xlink:href="classitk_1_1simple_1_1detail_1_1DualMemberFunctionFactory.html" target="_top" xlink:title=" ">
<polygon fill="#ffffff" stroke="#000000" points="1108,-49 1108,-90 1269,-90 1269,-49 1108,-49"/>
<text text-anchor="start" x="1116" y="-78" font-family="Helvetica,sans-Serif" font-size="10.00" fill="#000000">itk::simple::detail</text>
<text text-anchor="start" x="1116" y="-67" font-family="Helvetica,sans-Serif" font-size="10.00" fill="#000000">::DualMemberFunctionFactory</text>
<text text-anchor="middle" x="1188.5" y="-56" font-family="Helvetica,sans-Serif" font-size="10.00" fill="#000000">&lt; MemberFunctionType &gt;</text>
</a>
</g>
</g>
<!-- Node6&#45;&gt;Node7 -->
<g id="edge6" class="edge">
<title>Node6&#45;&gt;Node7</title>
<path fill="none" stroke="#006400" d="M517.8031,-94.145C667.9906,-88.6263 964.7422,-77.7221 1107.7347,-72.4678"/>
<polygon fill="#006400" stroke="#006400" points="517.551,-90.6518 507.6863,-94.5168 517.8081,-97.6471 517.551,-90.6518"/>
</g>
<!-- Node9 -->
<g id="node9" class="node">
<title>Node9</title>
<g id="a_node9"><a xlink:href="classitk_1_1simple_1_1detail_1_1MemberFunctionFactory.html" target="_top" xlink:title=" ">
<polygon fill="#ffffff" stroke="#000000" points="1114.5,-217 1114.5,-258 1262.5,-258 1262.5,-217 1114.5,-217"/>
<text text-anchor="start" x="1122.5" y="-246" font-family="Helvetica,sans-Serif" font-size="10.00" fill="#000000">itk::simple::detail</text>
<text text-anchor="start" x="1122.5" y="-235" font-family="Helvetica,sans-Serif" font-size="10.00" fill="#000000">::MemberFunctionFactory</text>
<text text-anchor="middle" x="1188.5" y="-224" font-family="Helvetica,sans-Serif" font-size="10.00" fill="#000000">&lt; MemberFunction1Type &gt;</text>
</a>
</g>
</g>
<!-- Node8&#45;&gt;Node9 -->
<g id="edge8" class="edge">
<title>Node8&#45;&gt;Node9</title>
<path fill="none" stroke="#006400" d="M729.3944,-195.9428C819.3659,-190.5285 958.7122,-186.9305 1078,-204.5 1095.5297,-207.0819 1114.1452,-211.8225 1131.0007,-216.9207"/>
<polygon fill="#006400" stroke="#006400" points="728.9795,-192.4618 719.216,-196.5758 729.414,-199.4483 728.9795,-192.4618"/>
</g>
<!-- Node11 -->
<g id="node11" class="node">
<title>Node11</title>
<g id="a_node11"><a xlink:href="classitk_1_1simple_1_1detail_1_1MemberFunctionFactory.html" target="_top" xlink:title=" ">
<polygon fill="#ffffff" stroke="#000000" points="1114.5,-145 1114.5,-186 1262.5,-186 1262.5,-145 1114.5,-145"/>
<text text-anchor="start" x="1122.5" y="-174" font-family="Helvetica,sans-Serif" font-size="10.00" fill="#000000">itk::simple::detail</text>
<text text-anchor="start" x="1122.5" y="-163" font-family="Helvetica,sans-Serif" font-size="10.00" fill="#000000">::MemberFunctionFactory</text>
<text text-anchor="middle" x="1188.5" y="-152" font-family="Helvetica,sans-Serif" font-size="10.00" fill="#000000">&lt; MemberFunction2Type &gt;</text>
</a>
</g>
</g>
<!-- Node10&#45;&gt;Node11 -->
<g id="edge10" class="edge">
<title>Node10&#45;&gt;Node11</title>
<path fill="none" stroke="#006400" d="M932.4389,-147.9415C989.4652,-151.8519 1061.2325,-156.7731 1114.269,-160.4099"/>
<polygon fill="#006400" stroke="#006400" points="932.5498,-144.441 922.3337,-147.2486 932.0708,-151.4246 932.5498,-144.441"/>
</g>
<!-- Node13 -->
<g id="node13" class="node">
<title>Node13</title>
<g id="a_node13"><a xlink:href="classitk_1_1simple_1_1detail_1_1MemberFunctionFactory.html" target="_top" xlink:title="A class used to instantiate and generate function object to templated member functions.">
<polygon fill="#ffffff" stroke="#000000" points="758.5,-239 758.5,-280 918.5,-280 918.5,-239 758.5,-239"/>
<text text-anchor="start" x="766.5" y="-268" font-family="Helvetica,sans-Serif" font-size="10.00" fill="#000000">itk::simple::detail</text>
<text text-anchor="start" x="766.5" y="-257" font-family="Helvetica,sans-Serif" font-size="10.00" fill="#000000">::MemberFunctionFactory</text>
<text text-anchor="middle" x="838.5" y="-246" font-family="Helvetica,sans-Serif" font-size="10.00" fill="#000000">&lt; TMemberFunctionPointer &gt;</text>
</a>
</g>
</g>
<!-- Node12&#45;&gt;Node13 -->
<g id="edge12" class="edge">
<title>Node12&#45;&gt;Node13</title>
<path fill="none" stroke="#006400" d="M526.4857,-259.5C597.7111,-259.5 692.1794,-259.5 758.4395,-259.5"/>
<polygon fill="#006400" stroke="#006400" points="526.1519,-256.0001 516.1518,-259.5 526.1518,-263.0001 526.1519,-256.0001"/>
</g>
<!-- Node13&#45;&gt;Node3 -->
<g id="edge16" class="edge">
<title>Node13&#45;&gt;Node3</title>
<path fill="none" stroke="#ffa500" stroke-dasharray="5,2" d="M881.3316,-285.3146C899.0736,-295.3133 920.1195,-306.3012 940,-314.5 998.0929,-338.4577 1066.8144,-358.0128 1117.2483,-370.8326"/>
<polygon fill="#ffa500" stroke="#ffa500" points="882.797,-282.1208 872.3785,-280.1961 879.3228,-288.1978 882.797,-282.1208"/>
<text text-anchor="middle" x="1009" y="-361.5" font-family="Helvetica,sans-Serif" font-size="10.00" fill="#000000"> &lt; MemberFunctionType &gt;</text>
</g>
<!-- Node13&#45;&gt;Node5 -->
<g id="edge15" class="edge">
<title>Node13&#45;&gt;Node5</title>
<path fill="none" stroke="#ffa500" stroke-dasharray="5,2" d="M928.8778,-270.8618C980.1704,-277.31 1044.237,-285.3641 1095.8931,-291.858"/>
<polygon fill="#ffa500" stroke="#ffa500" points="929.1556,-267.3692 918.7971,-269.5945 928.2824,-274.3146 929.1556,-267.3692"/>
<text text-anchor="start" x="940" y="-302.5" font-family="Helvetica,sans-Serif" font-size="10.00" fill="#000000"> &lt; EvaluateMemberFunction</text>
<text text-anchor="middle" x="1009" y="-291.5" font-family="Helvetica,sans-Serif" font-size="10.00" fill="#000000">Type &gt;</text>
</g>
<!-- Node13&#45;&gt;Node9 -->
<g id="edge14" class="edge">
<title>Node13&#45;&gt;Node9</title>
<path fill="none" stroke="#ffa500" stroke-dasharray="5,2" d="M928.9826,-253.8125C986.5366,-250.1948 1060.1409,-245.5683 1114.2531,-242.1669"/>
<polygon fill="#ffa500" stroke="#ffa500" points="928.5578,-250.3322 918.7971,-254.4528 928.997,-257.3184 928.5578,-250.3322"/>
<text text-anchor="middle" x="1009" y="-255.5" font-family="Helvetica,sans-Serif" font-size="10.00" fill="#000000"> &lt; MemberFunction1Type &gt;</text>
</g>
<!-- Node13&#45;&gt;Node11 -->
<g id="edge13" class="edge">
<title>Node13&#45;&gt;Node11</title>
<path fill="none" stroke="#ffa500" stroke-dasharray="5,2" d="M916.3521,-236.1859C924.3282,-233.8883 932.3193,-231.6234 940,-229.5 998.3976,-213.3552 1064.8811,-196.3018 1114.3778,-183.8616"/>
<polygon fill="#ffa500" stroke="#ffa500" points="915.2827,-232.8517 906.6524,-238.9972 917.2314,-239.575 915.2827,-232.8517"/>
<text text-anchor="middle" x="1009" y="-232.5" font-family="Helvetica,sans-Serif" font-size="10.00" fill="#000000"> &lt; MemberFunction2Type &gt;</text>
</g>
<!-- Node15 -->
<g id="node15" class="node">
<title>Node15</title>
<g id="a_node15"><a xlink:href="classitk_1_1simple_1_1detail_1_1DualMemberFunctionFactory.html" target="_top" xlink:title="A class used to instantiate and generate function objects of templated member functions with two temp...">
<polygon fill="#ffffff" stroke="#000000" points="758,-17 758,-58 919,-58 919,-17 758,-17"/>
<text text-anchor="start" x="766" y="-46" font-family="Helvetica,sans-Serif" font-size="10.00" fill="#000000">itk::simple::detail</text>
<text text-anchor="start" x="766" y="-35" font-family="Helvetica,sans-Serif" font-size="10.00" fill="#000000">::DualMemberFunctionFactory</text>
<text text-anchor="middle" x="838.5" y="-24" font-family="Helvetica,sans-Serif" font-size="10.00" fill="#000000">&lt; TMemberFunctionPointer &gt;</text>
</a>
</g>
</g>
<!-- Node14&#45;&gt;Node15 -->
<g id="edge18" class="edge">
<title>Node14&#45;&gt;Node15</title>
<path fill="none" stroke="#006400" d="M518.2985,-28.9509C590.1712,-30.8699 689.1593,-33.5127 757.9731,-35.35"/>
<polygon fill="#006400" stroke="#006400" points="517.9878,-25.4415 507.8979,-28.6732 517.8009,-32.439 517.9878,-25.4415"/>
</g>
<!-- Node15&#45;&gt;Node7 -->
<g id="edge19" class="edge">
<title>Node15&#45;&gt;Node7</title>
<path fill="none" stroke="#ffa500" stroke-dasharray="5,2" d="M929.3764,-45.8087C984.6355,-50.861 1054.5787,-57.2558 1107.867,-62.1278"/>
<polygon fill="#ffa500" stroke="#ffa500" points="929.5137,-42.3067 919.2365,-44.8816 928.8763,-49.2777 929.5137,-42.3067"/>
<text text-anchor="middle" x="1009" y="-61.5" font-family="Helvetica,sans-Serif" font-size="10.00" fill="#000000"> &lt; MemberFunctionType &gt;</text>
</g>
</g>
</svg>
        <g id="navigator" transform="translate(0 0)" fill="#404254">
                <rect fill="#f2f5e9" fill-opacity="0.5" stroke="#606060" stroke-width=".5" x="0" y="0" width="60" height="60"/>
                <use id="zoomplus" xlink:href="#zoomPlus" x="17" y="9" onmousedown="handleZoom(evt,'in')"/>
                <use id="zoomminus" xlink:href="#zoomMin" x="42" y="9" onmousedown="handleZoom(evt,'out')"/>
                <use id="reset" xlink:href="#resetDef" x="30" y="36" onmousedown="handleReset()"/>
                <g id="arrowUp" xlink:href="#dirArrow" transform="translate(30 24)" onmousedown="handlePan(0,-1)">
                  <use xlink:href="#rim" fill="#404040">
                        <set attributeName="fill" to="#808080" begin="arrowUp.mouseover" end="arrowUp.mouseout"/>
                  </use>
                  <path fill="none" stroke="white" stroke-width="1.5" d="M0,-3.0v7 M-2.5,-0.5L0,-3.0L2.5,-0.5"/>
                </g>
                <g id="arrowRight" xlink:href="#dirArrow" transform="rotate(90) translate(36 -43)" onmousedown="handlePan(1,0)">
                  <use xlink:href="#rim" fill="#404040">
                        <set attributeName="fill" to="#808080" begin="arrowRight.mouseover" end="arrowRight.mouseout"/>
                  </use>
                  <path fill="none" stroke="white" stroke-width="1.5" d="M0,-3.0v7 M-2.5,-0.5L0,-3.0L2.5,-0.5"/>
                </g>
                <g id="arrowDown" xlink:href="#dirArrow" transform="rotate(180) translate(-30 -48)" onmousedown="handlePan(0,1)">
                  <use xlink:href="#rim" fill="#404040">
                        <set attributeName="fill" to="#808080" begin="arrowDown.mouseover" end="arrowDown.mouseout"/>
                  </use>
                  <path fill="none" stroke="white" stroke-width="1.5" d="M0,-3.0v7 M-2.5,-0.5L0,-3.0L2.5,-0.5"/>
                </g>
                <g id="arrowLeft" xlink:href="#dirArrow" transform="rotate(270) translate(-36 17)" onmousedown="handlePan(-1,0)">
                  <use xlink:href="#rim" fill="#404040">
                        <set attributeName="fill" to="#808080" begin="arrowLeft.mouseover" end="arrowLeft.mouseout"/>
                  </use>
                  <path fill="none" stroke="white" stroke-width="1.5" d="M0,-3.0v7 M-2.5,-0.5L0,-3.0L2.5,-0.5"/>
                </g>
        </g>
        <svg viewBox="0 0 15 15" width="100%" height="30px" preserveAspectRatio="xMaxYMin meet">
         <g id="arrow_out" transform="scale(0.3 0.3)">
          <a xlink:href="classitk_1_1simple_1_1detail_1_1MemberFunctionFactoryBase__inherit__graph_org.svg" target="_base">
           <rect id="button" ry="5" rx="5" y="6" x="6" height="38" width="38"
                fill="#f2f5e9" fill-opacity="0.5" stroke="#606060" stroke-width="1.0"/>
           <path id="arrow"
             d="M 11.500037,31.436501 C 11.940474,20.09759 22.043105,11.32322 32.158766,21.979434 L 37.068811,17.246167 C 37.068811,17.246167 37.088388,32 37.088388,32 L 22.160133,31.978069 C 22.160133,31.978069 26.997745,27.140456 26.997745,27.140456 C 18.528582,18.264221 13.291696,25.230495 11.500037,31.436501 z"
             style="fill:#404040;"/>
          </a>
         </g>
        </svg>
</svg>
