<?xml version="1.0" encoding="UTF-8" standalone="no"?>
<!DOCTYPE svg PUBLIC "-//W3C//DTD SVG 1.1//EN"
 "http://www.w3.org/Graphics/SVG/1.1/DTD/svg11.dtd">
<!-- Generated by graphviz version 2.40.1 (20161225.0304)
 -->
<!-- Title: itk::simple::PasteImageFilter Pages: 1 -->
<svg width="2103pt" height="488pt"
 viewBox="0.00 0.00 2103.00 488.00" xmlns="http://www.w3.org/2000/svg" xmlns:xlink="http://www.w3.org/1999/xlink">
<g id="graph0" class="graph" transform="scale(1 1) rotate(0) translate(4 484)">
<title>itk::simple::PasteImageFilter</title>
<polygon fill="#ffffff" stroke="transparent" points="-4,4 -4,-484 2099,-484 2099,4 -4,4"/>
<!-- Node1 -->
<g id="node1" class="node">
<title>Node1</title>
<g id="a_node1"><a xlink:title="Paste an image (or a constant value) into another image.">
<polygon fill="#bfbfbf" stroke="#000000" points="1940,-204.5 1940,-223.5 2095,-223.5 2095,-204.5 1940,-204.5"/>
<text text-anchor="middle" x="2017.5" y="-211.5" font-family="Helvetica,sans-Serif" font-size="10.00" fill="#000000">itk::simple::PasteImageFilter</text>
</a>
</g>
</g>
<!-- Node2 -->
<g id="node2" class="node">
<title>Node2</title>
<g id="a_node2"><a xlink:href="classitk_1_1simple_1_1ImageFilter.html" target="_top" xlink:title="The base interface for SimpleITK filters that take one input image.">
<polygon fill="#ffffff" stroke="#000000" points="768.5,-.5 768.5,-19.5 897.5,-19.5 897.5,-.5 768.5,-.5"/>
<text text-anchor="middle" x="833" y="-7.5" font-family="Helvetica,sans-Serif" font-size="10.00" fill="#000000">itk::simple::ImageFilter</text>
</a>
</g>
</g>
<!-- Node2&#45;&gt;Node1 -->
<g id="edge1" class="edge">
<title>Node2&#45;&gt;Node1</title>
<path fill="none" stroke="#191970" d="M907.7801,-8.6315C977.5597,-7.4732 1084.5748,-6 1177.5,-6 1177.5,-6 1177.5,-6 1687,-6 1837.8462,-6 1976.1408,-163.1243 2009.7519,-204.2467"/>
<polygon fill="#191970" stroke="#191970" points="907.7008,-5.1322 897.761,-8.7999 907.8185,-12.1312 907.7008,-5.1322"/>
</g>
<!-- Node3 -->
<g id="node3" class="node">
<title>Node3</title>
<g id="a_node3"><a xlink:href="classitk_1_1simple_1_1ProcessObject.html" target="_top" xlink:title="Base class for SimpleITK classes based on ProcessObject.">
<polygon fill="#ffffff" stroke="#000000" points="212.5,-47.5 212.5,-66.5 355.5,-66.5 355.5,-47.5 212.5,-47.5"/>
<text text-anchor="middle" x="284" y="-54.5" font-family="Helvetica,sans-Serif" font-size="10.00" fill="#000000">itk::simple::ProcessObject</text>
</a>
</g>
</g>
<!-- Node3&#45;&gt;Node2 -->
<g id="edge2" class="edge">
<title>Node3&#45;&gt;Node2</title>
<path fill="none" stroke="#191970" d="M337.1706,-45.5042C351.9493,-42.6619 368.0464,-39.8923 383,-38 519.4817,-20.7287 680.6592,-13.9749 768.2981,-11.4378"/>
<polygon fill="#191970" stroke="#191970" points="336.3142,-42.1056 327.18,-47.4737 337.6682,-48.9734 336.3142,-42.1056"/>
</g>
<!-- Node10 -->
<g id="node10" class="node">
<title>Node10</title>
<g id="a_node10"><a xlink:title=" ">
<polygon fill="#ffffff" stroke="#bfbfbf" points="590,-86 590,-116 706,-116 706,-86 590,-86"/>
<text text-anchor="start" x="598" y="-104" font-family="Helvetica,sans-Serif" font-size="10.00" fill="#000000">std::set&lt; itk::simple</text>
<text text-anchor="middle" x="648" y="-93" font-family="Helvetica,sans-Serif" font-size="10.00" fill="#000000">::ProcessObject * &gt;</text>
</a>
</g>
</g>
<!-- Node3&#45;&gt;Node10 -->
<g id="edge11" class="edge">
<title>Node3&#45;&gt;Node10</title>
<path fill="none" stroke="#9a32cd" stroke-dasharray="5,2" d="M365.7997,-66.0368C417.0272,-71.7956 484.3999,-79.5507 544,-87 558.9141,-88.8641 575.0166,-90.9807 589.9925,-92.9935"/>
<polygon fill="#9a32cd" stroke="#9a32cd" points="366.1044,-62.5491 355.7765,-64.9123 365.3239,-69.5054 366.1044,-62.5491"/>
<text text-anchor="middle" x="463.5" y="-90" font-family="Helvetica,sans-Serif" font-size="10.00" fill="#000000"> keys</text>
</g>
<!-- Node4 -->
<g id="node4" class="node">
<title>Node4</title>
<g id="a_node4"><a xlink:href="classitk_1_1simple_1_1NonCopyable.html" target="_top" xlink:title="An inheritable class to disable copying of a class.">
<polygon fill="#ffffff" stroke="#000000" points="0,-128.5 0,-147.5 140,-147.5 140,-128.5 0,-128.5"/>
<text text-anchor="middle" x="70" y="-135.5" font-family="Helvetica,sans-Serif" font-size="10.00" fill="#000000">itk::simple::NonCopyable</text>
</a>
</g>
</g>
<!-- Node4&#45;&gt;Node3 -->
<g id="edge3" class="edge">
<title>Node4&#45;&gt;Node3</title>
<path fill="none" stroke="#006400" d="M140.6279,-125.6808C156.0313,-121.0415 171.689,-114.6873 185,-106 195.5797,-99.0953 192.5975,-91.1689 203,-84 214.2291,-76.2615 227.8484,-70.5979 240.6898,-66.5175"/>
<polygon fill="#006400" stroke="#006400" points="139.26,-122.4288 130.5696,-128.4892 141.1425,-129.171 139.26,-122.4288"/>
</g>
<!-- Node7 -->
<g id="node7" class="node">
<title>Node7</title>
<g id="a_node7"><a xlink:href="classitk_1_1simple_1_1Command.html" target="_top" xlink:title="An implementation of the Command design pattern for callback.">
<polygon fill="#ffffff" stroke="#000000" points="949.5,-120.5 949.5,-139.5 1074.5,-139.5 1074.5,-120.5 949.5,-120.5"/>
<text text-anchor="middle" x="1012" y="-127.5" font-family="Helvetica,sans-Serif" font-size="10.00" fill="#000000">itk::simple::Command</text>
</a>
</g>
</g>
<!-- Node4&#45;&gt;Node7 -->
<g id="edge7" class="edge">
<title>Node4&#45;&gt;Node7</title>
<path fill="none" stroke="#006400" d="M150.0675,-137.3868C299.9845,-136.2275 633.2586,-133.5966 914,-131 925.3994,-130.8946 937.5446,-130.7758 949.2644,-130.658"/>
<polygon fill="#006400" stroke="#006400" points="149.9994,-133.8872 140.0268,-137.4644 150.0536,-140.887 149.9994,-133.8872"/>
</g>
<!-- Node5 -->
<g id="node5" class="node">
<title>Node5</title>
<g id="a_node5"><a xlink:title=" ">
<polygon fill="#ffffff" stroke="#bfbfbf" points="1593.5,-70 1593.5,-100 1780.5,-100 1780.5,-70 1593.5,-70"/>
<text text-anchor="start" x="1601.5" y="-88" font-family="Helvetica,sans-Serif" font-size="10.00" fill="#000000">std::list&lt; itk::simple</text>
<text text-anchor="middle" x="1687" y="-77" font-family="Helvetica,sans-Serif" font-size="10.00" fill="#000000">::ProcessObject::EventCommand &gt;</text>
</a>
</g>
</g>
<!-- Node5&#45;&gt;Node3 -->
<g id="edge4" class="edge">
<title>Node5&#45;&gt;Node3</title>
<path fill="none" stroke="#9a32cd" stroke-dasharray="5,2" d="M1583.1902,-70.0561C1513.6775,-61.3215 1420.0412,-52 1337,-52 648,-52 648,-52 648,-52 546.5633,-52 429.2412,-53.9654 355.8242,-55.4317"/>
<polygon fill="#9a32cd" stroke="#9a32cd" points="1582.9049,-73.548 1593.267,-71.3394 1583.7893,-66.6041 1582.9049,-73.548"/>
<text text-anchor="middle" x="1012" y="-55" font-family="Helvetica,sans-Serif" font-size="10.00" fill="#000000"> m_Commands</text>
</g>
<!-- Node6 -->
<g id="node6" class="node">
<title>Node6</title>
<g id="a_node6"><a xlink:href="structitk_1_1simple_1_1ProcessObject_1_1EventCommand.html" target="_top" xlink:title=" ">
<polygon fill="#ffffff" stroke="#000000" points="1265.5,-86 1265.5,-116 1408.5,-116 1408.5,-86 1265.5,-86"/>
<text text-anchor="start" x="1273.5" y="-104" font-family="Helvetica,sans-Serif" font-size="10.00" fill="#000000">itk::simple::ProcessObject</text>
<text text-anchor="middle" x="1337" y="-93" font-family="Helvetica,sans-Serif" font-size="10.00" fill="#000000">::EventCommand</text>
</a>
</g>
</g>
<!-- Node6&#45;&gt;Node5 -->
<g id="edge5" class="edge">
<title>Node6&#45;&gt;Node5</title>
<path fill="none" stroke="#9a32cd" stroke-dasharray="5,2" d="M1418.931,-86.9693C1422.3272,-86.6007 1425.6938,-86.2742 1429,-86 1483.3477,-81.4925 1544.3563,-81.0462 1593.3977,-81.8178"/>
<polygon fill="#9a32cd" stroke="#9a32cd" points="1418.1996,-83.5316 1408.6846,-88.1915 1419.0288,-90.4824 1418.1996,-83.5316"/>
<text text-anchor="middle" x="1500.5" y="-89" font-family="Helvetica,sans-Serif" font-size="10.00" fill="#000000"> elements</text>
</g>
<!-- Node7&#45;&gt;Node6 -->
<g id="edge6" class="edge">
<title>Node7&#45;&gt;Node6</title>
<path fill="none" stroke="#9a32cd" stroke-dasharray="5,2" d="M1084.8403,-123.5004C1138.7656,-118.6886 1211.8665,-112.1658 1265.4763,-107.3821"/>
<polygon fill="#9a32cd" stroke="#9a32cd" points="1084.3126,-120.0335 1074.6633,-124.4085 1084.9348,-127.0058 1084.3126,-120.0335"/>
<text text-anchor="middle" x="1177.5" y="-124" font-family="Helvetica,sans-Serif" font-size="10.00" fill="#000000"> m_Command</text>
</g>
<!-- Node8 -->
<g id="node8" class="node">
<title>Node8</title>
<g id="a_node8"><a xlink:title="STL class.">
<polygon fill="#ffffff" stroke="#bfbfbf" points="615.5,-176.5 615.5,-195.5 680.5,-195.5 680.5,-176.5 615.5,-176.5"/>
<text text-anchor="middle" x="648" y="-183.5" font-family="Helvetica,sans-Serif" font-size="10.00" fill="#000000">std::string</text>
</a>
</g>
</g>
<!-- Node8&#45;&gt;Node7 -->
<g id="edge8" class="edge">
<title>Node8&#45;&gt;Node7</title>
<path fill="none" stroke="#9a32cd" stroke-dasharray="5,2" d="M690.6575,-184.1237C743.4976,-181.2385 836.0784,-174.3443 914,-159 938.3724,-154.2006 965.3966,-145.9774 984.883,-139.5106"/>
<polygon fill="#9a32cd" stroke="#9a32cd" points="690.4387,-180.6303 680.6355,-184.6486 690.8049,-187.6207 690.4387,-180.6303"/>
<text text-anchor="middle" x="833" y="-182" font-family="Helvetica,sans-Serif" font-size="10.00" fill="#000000"> m_Name</text>
</g>
<!-- Node9 -->
<g id="node9" class="node">
<title>Node9</title>
<g id="a_node9"><a xlink:title="STL class.">
<polygon fill="#ffffff" stroke="#bfbfbf" points="232,-174 232,-204 336,-204 336,-174 232,-174"/>
<text text-anchor="start" x="240" y="-192" font-family="Helvetica,sans-Serif" font-size="10.00" fill="#000000">std::basic_string&lt;</text>
<text text-anchor="middle" x="284" y="-181" font-family="Helvetica,sans-Serif" font-size="10.00" fill="#000000"> char &gt;</text>
</a>
</g>
</g>
<!-- Node9&#45;&gt;Node8 -->
<g id="edge9" class="edge">
<title>Node9&#45;&gt;Node8</title>
<path fill="none" stroke="#191970" d="M346.325,-188.4863C424.2948,-187.8437 554.9016,-186.7673 615.4072,-186.2686"/>
<polygon fill="#191970" stroke="#191970" points="346.1231,-184.9878 336.1523,-188.5702 346.1809,-191.9875 346.1231,-184.9878"/>
</g>
<!-- Node10&#45;&gt;Node7 -->
<g id="edge10" class="edge">
<title>Node10&#45;&gt;Node7</title>
<path fill="none" stroke="#9a32cd" stroke-dasharray="5,2" d="M716.2552,-105.3027C770.0152,-108.83 846.8348,-114.1758 914,-120 925.4157,-120.9899 937.5686,-122.1466 949.291,-123.315"/>
<polygon fill="#9a32cd" stroke="#9a32cd" points="716.3637,-101.8024 706.157,-104.6437 715.9078,-108.7876 716.3637,-101.8024"/>
<text text-anchor="middle" x="833" y="-123" font-family="Helvetica,sans-Serif" font-size="10.00" fill="#000000"> m_ReferencedObjects</text>
</g>
<!-- Node11 -->
<g id="node11" class="node">
<title>Node11</title>
<g id="a_node11"><a xlink:title="STL class.">
<polygon fill="#ffffff" stroke="#bfbfbf" points="243,-93.5 243,-112.5 325,-112.5 325,-93.5 243,-93.5"/>
<text text-anchor="middle" x="284" y="-100.5" font-family="Helvetica,sans-Serif" font-size="10.00" fill="#000000">std::set&lt; K &gt;</text>
</a>
</g>
</g>
<!-- Node11&#45;&gt;Node10 -->
<g id="edge12" class="edge">
<title>Node11&#45;&gt;Node10</title>
<path fill="none" stroke="#ffa500" stroke-dasharray="5,2" d="M335.3639,-102.7178C402.4082,-102.3494 519.4541,-101.7063 589.7379,-101.3201"/>
<polygon fill="#ffa500" stroke="#ffa500" points="335.0284,-99.2195 325.0479,-102.7745 335.067,-106.2194 335.0284,-99.2195"/>
<text text-anchor="middle" x="463.5" y="-106" font-family="Helvetica,sans-Serif" font-size="10.00" fill="#000000"> &lt; itk::simple::ProcessObject * &gt;</text>
</g>
<!-- Node12 -->
<g id="node12" class="node">
<title>Node12</title>
<g id="a_node12"><a xlink:title=" ">
<polygon fill="#ffffff" stroke="#bfbfbf" points="55.5,-84.5 55.5,-103.5 84.5,-103.5 84.5,-84.5 55.5,-84.5"/>
<text text-anchor="middle" x="70" y="-91.5" font-family="Helvetica,sans-Serif" font-size="10.00" fill="#000000">K</text>
</a>
</g>
</g>
<!-- Node12&#45;&gt;Node11 -->
<g id="edge13" class="edge">
<title>Node12&#45;&gt;Node11</title>
<path fill="none" stroke="#9a32cd" stroke-dasharray="5,2" d="M94.9038,-95.0474C131.2222,-96.5748 199.1487,-99.4315 242.9345,-101.2729"/>
<polygon fill="#9a32cd" stroke="#9a32cd" points="94.8474,-91.542 84.7091,-94.6186 94.5532,-98.5358 94.8474,-91.542"/>
<text text-anchor="middle" x="171.5" y="-102" font-family="Helvetica,sans-Serif" font-size="10.00" fill="#000000"> keys</text>
</g>
<!-- Node13 -->
<g id="node13" class="node">
<title>Node13</title>
<g id="a_node13"><a xlink:title="STL class.">
<polygon fill="#ffffff" stroke="#bfbfbf" points="1296.5,-145.5 1296.5,-164.5 1377.5,-164.5 1377.5,-145.5 1296.5,-145.5"/>
<text text-anchor="middle" x="1337" y="-152.5" font-family="Helvetica,sans-Serif" font-size="10.00" fill="#000000">std::list&lt; T &gt;</text>
</a>
</g>
</g>
<!-- Node13&#45;&gt;Node5 -->
<g id="edge14" class="edge">
<title>Node13&#45;&gt;Node5</title>
<path fill="none" stroke="#ffa500" stroke-dasharray="5,2" d="M1387.6438,-144.8712C1446.4863,-133.1027 1544.1379,-113.5724 1611.8365,-100.0327"/>
<polygon fill="#ffa500" stroke="#ffa500" points="1386.9538,-141.4398 1377.8344,-146.8331 1388.3267,-148.3039 1386.9538,-141.4398"/>
<text text-anchor="start" x="1429.5" y="-151" font-family="Helvetica,sans-Serif" font-size="10.00" fill="#000000"> &lt; itk::simple::ProcessObject</text>
<text text-anchor="middle" x="1500.5" y="-140" font-family="Helvetica,sans-Serif" font-size="10.00" fill="#000000">::EventCommand &gt;</text>
</g>
<!-- Node14 -->
<g id="node14" class="node">
<title>Node14</title>
<g id="a_node14"><a xlink:title=" ">
<polygon fill="#ffffff" stroke="#bfbfbf" points="997.5,-188.5 997.5,-207.5 1026.5,-207.5 1026.5,-188.5 997.5,-188.5"/>
<text text-anchor="middle" x="1012" y="-195.5" font-family="Helvetica,sans-Serif" font-size="10.00" fill="#000000">T</text>
</a>
</g>
</g>
<!-- Node14&#45;&gt;Node13 -->
<g id="edge15" class="edge">
<title>Node14&#45;&gt;Node13</title>
<path fill="none" stroke="#9a32cd" stroke-dasharray="5,2" d="M1036.6145,-194.0291C1056.4165,-190.8837 1084.9684,-186.4587 1110,-183 1175.0989,-174.005 1250.8998,-164.9379 1296.3578,-159.6513"/>
<polygon fill="#9a32cd" stroke="#9a32cd" points="1035.914,-190.5966 1026.5915,-195.6307 1037.0185,-197.5089 1035.914,-190.5966"/>
<text text-anchor="middle" x="1177.5" y="-186" font-family="Helvetica,sans-Serif" font-size="10.00" fill="#000000"> elements</text>
</g>
<!-- Node21 -->
<g id="node21" class="node">
<title>Node21</title>
<g id="a_node21"><a xlink:title="STL class.">
<polygon fill="#ffffff" stroke="#bfbfbf" points="1278,-256.5 1278,-275.5 1396,-275.5 1396,-256.5 1278,-256.5"/>
<text text-anchor="middle" x="1337" y="-263.5" font-family="Helvetica,sans-Serif" font-size="10.00" fill="#000000">std::unique_ptr&lt; T &gt;</text>
</a>
</g>
</g>
<!-- Node14&#45;&gt;Node21 -->
<g id="edge24" class="edge">
<title>Node14&#45;&gt;Node21</title>
<path fill="none" stroke="#9a32cd" stroke-dasharray="5,2" d="M1036.6062,-203.1484C1090.8916,-214.5066 1221.6223,-241.8594 1291.3675,-256.4523"/>
<polygon fill="#9a32cd" stroke="#9a32cd" points="1037.314,-199.7207 1026.8091,-201.0985 1035.8803,-206.5724 1037.314,-199.7207"/>
<text text-anchor="middle" x="1177.5" y="-248" font-family="Helvetica,sans-Serif" font-size="10.00" fill="#000000"> ptr</text>
</g>
<!-- Node26 -->
<g id="node26" class="node">
<title>Node26</title>
<g id="a_node26"><a xlink:title="STL class.">
<polygon fill="#ffffff" stroke="#bfbfbf" points="1288.5,-188.5 1288.5,-207.5 1385.5,-207.5 1385.5,-188.5 1288.5,-188.5"/>
<text text-anchor="middle" x="1337" y="-195.5" font-family="Helvetica,sans-Serif" font-size="10.00" fill="#000000">std::vector&lt; T &gt;</text>
</a>
</g>
</g>
<!-- Node14&#45;&gt;Node26 -->
<g id="edge33" class="edge">
<title>Node14&#45;&gt;Node26</title>
<path fill="none" stroke="#9a32cd" stroke-dasharray="5,2" d="M1037.1327,-198C1090.9503,-198 1218.1344,-198 1288.3428,-198"/>
<polygon fill="#9a32cd" stroke="#9a32cd" points="1036.8091,-194.5001 1026.8091,-198 1036.8091,-201.5001 1036.8091,-194.5001"/>
<text text-anchor="middle" x="1177.5" y="-201" font-family="Helvetica,sans-Serif" font-size="10.00" fill="#000000"> elements</text>
</g>
<!-- Node15 -->
<g id="node15" class="node">
<title>Node15</title>
<g id="a_node15"><a xlink:title=" ">
<polygon fill="#ffffff" stroke="#bfbfbf" points="1593,-262.5 1593,-303.5 1781,-303.5 1781,-262.5 1593,-262.5"/>
<text text-anchor="start" x="1601" y="-291.5" font-family="Helvetica,sans-Serif" font-size="10.00" fill="#000000">std::unique_ptr&lt; itk</text>
<text text-anchor="start" x="1601" y="-280.5" font-family="Helvetica,sans-Serif" font-size="10.00" fill="#000000">::simple::detail::MemberFunction</text>
<text text-anchor="middle" x="1687" y="-269.5" font-family="Helvetica,sans-Serif" font-size="10.00" fill="#000000">Factory&lt; MemberFunctionType &gt; &gt;</text>
</a>
</g>
</g>
<!-- Node15&#45;&gt;Node1 -->
<g id="edge16" class="edge">
<title>Node15&#45;&gt;Node1</title>
<path fill="none" stroke="#9a32cd" stroke-dasharray="5,2" d="M1791.277,-274.8438C1832.4421,-270.1756 1879.8769,-262.9772 1922,-252 1948.9373,-244.9802 1978.5075,-232.4049 1997.499,-223.6516"/>
<polygon fill="#9a32cd" stroke="#9a32cd" points="1790.7868,-271.3765 1781.2289,-275.9476 1791.5513,-278.3347 1790.7868,-271.3765"/>
<text text-anchor="middle" x="1862" y="-275" font-family="Helvetica,sans-Serif" font-size="10.00" fill="#000000"> m_MemberFactory</text>
</g>
<!-- Node16 -->
<g id="node16" class="node">
<title>Node16</title>
<g id="a_node16"><a xlink:href="classitk_1_1simple_1_1detail_1_1MemberFunctionFactory.html" target="_top" xlink:title=" ">
<polygon fill="#ffffff" stroke="#000000" points="1266,-350.5 1266,-391.5 1408,-391.5 1408,-350.5 1266,-350.5"/>
<text text-anchor="start" x="1274" y="-379.5" font-family="Helvetica,sans-Serif" font-size="10.00" fill="#000000">itk::simple::detail</text>
<text text-anchor="start" x="1274" y="-368.5" font-family="Helvetica,sans-Serif" font-size="10.00" fill="#000000">::MemberFunctionFactory</text>
<text text-anchor="middle" x="1337" y="-357.5" font-family="Helvetica,sans-Serif" font-size="10.00" fill="#000000">&lt; MemberFunctionType &gt;</text>
</a>
</g>
</g>
<!-- Node16&#45;&gt;Node15 -->
<g id="edge17" class="edge">
<title>Node16&#45;&gt;Node15</title>
<path fill="none" stroke="#9a32cd" stroke-dasharray="5,2" d="M1418.4635,-385.9278C1467.2807,-390.3058 1528.1712,-387.2269 1572,-356 1588.8734,-343.9782 1574.6607,-326.9262 1590,-313 1593.9153,-309.4454 1598.2451,-306.3119 1602.8383,-303.5496"/>
<polygon fill="#9a32cd" stroke="#9a32cd" points="1418.5431,-382.4179 1408.2402,-384.8878 1417.8346,-389.382 1418.5431,-382.4179"/>
<text text-anchor="middle" x="1500.5" y="-390" font-family="Helvetica,sans-Serif" font-size="10.00" fill="#000000"> ptr</text>
</g>
<!-- Node17 -->
<g id="node17" class="node">
<title>Node17</title>
<g id="a_node17"><a xlink:href="classitk_1_1simple_1_1detail_1_1MemberFunctionFactoryBase.html" target="_top" xlink:title=" ">
<polygon fill="#ffffff" stroke="#000000" points="752,-314 752,-366 914,-366 914,-314 752,-314"/>
<text text-anchor="start" x="760" y="-354" font-family="Helvetica,sans-Serif" font-size="10.00" fill="#000000">itk::simple::detail</text>
<text text-anchor="start" x="760" y="-343" font-family="Helvetica,sans-Serif" font-size="10.00" fill="#000000">::MemberFunctionFactoryBase</text>
<text text-anchor="start" x="760" y="-332" font-family="Helvetica,sans-Serif" font-size="10.00" fill="#000000">&lt; MemberFunctionType, std</text>
<text text-anchor="middle" x="833" y="-321" font-family="Helvetica,sans-Serif" font-size="10.00" fill="#000000">::pair&lt; unsigned int, int &gt; &gt;</text>
</a>
</g>
</g>
<!-- Node17&#45;&gt;Node16 -->
<g id="edge18" class="edge">
<title>Node17&#45;&gt;Node16</title>
<path fill="none" stroke="#006400" d="M924.4539,-345.6251C1022.5234,-351.6572 1176.1781,-361.1082 1265.6865,-366.6137"/>
<polygon fill="#006400" stroke="#006400" points="924.4523,-342.1185 914.2562,-344.9979 924.0224,-349.1053 924.4523,-342.1185"/>
</g>
<!-- Node18 -->
<g id="node18" class="node">
<title>Node18</title>
<g id="a_node18"><a xlink:href="classitk_1_1simple_1_1detail_1_1MemberFunctionFactoryBase.html" target="_top" xlink:title="A base class for the MemberFunctionFactory.">
<polygon fill="#ffffff" stroke="#000000" points="203,-379 203,-409 365,-409 365,-379 203,-379"/>
<text text-anchor="start" x="211" y="-397" font-family="Helvetica,sans-Serif" font-size="10.00" fill="#000000">itk::simple::detail</text>
<text text-anchor="middle" x="284" y="-386" font-family="Helvetica,sans-Serif" font-size="10.00" fill="#000000">::MemberFunctionFactoryBase</text>
</a>
</g>
</g>
<!-- Node18&#45;&gt;Node17 -->
<g id="edge19" class="edge">
<title>Node18&#45;&gt;Node17</title>
<path fill="none" stroke="#ffa500" stroke-dasharray="5,2" d="M325.5245,-375.1023C342.9136,-368.0859 363.5695,-360.8925 383,-357 509.8684,-331.5846 660.7739,-331.9255 751.6136,-335.3428"/>
<polygon fill="#ffa500" stroke="#ffa500" points="324.1232,-371.8943 316.2285,-378.96 326.8063,-378.3597 324.1232,-371.8943"/>
<text text-anchor="start" x="403" y="-382" font-family="Helvetica,sans-Serif" font-size="10.00" fill="#000000"> &lt; MemberFunctionType,</text>
<text text-anchor="start" x="403" y="-371" font-family="Helvetica,sans-Serif" font-size="10.00" fill="#000000"> std::pair&lt; unsigned</text>
<text text-anchor="middle" x="463.5" y="-360" font-family="Helvetica,sans-Serif" font-size="10.00" fill="#000000"> int, int &gt; &gt;</text>
</g>
<!-- Node20 -->
<g id="node20" class="node">
<title>Node20</title>
<g id="a_node20"><a xlink:href="classitk_1_1simple_1_1detail_1_1MemberFunctionFactoryBase.html" target="_top" xlink:title=" ">
<polygon fill="#ffffff" stroke="#000000" points="562,-368 562,-420 734,-420 734,-368 562,-368"/>
<text text-anchor="start" x="570" y="-408" font-family="Helvetica,sans-Serif" font-size="10.00" fill="#000000">itk::simple::detail</text>
<text text-anchor="start" x="570" y="-397" font-family="Helvetica,sans-Serif" font-size="10.00" fill="#000000">::MemberFunctionFactoryBase</text>
<text text-anchor="start" x="570" y="-386" font-family="Helvetica,sans-Serif" font-size="10.00" fill="#000000">&lt; TMemberFunctionPointer,</text>
<text text-anchor="middle" x="648" y="-375" font-family="Helvetica,sans-Serif" font-size="10.00" fill="#000000"> std::pair&lt; unsigned int, int &gt; &gt;</text>
</a>
</g>
</g>
<!-- Node18&#45;&gt;Node20 -->
<g id="edge22" class="edge">
<title>Node18&#45;&gt;Node20</title>
<path fill="none" stroke="#ffa500" stroke-dasharray="5,2" d="M375.3568,-394C432.5494,-394 505.7782,-394 561.9397,-394"/>
<polygon fill="#ffa500" stroke="#ffa500" points="375.2357,-390.5001 365.2356,-394 375.2356,-397.5001 375.2357,-390.5001"/>
<text text-anchor="start" x="394" y="-419" font-family="Helvetica,sans-Serif" font-size="10.00" fill="#000000"> &lt; TMemberFunctionPointer,</text>
<text text-anchor="start" x="394" y="-408" font-family="Helvetica,sans-Serif" font-size="10.00" fill="#000000"> std::pair&lt; unsigned int,</text>
<text text-anchor="middle" x="463.5" y="-397" font-family="Helvetica,sans-Serif" font-size="10.00" fill="#000000"> int &gt; &gt;</text>
</g>
<!-- Node24 -->
<g id="node24" class="node">
<title>Node24</title>
<g id="a_node24"><a xlink:href="classitk_1_1simple_1_1detail_1_1MemberFunctionFactoryBase.html" target="_top" xlink:title=" ">
<polygon fill="#ffffff" stroke="#000000" points="752,-422 752,-474 914,-474 914,-422 752,-422"/>
<text text-anchor="start" x="760" y="-462" font-family="Helvetica,sans-Serif" font-size="10.00" fill="#000000">itk::simple::detail</text>
<text text-anchor="start" x="760" y="-451" font-family="Helvetica,sans-Serif" font-size="10.00" fill="#000000">::MemberFunctionFactoryBase</text>
<text text-anchor="start" x="760" y="-440" font-family="Helvetica,sans-Serif" font-size="10.00" fill="#000000">&lt; MemberFunction2Type, std</text>
<text text-anchor="middle" x="833" y="-429" font-family="Helvetica,sans-Serif" font-size="10.00" fill="#000000">::pair&lt; unsigned int, int &gt; &gt;</text>
</a>
</g>
</g>
<!-- Node18&#45;&gt;Node24 -->
<g id="edge28" class="edge">
<title>Node18&#45;&gt;Node24</title>
<path fill="none" stroke="#ffa500" stroke-dasharray="5,2" d="M329.4386,-412.6572C346.0154,-418.6439 365.0902,-424.5999 383,-428 510.1534,-452.1397 660.9753,-453.4264 751.7204,-451.3193"/>
<polygon fill="#ffa500" stroke="#ffa500" points="330.5876,-409.3504 319.9947,-409.1479 328.1492,-415.912 330.5876,-409.3504"/>
<text text-anchor="start" x="400" y="-472" font-family="Helvetica,sans-Serif" font-size="10.00" fill="#000000"> &lt; MemberFunction2Type,</text>
<text text-anchor="start" x="400" y="-461" font-family="Helvetica,sans-Serif" font-size="10.00" fill="#000000"> std::pair&lt; unsigned</text>
<text text-anchor="middle" x="463.5" y="-450" font-family="Helvetica,sans-Serif" font-size="10.00" fill="#000000"> int, int &gt; &gt;</text>
</g>
<!-- Node19 -->
<g id="node19" class="node">
<title>Node19</title>
<g id="a_node19"><a xlink:href="classitk_1_1simple_1_1detail_1_1MemberFunctionFactory.html" target="_top" xlink:title="A class used to instantiate and generate function object to templated member functions.">
<polygon fill="#ffffff" stroke="#000000" points="932,-373.5 932,-414.5 1092,-414.5 1092,-373.5 932,-373.5"/>
<text text-anchor="start" x="940" y="-402.5" font-family="Helvetica,sans-Serif" font-size="10.00" fill="#000000">itk::simple::detail</text>
<text text-anchor="start" x="940" y="-391.5" font-family="Helvetica,sans-Serif" font-size="10.00" fill="#000000">::MemberFunctionFactory</text>
<text text-anchor="middle" x="1012" y="-380.5" font-family="Helvetica,sans-Serif" font-size="10.00" fill="#000000">&lt; TMemberFunctionPointer &gt;</text>
</a>
</g>
</g>
<!-- Node19&#45;&gt;Node16 -->
<g id="edge20" class="edge">
<title>Node19&#45;&gt;Node16</title>
<path fill="none" stroke="#ffa500" stroke-dasharray="5,2" d="M1102.306,-386.5756C1104.8987,-386.3793 1107.4677,-386.187 1110,-386 1162.1896,-382.1457 1221.1652,-378.2629 1265.9213,-375.4136"/>
<polygon fill="#ffa500" stroke="#ffa500" points="1101.9176,-383.0951 1092.2148,-387.3502 1102.4534,-390.0745 1101.9176,-383.0951"/>
<text text-anchor="middle" x="1177.5" y="-389" font-family="Helvetica,sans-Serif" font-size="10.00" fill="#000000"> &lt; MemberFunctionType &gt;</text>
</g>
<!-- Node23 -->
<g id="node23" class="node">
<title>Node23</title>
<g id="a_node23"><a xlink:href="classitk_1_1simple_1_1detail_1_1MemberFunctionFactory.html" target="_top" xlink:title=" ">
<polygon fill="#ffffff" stroke="#000000" points="1263,-410.5 1263,-451.5 1411,-451.5 1411,-410.5 1263,-410.5"/>
<text text-anchor="start" x="1271" y="-439.5" font-family="Helvetica,sans-Serif" font-size="10.00" fill="#000000">itk::simple::detail</text>
<text text-anchor="start" x="1271" y="-428.5" font-family="Helvetica,sans-Serif" font-size="10.00" fill="#000000">::MemberFunctionFactory</text>
<text text-anchor="middle" x="1337" y="-417.5" font-family="Helvetica,sans-Serif" font-size="10.00" fill="#000000">&lt; MemberFunction2Type &gt;</text>
</a>
</g>
</g>
<!-- Node19&#45;&gt;Node23 -->
<g id="edge29" class="edge">
<title>Node19&#45;&gt;Node23</title>
<path fill="none" stroke="#ffa500" stroke-dasharray="5,2" d="M1102.2894,-404.2791C1152.8708,-410.0376 1215.1697,-417.1301 1262.8697,-422.5605"/>
<polygon fill="#ffa500" stroke="#ffa500" points="1102.6689,-400.7998 1092.3371,-403.1461 1101.877,-407.7548 1102.6689,-400.7998"/>
<text text-anchor="middle" x="1177.5" y="-423" font-family="Helvetica,sans-Serif" font-size="10.00" fill="#000000"> &lt; MemberFunction2Type &gt;</text>
</g>
<!-- Node20&#45;&gt;Node19 -->
<g id="edge21" class="edge">
<title>Node20&#45;&gt;Node19</title>
<path fill="none" stroke="#006400" d="M744.623,-394C803.0927,-394 876.7628,-394 931.9603,-394"/>
<polygon fill="#006400" stroke="#006400" points="744.263,-390.5001 734.2629,-394 744.2629,-397.5001 744.263,-390.5001"/>
</g>
<!-- Node21&#45;&gt;Node15 -->
<g id="edge23" class="edge">
<title>Node21&#45;&gt;Node15</title>
<path fill="none" stroke="#ffa500" stroke-dasharray="5,2" d="M1406.5157,-263.8584C1453.3412,-263.0144 1516.4566,-263.0359 1572,-267 1578.8362,-267.4879 1585.885,-268.1284 1592.9694,-268.8724"/>
<polygon fill="#ffa500" stroke="#ffa500" points="1406.4095,-260.3597 1396.4807,-264.0569 1406.548,-267.3583 1406.4095,-260.3597"/>
<text text-anchor="start" x="1432" y="-292" font-family="Helvetica,sans-Serif" font-size="10.00" fill="#000000"> &lt; itk::simple::detail</text>
<text text-anchor="start" x="1432" y="-281" font-family="Helvetica,sans-Serif" font-size="10.00" fill="#000000">::MemberFunctionFactory</text>
<text text-anchor="middle" x="1500.5" y="-270" font-family="Helvetica,sans-Serif" font-size="10.00" fill="#000000">&lt; MemberFunctionType &gt; &gt;</text>
</g>
<!-- Node22 -->
<g id="node22" class="node">
<title>Node22</title>
<g id="a_node22"><a xlink:title=" ">
<polygon fill="#ffffff" stroke="#bfbfbf" points="1590,-322.5 1590,-363.5 1784,-363.5 1784,-322.5 1590,-322.5"/>
<text text-anchor="start" x="1598" y="-351.5" font-family="Helvetica,sans-Serif" font-size="10.00" fill="#000000">std::unique_ptr&lt; itk</text>
<text text-anchor="start" x="1598" y="-340.5" font-family="Helvetica,sans-Serif" font-size="10.00" fill="#000000">::simple::detail::MemberFunction</text>
<text text-anchor="middle" x="1687" y="-329.5" font-family="Helvetica,sans-Serif" font-size="10.00" fill="#000000">Factory&lt; MemberFunction2Type &gt; &gt;</text>
</a>
</g>
</g>
<!-- Node21&#45;&gt;Node22 -->
<g id="edge30" class="edge">
<title>Node21&#45;&gt;Node22</title>
<path fill="none" stroke="#ffa500" stroke-dasharray="5,2" d="M1368.9853,-279.5677C1386.4549,-286.5308 1408.6236,-294.6506 1429,-300 1491.2625,-316.3457 1508.5107,-312.3739 1572,-323 1577.7962,-323.9701 1583.755,-324.9771 1589.7651,-326.0001"/>
<polygon fill="#ffa500" stroke="#ffa500" points="1369.8736,-276.1509 1359.2915,-275.6312 1367.2399,-282.6365 1369.8736,-276.1509"/>
<text text-anchor="start" x="1429" y="-348" font-family="Helvetica,sans-Serif" font-size="10.00" fill="#000000"> &lt; itk::simple::detail</text>
<text text-anchor="start" x="1429" y="-337" font-family="Helvetica,sans-Serif" font-size="10.00" fill="#000000">::MemberFunctionFactory</text>
<text text-anchor="middle" x="1500.5" y="-326" font-family="Helvetica,sans-Serif" font-size="10.00" fill="#000000">&lt; MemberFunction2Type &gt; &gt;</text>
</g>
<!-- Node22&#45;&gt;Node1 -->
<g id="edge25" class="edge">
<title>Node22&#45;&gt;Node1</title>
<path fill="none" stroke="#9a32cd" stroke-dasharray="5,2" d="M1793.945,-327.3243C1835.263,-318.7785 1882.1019,-305.944 1922,-287 1957.0644,-270.3511 1991.5896,-239.3589 2007.8489,-223.6549"/>
<polygon fill="#9a32cd" stroke="#9a32cd" points="1793.2354,-323.8969 1784.1206,-329.2979 1794.6141,-330.7598 1793.2354,-323.8969"/>
<text text-anchor="middle" x="1862" y="-328" font-family="Helvetica,sans-Serif" font-size="10.00" fill="#000000"> m_MemberFactory2</text>
</g>
<!-- Node23&#45;&gt;Node22 -->
<g id="edge26" class="edge">
<title>Node23&#45;&gt;Node22</title>
<path fill="none" stroke="#9a32cd" stroke-dasharray="5,2" d="M1421.2767,-427.7635C1466.7295,-424.2445 1523.3255,-416.9718 1572,-402 1601.3836,-392.9619 1632.2526,-376.7003 1654.602,-363.535"/>
<polygon fill="#9a32cd" stroke="#9a32cd" points="1420.8829,-424.2828 1411.1633,-428.4992 1421.3909,-431.2643 1420.8829,-424.2828"/>
<text text-anchor="middle" x="1500.5" y="-429" font-family="Helvetica,sans-Serif" font-size="10.00" fill="#000000"> ptr</text>
</g>
<!-- Node24&#45;&gt;Node23 -->
<g id="edge27" class="edge">
<title>Node24&#45;&gt;Node23</title>
<path fill="none" stroke="#006400" d="M924.3496,-444.9188C1021.398,-441.6453 1172.9655,-436.5329 1262.8817,-433.5"/>
<polygon fill="#006400" stroke="#006400" points="924.1325,-441.424 914.2562,-445.2592 924.3686,-448.42 924.1325,-441.424"/>
</g>
<!-- Node25 -->
<g id="node25" class="node">
<title>Node25</title>
<g id="a_node25"><a xlink:title=" ">
<polygon fill="#ffffff" stroke="#bfbfbf" points="1635,-224.5 1635,-243.5 1739,-243.5 1739,-224.5 1635,-224.5"/>
<text text-anchor="middle" x="1687" y="-231.5" font-family="Helvetica,sans-Serif" font-size="10.00" fill="#000000">std::vector&lt; int &gt;</text>
</a>
</g>
</g>
<!-- Node25&#45;&gt;Node1 -->
<g id="edge31" class="edge">
<title>Node25&#45;&gt;Node1</title>
<path fill="none" stroke="#9a32cd" stroke-dasharray="5,2" d="M1749.1407,-230.2396C1803.2099,-226.9676 1881.8075,-222.2113 1939.979,-218.6911"/>
<polygon fill="#9a32cd" stroke="#9a32cd" points="1748.7745,-226.7553 1739.0042,-230.853 1749.1974,-233.7425 1748.7745,-226.7553"/>
<text text-anchor="middle" x="1862" y="-240" font-family="Helvetica,sans-Serif" font-size="10.00" fill="#000000"> m_DestinationIndex</text>
<text text-anchor="middle" x="1862" y="-229" font-family="Helvetica,sans-Serif" font-size="10.00" fill="#000000">m_SourceIndex</text>
</g>
<!-- Node26&#45;&gt;Node25 -->
<g id="edge32" class="edge">
<title>Node26&#45;&gt;Node25</title>
<path fill="none" stroke="#ffa500" stroke-dasharray="5,2" d="M1395.6708,-205.982C1406.7339,-207.3936 1418.2146,-208.7954 1429,-210 1500.0842,-217.9394 1582.3939,-225.2748 1634.5637,-229.6937"/>
<polygon fill="#ffa500" stroke="#ffa500" points="1396.0264,-202.4989 1385.6603,-204.6881 1395.1291,-209.4412 1396.0264,-202.4989"/>
<text text-anchor="middle" x="1500.5" y="-226" font-family="Helvetica,sans-Serif" font-size="10.00" fill="#000000"> &lt; int &gt;</text>
</g>
<!-- Node27 -->
<g id="node27" class="node">
<title>Node27</title>
<g id="a_node27"><a xlink:title=" ">
<polygon fill="#ffffff" stroke="#bfbfbf" points="1631,-186.5 1631,-205.5 1743,-205.5 1743,-186.5 1631,-186.5"/>
<text text-anchor="middle" x="1687" y="-193.5" font-family="Helvetica,sans-Serif" font-size="10.00" fill="#000000">std::vector&lt; bool &gt;</text>
</a>
</g>
</g>
<!-- Node26&#45;&gt;Node27 -->
<g id="edge35" class="edge">
<title>Node26&#45;&gt;Node27</title>
<path fill="none" stroke="#ffa500" stroke-dasharray="5,2" d="M1395.8317,-197.6638C1461.3693,-197.2893 1566.5495,-196.6883 1630.9424,-196.3203"/>
<polygon fill="#ffa500" stroke="#ffa500" points="1395.6458,-194.1647 1385.666,-197.7219 1395.6859,-201.1646 1395.6458,-194.1647"/>
<text text-anchor="middle" x="1500.5" y="-200" font-family="Helvetica,sans-Serif" font-size="10.00" fill="#000000"> &lt; bool &gt;</text>
</g>
<!-- Node28 -->
<g id="node28" class="node">
<title>Node28</title>
<g id="a_node28"><a xlink:title=" ">
<polygon fill="#ffffff" stroke="#bfbfbf" points="1625,-137 1625,-167 1749,-167 1749,-137 1625,-137"/>
<text text-anchor="start" x="1633" y="-155" font-family="Helvetica,sans-Serif" font-size="10.00" fill="#000000">std::vector&lt; unsigned</text>
<text text-anchor="middle" x="1687" y="-144" font-family="Helvetica,sans-Serif" font-size="10.00" fill="#000000"> int &gt;</text>
</a>
</g>
</g>
<!-- Node26&#45;&gt;Node28 -->
<g id="edge37" class="edge">
<title>Node26&#45;&gt;Node28</title>
<path fill="none" stroke="#ffa500" stroke-dasharray="5,2" d="M1395.2293,-186.5968C1406.4142,-184.5889 1418.0521,-182.6247 1429,-181 1495.6552,-171.1082 1572.447,-162.8796 1624.8042,-157.7451"/>
<polygon fill="#ffa500" stroke="#ffa500" points="1394.3255,-183.2039 1385.1175,-188.4446 1395.5838,-190.0899 1394.3255,-183.2039"/>
<text text-anchor="middle" x="1500.5" y="-184" font-family="Helvetica,sans-Serif" font-size="10.00" fill="#000000"> &lt; unsigned int &gt;</text>
</g>
<!-- Node27&#45;&gt;Node1 -->
<g id="edge34" class="edge">
<title>Node27&#45;&gt;Node1</title>
<path fill="none" stroke="#9a32cd" stroke-dasharray="5,2" d="M1753.21,-194.8609C1800.3538,-194.6027 1865.1656,-195.3697 1922,-200 1934.6098,-201.0273 1948.0883,-202.6664 1960.8263,-204.467"/>
<polygon fill="#9a32cd" stroke="#9a32cd" points="1753.1026,-191.3615 1743.128,-194.9332 1753.1529,-198.3613 1753.1026,-191.3615"/>
<text text-anchor="middle" x="1862" y="-203" font-family="Helvetica,sans-Serif" font-size="10.00" fill="#000000"> m_DestinationSkipAxes</text>
</g>
<!-- Node28&#45;&gt;Node1 -->
<g id="edge36" class="edge">
<title>Node28&#45;&gt;Node1</title>
<path fill="none" stroke="#9a32cd" stroke-dasharray="5,2" d="M1759.0718,-156.3991C1805.948,-160.2836 1868.1481,-167.3734 1922,-180 1947.7019,-186.0263 1976.0717,-196.6635 1995.1589,-204.4392"/>
<polygon fill="#9a32cd" stroke="#9a32cd" points="1759.2571,-152.9028 1749.01,-155.5948 1758.6994,-159.8805 1759.2571,-152.9028"/>
<text text-anchor="middle" x="1862" y="-183" font-family="Helvetica,sans-Serif" font-size="10.00" fill="#000000"> m_SourceSize</text>
</g>
</g>
</svg>
