<?xml version="1.0" encoding="UTF-8" standalone="no"?>
<!DOCTYPE svg PUBLIC "-//W3C//DTD SVG 1.1//EN"
 "http://www.w3.org/Graphics/SVG/1.1/DTD/svg11.dtd">
<!-- Generated by graphviz version 2.40.1 (20161225.0304)
 -->
<!-- Title: itk::simple::FunctionCommand Pages: 1 -->
<!--zoomable 475 -->
<svg id="main" version="1.1" xmlns="http://www.w3.org/2000/svg" xmlns:xlink="http://www.w3.org/1999/xlink" xml:space="preserve" onload="init(evt)">
<style type="text/css"><![CDATA[
.edge:hover path { stroke: red; }
.edge:hover polygon { stroke: red; fill: red; }
]]></style>
<script type="text/javascript"><![CDATA[
var edges = document.getElementsByTagName('g');
if (edges && edges.length) {
  for (var i=0;i<edges.length;i++) {
    if (edges[i].id.substr(0,4)=='edge') {
      edges[i].setAttribute('class','edge');
    }
  }
}
]]></script>
        <defs>
                <circle id="rim" cx="0" cy="0" r="7"/>
                <circle id="rim2" cx="0" cy="0" r="3.5"/>
                <g id="zoomPlus">
                        <use xlink:href="#rim" fill="#404040">
                                <set attributeName="fill" to="#808080" begin="zoomplus.mouseover" end="zoomplus.mouseout"/>
                        </use>
                        <path d="M-4,0h8M0,-4v8" fill="none" stroke="white" stroke-width="1.5" pointer-events="none"/>
                </g>
                <g id="zoomMin">
                        <use xlink:href="#rim" fill="#404040">
                                <set attributeName="fill" to="#808080" begin="zoomminus.mouseover" end="zoomminus.mouseout"/>
                        </use>
                        <path d="M-4,0h8" fill="none" stroke="white" stroke-width="1.5" pointer-events="none"/>
                </g>
                <g id="dirArrow">
                        <path fill="none" stroke="white" stroke-width="1.5" d="M0,-3.0v7 M-2.5,-0.5L0,-3.0L2.5,-0.5"/>
                </g>
               <g id="resetDef">
                       <use xlink:href="#rim2" fill="#404040">
                               <set attributeName="fill" to="#808080" begin="reset.mouseover" end="reset.mouseout"/>
                       </use>
               </g>
        </defs>

<script type="text/javascript">
var viewWidth = 536;
var viewHeight = 475;
var sectionId = 'dynsection-1';
</script>
<script xlink:href="svgpan.js"/>
<svg id="graph" class="graph">
<g id="viewport">
<title>itk::simple::FunctionCommand</title>
<polygon fill="#ffffff" stroke="transparent" points="-4,4 -4,-471 532,-471 532,4 -4,4"/>
<!-- Node1 -->
<g id="node1" class="node">
<title>Node1</title>
<g id="a_node1"><a xlink:title="A Command class which allows setting an external function, or member function.">
<polygon fill="#bfbfbf" stroke="#000000" points="327.5,-240 327.5,-259 492.5,-259 492.5,-240 327.5,-240"/>
<text text-anchor="middle" x="410" y="-247" font-family="Helvetica,sans-Serif" font-size="10.00" fill="#000000">itk::simple::FunctionCommand</text>
</a>
</g>
</g>
<!-- Node2 -->
<g id="node2" class="node">
<title>Node2</title>
<g id="a_node2"><a xlink:href="classitk_1_1simple_1_1Command.html" target="_top" xlink:title="An implementation of the Command design pattern for callback.">
<polygon fill="#ffffff" stroke="#000000" points="194.5,-312.5 194.5,-331.5 319.5,-331.5 319.5,-312.5 194.5,-312.5"/>
<text text-anchor="middle" x="257" y="-319.5" font-family="Helvetica,sans-Serif" font-size="10.00" fill="#000000">itk::simple::Command</text>
</a>
</g>
</g>
<!-- Node2&#45;&gt;Node1 -->
<g id="edge1" class="edge">
<title>Node2&#45;&gt;Node1</title>
<path fill="none" stroke="#191970" d="M286.5443,-308.0002C316.8378,-293.6455 363.151,-271.6997 389.5988,-259.1673"/>
<polygon fill="#191970" stroke="#191970" points="284.8552,-304.9275 277.3172,-312.3726 287.8528,-311.2532 284.8552,-304.9275"/>
</g>
<!-- Node9 -->
<g id="node9" class="node">
<title>Node9</title>
<g id="a_node9"><a xlink:href="structitk_1_1simple_1_1ProcessObject_1_1EventCommand.html" target="_top" xlink:title=" ">
<polygon fill="#ffffff" stroke="#000000" points="127.5,-234.5 127.5,-264.5 270.5,-264.5 270.5,-234.5 127.5,-234.5"/>
<text text-anchor="start" x="135.5" y="-252.5" font-family="Helvetica,sans-Serif" font-size="10.00" fill="#000000">itk::simple::ProcessObject</text>
<text text-anchor="middle" x="199" y="-241.5" font-family="Helvetica,sans-Serif" font-size="10.00" fill="#000000">::EventCommand</text>
</a>
</g>
</g>
<!-- Node2&#45;&gt;Node9 -->
<g id="edge10" class="edge">
<title>Node2&#45;&gt;Node9</title>
<path fill="none" stroke="#9a32cd" stroke-dasharray="5,2" d="M229.5402,-306.7091C224.562,-303.032 219.7637,-298.7675 216,-294 209.2357,-285.4315 204.9273,-273.8681 202.3406,-264.6764"/>
<polygon fill="#9a32cd" stroke="#9a32cd" points="227.6795,-309.6754 237.9369,-312.328 231.5726,-303.8578 227.6795,-309.6754"/>
<text text-anchor="middle" x="250.5" y="-286" font-family="Helvetica,sans-Serif" font-size="10.00" fill="#000000"> m_Command</text>
</g>
<!-- Node3 -->
<g id="node3" class="node">
<title>Node3</title>
<g id="a_node3"><a xlink:href="classitk_1_1simple_1_1NonCopyable.html" target="_top" xlink:title="An inheritable class to disable copying of a class.">
<polygon fill="#ffffff" stroke="#000000" points="27,-379.5 27,-398.5 167,-398.5 167,-379.5 27,-379.5"/>
<text text-anchor="middle" x="97" y="-386.5" font-family="Helvetica,sans-Serif" font-size="10.00" fill="#000000">itk::simple::NonCopyable</text>
</a>
</g>
</g>
<!-- Node3&#45;&gt;Node2 -->
<g id="edge2" class="edge">
<title>Node3&#45;&gt;Node2</title>
<path fill="none" stroke="#006400" d="M129.4493,-375.4118C160.5474,-362.3895 206.6921,-343.0664 234.1184,-331.5817"/>
<polygon fill="#006400" stroke="#006400" points="127.7961,-372.3096 119.9241,-379.4005 130.4999,-378.7663 127.7961,-372.3096"/>
</g>
<!-- Node7 -->
<g id="node7" class="node">
<title>Node7</title>
<g id="a_node7"><a xlink:href="classitk_1_1simple_1_1ProcessObject.html" target="_top" xlink:title="Base class for SimpleITK classes based on ProcessObject.">
<polygon fill="#ffffff" stroke="#000000" points="73.5,-78.5 73.5,-97.5 216.5,-97.5 216.5,-78.5 73.5,-78.5"/>
<text text-anchor="middle" x="145" y="-85.5" font-family="Helvetica,sans-Serif" font-size="10.00" fill="#000000">itk::simple::ProcessObject</text>
</a>
</g>
</g>
<!-- Node3&#45;&gt;Node7 -->
<g id="edge7" class="edge">
<title>Node3&#45;&gt;Node7</title>
<path fill="none" stroke="#006400" d="M50.3379,-375.9091C25.491,-365.7882 0,-348.8597 0,-322 0,-322 0,-322 0,-160.5 0,-124.193 36.8186,-106.0673 73.3496,-97.0188"/>
<polygon fill="#006400" stroke="#006400" points="49.1827,-379.2139 59.7747,-379.4612 51.6487,-372.6627 49.1827,-379.2139"/>
</g>
<!-- Node4 -->
<g id="node4" class="node">
<title>Node4</title>
<g id="a_node4"><a xlink:title="STL class.">
<polygon fill="#ffffff" stroke="#bfbfbf" points="224.5,-379.5 224.5,-398.5 289.5,-398.5 289.5,-379.5 224.5,-379.5"/>
<text text-anchor="middle" x="257" y="-386.5" font-family="Helvetica,sans-Serif" font-size="10.00" fill="#000000">std::string</text>
</a>
</g>
</g>
<!-- Node4&#45;&gt;Node2 -->
<g id="edge3" class="edge">
<title>Node4&#45;&gt;Node2</title>
<path fill="none" stroke="#9a32cd" stroke-dasharray="5,2" d="M257,-369.1079C257,-356.714 257,-341.3263 257,-331.5817"/>
<polygon fill="#9a32cd" stroke="#9a32cd" points="253.5001,-369.4005 257,-379.4005 260.5001,-369.4006 253.5001,-369.4005"/>
<text text-anchor="middle" x="281" y="-353" font-family="Helvetica,sans-Serif" font-size="10.00" fill="#000000"> m_Name</text>
</g>
<!-- Node5 -->
<g id="node5" class="node">
<title>Node5</title>
<g id="a_node5"><a xlink:title="STL class.">
<polygon fill="#ffffff" stroke="#bfbfbf" points="205,-436.5 205,-466.5 309,-466.5 309,-436.5 205,-436.5"/>
<text text-anchor="start" x="213" y="-454.5" font-family="Helvetica,sans-Serif" font-size="10.00" fill="#000000">std::basic_string&lt;</text>
<text text-anchor="middle" x="257" y="-443.5" font-family="Helvetica,sans-Serif" font-size="10.00" fill="#000000"> char &gt;</text>
</a>
</g>
</g>
<!-- Node5&#45;&gt;Node4 -->
<g id="edge4" class="edge">
<title>Node5&#45;&gt;Node4</title>
<path fill="none" stroke="#191970" d="M257,-426.3498C257,-416.6481 257,-406.1303 257,-398.7356"/>
<polygon fill="#191970" stroke="#191970" points="253.5001,-426.3705 257,-436.3705 260.5001,-426.3705 253.5001,-426.3705"/>
</g>
<!-- Node6 -->
<g id="node6" class="node">
<title>Node6</title>
<g id="a_node6"><a xlink:title=" ">
<polygon fill="#ffffff" stroke="#bfbfbf" points="241,-.5 241,-30.5 357,-30.5 357,-.5 241,-.5"/>
<text text-anchor="start" x="249" y="-18.5" font-family="Helvetica,sans-Serif" font-size="10.00" fill="#000000">std::set&lt; itk::simple</text>
<text text-anchor="middle" x="299" y="-7.5" font-family="Helvetica,sans-Serif" font-size="10.00" fill="#000000">::ProcessObject * &gt;</text>
</a>
</g>
</g>
<!-- Node6&#45;&gt;Node2 -->
<g id="edge5" class="edge">
<title>Node6&#45;&gt;Node2</title>
<path fill="none" stroke="#9a32cd" stroke-dasharray="5,2" d="M299,-41.0393C299,-54.9278 299,-72.4071 299,-88 299,-249.5 299,-249.5 299,-249.5 299,-270.2335 295.7504,-276.2713 285,-294 280.7939,-300.9364 274.5163,-307.4273 268.9705,-312.4097"/>
<polygon fill="#9a32cd" stroke="#9a32cd" points="302.5001,-40.7754 299,-30.7755 295.5001,-40.7755 302.5001,-40.7754"/>
<text text-anchor="middle" x="354" y="-158" font-family="Helvetica,sans-Serif" font-size="10.00" fill="#000000"> m_ReferencedObjects</text>
</g>
<!-- Node7&#45;&gt;Node6 -->
<g id="edge6" class="edge">
<title>Node7&#45;&gt;Node6</title>
<path fill="none" stroke="#9a32cd" stroke-dasharray="5,2" d="M174.6012,-74.0644C201.06,-61.6081 239.7395,-43.3986 266.9267,-30.5995"/>
<polygon fill="#9a32cd" stroke="#9a32cd" points="173.0067,-70.9465 165.45,-78.3726 175.9883,-77.2798 173.0067,-70.9465"/>
<text text-anchor="middle" x="239.5" y="-52" font-family="Helvetica,sans-Serif" font-size="10.00" fill="#000000"> keys</text>
</g>
<!-- Node8 -->
<g id="node8" class="node">
<title>Node8</title>
<g id="a_node8"><a xlink:title=" ">
<polygon fill="#ffffff" stroke="#bfbfbf" points="51.5,-145.5 51.5,-175.5 238.5,-175.5 238.5,-145.5 51.5,-145.5"/>
<text text-anchor="start" x="59.5" y="-163.5" font-family="Helvetica,sans-Serif" font-size="10.00" fill="#000000">std::list&lt; itk::simple</text>
<text text-anchor="middle" x="145" y="-152.5" font-family="Helvetica,sans-Serif" font-size="10.00" fill="#000000">::ProcessObject::EventCommand &gt;</text>
</a>
</g>
</g>
<!-- Node8&#45;&gt;Node7 -->
<g id="edge8" class="edge">
<title>Node8&#45;&gt;Node7</title>
<path fill="none" stroke="#9a32cd" stroke-dasharray="5,2" d="M145,-135.305C145,-122.424 145,-107.4836 145,-97.8957"/>
<polygon fill="#9a32cd" stroke="#9a32cd" points="141.5001,-135.4779 145,-145.478 148.5001,-135.478 141.5001,-135.4779"/>
<text text-anchor="middle" x="182" y="-119" font-family="Helvetica,sans-Serif" font-size="10.00" fill="#000000"> m_Commands</text>
</g>
<!-- Node9&#45;&gt;Node8 -->
<g id="edge9" class="edge">
<title>Node9&#45;&gt;Node8</title>
<path fill="none" stroke="#9a32cd" stroke-dasharray="5,2" d="M201.2144,-224.1176C200.9772,-214.1352 199.2481,-202.9472 194,-194 189.6725,-186.6223 183.0004,-180.5072 175.9588,-175.6114"/>
<polygon fill="#9a32cd" stroke="#9a32cd" points="197.7109,-224.2361 200.9822,-234.3133 204.7091,-224.3956 197.7109,-224.2361"/>
<text text-anchor="middle" x="224.5" y="-202.5" font-family="Helvetica,sans-Serif" font-size="10.00" fill="#000000"> elements</text>
</g>
<!-- Node10 -->
<g id="node10" class="node">
<title>Node10</title>
<g id="a_node10"><a xlink:title="STL class.">
<polygon fill="#ffffff" stroke="#bfbfbf" points="28.5,-240 28.5,-259 109.5,-259 109.5,-240 28.5,-240"/>
<text text-anchor="middle" x="69" y="-247" font-family="Helvetica,sans-Serif" font-size="10.00" fill="#000000">std::list&lt; T &gt;</text>
</a>
</g>
</g>
<!-- Node10&#45;&gt;Node8 -->
<g id="edge11" class="edge">
<title>Node10&#45;&gt;Node8</title>
<path fill="none" stroke="#ffa500" stroke-dasharray="5,2" d="M54.0318,-231.7345C46.254,-220.2439 39.9009,-205.3656 48,-194 52.8595,-187.1806 67.2284,-180.8525 83.4682,-175.5744"/>
<polygon fill="#ffa500" stroke="#ffa500" points="51.2412,-233.8472 60.0415,-239.7469 56.8411,-229.6469 51.2412,-233.8472"/>
<text text-anchor="start" x="48" y="-208" font-family="Helvetica,sans-Serif" font-size="10.00" fill="#000000"> &lt; itk::simple::ProcessObject</text>
<text text-anchor="middle" x="119" y="-197" font-family="Helvetica,sans-Serif" font-size="10.00" fill="#000000">::EventCommand &gt;</text>
</g>
<!-- Node11 -->
<g id="node11" class="node">
<title>Node11</title>
<g id="a_node11"><a xlink:title=" ">
<polygon fill="#ffffff" stroke="#bfbfbf" points="54.5,-312.5 54.5,-331.5 83.5,-331.5 83.5,-312.5 54.5,-312.5"/>
<text text-anchor="middle" x="69" y="-319.5" font-family="Helvetica,sans-Serif" font-size="10.00" fill="#000000">T</text>
</a>
</g>
</g>
<!-- Node11&#45;&gt;Node10 -->
<g id="edge12" class="edge">
<title>Node11&#45;&gt;Node10</title>
<path fill="none" stroke="#9a32cd" stroke-dasharray="5,2" d="M69,-302.1054C69,-288.1237 69,-270.0346 69,-259.1228"/>
<polygon fill="#9a32cd" stroke="#9a32cd" points="65.5001,-302.2223 69,-312.2223 72.5001,-302.2224 65.5001,-302.2223"/>
<text text-anchor="middle" x="93.5" y="-286" font-family="Helvetica,sans-Serif" font-size="10.00" fill="#000000"> elements</text>
</g>
<!-- Node12 -->
<g id="node12" class="node">
<title>Node12</title>
<g id="a_node12"><a xlink:title="STL class.">
<polygon fill="#ffffff" stroke="#bfbfbf" points="374,-78.5 374,-97.5 456,-97.5 456,-78.5 374,-78.5"/>
<text text-anchor="middle" x="415" y="-85.5" font-family="Helvetica,sans-Serif" font-size="10.00" fill="#000000">std::set&lt; K &gt;</text>
</a>
</g>
</g>
<!-- Node12&#45;&gt;Node6 -->
<g id="edge13" class="edge">
<title>Node12&#45;&gt;Node6</title>
<path fill="none" stroke="#ffa500" stroke-dasharray="5,2" d="M390.613,-72.7581C370.8142,-60.3839 343.0358,-43.0224 323.2688,-30.668"/>
<polygon fill="#ffa500" stroke="#ffa500" points="389.0207,-75.8903 399.3557,-78.2223 392.7307,-69.9543 389.0207,-75.8903"/>
<text text-anchor="middle" x="447.5" y="-52" font-family="Helvetica,sans-Serif" font-size="10.00" fill="#000000"> &lt; itk::simple::ProcessObject * &gt;</text>
</g>
<!-- Node13 -->
<g id="node13" class="node">
<title>Node13</title>
<g id="a_node13"><a xlink:title=" ">
<polygon fill="#ffffff" stroke="#bfbfbf" points="427.5,-151 427.5,-170 456.5,-170 456.5,-151 427.5,-151"/>
<text text-anchor="middle" x="442" y="-158" font-family="Helvetica,sans-Serif" font-size="10.00" fill="#000000">K</text>
</a>
</g>
</g>
<!-- Node13&#45;&gt;Node12 -->
<g id="edge14" class="edge">
<title>Node13&#45;&gt;Node12</title>
<path fill="none" stroke="#9a32cd" stroke-dasharray="5,2" d="M434.7452,-141.0195C429.5176,-126.9826 422.6876,-108.6427 418.5836,-97.6228"/>
<polygon fill="#9a32cd" stroke="#9a32cd" points="431.5887,-142.5726 438.3587,-150.7223 438.1486,-140.1296 431.5887,-142.5726"/>
<text text-anchor="middle" x="442.5" y="-119" font-family="Helvetica,sans-Serif" font-size="10.00" fill="#000000"> keys</text>
</g>
</g>
</svg>
        <g id="navigator" transform="translate(0 0)" fill="#404254">
                <rect fill="#f2f5e9" fill-opacity="0.5" stroke="#606060" stroke-width=".5" x="0" y="0" width="60" height="60"/>
                <use id="zoomplus" xlink:href="#zoomPlus" x="17" y="9" onmousedown="handleZoom(evt,'in')"/>
                <use id="zoomminus" xlink:href="#zoomMin" x="42" y="9" onmousedown="handleZoom(evt,'out')"/>
                <use id="reset" xlink:href="#resetDef" x="30" y="36" onmousedown="handleReset()"/>
                <g id="arrowUp" xlink:href="#dirArrow" transform="translate(30 24)" onmousedown="handlePan(0,-1)">
                  <use xlink:href="#rim" fill="#404040">
                        <set attributeName="fill" to="#808080" begin="arrowUp.mouseover" end="arrowUp.mouseout"/>
                  </use>
                  <path fill="none" stroke="white" stroke-width="1.5" d="M0,-3.0v7 M-2.5,-0.5L0,-3.0L2.5,-0.5"/>
                </g>
                <g id="arrowRight" xlink:href="#dirArrow" transform="rotate(90) translate(36 -43)" onmousedown="handlePan(1,0)">
                  <use xlink:href="#rim" fill="#404040">
                        <set attributeName="fill" to="#808080" begin="arrowRight.mouseover" end="arrowRight.mouseout"/>
                  </use>
                  <path fill="none" stroke="white" stroke-width="1.5" d="M0,-3.0v7 M-2.5,-0.5L0,-3.0L2.5,-0.5"/>
                </g>
                <g id="arrowDown" xlink:href="#dirArrow" transform="rotate(180) translate(-30 -48)" onmousedown="handlePan(0,1)">
                  <use xlink:href="#rim" fill="#404040">
                        <set attributeName="fill" to="#808080" begin="arrowDown.mouseover" end="arrowDown.mouseout"/>
                  </use>
                  <path fill="none" stroke="white" stroke-width="1.5" d="M0,-3.0v7 M-2.5,-0.5L0,-3.0L2.5,-0.5"/>
                </g>
                <g id="arrowLeft" xlink:href="#dirArrow" transform="rotate(270) translate(-36 17)" onmousedown="handlePan(-1,0)">
                  <use xlink:href="#rim" fill="#404040">
                        <set attributeName="fill" to="#808080" begin="arrowLeft.mouseover" end="arrowLeft.mouseout"/>
                  </use>
                  <path fill="none" stroke="white" stroke-width="1.5" d="M0,-3.0v7 M-2.5,-0.5L0,-3.0L2.5,-0.5"/>
                </g>
        </g>
        <svg viewBox="0 0 15 15" width="100%" height="30px" preserveAspectRatio="xMaxYMin meet">
         <g id="arrow_out" transform="scale(0.3 0.3)">
          <a xlink:href="classitk_1_1simple_1_1FunctionCommand__coll__graph_org.svg" target="_base">
           <rect id="button" ry="5" rx="5" y="6" x="6" height="38" width="38"
                fill="#f2f5e9" fill-opacity="0.5" stroke="#606060" stroke-width="1.0"/>
           <path id="arrow"
             d="M 11.500037,31.436501 C 11.940474,20.09759 22.043105,11.32322 32.158766,21.979434 L 37.068811,17.246167 C 37.068811,17.246167 37.088388,32 37.088388,32 L 22.160133,31.978069 C 22.160133,31.978069 26.997745,27.140456 26.997745,27.140456 C 18.528582,18.264221 13.291696,25.230495 11.500037,31.436501 z"
             style="fill:#404040;"/>
          </a>
         </g>
        </svg>
</svg>
