<?xml version="1.0" encoding="UTF-8" standalone="no"?>
<!DOCTYPE svg PUBLIC "-//W3C//DTD SVG 1.1//EN"
 "http://www.w3.org/Graphics/SVG/1.1/DTD/svg11.dtd">
<!-- Generated by graphviz version 2.40.1 (20161225.0304)
 -->
<!-- Title: itk::simple::ImageRegistrationMethod Pages: 1 -->
<svg width="2595pt" height="649pt"
 viewBox="0.00 0.00 2595.00 649.00" xmlns="http://www.w3.org/2000/svg" xmlns:xlink="http://www.w3.org/1999/xlink">
<g id="graph0" class="graph" transform="scale(1 1) rotate(0) translate(4 645)">
<title>itk::simple::ImageRegistrationMethod</title>
<polygon fill="#ffffff" stroke="transparent" points="-4,4 -4,-645 2591,-645 2591,4 -4,4"/>
<!-- Node1 -->
<g id="node1" class="node">
<title>Node1</title>
<g id="a_node1"><a xlink:title="An interface method to the modular ITKv4 registration framework.">
<polygon fill="#bfbfbf" stroke="#000000" points="1903,-276 1903,-306 2067,-306 2067,-276 1903,-276"/>
<text text-anchor="start" x="1911" y="-294" font-family="Helvetica,sans-Serif" font-size="10.00" fill="#000000">itk::simple::ImageRegistration</text>
<text text-anchor="middle" x="1985" y="-283" font-family="Helvetica,sans-Serif" font-size="10.00" fill="#000000">Method</text>
</a>
</g>
</g>
<!-- Node2 -->
<g id="node2" class="node">
<title>Node2</title>
<g id="a_node2"><a xlink:href="classitk_1_1simple_1_1ProcessObject.html" target="_top" xlink:title="Base class for SimpleITK classes based on ProcessObject.">
<polygon fill="#ffffff" stroke="#000000" points="1085,-565.5 1085,-584.5 1228,-584.5 1228,-565.5 1085,-565.5"/>
<text text-anchor="middle" x="1156.5" y="-572.5" font-family="Helvetica,sans-Serif" font-size="10.00" fill="#000000">itk::simple::ProcessObject</text>
</a>
</g>
</g>
<!-- Node2&#45;&gt;Node1 -->
<g id="edge1" class="edge">
<title>Node2&#45;&gt;Node1</title>
<path fill="none" stroke="#191970" d="M1238.3837,-569.7298C1417.6404,-557.5683 1833.0038,-525.7539 1885,-489 1949.467,-443.4311 1974.8111,-343.876 1982.3506,-306.0181"/>
<polygon fill="#191970" stroke="#191970" points="1237.9572,-566.2505 1228.2155,-570.4157 1238.4284,-573.2346 1237.9572,-566.2505"/>
</g>
<!-- Node9 -->
<g id="node9" class="node">
<title>Node9</title>
<g id="a_node9"><a xlink:title=" ">
<polygon fill="#ffffff" stroke="#bfbfbf" points="1531.5,-571 1531.5,-601 1647.5,-601 1647.5,-571 1531.5,-571"/>
<text text-anchor="start" x="1539.5" y="-589" font-family="Helvetica,sans-Serif" font-size="10.00" fill="#000000">std::set&lt; itk::simple</text>
<text text-anchor="middle" x="1589.5" y="-578" font-family="Helvetica,sans-Serif" font-size="10.00" fill="#000000">::ProcessObject * &gt;</text>
</a>
</g>
</g>
<!-- Node2&#45;&gt;Node9 -->
<g id="edge10" class="edge">
<title>Node2&#45;&gt;Node9</title>
<path fill="none" stroke="#9a32cd" stroke-dasharray="5,2" d="M1238.1969,-577.0754C1323.7556,-579.249 1455.9653,-582.6077 1531.4303,-584.5248"/>
<polygon fill="#9a32cd" stroke="#9a32cd" points="1238.0868,-573.5716 1228.0011,-576.8164 1237.909,-580.5694 1238.0868,-573.5716"/>
<text text-anchor="middle" x="1366" y="-585" font-family="Helvetica,sans-Serif" font-size="10.00" fill="#000000"> keys</text>
</g>
<!-- Node3 -->
<g id="node3" class="node">
<title>Node3</title>
<g id="a_node3"><a xlink:href="classitk_1_1simple_1_1NonCopyable.html" target="_top" xlink:title="An inheritable class to disable copying of a class.">
<polygon fill="#ffffff" stroke="#000000" points="731,-530.5 731,-549.5 871,-549.5 871,-530.5 731,-530.5"/>
<text text-anchor="middle" x="801" y="-537.5" font-family="Helvetica,sans-Serif" font-size="10.00" fill="#000000">itk::simple::NonCopyable</text>
</a>
</g>
</g>
<!-- Node3&#45;&gt;Node2 -->
<g id="edge2" class="edge">
<title>Node3&#45;&gt;Node2</title>
<path fill="none" stroke="#006400" d="M881.2389,-547.8998C942.4283,-553.924 1025.9437,-562.1464 1084.8884,-567.9496"/>
<polygon fill="#006400" stroke="#006400" points="881.5302,-544.4116 871.2354,-546.9149 880.8443,-551.3779 881.5302,-544.4116"/>
</g>
<!-- Node6 -->
<g id="node6" class="node">
<title>Node6</title>
<g id="a_node6"><a xlink:href="classitk_1_1simple_1_1Command.html" target="_top" xlink:title="An implementation of the Command design pattern for callback.">
<polygon fill="#ffffff" stroke="#000000" points="1922.5,-489.5 1922.5,-508.5 2047.5,-508.5 2047.5,-489.5 1922.5,-489.5"/>
<text text-anchor="middle" x="1985" y="-496.5" font-family="Helvetica,sans-Serif" font-size="10.00" fill="#000000">itk::simple::Command</text>
</a>
</g>
</g>
<!-- Node3&#45;&gt;Node6 -->
<g id="edge6" class="edge">
<title>Node3&#45;&gt;Node6</title>
<path fill="none" stroke="#006400" d="M881.4315,-534.5176C975.8652,-528.292 1137.2339,-518.3121 1276,-513 1514.6669,-503.8636 1798.7686,-500.5346 1922.3815,-499.4581"/>
<polygon fill="#006400" stroke="#006400" points="881.1268,-531.03 871.3798,-535.1828 881.5891,-538.0148 881.1268,-531.03"/>
</g>
<!-- Node4 -->
<g id="node4" class="node">
<title>Node4</title>
<g id="a_node4"><a xlink:title=" ">
<polygon fill="#ffffff" stroke="#bfbfbf" points="2400,-484 2400,-514 2587,-514 2587,-484 2400,-484"/>
<text text-anchor="start" x="2408" y="-502" font-family="Helvetica,sans-Serif" font-size="10.00" fill="#000000">std::list&lt; itk::simple</text>
<text text-anchor="middle" x="2493.5" y="-491" font-family="Helvetica,sans-Serif" font-size="10.00" fill="#000000">::ProcessObject::EventCommand &gt;</text>
</a>
</g>
</g>
<!-- Node4&#45;&gt;Node2 -->
<g id="edge3" class="edge">
<title>Node4&#45;&gt;Node2</title>
<path fill="none" stroke="#9a32cd" stroke-dasharray="5,2" d="M2470.6306,-520.7675C2428.9911,-558.0146 2336.488,-630 2243.5,-630 1589.5,-630 1589.5,-630 1589.5,-630 1446.8486,-630 1279.8538,-600.2592 1201.4551,-584.5175"/>
<polygon fill="#9a32cd" stroke="#9a32cd" points="2472.9958,-523.3475 2478.0342,-514.0274 2468.2833,-518.1713 2472.9958,-523.3475"/>
<text text-anchor="middle" x="1985" y="-633" font-family="Helvetica,sans-Serif" font-size="10.00" fill="#000000"> m_Commands</text>
</g>
<!-- Node5 -->
<g id="node5" class="node">
<title>Node5</title>
<g id="a_node5"><a xlink:href="structitk_1_1simple_1_1ProcessObject_1_1EventCommand.html" target="_top" xlink:title=" ">
<polygon fill="#ffffff" stroke="#000000" points="2172,-484 2172,-514 2315,-514 2315,-484 2172,-484"/>
<text text-anchor="start" x="2180" y="-502" font-family="Helvetica,sans-Serif" font-size="10.00" fill="#000000">itk::simple::ProcessObject</text>
<text text-anchor="middle" x="2243.5" y="-491" font-family="Helvetica,sans-Serif" font-size="10.00" fill="#000000">::EventCommand</text>
</a>
</g>
</g>
<!-- Node5&#45;&gt;Node4 -->
<g id="edge4" class="edge">
<title>Node5&#45;&gt;Node4</title>
<path fill="none" stroke="#9a32cd" stroke-dasharray="5,2" d="M2325.2129,-499C2349.0878,-499 2375.3664,-499 2399.9162,-499"/>
<polygon fill="#9a32cd" stroke="#9a32cd" points="2325.14,-495.5001 2315.14,-499 2325.1399,-502.5001 2325.14,-495.5001"/>
<text text-anchor="middle" x="2357.5" y="-502" font-family="Helvetica,sans-Serif" font-size="10.00" fill="#000000"> elements</text>
</g>
<!-- Node6&#45;&gt;Node5 -->
<g id="edge5" class="edge">
<title>Node6&#45;&gt;Node5</title>
<path fill="none" stroke="#9a32cd" stroke-dasharray="5,2" d="M2057.9202,-499C2093.6018,-499 2136.4039,-499 2171.9063,-499"/>
<polygon fill="#9a32cd" stroke="#9a32cd" points="2057.5757,-495.5001 2047.5756,-499 2057.5756,-502.5001 2057.5757,-495.5001"/>
<text text-anchor="middle" x="2119.5" y="-502" font-family="Helvetica,sans-Serif" font-size="10.00" fill="#000000"> m_Command</text>
</g>
<!-- Node7 -->
<g id="node7" class="node">
<title>Node7</title>
<g id="a_node7"><a xlink:title="STL class.">
<polygon fill="#ffffff" stroke="#bfbfbf" points="1557,-429.5 1557,-448.5 1622,-448.5 1622,-429.5 1557,-429.5"/>
<text text-anchor="middle" x="1589.5" y="-436.5" font-family="Helvetica,sans-Serif" font-size="10.00" fill="#000000">std::string</text>
</a>
</g>
</g>
<!-- Node7&#45;&gt;Node1 -->
<g id="edge31" class="edge">
<title>Node7&#45;&gt;Node1</title>
<path fill="none" stroke="#9a32cd" stroke-dasharray="5,2" d="M1632.6106,-439.0761C1703.7999,-438.5428 1842.315,-434.5285 1885,-412 1930.7931,-387.8311 1963.6963,-332.886 1977.6183,-306.1614"/>
<polygon fill="#9a32cd" stroke="#9a32cd" points="1632.1823,-435.5783 1622.2015,-439.1328 1632.2205,-442.5782 1632.1823,-435.5783"/>
<text text-anchor="middle" x="1804" y="-439" font-family="Helvetica,sans-Serif" font-size="10.00" fill="#000000"> m_StopConditionDescription</text>
</g>
<!-- Node7&#45;&gt;Node6 -->
<g id="edge7" class="edge">
<title>Node7&#45;&gt;Node6</title>
<path fill="none" stroke="#9a32cd" stroke-dasharray="5,2" d="M1632.2569,-442.3469C1689.9519,-447.2536 1795.787,-457.6335 1885,-474 1907.3541,-478.101 1932.1397,-484.2857 1951.4427,-489.4775"/>
<polygon fill="#9a32cd" stroke="#9a32cd" points="1632.316,-438.8397 1622.0591,-441.4942 1631.7326,-445.8154 1632.316,-438.8397"/>
<text text-anchor="middle" x="1804" y="-477" font-family="Helvetica,sans-Serif" font-size="10.00" fill="#000000"> m_Name</text>
</g>
<!-- Node8 -->
<g id="node8" class="node">
<title>Node8</title>
<g id="a_node8"><a xlink:title="STL class.">
<polygon fill="#ffffff" stroke="#bfbfbf" points="1104.5,-424 1104.5,-454 1208.5,-454 1208.5,-424 1104.5,-424"/>
<text text-anchor="start" x="1112.5" y="-442" font-family="Helvetica,sans-Serif" font-size="10.00" fill="#000000">std::basic_string&lt;</text>
<text text-anchor="middle" x="1156.5" y="-431" font-family="Helvetica,sans-Serif" font-size="10.00" fill="#000000"> char &gt;</text>
</a>
</g>
</g>
<!-- Node8&#45;&gt;Node7 -->
<g id="edge8" class="edge">
<title>Node8&#45;&gt;Node7</title>
<path fill="none" stroke="#191970" d="M1218.8853,-439C1312.2469,-439 1485.0097,-439 1556.8465,-439"/>
<polygon fill="#191970" stroke="#191970" points="1218.73,-435.5001 1208.7299,-439 1218.7299,-442.5001 1218.73,-435.5001"/>
</g>
<!-- Node9&#45;&gt;Node6 -->
<g id="edge9" class="edge">
<title>Node9&#45;&gt;Node6</title>
<path fill="none" stroke="#9a32cd" stroke-dasharray="5,2" d="M1657.8532,-587.0158C1718.8149,-586.0711 1809.7869,-580.0615 1885,-556 1918.879,-545.1617 1953.991,-521.8382 1972.2422,-508.6317"/>
<polygon fill="#9a32cd" stroke="#9a32cd" points="1657.5432,-583.519 1647.5832,-587.1314 1657.622,-590.5185 1657.5432,-583.519"/>
<text text-anchor="middle" x="1804" y="-586" font-family="Helvetica,sans-Serif" font-size="10.00" fill="#000000"> m_ReferencedObjects</text>
</g>
<!-- Node10 -->
<g id="node10" class="node">
<title>Node10</title>
<g id="a_node10"><a xlink:title="STL class.">
<polygon fill="#ffffff" stroke="#bfbfbf" points="1115.5,-473.5 1115.5,-492.5 1197.5,-492.5 1197.5,-473.5 1115.5,-473.5"/>
<text text-anchor="middle" x="1156.5" y="-480.5" font-family="Helvetica,sans-Serif" font-size="10.00" fill="#000000">std::set&lt; K &gt;</text>
</a>
</g>
</g>
<!-- Node10&#45;&gt;Node9 -->
<g id="edge11" class="edge">
<title>Node10&#45;&gt;Node9</title>
<path fill="none" stroke="#ffa500" stroke-dasharray="5,2" d="M1206.3653,-494.8617C1286.9944,-514.0414 1445.5877,-551.7668 1531.2723,-572.1491"/>
<polygon fill="#ffa500" stroke="#ffa500" points="1206.998,-491.4146 1196.4595,-492.5054 1205.378,-498.2246 1206.998,-491.4146"/>
<text text-anchor="middle" x="1366" y="-555" font-family="Helvetica,sans-Serif" font-size="10.00" fill="#000000"> &lt; itk::simple::ProcessObject * &gt;</text>
</g>
<!-- Node11 -->
<g id="node11" class="node">
<title>Node11</title>
<g id="a_node11"><a xlink:title=" ">
<polygon fill="#ffffff" stroke="#bfbfbf" points="786.5,-473.5 786.5,-492.5 815.5,-492.5 815.5,-473.5 786.5,-473.5"/>
<text text-anchor="middle" x="801" y="-480.5" font-family="Helvetica,sans-Serif" font-size="10.00" fill="#000000">K</text>
</a>
</g>
</g>
<!-- Node11&#45;&gt;Node10 -->
<g id="edge12" class="edge">
<title>Node11&#45;&gt;Node10</title>
<path fill="none" stroke="#9a32cd" stroke-dasharray="5,2" d="M825.9624,-483C886.3454,-483 1040.7947,-483 1115.2037,-483"/>
<polygon fill="#9a32cd" stroke="#9a32cd" points="825.8228,-479.5001 815.8228,-483 825.8228,-486.5001 825.8228,-479.5001"/>
<text text-anchor="middle" x="968" y="-486" font-family="Helvetica,sans-Serif" font-size="10.00" fill="#000000"> keys</text>
</g>
<!-- Node12 -->
<g id="node12" class="node">
<title>Node12</title>
<g id="a_node12"><a xlink:title="STL class.">
<polygon fill="#ffffff" stroke="#bfbfbf" points="1325.5,-.5 1325.5,-19.5 1406.5,-19.5 1406.5,-.5 1325.5,-.5"/>
<text text-anchor="middle" x="1366" y="-7.5" font-family="Helvetica,sans-Serif" font-size="10.00" fill="#000000">std::list&lt; T &gt;</text>
</a>
</g>
</g>
<!-- Node12&#45;&gt;Node4 -->
<g id="edge13" class="edge">
<title>Node12&#45;&gt;Node4</title>
<path fill="none" stroke="#ffa500" stroke-dasharray="5,2" d="M1416.7612,-9.2357C1498.3676,-8.0746 1663.8001,-6 1804,-6 1804,-6 1804,-6 2243.5,-6 2463.5023,-6 2489.9606,-401.3536 2493.0879,-483.9763"/>
<polygon fill="#ffa500" stroke="#ffa500" points="1416.7075,-5.736 1406.7589,-9.3794 1416.8082,-12.7353 1416.7075,-5.736"/>
<text text-anchor="start" x="1914" y="-20" font-family="Helvetica,sans-Serif" font-size="10.00" fill="#000000"> &lt; itk::simple::ProcessObject</text>
<text text-anchor="middle" x="1985" y="-9" font-family="Helvetica,sans-Serif" font-size="10.00" fill="#000000">::EventCommand &gt;</text>
</g>
<!-- Node13 -->
<g id="node13" class="node">
<title>Node13</title>
<g id="a_node13"><a xlink:title=" ">
<polygon fill="#ffffff" stroke="#bfbfbf" points="786.5,-79.5 786.5,-98.5 815.5,-98.5 815.5,-79.5 786.5,-79.5"/>
<text text-anchor="middle" x="801" y="-86.5" font-family="Helvetica,sans-Serif" font-size="10.00" fill="#000000">T</text>
</a>
</g>
</g>
<!-- Node13&#45;&gt;Node12 -->
<g id="edge14" class="edge">
<title>Node13&#45;&gt;Node12</title>
<path fill="none" stroke="#9a32cd" stroke-dasharray="5,2" d="M825.6275,-85.1211C845.4368,-82.0274 873.9923,-77.6272 899,-74 1056.5192,-51.1528 1244.2559,-26.079 1325.3667,-15.3504"/>
<polygon fill="#9a32cd" stroke="#9a32cd" points="824.9379,-81.6863 815.6002,-86.6921 826.0215,-88.602 824.9379,-81.6863"/>
<text text-anchor="middle" x="968" y="-77" font-family="Helvetica,sans-Serif" font-size="10.00" fill="#000000"> elements</text>
</g>
<!-- Node22 -->
<g id="node22" class="node">
<title>Node22</title>
<g id="a_node22"><a xlink:title="STL class.">
<polygon fill="#ffffff" stroke="#bfbfbf" points="1097.5,-244.5 1097.5,-263.5 1215.5,-263.5 1215.5,-244.5 1097.5,-244.5"/>
<text text-anchor="middle" x="1156.5" y="-251.5" font-family="Helvetica,sans-Serif" font-size="10.00" fill="#000000">std::unique_ptr&lt; T &gt;</text>
</a>
</g>
</g>
<!-- Node13&#45;&gt;Node22 -->
<g id="edge25" class="edge">
<title>Node13&#45;&gt;Node22</title>
<path fill="none" stroke="#9a32cd" stroke-dasharray="5,2" d="M822.3309,-104.636C864.512,-134.7644 962.527,-200.8913 1055,-235 1068.3718,-239.9322 1083.2271,-243.6334 1097.3549,-246.3925"/>
<polygon fill="#9a32cd" stroke="#9a32cd" points="824.131,-101.6191 813.9718,-98.6123 820.0385,-107.2982 824.131,-101.6191"/>
<text text-anchor="middle" x="968" y="-229" font-family="Helvetica,sans-Serif" font-size="10.00" fill="#000000"> ptr</text>
</g>
<!-- Node24 -->
<g id="node24" class="node">
<title>Node24</title>
<g id="a_node24"><a xlink:title="STL class.">
<polygon fill="#ffffff" stroke="#bfbfbf" points="1108,-79.5 1108,-98.5 1205,-98.5 1205,-79.5 1108,-79.5"/>
<text text-anchor="middle" x="1156.5" y="-86.5" font-family="Helvetica,sans-Serif" font-size="10.00" fill="#000000">std::vector&lt; T &gt;</text>
</a>
</g>
</g>
<!-- Node13&#45;&gt;Node24 -->
<g id="edge28" class="edge">
<title>Node13&#45;&gt;Node24</title>
<path fill="none" stroke="#9a32cd" stroke-dasharray="5,2" d="M825.9929,-89C884.4953,-89 1031.1759,-89 1107.943,-89"/>
<polygon fill="#9a32cd" stroke="#9a32cd" points="825.8228,-85.5001 815.8228,-89 825.8228,-92.5001 825.8228,-85.5001"/>
<text text-anchor="middle" x="968" y="-92" font-family="Helvetica,sans-Serif" font-size="10.00" fill="#000000"> elements</text>
</g>
<!-- Node14 -->
<g id="node14" class="node">
<title>Node14</title>
<g id="a_node14"><a xlink:href="classitk_1_1ObjectToObjectOptimizerBaseTemplate.html" target="_top" xlink:title=" ">
<polygon fill="#ffffff" stroke="#000000" points="1511,-211 1511,-241 1668,-241 1668,-211 1511,-211"/>
<text text-anchor="start" x="1519" y="-229" font-family="Helvetica,sans-Serif" font-size="10.00" fill="#000000">itk::ObjectToObjectOptimizer</text>
<text text-anchor="middle" x="1589.5" y="-218" font-family="Helvetica,sans-Serif" font-size="10.00" fill="#000000">BaseTemplate&lt; double &gt;</text>
</a>
</g>
</g>
<!-- Node14&#45;&gt;Node1 -->
<g id="edge15" class="edge">
<title>Node14&#45;&gt;Node1</title>
<path fill="none" stroke="#9a32cd" stroke-dasharray="5,2" d="M1671.9233,-242.9013C1688.7855,-246.1197 1706.4382,-249.3166 1723,-252 1794.6678,-263.612 1813.2513,-261.8991 1885,-273 1891.0143,-273.9305 1897.2237,-274.9372 1903.4664,-275.9825"/>
<polygon fill="#9a32cd" stroke="#9a32cd" points="1672.5825,-239.464 1662.1008,-241.0075 1671.2573,-246.3374 1672.5825,-239.464"/>
<text text-anchor="middle" x="1804" y="-276" font-family="Helvetica,sans-Serif" font-size="10.00" fill="#000000"> m_ActiveOptimizer</text>
</g>
<!-- Node15 -->
<g id="node15" class="node">
<title>Node15</title>
<g id="a_node15"><a xlink:href="classitk_1_1ObjectToObjectOptimizerBaseTemplate.html" target="_top" xlink:title=" ">
<polygon fill="#ffffff" stroke="#000000" points="1055,-184.5 1055,-225.5 1258,-225.5 1258,-184.5 1055,-184.5"/>
<text text-anchor="start" x="1063" y="-213.5" font-family="Helvetica,sans-Serif" font-size="10.00" fill="#000000">itk::ObjectToObjectOptimizer</text>
<text text-anchor="start" x="1063" y="-202.5" font-family="Helvetica,sans-Serif" font-size="10.00" fill="#000000">BaseTemplate&lt; TInternalComputation</text>
<text text-anchor="middle" x="1156.5" y="-191.5" font-family="Helvetica,sans-Serif" font-size="10.00" fill="#000000">ValueType &gt;</text>
</a>
</g>
</g>
<!-- Node15&#45;&gt;Node14 -->
<g id="edge16" class="edge">
<title>Node15&#45;&gt;Node14</title>
<path fill="none" stroke="#ffa500" stroke-dasharray="5,2" d="M1268.2005,-201.526C1324.5859,-200.7489 1394.0066,-201.278 1456,-206 1473.7597,-207.3528 1492.7406,-209.665 1510.6523,-212.2478"/>
<polygon fill="#ffa500" stroke="#ffa500" points="1268.1346,-198.0265 1258.1895,-201.6795 1268.242,-205.0257 1268.1346,-198.0265"/>
<text text-anchor="middle" x="1366" y="-209" font-family="Helvetica,sans-Serif" font-size="10.00" fill="#000000"> &lt; double &gt;</text>
</g>
<!-- Node16 -->
<g id="node16" class="node">
<title>Node16</title>
<g id="a_node16"><a xlink:title=" ">
<polygon fill="#ffffff" stroke="#bfbfbf" points="1495.5,-261.5 1495.5,-302.5 1683.5,-302.5 1683.5,-261.5 1495.5,-261.5"/>
<text text-anchor="start" x="1503.5" y="-290.5" font-family="Helvetica,sans-Serif" font-size="10.00" fill="#000000">std::unique_ptr&lt; itk</text>
<text text-anchor="start" x="1503.5" y="-279.5" font-family="Helvetica,sans-Serif" font-size="10.00" fill="#000000">::simple::detail::MemberFunction</text>
<text text-anchor="middle" x="1589.5" y="-268.5" font-family="Helvetica,sans-Serif" font-size="10.00" fill="#000000">Factory&lt; MemberFunctionType &gt; &gt;</text>
</a>
</g>
</g>
<!-- Node16&#45;&gt;Node1 -->
<g id="edge17" class="edge">
<title>Node16&#45;&gt;Node1</title>
<path fill="none" stroke="#9a32cd" stroke-dasharray="5,2" d="M1693.8435,-285.2355C1703.6986,-285.5082 1713.5376,-285.768 1723,-286 1783.262,-287.4778 1851.3298,-288.7653 1902.9798,-289.6636"/>
<polygon fill="#9a32cd" stroke="#9a32cd" points="1693.6773,-281.7295 1683.5829,-284.9472 1693.4806,-288.7268 1693.6773,-281.7295"/>
<text text-anchor="middle" x="1804" y="-292" font-family="Helvetica,sans-Serif" font-size="10.00" fill="#000000"> m_MemberFactory</text>
</g>
<!-- Node17 -->
<g id="node17" class="node">
<title>Node17</title>
<g id="a_node17"><a xlink:href="classitk_1_1simple_1_1detail_1_1MemberFunctionFactory.html" target="_top" xlink:title=" ">
<polygon fill="#ffffff" stroke="#000000" points="1085.5,-303.5 1085.5,-344.5 1227.5,-344.5 1227.5,-303.5 1085.5,-303.5"/>
<text text-anchor="start" x="1093.5" y="-332.5" font-family="Helvetica,sans-Serif" font-size="10.00" fill="#000000">itk::simple::detail</text>
<text text-anchor="start" x="1093.5" y="-321.5" font-family="Helvetica,sans-Serif" font-size="10.00" fill="#000000">::MemberFunctionFactory</text>
<text text-anchor="middle" x="1156.5" y="-310.5" font-family="Helvetica,sans-Serif" font-size="10.00" fill="#000000">&lt; MemberFunctionType &gt;</text>
</a>
</g>
</g>
<!-- Node17&#45;&gt;Node16 -->
<g id="edge18" class="edge">
<title>Node17&#45;&gt;Node16</title>
<path fill="none" stroke="#9a32cd" stroke-dasharray="5,2" d="M1237.769,-341.8275C1299.7998,-351.5937 1386.1913,-356.7544 1456,-329 1466.2254,-324.9346 1464.3722,-317.3284 1474,-312 1480.7068,-308.2882 1487.8877,-305.0226 1495.2654,-302.1519"/>
<polygon fill="#9a32cd" stroke="#9a32cd" points="1238.0789,-338.3315 1227.6428,-340.1585 1236.9405,-345.2383 1238.0789,-338.3315"/>
<text text-anchor="middle" x="1366" y="-352" font-family="Helvetica,sans-Serif" font-size="10.00" fill="#000000"> ptr</text>
</g>
<!-- Node18 -->
<g id="node18" class="node">
<title>Node18</title>
<g id="a_node18"><a xlink:href="classitk_1_1simple_1_1detail_1_1MemberFunctionFactoryBase.html" target="_top" xlink:title=" ">
<polygon fill="#ffffff" stroke="#000000" points="534,-274 534,-326 696,-326 696,-274 534,-274"/>
<text text-anchor="start" x="542" y="-314" font-family="Helvetica,sans-Serif" font-size="10.00" fill="#000000">itk::simple::detail</text>
<text text-anchor="start" x="542" y="-303" font-family="Helvetica,sans-Serif" font-size="10.00" fill="#000000">::MemberFunctionFactoryBase</text>
<text text-anchor="start" x="542" y="-292" font-family="Helvetica,sans-Serif" font-size="10.00" fill="#000000">&lt; MemberFunctionType, std</text>
<text text-anchor="middle" x="615" y="-281" font-family="Helvetica,sans-Serif" font-size="10.00" fill="#000000">::pair&lt; unsigned int, int &gt; &gt;</text>
</a>
</g>
</g>
<!-- Node18&#45;&gt;Node17 -->
<g id="edge19" class="edge">
<title>Node18&#45;&gt;Node17</title>
<path fill="none" stroke="#006400" d="M706.1922,-304.0418C813.0507,-308.7779 987.858,-316.5256 1085.2604,-320.8426"/>
<polygon fill="#006400" stroke="#006400" points="706.2132,-300.5393 696.068,-303.593 705.9032,-307.5325 706.2132,-300.5393"/>
</g>
<!-- Node19 -->
<g id="node19" class="node">
<title>Node19</title>
<g id="a_node19"><a xlink:href="classitk_1_1simple_1_1detail_1_1MemberFunctionFactoryBase.html" target="_top" xlink:title="A base class for the MemberFunctionFactory.">
<polygon fill="#ffffff" stroke="#000000" points="0,-341 0,-371 162,-371 162,-341 0,-341"/>
<text text-anchor="start" x="8" y="-359" font-family="Helvetica,sans-Serif" font-size="10.00" fill="#000000">itk::simple::detail</text>
<text text-anchor="middle" x="81" y="-348" font-family="Helvetica,sans-Serif" font-size="10.00" fill="#000000">::MemberFunctionFactoryBase</text>
</a>
</g>
</g>
<!-- Node19&#45;&gt;Node18 -->
<g id="edge20" class="edge">
<title>Node19&#45;&gt;Node18</title>
<path fill="none" stroke="#ffa500" stroke-dasharray="5,2" d="M122.9443,-336.9954C140.2496,-330.0397 160.7328,-322.9188 180,-319 301.4849,-294.2907 445.8414,-293.4426 533.9079,-296.0242"/>
<polygon fill="#ffa500" stroke="#ffa500" points="121.5905,-333.7677 113.685,-340.8213 124.2637,-340.2371 121.5905,-333.7677"/>
<text text-anchor="start" x="189" y="-344" font-family="Helvetica,sans-Serif" font-size="10.00" fill="#000000"> &lt; MemberFunctionType,</text>
<text text-anchor="start" x="189" y="-333" font-family="Helvetica,sans-Serif" font-size="10.00" fill="#000000"> std::pair&lt; unsigned</text>
<text text-anchor="middle" x="249.5" y="-322" font-family="Helvetica,sans-Serif" font-size="10.00" fill="#000000"> int, int &gt; &gt;</text>
</g>
<!-- Node21 -->
<g id="node21" class="node">
<title>Node21</title>
<g id="a_node21"><a xlink:href="classitk_1_1simple_1_1detail_1_1MemberFunctionFactoryBase.html" target="_top" xlink:title=" ">
<polygon fill="#ffffff" stroke="#000000" points="337,-330 337,-382 509,-382 509,-330 337,-330"/>
<text text-anchor="start" x="345" y="-370" font-family="Helvetica,sans-Serif" font-size="10.00" fill="#000000">itk::simple::detail</text>
<text text-anchor="start" x="345" y="-359" font-family="Helvetica,sans-Serif" font-size="10.00" fill="#000000">::MemberFunctionFactoryBase</text>
<text text-anchor="start" x="345" y="-348" font-family="Helvetica,sans-Serif" font-size="10.00" fill="#000000">&lt; TMemberFunctionPointer,</text>
<text text-anchor="middle" x="423" y="-337" font-family="Helvetica,sans-Serif" font-size="10.00" fill="#000000"> std::pair&lt; unsigned int, int &gt; &gt;</text>
</a>
</g>
</g>
<!-- Node19&#45;&gt;Node21 -->
<g id="edge23" class="edge">
<title>Node19&#45;&gt;Node21</title>
<path fill="none" stroke="#ffa500" stroke-dasharray="5,2" d="M172.0982,-356C223.1995,-356 286.5818,-356 336.856,-356"/>
<polygon fill="#ffa500" stroke="#ffa500" points="172.0493,-352.5001 162.0492,-356 172.0492,-359.5001 172.0493,-352.5001"/>
<text text-anchor="start" x="180" y="-381" font-family="Helvetica,sans-Serif" font-size="10.00" fill="#000000"> &lt; TMemberFunctionPointer,</text>
<text text-anchor="start" x="180" y="-370" font-family="Helvetica,sans-Serif" font-size="10.00" fill="#000000"> std::pair&lt; unsigned int,</text>
<text text-anchor="middle" x="249.5" y="-359" font-family="Helvetica,sans-Serif" font-size="10.00" fill="#000000"> int &gt; &gt;</text>
</g>
<!-- Node29 -->
<g id="node29" class="node">
<title>Node29</title>
<g id="a_node29"><a xlink:href="classitk_1_1simple_1_1detail_1_1MemberFunctionFactoryBase.html" target="_top" xlink:title=" ">
<polygon fill="#ffffff" stroke="#000000" points="527,-384 527,-436 703,-436 703,-384 527,-384"/>
<text text-anchor="start" x="535" y="-424" font-family="Helvetica,sans-Serif" font-size="10.00" fill="#000000">itk::simple::detail</text>
<text text-anchor="start" x="535" y="-413" font-family="Helvetica,sans-Serif" font-size="10.00" fill="#000000">::MemberFunctionFactoryBase</text>
<text text-anchor="start" x="535" y="-402" font-family="Helvetica,sans-Serif" font-size="10.00" fill="#000000">&lt; EvaluateMemberFunctionType,</text>
<text text-anchor="middle" x="615" y="-391" font-family="Helvetica,sans-Serif" font-size="10.00" fill="#000000"> std::pair&lt; unsigned int, int &gt; &gt;</text>
</a>
</g>
</g>
<!-- Node19&#45;&gt;Node29 -->
<g id="edge35" class="edge">
<title>Node19&#45;&gt;Node29</title>
<path fill="none" stroke="#ffa500" stroke-dasharray="5,2" d="M126.4414,-374.642C143.0186,-380.6273 162.0928,-386.5862 180,-390 298.4497,-412.5812 438.1615,-414.7879 526.6602,-413.2428"/>
<polygon fill="#ffa500" stroke="#ffa500" points="127.5902,-371.3351 116.9973,-371.134 125.1528,-377.8971 127.5902,-371.3351"/>
<text text-anchor="start" x="180.5" y="-432" font-family="Helvetica,sans-Serif" font-size="10.00" fill="#000000"> &lt; EvaluateMemberFunction</text>
<text text-anchor="start" x="180.5" y="-421" font-family="Helvetica,sans-Serif" font-size="10.00" fill="#000000">Type, std::pair&lt; unsigned</text>
<text text-anchor="middle" x="249.5" y="-410" font-family="Helvetica,sans-Serif" font-size="10.00" fill="#000000"> int, int &gt; &gt;</text>
</g>
<!-- Node20 -->
<g id="node20" class="node">
<title>Node20</title>
<g id="a_node20"><a xlink:href="classitk_1_1simple_1_1detail_1_1MemberFunctionFactory.html" target="_top" xlink:title="A class used to instantiate and generate function object to templated member functions.">
<polygon fill="#ffffff" stroke="#000000" points="721,-335.5 721,-376.5 881,-376.5 881,-335.5 721,-335.5"/>
<text text-anchor="start" x="729" y="-364.5" font-family="Helvetica,sans-Serif" font-size="10.00" fill="#000000">itk::simple::detail</text>
<text text-anchor="start" x="729" y="-353.5" font-family="Helvetica,sans-Serif" font-size="10.00" fill="#000000">::MemberFunctionFactory</text>
<text text-anchor="middle" x="801" y="-342.5" font-family="Helvetica,sans-Serif" font-size="10.00" fill="#000000">&lt; TMemberFunctionPointer &gt;</text>
</a>
</g>
</g>
<!-- Node20&#45;&gt;Node17 -->
<g id="edge21" class="edge">
<title>Node20&#45;&gt;Node17</title>
<path fill="none" stroke="#ffa500" stroke-dasharray="5,2" d="M891.3093,-347.6978C893.9011,-347.4623 896.4689,-347.2293 899,-347 962.0268,-341.2911 1033.7408,-334.8937 1085.4528,-330.298"/>
<polygon fill="#ffa500" stroke="#ffa500" points="890.8626,-344.2239 881.2212,-348.6163 891.4974,-351.1951 890.8626,-344.2239"/>
<text text-anchor="middle" x="968" y="-350" font-family="Helvetica,sans-Serif" font-size="10.00" fill="#000000"> &lt; MemberFunctionType &gt;</text>
</g>
<!-- Node28 -->
<g id="node28" class="node">
<title>Node28</title>
<g id="a_node28"><a xlink:href="classitk_1_1simple_1_1detail_1_1MemberFunctionFactory.html" target="_top" xlink:title=" ">
<polygon fill="#ffffff" stroke="#000000" points="1064,-363.5 1064,-404.5 1249,-404.5 1249,-363.5 1064,-363.5"/>
<text text-anchor="start" x="1072" y="-392.5" font-family="Helvetica,sans-Serif" font-size="10.00" fill="#000000">itk::simple::detail</text>
<text text-anchor="start" x="1072" y="-381.5" font-family="Helvetica,sans-Serif" font-size="10.00" fill="#000000">::MemberFunctionFactory</text>
<text text-anchor="middle" x="1156.5" y="-370.5" font-family="Helvetica,sans-Serif" font-size="10.00" fill="#000000">&lt; EvaluateMemberFunctionType &gt;</text>
</a>
</g>
</g>
<!-- Node20&#45;&gt;Node28 -->
<g id="edge36" class="edge">
<title>Node20&#45;&gt;Node28</title>
<path fill="none" stroke="#ffa500" stroke-dasharray="5,2" d="M891.164,-361.4254C935.1726,-364.2489 988.8798,-367.9538 1037,-372 1045.7266,-372.7338 1054.8063,-373.5498 1063.8883,-374.4013"/>
<polygon fill="#ffa500" stroke="#ffa500" points="891.2659,-357.9249 881.0636,-360.782 890.8208,-364.9108 891.2659,-357.9249"/>
<text text-anchor="start" x="899" y="-386" font-family="Helvetica,sans-Serif" font-size="10.00" fill="#000000"> &lt; EvaluateMemberFunction</text>
<text text-anchor="middle" x="968" y="-375" font-family="Helvetica,sans-Serif" font-size="10.00" fill="#000000">Type &gt;</text>
</g>
<!-- Node21&#45;&gt;Node20 -->
<g id="edge22" class="edge">
<title>Node21&#45;&gt;Node20</title>
<path fill="none" stroke="#006400" d="M519.4923,-356C581.8712,-356 662.0954,-356 720.9334,-356"/>
<polygon fill="#006400" stroke="#006400" points="519.2471,-352.5001 509.247,-356 519.247,-359.5001 519.2471,-352.5001"/>
</g>
<!-- Node22&#45;&gt;Node16 -->
<g id="edge24" class="edge">
<title>Node22&#45;&gt;Node16</title>
<path fill="none" stroke="#ffa500" stroke-dasharray="5,2" d="M1225.7257,-244.5027C1242.172,-242.6312 1259.681,-240.9527 1276,-240 1355.864,-235.3377 1378.9902,-218.3321 1456,-240 1465.0251,-242.5394 1465.3843,-247.3025 1474,-251 1482.9672,-254.8483 1492.5348,-258.3284 1502.1802,-261.4459"/>
<polygon fill="#ffa500" stroke="#ffa500" points="1225.1658,-241.0443 1215.643,-245.6882 1225.9833,-247.9965 1225.1658,-241.0443"/>
<text text-anchor="start" x="1297.5" y="-265" font-family="Helvetica,sans-Serif" font-size="10.00" fill="#000000"> &lt; itk::simple::detail</text>
<text text-anchor="start" x="1297.5" y="-254" font-family="Helvetica,sans-Serif" font-size="10.00" fill="#000000">::MemberFunctionFactory</text>
<text text-anchor="middle" x="1366" y="-243" font-family="Helvetica,sans-Serif" font-size="10.00" fill="#000000">&lt; MemberFunctionType &gt; &gt;</text>
</g>
<!-- Node27 -->
<g id="node27" class="node">
<title>Node27</title>
<g id="a_node27"><a xlink:title=" ">
<polygon fill="#ffffff" stroke="#bfbfbf" points="1474,-321.5 1474,-362.5 1705,-362.5 1705,-321.5 1474,-321.5"/>
<text text-anchor="start" x="1482" y="-350.5" font-family="Helvetica,sans-Serif" font-size="10.00" fill="#000000">std::unique_ptr&lt; itk</text>
<text text-anchor="start" x="1482" y="-339.5" font-family="Helvetica,sans-Serif" font-size="10.00" fill="#000000">::simple::detail::MemberFunction</text>
<text text-anchor="middle" x="1589.5" y="-328.5" font-family="Helvetica,sans-Serif" font-size="10.00" fill="#000000">Factory&lt; EvaluateMemberFunctionType &gt; &gt;</text>
</a>
</g>
</g>
<!-- Node22&#45;&gt;Node27 -->
<g id="edge37" class="edge">
<title>Node22&#45;&gt;Node27</title>
<path fill="none" stroke="#ffa500" stroke-dasharray="5,2" d="M1222.4077,-265.1142C1239.8092,-267.8745 1258.5908,-270.6988 1276,-273 1315.8754,-278.2708 1420.1679,-273.7275 1456,-292 1466.6535,-297.4327 1463.7803,-305.7896 1474,-312 1479.8426,-315.5505 1486.0981,-318.6841 1492.563,-321.4493"/>
<polygon fill="#ffa500" stroke="#ffa500" points="1222.7703,-261.6277 1212.3423,-263.5008 1221.6623,-268.5395 1222.7703,-261.6277"/>
<text text-anchor="start" x="1276" y="-317" font-family="Helvetica,sans-Serif" font-size="10.00" fill="#000000"> &lt; itk::simple::detail</text>
<text text-anchor="start" x="1276" y="-306" font-family="Helvetica,sans-Serif" font-size="10.00" fill="#000000">::MemberFunctionFactory</text>
<text text-anchor="middle" x="1366" y="-295" font-family="Helvetica,sans-Serif" font-size="10.00" fill="#000000">&lt; EvaluateMemberFunctionType &gt; &gt;</text>
</g>
<!-- Node23 -->
<g id="node23" class="node">
<title>Node23</title>
<g id="a_node23"><a xlink:title=" ">
<polygon fill="#ffffff" stroke="#bfbfbf" points="1524,-79.5 1524,-98.5 1655,-98.5 1655,-79.5 1524,-79.5"/>
<text text-anchor="middle" x="1589.5" y="-86.5" font-family="Helvetica,sans-Serif" font-size="10.00" fill="#000000">std::vector&lt; uint32_t &gt;</text>
</a>
</g>
</g>
<!-- Node23&#45;&gt;Node1 -->
<g id="edge26" class="edge">
<title>Node23&#45;&gt;Node1</title>
<path fill="none" stroke="#9a32cd" stroke-dasharray="5,2" d="M1665.3399,-99.3741C1678.6903,-101.9802 1692.3536,-105.1594 1705,-109 1713.3768,-111.544 1714.571,-114.6348 1723,-117 1792.9026,-136.6149 1823.5028,-99.4097 1885,-138 1937.9517,-171.2279 1968.6252,-243.9193 1979.9513,-275.6605"/>
<polygon fill="#9a32cd" stroke="#9a32cd" points="1665.685,-95.8784 1655.2137,-97.4914 1664.4055,-102.7605 1665.685,-95.8784"/>
<text text-anchor="middle" x="1804" y="-141" font-family="Helvetica,sans-Serif" font-size="10.00" fill="#000000"> m_VirtualDomainSize</text>
</g>
<!-- Node24&#45;&gt;Node23 -->
<g id="edge27" class="edge">
<title>Node24&#45;&gt;Node23</title>
<path fill="none" stroke="#ffa500" stroke-dasharray="5,2" d="M1215.7972,-89C1296.4331,-89 1440.1948,-89 1523.9516,-89"/>
<polygon fill="#ffa500" stroke="#ffa500" points="1215.3289,-85.5001 1205.3289,-89 1215.3289,-92.5001 1215.3289,-85.5001"/>
<text text-anchor="middle" x="1366" y="-92" font-family="Helvetica,sans-Serif" font-size="10.00" fill="#000000"> &lt; uint32_t &gt;</text>
</g>
<!-- Node30 -->
<g id="node30" class="node">
<title>Node30</title>
<g id="a_node30"><a xlink:title=" ">
<polygon fill="#ffffff" stroke="#bfbfbf" points="1527.5,-118 1527.5,-148 1651.5,-148 1651.5,-118 1527.5,-118"/>
<text text-anchor="start" x="1535.5" y="-136" font-family="Helvetica,sans-Serif" font-size="10.00" fill="#000000">std::vector&lt; unsigned</text>
<text text-anchor="middle" x="1589.5" y="-125" font-family="Helvetica,sans-Serif" font-size="10.00" fill="#000000"> int &gt;</text>
</a>
</g>
</g>
<!-- Node24&#45;&gt;Node30 -->
<g id="edge39" class="edge">
<title>Node24&#45;&gt;Node30</title>
<path fill="none" stroke="#ffa500" stroke-dasharray="5,2" d="M1215.4361,-94.9889C1297.0748,-103.2847 1443.9131,-118.2059 1527.2664,-126.676"/>
<polygon fill="#ffa500" stroke="#ffa500" points="1215.6315,-91.4908 1205.3289,-93.9618 1214.9238,-98.4549 1215.6315,-91.4908"/>
<text text-anchor="middle" x="1366" y="-121" font-family="Helvetica,sans-Serif" font-size="10.00" fill="#000000"> &lt; unsigned int &gt;</text>
</g>
<!-- Node32 -->
<g id="node32" class="node">
<title>Node32</title>
<g id="a_node32"><a xlink:title=" ">
<polygon fill="#ffffff" stroke="#bfbfbf" points="1527.5,-35.5 1527.5,-54.5 1651.5,-54.5 1651.5,-35.5 1527.5,-35.5"/>
<text text-anchor="middle" x="1589.5" y="-42.5" font-family="Helvetica,sans-Serif" font-size="10.00" fill="#000000">std::vector&lt; double &gt;</text>
</a>
</g>
</g>
<!-- Node24&#45;&gt;Node32 -->
<g id="edge42" class="edge">
<title>Node24&#45;&gt;Node32</title>
<path fill="none" stroke="#ffa500" stroke-dasharray="5,2" d="M1215.1934,-81.2454C1234.5417,-78.7925 1256.178,-76.1603 1276,-74 1363.0762,-64.5101 1463.981,-55.5375 1527.2811,-50.1532"/>
<polygon fill="#ffa500" stroke="#ffa500" points="1214.4827,-77.8076 1205.0068,-82.5467 1215.3698,-84.7512 1214.4827,-77.8076"/>
<text text-anchor="middle" x="1366" y="-77" font-family="Helvetica,sans-Serif" font-size="10.00" fill="#000000"> &lt; double &gt;</text>
</g>
<!-- Node25 -->
<g id="node25" class="node">
<title>Node25</title>
<g id="a_node25"><a xlink:href="classitk_1_1simple_1_1Image.html" target="_top" xlink:title="The Image class for SimpleITK.">
<polygon fill="#ffffff" stroke="#000000" points="1537,-170.5 1537,-189.5 1642,-189.5 1642,-170.5 1537,-170.5"/>
<text text-anchor="middle" x="1589.5" y="-177.5" font-family="Helvetica,sans-Serif" font-size="10.00" fill="#000000">itk::simple::Image</text>
</a>
</g>
</g>
<!-- Node25&#45;&gt;Node1 -->
<g id="edge29" class="edge">
<title>Node25&#45;&gt;Node1</title>
<path fill="none" stroke="#9a32cd" stroke-dasharray="5,2" d="M1651.9782,-190.923C1669.2181,-194.2024 1687.8856,-198.0003 1705,-202 1713.085,-203.8895 1714.8526,-205.4006 1723,-207 1794.1357,-220.9649 1816.8165,-201.3763 1885,-226 1916.5499,-237.3939 1948.2147,-260.3967 1967.2147,-275.7533"/>
<polygon fill="#9a32cd" stroke="#9a32cd" points="1652.4889,-187.4579 1642.015,-189.0545 1651.1985,-194.3379 1652.4889,-187.4579"/>
<text text-anchor="middle" x="1804" y="-240" font-family="Helvetica,sans-Serif" font-size="10.00" fill="#000000"> m_MetricFixedMaskImage</text>
<text text-anchor="middle" x="1804" y="-229" font-family="Helvetica,sans-Serif" font-size="10.00" fill="#000000">m_MetricMovingMaskImage</text>
</g>
<!-- Node26 -->
<g id="node26" class="node">
<title>Node26</title>
<g id="a_node26"><a xlink:href="classitk_1_1simple_1_1PimpleImageBase.html" target="_top" xlink:title="Private implementation idiom image base class.">
<polygon fill="#ffffff" stroke="#000000" points="1075,-146.5 1075,-165.5 1238,-165.5 1238,-146.5 1075,-146.5"/>
<text text-anchor="middle" x="1156.5" y="-153.5" font-family="Helvetica,sans-Serif" font-size="10.00" fill="#000000">itk::simple::PimpleImageBase</text>
</a>
</g>
</g>
<!-- Node26&#45;&gt;Node25 -->
<g id="edge30" class="edge">
<title>Node26&#45;&gt;Node25</title>
<path fill="none" stroke="#9a32cd" stroke-dasharray="5,2" d="M1248.4159,-161.0946C1336.1243,-165.9561 1465.1848,-173.1095 1536.7738,-177.0775"/>
<polygon fill="#9a32cd" stroke="#9a32cd" points="1248.3768,-157.5872 1238.1984,-160.5283 1247.9893,-164.5765 1248.3768,-157.5872"/>
<text text-anchor="middle" x="1366" y="-175" font-family="Helvetica,sans-Serif" font-size="10.00" fill="#000000"> m_PimpleImage</text>
</g>
<!-- Node27&#45;&gt;Node1 -->
<g id="edge32" class="edge">
<title>Node27&#45;&gt;Node1</title>
<path fill="none" stroke="#9a32cd" stroke-dasharray="5,2" d="M1715.3112,-325.8601C1767.7746,-319.1197 1829.3387,-311.1969 1885,-304 1890.8165,-303.2479 1896.8231,-302.4701 1902.8705,-301.6861"/>
<polygon fill="#9a32cd" stroke="#9a32cd" points="1714.7575,-322.4024 1705.285,-327.1481 1715.6495,-329.3454 1714.7575,-322.4024"/>
<text text-anchor="middle" x="1804" y="-327" font-family="Helvetica,sans-Serif" font-size="10.00" fill="#000000"> m_EvaluateMemberFactory</text>
</g>
<!-- Node28&#45;&gt;Node27 -->
<g id="edge33" class="edge">
<title>Node28&#45;&gt;Node27</title>
<path fill="none" stroke="#9a32cd" stroke-dasharray="5,2" d="M1259.3597,-378.9788C1317.2413,-375.6044 1390.7744,-370.4029 1456,-363 1461.8281,-362.3385 1467.7911,-361.606 1473.807,-360.8225"/>
<polygon fill="#9a32cd" stroke="#9a32cd" points="1258.8914,-375.4999 1249.1083,-379.567 1259.2924,-382.4884 1258.8914,-375.4999"/>
<text text-anchor="middle" x="1366" y="-380" font-family="Helvetica,sans-Serif" font-size="10.00" fill="#000000"> ptr</text>
</g>
<!-- Node29&#45;&gt;Node28 -->
<g id="edge34" class="edge">
<title>Node29&#45;&gt;Node28</title>
<path fill="none" stroke="#006400" d="M713.381,-407.5389C798.947,-405.0951 926.2415,-400.7304 1037,-394 1045.7279,-393.4696 1054.8085,-392.8441 1063.8911,-392.169"/>
<polygon fill="#006400" stroke="#006400" points="713.0541,-404.0466 703.1569,-407.8274 713.2516,-411.0438 713.0541,-404.0466"/>
</g>
<!-- Node30&#45;&gt;Node1 -->
<g id="edge38" class="edge">
<title>Node30&#45;&gt;Node1</title>
<path fill="none" stroke="#9a32cd" stroke-dasharray="5,2" d="M1661.5432,-142.9456C1681.4443,-145.6297 1703.0511,-148.4855 1723,-151 1758.9622,-155.533 1853.1635,-152.6719 1885,-170 1930.4796,-194.7538 1963.5347,-249.4156 1977.5558,-275.9553"/>
<polygon fill="#9a32cd" stroke="#9a32cd" points="1661.9977,-139.4752 1651.6186,-141.6023 1661.0587,-146.412 1661.9977,-139.4752"/>
<text text-anchor="middle" x="1804" y="-195" font-family="Helvetica,sans-Serif" font-size="10.00" fill="#000000"> m_OptimizerNumberOfSteps</text>
<text text-anchor="middle" x="1804" y="-184" font-family="Helvetica,sans-Serif" font-size="10.00" fill="#000000">m_TransformBSplineScaleFactors</text>
<text text-anchor="middle" x="1804" y="-173" font-family="Helvetica,sans-Serif" font-size="10.00" fill="#000000">m_ShrinkFactorsPerLevel</text>
</g>
<!-- Node31 -->
<g id="node31" class="node">
<title>Node31</title>
<g id="a_node31"><a xlink:href="classitk_1_1simple_1_1Transform.html" target="_top" xlink:title="A simplified wrapper around a variety of ITK transforms.">
<polygon fill="#ffffff" stroke="#000000" points="1528,-381.5 1528,-400.5 1651,-400.5 1651,-381.5 1528,-381.5"/>
<text text-anchor="middle" x="1589.5" y="-388.5" font-family="Helvetica,sans-Serif" font-size="10.00" fill="#000000">itk::simple::Transform</text>
</a>
</g>
</g>
<!-- Node31&#45;&gt;Node1 -->
<g id="edge40" class="edge">
<title>Node31&#45;&gt;Node1</title>
<path fill="none" stroke="#9a32cd" stroke-dasharray="5,2" d="M1661.519,-384.0418C1722.2129,-376.8334 1810.7782,-363.1375 1885,-339 1911.0051,-330.5429 1938.9286,-316.6994 1958.6411,-306.047"/>
<polygon fill="#9a32cd" stroke="#9a32cd" points="1660.8043,-380.6011 1651.2734,-385.2285 1661.6097,-387.5546 1660.8043,-380.6011"/>
<text text-anchor="middle" x="1804" y="-400" font-family="Helvetica,sans-Serif" font-size="10.00" fill="#000000"> m_FixedInitialTransform</text>
<text text-anchor="middle" x="1804" y="-389" font-family="Helvetica,sans-Serif" font-size="10.00" fill="#000000">m_MovingInitialTransform</text>
<text text-anchor="middle" x="1804" y="-378" font-family="Helvetica,sans-Serif" font-size="10.00" fill="#000000">m_InitialTransform</text>
</g>
<!-- Node32&#45;&gt;Node1 -->
<g id="edge41" class="edge">
<title>Node32&#45;&gt;Node1</title>
<path fill="none" stroke="#9a32cd" stroke-dasharray="5,2" d="M1657.03,-34.0135C1732.6454,-23.2354 1849.2883,-11.6451 1885,-36 1927.2332,-64.8025 1969.0616,-225.0869 1981.3764,-275.6892"/>
<polygon fill="#9a32cd" stroke="#9a32cd" points="1656.4964,-30.5542 1647.1042,-35.457 1657.5039,-37.4813 1656.4964,-30.5542"/>
<text text-anchor="middle" x="1804" y="-105" font-family="Helvetica,sans-Serif" font-size="10.00" fill="#000000"> m_OptimizerScales</text>
<text text-anchor="middle" x="1804" y="-94" font-family="Helvetica,sans-Serif" font-size="10.00" fill="#000000">m_SmoothingSigmasPerLevel</text>
<text text-anchor="middle" x="1804" y="-83" font-family="Helvetica,sans-Serif" font-size="10.00" fill="#000000">m_MetricSamplingPercentage</text>
<text text-anchor="middle" x="1804" y="-72" font-family="Helvetica,sans-Serif" font-size="10.00" fill="#000000">m_VirtualDomainOrigin</text>
<text text-anchor="middle" x="1804" y="-61" font-family="Helvetica,sans-Serif" font-size="10.00" fill="#000000">m_VirtualDomainDirection</text>
<text text-anchor="middle" x="1804" y="-50" font-family="Helvetica,sans-Serif" font-size="10.00" fill="#000000">m_VirtualDomainSpacing</text>
<text text-anchor="middle" x="1804" y="-39" font-family="Helvetica,sans-Serif" font-size="10.00" fill="#000000">m_OptimizerWeights</text>
</g>
</g>
</svg>
