<?xml version="1.0" encoding="UTF-8" standalone="no"?>
<!DOCTYPE svg PUBLIC "-//W3C//DTD SVG 1.1//EN"
 "http://www.w3.org/Graphics/SVG/1.1/DTD/svg11.dtd">
<!-- Generated by graphviz version 2.40.1 (20161225.0304)
 -->
<!-- Title: itk::simple::OrImageFilter Pages: 1 -->
<svg width="151pt" height="196pt"
 viewBox="0.00 0.00 151.00 196.00" xmlns="http://www.w3.org/2000/svg" xmlns:xlink="http://www.w3.org/1999/xlink">
<g id="graph0" class="graph" transform="scale(1 1) rotate(0) translate(4 192)">
<title>itk::simple::OrImageFilter</title>
<polygon fill="#ffffff" stroke="transparent" points="-4,4 -4,-192 147,-192 147,4 -4,4"/>
<!-- Node1 -->
<g id="node1" class="node">
<title>Node1</title>
<g id="a_node1"><a xlink:title="Implements the OR bitwise operator pixel&#45;wise between two images.">
<polygon fill="#bfbfbf" stroke="#000000" points="1.5,-.5 1.5,-19.5 141.5,-19.5 141.5,-.5 1.5,-.5"/>
<text text-anchor="middle" x="71.5" y="-7.5" font-family="Helvetica,sans-Serif" font-size="10.00" fill="#000000">itk::simple::OrImageFilter</text>
</a>
</g>
</g>
<!-- Node2 -->
<g id="node2" class="node">
<title>Node2</title>
<g id="a_node2"><a xlink:href="classitk_1_1simple_1_1ImageFilter.html" target="_top" xlink:title="The base interface for SimpleITK filters that take one input image.">
<polygon fill="#ffffff" stroke="#000000" points="7,-56.5 7,-75.5 136,-75.5 136,-56.5 7,-56.5"/>
<text text-anchor="middle" x="71.5" y="-63.5" font-family="Helvetica,sans-Serif" font-size="10.00" fill="#000000">itk::simple::ImageFilter</text>
</a>
</g>
</g>
<!-- Node2&#45;&gt;Node1 -->
<g id="edge1" class="edge">
<title>Node2&#45;&gt;Node1</title>
<path fill="none" stroke="#191970" d="M71.5,-46.1575C71.5,-37.155 71.5,-26.9199 71.5,-19.6427"/>
<polygon fill="#191970" stroke="#191970" points="68.0001,-46.2455 71.5,-56.2455 75.0001,-46.2456 68.0001,-46.2455"/>
</g>
<!-- Node3 -->
<g id="node3" class="node">
<title>Node3</title>
<g id="a_node3"><a xlink:href="classitk_1_1simple_1_1ProcessObject.html" target="_top" xlink:title="Base class for SimpleITK classes based on ProcessObject.">
<polygon fill="#ffffff" stroke="#000000" points="0,-112.5 0,-131.5 143,-131.5 143,-112.5 0,-112.5"/>
<text text-anchor="middle" x="71.5" y="-119.5" font-family="Helvetica,sans-Serif" font-size="10.00" fill="#000000">itk::simple::ProcessObject</text>
</a>
</g>
</g>
<!-- Node3&#45;&gt;Node2 -->
<g id="edge2" class="edge">
<title>Node3&#45;&gt;Node2</title>
<path fill="none" stroke="#191970" d="M71.5,-102.1575C71.5,-93.155 71.5,-82.9199 71.5,-75.6427"/>
<polygon fill="#191970" stroke="#191970" points="68.0001,-102.2455 71.5,-112.2455 75.0001,-102.2456 68.0001,-102.2455"/>
</g>
<!-- Node4 -->
<g id="node4" class="node">
<title>Node4</title>
<g id="a_node4"><a xlink:href="classitk_1_1simple_1_1NonCopyable.html" target="_top" xlink:title="An inheritable class to disable copying of a class.">
<polygon fill="#ffffff" stroke="#000000" points="1.5,-168.5 1.5,-187.5 141.5,-187.5 141.5,-168.5 1.5,-168.5"/>
<text text-anchor="middle" x="71.5" y="-175.5" font-family="Helvetica,sans-Serif" font-size="10.00" fill="#000000">itk::simple::NonCopyable</text>
</a>
</g>
</g>
<!-- Node4&#45;&gt;Node3 -->
<g id="edge3" class="edge">
<title>Node4&#45;&gt;Node3</title>
<path fill="none" stroke="#006400" d="M71.5,-158.1575C71.5,-149.155 71.5,-138.9199 71.5,-131.6427"/>
<polygon fill="#006400" stroke="#006400" points="68.0001,-158.2455 71.5,-168.2455 75.0001,-158.2456 68.0001,-158.2455"/>
</g>
</g>
</svg>
