<?xml version="1.0" encoding="UTF-8" standalone="no"?>
<!DOCTYPE svg PUBLIC "-//W3C//DTD SVG 1.1//EN"
 "http://www.w3.org/Graphics/SVG/1.1/DTD/svg11.dtd">
<!-- Generated by graphviz version 2.40.1 (20161225.0304)
 -->
<!-- Title: itk::simple::LabelMapOverlayImageFilter Pages: 1 -->
<!--zoomable 346 -->
<svg id="main" version="1.1" xmlns="http://www.w3.org/2000/svg" xmlns:xlink="http://www.w3.org/1999/xlink" xml:space="preserve" onload="init(evt)">
<style type="text/css"><![CDATA[
.edge:hover path { stroke: red; }
.edge:hover polygon { stroke: red; fill: red; }
]]></style>
<script type="text/javascript"><![CDATA[
var edges = document.getElementsByTagName('g');
if (edges && edges.length) {
  for (var i=0;i<edges.length;i++) {
    if (edges[i].id.substr(0,4)=='edge') {
      edges[i].setAttribute('class','edge');
    }
  }
}
]]></script>
        <defs>
                <circle id="rim" cx="0" cy="0" r="7"/>
                <circle id="rim2" cx="0" cy="0" r="3.5"/>
                <g id="zoomPlus">
                        <use xlink:href="#rim" fill="#404040">
                                <set attributeName="fill" to="#808080" begin="zoomplus.mouseover" end="zoomplus.mouseout"/>
                        </use>
                        <path d="M-4,0h8M0,-4v8" fill="none" stroke="white" stroke-width="1.5" pointer-events="none"/>
                </g>
                <g id="zoomMin">
                        <use xlink:href="#rim" fill="#404040">
                                <set attributeName="fill" to="#808080" begin="zoomminus.mouseover" end="zoomminus.mouseout"/>
                        </use>
                        <path d="M-4,0h8" fill="none" stroke="white" stroke-width="1.5" pointer-events="none"/>
                </g>
                <g id="dirArrow">
                        <path fill="none" stroke="white" stroke-width="1.5" d="M0,-3.0v7 M-2.5,-0.5L0,-3.0L2.5,-0.5"/>
                </g>
               <g id="resetDef">
                       <use xlink:href="#rim2" fill="#404040">
                               <set attributeName="fill" to="#808080" begin="reset.mouseover" end="reset.mouseout"/>
                       </use>
               </g>
        </defs>

<script type="text/javascript">
var viewWidth = 2138;
var viewHeight = 346;
var sectionId = 'dynsection-1';
</script>
<script xlink:href="svgpan.js"/>
<svg id="graph" class="graph">
<g id="viewport">
<title>itk::simple::LabelMapOverlayImageFilter</title>
<polygon fill="#ffffff" stroke="transparent" points="-4,4 -4,-342 2134,-342 2134,4 -4,4"/>
<!-- Node1 -->
<g id="node1" class="node">
<title>Node1</title>
<g id="a_node1"><a xlink:title="Apply a colormap to a label map and superimpose it on an image.">
<polygon fill="#bfbfbf" stroke="#000000" points="1971,-156 1971,-186 2130,-186 2130,-156 1971,-156"/>
<text text-anchor="start" x="1979" y="-174" font-family="Helvetica,sans-Serif" font-size="10.00" fill="#000000">itk::simple::LabelMapOverlay</text>
<text text-anchor="middle" x="2050.5" y="-163" font-family="Helvetica,sans-Serif" font-size="10.00" fill="#000000">ImageFilter</text>
</a>
</g>
</g>
<!-- Node2 -->
<g id="node2" class="node">
<title>Node2</title>
<g id="a_node2"><a xlink:href="classitk_1_1simple_1_1ImageFilter.html" target="_top" xlink:title="The base interface for SimpleITK filters that take one input image.">
<polygon fill="#ffffff" stroke="#000000" points="758.5,-.5 758.5,-19.5 887.5,-19.5 887.5,-.5 758.5,-.5"/>
<text text-anchor="middle" x="823" y="-7.5" font-family="Helvetica,sans-Serif" font-size="10.00" fill="#000000">itk::simple::ImageFilter</text>
</a>
</g>
</g>
<!-- Node2&#45;&gt;Node1 -->
<g id="edge1" class="edge">
<title>Node2&#45;&gt;Node1</title>
<path fill="none" stroke="#191970" d="M898.0946,-9.3095C967.4857,-8.7313 1073.4496,-8 1165.5,-8 1165.5,-8 1165.5,-8 1704.5,-8 1842.615,-8 1984.7072,-115.6055 2033.1361,-155.9575"/>
<polygon fill="#191970" stroke="#191970" points="897.6741,-5.8128 887.7041,-9.3972 897.7333,-12.8126 897.6741,-5.8128"/>
</g>
<!-- Node3 -->
<g id="node3" class="node">
<title>Node3</title>
<g id="a_node3"><a xlink:href="classitk_1_1simple_1_1ProcessObject.html" target="_top" xlink:title="Base class for SimpleITK classes based on ProcessObject.">
<polygon fill="#ffffff" stroke="#000000" points="212.5,-55.5 212.5,-74.5 355.5,-74.5 355.5,-55.5 212.5,-55.5"/>
<text text-anchor="middle" x="284" y="-62.5" font-family="Helvetica,sans-Serif" font-size="10.00" fill="#000000">itk::simple::ProcessObject</text>
</a>
</g>
</g>
<!-- Node3&#45;&gt;Node2 -->
<g id="edge2" class="edge">
<title>Node3&#45;&gt;Node2</title>
<path fill="none" stroke="#191970" d="M325.7231,-52.6966C343.2622,-47.9876 363.9748,-43.0257 383,-40 515.3279,-18.9551 672.3509,-12.6635 758.4693,-10.789"/>
<polygon fill="#191970" stroke="#191970" points="324.515,-49.3988 315.7998,-55.4234 326.3698,-56.1486 324.515,-49.3988"/>
</g>
<!-- Node10 -->
<g id="node10" class="node">
<title>Node10</title>
<g id="a_node10"><a xlink:title=" ">
<polygon fill="#ffffff" stroke="#bfbfbf" points="585,-142 585,-172 701,-172 701,-142 585,-142"/>
<text text-anchor="start" x="593" y="-160" font-family="Helvetica,sans-Serif" font-size="10.00" fill="#000000">std::set&lt; itk::simple</text>
<text text-anchor="middle" x="643" y="-149" font-family="Helvetica,sans-Serif" font-size="10.00" fill="#000000">::ProcessObject * &gt;</text>
</a>
</g>
</g>
<!-- Node3&#45;&gt;Node10 -->
<g id="edge11" class="edge">
<title>Node3&#45;&gt;Node10</title>
<path fill="none" stroke="#9a32cd" stroke-dasharray="5,2" d="M331.4163,-77.1513C396.6911,-93.8791 514.1471,-123.9792 584.7071,-142.0614"/>
<polygon fill="#9a32cd" stroke="#9a32cd" points="331.9592,-73.6773 321.4033,-74.5853 330.2214,-80.4582 331.9592,-73.6773"/>
<text text-anchor="middle" x="463.5" y="-133" font-family="Helvetica,sans-Serif" font-size="10.00" fill="#000000"> keys</text>
</g>
<!-- Node4 -->
<g id="node4" class="node">
<title>Node4</title>
<g id="a_node4"><a xlink:href="classitk_1_1simple_1_1NonCopyable.html" target="_top" xlink:title="An inheritable class to disable copying of a class.">
<polygon fill="#ffffff" stroke="#000000" points="0,-88.5 0,-107.5 140,-107.5 140,-88.5 0,-88.5"/>
<text text-anchor="middle" x="70" y="-95.5" font-family="Helvetica,sans-Serif" font-size="10.00" fill="#000000">itk::simple::NonCopyable</text>
</a>
</g>
</g>
<!-- Node4&#45;&gt;Node3 -->
<g id="edge3" class="edge">
<title>Node4&#45;&gt;Node3</title>
<path fill="none" stroke="#006400" d="M141.7937,-86.929C167.8222,-82.9153 196.9787,-78.4192 222.0833,-74.5479"/>
<polygon fill="#006400" stroke="#006400" points="140.9603,-83.5161 131.6106,-88.4993 142.0272,-90.4343 140.9603,-83.5161"/>
</g>
<!-- Node7 -->
<g id="node7" class="node">
<title>Node7</title>
<g id="a_node7"><a xlink:href="classitk_1_1simple_1_1Command.html" target="_top" xlink:title="An implementation of the Command design pattern for callback.">
<polygon fill="#ffffff" stroke="#000000" points="940,-118.5 940,-137.5 1065,-137.5 1065,-118.5 940,-118.5"/>
<text text-anchor="middle" x="1002.5" y="-125.5" font-family="Helvetica,sans-Serif" font-size="10.00" fill="#000000">itk::simple::Command</text>
</a>
</g>
</g>
<!-- Node4&#45;&gt;Node7 -->
<g id="edge7" class="edge">
<title>Node4&#45;&gt;Node7</title>
<path fill="none" stroke="#006400" d="M150.1546,-100.5787C332.6195,-106.4489 775.837,-120.7079 939.9917,-125.989"/>
<polygon fill="#006400" stroke="#006400" points="150.1965,-97.0783 140.0891,-100.2549 149.9713,-104.0747 150.1965,-97.0783"/>
</g>
<!-- Node5 -->
<g id="node5" class="node">
<title>Node5</title>
<g id="a_node5"><a xlink:title=" ">
<polygon fill="#ffffff" stroke="#bfbfbf" points="1611,-83 1611,-113 1798,-113 1798,-83 1611,-83"/>
<text text-anchor="start" x="1619" y="-101" font-family="Helvetica,sans-Serif" font-size="10.00" fill="#000000">std::list&lt; itk::simple</text>
<text text-anchor="middle" x="1704.5" y="-90" font-family="Helvetica,sans-Serif" font-size="10.00" fill="#000000">::ProcessObject::EventCommand &gt;</text>
</a>
</g>
</g>
<!-- Node5&#45;&gt;Node3 -->
<g id="edge4" class="edge">
<title>Node5&#45;&gt;Node3</title>
<path fill="none" stroke="#9a32cd" stroke-dasharray="5,2" d="M1613.3959,-81.3199C1537.4639,-68.8691 1426.3082,-54 1328.5,-54 643,-54 643,-54 643,-54 543.3869,-54 428.2991,-58.2835 355.8397,-61.5044"/>
<polygon fill="#9a32cd" stroke="#9a32cd" points="1612.968,-84.7967 1623.406,-82.9808 1614.1138,-77.8911 1612.968,-84.7967"/>
<text text-anchor="middle" x="1002.5" y="-57" font-family="Helvetica,sans-Serif" font-size="10.00" fill="#000000"> m_Commands</text>
</g>
<!-- Node6 -->
<g id="node6" class="node">
<title>Node6</title>
<g id="a_node6"><a xlink:href="structitk_1_1simple_1_1ProcessObject_1_1EventCommand.html" target="_top" xlink:title=" ">
<polygon fill="#ffffff" stroke="#000000" points="1257,-83 1257,-113 1400,-113 1400,-83 1257,-83"/>
<text text-anchor="start" x="1265" y="-101" font-family="Helvetica,sans-Serif" font-size="10.00" fill="#000000">itk::simple::ProcessObject</text>
<text text-anchor="middle" x="1328.5" y="-90" font-family="Helvetica,sans-Serif" font-size="10.00" fill="#000000">::EventCommand</text>
</a>
</g>
</g>
<!-- Node6&#45;&gt;Node5 -->
<g id="edge5" class="edge">
<title>Node6&#45;&gt;Node5</title>
<path fill="none" stroke="#9a32cd" stroke-dasharray="5,2" d="M1410.1378,-98C1469.1804,-98 1549.0824,-98 1610.7415,-98"/>
<polygon fill="#9a32cd" stroke="#9a32cd" points="1410.1078,-94.5001 1400.1078,-98 1410.1077,-101.5001 1410.1078,-94.5001"/>
<text text-anchor="middle" x="1499.5" y="-101" font-family="Helvetica,sans-Serif" font-size="10.00" fill="#000000"> elements</text>
</g>
<!-- Node7&#45;&gt;Node6 -->
<g id="edge6" class="edge">
<title>Node7&#45;&gt;Node6</title>
<path fill="none" stroke="#9a32cd" stroke-dasharray="5,2" d="M1061.4255,-116.7046C1074.4205,-114.5286 1088.1441,-112.4719 1101,-111 1152.9798,-105.0489 1211.9685,-101.7771 1256.8522,-100.0045"/>
<polygon fill="#9a32cd" stroke="#9a32cd" points="1060.4517,-113.3207 1051.1904,-118.4664 1061.6392,-120.2192 1060.4517,-113.3207"/>
<text text-anchor="middle" x="1165.5" y="-114" font-family="Helvetica,sans-Serif" font-size="10.00" fill="#000000"> m_Command</text>
</g>
<!-- Node8 -->
<g id="node8" class="node">
<title>Node8</title>
<g id="a_node8"><a xlink:title="STL class.">
<polygon fill="#ffffff" stroke="#bfbfbf" points="610.5,-191.5 610.5,-210.5 675.5,-210.5 675.5,-191.5 610.5,-191.5"/>
<text text-anchor="middle" x="643" y="-198.5" font-family="Helvetica,sans-Serif" font-size="10.00" fill="#000000">std::string</text>
</a>
</g>
</g>
<!-- Node8&#45;&gt;Node7 -->
<g id="edge8" class="edge">
<title>Node8&#45;&gt;Node7</title>
<path fill="none" stroke="#9a32cd" stroke-dasharray="5,2" d="M685.7662,-195.4366C754.3372,-186.4413 883.31,-169.1864 904,-164 931.0207,-157.2266 960.9268,-145.6906 980.6176,-137.5042"/>
<polygon fill="#9a32cd" stroke="#9a32cd" points="685.1672,-191.9851 675.7063,-196.7539 686.0761,-198.9258 685.1672,-191.9851"/>
<text text-anchor="middle" x="823" y="-190" font-family="Helvetica,sans-Serif" font-size="10.00" fill="#000000"> m_Name</text>
</g>
<!-- Node9 -->
<g id="node9" class="node">
<title>Node9</title>
<g id="a_node9"><a xlink:title="STL class.">
<polygon fill="#ffffff" stroke="#bfbfbf" points="232,-186 232,-216 336,-216 336,-186 232,-186"/>
<text text-anchor="start" x="240" y="-204" font-family="Helvetica,sans-Serif" font-size="10.00" fill="#000000">std::basic_string&lt;</text>
<text text-anchor="middle" x="284" y="-193" font-family="Helvetica,sans-Serif" font-size="10.00" fill="#000000"> char &gt;</text>
</a>
</g>
</g>
<!-- Node9&#45;&gt;Node8 -->
<g id="edge9" class="edge">
<title>Node9&#45;&gt;Node8</title>
<path fill="none" stroke="#191970" d="M346.2062,-201C422.8399,-201 550.2103,-201 610.0422,-201"/>
<polygon fill="#191970" stroke="#191970" points="346.2017,-197.5001 336.2017,-201 346.2016,-204.5001 346.2017,-197.5001"/>
</g>
<!-- Node10&#45;&gt;Node7 -->
<g id="edge10" class="edge">
<title>Node10&#45;&gt;Node7</title>
<path fill="none" stroke="#9a32cd" stroke-dasharray="5,2" d="M711.4379,-151.4793C777.3049,-146.1659 876.0581,-138.1998 939.8931,-133.0503"/>
<polygon fill="#9a32cd" stroke="#9a32cd" points="710.8456,-148.0156 701.1594,-152.3084 711.4085,-154.9929 710.8456,-148.0156"/>
<text text-anchor="middle" x="823" y="-152" font-family="Helvetica,sans-Serif" font-size="10.00" fill="#000000"> m_ReferencedObjects</text>
</g>
<!-- Node11 -->
<g id="node11" class="node">
<title>Node11</title>
<g id="a_node11"><a xlink:title="STL class.">
<polygon fill="#ffffff" stroke="#bfbfbf" points="243,-147.5 243,-166.5 325,-166.5 325,-147.5 243,-147.5"/>
<text text-anchor="middle" x="284" y="-154.5" font-family="Helvetica,sans-Serif" font-size="10.00" fill="#000000">std::set&lt; K &gt;</text>
</a>
</g>
</g>
<!-- Node11&#45;&gt;Node10 -->
<g id="edge12" class="edge">
<title>Node11&#45;&gt;Node10</title>
<path fill="none" stroke="#ffa500" stroke-dasharray="5,2" d="M335.3475,-157C401.3615,-157 515.6989,-157 584.8496,-157"/>
<polygon fill="#ffa500" stroke="#ffa500" points="335.1819,-153.5001 325.1819,-157 335.1818,-160.5001 335.1819,-153.5001"/>
<text text-anchor="middle" x="463.5" y="-160" font-family="Helvetica,sans-Serif" font-size="10.00" fill="#000000"> &lt; itk::simple::ProcessObject * &gt;</text>
</g>
<!-- Node12 -->
<g id="node12" class="node">
<title>Node12</title>
<g id="a_node12"><a xlink:title=" ">
<polygon fill="#ffffff" stroke="#bfbfbf" points="55.5,-147.5 55.5,-166.5 84.5,-166.5 84.5,-147.5 55.5,-147.5"/>
<text text-anchor="middle" x="70" y="-154.5" font-family="Helvetica,sans-Serif" font-size="10.00" fill="#000000">K</text>
</a>
</g>
</g>
<!-- Node12&#45;&gt;Node11 -->
<g id="edge13" class="edge">
<title>Node12&#45;&gt;Node11</title>
<path fill="none" stroke="#9a32cd" stroke-dasharray="5,2" d="M94.9038,-157C131.2222,-157 199.1487,-157 242.9345,-157"/>
<polygon fill="#9a32cd" stroke="#9a32cd" points="94.7091,-153.5001 84.7091,-157 94.7091,-160.5001 94.7091,-153.5001"/>
<text text-anchor="middle" x="171.5" y="-160" font-family="Helvetica,sans-Serif" font-size="10.00" fill="#000000"> keys</text>
</g>
<!-- Node13 -->
<g id="node13" class="node">
<title>Node13</title>
<g id="a_node13"><a xlink:title="STL class.">
<polygon fill="#ffffff" stroke="#bfbfbf" points="1288,-132.5 1288,-151.5 1369,-151.5 1369,-132.5 1288,-132.5"/>
<text text-anchor="middle" x="1328.5" y="-139.5" font-family="Helvetica,sans-Serif" font-size="10.00" fill="#000000">std::list&lt; T &gt;</text>
</a>
</g>
</g>
<!-- Node13&#45;&gt;Node5 -->
<g id="edge14" class="edge">
<title>Node13&#45;&gt;Node5</title>
<path fill="none" stroke="#ffa500" stroke-dasharray="5,2" d="M1379.3159,-136.0535C1438.5264,-129.1246 1537.5822,-117.5329 1610.8402,-108.9602"/>
<polygon fill="#ffa500" stroke="#ffa500" points="1378.6212,-132.6108 1369.0958,-137.2494 1379.4349,-139.5633 1378.6212,-132.6108"/>
<text text-anchor="start" x="1428.5" y="-145" font-family="Helvetica,sans-Serif" font-size="10.00" fill="#000000"> &lt; itk::simple::ProcessObject</text>
<text text-anchor="middle" x="1499.5" y="-134" font-family="Helvetica,sans-Serif" font-size="10.00" fill="#000000">::EventCommand &gt;</text>
</g>
<!-- Node14 -->
<g id="node14" class="node">
<title>Node14</title>
<g id="a_node14"><a xlink:title=" ">
<polygon fill="#ffffff" stroke="#bfbfbf" points="988,-170.5 988,-189.5 1017,-189.5 1017,-170.5 988,-170.5"/>
<text text-anchor="middle" x="1002.5" y="-177.5" font-family="Helvetica,sans-Serif" font-size="10.00" fill="#000000">T</text>
</a>
</g>
</g>
<!-- Node14&#45;&gt;Node13 -->
<g id="edge15" class="edge">
<title>Node14&#45;&gt;Node13</title>
<path fill="none" stroke="#9a32cd" stroke-dasharray="5,2" d="M1027.221,-175.8824C1047.1133,-172.6543 1075.8057,-168.1898 1101,-165 1166.1796,-156.7476 1242.1658,-149.5526 1287.7448,-145.4969"/>
<polygon fill="#9a32cd" stroke="#9a32cd" points="1026.4554,-172.4611 1017.1532,-177.5326 1027.5877,-179.3689 1026.4554,-172.4611"/>
<text text-anchor="middle" x="1165.5" y="-168" font-family="Helvetica,sans-Serif" font-size="10.00" fill="#000000"> elements</text>
</g>
<!-- Node21 -->
<g id="node21" class="node">
<title>Node21</title>
<g id="a_node21"><a xlink:title="STL class.">
<polygon fill="#ffffff" stroke="#bfbfbf" points="1269.5,-208.5 1269.5,-227.5 1387.5,-227.5 1387.5,-208.5 1269.5,-208.5"/>
<text text-anchor="middle" x="1328.5" y="-215.5" font-family="Helvetica,sans-Serif" font-size="10.00" fill="#000000">std::unique_ptr&lt; T &gt;</text>
</a>
</g>
</g>
<!-- Node14&#45;&gt;Node21 -->
<g id="edge24" class="edge">
<title>Node14&#45;&gt;Node21</title>
<path fill="none" stroke="#9a32cd" stroke-dasharray="5,2" d="M1027.2503,-183.4183C1047.1591,-186.1313 1075.8595,-189.96 1101,-193 1158.0008,-199.8926 1223.1362,-206.9693 1269.0622,-211.8262"/>
<polygon fill="#9a32cd" stroke="#9a32cd" points="1027.5553,-179.9275 1017.1728,-182.0379 1026.6053,-186.8627 1027.5553,-179.9275"/>
<text text-anchor="middle" x="1165.5" y="-210" font-family="Helvetica,sans-Serif" font-size="10.00" fill="#000000"> ptr</text>
</g>
<!-- Node23 -->
<g id="node23" class="node">
<title>Node23</title>
<g id="a_node23"><a xlink:title="STL class.">
<polygon fill="#ffffff" stroke="#bfbfbf" points="1280,-170.5 1280,-189.5 1377,-189.5 1377,-170.5 1280,-170.5"/>
<text text-anchor="middle" x="1328.5" y="-177.5" font-family="Helvetica,sans-Serif" font-size="10.00" fill="#000000">std::vector&lt; T &gt;</text>
</a>
</g>
</g>
<!-- Node14&#45;&gt;Node23 -->
<g id="edge27" class="edge">
<title>Node14&#45;&gt;Node23</title>
<path fill="none" stroke="#9a32cd" stroke-dasharray="5,2" d="M1027.3873,-180C1081.2612,-180 1209.4992,-180 1279.9998,-180"/>
<polygon fill="#9a32cd" stroke="#9a32cd" points="1027.3547,-176.5001 1017.3547,-180 1027.3546,-183.5001 1027.3547,-176.5001"/>
<text text-anchor="middle" x="1165.5" y="-183" font-family="Helvetica,sans-Serif" font-size="10.00" fill="#000000"> elements</text>
</g>
<!-- Node15 -->
<g id="node15" class="node">
<title>Node15</title>
<g id="a_node15"><a xlink:title=" ">
<polygon fill="#ffffff" stroke="#bfbfbf" points="1590,-205.5 1590,-246.5 1819,-246.5 1819,-205.5 1590,-205.5"/>
<text text-anchor="start" x="1598" y="-234.5" font-family="Helvetica,sans-Serif" font-size="10.00" fill="#000000">std::unique_ptr&lt; itk</text>
<text text-anchor="start" x="1598" y="-223.5" font-family="Helvetica,sans-Serif" font-size="10.00" fill="#000000">::simple::detail::DualMember</text>
<text text-anchor="middle" x="1704.5" y="-212.5" font-family="Helvetica,sans-Serif" font-size="10.00" fill="#000000">FunctionFactory&lt; MemberFunctionType &gt; &gt;</text>
</a>
</g>
</g>
<!-- Node15&#45;&gt;Node1 -->
<g id="edge16" class="edge">
<title>Node15&#45;&gt;Node1</title>
<path fill="none" stroke="#9a32cd" stroke-dasharray="5,2" d="M1829.218,-206.1749C1876.4102,-198.6732 1928.8131,-190.3433 1970.7732,-183.6733"/>
<polygon fill="#9a32cd" stroke="#9a32cd" points="1828.5589,-202.7356 1819.2324,-207.7622 1829.6579,-209.6488 1828.5589,-202.7356"/>
<text text-anchor="middle" x="1895" y="-206" font-family="Helvetica,sans-Serif" font-size="10.00" fill="#000000"> m_DualMemberFactory</text>
</g>
<!-- Node16 -->
<g id="node16" class="node">
<title>Node16</title>
<g id="a_node16"><a xlink:href="classitk_1_1simple_1_1detail_1_1DualMemberFunctionFactory.html" target="_top" xlink:title=" ">
<polygon fill="#ffffff" stroke="#000000" points="1248,-253.5 1248,-294.5 1409,-294.5 1409,-253.5 1248,-253.5"/>
<text text-anchor="start" x="1256" y="-282.5" font-family="Helvetica,sans-Serif" font-size="10.00" fill="#000000">itk::simple::detail</text>
<text text-anchor="start" x="1256" y="-271.5" font-family="Helvetica,sans-Serif" font-size="10.00" fill="#000000">::DualMemberFunctionFactory</text>
<text text-anchor="middle" x="1328.5" y="-260.5" font-family="Helvetica,sans-Serif" font-size="10.00" fill="#000000">&lt; MemberFunctionType &gt;</text>
</a>
</g>
</g>
<!-- Node16&#45;&gt;Node15 -->
<g id="edge17" class="edge">
<title>Node16&#45;&gt;Node15</title>
<path fill="none" stroke="#9a32cd" stroke-dasharray="5,2" d="M1419.3046,-268.0435C1465.2073,-264.4629 1521.7036,-259.1871 1572,-252 1583.0231,-250.4249 1594.5172,-248.5391 1605.9281,-246.5123"/>
<polygon fill="#9a32cd" stroke="#9a32cd" points="1418.7822,-264.5732 1409.0788,-268.8269 1419.317,-271.5528 1418.7822,-264.5732"/>
<text text-anchor="middle" x="1499.5" y="-270" font-family="Helvetica,sans-Serif" font-size="10.00" fill="#000000"> ptr</text>
</g>
<!-- Node17 -->
<g id="node17" class="node">
<title>Node17</title>
<g id="a_node17"><a xlink:href="classitk_1_1simple_1_1detail_1_1MemberFunctionFactoryBase.html" target="_top" xlink:title=" ">
<polygon fill="#ffffff" stroke="#000000" points="742,-209.5 742,-272.5 904,-272.5 904,-209.5 742,-209.5"/>
<text text-anchor="start" x="750" y="-260.5" font-family="Helvetica,sans-Serif" font-size="10.00" fill="#000000">itk::simple::detail</text>
<text text-anchor="start" x="750" y="-249.5" font-family="Helvetica,sans-Serif" font-size="10.00" fill="#000000">::MemberFunctionFactoryBase</text>
<text text-anchor="start" x="750" y="-238.5" font-family="Helvetica,sans-Serif" font-size="10.00" fill="#000000">&lt; MemberFunctionType, std</text>
<text text-anchor="start" x="750" y="-227.5" font-family="Helvetica,sans-Serif" font-size="10.00" fill="#000000">::tuple&lt; unsigned int, int,</text>
<text text-anchor="middle" x="823" y="-216.5" font-family="Helvetica,sans-Serif" font-size="10.00" fill="#000000"> unsigned int, int &gt; &gt;</text>
</a>
</g>
</g>
<!-- Node17&#45;&gt;Node16 -->
<g id="edge18" class="edge">
<title>Node17&#45;&gt;Node16</title>
<path fill="none" stroke="#006400" d="M914.4003,-246.9668C1009.5125,-253.1759 1157.0082,-262.8047 1247.9021,-268.7384"/>
<polygon fill="#006400" stroke="#006400" points="914.4241,-243.461 904.2173,-246.302 913.968,-250.4461 914.4241,-243.461"/>
</g>
<!-- Node18 -->
<g id="node18" class="node">
<title>Node18</title>
<g id="a_node18"><a xlink:href="classitk_1_1simple_1_1detail_1_1MemberFunctionFactoryBase.html" target="_top" xlink:title="A base class for the MemberFunctionFactory.">
<polygon fill="#ffffff" stroke="#000000" points="203,-264 203,-294 365,-294 365,-264 203,-264"/>
<text text-anchor="start" x="211" y="-282" font-family="Helvetica,sans-Serif" font-size="10.00" fill="#000000">itk::simple::detail</text>
<text text-anchor="middle" x="284" y="-271" font-family="Helvetica,sans-Serif" font-size="10.00" fill="#000000">::MemberFunctionFactoryBase</text>
</a>
</g>
</g>
<!-- Node18&#45;&gt;Node17 -->
<g id="edge19" class="edge">
<title>Node18&#45;&gt;Node17</title>
<path fill="none" stroke="#ffa500" stroke-dasharray="5,2" d="M321.1409,-259.5462C339.2683,-251.1232 361.7137,-242.2334 383,-238 506.2488,-213.4882 652.7826,-221.7166 741.7862,-230.73"/>
<polygon fill="#ffa500" stroke="#ffa500" points="319.5929,-256.4068 312.084,-263.8812 322.6151,-262.7208 319.5929,-256.4068"/>
<text text-anchor="start" x="403" y="-274" font-family="Helvetica,sans-Serif" font-size="10.00" fill="#000000"> &lt; MemberFunctionType,</text>
<text text-anchor="start" x="403" y="-263" font-family="Helvetica,sans-Serif" font-size="10.00" fill="#000000"> std::tuple&lt; unsigned</text>
<text text-anchor="start" x="403" y="-252" font-family="Helvetica,sans-Serif" font-size="10.00" fill="#000000"> int, int, unsigned int,</text>
<text text-anchor="middle" x="463.5" y="-241" font-family="Helvetica,sans-Serif" font-size="10.00" fill="#000000"> int &gt; &gt;</text>
</g>
<!-- Node20 -->
<g id="node20" class="node">
<title>Node20</title>
<g id="a_node20"><a xlink:href="classitk_1_1simple_1_1detail_1_1MemberFunctionFactoryBase.html" target="_top" xlink:title=" ">
<polygon fill="#ffffff" stroke="#000000" points="562,-274.5 562,-337.5 724,-337.5 724,-274.5 562,-274.5"/>
<text text-anchor="start" x="570" y="-325.5" font-family="Helvetica,sans-Serif" font-size="10.00" fill="#000000">itk::simple::detail</text>
<text text-anchor="start" x="570" y="-314.5" font-family="Helvetica,sans-Serif" font-size="10.00" fill="#000000">::MemberFunctionFactoryBase</text>
<text text-anchor="start" x="570" y="-303.5" font-family="Helvetica,sans-Serif" font-size="10.00" fill="#000000">&lt; TMemberFunctionPointer,</text>
<text text-anchor="start" x="570" y="-292.5" font-family="Helvetica,sans-Serif" font-size="10.00" fill="#000000"> std::tuple&lt; unsigned int,</text>
<text text-anchor="middle" x="643" y="-281.5" font-family="Helvetica,sans-Serif" font-size="10.00" fill="#000000"> int, unsigned int, int &gt; &gt;</text>
</a>
</g>
</g>
<!-- Node18&#45;&gt;Node20 -->
<g id="edge22" class="edge">
<title>Node18&#45;&gt;Node20</title>
<path fill="none" stroke="#ffa500" stroke-dasharray="5,2" d="M375.201,-285.8591C432.7653,-290.1885 506.464,-295.7313 561.9704,-299.9059"/>
<polygon fill="#ffa500" stroke="#ffa500" points="375.2486,-282.3529 365.0142,-285.093 374.7236,-289.3332 375.2486,-282.3529"/>
<text text-anchor="start" x="394" y="-323" font-family="Helvetica,sans-Serif" font-size="10.00" fill="#000000"> &lt; TMemberFunctionPointer,</text>
<text text-anchor="start" x="394" y="-312" font-family="Helvetica,sans-Serif" font-size="10.00" fill="#000000"> std::tuple&lt; unsigned int,</text>
<text text-anchor="middle" x="463.5" y="-301" font-family="Helvetica,sans-Serif" font-size="10.00" fill="#000000"> int, unsigned int, int &gt; &gt;</text>
</g>
<!-- Node19 -->
<g id="node19" class="node">
<title>Node19</title>
<g id="a_node19"><a xlink:href="classitk_1_1simple_1_1detail_1_1DualMemberFunctionFactory.html" target="_top" xlink:title="A class used to instantiate and generate function objects of templated member functions with two temp...">
<polygon fill="#ffffff" stroke="#000000" points="922,-274.5 922,-315.5 1083,-315.5 1083,-274.5 922,-274.5"/>
<text text-anchor="start" x="930" y="-303.5" font-family="Helvetica,sans-Serif" font-size="10.00" fill="#000000">itk::simple::detail</text>
<text text-anchor="start" x="930" y="-292.5" font-family="Helvetica,sans-Serif" font-size="10.00" fill="#000000">::DualMemberFunctionFactory</text>
<text text-anchor="middle" x="1002.5" y="-281.5" font-family="Helvetica,sans-Serif" font-size="10.00" fill="#000000">&lt; TMemberFunctionPointer &gt;</text>
</a>
</g>
</g>
<!-- Node19&#45;&gt;Node16 -->
<g id="edge20" class="edge">
<title>Node19&#45;&gt;Node16</title>
<path fill="none" stroke="#ffa500" stroke-dasharray="5,2" d="M1093.2741,-289.1526C1141.8274,-286.0249 1201.098,-282.2069 1247.9958,-279.1859"/>
<polygon fill="#ffa500" stroke="#ffa500" points="1092.8386,-285.6733 1083.0843,-289.809 1093.2886,-292.6588 1092.8386,-285.6733"/>
<text text-anchor="middle" x="1165.5" y="-291" font-family="Helvetica,sans-Serif" font-size="10.00" fill="#000000"> &lt; MemberFunctionType &gt;</text>
</g>
<!-- Node20&#45;&gt;Node19 -->
<g id="edge21" class="edge">
<title>Node20&#45;&gt;Node19</title>
<path fill="none" stroke="#006400" d="M734.3646,-303.2044C792.2185,-301.4342 866.3358,-299.1664 921.9781,-297.4638"/>
<polygon fill="#006400" stroke="#006400" points="734.0153,-299.7134 724.1271,-303.5177 734.2295,-306.7101 734.0153,-299.7134"/>
</g>
<!-- Node21&#45;&gt;Node15 -->
<g id="edge23" class="edge">
<title>Node21&#45;&gt;Node15</title>
<path fill="none" stroke="#ffa500" stroke-dasharray="5,2" d="M1397.6762,-217.389C1446.421,-217.1774 1513.2174,-217.3275 1572,-219 1577.8717,-219.1671 1583.8883,-219.3703 1589.9627,-219.6008"/>
<polygon fill="#ffa500" stroke="#ffa500" points="1397.5405,-213.8895 1387.558,-217.4392 1397.5753,-220.8894 1397.5405,-213.8895"/>
<text text-anchor="start" x="1427" y="-244" font-family="Helvetica,sans-Serif" font-size="10.00" fill="#000000"> &lt; itk::simple::detail</text>
<text text-anchor="start" x="1427" y="-233" font-family="Helvetica,sans-Serif" font-size="10.00" fill="#000000">::DualMemberFunctionFactory</text>
<text text-anchor="middle" x="1499.5" y="-222" font-family="Helvetica,sans-Serif" font-size="10.00" fill="#000000">&lt; MemberFunctionType &gt; &gt;</text>
</g>
<!-- Node22 -->
<g id="node22" class="node">
<title>Node22</title>
<g id="a_node22"><a xlink:title=" ">
<polygon fill="#ffffff" stroke="#bfbfbf" points="1642.5,-156 1642.5,-186 1766.5,-186 1766.5,-156 1642.5,-156"/>
<text text-anchor="start" x="1650.5" y="-174" font-family="Helvetica,sans-Serif" font-size="10.00" fill="#000000">std::vector&lt; unsigned</text>
<text text-anchor="middle" x="1704.5" y="-163" font-family="Helvetica,sans-Serif" font-size="10.00" fill="#000000"> char &gt;</text>
</a>
</g>
</g>
<!-- Node22&#45;&gt;Node1 -->
<g id="edge25" class="edge">
<title>Node22&#45;&gt;Node1</title>
<path fill="none" stroke="#9a32cd" stroke-dasharray="5,2" d="M1777.0711,-171C1833.7292,-171 1912.3714,-171 1970.7783,-171"/>
<polygon fill="#9a32cd" stroke="#9a32cd" points="1776.7575,-167.5001 1766.7575,-171 1776.7574,-174.5001 1776.7575,-167.5001"/>
<text text-anchor="middle" x="1895" y="-174" font-family="Helvetica,sans-Serif" font-size="10.00" fill="#000000"> m_Colormap</text>
</g>
<!-- Node23&#45;&gt;Node22 -->
<g id="edge26" class="edge">
<title>Node23&#45;&gt;Node22</title>
<path fill="none" stroke="#ffa500" stroke-dasharray="5,2" d="M1387.5917,-178.5856C1457.0149,-176.9238 1571.6715,-174.1794 1642.3795,-172.4869"/>
<polygon fill="#ffa500" stroke="#ffa500" points="1387.1833,-175.0942 1377.27,-178.8326 1387.3509,-182.0922 1387.1833,-175.0942"/>
<text text-anchor="middle" x="1499.5" y="-180" font-family="Helvetica,sans-Serif" font-size="10.00" fill="#000000"> &lt; unsigned char &gt;</text>
</g>
</g>
</svg>
        <g id="navigator" transform="translate(0 0)" fill="#404254">
                <rect fill="#f2f5e9" fill-opacity="0.5" stroke="#606060" stroke-width=".5" x="0" y="0" width="60" height="60"/>
                <use id="zoomplus" xlink:href="#zoomPlus" x="17" y="9" onmousedown="handleZoom(evt,'in')"/>
                <use id="zoomminus" xlink:href="#zoomMin" x="42" y="9" onmousedown="handleZoom(evt,'out')"/>
                <use id="reset" xlink:href="#resetDef" x="30" y="36" onmousedown="handleReset()"/>
                <g id="arrowUp" xlink:href="#dirArrow" transform="translate(30 24)" onmousedown="handlePan(0,-1)">
                  <use xlink:href="#rim" fill="#404040">
                        <set attributeName="fill" to="#808080" begin="arrowUp.mouseover" end="arrowUp.mouseout"/>
                  </use>
                  <path fill="none" stroke="white" stroke-width="1.5" d="M0,-3.0v7 M-2.5,-0.5L0,-3.0L2.5,-0.5"/>
                </g>
                <g id="arrowRight" xlink:href="#dirArrow" transform="rotate(90) translate(36 -43)" onmousedown="handlePan(1,0)">
                  <use xlink:href="#rim" fill="#404040">
                        <set attributeName="fill" to="#808080" begin="arrowRight.mouseover" end="arrowRight.mouseout"/>
                  </use>
                  <path fill="none" stroke="white" stroke-width="1.5" d="M0,-3.0v7 M-2.5,-0.5L0,-3.0L2.5,-0.5"/>
                </g>
                <g id="arrowDown" xlink:href="#dirArrow" transform="rotate(180) translate(-30 -48)" onmousedown="handlePan(0,1)">
                  <use xlink:href="#rim" fill="#404040">
                        <set attributeName="fill" to="#808080" begin="arrowDown.mouseover" end="arrowDown.mouseout"/>
                  </use>
                  <path fill="none" stroke="white" stroke-width="1.5" d="M0,-3.0v7 M-2.5,-0.5L0,-3.0L2.5,-0.5"/>
                </g>
                <g id="arrowLeft" xlink:href="#dirArrow" transform="rotate(270) translate(-36 17)" onmousedown="handlePan(-1,0)">
                  <use xlink:href="#rim" fill="#404040">
                        <set attributeName="fill" to="#808080" begin="arrowLeft.mouseover" end="arrowLeft.mouseout"/>
                  </use>
                  <path fill="none" stroke="white" stroke-width="1.5" d="M0,-3.0v7 M-2.5,-0.5L0,-3.0L2.5,-0.5"/>
                </g>
        </g>
        <svg viewBox="0 0 15 15" width="100%" height="30px" preserveAspectRatio="xMaxYMin meet">
         <g id="arrow_out" transform="scale(0.3 0.3)">
          <a xlink:href="classitk_1_1simple_1_1LabelMapOverlayImageFilter__coll__graph_org.svg" target="_base">
           <rect id="button" ry="5" rx="5" y="6" x="6" height="38" width="38"
                fill="#f2f5e9" fill-opacity="0.5" stroke="#606060" stroke-width="1.0"/>
           <path id="arrow"
             d="M 11.500037,31.436501 C 11.940474,20.09759 22.043105,11.32322 32.158766,21.979434 L 37.068811,17.246167 C 37.068811,17.246167 37.088388,32 37.088388,32 L 22.160133,31.978069 C 22.160133,31.978069 26.997745,27.140456 26.997745,27.140456 C 18.528582,18.264221 13.291696,25.230495 11.500037,31.436501 z"
             style="fill:#404040;"/>
          </a>
         </g>
        </svg>
</svg>
