<?xml version="1.0" encoding="UTF-8" standalone="no"?>
<!DOCTYPE svg PUBLIC "-//W3C//DTD SVG 1.1//EN"
 "http://www.w3.org/Graphics/SVG/1.1/DTD/svg11.dtd">
<!-- Generated by graphviz version 2.40.1 (20161225.0304)
 -->
<!-- Title: itk::simple::OtsuMultipleThresholdsImageFilter Pages: 1 -->
<svg width="2040pt" height="329pt"
 viewBox="0.00 0.00 2040.00 328.50" xmlns="http://www.w3.org/2000/svg" xmlns:xlink="http://www.w3.org/1999/xlink">
<g id="graph0" class="graph" transform="scale(1 1) rotate(0) translate(4 324.5)">
<title>itk::simple::OtsuMultipleThresholdsImageFilter</title>
<polygon fill="#ffffff" stroke="transparent" points="-4,4 -4,-324.5 2036,-324.5 2036,4 -4,4"/>
<!-- Node1 -->
<g id="node1" class="node">
<title>Node1</title>
<g id="a_node1"><a xlink:title="Threshold an image using multiple Otsu Thresholds.">
<polygon fill="#bfbfbf" stroke="#000000" points="1896,-157 1896,-187 2032,-187 2032,-157 1896,-157"/>
<text text-anchor="start" x="1904" y="-175" font-family="Helvetica,sans-Serif" font-size="10.00" fill="#000000">itk::simple::OtsuMultiple</text>
<text text-anchor="middle" x="1964" y="-164" font-family="Helvetica,sans-Serif" font-size="10.00" fill="#000000">ThresholdsImageFilter</text>
</a>
</g>
</g>
<!-- Node2 -->
<g id="node2" class="node">
<title>Node2</title>
<g id="a_node2"><a xlink:href="classitk_1_1simple_1_1ImageFilter.html" target="_top" xlink:title="The base interface for SimpleITK filters that take one input image.">
<polygon fill="#ffffff" stroke="#000000" points="768.5,-.5 768.5,-19.5 897.5,-19.5 897.5,-.5 768.5,-.5"/>
<text text-anchor="middle" x="833" y="-7.5" font-family="Helvetica,sans-Serif" font-size="10.00" fill="#000000">itk::simple::ImageFilter</text>
</a>
</g>
</g>
<!-- Node2&#45;&gt;Node1 -->
<g id="edge1" class="edge">
<title>Node2&#45;&gt;Node1</title>
<path fill="none" stroke="#191970" d="M907.8731,-8.619C977.0601,-7.4626 1082.7137,-6 1174.5,-6 1174.5,-6 1174.5,-6 1672,-6 1793.5841,-6 1910.8126,-116.1134 1950.1295,-156.9758"/>
<polygon fill="#191970" stroke="#191970" points="907.4524,-5.1255 897.5132,-8.7944 907.571,-12.1245 907.4524,-5.1255"/>
</g>
<!-- Node3 -->
<g id="node3" class="node">
<title>Node3</title>
<g id="a_node3"><a xlink:href="classitk_1_1simple_1_1ProcessObject.html" target="_top" xlink:title="Base class for SimpleITK classes based on ProcessObject.">
<polygon fill="#ffffff" stroke="#000000" points="212.5,-53.5 212.5,-72.5 355.5,-72.5 355.5,-53.5 212.5,-53.5"/>
<text text-anchor="middle" x="284" y="-60.5" font-family="Helvetica,sans-Serif" font-size="10.00" fill="#000000">itk::simple::ProcessObject</text>
</a>
</g>
</g>
<!-- Node3&#45;&gt;Node2 -->
<g id="edge2" class="edge">
<title>Node3&#45;&gt;Node2</title>
<path fill="none" stroke="#191970" d="M325.3101,-50.7493C342.9332,-45.9989 363.8195,-40.9921 383,-38 518.9263,-16.7961 680.3109,-11.5094 768.1344,-10.2785"/>
<polygon fill="#191970" stroke="#191970" points="324.0565,-47.4644 315.3486,-53.4995 325.9194,-54.212 324.0565,-47.4644"/>
</g>
<!-- Node10 -->
<g id="node10" class="node">
<title>Node10</title>
<g id="a_node10"><a xlink:title=" ">
<polygon fill="#ffffff" stroke="#bfbfbf" points="590,-140 590,-170 706,-170 706,-140 590,-140"/>
<text text-anchor="start" x="598" y="-158" font-family="Helvetica,sans-Serif" font-size="10.00" fill="#000000">std::set&lt; itk::simple</text>
<text text-anchor="middle" x="648" y="-147" font-family="Helvetica,sans-Serif" font-size="10.00" fill="#000000">::ProcessObject * &gt;</text>
</a>
</g>
</g>
<!-- Node3&#45;&gt;Node10 -->
<g id="edge11" class="edge">
<title>Node3&#45;&gt;Node10</title>
<path fill="none" stroke="#9a32cd" stroke-dasharray="5,2" d="M331.7127,-75.0593C398.1224,-91.8441 518.3031,-122.2195 589.8655,-140.3067"/>
<polygon fill="#9a32cd" stroke="#9a32cd" points="332.4771,-71.6425 321.9243,-72.5853 330.7617,-78.429 332.4771,-71.6425"/>
<text text-anchor="middle" x="463.5" y="-131" font-family="Helvetica,sans-Serif" font-size="10.00" fill="#000000"> keys</text>
</g>
<!-- Node4 -->
<g id="node4" class="node">
<title>Node4</title>
<g id="a_node4"><a xlink:href="classitk_1_1simple_1_1NonCopyable.html" target="_top" xlink:title="An inheritable class to disable copying of a class.">
<polygon fill="#ffffff" stroke="#000000" points="0,-86.5 0,-105.5 140,-105.5 140,-86.5 0,-86.5"/>
<text text-anchor="middle" x="70" y="-93.5" font-family="Helvetica,sans-Serif" font-size="10.00" fill="#000000">itk::simple::NonCopyable</text>
</a>
</g>
</g>
<!-- Node4&#45;&gt;Node3 -->
<g id="edge3" class="edge">
<title>Node4&#45;&gt;Node3</title>
<path fill="none" stroke="#006400" d="M141.7937,-84.929C167.8222,-80.9153 196.9787,-76.4192 222.0833,-72.5479"/>
<polygon fill="#006400" stroke="#006400" points="140.9603,-81.5161 131.6106,-86.4993 142.0272,-88.4343 140.9603,-81.5161"/>
</g>
<!-- Node7 -->
<g id="node7" class="node">
<title>Node7</title>
<g id="a_node7"><a xlink:href="classitk_1_1simple_1_1Command.html" target="_top" xlink:title="An implementation of the Command design pattern for callback.">
<polygon fill="#ffffff" stroke="#000000" points="949.5,-115.5 949.5,-134.5 1074.5,-134.5 1074.5,-115.5 949.5,-115.5"/>
<text text-anchor="middle" x="1012" y="-122.5" font-family="Helvetica,sans-Serif" font-size="10.00" fill="#000000">itk::simple::Command</text>
</a>
</g>
</g>
<!-- Node4&#45;&gt;Node7 -->
<g id="edge7" class="edge">
<title>Node4&#45;&gt;Node7</title>
<path fill="none" stroke="#006400" d="M150.1813,-98.4684C334.187,-104.1331 783.6416,-117.9699 949.3264,-123.0706"/>
<polygon fill="#006400" stroke="#006400" points="150.1365,-94.9655 140.0335,-98.156 149.921,-101.9622 150.1365,-94.9655"/>
</g>
<!-- Node5 -->
<g id="node5" class="node">
<title>Node5</title>
<g id="a_node5"><a xlink:title=" ">
<polygon fill="#ffffff" stroke="#bfbfbf" points="1578.5,-81 1578.5,-111 1765.5,-111 1765.5,-81 1578.5,-81"/>
<text text-anchor="start" x="1586.5" y="-99" font-family="Helvetica,sans-Serif" font-size="10.00" fill="#000000">std::list&lt; itk::simple</text>
<text text-anchor="middle" x="1672" y="-88" font-family="Helvetica,sans-Serif" font-size="10.00" fill="#000000">::ProcessObject::EventCommand &gt;</text>
</a>
</g>
</g>
<!-- Node5&#45;&gt;Node3 -->
<g id="edge4" class="edge">
<title>Node5&#45;&gt;Node3</title>
<path fill="none" stroke="#9a32cd" stroke-dasharray="5,2" d="M1587.9829,-79.1673C1518.6733,-66.748 1417.6084,-52 1328.5,-52 648,-52 648,-52 648,-52 546.5266,-52 429.2138,-56.3238 355.8088,-59.5497"/>
<polygon fill="#9a32cd" stroke="#9a32cd" points="1587.5089,-82.6384 1597.9732,-80.9808 1588.7591,-75.751 1587.5089,-82.6384"/>
<text text-anchor="middle" x="1012" y="-55" font-family="Helvetica,sans-Serif" font-size="10.00" fill="#000000"> m_Commands</text>
</g>
<!-- Node6 -->
<g id="node6" class="node">
<title>Node6</title>
<g id="a_node6"><a xlink:href="structitk_1_1simple_1_1ProcessObject_1_1EventCommand.html" target="_top" xlink:title=" ">
<polygon fill="#ffffff" stroke="#000000" points="1257,-81 1257,-111 1400,-111 1400,-81 1257,-81"/>
<text text-anchor="start" x="1265" y="-99" font-family="Helvetica,sans-Serif" font-size="10.00" fill="#000000">itk::simple::ProcessObject</text>
<text text-anchor="middle" x="1328.5" y="-88" font-family="Helvetica,sans-Serif" font-size="10.00" fill="#000000">::EventCommand</text>
</a>
</g>
</g>
<!-- Node6&#45;&gt;Node5 -->
<g id="edge5" class="edge">
<title>Node6&#45;&gt;Node5</title>
<path fill="none" stroke="#9a32cd" stroke-dasharray="5,2" d="M1410.3129,-96C1460.8095,-96 1525.7546,-96 1578.3118,-96"/>
<polygon fill="#9a32cd" stroke="#9a32cd" points="1410.0908,-92.5001 1400.0907,-96 1410.0907,-99.5001 1410.0908,-92.5001"/>
<text text-anchor="middle" x="1489" y="-99" font-family="Helvetica,sans-Serif" font-size="10.00" fill="#000000"> elements</text>
</g>
<!-- Node7&#45;&gt;Node6 -->
<g id="edge6" class="edge">
<title>Node7&#45;&gt;Node6</title>
<path fill="none" stroke="#9a32cd" stroke-dasharray="5,2" d="M1073.8909,-113.9103C1085.8423,-112.0482 1098.2875,-110.3011 1110,-109 1158.9106,-103.5667 1214.2502,-100.3038 1256.9985,-98.4058"/>
<polygon fill="#9a32cd" stroke="#9a32cd" points="1073.3158,-110.4577 1063.9947,-115.4943 1074.4222,-117.3698 1073.3158,-110.4577"/>
<text text-anchor="middle" x="1174.5" y="-112" font-family="Helvetica,sans-Serif" font-size="10.00" fill="#000000"> m_Command</text>
</g>
<!-- Node8 -->
<g id="node8" class="node">
<title>Node8</title>
<g id="a_node8"><a xlink:title="STL class.">
<polygon fill="#ffffff" stroke="#bfbfbf" points="615.5,-189.5 615.5,-208.5 680.5,-208.5 680.5,-189.5 615.5,-189.5"/>
<text text-anchor="middle" x="648" y="-196.5" font-family="Helvetica,sans-Serif" font-size="10.00" fill="#000000">std::string</text>
</a>
</g>
</g>
<!-- Node8&#45;&gt;Node7 -->
<g id="edge8" class="edge">
<title>Node8&#45;&gt;Node7</title>
<path fill="none" stroke="#9a32cd" stroke-dasharray="5,2" d="M690.8624,-195.9926C743.9096,-191.5983 836.6995,-181.7058 914,-162 941.1387,-155.0817 971.0901,-143.0975 990.6494,-134.6459"/>
<polygon fill="#9a32cd" stroke="#9a32cd" points="690.4875,-192.5114 680.7993,-196.7995 691.0471,-199.489 690.4875,-192.5114"/>
<text text-anchor="middle" x="833" y="-192" font-family="Helvetica,sans-Serif" font-size="10.00" fill="#000000"> m_Name</text>
</g>
<!-- Node9 -->
<g id="node9" class="node">
<title>Node9</title>
<g id="a_node9"><a xlink:title="STL class.">
<polygon fill="#ffffff" stroke="#bfbfbf" points="232,-184 232,-214 336,-214 336,-184 232,-184"/>
<text text-anchor="start" x="240" y="-202" font-family="Helvetica,sans-Serif" font-size="10.00" fill="#000000">std::basic_string&lt;</text>
<text text-anchor="middle" x="284" y="-191" font-family="Helvetica,sans-Serif" font-size="10.00" fill="#000000"> char &gt;</text>
</a>
</g>
</g>
<!-- Node9&#45;&gt;Node8 -->
<g id="edge9" class="edge">
<title>Node9&#45;&gt;Node8</title>
<path fill="none" stroke="#191970" d="M346.325,-199C424.2948,-199 554.9016,-199 615.4072,-199"/>
<polygon fill="#191970" stroke="#191970" points="346.1524,-195.5001 336.1523,-199 346.1523,-202.5001 346.1524,-195.5001"/>
</g>
<!-- Node10&#45;&gt;Node7 -->
<g id="edge10" class="edge">
<title>Node10&#45;&gt;Node7</title>
<path fill="none" stroke="#9a32cd" stroke-dasharray="5,2" d="M716.1019,-149.3872C783.0065,-143.8731 884.2464,-135.5291 949.2441,-130.1722"/>
<polygon fill="#9a32cd" stroke="#9a32cd" points="715.7581,-145.9036 706.0794,-150.2132 716.3331,-152.8799 715.7581,-145.9036"/>
<text text-anchor="middle" x="833" y="-150" font-family="Helvetica,sans-Serif" font-size="10.00" fill="#000000"> m_ReferencedObjects</text>
</g>
<!-- Node11 -->
<g id="node11" class="node">
<title>Node11</title>
<g id="a_node11"><a xlink:title="STL class.">
<polygon fill="#ffffff" stroke="#bfbfbf" points="243,-145.5 243,-164.5 325,-164.5 325,-145.5 243,-145.5"/>
<text text-anchor="middle" x="284" y="-152.5" font-family="Helvetica,sans-Serif" font-size="10.00" fill="#000000">std::set&lt; K &gt;</text>
</a>
</g>
</g>
<!-- Node11&#45;&gt;Node10 -->
<g id="edge12" class="edge">
<title>Node11&#45;&gt;Node10</title>
<path fill="none" stroke="#ffa500" stroke-dasharray="5,2" d="M335.3639,-155C402.4082,-155 519.4541,-155 589.7379,-155"/>
<polygon fill="#ffa500" stroke="#ffa500" points="335.0479,-151.5001 325.0479,-155 335.0478,-158.5001 335.0479,-151.5001"/>
<text text-anchor="middle" x="463.5" y="-158" font-family="Helvetica,sans-Serif" font-size="10.00" fill="#000000"> &lt; itk::simple::ProcessObject * &gt;</text>
</g>
<!-- Node12 -->
<g id="node12" class="node">
<title>Node12</title>
<g id="a_node12"><a xlink:title=" ">
<polygon fill="#ffffff" stroke="#bfbfbf" points="55.5,-145.5 55.5,-164.5 84.5,-164.5 84.5,-145.5 55.5,-145.5"/>
<text text-anchor="middle" x="70" y="-152.5" font-family="Helvetica,sans-Serif" font-size="10.00" fill="#000000">K</text>
</a>
</g>
</g>
<!-- Node12&#45;&gt;Node11 -->
<g id="edge13" class="edge">
<title>Node12&#45;&gt;Node11</title>
<path fill="none" stroke="#9a32cd" stroke-dasharray="5,2" d="M94.9038,-155C131.2222,-155 199.1487,-155 242.9345,-155"/>
<polygon fill="#9a32cd" stroke="#9a32cd" points="94.7091,-151.5001 84.7091,-155 94.7091,-158.5001 94.7091,-151.5001"/>
<text text-anchor="middle" x="171.5" y="-158" font-family="Helvetica,sans-Serif" font-size="10.00" fill="#000000"> keys</text>
</g>
<!-- Node13 -->
<g id="node13" class="node">
<title>Node13</title>
<g id="a_node13"><a xlink:title="STL class.">
<polygon fill="#ffffff" stroke="#bfbfbf" points="1288,-130.5 1288,-149.5 1369,-149.5 1369,-130.5 1288,-130.5"/>
<text text-anchor="middle" x="1328.5" y="-137.5" font-family="Helvetica,sans-Serif" font-size="10.00" fill="#000000">std::list&lt; T &gt;</text>
</a>
</g>
</g>
<!-- Node13&#45;&gt;Node5 -->
<g id="edge14" class="edge">
<title>Node13&#45;&gt;Node5</title>
<path fill="none" stroke="#ffa500" stroke-dasharray="5,2" d="M1379.2828,-133.4951C1431.5268,-126.803 1514.1043,-116.2254 1578.2506,-108.0087"/>
<polygon fill="#ffa500" stroke="#ffa500" points="1378.7271,-130.0376 1369.2529,-134.7798 1379.6165,-136.9808 1378.7271,-130.0376"/>
<text text-anchor="start" x="1418" y="-143" font-family="Helvetica,sans-Serif" font-size="10.00" fill="#000000"> &lt; itk::simple::ProcessObject</text>
<text text-anchor="middle" x="1489" y="-132" font-family="Helvetica,sans-Serif" font-size="10.00" fill="#000000">::EventCommand &gt;</text>
</g>
<!-- Node14 -->
<g id="node14" class="node">
<title>Node14</title>
<g id="a_node14"><a xlink:title=" ">
<polygon fill="#ffffff" stroke="#bfbfbf" points="997.5,-168.5 997.5,-187.5 1026.5,-187.5 1026.5,-168.5 997.5,-168.5"/>
<text text-anchor="middle" x="1012" y="-175.5" font-family="Helvetica,sans-Serif" font-size="10.00" fill="#000000">T</text>
</a>
</g>
</g>
<!-- Node14&#45;&gt;Node13 -->
<g id="edge15" class="edge">
<title>Node14&#45;&gt;Node13</title>
<path fill="none" stroke="#9a32cd" stroke-dasharray="5,2" d="M1036.5982,-173.9071C1056.391,-170.693 1084.9385,-166.2352 1110,-163 1171.8516,-155.0156 1243.824,-147.8483 1287.76,-143.7112"/>
<polygon fill="#9a32cd" stroke="#9a32cd" points="1035.8828,-170.4776 1026.5806,-175.5491 1037.0151,-177.3854 1035.8828,-170.4776"/>
<text text-anchor="middle" x="1174.5" y="-166" font-family="Helvetica,sans-Serif" font-size="10.00" fill="#000000"> elements</text>
</g>
<!-- Node21 -->
<g id="node21" class="node">
<title>Node21</title>
<g id="a_node21"><a xlink:title="STL class.">
<polygon fill="#ffffff" stroke="#bfbfbf" points="1269.5,-206.5 1269.5,-225.5 1387.5,-225.5 1387.5,-206.5 1269.5,-206.5"/>
<text text-anchor="middle" x="1328.5" y="-213.5" font-family="Helvetica,sans-Serif" font-size="10.00" fill="#000000">std::unique_ptr&lt; T &gt;</text>
</a>
</g>
</g>
<!-- Node14&#45;&gt;Node21 -->
<g id="edge24" class="edge">
<title>Node14&#45;&gt;Node21</title>
<path fill="none" stroke="#9a32cd" stroke-dasharray="5,2" d="M1036.6278,-181.3915C1056.4372,-184.0895 1084.9927,-187.911 1110,-191 1163.8088,-197.6467 1225.1512,-204.6117 1269.1137,-209.4968"/>
<polygon fill="#9a32cd" stroke="#9a32cd" points="1036.9825,-177.9075 1026.6004,-180.0201 1036.0338,-184.843 1036.9825,-177.9075"/>
<text text-anchor="middle" x="1174.5" y="-208" font-family="Helvetica,sans-Serif" font-size="10.00" fill="#000000"> ptr</text>
</g>
<!-- Node23 -->
<g id="node23" class="node">
<title>Node23</title>
<g id="a_node23"><a xlink:title="STL class.">
<polygon fill="#ffffff" stroke="#bfbfbf" points="1280,-168.5 1280,-187.5 1377,-187.5 1377,-168.5 1280,-168.5"/>
<text text-anchor="middle" x="1328.5" y="-175.5" font-family="Helvetica,sans-Serif" font-size="10.00" fill="#000000">std::vector&lt; T &gt;</text>
</a>
</g>
</g>
<!-- Node14&#45;&gt;Node23 -->
<g id="edge27" class="edge">
<title>Node14&#45;&gt;Node23</title>
<path fill="none" stroke="#9a32cd" stroke-dasharray="5,2" d="M1036.9008,-178C1089.2195,-178 1211.3678,-178 1279.8134,-178"/>
<polygon fill="#9a32cd" stroke="#9a32cd" points="1036.841,-174.5001 1026.8409,-178 1036.8409,-181.5001 1036.841,-174.5001"/>
<text text-anchor="middle" x="1174.5" y="-181" font-family="Helvetica,sans-Serif" font-size="10.00" fill="#000000"> elements</text>
</g>
<!-- Node15 -->
<g id="node15" class="node">
<title>Node15</title>
<g id="a_node15"><a xlink:title=" ">
<polygon fill="#ffffff" stroke="#bfbfbf" points="1578,-200.5 1578,-241.5 1766,-241.5 1766,-200.5 1578,-200.5"/>
<text text-anchor="start" x="1586" y="-229.5" font-family="Helvetica,sans-Serif" font-size="10.00" fill="#000000">std::unique_ptr&lt; itk</text>
<text text-anchor="start" x="1586" y="-218.5" font-family="Helvetica,sans-Serif" font-size="10.00" fill="#000000">::simple::detail::MemberFunction</text>
<text text-anchor="middle" x="1672" y="-207.5" font-family="Helvetica,sans-Serif" font-size="10.00" fill="#000000">Factory&lt; MemberFunctionType &gt; &gt;</text>
</a>
</g>
</g>
<!-- Node15&#45;&gt;Node1 -->
<g id="edge16" class="edge">
<title>Node15&#45;&gt;Node1</title>
<path fill="none" stroke="#9a32cd" stroke-dasharray="5,2" d="M1776.1263,-204.0034C1808.7527,-198.627 1844.885,-192.6206 1878,-187 1883.8275,-186.0109 1889.8753,-184.975 1895.9412,-183.9296"/>
<polygon fill="#9a32cd" stroke="#9a32cd" points="1775.4193,-200.5726 1766.1207,-205.6506 1776.5564,-207.4797 1775.4193,-200.5726"/>
<text text-anchor="middle" x="1831" y="-205" font-family="Helvetica,sans-Serif" font-size="10.00" fill="#000000"> m_MemberFactory</text>
</g>
<!-- Node16 -->
<g id="node16" class="node">
<title>Node16</title>
<g id="a_node16"><a xlink:href="classitk_1_1simple_1_1detail_1_1MemberFunctionFactory.html" target="_top" xlink:title=" ">
<polygon fill="#ffffff" stroke="#000000" points="1257.5,-251.5 1257.5,-292.5 1399.5,-292.5 1399.5,-251.5 1257.5,-251.5"/>
<text text-anchor="start" x="1265.5" y="-280.5" font-family="Helvetica,sans-Serif" font-size="10.00" fill="#000000">itk::simple::detail</text>
<text text-anchor="start" x="1265.5" y="-269.5" font-family="Helvetica,sans-Serif" font-size="10.00" fill="#000000">::MemberFunctionFactory</text>
<text text-anchor="middle" x="1328.5" y="-258.5" font-family="Helvetica,sans-Serif" font-size="10.00" fill="#000000">&lt; MemberFunctionType &gt;</text>
</a>
</g>
</g>
<!-- Node16&#45;&gt;Node15 -->
<g id="edge17" class="edge">
<title>Node16&#45;&gt;Node15</title>
<path fill="none" stroke="#9a32cd" stroke-dasharray="5,2" d="M1409.7585,-267.4431C1454.3458,-264.1501 1510.477,-258.7079 1560,-250 1572.8584,-247.739 1586.4076,-244.7566 1599.4679,-241.5649"/>
<polygon fill="#9a32cd" stroke="#9a32cd" points="1409.282,-263.9681 1399.5578,-268.174 1409.7824,-270.9502 1409.282,-263.9681"/>
<text text-anchor="middle" x="1489" y="-269" font-family="Helvetica,sans-Serif" font-size="10.00" fill="#000000"> ptr</text>
</g>
<!-- Node17 -->
<g id="node17" class="node">
<title>Node17</title>
<g id="a_node17"><a xlink:href="classitk_1_1simple_1_1detail_1_1MemberFunctionFactoryBase.html" target="_top" xlink:title=" ">
<polygon fill="#ffffff" stroke="#000000" points="752,-213 752,-265 914,-265 914,-213 752,-213"/>
<text text-anchor="start" x="760" y="-253" font-family="Helvetica,sans-Serif" font-size="10.00" fill="#000000">itk::simple::detail</text>
<text text-anchor="start" x="760" y="-242" font-family="Helvetica,sans-Serif" font-size="10.00" fill="#000000">::MemberFunctionFactoryBase</text>
<text text-anchor="start" x="760" y="-231" font-family="Helvetica,sans-Serif" font-size="10.00" fill="#000000">&lt; MemberFunctionType, std</text>
<text text-anchor="middle" x="833" y="-220" font-family="Helvetica,sans-Serif" font-size="10.00" fill="#000000">::pair&lt; unsigned int, int &gt; &gt;</text>
</a>
</g>
</g>
<!-- Node17&#45;&gt;Node16 -->
<g id="edge18" class="edge">
<title>Node17&#45;&gt;Node16</title>
<path fill="none" stroke="#006400" d="M924.2597,-245.0778C1020.3107,-251.4748 1169.495,-261.4104 1257.2427,-267.2543"/>
<polygon fill="#006400" stroke="#006400" points="924.4774,-241.5847 914.2669,-244.4123 924.0122,-248.5692 924.4774,-241.5847"/>
</g>
<!-- Node18 -->
<g id="node18" class="node">
<title>Node18</title>
<g id="a_node18"><a xlink:href="classitk_1_1simple_1_1detail_1_1MemberFunctionFactoryBase.html" target="_top" xlink:title="A base class for the MemberFunctionFactory.">
<polygon fill="#ffffff" stroke="#000000" points="203,-256 203,-286 365,-286 365,-256 203,-256"/>
<text text-anchor="start" x="211" y="-274" font-family="Helvetica,sans-Serif" font-size="10.00" fill="#000000">itk::simple::detail</text>
<text text-anchor="middle" x="284" y="-263" font-family="Helvetica,sans-Serif" font-size="10.00" fill="#000000">::MemberFunctionFactoryBase</text>
</a>
</g>
</g>
<!-- Node18&#45;&gt;Node17 -->
<g id="edge19" class="edge">
<title>Node18&#45;&gt;Node17</title>
<path fill="none" stroke="#ffa500" stroke-dasharray="5,2" d="M332.4522,-252.6324C348.3214,-247.4839 366.1952,-242.5886 383,-240 510.7899,-220.3149 661.4254,-225.6641 751.959,-231.9062"/>
<polygon fill="#ffa500" stroke="#ffa500" points="331.2246,-249.3525 322.858,-255.8525 333.452,-255.9887 331.2246,-249.3525"/>
<text text-anchor="start" x="403" y="-265" font-family="Helvetica,sans-Serif" font-size="10.00" fill="#000000"> &lt; MemberFunctionType,</text>
<text text-anchor="start" x="403" y="-254" font-family="Helvetica,sans-Serif" font-size="10.00" fill="#000000"> std::pair&lt; unsigned</text>
<text text-anchor="middle" x="463.5" y="-243" font-family="Helvetica,sans-Serif" font-size="10.00" fill="#000000"> int, int &gt; &gt;</text>
</g>
<!-- Node20 -->
<g id="node20" class="node">
<title>Node20</title>
<g id="a_node20"><a xlink:href="classitk_1_1simple_1_1detail_1_1MemberFunctionFactoryBase.html" target="_top" xlink:title=" ">
<polygon fill="#ffffff" stroke="#000000" points="562,-268 562,-320 734,-320 734,-268 562,-268"/>
<text text-anchor="start" x="570" y="-308" font-family="Helvetica,sans-Serif" font-size="10.00" fill="#000000">itk::simple::detail</text>
<text text-anchor="start" x="570" y="-297" font-family="Helvetica,sans-Serif" font-size="10.00" fill="#000000">::MemberFunctionFactoryBase</text>
<text text-anchor="start" x="570" y="-286" font-family="Helvetica,sans-Serif" font-size="10.00" fill="#000000">&lt; TMemberFunctionPointer,</text>
<text text-anchor="middle" x="648" y="-275" font-family="Helvetica,sans-Serif" font-size="10.00" fill="#000000"> std::pair&lt; unsigned int, int &gt; &gt;</text>
</a>
</g>
</g>
<!-- Node18&#45;&gt;Node20 -->
<g id="edge22" class="edge">
<title>Node18&#45;&gt;Node20</title>
<path fill="none" stroke="#ffa500" stroke-dasharray="5,2" d="M375.3568,-276.7725C432.5494,-280.3864 505.7782,-285.0135 561.9397,-288.5621"/>
<polygon fill="#ffa500" stroke="#ffa500" points="375.4365,-273.2707 365.2356,-276.133 374.995,-280.2568 375.4365,-273.2707"/>
<text text-anchor="start" x="394" y="-312" font-family="Helvetica,sans-Serif" font-size="10.00" fill="#000000"> &lt; TMemberFunctionPointer,</text>
<text text-anchor="start" x="394" y="-301" font-family="Helvetica,sans-Serif" font-size="10.00" fill="#000000"> std::pair&lt; unsigned int,</text>
<text text-anchor="middle" x="463.5" y="-290" font-family="Helvetica,sans-Serif" font-size="10.00" fill="#000000"> int &gt; &gt;</text>
</g>
<!-- Node19 -->
<g id="node19" class="node">
<title>Node19</title>
<g id="a_node19"><a xlink:href="classitk_1_1simple_1_1detail_1_1MemberFunctionFactory.html" target="_top" xlink:title="A class used to instantiate and generate function object to templated member functions.">
<polygon fill="#ffffff" stroke="#000000" points="932,-270.5 932,-311.5 1092,-311.5 1092,-270.5 932,-270.5"/>
<text text-anchor="start" x="940" y="-299.5" font-family="Helvetica,sans-Serif" font-size="10.00" fill="#000000">itk::simple::detail</text>
<text text-anchor="start" x="940" y="-288.5" font-family="Helvetica,sans-Serif" font-size="10.00" fill="#000000">::MemberFunctionFactory</text>
<text text-anchor="middle" x="1012" y="-277.5" font-family="Helvetica,sans-Serif" font-size="10.00" fill="#000000">&lt; TMemberFunctionPointer &gt;</text>
</a>
</g>
</g>
<!-- Node19&#45;&gt;Node16 -->
<g id="edge20" class="edge">
<title>Node19&#45;&gt;Node16</title>
<path fill="none" stroke="#ffa500" stroke-dasharray="5,2" d="M1102.2905,-285.5797C1151.5336,-282.6236 1211.6147,-279.0168 1257.4789,-276.2635"/>
<polygon fill="#ffa500" stroke="#ffa500" points="1102.0477,-282.0879 1092.2755,-286.1809 1102.4673,-289.0753 1102.0477,-282.0879"/>
<text text-anchor="middle" x="1174.5" y="-287" font-family="Helvetica,sans-Serif" font-size="10.00" fill="#000000"> &lt; MemberFunctionType &gt;</text>
</g>
<!-- Node20&#45;&gt;Node19 -->
<g id="edge21" class="edge">
<title>Node20&#45;&gt;Node19</title>
<path fill="none" stroke="#006400" d="M744.623,-293.2037C803.0927,-292.7218 876.7628,-292.1146 931.9603,-291.6597"/>
<polygon fill="#006400" stroke="#006400" points="744.2337,-289.7067 734.2629,-293.289 744.2915,-296.7064 744.2337,-289.7067"/>
</g>
<!-- Node21&#45;&gt;Node15 -->
<g id="edge23" class="edge">
<title>Node21&#45;&gt;Node15</title>
<path fill="none" stroke="#ffa500" stroke-dasharray="5,2" d="M1398.1321,-215.7317C1444.0958,-215.6948 1505.6442,-215.9122 1560,-217 1565.8359,-217.1168 1571.8421,-217.2611 1577.8985,-217.425"/>
<polygon fill="#ffa500" stroke="#ffa500" points="1397.9763,-212.2317 1387.9807,-215.7441 1397.985,-219.2317 1397.9763,-212.2317"/>
<text text-anchor="start" x="1420.5" y="-242" font-family="Helvetica,sans-Serif" font-size="10.00" fill="#000000"> &lt; itk::simple::detail</text>
<text text-anchor="start" x="1420.5" y="-231" font-family="Helvetica,sans-Serif" font-size="10.00" fill="#000000">::MemberFunctionFactory</text>
<text text-anchor="middle" x="1489" y="-220" font-family="Helvetica,sans-Serif" font-size="10.00" fill="#000000">&lt; MemberFunctionType &gt; &gt;</text>
</g>
<!-- Node22 -->
<g id="node22" class="node">
<title>Node22</title>
<g id="a_node22"><a xlink:title=" ">
<polygon fill="#ffffff" stroke="#bfbfbf" points="1610,-162.5 1610,-181.5 1734,-181.5 1734,-162.5 1610,-162.5"/>
<text text-anchor="middle" x="1672" y="-169.5" font-family="Helvetica,sans-Serif" font-size="10.00" fill="#000000">std::vector&lt; double &gt;</text>
</a>
</g>
</g>
<!-- Node22&#45;&gt;Node1 -->
<g id="edge25" class="edge">
<title>Node22&#45;&gt;Node1</title>
<path fill="none" stroke="#9a32cd" stroke-dasharray="5,2" d="M1744.5522,-172C1790.8734,-172 1850.5322,-172 1895.951,-172"/>
<polygon fill="#9a32cd" stroke="#9a32cd" points="1744.2832,-168.5001 1734.2832,-172 1744.2831,-175.5001 1744.2832,-168.5001"/>
<text text-anchor="middle" x="1831" y="-175" font-family="Helvetica,sans-Serif" font-size="10.00" fill="#000000"> m_Thresholds</text>
</g>
<!-- Node23&#45;&gt;Node22 -->
<g id="edge26" class="edge">
<title>Node23&#45;&gt;Node22</title>
<path fill="none" stroke="#ffa500" stroke-dasharray="5,2" d="M1387.3722,-176.9717C1449.4146,-175.888 1546.7283,-174.1882 1609.9455,-173.0839"/>
<polygon fill="#ffa500" stroke="#ffa500" points="1387.2877,-173.4725 1377.3504,-177.1467 1387.41,-180.4714 1387.2877,-173.4725"/>
<text text-anchor="middle" x="1489" y="-179" font-family="Helvetica,sans-Serif" font-size="10.00" fill="#000000"> &lt; double &gt;</text>
</g>
</g>
</svg>
