<?xml version="1.0" encoding="UTF-8" standalone="no"?>
<!DOCTYPE svg PUBLIC "-//W3C//DTD SVG 1.1//EN"
 "http://www.w3.org/Graphics/SVG/1.1/DTD/svg11.dtd">
<!-- Generated by graphviz version 2.40.1 (20161225.0304)
 -->
<!-- Title: itk::simple::ImageFilter Pages: 1 -->
<!--zoomable 418 -->
<svg id="main" version="1.1" xmlns="http://www.w3.org/2000/svg" xmlns:xlink="http://www.w3.org/1999/xlink" xml:space="preserve" onload="init(evt)">
<style type="text/css"><![CDATA[
.edge:hover path { stroke: red; }
.edge:hover polygon { stroke: red; fill: red; }
]]></style>
<script type="text/javascript"><![CDATA[
var edges = document.getElementsByTagName('g');
if (edges && edges.length) {
  for (var i=0;i<edges.length;i++) {
    if (edges[i].id.substr(0,4)=='edge') {
      edges[i].setAttribute('class','edge');
    }
  }
}
]]></script>
        <defs>
                <circle id="rim" cx="0" cy="0" r="7"/>
                <circle id="rim2" cx="0" cy="0" r="3.5"/>
                <g id="zoomPlus">
                        <use xlink:href="#rim" fill="#404040">
                                <set attributeName="fill" to="#808080" begin="zoomplus.mouseover" end="zoomplus.mouseout"/>
                        </use>
                        <path d="M-4,0h8M0,-4v8" fill="none" stroke="white" stroke-width="1.5" pointer-events="none"/>
                </g>
                <g id="zoomMin">
                        <use xlink:href="#rim" fill="#404040">
                                <set attributeName="fill" to="#808080" begin="zoomminus.mouseover" end="zoomminus.mouseout"/>
                        </use>
                        <path d="M-4,0h8" fill="none" stroke="white" stroke-width="1.5" pointer-events="none"/>
                </g>
                <g id="dirArrow">
                        <path fill="none" stroke="white" stroke-width="1.5" d="M0,-3.0v7 M-2.5,-0.5L0,-3.0L2.5,-0.5"/>
                </g>
               <g id="resetDef">
                       <use xlink:href="#rim2" fill="#404040">
                               <set attributeName="fill" to="#808080" begin="reset.mouseover" end="reset.mouseout"/>
                       </use>
               </g>
        </defs>

<script type="text/javascript">
var viewWidth = 514;
var viewHeight = 418;
var sectionId = 'dynsection-0';
</script>
<script xlink:href="svgpan.js"/>
<svg id="graph" class="graph">
<g id="viewport">
<title>itk::simple::ImageFilter</title>
<polygon fill="#ffffff" stroke="transparent" points="-4,4 -4,-414 510,-414 510,4 -4,4"/>
<!-- Node1 -->
<g id="node1" class="node">
<title>Node1</title>
<g id="a_node1"><a xlink:title="The base interface for SimpleITK filters that take one input image.">
<polygon fill="#bfbfbf" stroke="#000000" points="28.5,-240 28.5,-259 157.5,-259 157.5,-240 28.5,-240"/>
<text text-anchor="middle" x="93" y="-247" font-family="Helvetica,sans-Serif" font-size="10.00" fill="#000000">itk::simple::ImageFilter</text>
</a>
</g>
</g>
<!-- Node2 -->
<g id="node2" class="node">
<title>Node2</title>
<g id="a_node2"><a xlink:href="classitk_1_1simple_1_1ProcessObject.html" target="_top" xlink:title="Base class for SimpleITK classes based on ProcessObject.">
<polygon fill="#ffffff" stroke="#000000" points="21.5,-318 21.5,-337 164.5,-337 164.5,-318 21.5,-318"/>
<text text-anchor="middle" x="93" y="-325" font-family="Helvetica,sans-Serif" font-size="10.00" fill="#000000">itk::simple::ProcessObject</text>
</a>
</g>
</g>
<!-- Node2&#45;&gt;Node1 -->
<g id="edge1" class="edge">
<title>Node2&#45;&gt;Node1</title>
<path fill="none" stroke="#191970" d="M93,-307.7866C93,-292.2395 93,-271.2276 93,-259.1426"/>
<polygon fill="#191970" stroke="#191970" points="89.5001,-307.9356 93,-317.9357 96.5001,-307.9357 89.5001,-307.9356"/>
</g>
<!-- Node9 -->
<g id="node9" class="node">
<title>Node9</title>
<g id="a_node9"><a xlink:title=" ">
<polygon fill="#ffffff" stroke="#bfbfbf" points="176,-234.5 176,-264.5 292,-264.5 292,-234.5 176,-234.5"/>
<text text-anchor="start" x="184" y="-252.5" font-family="Helvetica,sans-Serif" font-size="10.00" fill="#000000">std::set&lt; itk::simple</text>
<text text-anchor="middle" x="234" y="-241.5" font-family="Helvetica,sans-Serif" font-size="10.00" fill="#000000">::ProcessObject * &gt;</text>
</a>
</g>
</g>
<!-- Node2&#45;&gt;Node9 -->
<g id="edge10" class="edge">
<title>Node2&#45;&gt;Node9</title>
<path fill="none" stroke="#9a32cd" stroke-dasharray="5,2" d="M115.4909,-312.4868C129.2623,-303.5261 147.377,-292.1484 164,-283 175.6853,-276.569 188.8013,-270.102 200.494,-264.5886"/>
<polygon fill="#9a32cd" stroke="#9a32cd" points="113.5656,-309.5639 107.1277,-317.9784 117.4078,-315.4152 113.5656,-309.5639"/>
<text text-anchor="middle" x="177.5" y="-286" font-family="Helvetica,sans-Serif" font-size="10.00" fill="#000000"> keys</text>
</g>
<!-- Node3 -->
<g id="node3" class="node">
<title>Node3</title>
<g id="a_node3"><a xlink:href="classitk_1_1simple_1_1NonCopyable.html" target="_top" xlink:title="An inheritable class to disable copying of a class.">
<polygon fill="#ffffff" stroke="#000000" points="44,-390.5 44,-409.5 184,-409.5 184,-390.5 44,-390.5"/>
<text text-anchor="middle" x="114" y="-397.5" font-family="Helvetica,sans-Serif" font-size="10.00" fill="#000000">itk::simple::NonCopyable</text>
</a>
</g>
</g>
<!-- Node3&#45;&gt;Node2 -->
<g id="edge2" class="edge">
<title>Node3&#45;&gt;Node2</title>
<path fill="none" stroke="#006400" d="M108.3574,-380.5195C104.2915,-366.4826 98.9793,-348.1427 95.7873,-337.1228"/>
<polygon fill="#006400" stroke="#006400" points="105.0238,-381.5909 111.1678,-390.2223 111.7474,-379.6434 105.0238,-381.5909"/>
</g>
<!-- Node6 -->
<g id="node6" class="node">
<title>Node6</title>
<g id="a_node6"><a xlink:href="classitk_1_1simple_1_1Command.html" target="_top" xlink:title="An implementation of the Command design pattern for callback.">
<polygon fill="#ffffff" stroke="#000000" points="237.5,-167.5 237.5,-186.5 362.5,-186.5 362.5,-167.5 237.5,-167.5"/>
<text text-anchor="middle" x="300" y="-174.5" font-family="Helvetica,sans-Serif" font-size="10.00" fill="#000000">itk::simple::Command</text>
</a>
</g>
</g>
<!-- Node3&#45;&gt;Node6 -->
<g id="edge6" class="edge">
<title>Node3&#45;&gt;Node6</title>
<path fill="none" stroke="#006400" d="M194.2851,-390.3263C279.739,-379.2075 404.6619,-360.2659 419,-343 458.4145,-295.5372 445.5666,-250.5899 404,-205 397.0711,-197.4004 376.895,-191.162 356.1354,-186.5182"/>
<polygon fill="#006400" stroke="#006400" points="193.8002,-386.8598 184.3297,-391.6096 194.6952,-393.8023 193.8002,-386.8598"/>
</g>
<!-- Node4 -->
<g id="node4" class="node">
<title>Node4</title>
<g id="a_node4"><a xlink:title=" ">
<polygon fill="#ffffff" stroke="#bfbfbf" points="188.5,-.5 188.5,-30.5 375.5,-30.5 375.5,-.5 188.5,-.5"/>
<text text-anchor="start" x="196.5" y="-18.5" font-family="Helvetica,sans-Serif" font-size="10.00" fill="#000000">std::list&lt; itk::simple</text>
<text text-anchor="middle" x="282" y="-7.5" font-family="Helvetica,sans-Serif" font-size="10.00" fill="#000000">::ProcessObject::EventCommand &gt;</text>
</a>
</g>
</g>
<!-- Node4&#45;&gt;Node2 -->
<g id="edge3" class="edge">
<title>Node4&#45;&gt;Node2</title>
<path fill="none" stroke="#9a32cd" stroke-dasharray="5,2" d="M178.2755,-28.6253C97.8529,-41.8031 0,-65.7905 0,-104.5 0,-249.5 0,-249.5 0,-249.5 0,-284.0595 38.1672,-306.3508 65.5999,-317.9094"/>
<polygon fill="#9a32cd" stroke="#9a32cd" points="179.1672,-32.0273 188.4898,-26.9935 178.0628,-25.115 179.1672,-32.0273"/>
<text text-anchor="middle" x="37" y="-174.5" font-family="Helvetica,sans-Serif" font-size="10.00" fill="#000000"> m_Commands</text>
</g>
<!-- Node5 -->
<g id="node5" class="node">
<title>Node5</title>
<g id="a_node5"><a xlink:href="structitk_1_1simple_1_1ProcessObject_1_1EventCommand.html" target="_top" xlink:title=" ">
<polygon fill="#ffffff" stroke="#000000" points="210.5,-89.5 210.5,-119.5 353.5,-119.5 353.5,-89.5 210.5,-89.5"/>
<text text-anchor="start" x="218.5" y="-107.5" font-family="Helvetica,sans-Serif" font-size="10.00" fill="#000000">itk::simple::ProcessObject</text>
<text text-anchor="middle" x="282" y="-96.5" font-family="Helvetica,sans-Serif" font-size="10.00" fill="#000000">::EventCommand</text>
</a>
</g>
</g>
<!-- Node5&#45;&gt;Node4 -->
<g id="edge4" class="edge">
<title>Node5&#45;&gt;Node4</title>
<path fill="none" stroke="#9a32cd" stroke-dasharray="5,2" d="M282,-79.31C282,-63.6343 282,-43.9926 282,-30.6717"/>
<polygon fill="#9a32cd" stroke="#9a32cd" points="278.5001,-79.4023 282,-89.4024 285.5001,-79.4024 278.5001,-79.4023"/>
<text text-anchor="middle" x="306.5" y="-57.5" font-family="Helvetica,sans-Serif" font-size="10.00" fill="#000000"> elements</text>
</g>
<!-- Node6&#45;&gt;Node5 -->
<g id="edge5" class="edge">
<title>Node6&#45;&gt;Node5</title>
<path fill="none" stroke="#9a32cd" stroke-dasharray="5,2" d="M295.1293,-157.3817C292.1843,-145.52 288.4862,-130.6248 285.7659,-119.668"/>
<polygon fill="#9a32cd" stroke="#9a32cd" points="291.7659,-158.3604 297.5724,-167.2223 298.5596,-156.6736 291.7659,-158.3604"/>
<text text-anchor="middle" x="326.5" y="-141" font-family="Helvetica,sans-Serif" font-size="10.00" fill="#000000"> m_Command</text>
</g>
<!-- Node7 -->
<g id="node7" class="node">
<title>Node7</title>
<g id="a_node7"><a xlink:title="STL class.">
<polygon fill="#ffffff" stroke="#bfbfbf" points="334.5,-240 334.5,-259 399.5,-259 399.5,-240 334.5,-240"/>
<text text-anchor="middle" x="367" y="-247" font-family="Helvetica,sans-Serif" font-size="10.00" fill="#000000">std::string</text>
</a>
</g>
</g>
<!-- Node7&#45;&gt;Node6 -->
<g id="edge7" class="edge">
<title>Node7&#45;&gt;Node6</title>
<path fill="none" stroke="#9a32cd" stroke-dasharray="5,2" d="M360.2713,-230.2759C356.6629,-221.8556 351.5861,-212.2614 345,-205 338.2001,-197.5029 328.9355,-191.2789 320.5797,-186.6182"/>
<polygon fill="#9a32cd" stroke="#9a32cd" points="357.0609,-231.6773 363.9473,-239.7289 363.5849,-229.1402 357.0609,-231.6773"/>
<text text-anchor="middle" x="376" y="-208" font-family="Helvetica,sans-Serif" font-size="10.00" fill="#000000"> m_Name</text>
</g>
<!-- Node8 -->
<g id="node8" class="node">
<title>Node8</title>
<g id="a_node8"><a xlink:title="STL class.">
<polygon fill="#ffffff" stroke="#bfbfbf" points="306,-312.5 306,-342.5 410,-342.5 410,-312.5 306,-312.5"/>
<text text-anchor="start" x="314" y="-330.5" font-family="Helvetica,sans-Serif" font-size="10.00" fill="#000000">std::basic_string&lt;</text>
<text text-anchor="middle" x="358" y="-319.5" font-family="Helvetica,sans-Serif" font-size="10.00" fill="#000000"> char &gt;</text>
</a>
</g>
</g>
<!-- Node8&#45;&gt;Node7 -->
<g id="edge8" class="edge">
<title>Node8&#45;&gt;Node7</title>
<path fill="none" stroke="#191970" d="M360.8966,-302.3962C362.6,-287.6331 364.6561,-269.8138 365.8942,-259.0839"/>
<polygon fill="#191970" stroke="#191970" points="357.4047,-302.1255 359.7353,-312.4608 364.3586,-302.9279 357.4047,-302.1255"/>
</g>
<!-- Node9&#45;&gt;Node6 -->
<g id="edge9" class="edge">
<title>Node9&#45;&gt;Node6</title>
<path fill="none" stroke="#9a32cd" stroke-dasharray="5,2" d="M229.8193,-224.1262C229.9334,-217.4395 231.2576,-210.5502 235,-205 240.6329,-196.6462 249.3262,-190.7712 258.5414,-186.6442"/>
<polygon fill="#9a32cd" stroke="#9a32cd" points="226.3352,-224.4877 230.4626,-234.2455 233.321,-224.0435 226.3352,-224.4877"/>
<text text-anchor="middle" x="290" y="-208" font-family="Helvetica,sans-Serif" font-size="10.00" fill="#000000"> m_ReferencedObjects</text>
</g>
<!-- Node10 -->
<g id="node10" class="node">
<title>Node10</title>
<g id="a_node10"><a xlink:title="STL class.">
<polygon fill="#ffffff" stroke="#bfbfbf" points="183,-318 183,-337 265,-337 265,-318 183,-318"/>
<text text-anchor="middle" x="224" y="-325" font-family="Helvetica,sans-Serif" font-size="10.00" fill="#000000">std::set&lt; K &gt;</text>
</a>
</g>
</g>
<!-- Node10&#45;&gt;Node9 -->
<g id="edge11" class="edge">
<title>Node10&#45;&gt;Node9</title>
<path fill="none" stroke="#ffa500" stroke-dasharray="5,2" d="M203.7597,-310.368C196.8019,-302.3455 191.7178,-292.4837 196,-283 199.185,-275.9463 204.6705,-269.7835 210.4986,-264.7326"/>
<polygon fill="#ffa500" stroke="#ffa500" points="201.5255,-313.0844 211.0644,-317.6952 206.4829,-308.1422 201.5255,-313.0844"/>
<text text-anchor="middle" x="276.5" y="-286" font-family="Helvetica,sans-Serif" font-size="10.00" fill="#000000"> &lt; itk::simple::ProcessObject * &gt;</text>
</g>
<!-- Node11 -->
<g id="node11" class="node">
<title>Node11</title>
<g id="a_node11"><a xlink:title=" ">
<polygon fill="#ffffff" stroke="#bfbfbf" points="209.5,-390.5 209.5,-409.5 238.5,-409.5 238.5,-390.5 209.5,-390.5"/>
<text text-anchor="middle" x="224" y="-397.5" font-family="Helvetica,sans-Serif" font-size="10.00" fill="#000000">K</text>
</a>
</g>
</g>
<!-- Node11&#45;&gt;Node10 -->
<g id="edge12" class="edge">
<title>Node11&#45;&gt;Node10</title>
<path fill="none" stroke="#9a32cd" stroke-dasharray="5,2" d="M224,-380.1054C224,-366.1237 224,-348.0346 224,-337.1228"/>
<polygon fill="#9a32cd" stroke="#9a32cd" points="220.5001,-380.2223 224,-390.2223 227.5001,-380.2224 220.5001,-380.2223"/>
<text text-anchor="middle" x="237.5" y="-364" font-family="Helvetica,sans-Serif" font-size="10.00" fill="#000000"> keys</text>
</g>
<!-- Node12 -->
<g id="node12" class="node">
<title>Node12</title>
<g id="a_node12"><a xlink:title="STL class.">
<polygon fill="#ffffff" stroke="#bfbfbf" points="371.5,-95 371.5,-114 452.5,-114 452.5,-95 371.5,-95"/>
<text text-anchor="middle" x="412" y="-102" font-family="Helvetica,sans-Serif" font-size="10.00" fill="#000000">std::list&lt; T &gt;</text>
</a>
</g>
</g>
<!-- Node12&#45;&gt;Node4 -->
<g id="edge13" class="edge">
<title>Node12&#45;&gt;Node4</title>
<path fill="none" stroke="#ffa500" stroke-dasharray="5,2" d="M390.8171,-88.7012C375.4862,-77.3979 354.1768,-61.9542 335,-49 325.7994,-42.7849 315.5167,-36.2042 306.4747,-30.536"/>
<polygon fill="#ffa500" stroke="#ffa500" points="388.9721,-91.69 399.0916,-94.8278 393.1376,-86.0643 388.9721,-91.69"/>
<text text-anchor="start" x="364" y="-63" font-family="Helvetica,sans-Serif" font-size="10.00" fill="#000000"> &lt; itk::simple::ProcessObject</text>
<text text-anchor="middle" x="435" y="-52" font-family="Helvetica,sans-Serif" font-size="10.00" fill="#000000">::EventCommand &gt;</text>
</g>
<!-- Node13 -->
<g id="node13" class="node">
<title>Node13</title>
<g id="a_node13"><a xlink:title=" ">
<polygon fill="#ffffff" stroke="#bfbfbf" points="397.5,-167.5 397.5,-186.5 426.5,-186.5 426.5,-167.5 397.5,-167.5"/>
<text text-anchor="middle" x="412" y="-174.5" font-family="Helvetica,sans-Serif" font-size="10.00" fill="#000000">T</text>
</a>
</g>
</g>
<!-- Node13&#45;&gt;Node12 -->
<g id="edge14" class="edge">
<title>Node13&#45;&gt;Node12</title>
<path fill="none" stroke="#9a32cd" stroke-dasharray="5,2" d="M412,-157.1054C412,-143.1237 412,-125.0346 412,-114.1228"/>
<polygon fill="#9a32cd" stroke="#9a32cd" points="408.5001,-157.2223 412,-167.2223 415.5001,-157.2224 408.5001,-157.2223"/>
<text text-anchor="middle" x="436.5" y="-141" font-family="Helvetica,sans-Serif" font-size="10.00" fill="#000000"> elements</text>
</g>
</g>
</svg>
        <g id="navigator" transform="translate(0 0)" fill="#404254">
                <rect fill="#f2f5e9" fill-opacity="0.5" stroke="#606060" stroke-width=".5" x="0" y="0" width="60" height="60"/>
                <use id="zoomplus" xlink:href="#zoomPlus" x="17" y="9" onmousedown="handleZoom(evt,'in')"/>
                <use id="zoomminus" xlink:href="#zoomMin" x="42" y="9" onmousedown="handleZoom(evt,'out')"/>
                <use id="reset" xlink:href="#resetDef" x="30" y="36" onmousedown="handleReset()"/>
                <g id="arrowUp" xlink:href="#dirArrow" transform="translate(30 24)" onmousedown="handlePan(0,-1)">
                  <use xlink:href="#rim" fill="#404040">
                        <set attributeName="fill" to="#808080" begin="arrowUp.mouseover" end="arrowUp.mouseout"/>
                  </use>
                  <path fill="none" stroke="white" stroke-width="1.5" d="M0,-3.0v7 M-2.5,-0.5L0,-3.0L2.5,-0.5"/>
                </g>
                <g id="arrowRight" xlink:href="#dirArrow" transform="rotate(90) translate(36 -43)" onmousedown="handlePan(1,0)">
                  <use xlink:href="#rim" fill="#404040">
                        <set attributeName="fill" to="#808080" begin="arrowRight.mouseover" end="arrowRight.mouseout"/>
                  </use>
                  <path fill="none" stroke="white" stroke-width="1.5" d="M0,-3.0v7 M-2.5,-0.5L0,-3.0L2.5,-0.5"/>
                </g>
                <g id="arrowDown" xlink:href="#dirArrow" transform="rotate(180) translate(-30 -48)" onmousedown="handlePan(0,1)">
                  <use xlink:href="#rim" fill="#404040">
                        <set attributeName="fill" to="#808080" begin="arrowDown.mouseover" end="arrowDown.mouseout"/>
                  </use>
                  <path fill="none" stroke="white" stroke-width="1.5" d="M0,-3.0v7 M-2.5,-0.5L0,-3.0L2.5,-0.5"/>
                </g>
                <g id="arrowLeft" xlink:href="#dirArrow" transform="rotate(270) translate(-36 17)" onmousedown="handlePan(-1,0)">
                  <use xlink:href="#rim" fill="#404040">
                        <set attributeName="fill" to="#808080" begin="arrowLeft.mouseover" end="arrowLeft.mouseout"/>
                  </use>
                  <path fill="none" stroke="white" stroke-width="1.5" d="M0,-3.0v7 M-2.5,-0.5L0,-3.0L2.5,-0.5"/>
                </g>
        </g>
        <svg viewBox="0 0 15 15" width="100%" height="30px" preserveAspectRatio="xMaxYMin meet">
         <g id="arrow_out" transform="scale(0.3 0.3)">
          <a xlink:href="classitk_1_1simple_1_1ImageFilter__coll__graph_org.svg" target="_base">
           <rect id="button" ry="5" rx="5" y="6" x="6" height="38" width="38"
                fill="#f2f5e9" fill-opacity="0.5" stroke="#606060" stroke-width="1.0"/>
           <path id="arrow"
             d="M 11.500037,31.436501 C 11.940474,20.09759 22.043105,11.32322 32.158766,21.979434 L 37.068811,17.246167 C 37.068811,17.246167 37.088388,32 37.088388,32 L 22.160133,31.978069 C 22.160133,31.978069 26.997745,27.140456 26.997745,27.140456 C 18.528582,18.264221 13.291696,25.230495 11.500037,31.436501 z"
             style="fill:#404040;"/>
          </a>
         </g>
        </svg>
</svg>
