<?xml version="1.0" encoding="UTF-8" standalone="no"?>
<!DOCTYPE svg PUBLIC "-//W3C//DTD SVG 1.1//EN"
 "http://www.w3.org/Graphics/SVG/1.1/DTD/svg11.dtd">
<!-- Generated by graphviz version 2.40.1 (20161225.0304)
 -->
<!-- Title: itk::simple::ImageReaderBase Pages: 1 -->
<!--zoomable 418 -->
<svg id="main" version="1.1" xmlns="http://www.w3.org/2000/svg" xmlns:xlink="http://www.w3.org/1999/xlink" xml:space="preserve" onload="init(evt)">
<style type="text/css"><![CDATA[
.edge:hover path { stroke: red; }
.edge:hover polygon { stroke: red; fill: red; }
]]></style>
<script type="text/javascript"><![CDATA[
var edges = document.getElementsByTagName('g');
if (edges && edges.length) {
  for (var i=0;i<edges.length;i++) {
    if (edges[i].id.substr(0,4)=='edge') {
      edges[i].setAttribute('class','edge');
    }
  }
}
]]></script>
        <defs>
                <circle id="rim" cx="0" cy="0" r="7"/>
                <circle id="rim2" cx="0" cy="0" r="3.5"/>
                <g id="zoomPlus">
                        <use xlink:href="#rim" fill="#404040">
                                <set attributeName="fill" to="#808080" begin="zoomplus.mouseover" end="zoomplus.mouseout"/>
                        </use>
                        <path d="M-4,0h8M0,-4v8" fill="none" stroke="white" stroke-width="1.5" pointer-events="none"/>
                </g>
                <g id="zoomMin">
                        <use xlink:href="#rim" fill="#404040">
                                <set attributeName="fill" to="#808080" begin="zoomminus.mouseover" end="zoomminus.mouseout"/>
                        </use>
                        <path d="M-4,0h8" fill="none" stroke="white" stroke-width="1.5" pointer-events="none"/>
                </g>
                <g id="dirArrow">
                        <path fill="none" stroke="white" stroke-width="1.5" d="M0,-3.0v7 M-2.5,-0.5L0,-3.0L2.5,-0.5"/>
                </g>
               <g id="resetDef">
                       <use xlink:href="#rim2" fill="#404040">
                               <set attributeName="fill" to="#808080" begin="reset.mouseover" end="reset.mouseout"/>
                       </use>
               </g>
        </defs>

<script type="text/javascript">
var viewWidth = 668;
var viewHeight = 418;
var sectionId = 'dynsection-1';
</script>
<script xlink:href="svgpan.js"/>
<svg id="graph" class="graph">
<g id="viewport">
<title>itk::simple::ImageReaderBase</title>
<polygon fill="#ffffff" stroke="transparent" points="-4,4 -4,-414 664,-414 664,4 -4,4"/>
<!-- Node1 -->
<g id="node1" class="node">
<title>Node1</title>
<g id="a_node1"><a xlink:title="An abract base class for image readers.">
<polygon fill="#bfbfbf" stroke="#000000" points="295.5,-240 295.5,-259 458.5,-259 458.5,-240 295.5,-240"/>
<text text-anchor="middle" x="377" y="-247" font-family="Helvetica,sans-Serif" font-size="10.00" fill="#000000">itk::simple::ImageReaderBase</text>
</a>
</g>
</g>
<!-- Node2 -->
<g id="node2" class="node">
<title>Node2</title>
<g id="a_node2"><a xlink:href="classitk_1_1simple_1_1ProcessObject.html" target="_top" xlink:title="Base class for SimpleITK classes based on ProcessObject.">
<polygon fill="#ffffff" stroke="#000000" points="229.5,-312.5 229.5,-331.5 372.5,-331.5 372.5,-312.5 229.5,-312.5"/>
<text text-anchor="middle" x="301" y="-319.5" font-family="Helvetica,sans-Serif" font-size="10.00" fill="#000000">itk::simple::ProcessObject</text>
</a>
</g>
</g>
<!-- Node2&#45;&gt;Node1 -->
<g id="edge1" class="edge">
<title>Node2&#45;&gt;Node1</title>
<path fill="none" stroke="#191970" d="M318.8736,-304.9495C333.8472,-290.6655 354.6813,-270.7909 366.9127,-259.1228"/>
<polygon fill="#191970" stroke="#191970" points="316.0696,-302.7873 311.2497,-312.2223 320.9013,-307.8523 316.0696,-302.7873"/>
</g>
<!-- Node9 -->
<g id="node9" class="node">
<title>Node9</title>
<g id="a_node9"><a xlink:title=" ">
<polygon fill="#ffffff" stroke="#bfbfbf" points="84,-234.5 84,-264.5 200,-264.5 200,-234.5 84,-234.5"/>
<text text-anchor="start" x="92" y="-252.5" font-family="Helvetica,sans-Serif" font-size="10.00" fill="#000000">std::set&lt; itk::simple</text>
<text text-anchor="middle" x="142" y="-241.5" font-family="Helvetica,sans-Serif" font-size="10.00" fill="#000000">::ProcessObject * &gt;</text>
</a>
</g>
</g>
<!-- Node2&#45;&gt;Node9 -->
<g id="edge10" class="edge">
<title>Node2&#45;&gt;Node9</title>
<path fill="none" stroke="#9a32cd" stroke-dasharray="5,2" d="M263.1309,-308.9497C251.1242,-304.5237 237.8856,-299.3398 226,-294 206.2794,-285.1403 184.7457,-273.6953 168.4184,-264.6309"/>
<polygon fill="#9a32cd" stroke="#9a32cd" points="262.2757,-312.3624 272.87,-312.4762 264.659,-305.7806 262.2757,-312.3624"/>
<text text-anchor="middle" x="239.5" y="-286" font-family="Helvetica,sans-Serif" font-size="10.00" fill="#000000"> keys</text>
</g>
<!-- Node3 -->
<g id="node3" class="node">
<title>Node3</title>
<g id="a_node3"><a xlink:href="classitk_1_1simple_1_1NonCopyable.html" target="_top" xlink:title="An inheritable class to disable copying of a class.">
<polygon fill="#ffffff" stroke="#000000" points="339,-385 339,-404 479,-404 479,-385 339,-385"/>
<text text-anchor="middle" x="409" y="-392" font-family="Helvetica,sans-Serif" font-size="10.00" fill="#000000">itk::simple::NonCopyable</text>
</a>
</g>
</g>
<!-- Node3&#45;&gt;Node2 -->
<g id="edge2" class="edge">
<title>Node3&#45;&gt;Node2</title>
<path fill="none" stroke="#006400" d="M385.9296,-379.0129C364.5322,-364.649 333.3599,-343.7231 315.3346,-331.6228"/>
<polygon fill="#006400" stroke="#006400" points="384.1811,-382.0547 394.4346,-384.7223 388.0827,-376.2427 384.1811,-382.0547"/>
</g>
<!-- Node6 -->
<g id="node6" class="node">
<title>Node6</title>
<g id="a_node6"><a xlink:href="classitk_1_1simple_1_1Command.html" target="_top" xlink:title="An implementation of the Command design pattern for callback.">
<polygon fill="#ffffff" stroke="#000000" points="391.5,-167.5 391.5,-186.5 516.5,-186.5 516.5,-167.5 391.5,-167.5"/>
<text text-anchor="middle" x="454" y="-174.5" font-family="Helvetica,sans-Serif" font-size="10.00" fill="#000000">itk::simple::Command</text>
</a>
</g>
</g>
<!-- Node3&#45;&gt;Node6 -->
<g id="edge6" class="edge">
<title>Node3&#45;&gt;Node6</title>
<path fill="none" stroke="#006400" d="M420.4696,-376.0923C434.8952,-351.7506 458.8798,-307.0159 468,-265 474.1365,-236.7296 463.8378,-202.8051 457.8403,-186.5714"/>
<polygon fill="#006400" stroke="#006400" points="417.3027,-374.5651 415.1153,-384.9317 423.2899,-378.1918 417.3027,-374.5651"/>
</g>
<!-- Node4 -->
<g id="node4" class="node">
<title>Node4</title>
<g id="a_node4"><a xlink:title=" ">
<polygon fill="#ffffff" stroke="#bfbfbf" points="342.5,-.5 342.5,-30.5 529.5,-30.5 529.5,-.5 342.5,-.5"/>
<text text-anchor="start" x="350.5" y="-18.5" font-family="Helvetica,sans-Serif" font-size="10.00" fill="#000000">std::list&lt; itk::simple</text>
<text text-anchor="middle" x="436" y="-7.5" font-family="Helvetica,sans-Serif" font-size="10.00" fill="#000000">::ProcessObject::EventCommand &gt;</text>
</a>
</g>
</g>
<!-- Node4&#45;&gt;Node2 -->
<g id="edge3" class="edge">
<title>Node4&#45;&gt;Node2</title>
<path fill="none" stroke="#9a32cd" stroke-dasharray="5,2" d="M333.4995,-33.8378C298.0312,-46.5809 267,-68.1242 267,-104.5 267,-249.5 267,-249.5 267,-249.5 267,-273.9678 283.0703,-299.06 293.1143,-312.3531"/>
<polygon fill="#9a32cd" stroke="#9a32cd" points="334.7221,-37.1195 343.0954,-30.6281 332.5016,-30.4811 334.7221,-37.1195"/>
<text text-anchor="middle" x="304" y="-174.5" font-family="Helvetica,sans-Serif" font-size="10.00" fill="#000000"> m_Commands</text>
</g>
<!-- Node5 -->
<g id="node5" class="node">
<title>Node5</title>
<g id="a_node5"><a xlink:href="structitk_1_1simple_1_1ProcessObject_1_1EventCommand.html" target="_top" xlink:title=" ">
<polygon fill="#ffffff" stroke="#000000" points="364.5,-89.5 364.5,-119.5 507.5,-119.5 507.5,-89.5 364.5,-89.5"/>
<text text-anchor="start" x="372.5" y="-107.5" font-family="Helvetica,sans-Serif" font-size="10.00" fill="#000000">itk::simple::ProcessObject</text>
<text text-anchor="middle" x="436" y="-96.5" font-family="Helvetica,sans-Serif" font-size="10.00" fill="#000000">::EventCommand</text>
</a>
</g>
</g>
<!-- Node5&#45;&gt;Node4 -->
<g id="edge4" class="edge">
<title>Node5&#45;&gt;Node4</title>
<path fill="none" stroke="#9a32cd" stroke-dasharray="5,2" d="M436,-79.31C436,-63.6343 436,-43.9926 436,-30.6717"/>
<polygon fill="#9a32cd" stroke="#9a32cd" points="432.5001,-79.4023 436,-89.4024 439.5001,-79.4024 432.5001,-79.4023"/>
<text text-anchor="middle" x="460.5" y="-57.5" font-family="Helvetica,sans-Serif" font-size="10.00" fill="#000000"> elements</text>
</g>
<!-- Node6&#45;&gt;Node5 -->
<g id="edge5" class="edge">
<title>Node6&#45;&gt;Node5</title>
<path fill="none" stroke="#9a32cd" stroke-dasharray="5,2" d="M449.1293,-157.3817C446.1843,-145.52 442.4862,-130.6248 439.7659,-119.668"/>
<polygon fill="#9a32cd" stroke="#9a32cd" points="445.7659,-158.3604 451.5724,-167.2223 452.5596,-156.6736 445.7659,-158.3604"/>
<text text-anchor="middle" x="480.5" y="-141" font-family="Helvetica,sans-Serif" font-size="10.00" fill="#000000"> m_Command</text>
</g>
<!-- Node7 -->
<g id="node7" class="node">
<title>Node7</title>
<g id="a_node7"><a xlink:title="STL class.">
<polygon fill="#ffffff" stroke="#bfbfbf" points="553.5,-312.5 553.5,-331.5 618.5,-331.5 618.5,-312.5 553.5,-312.5"/>
<text text-anchor="middle" x="586" y="-319.5" font-family="Helvetica,sans-Serif" font-size="10.00" fill="#000000">std::string</text>
</a>
</g>
</g>
<!-- Node7&#45;&gt;Node1 -->
<g id="edge15" class="edge">
<title>Node7&#45;&gt;Node1</title>
<path fill="none" stroke="#9a32cd" stroke-dasharray="5,2" d="M548.7938,-309.0936C507.4126,-294.7388 441.5325,-271.8857 404.5355,-259.0518"/>
<polygon fill="#9a32cd" stroke="#9a32cd" points="547.6516,-312.4019 558.2464,-312.3726 549.9458,-305.7885 547.6516,-312.4019"/>
<text text-anchor="middle" x="544.5" y="-286" font-family="Helvetica,sans-Serif" font-size="10.00" fill="#000000"> m_ImageIOName</text>
</g>
<!-- Node7&#45;&gt;Node6 -->
<g id="edge7" class="edge">
<title>Node7&#45;&gt;Node6</title>
<path fill="none" stroke="#9a32cd" stroke-dasharray="5,2" d="M594.0336,-302.3807C595.4846,-295.9883 595.7784,-288.9981 593,-283 570.1676,-233.708 511.3068,-201.5237 477.964,-186.6222"/>
<polygon fill="#9a32cd" stroke="#9a32cd" points="590.5751,-301.702 590.8372,-312.2936 597.2373,-303.8503 590.5751,-301.702"/>
<text text-anchor="middle" x="605" y="-247" font-family="Helvetica,sans-Serif" font-size="10.00" fill="#000000"> m_Name</text>
</g>
<!-- Node8 -->
<g id="node8" class="node">
<title>Node8</title>
<g id="a_node8"><a xlink:title="STL class.">
<polygon fill="#ffffff" stroke="#bfbfbf" points="534,-379.5 534,-409.5 638,-409.5 638,-379.5 534,-379.5"/>
<text text-anchor="start" x="542" y="-397.5" font-family="Helvetica,sans-Serif" font-size="10.00" fill="#000000">std::basic_string&lt;</text>
<text text-anchor="middle" x="586" y="-386.5" font-family="Helvetica,sans-Serif" font-size="10.00" fill="#000000"> char &gt;</text>
</a>
</g>
</g>
<!-- Node8&#45;&gt;Node7 -->
<g id="edge8" class="edge">
<title>Node8&#45;&gt;Node7</title>
<path fill="none" stroke="#191970" d="M586,-369.305C586,-356.424 586,-341.4836 586,-331.8957"/>
<polygon fill="#191970" stroke="#191970" points="582.5001,-369.4779 586,-379.478 589.5001,-369.478 582.5001,-369.4779"/>
</g>
<!-- Node9&#45;&gt;Node6 -->
<g id="edge9" class="edge">
<title>Node9&#45;&gt;Node6</title>
<path fill="none" stroke="#9a32cd" stroke-dasharray="5,2" d="M210.3881,-233.6085C272.2615,-219.2309 361.346,-198.5302 412.8875,-186.5534"/>
<polygon fill="#9a32cd" stroke="#9a32cd" points="209.2671,-230.2757 200.3188,-235.9484 210.8515,-237.094 209.2671,-230.2757"/>
<text text-anchor="middle" x="380" y="-208" font-family="Helvetica,sans-Serif" font-size="10.00" fill="#000000"> m_ReferencedObjects</text>
</g>
<!-- Node10 -->
<g id="node10" class="node">
<title>Node10</title>
<g id="a_node10"><a xlink:title="STL class.">
<polygon fill="#ffffff" stroke="#bfbfbf" points="0,-312.5 0,-331.5 82,-331.5 82,-312.5 0,-312.5"/>
<text text-anchor="middle" x="41" y="-319.5" font-family="Helvetica,sans-Serif" font-size="10.00" fill="#000000">std::set&lt; K &gt;</text>
</a>
</g>
</g>
<!-- Node10&#45;&gt;Node9 -->
<g id="edge11" class="edge">
<title>Node10&#45;&gt;Node9</title>
<path fill="none" stroke="#ffa500" stroke-dasharray="5,2" d="M37.1673,-302.0014C36.9687,-295.3971 38.0278,-288.3732 42,-283 47.6326,-275.3808 65.0563,-268.4467 83.8162,-262.8891"/>
<polygon fill="#ffa500" stroke="#ffa500" points="33.7418,-302.8368 38.3967,-312.3543 40.693,-302.0113 33.7418,-302.8368"/>
<text text-anchor="middle" x="122.5" y="-286" font-family="Helvetica,sans-Serif" font-size="10.00" fill="#000000"> &lt; itk::simple::ProcessObject * &gt;</text>
</g>
<!-- Node11 -->
<g id="node11" class="node">
<title>Node11</title>
<g id="a_node11"><a xlink:title=" ">
<polygon fill="#ffffff" stroke="#bfbfbf" points="26.5,-385 26.5,-404 55.5,-404 55.5,-385 26.5,-385"/>
<text text-anchor="middle" x="41" y="-392" font-family="Helvetica,sans-Serif" font-size="10.00" fill="#000000">K</text>
</a>
</g>
</g>
<!-- Node11&#45;&gt;Node10 -->
<g id="edge12" class="edge">
<title>Node11&#45;&gt;Node10</title>
<path fill="none" stroke="#9a32cd" stroke-dasharray="5,2" d="M41,-374.6054C41,-360.6237 41,-342.5346 41,-331.6228"/>
<polygon fill="#9a32cd" stroke="#9a32cd" points="37.5001,-374.7223 41,-384.7223 44.5001,-374.7224 37.5001,-374.7223"/>
<text text-anchor="middle" x="54.5" y="-353" font-family="Helvetica,sans-Serif" font-size="10.00" fill="#000000"> keys</text>
</g>
<!-- Node12 -->
<g id="node12" class="node">
<title>Node12</title>
<g id="a_node12"><a xlink:title="STL class.">
<polygon fill="#ffffff" stroke="#bfbfbf" points="525.5,-95 525.5,-114 606.5,-114 606.5,-95 525.5,-95"/>
<text text-anchor="middle" x="566" y="-102" font-family="Helvetica,sans-Serif" font-size="10.00" fill="#000000">std::list&lt; T &gt;</text>
</a>
</g>
</g>
<!-- Node12&#45;&gt;Node4 -->
<g id="edge13" class="edge">
<title>Node12&#45;&gt;Node4</title>
<path fill="none" stroke="#ffa500" stroke-dasharray="5,2" d="M544.8171,-88.7012C529.4862,-77.3979 508.1768,-61.9542 489,-49 479.7994,-42.7849 469.5167,-36.2042 460.4747,-30.536"/>
<polygon fill="#ffa500" stroke="#ffa500" points="542.9721,-91.69 553.0916,-94.8278 547.1376,-86.0643 542.9721,-91.69"/>
<text text-anchor="start" x="518" y="-63" font-family="Helvetica,sans-Serif" font-size="10.00" fill="#000000"> &lt; itk::simple::ProcessObject</text>
<text text-anchor="middle" x="589" y="-52" font-family="Helvetica,sans-Serif" font-size="10.00" fill="#000000">::EventCommand &gt;</text>
</g>
<!-- Node13 -->
<g id="node13" class="node">
<title>Node13</title>
<g id="a_node13"><a xlink:title=" ">
<polygon fill="#ffffff" stroke="#bfbfbf" points="551.5,-167.5 551.5,-186.5 580.5,-186.5 580.5,-167.5 551.5,-167.5"/>
<text text-anchor="middle" x="566" y="-174.5" font-family="Helvetica,sans-Serif" font-size="10.00" fill="#000000">T</text>
</a>
</g>
</g>
<!-- Node13&#45;&gt;Node12 -->
<g id="edge14" class="edge">
<title>Node13&#45;&gt;Node12</title>
<path fill="none" stroke="#9a32cd" stroke-dasharray="5,2" d="M566,-157.1054C566,-143.1237 566,-125.0346 566,-114.1228"/>
<polygon fill="#9a32cd" stroke="#9a32cd" points="562.5001,-157.2223 566,-167.2223 569.5001,-157.2224 562.5001,-157.2223"/>
<text text-anchor="middle" x="590.5" y="-141" font-family="Helvetica,sans-Serif" font-size="10.00" fill="#000000"> elements</text>
</g>
</g>
</svg>
        <g id="navigator" transform="translate(0 0)" fill="#404254">
                <rect fill="#f2f5e9" fill-opacity="0.5" stroke="#606060" stroke-width=".5" x="0" y="0" width="60" height="60"/>
                <use id="zoomplus" xlink:href="#zoomPlus" x="17" y="9" onmousedown="handleZoom(evt,'in')"/>
                <use id="zoomminus" xlink:href="#zoomMin" x="42" y="9" onmousedown="handleZoom(evt,'out')"/>
                <use id="reset" xlink:href="#resetDef" x="30" y="36" onmousedown="handleReset()"/>
                <g id="arrowUp" xlink:href="#dirArrow" transform="translate(30 24)" onmousedown="handlePan(0,-1)">
                  <use xlink:href="#rim" fill="#404040">
                        <set attributeName="fill" to="#808080" begin="arrowUp.mouseover" end="arrowUp.mouseout"/>
                  </use>
                  <path fill="none" stroke="white" stroke-width="1.5" d="M0,-3.0v7 M-2.5,-0.5L0,-3.0L2.5,-0.5"/>
                </g>
                <g id="arrowRight" xlink:href="#dirArrow" transform="rotate(90) translate(36 -43)" onmousedown="handlePan(1,0)">
                  <use xlink:href="#rim" fill="#404040">
                        <set attributeName="fill" to="#808080" begin="arrowRight.mouseover" end="arrowRight.mouseout"/>
                  </use>
                  <path fill="none" stroke="white" stroke-width="1.5" d="M0,-3.0v7 M-2.5,-0.5L0,-3.0L2.5,-0.5"/>
                </g>
                <g id="arrowDown" xlink:href="#dirArrow" transform="rotate(180) translate(-30 -48)" onmousedown="handlePan(0,1)">
                  <use xlink:href="#rim" fill="#404040">
                        <set attributeName="fill" to="#808080" begin="arrowDown.mouseover" end="arrowDown.mouseout"/>
                  </use>
                  <path fill="none" stroke="white" stroke-width="1.5" d="M0,-3.0v7 M-2.5,-0.5L0,-3.0L2.5,-0.5"/>
                </g>
                <g id="arrowLeft" xlink:href="#dirArrow" transform="rotate(270) translate(-36 17)" onmousedown="handlePan(-1,0)">
                  <use xlink:href="#rim" fill="#404040">
                        <set attributeName="fill" to="#808080" begin="arrowLeft.mouseover" end="arrowLeft.mouseout"/>
                  </use>
                  <path fill="none" stroke="white" stroke-width="1.5" d="M0,-3.0v7 M-2.5,-0.5L0,-3.0L2.5,-0.5"/>
                </g>
        </g>
        <svg viewBox="0 0 15 15" width="100%" height="30px" preserveAspectRatio="xMaxYMin meet">
         <g id="arrow_out" transform="scale(0.3 0.3)">
          <a xlink:href="classitk_1_1simple_1_1ImageReaderBase__coll__graph_org.svg" target="_base">
           <rect id="button" ry="5" rx="5" y="6" x="6" height="38" width="38"
                fill="#f2f5e9" fill-opacity="0.5" stroke="#606060" stroke-width="1.0"/>
           <path id="arrow"
             d="M 11.500037,31.436501 C 11.940474,20.09759 22.043105,11.32322 32.158766,21.979434 L 37.068811,17.246167 C 37.068811,17.246167 37.088388,32 37.088388,32 L 22.160133,31.978069 C 22.160133,31.978069 26.997745,27.140456 26.997745,27.140456 C 18.528582,18.264221 13.291696,25.230495 11.500037,31.436501 z"
             style="fill:#404040;"/>
          </a>
         </g>
        </svg>
</svg>
