<?xml version="1.0" encoding="UTF-8" standalone="no"?>
<!DOCTYPE svg PUBLIC "-//W3C//DTD SVG 1.1//EN"
 "http://www.w3.org/Graphics/SVG/1.1/DTD/svg11.dtd">
<!-- Generated by graphviz version 2.40.1 (20161225.0304)
 -->
<!-- Title: itk::simple::ProcessObject Pages: 1 -->
<svg width="2925pt" height="566pt"
 viewBox="0.00 0.00 2925.00 566.00" xmlns="http://www.w3.org/2000/svg" xmlns:xlink="http://www.w3.org/1999/xlink">
<g id="graph0" class="graph" transform="scale(1 1) rotate(0) translate(4 562)">
<title>itk::simple::ProcessObject</title>
<polygon fill="#ffffff" stroke="transparent" points="-4,4 -4,-562 2921,-562 2921,4 -4,4"/>
<!-- Node1 -->
<g id="node1" class="node">
<title>Node1</title>
<g id="a_node1"><a xlink:title="Base class for SimpleITK classes based on ProcessObject.">
<polygon fill="#bfbfbf" stroke="#000000" points="1804,-345.5 1804,-364.5 1947,-364.5 1947,-345.5 1804,-345.5"/>
<text text-anchor="middle" x="1875.5" y="-352.5" font-family="Helvetica,sans-Serif" font-size="10.00" fill="#000000">itk::simple::ProcessObject</text>
</a>
</g>
</g>
<!-- Node8 -->
<g id="node8" class="node">
<title>Node8</title>
<g id="a_node8"><a xlink:title=" ">
<polygon fill="#ffffff" stroke="#bfbfbf" points="2010,-340 2010,-370 2126,-370 2126,-340 2010,-340"/>
<text text-anchor="start" x="2018" y="-358" font-family="Helvetica,sans-Serif" font-size="10.00" fill="#000000">std::set&lt; itk::simple</text>
<text text-anchor="middle" x="2068" y="-347" font-family="Helvetica,sans-Serif" font-size="10.00" fill="#000000">::ProcessObject * &gt;</text>
</a>
</g>
</g>
<!-- Node1&#45;&gt;Node8 -->
<g id="edge9" class="edge">
<title>Node1&#45;&gt;Node8</title>
<path fill="none" stroke="#9a32cd" stroke-dasharray="5,2" d="M1957.4461,-355C1975.0416,-355 1993.2894,-355 2009.7662,-355"/>
<polygon fill="#9a32cd" stroke="#9a32cd" points="1957.1799,-351.5001 1947.1799,-355 1957.1799,-358.5001 1957.1799,-351.5001"/>
<text text-anchor="middle" x="1978.5" y="-358" font-family="Helvetica,sans-Serif" font-size="10.00" fill="#000000"> keys</text>
</g>
<!-- Node2 -->
<g id="node2" class="node">
<title>Node2</title>
<g id="a_node2"><a xlink:href="classitk_1_1simple_1_1NonCopyable.html" target="_top" xlink:title="An inheritable class to disable copying of a class.">
<polygon fill="#ffffff" stroke="#000000" points="1475.5,-292.5 1475.5,-311.5 1615.5,-311.5 1615.5,-292.5 1475.5,-292.5"/>
<text text-anchor="middle" x="1545.5" y="-299.5" font-family="Helvetica,sans-Serif" font-size="10.00" fill="#000000">itk::simple::NonCopyable</text>
</a>
</g>
</g>
<!-- Node2&#45;&gt;Node1 -->
<g id="edge1" class="edge">
<title>Node2&#45;&gt;Node1</title>
<path fill="none" stroke="#006400" d="M1614.9732,-313.1578C1674.6705,-322.7456 1759.8161,-336.4205 1816.3207,-345.4954"/>
<polygon fill="#006400" stroke="#006400" points="1615.307,-309.6667 1604.8785,-311.5365 1614.1969,-316.5781 1615.307,-309.6667"/>
</g>
<!-- Node5 -->
<g id="node5" class="node">
<title>Node5</title>
<g id="a_node5"><a xlink:href="classitk_1_1simple_1_1Command.html" target="_top" xlink:title="An implementation of the Command design pattern for callback.">
<polygon fill="#ffffff" stroke="#000000" points="2272,-287.5 2272,-306.5 2397,-306.5 2397,-287.5 2272,-287.5"/>
<text text-anchor="middle" x="2334.5" y="-294.5" font-family="Helvetica,sans-Serif" font-size="10.00" fill="#000000">itk::simple::Command</text>
</a>
</g>
</g>
<!-- Node2&#45;&gt;Node5 -->
<g id="edge5" class="edge">
<title>Node2&#45;&gt;Node5</title>
<path fill="none" stroke="#006400" d="M1625.6089,-301.4923C1783.0176,-300.4948 2129.6812,-298.298 2271.8231,-297.3972"/>
<polygon fill="#006400" stroke="#006400" points="1625.4961,-297.9929 1615.5185,-301.5563 1625.5405,-304.9927 1625.4961,-297.9929"/>
</g>
<!-- Node3 -->
<g id="node3" class="node">
<title>Node3</title>
<g id="a_node3"><a xlink:title=" ">
<polygon fill="#ffffff" stroke="#bfbfbf" points="2730,-282 2730,-312 2917,-312 2917,-282 2730,-282"/>
<text text-anchor="start" x="2738" y="-300" font-family="Helvetica,sans-Serif" font-size="10.00" fill="#000000">std::list&lt; itk::simple</text>
<text text-anchor="middle" x="2823.5" y="-289" font-family="Helvetica,sans-Serif" font-size="10.00" fill="#000000">::ProcessObject::EventCommand &gt;</text>
</a>
</g>
</g>
<!-- Node3&#45;&gt;Node1 -->
<g id="edge2" class="edge">
<title>Node3&#45;&gt;Node1</title>
<path fill="none" stroke="#9a32cd" stroke-dasharray="5,2" d="M2812.611,-321.2828C2783.4232,-382.2629 2697.1746,-537 2573.5,-537 2068,-537 2068,-537 2068,-537 1966.817,-537 1897.3761,-402.5884 1879.8468,-364.7851"/>
<polygon fill="#9a32cd" stroke="#9a32cd" points="2815.8806,-322.5536 2816.9517,-312.0131 2809.5412,-319.585 2815.8806,-322.5536"/>
<text text-anchor="middle" x="2334.5" y="-540" font-family="Helvetica,sans-Serif" font-size="10.00" fill="#000000"> m_Commands</text>
</g>
<!-- Node4 -->
<g id="node4" class="node">
<title>Node4</title>
<g id="a_node4"><a xlink:href="structitk_1_1simple_1_1ProcessObject_1_1EventCommand.html" target="_top" xlink:title=" ">
<polygon fill="#ffffff" stroke="#000000" points="2502,-282 2502,-312 2645,-312 2645,-282 2502,-282"/>
<text text-anchor="start" x="2510" y="-300" font-family="Helvetica,sans-Serif" font-size="10.00" fill="#000000">itk::simple::ProcessObject</text>
<text text-anchor="middle" x="2573.5" y="-289" font-family="Helvetica,sans-Serif" font-size="10.00" fill="#000000">::EventCommand</text>
</a>
</g>
</g>
<!-- Node4&#45;&gt;Node3 -->
<g id="edge3" class="edge">
<title>Node4&#45;&gt;Node3</title>
<path fill="none" stroke="#9a32cd" stroke-dasharray="5,2" d="M2655.2129,-297C2679.0878,-297 2705.3664,-297 2729.9162,-297"/>
<polygon fill="#9a32cd" stroke="#9a32cd" points="2655.14,-293.5001 2645.14,-297 2655.1399,-300.5001 2655.14,-293.5001"/>
<text text-anchor="middle" x="2687.5" y="-300" font-family="Helvetica,sans-Serif" font-size="10.00" fill="#000000"> elements</text>
</g>
<!-- Node5&#45;&gt;Node4 -->
<g id="edge4" class="edge">
<title>Node5&#45;&gt;Node4</title>
<path fill="none" stroke="#9a32cd" stroke-dasharray="5,2" d="M2407.6685,-297C2437.5811,-297 2472.0763,-297 2501.8326,-297"/>
<polygon fill="#9a32cd" stroke="#9a32cd" points="2407.2945,-293.5001 2397.2944,-297 2407.2944,-300.5001 2407.2945,-293.5001"/>
<text text-anchor="middle" x="2449.5" y="-300" font-family="Helvetica,sans-Serif" font-size="10.00" fill="#000000"> m_Command</text>
</g>
<!-- Node6 -->
<g id="node6" class="node">
<title>Node6</title>
<g id="a_node6"><a xlink:title="STL class.">
<polygon fill="#ffffff" stroke="#bfbfbf" points="837,-245.5 837,-264.5 902,-264.5 902,-245.5 837,-245.5"/>
<text text-anchor="middle" x="869.5" y="-252.5" font-family="Helvetica,sans-Serif" font-size="10.00" fill="#000000">std::string</text>
</a>
</g>
</g>
<!-- Node6&#45;&gt;Node5 -->
<g id="edge6" class="edge">
<title>Node6&#45;&gt;Node5</title>
<path fill="none" stroke="#9a32cd" stroke-dasharray="5,2" d="M899.91,-240.5473C912.1391,-233.705 925.7419,-224.678 936,-214 947.3048,-202.2325 940.852,-191.6644 954,-182 1045.3421,-114.8596 1090.1368,-129 1203.5,-129 1203.5,-129 1203.5,-129 2068,-129 2187.7784,-129 2297.6553,-251.9469 2326.9145,-287.4862"/>
<polygon fill="#9a32cd" stroke="#9a32cd" points="898.0844,-237.5541 890.9042,-245.3449 901.3756,-243.7321 898.0844,-237.5541"/>
<text text-anchor="middle" x="1715" y="-132" font-family="Helvetica,sans-Serif" font-size="10.00" fill="#000000"> m_Name</text>
</g>
<!-- Node14 -->
<g id="node14" class="node">
<title>Node14</title>
<g id="a_node14"><a xlink:href="https://www.itk.org/Doxygen/html/classitk_1_1Object.html" xlink:title=" ">
<polygon fill="#ffffff" stroke="#000000" points="1170,-177.5 1170,-196.5 1237,-196.5 1237,-177.5 1170,-177.5"/>
<text text-anchor="middle" x="1203.5" y="-184.5" font-family="Helvetica,sans-Serif" font-size="10.00" fill="#000000">itk::Object</text>
</a>
</g>
</g>
<!-- Node6&#45;&gt;Node14 -->
<g id="edge20" class="edge">
<title>Node6&#45;&gt;Node14</title>
<path fill="none" stroke="#9a32cd" stroke-dasharray="5,2" d="M907.0658,-242.2788C921.609,-237.6612 938.4672,-232.6801 954,-229 1030.2947,-210.9238 1121.4958,-197.6359 1169.723,-191.2471"/>
<polygon fill="#9a32cd" stroke="#9a32cd" points="905.8521,-238.9927 897.412,-245.397 908.0037,-245.6538 905.8521,-238.9927"/>
<text text-anchor="middle" x="1027.5" y="-232" font-family="Helvetica,sans-Serif" font-size="10.00" fill="#000000"> m_ObjectName</text>
</g>
<!-- Node23 -->
<g id="node23" class="node">
<title>Node23</title>
<g id="a_node23"><a xlink:title=" ">
<polygon fill="#ffffff" stroke="#bfbfbf" points="1122.5,-398 1122.5,-428 1284.5,-428 1284.5,-398 1122.5,-398"/>
<text text-anchor="start" x="1130.5" y="-416" font-family="Helvetica,sans-Serif" font-size="10.00" fill="#000000">std::set&lt; DataObjectIdentifier</text>
<text text-anchor="middle" x="1203.5" y="-405" font-family="Helvetica,sans-Serif" font-size="10.00" fill="#000000">Type &gt;</text>
</a>
</g>
</g>
<!-- Node6&#45;&gt;Node23 -->
<g id="edge31" class="edge">
<title>Node6&#45;&gt;Node23</title>
<path fill="none" stroke="#9a32cd" stroke-dasharray="5,2" d="M912.0962,-262.4501C970.1654,-273.2055 1070.4557,-294.0952 1101,-315 1112.2986,-322.7329 1109.7563,-329.8999 1119,-340 1139.1564,-362.0238 1165.6407,-383.9673 1183.5456,-397.9571"/>
<polygon fill="#9a32cd" stroke="#9a32cd" points="912.584,-258.9813 902.1174,-260.6245 911.3243,-265.867 912.584,-258.9813"/>
<text text-anchor="middle" x="1027.5" y="-318" font-family="Helvetica,sans-Serif" font-size="10.00" fill="#000000"> keys</text>
</g>
<!-- Node24 -->
<g id="node24" class="node">
<title>Node24</title>
<g id="a_node24"><a xlink:title=" ">
<polygon fill="#ffffff" stroke="#bfbfbf" points="1119,-300 1119,-330 1288,-330 1288,-300 1119,-300"/>
<text text-anchor="start" x="1127" y="-318" font-family="Helvetica,sans-Serif" font-size="10.00" fill="#000000">std::map&lt; DataObjectIdentifier</text>
<text text-anchor="middle" x="1203.5" y="-307" font-family="Helvetica,sans-Serif" font-size="10.00" fill="#000000">Type, bool &gt;</text>
</a>
</g>
</g>
<!-- Node6&#45;&gt;Node24 -->
<g id="edge34" class="edge">
<title>Node6&#45;&gt;Node24</title>
<path fill="none" stroke="#9a32cd" stroke-dasharray="5,2" d="M912.1705,-248.7483C959.2903,-243.3147 1036.9623,-238.7377 1101,-256 1132.7199,-264.5506 1164.829,-285.4598 1184.4502,-299.9393"/>
<polygon fill="#9a32cd" stroke="#9a32cd" points="911.5251,-245.301 902.0228,-249.9867 912.3732,-252.2494 911.5251,-245.301"/>
<text text-anchor="middle" x="1027.5" y="-259" font-family="Helvetica,sans-Serif" font-size="10.00" fill="#000000"> keys</text>
</g>
<!-- Node29 -->
<g id="node29" class="node">
<title>Node29</title>
<g id="a_node29"><a xlink:title=" ">
<polygon fill="#ffffff" stroke="#bfbfbf" points="1119,-447 1119,-477 1288,-477 1288,-447 1119,-447"/>
<text text-anchor="start" x="1127" y="-465" font-family="Helvetica,sans-Serif" font-size="10.00" fill="#000000">std::map&lt; DataObjectIdentifier</text>
<text text-anchor="middle" x="1203.5" y="-454" font-family="Helvetica,sans-Serif" font-size="10.00" fill="#000000">Type, DataObjectPointer &gt;</text>
</a>
</g>
</g>
<!-- Node6&#45;&gt;Node29 -->
<g id="edge45" class="edge">
<title>Node6&#45;&gt;Node29</title>
<path fill="none" stroke="#9a32cd" stroke-dasharray="5,2" d="M884.5095,-272.1571C900.1141,-288.791 926.122,-313.3156 954,-326 1014.1907,-353.3866 1053.215,-303.2886 1101,-349 1130.1621,-376.8965 1091.5859,-408.384 1119,-438 1122.1079,-441.3575 1125.6478,-444.2577 1129.4758,-446.7616"/>
<polygon fill="#9a32cd" stroke="#9a32cd" points="887.0457,-269.744 877.7222,-264.7118 881.8726,-274.4598 887.0457,-269.744"/>
<text text-anchor="middle" x="1027.5" y="-352" font-family="Helvetica,sans-Serif" font-size="10.00" fill="#000000"> keys</text>
</g>
<!-- Node7 -->
<g id="node7" class="node">
<title>Node7</title>
<g id="a_node7"><a xlink:title="STL class.">
<polygon fill="#ffffff" stroke="#bfbfbf" points="491.5,-240 491.5,-270 595.5,-270 595.5,-240 491.5,-240"/>
<text text-anchor="start" x="499.5" y="-258" font-family="Helvetica,sans-Serif" font-size="10.00" fill="#000000">std::basic_string&lt;</text>
<text text-anchor="middle" x="543.5" y="-247" font-family="Helvetica,sans-Serif" font-size="10.00" fill="#000000"> char &gt;</text>
</a>
</g>
</g>
<!-- Node7&#45;&gt;Node6 -->
<g id="edge7" class="edge">
<title>Node7&#45;&gt;Node6</title>
<path fill="none" stroke="#191970" d="M605.8076,-255C674.744,-255 783.1833,-255 836.9855,-255"/>
<polygon fill="#191970" stroke="#191970" points="605.5162,-251.5001 595.5161,-255 605.5161,-258.5001 605.5162,-251.5001"/>
</g>
<!-- Node8&#45;&gt;Node5 -->
<g id="edge8" class="edge">
<title>Node8&#45;&gt;Node5</title>
<path fill="none" stroke="#9a32cd" stroke-dasharray="5,2" d="M2135.9638,-340.2086C2184.5395,-329.6368 2248.4899,-315.7189 2290.5122,-306.5733"/>
<polygon fill="#9a32cd" stroke="#9a32cd" points="2135.1822,-336.7967 2126.1552,-342.3433 2136.6708,-343.6366 2135.1822,-336.7967"/>
<text text-anchor="middle" x="2199" y="-340" font-family="Helvetica,sans-Serif" font-size="10.00" fill="#000000"> m_ReferencedObjects</text>
</g>
<!-- Node9 -->
<g id="node9" class="node">
<title>Node9</title>
<g id="a_node9"><a xlink:title="STL class.">
<polygon fill="#ffffff" stroke="#bfbfbf" points="828.5,-502.5 828.5,-521.5 910.5,-521.5 910.5,-502.5 828.5,-502.5"/>
<text text-anchor="middle" x="869.5" y="-509.5" font-family="Helvetica,sans-Serif" font-size="10.00" fill="#000000">std::set&lt; K &gt;</text>
</a>
</g>
</g>
<!-- Node9&#45;&gt;Node8 -->
<g id="edge10" class="edge">
<title>Node9&#45;&gt;Node8</title>
<path fill="none" stroke="#ffa500" stroke-dasharray="5,2" d="M920.7022,-512C986.2484,-512 1103.3245,-512 1203.5,-512 1203.5,-512 1203.5,-512 1875.5,-512 1964.7707,-512 2035.535,-409.3497 2059.3539,-370.0538"/>
<polygon fill="#ffa500" stroke="#ffa500" points="920.6354,-508.5001 910.6353,-512 920.6353,-515.5001 920.6354,-508.5001"/>
<text text-anchor="middle" x="1545.5" y="-515" font-family="Helvetica,sans-Serif" font-size="10.00" fill="#000000"> &lt; itk::simple::ProcessObject * &gt;</text>
</g>
<!-- Node9&#45;&gt;Node23 -->
<g id="edge32" class="edge">
<title>Node9&#45;&gt;Node23</title>
<path fill="none" stroke="#ffa500" stroke-dasharray="5,2" d="M911.5251,-499.5262C961.1125,-484.81 1046.0493,-459.6099 1119,-438 1129.8548,-434.7845 1141.4948,-431.3391 1152.559,-428.0653"/>
<polygon fill="#ffa500" stroke="#ffa500" points="910.3861,-496.2133 901.7952,-502.4139 912.3777,-502.924 910.3861,-496.2133"/>
<text text-anchor="middle" x="1027.5" y="-488" font-family="Helvetica,sans-Serif" font-size="10.00" fill="#000000"> &lt; DataObjectIdentifierType &gt;</text>
</g>
<!-- Node10 -->
<g id="node10" class="node">
<title>Node10</title>
<g id="a_node10"><a xlink:title=" ">
<polygon fill="#ffffff" stroke="#bfbfbf" points="0,-406.5 0,-425.5 29,-425.5 29,-406.5 0,-406.5"/>
<text text-anchor="middle" x="14.5" y="-413.5" font-family="Helvetica,sans-Serif" font-size="10.00" fill="#000000">K</text>
</a>
</g>
</g>
<!-- Node10&#45;&gt;Node9 -->
<g id="edge11" class="edge">
<title>Node10&#45;&gt;Node9</title>
<path fill="none" stroke="#9a32cd" stroke-dasharray="5,2" d="M29.7148,-432.9726C47.7144,-451.6859 79.6079,-480.7617 114,-493 372.0393,-584.8223 711.604,-539.5289 828.1608,-519.6813"/>
<polygon fill="#9a32cd" stroke="#9a32cd" points="32.2704,-430.5811 22.8845,-425.6663 27.1569,-435.3615 32.2704,-430.5811"/>
<text text-anchor="middle" x="358" y="-550" font-family="Helvetica,sans-Serif" font-size="10.00" fill="#000000"> keys</text>
</g>
<!-- Node20 -->
<g id="node20" class="node">
<title>Node20</title>
<g id="a_node20"><a xlink:title="STL class.">
<polygon fill="#ffffff" stroke="#bfbfbf" points="135,-305.5 135,-324.5 236,-324.5 236,-305.5 135,-305.5"/>
<text text-anchor="middle" x="185.5" y="-312.5" font-family="Helvetica,sans-Serif" font-size="10.00" fill="#000000">std::map&lt; K, T &gt;</text>
</a>
</g>
</g>
<!-- Node10&#45;&gt;Node20 -->
<g id="edge24" class="edge">
<title>Node10&#45;&gt;Node20</title>
<path fill="none" stroke="#9a32cd" stroke-dasharray="5,2" d="M18.8064,-396.2318C24.5285,-371.9469 35.2885,-332.8673 47,-324 71.5896,-305.3822 106.2146,-303.1322 134.6922,-305.5367"/>
<polygon fill="#9a32cd" stroke="#9a32cd" points="15.3471,-395.6602 16.5464,-406.1869 22.1734,-397.2099 15.3471,-395.6602"/>
<text text-anchor="middle" x="71.5" y="-327" font-family="Helvetica,sans-Serif" font-size="10.00" fill="#000000"> keys</text>
</g>
<!-- Node11 -->
<g id="node11" class="node">
<title>Node11</title>
<g id="a_node11"><a xlink:title="STL class.">
<polygon fill="#ffffff" stroke="#bfbfbf" points="317.5,-.5 317.5,-19.5 398.5,-19.5 398.5,-.5 317.5,-.5"/>
<text text-anchor="middle" x="358" y="-7.5" font-family="Helvetica,sans-Serif" font-size="10.00" fill="#000000">std::list&lt; T &gt;</text>
</a>
</g>
</g>
<!-- Node11&#45;&gt;Node3 -->
<g id="edge12" class="edge">
<title>Node11&#45;&gt;Node3</title>
<path fill="none" stroke="#ffa500" stroke-dasharray="5,2" d="M408.9507,-9.0716C478.2968,-7.8899 606.2777,-6 715.5,-6 715.5,-6 715.5,-6 2573.5,-6 2720.3629,-6 2799.703,-221.8889 2818.8834,-281.7643"/>
<polygon fill="#ffa500" stroke="#ffa500" points="408.6833,-5.5756 398.7452,-9.2476 408.8041,-12.5746 408.6833,-5.5756"/>
<text text-anchor="start" x="1644" y="-20" font-family="Helvetica,sans-Serif" font-size="10.00" fill="#000000"> &lt; itk::simple::ProcessObject</text>
<text text-anchor="middle" x="1715" y="-9" font-family="Helvetica,sans-Serif" font-size="10.00" fill="#000000">::EventCommand &gt;</text>
</g>
<!-- Node12 -->
<g id="node12" class="node">
<title>Node12</title>
<g id="a_node12"><a xlink:title=" ">
<polygon fill="#ffffff" stroke="#bfbfbf" points="0,-188.5 0,-207.5 29,-207.5 29,-188.5 0,-188.5"/>
<text text-anchor="middle" x="14.5" y="-195.5" font-family="Helvetica,sans-Serif" font-size="10.00" fill="#000000">T</text>
</a>
</g>
</g>
<!-- Node12&#45;&gt;Node11 -->
<g id="edge13" class="edge">
<title>Node12&#45;&gt;Node11</title>
<path fill="none" stroke="#9a32cd" stroke-dasharray="5,2" d="M24.0767,-179.5551C29.8553,-169.5115 37.8603,-157.2784 47,-148 72.1727,-122.4452 82.1463,-119.4942 114,-103 186.865,-65.2697 278.6683,-34.4024 326.2052,-19.5544"/>
<polygon fill="#9a32cd" stroke="#9a32cd" points="20.9955,-177.8948 19.2543,-188.3456 27.1326,-181.2616 20.9955,-177.8948"/>
<text text-anchor="middle" x="71.5" y="-151" font-family="Helvetica,sans-Serif" font-size="10.00" fill="#000000"> elements</text>
</g>
<!-- Node17 -->
<g id="node17" class="node">
<title>Node17</title>
<g id="a_node17"><a xlink:title="STL class.">
<polygon fill="#ffffff" stroke="#bfbfbf" points="135.5,-112.5 135.5,-131.5 235.5,-131.5 235.5,-112.5 135.5,-112.5"/>
<text text-anchor="middle" x="185.5" y="-119.5" font-family="Helvetica,sans-Serif" font-size="10.00" fill="#000000">std::atomic&lt; T &gt;</text>
</a>
</g>
</g>
<!-- Node12&#45;&gt;Node17 -->
<g id="edge19" class="edge">
<title>Node12&#45;&gt;Node17</title>
<path fill="none" stroke="#9a32cd" stroke-dasharray="5,2" d="M38.1965,-187.0046C41.1572,-185.6481 44.1463,-184.2869 47,-183 87.9568,-164.5308 135.9941,-143.5182 163.3786,-131.6006"/>
<polygon fill="#9a32cd" stroke="#9a32cd" points="36.6536,-183.8618 29.0357,-191.2252 39.5827,-190.2195 36.6536,-183.8618"/>
<text text-anchor="middle" x="71.5" y="-186" font-family="Helvetica,sans-Serif" font-size="10.00" fill="#000000"> ptr</text>
</g>
<!-- Node12&#45;&gt;Node20 -->
<g id="edge25" class="edge">
<title>Node12&#45;&gt;Node20</title>
<path fill="none" stroke="#9a32cd" stroke-dasharray="5,2" d="M36.8151,-213.2682C72.543,-237.7136 141.5812,-284.9503 171.313,-305.2931"/>
<polygon fill="#9a32cd" stroke="#9a32cd" points="38.7231,-210.3329 28.4936,-207.5746 34.7703,-216.1101 38.7231,-210.3329"/>
<text text-anchor="middle" x="71.5" y="-256" font-family="Helvetica,sans-Serif" font-size="10.00" fill="#000000"> elements</text>
</g>
<!-- Node21 -->
<g id="node21" class="node">
<title>Node21</title>
<g id="a_node21"><a xlink:title="STL class.">
<polygon fill="#ffffff" stroke="#bfbfbf" points="126.5,-188.5 126.5,-207.5 244.5,-207.5 244.5,-188.5 126.5,-188.5"/>
<text text-anchor="middle" x="185.5" y="-195.5" font-family="Helvetica,sans-Serif" font-size="10.00" fill="#000000">std::shared_ptr&lt; T &gt;</text>
</a>
</g>
</g>
<!-- Node12&#45;&gt;Node21 -->
<g id="edge27" class="edge">
<title>Node12&#45;&gt;Node21</title>
<path fill="none" stroke="#9a32cd" stroke-dasharray="5,2" d="M39.2076,-198C61.9291,-198 96.5161,-198 126.3559,-198"/>
<polygon fill="#9a32cd" stroke="#9a32cd" points="39.0794,-194.5001 29.0794,-198 39.0793,-201.5001 39.0794,-194.5001"/>
<text text-anchor="middle" x="71.5" y="-201" font-family="Helvetica,sans-Serif" font-size="10.00" fill="#000000"> ptr</text>
</g>
<!-- Node28 -->
<g id="node28" class="node">
<title>Node28</title>
<g id="a_node28"><a xlink:title="STL class.">
<polygon fill="#ffffff" stroke="#bfbfbf" points="137,-350.5 137,-369.5 234,-369.5 234,-350.5 137,-350.5"/>
<text text-anchor="middle" x="185.5" y="-357.5" font-family="Helvetica,sans-Serif" font-size="10.00" fill="#000000">std::vector&lt; T &gt;</text>
</a>
</g>
</g>
<!-- Node12&#45;&gt;Node28 -->
<g id="edge41" class="edge">
<title>Node12&#45;&gt;Node28</title>
<path fill="none" stroke="#9a32cd" stroke-dasharray="5,2" d="M16.5312,-217.6688C20.4478,-251.6068 30.1773,-319.0674 47,-335 70.6832,-357.43 107.3301,-363.2649 136.9794,-363.7131"/>
<polygon fill="#9a32cd" stroke="#9a32cd" points="19.9928,-217.1265 15.4239,-207.5674 13.0345,-217.8893 19.9928,-217.1265"/>
<text text-anchor="middle" x="71.5" y="-361" font-family="Helvetica,sans-Serif" font-size="10.00" fill="#000000"> elements</text>
</g>
<!-- Node13 -->
<g id="node13" class="node">
<title>Node13</title>
<g id="a_node13"><a xlink:href="https://www.itk.org/Doxygen/html/classitk_1_1ProcessObject.html" xlink:title=" ">
<polygon fill="#ffffff" stroke="#000000" points="1493.5,-335.5 1493.5,-354.5 1597.5,-354.5 1597.5,-335.5 1493.5,-335.5"/>
<text text-anchor="middle" x="1545.5" y="-342.5" font-family="Helvetica,sans-Serif" font-size="10.00" fill="#000000">itk::ProcessObject</text>
</a>
</g>
</g>
<!-- Node13&#45;&gt;Node1 -->
<g id="edge14" class="edge">
<title>Node13&#45;&gt;Node1</title>
<path fill="none" stroke="#9a32cd" stroke-dasharray="5,2" d="M1607.8903,-346.8906C1663.6636,-348.5807 1745.3739,-351.0568 1803.8155,-352.8277"/>
<polygon fill="#9a32cd" stroke="#9a32cd" points="1607.8909,-343.3891 1597.7895,-346.5845 1607.6788,-350.3859 1607.8909,-343.3891"/>
<text text-anchor="middle" x="1715" y="-355" font-family="Helvetica,sans-Serif" font-size="10.00" fill="#000000"> m_ActiveProcess</text>
</g>
<!-- Node14&#45;&gt;Node13 -->
<g id="edge15" class="edge">
<title>Node14&#45;&gt;Node13</title>
<path fill="none" stroke="#191970" d="M1228.4181,-201.739C1274.0945,-228.3048 1374.8345,-284.8148 1465,-321 1478.805,-326.5402 1494.3888,-331.4757 1508.1422,-335.4087"/>
<polygon fill="#191970" stroke="#191970" points="1229.93,-198.5687 1219.5306,-196.5428 1226.3968,-204.6116 1229.93,-198.5687"/>
</g>
<!-- Node15 -->
<g id="node15" class="node">
<title>Node15</title>
<g id="a_node15"><a xlink:href="https://www.itk.org/Doxygen/html/classitk_1_1LightObject.html" xlink:title=" ">
<polygon fill="#ffffff" stroke="#000000" points="824,-144.5 824,-163.5 915,-163.5 915,-144.5 824,-144.5"/>
<text text-anchor="middle" x="869.5" y="-151.5" font-family="Helvetica,sans-Serif" font-size="10.00" fill="#000000">itk::LightObject</text>
</a>
</g>
</g>
<!-- Node15&#45;&gt;Node14 -->
<g id="edge16" class="edge">
<title>Node15&#45;&gt;Node14</title>
<path fill="none" stroke="#191970" d="M925.6147,-159.5443C995.4951,-166.4486 1112.6359,-178.0224 1169.913,-183.6815"/>
<polygon fill="#191970" stroke="#191970" points="925.5367,-156.0196 915.241,-158.5193 924.8483,-162.9857 925.5367,-156.0196"/>
</g>
<!-- Node16 -->
<g id="node16" class="node">
<title>Node16</title>
<g id="a_node16"><a xlink:title=" ">
<polygon fill="#ffffff" stroke="#bfbfbf" points="490,-140.5 490,-159.5 597,-159.5 597,-140.5 490,-140.5"/>
<text text-anchor="middle" x="543.5" y="-147.5" font-family="Helvetica,sans-Serif" font-size="10.00" fill="#000000">std::atomic&lt; int &gt;</text>
</a>
</g>
</g>
<!-- Node16&#45;&gt;Node15 -->
<g id="edge17" class="edge">
<title>Node16&#45;&gt;Node15</title>
<path fill="none" stroke="#9a32cd" stroke-dasharray="5,2" d="M607.6573,-150.7872C671.3558,-151.5688 767.4107,-152.7474 823.7553,-153.4387"/>
<polygon fill="#9a32cd" stroke="#9a32cd" points="607.3745,-147.2836 597.3323,-150.6605 607.2885,-154.283 607.3745,-147.2836"/>
<text text-anchor="middle" x="715.5" y="-156" font-family="Helvetica,sans-Serif" font-size="10.00" fill="#000000"> m_ReferenceCount</text>
</g>
<!-- Node17&#45;&gt;Node16 -->
<g id="edge18" class="edge">
<title>Node17&#45;&gt;Node16</title>
<path fill="none" stroke="#ffa500" stroke-dasharray="5,2" d="M245.8345,-126.7189C314.1624,-132.063 424.4707,-140.6904 489.8883,-145.8069"/>
<polygon fill="#ffa500" stroke="#ffa500" points="245.8978,-123.2133 235.6553,-125.9228 245.3519,-130.1919 245.8978,-123.2133"/>
<text text-anchor="middle" x="358" y="-145" font-family="Helvetica,sans-Serif" font-size="10.00" fill="#000000"> &lt; int &gt;</text>
</g>
<!-- Node22 -->
<g id="node22" class="node">
<title>Node22</title>
<g id="a_node22"><a xlink:href="https://www.itk.org/Doxygen/html/classitk_1_1TimeStamp.html" xlink:title=" ">
<polygon fill="#ffffff" stroke="#000000" points="823.5,-93.5 823.5,-112.5 915.5,-112.5 915.5,-93.5 823.5,-93.5"/>
<text text-anchor="middle" x="869.5" y="-100.5" font-family="Helvetica,sans-Serif" font-size="10.00" fill="#000000">itk::TimeStamp</text>
</a>
</g>
</g>
<!-- Node17&#45;&gt;Node22 -->
<g id="edge29" class="edge">
<title>Node17&#45;&gt;Node22</title>
<path fill="none" stroke="#9a32cd" stroke-dasharray="5,2" d="M245.6397,-120.3295C380.1226,-116.5938 702.7873,-107.6309 823.1726,-104.2869"/>
<polygon fill="#9a32cd" stroke="#9a32cd" points="245.418,-116.8342 235.519,-120.6106 245.6124,-123.8315 245.418,-116.8342"/>
<text text-anchor="middle" x="543.5" y="-118" font-family="Helvetica,sans-Serif" font-size="10.00" fill="#000000"> m_GlobalTimeStamp</text>
</g>
<!-- Node25 -->
<g id="node25" class="node">
<title>Node25</title>
<g id="a_node25"><a xlink:title=" ">
<polygon fill="#ffffff" stroke="#bfbfbf" points="648.5,-35.5 648.5,-54.5 782.5,-54.5 782.5,-35.5 648.5,-35.5"/>
<text text-anchor="middle" x="715.5" y="-42.5" font-family="Helvetica,sans-Serif" font-size="10.00" fill="#000000">std::atomic&lt; uint32_t &gt;</text>
</a>
</g>
</g>
<!-- Node17&#45;&gt;Node25 -->
<g id="edge37" class="edge">
<title>Node17&#45;&gt;Node25</title>
<path fill="none" stroke="#ffa500" stroke-dasharray="5,2" d="M210.2805,-107.4006C227.7533,-97.8616 252.0416,-86.0835 275,-80 403.8485,-45.8577 560.7109,-41.9382 648.2067,-42.944"/>
<polygon fill="#ffa500" stroke="#ffa500" points="208.3383,-104.4769 201.3264,-112.4193 211.7609,-110.5831 208.3383,-104.4769"/>
<text text-anchor="middle" x="358" y="-83" font-family="Helvetica,sans-Serif" font-size="10.00" fill="#000000"> &lt; uint32_t &gt;</text>
</g>
<!-- Node18 -->
<g id="node18" class="node">
<title>Node18</title>
<g id="a_node18"><a xlink:href="https://www.itk.org/Doxygen/html/classitk_1_1MetaDataDictionary.html" xlink:title=" ">
<polygon fill="#ffffff" stroke="#000000" points="803,-185.5 803,-204.5 936,-204.5 936,-185.5 803,-185.5"/>
<text text-anchor="middle" x="869.5" y="-192.5" font-family="Helvetica,sans-Serif" font-size="10.00" fill="#000000">itk::MetaDataDictionary</text>
</a>
</g>
</g>
<!-- Node18&#45;&gt;Node14 -->
<g id="edge21" class="edge">
<title>Node18&#45;&gt;Node14</title>
<path fill="none" stroke="#9a32cd" stroke-dasharray="5,2" d="M946.366,-188.3735C948.9405,-188.2342 951.4907,-188.1088 954,-188 1031.2471,-184.6508 1122.0724,-185.486 1169.9848,-186.2986"/>
<polygon fill="#9a32cd" stroke="#9a32cd" points="946.1234,-184.8816 936.3508,-188.9739 946.5423,-191.8691 946.1234,-184.8816"/>
<text text-anchor="middle" x="1027.5" y="-191" font-family="Helvetica,sans-Serif" font-size="10.00" fill="#000000"> m_MetaDataDictionary</text>
</g>
<!-- Node19 -->
<g id="node19" class="node">
<title>Node19</title>
<g id="a_node19"><a xlink:title=" ">
<polygon fill="#ffffff" stroke="#bfbfbf" points="469.5,-183 469.5,-213 617.5,-213 617.5,-183 469.5,-183"/>
<text text-anchor="start" x="477.5" y="-201" font-family="Helvetica,sans-Serif" font-size="10.00" fill="#000000">std::shared_ptr&lt; MetaData</text>
<text text-anchor="middle" x="543.5" y="-190" font-family="Helvetica,sans-Serif" font-size="10.00" fill="#000000">DictionaryMapType &gt;</text>
</a>
</g>
</g>
<!-- Node19&#45;&gt;Node18 -->
<g id="edge22" class="edge">
<title>Node19&#45;&gt;Node18</title>
<path fill="none" stroke="#9a32cd" stroke-dasharray="5,2" d="M628.2122,-197.2204C682.6717,-196.7193 752.4222,-196.0774 802.9097,-195.6128"/>
<polygon fill="#9a32cd" stroke="#9a32cd" points="627.8497,-193.7235 617.8824,-197.3155 627.9142,-200.7232 627.8497,-193.7235"/>
<text text-anchor="middle" x="715.5" y="-201" font-family="Helvetica,sans-Serif" font-size="10.00" fill="#000000"> m_Dictionary</text>
</g>
<!-- Node20&#45;&gt;Node19 -->
<g id="edge23" class="edge">
<title>Node20&#45;&gt;Node19</title>
<path fill="none" stroke="#9a32cd" stroke-dasharray="5,2" d="M224.4878,-302.2582C291.0592,-280.5016 426.3313,-236.2926 497.4464,-213.0511"/>
<polygon fill="#9a32cd" stroke="#9a32cd" points="223.2146,-298.992 214.7966,-305.4254 225.3892,-305.6457 223.2146,-298.992"/>
<text text-anchor="middle" x="358" y="-287" font-family="Helvetica,sans-Serif" font-size="10.00" fill="#000000"> ptr</text>
</g>
<!-- Node20&#45;&gt;Node24 -->
<g id="edge35" class="edge">
<title>Node20&#45;&gt;Node24</title>
<path fill="none" stroke="#ffa500" stroke-dasharray="5,2" d="M246.5788,-315C420.5035,-315 918.7131,-315 1118.8081,-315"/>
<polygon fill="#ffa500" stroke="#ffa500" points="246.3311,-311.5001 236.3311,-315 246.331,-318.5001 246.3311,-311.5001"/>
<text text-anchor="start" x="646" y="-329" font-family="Helvetica,sans-Serif" font-size="10.00" fill="#000000"> &lt; DataObjectIdentifierType,</text>
<text text-anchor="middle" x="715.5" y="-318" font-family="Helvetica,sans-Serif" font-size="10.00" fill="#000000"> bool &gt;</text>
</g>
<!-- Node20&#45;&gt;Node29 -->
<g id="edge46" class="edge">
<title>Node20&#45;&gt;Node29</title>
<path fill="none" stroke="#ffa500" stroke-dasharray="5,2" d="M240.4375,-328.7751C246.5748,-332.027 252.297,-336.0426 257,-341 275.8686,-360.8892 255.5596,-380.6693 275,-400 335.5241,-460.1828 374.784,-441.115 459,-455 676.2129,-490.8127 733.8909,-468.9993 954,-473 1019.3225,-474.1873 1035.76,-476.4907 1101,-473 1106.8083,-472.6892 1112.7939,-472.2801 1118.818,-471.8025"/>
<polygon fill="#ffa500" stroke="#ffa500" points="241.7666,-325.534 231.2188,-324.5363 238.8422,-331.8939 241.7666,-325.534"/>
<text text-anchor="start" x="646" y="-489" font-family="Helvetica,sans-Serif" font-size="10.00" fill="#000000"> &lt; DataObjectIdentifierType,</text>
<text text-anchor="middle" x="715.5" y="-478" font-family="Helvetica,sans-Serif" font-size="10.00" fill="#000000"> DataObjectPointer &gt;</text>
</g>
<!-- Node21&#45;&gt;Node19 -->
<g id="edge26" class="edge">
<title>Node21&#45;&gt;Node19</title>
<path fill="none" stroke="#ffa500" stroke-dasharray="5,2" d="M254.6388,-198C316.2848,-198 406.2772,-198 469.39,-198"/>
<polygon fill="#ffa500" stroke="#ffa500" points="254.6165,-194.5001 244.6164,-198 254.6164,-201.5001 254.6165,-194.5001"/>
<text text-anchor="middle" x="358" y="-201" font-family="Helvetica,sans-Serif" font-size="10.00" fill="#000000"> &lt; MetaDataDictionaryMapType &gt;</text>
</g>
<!-- Node22&#45;&gt;Node13 -->
<g id="edge47" class="edge">
<title>Node22&#45;&gt;Node13</title>
<path fill="none" stroke="#9a32cd" stroke-dasharray="5,2" d="M926.1377,-102.4876C973.1714,-102.7697 1041.7219,-104.8198 1101,-113 1263.5773,-135.4351 1347.4245,-111.5414 1447,-242 1468.849,-270.6254 1440.3868,-294.7135 1465,-321 1472.5755,-329.0905 1482.7479,-334.4925 1493.3076,-338.0892"/>
<polygon fill="#9a32cd" stroke="#9a32cd" points="925.8608,-98.9867 915.8488,-102.4521 925.8366,-105.9867 925.8608,-98.9867"/>
<text text-anchor="middle" x="1203.5" y="-138" font-family="Helvetica,sans-Serif" font-size="10.00" fill="#000000"> m_OutputInformationMTime</text>
</g>
<!-- Node22&#45;&gt;Node14 -->
<g id="edge28" class="edge">
<title>Node22&#45;&gt;Node14</title>
<path fill="none" stroke="#9a32cd" stroke-dasharray="5,2" d="M925.7714,-111.1651C973.0471,-118.6827 1042.1251,-131.2116 1101,-148 1129.3803,-156.0928 1160.9695,-168.6828 1181.4779,-177.3574"/>
<polygon fill="#9a32cd" stroke="#9a32cd" points="926.1509,-107.6819 915.7295,-109.5915 925.0671,-114.5975 926.1509,-107.6819"/>
<text text-anchor="middle" x="1027.5" y="-151" font-family="Helvetica,sans-Serif" font-size="10.00" fill="#000000"> m_MTime</text>
</g>
<!-- Node23&#45;&gt;Node13 -->
<g id="edge30" class="edge">
<title>Node23&#45;&gt;Node13</title>
<path fill="none" stroke="#9a32cd" stroke-dasharray="5,2" d="M1294.7287,-407.1033C1340.8646,-402.7786 1397.4397,-395.4117 1447,-383 1474.9147,-376.0091 1505.6375,-363.3007 1525.225,-354.517"/>
<polygon fill="#9a32cd" stroke="#9a32cd" points="1294.3921,-403.6194 1284.7485,-408.0069 1295.0234,-410.5908 1294.3921,-403.6194"/>
<text text-anchor="middle" x="1376.5" y="-408" font-family="Helvetica,sans-Serif" font-size="10.00" fill="#000000"> m_RequiredInputNames</text>
</g>
<!-- Node24&#45;&gt;Node13 -->
<g id="edge33" class="edge">
<title>Node24&#45;&gt;Node13</title>
<path fill="none" stroke="#9a32cd" stroke-dasharray="5,2" d="M1298.1668,-320.9499C1343.2791,-324.0532 1397.9726,-328.2042 1447,-333 1462.0879,-334.4759 1478.442,-336.3551 1493.409,-338.1859"/>
<polygon fill="#9a32cd" stroke="#9a32cd" points="1298.3171,-317.4521 1288.1023,-320.264 1297.8411,-324.4359 1298.3171,-317.4521"/>
<text text-anchor="start" x="1306" y="-347" font-family="Helvetica,sans-Serif" font-size="10.00" fill="#000000"> m_CachedInputReleaseData</text>
<text text-anchor="middle" x="1376.5" y="-336" font-family="Helvetica,sans-Serif" font-size="10.00" fill="#000000">Flags</text>
</g>
<!-- Node25&#45;&gt;Node13 -->
<g id="edge36" class="edge">
<title>Node25&#45;&gt;Node13</title>
<path fill="none" stroke="#9a32cd" stroke-dasharray="5,2" d="M792.7668,-42.8255C962.33,-39.8388 1358.9659,-43.1886 1447,-136 1475.4258,-165.9683 1438.7389,-289.1178 1465,-321 1472.2321,-329.7802 1482.5304,-335.4379 1493.3549,-339.0609"/>
<polygon fill="#9a32cd" stroke="#9a32cd" points="792.5962,-39.328 782.6639,-43.0158 792.7281,-46.3268 792.5962,-39.328"/>
<text text-anchor="middle" x="1027.5" y="-53" font-family="Helvetica,sans-Serif" font-size="10.00" fill="#000000"> m_Progress</text>
</g>
<!-- Node26 -->
<g id="node26" class="node">
<title>Node26</title>
<g id="a_node26"><a xlink:title=" ">
<polygon fill="#ffffff" stroke="#bfbfbf" points="459,-366 459,-396 628,-396 628,-366 459,-366"/>
<text text-anchor="start" x="467" y="-384" font-family="Helvetica,sans-Serif" font-size="10.00" fill="#000000">std::vector&lt; DataObjectPointer</text>
<text text-anchor="middle" x="543.5" y="-373" font-family="Helvetica,sans-Serif" font-size="10.00" fill="#000000">Map::iterator &gt;</text>
</a>
</g>
</g>
<!-- Node26&#45;&gt;Node13 -->
<g id="edge38" class="edge">
<title>Node26&#45;&gt;Node13</title>
<path fill="none" stroke="#9a32cd" stroke-dasharray="5,2" d="M638.3995,-380.5269C803.1085,-379.2011 1152.5102,-374.1607 1447,-355 1462.094,-354.0179 1478.4501,-352.5294 1493.417,-350.9986"/>
<polygon fill="#9a32cd" stroke="#9a32cd" points="638.2714,-377.0277 628.2989,-380.6054 638.3259,-384.0275 638.2714,-377.0277"/>
<text text-anchor="middle" x="1027.5" y="-389" font-family="Helvetica,sans-Serif" font-size="10.00" fill="#000000"> m_IndexedOutputs</text>
<text text-anchor="middle" x="1027.5" y="-378" font-family="Helvetica,sans-Serif" font-size="10.00" fill="#000000">m_IndexedInputs</text>
</g>
<!-- Node27 -->
<g id="node27" class="node">
<title>Node27</title>
<g id="a_node27"><a xlink:title="STL iterator class.">
<polygon fill="#ffffff" stroke="#bfbfbf" points="114,-464.5 114,-483.5 257,-483.5 257,-464.5 114,-464.5"/>
<text text-anchor="middle" x="185.5" y="-471.5" font-family="Helvetica,sans-Serif" font-size="10.00" fill="#000000">std::map&lt; K, T &gt;::iterator</text>
</a>
</g>
</g>
<!-- Node27&#45;&gt;Node26 -->
<g id="edge39" class="edge">
<title>Node27&#45;&gt;Node26</title>
<path fill="none" stroke="#9a32cd" stroke-dasharray="5,2" d="M232.1037,-461.8935C297.1759,-444.9892 415.188,-414.3324 485.7539,-396.0011"/>
<polygon fill="#9a32cd" stroke="#9a32cd" points="230.9286,-458.5825 222.1299,-464.4844 232.6887,-465.3576 230.9286,-458.5825"/>
<text text-anchor="middle" x="358" y="-452" font-family="Helvetica,sans-Serif" font-size="10.00" fill="#000000"> elements</text>
</g>
<!-- Node28&#45;&gt;Node26 -->
<g id="edge40" class="edge">
<title>Node28&#45;&gt;Node26</title>
<path fill="none" stroke="#ffa500" stroke-dasharray="5,2" d="M244.3154,-363.4501C302.6992,-366.8748 392.7871,-372.1593 458.8579,-376.035"/>
<polygon fill="#ffa500" stroke="#ffa500" points="244.3419,-359.9457 234.154,-362.854 243.9319,-366.9337 244.3419,-359.9457"/>
<text text-anchor="start" x="296" y="-388" font-family="Helvetica,sans-Serif" font-size="10.00" fill="#000000"> &lt; DataObjectPointerMap</text>
<text text-anchor="middle" x="358" y="-377" font-family="Helvetica,sans-Serif" font-size="10.00" fill="#000000">::iterator &gt;</text>
</g>
<!-- Node29&#45;&gt;Node13 -->
<g id="edge42" class="edge">
<title>Node29&#45;&gt;Node13</title>
<path fill="none" stroke="#9a32cd" stroke-dasharray="5,2" d="M1298.1109,-456.2741C1344.4942,-450.8561 1400.2826,-440.3486 1447,-420 1484.0463,-403.8638 1519.8026,-370.9797 1536.1842,-354.6485"/>
<polygon fill="#9a32cd" stroke="#9a32cd" points="1297.6143,-452.8076 1288.06,-457.3864 1298.3843,-459.7652 1297.6143,-452.8076"/>
<text text-anchor="middle" x="1376.5" y="-468" font-family="Helvetica,sans-Serif" font-size="10.00" fill="#000000"> m_Outputs</text>
<text text-anchor="middle" x="1376.5" y="-457" font-family="Helvetica,sans-Serif" font-size="10.00" fill="#000000">m_Inputs</text>
</g>
<!-- Node30 -->
<g id="node30" class="node">
<title>Node30</title>
<g id="a_node30"><a xlink:href="https://www.itk.org/Doxygen/html/classitk_1_1SmartPointer.html" xlink:title=" ">
<polygon fill="#ffffff" stroke="#000000" points="816,-414 816,-444 923,-444 923,-414 816,-414"/>
<text text-anchor="start" x="824" y="-432" font-family="Helvetica,sans-Serif" font-size="10.00" fill="#000000">itk::SmartPointer&lt;</text>
<text text-anchor="middle" x="869.5" y="-421" font-family="Helvetica,sans-Serif" font-size="10.00" fill="#000000"> Self &gt;</text>
</a>
</g>
</g>
<!-- Node30&#45;&gt;Node29 -->
<g id="edge43" class="edge">
<title>Node30&#45;&gt;Node29</title>
<path fill="none" stroke="#9a32cd" stroke-dasharray="5,2" d="M933.3151,-428.1645C940.2955,-428.097 947.2972,-428.0397 954,-428 1019.3322,-427.6134 1037.7555,-411.6117 1101,-428 1109.8591,-430.2956 1110.5422,-434.5044 1119,-438 1126.8927,-441.262 1135.3758,-444.2454 1143.8133,-446.9158"/>
<polygon fill="#9a32cd" stroke="#9a32cd" points="933.1037,-424.6664 923.1405,-428.2697 933.1762,-431.666 933.1037,-424.6664"/>
<text text-anchor="middle" x="1027.5" y="-431" font-family="Helvetica,sans-Serif" font-size="10.00" fill="#000000"> elements</text>
</g>
<!-- Node31 -->
<g id="node31" class="node">
<title>Node31</title>
<g id="a_node31"><a xlink:href="https://www.itk.org/Doxygen/html/classitk_1_1SmartPointer.html" xlink:title=" ">
<polygon fill="#ffffff" stroke="#000000" points="490,-415 490,-445 597,-445 597,-415 490,-415"/>
<text text-anchor="start" x="498" y="-433" font-family="Helvetica,sans-Serif" font-size="10.00" fill="#000000">itk::SmartPointer&lt;</text>
<text text-anchor="middle" x="543.5" y="-422" font-family="Helvetica,sans-Serif" font-size="10.00" fill="#000000"> TObjectType &gt;</text>
</a>
</g>
</g>
<!-- Node31&#45;&gt;Node30 -->
<g id="edge44" class="edge">
<title>Node31&#45;&gt;Node30</title>
<path fill="none" stroke="#ffa500" stroke-dasharray="5,2" d="M607.5778,-429.8034C668.3911,-429.6169 758.7482,-429.3397 815.8589,-429.1645"/>
<polygon fill="#ffa500" stroke="#ffa500" points="607.3215,-426.3041 597.3323,-429.8349 607.343,-433.3041 607.3215,-426.3041"/>
<text text-anchor="middle" x="715.5" y="-432" font-family="Helvetica,sans-Serif" font-size="10.00" fill="#000000"> &lt; Self &gt;</text>
</g>
</g>
</svg>
