<?xml version="1.0" encoding="UTF-8" standalone="no"?>
<!DOCTYPE svg PUBLIC "-//W3C//DTD SVG 1.1//EN"
 "http://www.w3.org/Graphics/SVG/1.1/DTD/svg11.dtd">
<!-- Generated by graphviz version 2.40.1 (20161225.0304)
 -->
<!-- Title: itk::simple::ImageViewer Pages: 1 -->
<svg width="411pt" height="319pt"
 viewBox="0.00 0.00 411.00 319.00" xmlns="http://www.w3.org/2000/svg" xmlns:xlink="http://www.w3.org/1999/xlink">
<g id="graph0" class="graph" transform="scale(1 1) rotate(0) translate(4 315)">
<title>itk::simple::ImageViewer</title>
<polygon fill="#ffffff" stroke="transparent" points="-4,4 -4,-315 407,-315 407,4 -4,4"/>
<!-- Node1 -->
<g id="node1" class="node">
<title>Node1</title>
<g id="a_node1"><a xlink:title="Display an image in an external viewer (Fiji by default)">
<polygon fill="#bfbfbf" stroke="#000000" points="80.5,-.5 80.5,-19.5 219.5,-19.5 219.5,-.5 80.5,-.5"/>
<text text-anchor="middle" x="150" y="-7.5" font-family="Helvetica,sans-Serif" font-size="10.00" fill="#000000">itk::simple::ImageViewer</text>
</a>
</g>
</g>
<!-- Node2 -->
<g id="node2" class="node">
<title>Node2</title>
<g id="a_node2"><a xlink:title="STL class.">
<polygon fill="#ffffff" stroke="#bfbfbf" points="173.5,-213.5 173.5,-232.5 238.5,-232.5 238.5,-213.5 173.5,-213.5"/>
<text text-anchor="middle" x="206" y="-220.5" font-family="Helvetica,sans-Serif" font-size="10.00" fill="#000000">std::string</text>
</a>
</g>
</g>
<!-- Node2&#45;&gt;Node1 -->
<g id="edge1" class="edge">
<title>Node2&#45;&gt;Node1</title>
<path fill="none" stroke="#9a32cd" stroke-dasharray="5,2" d="M216.2296,-204.1386C234.1766,-168.2025 266.1605,-88.9675 230,-38 225.0189,-30.9792 207.8806,-24.5273 190.738,-19.5908"/>
<polygon fill="#9a32cd" stroke="#9a32cd" points="212.8997,-202.9574 211.4042,-213.4461 219.1142,-206.1792 212.8997,-202.9574"/>
<text text-anchor="middle" x="324.5" y="-158" font-family="Helvetica,sans-Serif" font-size="10.00" fill="#000000"> m_GlobalDefaultApplication</text>
<text text-anchor="middle" x="324.5" y="-147" font-family="Helvetica,sans-Serif" font-size="10.00" fill="#000000">m_FileExtension</text>
<text text-anchor="middle" x="324.5" y="-136" font-family="Helvetica,sans-Serif" font-size="10.00" fill="#000000">m_Title</text>
<text text-anchor="middle" x="324.5" y="-125" font-family="Helvetica,sans-Serif" font-size="10.00" fill="#000000">m_ViewCommand</text>
<text text-anchor="middle" x="324.5" y="-114" font-family="Helvetica,sans-Serif" font-size="10.00" fill="#000000">m_GlobalDefaultViewCommand</text>
<text text-anchor="middle" x="324.5" y="-103" font-family="Helvetica,sans-Serif" font-size="10.00" fill="#000000">m_CustomCommand</text>
<text text-anchor="middle" x="324.5" y="-92" font-family="Helvetica,sans-Serif" font-size="10.00" fill="#000000">m_Application</text>
<text text-anchor="middle" x="324.5" y="-81" font-family="Helvetica,sans-Serif" font-size="10.00" fill="#000000">m_GlobalDefaultFileExtension</text>
</g>
<!-- Node4 -->
<g id="node4" class="node">
<title>Node4</title>
<g id="a_node4"><a xlink:title=" ">
<polygon fill="#ffffff" stroke="#bfbfbf" points="0,-112.5 0,-131.5 140,-131.5 140,-112.5 0,-112.5"/>
<text text-anchor="middle" x="70" y="-119.5" font-family="Helvetica,sans-Serif" font-size="10.00" fill="#000000">std::vector&lt; std::string &gt;</text>
</a>
</g>
</g>
<!-- Node2&#45;&gt;Node4 -->
<g id="edge4" class="edge">
<title>Node2&#45;&gt;Node4</title>
<path fill="none" stroke="#9a32cd" stroke-dasharray="5,2" d="M184.8349,-207.2818C156.2642,-186.0638 106.2418,-148.9149 82.8022,-131.5075"/>
<polygon fill="#9a32cd" stroke="#9a32cd" points="182.8447,-210.1634 192.9597,-213.3157 187.0183,-204.5436 182.8447,-210.1634"/>
<text text-anchor="middle" x="190.5" y="-187" font-family="Helvetica,sans-Serif" font-size="10.00" fill="#000000"> elements</text>
</g>
<!-- Node3 -->
<g id="node3" class="node">
<title>Node3</title>
<g id="a_node3"><a xlink:title="STL class.">
<polygon fill="#ffffff" stroke="#bfbfbf" points="154,-280.5 154,-310.5 258,-310.5 258,-280.5 154,-280.5"/>
<text text-anchor="start" x="162" y="-298.5" font-family="Helvetica,sans-Serif" font-size="10.00" fill="#000000">std::basic_string&lt;</text>
<text text-anchor="middle" x="206" y="-287.5" font-family="Helvetica,sans-Serif" font-size="10.00" fill="#000000"> char &gt;</text>
</a>
</g>
</g>
<!-- Node3&#45;&gt;Node2 -->
<g id="edge2" class="edge">
<title>Node3&#45;&gt;Node2</title>
<path fill="none" stroke="#191970" d="M206,-270.305C206,-257.424 206,-242.4836 206,-232.8957"/>
<polygon fill="#191970" stroke="#191970" points="202.5001,-270.4779 206,-280.478 209.5001,-270.478 202.5001,-270.4779"/>
</g>
<!-- Node4&#45;&gt;Node1 -->
<g id="edge3" class="edge">
<title>Node4&#45;&gt;Node1</title>
<path fill="none" stroke="#9a32cd" stroke-dasharray="5,2" d="M60.2025,-103.2279C52.1093,-84.8298 44.0145,-56.8753 58,-38 63.5412,-30.5214 81.708,-24.2457 100.4511,-19.5438"/>
<polygon fill="#9a32cd" stroke="#9a32cd" points="57.09,-104.8325 64.5583,-112.3475 63.4065,-101.8155 57.09,-104.8325"/>
<text text-anchor="middle" x="144" y="-52" font-family="Helvetica,sans-Serif" font-size="10.00" fill="#000000"> m_GlobalDefaultSearchPath</text>
<text text-anchor="middle" x="144" y="-41" font-family="Helvetica,sans-Serif" font-size="10.00" fill="#000000">m_GlobalDefaultExecutableNames</text>
</g>
<!-- Node5 -->
<g id="node5" class="node">
<title>Node5</title>
<g id="a_node5"><a xlink:title="STL class.">
<polygon fill="#ffffff" stroke="#bfbfbf" points="21.5,-213.5 21.5,-232.5 118.5,-232.5 118.5,-213.5 21.5,-213.5"/>
<text text-anchor="middle" x="70" y="-220.5" font-family="Helvetica,sans-Serif" font-size="10.00" fill="#000000">std::vector&lt; T &gt;</text>
</a>
</g>
</g>
<!-- Node5&#45;&gt;Node4 -->
<g id="edge5" class="edge">
<title>Node5&#45;&gt;Node4</title>
<path fill="none" stroke="#ffa500" stroke-dasharray="5,2" d="M70,-203.2744C70,-181.6522 70,-147.8644 70,-131.5075"/>
<polygon fill="#ffa500" stroke="#ffa500" points="66.5001,-203.3157 70,-213.3157 73.5001,-203.3157 66.5001,-203.3157"/>
<text text-anchor="middle" x="107.5" y="-187" font-family="Helvetica,sans-Serif" font-size="10.00" fill="#000000"> &lt; std::string &gt;</text>
</g>
<!-- Node6 -->
<g id="node6" class="node">
<title>Node6</title>
<g id="a_node6"><a xlink:title=" ">
<polygon fill="#ffffff" stroke="#bfbfbf" points="55.5,-286 55.5,-305 84.5,-305 84.5,-286 55.5,-286"/>
<text text-anchor="middle" x="70" y="-293" font-family="Helvetica,sans-Serif" font-size="10.00" fill="#000000">T</text>
</a>
</g>
</g>
<!-- Node6&#45;&gt;Node5 -->
<g id="edge6" class="edge">
<title>Node6&#45;&gt;Node5</title>
<path fill="none" stroke="#9a32cd" stroke-dasharray="5,2" d="M70,-275.6054C70,-261.6237 70,-243.5346 70,-232.6228"/>
<polygon fill="#9a32cd" stroke="#9a32cd" points="66.5001,-275.7223 70,-285.7223 73.5001,-275.7224 66.5001,-275.7223"/>
<text text-anchor="middle" x="94.5" y="-254" font-family="Helvetica,sans-Serif" font-size="10.00" fill="#000000"> elements</text>
</g>
</g>
</svg>
