<?xml version="1.0" encoding="UTF-8" standalone="no"?>
<!DOCTYPE svg PUBLIC "-//W3C//DTD SVG 1.1//EN"
 "http://www.w3.org/Graphics/SVG/1.1/DTD/svg11.dtd">
<!-- Generated by graphviz version 2.40.1 (20161225.0304)
 -->
<!-- Title: itk::simple::Command Pages: 1 -->
<svg width="511pt" height="475pt"
 viewBox="0.00 0.00 511.00 475.00" xmlns="http://www.w3.org/2000/svg" xmlns:xlink="http://www.w3.org/1999/xlink">
<g id="graph0" class="graph" transform="scale(1 1) rotate(0) translate(4 471)">
<title>itk::simple::Command</title>
<polygon fill="#ffffff" stroke="transparent" points="-4,4 -4,-471 507,-471 507,4 -4,4"/>
<!-- Node1 -->
<g id="node1" class="node">
<title>Node1</title>
<g id="a_node1"><a xlink:title="An implementation of the Command design pattern for callback.">
<polygon fill="#bfbfbf" stroke="#000000" points="230.5,-312.5 230.5,-331.5 355.5,-331.5 355.5,-312.5 230.5,-312.5"/>
<text text-anchor="middle" x="293" y="-319.5" font-family="Helvetica,sans-Serif" font-size="10.00" fill="#000000">itk::simple::Command</text>
</a>
</g>
</g>
<!-- Node8 -->
<g id="node8" class="node">
<title>Node8</title>
<g id="a_node8"><a xlink:href="structitk_1_1simple_1_1ProcessObject_1_1EventCommand.html" target="_top" xlink:title=" ">
<polygon fill="#ffffff" stroke="#000000" points="221.5,-234.5 221.5,-264.5 364.5,-264.5 364.5,-234.5 221.5,-234.5"/>
<text text-anchor="start" x="229.5" y="-252.5" font-family="Helvetica,sans-Serif" font-size="10.00" fill="#000000">itk::simple::ProcessObject</text>
<text text-anchor="middle" x="293" y="-241.5" font-family="Helvetica,sans-Serif" font-size="10.00" fill="#000000">::EventCommand</text>
</a>
</g>
</g>
<!-- Node1&#45;&gt;Node8 -->
<g id="edge9" class="edge">
<title>Node1&#45;&gt;Node8</title>
<path fill="none" stroke="#9a32cd" stroke-dasharray="5,2" d="M293,-302.0177C293,-290.2164 293,-275.513 293,-264.668"/>
<polygon fill="#9a32cd" stroke="#9a32cd" points="289.5001,-302.2223 293,-312.2223 296.5001,-302.2224 289.5001,-302.2223"/>
<text text-anchor="middle" x="327.5" y="-286" font-family="Helvetica,sans-Serif" font-size="10.00" fill="#000000"> m_Command</text>
</g>
<!-- Node2 -->
<g id="node2" class="node">
<title>Node2</title>
<g id="a_node2"><a xlink:href="classitk_1_1simple_1_1NonCopyable.html" target="_top" xlink:title="An inheritable class to disable copying of a class.">
<polygon fill="#ffffff" stroke="#000000" points="63,-379.5 63,-398.5 203,-398.5 203,-379.5 63,-379.5"/>
<text text-anchor="middle" x="133" y="-386.5" font-family="Helvetica,sans-Serif" font-size="10.00" fill="#000000">itk::simple::NonCopyable</text>
</a>
</g>
</g>
<!-- Node2&#45;&gt;Node1 -->
<g id="edge1" class="edge">
<title>Node2&#45;&gt;Node1</title>
<path fill="none" stroke="#006400" d="M165.4493,-375.4118C196.5474,-362.3895 242.6921,-343.0664 270.1184,-331.5817"/>
<polygon fill="#006400" stroke="#006400" points="163.7961,-372.3096 155.9241,-379.4005 166.4999,-378.7663 163.7961,-372.3096"/>
</g>
<!-- Node6 -->
<g id="node6" class="node">
<title>Node6</title>
<g id="a_node6"><a xlink:href="classitk_1_1simple_1_1ProcessObject.html" target="_top" xlink:title="Base class for SimpleITK classes based on ProcessObject.">
<polygon fill="#ffffff" stroke="#000000" points="148.5,-78.5 148.5,-97.5 291.5,-97.5 291.5,-78.5 148.5,-78.5"/>
<text text-anchor="middle" x="220" y="-85.5" font-family="Helvetica,sans-Serif" font-size="10.00" fill="#000000">itk::simple::ProcessObject</text>
</a>
</g>
</g>
<!-- Node2&#45;&gt;Node6 -->
<g id="edge6" class="edge">
<title>Node2&#45;&gt;Node6</title>
<path fill="none" stroke="#006400" d="M116.1102,-371.6546C105.5729,-358.9713 94,-340.7691 94,-322 94,-322 94,-322 94,-160.5 94,-125.2934 131.4144,-106.9283 165.4674,-97.5044"/>
<polygon fill="#006400" stroke="#006400" points="113.4987,-373.9849 122.7532,-379.143 118.7352,-369.3396 113.4987,-373.9849"/>
</g>
<!-- Node3 -->
<g id="node3" class="node">
<title>Node3</title>
<g id="a_node3"><a xlink:title="STL class.">
<polygon fill="#ffffff" stroke="#bfbfbf" points="260.5,-379.5 260.5,-398.5 325.5,-398.5 325.5,-379.5 260.5,-379.5"/>
<text text-anchor="middle" x="293" y="-386.5" font-family="Helvetica,sans-Serif" font-size="10.00" fill="#000000">std::string</text>
</a>
</g>
</g>
<!-- Node3&#45;&gt;Node1 -->
<g id="edge2" class="edge">
<title>Node3&#45;&gt;Node1</title>
<path fill="none" stroke="#9a32cd" stroke-dasharray="5,2" d="M293,-369.1079C293,-356.714 293,-341.3263 293,-331.5817"/>
<polygon fill="#9a32cd" stroke="#9a32cd" points="289.5001,-369.4005 293,-379.4005 296.5001,-369.4006 289.5001,-369.4005"/>
<text text-anchor="middle" x="317" y="-353" font-family="Helvetica,sans-Serif" font-size="10.00" fill="#000000"> m_Name</text>
</g>
<!-- Node4 -->
<g id="node4" class="node">
<title>Node4</title>
<g id="a_node4"><a xlink:title="STL class.">
<polygon fill="#ffffff" stroke="#bfbfbf" points="241,-436.5 241,-466.5 345,-466.5 345,-436.5 241,-436.5"/>
<text text-anchor="start" x="249" y="-454.5" font-family="Helvetica,sans-Serif" font-size="10.00" fill="#000000">std::basic_string&lt;</text>
<text text-anchor="middle" x="293" y="-443.5" font-family="Helvetica,sans-Serif" font-size="10.00" fill="#000000"> char &gt;</text>
</a>
</g>
</g>
<!-- Node4&#45;&gt;Node3 -->
<g id="edge3" class="edge">
<title>Node4&#45;&gt;Node3</title>
<path fill="none" stroke="#191970" d="M293,-426.3498C293,-416.6481 293,-406.1303 293,-398.7356"/>
<polygon fill="#191970" stroke="#191970" points="289.5001,-426.3705 293,-436.3705 296.5001,-426.3705 289.5001,-426.3705"/>
</g>
<!-- Node5 -->
<g id="node5" class="node">
<title>Node5</title>
<g id="a_node5"><a xlink:title=" ">
<polygon fill="#ffffff" stroke="#bfbfbf" points="167,-.5 167,-30.5 283,-30.5 283,-.5 167,-.5"/>
<text text-anchor="start" x="175" y="-18.5" font-family="Helvetica,sans-Serif" font-size="10.00" fill="#000000">std::set&lt; itk::simple</text>
<text text-anchor="middle" x="225" y="-7.5" font-family="Helvetica,sans-Serif" font-size="10.00" fill="#000000">::ProcessObject * &gt;</text>
</a>
</g>
</g>
<!-- Node5&#45;&gt;Node1 -->
<g id="edge4" class="edge">
<title>Node5&#45;&gt;Node1</title>
<path fill="none" stroke="#9a32cd" stroke-dasharray="5,2" d="M293.0993,-31.789C339.6662,-44.9805 393,-65.0898 393,-88 393,-249.5 393,-249.5 393,-249.5 393,-272.6335 383.7553,-279.1706 366,-294 356.207,-302.1793 343.7633,-308.127 331.936,-312.3793"/>
<polygon fill="#9a32cd" stroke="#9a32cd" points="293.8576,-28.3675 283.2868,-29.0806 291.995,-35.1152 293.8576,-28.3675"/>
<text text-anchor="middle" x="448" y="-158" font-family="Helvetica,sans-Serif" font-size="10.00" fill="#000000"> m_ReferencedObjects</text>
</g>
<!-- Node6&#45;&gt;Node5 -->
<g id="edge5" class="edge">
<title>Node6&#45;&gt;Node5</title>
<path fill="none" stroke="#9a32cd" stroke-dasharray="5,2" d="M221.3781,-68.0177C222.192,-56.2164 223.206,-41.513 223.9539,-30.668"/>
<polygon fill="#9a32cd" stroke="#9a32cd" points="217.8707,-68.0052 220.6743,-78.2223 224.8541,-68.4869 217.8707,-68.0052"/>
<text text-anchor="middle" x="236.5" y="-52" font-family="Helvetica,sans-Serif" font-size="10.00" fill="#000000"> keys</text>
</g>
<!-- Node7 -->
<g id="node7" class="node">
<title>Node7</title>
<g id="a_node7"><a xlink:title=" ">
<polygon fill="#ffffff" stroke="#bfbfbf" points="126.5,-145.5 126.5,-175.5 313.5,-175.5 313.5,-145.5 126.5,-145.5"/>
<text text-anchor="start" x="134.5" y="-163.5" font-family="Helvetica,sans-Serif" font-size="10.00" fill="#000000">std::list&lt; itk::simple</text>
<text text-anchor="middle" x="220" y="-152.5" font-family="Helvetica,sans-Serif" font-size="10.00" fill="#000000">::ProcessObject::EventCommand &gt;</text>
</a>
</g>
</g>
<!-- Node7&#45;&gt;Node6 -->
<g id="edge7" class="edge">
<title>Node7&#45;&gt;Node6</title>
<path fill="none" stroke="#9a32cd" stroke-dasharray="5,2" d="M220,-135.305C220,-122.424 220,-107.4836 220,-97.8957"/>
<polygon fill="#9a32cd" stroke="#9a32cd" points="216.5001,-135.4779 220,-145.478 223.5001,-135.478 216.5001,-135.4779"/>
<text text-anchor="middle" x="257" y="-119" font-family="Helvetica,sans-Serif" font-size="10.00" fill="#000000"> m_Commands</text>
</g>
<!-- Node8&#45;&gt;Node7 -->
<g id="edge8" class="edge">
<title>Node8&#45;&gt;Node7</title>
<path fill="none" stroke="#9a32cd" stroke-dasharray="5,2" d="M295.8439,-223.7177C295.6993,-213.6765 293.8693,-202.5526 288,-194 282.7129,-186.2958 275.1279,-180.2882 266.9264,-175.6288"/>
<polygon fill="#9a32cd" stroke="#9a32cd" points="292.3349,-223.8893 295.4507,-234.0156 299.3298,-224.1564 292.3349,-223.8893"/>
<text text-anchor="middle" x="319.5" y="-202.5" font-family="Helvetica,sans-Serif" font-size="10.00" fill="#000000"> elements</text>
</g>
<!-- Node9 -->
<g id="node9" class="node">
<title>Node9</title>
<g id="a_node9"><a xlink:title="STL class.">
<polygon fill="#ffffff" stroke="#bfbfbf" points="122.5,-240 122.5,-259 203.5,-259 203.5,-240 122.5,-240"/>
<text text-anchor="middle" x="163" y="-247" font-family="Helvetica,sans-Serif" font-size="10.00" fill="#000000">std::list&lt; T &gt;</text>
</a>
</g>
</g>
<!-- Node9&#45;&gt;Node7 -->
<g id="edge10" class="edge">
<title>Node9&#45;&gt;Node7</title>
<path fill="none" stroke="#ffa500" stroke-dasharray="5,2" d="M149.9397,-231.1274C143.5939,-219.7624 138.7455,-205.2473 146,-194 151.045,-186.1783 158.4072,-180.163 166.5565,-175.5426"/>
<polygon fill="#ffa500" stroke="#ffa500" points="147.1028,-233.1908 155.3897,-239.7922 153.0282,-229.4638 147.1028,-233.1908"/>
<text text-anchor="start" x="146" y="-208" font-family="Helvetica,sans-Serif" font-size="10.00" fill="#000000"> &lt; itk::simple::ProcessObject</text>
<text text-anchor="middle" x="217" y="-197" font-family="Helvetica,sans-Serif" font-size="10.00" fill="#000000">::EventCommand &gt;</text>
</g>
<!-- Node10 -->
<g id="node10" class="node">
<title>Node10</title>
<g id="a_node10"><a xlink:title=" ">
<polygon fill="#ffffff" stroke="#bfbfbf" points="148.5,-312.5 148.5,-331.5 177.5,-331.5 177.5,-312.5 148.5,-312.5"/>
<text text-anchor="middle" x="163" y="-319.5" font-family="Helvetica,sans-Serif" font-size="10.00" fill="#000000">T</text>
</a>
</g>
</g>
<!-- Node10&#45;&gt;Node9 -->
<g id="edge11" class="edge">
<title>Node10&#45;&gt;Node9</title>
<path fill="none" stroke="#9a32cd" stroke-dasharray="5,2" d="M163,-302.1054C163,-288.1237 163,-270.0346 163,-259.1228"/>
<polygon fill="#9a32cd" stroke="#9a32cd" points="159.5001,-302.2223 163,-312.2223 166.5001,-302.2224 159.5001,-302.2223"/>
<text text-anchor="middle" x="187.5" y="-286" font-family="Helvetica,sans-Serif" font-size="10.00" fill="#000000"> elements</text>
</g>
<!-- Node11 -->
<g id="node11" class="node">
<title>Node11</title>
<g id="a_node11"><a xlink:title="STL class.">
<polygon fill="#ffffff" stroke="#bfbfbf" points="0,-78.5 0,-97.5 82,-97.5 82,-78.5 0,-78.5"/>
<text text-anchor="middle" x="41" y="-85.5" font-family="Helvetica,sans-Serif" font-size="10.00" fill="#000000">std::set&lt; K &gt;</text>
</a>
</g>
</g>
<!-- Node11&#45;&gt;Node5 -->
<g id="edge12" class="edge">
<title>Node11&#45;&gt;Node5</title>
<path fill="none" stroke="#ffa500" stroke-dasharray="5,2" d="M45.3824,-68.6171C47.9329,-61.4696 51.8975,-53.9233 58,-49 74.5706,-35.6315 125.3391,-26.7029 166.5898,-21.4493"/>
<polygon fill="#ffa500" stroke="#ffa500" points="41.9546,-67.8747 42.5733,-78.4514 48.6854,-69.7973 41.9546,-67.8747"/>
<text text-anchor="middle" x="138.5" y="-52" font-family="Helvetica,sans-Serif" font-size="10.00" fill="#000000"> &lt; itk::simple::ProcessObject * &gt;</text>
</g>
<!-- Node12 -->
<g id="node12" class="node">
<title>Node12</title>
<g id="a_node12"><a xlink:title=" ">
<polygon fill="#ffffff" stroke="#bfbfbf" points="26.5,-151 26.5,-170 55.5,-170 55.5,-151 26.5,-151"/>
<text text-anchor="middle" x="41" y="-158" font-family="Helvetica,sans-Serif" font-size="10.00" fill="#000000">K</text>
</a>
</g>
</g>
<!-- Node12&#45;&gt;Node11 -->
<g id="edge13" class="edge">
<title>Node12&#45;&gt;Node11</title>
<path fill="none" stroke="#9a32cd" stroke-dasharray="5,2" d="M41,-140.6054C41,-126.6237 41,-108.5346 41,-97.6228"/>
<polygon fill="#9a32cd" stroke="#9a32cd" points="37.5001,-140.7223 41,-150.7223 44.5001,-140.7224 37.5001,-140.7223"/>
<text text-anchor="middle" x="54.5" y="-119" font-family="Helvetica,sans-Serif" font-size="10.00" fill="#000000"> keys</text>
</g>
</g>
</svg>
