<?xml version="1.0" encoding="UTF-8" standalone="no"?>
<!DOCTYPE svg PUBLIC "-//W3C//DTD SVG 1.1//EN"
 "http://www.w3.org/Graphics/SVG/1.1/DTD/svg11.dtd">
<!-- Generated by graphviz version 2.40.1 (20161225.0304)
 -->
<!-- Title: itk::simple::FunctionCommand Pages: 1 -->
<svg width="2134pt" height="645pt"
 viewBox="0.00 0.00 2134.00 645.00" xmlns="http://www.w3.org/2000/svg" xmlns:xlink="http://www.w3.org/1999/xlink">
<g id="graph0" class="graph" transform="scale(1 1) rotate(0) translate(4 641)">
<title>itk::simple::FunctionCommand</title>
<polygon fill="#ffffff" stroke="transparent" points="-4,4 -4,-641 2130,-641 2130,4 -4,4"/>
<!-- Node1 -->
<g id="node1" class="node">
<title>Node1</title>
<g id="a_node1"><a xlink:title="A Command class which allows setting an external function, or member function.">
<polygon fill="#bfbfbf" stroke="#000000" points="1132,-517.5 1132,-536.5 1297,-536.5 1297,-517.5 1132,-517.5"/>
<text text-anchor="middle" x="1214.5" y="-524.5" font-family="Helvetica,sans-Serif" font-size="10.00" fill="#000000">itk::simple::FunctionCommand</text>
</a>
</g>
</g>
<!-- Node2 -->
<g id="node2" class="node">
<title>Node2</title>
<g id="a_node2"><a xlink:href="classitk_1_1simple_1_1Command.html" target="_top" xlink:title="An implementation of the Command design pattern for callback.">
<polygon fill="#ffffff" stroke="#000000" points="833,-517.5 833,-536.5 958,-536.5 958,-517.5 833,-517.5"/>
<text text-anchor="middle" x="895.5" y="-524.5" font-family="Helvetica,sans-Serif" font-size="10.00" fill="#000000">itk::simple::Command</text>
</a>
</g>
</g>
<!-- Node2&#45;&gt;Node1 -->
<g id="edge1" class="edge">
<title>Node2&#45;&gt;Node1</title>
<path fill="none" stroke="#191970" d="M968.2858,-527C1016.9658,-527 1081.1285,-527 1131.7494,-527"/>
<polygon fill="#191970" stroke="#191970" points="968.1436,-523.5001 958.1435,-527 968.1435,-530.5001 968.1436,-523.5001"/>
</g>
<!-- Node9 -->
<g id="node9" class="node">
<title>Node9</title>
<g id="a_node9"><a xlink:href="structitk_1_1simple_1_1ProcessObject_1_1EventCommand.html" target="_top" xlink:title=" ">
<polygon fill="#ffffff" stroke="#000000" points="1143,-556 1143,-586 1286,-586 1286,-556 1143,-556"/>
<text text-anchor="start" x="1151" y="-574" font-family="Helvetica,sans-Serif" font-size="10.00" fill="#000000">itk::simple::ProcessObject</text>
<text text-anchor="middle" x="1214.5" y="-563" font-family="Helvetica,sans-Serif" font-size="10.00" fill="#000000">::EventCommand</text>
</a>
</g>
</g>
<!-- Node2&#45;&gt;Node9 -->
<g id="edge10" class="edge">
<title>Node2&#45;&gt;Node9</title>
<path fill="none" stroke="#9a32cd" stroke-dasharray="5,2" d="M968.354,-537.0488C1020.6491,-544.2619 1090.7857,-553.936 1142.8127,-561.1121"/>
<polygon fill="#9a32cd" stroke="#9a32cd" points="968.528,-533.5398 958.1435,-535.6405 967.5715,-540.4741 968.528,-533.5398"/>
<text text-anchor="middle" x="1056" y="-560" font-family="Helvetica,sans-Serif" font-size="10.00" fill="#000000"> m_Command</text>
</g>
<!-- Node3 -->
<g id="node3" class="node">
<title>Node3</title>
<g id="a_node3"><a xlink:href="classitk_1_1simple_1_1NonCopyable.html" target="_top" xlink:title="An inheritable class to disable copying of a class.">
<polygon fill="#ffffff" stroke="#000000" points="473.5,-528.5 473.5,-547.5 613.5,-547.5 613.5,-528.5 473.5,-528.5"/>
<text text-anchor="middle" x="543.5" y="-535.5" font-family="Helvetica,sans-Serif" font-size="10.00" fill="#000000">itk::simple::NonCopyable</text>
</a>
</g>
</g>
<!-- Node3&#45;&gt;Node2 -->
<g id="edge2" class="edge">
<title>Node3&#45;&gt;Node2</title>
<path fill="none" stroke="#006400" d="M624.2492,-535.4766C687.6667,-533.4948 774.6964,-530.7751 832.9038,-528.9561"/>
<polygon fill="#006400" stroke="#006400" points="623.7722,-531.9897 613.8864,-535.8004 623.9909,-538.9863 623.7722,-531.9897"/>
</g>
<!-- Node7 -->
<g id="node7" class="node">
<title>Node7</title>
<g id="a_node7"><a xlink:href="classitk_1_1simple_1_1ProcessObject.html" target="_top" xlink:title="Base class for SimpleITK classes based on ProcessObject.">
<polygon fill="#ffffff" stroke="#000000" points="1804,-528.5 1804,-547.5 1947,-547.5 1947,-528.5 1804,-528.5"/>
<text text-anchor="middle" x="1875.5" y="-535.5" font-family="Helvetica,sans-Serif" font-size="10.00" fill="#000000">itk::simple::ProcessObject</text>
</a>
</g>
</g>
<!-- Node3&#45;&gt;Node7 -->
<g id="edge7" class="edge">
<title>Node3&#45;&gt;Node7</title>
<path fill="none" stroke="#006400" d="M611.9566,-549.0295C789.1594,-575.9478 1277.2261,-639.7047 1681,-596 1728.4957,-590.859 1740.2796,-586.8534 1786,-573 1809.6314,-565.8396 1835.8525,-555.2604 1853.7706,-547.6086"/>
<polygon fill="#006400" stroke="#006400" points="612.4054,-545.5575 601.991,-547.5046 611.3465,-552.477 612.4054,-545.5575"/>
</g>
<!-- Node4 -->
<g id="node4" class="node">
<title>Node4</title>
<g id="a_node4"><a xlink:title="STL class.">
<polygon fill="#ffffff" stroke="#bfbfbf" points="511,-203.5 511,-222.5 576,-222.5 576,-203.5 511,-203.5"/>
<text text-anchor="middle" x="543.5" y="-210.5" font-family="Helvetica,sans-Serif" font-size="10.00" fill="#000000">std::string</text>
</a>
</g>
</g>
<!-- Node4&#45;&gt;Node2 -->
<g id="edge3" class="edge">
<title>Node4&#45;&gt;Node2</title>
<path fill="none" stroke="#9a32cd" stroke-dasharray="5,2" d="M586.0821,-219.5959C600.2518,-223.1732 615.574,-228.6487 628,-237 638.7734,-244.2406 635.2322,-252.7509 646,-260 702.3649,-297.9459 748.4232,-250.7185 793,-302 830.9777,-345.6899 786.857,-378.3861 811,-431 828.0386,-468.1316 864.237,-501.4803 883.2509,-517.3017"/>
<polygon fill="#9a32cd" stroke="#9a32cd" points="586.5526,-216.1137 576.0258,-217.3126 585.0026,-222.94 586.5526,-216.1137"/>
<text text-anchor="middle" x="719.5" y="-305" font-family="Helvetica,sans-Serif" font-size="10.00" fill="#000000"> m_Name</text>
</g>
<!-- Node13 -->
<g id="node13" class="node">
<title>Node13</title>
<g id="a_node13"><a xlink:href="https://www.itk.org/Doxygen/html/classitk_1_1Object.html" xlink:title=" ">
<polygon fill="#ffffff" stroke="#000000" points="1181,-246.5 1181,-265.5 1248,-265.5 1248,-246.5 1181,-246.5"/>
<text text-anchor="middle" x="1214.5" y="-253.5" font-family="Helvetica,sans-Serif" font-size="10.00" fill="#000000">itk::Object</text>
</a>
</g>
</g>
<!-- Node4&#45;&gt;Node13 -->
<g id="edge19" class="edge">
<title>Node4&#45;&gt;Node13</title>
<path fill="none" stroke="#9a32cd" stroke-dasharray="5,2" d="M586.5368,-214.4209C664.8776,-217.1522 835.9839,-223.7841 980,-234 1051.5831,-239.0778 1135.2281,-247.5329 1180.7547,-252.3483"/>
<polygon fill="#9a32cd" stroke="#9a32cd" points="586.2254,-210.9082 576.1108,-214.0615 585.9842,-217.9041 586.2254,-210.9082"/>
<text text-anchor="middle" x="895.5" y="-237" font-family="Helvetica,sans-Serif" font-size="10.00" fill="#000000"> m_ObjectName</text>
</g>
<!-- Node23 -->
<g id="node23" class="node">
<title>Node23</title>
<g id="a_node23"><a xlink:title=" ">
<polygon fill="#ffffff" stroke="#bfbfbf" points="814.5,-119 814.5,-149 976.5,-149 976.5,-119 814.5,-119"/>
<text text-anchor="start" x="822.5" y="-137" font-family="Helvetica,sans-Serif" font-size="10.00" fill="#000000">std::set&lt; DataObjectIdentifier</text>
<text text-anchor="middle" x="895.5" y="-126" font-family="Helvetica,sans-Serif" font-size="10.00" fill="#000000">Type &gt;</text>
</a>
</g>
</g>
<!-- Node4&#45;&gt;Node23 -->
<g id="edge30" class="edge">
<title>Node4&#45;&gt;Node23</title>
<path fill="none" stroke="#9a32cd" stroke-dasharray="5,2" d="M586.3212,-210.1792C600.7702,-207.4358 616.2073,-202.3386 628,-193 642.0239,-181.8946 631.2313,-167.0938 646,-157 672.6206,-138.8059 752.0811,-133.9711 814.2548,-133.1242"/>
<polygon fill="#9a32cd" stroke="#9a32cd" points="585.3796,-206.7838 576.0409,-211.7878 586.4618,-213.6997 585.3796,-206.7838"/>
<text text-anchor="middle" x="719.5" y="-160" font-family="Helvetica,sans-Serif" font-size="10.00" fill="#000000"> keys</text>
</g>
<!-- Node25 -->
<g id="node25" class="node">
<title>Node25</title>
<g id="a_node25"><a xlink:title=" ">
<polygon fill="#ffffff" stroke="#bfbfbf" points="811,-68 811,-98 980,-98 980,-68 811,-68"/>
<text text-anchor="start" x="819" y="-86" font-family="Helvetica,sans-Serif" font-size="10.00" fill="#000000">std::map&lt; DataObjectIdentifier</text>
<text text-anchor="middle" x="895.5" y="-75" font-family="Helvetica,sans-Serif" font-size="10.00" fill="#000000">Type, bool &gt;</text>
</a>
</g>
</g>
<!-- Node4&#45;&gt;Node25 -->
<g id="edge34" class="edge">
<title>Node4&#45;&gt;Node25</title>
<path fill="none" stroke="#9a32cd" stroke-dasharray="5,2" d="M586.5517,-212.3005C601.618,-209.8433 617.4013,-204.3866 628,-193 662.0512,-156.4173 607.9369,-114.3879 646,-82 670.165,-61.438 748.3806,-64.7373 810.8705,-71.3218"/>
<polygon fill="#9a32cd" stroke="#9a32cd" points="585.807,-208.8656 576.3082,-213.5584 586.6603,-215.8134 585.807,-208.8656"/>
<text text-anchor="middle" x="719.5" y="-85" font-family="Helvetica,sans-Serif" font-size="10.00" fill="#000000"> keys</text>
</g>
<!-- Node30 -->
<g id="node30" class="node">
<title>Node30</title>
<g id="a_node30"><a xlink:title=" ">
<polygon fill="#ffffff" stroke="#bfbfbf" points="811,-255 811,-285 980,-285 980,-255 811,-255"/>
<text text-anchor="start" x="819" y="-273" font-family="Helvetica,sans-Serif" font-size="10.00" fill="#000000">std::map&lt; DataObjectIdentifier</text>
<text text-anchor="middle" x="895.5" y="-262" font-family="Helvetica,sans-Serif" font-size="10.00" fill="#000000">Type, DataObjectPointer &gt;</text>
</a>
</g>
</g>
<!-- Node4&#45;&gt;Node30 -->
<g id="edge45" class="edge">
<title>Node4&#45;&gt;Node30</title>
<path fill="none" stroke="#9a32cd" stroke-dasharray="5,2" d="M586.4796,-217.0388C636.3798,-222.0681 721.0437,-231.6536 793,-245 807.948,-247.7726 823.9777,-251.3752 838.8164,-254.9783"/>
<polygon fill="#9a32cd" stroke="#9a32cd" points="586.6732,-213.5409 576.3762,-216.035 585.9811,-220.5066 586.6732,-213.5409"/>
<text text-anchor="middle" x="719.5" y="-248" font-family="Helvetica,sans-Serif" font-size="10.00" fill="#000000"> keys</text>
</g>
<!-- Node5 -->
<g id="node5" class="node">
<title>Node5</title>
<g id="a_node5"><a xlink:title="STL class.">
<polygon fill="#ffffff" stroke="#bfbfbf" points="133.5,-273 133.5,-303 237.5,-303 237.5,-273 133.5,-273"/>
<text text-anchor="start" x="141.5" y="-291" font-family="Helvetica,sans-Serif" font-size="10.00" fill="#000000">std::basic_string&lt;</text>
<text text-anchor="middle" x="185.5" y="-280" font-family="Helvetica,sans-Serif" font-size="10.00" fill="#000000"> char &gt;</text>
</a>
</g>
</g>
<!-- Node5&#45;&gt;Node4 -->
<g id="edge4" class="edge">
<title>Node5&#45;&gt;Node4</title>
<path fill="none" stroke="#191970" d="M247.5546,-301.1083C302.9674,-309.2277 383.9577,-311.8945 441,-274 456.2323,-263.8808 444.9824,-248.7442 459,-237 473.4954,-224.8555 493.7737,-218.8451 510.8318,-215.8758"/>
<polygon fill="#191970" stroke="#191970" points="247.9379,-297.6258 237.5169,-299.5374 246.8555,-304.5416 247.9379,-297.6258"/>
</g>
<!-- Node6 -->
<g id="node6" class="node">
<title>Node6</title>
<g id="a_node6"><a xlink:title=" ">
<polygon fill="#ffffff" stroke="#bfbfbf" points="2010,-474 2010,-504 2126,-504 2126,-474 2010,-474"/>
<text text-anchor="start" x="2018" y="-492" font-family="Helvetica,sans-Serif" font-size="10.00" fill="#000000">std::set&lt; itk::simple</text>
<text text-anchor="middle" x="2068" y="-481" font-family="Helvetica,sans-Serif" font-size="10.00" fill="#000000">::ProcessObject * &gt;</text>
</a>
</g>
</g>
<!-- Node6&#45;&gt;Node2 -->
<g id="edge5" class="edge">
<title>Node6&#45;&gt;Node2</title>
<path fill="none" stroke="#9a32cd" stroke-dasharray="5,2" d="M1999.7558,-489C1962.9495,-489 1916.7399,-489 1875.5,-489 1214.5,-489 1214.5,-489 1214.5,-489 1118.4301,-489 1007.2212,-506.2037 944.7395,-517.46"/>
<polygon fill="#9a32cd" stroke="#9a32cd" points="1999.8757,-492.5001 2009.8757,-489 1999.8757,-485.5001 1999.8757,-492.5001"/>
<text text-anchor="middle" x="1587.5" y="-492" font-family="Helvetica,sans-Serif" font-size="10.00" fill="#000000"> m_ReferencedObjects</text>
</g>
<!-- Node7&#45;&gt;Node6 -->
<g id="edge6" class="edge">
<title>Node7&#45;&gt;Node6</title>
<path fill="none" stroke="#9a32cd" stroke-dasharray="5,2" d="M1922.7787,-525.9654C1949.0115,-519.288 1981.8601,-510.9265 2009.6773,-503.8458"/>
<polygon fill="#9a32cd" stroke="#9a32cd" points="1921.9005,-522.5773 1913.0729,-528.436 1923.6273,-529.361 1921.9005,-522.5773"/>
<text text-anchor="middle" x="1978.5" y="-518" font-family="Helvetica,sans-Serif" font-size="10.00" fill="#000000"> keys</text>
</g>
<!-- Node8 -->
<g id="node8" class="node">
<title>Node8</title>
<g id="a_node8"><a xlink:title=" ">
<polygon fill="#ffffff" stroke="#bfbfbf" points="1494,-556 1494,-586 1681,-586 1681,-556 1494,-556"/>
<text text-anchor="start" x="1502" y="-574" font-family="Helvetica,sans-Serif" font-size="10.00" fill="#000000">std::list&lt; itk::simple</text>
<text text-anchor="middle" x="1587.5" y="-563" font-family="Helvetica,sans-Serif" font-size="10.00" fill="#000000">::ProcessObject::EventCommand &gt;</text>
</a>
</g>
</g>
<!-- Node8&#45;&gt;Node7 -->
<g id="edge8" class="edge">
<title>Node8&#45;&gt;Node7</title>
<path fill="none" stroke="#9a32cd" stroke-dasharray="5,2" d="M1691.4171,-559.0928C1728.7314,-554.8172 1769.9471,-550.0946 1803.9028,-546.2038"/>
<polygon fill="#9a32cd" stroke="#9a32cd" points="1690.5419,-555.6701 1681.0053,-560.2858 1691.3388,-562.6246 1690.5419,-555.6701"/>
<text text-anchor="middle" x="1742.5" y="-561" font-family="Helvetica,sans-Serif" font-size="10.00" fill="#000000"> m_Commands</text>
</g>
<!-- Node9&#45;&gt;Node8 -->
<g id="edge9" class="edge">
<title>Node9&#45;&gt;Node8</title>
<path fill="none" stroke="#9a32cd" stroke-dasharray="5,2" d="M1296.6872,-571C1354.945,-571 1433.2211,-571 1493.8879,-571"/>
<polygon fill="#9a32cd" stroke="#9a32cd" points="1296.4182,-567.5001 1286.4182,-571 1296.4181,-574.5001 1296.4182,-567.5001"/>
<text text-anchor="middle" x="1395.5" y="-574" font-family="Helvetica,sans-Serif" font-size="10.00" fill="#000000"> elements</text>
</g>
<!-- Node10 -->
<g id="node10" class="node">
<title>Node10</title>
<g id="a_node10"><a xlink:title="STL class.">
<polygon fill="#ffffff" stroke="#bfbfbf" points="317.5,-591.5 317.5,-610.5 398.5,-610.5 398.5,-591.5 317.5,-591.5"/>
<text text-anchor="middle" x="358" y="-598.5" font-family="Helvetica,sans-Serif" font-size="10.00" fill="#000000">std::list&lt; T &gt;</text>
</a>
</g>
</g>
<!-- Node10&#45;&gt;Node8 -->
<g id="edge11" class="edge">
<title>Node10&#45;&gt;Node8</title>
<path fill="none" stroke="#ffa500" stroke-dasharray="5,2" d="M408.9315,-604.2159C478.8959,-608.3495 608.681,-615 719.5,-615 719.5,-615 719.5,-615 1214.5,-615 1315.8952,-615 1431.7337,-598.7657 1507.0582,-586.0192"/>
<polygon fill="#ffa500" stroke="#ffa500" points="408.8314,-600.7038 398.6403,-603.6005 408.4135,-607.6913 408.8314,-600.7038"/>
<text text-anchor="start" x="824.5" y="-629" font-family="Helvetica,sans-Serif" font-size="10.00" fill="#000000"> &lt; itk::simple::ProcessObject</text>
<text text-anchor="middle" x="895.5" y="-618" font-family="Helvetica,sans-Serif" font-size="10.00" fill="#000000">::EventCommand &gt;</text>
</g>
<!-- Node11 -->
<g id="node11" class="node">
<title>Node11</title>
<g id="a_node11"><a xlink:title=" ">
<polygon fill="#ffffff" stroke="#bfbfbf" points="0,-387.5 0,-406.5 29,-406.5 29,-387.5 0,-387.5"/>
<text text-anchor="middle" x="14.5" y="-394.5" font-family="Helvetica,sans-Serif" font-size="10.00" fill="#000000">T</text>
</a>
</g>
</g>
<!-- Node11&#45;&gt;Node10 -->
<g id="edge12" class="edge">
<title>Node11&#45;&gt;Node10</title>
<path fill="none" stroke="#9a32cd" stroke-dasharray="5,2" d="M16.4691,-416.7862C19.5736,-438.6582 27.4296,-473.8506 47,-497 115.733,-578.3026 249.9962,-596.32 317.3792,-600.1261"/>
<polygon fill="#9a32cd" stroke="#9a32cd" points="19.9238,-416.2013 15.2419,-406.6971 12.9751,-417.0466 19.9238,-416.2013"/>
<text text-anchor="middle" x="71.5" y="-541" font-family="Helvetica,sans-Serif" font-size="10.00" fill="#000000"> elements</text>
</g>
<!-- Node16 -->
<g id="node16" class="node">
<title>Node16</title>
<g id="a_node16"><a xlink:title="STL class.">
<polygon fill="#ffffff" stroke="#bfbfbf" points="135.5,-387.5 135.5,-406.5 235.5,-406.5 235.5,-387.5 135.5,-387.5"/>
<text text-anchor="middle" x="185.5" y="-394.5" font-family="Helvetica,sans-Serif" font-size="10.00" fill="#000000">std::atomic&lt; T &gt;</text>
</a>
</g>
</g>
<!-- Node11&#45;&gt;Node16 -->
<g id="edge18" class="edge">
<title>Node11&#45;&gt;Node16</title>
<path fill="none" stroke="#9a32cd" stroke-dasharray="5,2" d="M39.1655,-397C64.1796,-397 103.6056,-397 135.2345,-397"/>
<polygon fill="#9a32cd" stroke="#9a32cd" points="39.0794,-393.5001 29.0794,-397 39.0793,-400.5001 39.0794,-393.5001"/>
<text text-anchor="middle" x="71.5" y="-400" font-family="Helvetica,sans-Serif" font-size="10.00" fill="#000000"> ptr</text>
</g>
<!-- Node19 -->
<g id="node19" class="node">
<title>Node19</title>
<g id="a_node19"><a xlink:title="STL class.">
<polygon fill="#ffffff" stroke="#bfbfbf" points="135,-159.5 135,-178.5 236,-178.5 236,-159.5 135,-159.5"/>
<text text-anchor="middle" x="185.5" y="-166.5" font-family="Helvetica,sans-Serif" font-size="10.00" fill="#000000">std::map&lt; K, T &gt;</text>
</a>
</g>
</g>
<!-- Node11&#45;&gt;Node19 -->
<g id="edge24" class="edge">
<title>Node11&#45;&gt;Node19</title>
<path fill="none" stroke="#9a32cd" stroke-dasharray="5,2" d="M17.5864,-377.3399C22.9172,-345.2019 34.4874,-283.1704 47,-265 76.3697,-222.3501 131.3355,-192.7849 162.4628,-178.5992"/>
<polygon fill="#9a32cd" stroke="#9a32cd" points="14.1106,-376.9095 15.9697,-387.3399 21.0209,-378.0267 14.1106,-376.9095"/>
<text text-anchor="middle" x="71.5" y="-268" font-family="Helvetica,sans-Serif" font-size="10.00" fill="#000000"> elements</text>
</g>
<!-- Node21 -->
<g id="node21" class="node">
<title>Node21</title>
<g id="a_node21"><a xlink:title="STL class.">
<polygon fill="#ffffff" stroke="#bfbfbf" points="126.5,-234.5 126.5,-253.5 244.5,-253.5 244.5,-234.5 126.5,-234.5"/>
<text text-anchor="middle" x="185.5" y="-241.5" font-family="Helvetica,sans-Serif" font-size="10.00" fill="#000000">std::shared_ptr&lt; T &gt;</text>
</a>
</g>
</g>
<!-- Node11&#45;&gt;Node21 -->
<g id="edge26" class="edge">
<title>Node11&#45;&gt;Node21</title>
<path fill="none" stroke="#9a32cd" stroke-dasharray="5,2" d="M23.1484,-378.3946C37.6818,-349.2239 69.8082,-292.9687 114,-263 119.7403,-259.1072 126.2403,-256.0113 132.924,-253.5493"/>
<polygon fill="#9a32cd" stroke="#9a32cd" points="19.9502,-376.969 18.7506,-387.4957 26.2529,-380.0146 19.9502,-376.969"/>
<text text-anchor="middle" x="71.5" y="-339" font-family="Helvetica,sans-Serif" font-size="10.00" fill="#000000"> ptr</text>
</g>
<!-- Node29 -->
<g id="node29" class="node">
<title>Node29</title>
<g id="a_node29"><a xlink:title="STL class.">
<polygon fill="#ffffff" stroke="#bfbfbf" points="137,-503.5 137,-522.5 234,-522.5 234,-503.5 137,-503.5"/>
<text text-anchor="middle" x="185.5" y="-510.5" font-family="Helvetica,sans-Serif" font-size="10.00" fill="#000000">std::vector&lt; T &gt;</text>
</a>
</g>
</g>
<!-- Node11&#45;&gt;Node29 -->
<g id="edge41" class="edge">
<title>Node11&#45;&gt;Node29</title>
<path fill="none" stroke="#9a32cd" stroke-dasharray="5,2" d="M27.8711,-414.7605C45.3012,-436.6585 77.8567,-473.4875 114,-494 121.0374,-497.9939 128.9412,-501.1728 136.8589,-503.6958"/>
<polygon fill="#9a32cd" stroke="#9a32cd" points="30.4595,-412.3874 21.5582,-406.6413 24.9333,-416.6842 30.4595,-412.3874"/>
<text text-anchor="middle" x="71.5" y="-485" font-family="Helvetica,sans-Serif" font-size="10.00" fill="#000000"> elements</text>
</g>
<!-- Node12 -->
<g id="node12" class="node">
<title>Node12</title>
<g id="a_node12"><a xlink:href="https://www.itk.org/Doxygen/html/classitk_1_1ProcessObject.html" xlink:title=" ">
<polygon fill="#ffffff" stroke="#000000" points="1535.5,-317.5 1535.5,-336.5 1639.5,-336.5 1639.5,-317.5 1535.5,-317.5"/>
<text text-anchor="middle" x="1587.5" y="-324.5" font-family="Helvetica,sans-Serif" font-size="10.00" fill="#000000">itk::ProcessObject</text>
</a>
</g>
</g>
<!-- Node12&#45;&gt;Node7 -->
<g id="edge13" class="edge">
<title>Node12&#45;&gt;Node7</title>
<path fill="none" stroke="#9a32cd" stroke-dasharray="5,2" d="M1608.8114,-342.6136C1665.1164,-383.8648 1816.6387,-494.876 1862.2998,-528.329"/>
<polygon fill="#9a32cd" stroke="#9a32cd" points="1610.7584,-339.7012 1600.6231,-336.6145 1606.6214,-345.3479 1610.7584,-339.7012"/>
<text text-anchor="middle" x="1742.5" y="-473" font-family="Helvetica,sans-Serif" font-size="10.00" fill="#000000"> m_ActiveProcess</text>
</g>
<!-- Node13&#45;&gt;Node12 -->
<g id="edge14" class="edge">
<title>Node13&#45;&gt;Node12</title>
<path fill="none" stroke="#191970" d="M1258.6195,-258.5013C1311.014,-262.1349 1400.7825,-270.4581 1476,-288 1507.5553,-295.3592 1542.6321,-308.4903 1564.8636,-317.4653"/>
<polygon fill="#191970" stroke="#191970" points="1258.5506,-254.989 1248.3398,-257.8156 1258.0846,-261.9735 1258.5506,-254.989"/>
</g>
<!-- Node14 -->
<g id="node14" class="node">
<title>Node14</title>
<g id="a_node14"><a xlink:href="https://www.itk.org/Doxygen/html/classitk_1_1LightObject.html" xlink:title=" ">
<polygon fill="#ffffff" stroke="#000000" points="850,-304.5 850,-323.5 941,-323.5 941,-304.5 850,-304.5"/>
<text text-anchor="middle" x="895.5" y="-311.5" font-family="Helvetica,sans-Serif" font-size="10.00" fill="#000000">itk::LightObject</text>
</a>
</g>
</g>
<!-- Node14&#45;&gt;Node13 -->
<g id="edge15" class="edge">
<title>Node14&#45;&gt;Node13</title>
<path fill="none" stroke="#191970" d="M951.0544,-303.8992C1017.2681,-291.8603 1125.8198,-272.1237 1180.6069,-262.1624"/>
<polygon fill="#191970" stroke="#191970" points="950.4175,-300.4575 941.2049,-305.69 951.6698,-307.3446 950.4175,-300.4575"/>
</g>
<!-- Node15 -->
<g id="node15" class="node">
<title>Node15</title>
<g id="a_node15"><a xlink:title=" ">
<polygon fill="#ffffff" stroke="#bfbfbf" points="490,-349.5 490,-368.5 597,-368.5 597,-349.5 490,-349.5"/>
<text text-anchor="middle" x="543.5" y="-356.5" font-family="Helvetica,sans-Serif" font-size="10.00" fill="#000000">std::atomic&lt; int &gt;</text>
</a>
</g>
</g>
<!-- Node15&#45;&gt;Node14 -->
<g id="edge16" class="edge">
<title>Node15&#45;&gt;Node14</title>
<path fill="none" stroke="#9a32cd" stroke-dasharray="5,2" d="M607.6342,-365.1656C658.9186,-368.0376 732.0638,-367.4702 793,-349 801.9725,-346.2804 802.4114,-341.7599 811,-338 824.4115,-332.1288 839.6472,-327.2859 853.4529,-323.5259"/>
<polygon fill="#9a32cd" stroke="#9a32cd" points="607.5547,-361.654 597.3571,-364.5278 607.121,-368.6406 607.5547,-361.654"/>
<text text-anchor="middle" x="719.5" y="-370" font-family="Helvetica,sans-Serif" font-size="10.00" fill="#000000"> m_ReferenceCount</text>
</g>
<!-- Node16&#45;&gt;Node15 -->
<g id="edge17" class="edge">
<title>Node16&#45;&gt;Node15</title>
<path fill="none" stroke="#ffa500" stroke-dasharray="5,2" d="M215.0037,-383.2791C232.1203,-376.0481 254.3202,-367.89 275,-364 348.5396,-350.1667 435.4068,-351.7137 489.9838,-354.793"/>
<polygon fill="#ffa500" stroke="#ffa500" points="213.3341,-380.1887 205.5631,-387.3903 216.1289,-386.6066 213.3341,-380.1887"/>
<text text-anchor="middle" x="358" y="-367" font-family="Helvetica,sans-Serif" font-size="10.00" fill="#000000"> &lt; int &gt;</text>
</g>
<!-- Node22 -->
<g id="node22" class="node">
<title>Node22</title>
<g id="a_node22"><a xlink:href="https://www.itk.org/Doxygen/html/classitk_1_1TimeStamp.html" xlink:title=" ">
<polygon fill="#ffffff" stroke="#000000" points="849.5,-402.5 849.5,-421.5 941.5,-421.5 941.5,-402.5 849.5,-402.5"/>
<text text-anchor="middle" x="895.5" y="-409.5" font-family="Helvetica,sans-Serif" font-size="10.00" fill="#000000">itk::TimeStamp</text>
</a>
</g>
</g>
<!-- Node16&#45;&gt;Node22 -->
<g id="edge28" class="edge">
<title>Node16&#45;&gt;Node22</title>
<path fill="none" stroke="#9a32cd" stroke-dasharray="5,2" d="M244.1872,-408.1722C254.4235,-409.7377 264.9955,-411.1131 275,-412 504.3297,-432.3299 562.8147,-420.4897 793,-416 811.4285,-415.6406 831.71,-414.9179 849.3341,-414.1845"/>
<polygon fill="#9a32cd" stroke="#9a32cd" points="244.5242,-404.6816 234.0962,-406.5543 243.416,-411.5933 244.5242,-404.6816"/>
<text text-anchor="middle" x="543.5" y="-427" font-family="Helvetica,sans-Serif" font-size="10.00" fill="#000000"> m_GlobalTimeStamp</text>
</g>
<!-- Node26 -->
<g id="node26" class="node">
<title>Node26</title>
<g id="a_node26"><a xlink:title=" ">
<polygon fill="#ffffff" stroke="#bfbfbf" points="652.5,-387.5 652.5,-406.5 786.5,-406.5 786.5,-387.5 652.5,-387.5"/>
<text text-anchor="middle" x="719.5" y="-394.5" font-family="Helvetica,sans-Serif" font-size="10.00" fill="#000000">std::atomic&lt; uint32_t &gt;</text>
</a>
</g>
</g>
<!-- Node16&#45;&gt;Node26 -->
<g id="edge37" class="edge">
<title>Node16&#45;&gt;Node26</title>
<path fill="none" stroke="#ffa500" stroke-dasharray="5,2" d="M246.0354,-397C346.6659,-397 547.64,-397 652.4345,-397"/>
<polygon fill="#ffa500" stroke="#ffa500" points="245.7375,-393.5001 235.7374,-397 245.7374,-400.5001 245.7375,-393.5001"/>
<text text-anchor="middle" x="358" y="-400" font-family="Helvetica,sans-Serif" font-size="10.00" fill="#000000"> &lt; uint32_t &gt;</text>
</g>
<!-- Node17 -->
<g id="node17" class="node">
<title>Node17</title>
<g id="a_node17"><a xlink:href="https://www.itk.org/Doxygen/html/classitk_1_1MetaDataDictionary.html" xlink:title=" ">
<polygon fill="#ffffff" stroke="#000000" points="829,-168.5 829,-187.5 962,-187.5 962,-168.5 829,-168.5"/>
<text text-anchor="middle" x="895.5" y="-175.5" font-family="Helvetica,sans-Serif" font-size="10.00" fill="#000000">itk::MetaDataDictionary</text>
</a>
</g>
</g>
<!-- Node17&#45;&gt;Node13 -->
<g id="edge20" class="edge">
<title>Node17&#45;&gt;Node13</title>
<path fill="none" stroke="#9a32cd" stroke-dasharray="5,2" d="M972.4537,-177.5825C1015.0387,-179.2749 1068.4139,-184.6048 1114,-199 1148.0475,-209.7515 1183.3354,-233.1089 1201.6781,-246.3442"/>
<polygon fill="#9a32cd" stroke="#9a32cd" points="972.5422,-174.0836 962.4294,-177.2429 972.3051,-181.0796 972.5422,-174.0836"/>
<text text-anchor="middle" x="1056" y="-202" font-family="Helvetica,sans-Serif" font-size="10.00" fill="#000000"> m_MetaDataDictionary</text>
</g>
<!-- Node18 -->
<g id="node18" class="node">
<title>Node18</title>
<g id="a_node18"><a xlink:title=" ">
<polygon fill="#ffffff" stroke="#bfbfbf" points="469.5,-154 469.5,-184 617.5,-184 617.5,-154 469.5,-154"/>
<text text-anchor="start" x="477.5" y="-172" font-family="Helvetica,sans-Serif" font-size="10.00" fill="#000000">std::shared_ptr&lt; MetaData</text>
<text text-anchor="middle" x="543.5" y="-161" font-family="Helvetica,sans-Serif" font-size="10.00" fill="#000000">DictionaryMapType &gt;</text>
</a>
</g>
</g>
<!-- Node18&#45;&gt;Node17 -->
<g id="edge21" class="edge">
<title>Node18&#45;&gt;Node17</title>
<path fill="none" stroke="#9a32cd" stroke-dasharray="5,2" d="M627.8055,-171.1555C689.3986,-172.7304 771.78,-174.8367 828.8109,-176.2949"/>
<polygon fill="#9a32cd" stroke="#9a32cd" points="627.8063,-167.6545 617.72,-170.8977 627.6273,-174.6522 627.8063,-167.6545"/>
<text text-anchor="middle" x="719.5" y="-179" font-family="Helvetica,sans-Serif" font-size="10.00" fill="#000000"> m_Dictionary</text>
</g>
<!-- Node19&#45;&gt;Node18 -->
<g id="edge22" class="edge">
<title>Node19&#45;&gt;Node18</title>
<path fill="none" stroke="#9a32cd" stroke-dasharray="5,2" d="M246.3728,-169C307.9684,-169 403.2771,-169 469.2687,-169"/>
<polygon fill="#9a32cd" stroke="#9a32cd" points="246.0334,-165.5001 236.0334,-169 246.0333,-172.5001 246.0334,-165.5001"/>
<text text-anchor="middle" x="358" y="-172" font-family="Helvetica,sans-Serif" font-size="10.00" fill="#000000"> ptr</text>
</g>
<!-- Node19&#45;&gt;Node25 -->
<g id="edge35" class="edge">
<title>Node19&#45;&gt;Node25</title>
<path fill="none" stroke="#ffa500" stroke-dasharray="5,2" d="M225.9822,-156.5332C305.5113,-132.7681 488.151,-81.7678 646,-64 710.9233,-56.6921 727.9408,-58.0211 793,-64 803.0024,-64.9192 813.4854,-66.3329 823.7705,-67.9834"/>
<polygon fill="#ffa500" stroke="#ffa500" points="224.9224,-153.197 216.3537,-159.4283 226.938,-159.9006 224.9224,-153.197"/>
<text text-anchor="start" x="474" y="-110" font-family="Helvetica,sans-Serif" font-size="10.00" fill="#000000"> &lt; DataObjectIdentifierType,</text>
<text text-anchor="middle" x="543.5" y="-99" font-family="Helvetica,sans-Serif" font-size="10.00" fill="#000000"> bool &gt;</text>
</g>
<!-- Node19&#45;&gt;Node30 -->
<g id="edge46" class="edge">
<title>Node19&#45;&gt;Node30</title>
<path fill="none" stroke="#ffa500" stroke-dasharray="5,2" d="M231.5133,-181.0648C285.6355,-194.9139 378.3417,-217.5707 459,-232 541.4833,-246.7558 562.5604,-248.3145 646,-256 700.7576,-261.0436 762.455,-264.5248 810.7969,-266.7544"/>
<polygon fill="#ffa500" stroke="#ffa500" points="232.0998,-177.6019 221.5432,-178.5014 230.3567,-184.3814 232.0998,-177.6019"/>
<text text-anchor="start" x="474" y="-269" font-family="Helvetica,sans-Serif" font-size="10.00" fill="#000000"> &lt; DataObjectIdentifierType,</text>
<text text-anchor="middle" x="543.5" y="-258" font-family="Helvetica,sans-Serif" font-size="10.00" fill="#000000"> DataObjectPointer &gt;</text>
</g>
<!-- Node20 -->
<g id="node20" class="node">
<title>Node20</title>
<g id="a_node20"><a xlink:title=" ">
<polygon fill="#ffffff" stroke="#bfbfbf" points="0,-62.5 0,-81.5 29,-81.5 29,-62.5 0,-62.5"/>
<text text-anchor="middle" x="14.5" y="-69.5" font-family="Helvetica,sans-Serif" font-size="10.00" fill="#000000">K</text>
</a>
</g>
</g>
<!-- Node20&#45;&gt;Node19 -->
<g id="edge23" class="edge">
<title>Node20&#45;&gt;Node19</title>
<path fill="none" stroke="#9a32cd" stroke-dasharray="5,2" d="M38.1202,-85.3986C73.1725,-105.2821 138.1068,-142.1162 168.7118,-159.4769"/>
<polygon fill="#9a32cd" stroke="#9a32cd" points="39.5043,-82.1599 29.0794,-80.2702 36.0505,-88.2485 39.5043,-82.1599"/>
<text text-anchor="middle" x="71.5" y="-121" font-family="Helvetica,sans-Serif" font-size="10.00" fill="#000000"> keys</text>
</g>
<!-- Node24 -->
<g id="node24" class="node">
<title>Node24</title>
<g id="a_node24"><a xlink:title="STL class.">
<polygon fill="#ffffff" stroke="#bfbfbf" points="502.5,-.5 502.5,-19.5 584.5,-19.5 584.5,-.5 502.5,-.5"/>
<text text-anchor="middle" x="543.5" y="-7.5" font-family="Helvetica,sans-Serif" font-size="10.00" fill="#000000">std::set&lt; K &gt;</text>
</a>
</g>
</g>
<!-- Node20&#45;&gt;Node24 -->
<g id="edge32" class="edge">
<title>Node20&#45;&gt;Node24</title>
<path fill="none" stroke="#9a32cd" stroke-dasharray="5,2" d="M39.3309,-69.0898C123.3142,-59.2467 397.3253,-27.132 502.1771,-14.8431"/>
<polygon fill="#9a32cd" stroke="#9a32cd" points="38.7252,-65.6367 29.2006,-70.2771 39.5401,-72.5891 38.7252,-65.6367"/>
<text text-anchor="middle" x="185.5" y="-64" font-family="Helvetica,sans-Serif" font-size="10.00" fill="#000000"> keys</text>
</g>
<!-- Node21&#45;&gt;Node18 -->
<g id="edge25" class="edge">
<title>Node21&#45;&gt;Node18</title>
<path fill="none" stroke="#ffa500" stroke-dasharray="5,2" d="M241.2045,-232.3301C303.2973,-219.3218 403.8896,-198.248 471.8094,-184.019"/>
<polygon fill="#ffa500" stroke="#ffa500" points="240.2744,-228.9488 231.2046,-234.425 241.7098,-235.8001 240.2744,-228.9488"/>
<text text-anchor="middle" x="358" y="-227" font-family="Helvetica,sans-Serif" font-size="10.00" fill="#000000"> &lt; MetaDataDictionaryMapType &gt;</text>
</g>
<!-- Node22&#45;&gt;Node12 -->
<g id="edge47" class="edge">
<title>Node22&#45;&gt;Node12</title>
<path fill="none" stroke="#9a32cd" stroke-dasharray="5,2" d="M951.6412,-412.4803C1056.0973,-412.2915 1286.8677,-406.7714 1476,-366 1507.8749,-359.1287 1543.1671,-345.7483 1565.3358,-336.595"/>
<polygon fill="#9a32cd" stroke="#9a32cd" points="951.6317,-408.9802 941.6325,-412.4826 951.6333,-415.9802 951.6317,-408.9802"/>
<text text-anchor="middle" x="1214.5" y="-411" font-family="Helvetica,sans-Serif" font-size="10.00" fill="#000000"> m_OutputInformationMTime</text>
</g>
<!-- Node22&#45;&gt;Node13 -->
<g id="edge27" class="edge">
<title>Node22&#45;&gt;Node13</title>
<path fill="none" stroke="#9a32cd" stroke-dasharray="5,2" d="M942.7824,-400.0125C960.1127,-395.7391 979.9093,-390.9977 998,-387 1049.3211,-375.6591 1076.5508,-400.8785 1114,-364 1141.2044,-337.2101 1105.9913,-307.9522 1132,-280 1144.4983,-266.5678 1164.0316,-260.5027 1180.9546,-257.8262"/>
<polygon fill="#9a32cd" stroke="#9a32cd" points="941.7582,-396.6604 932.8952,-402.4654 943.4437,-403.4545 941.7582,-396.6604"/>
<text text-anchor="middle" x="1056" y="-390" font-family="Helvetica,sans-Serif" font-size="10.00" fill="#000000"> m_MTime</text>
</g>
<!-- Node23&#45;&gt;Node12 -->
<g id="edge29" class="edge">
<title>Node23&#45;&gt;Node12</title>
<path fill="none" stroke="#9a32cd" stroke-dasharray="5,2" d="M986.9238,-144.0506C1103.7554,-159.0754 1310.6573,-193.0873 1476,-260 1514.1005,-275.4189 1554.3825,-302.778 1574.487,-317.3066"/>
<polygon fill="#9a32cd" stroke="#9a32cd" points="987.302,-140.5706 976.9411,-142.7849 986.4215,-147.515 987.302,-140.5706"/>
<text text-anchor="middle" x="1214.5" y="-205" font-family="Helvetica,sans-Serif" font-size="10.00" fill="#000000"> m_RequiredInputNames</text>
</g>
<!-- Node24&#45;&gt;Node6 -->
<g id="edge48" class="edge">
<title>Node24&#45;&gt;Node6</title>
<path fill="none" stroke="#ffa500" stroke-dasharray="5,2" d="M594.7682,-12.3691C663.2848,-15.3262 788.5029,-20 895.5,-20 895.5,-20 895.5,-20 1875.5,-20 1976.0576,-20 2050.4681,-393.6503 2065.2943,-473.9267"/>
<polygon fill="#ffa500" stroke="#ffa500" points="594.818,-8.868 584.6748,-11.9281 594.5125,-15.8613 594.818,-8.868"/>
<text text-anchor="middle" x="1395.5" y="-23" font-family="Helvetica,sans-Serif" font-size="10.00" fill="#000000"> &lt; itk::simple::ProcessObject * &gt;</text>
</g>
<!-- Node24&#45;&gt;Node23 -->
<g id="edge31" class="edge">
<title>Node24&#45;&gt;Node23</title>
<path fill="none" stroke="#ffa500" stroke-dasharray="5,2" d="M594.5057,-15.7853C606.7728,-19.3549 618.9346,-25.0266 628,-34 648.0894,-53.8854 624.7387,-76.3728 646,-95 647.6256,-96.4242 741.9869,-110.9021 814.1771,-121.8053"/>
<polygon fill="#ffa500" stroke="#ffa500" points="595.251,-12.3641 584.7022,-13.3503 593.5636,-19.1577 595.251,-12.3641"/>
<text text-anchor="middle" x="719.5" y="-121" font-family="Helvetica,sans-Serif" font-size="10.00" fill="#000000"> &lt; DataObjectIdentifierType &gt;</text>
</g>
<!-- Node25&#45;&gt;Node12 -->
<g id="edge33" class="edge">
<title>Node25&#45;&gt;Node12</title>
<path fill="none" stroke="#9a32cd" stroke-dasharray="5,2" d="M990.1302,-81.9919C1112.2761,-85.0762 1326.8047,-105.7832 1476,-205 1524.2637,-237.096 1565.7833,-294.5001 1581.152,-317.2893"/>
<polygon fill="#9a32cd" stroke="#9a32cd" points="990.1252,-78.491 980.0513,-81.7722 989.9726,-85.4894 990.1252,-78.491"/>
<text text-anchor="start" x="1144" y="-140" font-family="Helvetica,sans-Serif" font-size="10.00" fill="#000000"> m_CachedInputReleaseData</text>
<text text-anchor="middle" x="1214.5" y="-129" font-family="Helvetica,sans-Serif" font-size="10.00" fill="#000000">Flags</text>
</g>
<!-- Node26&#45;&gt;Node12 -->
<g id="edge36" class="edge">
<title>Node26&#45;&gt;Node12</title>
<path fill="none" stroke="#9a32cd" stroke-dasharray="5,2" d="M776.6619,-385.4426C832.7671,-374.6009 920.8986,-358.9066 998,-351 1195.6747,-330.7287 1432.2866,-327.3984 1535.3009,-326.9743"/>
<polygon fill="#9a32cd" stroke="#9a32cd" points="775.7153,-382.0611 766.5684,-387.4076 777.0529,-388.9321 775.7153,-382.0611"/>
<text text-anchor="middle" x="1056" y="-354" font-family="Helvetica,sans-Serif" font-size="10.00" fill="#000000"> m_Progress</text>
</g>
<!-- Node27 -->
<g id="node27" class="node">
<title>Node27</title>
<g id="a_node27"><a xlink:title=" ">
<polygon fill="#ffffff" stroke="#bfbfbf" points="459,-473 459,-503 628,-503 628,-473 459,-473"/>
<text text-anchor="start" x="467" y="-491" font-family="Helvetica,sans-Serif" font-size="10.00" fill="#000000">std::vector&lt; DataObjectPointer</text>
<text text-anchor="middle" x="543.5" y="-480" font-family="Helvetica,sans-Serif" font-size="10.00" fill="#000000">Map::iterator &gt;</text>
</a>
</g>
</g>
<!-- Node27&#45;&gt;Node12 -->
<g id="edge38" class="edge">
<title>Node27&#45;&gt;Node12</title>
<path fill="none" stroke="#9a32cd" stroke-dasharray="5,2" d="M638.317,-480.7742C811.3681,-467.4275 1172.0779,-438.8307 1297,-423 1377.0251,-412.8588 1400.2325,-420.6795 1476,-393 1514.6659,-378.8745 1555.0283,-351.2179 1574.9034,-336.5937"/>
<polygon fill="#9a32cd" stroke="#9a32cd" points="637.9036,-477.2956 628.202,-481.5534 638.4413,-484.2749 637.9036,-477.2956"/>
<text text-anchor="middle" x="1056" y="-466" font-family="Helvetica,sans-Serif" font-size="10.00" fill="#000000"> m_IndexedOutputs</text>
<text text-anchor="middle" x="1056" y="-455" font-family="Helvetica,sans-Serif" font-size="10.00" fill="#000000">m_IndexedInputs</text>
</g>
<!-- Node28 -->
<g id="node28" class="node">
<title>Node28</title>
<g id="a_node28"><a xlink:title="STL iterator class.">
<polygon fill="#ffffff" stroke="#bfbfbf" points="114,-465.5 114,-484.5 257,-484.5 257,-465.5 114,-465.5"/>
<text text-anchor="middle" x="185.5" y="-472.5" font-family="Helvetica,sans-Serif" font-size="10.00" fill="#000000">std::map&lt; K, T &gt;::iterator</text>
</a>
</g>
</g>
<!-- Node28&#45;&gt;Node27 -->
<g id="edge39" class="edge">
<title>Node28&#45;&gt;Node27</title>
<path fill="none" stroke="#9a32cd" stroke-dasharray="5,2" d="M267.2744,-474.7852C317.4413,-475.0248 382.9722,-476.0021 441,-479 446.7979,-479.2995 452.7757,-479.6681 458.7943,-480.0833"/>
<polygon fill="#9a32cd" stroke="#9a32cd" points="267.1457,-471.2847 257.1321,-474.7457 267.1184,-478.2847 267.1457,-471.2847"/>
<text text-anchor="middle" x="358" y="-482" font-family="Helvetica,sans-Serif" font-size="10.00" fill="#000000"> elements</text>
</g>
<!-- Node29&#45;&gt;Node27 -->
<g id="edge40" class="edge">
<title>Node29&#45;&gt;Node27</title>
<path fill="none" stroke="#ffa500" stroke-dasharray="5,2" d="M244.3154,-508.8928C302.6992,-504.8157 392.7871,-498.5246 458.8579,-493.9108"/>
<polygon fill="#ffa500" stroke="#ffa500" points="243.8859,-505.4142 234.154,-509.6024 244.3736,-512.3971 243.8859,-505.4142"/>
<text text-anchor="start" x="296" y="-521" font-family="Helvetica,sans-Serif" font-size="10.00" fill="#000000"> &lt; DataObjectPointerMap</text>
<text text-anchor="middle" x="358" y="-510" font-family="Helvetica,sans-Serif" font-size="10.00" fill="#000000">::iterator &gt;</text>
</g>
<!-- Node30&#45;&gt;Node12 -->
<g id="edge42" class="edge">
<title>Node30&#45;&gt;Node12</title>
<path fill="none" stroke="#9a32cd" stroke-dasharray="5,2" d="M989.9919,-277.7833C1137.9707,-289.9723 1419.4541,-313.1581 1535.4975,-322.7166"/>
<polygon fill="#9a32cd" stroke="#9a32cd" points="990.2602,-274.2936 980.0066,-276.9608 989.6855,-281.27 990.2602,-274.2936"/>
<text text-anchor="middle" x="1214.5" y="-317" font-family="Helvetica,sans-Serif" font-size="10.00" fill="#000000"> m_Outputs</text>
<text text-anchor="middle" x="1214.5" y="-306" font-family="Helvetica,sans-Serif" font-size="10.00" fill="#000000">m_Inputs</text>
</g>
<!-- Node31 -->
<g id="node31" class="node">
<title>Node31</title>
<g id="a_node31"><a xlink:href="https://www.itk.org/Doxygen/html/classitk_1_1SmartPointer.html" xlink:title=" ">
<polygon fill="#ffffff" stroke="#000000" points="490,-300 490,-330 597,-330 597,-300 490,-300"/>
<text text-anchor="start" x="498" y="-318" font-family="Helvetica,sans-Serif" font-size="10.00" fill="#000000">itk::SmartPointer&lt;</text>
<text text-anchor="middle" x="543.5" y="-307" font-family="Helvetica,sans-Serif" font-size="10.00" fill="#000000"> Self &gt;</text>
</a>
</g>
</g>
<!-- Node31&#45;&gt;Node30 -->
<g id="edge43" class="edge">
<title>Node31&#45;&gt;Node30</title>
<path fill="none" stroke="#9a32cd" stroke-dasharray="5,2" d="M607.3538,-328.8284C659.6021,-336.973 734.2027,-341.1861 793,-315 803.9243,-310.1347 800.8858,-301.3809 811,-295 817.0813,-291.1634 823.7779,-287.8929 830.6588,-285.1099"/>
<polygon fill="#9a32cd" stroke="#9a32cd" points="607.6499,-325.33 597.2134,-327.1549 606.51,-332.2366 607.6499,-325.33"/>
<text text-anchor="middle" x="719.5" y="-339" font-family="Helvetica,sans-Serif" font-size="10.00" fill="#000000"> elements</text>
</g>
<!-- Node32 -->
<g id="node32" class="node">
<title>Node32</title>
<g id="a_node32"><a xlink:href="https://www.itk.org/Doxygen/html/classitk_1_1SmartPointer.html" xlink:title=" ">
<polygon fill="#ffffff" stroke="#000000" points="132,-322 132,-352 239,-352 239,-322 132,-322"/>
<text text-anchor="start" x="140" y="-340" font-family="Helvetica,sans-Serif" font-size="10.00" fill="#000000">itk::SmartPointer&lt;</text>
<text text-anchor="middle" x="185.5" y="-329" font-family="Helvetica,sans-Serif" font-size="10.00" fill="#000000"> TObjectType &gt;</text>
</a>
</g>
</g>
<!-- Node32&#45;&gt;Node31 -->
<g id="edge44" class="edge">
<title>Node32&#45;&gt;Node31</title>
<path fill="none" stroke="#ffa500" stroke-dasharray="5,2" d="M249.4416,-331.8248C258.0314,-331.1806 266.7289,-330.5544 275,-330 349.5324,-325.004 435.7821,-320.3937 489.9883,-317.6384"/>
<polygon fill="#ffa500" stroke="#ffa500" points="249.145,-328.3372 239.4395,-332.5862 249.6763,-335.317 249.145,-328.3372"/>
<text text-anchor="middle" x="358" y="-333" font-family="Helvetica,sans-Serif" font-size="10.00" fill="#000000"> &lt; Self &gt;</text>
</g>
</g>
</svg>
