<?xml version="1.0" encoding="UTF-8" standalone="no"?>
<!DOCTYPE svg PUBLIC "-//W3C//DTD SVG 1.1//EN"
 "http://www.w3.org/Graphics/SVG/1.1/DTD/svg11.dtd">
<!-- Generated by graphviz version 2.40.1 (20161225.0304)
 -->
<!-- Title: itk::simple::LabelMapContourOverlayImageFilter Pages: 1 -->
<!--zoomable 525 -->
<svg id="main" version="1.1" xmlns="http://www.w3.org/2000/svg" xmlns:xlink="http://www.w3.org/1999/xlink" xml:space="preserve" onload="init(evt)">
<style type="text/css"><![CDATA[
.edge:hover path { stroke: red; }
.edge:hover polygon { stroke: red; fill: red; }
]]></style>
<script type="text/javascript"><![CDATA[
var edges = document.getElementsByTagName('g');
if (edges && edges.length) {
  for (var i=0;i<edges.length;i++) {
    if (edges[i].id.substr(0,4)=='edge') {
      edges[i].setAttribute('class','edge');
    }
  }
}
]]></script>
        <defs>
                <circle id="rim" cx="0" cy="0" r="7"/>
                <circle id="rim2" cx="0" cy="0" r="3.5"/>
                <g id="zoomPlus">
                        <use xlink:href="#rim" fill="#404040">
                                <set attributeName="fill" to="#808080" begin="zoomplus.mouseover" end="zoomplus.mouseout"/>
                        </use>
                        <path d="M-4,0h8M0,-4v8" fill="none" stroke="white" stroke-width="1.5" pointer-events="none"/>
                </g>
                <g id="zoomMin">
                        <use xlink:href="#rim" fill="#404040">
                                <set attributeName="fill" to="#808080" begin="zoomminus.mouseover" end="zoomminus.mouseout"/>
                        </use>
                        <path d="M-4,0h8" fill="none" stroke="white" stroke-width="1.5" pointer-events="none"/>
                </g>
                <g id="dirArrow">
                        <path fill="none" stroke="white" stroke-width="1.5" d="M0,-3.0v7 M-2.5,-0.5L0,-3.0L2.5,-0.5"/>
                </g>
               <g id="resetDef">
                       <use xlink:href="#rim2" fill="#404040">
                               <set attributeName="fill" to="#808080" begin="reset.mouseover" end="reset.mouseout"/>
                       </use>
               </g>
        </defs>

<script type="text/javascript">
var viewWidth = 2138;
var viewHeight = 525;
var sectionId = 'dynsection-1';
</script>
<script xlink:href="svgpan.js"/>
<svg id="graph" class="graph">
<g id="viewport">
<title>itk::simple::LabelMapContourOverlayImageFilter</title>
<polygon fill="#ffffff" stroke="transparent" points="-4,4 -4,-520.5 2134,-520.5 2134,4 -4,4"/>
<!-- Node1 -->
<g id="node1" class="node">
<title>Node1</title>
<g id="a_node1"><a xlink:title="Apply a colormap to the contours (outlines) of each object in a label map and superimpose it on top o...">
<polygon fill="#bfbfbf" stroke="#000000" points="1971,-206 1971,-236 2130,-236 2130,-206 1971,-206"/>
<text text-anchor="start" x="1979" y="-224" font-family="Helvetica,sans-Serif" font-size="10.00" fill="#000000">itk::simple::LabelMapContour</text>
<text text-anchor="middle" x="2050.5" y="-213" font-family="Helvetica,sans-Serif" font-size="10.00" fill="#000000">OverlayImageFilter</text>
</a>
</g>
</g>
<!-- Node2 -->
<g id="node2" class="node">
<title>Node2</title>
<g id="a_node2"><a xlink:href="classitk_1_1simple_1_1ImageFilter.html" target="_top" xlink:title="The base interface for SimpleITK filters that take one input image.">
<polygon fill="#ffffff" stroke="#000000" points="758.5,-181.5 758.5,-200.5 887.5,-200.5 887.5,-181.5 758.5,-181.5"/>
<text text-anchor="middle" x="823" y="-188.5" font-family="Helvetica,sans-Serif" font-size="10.00" fill="#000000">itk::simple::ImageFilter</text>
</a>
</g>
</g>
<!-- Node2&#45;&gt;Node1 -->
<g id="edge1" class="edge">
<title>Node2&#45;&gt;Node1</title>
<path fill="none" stroke="#191970" d="M866.5541,-178.7993C931.2294,-161.7864 1056.7329,-133 1165.5,-133 1165.5,-133 1165.5,-133 1704.5,-133 1821.3358,-133 1953.7066,-180.7118 2015.3887,-205.8723"/>
<polygon fill="#191970" stroke="#191970" points="865.4701,-175.4659 856.7083,-181.4225 867.2723,-182.23 865.4701,-175.4659"/>
</g>
<!-- Node3 -->
<g id="node3" class="node">
<title>Node3</title>
<g id="a_node3"><a xlink:href="classitk_1_1simple_1_1ProcessObject.html" target="_top" xlink:title="Base class for SimpleITK classes based on ProcessObject.">
<polygon fill="#ffffff" stroke="#000000" points="212.5,-351.5 212.5,-370.5 355.5,-370.5 355.5,-351.5 212.5,-351.5"/>
<text text-anchor="middle" x="284" y="-358.5" font-family="Helvetica,sans-Serif" font-size="10.00" fill="#000000">itk::simple::ProcessObject</text>
</a>
</g>
</g>
<!-- Node3&#45;&gt;Node2 -->
<g id="edge2" class="edge">
<title>Node3&#45;&gt;Node2</title>
<path fill="none" stroke="#191970" d="M323.8596,-348.4283C427.0386,-315.8858 701.186,-229.42 792.7461,-200.542"/>
<polygon fill="#191970" stroke="#191970" points="322.618,-345.1499 314.1339,-351.4958 324.7236,-351.8257 322.618,-345.1499"/>
</g>
<!-- Node10 -->
<g id="node10" class="node">
<title>Node10</title>
<g id="a_node10"><a xlink:title=" ">
<polygon fill="#ffffff" stroke="#bfbfbf" points="585,-428 585,-458 701,-458 701,-428 585,-428"/>
<text text-anchor="start" x="593" y="-446" font-family="Helvetica,sans-Serif" font-size="10.00" fill="#000000">std::set&lt; itk::simple</text>
<text text-anchor="middle" x="643" y="-435" font-family="Helvetica,sans-Serif" font-size="10.00" fill="#000000">::ProcessObject * &gt;</text>
</a>
</g>
</g>
<!-- Node3&#45;&gt;Node10 -->
<g id="edge11" class="edge">
<title>Node3&#45;&gt;Node10</title>
<path fill="none" stroke="#9a32cd" stroke-dasharray="5,2" d="M335.6636,-372.8006C401.708,-387.886 515.7472,-413.9339 584.7934,-429.7049"/>
<polygon fill="#9a32cd" stroke="#9a32cd" points="336.4128,-369.3817 325.8845,-370.5669 334.854,-376.2059 336.4128,-369.3817"/>
<text text-anchor="middle" x="463.5" y="-422" font-family="Helvetica,sans-Serif" font-size="10.00" fill="#000000"> keys</text>
</g>
<!-- Node4 -->
<g id="node4" class="node">
<title>Node4</title>
<g id="a_node4"><a xlink:href="classitk_1_1simple_1_1NonCopyable.html" target="_top" xlink:title="An inheritable class to disable copying of a class.">
<polygon fill="#ffffff" stroke="#000000" points="0,-374.5 0,-393.5 140,-393.5 140,-374.5 0,-374.5"/>
<text text-anchor="middle" x="70" y="-381.5" font-family="Helvetica,sans-Serif" font-size="10.00" fill="#000000">itk::simple::NonCopyable</text>
</a>
</g>
</g>
<!-- Node4&#45;&gt;Node3 -->
<g id="edge3" class="edge">
<title>Node4&#45;&gt;Node3</title>
<path fill="none" stroke="#006400" d="M150.2632,-375.3736C170.635,-373.1841 192.3884,-370.8461 212.304,-368.7056"/>
<polygon fill="#006400" stroke="#006400" points="149.6403,-371.9203 140.0716,-376.4689 150.3884,-378.8802 149.6403,-371.9203"/>
</g>
<!-- Node7 -->
<g id="node7" class="node">
<title>Node7</title>
<g id="a_node7"><a xlink:href="classitk_1_1simple_1_1Command.html" target="_top" xlink:title="An implementation of the Command design pattern for callback.">
<polygon fill="#ffffff" stroke="#000000" points="940,-411.5 940,-430.5 1065,-430.5 1065,-411.5 940,-411.5"/>
<text text-anchor="middle" x="1002.5" y="-418.5" font-family="Helvetica,sans-Serif" font-size="10.00" fill="#000000">itk::simple::Command</text>
</a>
</g>
</g>
<!-- Node4&#45;&gt;Node7 -->
<g id="edge7" class="edge">
<title>Node4&#45;&gt;Node7</title>
<path fill="none" stroke="#006400" d="M150.1546,-387.1804C332.6195,-394.4203 775.837,-412.0064 939.9917,-418.5198"/>
<polygon fill="#006400" stroke="#006400" points="150.22,-383.6803 140.0891,-386.781 149.9424,-390.6748 150.22,-383.6803"/>
</g>
<!-- Node5 -->
<g id="node5" class="node">
<title>Node5</title>
<g id="a_node5"><a xlink:title=" ">
<polygon fill="#ffffff" stroke="#bfbfbf" points="1611,-346 1611,-376 1798,-376 1798,-346 1611,-346"/>
<text text-anchor="start" x="1619" y="-364" font-family="Helvetica,sans-Serif" font-size="10.00" fill="#000000">std::list&lt; itk::simple</text>
<text text-anchor="middle" x="1704.5" y="-353" font-family="Helvetica,sans-Serif" font-size="10.00" fill="#000000">::ProcessObject::EventCommand &gt;</text>
</a>
</g>
</g>
<!-- Node5&#45;&gt;Node3 -->
<g id="edge4" class="edge">
<title>Node5&#45;&gt;Node3</title>
<path fill="none" stroke="#9a32cd" stroke-dasharray="5,2" d="M1600.1769,-361C1524.7154,-361 1420.3036,-361 1328.5,-361 643,-361 643,-361 643,-361 543.2778,-361 427.974,-361 355.5195,-361"/>
<polygon fill="#9a32cd" stroke="#9a32cd" points="1600.6284,-364.5001 1610.6284,-361 1600.6284,-357.5001 1600.6284,-364.5001"/>
<text text-anchor="middle" x="1002.5" y="-364" font-family="Helvetica,sans-Serif" font-size="10.00" fill="#000000"> m_Commands</text>
</g>
<!-- Node6 -->
<g id="node6" class="node">
<title>Node6</title>
<g id="a_node6"><a xlink:href="structitk_1_1simple_1_1ProcessObject_1_1EventCommand.html" target="_top" xlink:title=" ">
<polygon fill="#ffffff" stroke="#000000" points="1257,-394 1257,-424 1400,-424 1400,-394 1257,-394"/>
<text text-anchor="start" x="1265" y="-412" font-family="Helvetica,sans-Serif" font-size="10.00" fill="#000000">itk::simple::ProcessObject</text>
<text text-anchor="middle" x="1328.5" y="-401" font-family="Helvetica,sans-Serif" font-size="10.00" fill="#000000">::EventCommand</text>
</a>
</g>
</g>
<!-- Node6&#45;&gt;Node5 -->
<g id="edge5" class="edge">
<title>Node6&#45;&gt;Node5</title>
<path fill="none" stroke="#9a32cd" stroke-dasharray="5,2" d="M1410.1378,-398.5782C1469.1804,-391.0408 1549.0824,-380.8405 1610.7415,-372.9692"/>
<polygon fill="#9a32cd" stroke="#9a32cd" points="1409.584,-395.1204 1400.1078,-399.8586 1410.4705,-402.064 1409.584,-395.1204"/>
<text text-anchor="middle" x="1499.5" y="-400" font-family="Helvetica,sans-Serif" font-size="10.00" fill="#000000"> elements</text>
</g>
<!-- Node7&#45;&gt;Node6 -->
<g id="edge6" class="edge">
<title>Node7&#45;&gt;Node6</title>
<path fill="none" stroke="#9a32cd" stroke-dasharray="5,2" d="M1075.5644,-418.3105C1129.6557,-416.3194 1202.9815,-413.6203 1256.7562,-411.6409"/>
<polygon fill="#9a32cd" stroke="#9a32cd" points="1075.2205,-414.8207 1065.3561,-418.6863 1075.4781,-421.816 1075.2205,-414.8207"/>
<text text-anchor="middle" x="1165.5" y="-421" font-family="Helvetica,sans-Serif" font-size="10.00" fill="#000000"> m_Command</text>
</g>
<!-- Node8 -->
<g id="node8" class="node">
<title>Node8</title>
<g id="a_node8"><a xlink:title="STL class.">
<polygon fill="#ffffff" stroke="#bfbfbf" points="610.5,-484.5 610.5,-503.5 675.5,-503.5 675.5,-484.5 610.5,-484.5"/>
<text text-anchor="middle" x="643" y="-491.5" font-family="Helvetica,sans-Serif" font-size="10.00" fill="#000000">std::string</text>
</a>
</g>
</g>
<!-- Node8&#45;&gt;Node7 -->
<g id="edge8" class="edge">
<title>Node8&#45;&gt;Node7</title>
<path fill="none" stroke="#9a32cd" stroke-dasharray="5,2" d="M686.0506,-489.0218C738.1008,-482.5563 828.1607,-469.9357 904,-452 928.5994,-446.1823 955.9819,-437.369 975.6194,-430.6248"/>
<polygon fill="#9a32cd" stroke="#9a32cd" points="685.3518,-485.5811 675.8511,-490.2702 686.2023,-492.5293 685.3518,-485.5811"/>
<text text-anchor="middle" x="823" y="-484" font-family="Helvetica,sans-Serif" font-size="10.00" fill="#000000"> m_Name</text>
</g>
<!-- Node9 -->
<g id="node9" class="node">
<title>Node9</title>
<g id="a_node9"><a xlink:title="STL class.">
<polygon fill="#ffffff" stroke="#bfbfbf" points="232,-486 232,-516 336,-516 336,-486 232,-486"/>
<text text-anchor="start" x="240" y="-504" font-family="Helvetica,sans-Serif" font-size="10.00" fill="#000000">std::basic_string&lt;</text>
<text text-anchor="middle" x="284" y="-493" font-family="Helvetica,sans-Serif" font-size="10.00" fill="#000000"> char &gt;</text>
</a>
</g>
</g>
<!-- Node9&#45;&gt;Node8 -->
<g id="edge9" class="edge">
<title>Node9&#45;&gt;Node8</title>
<path fill="none" stroke="#191970" d="M346.2062,-499.7871C422.8399,-498.2928 550.2103,-495.8093 610.0422,-494.6426"/>
<polygon fill="#191970" stroke="#191970" points="346.1315,-496.2878 336.2017,-499.9821 346.268,-503.2864 346.1315,-496.2878"/>
</g>
<!-- Node10&#45;&gt;Node7 -->
<g id="edge10" class="edge">
<title>Node10&#45;&gt;Node7</title>
<path fill="none" stroke="#9a32cd" stroke-dasharray="5,2" d="M711.4379,-438.8119C777.3049,-434.7811 876.0581,-428.7378 939.8931,-424.8313"/>
<polygon fill="#9a32cd" stroke="#9a32cd" points="710.9269,-435.3365 701.1594,-439.4409 711.3546,-442.3234 710.9269,-435.3365"/>
<text text-anchor="middle" x="823" y="-440" font-family="Helvetica,sans-Serif" font-size="10.00" fill="#000000"> m_ReferencedObjects</text>
</g>
<!-- Node11 -->
<g id="node11" class="node">
<title>Node11</title>
<g id="a_node11"><a xlink:title="STL class.">
<polygon fill="#ffffff" stroke="#bfbfbf" points="243,-447.5 243,-466.5 325,-466.5 325,-447.5 243,-447.5"/>
<text text-anchor="middle" x="284" y="-454.5" font-family="Helvetica,sans-Serif" font-size="10.00" fill="#000000">std::set&lt; K &gt;</text>
</a>
</g>
</g>
<!-- Node11&#45;&gt;Node10 -->
<g id="edge12" class="edge">
<title>Node11&#45;&gt;Node10</title>
<path fill="none" stroke="#ffa500" stroke-dasharray="5,2" d="M335.3475,-454.9976C401.3615,-452.4232 515.6989,-447.9644 584.8496,-445.2677"/>
<polygon fill="#ffa500" stroke="#ffa500" points="335.0378,-451.5069 325.1819,-455.394 335.3107,-458.5016 335.0378,-451.5069"/>
<text text-anchor="middle" x="463.5" y="-456" font-family="Helvetica,sans-Serif" font-size="10.00" fill="#000000"> &lt; itk::simple::ProcessObject * &gt;</text>
</g>
<!-- Node12 -->
<g id="node12" class="node">
<title>Node12</title>
<g id="a_node12"><a xlink:title=" ">
<polygon fill="#ffffff" stroke="#bfbfbf" points="55.5,-447.5 55.5,-466.5 84.5,-466.5 84.5,-447.5 55.5,-447.5"/>
<text text-anchor="middle" x="70" y="-454.5" font-family="Helvetica,sans-Serif" font-size="10.00" fill="#000000">K</text>
</a>
</g>
</g>
<!-- Node12&#45;&gt;Node11 -->
<g id="edge13" class="edge">
<title>Node12&#45;&gt;Node11</title>
<path fill="none" stroke="#9a32cd" stroke-dasharray="5,2" d="M94.9038,-457C131.2222,-457 199.1487,-457 242.9345,-457"/>
<polygon fill="#9a32cd" stroke="#9a32cd" points="94.7091,-453.5001 84.7091,-457 94.7091,-460.5001 94.7091,-453.5001"/>
<text text-anchor="middle" x="171.5" y="-460" font-family="Helvetica,sans-Serif" font-size="10.00" fill="#000000"> keys</text>
</g>
<!-- Node13 -->
<g id="node13" class="node">
<title>Node13</title>
<g id="a_node13"><a xlink:title="STL class.">
<polygon fill="#ffffff" stroke="#bfbfbf" points="1288,-307.5 1288,-326.5 1369,-326.5 1369,-307.5 1288,-307.5"/>
<text text-anchor="middle" x="1328.5" y="-314.5" font-family="Helvetica,sans-Serif" font-size="10.00" fill="#000000">std::list&lt; T &gt;</text>
</a>
</g>
</g>
<!-- Node13&#45;&gt;Node5 -->
<g id="edge14" class="edge">
<title>Node13&#45;&gt;Node5</title>
<path fill="none" stroke="#ffa500" stroke-dasharray="5,2" d="M1379.3855,-315.2522C1428.8648,-314.3556 1506.0048,-315.0887 1572,-325 1601.5842,-329.443 1634.0057,-338.1817 1659.3727,-345.9364"/>
<polygon fill="#ffa500" stroke="#ffa500" points="1379.185,-311.7555 1369.261,-315.4655 1379.3325,-318.754 1379.185,-311.7555"/>
<text text-anchor="start" x="1428.5" y="-339" font-family="Helvetica,sans-Serif" font-size="10.00" fill="#000000"> &lt; itk::simple::ProcessObject</text>
<text text-anchor="middle" x="1499.5" y="-328" font-family="Helvetica,sans-Serif" font-size="10.00" fill="#000000">::EventCommand &gt;</text>
</g>
<!-- Node14 -->
<g id="node14" class="node">
<title>Node14</title>
<g id="a_node14"><a xlink:title=" ">
<polygon fill="#ffffff" stroke="#bfbfbf" points="988,-257.5 988,-276.5 1017,-276.5 1017,-257.5 988,-257.5"/>
<text text-anchor="middle" x="1002.5" y="-264.5" font-family="Helvetica,sans-Serif" font-size="10.00" fill="#000000">T</text>
</a>
</g>
</g>
<!-- Node14&#45;&gt;Node13 -->
<g id="edge15" class="edge">
<title>Node14&#45;&gt;Node13</title>
<path fill="none" stroke="#9a32cd" stroke-dasharray="5,2" d="M1027.4449,-270.8259C1083.4614,-279.4174 1219.6661,-300.3077 1287.998,-310.788"/>
<polygon fill="#9a32cd" stroke="#9a32cd" points="1027.7697,-267.3349 1017.3547,-269.2783 1026.7084,-274.254 1027.7697,-267.3349"/>
<text text-anchor="middle" x="1165.5" y="-304" font-family="Helvetica,sans-Serif" font-size="10.00" fill="#000000"> elements</text>
</g>
<!-- Node21 -->
<g id="node21" class="node">
<title>Node21</title>
<g id="a_node21"><a xlink:title="STL class.">
<polygon fill="#ffffff" stroke="#bfbfbf" points="1269.5,-196.5 1269.5,-215.5 1387.5,-215.5 1387.5,-196.5 1269.5,-196.5"/>
<text text-anchor="middle" x="1328.5" y="-203.5" font-family="Helvetica,sans-Serif" font-size="10.00" fill="#000000">std::unique_ptr&lt; T &gt;</text>
</a>
</g>
</g>
<!-- Node14&#45;&gt;Node21 -->
<g id="edge24" class="edge">
<title>Node14&#45;&gt;Node21</title>
<path fill="none" stroke="#9a32cd" stroke-dasharray="5,2" d="M1027.2667,-262.3657C1080.4467,-252.4149 1206.4838,-228.8312 1277.5261,-215.5381"/>
<polygon fill="#9a32cd" stroke="#9a32cd" points="1026.5403,-258.9408 1017.3547,-264.2204 1027.8278,-265.8214 1026.5403,-258.9408"/>
<text text-anchor="middle" x="1165.5" y="-251" font-family="Helvetica,sans-Serif" font-size="10.00" fill="#000000"> ptr</text>
</g>
<!-- Node23 -->
<g id="node23" class="node">
<title>Node23</title>
<g id="a_node23"><a xlink:title="STL class.">
<polygon fill="#ffffff" stroke="#bfbfbf" points="1280,-257.5 1280,-276.5 1377,-276.5 1377,-257.5 1280,-257.5"/>
<text text-anchor="middle" x="1328.5" y="-264.5" font-family="Helvetica,sans-Serif" font-size="10.00" fill="#000000">std::vector&lt; T &gt;</text>
</a>
</g>
</g>
<!-- Node14&#45;&gt;Node23 -->
<g id="edge27" class="edge">
<title>Node14&#45;&gt;Node23</title>
<path fill="none" stroke="#9a32cd" stroke-dasharray="5,2" d="M1027.3873,-267C1081.2612,-267 1209.4992,-267 1279.9998,-267"/>
<polygon fill="#9a32cd" stroke="#9a32cd" points="1027.3547,-263.5001 1017.3547,-267 1027.3546,-270.5001 1027.3547,-263.5001"/>
<text text-anchor="middle" x="1165.5" y="-270" font-family="Helvetica,sans-Serif" font-size="10.00" fill="#000000"> elements</text>
</g>
<!-- Node15 -->
<g id="node15" class="node">
<title>Node15</title>
<g id="a_node15"><a xlink:title=" ">
<polygon fill="#ffffff" stroke="#bfbfbf" points="1590,-176.5 1590,-217.5 1819,-217.5 1819,-176.5 1590,-176.5"/>
<text text-anchor="start" x="1598" y="-205.5" font-family="Helvetica,sans-Serif" font-size="10.00" fill="#000000">std::unique_ptr&lt; itk</text>
<text text-anchor="start" x="1598" y="-194.5" font-family="Helvetica,sans-Serif" font-size="10.00" fill="#000000">::simple::detail::DualMember</text>
<text text-anchor="middle" x="1704.5" y="-183.5" font-family="Helvetica,sans-Serif" font-size="10.00" fill="#000000">FunctionFactory&lt; MemberFunctionType &gt; &gt;</text>
</a>
</g>
</g>
<!-- Node15&#45;&gt;Node1 -->
<g id="edge16" class="edge">
<title>Node15&#45;&gt;Node1</title>
<path fill="none" stroke="#9a32cd" stroke-dasharray="5,2" d="M1829.2911,-201.2127C1868.8879,-203.0352 1912.817,-205.5618 1953,-209 1958.7775,-209.4944 1964.7402,-210.0691 1970.737,-210.6941"/>
<polygon fill="#9a32cd" stroke="#9a32cd" points="1829.2014,-197.7053 1819.0543,-200.7527 1828.8871,-204.6982 1829.2014,-197.7053"/>
<text text-anchor="middle" x="1895" y="-212" font-family="Helvetica,sans-Serif" font-size="10.00" fill="#000000"> m_DualMemberFactory</text>
</g>
<!-- Node16 -->
<g id="node16" class="node">
<title>Node16</title>
<g id="a_node16"><a xlink:href="classitk_1_1simple_1_1detail_1_1DualMemberFunctionFactory.html" target="_top" xlink:title=" ">
<polygon fill="#ffffff" stroke="#000000" points="1248,-63.5 1248,-104.5 1409,-104.5 1409,-63.5 1248,-63.5"/>
<text text-anchor="start" x="1256" y="-92.5" font-family="Helvetica,sans-Serif" font-size="10.00" fill="#000000">itk::simple::detail</text>
<text text-anchor="start" x="1256" y="-81.5" font-family="Helvetica,sans-Serif" font-size="10.00" fill="#000000">::DualMemberFunctionFactory</text>
<text text-anchor="middle" x="1328.5" y="-70.5" font-family="Helvetica,sans-Serif" font-size="10.00" fill="#000000">&lt; MemberFunctionType &gt;</text>
</a>
</g>
</g>
<!-- Node16&#45;&gt;Node15 -->
<g id="edge17" class="edge">
<title>Node16&#45;&gt;Node15</title>
<path fill="none" stroke="#9a32cd" stroke-dasharray="5,2" d="M1406.8004,-107.5318C1474.5285,-127.8862 1571.4724,-157.021 1636.1269,-176.4517"/>
<polygon fill="#9a32cd" stroke="#9a32cd" points="1407.6112,-104.1209 1397.027,-104.5945 1405.5965,-110.8247 1407.6112,-104.1209"/>
<text text-anchor="middle" x="1499.5" y="-157" font-family="Helvetica,sans-Serif" font-size="10.00" fill="#000000"> ptr</text>
</g>
<!-- Node17 -->
<g id="node17" class="node">
<title>Node17</title>
<g id="a_node17"><a xlink:href="classitk_1_1simple_1_1detail_1_1MemberFunctionFactoryBase.html" target="_top" xlink:title=" ">
<polygon fill="#ffffff" stroke="#000000" points="742,-59.5 742,-122.5 904,-122.5 904,-59.5 742,-59.5"/>
<text text-anchor="start" x="750" y="-110.5" font-family="Helvetica,sans-Serif" font-size="10.00" fill="#000000">itk::simple::detail</text>
<text text-anchor="start" x="750" y="-99.5" font-family="Helvetica,sans-Serif" font-size="10.00" fill="#000000">::MemberFunctionFactoryBase</text>
<text text-anchor="start" x="750" y="-88.5" font-family="Helvetica,sans-Serif" font-size="10.00" fill="#000000">&lt; MemberFunctionType, std</text>
<text text-anchor="start" x="750" y="-77.5" font-family="Helvetica,sans-Serif" font-size="10.00" fill="#000000">::tuple&lt; unsigned int, int,</text>
<text text-anchor="middle" x="823" y="-66.5" font-family="Helvetica,sans-Serif" font-size="10.00" fill="#000000"> unsigned int, int &gt; &gt;</text>
</a>
</g>
</g>
<!-- Node17&#45;&gt;Node16 -->
<g id="edge18" class="edge">
<title>Node17&#45;&gt;Node16</title>
<path fill="none" stroke="#006400" d="M914.4003,-89.7343C1009.5125,-88.4172 1157.0082,-86.3748 1247.9021,-85.1161"/>
<polygon fill="#006400" stroke="#006400" points="914.1679,-86.2371 904.2173,-89.8753 914.2649,-93.2364 914.1679,-86.2371"/>
</g>
<!-- Node18 -->
<g id="node18" class="node">
<title>Node18</title>
<g id="a_node18"><a xlink:href="classitk_1_1simple_1_1detail_1_1MemberFunctionFactoryBase.html" target="_top" xlink:title="A base class for the MemberFunctionFactory.">
<polygon fill="#ffffff" stroke="#000000" points="203,-49 203,-79 365,-79 365,-49 203,-49"/>
<text text-anchor="start" x="211" y="-67" font-family="Helvetica,sans-Serif" font-size="10.00" fill="#000000">itk::simple::detail</text>
<text text-anchor="middle" x="284" y="-56" font-family="Helvetica,sans-Serif" font-size="10.00" fill="#000000">::MemberFunctionFactoryBase</text>
</a>
</g>
</g>
<!-- Node18&#45;&gt;Node17 -->
<g id="edge19" class="edge">
<title>Node18&#45;&gt;Node17</title>
<path fill="none" stroke="#ffa500" stroke-dasharray="5,2" d="M375.2291,-69.5729C377.8478,-69.7188 380.4424,-69.8615 383,-70 508.2368,-76.7834 653.5901,-83.494 741.8884,-87.4411"/>
<polygon fill="#ffa500" stroke="#ffa500" points="375.2182,-66.0668 365.0364,-68.9963 374.8227,-73.0556 375.2182,-66.0668"/>
<text text-anchor="start" x="403" y="-114" font-family="Helvetica,sans-Serif" font-size="10.00" fill="#000000"> &lt; MemberFunctionType,</text>
<text text-anchor="start" x="403" y="-103" font-family="Helvetica,sans-Serif" font-size="10.00" fill="#000000"> std::tuple&lt; unsigned</text>
<text text-anchor="start" x="403" y="-92" font-family="Helvetica,sans-Serif" font-size="10.00" fill="#000000"> int, int, unsigned int,</text>
<text text-anchor="middle" x="463.5" y="-81" font-family="Helvetica,sans-Serif" font-size="10.00" fill="#000000"> int &gt; &gt;</text>
</g>
<!-- Node20 -->
<g id="node20" class="node">
<title>Node20</title>
<g id="a_node20"><a xlink:href="classitk_1_1simple_1_1detail_1_1MemberFunctionFactoryBase.html" target="_top" xlink:title=" ">
<polygon fill="#ffffff" stroke="#000000" points="562,-.5 562,-63.5 724,-63.5 724,-.5 562,-.5"/>
<text text-anchor="start" x="570" y="-51.5" font-family="Helvetica,sans-Serif" font-size="10.00" fill="#000000">itk::simple::detail</text>
<text text-anchor="start" x="570" y="-40.5" font-family="Helvetica,sans-Serif" font-size="10.00" fill="#000000">::MemberFunctionFactoryBase</text>
<text text-anchor="start" x="570" y="-29.5" font-family="Helvetica,sans-Serif" font-size="10.00" fill="#000000">&lt; TMemberFunctionPointer,</text>
<text text-anchor="start" x="570" y="-18.5" font-family="Helvetica,sans-Serif" font-size="10.00" fill="#000000"> std::tuple&lt; unsigned int,</text>
<text text-anchor="middle" x="643" y="-7.5" font-family="Helvetica,sans-Serif" font-size="10.00" fill="#000000"> int, unsigned int, int &gt; &gt;</text>
</a>
</g>
</g>
<!-- Node18&#45;&gt;Node20 -->
<g id="edge22" class="edge">
<title>Node18&#45;&gt;Node20</title>
<path fill="none" stroke="#ffa500" stroke-dasharray="5,2" d="M339.7907,-46.2024C353.7592,-42.4643 368.8101,-39.0393 383,-37 442.4352,-28.4581 510.2908,-27.4422 561.7752,-28.4379"/>
<polygon fill="#ffa500" stroke="#ffa500" points="338.5384,-42.9176 329.8385,-48.9642 340.4103,-49.6626 338.5384,-42.9176"/>
<text text-anchor="start" x="394" y="-62" font-family="Helvetica,sans-Serif" font-size="10.00" fill="#000000"> &lt; TMemberFunctionPointer,</text>
<text text-anchor="start" x="394" y="-51" font-family="Helvetica,sans-Serif" font-size="10.00" fill="#000000"> std::tuple&lt; unsigned int,</text>
<text text-anchor="middle" x="463.5" y="-40" font-family="Helvetica,sans-Serif" font-size="10.00" fill="#000000"> int, unsigned int, int &gt; &gt;</text>
</g>
<!-- Node19 -->
<g id="node19" class="node">
<title>Node19</title>
<g id="a_node19"><a xlink:href="classitk_1_1simple_1_1detail_1_1DualMemberFunctionFactory.html" target="_top" xlink:title="A class used to instantiate and generate function objects of templated member functions with two temp...">
<polygon fill="#ffffff" stroke="#000000" points="922,-19.5 922,-60.5 1083,-60.5 1083,-19.5 922,-19.5"/>
<text text-anchor="start" x="930" y="-48.5" font-family="Helvetica,sans-Serif" font-size="10.00" fill="#000000">itk::simple::detail</text>
<text text-anchor="start" x="930" y="-37.5" font-family="Helvetica,sans-Serif" font-size="10.00" fill="#000000">::DualMemberFunctionFactory</text>
<text text-anchor="middle" x="1002.5" y="-26.5" font-family="Helvetica,sans-Serif" font-size="10.00" fill="#000000">&lt; TMemberFunctionPointer &gt;</text>
</a>
</g>
</g>
<!-- Node19&#45;&gt;Node16 -->
<g id="edge20" class="edge">
<title>Node19&#45;&gt;Node16</title>
<path fill="none" stroke="#ffa500" stroke-dasharray="5,2" d="M1093.3946,-48.2841C1135.1174,-52.5236 1185.1751,-58.2253 1230,-65 1235.8549,-65.8849 1241.8921,-66.8699 1247.9598,-67.9128"/>
<polygon fill="#ffa500" stroke="#ffa500" points="1093.5515,-44.7823 1083.2518,-47.2654 1092.8519,-51.7472 1093.5515,-44.7823"/>
<text text-anchor="middle" x="1165.5" y="-68" font-family="Helvetica,sans-Serif" font-size="10.00" fill="#000000"> &lt; MemberFunctionType &gt;</text>
</g>
<!-- Node20&#45;&gt;Node19 -->
<g id="edge21" class="edge">
<title>Node20&#45;&gt;Node19</title>
<path fill="none" stroke="#006400" d="M734.3646,-34.0331C792.2185,-35.3206 866.3358,-36.9699 921.9781,-38.2081"/>
<polygon fill="#006400" stroke="#006400" points="734.2025,-30.5288 724.1271,-33.8053 734.0467,-37.527 734.2025,-30.5288"/>
</g>
<!-- Node21&#45;&gt;Node15 -->
<g id="edge23" class="edge">
<title>Node21&#45;&gt;Node15</title>
<path fill="none" stroke="#ffa500" stroke-dasharray="5,2" d="M1397.7503,-202.1675C1407.5673,-201.7166 1417.5374,-201.3083 1427,-201 1480.4538,-199.2586 1539.7241,-198.2753 1589.7174,-197.7201"/>
<polygon fill="#ffa500" stroke="#ffa500" points="1397.4255,-198.6789 1387.6032,-202.6502 1397.7582,-205.6709 1397.4255,-198.6789"/>
<text text-anchor="start" x="1427" y="-226" font-family="Helvetica,sans-Serif" font-size="10.00" fill="#000000"> &lt; itk::simple::detail</text>
<text text-anchor="start" x="1427" y="-215" font-family="Helvetica,sans-Serif" font-size="10.00" fill="#000000">::DualMemberFunctionFactory</text>
<text text-anchor="middle" x="1499.5" y="-204" font-family="Helvetica,sans-Serif" font-size="10.00" fill="#000000">&lt; MemberFunctionType &gt; &gt;</text>
</g>
<!-- Node22 -->
<g id="node22" class="node">
<title>Node22</title>
<g id="a_node22"><a xlink:title=" ">
<polygon fill="#ffffff" stroke="#bfbfbf" points="1642,-236.5 1642,-255.5 1767,-255.5 1767,-236.5 1642,-236.5"/>
<text text-anchor="middle" x="1704.5" y="-243.5" font-family="Helvetica,sans-Serif" font-size="10.00" fill="#000000">std::vector&lt; uint8_t &gt;</text>
</a>
</g>
</g>
<!-- Node22&#45;&gt;Node1 -->
<g id="edge25" class="edge">
<title>Node22&#45;&gt;Node1</title>
<path fill="none" stroke="#9a32cd" stroke-dasharray="5,2" d="M1777.479,-240.727C1834.1662,-236.6311 1912.6779,-230.9582 1970.9637,-226.7468"/>
<polygon fill="#9a32cd" stroke="#9a32cd" points="1776.8797,-237.261 1767.158,-241.4727 1777.3843,-244.2428 1776.8797,-237.261"/>
<text text-anchor="middle" x="1895" y="-239" font-family="Helvetica,sans-Serif" font-size="10.00" fill="#000000"> m_Colormap</text>
</g>
<!-- Node23&#45;&gt;Node22 -->
<g id="edge26" class="edge">
<title>Node23&#45;&gt;Node22</title>
<path fill="none" stroke="#ffa500" stroke-dasharray="5,2" d="M1387.326,-260.4299C1400.3759,-259.1393 1414.1472,-257.9063 1427,-257 1500.7063,-251.8027 1585.6119,-248.8859 1641.8947,-247.3819"/>
<polygon fill="#ffa500" stroke="#ffa500" points="1386.6421,-256.9812 1377.0462,-261.4721 1387.3483,-263.9455 1386.6421,-256.9812"/>
<text text-anchor="middle" x="1499.5" y="-260" font-family="Helvetica,sans-Serif" font-size="10.00" fill="#000000"> &lt; uint8_t &gt;</text>
</g>
<!-- Node24 -->
<g id="node24" class="node">
<title>Node24</title>
<g id="a_node24"><a xlink:title=" ">
<polygon fill="#ffffff" stroke="#bfbfbf" points="1642.5,-275 1642.5,-305 1766.5,-305 1766.5,-275 1642.5,-275"/>
<text text-anchor="start" x="1650.5" y="-293" font-family="Helvetica,sans-Serif" font-size="10.00" fill="#000000">std::vector&lt; unsigned</text>
<text text-anchor="middle" x="1704.5" y="-282" font-family="Helvetica,sans-Serif" font-size="10.00" fill="#000000"> int &gt;</text>
</a>
</g>
</g>
<!-- Node23&#45;&gt;Node24 -->
<g id="edge29" class="edge">
<title>Node23&#45;&gt;Node24</title>
<path fill="none" stroke="#ffa500" stroke-dasharray="5,2" d="M1387.5917,-270.6147C1457.0149,-274.8613 1571.6715,-281.8748 1642.3795,-286.2001"/>
<polygon fill="#ffa500" stroke="#ffa500" points="1387.465,-267.1005 1377.27,-269.9833 1387.0376,-274.0874 1387.465,-267.1005"/>
<text text-anchor="middle" x="1499.5" y="-285" font-family="Helvetica,sans-Serif" font-size="10.00" fill="#000000"> &lt; unsigned int &gt;</text>
</g>
<!-- Node24&#45;&gt;Node1 -->
<g id="edge28" class="edge">
<title>Node24&#45;&gt;Node1</title>
<path fill="none" stroke="#9a32cd" stroke-dasharray="5,2" d="M1776.8002,-281.4277C1826.6648,-274.84 1894.2849,-264.5674 1953,-251 1970.6007,-246.933 1989.6542,-241.3443 2006.2086,-236.0922"/>
<polygon fill="#9a32cd" stroke="#9a32cd" points="1776.2195,-277.9736 1766.7557,-282.7366 1777.1242,-284.915 1776.2195,-277.9736"/>
<text text-anchor="middle" x="1895" y="-287" font-family="Helvetica,sans-Serif" font-size="10.00" fill="#000000"> m_DilationRadius</text>
<text text-anchor="middle" x="1895" y="-276" font-family="Helvetica,sans-Serif" font-size="10.00" fill="#000000">m_ContourThickness</text>
</g>
</g>
</svg>
        <g id="navigator" transform="translate(0 0)" fill="#404254">
                <rect fill="#f2f5e9" fill-opacity="0.5" stroke="#606060" stroke-width=".5" x="0" y="0" width="60" height="60"/>
                <use id="zoomplus" xlink:href="#zoomPlus" x="17" y="9" onmousedown="handleZoom(evt,'in')"/>
                <use id="zoomminus" xlink:href="#zoomMin" x="42" y="9" onmousedown="handleZoom(evt,'out')"/>
                <use id="reset" xlink:href="#resetDef" x="30" y="36" onmousedown="handleReset()"/>
                <g id="arrowUp" xlink:href="#dirArrow" transform="translate(30 24)" onmousedown="handlePan(0,-1)">
                  <use xlink:href="#rim" fill="#404040">
                        <set attributeName="fill" to="#808080" begin="arrowUp.mouseover" end="arrowUp.mouseout"/>
                  </use>
                  <path fill="none" stroke="white" stroke-width="1.5" d="M0,-3.0v7 M-2.5,-0.5L0,-3.0L2.5,-0.5"/>
                </g>
                <g id="arrowRight" xlink:href="#dirArrow" transform="rotate(90) translate(36 -43)" onmousedown="handlePan(1,0)">
                  <use xlink:href="#rim" fill="#404040">
                        <set attributeName="fill" to="#808080" begin="arrowRight.mouseover" end="arrowRight.mouseout"/>
                  </use>
                  <path fill="none" stroke="white" stroke-width="1.5" d="M0,-3.0v7 M-2.5,-0.5L0,-3.0L2.5,-0.5"/>
                </g>
                <g id="arrowDown" xlink:href="#dirArrow" transform="rotate(180) translate(-30 -48)" onmousedown="handlePan(0,1)">
                  <use xlink:href="#rim" fill="#404040">
                        <set attributeName="fill" to="#808080" begin="arrowDown.mouseover" end="arrowDown.mouseout"/>
                  </use>
                  <path fill="none" stroke="white" stroke-width="1.5" d="M0,-3.0v7 M-2.5,-0.5L0,-3.0L2.5,-0.5"/>
                </g>
                <g id="arrowLeft" xlink:href="#dirArrow" transform="rotate(270) translate(-36 17)" onmousedown="handlePan(-1,0)">
                  <use xlink:href="#rim" fill="#404040">
                        <set attributeName="fill" to="#808080" begin="arrowLeft.mouseover" end="arrowLeft.mouseout"/>
                  </use>
                  <path fill="none" stroke="white" stroke-width="1.5" d="M0,-3.0v7 M-2.5,-0.5L0,-3.0L2.5,-0.5"/>
                </g>
        </g>
        <svg viewBox="0 0 15 15" width="100%" height="30px" preserveAspectRatio="xMaxYMin meet">
         <g id="arrow_out" transform="scale(0.3 0.3)">
          <a xlink:href="classitk_1_1simple_1_1LabelMapContourOverlayImageFilter__coll__graph_org.svg" target="_base">
           <rect id="button" ry="5" rx="5" y="6" x="6" height="38" width="38"
                fill="#f2f5e9" fill-opacity="0.5" stroke="#606060" stroke-width="1.0"/>
           <path id="arrow"
             d="M 11.500037,31.436501 C 11.940474,20.09759 22.043105,11.32322 32.158766,21.979434 L 37.068811,17.246167 C 37.068811,17.246167 37.088388,32 37.088388,32 L 22.160133,31.978069 C 22.160133,31.978069 26.997745,27.140456 26.997745,27.140456 C 18.528582,18.264221 13.291696,25.230495 11.500037,31.436501 z"
             style="fill:#404040;"/>
          </a>
         </g>
        </svg>
</svg>
