<?xml version="1.0" encoding="UTF-8" standalone="no"?>
<!DOCTYPE svg PUBLIC "-//W3C//DTD SVG 1.1//EN"
 "http://www.w3.org/Graphics/SVG/1.1/DTD/svg11.dtd">
<!-- Generated by graphviz version 2.40.1 (20161225.0304)
 -->
<!-- Title: itk::HashImageFilter&lt; TImageType &gt; Pages: 1 -->
<svg width="3031pt" height="534pt"
 viewBox="0.00 0.00 3031.00 534.00" xmlns="http://www.w3.org/2000/svg" xmlns:xlink="http://www.w3.org/1999/xlink">
<g id="graph0" class="graph" transform="scale(1 1) rotate(0) translate(4 530)">
<title>itk::HashImageFilter&lt; TImageType &gt;</title>
<polygon fill="#ffffff" stroke="transparent" points="-4,4 -4,-530 3027,-530 3027,4 -4,4"/>
<!-- Node1 -->
<g id="node1" class="node">
<title>Node1</title>
<g id="a_node1"><a xlink:title="Generates a hash string from an image.">
<polygon fill="#bfbfbf" stroke="#000000" points="2908,-243 2908,-273 3023,-273 3023,-243 2908,-243"/>
<text text-anchor="start" x="2916" y="-261" font-family="Helvetica,sans-Serif" font-size="10.00" fill="#000000">itk::HashImageFilter</text>
<text text-anchor="middle" x="2965.5" y="-250" font-family="Helvetica,sans-Serif" font-size="10.00" fill="#000000">&lt; TImageType &gt;</text>
</a>
</g>
</g>
<!-- Node2 -->
<g id="node2" class="node">
<title>Node2</title>
<g id="a_node2"><a xlink:href="https://www.itk.org/Doxygen/html/classitk_1_1CastImageFilter.html" xlink:title=" ">
<polygon fill="#ffffff" stroke="#000000" points="2624,-274 2624,-304 2788,-304 2788,-274 2624,-274"/>
<text text-anchor="start" x="2632" y="-292" font-family="Helvetica,sans-Serif" font-size="10.00" fill="#000000">itk::CastImageFilter</text>
<text text-anchor="middle" x="2706" y="-281" font-family="Helvetica,sans-Serif" font-size="10.00" fill="#000000">&lt; TImageType, TImageType &gt;</text>
</a>
</g>
</g>
<!-- Node2&#45;&gt;Node1 -->
<g id="edge1" class="edge">
<title>Node2&#45;&gt;Node1</title>
<path fill="none" stroke="#191970" d="M2798.2735,-277.977C2834.7618,-273.6181 2875.5753,-268.7425 2907.7474,-264.8992"/>
<polygon fill="#191970" stroke="#191970" points="2797.6216,-274.5299 2788.1074,-279.1914 2798.452,-281.4804 2797.6216,-274.5299"/>
</g>
<!-- Node3 -->
<g id="node3" class="node">
<title>Node3</title>
<g id="a_node3"><a xlink:href="https://www.itk.org/Doxygen/html/classitk_1_1InPlaceImageFilter.html" xlink:title=" ">
<polygon fill="#ffffff" stroke="#000000" points="2048,-269 2048,-299 2224,-299 2224,-269 2048,-269"/>
<text text-anchor="start" x="2056" y="-287" font-family="Helvetica,sans-Serif" font-size="10.00" fill="#000000">itk::InPlaceImageFilter</text>
<text text-anchor="middle" x="2136" y="-276" font-family="Helvetica,sans-Serif" font-size="10.00" fill="#000000">&lt; TInputImage, TOutputImage &gt;</text>
</a>
</g>
</g>
<!-- Node3&#45;&gt;Node2 -->
<g id="edge2" class="edge">
<title>Node3&#45;&gt;Node2</title>
<path fill="none" stroke="#191970" d="M2234.2998,-286.7985C2236.8933,-286.8671 2239.4637,-286.9343 2242,-287 2403.7389,-291.1871 2444.2252,-294.4261 2606,-292 2611.8179,-291.9128 2617.8256,-291.797 2623.8738,-291.6616"/>
<polygon fill="#191970" stroke="#191970" points="2234.2952,-283.2972 2224.2052,-286.5287 2234.1081,-290.2947 2234.2952,-283.2972"/>
</g>
<!-- Node32 -->
<g id="node32" class="node">
<title>Node32</title>
<g id="a_node32"><a xlink:href="https://www.itk.org/Doxygen/html/classitk_1_1CastImageFilter.html" xlink:title=" ">
<polygon fill="#ffffff" stroke="#000000" points="2261,-247 2261,-277 2437,-277 2437,-247 2261,-247"/>
<text text-anchor="start" x="2269" y="-265" font-family="Helvetica,sans-Serif" font-size="10.00" fill="#000000">itk::CastImageFilter</text>
<text text-anchor="middle" x="2349" y="-254" font-family="Helvetica,sans-Serif" font-size="10.00" fill="#000000">&lt; TInputImage, TOutputImage &gt;</text>
</a>
</g>
</g>
<!-- Node3&#45;&gt;Node32 -->
<g id="edge44" class="edge">
<title>Node3&#45;&gt;Node32</title>
<path fill="none" stroke="#191970" d="M2234.1844,-273.8589C2243.0931,-272.9387 2252.0799,-272.0105 2260.8933,-271.1002"/>
<polygon fill="#191970" stroke="#191970" points="2233.7603,-270.384 2224.1728,-274.893 2234.4795,-277.3469 2233.7603,-270.384"/>
</g>
<!-- Node4 -->
<g id="node4" class="node">
<title>Node4</title>
<g id="a_node4"><a xlink:href="https://www.itk.org/Doxygen/html/classitk_1_1ImageToImageFilter.html" xlink:title=" ">
<polygon fill="#ffffff" stroke="#000000" points="1835,-269 1835,-299 2011,-299 2011,-269 1835,-269"/>
<text text-anchor="start" x="1843" y="-287" font-family="Helvetica,sans-Serif" font-size="10.00" fill="#000000">itk::ImageToImageFilter</text>
<text text-anchor="middle" x="1923" y="-276" font-family="Helvetica,sans-Serif" font-size="10.00" fill="#000000">&lt; TInputImage, TOutputImage &gt;</text>
</a>
</g>
</g>
<!-- Node4&#45;&gt;Node3 -->
<g id="edge3" class="edge">
<title>Node4&#45;&gt;Node3</title>
<path fill="none" stroke="#191970" d="M2021.1844,-284C2030.0931,-284 2039.0799,-284 2047.8933,-284"/>
<polygon fill="#191970" stroke="#191970" points="2021.1728,-280.5001 2011.1728,-284 2021.1728,-287.5001 2021.1728,-280.5001"/>
</g>
<!-- Node5 -->
<g id="node5" class="node">
<title>Node5</title>
<g id="a_node5"><a xlink:href="https://www.itk.org/Doxygen/html/classitk_1_1ImageSource.html" xlink:title=" ">
<polygon fill="#ffffff" stroke="#000000" points="1635.5,-301 1635.5,-331 1784.5,-331 1784.5,-301 1635.5,-301"/>
<text text-anchor="start" x="1643.5" y="-319" font-family="Helvetica,sans-Serif" font-size="10.00" fill="#000000">itk::ImageSource&lt; TOutput</text>
<text text-anchor="middle" x="1710" y="-308" font-family="Helvetica,sans-Serif" font-size="10.00" fill="#000000">Image &gt;</text>
</a>
</g>
</g>
<!-- Node5&#45;&gt;Node4 -->
<g id="edge4" class="edge">
<title>Node5&#45;&gt;Node4</title>
<path fill="none" stroke="#191970" d="M1794.7764,-303.2636C1807.9641,-301.2824 1821.616,-299.2314 1834.8759,-297.2393"/>
<polygon fill="#191970" stroke="#191970" points="1794.1653,-299.8161 1784.7963,-304.763 1795.2054,-306.7384 1794.1653,-299.8161"/>
</g>
<!-- Node6 -->
<g id="node6" class="node">
<title>Node6</title>
<g id="a_node6"><a xlink:href="https://www.itk.org/Doxygen/html/classitk_1_1ProcessObject.html" xlink:title=" ">
<polygon fill="#ffffff" stroke="#000000" points="1461.5,-328.5 1461.5,-347.5 1565.5,-347.5 1565.5,-328.5 1461.5,-328.5"/>
<text text-anchor="middle" x="1513.5" y="-335.5" font-family="Helvetica,sans-Serif" font-size="10.00" fill="#000000">itk::ProcessObject</text>
</a>
</g>
</g>
<!-- Node6&#45;&gt;Node5 -->
<g id="edge5" class="edge">
<title>Node6&#45;&gt;Node5</title>
<path fill="none" stroke="#191970" d="M1575.654,-331.0413C1594.6345,-328.9162 1615.7025,-326.5575 1635.4185,-324.3501"/>
<polygon fill="#191970" stroke="#191970" points="1575.191,-327.5712 1565.6425,-332.1622 1575.9699,-334.5277 1575.191,-327.5712"/>
</g>
<!-- Node7 -->
<g id="node7" class="node">
<title>Node7</title>
<g id="a_node7"><a xlink:href="https://www.itk.org/Doxygen/html/classitk_1_1Object.html" xlink:title=" ">
<polygon fill="#ffffff" stroke="#000000" points="1147,-367.5 1147,-386.5 1214,-386.5 1214,-367.5 1147,-367.5"/>
<text text-anchor="middle" x="1180.5" y="-374.5" font-family="Helvetica,sans-Serif" font-size="10.00" fill="#000000">itk::Object</text>
</a>
</g>
</g>
<!-- Node7&#45;&gt;Node6 -->
<g id="edge6" class="edge">
<title>Node7&#45;&gt;Node6</title>
<path fill="none" stroke="#191970" d="M1224.2452,-373.2107C1273.0474,-368.82 1354.3067,-361.0222 1424,-352 1436.0097,-350.4453 1448.8918,-348.5593 1461.035,-346.6819"/>
<polygon fill="#191970" stroke="#191970" points="1223.6933,-369.7459 1214.0442,-374.1213 1224.3158,-376.7182 1223.6933,-369.7459"/>
</g>
<!-- Node8 -->
<g id="node8" class="node">
<title>Node8</title>
<g id="a_node8"><a xlink:href="https://www.itk.org/Doxygen/html/classitk_1_1LightObject.html" xlink:title=" ">
<polygon fill="#ffffff" stroke="#000000" points="832,-388.5 832,-407.5 923,-407.5 923,-388.5 832,-388.5"/>
<text text-anchor="middle" x="877.5" y="-395.5" font-family="Helvetica,sans-Serif" font-size="10.00" fill="#000000">itk::LightObject</text>
</a>
</g>
</g>
<!-- Node8&#45;&gt;Node7 -->
<g id="edge7" class="edge">
<title>Node8&#45;&gt;Node7</title>
<path fill="none" stroke="#191970" d="M933.2647,-394.1351C995.7212,-389.8064 1094.9537,-382.929 1146.66,-379.3453"/>
<polygon fill="#191970" stroke="#191970" points="932.9243,-390.6502 923.1902,-394.8334 933.4083,-397.6335 932.9243,-390.6502"/>
</g>
<!-- Node9 -->
<g id="node9" class="node">
<title>Node9</title>
<g id="a_node9"><a xlink:title=" ">
<polygon fill="#ffffff" stroke="#bfbfbf" points="490,-389.5 490,-408.5 597,-408.5 597,-389.5 490,-389.5"/>
<text text-anchor="middle" x="543.5" y="-396.5" font-family="Helvetica,sans-Serif" font-size="10.00" fill="#000000">std::atomic&lt; int &gt;</text>
</a>
</g>
</g>
<!-- Node9&#45;&gt;Node8 -->
<g id="edge8" class="edge">
<title>Node9&#45;&gt;Node8</title>
<path fill="none" stroke="#9a32cd" stroke-dasharray="5,2" d="M607.3892,-398.8087C673.0502,-398.6121 773.6505,-398.3109 831.7577,-398.137"/>
<polygon fill="#9a32cd" stroke="#9a32cd" points="607.1523,-395.3093 597.1629,-398.8393 607.1733,-402.3093 607.1523,-395.3093"/>
<text text-anchor="middle" x="719.5" y="-401" font-family="Helvetica,sans-Serif" font-size="10.00" fill="#000000"> m_ReferenceCount</text>
</g>
<!-- Node10 -->
<g id="node10" class="node">
<title>Node10</title>
<g id="a_node10"><a xlink:title="STL class.">
<polygon fill="#ffffff" stroke="#bfbfbf" points="135.5,-373.5 135.5,-392.5 235.5,-392.5 235.5,-373.5 135.5,-373.5"/>
<text text-anchor="middle" x="185.5" y="-380.5" font-family="Helvetica,sans-Serif" font-size="10.00" fill="#000000">std::atomic&lt; T &gt;</text>
</a>
</g>
</g>
<!-- Node10&#45;&gt;Node9 -->
<g id="edge9" class="edge">
<title>Node10&#45;&gt;Node9</title>
<path fill="none" stroke="#ffa500" stroke-dasharray="5,2" d="M245.8345,-385.6965C314.1624,-388.7503 424.4707,-393.6803 489.8883,-396.6039"/>
<polygon fill="#ffa500" stroke="#ffa500" points="245.8016,-382.1916 235.6553,-385.2416 245.489,-389.1847 245.8016,-382.1916"/>
<text text-anchor="middle" x="358" y="-397" font-family="Helvetica,sans-Serif" font-size="10.00" fill="#000000"> &lt; int &gt;</text>
</g>
<!-- Node19 -->
<g id="node19" class="node">
<title>Node19</title>
<g id="a_node19"><a xlink:href="https://www.itk.org/Doxygen/html/classitk_1_1TimeStamp.html" xlink:title=" ">
<polygon fill="#ffffff" stroke="#000000" points="831.5,-350.5 831.5,-369.5 923.5,-369.5 923.5,-350.5 831.5,-350.5"/>
<text text-anchor="middle" x="877.5" y="-357.5" font-family="Helvetica,sans-Serif" font-size="10.00" fill="#000000">itk::TimeStamp</text>
</a>
</g>
</g>
<!-- Node10&#45;&gt;Node19 -->
<g id="edge21" class="edge">
<title>Node10&#45;&gt;Node19</title>
<path fill="none" stroke="#9a32cd" stroke-dasharray="5,2" d="M245.8879,-379.394C301.2918,-376.2081 385.6437,-371.6657 459,-369 594.2643,-364.0847 754.226,-361.5577 831.3513,-360.5456"/>
<polygon fill="#9a32cd" stroke="#9a32cd" points="245.6699,-375.9007 235.8888,-379.9724 246.0742,-382.889 245.6699,-375.9007"/>
<text text-anchor="middle" x="543.5" y="-372" font-family="Helvetica,sans-Serif" font-size="10.00" fill="#000000"> m_GlobalTimeStamp</text>
</g>
<!-- Node23 -->
<g id="node23" class="node">
<title>Node23</title>
<g id="a_node23"><a xlink:title=" ">
<polygon fill="#ffffff" stroke="#bfbfbf" points="652.5,-427.5 652.5,-446.5 786.5,-446.5 786.5,-427.5 652.5,-427.5"/>
<text text-anchor="middle" x="719.5" y="-434.5" font-family="Helvetica,sans-Serif" font-size="10.00" fill="#000000">std::atomic&lt; uint32_t &gt;</text>
</a>
</g>
</g>
<!-- Node10&#45;&gt;Node23 -->
<g id="edge30" class="edge">
<title>Node10&#45;&gt;Node23</title>
<path fill="none" stroke="#ffa500" stroke-dasharray="5,2" d="M222.0977,-395.6064C238.1417,-400.6163 257.3121,-405.9125 275,-409 407.3477,-432.1021 564.802,-436.7431 652.3169,-437.3405"/>
<polygon fill="#ffa500" stroke="#ffa500" points="223.1443,-392.2666 212.5532,-392.5464 221.0072,-398.9323 223.1443,-392.2666"/>
<text text-anchor="middle" x="358" y="-431" font-family="Helvetica,sans-Serif" font-size="10.00" fill="#000000"> &lt; uint32_t &gt;</text>
</g>
<!-- Node11 -->
<g id="node11" class="node">
<title>Node11</title>
<g id="a_node11"><a xlink:title=" ">
<polygon fill="#ffffff" stroke="#bfbfbf" points="0,-351.5 0,-370.5 29,-370.5 29,-351.5 0,-351.5"/>
<text text-anchor="middle" x="14.5" y="-358.5" font-family="Helvetica,sans-Serif" font-size="10.00" fill="#000000">T</text>
</a>
</g>
</g>
<!-- Node11&#45;&gt;Node10 -->
<g id="edge10" class="edge">
<title>Node11&#45;&gt;Node10</title>
<path fill="none" stroke="#9a32cd" stroke-dasharray="5,2" d="M39.1655,-364.1733C64.1796,-367.3915 103.6056,-372.4639 135.2345,-376.5331"/>
<polygon fill="#9a32cd" stroke="#9a32cd" points="39.4443,-360.6804 29.0794,-362.8757 38.551,-367.6232 39.4443,-360.6804"/>
<text text-anchor="middle" x="71.5" y="-374" font-family="Helvetica,sans-Serif" font-size="10.00" fill="#000000"> ptr</text>
</g>
<!-- Node16 -->
<g id="node16" class="node">
<title>Node16</title>
<g id="a_node16"><a xlink:title="STL class.">
<polygon fill="#ffffff" stroke="#bfbfbf" points="135,-254.5 135,-273.5 236,-273.5 236,-254.5 135,-254.5"/>
<text text-anchor="middle" x="185.5" y="-261.5" font-family="Helvetica,sans-Serif" font-size="10.00" fill="#000000">std::map&lt; K, T &gt;</text>
</a>
</g>
</g>
<!-- Node11&#45;&gt;Node16 -->
<g id="edge17" class="edge">
<title>Node11&#45;&gt;Node16</title>
<path fill="none" stroke="#9a32cd" stroke-dasharray="5,2" d="M28.2085,-343.544C33.6005,-337.4505 40.1413,-330.9137 47,-326 80.944,-301.682 125.9477,-283.7097 155.3041,-273.5473"/>
<polygon fill="#9a32cd" stroke="#9a32cd" points="25.3805,-341.4696 21.6457,-351.3843 30.7483,-345.9627 25.3805,-341.4696"/>
<text text-anchor="middle" x="71.5" y="-329" font-family="Helvetica,sans-Serif" font-size="10.00" fill="#000000"> elements</text>
</g>
<!-- Node18 -->
<g id="node18" class="node">
<title>Node18</title>
<g id="a_node18"><a xlink:title="STL class.">
<polygon fill="#ffffff" stroke="#bfbfbf" points="126.5,-323.5 126.5,-342.5 244.5,-342.5 244.5,-323.5 126.5,-323.5"/>
<text text-anchor="middle" x="185.5" y="-330.5" font-family="Helvetica,sans-Serif" font-size="10.00" fill="#000000">std::shared_ptr&lt; T &gt;</text>
</a>
</g>
</g>
<!-- Node11&#45;&gt;Node18 -->
<g id="edge19" class="edge">
<title>Node11&#45;&gt;Node18</title>
<path fill="none" stroke="#9a32cd" stroke-dasharray="5,2" d="M38.797,-352.1795C41.5414,-351.3619 44.3158,-350.6122 47,-350 72.7447,-344.1281 101.6749,-340.1746 126.4105,-337.5703"/>
<polygon fill="#9a32cd" stroke="#9a32cd" points="37.6207,-348.8817 29.202,-355.3141 39.7945,-355.5356 37.6207,-348.8817"/>
<text text-anchor="middle" x="71.5" y="-353" font-family="Helvetica,sans-Serif" font-size="10.00" fill="#000000"> ptr</text>
</g>
<!-- Node26 -->
<g id="node26" class="node">
<title>Node26</title>
<g id="a_node26"><a xlink:title="STL class.">
<polygon fill="#ffffff" stroke="#bfbfbf" points="137,-436.5 137,-455.5 234,-455.5 234,-436.5 137,-436.5"/>
<text text-anchor="middle" x="185.5" y="-443.5" font-family="Helvetica,sans-Serif" font-size="10.00" fill="#000000">std::vector&lt; T &gt;</text>
</a>
</g>
</g>
<!-- Node11&#45;&gt;Node26 -->
<g id="edge34" class="edge">
<title>Node11&#45;&gt;Node26</title>
<path fill="none" stroke="#9a32cd" stroke-dasharray="5,2" d="M33.6058,-376.9364C37.8774,-380.1426 42.484,-383.3403 47,-386 83.6918,-407.6094 129.6076,-425.9607 158.2532,-436.483"/>
<polygon fill="#9a32cd" stroke="#9a32cd" points="35.4675,-373.9476 25.4449,-370.5129 31.138,-379.4482 35.4675,-373.9476"/>
<text text-anchor="middle" x="71.5" y="-413" font-family="Helvetica,sans-Serif" font-size="10.00" fill="#000000"> elements</text>
</g>
<!-- Node12 -->
<g id="node12" class="node">
<title>Node12</title>
<g id="a_node12"><a xlink:title="STL class.">
<polygon fill="#ffffff" stroke="#bfbfbf" points="845,-192.5 845,-211.5 910,-211.5 910,-192.5 845,-192.5"/>
<text text-anchor="middle" x="877.5" y="-199.5" font-family="Helvetica,sans-Serif" font-size="10.00" fill="#000000">std::string</text>
</a>
</g>
</g>
<!-- Node12&#45;&gt;Node7 -->
<g id="edge11" class="edge">
<title>Node12&#45;&gt;Node7</title>
<path fill="none" stroke="#9a32cd" stroke-dasharray="5,2" d="M917.2121,-214.9443C961.6484,-231.2321 1033.2579,-263.1317 1078,-312 1091.4388,-326.6782 1080.998,-339.9237 1096,-353 1110.0254,-365.225 1129.8738,-371.2488 1146.8098,-374.2054"/>
<polygon fill="#9a32cd" stroke="#9a32cd" points="918.2142,-211.5857 907.6196,-211.5161 915.8584,-218.1774 918.2142,-211.5857"/>
<text text-anchor="middle" x="1020" y="-315" font-family="Helvetica,sans-Serif" font-size="10.00" fill="#000000"> m_ObjectName</text>
</g>
<!-- Node20 -->
<g id="node20" class="node">
<title>Node20</title>
<g id="a_node20"><a xlink:title=" ">
<polygon fill="#ffffff" stroke="#bfbfbf" points="1099.5,-170 1099.5,-200 1261.5,-200 1261.5,-170 1099.5,-170"/>
<text text-anchor="start" x="1107.5" y="-188" font-family="Helvetica,sans-Serif" font-size="10.00" fill="#000000">std::set&lt; DataObjectIdentifier</text>
<text text-anchor="middle" x="1180.5" y="-177" font-family="Helvetica,sans-Serif" font-size="10.00" fill="#000000">Type &gt;</text>
</a>
</g>
</g>
<!-- Node12&#45;&gt;Node20 -->
<g id="edge23" class="edge">
<title>Node12&#45;&gt;Node20</title>
<path fill="none" stroke="#9a32cd" stroke-dasharray="5,2" d="M920.0801,-192.3695C933.4275,-189.774 948.2617,-187.3209 962,-186 1007.3123,-181.6432 1058.1546,-181.1512 1099.3862,-181.858"/>
<polygon fill="#9a32cd" stroke="#9a32cd" points="919.314,-188.9535 910.2058,-194.3656 920.701,-195.8147 919.314,-188.9535"/>
<text text-anchor="middle" x="1020" y="-189" font-family="Helvetica,sans-Serif" font-size="10.00" fill="#000000"> keys</text>
</g>
<!-- Node22 -->
<g id="node22" class="node">
<title>Node22</title>
<g id="a_node22"><a xlink:title=" ">
<polygon fill="#ffffff" stroke="#bfbfbf" points="1096,-264 1096,-294 1265,-294 1265,-264 1096,-264"/>
<text text-anchor="start" x="1104" y="-282" font-family="Helvetica,sans-Serif" font-size="10.00" fill="#000000">std::map&lt; DataObjectIdentifier</text>
<text text-anchor="middle" x="1180.5" y="-271" font-family="Helvetica,sans-Serif" font-size="10.00" fill="#000000">Type, bool &gt;</text>
</a>
</g>
</g>
<!-- Node12&#45;&gt;Node22 -->
<g id="edge27" class="edge">
<title>Node12&#45;&gt;Node22</title>
<path fill="none" stroke="#9a32cd" stroke-dasharray="5,2" d="M920.547,-200.5806C961.8727,-200.4372 1025.5753,-203.4428 1078,-220 1108.9353,-229.7702 1140.7292,-249.9546 1160.5379,-263.9765"/>
<polygon fill="#9a32cd" stroke="#9a32cd" points="920.2504,-197.0833 910.2858,-200.6827 920.3202,-204.0829 920.2504,-197.0833"/>
<text text-anchor="middle" x="1020" y="-223" font-family="Helvetica,sans-Serif" font-size="10.00" fill="#000000"> keys</text>
</g>
<!-- Node27 -->
<g id="node27" class="node">
<title>Node27</title>
<g id="a_node27"><a xlink:title=" ">
<polygon fill="#ffffff" stroke="#bfbfbf" points="1096,-95 1096,-125 1265,-125 1265,-95 1096,-95"/>
<text text-anchor="start" x="1104" y="-113" font-family="Helvetica,sans-Serif" font-size="10.00" fill="#000000">std::map&lt; DataObjectIdentifier</text>
<text text-anchor="middle" x="1180.5" y="-102" font-family="Helvetica,sans-Serif" font-size="10.00" fill="#000000">Type, DataObjectPointer &gt;</text>
</a>
</g>
</g>
<!-- Node12&#45;&gt;Node27 -->
<g id="edge38" class="edge">
<title>Node12&#45;&gt;Node27</title>
<path fill="none" stroke="#9a32cd" stroke-dasharray="5,2" d="M907.7279,-188.2934C923.671,-181.3682 943.6754,-173.1527 962,-167 1011.8005,-150.2788 1069.3322,-135.4454 1112.8569,-125.1048"/>
<polygon fill="#9a32cd" stroke="#9a32cd" points="906.1202,-185.177 898.3772,-192.4086 908.9399,-191.5839 906.1202,-185.177"/>
<text text-anchor="middle" x="1020" y="-170" font-family="Helvetica,sans-Serif" font-size="10.00" fill="#000000"> keys</text>
</g>
<!-- Node13 -->
<g id="node13" class="node">
<title>Node13</title>
<g id="a_node13"><a xlink:title="STL class.">
<polygon fill="#ffffff" stroke="#bfbfbf" points="491.5,-187 491.5,-217 595.5,-217 595.5,-187 491.5,-187"/>
<text text-anchor="start" x="499.5" y="-205" font-family="Helvetica,sans-Serif" font-size="10.00" fill="#000000">std::basic_string&lt;</text>
<text text-anchor="middle" x="543.5" y="-194" font-family="Helvetica,sans-Serif" font-size="10.00" fill="#000000"> char &gt;</text>
</a>
</g>
</g>
<!-- Node13&#45;&gt;Node12 -->
<g id="edge12" class="edge">
<title>Node13&#45;&gt;Node12</title>
<path fill="none" stroke="#191970" d="M605.821,-202C676.6545,-202 789.5893,-202 844.8665,-202"/>
<polygon fill="#191970" stroke="#191970" points="605.6875,-198.5001 595.6875,-202 605.6875,-205.5001 605.6875,-198.5001"/>
</g>
<!-- Node14 -->
<g id="node14" class="node">
<title>Node14</title>
<g id="a_node14"><a xlink:href="https://www.itk.org/Doxygen/html/classitk_1_1MetaDataDictionary.html" xlink:title=" ">
<polygon fill="#ffffff" stroke="#000000" points="811,-302.5 811,-321.5 944,-321.5 944,-302.5 811,-302.5"/>
<text text-anchor="middle" x="877.5" y="-309.5" font-family="Helvetica,sans-Serif" font-size="10.00" fill="#000000">itk::MetaDataDictionary</text>
</a>
</g>
</g>
<!-- Node14&#45;&gt;Node7 -->
<g id="edge13" class="edge">
<title>Node14&#45;&gt;Node7</title>
<path fill="none" stroke="#9a32cd" stroke-dasharray="5,2" d="M943.4359,-323.2927C982.6647,-330.3105 1033.3369,-339.8982 1078,-350 1101.1539,-355.2369 1127,-362.0519 1146.9458,-367.5247"/>
<polygon fill="#9a32cd" stroke="#9a32cd" points="943.9214,-319.8242 933.4631,-321.5198 942.6961,-326.7162 943.9214,-319.8242"/>
<text text-anchor="middle" x="1020" y="-353" font-family="Helvetica,sans-Serif" font-size="10.00" fill="#000000"> m_MetaDataDictionary</text>
</g>
<!-- Node15 -->
<g id="node15" class="node">
<title>Node15</title>
<g id="a_node15"><a xlink:title=" ">
<polygon fill="#ffffff" stroke="#bfbfbf" points="469.5,-293 469.5,-323 617.5,-323 617.5,-293 469.5,-293"/>
<text text-anchor="start" x="477.5" y="-311" font-family="Helvetica,sans-Serif" font-size="10.00" fill="#000000">std::shared_ptr&lt; MetaData</text>
<text text-anchor="middle" x="543.5" y="-300" font-family="Helvetica,sans-Serif" font-size="10.00" fill="#000000">DictionaryMapType &gt;</text>
</a>
</g>
</g>
<!-- Node15&#45;&gt;Node14 -->
<g id="edge14" class="edge">
<title>Node15&#45;&gt;Node14</title>
<path fill="none" stroke="#9a32cd" stroke-dasharray="5,2" d="M627.6566,-309.0079C684.4195,-309.6877 758.2833,-310.5723 810.9443,-311.2029"/>
<polygon fill="#9a32cd" stroke="#9a32cd" points="627.6667,-305.5078 617.6254,-308.8877 627.5828,-312.5073 627.6667,-305.5078"/>
<text text-anchor="middle" x="719.5" y="-313" font-family="Helvetica,sans-Serif" font-size="10.00" fill="#000000"> m_Dictionary</text>
</g>
<!-- Node16&#45;&gt;Node15 -->
<g id="edge15" class="edge">
<title>Node16&#45;&gt;Node15</title>
<path fill="none" stroke="#9a32cd" stroke-dasharray="5,2" d="M245.9915,-271.4347C307.5745,-279.0036 403.1407,-290.7491 469.2687,-298.8766"/>
<polygon fill="#9a32cd" stroke="#9a32cd" points="246.3857,-267.9569 236.0334,-270.2108 245.5317,-274.9046 246.3857,-267.9569"/>
<text text-anchor="middle" x="358" y="-297" font-family="Helvetica,sans-Serif" font-size="10.00" fill="#000000"> ptr</text>
</g>
<!-- Node16&#45;&gt;Node22 -->
<g id="edge28" class="edge">
<title>Node16&#45;&gt;Node22</title>
<path fill="none" stroke="#ffa500" stroke-dasharray="5,2" d="M246.2559,-264.9159C416.6369,-267.4845 899.3365,-274.7614 1095.7709,-277.7227"/>
<polygon fill="#ffa500" stroke="#ffa500" points="246.2618,-261.4157 236.2101,-264.7645 246.1562,-268.4149 246.2618,-261.4157"/>
<text text-anchor="start" x="650" y="-287" font-family="Helvetica,sans-Serif" font-size="10.00" fill="#000000"> &lt; DataObjectIdentifierType,</text>
<text text-anchor="middle" x="719.5" y="-276" font-family="Helvetica,sans-Serif" font-size="10.00" fill="#000000"> bool &gt;</text>
</g>
<!-- Node16&#45;&gt;Node27 -->
<g id="edge39" class="edge">
<title>Node16&#45;&gt;Node27</title>
<path fill="none" stroke="#ffa500" stroke-dasharray="5,2" d="M200.2604,-246.6623C238.0038,-203.8366 343.2558,-93.6555 459,-54 704.1381,29.9877 1022.6,-57.7057 1137.1192,-94.9615"/>
<polygon fill="#ffa500" stroke="#ffa500" points="197.5496,-244.4458 193.6287,-254.2885 202.8318,-249.0391 197.5496,-244.4458"/>
<text text-anchor="start" x="650" y="-37" font-family="Helvetica,sans-Serif" font-size="10.00" fill="#000000"> &lt; DataObjectIdentifierType,</text>
<text text-anchor="middle" x="719.5" y="-26" font-family="Helvetica,sans-Serif" font-size="10.00" fill="#000000"> DataObjectPointer &gt;</text>
</g>
<!-- Node17 -->
<g id="node17" class="node">
<title>Node17</title>
<g id="a_node17"><a xlink:title=" ">
<polygon fill="#ffffff" stroke="#bfbfbf" points="0,-153.5 0,-172.5 29,-172.5 29,-153.5 0,-153.5"/>
<text text-anchor="middle" x="14.5" y="-160.5" font-family="Helvetica,sans-Serif" font-size="10.00" fill="#000000">K</text>
</a>
</g>
</g>
<!-- Node17&#45;&gt;Node16 -->
<g id="edge16" class="edge">
<title>Node17&#45;&gt;Node16</title>
<path fill="none" stroke="#9a32cd" stroke-dasharray="5,2" d="M37.7203,-176.7149C72.8715,-197.4767 138.7192,-236.3693 169.2224,-254.3857"/>
<polygon fill="#9a32cd" stroke="#9a32cd" points="39.4696,-173.6833 29.0794,-171.6112 35.9097,-179.7104 39.4696,-173.6833"/>
<text text-anchor="middle" x="71.5" y="-214" font-family="Helvetica,sans-Serif" font-size="10.00" fill="#000000"> keys</text>
</g>
<!-- Node21 -->
<g id="node21" class="node">
<title>Node21</title>
<g id="a_node21"><a xlink:title="STL class.">
<polygon fill="#ffffff" stroke="#bfbfbf" points="317,-.5 317,-19.5 399,-19.5 399,-.5 317,-.5"/>
<text text-anchor="middle" x="358" y="-7.5" font-family="Helvetica,sans-Serif" font-size="10.00" fill="#000000">std::set&lt; K &gt;</text>
</a>
</g>
</g>
<!-- Node17&#45;&gt;Node21 -->
<g id="edge25" class="edge">
<title>Node17&#45;&gt;Node21</title>
<path fill="none" stroke="#9a32cd" stroke-dasharray="5,2" d="M36.8787,-147.8044C80.5856,-118.8852 181.237,-55.9726 275,-24 288.278,-19.4723 303.2694,-16.3716 316.8219,-14.2644"/>
<polygon fill="#9a32cd" stroke="#9a32cd" points="34.8146,-144.974 28.4394,-153.4361 38.7002,-150.7966 34.8146,-144.974"/>
<text text-anchor="middle" x="71.5" y="-144" font-family="Helvetica,sans-Serif" font-size="10.00" fill="#000000"> keys</text>
</g>
<!-- Node18&#45;&gt;Node15 -->
<g id="edge18" class="edge">
<title>Node18&#45;&gt;Node15</title>
<path fill="none" stroke="#ffa500" stroke-dasharray="5,2" d="M254.6388,-328.1719C316.2848,-323.867 406.2772,-317.5826 469.39,-313.1753"/>
<polygon fill="#ffa500" stroke="#ffa500" points="254.3483,-324.6835 244.6164,-328.8718 254.836,-331.6665 254.3483,-324.6835"/>
<text text-anchor="middle" x="358" y="-329" font-family="Helvetica,sans-Serif" font-size="10.00" fill="#000000"> &lt; MetaDataDictionaryMapType &gt;</text>
</g>
<!-- Node19&#45;&gt;Node6 -->
<g id="edge40" class="edge">
<title>Node19&#45;&gt;Node6</title>
<path fill="none" stroke="#9a32cd" stroke-dasharray="5,2" d="M933.744,-356.0664C977.8563,-353.1234 1040.8115,-349.2358 1096,-347 1227.4787,-341.6735 1382.3848,-339.3759 1461.41,-338.4897"/>
<polygon fill="#9a32cd" stroke="#9a32cd" points="933.2543,-352.5914 923.5118,-356.7547 933.7242,-359.5756 933.2543,-352.5914"/>
<text text-anchor="middle" x="1180.5" y="-350" font-family="Helvetica,sans-Serif" font-size="10.00" fill="#000000"> m_OutputInformationMTime</text>
</g>
<!-- Node19&#45;&gt;Node7 -->
<g id="edge20" class="edge">
<title>Node19&#45;&gt;Node7</title>
<path fill="none" stroke="#9a32cd" stroke-dasharray="5,2" d="M933.6047,-363.1478C996.1133,-366.6549 1095.1504,-372.2114 1146.7405,-375.1059"/>
<polygon fill="#9a32cd" stroke="#9a32cd" points="933.6996,-359.6477 923.5192,-362.5819 933.3074,-366.6367 933.6996,-359.6477"/>
<text text-anchor="middle" x="1020" y="-374" font-family="Helvetica,sans-Serif" font-size="10.00" fill="#000000"> m_MTime</text>
</g>
<!-- Node20&#45;&gt;Node6 -->
<g id="edge22" class="edge">
<title>Node20&#45;&gt;Node6</title>
<path fill="none" stroke="#9a32cd" stroke-dasharray="5,2" d="M1271.8347,-191.3925C1322.8504,-199.5943 1384.0055,-217.832 1424,-258 1443.9443,-278.0309 1421.7423,-299.2861 1442,-319 1447.4308,-324.285 1454.1562,-328.1432 1461.2909,-330.9515"/>
<polygon fill="#9a32cd" stroke="#9a32cd" points="1272.1848,-187.9059 1261.776,-189.8824 1271.1455,-194.8283 1272.1848,-187.9059"/>
<text text-anchor="middle" x="1353.5" y="-261" font-family="Helvetica,sans-Serif" font-size="10.00" fill="#000000"> m_RequiredInputNames</text>
</g>
<!-- Node21&#45;&gt;Node20 -->
<g id="edge24" class="edge">
<title>Node21&#45;&gt;Node20</title>
<path fill="none" stroke="#ffa500" stroke-dasharray="5,2" d="M370.923,-27.923C388.1456,-50.1653 420.9152,-87.0996 459,-103 713.1521,-209.1082 811.9869,-60.6608 1078,-132 1107.4113,-139.8875 1138.032,-157.0932 1158.0572,-169.771"/>
<polygon fill="#ffa500" stroke="#ffa500" points="373.5206,-25.5535 364.7165,-19.6596 367.9235,-29.7574 373.5206,-25.5535"/>
<text text-anchor="middle" x="719.5" y="-146" font-family="Helvetica,sans-Serif" font-size="10.00" fill="#000000"> &lt; DataObjectIdentifierType &gt;</text>
</g>
<!-- Node22&#45;&gt;Node6 -->
<g id="edge26" class="edge">
<title>Node22&#45;&gt;Node6</title>
<path fill="none" stroke="#9a32cd" stroke-dasharray="5,2" d="M1275.2329,-273.7845C1321.8892,-274.6786 1377.8788,-281.0982 1424,-302 1434.0227,-306.5422 1432.3872,-313.6446 1442,-319 1448.9566,-322.8756 1456.7374,-325.9883 1464.5351,-328.4805"/>
<polygon fill="#9a32cd" stroke="#9a32cd" points="1275.1588,-270.2836 1265.1209,-273.6734 1275.0818,-277.2832 1275.1588,-270.2836"/>
<text text-anchor="start" x="1283" y="-316" font-family="Helvetica,sans-Serif" font-size="10.00" fill="#000000"> m_CachedInputReleaseData</text>
<text text-anchor="middle" x="1353.5" y="-305" font-family="Helvetica,sans-Serif" font-size="10.00" fill="#000000">Flags</text>
</g>
<!-- Node23&#45;&gt;Node6 -->
<g id="edge29" class="edge">
<title>Node23&#45;&gt;Node6</title>
<path fill="none" stroke="#9a32cd" stroke-dasharray="5,2" d="M797.099,-432.8483C903.0212,-426.7979 1098.7202,-414.2536 1265,-396 1335.9758,-388.2085 1354.965,-391.2331 1424,-373 1448.3577,-366.5668 1475.1194,-355.5457 1492.9747,-347.5872"/>
<polygon fill="#9a32cd" stroke="#9a32cd" points="796.6063,-429.3705 786.8205,-433.4311 797.0026,-436.3593 796.6063,-429.3705"/>
<text text-anchor="middle" x="1020" y="-425" font-family="Helvetica,sans-Serif" font-size="10.00" fill="#000000"> m_Progress</text>
</g>
<!-- Node24 -->
<g id="node24" class="node">
<title>Node24</title>
<g id="a_node24"><a xlink:title=" ">
<polygon fill="#ffffff" stroke="#bfbfbf" points="459,-466 459,-496 628,-496 628,-466 459,-466"/>
<text text-anchor="start" x="467" y="-484" font-family="Helvetica,sans-Serif" font-size="10.00" fill="#000000">std::vector&lt; DataObjectPointer</text>
<text text-anchor="middle" x="543.5" y="-473" font-family="Helvetica,sans-Serif" font-size="10.00" fill="#000000">Map::iterator &gt;</text>
</a>
</g>
</g>
<!-- Node24&#45;&gt;Node6 -->
<g id="edge31" class="edge">
<title>Node24&#45;&gt;Node6</title>
<path fill="none" stroke="#9a32cd" stroke-dasharray="5,2" d="M638.3782,-473.8927C745.2848,-465.7207 924.2205,-451.5509 1078,-437 1161.2134,-429.1262 1181.9751,-426.6607 1265,-417 1335.7462,-408.7681 1357.1923,-421.6884 1424,-397 1455.2477,-385.4526 1486.5546,-361.208 1502.5607,-347.6681"/>
<polygon fill="#9a32cd" stroke="#9a32cd" points="637.9652,-470.4139 628.2605,-474.6646 638.4978,-477.3936 637.9652,-470.4139"/>
<text text-anchor="middle" x="1020" y="-461" font-family="Helvetica,sans-Serif" font-size="10.00" fill="#000000"> m_IndexedOutputs</text>
<text text-anchor="middle" x="1020" y="-450" font-family="Helvetica,sans-Serif" font-size="10.00" fill="#000000">m_IndexedInputs</text>
</g>
<!-- Node25 -->
<g id="node25" class="node">
<title>Node25</title>
<g id="a_node25"><a xlink:title="STL iterator class.">
<polygon fill="#ffffff" stroke="#bfbfbf" points="114,-506.5 114,-525.5 257,-525.5 257,-506.5 114,-506.5"/>
<text text-anchor="middle" x="185.5" y="-513.5" font-family="Helvetica,sans-Serif" font-size="10.00" fill="#000000">std::map&lt; K, T &gt;::iterator</text>
</a>
</g>
</g>
<!-- Node25&#45;&gt;Node24 -->
<g id="edge32" class="edge">
<title>Node25&#45;&gt;Node24</title>
<path fill="none" stroke="#9a32cd" stroke-dasharray="5,2" d="M267.3046,-509.7992C317.4825,-505.7863 383.0144,-500.1711 441,-494 446.797,-493.3831 452.7741,-492.7132 458.7922,-492.0139"/>
<polygon fill="#9a32cd" stroke="#9a32cd" points="266.8511,-506.3241 257.1599,-510.6054 267.4058,-513.3021 266.8511,-506.3241"/>
<text text-anchor="middle" x="358" y="-512" font-family="Helvetica,sans-Serif" font-size="10.00" fill="#000000"> elements</text>
</g>
<!-- Node26&#45;&gt;Node24 -->
<g id="edge33" class="edge">
<title>Node26&#45;&gt;Node24</title>
<path fill="none" stroke="#ffa500" stroke-dasharray="5,2" d="M244.0722,-450.3694C295.9002,-454.3963 373.5547,-460.8222 441,-468 446.797,-468.6169 452.7741,-469.2868 458.7922,-469.9861"/>
<polygon fill="#ffa500" stroke="#ffa500" points="244.3014,-446.8768 234.0616,-449.5965 243.7624,-453.856 244.3014,-446.8768"/>
<text text-anchor="start" x="296" y="-482" font-family="Helvetica,sans-Serif" font-size="10.00" fill="#000000"> &lt; DataObjectPointerMap</text>
<text text-anchor="middle" x="358" y="-471" font-family="Helvetica,sans-Serif" font-size="10.00" fill="#000000">::iterator &gt;</text>
</g>
<!-- Node27&#45;&gt;Node6 -->
<g id="edge35" class="edge">
<title>Node27&#45;&gt;Node6</title>
<path fill="none" stroke="#9a32cd" stroke-dasharray="5,2" d="M1275.3869,-107.9231C1326.8193,-112.1356 1387.2089,-126.7066 1424,-168 1468.9605,-218.4624 1397.6967,-267.9597 1442,-319 1447.1358,-324.9168 1453.8837,-329.0926 1461.1838,-332.0213"/>
<polygon fill="#9a32cd" stroke="#9a32cd" points="1275.449,-104.419 1265.2295,-107.2139 1274.9614,-111.402 1275.449,-104.419"/>
<text text-anchor="middle" x="1353.5" y="-182" font-family="Helvetica,sans-Serif" font-size="10.00" fill="#000000"> m_Outputs</text>
<text text-anchor="middle" x="1353.5" y="-171" font-family="Helvetica,sans-Serif" font-size="10.00" fill="#000000">m_Inputs</text>
</g>
<!-- Node28 -->
<g id="node28" class="node">
<title>Node28</title>
<g id="a_node28"><a xlink:href="https://www.itk.org/Doxygen/html/classitk_1_1SmartPointer.html" xlink:title=" ">
<polygon fill="#ffffff" stroke="#000000" points="824,-64 824,-94 931,-94 931,-64 824,-64"/>
<text text-anchor="start" x="832" y="-82" font-family="Helvetica,sans-Serif" font-size="10.00" fill="#000000">itk::SmartPointer&lt;</text>
<text text-anchor="middle" x="877.5" y="-71" font-family="Helvetica,sans-Serif" font-size="10.00" fill="#000000"> Self &gt;</text>
</a>
</g>
</g>
<!-- Node28&#45;&gt;Node27 -->
<g id="edge36" class="edge">
<title>Node28&#45;&gt;Node27</title>
<path fill="none" stroke="#9a32cd" stroke-dasharray="5,2" d="M941.2603,-81.9088C980.7326,-84.0919 1032.4116,-87.6401 1078,-93 1083.8223,-93.6845 1089.8183,-94.4693 1095.8501,-95.3177"/>
<polygon fill="#9a32cd" stroke="#9a32cd" points="941.4155,-78.4122 931.2418,-81.3695 941.0391,-85.4021 941.4155,-78.4122"/>
<text text-anchor="middle" x="1020" y="-96" font-family="Helvetica,sans-Serif" font-size="10.00" fill="#000000"> elements</text>
</g>
<!-- Node29 -->
<g id="node29" class="node">
<title>Node29</title>
<g id="a_node29"><a xlink:href="https://www.itk.org/Doxygen/html/classitk_1_1SmartPointer.html" xlink:title=" ">
<polygon fill="#ffffff" stroke="#000000" points="490,-64 490,-94 597,-94 597,-64 490,-64"/>
<text text-anchor="start" x="498" y="-82" font-family="Helvetica,sans-Serif" font-size="10.00" fill="#000000">itk::SmartPointer&lt;</text>
<text text-anchor="middle" x="543.5" y="-71" font-family="Helvetica,sans-Serif" font-size="10.00" fill="#000000"> TObjectType &gt;</text>
</a>
</g>
</g>
<!-- Node29&#45;&gt;Node28 -->
<g id="edge37" class="edge">
<title>Node29&#45;&gt;Node28</title>
<path fill="none" stroke="#ffa500" stroke-dasharray="5,2" d="M607.3444,-79C670.1596,-79 764.983,-79 823.9703,-79"/>
<polygon fill="#ffa500" stroke="#ffa500" points="607.1629,-75.5001 597.1629,-79 607.1628,-82.5001 607.1629,-75.5001"/>
<text text-anchor="middle" x="719.5" y="-82" font-family="Helvetica,sans-Serif" font-size="10.00" fill="#000000"> &lt; Self &gt;</text>
</g>
<!-- Node30 -->
<g id="node30" class="node">
<title>Node30</title>
<g id="a_node30"><a xlink:href="https://www.itk.org/Doxygen/html/structitk_1_1ImageSourceCommon.html" xlink:title=" ">
<polygon fill="#ffffff" stroke="#000000" points="1442,-290.5 1442,-309.5 1585,-309.5 1585,-290.5 1442,-290.5"/>
<text text-anchor="middle" x="1513.5" y="-297.5" font-family="Helvetica,sans-Serif" font-size="10.00" fill="#000000">itk::ImageSourceCommon</text>
</a>
</g>
</g>
<!-- Node30&#45;&gt;Node5 -->
<g id="edge41" class="edge">
<title>Node30&#45;&gt;Node5</title>
<path fill="none" stroke="#8b1a1a" d="M1595.3435,-306.6641C1608.6368,-307.7465 1622.3424,-308.8625 1635.4497,-309.9297"/>
<polygon fill="#8b1a1a" stroke="#8b1a1a" points="1595.5262,-303.1675 1585.2751,-305.8443 1594.9581,-310.1444 1595.5262,-303.1675"/>
</g>
<!-- Node31 -->
<g id="node31" class="node">
<title>Node31</title>
<g id="a_node31"><a xlink:href="https://www.itk.org/Doxygen/html/classitk_1_1ImageToImageFilterCommon.html" xlink:title=" ">
<polygon fill="#ffffff" stroke="#000000" points="1622,-262.5 1622,-281.5 1798,-281.5 1798,-262.5 1622,-262.5"/>
<text text-anchor="middle" x="1710" y="-269.5" font-family="Helvetica,sans-Serif" font-size="10.00" fill="#000000">itk::ImageToImageFilterCommon</text>
</a>
</g>
</g>
<!-- Node31&#45;&gt;Node4 -->
<g id="edge42" class="edge">
<title>Node31&#45;&gt;Node4</title>
<path fill="none" stroke="#8b1a1a" d="M1808.1844,-277.5315C1817.0931,-278.0334 1826.0799,-278.5397 1834.8933,-279.0362"/>
<polygon fill="#8b1a1a" stroke="#8b1a1a" points="1808.3539,-274.0356 1798.1728,-276.9675 1807.9601,-281.0245 1808.3539,-274.0356"/>
</g>
<!-- Node32&#45;&gt;Node2 -->
<g id="edge43" class="edge">
<title>Node32&#45;&gt;Node2</title>
<path fill="none" stroke="#ffa500" stroke-dasharray="5,2" d="M2447.089,-269.1122C2495.0127,-272.6226 2553.5265,-276.9614 2606,-281 2611.8173,-281.4477 2617.8246,-281.9153 2623.8725,-282.3898"/>
<polygon fill="#ffa500" stroke="#ffa500" points="2447.2582,-265.6153 2437.0294,-268.3761 2446.7473,-272.5966 2447.2582,-265.6153"/>
<text text-anchor="middle" x="2530.5" y="-284" font-family="Helvetica,sans-Serif" font-size="10.00" fill="#000000"> &lt; TImageType, TImageType &gt;</text>
</g>
<!-- Node33 -->
<g id="node33" class="node">
<title>Node33</title>
<g id="a_node33"><a xlink:href="https://www.itk.org/Doxygen/html/classHashFunction.html" xlink:title=" ">
<polygon fill="#ffffff" stroke="#000000" points="2665,-235.5 2665,-254.5 2747,-254.5 2747,-235.5 2665,-235.5"/>
<text text-anchor="middle" x="2706" y="-242.5" font-family="Helvetica,sans-Serif" font-size="10.00" fill="#000000">HashFunction</text>
</a>
</g>
</g>
<!-- Node33&#45;&gt;Node1 -->
<g id="edge45" class="edge">
<title>Node33&#45;&gt;Node1</title>
<path fill="none" stroke="#9a32cd" stroke-dasharray="5,2" d="M2757.1587,-247.5629C2800.4852,-249.7334 2862.5707,-252.8436 2907.6882,-255.1038"/>
<polygon fill="#9a32cd" stroke="#9a32cd" points="2757.2812,-244.0647 2747.1185,-247.0599 2756.9309,-251.0559 2757.2812,-244.0647"/>
<text text-anchor="middle" x="2848" y="-258" font-family="Helvetica,sans-Serif" font-size="10.00" fill="#000000"> m_HashFunction</text>
</g>
</g>
</svg>
