<?xml version="1.0" encoding="UTF-8" standalone="no"?>
<!DOCTYPE svg PUBLIC "-//W3C//DTD SVG 1.1//EN"
 "http://www.w3.org/Graphics/SVG/1.1/DTD/svg11.dtd">
<!-- Generated by graphviz version 2.40.1 (20161225.0304)
 -->
<!-- Title: itk::simple::SliceImageFilter Pages: 1 -->
<svg width="2056pt" height="515pt"
 viewBox="0.00 0.00 2056.00 515.00" xmlns="http://www.w3.org/2000/svg" xmlns:xlink="http://www.w3.org/1999/xlink">
<g id="graph0" class="graph" transform="scale(1 1) rotate(0) translate(4 511)">
<title>itk::simple::SliceImageFilter</title>
<polygon fill="#ffffff" stroke="transparent" points="-4,4 -4,-511 2052,-511 2052,4 -4,4"/>
<!-- Node1 -->
<g id="node1" class="node">
<title>Node1</title>
<g id="a_node1"><a xlink:title="Slices an image based on a starting index and a stopping index, and a step size.">
<polygon fill="#bfbfbf" stroke="#000000" points="1896,-201 1896,-220 2048,-220 2048,-201 1896,-201"/>
<text text-anchor="middle" x="1972" y="-208" font-family="Helvetica,sans-Serif" font-size="10.00" fill="#000000">itk::simple::SliceImageFilter</text>
</a>
</g>
</g>
<!-- Node2 -->
<g id="node2" class="node">
<title>Node2</title>
<g id="a_node2"><a xlink:href="classitk_1_1simple_1_1ImageFilter.html" target="_top" xlink:title="The base interface for SimpleITK filters that take one input image.">
<polygon fill="#ffffff" stroke="#000000" points="768.5,-162 768.5,-181 897.5,-181 897.5,-162 768.5,-162"/>
<text text-anchor="middle" x="833" y="-169" font-family="Helvetica,sans-Serif" font-size="10.00" fill="#000000">itk::simple::ImageFilter</text>
</a>
</g>
</g>
<!-- Node2&#45;&gt;Node1 -->
<g id="edge1" class="edge">
<title>Node2&#45;&gt;Node1</title>
<path fill="none" stroke="#191970" d="M883.801,-159.8381C950.2378,-145.6306 1070.4283,-123.5 1174.5,-123.5 1174.5,-123.5 1174.5,-123.5 1672,-123.5 1782.0853,-123.5 1906.222,-178.2056 1952.9039,-200.8571"/>
<polygon fill="#191970" stroke="#191970" points="883.0367,-156.4224 874.0038,-161.9594 884.5181,-163.2638 883.0367,-156.4224"/>
</g>
<!-- Node3 -->
<g id="node3" class="node">
<title>Node3</title>
<g id="a_node3"><a xlink:href="classitk_1_1simple_1_1ProcessObject.html" target="_top" xlink:title="Base class for SimpleITK classes based on ProcessObject.">
<polygon fill="#ffffff" stroke="#000000" points="212.5,-342 212.5,-361 355.5,-361 355.5,-342 212.5,-342"/>
<text text-anchor="middle" x="284" y="-349" font-family="Helvetica,sans-Serif" font-size="10.00" fill="#000000">itk::simple::ProcessObject</text>
</a>
</g>
</g>
<!-- Node3&#45;&gt;Node2 -->
<g id="edge2" class="edge">
<title>Node3&#45;&gt;Node2</title>
<path fill="none" stroke="#191970" d="M322.6344,-338.833C426.8221,-304.6731 711.9117,-211.2011 803.9412,-181.0275"/>
<polygon fill="#191970" stroke="#191970" points="321.5409,-335.5081 313.129,-341.9495 323.7218,-342.1597 321.5409,-335.5081"/>
</g>
<!-- Node10 -->
<g id="node10" class="node">
<title>Node10</title>
<g id="a_node10"><a xlink:title=" ">
<polygon fill="#ffffff" stroke="#bfbfbf" points="590,-418.5 590,-448.5 706,-448.5 706,-418.5 590,-418.5"/>
<text text-anchor="start" x="598" y="-436.5" font-family="Helvetica,sans-Serif" font-size="10.00" fill="#000000">std::set&lt; itk::simple</text>
<text text-anchor="middle" x="648" y="-425.5" font-family="Helvetica,sans-Serif" font-size="10.00" fill="#000000">::ProcessObject * &gt;</text>
</a>
</g>
</g>
<!-- Node3&#45;&gt;Node10 -->
<g id="edge11" class="edge">
<title>Node3&#45;&gt;Node10</title>
<path fill="none" stroke="#9a32cd" stroke-dasharray="5,2" d="M336.4278,-363.3107C403.7042,-378.4663 520.0454,-404.6751 589.9372,-420.4199"/>
<polygon fill="#9a32cd" stroke="#9a32cd" points="336.9926,-359.8502 326.4678,-361.0669 335.4541,-366.6791 336.9926,-359.8502"/>
<text text-anchor="middle" x="463.5" y="-412.5" font-family="Helvetica,sans-Serif" font-size="10.00" fill="#000000"> keys</text>
</g>
<!-- Node4 -->
<g id="node4" class="node">
<title>Node4</title>
<g id="a_node4"><a xlink:href="classitk_1_1simple_1_1NonCopyable.html" target="_top" xlink:title="An inheritable class to disable copying of a class.">
<polygon fill="#ffffff" stroke="#000000" points="0,-365 0,-384 140,-384 140,-365 0,-365"/>
<text text-anchor="middle" x="70" y="-372" font-family="Helvetica,sans-Serif" font-size="10.00" fill="#000000">itk::simple::NonCopyable</text>
</a>
</g>
</g>
<!-- Node4&#45;&gt;Node3 -->
<g id="edge3" class="edge">
<title>Node4&#45;&gt;Node3</title>
<path fill="none" stroke="#006400" d="M150.2632,-365.8736C170.635,-363.6841 192.3884,-361.3461 212.304,-359.2056"/>
<polygon fill="#006400" stroke="#006400" points="149.6403,-362.4203 140.0716,-366.9689 150.3884,-369.3802 149.6403,-362.4203"/>
</g>
<!-- Node7 -->
<g id="node7" class="node">
<title>Node7</title>
<g id="a_node7"><a xlink:href="classitk_1_1simple_1_1Command.html" target="_top" xlink:title="An implementation of the Command design pattern for callback.">
<polygon fill="#ffffff" stroke="#000000" points="949.5,-414 949.5,-433 1074.5,-433 1074.5,-414 949.5,-414"/>
<text text-anchor="middle" x="1012" y="-421" font-family="Helvetica,sans-Serif" font-size="10.00" fill="#000000">itk::simple::Command</text>
</a>
</g>
</g>
<!-- Node4&#45;&gt;Node7 -->
<g id="edge7" class="edge">
<title>Node4&#45;&gt;Node7</title>
<path fill="none" stroke="#006400" d="M150.513,-378.5513C275.4342,-384.8532 523.4991,-397.4317 734,-408.5 807.9698,-412.3894 893.0025,-416.9976 949.345,-420.0701"/>
<polygon fill="#006400" stroke="#006400" points="150.4367,-375.043 140.273,-378.0348 150.084,-382.0342 150.4367,-375.043"/>
</g>
<!-- Node5 -->
<g id="node5" class="node">
<title>Node5</title>
<g id="a_node5"><a xlink:title=" ">
<polygon fill="#ffffff" stroke="#bfbfbf" points="1578.5,-336.5 1578.5,-366.5 1765.5,-366.5 1765.5,-336.5 1578.5,-336.5"/>
<text text-anchor="start" x="1586.5" y="-354.5" font-family="Helvetica,sans-Serif" font-size="10.00" fill="#000000">std::list&lt; itk::simple</text>
<text text-anchor="middle" x="1672" y="-343.5" font-family="Helvetica,sans-Serif" font-size="10.00" fill="#000000">::ProcessObject::EventCommand &gt;</text>
</a>
</g>
</g>
<!-- Node5&#45;&gt;Node3 -->
<g id="edge4" class="edge">
<title>Node5&#45;&gt;Node3</title>
<path fill="none" stroke="#9a32cd" stroke-dasharray="5,2" d="M1568.0224,-351.5C1499.8981,-351.5 1408.9056,-351.5 1328.5,-351.5 648,-351.5 648,-351.5 648,-351.5 546.5729,-351.5 429.2483,-351.5 355.8282,-351.5"/>
<polygon fill="#9a32cd" stroke="#9a32cd" points="1568.3286,-355.0001 1578.3285,-351.5 1568.3285,-348.0001 1568.3286,-355.0001"/>
<text text-anchor="middle" x="1012" y="-354.5" font-family="Helvetica,sans-Serif" font-size="10.00" fill="#000000"> m_Commands</text>
</g>
<!-- Node6 -->
<g id="node6" class="node">
<title>Node6</title>
<g id="a_node6"><a xlink:href="structitk_1_1simple_1_1ProcessObject_1_1EventCommand.html" target="_top" xlink:title=" ">
<polygon fill="#ffffff" stroke="#000000" points="1257,-396.5 1257,-426.5 1400,-426.5 1400,-396.5 1257,-396.5"/>
<text text-anchor="start" x="1265" y="-414.5" font-family="Helvetica,sans-Serif" font-size="10.00" fill="#000000">itk::simple::ProcessObject</text>
<text text-anchor="middle" x="1328.5" y="-403.5" font-family="Helvetica,sans-Serif" font-size="10.00" fill="#000000">::EventCommand</text>
</a>
</g>
</g>
<!-- Node6&#45;&gt;Node5 -->
<g id="edge5" class="edge">
<title>Node6&#45;&gt;Node5</title>
<path fill="none" stroke="#9a32cd" stroke-dasharray="5,2" d="M1410.1278,-397.2419C1463.1117,-387.987 1532.0611,-375.9435 1585.91,-366.5376"/>
<polygon fill="#9a32cd" stroke="#9a32cd" points="1409.3393,-393.8265 1400.0907,-398.9951 1410.5439,-400.7221 1409.3393,-393.8265"/>
<text text-anchor="middle" x="1489" y="-398.5" font-family="Helvetica,sans-Serif" font-size="10.00" fill="#000000"> elements</text>
</g>
<!-- Node7&#45;&gt;Node6 -->
<g id="edge6" class="edge">
<title>Node7&#45;&gt;Node6</title>
<path fill="none" stroke="#9a32cd" stroke-dasharray="5,2" d="M1084.6302,-420.7462C1136.3459,-418.7855 1205.5158,-416.1629 1256.9794,-414.2117"/>
<polygon fill="#9a32cd" stroke="#9a32cd" points="1084.3904,-417.2527 1074.5302,-421.1292 1084.6557,-424.2477 1084.3904,-417.2527"/>
<text text-anchor="middle" x="1174.5" y="-423.5" font-family="Helvetica,sans-Serif" font-size="10.00" fill="#000000"> m_Command</text>
</g>
<!-- Node8 -->
<g id="node8" class="node">
<title>Node8</title>
<g id="a_node8"><a xlink:title="STL class.">
<polygon fill="#ffffff" stroke="#bfbfbf" points="615.5,-475 615.5,-494 680.5,-494 680.5,-475 615.5,-475"/>
<text text-anchor="middle" x="648" y="-482" font-family="Helvetica,sans-Serif" font-size="10.00" fill="#000000">std::string</text>
</a>
</g>
</g>
<!-- Node8&#45;&gt;Node7 -->
<g id="edge8" class="edge">
<title>Node8&#45;&gt;Node7</title>
<path fill="none" stroke="#9a32cd" stroke-dasharray="5,2" d="M690.4882,-479.6089C743.1574,-473.2752 835.5655,-461.2764 914,-446.5 934.2654,-442.6822 956.6701,-437.4972 974.9362,-433.0167"/>
<polygon fill="#9a32cd" stroke="#9a32cd" points="690.0157,-476.1403 680.5002,-480.7992 690.8441,-483.0911 690.0157,-476.1403"/>
<text text-anchor="middle" x="833" y="-473.5" font-family="Helvetica,sans-Serif" font-size="10.00" fill="#000000"> m_Name</text>
</g>
<!-- Node9 -->
<g id="node9" class="node">
<title>Node9</title>
<g id="a_node9"><a xlink:title="STL class.">
<polygon fill="#ffffff" stroke="#bfbfbf" points="232,-476.5 232,-506.5 336,-506.5 336,-476.5 232,-476.5"/>
<text text-anchor="start" x="240" y="-494.5" font-family="Helvetica,sans-Serif" font-size="10.00" fill="#000000">std::basic_string&lt;</text>
<text text-anchor="middle" x="284" y="-483.5" font-family="Helvetica,sans-Serif" font-size="10.00" fill="#000000"> char &gt;</text>
</a>
</g>
</g>
<!-- Node9&#45;&gt;Node8 -->
<g id="edge9" class="edge">
<title>Node9&#45;&gt;Node8</title>
<path fill="none" stroke="#191970" d="M346.325,-490.3014C424.2948,-488.802 554.9016,-486.2904 615.4072,-485.1268"/>
<polygon fill="#191970" stroke="#191970" points="346.0831,-486.8053 336.1523,-490.4971 346.2178,-493.8041 346.0831,-486.8053"/>
</g>
<!-- Node10&#45;&gt;Node7 -->
<g id="edge10" class="edge">
<title>Node10&#45;&gt;Node7</title>
<path fill="none" stroke="#9a32cd" stroke-dasharray="5,2" d="M716.1019,-431.6291C783.0065,-429.791 884.2464,-427.0097 949.2441,-425.2241"/>
<polygon fill="#9a32cd" stroke="#9a32cd" points="715.9795,-428.131 706.0794,-431.9044 716.1718,-435.1284 715.9795,-428.131"/>
<text text-anchor="middle" x="833" y="-434.5" font-family="Helvetica,sans-Serif" font-size="10.00" fill="#000000"> m_ReferencedObjects</text>
</g>
<!-- Node11 -->
<g id="node11" class="node">
<title>Node11</title>
<g id="a_node11"><a xlink:title="STL class.">
<polygon fill="#ffffff" stroke="#bfbfbf" points="243,-438 243,-457 325,-457 325,-438 243,-438"/>
<text text-anchor="middle" x="284" y="-445" font-family="Helvetica,sans-Serif" font-size="10.00" fill="#000000">std::set&lt; K &gt;</text>
</a>
</g>
</g>
<!-- Node11&#45;&gt;Node10 -->
<g id="edge12" class="edge">
<title>Node11&#45;&gt;Node10</title>
<path fill="none" stroke="#ffa500" stroke-dasharray="5,2" d="M335.3639,-445.5245C402.4082,-442.9458 519.4541,-438.4441 589.7379,-435.7408"/>
<polygon fill="#ffa500" stroke="#ffa500" points="334.9059,-442.0394 325.0479,-445.9212 335.175,-449.0342 334.9059,-442.0394"/>
<text text-anchor="middle" x="463.5" y="-446.5" font-family="Helvetica,sans-Serif" font-size="10.00" fill="#000000"> &lt; itk::simple::ProcessObject * &gt;</text>
</g>
<!-- Node12 -->
<g id="node12" class="node">
<title>Node12</title>
<g id="a_node12"><a xlink:title=" ">
<polygon fill="#ffffff" stroke="#bfbfbf" points="55.5,-438 55.5,-457 84.5,-457 84.5,-438 55.5,-438"/>
<text text-anchor="middle" x="70" y="-445" font-family="Helvetica,sans-Serif" font-size="10.00" fill="#000000">K</text>
</a>
</g>
</g>
<!-- Node12&#45;&gt;Node11 -->
<g id="edge13" class="edge">
<title>Node12&#45;&gt;Node11</title>
<path fill="none" stroke="#9a32cd" stroke-dasharray="5,2" d="M94.9038,-447.5C131.2222,-447.5 199.1487,-447.5 242.9345,-447.5"/>
<polygon fill="#9a32cd" stroke="#9a32cd" points="94.7091,-444.0001 84.7091,-447.5 94.7091,-451.0001 94.7091,-444.0001"/>
<text text-anchor="middle" x="171.5" y="-450.5" font-family="Helvetica,sans-Serif" font-size="10.00" fill="#000000"> keys</text>
</g>
<!-- Node13 -->
<g id="node13" class="node">
<title>Node13</title>
<g id="a_node13"><a xlink:title="STL class.">
<polygon fill="#ffffff" stroke="#bfbfbf" points="1288,-298 1288,-317 1369,-317 1369,-298 1288,-298"/>
<text text-anchor="middle" x="1328.5" y="-305" font-family="Helvetica,sans-Serif" font-size="10.00" fill="#000000">std::list&lt; T &gt;</text>
</a>
</g>
</g>
<!-- Node13&#45;&gt;Node5 -->
<g id="edge14" class="edge">
<title>Node13&#45;&gt;Node5</title>
<path fill="none" stroke="#ffa500" stroke-dasharray="5,2" d="M1379.6843,-305.2447C1426.8734,-304.1136 1498.6768,-304.7984 1560,-315.5 1585.2508,-319.9065 1612.6609,-328.6445 1634.0447,-336.408"/>
<polygon fill="#ffa500" stroke="#ffa500" points="1379.3144,-301.7535 1369.4151,-305.5289 1379.5082,-308.7508 1379.3144,-301.7535"/>
<text text-anchor="start" x="1418" y="-329.5" font-family="Helvetica,sans-Serif" font-size="10.00" fill="#000000"> &lt; itk::simple::ProcessObject</text>
<text text-anchor="middle" x="1489" y="-318.5" font-family="Helvetica,sans-Serif" font-size="10.00" fill="#000000">::EventCommand &gt;</text>
</g>
<!-- Node14 -->
<g id="node14" class="node">
<title>Node14</title>
<g id="a_node14"><a xlink:title=" ">
<polygon fill="#ffffff" stroke="#bfbfbf" points="997.5,-248 997.5,-267 1026.5,-267 1026.5,-248 997.5,-248"/>
<text text-anchor="middle" x="1012" y="-255" font-family="Helvetica,sans-Serif" font-size="10.00" fill="#000000">T</text>
</a>
</g>
</g>
<!-- Node14&#45;&gt;Node13 -->
<g id="edge15" class="edge">
<title>Node14&#45;&gt;Node13</title>
<path fill="none" stroke="#9a32cd" stroke-dasharray="5,2" d="M1036.987,-261.4474C1091.5003,-270.0593 1221.5295,-290.601 1287.9476,-301.0936"/>
<polygon fill="#9a32cd" stroke="#9a32cd" points="1037.2646,-257.9479 1026.8409,-259.8445 1036.1723,-264.8622 1037.2646,-257.9479"/>
<text text-anchor="middle" x="1174.5" y="-296.5" font-family="Helvetica,sans-Serif" font-size="10.00" fill="#000000"> elements</text>
</g>
<!-- Node21 -->
<g id="node21" class="node">
<title>Node21</title>
<g id="a_node21"><a xlink:title="STL class.">
<polygon fill="#ffffff" stroke="#bfbfbf" points="1269.5,-187 1269.5,-206 1387.5,-206 1387.5,-187 1269.5,-187"/>
<text text-anchor="middle" x="1328.5" y="-194" font-family="Helvetica,sans-Serif" font-size="10.00" fill="#000000">std::unique_ptr&lt; T &gt;</text>
</a>
</g>
</g>
<!-- Node14&#45;&gt;Node21 -->
<g id="edge24" class="edge">
<title>Node14&#45;&gt;Node21</title>
<path fill="none" stroke="#9a32cd" stroke-dasharray="5,2" d="M1036.8551,-252.7096C1088.9188,-242.6752 1210.2767,-219.2855 1278.9089,-206.0578"/>
<polygon fill="#9a32cd" stroke="#9a32cd" points="1035.9978,-249.3103 1026.8409,-254.6397 1037.3226,-256.1838 1035.9978,-249.3103"/>
<text text-anchor="middle" x="1174.5" y="-241.5" font-family="Helvetica,sans-Serif" font-size="10.00" fill="#000000"> ptr</text>
</g>
<!-- Node23 -->
<g id="node23" class="node">
<title>Node23</title>
<g id="a_node23"><a xlink:title="STL class.">
<polygon fill="#ffffff" stroke="#bfbfbf" points="1280,-248 1280,-267 1377,-267 1377,-248 1280,-248"/>
<text text-anchor="middle" x="1328.5" y="-255" font-family="Helvetica,sans-Serif" font-size="10.00" fill="#000000">std::vector&lt; T &gt;</text>
</a>
</g>
</g>
<!-- Node14&#45;&gt;Node23 -->
<g id="edge27" class="edge">
<title>Node14&#45;&gt;Node23</title>
<path fill="none" stroke="#9a32cd" stroke-dasharray="5,2" d="M1036.9008,-257.5C1089.2195,-257.5 1211.3678,-257.5 1279.8134,-257.5"/>
<polygon fill="#9a32cd" stroke="#9a32cd" points="1036.841,-254.0001 1026.8409,-257.5 1036.8409,-261.0001 1036.841,-254.0001"/>
<text text-anchor="middle" x="1174.5" y="-260.5" font-family="Helvetica,sans-Serif" font-size="10.00" fill="#000000"> elements</text>
</g>
<!-- Node15 -->
<g id="node15" class="node">
<title>Node15</title>
<g id="a_node15"><a xlink:title=" ">
<polygon fill="#ffffff" stroke="#bfbfbf" points="1578,-170 1578,-211 1766,-211 1766,-170 1578,-170"/>
<text text-anchor="start" x="1586" y="-199" font-family="Helvetica,sans-Serif" font-size="10.00" fill="#000000">std::unique_ptr&lt; itk</text>
<text text-anchor="start" x="1586" y="-188" font-family="Helvetica,sans-Serif" font-size="10.00" fill="#000000">::simple::detail::MemberFunction</text>
<text text-anchor="middle" x="1672" y="-177" font-family="Helvetica,sans-Serif" font-size="10.00" fill="#000000">Factory&lt; MemberFunctionType &gt; &gt;</text>
</a>
</g>
</g>
<!-- Node15&#45;&gt;Node1 -->
<g id="edge16" class="edge">
<title>Node15&#45;&gt;Node1</title>
<path fill="none" stroke="#9a32cd" stroke-dasharray="5,2" d="M1776.2208,-191.9464C1808.8514,-192.9612 1844.9623,-194.6618 1878,-197.5 1888.341,-198.3884 1899.2852,-199.6268 1909.9093,-200.9892"/>
<polygon fill="#9a32cd" stroke="#9a32cd" points="1776.3113,-188.4476 1766.213,-191.653 1776.1061,-195.4446 1776.3113,-188.4476"/>
<text text-anchor="middle" x="1831" y="-200.5" font-family="Helvetica,sans-Serif" font-size="10.00" fill="#000000"> m_MemberFactory</text>
</g>
<!-- Node16 -->
<g id="node16" class="node">
<title>Node16</title>
<g id="a_node16"><a xlink:href="classitk_1_1simple_1_1detail_1_1MemberFunctionFactory.html" target="_top" xlink:title=" ">
<polygon fill="#ffffff" stroke="#000000" points="1257.5,-54 1257.5,-95 1399.5,-95 1399.5,-54 1257.5,-54"/>
<text text-anchor="start" x="1265.5" y="-83" font-family="Helvetica,sans-Serif" font-size="10.00" fill="#000000">itk::simple::detail</text>
<text text-anchor="start" x="1265.5" y="-72" font-family="Helvetica,sans-Serif" font-size="10.00" fill="#000000">::MemberFunctionFactory</text>
<text text-anchor="middle" x="1328.5" y="-61" font-family="Helvetica,sans-Serif" font-size="10.00" fill="#000000">&lt; MemberFunctionType &gt;</text>
</a>
</g>
</g>
<!-- Node16&#45;&gt;Node15 -->
<g id="edge17" class="edge">
<title>Node16&#45;&gt;Node15</title>
<path fill="none" stroke="#9a32cd" stroke-dasharray="5,2" d="M1399.3011,-98.4096C1461.8112,-119.5192 1551.9782,-149.9686 1611.2646,-169.9896"/>
<polygon fill="#9a32cd" stroke="#9a32cd" points="1400.1093,-94.9883 1389.5151,-95.1048 1397.8696,-101.6204 1400.1093,-94.9883"/>
<text text-anchor="middle" x="1489" y="-153.5" font-family="Helvetica,sans-Serif" font-size="10.00" fill="#000000"> ptr</text>
</g>
<!-- Node17 -->
<g id="node17" class="node">
<title>Node17</title>
<g id="a_node17"><a xlink:href="classitk_1_1simple_1_1detail_1_1MemberFunctionFactoryBase.html" target="_top" xlink:title=" ">
<polygon fill="#ffffff" stroke="#000000" points="752,-55.5 752,-107.5 914,-107.5 914,-55.5 752,-55.5"/>
<text text-anchor="start" x="760" y="-95.5" font-family="Helvetica,sans-Serif" font-size="10.00" fill="#000000">itk::simple::detail</text>
<text text-anchor="start" x="760" y="-84.5" font-family="Helvetica,sans-Serif" font-size="10.00" fill="#000000">::MemberFunctionFactoryBase</text>
<text text-anchor="start" x="760" y="-73.5" font-family="Helvetica,sans-Serif" font-size="10.00" fill="#000000">&lt; MemberFunctionType, std</text>
<text text-anchor="middle" x="833" y="-62.5" font-family="Helvetica,sans-Serif" font-size="10.00" fill="#000000">::pair&lt; unsigned int, int &gt; &gt;</text>
</a>
</g>
</g>
<!-- Node17&#45;&gt;Node16 -->
<g id="edge18" class="edge">
<title>Node17&#45;&gt;Node16</title>
<path fill="none" stroke="#006400" d="M924.5512,-80.2066C1020.6123,-78.8496 1169.5838,-76.745 1257.2427,-75.5067"/>
<polygon fill="#006400" stroke="#006400" points="924.2164,-76.7109 914.2669,-80.3519 924.3154,-83.7102 924.2164,-76.7109"/>
</g>
<!-- Node18 -->
<g id="node18" class="node">
<title>Node18</title>
<g id="a_node18"><a xlink:href="classitk_1_1simple_1_1detail_1_1MemberFunctionFactoryBase.html" target="_top" xlink:title="A base class for the MemberFunctionFactory.">
<polygon fill="#ffffff" stroke="#000000" points="203,-39.5 203,-69.5 365,-69.5 365,-39.5 203,-39.5"/>
<text text-anchor="start" x="211" y="-57.5" font-family="Helvetica,sans-Serif" font-size="10.00" fill="#000000">itk::simple::detail</text>
<text text-anchor="middle" x="284" y="-46.5" font-family="Helvetica,sans-Serif" font-size="10.00" fill="#000000">::MemberFunctionFactoryBase</text>
</a>
</g>
</g>
<!-- Node18&#45;&gt;Node17 -->
<g id="edge19" class="edge">
<title>Node18&#45;&gt;Node17</title>
<path fill="none" stroke="#ffa500" stroke-dasharray="5,2" d="M375.2289,-60.0765C377.8477,-60.2213 380.4423,-60.3628 383,-60.5 511.8613,-67.4113 661.5516,-74.1373 751.6893,-78.0458"/>
<polygon fill="#ffa500" stroke="#ffa500" points="375.2168,-56.5704 365.036,-59.5032 374.8237,-63.5593 375.2168,-56.5704"/>
<text text-anchor="start" x="403" y="-94.5" font-family="Helvetica,sans-Serif" font-size="10.00" fill="#000000"> &lt; MemberFunctionType,</text>
<text text-anchor="start" x="403" y="-83.5" font-family="Helvetica,sans-Serif" font-size="10.00" fill="#000000"> std::pair&lt; unsigned</text>
<text text-anchor="middle" x="463.5" y="-72.5" font-family="Helvetica,sans-Serif" font-size="10.00" fill="#000000"> int, int &gt; &gt;</text>
</g>
<!-- Node20 -->
<g id="node20" class="node">
<title>Node20</title>
<g id="a_node20"><a xlink:href="classitk_1_1simple_1_1detail_1_1MemberFunctionFactoryBase.html" target="_top" xlink:title=" ">
<polygon fill="#ffffff" stroke="#000000" points="562,-.5 562,-52.5 734,-52.5 734,-.5 562,-.5"/>
<text text-anchor="start" x="570" y="-40.5" font-family="Helvetica,sans-Serif" font-size="10.00" fill="#000000">itk::simple::detail</text>
<text text-anchor="start" x="570" y="-29.5" font-family="Helvetica,sans-Serif" font-size="10.00" fill="#000000">::MemberFunctionFactoryBase</text>
<text text-anchor="start" x="570" y="-18.5" font-family="Helvetica,sans-Serif" font-size="10.00" fill="#000000">&lt; TMemberFunctionPointer,</text>
<text text-anchor="middle" x="648" y="-7.5" font-family="Helvetica,sans-Serif" font-size="10.00" fill="#000000"> std::pair&lt; unsigned int, int &gt; &gt;</text>
</a>
</g>
</g>
<!-- Node18&#45;&gt;Node20 -->
<g id="edge22" class="edge">
<title>Node18&#45;&gt;Node20</title>
<path fill="none" stroke="#ffa500" stroke-dasharray="5,2" d="M339.3503,-36.6598C353.437,-32.8817 368.6527,-29.4489 383,-27.5 442.3791,-19.434 509.9349,-19.3169 561.9757,-21.1481"/>
<polygon fill="#ffa500" stroke="#ffa500" points="338.0141,-33.3987 329.3212,-39.4555 339.8938,-40.1416 338.0141,-33.3987"/>
<text text-anchor="start" x="394" y="-52.5" font-family="Helvetica,sans-Serif" font-size="10.00" fill="#000000"> &lt; TMemberFunctionPointer,</text>
<text text-anchor="start" x="394" y="-41.5" font-family="Helvetica,sans-Serif" font-size="10.00" fill="#000000"> std::pair&lt; unsigned int,</text>
<text text-anchor="middle" x="463.5" y="-30.5" font-family="Helvetica,sans-Serif" font-size="10.00" fill="#000000"> int &gt; &gt;</text>
</g>
<!-- Node19 -->
<g id="node19" class="node">
<title>Node19</title>
<g id="a_node19"><a xlink:href="classitk_1_1simple_1_1detail_1_1MemberFunctionFactory.html" target="_top" xlink:title="A class used to instantiate and generate function object to templated member functions.">
<polygon fill="#ffffff" stroke="#000000" points="932,-11 932,-52 1092,-52 1092,-11 932,-11"/>
<text text-anchor="start" x="940" y="-40" font-family="Helvetica,sans-Serif" font-size="10.00" fill="#000000">itk::simple::detail</text>
<text text-anchor="start" x="940" y="-29" font-family="Helvetica,sans-Serif" font-size="10.00" fill="#000000">::MemberFunctionFactory</text>
<text text-anchor="middle" x="1012" y="-18" font-family="Helvetica,sans-Serif" font-size="10.00" fill="#000000">&lt; TMemberFunctionPointer &gt;</text>
</a>
</g>
</g>
<!-- Node19&#45;&gt;Node16 -->
<g id="edge20" class="edge">
<title>Node19&#45;&gt;Node16</title>
<path fill="none" stroke="#ffa500" stroke-dasharray="5,2" d="M1102.254,-38.8724C1143.9992,-42.8377 1194.1629,-48.3902 1239,-55.5 1244.9616,-56.4453 1251.1254,-57.5287 1257.3,-58.6882"/>
<polygon fill="#ffa500" stroke="#ffa500" points="1102.3898,-35.3699 1092.1075,-37.9239 1101.7383,-42.3395 1102.3898,-35.3699"/>
<text text-anchor="middle" x="1174.5" y="-58.5" font-family="Helvetica,sans-Serif" font-size="10.00" fill="#000000"> &lt; MemberFunctionType &gt;</text>
</g>
<!-- Node20&#45;&gt;Node19 -->
<g id="edge21" class="edge">
<title>Node20&#45;&gt;Node19</title>
<path fill="none" stroke="#006400" d="M744.623,-27.8272C803.0927,-28.6304 876.7628,-29.6423 931.9603,-30.4006"/>
<polygon fill="#006400" stroke="#006400" points="744.3101,-24.3227 734.2629,-27.6849 744.2139,-31.322 744.3101,-24.3227"/>
</g>
<!-- Node21&#45;&gt;Node15 -->
<g id="edge23" class="edge">
<title>Node21&#45;&gt;Node15</title>
<path fill="none" stroke="#ffa500" stroke-dasharray="5,2" d="M1397.7077,-192.2761C1404.5619,-191.9651 1411.4157,-191.6967 1418,-191.5 1470.8935,-189.9195 1530.0099,-189.601 1577.8931,-189.7086"/>
<polygon fill="#ffa500" stroke="#ffa500" points="1397.5166,-188.7811 1387.6967,-192.7587 1397.8537,-195.773 1397.5166,-188.7811"/>
<text text-anchor="start" x="1420.5" y="-216.5" font-family="Helvetica,sans-Serif" font-size="10.00" fill="#000000"> &lt; itk::simple::detail</text>
<text text-anchor="start" x="1420.5" y="-205.5" font-family="Helvetica,sans-Serif" font-size="10.00" fill="#000000">::MemberFunctionFactory</text>
<text text-anchor="middle" x="1489" y="-194.5" font-family="Helvetica,sans-Serif" font-size="10.00" fill="#000000">&lt; MemberFunctionType &gt; &gt;</text>
</g>
<!-- Node22 -->
<g id="node22" class="node">
<title>Node22</title>
<g id="a_node22"><a xlink:title=" ">
<polygon fill="#ffffff" stroke="#bfbfbf" points="1609.5,-231 1609.5,-250 1734.5,-250 1734.5,-231 1609.5,-231"/>
<text text-anchor="middle" x="1672" y="-238" font-family="Helvetica,sans-Serif" font-size="10.00" fill="#000000">std::vector&lt; int32_t &gt;</text>
</a>
</g>
</g>
<!-- Node22&#45;&gt;Node1 -->
<g id="edge25" class="edge">
<title>Node22&#45;&gt;Node1</title>
<path fill="none" stroke="#9a32cd" stroke-dasharray="5,2" d="M1744.6812,-233.2319C1790.496,-228.6504 1849.555,-222.7445 1895.9917,-218.1008"/>
<polygon fill="#9a32cd" stroke="#9a32cd" points="1744.1267,-229.7698 1734.5247,-234.2475 1744.8233,-236.735 1744.1267,-229.7698"/>
<text text-anchor="middle" x="1831" y="-243.5" font-family="Helvetica,sans-Serif" font-size="10.00" fill="#000000"> m_Stop</text>
<text text-anchor="middle" x="1831" y="-232.5" font-family="Helvetica,sans-Serif" font-size="10.00" fill="#000000">m_Start</text>
</g>
<!-- Node23&#45;&gt;Node22 -->
<g id="edge26" class="edge">
<title>Node23&#45;&gt;Node22</title>
<path fill="none" stroke="#ffa500" stroke-dasharray="5,2" d="M1387.2909,-250.2211C1397.5156,-249.1584 1408.0568,-248.1913 1418,-247.5 1483.1315,-242.9719 1557.8487,-241.3398 1609.2994,-240.7686"/>
<polygon fill="#ffa500" stroke="#ffa500" points="1386.7725,-246.7566 1377.2055,-251.309 1387.5233,-253.7163 1386.7725,-246.7566"/>
<text text-anchor="middle" x="1489" y="-250.5" font-family="Helvetica,sans-Serif" font-size="10.00" fill="#000000"> &lt; int32_t &gt;</text>
</g>
<!-- Node24 -->
<g id="node24" class="node">
<title>Node24</title>
<g id="a_node24"><a xlink:title=" ">
<polygon fill="#ffffff" stroke="#bfbfbf" points="1620,-270 1620,-289 1724,-289 1724,-270 1620,-270"/>
<text text-anchor="middle" x="1672" y="-277" font-family="Helvetica,sans-Serif" font-size="10.00" fill="#000000">std::vector&lt; int &gt;</text>
</a>
</g>
</g>
<!-- Node23&#45;&gt;Node24 -->
<g id="edge29" class="edge">
<title>Node23&#45;&gt;Node24</title>
<path fill="none" stroke="#ffa500" stroke-dasharray="5,2" d="M1387.5025,-261.2789C1452.9275,-265.4692 1557.4585,-272.164 1619.9457,-276.1661"/>
<polygon fill="#ffa500" stroke="#ffa500" points="1387.5537,-257.7751 1377.3504,-260.6287 1387.1062,-264.7608 1387.5537,-257.7751"/>
<text text-anchor="middle" x="1489" y="-275.5" font-family="Helvetica,sans-Serif" font-size="10.00" fill="#000000"> &lt; int &gt;</text>
</g>
<!-- Node24&#45;&gt;Node1 -->
<g id="edge28" class="edge">
<title>Node24&#45;&gt;Node1</title>
<path fill="none" stroke="#9a32cd" stroke-dasharray="5,2" d="M1734.3672,-277.5808C1775.7765,-275.0125 1830.964,-269.0882 1878,-255.5 1906.8546,-247.1642 1937.8127,-230.7177 1956.0138,-220.184"/>
<polygon fill="#9a32cd" stroke="#9a32cd" points="1733.9339,-274.0997 1724.1496,-278.1641 1734.3329,-281.0884 1733.9339,-274.0997"/>
<text text-anchor="middle" x="1831" y="-276.5" font-family="Helvetica,sans-Serif" font-size="10.00" fill="#000000"> m_Step</text>
</g>
</g>
</svg>
