<?xml version="1.0" encoding="UTF-8" standalone="no"?>
<!DOCTYPE svg PUBLIC "-//W3C//DTD SVG 1.1//EN"
 "http://www.w3.org/Graphics/SVG/1.1/DTD/svg11.dtd">
<!-- Generated by graphviz version 2.40.1 (20161225.0304)
 -->
<!-- Title: itk::HolderCommand&lt; T &gt; Pages: 1 -->
<svg width="162pt" height="95pt"
 viewBox="0.00 0.00 162.00 95.00" xmlns="http://www.w3.org/2000/svg" xmlns:xlink="http://www.w3.org/1999/xlink">
<g id="graph0" class="graph" transform="scale(1 1) rotate(0) translate(4 91)">
<title>itk::HolderCommand&lt; T &gt;</title>
<polygon fill="#ffffff" stroke="transparent" points="-4,4 -4,-91 158,-91 158,4 -4,4"/>
<!-- Node1 -->
<g id="node1" class="node">
<title>Node1</title>
<g id="a_node1"><a xlink:title="An ITK Command class to hold a object until destruction.">
<polygon fill="#bfbfbf" stroke="#000000" points="8,-.5 8,-19.5 154,-19.5 154,-.5 8,-.5"/>
<text text-anchor="middle" x="81" y="-7.5" font-family="Helvetica,sans-Serif" font-size="10.00" fill="#000000">itk::HolderCommand&lt; T &gt;</text>
</a>
</g>
</g>
<!-- Node2 -->
<g id="node2" class="node">
<title>Node2</title>
<g id="a_node2"><a xlink:title=" ">
<polygon fill="#ffffff" stroke="#bfbfbf" points="0,-67.5 0,-86.5 86,-86.5 86,-67.5 0,-67.5"/>
<text text-anchor="middle" x="43" y="-74.5" font-family="Helvetica,sans-Serif" font-size="10.00" fill="#000000">itk::Command</text>
</a>
</g>
</g>
<!-- Node2&#45;&gt;Node1 -->
<g id="edge1" class="edge">
<title>Node2&#45;&gt;Node1</title>
<path fill="none" stroke="#191970" d="M53.4302,-58.6099C60.5937,-45.9795 69.8132,-29.7241 75.5656,-19.5817"/>
<polygon fill="#191970" stroke="#191970" points="50.3335,-56.9754 48.4445,-67.4005 56.4224,-60.4289 50.3335,-56.9754"/>
</g>
<!-- Node3 -->
<g id="node3" class="node">
<title>Node3</title>
<g id="a_node3"><a xlink:title=" ">
<polygon fill="#ffffff" stroke="#bfbfbf" points="104.5,-67.5 104.5,-86.5 133.5,-86.5 133.5,-67.5 104.5,-67.5"/>
<text text-anchor="middle" x="119" y="-74.5" font-family="Helvetica,sans-Serif" font-size="10.00" fill="#000000">T</text>
</a>
</g>
</g>
<!-- Node3&#45;&gt;Node1 -->
<g id="edge2" class="edge">
<title>Node3&#45;&gt;Node1</title>
<path fill="none" stroke="#9a32cd" stroke-dasharray="5,2" d="M108.5698,-58.6099C101.4063,-45.9795 92.1868,-29.7241 86.4344,-19.5817"/>
<polygon fill="#9a32cd" stroke="#9a32cd" points="105.5776,-60.4289 113.5555,-67.4005 111.6665,-56.9754 105.5776,-60.4289"/>
<text text-anchor="middle" x="127" y="-41" font-family="Helvetica,sans-Serif" font-size="10.00" fill="#000000"> m_Object</text>
</g>
</g>
</svg>
