<?xml version="1.0" encoding="UTF-8" standalone="no"?>
<!DOCTYPE svg PUBLIC "-//W3C//DTD SVG 1.1//EN"
 "http://www.w3.org/Graphics/SVG/1.1/DTD/svg11.dtd">
<!-- Generated by graphviz version 2.40.1 (20161225.0304)
 -->
<!-- Title: itk::simple::ImageFileReader Pages: 1 -->
<!--zoomable 561 -->
<svg id="main" version="1.1" xmlns="http://www.w3.org/2000/svg" xmlns:xlink="http://www.w3.org/1999/xlink" xml:space="preserve" onload="init(evt)">
<style type="text/css"><![CDATA[
.edge:hover path { stroke: red; }
.edge:hover polygon { stroke: red; fill: red; }
]]></style>
<script type="text/javascript"><![CDATA[
var edges = document.getElementsByTagName('g');
if (edges && edges.length) {
  for (var i=0;i<edges.length;i++) {
    if (edges[i].id.substr(0,4)=='edge') {
      edges[i].setAttribute('class','edge');
    }
  }
}
]]></script>
        <defs>
                <circle id="rim" cx="0" cy="0" r="7"/>
                <circle id="rim2" cx="0" cy="0" r="3.5"/>
                <g id="zoomPlus">
                        <use xlink:href="#rim" fill="#404040">
                                <set attributeName="fill" to="#808080" begin="zoomplus.mouseover" end="zoomplus.mouseout"/>
                        </use>
                        <path d="M-4,0h8M0,-4v8" fill="none" stroke="white" stroke-width="1.5" pointer-events="none"/>
                </g>
                <g id="zoomMin">
                        <use xlink:href="#rim" fill="#404040">
                                <set attributeName="fill" to="#808080" begin="zoomminus.mouseover" end="zoomminus.mouseout"/>
                        </use>
                        <path d="M-4,0h8" fill="none" stroke="white" stroke-width="1.5" pointer-events="none"/>
                </g>
                <g id="dirArrow">
                        <path fill="none" stroke="white" stroke-width="1.5" d="M0,-3.0v7 M-2.5,-0.5L0,-3.0L2.5,-0.5"/>
                </g>
               <g id="resetDef">
                       <use xlink:href="#rim2" fill="#404040">
                               <set attributeName="fill" to="#808080" begin="reset.mouseover" end="reset.mouseout"/>
                       </use>
               </g>
        </defs>

<script type="text/javascript">
var viewWidth = 2180;
var viewHeight = 561;
var sectionId = 'dynsection-1';
</script>
<script xlink:href="svgpan.js"/>
<svg id="graph" class="graph">
<g id="viewport">
<title>itk::simple::ImageFileReader</title>
<polygon fill="#ffffff" stroke="transparent" points="-4,4 -4,-557.0442 2176,-557.0442 2176,4 -4,4"/>
<!-- Node1 -->
<g id="node1" class="node">
<title>Node1</title>
<g id="a_node1"><a xlink:title="Read an image file and return a SimpleITK Image.">
<polygon fill="#bfbfbf" stroke="#000000" points="1745,-202.9637 1745,-221.9637 1900,-221.9637 1900,-202.9637 1745,-202.9637"/>
<text text-anchor="middle" x="1822.5" y="-209.9637" font-family="Helvetica,sans-Serif" font-size="10.00" fill="#000000">itk::simple::ImageFileReader</text>
</a>
</g>
</g>
<!-- Node2 -->
<g id="node2" class="node">
<title>Node2</title>
<g id="a_node2"><a xlink:href="classitk_1_1simple_1_1ImageReaderBase.html" target="_top" xlink:title="An abract base class for image readers.">
<polygon fill="#ffffff" stroke="#000000" points="1391.5,-370.9637 1391.5,-389.9637 1554.5,-389.9637 1554.5,-370.9637 1391.5,-370.9637"/>
<text text-anchor="middle" x="1473" y="-377.9637" font-family="Helvetica,sans-Serif" font-size="10.00" fill="#000000">itk::simple::ImageReaderBase</text>
</a>
</g>
</g>
<!-- Node2&#45;&gt;Node1 -->
<g id="edge1" class="edge">
<title>Node2&#45;&gt;Node1</title>
<path fill="none" stroke="#191970" d="M1564.6837,-389.8581C1615.8149,-390.7804 1678.7227,-384.4056 1727,-355.4637 1780.2584,-323.5355 1810.0168,-249.0883 1819.3039,-222.293"/>
<polygon fill="#191970" stroke="#191970" points="1564.7149,-386.3577 1554.6223,-389.5808 1564.522,-393.355 1564.7149,-386.3577"/>
</g>
<!-- Node3 -->
<g id="node3" class="node">
<title>Node3</title>
<g id="a_node3"><a xlink:href="classitk_1_1simple_1_1ProcessObject.html" target="_top" xlink:title="Base class for SimpleITK classes based on ProcessObject.">
<polygon fill="#ffffff" stroke="#000000" points="715.5,-454.9637 715.5,-473.9637 858.5,-473.9637 858.5,-454.9637 715.5,-454.9637"/>
<text text-anchor="middle" x="787" y="-461.9637" font-family="Helvetica,sans-Serif" font-size="10.00" fill="#000000">itk::simple::ProcessObject</text>
</a>
</g>
</g>
<!-- Node3&#45;&gt;Node2 -->
<g id="edge2" class="edge">
<title>Node3&#45;&gt;Node2</title>
<path fill="none" stroke="#191970" d="M868.7879,-464.9964C981.0133,-464.1924 1188.4732,-457.194 1361,-420.4637 1393.5135,-413.5417 1429.4297,-399.5053 1451.6088,-390.0409"/>
<polygon fill="#191970" stroke="#191970" points="868.5398,-461.4976 858.5598,-465.0543 868.5795,-468.4975 868.5398,-461.4976"/>
</g>
<!-- Node10 -->
<g id="node10" class="node">
<title>Node10</title>
<g id="a_node10"><a xlink:title=" ">
<polygon fill="#ffffff" stroke="#bfbfbf" points="1077,-477.4637 1077,-507.4637 1193,-507.4637 1193,-477.4637 1077,-477.4637"/>
<text text-anchor="start" x="1085" y="-495.4637" font-family="Helvetica,sans-Serif" font-size="10.00" fill="#000000">std::set&lt; itk::simple</text>
<text text-anchor="middle" x="1135" y="-484.4637" font-family="Helvetica,sans-Serif" font-size="10.00" fill="#000000">::ProcessObject * &gt;</text>
</a>
</g>
</g>
<!-- Node3&#45;&gt;Node10 -->
<g id="edge11" class="edge">
<title>Node3&#45;&gt;Node10</title>
<path fill="none" stroke="#9a32cd" stroke-dasharray="5,2" d="M868.7553,-469.8823C919.7517,-473.4058 986.7325,-478.2941 1046,-483.4637 1055.9017,-484.3273 1066.4151,-485.3217 1076.6154,-486.3274"/>
<polygon fill="#9a32cd" stroke="#9a32cd" points="868.9928,-466.3905 858.7762,-469.1961 868.5125,-473.374 868.9928,-466.3905"/>
<text text-anchor="middle" x="965.5" y="-486.4637" font-family="Helvetica,sans-Serif" font-size="10.00" fill="#000000"> keys</text>
</g>
<!-- Node4 -->
<g id="node4" class="node">
<title>Node4</title>
<g id="a_node4"><a xlink:href="classitk_1_1simple_1_1NonCopyable.html" target="_top" xlink:title="An inheritable class to disable copying of a class.">
<polygon fill="#ffffff" stroke="#000000" points="353,-420.9637 353,-439.9637 493,-439.9637 493,-420.9637 353,-420.9637"/>
<text text-anchor="middle" x="423" y="-427.9637" font-family="Helvetica,sans-Serif" font-size="10.00" fill="#000000">itk::simple::NonCopyable</text>
</a>
</g>
</g>
<!-- Node4&#45;&gt;Node3 -->
<g id="edge3" class="edge">
<title>Node4&#45;&gt;Node3</title>
<path fill="none" stroke="#006400" d="M503.1484,-437.9501C566.5931,-443.8762 654.3921,-452.0772 715.4789,-457.7831"/>
<polygon fill="#006400" stroke="#006400" points="503.4651,-434.4645 493.1829,-437.0192 502.814,-441.4341 503.4651,-434.4645"/>
</g>
<!-- Node7 -->
<g id="node7" class="node">
<title>Node7</title>
<g id="a_node7"><a xlink:href="classitk_1_1simple_1_1Command.html" target="_top" xlink:title="An implementation of the Command design pattern for callback.">
<polygon fill="#ffffff" stroke="#000000" points="1410.5,-449.9637 1410.5,-468.9637 1535.5,-468.9637 1535.5,-449.9637 1410.5,-449.9637"/>
<text text-anchor="middle" x="1473" y="-456.9637" font-family="Helvetica,sans-Serif" font-size="10.00" fill="#000000">itk::simple::Command</text>
</a>
</g>
</g>
<!-- Node4&#45;&gt;Node7 -->
<g id="edge7" class="edge">
<title>Node4&#45;&gt;Node7</title>
<path fill="none" stroke="#006400" d="M503.3182,-432.5408C556.0947,-433.9147 626.6577,-435.7687 689,-437.4637 957.3155,-444.7588 1277.2718,-453.8636 1410.2478,-457.6656"/>
<polygon fill="#006400" stroke="#006400" points="503.0954,-429.034 493.0077,-432.2726 502.9133,-436.0316 503.0954,-429.034"/>
</g>
<!-- Node5 -->
<g id="node5" class="node">
<title>Node5</title>
<g id="a_node5"><a xlink:title=" ">
<polygon fill="#ffffff" stroke="#bfbfbf" points="1985,-444.4637 1985,-474.4637 2172,-474.4637 2172,-444.4637 1985,-444.4637"/>
<text text-anchor="start" x="1993" y="-462.4637" font-family="Helvetica,sans-Serif" font-size="10.00" fill="#000000">std::list&lt; itk::simple</text>
<text text-anchor="middle" x="2078.5" y="-451.4637" font-family="Helvetica,sans-Serif" font-size="10.00" fill="#000000">::ProcessObject::EventCommand &gt;</text>
</a>
</g>
</g>
<!-- Node5&#45;&gt;Node3 -->
<g id="edge4" class="edge">
<title>Node5&#45;&gt;Node3</title>
<path fill="none" stroke="#9a32cd" stroke-dasharray="5,2" d="M2040.568,-479.0044C1991.5558,-502.399 1902.9522,-538.4637 1822.5,-538.4637 1135,-538.4637 1135,-538.4637 1135,-538.4637 1023.6616,-538.4637 980.5184,-579.6693 885,-522.4637 871.9857,-514.6694 878.781,-503.0204 867,-493.4637 856.2154,-484.7151 842.5646,-478.4813 829.6065,-474.095"/>
<polygon fill="#9a32cd" stroke="#9a32cd" points="2042.3609,-482.0247 2049.8284,-474.5089 2039.3039,-475.7275 2042.3609,-482.0247"/>
<text text-anchor="middle" x="1473" y="-541.4637" font-family="Helvetica,sans-Serif" font-size="10.00" fill="#000000"> m_Commands</text>
</g>
<!-- Node6 -->
<g id="node6" class="node">
<title>Node6</title>
<g id="a_node6"><a xlink:href="structitk_1_1simple_1_1ProcessObject_1_1EventCommand.html" target="_top" xlink:title=" ">
<polygon fill="#ffffff" stroke="#000000" points="1751,-444.4637 1751,-474.4637 1894,-474.4637 1894,-444.4637 1751,-444.4637"/>
<text text-anchor="start" x="1759" y="-462.4637" font-family="Helvetica,sans-Serif" font-size="10.00" fill="#000000">itk::simple::ProcessObject</text>
<text text-anchor="middle" x="1822.5" y="-451.4637" font-family="Helvetica,sans-Serif" font-size="10.00" fill="#000000">::EventCommand</text>
</a>
</g>
</g>
<!-- Node6&#45;&gt;Node5 -->
<g id="edge5" class="edge">
<title>Node6&#45;&gt;Node5</title>
<path fill="none" stroke="#9a32cd" stroke-dasharray="5,2" d="M1904.206,-459.4637C1929.8662,-459.4637 1958.3949,-459.4637 1984.8172,-459.4637"/>
<polygon fill="#9a32cd" stroke="#9a32cd" points="1904.1507,-455.9638 1894.1507,-459.4637 1904.1506,-462.9638 1904.1507,-455.9638"/>
<text text-anchor="middle" x="1942.5" y="-462.4637" font-family="Helvetica,sans-Serif" font-size="10.00" fill="#000000"> elements</text>
</g>
<!-- Node7&#45;&gt;Node6 -->
<g id="edge6" class="edge">
<title>Node7&#45;&gt;Node6</title>
<path fill="none" stroke="#9a32cd" stroke-dasharray="5,2" d="M1546.0687,-459.4637C1606.2141,-459.4637 1691.003,-459.4637 1750.777,-459.4637"/>
<polygon fill="#9a32cd" stroke="#9a32cd" points="1545.8873,-455.9638 1535.8872,-459.4637 1545.8872,-462.9638 1545.8873,-455.9638"/>
<text text-anchor="middle" x="1656" y="-462.4637" font-family="Helvetica,sans-Serif" font-size="10.00" fill="#000000"> m_Command</text>
</g>
<!-- Node8 -->
<g id="node8" class="node">
<title>Node8</title>
<g id="a_node8"><a xlink:title="STL class.">
<polygon fill="#ffffff" stroke="#bfbfbf" points="1102.5,-356.9637 1102.5,-375.9637 1167.5,-375.9637 1167.5,-356.9637 1102.5,-356.9637"/>
<text text-anchor="middle" x="1135" y="-363.9637" font-family="Helvetica,sans-Serif" font-size="10.00" fill="#000000">std::string</text>
</a>
</g>
</g>
<!-- Node8&#45;&gt;Node1 -->
<g id="edge31" class="edge">
<title>Node8&#45;&gt;Node1</title>
<path fill="none" stroke="#9a32cd" stroke-dasharray="5,2" d="M1178.0071,-363.3932C1296.9173,-354.4286 1627.8696,-326.1345 1727,-282.4637 1761.8026,-267.1318 1796.1777,-237.403 1812.5682,-222.0922"/>
<polygon fill="#9a32cd" stroke="#9a32cd" points="1177.5442,-359.9179 1167.8322,-364.1519 1178.0649,-366.8985 1177.5442,-359.9179"/>
<text text-anchor="middle" x="1473" y="-348.4637" font-family="Helvetica,sans-Serif" font-size="10.00" fill="#000000"> m_FileName</text>
</g>
<!-- Node8&#45;&gt;Node2 -->
<g id="edge16" class="edge">
<title>Node8&#45;&gt;Node2</title>
<path fill="none" stroke="#9a32cd" stroke-dasharray="5,2" d="M1177.6417,-368.1006C1223.0807,-369.8592 1297.1231,-372.766 1361,-375.4637 1370.8205,-375.8784 1381.1248,-376.3241 1391.3399,-376.7724"/>
<polygon fill="#9a32cd" stroke="#9a32cd" points="1177.6901,-364.6 1167.5624,-367.7112 1177.4198,-371.5947 1177.6901,-364.6"/>
<text text-anchor="middle" x="1292.5" y="-378.4637" font-family="Helvetica,sans-Serif" font-size="10.00" fill="#000000"> m_ImageIOName</text>
</g>
<!-- Node8&#45;&gt;Node7 -->
<g id="edge8" class="edge">
<title>Node8&#45;&gt;Node7</title>
<path fill="none" stroke="#9a32cd" stroke-dasharray="5,2" d="M1177.6173,-378.1897C1245.2596,-396.8014 1375.9076,-432.7489 1438.2528,-449.903"/>
<polygon fill="#9a32cd" stroke="#9a32cd" points="1178.2862,-374.7438 1167.716,-375.4654 1176.4291,-381.493 1178.2862,-374.7438"/>
<text text-anchor="middle" x="1292.5" y="-430.4637" font-family="Helvetica,sans-Serif" font-size="10.00" fill="#000000"> m_Name</text>
</g>
<!-- Node9 -->
<g id="node9" class="node">
<title>Node9</title>
<g id="a_node9"><a xlink:title="STL class.">
<polygon fill="#ffffff" stroke="#bfbfbf" points="735,-348.4637 735,-378.4637 839,-378.4637 839,-348.4637 735,-348.4637"/>
<text text-anchor="start" x="743" y="-366.4637" font-family="Helvetica,sans-Serif" font-size="10.00" fill="#000000">std::basic_string&lt;</text>
<text text-anchor="middle" x="787" y="-355.4637" font-family="Helvetica,sans-Serif" font-size="10.00" fill="#000000"> char &gt;</text>
</a>
</g>
</g>
<!-- Node9&#45;&gt;Node8 -->
<g id="edge9" class="edge">
<title>Node9&#45;&gt;Node8</title>
<path fill="none" stroke="#191970" d="M849.2464,-364.0003C923.4522,-364.64 1044.6649,-365.6849 1102.4174,-366.1828"/>
<polygon fill="#191970" stroke="#191970" points="849.129,-360.4992 839.0991,-363.9128 849.0685,-367.499 849.129,-360.4992"/>
</g>
<!-- Node10&#45;&gt;Node7 -->
<g id="edge10" class="edge">
<title>Node10&#45;&gt;Node7</title>
<path fill="none" stroke="#9a32cd" stroke-dasharray="5,2" d="M1203.2555,-485.8347C1248.0944,-481.4762 1308.0392,-475.6422 1361,-470.4637 1376.9451,-468.9046 1394.1666,-467.2156 1410.2108,-465.6401"/>
<polygon fill="#9a32cd" stroke="#9a32cd" points="1202.6773,-482.3744 1193.0628,-486.8254 1203.3545,-489.3415 1202.6773,-482.3744"/>
<text text-anchor="middle" x="1292.5" y="-487.4637" font-family="Helvetica,sans-Serif" font-size="10.00" fill="#000000"> m_ReferencedObjects</text>
</g>
<!-- Node11 -->
<g id="node11" class="node">
<title>Node11</title>
<g id="a_node11"><a xlink:title="STL class.">
<polygon fill="#ffffff" stroke="#bfbfbf" points="746,-502.9637 746,-521.9637 828,-521.9637 828,-502.9637 746,-502.9637"/>
<text text-anchor="middle" x="787" y="-509.9637" font-family="Helvetica,sans-Serif" font-size="10.00" fill="#000000">std::set&lt; K &gt;</text>
</a>
</g>
</g>
<!-- Node11&#45;&gt;Node10 -->
<g id="edge12" class="edge">
<title>Node11&#45;&gt;Node10</title>
<path fill="none" stroke="#ffa500" stroke-dasharray="5,2" d="M838.4997,-509.5039C902.2167,-505.842 1010.4124,-499.6239 1076.9944,-495.7973"/>
<polygon fill="#ffa500" stroke="#ffa500" points="838.0694,-506.0228 828.2867,-510.0909 838.4711,-513.0112 838.0694,-506.0228"/>
<text text-anchor="middle" x="965.5" y="-510.4637" font-family="Helvetica,sans-Serif" font-size="10.00" fill="#000000"> &lt; itk::simple::ProcessObject * &gt;</text>
</g>
<!-- Node12 -->
<g id="node12" class="node">
<title>Node12</title>
<g id="a_node12"><a xlink:title=" ">
<polygon fill="#ffffff" stroke="#bfbfbf" points="408.5,-502.9637 408.5,-521.9637 437.5,-521.9637 437.5,-502.9637 408.5,-502.9637"/>
<text text-anchor="middle" x="423" y="-509.9637" font-family="Helvetica,sans-Serif" font-size="10.00" fill="#000000">K</text>
</a>
</g>
</g>
<!-- Node12&#45;&gt;Node11 -->
<g id="edge13" class="edge">
<title>Node12&#45;&gt;Node11</title>
<path fill="none" stroke="#9a32cd" stroke-dasharray="5,2" d="M448.0676,-512.4637C509.8336,-512.4637 669.8261,-512.4637 745.7923,-512.4637"/>
<polygon fill="#9a32cd" stroke="#9a32cd" points="447.7201,-508.9638 437.7201,-512.4637 447.72,-515.9638 447.7201,-508.9638"/>
<text text-anchor="middle" x="608" y="-515.4637" font-family="Helvetica,sans-Serif" font-size="10.00" fill="#000000"> keys</text>
</g>
<!-- Node13 -->
<g id="node13" class="node">
<title>Node13</title>
<g id="a_node13"><a xlink:title="STL class.">
<polygon fill="#ffffff" stroke="#bfbfbf" points="1252,-22.9637 1252,-41.9637 1333,-41.9637 1333,-22.9637 1252,-22.9637"/>
<text text-anchor="middle" x="1292.5" y="-29.9637" font-family="Helvetica,sans-Serif" font-size="10.00" fill="#000000">std::list&lt; T &gt;</text>
</a>
</g>
</g>
<!-- Node13&#45;&gt;Node5 -->
<g id="edge14" class="edge">
<title>Node13&#45;&gt;Node5</title>
<path fill="none" stroke="#ffa500" stroke-dasharray="5,2" d="M1342.2909,-20.8442C1425.4031,-3.9172 1596.1775,20.2261 1727,-31.4637 1926.8652,-110.4331 2045.6641,-377.7408 2072.6067,-444.3391"/>
<polygon fill="#ffa500" stroke="#ffa500" points="1341.4314,-17.4481 1332.3581,-22.9185 1342.8625,-24.3003 1341.4314,-17.4481"/>
<text text-anchor="start" x="1585" y="-45.4637" font-family="Helvetica,sans-Serif" font-size="10.00" fill="#000000"> &lt; itk::simple::ProcessObject</text>
<text text-anchor="middle" x="1656" y="-34.4637" font-family="Helvetica,sans-Serif" font-size="10.00" fill="#000000">::EventCommand &gt;</text>
</g>
<!-- Node14 -->
<g id="node14" class="node">
<title>Node14</title>
<g id="a_node14"><a xlink:title=" ">
<polygon fill="#ffffff" stroke="#bfbfbf" points="772.5,-117.9637 772.5,-136.9637 801.5,-136.9637 801.5,-117.9637 772.5,-117.9637"/>
<text text-anchor="middle" x="787" y="-124.9637" font-family="Helvetica,sans-Serif" font-size="10.00" fill="#000000">T</text>
</a>
</g>
</g>
<!-- Node14&#45;&gt;Node13 -->
<g id="edge15" class="edge">
<title>Node14&#45;&gt;Node13</title>
<path fill="none" stroke="#9a32cd" stroke-dasharray="5,2" d="M811.8254,-122.7982C892.972,-107.5481 1150.9259,-59.0701 1251.6511,-40.1405"/>
<polygon fill="#9a32cd" stroke="#9a32cd" points="810.765,-119.4361 801.5835,-124.723 812.0579,-126.3157 810.765,-119.4361"/>
<text text-anchor="middle" x="965.5" y="-112.4637" font-family="Helvetica,sans-Serif" font-size="10.00" fill="#000000"> elements</text>
</g>
<!-- Node21 -->
<g id="node21" class="node">
<title>Node21</title>
<g id="a_node21"><a xlink:title="STL class.">
<polygon fill="#ffffff" stroke="#bfbfbf" points="1076,-205.9637 1076,-224.9637 1194,-224.9637 1194,-205.9637 1076,-205.9637"/>
<text text-anchor="middle" x="1135" y="-212.9637" font-family="Helvetica,sans-Serif" font-size="10.00" fill="#000000">std::unique_ptr&lt; T &gt;</text>
</a>
</g>
</g>
<!-- Node14&#45;&gt;Node21 -->
<g id="edge25" class="edge">
<title>Node14&#45;&gt;Node21</title>
<path fill="none" stroke="#9a32cd" stroke-dasharray="5,2" d="M811.5639,-133.6752C871.4929,-148.8297 1025.5261,-187.7806 1097.231,-205.9129"/>
<polygon fill="#9a32cd" stroke="#9a32cd" points="812.063,-130.1913 801.5101,-131.1329 810.3468,-136.9777 812.063,-130.1913"/>
<text text-anchor="middle" x="965.5" y="-195.4637" font-family="Helvetica,sans-Serif" font-size="10.00" fill="#000000"> ptr</text>
</g>
<!-- Node24 -->
<g id="node24" class="node">
<title>Node24</title>
<g id="a_node24"><a xlink:title="STL class.">
<polygon fill="#ffffff" stroke="#bfbfbf" points="1086.5,-117.9637 1086.5,-136.9637 1183.5,-136.9637 1183.5,-117.9637 1086.5,-117.9637"/>
<text text-anchor="middle" x="1135" y="-124.9637" font-family="Helvetica,sans-Serif" font-size="10.00" fill="#000000">std::vector&lt; T &gt;</text>
</a>
</g>
</g>
<!-- Node14&#45;&gt;Node24 -->
<g id="edge30" class="edge">
<title>Node14&#45;&gt;Node24</title>
<path fill="none" stroke="#9a32cd" stroke-dasharray="5,2" d="M811.7629,-127.4637C868.9036,-127.4637 1010.8298,-127.4637 1086.1862,-127.4637"/>
<polygon fill="#9a32cd" stroke="#9a32cd" points="811.5101,-123.9638 801.5101,-127.4637 811.51,-130.9638 811.5101,-123.9638"/>
<text text-anchor="middle" x="965.5" y="-130.4637" font-family="Helvetica,sans-Serif" font-size="10.00" fill="#000000"> elements</text>
</g>
<!-- Node15 -->
<g id="node15" class="node">
<title>Node15</title>
<g id="a_node15"><a xlink:title=" ">
<polygon fill="#ffffff" stroke="#bfbfbf" points="1379,-263.9637 1379,-304.9637 1567,-304.9637 1567,-263.9637 1379,-263.9637"/>
<text text-anchor="start" x="1387" y="-292.9637" font-family="Helvetica,sans-Serif" font-size="10.00" fill="#000000">std::unique_ptr&lt; itk</text>
<text text-anchor="start" x="1387" y="-281.9637" font-family="Helvetica,sans-Serif" font-size="10.00" fill="#000000">::simple::detail::MemberFunction</text>
<text text-anchor="middle" x="1473" y="-270.9637" font-family="Helvetica,sans-Serif" font-size="10.00" fill="#000000">Factory&lt; MemberFunctionType &gt; &gt;</text>
</a>
</g>
</g>
<!-- Node15&#45;&gt;Node1 -->
<g id="edge17" class="edge">
<title>Node15&#45;&gt;Node1</title>
<path fill="none" stroke="#9a32cd" stroke-dasharray="5,2" d="M1577.0203,-269.1839C1623.2001,-261.6975 1678.0624,-251.8376 1727,-240.4637 1749.3829,-235.2615 1774.2852,-227.9071 1793.0477,-222.041"/>
<polygon fill="#9a32cd" stroke="#9a32cd" points="1576.3194,-265.7515 1567.001,-270.7931 1577.4295,-272.6629 1576.3194,-265.7515"/>
<text text-anchor="middle" x="1656" y="-270.4637" font-family="Helvetica,sans-Serif" font-size="10.00" fill="#000000"> m_MemberFactory</text>
</g>
<!-- Node16 -->
<g id="node16" class="node">
<title>Node16</title>
<g id="a_node16"><a xlink:href="classitk_1_1simple_1_1detail_1_1MemberFunctionFactory.html" target="_top" xlink:title=" ">
<polygon fill="#ffffff" stroke="#000000" points="1064,-284.9637 1064,-325.9637 1206,-325.9637 1206,-284.9637 1064,-284.9637"/>
<text text-anchor="start" x="1072" y="-313.9637" font-family="Helvetica,sans-Serif" font-size="10.00" fill="#000000">itk::simple::detail</text>
<text text-anchor="start" x="1072" y="-302.9637" font-family="Helvetica,sans-Serif" font-size="10.00" fill="#000000">::MemberFunctionFactory</text>
<text text-anchor="middle" x="1135" y="-291.9637" font-family="Helvetica,sans-Serif" font-size="10.00" fill="#000000">&lt; MemberFunctionType &gt;</text>
</a>
</g>
</g>
<!-- Node16&#45;&gt;Node15 -->
<g id="edge18" class="edge">
<title>Node16&#45;&gt;Node15</title>
<path fill="none" stroke="#9a32cd" stroke-dasharray="5,2" d="M1216.4843,-300.401C1265.3614,-297.3643 1327.7265,-293.4895 1378.7244,-290.321"/>
<polygon fill="#9a32cd" stroke="#9a32cd" points="1216.0318,-296.9223 1206.2681,-301.0358 1216.4659,-303.9088 1216.0318,-296.9223"/>
<text text-anchor="middle" x="1292.5" y="-303.4637" font-family="Helvetica,sans-Serif" font-size="10.00" fill="#000000"> ptr</text>
</g>
<!-- Node17 -->
<g id="node17" class="node">
<title>Node17</title>
<g id="a_node17"><a xlink:href="classitk_1_1simple_1_1detail_1_1MemberFunctionFactoryBase.html" target="_top" xlink:title=" ">
<polygon fill="#ffffff" stroke="#000000" points="527,-229.4637 527,-281.4637 689,-281.4637 689,-229.4637 527,-229.4637"/>
<text text-anchor="start" x="535" y="-269.4637" font-family="Helvetica,sans-Serif" font-size="10.00" fill="#000000">itk::simple::detail</text>
<text text-anchor="start" x="535" y="-258.4637" font-family="Helvetica,sans-Serif" font-size="10.00" fill="#000000">::MemberFunctionFactoryBase</text>
<text text-anchor="start" x="535" y="-247.4637" font-family="Helvetica,sans-Serif" font-size="10.00" fill="#000000">&lt; MemberFunctionType, std</text>
<text text-anchor="middle" x="608" y="-236.4637" font-family="Helvetica,sans-Serif" font-size="10.00" fill="#000000">::pair&lt; unsigned int, int &gt; &gt;</text>
</a>
</g>
</g>
<!-- Node17&#45;&gt;Node16 -->
<g id="edge19" class="edge">
<title>Node17&#45;&gt;Node16</title>
<path fill="none" stroke="#006400" d="M699.1829,-262.7752C748.8246,-266.865 811.3095,-272.1897 867,-277.4637 933.8318,-283.7927 1009.9479,-291.8242 1063.9403,-297.661"/>
<polygon fill="#006400" stroke="#006400" points="699.3653,-259.2785 689.1123,-261.9479 698.7921,-266.255 699.3653,-259.2785"/>
</g>
<!-- Node18 -->
<g id="node18" class="node">
<title>Node18</title>
<g id="a_node18"><a xlink:href="classitk_1_1simple_1_1detail_1_1MemberFunctionFactoryBase.html" target="_top" xlink:title="A base class for the MemberFunctionFactory.">
<polygon fill="#ffffff" stroke="#000000" points="0,-265.4637 0,-295.4637 162,-295.4637 162,-265.4637 0,-265.4637"/>
<text text-anchor="start" x="8" y="-283.4637" font-family="Helvetica,sans-Serif" font-size="10.00" fill="#000000">itk::simple::detail</text>
<text text-anchor="middle" x="81" y="-272.4637" font-family="Helvetica,sans-Serif" font-size="10.00" fill="#000000">::MemberFunctionFactoryBase</text>
</a>
</g>
</g>
<!-- Node18&#45;&gt;Node17 -->
<g id="edge20" class="edge">
<title>Node18&#45;&gt;Node17</title>
<path fill="none" stroke="#ffa500" stroke-dasharray="5,2" d="M134.2141,-262.5118C148.8779,-258.3648 164.9062,-254.5571 180,-252.4637 299.7886,-235.8497 440.2518,-241.5726 526.6875,-247.9463"/>
<polygon fill="#ffa500" stroke="#ffa500" points="132.9175,-259.2446 124.3086,-265.4201 134.8896,-265.9612 132.9175,-259.2446"/>
<text text-anchor="start" x="189" y="-277.4637" font-family="Helvetica,sans-Serif" font-size="10.00" fill="#000000"> &lt; MemberFunctionType,</text>
<text text-anchor="start" x="189" y="-266.4637" font-family="Helvetica,sans-Serif" font-size="10.00" fill="#000000"> std::pair&lt; unsigned</text>
<text text-anchor="middle" x="249.5" y="-255.4637" font-family="Helvetica,sans-Serif" font-size="10.00" fill="#000000"> int, int &gt; &gt;</text>
</g>
<!-- Node20 -->
<g id="node20" class="node">
<title>Node20</title>
<g id="a_node20"><a xlink:href="classitk_1_1simple_1_1detail_1_1MemberFunctionFactoryBase.html" target="_top" xlink:title=" ">
<polygon fill="#ffffff" stroke="#000000" points="337,-282.4637 337,-334.4637 509,-334.4637 509,-282.4637 337,-282.4637"/>
<text text-anchor="start" x="345" y="-322.4637" font-family="Helvetica,sans-Serif" font-size="10.00" fill="#000000">itk::simple::detail</text>
<text text-anchor="start" x="345" y="-311.4637" font-family="Helvetica,sans-Serif" font-size="10.00" fill="#000000">::MemberFunctionFactoryBase</text>
<text text-anchor="start" x="345" y="-300.4637" font-family="Helvetica,sans-Serif" font-size="10.00" fill="#000000">&lt; TMemberFunctionPointer,</text>
<text text-anchor="middle" x="423" y="-289.4637" font-family="Helvetica,sans-Serif" font-size="10.00" fill="#000000"> std::pair&lt; unsigned int, int &gt; &gt;</text>
</a>
</g>
</g>
<!-- Node18&#45;&gt;Node20 -->
<g id="edge23" class="edge">
<title>Node18&#45;&gt;Node20</title>
<path fill="none" stroke="#ffa500" stroke-dasharray="5,2" d="M172.0982,-287.922C223.1995,-292.1057 286.5818,-297.2949 336.856,-301.4109"/>
<polygon fill="#ffa500" stroke="#ffa500" points="172.3015,-284.427 162.0492,-287.0993 171.7303,-291.4037 172.3015,-284.427"/>
<text text-anchor="start" x="180" y="-324.4637" font-family="Helvetica,sans-Serif" font-size="10.00" fill="#000000"> &lt; TMemberFunctionPointer,</text>
<text text-anchor="start" x="180" y="-313.4637" font-family="Helvetica,sans-Serif" font-size="10.00" fill="#000000"> std::pair&lt; unsigned int,</text>
<text text-anchor="middle" x="249.5" y="-302.4637" font-family="Helvetica,sans-Serif" font-size="10.00" fill="#000000"> int &gt; &gt;</text>
</g>
<!-- Node19 -->
<g id="node19" class="node">
<title>Node19</title>
<g id="a_node19"><a xlink:href="classitk_1_1simple_1_1detail_1_1MemberFunctionFactory.html" target="_top" xlink:title="A class used to instantiate and generate function object to templated member functions.">
<polygon fill="#ffffff" stroke="#000000" points="707,-286.9637 707,-327.9637 867,-327.9637 867,-286.9637 707,-286.9637"/>
<text text-anchor="start" x="715" y="-315.9637" font-family="Helvetica,sans-Serif" font-size="10.00" fill="#000000">itk::simple::detail</text>
<text text-anchor="start" x="715" y="-304.9637" font-family="Helvetica,sans-Serif" font-size="10.00" fill="#000000">::MemberFunctionFactory</text>
<text text-anchor="middle" x="787" y="-293.9637" font-family="Helvetica,sans-Serif" font-size="10.00" fill="#000000">&lt; TMemberFunctionPointer &gt;</text>
</a>
</g>
</g>
<!-- Node19&#45;&gt;Node16 -->
<g id="edge21" class="edge">
<title>Node19&#45;&gt;Node16</title>
<path fill="none" stroke="#ffa500" stroke-dasharray="5,2" d="M877.5632,-306.9432C935.7015,-306.6091 1010.122,-306.1814 1063.9803,-305.8718"/>
<polygon fill="#ffa500" stroke="#ffa500" points="877.2549,-303.4448 867.2752,-307.0023 877.2952,-310.4447 877.2549,-303.4448"/>
<text text-anchor="middle" x="965.5" y="-310.4637" font-family="Helvetica,sans-Serif" font-size="10.00" fill="#000000"> &lt; MemberFunctionType &gt;</text>
</g>
<!-- Node20&#45;&gt;Node19 -->
<g id="edge22" class="edge">
<title>Node20&#45;&gt;Node19</title>
<path fill="none" stroke="#006400" d="M519.623,-308.1982C578.0927,-308.0376 651.7628,-307.8352 706.9603,-307.6836"/>
<polygon fill="#006400" stroke="#006400" points="519.2532,-304.6991 509.2629,-308.2267 519.2725,-311.6991 519.2532,-304.6991"/>
</g>
<!-- Node21&#45;&gt;Node15 -->
<g id="edge24" class="edge">
<title>Node21&#45;&gt;Node15</title>
<path fill="none" stroke="#ffa500" stroke-dasharray="5,2" d="M1204.1726,-226.2671C1249.0503,-233.6302 1308.6952,-244.0815 1361,-255.4637 1372.6777,-258.0049 1384.9773,-260.9314 1396.9789,-263.9268"/>
<polygon fill="#ffa500" stroke="#ffa500" points="1204.6861,-222.8047 1194.2533,-224.6504 1203.56,-229.7135 1204.6861,-222.8047"/>
<text text-anchor="start" x="1224" y="-280.4637" font-family="Helvetica,sans-Serif" font-size="10.00" fill="#000000"> &lt; itk::simple::detail</text>
<text text-anchor="start" x="1224" y="-269.4637" font-family="Helvetica,sans-Serif" font-size="10.00" fill="#000000">::MemberFunctionFactory</text>
<text text-anchor="middle" x="1292.5" y="-258.4637" font-family="Helvetica,sans-Serif" font-size="10.00" fill="#000000">&lt; MemberFunctionType &gt; &gt;</text>
</g>
<!-- Node22 -->
<g id="node22" class="node">
<title>Node22</title>
<g id="a_node22"><a xlink:title=" ">
<polygon fill="#ffffff" stroke="#bfbfbf" points="1399,-214.4637 1399,-244.4637 1547,-244.4637 1547,-214.4637 1399,-214.4637"/>
<text text-anchor="start" x="1407" y="-232.4637" font-family="Helvetica,sans-Serif" font-size="10.00" fill="#000000">std::unique_ptr&lt; MetaData</text>
<text text-anchor="middle" x="1473" y="-221.4637" font-family="Helvetica,sans-Serif" font-size="10.00" fill="#000000">Dictionary &gt;</text>
</a>
</g>
</g>
<!-- Node21&#45;&gt;Node22 -->
<g id="edge27" class="edge">
<title>Node21&#45;&gt;Node22</title>
<path fill="none" stroke="#ffa500" stroke-dasharray="5,2" d="M1204.2447,-213.7816C1249.0056,-213.1852 1308.4951,-213.3101 1361,-216.4637 1373.2124,-217.1972 1386.1374,-218.3474 1398.6992,-219.6671"/>
<polygon fill="#ffa500" stroke="#ffa500" points="1204.01,-210.2846 1194.0632,-213.933 1204.1141,-217.2838 1204.01,-210.2846"/>
<text text-anchor="middle" x="1292.5" y="-219.4637" font-family="Helvetica,sans-Serif" font-size="10.00" fill="#000000"> &lt; MetaDataDictionary &gt;</text>
</g>
<!-- Node22&#45;&gt;Node1 -->
<g id="edge26" class="edge">
<title>Node22&#45;&gt;Node1</title>
<path fill="none" stroke="#9a32cd" stroke-dasharray="5,2" d="M1557.2194,-226.2278C1606.6813,-224.2247 1670.404,-221.4668 1727,-218.4637 1732.8062,-218.1556 1738.8099,-217.8196 1744.8485,-217.4691"/>
<polygon fill="#9a32cd" stroke="#9a32cd" points="1557.0578,-222.7314 1547.2067,-226.6309 1557.3394,-229.7257 1557.0578,-222.7314"/>
<text text-anchor="middle" x="1656" y="-228.4637" font-family="Helvetica,sans-Serif" font-size="10.00" fill="#000000"> m_MetaDataDictionary</text>
</g>
<!-- Node23 -->
<g id="node23" class="node">
<title>Node23</title>
<g id="a_node23"><a xlink:title=" ">
<polygon fill="#ffffff" stroke="#bfbfbf" points="1407.5,-137.9637 1407.5,-156.9637 1538.5,-156.9637 1538.5,-137.9637 1407.5,-137.9637"/>
<text text-anchor="middle" x="1473" y="-144.9637" font-family="Helvetica,sans-Serif" font-size="10.00" fill="#000000">std::vector&lt; uint64_t &gt;</text>
</a>
</g>
</g>
<!-- Node23&#45;&gt;Node1 -->
<g id="edge28" class="edge">
<title>Node23&#45;&gt;Node1</title>
<path fill="none" stroke="#9a32cd" stroke-dasharray="5,2" d="M1548.7635,-142.6385C1600.0191,-141.4718 1668.7322,-144.0314 1727,-160.4637 1758.7969,-169.4308 1791.7487,-190.4378 1809.4177,-202.8336"/>
<polygon fill="#9a32cd" stroke="#9a32cd" points="1548.6516,-139.1401 1538.7534,-142.9185 1548.8474,-146.1374 1548.6516,-139.1401"/>
<text text-anchor="middle" x="1656" y="-163.4637" font-family="Helvetica,sans-Serif" font-size="10.00" fill="#000000"> m_Size</text>
</g>
<!-- Node24&#45;&gt;Node23 -->
<g id="edge29" class="edge">
<title>Node24&#45;&gt;Node23</title>
<path fill="none" stroke="#ffa500" stroke-dasharray="5,2" d="M1193.7949,-130.9427C1253.4051,-134.4699 1345.4516,-139.9164 1407.3965,-143.5818"/>
<polygon fill="#ffa500" stroke="#ffa500" points="1193.9764,-127.4474 1183.7871,-130.3505 1193.5629,-134.4351 1193.9764,-127.4474"/>
<text text-anchor="middle" x="1292.5" y="-143.4637" font-family="Helvetica,sans-Serif" font-size="10.00" fill="#000000"> &lt; uint64_t &gt;</text>
</g>
<!-- Node25 -->
<g id="node25" class="node">
<title>Node25</title>
<g id="a_node25"><a xlink:title=" ">
<polygon fill="#ffffff" stroke="#bfbfbf" points="1421,-99.9637 1421,-118.9637 1525,-118.9637 1525,-99.9637 1421,-99.9637"/>
<text text-anchor="middle" x="1473" y="-106.9637" font-family="Helvetica,sans-Serif" font-size="10.00" fill="#000000">std::vector&lt; int &gt;</text>
</a>
</g>
</g>
<!-- Node24&#45;&gt;Node25 -->
<g id="edge33" class="edge">
<title>Node24&#45;&gt;Node25</title>
<path fill="none" stroke="#ffa500" stroke-dasharray="5,2" d="M1193.3584,-116.3017C1203.5377,-114.735 1214.0508,-113.3566 1224,-112.4637 1291.8183,-106.3771 1370.4381,-106.6443 1420.8984,-107.751"/>
<polygon fill="#ffa500" stroke="#ffa500" points="1192.6388,-112.8724 1183.3237,-117.9202 1193.7534,-119.7831 1192.6388,-112.8724"/>
<text text-anchor="middle" x="1292.5" y="-115.4637" font-family="Helvetica,sans-Serif" font-size="10.00" fill="#000000"> &lt; int &gt;</text>
</g>
<!-- Node26 -->
<g id="node26" class="node">
<title>Node26</title>
<g id="a_node26"><a xlink:title=" ">
<polygon fill="#ffffff" stroke="#bfbfbf" points="1411,-50.4637 1411,-80.4637 1535,-80.4637 1535,-50.4637 1411,-50.4637"/>
<text text-anchor="start" x="1419" y="-68.4637" font-family="Helvetica,sans-Serif" font-size="10.00" fill="#000000">std::vector&lt; unsigned</text>
<text text-anchor="middle" x="1473" y="-57.4637" font-family="Helvetica,sans-Serif" font-size="10.00" fill="#000000"> int &gt;</text>
</a>
</g>
</g>
<!-- Node24&#45;&gt;Node26 -->
<g id="edge35" class="edge">
<title>Node24&#45;&gt;Node26</title>
<path fill="none" stroke="#ffa500" stroke-dasharray="5,2" d="M1164.3992,-113.6087C1181.4396,-106.1652 1203.5149,-97.5059 1224,-92.4637 1286.489,-77.0823 1359.948,-70.4615 1410.8073,-67.6127"/>
<polygon fill="#ffa500" stroke="#ffa500" points="1162.697,-110.5359 1154.9979,-117.8144 1165.5555,-116.9257 1162.697,-110.5359"/>
<text text-anchor="middle" x="1292.5" y="-95.4637" font-family="Helvetica,sans-Serif" font-size="10.00" fill="#000000"> &lt; unsigned int &gt;</text>
</g>
<!-- Node27 -->
<g id="node27" class="node">
<title>Node27</title>
<g id="a_node27"><a xlink:title=" ">
<polygon fill="#ffffff" stroke="#bfbfbf" points="1411,-175.9637 1411,-194.9637 1535,-194.9637 1535,-175.9637 1411,-175.9637"/>
<text text-anchor="middle" x="1473" y="-182.9637" font-family="Helvetica,sans-Serif" font-size="10.00" fill="#000000">std::vector&lt; double &gt;</text>
</a>
</g>
</g>
<!-- Node24&#45;&gt;Node27 -->
<g id="edge37" class="edge">
<title>Node24&#45;&gt;Node27</title>
<path fill="none" stroke="#ffa500" stroke-dasharray="5,2" d="M1170.6982,-140.3559C1186.7989,-145.7375 1206.1668,-151.6187 1224,-155.4637 1286.8879,-169.0226 1360.1265,-176.9235 1410.82,-181.1809"/>
<polygon fill="#ffa500" stroke="#ffa500" points="1171.733,-137.0109 1161.1385,-137.0924 1169.4714,-143.6355 1171.733,-137.0109"/>
<text text-anchor="middle" x="1292.5" y="-179.4637" font-family="Helvetica,sans-Serif" font-size="10.00" fill="#000000"> &lt; double &gt;</text>
</g>
<!-- Node25&#45;&gt;Node1 -->
<g id="edge32" class="edge">
<title>Node25&#45;&gt;Node1</title>
<path fill="none" stroke="#9a32cd" stroke-dasharray="5,2" d="M1535.6342,-103.3396C1588.6808,-100.636 1665.6639,-102.6727 1727,-128.4637 1766.2845,-144.9822 1800.6151,-184.3374 1815.1331,-202.7071"/>
<polygon fill="#9a32cd" stroke="#9a32cd" points="1535.1355,-99.8626 1525.3558,-103.9379 1535.5423,-106.8508 1535.1355,-99.8626"/>
<text text-anchor="middle" x="1656" y="-131.4637" font-family="Helvetica,sans-Serif" font-size="10.00" fill="#000000"> m_ExtractIndex</text>
</g>
<!-- Node26&#45;&gt;Node1 -->
<g id="edge34" class="edge">
<title>Node26&#45;&gt;Node1</title>
<path fill="none" stroke="#9a32cd" stroke-dasharray="5,2" d="M1545.306,-57.1315C1598.7233,-54.3688 1671.4951,-57.9672 1727,-88.4637 1775.8198,-115.287 1807.6911,-178.6662 1818.4522,-202.8542"/>
<polygon fill="#9a32cd" stroke="#9a32cd" points="1544.9999,-53.6435 1535.2289,-57.7394 1545.4215,-60.6308 1544.9999,-53.6435"/>
<text text-anchor="middle" x="1656" y="-91.4637" font-family="Helvetica,sans-Serif" font-size="10.00" fill="#000000"> m_ExtractSize</text>
</g>
<!-- Node27&#45;&gt;Node1 -->
<g id="edge36" class="edge">
<title>Node27&#45;&gt;Node1</title>
<path fill="none" stroke="#9a32cd" stroke-dasharray="5,2" d="M1545.2907,-177.7497C1596.3735,-173.8965 1666.2779,-171.855 1727,-181.4637 1752.6537,-185.5231 1780.7965,-195.3587 1799.8405,-202.8714"/>
<polygon fill="#9a32cd" stroke="#9a32cd" points="1544.7005,-174.2856 1535.01,-178.5687 1545.2564,-181.2634 1544.7005,-174.2856"/>
<text text-anchor="middle" x="1656" y="-206.4637" font-family="Helvetica,sans-Serif" font-size="10.00" fill="#000000"> m_Spacing</text>
<text text-anchor="middle" x="1656" y="-195.4637" font-family="Helvetica,sans-Serif" font-size="10.00" fill="#000000">m_Origin</text>
<text text-anchor="middle" x="1656" y="-184.4637" font-family="Helvetica,sans-Serif" font-size="10.00" fill="#000000">m_Direction</text>
</g>
</g>
</svg>
        <g id="navigator" transform="translate(0 0)" fill="#404254">
                <rect fill="#f2f5e9" fill-opacity="0.5" stroke="#606060" stroke-width=".5" x="0" y="0" width="60" height="60"/>
                <use id="zoomplus" xlink:href="#zoomPlus" x="17" y="9" onmousedown="handleZoom(evt,'in')"/>
                <use id="zoomminus" xlink:href="#zoomMin" x="42" y="9" onmousedown="handleZoom(evt,'out')"/>
                <use id="reset" xlink:href="#resetDef" x="30" y="36" onmousedown="handleReset()"/>
                <g id="arrowUp" xlink:href="#dirArrow" transform="translate(30 24)" onmousedown="handlePan(0,-1)">
                  <use xlink:href="#rim" fill="#404040">
                        <set attributeName="fill" to="#808080" begin="arrowUp.mouseover" end="arrowUp.mouseout"/>
                  </use>
                  <path fill="none" stroke="white" stroke-width="1.5" d="M0,-3.0v7 M-2.5,-0.5L0,-3.0L2.5,-0.5"/>
                </g>
                <g id="arrowRight" xlink:href="#dirArrow" transform="rotate(90) translate(36 -43)" onmousedown="handlePan(1,0)">
                  <use xlink:href="#rim" fill="#404040">
                        <set attributeName="fill" to="#808080" begin="arrowRight.mouseover" end="arrowRight.mouseout"/>
                  </use>
                  <path fill="none" stroke="white" stroke-width="1.5" d="M0,-3.0v7 M-2.5,-0.5L0,-3.0L2.5,-0.5"/>
                </g>
                <g id="arrowDown" xlink:href="#dirArrow" transform="rotate(180) translate(-30 -48)" onmousedown="handlePan(0,1)">
                  <use xlink:href="#rim" fill="#404040">
                        <set attributeName="fill" to="#808080" begin="arrowDown.mouseover" end="arrowDown.mouseout"/>
                  </use>
                  <path fill="none" stroke="white" stroke-width="1.5" d="M0,-3.0v7 M-2.5,-0.5L0,-3.0L2.5,-0.5"/>
                </g>
                <g id="arrowLeft" xlink:href="#dirArrow" transform="rotate(270) translate(-36 17)" onmousedown="handlePan(-1,0)">
                  <use xlink:href="#rim" fill="#404040">
                        <set attributeName="fill" to="#808080" begin="arrowLeft.mouseover" end="arrowLeft.mouseout"/>
                  </use>
                  <path fill="none" stroke="white" stroke-width="1.5" d="M0,-3.0v7 M-2.5,-0.5L0,-3.0L2.5,-0.5"/>
                </g>
        </g>
        <svg viewBox="0 0 15 15" width="100%" height="30px" preserveAspectRatio="xMaxYMin meet">
         <g id="arrow_out" transform="scale(0.3 0.3)">
          <a xlink:href="classitk_1_1simple_1_1ImageFileReader__coll__graph_org.svg" target="_base">
           <rect id="button" ry="5" rx="5" y="6" x="6" height="38" width="38"
                fill="#f2f5e9" fill-opacity="0.5" stroke="#606060" stroke-width="1.0"/>
           <path id="arrow"
             d="M 11.500037,31.436501 C 11.940474,20.09759 22.043105,11.32322 32.158766,21.979434 L 37.068811,17.246167 C 37.068811,17.246167 37.088388,32 37.088388,32 L 22.160133,31.978069 C 22.160133,31.978069 26.997745,27.140456 26.997745,27.140456 C 18.528582,18.264221 13.291696,25.230495 11.500037,31.436501 z"
             style="fill:#404040;"/>
          </a>
         </g>
        </svg>
</svg>
