<?xml version="1.0" encoding="UTF-8" standalone="no"?>
<!DOCTYPE svg PUBLIC "-//W3C//DTD SVG 1.1//EN"
 "http://www.w3.org/Graphics/SVG/1.1/DTD/svg11.dtd">
<!-- Generated by graphviz version 2.40.1 (20161225.0304)
 -->
<!-- Title: Explicit Pages: 1 -->
<svg width="182pt" height="159pt"
 viewBox="0.00 0.00 182.00 159.00" xmlns="http://www.w3.org/2000/svg" xmlns:xlink="http://www.w3.org/1999/xlink">
<g id="graph0" class="graph" transform="scale(1 1) rotate(0) translate(4 155)">
<title>Explicit</title>
<polygon fill="#ffffff" stroke="transparent" points="-4,4 -4,-155 178,-155 178,4 -4,4"/>
<g id="clust1" class="cluster">
<title>clusterdir_b9cb50edb61d9a37345e1397b3ccbbdc</title>
<g id="a_clust1"><a xlink:href="dir_b9cb50edb61d9a37345e1397b3ccbbdc.html" target="_top" xlink:title="Code">
<polygon fill="#ddddee" stroke="#000000" points="8,-56 8,-143 166,-143 166,-56 8,-56"/>
<text text-anchor="middle" x="87" y="-131" font-family="Helvetica,sans-Serif" font-size="10.00" fill="#000000">Code</text>
</a>
</g>
</g>
<g id="clust2" class="cluster">
<title>clusterdir_2c0aae0932349bdc522a08f3cf356d36</title>
<g id="a_clust2"><a xlink:href="dir_2c0aae0932349bdc522a08f3cf356d36.html" target="_top">
<polygon fill="#eeeeff" stroke="#000000" points="16,-64 16,-116 158,-116 158,-64 16,-64"/>
</a>
</g>
</g>
<!-- dir_2c0aae0932349bdc522a08f3cf356d36 -->
<g id="node1" class="node">
<title>dir_2c0aae0932349bdc522a08f3cf356d36</title>
<text text-anchor="middle" x="123" y="-87.5" font-family="Helvetica,sans-Serif" font-size="10.00" fill="#000000">Explicit</text>
</g>
<!-- dir_8b2600b2999bc417f92392a7b8f3a3eb -->
<g id="node2" class="node">
<title>dir_8b2600b2999bc417f92392a7b8f3a3eb</title>
<g id="a_node2"><a xlink:href="dir_8b2600b2999bc417f92392a7b8f3a3eb.html" target="_top" xlink:title="include">
<polygon fill="#ffffff" stroke="#000000" points="78,-108 24,-108 24,-72 78,-72 78,-108"/>
<text text-anchor="middle" x="51" y="-87.5" font-family="Helvetica,sans-Serif" font-size="10.00" fill="#000000">include</text>
</a>
</g>
</g>
<!-- dir_1ba33b307118a85c0794d13b60d0caea -->
<g id="node3" class="node">
<title>dir_1ba33b307118a85c0794d13b60d0caea</title>
<g id="a_node3"><a xlink:href="dir_1ba33b307118a85c0794d13b60d0caea.html" target="_top" xlink:title="Common">
<polygon fill="#ffffff" stroke="#ff0000" points="81.5,-36 20.5,-36 20.5,0 81.5,0 81.5,-36"/>
<text text-anchor="middle" x="51" y="-15.5" font-family="Helvetica,sans-Serif" font-size="10.00" fill="#000000">Common</text>
</a>
</g>
</g>
<!-- dir_8b2600b2999bc417f92392a7b8f3a3eb&#45;&gt;dir_1ba33b307118a85c0794d13b60d0caea -->
<g id="edge1" class="edge">
<title>dir_8b2600b2999bc417f92392a7b8f3a3eb&#45;&gt;dir_1ba33b307118a85c0794d13b60d0caea</title>
<path fill="none" stroke="#000000" d="M51,-71.8314C51,-64.131 51,-54.9743 51,-46.4166"/>
<polygon fill="#000000" stroke="#000000" points="54.5001,-46.4132 51,-36.4133 47.5001,-46.4133 54.5001,-46.4132"/>
<g id="a_edge1&#45;headlabel"><a xlink:href="dir_000021_000006.html" target="_top" xlink:title="1">
<text text-anchor="middle" x="57.3393" y="-47.5079" font-family="Helvetica,sans-Serif" font-size="10.00" fill="#000000">1</text>
</a>
</g>
</g>
</g>
</svg>
