<?xml version="1.0" encoding="UTF-8" standalone="no"?>
<!DOCTYPE svg PUBLIC "-//W3C//DTD SVG 1.1//EN"
 "http://www.w3.org/Graphics/SVG/1.1/DTD/svg11.dtd">
<!-- Generated by graphviz version 2.40.1 (20161225.0304)
 -->
<!-- Title: CMakeTmp Pages: 1 -->
<svg width="112pt" height="151pt"
 viewBox="0.00 0.00 112.00 151.00" xmlns="http://www.w3.org/2000/svg" xmlns:xlink="http://www.w3.org/1999/xlink">
<g id="graph0" class="graph" transform="scale(1 1) rotate(0) translate(4 147)">
<title>CMakeTmp</title>
<polygon fill="#ffffff" stroke="transparent" points="-4,4 -4,-147 108,-147 108,4 -4,4"/>
<g id="clust1" class="cluster">
<title>clusterdir_b21f75010e215c7b92162b53140844e6</title>
<g id="a_clust1"><a xlink:href="dir_b21f75010e215c7b92162b53140844e6.html" target="_top" xlink:title="BasicFilters">
<polygon fill="#ddddee" stroke="#000000" points="8,-64 8,-135 96,-135 96,-64 8,-64"/>
<text text-anchor="middle" x="52" y="-123" font-family="Helvetica,sans-Serif" font-size="10.00" fill="#000000">BasicFilters</text>
</a>
</g>
</g>
<!-- dir_df2533eed1bb30fcde256245ed712422 -->
<g id="node1" class="node">
<title>dir_df2533eed1bb30fcde256245ed712422</title>
<g id="a_node1"><a xlink:href="dir_df2533eed1bb30fcde256245ed712422.html" target="_top" xlink:title="CMakeTmp">
<polygon fill="#eeeeff" stroke="#000000" points="87.5,-108 16.5,-108 16.5,-72 87.5,-72 87.5,-108"/>
<text text-anchor="middle" x="52" y="-87.5" font-family="Helvetica,sans-Serif" font-size="10.00" fill="#000000">CMakeTmp</text>
</a>
</g>
</g>
<!-- dir_ad7961c28a81bfe14ae4d4060867f6a1 -->
<g id="node2" class="node">
<title>dir_ad7961c28a81bfe14ae4d4060867f6a1</title>
<g id="a_node2"><a xlink:href="dir_ad7961c28a81bfe14ae4d4060867f6a1.html" target="_top" xlink:title="include">
<polygon fill="none" stroke="#000000" points="79,-36 25,-36 25,0 79,0 79,-36"/>
<text text-anchor="middle" x="52" y="-15.5" font-family="Helvetica,sans-Serif" font-size="10.00" fill="#000000">include</text>
</a>
</g>
</g>
<!-- dir_df2533eed1bb30fcde256245ed712422&#45;&gt;dir_ad7961c28a81bfe14ae4d4060867f6a1 -->
<g id="edge1" class="edge">
<title>dir_df2533eed1bb30fcde256245ed712422&#45;&gt;dir_ad7961c28a81bfe14ae4d4060867f6a1</title>
<path fill="none" stroke="#000000" d="M52,-71.8314C52,-64.131 52,-54.9743 52,-46.4166"/>
<polygon fill="#000000" stroke="#000000" points="55.5001,-46.4132 52,-36.4133 48.5001,-46.4133 55.5001,-46.4132"/>
<g id="a_edge1&#45;headlabel"><a xlink:href="dir_000015_000016.html" target="_top" xlink:title="289">
<text text-anchor="middle" x="58.3393" y="-47.5079" font-family="Helvetica,sans-Serif" font-size="10.00" fill="#000000">289</text>
</a>
</g>
</g>
</g>
</svg>
