<?xml version="1.0" encoding="UTF-8" standalone="no"?>
<!DOCTYPE svg PUBLIC "-//W3C//DTD SVG 1.1//EN"
 "http://www.w3.org/Graphics/SVG/1.1/DTD/svg11.dtd">
<!-- Generated by graphviz version 2.40.1 (20161225.0304)
 -->
<!-- Title: BasicFilters Pages: 1 -->
<svg width="218pt" height="231pt"
 viewBox="0.00 0.00 218.00 231.00" xmlns="http://www.w3.org/2000/svg" xmlns:xlink="http://www.w3.org/1999/xlink">
<g id="graph0" class="graph" transform="scale(1 1) rotate(0) translate(4 227)">
<title>BasicFilters</title>
<polygon fill="#ffffff" stroke="transparent" points="-4,4 -4,-227 214,-227 214,4 -4,4"/>
<g id="clust1" class="cluster">
<title>clusterdir_f39368514e927ff3df32776217a2e927</title>
<g id="a_clust1"><a xlink:href="dir_f39368514e927ff3df32776217a2e927.html" target="_top" xlink:title="Code">
<polygon fill="#ddddee" stroke="#000000" points="8,-56 8,-215 202,-215 202,-56 8,-56"/>
<text text-anchor="middle" x="105" y="-203" font-family="Helvetica,sans-Serif" font-size="10.00" fill="#000000">Code</text>
</a>
</g>
</g>
<g id="clust2" class="cluster">
<title>clusterdir_b21f75010e215c7b92162b53140844e6</title>
<g id="a_clust2"><a xlink:href="dir_b21f75010e215c7b92162b53140844e6.html" target="_top">
<polygon fill="#eeeeff" stroke="#000000" points="16,-64 16,-188 194,-188 194,-64 16,-64"/>
</a>
</g>
</g>
<!-- dir_b21f75010e215c7b92162b53140844e6 -->
<g id="node1" class="node">
<title>dir_b21f75010e215c7b92162b53140844e6</title>
<text text-anchor="middle" x="150" y="-159.5" font-family="Helvetica,sans-Serif" font-size="10.00" fill="#000000">BasicFilters</text>
</g>
<!-- dir_df2533eed1bb30fcde256245ed712422 -->
<g id="node2" class="node">
<title>dir_df2533eed1bb30fcde256245ed712422</title>
<g id="a_node2"><a xlink:href="dir_df2533eed1bb30fcde256245ed712422.html" target="_top" xlink:title="CMakeTmp">
<polygon fill="#ffffff" stroke="#000000" points="95.5,-180 24.5,-180 24.5,-144 95.5,-144 95.5,-180"/>
<text text-anchor="middle" x="60" y="-159.5" font-family="Helvetica,sans-Serif" font-size="10.00" fill="#000000">CMakeTmp</text>
</a>
</g>
</g>
<!-- dir_ad7961c28a81bfe14ae4d4060867f6a1 -->
<g id="node3" class="node">
<title>dir_ad7961c28a81bfe14ae4d4060867f6a1</title>
<g id="a_node3"><a xlink:href="dir_ad7961c28a81bfe14ae4d4060867f6a1.html" target="_top" xlink:title="include">
<polygon fill="#ffffff" stroke="#000000" points="87,-108 33,-108 33,-72 87,-72 87,-108"/>
<text text-anchor="middle" x="60" y="-87.5" font-family="Helvetica,sans-Serif" font-size="10.00" fill="#000000">include</text>
</a>
</g>
</g>
<!-- dir_df2533eed1bb30fcde256245ed712422&#45;&gt;dir_ad7961c28a81bfe14ae4d4060867f6a1 -->
<g id="edge1" class="edge">
<title>dir_df2533eed1bb30fcde256245ed712422&#45;&gt;dir_ad7961c28a81bfe14ae4d4060867f6a1</title>
<path fill="none" stroke="#000000" d="M60,-143.8314C60,-136.131 60,-126.9743 60,-118.4166"/>
<polygon fill="#000000" stroke="#000000" points="63.5001,-118.4132 60,-108.4133 56.5001,-118.4133 63.5001,-118.4132"/>
<g id="a_edge1&#45;headlabel"><a xlink:href="dir_000015_000016.html" target="_top" xlink:title="289">
<text text-anchor="middle" x="66.3393" y="-119.5079" font-family="Helvetica,sans-Serif" font-size="10.00" fill="#000000">289</text>
</a>
</g>
</g>
<!-- dir_0195af5fa7804b5c802a7ca910fa092c -->
<g id="node4" class="node">
<title>dir_0195af5fa7804b5c802a7ca910fa092c</title>
<g id="a_node4"><a xlink:href="dir_0195af5fa7804b5c802a7ca910fa092c.html" target="_top" xlink:title="SimpleITK">
<polygon fill="#ffffff" stroke="#ff0000" points="93,-36 27,-36 27,0 93,0 93,-36"/>
<text text-anchor="middle" x="60" y="-15.5" font-family="Helvetica,sans-Serif" font-size="10.00" fill="#000000">SimpleITK</text>
</a>
</g>
</g>
<!-- dir_ad7961c28a81bfe14ae4d4060867f6a1&#45;&gt;dir_0195af5fa7804b5c802a7ca910fa092c -->
<g id="edge2" class="edge">
<title>dir_ad7961c28a81bfe14ae4d4060867f6a1&#45;&gt;dir_0195af5fa7804b5c802a7ca910fa092c</title>
<path fill="none" stroke="#000000" d="M54.0476,-71.8314C53.2972,-64.131 53.0763,-54.9743 53.3849,-46.4166"/>
<polygon fill="#000000" stroke="#000000" points="56.8792,-46.6161 54.024,-36.4133 49.8935,-46.1697 56.8792,-46.6161"/>
<g id="a_edge2&#45;headlabel"><a xlink:href="dir_000016_000002.html" target="_top" xlink:title="591">
<text text-anchor="middle" x="59.4836" y="-47.8844" font-family="Helvetica,sans-Serif" font-size="10.00" fill="#000000">591</text>
</a>
</g>
</g>
<!-- dir_0195af5fa7804b5c802a7ca910fa092c&#45;&gt;dir_ad7961c28a81bfe14ae4d4060867f6a1 -->
<g id="edge3" class="edge">
<title>dir_0195af5fa7804b5c802a7ca910fa092c&#45;&gt;dir_ad7961c28a81bfe14ae4d4060867f6a1</title>
<path fill="none" stroke="#000000" d="M65.976,-36.4133C66.7071,-44.0593 66.9203,-53.1084 66.6155,-61.5726"/>
<polygon fill="#000000" stroke="#000000" points="63.1048,-61.6264 65.9524,-71.8314 70.0902,-62.078 63.1048,-61.6264"/>
<g id="a_edge3&#45;headlabel"><a xlink:href="dir_000002_000016.html" target="_top" xlink:title="13">
<text text-anchor="middle" x="60.5032" y="-55.3562" font-family="Helvetica,sans-Serif" font-size="10.00" fill="#000000">13</text>
</a>
</g>
</g>
</g>
</svg>
