<?xml version="1.0" encoding="UTF-8" standalone="no"?>
<!DOCTYPE svg PUBLIC "-//W3C//DTD SVG 1.1//EN"
 "http://www.w3.org/Graphics/SVG/1.1/DTD/svg11.dtd">
<!-- Generated by graphviz version 2.40.1 (20161225.0304)
 -->
<!-- Title: BasicFilters Pages: 1 -->
<svg width="334pt" height="181pt"
 viewBox="0.00 0.00 333.50 180.74" xmlns="http://www.w3.org/2000/svg" xmlns:xlink="http://www.w3.org/1999/xlink">
<g id="graph0" class="graph" transform="scale(1 1) rotate(0) translate(4 176.7406)">
<title>BasicFilters</title>
<polygon fill="#ffffff" stroke="transparent" points="-4,4 -4,-176.7406 329.5,-176.7406 329.5,4 -4,4"/>
<g id="clust1" class="cluster">
<title>clusterdir_b9cb50edb61d9a37345e1397b3ccbbdc</title>
<g id="a_clust1"><a xlink:href="dir_b9cb50edb61d9a37345e1397b3ccbbdc.html" target="_top" xlink:title="Code">
<polygon fill="#ddddee" stroke="#000000" points="8,-56 8,-143 256,-143 256,-56 8,-56"/>
<text text-anchor="middle" x="132" y="-131" font-family="Helvetica,sans-Serif" font-size="10.00" fill="#000000">Code</text>
</a>
</g>
</g>
<g id="clust2" class="cluster">
<title>clusterdir_dbb0507b3639155bebaec74fe5b3f957</title>
<g id="a_clust2"><a xlink:href="dir_dbb0507b3639155bebaec74fe5b3f957.html" target="_top">
<polygon fill="#eeeeff" stroke="#000000" points="16,-64 16,-116 248,-116 248,-64 16,-64"/>
</a>
</g>
</g>
<!-- dir_dbb0507b3639155bebaec74fe5b3f957 -->
<g id="node1" class="node">
<title>dir_dbb0507b3639155bebaec74fe5b3f957</title>
<text text-anchor="middle" x="204" y="-87.5" font-family="Helvetica,sans-Serif" font-size="10.00" fill="#000000">BasicFilters</text>
</g>
<!-- dir_7d59d9d95655f54e00bb9c93e4ffe47f -->
<g id="node2" class="node">
<title>dir_7d59d9d95655f54e00bb9c93e4ffe47f</title>
<g id="a_node2"><a xlink:href="dir_7d59d9d95655f54e00bb9c93e4ffe47f.html" target="_top" xlink:title="include">
<polygon fill="#ffffff" stroke="#000000" points="150,-108 96,-108 96,-72 150,-72 150,-108"/>
<text text-anchor="middle" x="123" y="-87.5" font-family="Helvetica,sans-Serif" font-size="10.00" fill="#000000">include</text>
</a>
</g>
</g>
<!-- dir_1ba33b307118a85c0794d13b60d0caea -->
<g id="node4" class="node">
<title>dir_1ba33b307118a85c0794d13b60d0caea</title>
<g id="a_node4"><a xlink:href="dir_1ba33b307118a85c0794d13b60d0caea.html" target="_top" xlink:title="Common">
<polygon fill="#ffffff" stroke="#ff0000" points="325.5,-108 264.5,-108 264.5,-72 325.5,-72 325.5,-108"/>
<text text-anchor="middle" x="295" y="-87.5" font-family="Helvetica,sans-Serif" font-size="10.00" fill="#000000">Common</text>
</a>
</g>
</g>
<!-- dir_7d59d9d95655f54e00bb9c93e4ffe47f&#45;&gt;dir_1ba33b307118a85c0794d13b60d0caea -->
<g id="edge6" class="edge">
<title>dir_7d59d9d95655f54e00bb9c93e4ffe47f&#45;&gt;dir_1ba33b307118a85c0794d13b60d0caea</title>
<path fill="none" stroke="#000000" d="M128.7294,-108.0384C135.2342,-125.1355 147.6695,-149.8155 168,-161 197.2055,-177.067 213.2709,-176.0763 243,-161 261.1118,-151.8151 274.4338,-133.0287 283.0574,-117.0868"/>
<polygon fill="#000000" stroke="#000000" points="286.2009,-118.6263 287.5926,-108.1232 279.9549,-115.466 286.2009,-118.6263"/>
<g id="a_edge6&#45;headlabel"><a xlink:href="dir_000005_000006.html" target="_top" xlink:title="22">
<text text-anchor="middle" x="287.1116" y="-120.6155" font-family="Helvetica,sans-Serif" font-size="10.00" fill="#000000">22</text>
</a>
</g>
</g>
<!-- dir_f39368514e927ff3df32776217a2e927 -->
<g id="node5" class="node">
<title>dir_f39368514e927ff3df32776217a2e927</title>
<g id="a_node5"><a xlink:href="dir_f39368514e927ff3df32776217a2e927.html" target="_top" xlink:title="Code">
<polygon fill="#ffffff" stroke="#ff0000" points="322,-36 268,-36 268,0 322,0 322,-36"/>
<text text-anchor="middle" x="295" y="-15.5" font-family="Helvetica,sans-Serif" font-size="10.00" fill="#000000">Code</text>
</a>
</g>
</g>
<!-- dir_7d59d9d95655f54e00bb9c93e4ffe47f&#45;&gt;dir_f39368514e927ff3df32776217a2e927 -->
<g id="edge7" class="edge">
<title>dir_7d59d9d95655f54e00bb9c93e4ffe47f&#45;&gt;dir_f39368514e927ff3df32776217a2e927</title>
<path fill="none" stroke="#000000" d="M130.3366,-71.8719C135.672,-66.1015 142.6664,-60.147 150,-56 183.5519,-37.0271 227.1902,-27.0256 257.9545,-22.1323"/>
<polygon fill="#000000" stroke="#000000" points="258.4827,-25.5923 267.861,-20.663 257.4557,-18.6681 258.4827,-25.5923"/>
<g id="a_edge7&#45;headlabel"><a xlink:href="dir_000005_000008.html" target="_top" xlink:title="11">
<text text-anchor="middle" x="255.3435" y="-26.4281" font-family="Helvetica,sans-Serif" font-size="10.00" fill="#000000">11</text>
</a>
</g>
</g>
<!-- dir_348feb2136d7d59828297595b66d3e24 -->
<g id="node3" class="node">
<title>dir_348feb2136d7d59828297595b66d3e24</title>
<g id="a_node3"><a xlink:href="dir_348feb2136d7d59828297595b66d3e24.html" target="_top" xlink:title="src">
<polygon fill="#ffffff" stroke="#000000" points="78,-108 24,-108 24,-72 78,-72 78,-108"/>
<text text-anchor="middle" x="51" y="-87.5" font-family="Helvetica,sans-Serif" font-size="10.00" fill="#000000">src</text>
</a>
</g>
</g>
<!-- dir_348feb2136d7d59828297595b66d3e24&#45;&gt;dir_1ba33b307118a85c0794d13b60d0caea -->
<g id="edge3" class="edge">
<title>dir_348feb2136d7d59828297595b66d3e24&#45;&gt;dir_1ba33b307118a85c0794d13b60d0caea</title>
<path fill="none" stroke="#000000" d="M56.7294,-108.0384C63.2342,-125.1355 75.6695,-149.8155 96,-161 124.6214,-176.7456 213.8655,-175.7747 243,-161 261.1118,-151.8151 274.4338,-133.0287 283.0574,-117.0868"/>
<polygon fill="#000000" stroke="#000000" points="286.2009,-118.6263 287.5926,-108.1232 279.9549,-115.466 286.2009,-118.6263"/>
<g id="a_edge3&#45;headlabel"><a xlink:href="dir_000019_000006.html" target="_top" xlink:title="1">
<text text-anchor="middle" x="287.1116" y="-120.6155" font-family="Helvetica,sans-Serif" font-size="10.00" fill="#000000">1</text>
</a>
</g>
</g>
<!-- dir_1ba33b307118a85c0794d13b60d0caea&#45;&gt;dir_7d59d9d95655f54e00bb9c93e4ffe47f -->
<g id="edge2" class="edge">
<title>dir_1ba33b307118a85c0794d13b60d0caea&#45;&gt;dir_7d59d9d95655f54e00bb9c93e4ffe47f</title>
<path fill="none" stroke="#000000" d="M287.5926,-108.1232C279.4785,-125.2847 264.6665,-150.0125 243,-161 213.2709,-176.0763 197.2055,-177.067 168,-161 151.1638,-151.7378 139.7421,-133.2206 132.619,-117.4191"/>
<polygon fill="#000000" stroke="#000000" points="135.7928,-115.9352 128.7294,-108.0384 129.3266,-118.6164 135.7928,-115.9352"/>
<g id="a_edge2&#45;headlabel"><a xlink:href="dir_000006_000005.html" target="_top" xlink:title="8">
<text text-anchor="middle" x="139.7923" y="-115.6682" font-family="Helvetica,sans-Serif" font-size="10.00" fill="#000000">8</text>
</a>
</g>
</g>
<!-- dir_1ba33b307118a85c0794d13b60d0caea&#45;&gt;dir_f39368514e927ff3df32776217a2e927 -->
<g id="edge1" class="edge">
<title>dir_1ba33b307118a85c0794d13b60d0caea&#45;&gt;dir_f39368514e927ff3df32776217a2e927</title>
<path fill="none" stroke="#000000" d="M289.0476,-71.8314C288.2972,-64.131 288.0763,-54.9743 288.3849,-46.4166"/>
<polygon fill="#000000" stroke="#000000" points="291.8792,-46.6161 289.024,-36.4133 284.8935,-46.1697 291.8792,-46.6161"/>
<g id="a_edge1&#45;headlabel"><a xlink:href="dir_000006_000008.html" target="_top" xlink:title="6">
<text text-anchor="middle" x="294.4836" y="-47.8844" font-family="Helvetica,sans-Serif" font-size="10.00" fill="#000000">6</text>
</a>
</g>
</g>
<!-- dir_f39368514e927ff3df32776217a2e927&#45;&gt;dir_7d59d9d95655f54e00bb9c93e4ffe47f -->
<g id="edge5" class="edge">
<title>dir_f39368514e927ff3df32776217a2e927&#45;&gt;dir_7d59d9d95655f54e00bb9c93e4ffe47f</title>
<path fill="none" stroke="#000000" d="M267.7436,-22.8912C240.9255,-28.0303 199.9031,-37.9595 168,-56 163.5311,-58.5271 159.1881,-61.7253 155.0413,-65.1441"/>
<polygon fill="#000000" stroke="#000000" points="152.563,-62.6614 147.3268,-71.8719 157.1639,-67.937 152.563,-62.6614"/>
<g id="a_edge5&#45;headlabel"><a xlink:href="dir_000008_000005.html" target="_top" xlink:title="582">
<text text-anchor="middle" x="153.406" y="-55.659" font-family="Helvetica,sans-Serif" font-size="10.00" fill="#000000">582</text>
</a>
</g>
</g>
<!-- dir_f39368514e927ff3df32776217a2e927&#45;&gt;dir_1ba33b307118a85c0794d13b60d0caea -->
<g id="edge4" class="edge">
<title>dir_f39368514e927ff3df32776217a2e927&#45;&gt;dir_1ba33b307118a85c0794d13b60d0caea</title>
<path fill="none" stroke="#000000" d="M300.976,-36.4133C301.7071,-44.0593 301.9203,-53.1084 301.6155,-61.5726"/>
<polygon fill="#000000" stroke="#000000" points="298.1048,-61.6264 300.9524,-71.8314 305.0902,-62.078 298.1048,-61.6264"/>
<g id="a_edge4&#45;headlabel"><a xlink:href="dir_000008_000006.html" target="_top" xlink:title="12">
<text text-anchor="middle" x="295.5032" y="-55.3562" font-family="Helvetica,sans-Serif" font-size="10.00" fill="#000000">12</text>
</a>
</g>
</g>
</g>
</svg>
