<?xml version="1.0" encoding="UTF-8" standalone="no"?>
<!DOCTYPE svg PUBLIC "-//W3C//DTD SVG 1.1//EN"
 "http://www.w3.org/Graphics/SVG/1.1/DTD/svg11.dtd">
<!-- Generated by graphviz version 2.40.1 (20161225.0304)
 -->
<!-- Title: include Pages: 1 -->
<svg width="113pt" height="223pt"
 viewBox="0.00 0.00 112.50 223.00" xmlns="http://www.w3.org/2000/svg" xmlns:xlink="http://www.w3.org/1999/xlink">
<g id="graph0" class="graph" transform="scale(1 1) rotate(0) translate(4 219)">
<title>include</title>
<polygon fill="#ffffff" stroke="transparent" points="-4,4 -4,-219 108.5,-219 108.5,4 -4,4"/>
<g id="clust1" class="cluster">
<title>clusterdir_dbb0507b3639155bebaec74fe5b3f957</title>
<g id="a_clust1"><a xlink:href="dir_dbb0507b3639155bebaec74fe5b3f957.html" target="_top" xlink:title="BasicFilters">
<polygon fill="#ddddee" stroke="#000000" points="24.5,-136 24.5,-207 96.5,-207 96.5,-136 24.5,-136"/>
<text text-anchor="middle" x="60.5" y="-195" font-family="Helvetica,sans-Serif" font-size="10.00" fill="#000000">BasicFilters</text>
</a>
</g>
</g>
<!-- dir_7d59d9d95655f54e00bb9c93e4ffe47f -->
<g id="node1" class="node">
<title>dir_7d59d9d95655f54e00bb9c93e4ffe47f</title>
<g id="a_node1"><a xlink:href="dir_7d59d9d95655f54e00bb9c93e4ffe47f.html" target="_top" xlink:title="include">
<polygon fill="#eeeeff" stroke="#000000" points="87.5,-180 33.5,-180 33.5,-144 87.5,-144 87.5,-180"/>
<text text-anchor="middle" x="60.5" y="-159.5" font-family="Helvetica,sans-Serif" font-size="10.00" fill="#000000">include</text>
</a>
</g>
</g>
<!-- dir_1ba33b307118a85c0794d13b60d0caea -->
<g id="node2" class="node">
<title>dir_1ba33b307118a85c0794d13b60d0caea</title>
<g id="a_node2"><a xlink:href="dir_1ba33b307118a85c0794d13b60d0caea.html" target="_top" xlink:title="Common">
<polygon fill="#ffffff" stroke="#ff0000" points="61,-108 0,-108 0,-72 61,-72 61,-108"/>
<text text-anchor="middle" x="30.5" y="-87.5" font-family="Helvetica,sans-Serif" font-size="10.00" fill="#000000">Common</text>
</a>
</g>
</g>
<!-- dir_7d59d9d95655f54e00bb9c93e4ffe47f&#45;&gt;dir_1ba33b307118a85c0794d13b60d0caea -->
<g id="edge3" class="edge">
<title>dir_7d59d9d95655f54e00bb9c93e4ffe47f&#45;&gt;dir_1ba33b307118a85c0794d13b60d0caea</title>
<path fill="none" stroke="#000000" d="M52.9297,-143.8314C49.6507,-135.9617 45.738,-126.5712 42.1055,-117.8533"/>
<polygon fill="#000000" stroke="#000000" points="45.2492,-116.2979 38.1722,-108.4133 38.7876,-118.9902 45.2492,-116.2979"/>
<g id="a_edge3&#45;headlabel"><a xlink:href="dir_000005_000006.html" target="_top" xlink:title="22">
<text text-anchor="middle" x="49.2525" y="-116.024" font-family="Helvetica,sans-Serif" font-size="10.00" fill="#000000">22</text>
</a>
</g>
</g>
<!-- dir_f39368514e927ff3df32776217a2e927 -->
<g id="node3" class="node">
<title>dir_f39368514e927ff3df32776217a2e927</title>
<g id="a_node3"><a xlink:href="dir_f39368514e927ff3df32776217a2e927.html" target="_top" xlink:title="Code">
<polygon fill="#ffffff" stroke="#ff0000" points="57.5,-36 3.5,-36 3.5,0 57.5,0 57.5,-36"/>
<text text-anchor="middle" x="30.5" y="-15.5" font-family="Helvetica,sans-Serif" font-size="10.00" fill="#000000">Code</text>
</a>
</g>
</g>
<!-- dir_7d59d9d95655f54e00bb9c93e4ffe47f&#45;&gt;dir_f39368514e927ff3df32776217a2e927 -->
<g id="edge4" class="edge">
<title>dir_7d59d9d95655f54e00bb9c93e4ffe47f&#45;&gt;dir_f39368514e927ff3df32776217a2e927</title>
<path fill="none" stroke="#000000" d="M66.8864,-143.9468C72.4322,-125.4362 78.4326,-96.0359 70.5,-72 67.2092,-62.0288 61.2884,-52.3944 54.9936,-44.0924"/>
<polygon fill="#000000" stroke="#000000" points="57.672,-41.8384 48.6576,-36.2714 52.2328,-46.2448 57.672,-41.8384"/>
<g id="a_edge4&#45;headlabel"><a xlink:href="dir_000005_000008.html" target="_top" xlink:title="11">
<text text-anchor="middle" x="62.1408" y="-40.3442" font-family="Helvetica,sans-Serif" font-size="10.00" fill="#000000">11</text>
</a>
</g>
</g>
<!-- dir_1ba33b307118a85c0794d13b60d0caea&#45;&gt;dir_f39368514e927ff3df32776217a2e927 -->
<g id="edge1" class="edge">
<title>dir_1ba33b307118a85c0794d13b60d0caea&#45;&gt;dir_f39368514e927ff3df32776217a2e927</title>
<path fill="none" stroke="#000000" d="M24.5476,-71.8314C23.7972,-64.131 23.5763,-54.9743 23.8849,-46.4166"/>
<polygon fill="#000000" stroke="#000000" points="27.3792,-46.6161 24.524,-36.4133 20.3935,-46.1697 27.3792,-46.6161"/>
<g id="a_edge1&#45;headlabel"><a xlink:href="dir_000006_000008.html" target="_top" xlink:title="6">
<text text-anchor="middle" x="29.9836" y="-47.8844" font-family="Helvetica,sans-Serif" font-size="10.00" fill="#000000">6</text>
</a>
</g>
</g>
<!-- dir_f39368514e927ff3df32776217a2e927&#45;&gt;dir_1ba33b307118a85c0794d13b60d0caea -->
<g id="edge2" class="edge">
<title>dir_f39368514e927ff3df32776217a2e927&#45;&gt;dir_1ba33b307118a85c0794d13b60d0caea</title>
<path fill="none" stroke="#000000" d="M36.476,-36.4133C37.2071,-44.0593 37.4203,-53.1084 37.1155,-61.5726"/>
<polygon fill="#000000" stroke="#000000" points="33.6048,-61.6264 36.4524,-71.8314 40.5902,-62.078 33.6048,-61.6264"/>
<g id="a_edge2&#45;headlabel"><a xlink:href="dir_000008_000006.html" target="_top" xlink:title="13">
<text text-anchor="middle" x="31.0032" y="-55.3562" font-family="Helvetica,sans-Serif" font-size="10.00" fill="#000000">13</text>
</a>
</g>
</g>
</g>
</svg>
