<?xml version="1.0" encoding="UTF-8" standalone="no"?>
<!DOCTYPE svg PUBLIC "-//W3C//DTD SVG 1.1//EN"
 "http://www.w3.org/Graphics/SVG/1.1/DTD/svg11.dtd">
<!-- Generated by graphviz version 2.40.1 (20161225.0304)
 -->
<!-- Title: Common Pages: 1 -->
<svg width="262pt" height="231pt"
 viewBox="0.00 0.00 262.00 231.00" xmlns="http://www.w3.org/2000/svg" xmlns:xlink="http://www.w3.org/1999/xlink">
<g id="graph0" class="graph" transform="scale(1 1) rotate(0) translate(4 227)">
<title>Common</title>
<polygon fill="#ffffff" stroke="transparent" points="-4,4 -4,-227 258,-227 258,4 -4,4"/>
<g id="clust1" class="cluster">
<title>clusterdir_b9cb50edb61d9a37345e1397b3ccbbdc</title>
<g id="a_clust1"><a xlink:href="dir_b9cb50edb61d9a37345e1397b3ccbbdc.html" target="_top" xlink:title="Code">
<polygon fill="#ddddee" stroke="#000000" points="8,-56 8,-215 174,-215 174,-56 8,-56"/>
<text text-anchor="middle" x="91" y="-203" font-family="Helvetica,sans-Serif" font-size="10.00" fill="#000000">Code</text>
</a>
</g>
</g>
<g id="clust2" class="cluster">
<title>clusterdir_1ba33b307118a85c0794d13b60d0caea</title>
<g id="a_clust2"><a xlink:href="dir_1ba33b307118a85c0794d13b60d0caea.html" target="_top">
<polygon fill="#eeeeff" stroke="#000000" points="16,-64 16,-188 166,-188 166,-64 16,-64"/>
</a>
</g>
</g>
<!-- dir_1ba33b307118a85c0794d13b60d0caea -->
<g id="node1" class="node">
<title>dir_1ba33b307118a85c0794d13b60d0caea</title>
<text text-anchor="middle" x="127" y="-159.5" font-family="Helvetica,sans-Serif" font-size="10.00" fill="#000000">Common</text>
</g>
<!-- dir_ab715d7520ac64fdeaa3063399f39ed8 -->
<g id="node2" class="node">
<title>dir_ab715d7520ac64fdeaa3063399f39ed8</title>
<g id="a_node2"><a xlink:href="dir_ab715d7520ac64fdeaa3063399f39ed8.html" target="_top" xlink:title="include">
<polygon fill="#ffffff" stroke="#000000" points="158,-108 104,-108 104,-72 158,-72 158,-108"/>
<text text-anchor="middle" x="131" y="-87.5" font-family="Helvetica,sans-Serif" font-size="10.00" fill="#000000">include</text>
</a>
</g>
</g>
<!-- dir_38d004fcec24276f2c541b703d786171 -->
<g id="node4" class="node">
<title>dir_38d004fcec24276f2c541b703d786171</title>
<g id="a_node4"><a xlink:href="dir_38d004fcec24276f2c541b703d786171.html" target="_top" xlink:title="Registration">
<polygon fill="#ffffff" stroke="#ff0000" points="93.5,-36 18.5,-36 18.5,0 93.5,0 93.5,-36"/>
<text text-anchor="middle" x="56" y="-15.5" font-family="Helvetica,sans-Serif" font-size="10.00" fill="#000000">Registration</text>
</a>
</g>
</g>
<!-- dir_ab715d7520ac64fdeaa3063399f39ed8&#45;&gt;dir_38d004fcec24276f2c541b703d786171 -->
<g id="edge5" class="edge">
<title>dir_ab715d7520ac64fdeaa3063399f39ed8&#45;&gt;dir_38d004fcec24276f2c541b703d786171</title>
<path fill="none" stroke="#000000" d="M106.1219,-71.8314C96.3863,-63.2848 85.4345,-52.9443 76.1932,-43.6198"/>
<polygon fill="#000000" stroke="#000000" points="78.6788,-41.1554 69.2045,-36.4133 73.6537,-46.0287 78.6788,-41.1554"/>
<g id="a_edge5&#45;headlabel"><a xlink:href="dir_000007_000025.html" target="_top" xlink:title="1">
<text text-anchor="middle" x="83.2195" y="-39.2593" font-family="Helvetica,sans-Serif" font-size="10.00" fill="#000000">1</text>
</a>
</g>
</g>
<!-- dir_dbb0507b3639155bebaec74fe5b3f957 -->
<g id="node5" class="node">
<title>dir_dbb0507b3639155bebaec74fe5b3f957</title>
<g id="a_node5"><a xlink:href="dir_dbb0507b3639155bebaec74fe5b3f957.html" target="_top" xlink:title="BasicFilters">
<polygon fill="#ffffff" stroke="#ff0000" points="254,-108 182,-108 182,-72 254,-72 254,-108"/>
<text text-anchor="middle" x="218" y="-87.5" font-family="Helvetica,sans-Serif" font-size="10.00" fill="#000000">BasicFilters</text>
</a>
</g>
</g>
<!-- dir_ab715d7520ac64fdeaa3063399f39ed8&#45;&gt;dir_dbb0507b3639155bebaec74fe5b3f957 -->
<g id="edge6" class="edge">
<title>dir_ab715d7520ac64fdeaa3063399f39ed8&#45;&gt;dir_dbb0507b3639155bebaec74fe5b3f957</title>
<path fill="none" stroke="#000000" d="M158.1875,-90C162.5683,-90 166.9491,-90 171.3299,-90"/>
<polygon fill="#000000" stroke="#000000" points="171.5518,-93.5001 181.5518,-90 171.5517,-86.5001 171.5518,-93.5001"/>
<g id="a_edge6&#45;headlabel"><a xlink:href="dir_000007_000004.html" target="_top" xlink:title="8">
<text text-anchor="middle" x="167.9571" y="-93.8393" font-family="Helvetica,sans-Serif" font-size="10.00" fill="#000000">8</text>
</a>
</g>
</g>
<!-- dir_2a34bf78513aea0df2e2c3d4af0cd38f -->
<g id="node6" class="node">
<title>dir_2a34bf78513aea0df2e2c3d4af0cd38f</title>
<g id="a_node6"><a xlink:href="dir_2a34bf78513aea0df2e2c3d4af0cd38f.html" target="_top" xlink:title="IO">
<polygon fill="#ffffff" stroke="#ff0000" points="166,-36 112,-36 112,0 166,0 166,-36"/>
<text text-anchor="middle" x="139" y="-15.5" font-family="Helvetica,sans-Serif" font-size="10.00" fill="#000000">IO</text>
</a>
</g>
</g>
<!-- dir_ab715d7520ac64fdeaa3063399f39ed8&#45;&gt;dir_2a34bf78513aea0df2e2c3d4af0cd38f -->
<g id="edge7" class="edge">
<title>dir_ab715d7520ac64fdeaa3063399f39ed8&#45;&gt;dir_2a34bf78513aea0df2e2c3d4af0cd38f</title>
<path fill="none" stroke="#000000" d="M127.0663,-71.8314C127.1715,-64.131 127.968,-54.9743 129.2275,-46.4166"/>
<polygon fill="#000000" stroke="#000000" points="132.7018,-46.8669 130.9781,-36.4133 125.8066,-45.6602 132.7018,-46.8669"/>
<g id="a_edge7&#45;headlabel"><a xlink:href="dir_000007_000022.html" target="_top" xlink:title="7">
<text text-anchor="middle" x="134.879" y="-48.3971" font-family="Helvetica,sans-Serif" font-size="10.00" fill="#000000">7</text>
</a>
</g>
</g>
<!-- dir_f39368514e927ff3df32776217a2e927 -->
<g id="node7" class="node">
<title>dir_f39368514e927ff3df32776217a2e927</title>
<g id="a_node7"><a xlink:href="dir_f39368514e927ff3df32776217a2e927.html" target="_top" xlink:title="Code">
<polygon fill="#ffffff" stroke="#ff0000" points="245,-36 191,-36 191,0 245,0 245,-36"/>
<text text-anchor="middle" x="218" y="-15.5" font-family="Helvetica,sans-Serif" font-size="10.00" fill="#000000">Code</text>
</a>
</g>
</g>
<!-- dir_ab715d7520ac64fdeaa3063399f39ed8&#45;&gt;dir_f39368514e927ff3df32776217a2e927 -->
<g id="edge8" class="edge">
<title>dir_ab715d7520ac64fdeaa3063399f39ed8&#45;&gt;dir_f39368514e927ff3df32776217a2e927</title>
<path fill="none" stroke="#000000" d="M147.0014,-71.8314C157.0994,-62.7412 170.3874,-51.6219 182.7803,-41.8539"/>
<polygon fill="#000000" stroke="#000000" points="184.9995,-44.562 190.7524,-35.665 180.707,-39.0326 184.9995,-44.562"/>
<g id="a_edge8&#45;headlabel"><a xlink:href="dir_000007_000008.html" target="_top" xlink:title="6">
<text text-anchor="middle" x="183.9012" y="-46.509" font-family="Helvetica,sans-Serif" font-size="10.00" fill="#000000">6</text>
</a>
</g>
</g>
<!-- dir_f1dde695710e8450ba0a4e5415b619ac -->
<g id="node3" class="node">
<title>dir_f1dde695710e8450ba0a4e5415b619ac</title>
<g id="a_node3"><a xlink:href="dir_f1dde695710e8450ba0a4e5415b619ac.html" target="_top" xlink:title="src">
<polygon fill="#ffffff" stroke="#000000" points="78,-180 24,-180 24,-144 78,-144 78,-180"/>
<text text-anchor="middle" x="51" y="-159.5" font-family="Helvetica,sans-Serif" font-size="10.00" fill="#000000">src</text>
</a>
</g>
</g>
<!-- dir_f1dde695710e8450ba0a4e5415b619ac&#45;&gt;dir_ab715d7520ac64fdeaa3063399f39ed8 -->
<g id="edge2" class="edge">
<title>dir_f1dde695710e8450ba0a4e5415b619ac&#45;&gt;dir_ab715d7520ac64fdeaa3063399f39ed8</title>
<path fill="none" stroke="#000000" d="M71.1874,-143.8314C80.8514,-135.1337 92.5796,-124.5783 103.0816,-115.1265"/>
<polygon fill="#000000" stroke="#000000" points="105.7275,-117.454 110.8191,-108.1628 101.0447,-112.251 105.7275,-117.454"/>
<g id="a_edge2&#45;headlabel"><a xlink:href="dir_000027_000007.html" target="_top" xlink:title="2">
<text text-anchor="middle" x="104.955" y="-119.4691" font-family="Helvetica,sans-Serif" font-size="10.00" fill="#000000">2</text>
</a>
</g>
</g>
<!-- dir_38d004fcec24276f2c541b703d786171&#45;&gt;dir_ab715d7520ac64fdeaa3063399f39ed8 -->
<g id="edge1" class="edge">
<title>dir_38d004fcec24276f2c541b703d786171&#45;&gt;dir_ab715d7520ac64fdeaa3063399f39ed8</title>
<path fill="none" stroke="#000000" d="M80.8714,-36.1628C90.6814,-44.7744 101.727,-55.2081 111.0135,-64.5888"/>
<polygon fill="#000000" stroke="#000000" points="108.5559,-67.0822 118.0267,-71.8314 113.5846,-62.2127 108.5559,-67.0822"/>
<g id="a_edge1&#45;headlabel"><a xlink:href="dir_000025_000007.html" target="_top" xlink:title="9">
<text text-anchor="middle" x="104.0157" y="-63.975" font-family="Helvetica,sans-Serif" font-size="10.00" fill="#000000">9</text>
</a>
</g>
</g>
<!-- dir_dbb0507b3639155bebaec74fe5b3f957&#45;&gt;dir_ab715d7520ac64fdeaa3063399f39ed8 -->
<g id="edge3" class="edge">
<title>dir_dbb0507b3639155bebaec74fe5b3f957&#45;&gt;dir_ab715d7520ac64fdeaa3063399f39ed8</title>
<path fill="none" stroke="#000000" d="M181.5518,-90C177.171,-90 172.7902,-90 168.4094,-90"/>
<polygon fill="#000000" stroke="#000000" points="168.1875,-86.5001 158.1875,-90 168.1875,-93.5001 168.1875,-86.5001"/>
<g id="a_edge3&#45;headlabel"><a xlink:href="dir_000004_000007.html" target="_top" xlink:title="23">
<text text-anchor="middle" x="171.7821" y="-81.1607" font-family="Helvetica,sans-Serif" font-size="10.00" fill="#000000">23</text>
</a>
</g>
</g>
<!-- dir_dbb0507b3639155bebaec74fe5b3f957&#45;&gt;dir_f39368514e927ff3df32776217a2e927 -->
<g id="edge4" class="edge">
<title>dir_dbb0507b3639155bebaec74fe5b3f957&#45;&gt;dir_f39368514e927ff3df32776217a2e927</title>
<path fill="none" stroke="#000000" d="M212.0476,-71.8314C211.2972,-64.131 211.0763,-54.9743 211.3849,-46.4166"/>
<polygon fill="#000000" stroke="#000000" points="214.8792,-46.6161 212.024,-36.4133 207.8935,-46.1697 214.8792,-46.6161"/>
<g id="a_edge4&#45;headlabel"><a xlink:href="dir_000004_000008.html" target="_top" xlink:title="11">
<text text-anchor="middle" x="217.4836" y="-47.8844" font-family="Helvetica,sans-Serif" font-size="10.00" fill="#000000">11</text>
</a>
</g>
</g>
<!-- dir_2a34bf78513aea0df2e2c3d4af0cd38f&#45;&gt;dir_ab715d7520ac64fdeaa3063399f39ed8 -->
<g id="edge9" class="edge">
<title>dir_2a34bf78513aea0df2e2c3d4af0cd38f&#45;&gt;dir_ab715d7520ac64fdeaa3063399f39ed8</title>
<path fill="none" stroke="#000000" d="M142.9301,-36.4133C142.8103,-44.1442 142.0017,-53.3097 140.7324,-61.8545"/>
<polygon fill="#000000" stroke="#000000" points="137.263,-61.3751 138.9711,-71.8314 144.1564,-62.5921 137.263,-61.3751"/>
<g id="a_edge9&#45;headlabel"><a xlink:href="dir_000022_000007.html" target="_top" xlink:title="24">
<text text-anchor="middle" x="135.0918" y="-54.8417" font-family="Helvetica,sans-Serif" font-size="10.00" fill="#000000">24</text>
</a>
</g>
</g>
<!-- dir_f39368514e927ff3df32776217a2e927&#45;&gt;dir_ab715d7520ac64fdeaa3063399f39ed8 -->
<g id="edge11" class="edge">
<title>dir_f39368514e927ff3df32776217a2e927&#45;&gt;dir_ab715d7520ac64fdeaa3063399f39ed8</title>
<path fill="none" stroke="#000000" d="M202.0825,-36.0931C192.0198,-45.1561 178.767,-56.2506 166.3878,-66.0136"/>
<polygon fill="#000000" stroke="#000000" points="164.1713,-63.3034 158.4213,-72.2022 168.4657,-68.8314 164.1713,-63.3034"/>
<g id="a_edge11&#45;headlabel"><a xlink:href="dir_000008_000007.html" target="_top" xlink:title="12">
<text text-anchor="middle" x="165.2681" y="-56.356" font-family="Helvetica,sans-Serif" font-size="10.00" fill="#000000">12</text>
</a>
</g>
</g>
<!-- dir_f39368514e927ff3df32776217a2e927&#45;&gt;dir_dbb0507b3639155bebaec74fe5b3f957 -->
<g id="edge10" class="edge">
<title>dir_f39368514e927ff3df32776217a2e927&#45;&gt;dir_dbb0507b3639155bebaec74fe5b3f957</title>
<path fill="none" stroke="#000000" d="M223.976,-36.4133C224.7071,-44.0593 224.9203,-53.1084 224.6155,-61.5726"/>
<polygon fill="#000000" stroke="#000000" points="221.1048,-61.6264 223.9524,-71.8314 228.0902,-62.078 221.1048,-61.6264"/>
<g id="a_edge10&#45;headlabel"><a xlink:href="dir_000008_000004.html" target="_top" xlink:title="582">
<text text-anchor="middle" x="218.5032" y="-55.3562" font-family="Helvetica,sans-Serif" font-size="10.00" fill="#000000">582</text>
</a>
</g>
</g>
</g>
</svg>
