<?xml version="1.0" encoding="UTF-8" standalone="no"?>
<!DOCTYPE svg PUBLIC "-//W3C//DTD SVG 1.1//EN"
 "http://www.w3.org/Graphics/SVG/1.1/DTD/svg11.dtd">
<!-- Generated by graphviz version 2.40.1 (20161225.0304)
 -->
<!-- Title: SimpleITK Pages: 1 -->
<svg width="288pt" height="132pt"
 viewBox="0.00 0.00 288.00 132.00" xmlns="http://www.w3.org/2000/svg" xmlns:xlink="http://www.w3.org/1999/xlink">
<g id="graph0" class="graph" transform="scale(1 1) rotate(0) translate(4 128)">
<title>SimpleITK</title>
<polygon fill="#ffffff" stroke="transparent" points="-4,4 -4,-128 284,-128 284,4 -4,4"/>
<g id="clust1" class="cluster">
<title>clusterdir_0195af5fa7804b5c802a7ca910fa092c</title>
<g id="a_clust1"><a xlink:href="dir_0195af5fa7804b5c802a7ca910fa092c.html" target="_top">
<polygon fill="#eeeeff" stroke="#000000" points="8,-64 8,-116 272,-116 272,-64 8,-64"/>
</a>
</g>
</g>
<!-- dir_0195af5fa7804b5c802a7ca910fa092c -->
<g id="node1" class="node">
<title>dir_0195af5fa7804b5c802a7ca910fa092c</title>
<text text-anchor="middle" x="231" y="-87.5" font-family="Helvetica,sans-Serif" font-size="10.00" fill="#000000">SimpleITK</text>
</g>
<!-- dir_b9cb50edb61d9a37345e1397b3ccbbdc -->
<g id="node2" class="node">
<title>dir_b9cb50edb61d9a37345e1397b3ccbbdc</title>
<g id="a_node2"><a xlink:href="dir_b9cb50edb61d9a37345e1397b3ccbbdc.html" target="_top" xlink:title="Code">
<polygon fill="#ffffff" stroke="#ff0000" points="180,-108 126,-108 126,-72 180,-72 180,-108"/>
<text text-anchor="middle" x="153" y="-87.5" font-family="Helvetica,sans-Serif" font-size="10.00" fill="#000000">Code</text>
</a>
</g>
</g>
<!-- dir_f39368514e927ff3df32776217a2e927 -->
<g id="node4" class="node">
<title>dir_f39368514e927ff3df32776217a2e927</title>
<g id="a_node4"><a xlink:href="dir_f39368514e927ff3df32776217a2e927.html" target="_top" xlink:title="Code">
<polygon fill="#ffffff" stroke="#ff0000" points="180,-36 126,-36 126,0 180,0 180,-36"/>
<text text-anchor="middle" x="153" y="-15.5" font-family="Helvetica,sans-Serif" font-size="10.00" fill="#000000">Code</text>
</a>
</g>
</g>
<!-- dir_b9cb50edb61d9a37345e1397b3ccbbdc&#45;&gt;dir_f39368514e927ff3df32776217a2e927 -->
<g id="edge1" class="edge">
<title>dir_b9cb50edb61d9a37345e1397b3ccbbdc&#45;&gt;dir_f39368514e927ff3df32776217a2e927</title>
<path fill="none" stroke="#000000" d="M147.0476,-71.8314C146.2972,-64.131 146.0763,-54.9743 146.3849,-46.4166"/>
<polygon fill="#000000" stroke="#000000" points="149.8792,-46.6161 147.024,-36.4133 142.8935,-46.1697 149.8792,-46.6161"/>
<g id="a_edge1&#45;headlabel"><a xlink:href="dir_000003_000008.html" target="_top" xlink:title="17">
<text text-anchor="middle" x="152.4836" y="-47.8844" font-family="Helvetica,sans-Serif" font-size="10.00" fill="#000000">17</text>
</a>
</g>
</g>
<!-- dir_a0d15dcceca226368774138d2ff217c3 -->
<g id="node3" class="node">
<title>dir_a0d15dcceca226368774138d2ff217c3</title>
<g id="a_node3"><a xlink:href="dir_a0d15dcceca226368774138d2ff217c3.html" target="_top" xlink:title="Documentation">
<polygon fill="#ffffff" stroke="#ff0000" points="108,-108 16,-108 16,-72 108,-72 108,-108"/>
<text text-anchor="middle" x="62" y="-87.5" font-family="Helvetica,sans-Serif" font-size="10.00" fill="#000000">Documentation</text>
</a>
</g>
</g>
<!-- dir_f39368514e927ff3df32776217a2e927&#45;&gt;dir_b9cb50edb61d9a37345e1397b3ccbbdc -->
<g id="edge2" class="edge">
<title>dir_f39368514e927ff3df32776217a2e927&#45;&gt;dir_b9cb50edb61d9a37345e1397b3ccbbdc</title>
<path fill="none" stroke="#000000" d="M158.976,-36.4133C159.7071,-44.0593 159.9203,-53.1084 159.6155,-61.5726"/>
<polygon fill="#000000" stroke="#000000" points="156.1048,-61.6264 158.9524,-71.8314 163.0902,-62.078 156.1048,-61.6264"/>
<g id="a_edge2&#45;headlabel"><a xlink:href="dir_000008_000003.html" target="_top" xlink:title="592">
<text text-anchor="middle" x="153.5032" y="-55.3562" font-family="Helvetica,sans-Serif" font-size="10.00" fill="#000000">592</text>
</a>
</g>
</g>
</g>
</svg>
