<?xml version="1.0" encoding="UTF-8" standalone="no"?>
<!DOCTYPE svg PUBLIC "-//W3C//DTD SVG 1.1//EN"
 "http://www.w3.org/Graphics/SVG/1.1/DTD/svg11.dtd">
<!-- Generated by graphviz version 2.40.1 (20161225.0304)
 -->
<!-- Title: Graphical Class Hierarchy Pages: 1 -->
<svg width="1368pt" height="165pt"
 viewBox="0.00 0.00 1368.00 165.00" xmlns="http://www.w3.org/2000/svg" xmlns:xlink="http://www.w3.org/1999/xlink">
<g id="graph0" class="graph" transform="scale(1 1) rotate(0) translate(4 161)">
<title>Graphical Class Hierarchy</title>
<polygon fill="#ffffff" stroke="transparent" points="-4,4 -4,-161 1364,-161 1364,4 -4,4"/>
<!-- Node406 -->
<g id="node1" class="node">
<title>Node406</title>
<g id="a_node1"><a xlink:href="https://www.itk.org/Doxygen/html/structitk_1_1ImageSourceCommon.html" xlink:title=" ">
<polygon fill="#ffffff" stroke="#000000" points="230,-132 230,-151 373,-151 373,-132 230,-132"/>
<text text-anchor="middle" x="301.5" y="-139" font-family="Helvetica,sans-Serif" font-size="10.00" fill="#000000">itk::ImageSourceCommon</text>
</a>
</g>
</g>
<!-- Node6 -->
<g id="node2" class="node">
<title>Node6</title>
<g id="a_node2"><a xlink:href="https://www.itk.org/Doxygen/html/classitk_1_1ImageSource.html" xlink:title=" ">
<polygon fill="#ffffff" stroke="#000000" points="422.5,-126.5 422.5,-156.5 571.5,-156.5 571.5,-126.5 422.5,-126.5"/>
<text text-anchor="start" x="430.5" y="-144.5" font-family="Helvetica,sans-Serif" font-size="10.00" fill="#000000">itk::ImageSource&lt; TOutput</text>
<text text-anchor="middle" x="497" y="-133.5" font-family="Helvetica,sans-Serif" font-size="10.00" fill="#000000">Image &gt;</text>
</a>
</g>
</g>
<!-- Node406&#45;&gt;Node6 -->
<g id="edge1" class="edge">
<title>Node406&#45;&gt;Node6</title>
<path fill="none" stroke="#8b1a1a" d="M383.4408,-141.5C396.3499,-141.5 409.6368,-141.5 422.3686,-141.5"/>
<polygon fill="#8b1a1a" stroke="#8b1a1a" points="383.1869,-138.0001 373.1869,-141.5 383.1868,-145.0001 383.1869,-138.0001"/>
</g>
<!-- Node7 -->
<g id="node3" class="node">
<title>Node7</title>
<g id="a_node3"><a xlink:href="https://www.itk.org/Doxygen/html/classitk_1_1ImageToImageFilter.html" xlink:title=" ">
<polygon fill="#ffffff" stroke="#000000" points="621,-104.5 621,-134.5 797,-134.5 797,-104.5 621,-104.5"/>
<text text-anchor="start" x="629" y="-122.5" font-family="Helvetica,sans-Serif" font-size="10.00" fill="#000000">itk::ImageToImageFilter</text>
<text text-anchor="middle" x="709" y="-111.5" font-family="Helvetica,sans-Serif" font-size="10.00" fill="#000000">&lt; TInputImage, TOutputImage &gt;</text>
</a>
</g>
</g>
<!-- Node6&#45;&gt;Node7 -->
<g id="edge2" class="edge">
<title>Node6&#45;&gt;Node7</title>
<path fill="none" stroke="#191970" d="M581.8983,-132.6898C594.6938,-131.362 607.9168,-129.9898 620.7802,-128.6549"/>
<polygon fill="#191970" stroke="#191970" points="581.3286,-129.23 571.7433,-133.7436 582.0512,-136.1926 581.3286,-129.23"/>
</g>
<!-- Node8 -->
<g id="node4" class="node">
<title>Node8</title>
<g id="a_node4"><a xlink:href="https://www.itk.org/Doxygen/html/classitk_1_1InPlaceImageFilter.html" xlink:title=" ">
<polygon fill="#ffffff" stroke="#000000" points="833,-104.5 833,-134.5 1009,-134.5 1009,-104.5 833,-104.5"/>
<text text-anchor="start" x="841" y="-122.5" font-family="Helvetica,sans-Serif" font-size="10.00" fill="#000000">itk::InPlaceImageFilter</text>
<text text-anchor="middle" x="921" y="-111.5" font-family="Helvetica,sans-Serif" font-size="10.00" fill="#000000">&lt; TInputImage, TOutputImage &gt;</text>
</a>
</g>
</g>
<!-- Node7&#45;&gt;Node8 -->
<g id="edge3" class="edge">
<title>Node7&#45;&gt;Node8</title>
<path fill="none" stroke="#191970" d="M807.1073,-119.5C815.7003,-119.5 824.363,-119.5 832.8676,-119.5"/>
<polygon fill="#191970" stroke="#191970" points="807.0654,-116.0001 797.0653,-119.5 807.0653,-123.0001 807.0654,-116.0001"/>
</g>
<!-- Node9 -->
<g id="node5" class="node">
<title>Node9</title>
<g id="a_node5"><a xlink:href="https://www.itk.org/Doxygen/html/classitk_1_1CastImageFilter.html" xlink:title=" ">
<polygon fill="#ffffff" stroke="#000000" points="1045,-104.5 1045,-134.5 1209,-134.5 1209,-104.5 1045,-104.5"/>
<text text-anchor="start" x="1053" y="-122.5" font-family="Helvetica,sans-Serif" font-size="10.00" fill="#000000">itk::CastImageFilter</text>
<text text-anchor="middle" x="1127" y="-111.5" font-family="Helvetica,sans-Serif" font-size="10.00" fill="#000000">&lt; TImageType, TImageType &gt;</text>
</a>
</g>
</g>
<!-- Node8&#45;&gt;Node9 -->
<g id="edge4" class="edge">
<title>Node8&#45;&gt;Node9</title>
<path fill="none" stroke="#191970" d="M1019.5372,-119.5C1027.9924,-119.5 1036.4877,-119.5 1044.7948,-119.5"/>
<polygon fill="#191970" stroke="#191970" points="1019.259,-116.0001 1009.259,-119.5 1019.259,-123.0001 1019.259,-116.0001"/>
</g>
<!-- Node10 -->
<g id="node6" class="node">
<title>Node10</title>
<g id="a_node6"><a xlink:href="classitk_1_1HashImageFilter.html" target="_top" xlink:title="Generates a hash string from an image.">
<polygon fill="#ffffff" stroke="#000000" points="1245,-104.5 1245,-134.5 1360,-134.5 1360,-104.5 1245,-104.5"/>
<text text-anchor="start" x="1253" y="-122.5" font-family="Helvetica,sans-Serif" font-size="10.00" fill="#000000">itk::HashImageFilter</text>
<text text-anchor="middle" x="1302.5" y="-111.5" font-family="Helvetica,sans-Serif" font-size="10.00" fill="#000000">&lt; TImageType &gt;</text>
</a>
</g>
</g>
<!-- Node9&#45;&gt;Node10 -->
<g id="edge5" class="edge">
<title>Node9&#45;&gt;Node10</title>
<path fill="none" stroke="#191970" d="M1219.3482,-119.5C1228.074,-119.5 1236.739,-119.5 1244.9968,-119.5"/>
<polygon fill="#191970" stroke="#191970" points="1219.0978,-116.0001 1209.0977,-119.5 1219.0977,-123.0001 1219.0978,-116.0001"/>
</g>
<!-- Node405 -->
<g id="node7" class="node">
<title>Node405</title>
<g id="a_node7"><a xlink:href="https://www.itk.org/Doxygen/html/classitk_1_1ImageToImageFilterCommon.html" xlink:title=" ">
<polygon fill="#ffffff" stroke="#000000" points="409,-88 409,-107 585,-107 585,-88 409,-88"/>
<text text-anchor="middle" x="497" y="-95" font-family="Helvetica,sans-Serif" font-size="10.00" fill="#000000">itk::ImageToImageFilterCommon</text>
</a>
</g>
</g>
<!-- Node405&#45;&gt;Node7 -->
<g id="edge6" class="edge">
<title>Node405&#45;&gt;Node7</title>
<path fill="none" stroke="#8b1a1a" d="M595.1073,-107.6809C603.7003,-108.5727 612.363,-109.4716 620.8676,-110.3542"/>
<polygon fill="#8b1a1a" stroke="#8b1a1a" points="595.3732,-104.1898 585.0653,-106.6389 594.6506,-111.1524 595.3732,-104.1898"/>
</g>
<!-- Node0 -->
<g id="node8" class="node">
<title>Node0</title>
<g id="a_node8"><a xlink:href="https://www.itk.org/Doxygen/html/classitk_1_1LightObject.html" xlink:title=" ">
<polygon fill="#ffffff" stroke="#000000" points="0,-72 0,-91 91,-91 91,-72 0,-72"/>
<text text-anchor="middle" x="45.5" y="-79" font-family="Helvetica,sans-Serif" font-size="10.00" fill="#000000">itk::LightObject</text>
</a>
</g>
</g>
<!-- Node1 -->
<g id="node9" class="node">
<title>Node1</title>
<g id="a_node9"><a xlink:href="https://www.itk.org/Doxygen/html/classitk_1_1Object.html" xlink:title=" ">
<polygon fill="#ffffff" stroke="#000000" points="127,-72 127,-91 194,-91 194,-72 127,-72"/>
<text text-anchor="middle" x="160.5" y="-79" font-family="Helvetica,sans-Serif" font-size="10.00" fill="#000000">itk::Object</text>
</a>
</g>
</g>
<!-- Node0&#45;&gt;Node1 -->
<g id="edge7" class="edge">
<title>Node0&#45;&gt;Node1</title>
<path fill="none" stroke="#191970" d="M101.4408,-81.5C110.1547,-81.5 118.9163,-81.5 126.9245,-81.5"/>
<polygon fill="#191970" stroke="#191970" points="101.2815,-78.0001 91.2815,-81.5 101.2814,-85.0001 101.2815,-78.0001"/>
</g>
<!-- Node2 -->
<g id="node10" class="node">
<title>Node2</title>
<g id="a_node10"><a xlink:href="https://www.itk.org/Doxygen/html/classitk_1_1Command.html" xlink:title=" ">
<polygon fill="#ffffff" stroke="#000000" points="258.5,-50 258.5,-69 344.5,-69 344.5,-50 258.5,-50"/>
<text text-anchor="middle" x="301.5" y="-57" font-family="Helvetica,sans-Serif" font-size="10.00" fill="#000000">itk::Command</text>
</a>
</g>
</g>
<!-- Node1&#45;&gt;Node2 -->
<g id="edge8" class="edge">
<title>Node1&#45;&gt;Node2</title>
<path fill="none" stroke="#191970" d="M204.5908,-74.6206C221.739,-71.945 241.3239,-68.8892 258.3782,-66.2282"/>
<polygon fill="#191970" stroke="#191970" points="203.6139,-71.2306 194.273,-76.2305 204.6931,-78.1469 203.6139,-71.2306"/>
</g>
<!-- Node5 -->
<g id="node13" class="node">
<title>Node5</title>
<g id="a_node13"><a xlink:href="https://www.itk.org/Doxygen/html/classitk_1_1ProcessObject.html" xlink:title=" ">
<polygon fill="#ffffff" stroke="#000000" points="249.5,-91 249.5,-110 353.5,-110 353.5,-91 249.5,-91"/>
<text text-anchor="middle" x="301.5" y="-98" font-family="Helvetica,sans-Serif" font-size="10.00" fill="#000000">itk::ProcessObject</text>
</a>
</g>
</g>
<!-- Node1&#45;&gt;Node5 -->
<g id="edge11" class="edge">
<title>Node1&#45;&gt;Node5</title>
<path fill="none" stroke="#191970" d="M204.2991,-87.402C218.5382,-89.3207 234.4824,-91.4693 249.2738,-93.4624"/>
<polygon fill="#191970" stroke="#191970" points="204.6509,-83.9179 194.273,-86.051 203.716,-90.8552 204.6509,-83.9179"/>
</g>
<!-- Node3 -->
<g id="node11" class="node">
<title>Node3</title>
<g id="a_node11"><a xlink:href="classitk_1_1HolderCommand.html" target="_top" xlink:title="An ITK Command class to hold a object until destruction.">
<polygon fill="#ffffff" stroke="#000000" points="424,-50 424,-69 570,-69 570,-50 424,-50"/>
<text text-anchor="middle" x="497" y="-57" font-family="Helvetica,sans-Serif" font-size="10.00" fill="#000000">itk::HolderCommand&lt; T &gt;</text>
</a>
</g>
</g>
<!-- Node2&#45;&gt;Node3 -->
<g id="edge9" class="edge">
<title>Node2&#45;&gt;Node3</title>
<path fill="none" stroke="#191970" d="M354.9948,-59.5C376.2085,-59.5 400.947,-59.5 423.7772,-59.5"/>
<polygon fill="#191970" stroke="#191970" points="354.8878,-56.0001 344.8878,-59.5 354.8878,-63.0001 354.8878,-56.0001"/>
</g>
<!-- Node4 -->
<g id="node12" class="node">
<title>Node4</title>
<g id="a_node12"><a xlink:href="classitk_1_1HolderCommand_3_01T_01_5_01_4.html" target="_top" xlink:title=" ">
<polygon fill="#ffffff" stroke="#000000" points="438,-.5 438,-30.5 556,-30.5 556,-.5 438,-.5"/>
<text text-anchor="start" x="446" y="-18.5" font-family="Helvetica,sans-Serif" font-size="10.00" fill="#000000">itk::HolderCommand</text>
<text text-anchor="middle" x="497" y="-7.5" font-family="Helvetica,sans-Serif" font-size="10.00" fill="#000000">&lt; T * &gt;</text>
</a>
</g>
</g>
<!-- Node2&#45;&gt;Node4 -->
<g id="edge10" class="edge">
<title>Node2&#45;&gt;Node4</title>
<path fill="none" stroke="#191970" d="M353.9291,-47.7001C379.8453,-41.8673 411.2201,-34.806 437.9769,-28.784"/>
<polygon fill="#191970" stroke="#191970" points="352.908,-44.3423 343.9206,-49.9527 354.4451,-51.1715 352.908,-44.3423"/>
</g>
<!-- Node5&#45;&gt;Node6 -->
<g id="edge12" class="edge">
<title>Node5&#45;&gt;Node6</title>
<path fill="none" stroke="#191970" d="M356.667,-112.0695C377.9172,-116.5261 402.5046,-121.6825 425.1052,-126.4223"/>
<polygon fill="#191970" stroke="#191970" points="357.3485,-108.6364 346.843,-110.0093 355.9117,-115.4874 357.3485,-108.6364"/>
</g>
</g>
</svg>
