<?xml version="1.0" encoding="UTF-8" standalone="no"?>
<!DOCTYPE svg PUBLIC "-//W3C//DTD SVG 1.1//EN"
 "http://www.w3.org/Graphics/SVG/1.1/DTD/svg11.dtd">
<!-- Generated by graphviz version 2.40.1 (20161225.0304)
 -->
<!-- Title: Graphical Class Hierarchy Pages: 1 -->
<svg width="331pt" height="564pt"
 viewBox="0.00 0.00 331.00 564.00" xmlns="http://www.w3.org/2000/svg" xmlns:xlink="http://www.w3.org/1999/xlink">
<g id="graph0" class="graph" transform="scale(1 1) rotate(0) translate(4 560)">
<title>Graphical Class Hierarchy</title>
<polygon fill="#ffffff" stroke="transparent" points="-4,4 -4,-560 327,-560 327,4 -4,4"/>
<!-- Node0 -->
<g id="node1" class="node">
<title>Node0</title>
<g id="a_node1"><a xlink:href="classitk_1_1simple_1_1Transform.html" target="_top" xlink:title="A simplified wrapper around a variety of ITK transforms.">
<polygon fill="#ffffff" stroke="#000000" points="0,-284.5 0,-303.5 123,-303.5 123,-284.5 0,-284.5"/>
<text text-anchor="middle" x="61.5" y="-291.5" font-family="Helvetica,sans-Serif" font-size="10.00" fill="#000000">itk::simple::Transform</text>
</a>
</g>
</g>
<!-- Node1 -->
<g id="node2" class="node">
<title>Node1</title>
<g id="a_node2"><a xlink:href="classitk_1_1simple_1_1AffineTransform.html" target="_top" xlink:title="An affine transformation about a fixed center with translation for a 2D or 3D coordinate.">
<polygon fill="#ffffff" stroke="#000000" points="165,-536.5 165,-555.5 317,-555.5 317,-536.5 165,-536.5"/>
<text text-anchor="middle" x="241" y="-543.5" font-family="Helvetica,sans-Serif" font-size="10.00" fill="#000000">itk::simple::AffineTransform</text>
</a>
</g>
</g>
<!-- Node0&#45;&gt;Node1 -->
<g id="edge1" class="edge">
<title>Node0&#45;&gt;Node1</title>
<path fill="none" stroke="#191970" d="M63.744,-313.7915C69.9611,-358.9676 91.6598,-470.155 159,-527 163.5783,-530.8648 168.7934,-533.9789 174.324,-536.4838"/>
<polygon fill="#191970" stroke="#191970" points="67.2076,-313.2824 62.4786,-303.8015 60.2631,-314.1621 67.2076,-313.2824"/>
</g>
<!-- Node2 -->
<g id="node3" class="node">
<title>Node2</title>
<g id="a_node3"><a xlink:href="classitk_1_1simple_1_1BSplineTransform.html" target="_top" xlink:title="A deformable transform over a bounded spatial domain using a BSpline representation for a 2D or 3D co...">
<polygon fill="#ffffff" stroke="#000000" points="161,-498.5 161,-517.5 321,-517.5 321,-498.5 161,-498.5"/>
<text text-anchor="middle" x="241" y="-505.5" font-family="Helvetica,sans-Serif" font-size="10.00" fill="#000000">itk::simple::BSplineTransform</text>
</a>
</g>
</g>
<!-- Node0&#45;&gt;Node2 -->
<g id="edge2" class="edge">
<title>Node0&#45;&gt;Node2</title>
<path fill="none" stroke="#191970" d="M65.4404,-313.4841C74.5067,-353.0754 100.7018,-443.0574 159,-489 163.8206,-492.7989 169.2666,-495.8627 175.003,-498.3304"/>
<polygon fill="#191970" stroke="#191970" points="68.8213,-312.5593 63.2832,-303.5272 61.9801,-314.0416 68.8213,-312.5593"/>
</g>
<!-- Node3 -->
<g id="node4" class="node">
<title>Node3</title>
<g id="a_node4"><a xlink:href="classitk_1_1simple_1_1DisplacementFieldTransform.html" target="_top" xlink:title="A dense deformable transform over a bounded spatial domain for 2D or 3D coordinates space.">
<polygon fill="#ffffff" stroke="#000000" points="170,-449 170,-479 312,-479 312,-449 170,-449"/>
<text text-anchor="start" x="178" y="-467" font-family="Helvetica,sans-Serif" font-size="10.00" fill="#000000">itk::simple::Displacement</text>
<text text-anchor="middle" x="241" y="-456" font-family="Helvetica,sans-Serif" font-size="10.00" fill="#000000">FieldTransform</text>
</a>
</g>
</g>
<!-- Node0&#45;&gt;Node3 -->
<g id="edge3" class="edge">
<title>Node0&#45;&gt;Node3</title>
<path fill="none" stroke="#191970" d="M69.2169,-313.0755C82.7398,-344.1084 113.6601,-405.427 159,-439 164.2628,-442.897 170.1389,-446.1929 176.2619,-448.9792"/>
<polygon fill="#191970" stroke="#191970" points="72.414,-311.6492 65.3021,-303.7961 65.9645,-314.3702 72.414,-311.6492"/>
</g>
<!-- Node4 -->
<g id="node5" class="node">
<title>Node4</title>
<g id="a_node5"><a xlink:href="classitk_1_1simple_1_1Euler2DTransform.html" target="_top" xlink:title="A rigid 2D transform with rotation in radians around a fixed center with translation.">
<polygon fill="#ffffff" stroke="#000000" points="160.5,-410.5 160.5,-429.5 321.5,-429.5 321.5,-410.5 160.5,-410.5"/>
<text text-anchor="middle" x="241" y="-417.5" font-family="Helvetica,sans-Serif" font-size="10.00" fill="#000000">itk::simple::Euler2DTransform</text>
</a>
</g>
</g>
<!-- Node0&#45;&gt;Node4 -->
<g id="edge4" class="edge">
<title>Node0&#45;&gt;Node4</title>
<path fill="none" stroke="#191970" d="M73.0194,-312.4009C89.1759,-336.6097 120.9003,-378.6893 159,-401 165.6834,-404.9137 173.1142,-408.0213 180.6964,-410.4888"/>
<polygon fill="#191970" stroke="#191970" points="75.8113,-310.2737 67.4298,-303.7929 69.9405,-314.086 75.8113,-310.2737"/>
</g>
<!-- Node5 -->
<g id="node6" class="node">
<title>Node5</title>
<g id="a_node6"><a xlink:href="classitk_1_1simple_1_1Euler3DTransform.html" target="_top" xlink:title="A rigid 3D transform with rotation in radians around a fixed center with translation.">
<polygon fill="#ffffff" stroke="#000000" points="160.5,-372.5 160.5,-391.5 321.5,-391.5 321.5,-372.5 160.5,-372.5"/>
<text text-anchor="middle" x="241" y="-379.5" font-family="Helvetica,sans-Serif" font-size="10.00" fill="#000000">itk::simple::Euler3DTransform</text>
</a>
</g>
</g>
<!-- Node0&#45;&gt;Node5 -->
<g id="edge5" class="edge">
<title>Node0&#45;&gt;Node5</title>
<path fill="none" stroke="#191970" d="M79.7319,-310.2311C98.3773,-325.9883 128.8112,-349.454 159,-363 167.5329,-366.8288 176.9243,-369.9307 186.2117,-372.4298"/>
<polygon fill="#191970" stroke="#191970" points="81.8969,-307.4765 72.0379,-303.5971 77.3258,-312.7779 81.8969,-307.4765"/>
</g>
<!-- Node6 -->
<g id="node7" class="node">
<title>Node6</title>
<g id="a_node7"><a xlink:href="classitk_1_1simple_1_1ScaleSkewVersor3DTransform.html" target="_top" xlink:title="A over parameterized 3D Affine transform composed of the addition of a versor rotation matrix,...">
<polygon fill="#ffffff" stroke="#000000" points="159,-323 159,-353 323,-353 323,-323 159,-323"/>
<text text-anchor="start" x="167" y="-341" font-family="Helvetica,sans-Serif" font-size="10.00" fill="#000000">itk::simple::ScaleSkewVersor3</text>
<text text-anchor="middle" x="241" y="-330" font-family="Helvetica,sans-Serif" font-size="10.00" fill="#000000">DTransform</text>
</a>
</g>
</g>
<!-- Node0&#45;&gt;Node6 -->
<g id="edge6" class="edge">
<title>Node0&#45;&gt;Node6</title>
<path fill="none" stroke="#191970" d="M110.2711,-305.955C131.6241,-311.1892 156.9177,-317.3893 179.5402,-322.9346"/>
<polygon fill="#191970" stroke="#191970" points="110.9946,-302.5288 100.4488,-303.5473 109.328,-309.3276 110.9946,-302.5288"/>
</g>
<!-- Node7 -->
<g id="node8" class="node">
<title>Node7</title>
<g id="a_node8"><a xlink:href="classitk_1_1simple_1_1ScaleTransform.html" target="_top" xlink:title="A 2D or 3D anisotropic scale of coordinate space around a fixed center.">
<polygon fill="#ffffff" stroke="#000000" points="166.5,-284.5 166.5,-303.5 315.5,-303.5 315.5,-284.5 166.5,-284.5"/>
<text text-anchor="middle" x="241" y="-291.5" font-family="Helvetica,sans-Serif" font-size="10.00" fill="#000000">itk::simple::ScaleTransform</text>
</a>
</g>
</g>
<!-- Node0&#45;&gt;Node7 -->
<g id="edge7" class="edge">
<title>Node0&#45;&gt;Node7</title>
<path fill="none" stroke="#191970" d="M133.2798,-294C144.1175,-294 155.3196,-294 166.2187,-294"/>
<polygon fill="#191970" stroke="#191970" points="133.0226,-290.5001 123.0226,-294 133.0226,-297.5001 133.0226,-290.5001"/>
</g>
<!-- Node8 -->
<g id="node9" class="node">
<title>Node8</title>
<g id="a_node9"><a xlink:href="classitk_1_1simple_1_1ScaleVersor3DTransform.html" target="_top" xlink:title="A parameterized 3D transform composed of the addition of a versor rotation matrix and a scale matrix ...">
<polygon fill="#ffffff" stroke="#000000" points="172.5,-235 172.5,-265 309.5,-265 309.5,-235 172.5,-235"/>
<text text-anchor="start" x="180.5" y="-253" font-family="Helvetica,sans-Serif" font-size="10.00" fill="#000000">itk::simple::ScaleVersor3</text>
<text text-anchor="middle" x="241" y="-242" font-family="Helvetica,sans-Serif" font-size="10.00" fill="#000000">DTransform</text>
</a>
</g>
</g>
<!-- Node0&#45;&gt;Node8 -->
<g id="edge8" class="edge">
<title>Node0&#45;&gt;Node8</title>
<path fill="none" stroke="#191970" d="M110.2711,-282.045C131.6241,-276.8108 156.9177,-270.6107 179.5402,-265.0654"/>
<polygon fill="#191970" stroke="#191970" points="109.328,-278.6724 100.4488,-284.4527 110.9946,-285.4712 109.328,-278.6724"/>
</g>
<!-- Node9 -->
<g id="node10" class="node">
<title>Node9</title>
<g id="a_node10"><a xlink:href="classitk_1_1simple_1_1Similarity2DTransform.html" target="_top" xlink:title="A similarity 2D transform with rotation in radians and isotropic scaling around a fixed center with t...">
<polygon fill="#ffffff" stroke="#000000" points="177,-186 177,-216 305,-216 305,-186 177,-186"/>
<text text-anchor="start" x="185" y="-204" font-family="Helvetica,sans-Serif" font-size="10.00" fill="#000000">itk::simple::Similarity2</text>
<text text-anchor="middle" x="241" y="-193" font-family="Helvetica,sans-Serif" font-size="10.00" fill="#000000">DTransform</text>
</a>
</g>
</g>
<!-- Node0&#45;&gt;Node9 -->
<g id="edge9" class="edge">
<title>Node0&#45;&gt;Node9</title>
<path fill="none" stroke="#191970" d="M80.5941,-277.9518C99.4736,-262.7676 129.7062,-240.2397 159,-226 166.6297,-222.2912 174.927,-218.9946 183.2164,-216.1105"/>
<polygon fill="#191970" stroke="#191970" points="78.2887,-275.3157 72.7628,-284.3553 82.7198,-280.7347 78.2887,-275.3157"/>
</g>
<!-- Node10 -->
<g id="node11" class="node">
<title>Node10</title>
<g id="a_node11"><a xlink:href="classitk_1_1simple_1_1Similarity3DTransform.html" target="_top" xlink:title="A similarity 3D transform with rotation as a versor, and isotropic scaling around a fixed center with...">
<polygon fill="#ffffff" stroke="#000000" points="177,-137 177,-167 305,-167 305,-137 177,-137"/>
<text text-anchor="start" x="185" y="-155" font-family="Helvetica,sans-Serif" font-size="10.00" fill="#000000">itk::simple::Similarity3</text>
<text text-anchor="middle" x="241" y="-144" font-family="Helvetica,sans-Serif" font-size="10.00" fill="#000000">DTransform</text>
</a>
</g>
</g>
<!-- Node0&#45;&gt;Node10 -->
<g id="edge10" class="edge">
<title>Node0&#45;&gt;Node10</title>
<path fill="none" stroke="#191970" d="M72.1564,-275.3832C87.885,-249.5458 119.7365,-203.0618 159,-177 164.828,-173.1316 171.28,-169.8409 177.9304,-167.0463"/>
<polygon fill="#191970" stroke="#191970" points="69.0249,-273.8022 66.9359,-284.189 75.0463,-277.372 69.0249,-273.8022"/>
</g>
<!-- Node11 -->
<g id="node12" class="node">
<title>Node11</title>
<g id="a_node12"><a xlink:href="classitk_1_1simple_1_1TranslationTransform.html" target="_top" xlink:title="Translation of a 2D or 3D coordinate space.">
<polygon fill="#ffffff" stroke="#000000" points="177,-88 177,-118 305,-118 305,-88 177,-88"/>
<text text-anchor="start" x="185" y="-106" font-family="Helvetica,sans-Serif" font-size="10.00" fill="#000000">itk::simple::Translation</text>
<text text-anchor="middle" x="241" y="-95" font-family="Helvetica,sans-Serif" font-size="10.00" fill="#000000">Transform</text>
</a>
</g>
</g>
<!-- Node0&#45;&gt;Node11 -->
<g id="edge11" class="edge">
<title>Node0&#45;&gt;Node11</title>
<path fill="none" stroke="#191970" d="M67.5837,-274.646C79.4607,-240.0183 109.0356,-167.4082 159,-128 164.3754,-123.7603 170.4666,-120.237 176.8428,-117.3096"/>
<polygon fill="#191970" stroke="#191970" points="64.154,-273.8708 64.346,-284.4639 70.8019,-276.0631 64.154,-273.8708"/>
</g>
<!-- Node12 -->
<g id="node13" class="node">
<title>Node12</title>
<g id="a_node13"><a xlink:href="classitk_1_1simple_1_1VersorRigid3DTransform.html" target="_top" xlink:title="A rotation as a versor around a fixed center with translation of a 3D coordinate space.">
<polygon fill="#ffffff" stroke="#000000" points="173,-39 173,-69 309,-69 309,-39 173,-39"/>
<text text-anchor="start" x="181" y="-57" font-family="Helvetica,sans-Serif" font-size="10.00" fill="#000000">itk::simple::VersorRigid3</text>
<text text-anchor="middle" x="241" y="-46" font-family="Helvetica,sans-Serif" font-size="10.00" fill="#000000">DTransform</text>
</a>
</g>
</g>
<!-- Node0&#45;&gt;Node12 -->
<g id="edge12" class="edge">
<title>Node0&#45;&gt;Node12</title>
<path fill="none" stroke="#191970" d="M64.8207,-274.3168C72.9709,-232.1564 97.9298,-132.6152 159,-79 163.3619,-75.1706 168.2979,-71.9277 173.5318,-69.1815"/>
<polygon fill="#191970" stroke="#191970" points="61.3745,-273.7055 63.0246,-284.1711 68.2611,-274.9607 61.3745,-273.7055"/>
</g>
<!-- Node13 -->
<g id="node14" class="node">
<title>Node13</title>
<g id="a_node14"><a xlink:href="classitk_1_1simple_1_1VersorTransform.html" target="_top" xlink:title="A 3D rotation transform with rotation as a versor around a fixed center.">
<polygon fill="#ffffff" stroke="#000000" points="164,-.5 164,-19.5 318,-19.5 318,-.5 164,-.5"/>
<text text-anchor="middle" x="241" y="-7.5" font-family="Helvetica,sans-Serif" font-size="10.00" fill="#000000">itk::simple::VersorTransform</text>
</a>
</g>
</g>
<!-- Node0&#45;&gt;Node13 -->
<g id="edge13" class="edge">
<title>Node0&#45;&gt;Node13</title>
<path fill="none" stroke="#191970" d="M62.7171,-274.0553C66.8389,-224.7583 84.5527,-96.3731 159,-30 163.8126,-25.7094 169.3932,-22.3028 175.3357,-19.6032"/>
<polygon fill="#191970" stroke="#191970" points="59.2056,-274.0849 61.9656,-284.3139 66.1869,-274.5964 59.2056,-274.0849"/>
</g>
</g>
</svg>
