<?xml version="1.0" encoding="UTF-8" standalone="no"?>
<!DOCTYPE svg PUBLIC "-//W3C//DTD SVG 1.1//EN"
 "http://www.w3.org/Graphics/SVG/1.1/DTD/svg11.dtd">
<!-- Generated by graphviz version 2.40.1 (20161225.0304)
 -->
<!-- Title: Graphical Class Hierarchy Pages: 1 -->
<svg width="257pt" height="78pt"
 viewBox="0.00 0.00 257.00 77.50" xmlns="http://www.w3.org/2000/svg" xmlns:xlink="http://www.w3.org/1999/xlink">
<g id="graph0" class="graph" transform="scale(1 1) rotate(0) translate(4 73.5)">
<title>Graphical Class Hierarchy</title>
<polygon fill="#ffffff" stroke="transparent" points="-4,4 -4,-73.5 253,-73.5 253,4 -4,4"/>
<!-- Node429 -->
<g id="node1" class="node">
<title>Node429</title>
<g id="a_node1"><a xlink:title=" ">
<polygon fill="#ffffff" stroke="#bfbfbf" points="0,-28 0,-47 67,-47 67,-28 0,-28"/>
<text text-anchor="middle" x="33.5" y="-35" font-family="Helvetica,sans-Serif" font-size="10.00" fill="#000000">Command</text>
</a>
</g>
</g>
<!-- Node0 -->
<g id="node2" class="node">
<title>Node0</title>
<g id="a_node2"><a xlink:href="classitk_1_1HolderCommand.html" target="_top" xlink:title="An ITK Command class to hold a object until destruction.">
<polygon fill="#ffffff" stroke="#000000" points="103,-50 103,-69 249,-69 249,-50 103,-50"/>
<text text-anchor="middle" x="176" y="-57" font-family="Helvetica,sans-Serif" font-size="10.00" fill="#000000">itk::HolderCommand&lt; T &gt;</text>
</a>
</g>
</g>
<!-- Node429&#45;&gt;Node0 -->
<g id="edge1" class="edge">
<title>Node429&#45;&gt;Node0</title>
<path fill="none" stroke="#191970" d="M77.2169,-44.2493C88.9233,-46.0566 101.8016,-48.0448 114.2825,-49.9717"/>
<polygon fill="#191970" stroke="#191970" points="77.6875,-40.7805 67.2705,-42.7137 76.6194,-47.6986 77.6875,-40.7805"/>
</g>
<!-- Node431 -->
<g id="node3" class="node">
<title>Node431</title>
<g id="a_node3"><a xlink:href="classitk_1_1HolderCommand_3_01T_01_5_01_4.html" target="_top" xlink:title=" ">
<polygon fill="#ffffff" stroke="#000000" points="117,-.5 117,-30.5 235,-30.5 235,-.5 117,-.5"/>
<text text-anchor="start" x="125" y="-18.5" font-family="Helvetica,sans-Serif" font-size="10.00" fill="#000000">itk::HolderCommand</text>
<text text-anchor="middle" x="176" y="-7.5" font-family="Helvetica,sans-Serif" font-size="10.00" fill="#000000">&lt; T * &gt;</text>
</a>
</g>
</g>
<!-- Node429&#45;&gt;Node431 -->
<g id="edge2" class="edge">
<title>Node429&#45;&gt;Node431</title>
<path fill="none" stroke="#191970" d="M77.385,-30.7248C89.8439,-28.8013 103.6192,-26.6746 116.8245,-24.6359"/>
<polygon fill="#191970" stroke="#191970" points="76.6194,-27.3014 67.2705,-32.2863 77.6875,-34.2195 76.6194,-27.3014"/>
</g>
</g>
</svg>
