<?xml version="1.0" encoding="UTF-8" standalone="no"?>
<!DOCTYPE svg PUBLIC "-//W3C//DTD SVG 1.1//EN"
 "http://www.w3.org/Graphics/SVG/1.1/DTD/svg11.dtd">
<!-- Generated by graphviz version 2.40.1 (20161225.0304)
 -->
<!-- Title: Graphical Class Hierarchy Pages: 1 -->
<svg width="394pt" height="61pt"
 viewBox="0.00 0.00 394.00 61.00" xmlns="http://www.w3.org/2000/svg" xmlns:xlink="http://www.w3.org/1999/xlink">
<g id="graph0" class="graph" transform="scale(1 1) rotate(0) translate(4 57)">
<title>Graphical Class Hierarchy</title>
<polygon fill="#ffffff" stroke="transparent" points="-4,4 -4,-57 390,-57 390,4 -4,4"/>
<!-- Node0 -->
<g id="node1" class="node">
<title>Node0</title>
<g id="a_node1"><a xlink:href="structitk_1_1simple_1_1IsBasic.html" target="_top" xlink:title=" ">
<polygon fill="#ffffff" stroke="#000000" points="0,-.5 0,-52.5 206,-52.5 206,-.5 0,-.5"/>
<text text-anchor="start" x="8" y="-40.5" font-family="Helvetica,sans-Serif" font-size="10.00" fill="#000000">itk::simple::IsBasic</text>
<text text-anchor="start" x="8" y="-29.5" font-family="Helvetica,sans-Serif" font-size="10.00" fill="#000000">&lt; ImageTypeToPixelID</text>
<text text-anchor="start" x="8" y="-18.5" font-family="Helvetica,sans-Serif" font-size="10.00" fill="#000000">&lt; itk::Image&lt; TPixelType,</text>
<text text-anchor="middle" x="103" y="-7.5" font-family="Helvetica,sans-Serif" font-size="10.00" fill="#000000"> VImageDimension &gt; &gt;::PixelIDType &gt;</text>
</a>
</g>
</g>
<!-- Node1 -->
<g id="node2" class="node">
<title>Node1</title>
<g id="a_node2"><a xlink:href="structitk_1_1simple_1_1IsBasic_3_01itk_1_1Image_3_01TPixelType_00_01VImageDimension_01_4_01_4.html" target="_top" xlink:title=" ">
<polygon fill="#ffffff" stroke="#000000" points="242,-6 242,-47 386,-47 386,-6 242,-6"/>
<text text-anchor="start" x="250" y="-35" font-family="Helvetica,sans-Serif" font-size="10.00" fill="#000000">itk::simple::IsBasic</text>
<text text-anchor="start" x="250" y="-24" font-family="Helvetica,sans-Serif" font-size="10.00" fill="#000000">&lt; itk::Image&lt; TPixelType,</text>
<text text-anchor="middle" x="314" y="-13" font-family="Helvetica,sans-Serif" font-size="10.00" fill="#000000"> VImageDimension &gt; &gt;</text>
</a>
</g>
</g>
<!-- Node0&#45;&gt;Node1 -->
<g id="edge1" class="edge">
<title>Node0&#45;&gt;Node1</title>
<path fill="none" stroke="#191970" d="M216.2625,-26.5C224.9656,-26.5 233.5978,-26.5 241.9206,-26.5"/>
<polygon fill="#191970" stroke="#191970" points="216.0276,-23.0001 206.0275,-26.5 216.0275,-30.0001 216.0276,-23.0001"/>
</g>
</g>
</svg>
