<?xml version="1.0" encoding="UTF-8" standalone="no"?>
<!DOCTYPE svg PUBLIC "-//W3C//DTD SVG 1.1//EN"
 "http://www.w3.org/Graphics/SVG/1.1/DTD/svg11.dtd">
<!-- Generated by graphviz version 2.40.1 (20161225.0304)
 -->
<!-- Title: Graphical Class Hierarchy Pages: 1 -->
<svg width="432pt" height="50pt"
 viewBox="0.00 0.00 432.00 50.00" xmlns="http://www.w3.org/2000/svg" xmlns:xlink="http://www.w3.org/1999/xlink">
<g id="graph0" class="graph" transform="scale(1 1) rotate(0) translate(4 46)">
<title>Graphical Class Hierarchy</title>
<polygon fill="#ffffff" stroke="transparent" points="-4,4 -4,-46 428,-46 428,4 -4,4"/>
<!-- Node0 -->
<g id="node1" class="node">
<title>Node0</title>
<g id="a_node1"><a xlink:href="classitk_1_1simple_1_1detail_1_1MemberFunctionFactoryBase.html" target="_top" xlink:title=" ">
<polygon fill="#ffffff" stroke="#000000" points="0,-.5 0,-41.5 203,-41.5 203,-.5 0,-.5"/>
<text text-anchor="start" x="8" y="-29.5" font-family="Helvetica,sans-Serif" font-size="10.00" fill="#000000">itk::simple::detail</text>
<text text-anchor="start" x="8" y="-18.5" font-family="Helvetica,sans-Serif" font-size="10.00" fill="#000000">::MemberFunctionFactoryBase</text>
<text text-anchor="middle" x="101.5" y="-7.5" font-family="Helvetica,sans-Serif" font-size="10.00" fill="#000000">&lt; EvaluateMemberFunctionType, int &gt;</text>
</a>
</g>
</g>
<!-- Node1 -->
<g id="node2" class="node">
<title>Node1</title>
<g id="a_node2"><a xlink:href="classitk_1_1simple_1_1detail_1_1MemberFunctionFactory.html" target="_top" xlink:title=" ">
<polygon fill="#ffffff" stroke="#000000" points="239,-.5 239,-41.5 424,-41.5 424,-.5 239,-.5"/>
<text text-anchor="start" x="247" y="-29.5" font-family="Helvetica,sans-Serif" font-size="10.00" fill="#000000">itk::simple::detail</text>
<text text-anchor="start" x="247" y="-18.5" font-family="Helvetica,sans-Serif" font-size="10.00" fill="#000000">::MemberFunctionFactory</text>
<text text-anchor="middle" x="331.5" y="-7.5" font-family="Helvetica,sans-Serif" font-size="10.00" fill="#000000">&lt; EvaluateMemberFunctionType &gt;</text>
</a>
</g>
</g>
<!-- Node0&#45;&gt;Node1 -->
<g id="edge1" class="edge">
<title>Node0&#45;&gt;Node1</title>
<path fill="none" stroke="#006400" d="M213.1377,-21C221.7499,-21 230.3873,-21 238.8564,-21"/>
<polygon fill="#006400" stroke="#006400" points="213.0509,-17.5001 203.0509,-21 213.0508,-24.5001 213.0509,-17.5001"/>
</g>
</g>
</svg>
