<?xml version="1.0" encoding="UTF-8" standalone="no"?>
<!DOCTYPE svg PUBLIC "-//W3C//DTD SVG 1.1//EN"
 "http://www.w3.org/Graphics/SVG/1.1/DTD/svg11.dtd">
<!-- Generated by graphviz version 2.40.1 (20161225.0304)
 -->
<!-- Title: Graphical Class Hierarchy Pages: 1 -->
<svg width="401pt" height="61pt"
 viewBox="0.00 0.00 401.00 61.00" xmlns="http://www.w3.org/2000/svg" xmlns:xlink="http://www.w3.org/1999/xlink">
<g id="graph0" class="graph" transform="scale(1 1) rotate(0) translate(4 57)">
<title>Graphical Class Hierarchy</title>
<polygon fill="#ffffff" stroke="transparent" points="-4,4 -4,-57 397,-57 397,4 -4,4"/>
<!-- Node0 -->
<g id="node1" class="node">
<title>Node0</title>
<g id="a_node1"><a xlink:href="structitk_1_1simple_1_1IsInstantiated.html" target="_top" xlink:title=" ">
<polygon fill="#ffffff" stroke="#000000" points="0,-.5 0,-52.5 213,-52.5 213,-.5 0,-.5"/>
<text text-anchor="start" x="8" y="-40.5" font-family="Helvetica,sans-Serif" font-size="10.00" fill="#000000">itk::simple::IsInstantiated</text>
<text text-anchor="start" x="8" y="-29.5" font-family="Helvetica,sans-Serif" font-size="10.00" fill="#000000">&lt; ImageTypeToPixelID&lt; itk</text>
<text text-anchor="start" x="8" y="-18.5" font-family="Helvetica,sans-Serif" font-size="10.00" fill="#000000">::Image&lt; TPixelType, VImageDimension</text>
<text text-anchor="middle" x="106.5" y="-7.5" font-family="Helvetica,sans-Serif" font-size="10.00" fill="#000000"> &gt; &gt;::PixelIDType, VImageDimension &gt;</text>
</a>
</g>
</g>
<!-- Node1 -->
<g id="node2" class="node">
<title>Node1</title>
<g id="a_node2"><a xlink:href="structitk_1_1simple_1_1IsInstantiated_3_01itk_1_1Image_3_01TPixelType_00_01VImageDimension_01_4_00_010_01_4.html" target="_top" xlink:title=" ">
<polygon fill="#ffffff" stroke="#000000" points="249,-6 249,-47 393,-47 393,-6 249,-6"/>
<text text-anchor="start" x="257" y="-35" font-family="Helvetica,sans-Serif" font-size="10.00" fill="#000000">itk::simple::IsInstantiated</text>
<text text-anchor="start" x="257" y="-24" font-family="Helvetica,sans-Serif" font-size="10.00" fill="#000000">&lt; itk::Image&lt; TPixelType,</text>
<text text-anchor="middle" x="321" y="-13" font-family="Helvetica,sans-Serif" font-size="10.00" fill="#000000"> VImageDimension &gt;, 0 &gt;</text>
</a>
</g>
</g>
<!-- Node0&#45;&gt;Node1 -->
<g id="edge1" class="edge">
<title>Node0&#45;&gt;Node1</title>
<path fill="none" stroke="#191970" d="M223.3127,-26.5C231.9728,-26.5 240.5491,-26.5 248.8134,-26.5"/>
<polygon fill="#191970" stroke="#191970" points="223.1216,-23.0001 213.1216,-26.5 223.1216,-30.0001 223.1216,-23.0001"/>
</g>
</g>
</svg>
