<?xml version="1.0" encoding="UTF-8" standalone="no"?>
<!DOCTYPE svg PUBLIC "-//W3C//DTD SVG 1.1//EN"
 "http://www.w3.org/Graphics/SVG/1.1/DTD/svg11.dtd">
<!-- Generated by graphviz version 2.40.1 (20161225.0304)
 -->
<!-- Title: Graphical Class Hierarchy Pages: 1 -->
<svg width="257pt" height="50pt"
 viewBox="0.00 0.00 257.00 50.00" xmlns="http://www.w3.org/2000/svg" xmlns:xlink="http://www.w3.org/1999/xlink">
<g id="graph0" class="graph" transform="scale(1 1) rotate(0) translate(4 46)">
<title>Graphical Class Hierarchy</title>
<polygon fill="#ffffff" stroke="transparent" points="-4,4 -4,-46 253,-46 253,4 -4,4"/>
<!-- Node3 -->
<g id="node1" class="node">
<title>Node3</title>
<g id="a_node1"><a xlink:title=" ">
<polygon fill="#ffffff" stroke="#bfbfbf" points="0,-11.5 0,-30.5 89,-30.5 89,-11.5 0,-11.5"/>
<text text-anchor="middle" x="44.5" y="-18.5" font-family="Helvetica,sans-Serif" font-size="10.00" fill="#000000">unary_function</text>
</a>
</g>
</g>
<!-- Node0 -->
<g id="node2" class="node">
<title>Node0</title>
<g id="a_node2"><a xlink:href="structitk_1_1simple_1_1detail_1_1hash_3_01std_1_1pair_3_01int_00_01int_01_4_01_4.html" target="_top" xlink:title="A specialization of the hash function.">
<polygon fill="#ffffff" stroke="#000000" points="125,-.5 125,-41.5 249,-41.5 249,-.5 125,-.5"/>
<text text-anchor="start" x="133" y="-29.5" font-family="Helvetica,sans-Serif" font-size="10.00" fill="#000000">itk::simple::detail</text>
<text text-anchor="start" x="133" y="-18.5" font-family="Helvetica,sans-Serif" font-size="10.00" fill="#000000">::hash&lt; std::pair&lt; int,</text>
<text text-anchor="middle" x="187" y="-7.5" font-family="Helvetica,sans-Serif" font-size="10.00" fill="#000000"> int &gt; &gt;</text>
</a>
</g>
</g>
<!-- Node3&#45;&gt;Node0 -->
<g id="edge1" class="edge">
<title>Node3&#45;&gt;Node0</title>
<path fill="none" stroke="#191970" d="M99.2644,-21C107.6777,-21 116.4154,-21 124.9727,-21"/>
<polygon fill="#191970" stroke="#191970" points="99.1969,-17.5001 89.1969,-21 99.1969,-24.5001 99.1969,-17.5001"/>
</g>
</g>
</svg>
