<?xml version="1.0" encoding="UTF-8" standalone="no"?>
<!DOCTYPE svg PUBLIC "-//W3C//DTD SVG 1.1//EN"
 "http://www.w3.org/Graphics/SVG/1.1/DTD/svg11.dtd">
<!-- Generated by graphviz version 2.40.1 (20161225.0304)
 -->
<!-- Title: itkHashImageFilter.h Pages: 1 -->
<svg width="979pt" height="97pt"
 viewBox="0.00 0.00 979.00 96.79" xmlns="http://www.w3.org/2000/svg" xmlns:xlink="http://www.w3.org/1999/xlink">
<g id="graph0" class="graph" transform="scale(1 1) rotate(0) translate(4 92.7945)">
<title>itkHashImageFilter.h</title>
<polygon fill="#ffffff" stroke="transparent" points="-4,4 -4,-92.7945 975,-92.7945 975,4 -4,4"/>
<!-- Node1 -->
<g id="node1" class="node">
<title>Node1</title>
<g id="a_node1"><a xlink:title=" ">
<polygon fill="#bfbfbf" stroke="#000000" points="488.5,-67.5 488.5,-86.5 605.5,-86.5 605.5,-67.5 488.5,-67.5"/>
<text text-anchor="middle" x="547" y="-74.5" font-family="Helvetica,sans-Serif" font-size="10.00" fill="#000000">itkHashImageFilter.h</text>
</a>
</g>
</g>
<!-- Node1&#45;&gt;Node1 -->
<g id="edge6" class="edge">
<title>Node1&#45;&gt;Node1</title>
<path fill="none" stroke="#191970" d="M575.2466,-86.5334C598.8436,-90.6075 623.5,-87.4297 623.5,-77 623.5,-68.037 605.2906,-64.4297 585.1929,-66.1781"/>
<polygon fill="#191970" stroke="#191970" points="584.714,-62.7108 575.2466,-67.4666 585.6134,-69.6528 584.714,-62.7108"/>
</g>
<!-- Node2 -->
<g id="node2" class="node">
<title>Node2</title>
<g id="a_node2"><a xlink:title=" ">
<polygon fill="#ffffff" stroke="#bfbfbf" points="0,-6 0,-25 174,-25 174,-6 0,-6"/>
<text text-anchor="middle" x="87" y="-13" font-family="Helvetica,sans-Serif" font-size="10.00" fill="#000000">itkSimpleDataObjectDecorator.h</text>
</a>
</g>
</g>
<!-- Node1&#45;&gt;Node2 -->
<g id="edge1" class="edge">
<title>Node1&#45;&gt;Node2</title>
<path fill="none" stroke="#191970" d="M488.2858,-70.2096C416.2664,-61.7352 290.4966,-46.4658 183,-31 173.5743,-29.6439 163.6416,-28.1329 153.8829,-26.6011"/>
<polygon fill="#191970" stroke="#191970" points="154.2297,-23.1124 143.8049,-25.0029 153.1333,-30.026 154.2297,-23.1124"/>
</g>
<!-- Node3 -->
<g id="node3" class="node">
<title>Node3</title>
<g id="a_node3"><a xlink:title=" ">
<polygon fill="#ffffff" stroke="#bfbfbf" points="192,-.5 192,-30.5 346,-30.5 346,-.5 192,-.5"/>
<text text-anchor="start" x="200" y="-18.5" font-family="Helvetica,sans-Serif" font-size="10.00" fill="#000000">itkImageLinearConstIterator</text>
<text text-anchor="middle" x="269" y="-7.5" font-family="Helvetica,sans-Serif" font-size="10.00" fill="#000000">WithIndex.h</text>
</a>
</g>
</g>
<!-- Node1&#45;&gt;Node3 -->
<g id="edge2" class="edge">
<title>Node1&#45;&gt;Node3</title>
<path fill="none" stroke="#191970" d="M503.8675,-67.4581C462.0465,-58.2063 397.6511,-43.9606 346.8586,-32.7241"/>
<polygon fill="#191970" stroke="#191970" points="347.4121,-29.262 336.8922,-30.5193 345.9001,-36.0968 347.4121,-29.262"/>
</g>
<!-- Node4 -->
<g id="node4" class="node">
<title>Node4</title>
<g id="a_node4"><a xlink:title=" ">
<polygon fill="#ffffff" stroke="#bfbfbf" points="364,-6 364,-25 478,-25 478,-6 364,-6"/>
<text text-anchor="middle" x="421" y="-13" font-family="Helvetica,sans-Serif" font-size="10.00" fill="#000000">itkCastImageFilter.h</text>
</a>
</g>
</g>
<!-- Node1&#45;&gt;Node4 -->
<g id="edge3" class="edge">
<title>Node1&#45;&gt;Node4</title>
<path fill="none" stroke="#191970" d="M527.3125,-67.3906C506.5078,-57.2359 473.489,-41.1196 449.7681,-29.5416"/>
<polygon fill="#191970" stroke="#191970" points="451.0712,-26.283 440.5493,-25.0419 448.0007,-32.5736 451.0712,-26.283"/>
</g>
<!-- Node5 -->
<g id="node5" class="node">
<title>Node5</title>
<g id="a_node5"><a xlink:title=" ">
<polygon fill="#ffffff" stroke="#bfbfbf" points="496,-6 496,-25 598,-25 598,-6 496,-6"/>
<text text-anchor="middle" x="547" y="-13" font-family="Helvetica,sans-Serif" font-size="10.00" fill="#000000">itkByteSwapper.h</text>
</a>
</g>
</g>
<!-- Node1&#45;&gt;Node5 -->
<g id="edge4" class="edge">
<title>Node1&#45;&gt;Node5</title>
<path fill="none" stroke="#191970" d="M547,-67.3906C547,-58.8657 547,-46.1392 547,-35.4235"/>
<polygon fill="#191970" stroke="#191970" points="550.5001,-35.2448 547,-25.2449 543.5001,-35.2449 550.5001,-35.2448"/>
</g>
<!-- Node6 -->
<g id="node6" class="node">
<title>Node6</title>
<g id="a_node6"><a xlink:title=" ">
<polygon fill="#ffffff" stroke="#bfbfbf" points="616.5,-6 616.5,-25 745.5,-25 745.5,-6 616.5,-6"/>
<text text-anchor="middle" x="681" y="-13" font-family="Helvetica,sans-Serif" font-size="10.00" fill="#000000">itkHashImageFilter.hxx</text>
</a>
</g>
</g>
<!-- Node1&#45;&gt;Node6 -->
<g id="edge5" class="edge">
<title>Node1&#45;&gt;Node6</title>
<path fill="none" stroke="#191970" d="M567.9375,-67.3906C590.2598,-57.1457 625.8037,-40.8326 651.0757,-29.2339"/>
<polygon fill="#191970" stroke="#191970" points="652.581,-32.3942 660.2095,-25.0419 649.6611,-26.0322 652.581,-32.3942"/>
</g>
<!-- Node7 -->
<g id="node7" class="node">
<title>Node7</title>
<g id="a_node7"><a xlink:title=" ">
<polygon fill="#ffffff" stroke="#bfbfbf" points="763.5,-6 763.5,-25 872.5,-25 872.5,-6 763.5,-6"/>
<text text-anchor="middle" x="818" y="-13" font-family="Helvetica,sans-Serif" font-size="10.00" fill="#000000">Ancillary/hl_sha1.h</text>
</a>
</g>
</g>
<!-- Node1&#45;&gt;Node7 -->
<g id="edge7" class="edge">
<title>Node1&#45;&gt;Node7</title>
<path fill="none" stroke="#191970" d="M591.701,-67.4332C633.8692,-58.333 698.8175,-44.1219 755,-31 759.7541,-29.8896 764.7044,-28.7109 769.6481,-27.5189"/>
<polygon fill="#191970" stroke="#191970" points="770.8309,-30.8334 779.7215,-25.0708 769.1778,-24.0313 770.8309,-30.8334"/>
</g>
<!-- Node8 -->
<g id="node8" class="node">
<title>Node8</title>
<g id="a_node8"><a xlink:title=" ">
<polygon fill="#ffffff" stroke="#bfbfbf" points="891,-6 891,-25 971,-25 971,-6 891,-6"/>
<text text-anchor="middle" x="931" y="-13" font-family="Helvetica,sans-Serif" font-size="10.00" fill="#000000">itksys/MD5.h</text>
</a>
</g>
</g>
<!-- Node1&#45;&gt;Node8 -->
<g id="edge8" class="edge">
<title>Node1&#45;&gt;Node8</title>
<path fill="none" stroke="#191970" d="M605.6359,-71.9931C672.9369,-65.5455 786.3552,-52.53 882,-31 885.9035,-30.1213 889.9429,-29.0749 893.951,-27.9464"/>
<polygon fill="#191970" stroke="#191970" points="895.1723,-31.2345 903.7539,-25.0211 893.1707,-24.5268 895.1723,-31.2345"/>
</g>
</g>
</svg>
