<?xml version="1.0" encoding="UTF-8" standalone="no"?>
<!DOCTYPE svg PUBLIC "-//W3C//DTD SVG 1.1//EN"
 "http://www.w3.org/Graphics/SVG/1.1/DTD/svg11.dtd">
<!-- Generated by graphviz version 2.40.1 (20161225.0304)
 -->
<!-- Title: itkHolderCommand.h Pages: 1 -->
<svg width="472pt" height="644pt"
 viewBox="0.00 0.00 471.50 644.00" xmlns="http://www.w3.org/2000/svg" xmlns:xlink="http://www.w3.org/1999/xlink">
<g id="graph0" class="graph" transform="scale(1 1) rotate(0) translate(4 640)">
<title>itkHolderCommand.h</title>
<polygon fill="#ffffff" stroke="transparent" points="-4,4 -4,-640 467.5,-640 467.5,4 -4,4"/>
<!-- Node1 -->
<g id="node1" class="node">
<title>Node1</title>
<g id="a_node1"><a xlink:title=" ">
<polygon fill="#bfbfbf" stroke="#000000" points="144.5,-616.5 144.5,-635.5 265.5,-635.5 265.5,-616.5 144.5,-616.5"/>
<text text-anchor="middle" x="205" y="-623.5" font-family="Helvetica,sans-Serif" font-size="10.00" fill="#000000">itkHolderCommand.h</text>
</a>
</g>
</g>
<!-- Node2 -->
<g id="node2" class="node">
<title>Node2</title>
<g id="a_node2"><a xlink:href="https://www.itk.org/Doxygen/html/itkCommand_8h.html" xlink:title=" ">
<polygon fill="#ffffff" stroke="#000000" points="160.5,-560.5 160.5,-579.5 249.5,-579.5 249.5,-560.5 160.5,-560.5"/>
<text text-anchor="middle" x="205" y="-567.5" font-family="Helvetica,sans-Serif" font-size="10.00" fill="#000000">itkCommand.h</text>
</a>
</g>
</g>
<!-- Node1&#45;&gt;Node2 -->
<g id="edge1" class="edge">
<title>Node1&#45;&gt;Node2</title>
<path fill="none" stroke="#191970" d="M205,-616.2455C205,-608.9382 205,-598.6944 205,-589.7046"/>
<polygon fill="#191970" stroke="#191970" points="208.5001,-589.6426 205,-579.6427 201.5001,-589.6427 208.5001,-589.6426"/>
</g>
<!-- Node3 -->
<g id="node3" class="node">
<title>Node3</title>
<g id="a_node3"><a xlink:href="https://www.itk.org/Doxygen/html/itkObject_8h.html" xlink:title=" ">
<polygon fill="#ffffff" stroke="#000000" points="226,-336.5 226,-355.5 296,-355.5 296,-336.5 226,-336.5"/>
<text text-anchor="middle" x="261" y="-343.5" font-family="Helvetica,sans-Serif" font-size="10.00" fill="#000000">itkObject.h</text>
</a>
</g>
</g>
<!-- Node2&#45;&gt;Node3 -->
<g id="edge2" class="edge">
<title>Node2&#45;&gt;Node3</title>
<path fill="none" stroke="#191970" d="M200.8632,-560.3507C197.1769,-551.1921 192.0567,-536.9416 190,-524 188.6048,-515.2213 188.7309,-512.7978 190,-504 197.4092,-452.6381 198.6467,-437.8242 223,-392 228.5418,-381.5723 236.6835,-371.3098 244.0105,-363.1333"/>
<polygon fill="#191970" stroke="#191970" points="246.666,-365.4179 250.9396,-355.7231 241.5531,-360.6368 246.666,-365.4179"/>
</g>
<!-- Node14 -->
<g id="node14" class="node">
<title>Node14</title>
<g id="a_node14"><a xlink:href="https://www.itk.org/Doxygen/html/itkObjectFactory_8h.html" xlink:title=" ">
<polygon fill="#ffffff" stroke="#000000" points="199,-504.5 199,-523.5 303,-523.5 303,-504.5 199,-504.5"/>
<text text-anchor="middle" x="251" y="-511.5" font-family="Helvetica,sans-Serif" font-size="10.00" fill="#000000">itkObjectFactory.h</text>
</a>
</g>
</g>
<!-- Node2&#45;&gt;Node14 -->
<g id="edge19" class="edge">
<title>Node2&#45;&gt;Node14</title>
<path fill="none" stroke="#191970" d="M213.0126,-560.2455C219.4768,-552.3761 228.7385,-541.101 236.4983,-531.6542"/>
<polygon fill="#191970" stroke="#191970" points="239.4364,-533.5916 243.0792,-523.6427 234.0273,-529.1484 239.4364,-533.5916"/>
</g>
<!-- Node4 -->
<g id="node4" class="node">
<title>Node4</title>
<g id="a_node4"><a xlink:href="https://www.itk.org/Doxygen/html/itkLightObject_8h.html" xlink:title=" ">
<polygon fill="#ffffff" stroke="#000000" points="145,-168.5 145,-187.5 239,-187.5 239,-168.5 145,-168.5"/>
<text text-anchor="middle" x="192" y="-175.5" font-family="Helvetica,sans-Serif" font-size="10.00" fill="#000000">itkLightObject.h</text>
</a>
</g>
</g>
<!-- Node3&#45;&gt;Node4 -->
<g id="edge3" class="edge">
<title>Node3&#45;&gt;Node4</title>
<path fill="none" stroke="#191970" d="M225.8888,-337.9204C190.9527,-329.2069 140.6357,-314.6101 127,-300 103.5085,-274.8299 94.759,-253.8015 112,-224 120.5707,-209.1854 135.9193,-198.7247 150.8965,-191.5639"/>
<polygon fill="#191970" stroke="#191970" points="152.3583,-194.7446 160.11,-187.5223 149.5463,-188.3342 152.3583,-194.7446"/>
</g>
<!-- Node9 -->
<g id="node9" class="node">
<title>Node9</title>
<g id="a_node9"><a xlink:href="https://www.itk.org/Doxygen/html/itkSingletonMacro_8h.html" xlink:title=" ">
<polygon fill="#ffffff" stroke="#000000" points="350.5,-56.5 350.5,-75.5 463.5,-75.5 463.5,-56.5 350.5,-56.5"/>
<text text-anchor="middle" x="407" y="-63.5" font-family="Helvetica,sans-Serif" font-size="10.00" fill="#000000">itkSingletonMacro.h</text>
</a>
</g>
</g>
<!-- Node3&#45;&gt;Node9 -->
<g id="edge18" class="edge">
<title>Node3&#45;&gt;Node9</title>
<path fill="none" stroke="#191970" d="M294.8623,-336.4958C337.9922,-322.0785 407,-290.2255 407,-234 407,-234 407,-234 407,-178 407,-145.7116 407,-108.1872 407,-85.8048"/>
<polygon fill="#191970" stroke="#191970" points="410.5001,-85.5883 407,-75.5884 403.5001,-85.5884 410.5001,-85.5883"/>
</g>
<!-- Node11 -->
<g id="node11" class="node">
<title>Node11</title>
<g id="a_node11"><a xlink:href="https://www.itk.org/Doxygen/html/itkEventObject_8h.html" xlink:title=" ">
<polygon fill="#ffffff" stroke="#000000" points="281,-224.5 281,-243.5 379,-243.5 379,-224.5 281,-224.5"/>
<text text-anchor="middle" x="330" y="-231.5" font-family="Helvetica,sans-Serif" font-size="10.00" fill="#000000">itkEventObject.h</text>
</a>
</g>
</g>
<!-- Node3&#45;&gt;Node11 -->
<g id="edge13" class="edge">
<title>Node3&#45;&gt;Node11</title>
<path fill="none" stroke="#191970" d="M266.8829,-336.4509C278.3913,-317.7707 304.0488,-276.1238 318.8638,-252.0761"/>
<polygon fill="#191970" stroke="#191970" points="321.8666,-253.8747 324.132,-243.5249 315.9068,-250.203 321.8666,-253.8747"/>
</g>
<!-- Node12 -->
<g id="node12" class="node">
<title>Node12</title>
<g id="a_node12"><a xlink:href="https://www.itk.org/Doxygen/html/itkMetaDataDictionary_8h.html" xlink:title=" ">
<polygon fill="#ffffff" stroke="#000000" points="136,-280.5 136,-299.5 270,-299.5 270,-280.5 136,-280.5"/>
<text text-anchor="middle" x="203" y="-287.5" font-family="Helvetica,sans-Serif" font-size="10.00" fill="#000000">itkMetaDataDictionary.h</text>
</a>
</g>
</g>
<!-- Node3&#45;&gt;Node12 -->
<g id="edge15" class="edge">
<title>Node3&#45;&gt;Node12</title>
<path fill="none" stroke="#191970" d="M250.8972,-336.2455C242.4972,-328.1352 230.3506,-316.4075 220.3916,-306.7919"/>
<polygon fill="#191970" stroke="#191970" points="222.6122,-304.0707 212.9871,-299.6427 217.75,-309.1066 222.6122,-304.0707"/>
</g>
<!-- Node5 -->
<g id="node5" class="node">
<title>Node5</title>
<g id="a_node5"><a xlink:href="https://www.itk.org/Doxygen/html/itkMacro_8h.html" xlink:title=" ">
<polygon fill="#ffffff" stroke="#000000" points="205,-.5 205,-19.5 273,-19.5 273,-.5 205,-.5"/>
<text text-anchor="middle" x="239" y="-7.5" font-family="Helvetica,sans-Serif" font-size="10.00" fill="#000000">itkMacro.h</text>
</a>
</g>
</g>
<!-- Node4&#45;&gt;Node5 -->
<g id="edge4" class="edge">
<title>Node4&#45;&gt;Node5</title>
<path fill="none" stroke="#191970" d="M212.7852,-168.3756C226.687,-160.6917 243.8691,-148.4793 252,-132 268.4112,-98.7389 256.4831,-54.2826 247.1746,-29.2484"/>
<polygon fill="#191970" stroke="#191970" points="250.3692,-27.8091 243.4359,-19.7979 243.8601,-30.3842 250.3692,-27.8091"/>
</g>
<!-- Node6 -->
<g id="node6" class="node">
<title>Node6</title>
<g id="a_node6"><a xlink:href="https://www.itk.org/Doxygen/html/itkSmartPointer_8h.html" xlink:title=" ">
<polygon fill="#ffffff" stroke="#000000" points="141.5,-112.5 141.5,-131.5 242.5,-131.5 242.5,-112.5 141.5,-112.5"/>
<text text-anchor="middle" x="192" y="-119.5" font-family="Helvetica,sans-Serif" font-size="10.00" fill="#000000">itkSmartPointer.h</text>
</a>
</g>
</g>
<!-- Node4&#45;&gt;Node6 -->
<g id="edge5" class="edge">
<title>Node4&#45;&gt;Node6</title>
<path fill="none" stroke="#191970" d="M192,-168.2455C192,-160.9382 192,-150.6944 192,-141.7046"/>
<polygon fill="#191970" stroke="#191970" points="195.5001,-141.6426 192,-131.6427 188.5001,-141.6427 195.5001,-141.6426"/>
</g>
<!-- Node7 -->
<g id="node7" class="node">
<title>Node7</title>
<g id="a_node7"><a xlink:href="https://www.itk.org/Doxygen/html/itkTimeStamp_8h.html" xlink:title=" ">
<polygon fill="#ffffff" stroke="#000000" points="28.5,-112.5 28.5,-131.5 123.5,-131.5 123.5,-112.5 28.5,-112.5"/>
<text text-anchor="middle" x="76" y="-119.5" font-family="Helvetica,sans-Serif" font-size="10.00" fill="#000000">itkTimeStamp.h</text>
</a>
</g>
</g>
<!-- Node4&#45;&gt;Node7 -->
<g id="edge6" class="edge">
<title>Node4&#45;&gt;Node7</title>
<path fill="none" stroke="#191970" d="M172.0589,-168.3733C153.5214,-159.4241 125.6972,-145.9917 104.7587,-135.8835"/>
<polygon fill="#191970" stroke="#191970" points="106.2081,-132.6967 95.6809,-131.5011 103.1648,-139.0006 106.2081,-132.6967"/>
</g>
<!-- Node10 -->
<g id="node10" class="node">
<title>Node10</title>
<g id="a_node10"><a xlink:href="https://www.itk.org/Doxygen/html/itkIndent_8h.html" xlink:title=" ">
<polygon fill="#ffffff" stroke="#000000" points="299.5,-112.5 299.5,-131.5 368.5,-131.5 368.5,-112.5 299.5,-112.5"/>
<text text-anchor="middle" x="334" y="-119.5" font-family="Helvetica,sans-Serif" font-size="10.00" fill="#000000">itkIndent.h</text>
</a>
</g>
</g>
<!-- Node4&#45;&gt;Node10 -->
<g id="edge11" class="edge">
<title>Node4&#45;&gt;Node10</title>
<path fill="none" stroke="#191970" d="M216.4107,-168.3733C239.6142,-159.2226 274.7038,-145.3844 300.5142,-135.2057"/>
<polygon fill="#191970" stroke="#191970" points="301.8892,-138.4258 309.9079,-131.5011 299.3211,-131.9139 301.8892,-138.4258"/>
</g>
<!-- Node7&#45;&gt;Node5 -->
<g id="edge7" class="edge">
<title>Node7&#45;&gt;Node5</title>
<path fill="none" stroke="#191970" d="M89.8973,-112.4509C118.1664,-93.0268 182.5753,-48.7703 216.7483,-25.2895"/>
<polygon fill="#191970" stroke="#191970" points="218.8781,-28.0727 225.1379,-19.5249 214.9139,-22.3034 218.8781,-28.0727"/>
</g>
<!-- Node8 -->
<g id="node8" class="node">
<title>Node8</title>
<g id="a_node8"><a xlink:href="https://www.itk.org/Doxygen/html/itkIntTypes_8h.html" xlink:title=" ">
<polygon fill="#ffffff" stroke="#000000" points="36.5,-56.5 36.5,-75.5 115.5,-75.5 115.5,-56.5 36.5,-56.5"/>
<text text-anchor="middle" x="76" y="-63.5" font-family="Helvetica,sans-Serif" font-size="10.00" fill="#000000">itkIntTypes.h</text>
</a>
</g>
</g>
<!-- Node7&#45;&gt;Node8 -->
<g id="edge8" class="edge">
<title>Node7&#45;&gt;Node8</title>
<path fill="none" stroke="#191970" d="M76,-112.2455C76,-104.9382 76,-94.6944 76,-85.7046"/>
<polygon fill="#191970" stroke="#191970" points="79.5001,-85.6426 76,-75.6427 72.5001,-85.6427 79.5001,-85.6426"/>
</g>
<!-- Node7&#45;&gt;Node9 -->
<g id="edge10" class="edge">
<title>Node7&#45;&gt;Node9</title>
<path fill="none" stroke="#191970" d="M123.6526,-113.4539C126.4764,-112.9589 129.2752,-112.4712 132,-112 203.0601,-99.7125 284.5453,-86.148 340.2569,-76.954"/>
<polygon fill="#191970" stroke="#191970" points="341.0539,-80.3699 350.3512,-75.2895 339.9149,-73.4632 341.0539,-80.3699"/>
</g>
<!-- Node8&#45;&gt;Node5 -->
<g id="edge9" class="edge">
<title>Node8&#45;&gt;Node5</title>
<path fill="none" stroke="#191970" d="M104.0207,-56.3733C131.0078,-47.1016 172.0017,-33.0178 201.7311,-22.804"/>
<polygon fill="#191970" stroke="#191970" points="203.0248,-26.0605 211.3449,-19.5011 200.7503,-19.4403 203.0248,-26.0605"/>
</g>
<!-- Node10&#45;&gt;Node5 -->
<g id="edge12" class="edge">
<title>Node10&#45;&gt;Node5</title>
<path fill="none" stroke="#191970" d="M327.443,-112.2631C318.4167,-99.0795 301.4105,-75.0147 285,-56 276.2996,-45.9189 265.8557,-35.3661 257.1199,-26.9146"/>
<polygon fill="#191970" stroke="#191970" points="259.3292,-24.1851 249.6765,-19.8176 254.4987,-29.2514 259.3292,-24.1851"/>
</g>
<!-- Node11&#45;&gt;Node10 -->
<g id="edge14" class="edge">
<title>Node11&#45;&gt;Node10</title>
<path fill="none" stroke="#191970" d="M330.341,-224.4509C330.9934,-206.184 332.4302,-165.9553 333.2965,-141.6976"/>
<polygon fill="#191970" stroke="#191970" points="336.8006,-141.6435 333.6598,-131.5249 329.805,-141.3936 336.8006,-141.6435"/>
</g>
<!-- Node13 -->
<g id="node13" class="node">
<title>Node13</title>
<g id="a_node13"><a xlink:href="https://www.itk.org/Doxygen/html/itkMetaDataObjectBase_8h.html" xlink:title=" ">
<polygon fill="#ffffff" stroke="#000000" points="121.5,-224.5 121.5,-243.5 262.5,-243.5 262.5,-224.5 121.5,-224.5"/>
<text text-anchor="middle" x="192" y="-231.5" font-family="Helvetica,sans-Serif" font-size="10.00" fill="#000000">itkMetaDataObjectBase.h</text>
</a>
</g>
</g>
<!-- Node12&#45;&gt;Node13 -->
<g id="edge16" class="edge">
<title>Node12&#45;&gt;Node13</title>
<path fill="none" stroke="#191970" d="M201.0839,-280.2455C199.6486,-272.9382 197.6364,-262.6944 195.8705,-253.7046"/>
<polygon fill="#191970" stroke="#191970" points="199.256,-252.7805 193.8941,-243.6427 192.3873,-254.1298 199.256,-252.7805"/>
</g>
<!-- Node13&#45;&gt;Node4 -->
<g id="edge17" class="edge">
<title>Node13&#45;&gt;Node4</title>
<path fill="none" stroke="#191970" d="M192,-224.2455C192,-216.9382 192,-206.6944 192,-197.7046"/>
<polygon fill="#191970" stroke="#191970" points="195.5001,-197.6426 192,-187.6427 188.5001,-197.6427 195.5001,-197.6426"/>
</g>
<!-- Node15 -->
<g id="node15" class="node">
<title>Node15</title>
<g id="a_node15"><a xlink:href="https://www.itk.org/Doxygen/html/itkObjectFactoryBase_8h.html" xlink:title=" ">
<polygon fill="#ffffff" stroke="#000000" points="215.5,-448.5 215.5,-467.5 344.5,-467.5 344.5,-448.5 215.5,-448.5"/>
<text text-anchor="middle" x="280" y="-455.5" font-family="Helvetica,sans-Serif" font-size="10.00" fill="#000000">itkObjectFactoryBase.h</text>
</a>
</g>
</g>
<!-- Node14&#45;&gt;Node15 -->
<g id="edge20" class="edge">
<title>Node14&#45;&gt;Node15</title>
<path fill="none" stroke="#191970" d="M256.0514,-504.2455C260.0019,-496.617 265.6097,-485.7881 270.4058,-476.5267"/>
<polygon fill="#191970" stroke="#191970" points="273.5159,-478.1321 275.0065,-467.6427 267.2999,-474.9131 273.5159,-478.1321"/>
</g>
<!-- Node15&#45;&gt;Node9 -->
<g id="edge23" class="edge">
<title>Node15&#45;&gt;Node9</title>
<path fill="none" stroke="#191970" d="M323.7838,-448.38C372.6658,-434.7571 445,-404.684 445,-346 445,-346 445,-346 445,-178 445,-143.6118 428.7366,-106.2832 417.489,-84.5791"/>
<polygon fill="#191970" stroke="#191970" points="420.431,-82.6605 412.607,-75.5166 414.2683,-85.9804 420.431,-82.6605"/>
</g>
<!-- Node16 -->
<g id="node16" class="node">
<title>Node16</title>
<g id="a_node16"><a xlink:href="https://www.itk.org/Doxygen/html/itkCreateObjectFunction_8h.html" xlink:title=" ">
<polygon fill="#ffffff" stroke="#000000" points="231.5,-392.5 231.5,-411.5 374.5,-411.5 374.5,-392.5 231.5,-392.5"/>
<text text-anchor="middle" x="303" y="-399.5" font-family="Helvetica,sans-Serif" font-size="10.00" fill="#000000">itkCreateObjectFunction.h</text>
</a>
</g>
</g>
<!-- Node15&#45;&gt;Node16 -->
<g id="edge21" class="edge">
<title>Node15&#45;&gt;Node16</title>
<path fill="none" stroke="#191970" d="M284.0063,-448.2455C287.0735,-440.7776 291.4003,-430.2427 295.1497,-421.1137"/>
<polygon fill="#191970" stroke="#191970" points="298.4779,-422.2226 299.0396,-411.6427 292.0028,-419.5631 298.4779,-422.2226"/>
</g>
<!-- Node17 -->
<g id="node17" class="node">
<title>Node17</title>
<g id="a_node17"><a xlink:href="https://www.itk.org/Doxygen/html/itkCommonEnums_8h.html" xlink:title=" ">
<polygon fill="#ffffff" stroke="#000000" points="30,-336.5 30,-355.5 146,-355.5 146,-336.5 30,-336.5"/>
<text text-anchor="middle" x="88" y="-343.5" font-family="Helvetica,sans-Serif" font-size="10.00" fill="#000000">itkCommonEnums.h</text>
</a>
</g>
</g>
<!-- Node15&#45;&gt;Node17 -->
<g id="edge24" class="edge">
<title>Node15&#45;&gt;Node17</title>
<path fill="none" stroke="#191970" d="M263.6302,-448.4509C230.0482,-428.8615 153.169,-384.0152 113.1906,-360.6945"/>
<polygon fill="#191970" stroke="#191970" points="114.7297,-357.5404 104.3284,-355.5249 111.2026,-363.5869 114.7297,-357.5404"/>
</g>
<!-- Node16&#45;&gt;Node3 -->
<g id="edge22" class="edge">
<title>Node16&#45;&gt;Node3</title>
<path fill="none" stroke="#191970" d="M295.6842,-392.2455C289.7821,-384.3761 281.3258,-373.101 274.2406,-363.6542"/>
<polygon fill="#191970" stroke="#191970" points="277.0321,-361.5427 268.232,-355.6427 271.432,-365.7427 277.0321,-361.5427"/>
</g>
<!-- Node17&#45;&gt;Node8 -->
<g id="edge25" class="edge">
<title>Node17&#45;&gt;Node8</title>
<path fill="none" stroke="#191970" d="M72.6716,-336.3315C47.459,-319.0999 0,-280.4895 0,-234 0,-234 0,-234 0,-178 0,-147.4754 2.1177,-137.4311 19,-112 27.1023,-99.7949 39.4554,-89.2592 50.5928,-81.362"/>
<polygon fill="#191970" stroke="#191970" points="52.8065,-84.0916 59.1596,-75.6129 48.9057,-78.2791 52.8065,-84.0916"/>
</g>
</g>
</svg>
