<?xml version="1.0" encoding="UTF-8" standalone="no"?>
<!DOCTYPE svg PUBLIC "-//W3C//DTD SVG 1.1//EN"
 "http://www.w3.org/Graphics/SVG/1.1/DTD/svg11.dtd">
<!-- Generated by graphviz version 2.40.1 (20161225.0304)
 -->
<!-- Title: sitkImageSeriesReader.h Pages: 1 -->
<!--zoomable 599 -->
<svg id="main" version="1.1" xmlns="http://www.w3.org/2000/svg" xmlns:xlink="http://www.w3.org/1999/xlink" xml:space="preserve" onload="init(evt)">
<style type="text/css"><![CDATA[
.edge:hover path { stroke: red; }
.edge:hover polygon { stroke: red; fill: red; }
]]></style>
<script type="text/javascript"><![CDATA[
var edges = document.getElementsByTagName('g');
if (edges && edges.length) {
  for (var i=0;i<edges.length;i++) {
    if (edges[i].id.substr(0,4)=='edge') {
      edges[i].setAttribute('class','edge');
    }
  }
}
]]></script>
        <defs>
                <circle id="rim" cx="0" cy="0" r="7"/>
                <circle id="rim2" cx="0" cy="0" r="3.5"/>
                <g id="zoomPlus">
                        <use xlink:href="#rim" fill="#404040">
                                <set attributeName="fill" to="#808080" begin="zoomplus.mouseover" end="zoomplus.mouseout"/>
                        </use>
                        <path d="M-4,0h8M0,-4v8" fill="none" stroke="white" stroke-width="1.5" pointer-events="none"/>
                </g>
                <g id="zoomMin">
                        <use xlink:href="#rim" fill="#404040">
                                <set attributeName="fill" to="#808080" begin="zoomminus.mouseover" end="zoomminus.mouseout"/>
                        </use>
                        <path d="M-4,0h8" fill="none" stroke="white" stroke-width="1.5" pointer-events="none"/>
                </g>
                <g id="dirArrow">
                        <path fill="none" stroke="white" stroke-width="1.5" d="M0,-3.0v7 M-2.5,-0.5L0,-3.0L2.5,-0.5"/>
                </g>
               <g id="resetDef">
                       <use xlink:href="#rim2" fill="#404040">
                               <set attributeName="fill" to="#808080" begin="reset.mouseover" end="reset.mouseout"/>
                       </use>
               </g>
        </defs>

<script type="text/javascript">
var viewWidth = 1653;
var viewHeight = 599;
var sectionId = 'dynsection-0';
</script>
<script xlink:href="svgpan.js"/>
<svg id="graph" class="graph">
<g id="viewport">
<title>sitkImageSeriesReader.h</title>
<polygon fill="#ffffff" stroke="transparent" points="-4,4 -4,-595 1649.4032,-595 1649.4032,4 -4,4"/>
<!-- Node1 -->
<g id="node1" class="node">
<title>Node1</title>
<g id="a_node1"><a xlink:title=" ">
<polygon fill="#bfbfbf" stroke="#000000" points="1355.5,-571.5 1355.5,-590.5 1492.5,-590.5 1492.5,-571.5 1355.5,-571.5"/>
<text text-anchor="middle" x="1424" y="-578.5" font-family="Helvetica,sans-Serif" font-size="10.00" fill="#000000">sitkImageSeriesReader.h</text>
</a>
</g>
</g>
<!-- Node2 -->
<g id="node2" class="node">
<title>Node2</title>
<g id="a_node2"><a xlink:href="sitkMacro_8h.html" target="_top" xlink:title=" ">
<polygon fill="#ffffff" stroke="#000000" points="984.5,-56.5 984.5,-75.5 1057.5,-75.5 1057.5,-56.5 984.5,-56.5"/>
<text text-anchor="middle" x="1021" y="-63.5" font-family="Helvetica,sans-Serif" font-size="10.00" fill="#000000">sitkMacro.h</text>
</a>
</g>
</g>
<!-- Node1&#45;&gt;Node2 -->
<g id="edge1" class="edge">
<title>Node1&#45;&gt;Node2</title>
<path fill="none" stroke="#191970" d="M1469.4632,-571.3923C1519.2171,-557.899 1592,-528.0659 1592,-469 1592,-469 1592,-469 1592,-178 1592,-166.6652 1788.0695,-201.9709 1424,-112 1297.6599,-80.7781 1143.7088,-70.6619 1067.8534,-67.45"/>
<polygon fill="#191970" stroke="#191970" points="1067.8117,-63.9456 1057.6792,-67.0412 1067.5306,-70.94 1067.8117,-63.9456"/>
</g>
<!-- Node9 -->
<g id="node9" class="node">
<title>Node9</title>
<g id="a_node9"><a xlink:href="sitkImage_8h.html" target="_top" xlink:title=" ">
<polygon fill="#ffffff" stroke="#000000" points="1318,-347.5 1318,-366.5 1392,-366.5 1392,-347.5 1318,-347.5"/>
<text text-anchor="middle" x="1355" y="-354.5" font-family="Helvetica,sans-Serif" font-size="10.00" fill="#000000">sitkImage.h</text>
</a>
</g>
</g>
<!-- Node1&#45;&gt;Node9 -->
<g id="edge8" class="edge">
<title>Node1&#45;&gt;Node9</title>
<path fill="none" stroke="#191970" d="M1428.2934,-571.2626C1440.0692,-542.9569 1469.8822,-459.1489 1437,-403 1428.3245,-388.186 1412.9374,-377.7802 1397.8175,-370.6608"/>
<polygon fill="#191970" stroke="#191970" points="1399.0687,-367.3888 1388.5002,-366.6426 1396.2967,-373.8166 1399.0687,-367.3888"/>
</g>
<!-- Node32 -->
<g id="node32" class="node">
<title>Node32</title>
<g id="a_node32"><a xlink:href="sitkImageReaderBase_8h.html" target="_top" xlink:title=" ">
<polygon fill="#ffffff" stroke="#000000" points="1251,-515.5 1251,-534.5 1383,-534.5 1383,-515.5 1251,-515.5"/>
<text text-anchor="middle" x="1317" y="-522.5" font-family="Helvetica,sans-Serif" font-size="10.00" fill="#000000">sitkImageReaderBase.h</text>
</a>
</g>
</g>
<!-- Node1&#45;&gt;Node32 -->
<g id="edge50" class="edge">
<title>Node1&#45;&gt;Node32</title>
<path fill="none" stroke="#191970" d="M1405.362,-571.2455C1388.5614,-562.4527 1363.6366,-549.4079 1344.5382,-539.4125"/>
<polygon fill="#191970" stroke="#191970" points="1345.9073,-536.1787 1335.4244,-534.6427 1342.6614,-542.3807 1345.9073,-536.1787"/>
</g>
<!-- Node39 -->
<g id="node39" class="node">
<title>Node39</title>
<g id="a_node39"><a xlink:href="sitkMemberFunctionFactory_8h.html" target="_top" xlink:title=" ">
<polygon fill="#ffffff" stroke="#000000" points="593,-347.5 593,-366.5 751,-366.5 751,-347.5 593,-347.5"/>
<text text-anchor="middle" x="672" y="-354.5" font-family="Helvetica,sans-Serif" font-size="10.00" fill="#000000">sitkMemberFunctionFactory.h</text>
</a>
</g>
</g>
<!-- Node1&#45;&gt;Node39 -->
<g id="edge66" class="edge">
<title>Node1&#45;&gt;Node39</title>
<path fill="none" stroke="#191970" d="M1355.2788,-574.2481C1253.4644,-562.7802 1057.6105,-535.0698 900,-479 820.3419,-450.6617 734.493,-397.9917 694.6731,-372.1267"/>
<polygon fill="#191970" stroke="#191970" points="696.513,-369.1478 686.2304,-366.5945 692.6764,-375.0028 696.513,-369.1478"/>
</g>
<!-- Node3 -->
<g id="node3" class="node">
<title>Node3</title>
<g id="a_node3"><a xlink:title=" ">
<polygon fill="#ffffff" stroke="#bfbfbf" points="749.5,-.5 749.5,-19.5 802.5,-19.5 802.5,-.5 749.5,-.5"/>
<text text-anchor="middle" x="776" y="-7.5" font-family="Helvetica,sans-Serif" font-size="10.00" fill="#000000">stdint.h</text>
</a>
</g>
</g>
<!-- Node2&#45;&gt;Node3 -->
<g id="edge2" class="edge">
<title>Node2&#45;&gt;Node3</title>
<path fill="none" stroke="#191970" d="M984.321,-57.6162C938.0303,-47.0355 858.8823,-28.9445 812.6197,-18.3702"/>
<polygon fill="#191970" stroke="#191970" points="813.2444,-14.9228 802.7159,-16.1065 811.6845,-21.7468 813.2444,-14.9228"/>
</g>
<!-- Node4 -->
<g id="node4" class="node">
<title>Node4</title>
<g id="a_node4"><a xlink:title=" ">
<polygon fill="#ffffff" stroke="#bfbfbf" points="919,-.5 919,-19.5 975,-19.5 975,-.5 919,-.5"/>
<text text-anchor="middle" x="947" y="-7.5" font-family="Helvetica,sans-Serif" font-size="10.00" fill="#000000">stddef.h</text>
</a>
</g>
</g>
<!-- Node2&#45;&gt;Node4 -->
<g id="edge3" class="edge">
<title>Node2&#45;&gt;Node4</title>
<path fill="none" stroke="#191970" d="M1008.1102,-56.2455C997.0746,-47.8943 980.9708,-35.7076 968.0647,-25.9408"/>
<polygon fill="#191970" stroke="#191970" points="969.8283,-22.8862 959.7421,-19.6427 965.6041,-28.4681 969.8283,-22.8862"/>
</g>
<!-- Node5 -->
<g id="node5" class="node">
<title>Node5</title>
<g id="a_node5"><a xlink:title=" ">
<polygon fill="#ffffff" stroke="#bfbfbf" points="273,-.5 273,-19.5 325,-19.5 325,-.5 273,-.5"/>
<text text-anchor="middle" x="299" y="-7.5" font-family="Helvetica,sans-Serif" font-size="10.00" fill="#000000">cassert</text>
</a>
</g>
</g>
<!-- Node2&#45;&gt;Node5 -->
<g id="edge4" class="edge">
<title>Node2&#45;&gt;Node5</title>
<path fill="none" stroke="#191970" d="M984.2033,-63.146C860.2278,-53.5301 458.6729,-22.3846 335.3567,-12.8199"/>
<polygon fill="#191970" stroke="#191970" points="335.5378,-9.3235 325.2971,-12.0397 334.9965,-16.3026 335.5378,-9.3235"/>
</g>
<!-- Node6 -->
<g id="node6" class="node">
<title>Node6</title>
<g id="a_node6"><a xlink:title=" ">
<polygon fill="#ffffff" stroke="#bfbfbf" points="993,-.5 993,-19.5 1049,-19.5 1049,-.5 993,-.5"/>
<text text-anchor="middle" x="1021" y="-7.5" font-family="Helvetica,sans-Serif" font-size="10.00" fill="#000000">sstream</text>
</a>
</g>
</g>
<!-- Node2&#45;&gt;Node6 -->
<g id="edge5" class="edge">
<title>Node2&#45;&gt;Node6</title>
<path fill="none" stroke="#191970" d="M1021,-56.2455C1021,-48.9382 1021,-38.6944 1021,-29.7046"/>
<polygon fill="#191970" stroke="#191970" points="1024.5001,-29.6426 1021,-19.6427 1017.5001,-29.6427 1024.5001,-29.6426"/>
</g>
<!-- Node7 -->
<g id="node7" class="node">
<title>Node7</title>
<g id="a_node7"><a xlink:title=" ">
<polygon fill="#ffffff" stroke="#bfbfbf" points="1067,-.5 1067,-19.5 1111,-19.5 1111,-.5 1067,-.5"/>
<text text-anchor="middle" x="1089" y="-7.5" font-family="Helvetica,sans-Serif" font-size="10.00" fill="#000000">limits</text>
</a>
</g>
</g>
<!-- Node2&#45;&gt;Node7 -->
<g id="edge6" class="edge">
<title>Node2&#45;&gt;Node7</title>
<path fill="none" stroke="#191970" d="M1032.8447,-56.2455C1042.888,-47.9746 1057.4995,-35.9416 1069.3004,-26.2232"/>
<polygon fill="#191970" stroke="#191970" points="1071.7967,-28.7015 1077.291,-19.6427 1067.3467,-23.298 1071.7967,-28.7015"/>
</g>
<!-- Node8 -->
<g id="node8" class="node">
<title>Node8</title>
<g id="a_node8"><a xlink:href="sitkConfigure_8h.html" target="_top" xlink:title=" ">
<polygon fill="#ffffff" stroke="#000000" points="592,-.5 592,-19.5 682,-19.5 682,-.5 592,-.5"/>
<text text-anchor="middle" x="637" y="-7.5" font-family="Helvetica,sans-Serif" font-size="10.00" fill="#000000">sitkConfigure.h</text>
</a>
</g>
</g>
<!-- Node2&#45;&gt;Node8 -->
<g id="edge7" class="edge">
<title>Node2&#45;&gt;Node8</title>
<path fill="none" stroke="#191970" d="M984.1805,-60.6305C916.5411,-50.7664 772.1566,-29.7103 692.5462,-18.1005"/>
<polygon fill="#191970" stroke="#191970" points="692.6281,-14.5755 682.2276,-16.5957 691.6179,-21.5022 692.6281,-14.5755"/>
</g>
<!-- Node10 -->
<g id="node10" class="node">
<title>Node10</title>
<g id="a_node10"><a xlink:href="sitkCommon_8h.html" target="_top" xlink:title=" ">
<polygon fill="#ffffff" stroke="#000000" points="1086,-112.5 1086,-131.5 1174,-131.5 1174,-112.5 1086,-112.5"/>
<text text-anchor="middle" x="1130" y="-119.5" font-family="Helvetica,sans-Serif" font-size="10.00" fill="#000000">sitkCommon.h</text>
</a>
</g>
</g>
<!-- Node9&#45;&gt;Node10 -->
<g id="edge9" class="edge">
<title>Node9&#45;&gt;Node10</title>
<path fill="none" stroke="#191970" d="M1344.8015,-347.3485C1336.1735,-338.631 1324.1102,-325.0483 1317,-311 1287.4041,-252.5244 1326.1917,-215.466 1281,-168 1267.4696,-153.7887 1221.8267,-141.0826 1184.2317,-132.6446"/>
<polygon fill="#191970" stroke="#191970" points="1184.8917,-129.2063 1174.3745,-130.4868 1183.3947,-136.0444 1184.8917,-129.2063"/>
</g>
<!-- Node11 -->
<g id="node11" class="node">
<title>Node11</title>
<g id="a_node11"><a xlink:href="sitkTemplateFunctions_8h.html" target="_top" xlink:title=" ">
<polygon fill="#ffffff" stroke="#000000" points="1326,-230 1326,-249 1460,-249 1460,-230 1326,-230"/>
<text text-anchor="middle" x="1393" y="-237" font-family="Helvetica,sans-Serif" font-size="10.00" fill="#000000">sitkTemplateFunctions.h</text>
</a>
</g>
</g>
<!-- Node9&#45;&gt;Node11 -->
<g id="edge11" class="edge">
<title>Node9&#45;&gt;Node11</title>
<path fill="none" stroke="#191970" d="M1366.4453,-347.3916C1375.5993,-338.901 1387.7419,-325.6212 1393,-311 1399.0254,-294.2453 1398.2987,-273.8194 1396.4947,-259.0962"/>
<polygon fill="#191970" stroke="#191970" points="1399.941,-258.4758 1394.9992,-249.1041 1393.0181,-259.512 1399.941,-258.4758"/>
</g>
<!-- Node13 -->
<g id="node13" class="node">
<title>Node13</title>
<g id="a_node13"><a xlink:title=" ">
<polygon fill="#ffffff" stroke="#bfbfbf" points="1476.5,-168.5 1476.5,-187.5 1523.5,-187.5 1523.5,-168.5 1476.5,-168.5"/>
<text text-anchor="middle" x="1500" y="-175.5" font-family="Helvetica,sans-Serif" font-size="10.00" fill="#000000">vector</text>
</a>
</g>
</g>
<!-- Node9&#45;&gt;Node13 -->
<g id="edge47" class="edge">
<title>Node9&#45;&gt;Node13</title>
<path fill="none" stroke="#191970" d="M1369.6796,-347.4543C1393.6315,-331.1846 1441.2264,-295.8493 1469,-255 1481.1133,-237.1838 1489.6508,-213.9165 1494.6579,-197.6407"/>
<polygon fill="#191970" stroke="#191970" points="1498.1335,-198.2222 1497.5608,-187.6429 1491.4112,-196.2703 1498.1335,-198.2222"/>
</g>
<!-- Node16 -->
<g id="node16" class="node">
<title>Node16</title>
<g id="a_node16"><a xlink:href="sitkDetail_8h.html" target="_top" xlink:title=" ">
<polygon fill="#ffffff" stroke="#000000" points="602.5,-291.5 602.5,-310.5 675.5,-310.5 675.5,-291.5 602.5,-291.5"/>
<text text-anchor="middle" x="639" y="-298.5" font-family="Helvetica,sans-Serif" font-size="10.00" fill="#000000">sitkDetail.h</text>
</a>
</g>
</g>
<!-- Node9&#45;&gt;Node16 -->
<g id="edge20" class="edge">
<title>Node9&#45;&gt;Node16</title>
<path fill="none" stroke="#191970" d="M1317.659,-354.1216C1224.3168,-346.9204 973.2948,-327.5169 764,-311 738.0994,-308.956 709.1826,-306.6446 685.6903,-304.7592"/>
<polygon fill="#191970" stroke="#191970" points="685.8928,-301.2643 675.6447,-303.9524 685.3324,-308.2418 685.8928,-301.2643"/>
</g>
<!-- Node27 -->
<g id="node27" class="node">
<title>Node27</title>
<g id="a_node27"><a xlink:href="sitkPixelIDTokens_8h.html" target="_top" xlink:title=" ">
<polygon fill="#ffffff" stroke="#000000" points="773,-291.5 773,-310.5 885,-310.5 885,-291.5 773,-291.5"/>
<text text-anchor="middle" x="829" y="-298.5" font-family="Helvetica,sans-Serif" font-size="10.00" fill="#000000">sitkPixelIDTokens.h</text>
</a>
</g>
</g>
<!-- Node9&#45;&gt;Node27 -->
<g id="edge39" class="edge">
<title>Node9&#45;&gt;Node27</title>
<path fill="none" stroke="#191970" d="M1317.5931,-353.0175C1229.284,-343.6158 1006.909,-319.9409 895.2004,-308.0479"/>
<polygon fill="#191970" stroke="#191970" points="895.3836,-304.5478 885.0692,-306.9693 894.6425,-311.5084 895.3836,-304.5478"/>
</g>
<!-- Node30 -->
<g id="node30" class="node">
<title>Node30</title>
<g id="a_node30"><a xlink:title=" ">
<polygon fill="#ffffff" stroke="#bfbfbf" points="1007.5,-230 1007.5,-249 1076.5,-249 1076.5,-230 1007.5,-230"/>
<text text-anchor="middle" x="1042" y="-237" font-family="Helvetica,sans-Serif" font-size="10.00" fill="#000000">type_traits</text>
</a>
</g>
</g>
<!-- Node9&#45;&gt;Node30 -->
<g id="edge49" class="edge">
<title>Node9&#45;&gt;Node30</title>
<path fill="none" stroke="#191970" d="M1329.651,-347.484C1273.9783,-326.5845 1140.9245,-276.6362 1077.1959,-252.7125"/>
<polygon fill="#191970" stroke="#191970" points="1078.1777,-249.3427 1067.5856,-249.1048 1075.7175,-255.8961 1078.1777,-249.3427"/>
</g>
<!-- Node31 -->
<g id="node31" class="node">
<title>Node31</title>
<g id="a_node31"><a xlink:title=" ">
<polygon fill="#ffffff" stroke="#bfbfbf" points="1326,-291.5 1326,-310.5 1384,-310.5 1384,-291.5 1326,-291.5"/>
<text text-anchor="middle" x="1355" y="-298.5" font-family="Helvetica,sans-Serif" font-size="10.00" fill="#000000">memory</text>
</a>
</g>
</g>
<!-- Node9&#45;&gt;Node31 -->
<g id="edge48" class="edge">
<title>Node9&#45;&gt;Node31</title>
<path fill="none" stroke="#191970" d="M1355,-347.2455C1355,-339.9382 1355,-329.6944 1355,-320.7046"/>
<polygon fill="#191970" stroke="#191970" points="1358.5001,-320.6426 1355,-310.6427 1351.5001,-320.6427 1358.5001,-320.6426"/>
</g>
<!-- Node10&#45;&gt;Node2 -->
<g id="edge10" class="edge">
<title>Node10&#45;&gt;Node2</title>
<path fill="none" stroke="#191970" d="M1111.0136,-112.2455C1093.8208,-103.4125 1068.2762,-90.2887 1048.7868,-80.2758"/>
<polygon fill="#191970" stroke="#191970" points="1050.263,-77.0993 1039.7688,-75.6427 1047.0641,-83.3257 1050.263,-77.0993"/>
</g>
<!-- Node11&#45;&gt;Node2 -->
<g id="edge12" class="edge">
<title>Node11&#45;&gt;Node2</title>
<path fill="none" stroke="#191970" d="M1388.7738,-229.703C1381.6903,-214.3922 1366.0032,-184.8092 1344,-168 1260.1649,-103.9547 1135.2039,-79.5811 1067.9302,-70.7293"/>
<polygon fill="#191970" stroke="#191970" points="1068.0017,-67.2109 1057.6436,-69.4382 1067.1299,-74.1564 1068.0017,-67.2109"/>
</g>
<!-- Node11&#45;&gt;Node10 -->
<g id="edge13" class="edge">
<title>Node11&#45;&gt;Node10</title>
<path fill="none" stroke="#191970" d="M1385.0275,-229.509C1372.0455,-213.9325 1344.7788,-183.9919 1315,-168 1274.0484,-146.008 1222.3473,-134.3012 1184.018,-128.2135"/>
<polygon fill="#191970" stroke="#191970" points="1184.4905,-124.7453 1174.08,-126.7128 1183.4452,-131.6668 1184.4905,-124.7453"/>
</g>
<!-- Node12 -->
<g id="node12" class="node">
<title>Node12</title>
<g id="a_node12"><a xlink:href="sitkExceptionObject_8h.html" target="_top" xlink:title=" ">
<polygon fill="#ffffff" stroke="#000000" points="959.5,-168.5 959.5,-187.5 1082.5,-187.5 1082.5,-168.5 959.5,-168.5"/>
<text text-anchor="middle" x="1021" y="-175.5" font-family="Helvetica,sans-Serif" font-size="10.00" fill="#000000">sitkExceptionObject.h</text>
</a>
</g>
</g>
<!-- Node11&#45;&gt;Node12 -->
<g id="edge14" class="edge">
<title>Node11&#45;&gt;Node12</title>
<path fill="none" stroke="#191970" d="M1335.2832,-229.9581C1268.6629,-218.9443 1159.2331,-200.8531 1088.666,-189.1867"/>
<polygon fill="#191970" stroke="#191970" points="1088.9832,-185.6917 1078.5462,-187.5137 1087.8413,-192.598 1088.9832,-185.6917"/>
</g>
<!-- Node11&#45;&gt;Node13 -->
<g id="edge17" class="edge">
<title>Node11&#45;&gt;Node13</title>
<path fill="none" stroke="#191970" d="M1409.7188,-229.8906C1427.0722,-219.9165 1454.4323,-204.1908 1474.4882,-192.6633"/>
<polygon fill="#191970" stroke="#191970" points="1476.4728,-195.5596 1483.3987,-187.5419 1472.9846,-189.4907 1476.4728,-195.5596"/>
</g>
<!-- Node14 -->
<g id="node14" class="node">
<title>Node14</title>
<g id="a_node14"><a xlink:title=" ">
<polygon fill="#ffffff" stroke="#bfbfbf" points="1215.5,-168.5 1215.5,-187.5 1272.5,-187.5 1272.5,-168.5 1215.5,-168.5"/>
<text text-anchor="middle" x="1244" y="-175.5" font-family="Helvetica,sans-Serif" font-size="10.00" fill="#000000">ostream</text>
</a>
</g>
</g>
<!-- Node11&#45;&gt;Node14 -->
<g id="edge18" class="edge">
<title>Node11&#45;&gt;Node14</title>
<path fill="none" stroke="#191970" d="M1369.7188,-229.8906C1344.679,-219.5554 1304.6775,-203.0447 1276.534,-191.4284"/>
<polygon fill="#191970" stroke="#191970" points="1277.6967,-188.122 1267.1178,-187.5419 1275.026,-194.5925 1277.6967,-188.122"/>
</g>
<!-- Node15 -->
<g id="node15" class="node">
<title>Node15</title>
<g id="a_node15"><a xlink:title=" ">
<polygon fill="#ffffff" stroke="#bfbfbf" points="1405.5,-168.5 1405.5,-187.5 1458.5,-187.5 1458.5,-168.5 1405.5,-168.5"/>
<text text-anchor="middle" x="1432" y="-175.5" font-family="Helvetica,sans-Serif" font-size="10.00" fill="#000000">iterator</text>
</a>
</g>
</g>
<!-- Node11&#45;&gt;Node15 -->
<g id="edge19" class="edge">
<title>Node11&#45;&gt;Node15</title>
<path fill="none" stroke="#191970" d="M1399.0938,-229.8906C1404.7843,-220.917 1413.4272,-207.2879 1420.4274,-196.2491"/>
<polygon fill="#191970" stroke="#191970" points="1423.4207,-198.0644 1425.8203,-187.7449 1417.5091,-194.3155 1423.4207,-198.0644"/>
</g>
<!-- Node12&#45;&gt;Node2 -->
<g id="edge15" class="edge">
<title>Node12&#45;&gt;Node2</title>
<path fill="none" stroke="#191970" d="M1021,-168.4509C1021,-150.184 1021,-109.9553 1021,-85.6976"/>
<polygon fill="#191970" stroke="#191970" points="1024.5001,-85.5249 1021,-75.5249 1017.5001,-85.5249 1024.5001,-85.5249"/>
</g>
<!-- Node12&#45;&gt;Node10 -->
<g id="edge16" class="edge">
<title>Node12&#45;&gt;Node10</title>
<path fill="none" stroke="#191970" d="M1039.9864,-168.2455C1057.1792,-159.4125 1082.7238,-146.2887 1102.2132,-136.2758"/>
<polygon fill="#191970" stroke="#191970" points="1103.9359,-139.3257 1111.2312,-131.6427 1100.737,-133.0993 1103.9359,-139.3257"/>
</g>
<!-- Node17 -->
<g id="node17" class="node">
<title>Node17</title>
<g id="a_node17"><a xlink:href="sitkMemberFunctionFactoryBase_8h.html" target="_top" xlink:title=" ">
<polygon fill="#ffffff" stroke="#000000" points="302,-224.5 302,-254.5 452,-254.5 452,-224.5 302,-224.5"/>
<text text-anchor="start" x="310" y="-242.5" font-family="Helvetica,sans-Serif" font-size="10.00" fill="#000000">sitkMemberFunctionFactory</text>
<text text-anchor="middle" x="377" y="-231.5" font-family="Helvetica,sans-Serif" font-size="10.00" fill="#000000">Base.h</text>
</a>
</g>
</g>
<!-- Node16&#45;&gt;Node17 -->
<g id="edge21" class="edge">
<title>Node16&#45;&gt;Node17</title>
<path fill="none" stroke="#191970" d="M602.2942,-292.3839C563.2288,-283.214 500.364,-268.4576 450.9543,-256.8595"/>
<polygon fill="#191970" stroke="#191970" points="451.4813,-253.3882 440.9461,-254.5102 449.8816,-260.2029 451.4813,-253.3882"/>
</g>
<!-- Node23 -->
<g id="node23" class="node">
<title>Node23</title>
<g id="a_node23"><a xlink:title=" ">
<polygon fill="#ffffff" stroke="#bfbfbf" points="396,-168.5 396,-187.5 534,-187.5 534,-168.5 396,-168.5"/>
<text text-anchor="middle" x="465" y="-175.5" font-family="Helvetica,sans-Serif" font-size="10.00" fill="#000000">Ancillary/FunctionTraits.h</text>
</a>
</g>
</g>
<!-- Node16&#45;&gt;Node23 -->
<g id="edge38" class="edge">
<title>Node16&#45;&gt;Node23</title>
<path fill="none" stroke="#191970" d="M625.3465,-291.3484C595.361,-270.1517 523.5282,-219.3734 487.0543,-193.5901"/>
<polygon fill="#191970" stroke="#191970" points="488.7762,-190.5211 478.5901,-187.6068 484.7355,-196.2372 488.7762,-190.5211"/>
</g>
<!-- Node17&#45;&gt;Node2 -->
<g id="edge30" class="edge">
<title>Node17&#45;&gt;Node2</title>
<path fill="none" stroke="#191970" d="M452.2447,-230.7478C514.8939,-222.5411 606.1155,-208.4501 684,-188 799.2054,-157.7506 930.5499,-104.5245 989.4812,-79.5973"/>
<polygon fill="#191970" stroke="#191970" points="991.1315,-82.6989 998.9647,-75.5651 988.3925,-76.257 991.1315,-82.6989"/>
</g>
<!-- Node17&#45;&gt;Node8 -->
<g id="edge22" class="edge">
<title>Node17&#45;&gt;Node8</title>
<path fill="none" stroke="#191970" d="M301.7381,-236.817C224.8561,-232.3057 113.0325,-220.2366 86,-188 80.2885,-181.1889 83.4951,-176.5287 86,-168 94.3379,-139.611 97.5381,-128.6454 122,-112 196.7019,-61.1681 464.5985,-27.8914 581.6328,-15.4674"/>
<polygon fill="#191970" stroke="#191970" points="582.2278,-18.9243 591.8078,-14.3996 581.4971,-11.9625 582.2278,-18.9243"/>
</g>
<!-- Node18 -->
<g id="node18" class="node">
<title>Node18</title>
<g id="a_node18"><a xlink:href="sitkPixelIDTypes_8h.html" target="_top" xlink:title=" ">
<polygon fill="#ffffff" stroke="#000000" points="131,-112.5 131,-131.5 237,-131.5 237,-112.5 131,-112.5"/>
<text text-anchor="middle" x="184" y="-119.5" font-family="Helvetica,sans-Serif" font-size="10.00" fill="#000000">sitkPixelIDTypes.h</text>
</a>
</g>
</g>
<!-- Node17&#45;&gt;Node18 -->
<g id="edge23" class="edge">
<title>Node17&#45;&gt;Node18</title>
<path fill="none" stroke="#191970" d="M301.9893,-236.3365C227.5428,-231.4357 120.8975,-219.0553 95,-188 76.4104,-165.7081 110.6545,-146.7654 141.9084,-134.9683"/>
<polygon fill="#191970" stroke="#191970" points="143.2222,-138.2154 151.4501,-131.5407 140.8556,-131.6276 143.2222,-138.2154"/>
</g>
<!-- Node19 -->
<g id="node19" class="node">
<title>Node19</title>
<g id="a_node19"><a xlink:href="sitkPixelIDTypeLists_8h.html" target="_top" xlink:title=" ">
<polygon fill="#ffffff" stroke="#000000" points="552.5,-168.5 552.5,-187.5 675.5,-187.5 675.5,-168.5 552.5,-168.5"/>
<text text-anchor="middle" x="614" y="-175.5" font-family="Helvetica,sans-Serif" font-size="10.00" fill="#000000">sitkPixelIDTypeLists.h</text>
</a>
</g>
</g>
<!-- Node17&#45;&gt;Node19 -->
<g id="edge24" class="edge">
<title>Node17&#45;&gt;Node19</title>
<path fill="none" stroke="#191970" d="M434.9767,-224.4554C475.7349,-213.8789 529.5509,-199.914 567.5005,-190.0663"/>
<polygon fill="#191970" stroke="#191970" points="568.4731,-193.4299 577.2734,-187.5303 566.7149,-186.6543 568.4731,-193.4299"/>
</g>
<!-- Node20 -->
<g id="node20" class="node">
<title>Node20</title>
<g id="a_node20"><a xlink:title=" ">
<polygon fill="#ffffff" stroke="#bfbfbf" points="384.5,-112.5 384.5,-131.5 495.5,-131.5 495.5,-112.5 384.5,-112.5"/>
<text text-anchor="middle" x="440" y="-119.5" font-family="Helvetica,sans-Serif" font-size="10.00" fill="#000000">Ancillary/TypeList.h</text>
</a>
</g>
</g>
<!-- Node17&#45;&gt;Node20 -->
<g id="edge33" class="edge">
<title>Node17&#45;&gt;Node20</title>
<path fill="none" stroke="#191970" d="M376.1267,-224.3119C375.9162,-209.1474 377.4299,-185.6236 387,-168 393.6318,-155.7874 404.8755,-145.3256 415.3048,-137.479"/>
<polygon fill="#191970" stroke="#191970" points="417.5984,-140.1444 423.7548,-131.5219 413.565,-134.4232 417.5984,-140.1444"/>
</g>
<!-- Node22 -->
<g id="node22" class="node">
<title>Node22</title>
<g id="a_node22"><a xlink:href="sitkNonCopyable_8h.html" target="_top" xlink:title=" ">
<polygon fill="#ffffff" stroke="#000000" points="832.5,-168.5 832.5,-187.5 941.5,-187.5 941.5,-168.5 832.5,-168.5"/>
<text text-anchor="middle" x="887" y="-175.5" font-family="Helvetica,sans-Serif" font-size="10.00" fill="#000000">sitkNonCopyable.h</text>
</a>
</g>
</g>
<!-- Node17&#45;&gt;Node22 -->
<g id="edge31" class="edge">
<title>Node17&#45;&gt;Node22</title>
<path fill="none" stroke="#191970" d="M452.0822,-231.7577C538.6477,-222.6219 685.471,-206.486 821.9804,-188.0938"/>
<polygon fill="#191970" stroke="#191970" points="822.7684,-191.5191 832.2083,-186.7089 821.8291,-184.5824 822.7684,-191.5191"/>
</g>
<!-- Node17&#45;&gt;Node23 -->
<g id="edge34" class="edge">
<title>Node17&#45;&gt;Node23</title>
<path fill="none" stroke="#191970" d="M398.7528,-224.2977C412.1968,-214.9022 429.4011,-202.8787 442.9078,-193.4395"/>
<polygon fill="#191970" stroke="#191970" points="444.9811,-196.2605 451.1729,-187.6633 440.9712,-190.5228 444.9811,-196.2605"/>
</g>
<!-- Node24 -->
<g id="node24" class="node">
<title>Node24</title>
<g id="a_node24"><a xlink:title=" ">
<polygon fill="#ffffff" stroke="#bfbfbf" points="104.5,-168.5 104.5,-187.5 197.5,-187.5 197.5,-168.5 104.5,-168.5"/>
<text text-anchor="middle" x="151" y="-175.5" font-family="Helvetica,sans-Serif" font-size="10.00" fill="#000000">unordered_map</text>
</a>
</g>
</g>
<!-- Node17&#45;&gt;Node24 -->
<g id="edge35" class="edge">
<title>Node17&#45;&gt;Node24</title>
<path fill="none" stroke="#191970" d="M321.7142,-224.4554C283.0132,-213.9239 231.966,-200.0328 195.8041,-190.1923"/>
<polygon fill="#191970" stroke="#191970" points="196.5901,-186.779 186.022,-187.5303 194.7521,-193.5333 196.5901,-186.779"/>
</g>
<!-- Node25 -->
<g id="node25" class="node">
<title>Node25</title>
<g id="a_node25"><a xlink:title=" ">
<polygon fill="#ffffff" stroke="#bfbfbf" points="215.5,-168.5 215.5,-187.5 280.5,-187.5 280.5,-168.5 215.5,-168.5"/>
<text text-anchor="middle" x="248" y="-175.5" font-family="Helvetica,sans-Serif" font-size="10.00" fill="#000000">functional</text>
</a>
</g>
</g>
<!-- Node17&#45;&gt;Node25 -->
<g id="edge36" class="edge">
<title>Node17&#45;&gt;Node25</title>
<path fill="none" stroke="#191970" d="M345.443,-224.4554C324.5799,-214.509 297.4309,-201.5659 277.0902,-191.8686"/>
<polygon fill="#191970" stroke="#191970" points="278.5233,-188.6744 267.9904,-187.5303 275.5109,-194.9931 278.5233,-188.6744"/>
</g>
<!-- Node26 -->
<g id="node26" class="node">
<title>Node26</title>
<g id="a_node26"><a xlink:title=" ">
<polygon fill="#ffffff" stroke="#bfbfbf" points="298.5,-168.5 298.5,-187.5 339.5,-187.5 339.5,-168.5 298.5,-168.5"/>
<text text-anchor="middle" x="319" y="-175.5" font-family="Helvetica,sans-Serif" font-size="10.00" fill="#000000">tuple</text>
</a>
</g>
</g>
<!-- Node17&#45;&gt;Node26 -->
<g id="edge37" class="edge">
<title>Node17&#45;&gt;Node26</title>
<path fill="none" stroke="#191970" d="M362.6629,-224.2977C354.3603,-215.4941 343.8818,-204.3833 335.2711,-195.2529"/>
<polygon fill="#191970" stroke="#191970" points="337.6939,-192.7206 328.2865,-187.8469 332.6013,-197.5234 337.6939,-192.7206"/>
</g>
<!-- Node19&#45;&gt;Node3 -->
<g id="edge25" class="edge">
<title>Node19&#45;&gt;Node3</title>
<path fill="none" stroke="#191970" d="M616.9623,-168.2552C621.4409,-154.6357 630.9334,-129.6038 645,-112 675.0371,-74.4096 721.6038,-42.4716 750.3705,-24.7983"/>
<polygon fill="#191970" stroke="#191970" points="752.2833,-27.732 759.0414,-19.5723 748.6699,-21.7367 752.2833,-27.732"/>
</g>
<!-- Node19&#45;&gt;Node8 -->
<g id="edge26" class="edge">
<title>Node19&#45;&gt;Node8</title>
<path fill="none" stroke="#191970" d="M612.1474,-168.3105C608.5144,-147.4008 601.6674,-96.6505 612,-56 614.4785,-46.2493 619.4873,-36.3309 624.3751,-28.2128"/>
<polygon fill="#191970" stroke="#191970" points="627.4313,-29.9312 629.8985,-19.6276 621.5444,-26.1437 627.4313,-29.9312"/>
</g>
<!-- Node19&#45;&gt;Node18 -->
<g id="edge27" class="edge">
<title>Node19&#45;&gt;Node18</title>
<path fill="none" stroke="#191970" d="M552.4329,-169.2807C549.2432,-168.8439 546.0842,-168.4148 543,-168 439.5719,-154.0906 319.245,-138.868 247.4773,-129.8905"/>
<polygon fill="#191970" stroke="#191970" points="247.6057,-126.3794 237.2488,-128.6121 246.7375,-133.3253 247.6057,-126.3794"/>
</g>
<!-- Node19&#45;&gt;Node20 -->
<g id="edge28" class="edge">
<title>Node19&#45;&gt;Node20</title>
<path fill="none" stroke="#191970" d="M584.0883,-168.3733C555.1548,-159.0613 511.1389,-144.8953 479.3707,-134.671"/>
<polygon fill="#191970" stroke="#191970" points="480.1128,-131.2331 469.5213,-131.5011 477.9682,-137.8965 480.1128,-131.2331"/>
</g>
<!-- Node21 -->
<g id="node21" class="node">
<title>Node21</title>
<g id="a_node21"><a xlink:title=" ">
<polygon fill="#ffffff" stroke="#bfbfbf" points="654.5,-112.5 654.5,-131.5 713.5,-131.5 713.5,-112.5 654.5,-112.5"/>
<text text-anchor="middle" x="684" y="-119.5" font-family="Helvetica,sans-Serif" font-size="10.00" fill="#000000">complex</text>
</a>
</g>
</g>
<!-- Node19&#45;&gt;Node21 -->
<g id="edge29" class="edge">
<title>Node19&#45;&gt;Node21</title>
<path fill="none" stroke="#191970" d="M626.1931,-168.2455C636.6321,-159.8943 651.8655,-147.7076 664.074,-137.9408"/>
<polygon fill="#191970" stroke="#191970" points="666.3244,-140.6227 671.9467,-131.6427 661.9515,-135.1566 666.3244,-140.6227"/>
</g>
<!-- Node22&#45;&gt;Node10 -->
<g id="edge32" class="edge">
<title>Node22&#45;&gt;Node10</title>
<path fill="none" stroke="#191970" d="M928.4971,-168.4369C970.0847,-158.8529 1034.1834,-144.0812 1078.8831,-133.78"/>
<polygon fill="#191970" stroke="#191970" points="1079.7155,-137.18 1088.6741,-131.5237 1078.1435,-130.3588 1079.7155,-137.18"/>
</g>
<!-- Node27&#45;&gt;Node8 -->
<g id="edge40" class="edge">
<title>Node27&#45;&gt;Node8</title>
<path fill="none" stroke="#191970" d="M809.2348,-291.3402C794.9916,-283.4231 776.3522,-270.9375 765,-255 744.2787,-225.9091 742,-213.7163 742,-178 742,-178 742,-178 742,-122 742,-77.1218 696.5761,-42.8269 665.4816,-24.6081"/>
<polygon fill="#191970" stroke="#191970" points="667.18,-21.5478 656.7497,-19.688 663.7438,-27.6463 667.18,-21.5478"/>
</g>
<!-- Node28 -->
<g id="node28" class="node">
<title>Node28</title>
<g id="a_node28"><a xlink:href="sitkPixelIDValues_8h.html" target="_top" xlink:title=" ">
<polygon fill="#ffffff" stroke="#000000" points="774,-230 774,-249 884,-249 884,-230 774,-230"/>
<text text-anchor="middle" x="829" y="-237" font-family="Helvetica,sans-Serif" font-size="10.00" fill="#000000">sitkPixelIDValues.h</text>
</a>
</g>
</g>
<!-- Node27&#45;&gt;Node28 -->
<g id="edge41" class="edge">
<title>Node27&#45;&gt;Node28</title>
<path fill="none" stroke="#191970" d="M829,-291.3906C829,-282.8657 829,-270.1392 829,-259.4235"/>
<polygon fill="#191970" stroke="#191970" points="832.5001,-259.2448 829,-249.2449 825.5001,-259.2449 832.5001,-259.2448"/>
</g>
<!-- Node27&#45;&gt;Node30 -->
<g id="edge46" class="edge">
<title>Node27&#45;&gt;Node30</title>
<path fill="none" stroke="#191970" d="M862.2813,-291.3906C899.1705,-280.7395 958.7757,-263.5296 999.1325,-251.8772"/>
<polygon fill="#191970" stroke="#191970" points="1000.3158,-255.1786 1008.9525,-249.0419 998.374,-248.4533 1000.3158,-255.1786"/>
</g>
<!-- Node28&#45;&gt;Node10 -->
<g id="edge42" class="edge">
<title>Node28&#45;&gt;Node10</title>
<path fill="none" stroke="#191970" d="M884.0193,-234.0059C950.7459,-226.4443 1058.357,-211.0875 1091,-188 1107.0683,-176.6353 1117.5863,-156.3781 1123.6046,-141.2937"/>
<polygon fill="#191970" stroke="#191970" points="1126.9107,-142.4436 1127.0651,-131.8499 1120.3381,-140.0351 1126.9107,-142.4436"/>
</g>
<!-- Node28&#45;&gt;Node14 -->
<g id="edge45" class="edge">
<title>Node28&#45;&gt;Node14</title>
<path fill="none" stroke="#191970" d="M884.1088,-231.3333C969.3244,-218.7049 1130.962,-194.7514 1205.0867,-183.7667"/>
<polygon fill="#191970" stroke="#191970" points="1205.9897,-187.1712 1215.3686,-182.243 1204.9635,-180.2468 1205.9897,-187.1712"/>
</g>
<!-- Node28&#45;&gt;Node19 -->
<g id="edge43" class="edge">
<title>Node28&#45;&gt;Node19</title>
<path fill="none" stroke="#191970" d="M795.4063,-229.8906C758.0917,-219.2169 697.7508,-201.9566 657.0114,-190.3033"/>
<polygon fill="#191970" stroke="#191970" points="657.9348,-186.9271 647.3579,-187.5419 656.0097,-193.6572 657.9348,-186.9271"/>
</g>
<!-- Node29 -->
<g id="node29" class="node">
<title>Node29</title>
<g id="a_node29"><a xlink:title=" ">
<polygon fill="#ffffff" stroke="#bfbfbf" points="770,-168.5 770,-187.5 814,-187.5 814,-168.5 770,-168.5"/>
<text text-anchor="middle" x="792" y="-175.5" font-family="Helvetica,sans-Serif" font-size="10.00" fill="#000000">string</text>
</a>
</g>
</g>
<!-- Node28&#45;&gt;Node29 -->
<g id="edge44" class="edge">
<title>Node28&#45;&gt;Node29</title>
<path fill="none" stroke="#191970" d="M823.2188,-229.8906C817.874,-221.0068 809.7841,-207.5601 803.1789,-196.5811"/>
<polygon fill="#191970" stroke="#191970" points="806.0171,-194.5093 797.8628,-187.7449 800.0189,-198.118 806.0171,-194.5093"/>
</g>
<!-- Node32&#45;&gt;Node28 -->
<g id="edge63" class="edge">
<title>Node32&#45;&gt;Node28</title>
<path fill="none" stroke="#191970" d="M1250.904,-520.3008C1136.574,-510.3397 914,-482.0769 914,-413 914,-413 914,-413 914,-357 914,-326.3494 911.2433,-316.3402 894,-291 883.9007,-276.1584 868.2196,-263.5571 854.7898,-254.5346"/>
<polygon fill="#191970" stroke="#191970" points="856.6779,-251.5876 846.3709,-249.1347 852.8986,-257.4798 856.6779,-251.5876"/>
</g>
<!-- Node33 -->
<g id="node33" class="node">
<title>Node33</title>
<g id="a_node33"><a xlink:href="sitkProcessObject_8h.html" target="_top" xlink:title=" ">
<polygon fill="#ffffff" stroke="#000000" points="1207.5,-459.5 1207.5,-478.5 1320.5,-478.5 1320.5,-459.5 1207.5,-459.5"/>
<text text-anchor="middle" x="1264" y="-466.5" font-family="Helvetica,sans-Serif" font-size="10.00" fill="#000000">sitkProcessObject.h</text>
</a>
</g>
</g>
<!-- Node32&#45;&gt;Node33 -->
<g id="edge51" class="edge">
<title>Node32&#45;&gt;Node33</title>
<path fill="none" stroke="#191970" d="M1307.7681,-515.2455C1300.1683,-507.2155 1289.2123,-495.6394 1280.1632,-486.0781"/>
<polygon fill="#191970" stroke="#191970" points="1282.542,-483.4998 1273.1261,-478.6427 1277.4579,-488.3115 1282.542,-483.4998"/>
</g>
<!-- Node38 -->
<g id="node38" class="node">
<title>Node38</title>
<g id="a_node38"><a xlink:href="sitkIO_8h.html" target="_top" xlink:title=" ">
<polygon fill="#ffffff" stroke="#000000" points="1508.5,-459.5 1508.5,-478.5 1561.5,-478.5 1561.5,-459.5 1508.5,-459.5"/>
<text text-anchor="middle" x="1535" y="-466.5" font-family="Helvetica,sans-Serif" font-size="10.00" fill="#000000">sitkIO.h</text>
</a>
</g>
</g>
<!-- Node32&#45;&gt;Node38 -->
<g id="edge64" class="edge">
<title>Node32&#45;&gt;Node38</title>
<path fill="none" stroke="#191970" d="M1354.4755,-515.3733C1394.7915,-505.0169 1458.4802,-488.6565 1498.4386,-478.3919"/>
<polygon fill="#191970" stroke="#191970" points="1499.4883,-481.736 1508.303,-475.8579 1497.7466,-474.9561 1499.4883,-481.736"/>
</g>
<!-- Node33&#45;&gt;Node9 -->
<g id="edge58" class="edge">
<title>Node33&#45;&gt;Node9</title>
<path fill="none" stroke="#191970" d="M1320.8727,-459.5577C1360.3201,-451.7145 1407.8682,-439.2255 1420,-423 1434.5381,-403.5562 1409.3274,-384.0935 1386.1915,-371.3955"/>
<polygon fill="#191970" stroke="#191970" points="1387.6725,-368.2208 1377.1856,-366.7123 1384.4429,-374.4312 1387.6725,-368.2208"/>
</g>
<!-- Node33&#45;&gt;Node10 -->
<g id="edge52" class="edge">
<title>Node33&#45;&gt;Node10</title>
<path fill="none" stroke="#191970" d="M1207.4536,-459.7265C1185.4628,-453.1752 1162.1891,-442.0114 1148,-423 1114.8333,-378.5612 1124.2328,-201.5463 1128.4618,-141.8073"/>
<polygon fill="#191970" stroke="#191970" points="1131.9558,-142.016 1129.2022,-131.7852 1124.9749,-141.5001 1131.9558,-142.016"/>
</g>
<!-- Node33&#45;&gt;Node11 -->
<g id="edge54" class="edge">
<title>Node33&#45;&gt;Node11</title>
<path fill="none" stroke="#191970" d="M1320.6646,-461.4482C1365.4597,-454.1794 1422.7455,-441.5401 1437,-423 1475.8602,-372.4567 1430.2106,-292.7153 1406.0817,-257.3768"/>
<polygon fill="#191970" stroke="#191970" points="1408.8197,-255.1858 1400.2043,-249.0194 1403.0938,-259.2126 1408.8197,-255.1858"/>
</g>
<!-- Node33&#45;&gt;Node22 -->
<g id="edge53" class="edge">
<title>Node33&#45;&gt;Node22</title>
<path fill="none" stroke="#191970" d="M1207.3246,-460.3606C1118.119,-445.1449 955,-410.0668 955,-357 955,-357 955,-357 955,-301 955,-258.6237 923.7041,-217.1352 903.5749,-194.833"/>
<polygon fill="#191970" stroke="#191970" points="906.1265,-192.4373 896.7427,-187.5183 901.0109,-197.2154 906.1265,-192.4373"/>
</g>
<!-- Node34 -->
<g id="node34" class="node">
<title>Node34</title>
<g id="a_node34"><a xlink:href="sitkEvent_8h.html" target="_top" xlink:title=" ">
<polygon fill="#ffffff" stroke="#000000" points="1151.5,-230 1151.5,-249 1222.5,-249 1222.5,-230 1151.5,-230"/>
<text text-anchor="middle" x="1187" y="-237" font-family="Helvetica,sans-Serif" font-size="10.00" fill="#000000">sitkEvent.h</text>
</a>
</g>
</g>
<!-- Node33&#45;&gt;Node34 -->
<g id="edge55" class="edge">
<title>Node33&#45;&gt;Node34</title>
<path fill="none" stroke="#191970" d="M1215.0299,-459.4436C1194.7123,-452.8037 1173.0956,-441.649 1161,-423 1127.3757,-371.1581 1158.8307,-293.8315 1176.6463,-258.4299"/>
<polygon fill="#191970" stroke="#191970" points="1179.9207,-259.7208 1181.4478,-249.2366 1173.7159,-256.4802 1179.9207,-259.7208"/>
</g>
<!-- Node35 -->
<g id="node35" class="node">
<title>Node35</title>
<g id="a_node35"><a xlink:href="sitkImageConvert_8h.html" target="_top" xlink:title=" ">
<polygon fill="#ffffff" stroke="#000000" points="1298.5,-403.5 1298.5,-422.5 1411.5,-422.5 1411.5,-403.5 1298.5,-403.5"/>
<text text-anchor="middle" x="1355" y="-410.5" font-family="Helvetica,sans-Serif" font-size="10.00" fill="#000000">sitkImageConvert.h</text>
</a>
</g>
</g>
<!-- Node33&#45;&gt;Node35 -->
<g id="edge59" class="edge">
<title>Node33&#45;&gt;Node35</title>
<path fill="none" stroke="#191970" d="M1279.851,-459.2455C1293.8132,-450.6534 1314.3728,-438.0014 1330.4596,-428.1018"/>
<polygon fill="#191970" stroke="#191970" points="1332.6484,-430.8645 1339.3307,-422.6427 1328.9797,-424.9029 1332.6484,-430.8645"/>
</g>
<!-- Node36 -->
<g id="node36" class="node">
<title>Node36</title>
<g id="a_node36"><a xlink:title=" ">
<polygon fill="#ffffff" stroke="#bfbfbf" points="1170,-403.5 1170,-422.5 1230,-422.5 1230,-403.5 1170,-403.5"/>
<text text-anchor="middle" x="1200" y="-410.5" font-family="Helvetica,sans-Serif" font-size="10.00" fill="#000000">iostream</text>
</a>
</g>
</g>
<!-- Node33&#45;&gt;Node36 -->
<g id="edge61" class="edge">
<title>Node33&#45;&gt;Node36</title>
<path fill="none" stroke="#191970" d="M1252.8521,-459.2455C1243.4913,-451.0549 1229.9142,-439.1749 1218.8651,-429.5069"/>
<polygon fill="#191970" stroke="#191970" points="1220.8508,-426.5937 1211.0202,-422.6427 1216.2412,-431.8618 1220.8508,-426.5937"/>
</g>
<!-- Node37 -->
<g id="node37" class="node">
<title>Node37</title>
<g id="a_node37"><a xlink:title=" ">
<polygon fill="#ffffff" stroke="#bfbfbf" points="1248,-403.5 1248,-422.5 1280,-422.5 1280,-403.5 1248,-403.5"/>
<text text-anchor="middle" x="1264" y="-410.5" font-family="Helvetica,sans-Serif" font-size="10.00" fill="#000000">list</text>
</a>
</g>
</g>
<!-- Node33&#45;&gt;Node37 -->
<g id="edge62" class="edge">
<title>Node33&#45;&gt;Node37</title>
<path fill="none" stroke="#191970" d="M1264,-459.2455C1264,-451.9382 1264,-441.6944 1264,-432.7046"/>
<polygon fill="#191970" stroke="#191970" points="1267.5001,-432.6426 1264,-422.6427 1260.5001,-432.6427 1267.5001,-432.6426"/>
</g>
<!-- Node34&#45;&gt;Node10 -->
<g id="edge56" class="edge">
<title>Node34&#45;&gt;Node10</title>
<path fill="none" stroke="#191970" d="M1184.7495,-229.884C1181.2413,-215.8056 1173.7386,-188.9804 1163,-168 1157.9355,-158.1053 1150.9053,-147.9755 1144.6346,-139.7494"/>
<polygon fill="#191970" stroke="#191970" points="1147.201,-137.3516 1138.2574,-131.6716 1141.7068,-141.6892 1147.201,-137.3516"/>
</g>
<!-- Node34&#45;&gt;Node14 -->
<g id="edge57" class="edge">
<title>Node34&#45;&gt;Node14</title>
<path fill="none" stroke="#191970" d="M1195.9063,-229.8906C1204.4728,-220.6478 1217.6169,-206.466 1228.0003,-195.2628"/>
<polygon fill="#191970" stroke="#191970" points="1230.7375,-197.4584 1234.9682,-187.7449 1225.6035,-192.7 1230.7375,-197.4584"/>
</g>
<!-- Node35&#45;&gt;Node9 -->
<g id="edge60" class="edge">
<title>Node35&#45;&gt;Node9</title>
<path fill="none" stroke="#191970" d="M1355,-403.2455C1355,-395.9382 1355,-385.6944 1355,-376.7046"/>
<polygon fill="#191970" stroke="#191970" points="1358.5001,-376.6426 1355,-366.6427 1351.5001,-376.6427 1358.5001,-376.6426"/>
</g>
<!-- Node38&#45;&gt;Node2 -->
<g id="edge65" class="edge">
<title>Node38&#45;&gt;Node2</title>
<path fill="none" stroke="#191970" d="M1537.8035,-459.2066C1543.0887,-439.8521 1554,-395.2612 1554,-357 1554,-357 1554,-357 1554,-178 1554,-128.5164 1197.619,-85.0714 1067.682,-70.8758"/>
<polygon fill="#191970" stroke="#191970" points="1067.9541,-67.3849 1057.6352,-69.7873 1067.2,-74.3442 1067.9541,-67.3849"/>
</g>
<!-- Node39&#45;&gt;Node5 -->
<g id="edge71" class="edge">
<title>Node39&#45;&gt;Node5</title>
<path fill="none" stroke="#191970" d="M592.937,-351.3523C415.2992,-337.6036 0,-299.0884 0,-239.5 0,-239.5 0,-239.5 0,-122 0,-66.43 183.4052,-29.2041 262.9313,-15.6746"/>
<polygon fill="#191970" stroke="#191970" points="263.7014,-19.0946 272.9888,-13.9961 262.549,-12.1901 263.7014,-19.0946"/>
</g>
<!-- Node39&#45;&gt;Node12 -->
<g id="edge74" class="edge">
<title>Node39&#45;&gt;Node12</title>
<path fill="none" stroke="#191970" d="M675.6621,-347.341C685.6826,-322.3395 716.1095,-255.2809 765,-224 772.9014,-218.9446 878.4232,-201.0682 951.4943,-189.1467"/>
<polygon fill="#191970" stroke="#191970" points="952.268,-192.567 961.576,-187.5061 951.1436,-185.6578 952.268,-192.567"/>
</g>
<!-- Node39&#45;&gt;Node16 -->
<g id="edge67" class="edge">
<title>Node39&#45;&gt;Node16</title>
<path fill="none" stroke="#191970" d="M666.2518,-347.2455C661.7565,-339.617 655.3752,-328.7881 649.9175,-319.5267"/>
<polygon fill="#191970" stroke="#191970" points="652.7747,-317.4811 644.6823,-310.6427 646.7439,-321.035 652.7747,-317.4811"/>
</g>
<!-- Node39&#45;&gt;Node17 -->
<g id="edge68" class="edge">
<title>Node39&#45;&gt;Node17</title>
<path fill="none" stroke="#191970" d="M592.9764,-351.8985C524.8762,-346.0023 433.2062,-334.0001 405,-311 391.0652,-299.6372 384.0415,-280.4008 380.5146,-264.7413"/>
<polygon fill="#191970" stroke="#191970" points="383.8952,-263.783 378.5896,-254.6123 377.0183,-265.09 383.8952,-263.783"/>
</g>
<!-- Node39&#45;&gt;Node27 -->
<g id="edge73" class="edge">
<title>Node39&#45;&gt;Node27</title>
<path fill="none" stroke="#191970" d="M698.9893,-347.3733C724.8699,-338.1419 764.1248,-324.1402 792.7289,-313.9375"/>
<polygon fill="#191970" stroke="#191970" points="794.12,-317.1573 802.3629,-310.5011 791.7683,-310.5642 794.12,-317.1573"/>
</g>
<!-- Node39&#45;&gt;Node28 -->
<g id="edge69" class="edge">
<title>Node39&#45;&gt;Node28</title>
<path fill="none" stroke="#191970" d="M684.848,-347.3845C711.8733,-327.1585 774.8256,-280.0445 807.8772,-255.3085"/>
<polygon fill="#191970" stroke="#191970" points="810.0655,-258.0424 815.9745,-249.2484 805.8712,-252.4381 810.0655,-258.0424"/>
</g>
<!-- Node39&#45;&gt;Node39 -->
<g id="edge72" class="edge">
<title>Node39&#45;&gt;Node39</title>
<path fill="none" stroke="#191970" d="M713.1182,-366.5001C741.3159,-369.3269 769,-366.1602 769,-357 769,-348.9491 747.6147,-345.528 723.291,-346.7367"/>
<polygon fill="#191970" stroke="#191970" points="722.8282,-343.2615 713.1182,-347.4999 723.352,-350.2418 722.8282,-343.2615"/>
</g>
<!-- Node40 -->
<g id="node40" class="node">
<title>Node40</title>
<g id="a_node40"><a xlink:title=" ">
<polygon fill="#ffffff" stroke="#bfbfbf" points="414,-291.5 414,-310.5 584,-310.5 584,-291.5 414,-291.5"/>
<text text-anchor="middle" x="499" y="-298.5" font-family="Helvetica,sans-Serif" font-size="10.00" fill="#000000">sitkMemberFunctionFactory.hxx</text>
</a>
</g>
</g>
<!-- Node39&#45;&gt;Node40 -->
<g id="edge70" class="edge">
<title>Node39&#45;&gt;Node40</title>
<path fill="none" stroke="#191970" d="M642.2602,-347.3733C613.493,-338.0613 569.73,-323.8953 538.1444,-313.671"/>
<polygon fill="#191970" stroke="#191970" points="538.9436,-310.251 528.3517,-310.5011 536.7878,-316.9107 538.9436,-310.251"/>
</g>
</g>
</svg>
        <g id="navigator" transform="translate(0 0)" fill="#404254">
                <rect fill="#f2f5e9" fill-opacity="0.5" stroke="#606060" stroke-width=".5" x="0" y="0" width="60" height="60"/>
                <use id="zoomplus" xlink:href="#zoomPlus" x="17" y="9" onmousedown="handleZoom(evt,'in')"/>
                <use id="zoomminus" xlink:href="#zoomMin" x="42" y="9" onmousedown="handleZoom(evt,'out')"/>
                <use id="reset" xlink:href="#resetDef" x="30" y="36" onmousedown="handleReset()"/>
                <g id="arrowUp" xlink:href="#dirArrow" transform="translate(30 24)" onmousedown="handlePan(0,-1)">
                  <use xlink:href="#rim" fill="#404040">
                        <set attributeName="fill" to="#808080" begin="arrowUp.mouseover" end="arrowUp.mouseout"/>
                  </use>
                  <path fill="none" stroke="white" stroke-width="1.5" d="M0,-3.0v7 M-2.5,-0.5L0,-3.0L2.5,-0.5"/>
                </g>
                <g id="arrowRight" xlink:href="#dirArrow" transform="rotate(90) translate(36 -43)" onmousedown="handlePan(1,0)">
                  <use xlink:href="#rim" fill="#404040">
                        <set attributeName="fill" to="#808080" begin="arrowRight.mouseover" end="arrowRight.mouseout"/>
                  </use>
                  <path fill="none" stroke="white" stroke-width="1.5" d="M0,-3.0v7 M-2.5,-0.5L0,-3.0L2.5,-0.5"/>
                </g>
                <g id="arrowDown" xlink:href="#dirArrow" transform="rotate(180) translate(-30 -48)" onmousedown="handlePan(0,1)">
                  <use xlink:href="#rim" fill="#404040">
                        <set attributeName="fill" to="#808080" begin="arrowDown.mouseover" end="arrowDown.mouseout"/>
                  </use>
                  <path fill="none" stroke="white" stroke-width="1.5" d="M0,-3.0v7 M-2.5,-0.5L0,-3.0L2.5,-0.5"/>
                </g>
                <g id="arrowLeft" xlink:href="#dirArrow" transform="rotate(270) translate(-36 17)" onmousedown="handlePan(-1,0)">
                  <use xlink:href="#rim" fill="#404040">
                        <set attributeName="fill" to="#808080" begin="arrowLeft.mouseover" end="arrowLeft.mouseout"/>
                  </use>
                  <path fill="none" stroke="white" stroke-width="1.5" d="M0,-3.0v7 M-2.5,-0.5L0,-3.0L2.5,-0.5"/>
                </g>
        </g>
        <svg viewBox="0 0 15 15" width="100%" height="30px" preserveAspectRatio="xMaxYMin meet">
         <g id="arrow_out" transform="scale(0.3 0.3)">
          <a xlink:href="sitkImageSeriesReader_8h__incl_org.svg" target="_base">
           <rect id="button" ry="5" rx="5" y="6" x="6" height="38" width="38"
                fill="#f2f5e9" fill-opacity="0.5" stroke="#606060" stroke-width="1.0"/>
           <path id="arrow"
             d="M 11.500037,31.436501 C 11.940474,20.09759 22.043105,11.32322 32.158766,21.979434 L 37.068811,17.246167 C 37.068811,17.246167 37.088388,32 37.088388,32 L 22.160133,31.978069 C 22.160133,31.978069 26.997745,27.140456 26.997745,27.140456 C 18.528582,18.264221 13.291696,25.230495 11.500037,31.436501 z"
             style="fill:#404040;"/>
          </a>
         </g>
        </svg>
</svg>
