<?xml version="1.0" encoding="UTF-8" standalone="no"?>
<!DOCTYPE svg PUBLIC "-//W3C//DTD SVG 1.1//EN"
 "http://www.w3.org/Graphics/SVG/1.1/DTD/svg11.dtd">
<!-- Generated by graphviz version 2.40.1 (20161225.0304)
 -->
<!-- Title: sitkCenteredVersorTransformInitializerFilter.h Pages: 1 -->
<svg width="1880pt" height="554pt"
 viewBox="0.00 0.00 1880.00 554.00" xmlns="http://www.w3.org/2000/svg" xmlns:xlink="http://www.w3.org/1999/xlink">
<g id="graph0" class="graph" transform="scale(1 1) rotate(0) translate(4 550)">
<title>sitkCenteredVersorTransformInitializerFilter.h</title>
<polygon fill="#ffffff" stroke="transparent" points="-4,4 -4,-550 1876,-550 1876,4 -4,4"/>
<!-- Node1 -->
<g id="node1" class="node">
<title>Node1</title>
<g id="a_node1"><a xlink:title=" ">
<polygon fill="#bfbfbf" stroke="#000000" points="466,-515.5 466,-545.5 624,-545.5 624,-515.5 466,-515.5"/>
<text text-anchor="start" x="474" y="-533.5" font-family="Helvetica,sans-Serif" font-size="10.00" fill="#000000">sitkCenteredVersorTransform</text>
<text text-anchor="middle" x="545" y="-522.5" font-family="Helvetica,sans-Serif" font-size="10.00" fill="#000000">InitializerFilter.h</text>
</a>
</g>
</g>
<!-- Node2 -->
<g id="node2" class="node">
<title>Node2</title>
<g id="a_node2"><a xlink:title=" ">
<polygon fill="#ffffff" stroke="#bfbfbf" points="0,-291.5 0,-310.5 58,-310.5 58,-291.5 0,-291.5"/>
<text text-anchor="middle" x="29" y="-298.5" font-family="Helvetica,sans-Serif" font-size="10.00" fill="#000000">memory</text>
</a>
</g>
</g>
<!-- Node1&#45;&gt;Node2 -->
<g id="edge1" class="edge">
<title>Node1&#45;&gt;Node2</title>
<path fill="none" stroke="#191970" d="M465.9357,-522.5504C346.2352,-508.9126 127.0999,-477.1649 72,-423 43.693,-395.1734 33.9762,-347.6148 30.6729,-320.8361"/>
<polygon fill="#191970" stroke="#191970" points="34.1391,-320.3299 29.6143,-310.7499 27.1773,-321.0606 34.1391,-320.3299"/>
</g>
<!-- Node3 -->
<g id="node3" class="node">
<title>Node3</title>
<g id="a_node3"><a xlink:href="sitkBasicFilters_8h.html" target="_top" xlink:title=" ">
<polygon fill="#ffffff" stroke="#000000" points="249.5,-459.5 249.5,-478.5 348.5,-478.5 348.5,-459.5 249.5,-459.5"/>
<text text-anchor="middle" x="299" y="-466.5" font-family="Helvetica,sans-Serif" font-size="10.00" fill="#000000">sitkBasicFilters.h</text>
</a>
</g>
</g>
<!-- Node1&#45;&gt;Node3 -->
<g id="edge2" class="edge">
<title>Node1&#45;&gt;Node3</title>
<path fill="none" stroke="#191970" d="M484.8216,-515.4554C442.4257,-504.8564 386.4182,-490.8546 347.0141,-481.0035"/>
<polygon fill="#191970" stroke="#191970" points="347.6716,-477.5602 337.1213,-478.5303 345.9738,-484.3512 347.6716,-477.5602"/>
</g>
<!-- Node38 -->
<g id="node38" class="node">
<title>Node38</title>
<g id="a_node38"><a xlink:href="sitkProcessObject_8h.html" target="_top" xlink:title=" ">
<polygon fill="#ffffff" stroke="#000000" points="729.5,-459.5 729.5,-478.5 842.5,-478.5 842.5,-459.5 729.5,-459.5"/>
<text text-anchor="middle" x="786" y="-466.5" font-family="Helvetica,sans-Serif" font-size="10.00" fill="#000000">sitkProcessObject.h</text>
</a>
</g>
</g>
<!-- Node1&#45;&gt;Node38 -->
<g id="edge65" class="edge">
<title>Node1&#45;&gt;Node38</title>
<path fill="none" stroke="#191970" d="M603.9552,-515.4554C645.4013,-504.8789 700.1256,-490.914 738.7157,-481.0663"/>
<polygon fill="#191970" stroke="#191970" points="739.8295,-484.3943 748.6536,-478.5303 738.0986,-477.6117 739.8295,-484.3943"/>
</g>
<!-- Node43 -->
<g id="node43" class="node">
<title>Node43</title>
<g id="a_node43"><a xlink:href="sitkMemberFunctionFactory_8h.html" target="_top" xlink:title=" ">
<polygon fill="#ffffff" stroke="#000000" points="1120,-347.5 1120,-366.5 1278,-366.5 1278,-347.5 1120,-347.5"/>
<text text-anchor="middle" x="1199" y="-354.5" font-family="Helvetica,sans-Serif" font-size="10.00" fill="#000000">sitkMemberFunctionFactory.h</text>
</a>
</g>
</g>
<!-- Node1&#45;&gt;Node43 -->
<g id="edge77" class="edge">
<title>Node1&#45;&gt;Node43</title>
<path fill="none" stroke="#191970" d="M624.2509,-520.5205C759.56,-502.6634 1028.8714,-463.325 1115,-423 1141.032,-410.8119 1166.3316,-389.1911 1182.2444,-374.0261"/>
<polygon fill="#191970" stroke="#191970" points="1184.9629,-376.263 1189.6643,-366.7683 1180.0681,-371.2588 1184.9629,-376.263"/>
</g>
<!-- Node4 -->
<g id="node4" class="node">
<title>Node4</title>
<g id="a_node4"><a xlink:href="sitkMacro_8h.html" target="_top" xlink:title=" ">
<polygon fill="#ffffff" stroke="#000000" points="943.5,-56.5 943.5,-75.5 1016.5,-75.5 1016.5,-56.5 943.5,-56.5"/>
<text text-anchor="middle" x="980" y="-63.5" font-family="Helvetica,sans-Serif" font-size="10.00" fill="#000000">sitkMacro.h</text>
</a>
</g>
</g>
<!-- Node3&#45;&gt;Node4 -->
<g id="edge3" class="edge">
<title>Node3&#45;&gt;Node4</title>
<path fill="none" stroke="#191970" d="M249.3298,-464.5291C186.39,-455.823 86,-430.4279 86,-357 86,-357 86,-357 86,-178 86,-91.7843 749.0663,-70.9998 933.1185,-66.8912"/>
<polygon fill="#191970" stroke="#191970" points="933.3658,-70.3867 943.2874,-66.6704 933.2138,-63.3884 933.3658,-70.3867"/>
</g>
<!-- Node11 -->
<g id="node11" class="node">
<title>Node11</title>
<g id="a_node11"><a xlink:href="sitkInterpolator_8h.html" target="_top" xlink:title=" ">
<polygon fill="#ffffff" stroke="#000000" points="228,-230 228,-249 328,-249 328,-230 228,-230"/>
<text text-anchor="middle" x="278" y="-237" font-family="Helvetica,sans-Serif" font-size="10.00" fill="#000000">sitkInterpolator.h</text>
</a>
</g>
</g>
<!-- Node3&#45;&gt;Node11 -->
<g id="edge10" class="edge">
<title>Node3&#45;&gt;Node11</title>
<path fill="none" stroke="#191970" d="M298.1244,-459.4309C294.969,-424.9475 284.1394,-306.5953 279.8098,-259.2785"/>
<polygon fill="#191970" stroke="#191970" points="283.2761,-258.7494 278.8793,-249.11 276.3052,-259.3873 283.2761,-258.7494"/>
</g>
<!-- Node14 -->
<g id="node14" class="node">
<title>Node14</title>
<g id="a_node14"><a xlink:href="sitkRandomSeed_8h.html" target="_top" xlink:title=" ">
<polygon fill="#ffffff" stroke="#000000" points="148,-347.5 148,-366.5 256,-366.5 256,-347.5 148,-347.5"/>
<text text-anchor="middle" x="202" y="-354.5" font-family="Helvetica,sans-Serif" font-size="10.00" fill="#000000">sitkRandomSeed.h</text>
</a>
</g>
</g>
<!-- Node3&#45;&gt;Node14 -->
<g id="edge14" class="edge">
<title>Node3&#45;&gt;Node14</title>
<path fill="none" stroke="#191970" d="M274.5965,-459.3762C258.1809,-451.7591 237.2046,-439.6264 224,-423 213.4497,-409.7157 207.8539,-391.1414 204.9518,-377.0805"/>
<polygon fill="#191970" stroke="#191970" points="208.3495,-376.1949 203.1587,-366.9588 201.4568,-377.416 208.3495,-376.1949"/>
</g>
<!-- Node15 -->
<g id="node15" class="node">
<title>Node15</title>
<g id="a_node15"><a xlink:href="sitkKernel_8h.html" target="_top" xlink:title=" ">
<polygon fill="#ffffff" stroke="#000000" points="346,-230 346,-249 420,-249 420,-230 346,-230"/>
<text text-anchor="middle" x="383" y="-237" font-family="Helvetica,sans-Serif" font-size="10.00" fill="#000000">sitkKernel.h</text>
</a>
</g>
</g>
<!-- Node3&#45;&gt;Node15 -->
<g id="edge16" class="edge">
<title>Node3&#45;&gt;Node15</title>
<path fill="none" stroke="#191970" d="M302.5024,-459.4309C315.1772,-424.8017 358.8091,-305.5929 375.9791,-258.6821"/>
<polygon fill="#191970" stroke="#191970" points="379.3322,-259.7038 379.4826,-249.11 372.7587,-257.2977 379.3322,-259.7038"/>
</g>
<!-- Node16 -->
<g id="node16" class="node">
<title>Node16</title>
<g id="a_node16"><a xlink:href="sitkTransform_8h.html" target="_top" xlink:title=" ">
<polygon fill="#ffffff" stroke="#000000" points="666,-403.5 666,-422.5 758,-422.5 758,-403.5 666,-403.5"/>
<text text-anchor="middle" x="712" y="-410.5" font-family="Helvetica,sans-Serif" font-size="10.00" fill="#000000">sitkTransform.h</text>
</a>
</g>
</g>
<!-- Node3&#45;&gt;Node16 -->
<g id="edge19" class="edge">
<title>Node3&#45;&gt;Node16</title>
<path fill="none" stroke="#191970" d="M348.8174,-462.2451C426.1765,-451.7557 574.7038,-431.6164 655.7901,-420.6217"/>
<polygon fill="#191970" stroke="#191970" points="656.3743,-424.0746 665.8134,-419.2626 655.4337,-417.1381 656.3743,-424.0746"/>
</g>
<!-- Node37 -->
<g id="node37" class="node">
<title>Node37</title>
<g id="a_node37"><a xlink:title=" ">
<polygon fill="#ffffff" stroke="#bfbfbf" points="233,-403.5 233,-422.5 271,-422.5 271,-403.5 233,-403.5"/>
<text text-anchor="middle" x="252" y="-410.5" font-family="Helvetica,sans-Serif" font-size="10.00" fill="#000000">map</text>
</a>
</g>
</g>
<!-- Node3&#45;&gt;Node37 -->
<g id="edge64" class="edge">
<title>Node3&#45;&gt;Node37</title>
<path fill="none" stroke="#191970" d="M290.8132,-459.2455C284.1411,-451.2958 274.5521,-439.8706 266.5747,-430.3656"/>
<polygon fill="#191970" stroke="#191970" points="269.2026,-428.0524 260.093,-422.6427 263.8408,-432.5525 269.2026,-428.0524"/>
</g>
<!-- Node5 -->
<g id="node5" class="node">
<title>Node5</title>
<g id="a_node5"><a xlink:title=" ">
<polygon fill="#ffffff" stroke="#bfbfbf" points="1115.5,-.5 1115.5,-19.5 1168.5,-19.5 1168.5,-.5 1115.5,-.5"/>
<text text-anchor="middle" x="1142" y="-7.5" font-family="Helvetica,sans-Serif" font-size="10.00" fill="#000000">stdint.h</text>
</a>
</g>
</g>
<!-- Node4&#45;&gt;Node5 -->
<g id="edge4" class="edge">
<title>Node4&#45;&gt;Node5</title>
<path fill="none" stroke="#191970" d="M1007.8488,-56.3733C1034.9141,-47.0173 1076.1546,-32.7614 1105.7628,-22.5264"/>
<polygon fill="#191970" stroke="#191970" points="1107.0129,-25.7976 1115.3206,-19.2225 1104.7259,-19.1817 1107.0129,-25.7976"/>
</g>
<!-- Node6 -->
<g id="node6" class="node">
<title>Node6</title>
<g id="a_node6"><a xlink:title=" ">
<polygon fill="#ffffff" stroke="#bfbfbf" points="878,-.5 878,-19.5 934,-19.5 934,-.5 878,-.5"/>
<text text-anchor="middle" x="906" y="-7.5" font-family="Helvetica,sans-Serif" font-size="10.00" fill="#000000">stddef.h</text>
</a>
</g>
</g>
<!-- Node4&#45;&gt;Node6 -->
<g id="edge5" class="edge">
<title>Node4&#45;&gt;Node6</title>
<path fill="none" stroke="#191970" d="M967.1102,-56.2455C956.0746,-47.8943 939.9708,-35.7076 927.0647,-25.9408"/>
<polygon fill="#191970" stroke="#191970" points="928.8283,-22.8862 918.7421,-19.6427 924.6041,-28.4681 928.8283,-22.8862"/>
</g>
<!-- Node7 -->
<g id="node7" class="node">
<title>Node7</title>
<g id="a_node7"><a xlink:title=" ">
<polygon fill="#ffffff" stroke="#bfbfbf" points="1575,-.5 1575,-19.5 1627,-19.5 1627,-.5 1575,-.5"/>
<text text-anchor="middle" x="1601" y="-7.5" font-family="Helvetica,sans-Serif" font-size="10.00" fill="#000000">cassert</text>
</a>
</g>
</g>
<!-- Node4&#45;&gt;Node7 -->
<g id="edge6" class="edge">
<title>Node4&#45;&gt;Node7</title>
<path fill="none" stroke="#191970" d="M1016.528,-62.706C1126.6081,-52.7793 1454.3194,-23.2272 1564.4407,-13.2968"/>
<polygon fill="#191970" stroke="#191970" points="1565.0566,-16.7556 1574.7019,-12.3715 1564.4279,-9.7839 1565.0566,-16.7556"/>
</g>
<!-- Node8 -->
<g id="node8" class="node">
<title>Node8</title>
<g id="a_node8"><a xlink:title=" ">
<polygon fill="#ffffff" stroke="#bfbfbf" points="952,-.5 952,-19.5 1008,-19.5 1008,-.5 952,-.5"/>
<text text-anchor="middle" x="980" y="-7.5" font-family="Helvetica,sans-Serif" font-size="10.00" fill="#000000">sstream</text>
</a>
</g>
</g>
<!-- Node4&#45;&gt;Node8 -->
<g id="edge7" class="edge">
<title>Node4&#45;&gt;Node8</title>
<path fill="none" stroke="#191970" d="M980,-56.2455C980,-48.9382 980,-38.6944 980,-29.7046"/>
<polygon fill="#191970" stroke="#191970" points="983.5001,-29.6426 980,-19.6427 976.5001,-29.6427 983.5001,-29.6426"/>
</g>
<!-- Node9 -->
<g id="node9" class="node">
<title>Node9</title>
<g id="a_node9"><a xlink:title=" ">
<polygon fill="#ffffff" stroke="#bfbfbf" points="1026,-.5 1026,-19.5 1070,-19.5 1070,-.5 1026,-.5"/>
<text text-anchor="middle" x="1048" y="-7.5" font-family="Helvetica,sans-Serif" font-size="10.00" fill="#000000">limits</text>
</a>
</g>
</g>
<!-- Node4&#45;&gt;Node9 -->
<g id="edge8" class="edge">
<title>Node4&#45;&gt;Node9</title>
<path fill="none" stroke="#191970" d="M991.8447,-56.2455C1001.888,-47.9746 1016.4995,-35.9416 1028.3004,-26.2232"/>
<polygon fill="#191970" stroke="#191970" points="1030.7967,-28.7015 1036.291,-19.6427 1026.3467,-23.298 1030.7967,-28.7015"/>
</g>
<!-- Node10 -->
<g id="node10" class="node">
<title>Node10</title>
<g id="a_node10"><a xlink:href="sitkConfigure_8h.html" target="_top" xlink:title=" ">
<polygon fill="#ffffff" stroke="#000000" points="1228,-.5 1228,-19.5 1318,-19.5 1318,-.5 1228,-.5"/>
<text text-anchor="middle" x="1273" y="-7.5" font-family="Helvetica,sans-Serif" font-size="10.00" fill="#000000">sitkConfigure.h</text>
</a>
</g>
</g>
<!-- Node4&#45;&gt;Node10 -->
<g id="edge9" class="edge">
<title>Node4&#45;&gt;Node10</title>
<path fill="none" stroke="#191970" d="M1016.5162,-59.0208C1067.127,-49.3477 1159.0074,-31.787 1217.9584,-20.5199"/>
<polygon fill="#191970" stroke="#191970" points="1218.6795,-23.9455 1227.8446,-18.6304 1217.3653,-17.07 1218.6795,-23.9455"/>
</g>
<!-- Node12 -->
<g id="node12" class="node">
<title>Node12</title>
<g id="a_node12"><a xlink:href="sitkCommon_8h.html" target="_top" xlink:title=" ">
<polygon fill="#ffffff" stroke="#000000" points="514,-112.5 514,-131.5 602,-131.5 602,-112.5 514,-112.5"/>
<text text-anchor="middle" x="558" y="-119.5" font-family="Helvetica,sans-Serif" font-size="10.00" fill="#000000">sitkCommon.h</text>
</a>
</g>
</g>
<!-- Node11&#45;&gt;Node12 -->
<g id="edge11" class="edge">
<title>Node11&#45;&gt;Node12</title>
<path fill="none" stroke="#191970" d="M293.6215,-229.9328C318.1534,-215.1948 367.5115,-186.6883 412,-168 444.4378,-154.3739 482.3721,-142.5388 511.4425,-134.2865"/>
<polygon fill="#191970" stroke="#191970" points="512.6446,-137.5847 521.3319,-131.52 510.7587,-130.8435 512.6446,-137.5847"/>
</g>
<!-- Node13 -->
<g id="node13" class="node">
<title>Node13</title>
<g id="a_node13"><a xlink:title=" ">
<polygon fill="#ffffff" stroke="#bfbfbf" points="514.5,-168.5 514.5,-187.5 571.5,-187.5 571.5,-168.5 514.5,-168.5"/>
<text text-anchor="middle" x="543" y="-175.5" font-family="Helvetica,sans-Serif" font-size="10.00" fill="#000000">ostream</text>
</a>
</g>
</g>
<!-- Node11&#45;&gt;Node13 -->
<g id="edge13" class="edge">
<title>Node11&#45;&gt;Node13</title>
<path fill="none" stroke="#191970" d="M313.513,-229.9417C321.2417,-227.9255 329.3844,-225.85 337,-224 395.1041,-209.8855 462.8291,-195.0756 504.3047,-186.1911"/>
<polygon fill="#191970" stroke="#191970" points="505.2138,-189.5759 514.2619,-184.064 503.7514,-182.7304 505.2138,-189.5759"/>
</g>
<!-- Node12&#45;&gt;Node4 -->
<g id="edge12" class="edge">
<title>Node12&#45;&gt;Node4</title>
<path fill="none" stroke="#191970" d="M602.3638,-116.1129C682.6248,-105.4621 851.2032,-83.0915 933.2085,-72.2093"/>
<polygon fill="#191970" stroke="#191970" points="933.7892,-75.663 943.2418,-70.8779 932.8683,-68.7238 933.7892,-75.663"/>
</g>
<!-- Node14&#45;&gt;Node12 -->
<g id="edge15" class="edge">
<title>Node14&#45;&gt;Node12</title>
<path fill="none" stroke="#191970" d="M200.1779,-347.3809C196.2537,-323.6003 189.5818,-261.2777 219,-224 254.4341,-179.0992 417.5486,-145.57 503.9463,-130.6125"/>
<polygon fill="#191970" stroke="#191970" points="504.5672,-134.0573 513.8353,-128.9237 503.3887,-127.1572 504.5672,-134.0573"/>
</g>
<!-- Node15&#45;&gt;Node12 -->
<g id="edge17" class="edge">
<title>Node15&#45;&gt;Node12</title>
<path fill="none" stroke="#191970" d="M387.5463,-229.7602C395.1211,-214.5279 411.7205,-185.0505 434,-168 454.5022,-152.3097 480.9151,-141.5284 504.0916,-134.3708"/>
<polygon fill="#191970" stroke="#191970" points="505.1901,-137.6961 513.7996,-131.5213 503.2186,-130.9794 505.1901,-137.6961"/>
</g>
<!-- Node15&#45;&gt;Node13 -->
<g id="edge18" class="edge">
<title>Node15&#45;&gt;Node13</title>
<path fill="none" stroke="#191970" d="M408,-229.8906C435.0058,-219.5103 478.2185,-202.9004 508.4594,-191.2766"/>
<polygon fill="#191970" stroke="#191970" points="510.0971,-194.3968 518.1756,-187.5419 507.5856,-187.8628 510.0971,-194.3968"/>
</g>
<!-- Node16&#45;&gt;Node12 -->
<g id="edge20" class="edge">
<title>Node16&#45;&gt;Node12</title>
<path fill="none" stroke="#191970" d="M665.9287,-405.2582C554.0114,-385.4181 273.0346,-329.0591 219,-255 144.9227,-153.4706 390.3145,-129.4236 503.6846,-123.7463"/>
<polygon fill="#191970" stroke="#191970" points="504.0778,-127.2318 513.9026,-123.2665 503.7494,-120.2395 504.0778,-127.2318"/>
</g>
<!-- Node17 -->
<g id="node17" class="node">
<title>Node17</title>
<g id="a_node17"><a xlink:href="sitkExceptionObject_8h.html" target="_top" xlink:title=" ">
<polygon fill="#ffffff" stroke="#000000" points="816.5,-230 816.5,-249 939.5,-249 939.5,-230 816.5,-230"/>
<text text-anchor="middle" x="878" y="-237" font-family="Helvetica,sans-Serif" font-size="10.00" fill="#000000">sitkExceptionObject.h</text>
</a>
</g>
</g>
<!-- Node16&#45;&gt;Node17 -->
<g id="edge21" class="edge">
<title>Node16&#45;&gt;Node17</title>
<path fill="none" stroke="#191970" d="M714.8114,-403.2653C719.0797,-389.6578 728.1883,-364.6402 742,-347 773.4433,-306.841 822.8553,-272.7421 852.6667,-254.2786"/>
<polygon fill="#191970" stroke="#191970" points="854.5215,-257.2471 861.2476,-249.0611 850.8847,-251.2659 854.5215,-257.2471"/>
</g>
<!-- Node18 -->
<g id="node18" class="node">
<title>Node18</title>
<g id="a_node18"><a xlink:href="sitkImage_8h.html" target="_top" xlink:title=" ">
<polygon fill="#ffffff" stroke="#000000" points="751,-347.5 751,-366.5 825,-366.5 825,-347.5 751,-347.5"/>
<text text-anchor="middle" x="788" y="-354.5" font-family="Helvetica,sans-Serif" font-size="10.00" fill="#000000">sitkImage.h</text>
</a>
</g>
</g>
<!-- Node16&#45;&gt;Node18 -->
<g id="edge24" class="edge">
<title>Node16&#45;&gt;Node18</title>
<path fill="none" stroke="#191970" d="M725.2382,-403.2455C736.681,-394.814 753.4296,-382.4729 766.7475,-372.6598"/>
<polygon fill="#191970" stroke="#191970" points="768.9391,-375.3924 774.9135,-366.6427 764.7867,-369.757 768.9391,-375.3924"/>
</g>
<!-- Node20 -->
<g id="node20" class="node">
<title>Node20</title>
<g id="a_node20"><a xlink:title=" ">
<polygon fill="#ffffff" stroke="#bfbfbf" points="712.5,-230 712.5,-249 759.5,-249 759.5,-230 712.5,-230"/>
<text text-anchor="middle" x="736" y="-237" font-family="Helvetica,sans-Serif" font-size="10.00" fill="#000000">vector</text>
</a>
</g>
</g>
<!-- Node16&#45;&gt;Node20 -->
<g id="edge63" class="edge">
<title>Node16&#45;&gt;Node20</title>
<path fill="none" stroke="#191970" d="M708.4823,-403.2403C701.4438,-382.1942 687.3442,-331.1945 700,-291 703.9632,-278.4129 712.2193,-266.2221 719.8263,-256.8636"/>
<polygon fill="#191970" stroke="#191970" points="722.61,-258.9949 726.488,-249.1353 717.3079,-254.4245 722.61,-258.9949"/>
</g>
<!-- Node17&#45;&gt;Node4 -->
<g id="edge22" class="edge">
<title>Node17&#45;&gt;Node4</title>
<path fill="none" stroke="#191970" d="M883.6293,-229.9248C899.9613,-202.1443 947.5638,-121.1733 969.142,-84.4693"/>
<polygon fill="#191970" stroke="#191970" points="972.2116,-86.154 974.2624,-75.7595 966.1771,-82.6063 972.2116,-86.154"/>
</g>
<!-- Node17&#45;&gt;Node12 -->
<g id="edge23" class="edge">
<title>Node17&#45;&gt;Node12</title>
<path fill="none" stroke="#191970" d="M870.7968,-229.8129C858.5437,-214.0999 832.0322,-183.2787 802,-168 769.5175,-151.4747 673.498,-136.7115 612.0439,-128.5919"/>
<polygon fill="#191970" stroke="#191970" points="612.4873,-125.1201 602.1188,-127.2984 611.5826,-132.0614 612.4873,-125.1201"/>
</g>
<!-- Node18&#45;&gt;Node2 -->
<g id="edge61" class="edge">
<title>Node18&#45;&gt;Node2</title>
<path fill="none" stroke="#191970" d="M750.8781,-354.2611C622.6514,-344.8004 199.0813,-313.5488 68.0065,-303.8779"/>
<polygon fill="#191970" stroke="#191970" points="68.2432,-300.386 58.0127,-303.1406 67.728,-307.367 68.2432,-300.386"/>
</g>
<!-- Node18&#45;&gt;Node12 -->
<g id="edge25" class="edge">
<title>Node18&#45;&gt;Node12</title>
<path fill="none" stroke="#191970" d="M789.4869,-347.1738C792.5167,-323.4582 796.9415,-262.2259 769,-224 731.487,-172.6796 661.1724,-146.0094 612.0659,-133.0164"/>
<polygon fill="#191970" stroke="#191970" points="612.7898,-129.5893 602.2362,-130.5222 611.0681,-136.3743 612.7898,-129.5893"/>
</g>
<!-- Node19 -->
<g id="node19" class="node">
<title>Node19</title>
<g id="a_node19"><a xlink:href="sitkTemplateFunctions_8h.html" target="_top" xlink:title=" ">
<polygon fill="#ffffff" stroke="#000000" points="476,-291.5 476,-310.5 610,-310.5 610,-291.5 476,-291.5"/>
<text text-anchor="middle" x="543" y="-298.5" font-family="Helvetica,sans-Serif" font-size="10.00" fill="#000000">sitkTemplateFunctions.h</text>
</a>
</g>
</g>
<!-- Node18&#45;&gt;Node19 -->
<g id="edge26" class="edge">
<title>Node18&#45;&gt;Node19</title>
<path fill="none" stroke="#191970" d="M750.7898,-348.4948C709.1358,-338.9739 641.363,-323.483 594.6041,-312.7952"/>
<polygon fill="#191970" stroke="#191970" points="595.1978,-309.3407 584.6693,-310.5244 593.638,-316.1647 595.1978,-309.3407"/>
</g>
<!-- Node18&#45;&gt;Node20 -->
<g id="edge60" class="edge">
<title>Node18&#45;&gt;Node20</title>
<path fill="none" stroke="#191970" d="M783.7446,-347.3845C775.1745,-328.0192 755.6961,-284.0055 744.4457,-258.584"/>
<polygon fill="#191970" stroke="#191970" points="747.5618,-256.9765 740.3142,-249.2484 741.1606,-259.8094 747.5618,-256.9765"/>
</g>
<!-- Node22 -->
<g id="node22" class="node">
<title>Node22</title>
<g id="a_node22"><a xlink:href="sitkDetail_8h.html" target="_top" xlink:title=" ">
<polygon fill="#ffffff" stroke="#000000" points="1195.5,-291.5 1195.5,-310.5 1268.5,-310.5 1268.5,-291.5 1195.5,-291.5"/>
<text text-anchor="middle" x="1232" y="-298.5" font-family="Helvetica,sans-Serif" font-size="10.00" fill="#000000">sitkDetail.h</text>
</a>
</g>
</g>
<!-- Node18&#45;&gt;Node22 -->
<g id="edge33" class="edge">
<title>Node18&#45;&gt;Node22</title>
<path fill="none" stroke="#191970" d="M825.0915,-352.3218C905.6852,-342.1568 1096.6451,-318.0718 1185.2912,-306.8912"/>
<polygon fill="#191970" stroke="#191970" points="1185.8429,-310.3494 1195.3263,-305.6255 1184.9669,-303.4045 1185.8429,-310.3494"/>
</g>
<!-- Node33 -->
<g id="node33" class="node">
<title>Node33</title>
<g id="a_node33"><a xlink:href="sitkPixelIDTokens_8h.html" target="_top" xlink:title=" ">
<polygon fill="#ffffff" stroke="#000000" points="1027,-291.5 1027,-310.5 1139,-310.5 1139,-291.5 1027,-291.5"/>
<text text-anchor="middle" x="1083" y="-298.5" font-family="Helvetica,sans-Serif" font-size="10.00" fill="#000000">sitkPixelIDTokens.h</text>
</a>
</g>
</g>
<!-- Node18&#45;&gt;Node33 -->
<g id="edge52" class="edge">
<title>Node18&#45;&gt;Node33</title>
<path fill="none" stroke="#191970" d="M825.0633,-349.9643C874.727,-340.5366 963.4753,-323.6894 1022.7966,-312.4284"/>
<polygon fill="#191970" stroke="#191970" points="1023.6115,-315.8363 1032.7833,-310.5327 1022.306,-308.9591 1023.6115,-315.8363"/>
</g>
<!-- Node36 -->
<g id="node36" class="node">
<title>Node36</title>
<g id="a_node36"><a xlink:title=" ">
<polygon fill="#ffffff" stroke="#bfbfbf" points="996.5,-230 996.5,-249 1065.5,-249 1065.5,-230 996.5,-230"/>
<text text-anchor="middle" x="1031" y="-237" font-family="Helvetica,sans-Serif" font-size="10.00" fill="#000000">type_traits</text>
</a>
</g>
</g>
<!-- Node18&#45;&gt;Node36 -->
<g id="edge62" class="edge">
<title>Node18&#45;&gt;Node36</title>
<path fill="none" stroke="#191970" d="M807.8857,-347.3845C850.711,-326.6768 951.8233,-277.785 1001.8817,-253.5798"/>
<polygon fill="#191970" stroke="#191970" points="1003.7012,-256.5878 1011.1803,-249.0836 1000.6539,-250.2859 1003.7012,-256.5878"/>
</g>
<!-- Node19&#45;&gt;Node4 -->
<g id="edge27" class="edge">
<title>Node19&#45;&gt;Node4</title>
<path fill="none" stroke="#191970" d="M475.7096,-296.1084C385.7402,-288.8736 235.5732,-274.0924 219,-255 209.9683,-244.5954 211.2344,-235.3808 219,-224 300.594,-104.4196 780.0259,-74.2972 933.0681,-67.6793"/>
<polygon fill="#191970" stroke="#191970" points="933.247,-71.175 943.0917,-67.2596 932.954,-64.1811 933.247,-71.175"/>
</g>
<!-- Node19&#45;&gt;Node12 -->
<g id="edge28" class="edge">
<title>Node19&#45;&gt;Node12</title>
<path fill="none" stroke="#191970" d="M535.7175,-291.3019C519.8176,-268.8602 484.9663,-211.9148 505,-168 510.6889,-155.5296 521.6131,-145.1361 532.0726,-137.4023"/>
<polygon fill="#191970" stroke="#191970" points="534.3523,-140.0832 540.6242,-131.5442 530.3963,-134.3082 534.3523,-140.0832"/>
</g>
<!-- Node19&#45;&gt;Node13 -->
<g id="edge31" class="edge">
<title>Node19&#45;&gt;Node13</title>
<path fill="none" stroke="#191970" d="M543,-291.3484C543,-271.2295 543,-224.4608 543,-197.7098"/>
<polygon fill="#191970" stroke="#191970" points="546.5001,-197.6067 543,-187.6068 539.5001,-197.6068 546.5001,-197.6067"/>
</g>
<!-- Node19&#45;&gt;Node17 -->
<g id="edge29" class="edge">
<title>Node19&#45;&gt;Node17</title>
<path fill="none" stroke="#191970" d="M594.9762,-291.4581C654.7244,-280.4894 752.7087,-262.5012 816.2811,-250.8305"/>
<polygon fill="#191970" stroke="#191970" points="816.9739,-254.2619 826.1775,-249.0137 815.7099,-247.3769 816.9739,-254.2619"/>
</g>
<!-- Node19&#45;&gt;Node20 -->
<g id="edge30" class="edge">
<title>Node19&#45;&gt;Node20</title>
<path fill="none" stroke="#191970" d="M583.6598,-291.4563C616.5966,-283.2337 663.9417,-270.2927 704,-255 705.4057,-254.4634 706.8338,-253.8884 708.2674,-253.2872"/>
<polygon fill="#191970" stroke="#191970" points="709.9473,-256.3692 717.626,-249.0694 707.071,-249.9874 709.9473,-256.3692"/>
</g>
<!-- Node21 -->
<g id="node21" class="node">
<title>Node21</title>
<g id="a_node21"><a xlink:title=" ">
<polygon fill="#ffffff" stroke="#bfbfbf" points="552.5,-230 552.5,-249 605.5,-249 605.5,-230 552.5,-230"/>
<text text-anchor="middle" x="579" y="-237" font-family="Helvetica,sans-Serif" font-size="10.00" fill="#000000">iterator</text>
</a>
</g>
</g>
<!-- Node19&#45;&gt;Node21 -->
<g id="edge32" class="edge">
<title>Node19&#45;&gt;Node21</title>
<path fill="none" stroke="#191970" d="M548.625,-291.3906C553.8253,-282.5068 561.6966,-269.0601 568.1233,-258.0811"/>
<polygon fill="#191970" stroke="#191970" points="571.2644,-259.6432 573.2957,-249.2449 565.2233,-256.1069 571.2644,-259.6432"/>
</g>
<!-- Node23 -->
<g id="node23" class="node">
<title>Node23</title>
<g id="a_node23"><a xlink:href="sitkMemberFunctionFactoryBase_8h.html" target="_top" xlink:title=" ">
<polygon fill="#ffffff" stroke="#000000" points="1432,-224.5 1432,-254.5 1582,-254.5 1582,-224.5 1432,-224.5"/>
<text text-anchor="start" x="1440" y="-242.5" font-family="Helvetica,sans-Serif" font-size="10.00" fill="#000000">sitkMemberFunctionFactory</text>
<text text-anchor="middle" x="1507" y="-231.5" font-family="Helvetica,sans-Serif" font-size="10.00" fill="#000000">Base.h</text>
</a>
</g>
</g>
<!-- Node22&#45;&gt;Node23 -->
<g id="edge34" class="edge">
<title>Node22&#45;&gt;Node23</title>
<path fill="none" stroke="#191970" d="M1268.5179,-292.8333C1309.4208,-283.6859 1376.8945,-268.5963 1429.6525,-256.7977"/>
<polygon fill="#191970" stroke="#191970" points="1430.6636,-260.1581 1439.6587,-254.56 1429.1359,-253.3269 1430.6636,-260.1581"/>
</g>
<!-- Node29 -->
<g id="node29" class="node">
<title>Node29</title>
<g id="a_node29"><a xlink:title=" ">
<polygon fill="#ffffff" stroke="#bfbfbf" points="1158,-168.5 1158,-187.5 1296,-187.5 1296,-168.5 1158,-168.5"/>
<text text-anchor="middle" x="1227" y="-175.5" font-family="Helvetica,sans-Serif" font-size="10.00" fill="#000000">Ancillary/FunctionTraits.h</text>
</a>
</g>
</g>
<!-- Node22&#45;&gt;Node29 -->
<g id="edge51" class="edge">
<title>Node22&#45;&gt;Node29</title>
<path fill="none" stroke="#191970" d="M1233.3985,-291.4964C1235.3368,-276.9373 1238.3499,-248.2491 1236,-224 1235.1582,-215.3132 1233.4421,-205.8313 1231.732,-197.7451"/>
<polygon fill="#191970" stroke="#191970" points="1235.101,-196.7743 1229.4865,-187.7895 1228.2726,-198.3146 1235.101,-196.7743"/>
</g>
<!-- Node23&#45;&gt;Node4 -->
<g id="edge43" class="edge">
<title>Node23&#45;&gt;Node4</title>
<path fill="none" stroke="#191970" d="M1451.4767,-224.4714C1419.5673,-215.2145 1378.9983,-202.3837 1344,-188 1325.9826,-180.5952 1323.0244,-175.3876 1305,-168 1208.3903,-128.4031 1090.4545,-94.9082 1026.5599,-77.9325"/>
<polygon fill="#191970" stroke="#191970" points="1027.3429,-74.5194 1016.7808,-75.3515 1025.5564,-81.2876 1027.3429,-74.5194"/>
</g>
<!-- Node23&#45;&gt;Node10 -->
<g id="edge35" class="edge">
<title>Node23&#45;&gt;Node10</title>
<path fill="none" stroke="#191970" d="M1538.3121,-224.3109C1581.9206,-201.1051 1652.1651,-154.9807 1620,-112 1584.9059,-65.1053 1416.6778,-32.3898 1327.9962,-18.092"/>
<polygon fill="#191970" stroke="#191970" points="1328.5349,-14.6338 1318.1096,-16.5212 1327.4365,-21.5471 1328.5349,-14.6338"/>
</g>
<!-- Node24 -->
<g id="node24" class="node">
<title>Node24</title>
<g id="a_node24"><a xlink:href="sitkPixelIDTypes_8h.html" target="_top" xlink:title=" ">
<polygon fill="#ffffff" stroke="#000000" points="1375,-112.5 1375,-131.5 1481,-131.5 1481,-112.5 1375,-112.5"/>
<text text-anchor="middle" x="1428" y="-119.5" font-family="Helvetica,sans-Serif" font-size="10.00" fill="#000000">sitkPixelIDTypes.h</text>
</a>
</g>
</g>
<!-- Node23&#45;&gt;Node24 -->
<g id="edge36" class="edge">
<title>Node23&#45;&gt;Node24</title>
<path fill="none" stroke="#191970" d="M1524.2887,-224.4014C1539.1892,-209.513 1556.4863,-186.3836 1544,-168 1531.7579,-149.9758 1511.2313,-139.014 1490.819,-132.3474"/>
<polygon fill="#191970" stroke="#191970" points="1491.7448,-128.9714 1481.1627,-129.4921 1489.7599,-135.6841 1491.7448,-128.9714"/>
</g>
<!-- Node25 -->
<g id="node25" class="node">
<title>Node25</title>
<g id="a_node25"><a xlink:href="sitkPixelIDTypeLists_8h.html" target="_top" xlink:title=" ">
<polygon fill="#ffffff" stroke="#000000" points="1352.5,-168.5 1352.5,-187.5 1475.5,-187.5 1475.5,-168.5 1352.5,-168.5"/>
<text text-anchor="middle" x="1414" y="-175.5" font-family="Helvetica,sans-Serif" font-size="10.00" fill="#000000">sitkPixelIDTypeLists.h</text>
</a>
</g>
</g>
<!-- Node23&#45;&gt;Node25 -->
<g id="edge37" class="edge">
<title>Node23&#45;&gt;Node25</title>
<path fill="none" stroke="#191970" d="M1484.0112,-224.2977C1469.8034,-214.9022 1451.6215,-202.8787 1437.3475,-193.4395"/>
<polygon fill="#191970" stroke="#191970" points="1438.8845,-190.2598 1428.6128,-187.6633 1435.0233,-196.0986 1438.8845,-190.2598"/>
</g>
<!-- Node26 -->
<g id="node26" class="node">
<title>Node26</title>
<g id="a_node26"><a xlink:title=" ">
<polygon fill="#ffffff" stroke="#bfbfbf" points="1499.5,-112.5 1499.5,-131.5 1610.5,-131.5 1610.5,-112.5 1499.5,-112.5"/>
<text text-anchor="middle" x="1555" y="-119.5" font-family="Helvetica,sans-Serif" font-size="10.00" fill="#000000">Ancillary/TypeList.h</text>
</a>
</g>
</g>
<!-- Node23&#45;&gt;Node26 -->
<g id="edge46" class="edge">
<title>Node23&#45;&gt;Node26</title>
<path fill="none" stroke="#191970" d="M1539.4543,-224.3708C1553.727,-215.8631 1569.0331,-203.7522 1577,-188 1584.7952,-172.5874 1577.0171,-153.7998 1568.6317,-140.2168"/>
<polygon fill="#191970" stroke="#191970" points="1571.4108,-138.0782 1562.9133,-131.7502 1565.6099,-141.9961 1571.4108,-138.0782"/>
</g>
<!-- Node28 -->
<g id="node28" class="node">
<title>Node28</title>
<g id="a_node28"><a xlink:href="sitkNonCopyable_8h.html" target="_top" xlink:title=" ">
<polygon fill="#ffffff" stroke="#000000" points="992.5,-168.5 992.5,-187.5 1101.5,-187.5 1101.5,-168.5 992.5,-168.5"/>
<text text-anchor="middle" x="1047" y="-175.5" font-family="Helvetica,sans-Serif" font-size="10.00" fill="#000000">sitkNonCopyable.h</text>
</a>
</g>
</g>
<!-- Node23&#45;&gt;Node28 -->
<g id="edge44" class="edge">
<title>Node23&#45;&gt;Node28</title>
<path fill="none" stroke="#191970" d="M1431.8125,-229.4478C1342.7113,-217.5353 1195.7537,-197.8877 1111.5758,-186.6335"/>
<polygon fill="#191970" stroke="#191970" points="1112.0051,-183.1598 1101.6295,-185.3037 1111.0775,-190.0981 1112.0051,-183.1598"/>
</g>
<!-- Node23&#45;&gt;Node29 -->
<g id="edge47" class="edge">
<title>Node23&#45;&gt;Node29</title>
<path fill="none" stroke="#191970" d="M1438.5043,-224.4554C1389.7365,-213.7439 1325.1452,-199.5569 1280.2283,-189.6912"/>
<polygon fill="#191970" stroke="#191970" points="1280.9081,-186.2572 1270.3901,-187.5303 1279.4064,-193.0942 1280.9081,-186.2572"/>
</g>
<!-- Node30 -->
<g id="node30" class="node">
<title>Node30</title>
<g id="a_node30"><a xlink:title=" ">
<polygon fill="#ffffff" stroke="#bfbfbf" points="1667.5,-168.5 1667.5,-187.5 1760.5,-187.5 1760.5,-168.5 1667.5,-168.5"/>
<text text-anchor="middle" x="1714" y="-175.5" font-family="Helvetica,sans-Serif" font-size="10.00" fill="#000000">unordered_map</text>
</a>
</g>
</g>
<!-- Node23&#45;&gt;Node30 -->
<g id="edge48" class="edge">
<title>Node23&#45;&gt;Node30</title>
<path fill="none" stroke="#191970" d="M1557.6379,-224.4554C1592.7823,-214.0139 1639.0424,-200.27 1672.1103,-190.4455"/>
<polygon fill="#191970" stroke="#191970" points="1673.3333,-193.7334 1681.9223,-187.5303 1671.3397,-187.0233 1673.3333,-193.7334"/>
</g>
<!-- Node31 -->
<g id="node31" class="node">
<title>Node31</title>
<g id="a_node31"><a xlink:title=" ">
<polygon fill="#ffffff" stroke="#bfbfbf" points="1778.5,-168.5 1778.5,-187.5 1843.5,-187.5 1843.5,-168.5 1778.5,-168.5"/>
<text text-anchor="middle" x="1811" y="-175.5" font-family="Helvetica,sans-Serif" font-size="10.00" fill="#000000">functional</text>
</a>
</g>
</g>
<!-- Node23&#45;&gt;Node31 -->
<g id="edge49" class="edge">
<title>Node23&#45;&gt;Node31</title>
<path fill="none" stroke="#191970" d="M1582.0091,-225.7588C1632.2554,-216.3336 1700.1171,-203.1825 1768.2979,-188.3109"/>
<polygon fill="#191970" stroke="#191970" points="1769.3397,-191.6657 1778.3577,-186.1045 1767.84,-184.8282 1769.3397,-191.6657"/>
</g>
<!-- Node32 -->
<g id="node32" class="node">
<title>Node32</title>
<g id="a_node32"><a xlink:title=" ">
<polygon fill="#ffffff" stroke="#bfbfbf" points="1493.5,-168.5 1493.5,-187.5 1534.5,-187.5 1534.5,-168.5 1493.5,-168.5"/>
<text text-anchor="middle" x="1514" y="-175.5" font-family="Helvetica,sans-Serif" font-size="10.00" fill="#000000">tuple</text>
</a>
</g>
</g>
<!-- Node23&#45;&gt;Node32 -->
<g id="edge50" class="edge">
<title>Node23&#45;&gt;Node32</title>
<path fill="none" stroke="#191970" d="M1508.7303,-224.2977C1509.6413,-216.2945 1510.7693,-206.3843 1511.7476,-197.7889"/>
<polygon fill="#191970" stroke="#191970" points="1515.2258,-198.1786 1512.8792,-187.8469 1508.2707,-197.3869 1515.2258,-198.1786"/>
</g>
<!-- Node25&#45;&gt;Node5 -->
<g id="edge38" class="edge">
<title>Node25&#45;&gt;Node5</title>
<path fill="none" stroke="#191970" d="M1352.1739,-169.0866C1320.1857,-162.4353 1281.5497,-151.0824 1251,-132 1207.447,-104.7953 1171.0454,-55.1664 1153.4171,-28.3559"/>
<polygon fill="#191970" stroke="#191970" points="1156.1406,-26.1194 1147.7933,-19.5945 1150.2497,-29.9007 1156.1406,-26.1194"/>
</g>
<!-- Node25&#45;&gt;Node10 -->
<g id="edge39" class="edge">
<title>Node25&#45;&gt;Node10</title>
<path fill="none" stroke="#191970" d="M1402.851,-168.2253C1392.8054,-159.2108 1377.8403,-145.2573 1366,-132 1334.6953,-96.9489 1302.3607,-52.2543 1285.2893,-27.8637"/>
<polygon fill="#191970" stroke="#191970" points="1288.1085,-25.7871 1279.5278,-19.5723 1282.36,-29.7816 1288.1085,-25.7871"/>
</g>
<!-- Node25&#45;&gt;Node24 -->
<g id="edge40" class="edge">
<title>Node25&#45;&gt;Node24</title>
<path fill="none" stroke="#191970" d="M1416.4386,-168.2455C1418.2855,-160.8579 1420.8828,-150.4689 1423.1478,-141.4087"/>
<polygon fill="#191970" stroke="#191970" points="1426.5594,-142.193 1425.5893,-131.6427 1419.7684,-140.4952 1426.5594,-142.193"/>
</g>
<!-- Node25&#45;&gt;Node26 -->
<g id="edge41" class="edge">
<title>Node25&#45;&gt;Node26</title>
<path fill="none" stroke="#191970" d="M1438.2388,-168.3733C1461.2789,-159.2226 1496.1214,-145.3844 1521.7501,-135.2057"/>
<polygon fill="#191970" stroke="#191970" points="1523.0756,-138.4452 1531.0775,-131.5011 1520.4918,-131.9395 1523.0756,-138.4452"/>
</g>
<!-- Node27 -->
<g id="node27" class="node">
<title>Node27</title>
<g id="a_node27"><a xlink:title=" ">
<polygon fill="#ffffff" stroke="#bfbfbf" points="1259.5,-112.5 1259.5,-131.5 1318.5,-131.5 1318.5,-112.5 1259.5,-112.5"/>
<text text-anchor="middle" x="1289" y="-119.5" font-family="Helvetica,sans-Serif" font-size="10.00" fill="#000000">complex</text>
</a>
</g>
</g>
<!-- Node25&#45;&gt;Node27 -->
<g id="edge42" class="edge">
<title>Node25&#45;&gt;Node27</title>
<path fill="none" stroke="#191970" d="M1392.5117,-168.3733C1372.356,-159.3435 1342.012,-145.7494 1319.382,-135.6111"/>
<polygon fill="#191970" stroke="#191970" points="1320.7649,-132.3955 1310.2079,-131.5011 1317.9029,-138.7838 1320.7649,-132.3955"/>
</g>
<!-- Node28&#45;&gt;Node12 -->
<g id="edge45" class="edge">
<title>Node28&#45;&gt;Node12</title>
<path fill="none" stroke="#191970" d="M992.2118,-169.2653C989.0974,-168.823 986.0102,-168.3979 983,-168 850.2689,-150.4572 693.5568,-134.7959 612.5745,-127.0758"/>
<polygon fill="#191970" stroke="#191970" points="612.4197,-123.5455 602.1336,-126.0845 611.758,-130.5141 612.4197,-123.5455"/>
</g>
<!-- Node33&#45;&gt;Node10 -->
<g id="edge53" class="edge">
<title>Node33&#45;&gt;Node10</title>
<path fill="none" stroke="#191970" d="M1120.9488,-291.4828C1152.3548,-282.7482 1193.3291,-269.0642 1203,-255 1210.8064,-243.6472 1209.5012,-236.1475 1203,-224 1189.3895,-198.5686 1162.6105,-213.4314 1149,-188 1144.8057,-180.1629 1146.0969,-176.4014 1149,-168 1169.9235,-107.4487 1224.6825,-52.4299 1253.9338,-26.1904"/>
<polygon fill="#191970" stroke="#191970" points="1256.2612,-28.8046 1261.4584,-19.5721 1251.638,-23.5485 1256.2612,-28.8046"/>
</g>
<!-- Node34 -->
<g id="node34" class="node">
<title>Node34</title>
<g id="a_node34"><a xlink:href="sitkPixelIDValues_8h.html" target="_top" xlink:title=" ">
<polygon fill="#ffffff" stroke="#000000" points="1084,-230 1084,-249 1194,-249 1194,-230 1084,-230"/>
<text text-anchor="middle" x="1139" y="-237" font-family="Helvetica,sans-Serif" font-size="10.00" fill="#000000">sitkPixelIDValues.h</text>
</a>
</g>
</g>
<!-- Node33&#45;&gt;Node34 -->
<g id="edge54" class="edge">
<title>Node33&#45;&gt;Node34</title>
<path fill="none" stroke="#191970" d="M1091.75,-291.3906C1100.1662,-282.1478 1113.0797,-267.966 1123.281,-256.7628"/>
<polygon fill="#191970" stroke="#191970" points="1125.9818,-258.9953 1130.1266,-249.2449 1120.806,-254.2824 1125.9818,-258.9953"/>
</g>
<!-- Node33&#45;&gt;Node36 -->
<g id="edge59" class="edge">
<title>Node33&#45;&gt;Node36</title>
<path fill="none" stroke="#191970" d="M1074.875,-291.3906C1067.1358,-282.2376 1055.3013,-268.2409 1045.8728,-257.09"/>
<polygon fill="#191970" stroke="#191970" points="1048.3689,-254.6213 1039.2396,-249.2449 1043.0235,-259.1409 1048.3689,-254.6213"/>
</g>
<!-- Node34&#45;&gt;Node12 -->
<g id="edge55" class="edge">
<title>Node34&#45;&gt;Node12</title>
<path fill="none" stroke="#191970" d="M1100.0979,-229.9935C1091.8183,-227.994 1083.1236,-225.912 1075,-224 1047.8185,-217.6023 857.389,-173.4415 830,-168 754.8222,-153.064 667.3377,-138.825 612.3143,-130.2488"/>
<polygon fill="#191970" stroke="#191970" points="612.8468,-126.7896 602.4283,-128.7145 611.7732,-133.7068 612.8468,-126.7896"/>
</g>
<!-- Node34&#45;&gt;Node13 -->
<g id="edge58" class="edge">
<title>Node34&#45;&gt;Node13</title>
<path fill="none" stroke="#191970" d="M1103.6502,-229.9274C1094.3845,-227.697 1084.3647,-225.5298 1075,-224 891.9087,-194.0898 669.9811,-182.8327 581.8127,-179.3432"/>
<polygon fill="#191970" stroke="#191970" points="581.8624,-175.8426 571.7352,-178.9554 581.5932,-182.8374 581.8624,-175.8426"/>
</g>
<!-- Node34&#45;&gt;Node25 -->
<g id="edge56" class="edge">
<title>Node34&#45;&gt;Node25</title>
<path fill="none" stroke="#191970" d="M1181.667,-229.9581C1230.0378,-219.1406 1308.9369,-201.4959 1361.1607,-189.8168"/>
<polygon fill="#191970" stroke="#191970" points="1362.2378,-193.1624 1371.2329,-187.5643 1360.7101,-186.3312 1362.2378,-193.1624"/>
</g>
<!-- Node35 -->
<g id="node35" class="node">
<title>Node35</title>
<g id="a_node35"><a xlink:title=" ">
<polygon fill="#ffffff" stroke="#bfbfbf" points="930,-168.5 930,-187.5 974,-187.5 974,-168.5 930,-168.5"/>
<text text-anchor="middle" x="952" y="-175.5" font-family="Helvetica,sans-Serif" font-size="10.00" fill="#000000">string</text>
</a>
</g>
</g>
<!-- Node34&#45;&gt;Node35 -->
<g id="edge57" class="edge">
<title>Node34&#45;&gt;Node35</title>
<path fill="none" stroke="#191970" d="M1109.7813,-229.8906C1075.5627,-218.6369 1019.081,-200.0614 983.7907,-188.4552"/>
<polygon fill="#191970" stroke="#191970" points="984.5941,-185.0351 974.0012,-185.2357 982.4072,-191.6847 984.5941,-185.0351"/>
</g>
<!-- Node38&#45;&gt;Node12 -->
<g id="edge66" class="edge">
<title>Node38&#45;&gt;Node12</title>
<path fill="none" stroke="#191970" d="M729.4264,-462.1109C633.2061,-448.8004 448,-415.5728 448,-357 448,-357 448,-357 448,-239.5 448,-191.9405 496.6214,-155.6834 529.2133,-136.7221"/>
<polygon fill="#191970" stroke="#191970" points="531.3167,-139.5559 538.3342,-131.6183 527.8984,-133.4472 531.3167,-139.5559"/>
</g>
<!-- Node38&#45;&gt;Node18 -->
<g id="edge72" class="edge">
<title>Node38&#45;&gt;Node18</title>
<path fill="none" stroke="#191970" d="M786.1705,-459.4509C786.4967,-441.184 787.2151,-400.9553 787.6483,-376.6976"/>
<polygon fill="#191970" stroke="#191970" points="791.1507,-376.5858 787.8299,-366.5249 784.1518,-376.4608 791.1507,-376.5858"/>
</g>
<!-- Node38&#45;&gt;Node19 -->
<g id="edge68" class="edge">
<title>Node38&#45;&gt;Node19</title>
<path fill="none" stroke="#191970" d="M729.2066,-462.8276C695.9921,-456.925 654.6962,-445.413 624,-423 587.2027,-396.1323 562.2299,-347.0944 550.5592,-320.0932"/>
<polygon fill="#191970" stroke="#191970" points="553.6875,-318.5003 546.6182,-310.6089 547.2234,-321.1864 553.6875,-318.5003"/>
</g>
<!-- Node38&#45;&gt;Node28 -->
<g id="edge67" class="edge">
<title>Node38&#45;&gt;Node28</title>
<path fill="none" stroke="#191970" d="M842.7089,-463.0175C873.616,-457.1921 910.7935,-445.6941 937,-423 961.4987,-401.7848 968,-389.4079 968,-357 968,-357 968,-357 968,-301 968,-265.6422 968.5831,-253.5492 988,-224 996.2415,-211.4578 1009.0629,-200.8664 1020.6509,-193.0199"/>
<polygon fill="#191970" stroke="#191970" points="1022.637,-195.9043 1029.1756,-187.5678 1018.8654,-190.0072 1022.637,-195.9043"/>
</g>
<!-- Node39 -->
<g id="node39" class="node">
<title>Node39</title>
<g id="a_node39"><a xlink:href="sitkEvent_8h.html" target="_top" xlink:title=" ">
<polygon fill="#ffffff" stroke="#000000" points="623.5,-230 623.5,-249 694.5,-249 694.5,-230 623.5,-230"/>
<text text-anchor="middle" x="659" y="-237" font-family="Helvetica,sans-Serif" font-size="10.00" fill="#000000">sitkEvent.h</text>
</a>
</g>
</g>
<!-- Node38&#45;&gt;Node39 -->
<g id="edge69" class="edge">
<title>Node38&#45;&gt;Node39</title>
<path fill="none" stroke="#191970" d="M743.5849,-459.4524C710.0824,-450.9508 667.3104,-437.6229 657,-423 621.7277,-372.9746 640.5248,-294.6829 652.1009,-258.728"/>
<polygon fill="#191970" stroke="#191970" points="655.5004,-259.6012 655.3938,-249.0069 648.8704,-257.3553 655.5004,-259.6012"/>
</g>
<!-- Node40 -->
<g id="node40" class="node">
<title>Node40</title>
<g id="a_node40"><a xlink:href="sitkImageConvert_8h.html" target="_top" xlink:title=" ">
<polygon fill="#ffffff" stroke="#000000" points="814.5,-403.5 814.5,-422.5 927.5,-422.5 927.5,-403.5 814.5,-403.5"/>
<text text-anchor="middle" x="871" y="-410.5" font-family="Helvetica,sans-Serif" font-size="10.00" fill="#000000">sitkImageConvert.h</text>
</a>
</g>
</g>
<!-- Node38&#45;&gt;Node40 -->
<g id="edge73" class="edge">
<title>Node38&#45;&gt;Node40</title>
<path fill="none" stroke="#191970" d="M800.8059,-459.2455C813.7256,-450.7337 832.6931,-438.2375 847.6552,-428.3801"/>
<polygon fill="#191970" stroke="#191970" points="849.9387,-431.067 856.3638,-422.6427 846.0876,-425.2216 849.9387,-431.067"/>
</g>
<!-- Node41 -->
<g id="node41" class="node">
<title>Node41</title>
<g id="a_node41"><a xlink:title=" ">
<polygon fill="#ffffff" stroke="#bfbfbf" points="996,-403.5 996,-422.5 1056,-422.5 1056,-403.5 996,-403.5"/>
<text text-anchor="middle" x="1026" y="-410.5" font-family="Helvetica,sans-Serif" font-size="10.00" fill="#000000">iostream</text>
</a>
</g>
</g>
<!-- Node38&#45;&gt;Node41 -->
<g id="edge75" class="edge">
<title>Node38&#45;&gt;Node41</title>
<path fill="none" stroke="#191970" d="M826.9848,-459.4369C871.4504,-449.0616 941.9724,-432.6064 986.0348,-422.3252"/>
<polygon fill="#191970" stroke="#191970" points="986.882,-425.7216 995.825,-420.0408 985.2913,-418.9048 986.882,-425.7216"/>
</g>
<!-- Node42 -->
<g id="node42" class="node">
<title>Node42</title>
<g id="a_node42"><a xlink:title=" ">
<polygon fill="#ffffff" stroke="#bfbfbf" points="1074,-403.5 1074,-422.5 1106,-422.5 1106,-403.5 1074,-403.5"/>
<text text-anchor="middle" x="1090" y="-410.5" font-family="Helvetica,sans-Serif" font-size="10.00" fill="#000000">list</text>
</a>
</g>
</g>
<!-- Node38&#45;&gt;Node42 -->
<g id="edge76" class="edge">
<title>Node38&#45;&gt;Node42</title>
<path fill="none" stroke="#191970" d="M842.6255,-463.3156C897.3287,-457.0095 982.4851,-445.0476 1063.8658,-422.8406"/>
<polygon fill="#191970" stroke="#191970" points="1065.0756,-426.137 1073.7693,-420.0814 1063.1968,-419.3938 1065.0756,-426.137"/>
</g>
<!-- Node39&#45;&gt;Node12 -->
<g id="edge70" class="edge">
<title>Node39&#45;&gt;Node12</title>
<path fill="none" stroke="#191970" d="M650.7347,-229.8845C633.7189,-210.0889 594.5639,-164.5372 572.9715,-139.4173"/>
<polygon fill="#191970" stroke="#191970" points="575.5522,-137.0504 566.3795,-131.7484 570.2438,-141.6134 575.5522,-137.0504"/>
</g>
<!-- Node39&#45;&gt;Node13 -->
<g id="edge71" class="edge">
<title>Node39&#45;&gt;Node13</title>
<path fill="none" stroke="#191970" d="M640.875,-229.8906C621.8917,-219.8262 591.8627,-203.9057 570.0693,-192.3514"/>
<polygon fill="#191970" stroke="#191970" points="571.4723,-189.1338 560.9977,-187.5419 568.1934,-195.3184 571.4723,-189.1338"/>
</g>
<!-- Node40&#45;&gt;Node18 -->
<g id="edge74" class="edge">
<title>Node40&#45;&gt;Node18</title>
<path fill="none" stroke="#191970" d="M856.5425,-403.2455C843.9268,-394.7337 825.4056,-382.2375 810.7955,-372.3801"/>
<polygon fill="#191970" stroke="#191970" points="812.5391,-369.3343 802.2918,-366.6427 808.6239,-375.1371 812.5391,-369.3343"/>
</g>
<!-- Node43&#45;&gt;Node7 -->
<g id="edge82" class="edge">
<title>Node43&#45;&gt;Node7</title>
<path fill="none" stroke="#191970" d="M1278.1807,-351.3641C1456.0828,-337.6404 1872,-299.1745 1872,-239.5 1872,-239.5 1872,-239.5 1872,-122 1872,-71.7984 1711.1551,-32.4733 1637.2967,-17.0619"/>
<polygon fill="#191970" stroke="#191970" points="1637.9775,-13.6287 1627.478,-15.0473 1636.5705,-20.4859 1637.9775,-13.6287"/>
</g>
<!-- Node43&#45;&gt;Node17 -->
<g id="edge85" class="edge">
<title>Node43&#45;&gt;Node17</title>
<path fill="none" stroke="#191970" d="M1148.9172,-347.4206C1112.058,-339.6183 1061.0801,-327.2415 1018,-311 975.9672,-295.1534 930.111,-270.1272 902.7234,-254.2761"/>
<polygon fill="#191970" stroke="#191970" points="904.2418,-251.1095 893.8428,-249.0821 900.7078,-257.1519 904.2418,-251.1095"/>
</g>
<!-- Node43&#45;&gt;Node22 -->
<g id="edge78" class="edge">
<title>Node43&#45;&gt;Node22</title>
<path fill="none" stroke="#191970" d="M1204.7482,-347.2455C1209.2435,-339.617 1215.6248,-328.7881 1221.0825,-319.5267"/>
<polygon fill="#191970" stroke="#191970" points="1224.2561,-321.035 1226.3177,-310.6427 1218.2253,-317.4811 1224.2561,-321.035"/>
</g>
<!-- Node43&#45;&gt;Node23 -->
<g id="edge79" class="edge">
<title>Node43&#45;&gt;Node23</title>
<path fill="none" stroke="#191970" d="M1278.249,-350.7984C1345.7286,-344.1892 1436.3214,-331.7596 1466,-311 1481.9667,-299.8316 1492.5479,-280.3144 1498.9553,-264.4901"/>
<polygon fill="#191970" stroke="#191970" points="1502.3725,-265.3424 1502.5778,-254.7495 1495.8116,-262.9023 1502.3725,-265.3424"/>
</g>
<!-- Node43&#45;&gt;Node33 -->
<g id="edge84" class="edge">
<title>Node43&#45;&gt;Node33</title>
<path fill="none" stroke="#191970" d="M1179.0589,-347.3733C1160.5214,-338.4241 1132.6972,-324.9917 1111.7587,-314.8835"/>
<polygon fill="#191970" stroke="#191970" points="1113.2081,-311.6967 1102.6809,-310.5011 1110.1648,-318.0006 1113.2081,-311.6967"/>
</g>
<!-- Node43&#45;&gt;Node34 -->
<g id="edge80" class="edge">
<title>Node43&#45;&gt;Node34</title>
<path fill="none" stroke="#191970" d="M1194.0899,-347.3845C1184.1573,-327.9331 1161.5262,-283.6138 1148.5725,-258.2462"/>
<polygon fill="#191970" stroke="#191970" points="1151.6428,-256.5627 1143.9779,-249.2484 1145.4086,-259.7462 1151.6428,-256.5627"/>
</g>
<!-- Node43&#45;&gt;Node43 -->
<g id="edge83" class="edge">
<title>Node43&#45;&gt;Node43</title>
<path fill="none" stroke="#191970" d="M1240.1182,-366.5001C1268.3159,-369.3269 1296,-366.1602 1296,-357 1296,-348.9491 1274.6147,-345.528 1250.291,-346.7367"/>
<polygon fill="#191970" stroke="#191970" points="1249.8282,-343.2615 1240.1182,-347.4999 1250.352,-350.2418 1249.8282,-343.2615"/>
</g>
<!-- Node44 -->
<g id="node44" class="node">
<title>Node44</title>
<g id="a_node44"><a xlink:title=" ">
<polygon fill="#ffffff" stroke="#bfbfbf" points="1287,-291.5 1287,-310.5 1457,-310.5 1457,-291.5 1287,-291.5"/>
<text text-anchor="middle" x="1372" y="-298.5" font-family="Helvetica,sans-Serif" font-size="10.00" fill="#000000">sitkMemberFunctionFactory.hxx</text>
</a>
</g>
</g>
<!-- Node43&#45;&gt;Node44 -->
<g id="edge81" class="edge">
<title>Node43&#45;&gt;Node44</title>
<path fill="none" stroke="#191970" d="M1228.7398,-347.3733C1257.507,-338.0613 1301.27,-323.8953 1332.8556,-313.671"/>
<polygon fill="#191970" stroke="#191970" points="1334.2122,-316.9107 1342.6483,-310.5011 1332.0564,-310.251 1334.2122,-316.9107"/>
</g>
</g>
</svg>
