<?xml version="1.0" encoding="UTF-8" standalone="no"?>
<!DOCTYPE svg PUBLIC "-//W3C//DTD SVG 1.1//EN"
 "http://www.w3.org/Graphics/SVG/1.1/DTD/svg11.dtd">
<!-- Generated by graphviz version 2.40.1 (20161225.0304)
 -->
<!-- Title: sitkDetail.h Pages: 1 -->
<!--zoomable 386 -->
<svg id="main" version="1.1" xmlns="http://www.w3.org/2000/svg" xmlns:xlink="http://www.w3.org/1999/xlink" xml:space="preserve" onload="init(evt)">
<style type="text/css"><![CDATA[
.edge:hover path { stroke: red; }
.edge:hover polygon { stroke: red; fill: red; }
]]></style>
<script type="text/javascript"><![CDATA[
var edges = document.getElementsByTagName('g');
if (edges && edges.length) {
  for (var i=0;i<edges.length;i++) {
    if (edges[i].id.substr(0,4)=='edge') {
      edges[i].setAttribute('class','edge');
    }
  }
}
]]></script>
        <defs>
                <circle id="rim" cx="0" cy="0" r="7"/>
                <circle id="rim2" cx="0" cy="0" r="3.5"/>
                <g id="zoomPlus">
                        <use xlink:href="#rim" fill="#404040">
                                <set attributeName="fill" to="#808080" begin="zoomplus.mouseover" end="zoomplus.mouseout"/>
                        </use>
                        <path d="M-4,0h8M0,-4v8" fill="none" stroke="white" stroke-width="1.5" pointer-events="none"/>
                </g>
                <g id="zoomMin">
                        <use xlink:href="#rim" fill="#404040">
                                <set attributeName="fill" to="#808080" begin="zoomminus.mouseover" end="zoomminus.mouseout"/>
                        </use>
                        <path d="M-4,0h8" fill="none" stroke="white" stroke-width="1.5" pointer-events="none"/>
                </g>
                <g id="dirArrow">
                        <path fill="none" stroke="white" stroke-width="1.5" d="M0,-3.0v7 M-2.5,-0.5L0,-3.0L2.5,-0.5"/>
                </g>
               <g id="resetDef">
                       <use xlink:href="#rim2" fill="#404040">
                               <set attributeName="fill" to="#808080" begin="reset.mouseover" end="reset.mouseout"/>
                       </use>
               </g>
        </defs>

<script type="text/javascript">
var viewWidth = 4365;
var viewHeight = 386;
var sectionId = 'dynsection-1';
</script>
<script xlink:href="svgpan.js"/>
<svg id="graph" class="graph">
<g id="viewport">
<title>sitkDetail.h</title>
<polygon fill="#ffffff" stroke="transparent" points="-4,4 -4,-382 4360.7702,-382 4360.7702,4 -4,4"/>
<!-- Node1 -->
<g id="node1" class="node">
<title>Node1</title>
<g id="a_node1"><a xlink:title=" ">
<polygon fill="#bfbfbf" stroke="#000000" points="3104.7702,-358.5 3104.7702,-377.5 3177.7702,-377.5 3177.7702,-358.5 3104.7702,-358.5"/>
<text text-anchor="middle" x="3141.2702" y="-365.5" font-family="Helvetica,sans-Serif" font-size="10.00" fill="#000000">sitkDetail.h</text>
</a>
</g>
</g>
<!-- Node2 -->
<g id="node2" class="node">
<title>Node2</title>
<g id="a_node2"><a xlink:href="SimpleITK_8h.html" target="_top" xlink:title=" ">
<polygon fill="#ffffff" stroke="#000000" points="2534.7702,-.5 2534.7702,-19.5 2609.7702,-19.5 2609.7702,-.5 2534.7702,-.5"/>
<text text-anchor="middle" x="2572.2702" y="-7.5" font-family="Helvetica,sans-Serif" font-size="10.00" fill="#000000">SimpleITK.h</text>
</a>
</g>
</g>
<!-- Node1&#45;&gt;Node2 -->
<g id="edge1" class="edge">
<title>Node1&#45;&gt;Node2</title>
<path fill="none" stroke="#191970" d="M3094.6136,-367.109C2972.9296,-363.5292 2655.2702,-345.6031 2655.2702,-256 2655.2702,-256 2655.2702,-256 2655.2702,-200 2655.2702,41.0942 3342.1708,-232.8135 3178.2702,-56 3158.8811,-35.0833 2739.8298,-16.6805 2610.1622,-11.4699"/>
<polygon fill="#191970" stroke="#191970" points="3094.6489,-370.6112 3104.7412,-367.3869 3094.841,-363.6138 3094.6489,-370.6112"/>
</g>
<!-- Node3 -->
<g id="node3" class="node">
<title>Node3</title>
<g id="a_node3"><a xlink:href="sitkImage_8h.html" target="_top" xlink:title=" ">
<polygon fill="#ffffff" stroke="#000000" points="3281.2702,-302.5 3281.2702,-321.5 3355.2702,-321.5 3355.2702,-302.5 3281.2702,-302.5"/>
<text text-anchor="middle" x="3318.2702" y="-309.5" font-family="Helvetica,sans-Serif" font-size="10.00" fill="#000000">sitkImage.h</text>
</a>
</g>
</g>
<!-- Node1&#45;&gt;Node3 -->
<g id="edge2" class="edge">
<title>Node1&#45;&gt;Node3</title>
<path fill="none" stroke="#191970" d="M3181.3369,-355.3235C3213.7972,-345.0536 3258.8195,-330.8093 3288.2398,-321.5011"/>
<polygon fill="#191970" stroke="#191970" points="3180.176,-352.0197 3171.6975,-358.3733 3182.2875,-358.6937 3180.176,-352.0197"/>
</g>
<!-- Node322 -->
<g id="node39" class="node">
<title>Node322</title>
<g id="a_node39"><a xlink:href="sitkImageRegistrationMethod_8h.html" target="_top" xlink:title=" ">
<polygon fill="#ffffff" stroke="#000000" points="3018.7702,-129 3018.7702,-148 3187.7702,-148 3187.7702,-129 3018.7702,-129"/>
<text text-anchor="middle" x="3103.2702" y="-136" font-family="Helvetica,sans-Serif" font-size="10.00" fill="#000000">sitkImageRegistrationMethod.h</text>
</a>
</g>
</g>
<!-- Node1&#45;&gt;Node322 -->
<g id="edge133" class="edge">
<title>Node1&#45;&gt;Node322</title>
<path fill="none" stroke="#191970" d="M3138.0046,-348.2774C3130.1793,-301.0168 3110.582,-182.6595 3104.8614,-148.11"/>
<polygon fill="#191970" stroke="#191970" points="3134.5991,-349.1369 3139.6857,-358.4309 3141.5051,-347.9934 3134.5991,-349.1369"/>
</g>
<!-- Node333 -->
<g id="node49" class="node">
<title>Node333</title>
<g id="a_node49"><a xlink:href="sitkDualMemberFunctionFactory_8h.html" target="_top" xlink:title=" ">
<polygon fill="#ffffff" stroke="#000000" points="1776.2702,-129 1776.2702,-148 1956.2702,-148 1956.2702,-129 1776.2702,-129"/>
<text text-anchor="middle" x="1866.2702" y="-136" font-family="Helvetica,sans-Serif" font-size="10.00" fill="#000000">sitkDualMemberFunctionFactory.h</text>
</a>
</g>
</g>
<!-- Node1&#45;&gt;Node333 -->
<g id="edge107" class="edge">
<title>Node1&#45;&gt;Node333</title>
<path fill="none" stroke="#191970" d="M3094.7813,-364.9983C3006.2614,-359.0004 2807.5016,-344.1769 2641.2702,-322 2355.4729,-283.8719 2275.1569,-303.0948 2002.2702,-210 1955.3115,-193.9801 1904.7962,-163.4948 1880.6816,-148.0209"/>
<polygon fill="#191970" stroke="#191970" points="3094.5564,-368.491 3104.7685,-365.6691 3095.0256,-361.5067 3094.5564,-368.491"/>
</g>
<!-- Node334 -->
<g id="node50" class="node">
<title>Node334</title>
<g id="a_node50"><a xlink:href="sitkMemberFunctionFactory_8h.html" target="_top" xlink:title=" ">
<polygon fill="#ffffff" stroke="#000000" points="3243.2702,-190.5 3243.2702,-209.5 3401.2702,-209.5 3401.2702,-190.5 3243.2702,-190.5"/>
<text text-anchor="middle" x="3322.2702" y="-197.5" font-family="Helvetica,sans-Serif" font-size="10.00" fill="#000000">sitkMemberFunctionFactory.h</text>
</a>
</g>
</g>
<!-- Node1&#45;&gt;Node334 -->
<g id="edge122" class="edge">
<title>Node1&#45;&gt;Node334</title>
<path fill="none" stroke="#191970" d="M3159.1217,-351.4306C3196.4523,-316.7812 3281.7802,-237.5818 3311.6818,-209.8279"/>
<polygon fill="#191970" stroke="#191970" points="3156.4685,-349.118 3151.5201,-358.4862 3161.2306,-354.2485 3156.4685,-349.118"/>
</g>
<!-- Node3&#45;&gt;Node2 -->
<g id="edge7" class="edge">
<title>Node3&#45;&gt;Node2</title>
<path fill="none" stroke="#191970" d="M3271.1558,-311.7163C2894.0315,-309.3941 376.2392,-292.9166 219.2702,-266 128.6752,-250.465 23.2702,-291.9173 23.2702,-200 23.2702,-200 23.2702,-200 23.2702,-138.5 23.2702,-106.1071 -83.4249,-121.6895 166.2702,-56 285.7135,-24.577 2237.8875,-11.9538 2534.596,-10.2131"/>
<polygon fill="#191970" stroke="#191970" points="3271.1621,-315.2163 3281.1834,-311.7778 3271.2051,-308.2164 3271.1621,-315.2163"/>
</g>
<!-- Node4 -->
<g id="node4" class="node">
<title>Node4</title>
<g id="a_node4"><a xlink:href="sitkAdditionalProcedures_8h.html" target="_top" xlink:title=" ">
<polygon fill="#ffffff" stroke="#000000" points="51.7702,-129 51.7702,-148 198.7702,-148 198.7702,-129 51.7702,-129"/>
<text text-anchor="middle" x="125.2702" y="-136" font-family="Helvetica,sans-Serif" font-size="10.00" fill="#000000">sitkAdditionalProcedures.h</text>
</a>
</g>
</g>
<!-- Node3&#45;&gt;Node4 -->
<g id="edge3" class="edge">
<title>Node3&#45;&gt;Node4</title>
<path fill="none" stroke="#191970" d="M3270.9022,-311.4093C3047.0954,-308.5183 2073.1861,-294.8192 1275.2702,-266 1024.9019,-256.9572 348.9685,-361.2832 149.2702,-210 129.7528,-195.2145 125.9431,-163.8784 125.3072,-148.0604"/>
<polygon fill="#191970" stroke="#191970" points="3270.9449,-314.91 3280.989,-311.5388 3271.0348,-307.9106 3270.9449,-314.91"/>
</g>
<!-- Node5 -->
<g id="node5" class="node">
<title>Node5</title>
<g id="a_node5"><a xlink:href="sitkHashImageFilter_8h.html" target="_top" xlink:title=" ">
<polygon fill="#ffffff" stroke="#000000" points="3364.2702,-62 3364.2702,-81 3486.2702,-81 3486.2702,-62 3364.2702,-62"/>
<text text-anchor="middle" x="3425.2702" y="-69" font-family="Helvetica,sans-Serif" font-size="10.00" fill="#000000">sitkHashImageFilter.h</text>
</a>
</g>
</g>
<!-- Node3&#45;&gt;Node5 -->
<g id="edge5" class="edge">
<title>Node3&#45;&gt;Node5</title>
<path fill="none" stroke="#191970" d="M3298.5205,-295.7369C3277.9518,-277.3923 3246.9905,-245.456 3234.2702,-210 3222.66,-177.6386 3263.0867,-123.1659 3263.2702,-123 3290.9633,-97.9637 3330.8442,-85.0953 3364.1059,-78.4828"/>
<polygon fill="#191970" stroke="#191970" points="3296.2456,-298.3969 3306.0952,-302.3002 3300.8296,-293.1066 3296.2456,-298.3969"/>
</g>
<!-- Node6 -->
<g id="node6" class="node">
<title>Node6</title>
<g id="a_node6"><a xlink:href="sitkTransform_8h.html" target="_top" xlink:title=" ">
<polygon fill="#ffffff" stroke="#000000" points="1284.2702,-246.5 1284.2702,-265.5 1376.2702,-265.5 1376.2702,-246.5 1284.2702,-246.5"/>
<text text-anchor="middle" x="1330.2702" y="-253.5" font-family="Helvetica,sans-Serif" font-size="10.00" fill="#000000">sitkTransform.h</text>
</a>
</g>
</g>
<!-- Node3&#45;&gt;Node6 -->
<g id="edge8" class="edge">
<title>Node3&#45;&gt;Node6</title>
<path fill="none" stroke="#191970" d="M3270.9121,-310.666C2999.4928,-303.0204 1644.1742,-264.8424 1376.3055,-257.2968"/>
<polygon fill="#191970" stroke="#191970" points="3271.1102,-314.1728 3281.2048,-310.9559 3271.3073,-307.1756 3271.1102,-314.1728"/>
</g>
<!-- Node3&#45;&gt;Node322 -->
<g id="edge106" class="edge">
<title>Node3&#45;&gt;Node322</title>
<path fill="none" stroke="#191970" d="M3271.3874,-299.9772C3248.7222,-292.6356 3222.0079,-281.6032 3201.2702,-266 3155.9827,-231.9254 3120.896,-171.7191 3108.309,-148.2504"/>
<polygon fill="#191970" stroke="#191970" points="3270.5633,-303.3858 3281.151,-302.9968 3272.6316,-296.6983 3270.5633,-303.3858"/>
</g>
<!-- Node323 -->
<g id="node40" class="node">
<title>Node323</title>
<g id="a_node40"><a xlink:href="sitkProcessObject_8h.html" target="_top" xlink:title=" ">
<polygon fill="#ffffff" stroke="#ff0000" points="3507.7702,-190.5 3507.7702,-209.5 3620.7702,-209.5 3620.7702,-190.5 3507.7702,-190.5"/>
<text text-anchor="middle" x="3564.2702" y="-197.5" font-family="Helvetica,sans-Serif" font-size="10.00" fill="#000000">sitkProcessObject.h</text>
</a>
</g>
</g>
<!-- Node3&#45;&gt;Node323 -->
<g id="edge79" class="edge">
<title>Node3&#45;&gt;Node323</title>
<path fill="none" stroke="#191970" d="M3360.0054,-299.3201C3385.8732,-290.9522 3419.5323,-279.1343 3448.2702,-266 3485.9921,-248.7596 3527.6755,-223.361 3549.3379,-209.6418"/>
<polygon fill="#191970" stroke="#191970" points="3358.6091,-296.0917 3350.1457,-302.4651 3360.7364,-302.7606 3358.6091,-296.0917"/>
</g>
<!-- Node328 -->
<g id="node41" class="node">
<title>Node328</title>
<g id="a_node41"><a xlink:href="sitkImageFileWriter_8h.html" target="_top" xlink:title=" ">
<polygon fill="#ffffff" stroke="#000000" points="3687.7702,-129 3687.7702,-148 3806.7702,-148 3806.7702,-129 3687.7702,-129"/>
<text text-anchor="middle" x="3747.2702" y="-136" font-family="Helvetica,sans-Serif" font-size="10.00" fill="#000000">sitkImageFileWriter.h</text>
</a>
</g>
</g>
<!-- Node3&#45;&gt;Node328 -->
<g id="edge98" class="edge">
<title>Node3&#45;&gt;Node328</title>
<path fill="none" stroke="#191970" d="M3365.3826,-300.8738C3427.6928,-285.2003 3540.037,-253.587 3629.2702,-210 3668.4421,-190.866 3711.5574,-162.7998 3733.2104,-148.1727"/>
<polygon fill="#191970" stroke="#191970" points="3364.3139,-297.5329 3355.454,-303.3426 3366.0031,-304.326 3364.3139,-297.5329"/>
</g>
<!-- Node329 -->
<g id="node42" class="node">
<title>Node329</title>
<g id="a_node42"><a xlink:href="sitkImageSeriesWriter_8h.html" target="_top" xlink:title=" ">
<polygon fill="#ffffff" stroke="#000000" points="3824.7702,-129 3824.7702,-148 3957.7702,-148 3957.7702,-129 3824.7702,-129"/>
<text text-anchor="middle" x="3891.2702" y="-136" font-family="Helvetica,sans-Serif" font-size="10.00" fill="#000000">sitkImageSeriesWriter.h</text>
</a>
</g>
</g>
<!-- Node3&#45;&gt;Node329 -->
<g id="edge101" class="edge">
<title>Node3&#45;&gt;Node329</title>
<path fill="none" stroke="#191970" d="M3365.5628,-303.5832C3409.0109,-295.4276 3475.0026,-281.9694 3531.2702,-266 3660.4346,-229.3417 3810.5109,-170.9005 3867.5969,-148.0749"/>
<polygon fill="#191970" stroke="#191970" points="3364.7569,-300.173 3355.5646,-305.441 3366.0357,-307.0552 3364.7569,-300.173"/>
</g>
<!-- Node330 -->
<g id="node43" class="node">
<title>Node330</title>
<g id="a_node43"><a xlink:href="sitkImageViewer_8h.html" target="_top" xlink:title=" ">
<polygon fill="#ffffff" stroke="#000000" points="4162.7702,-129 4162.7702,-148 4269.7702,-148 4269.7702,-129 4162.7702,-129"/>
<text text-anchor="middle" x="4216.2702" y="-136" font-family="Helvetica,sans-Serif" font-size="10.00" fill="#000000">sitkImageViewer.h</text>
</a>
</g>
</g>
<!-- Node3&#45;&gt;Node330 -->
<g id="edge102" class="edge">
<title>Node3&#45;&gt;Node330</title>
<path fill="none" stroke="#191970" d="M3365.6798,-306.2251C3428.1333,-298.3751 3541.2919,-283.3141 3637.2702,-266 3842.3909,-228.9971 4085.2878,-170.7565 4177.8526,-148.0298"/>
<polygon fill="#191970" stroke="#191970" points="3365.2213,-302.755 3355.7325,-307.4682 3366.0894,-309.701 3365.2213,-302.755"/>
</g>
<!-- Node331 -->
<g id="node44" class="node">
<title>Node331</title>
<g id="a_node44"><a xlink:href="sitkShow_8h.html" target="_top" xlink:title=" ">
<polygon fill="#ffffff" stroke="#000000" points="4287.7702,-129 4287.7702,-148 4356.7702,-148 4356.7702,-129 4287.7702,-129"/>
<text text-anchor="middle" x="4322.2702" y="-136" font-family="Helvetica,sans-Serif" font-size="10.00" fill="#000000">sitkShow.h</text>
</a>
</g>
</g>
<!-- Node3&#45;&gt;Node331 -->
<g id="edge105" class="edge">
<title>Node3&#45;&gt;Node331</title>
<path fill="none" stroke="#191970" d="M3365.4983,-307.4809C3438.2547,-300.2659 3582.0439,-285.0019 3703.2702,-266 3960.9188,-225.6142 4027.855,-223.3127 4279.2702,-154 4285.3902,-152.3128 4291.8845,-150.1664 4297.9214,-148.0126"/>
<polygon fill="#191970" stroke="#191970" points="3364.8989,-304.0229 3355.2903,-308.4865 3365.5853,-310.9892 3364.8989,-304.0229"/>
</g>
<!-- Node332 -->
<g id="node45" class="node">
<title>Node332</title>
<g id="a_node45"><a xlink:href="sitkImageConvert_8h.html" target="_top" xlink:title=" ">
<polygon fill="#ffffff" stroke="#000000" points="3326.7702,-246.5 3326.7702,-265.5 3439.7702,-265.5 3439.7702,-246.5 3326.7702,-246.5"/>
<text text-anchor="middle" x="3383.2702" y="-253.5" font-family="Helvetica,sans-Serif" font-size="10.00" fill="#000000">sitkImageConvert.h</text>
</a>
</g>
</g>
<!-- Node3&#45;&gt;Node332 -->
<g id="edge94" class="edge">
<title>Node3&#45;&gt;Node332</title>
<path fill="none" stroke="#191970" d="M3337.2536,-295.645C3348.558,-285.9058 3362.5172,-273.8795 3372.0778,-265.6427"/>
<polygon fill="#191970" stroke="#191970" points="3334.8839,-293.0668 3329.5923,-302.2455 3339.4529,-298.3701 3334.8839,-293.0668"/>
</g>
<!-- Node325 -->
<g id="node46" class="node">
<title>Node325</title>
<g id="a_node46"><a xlink:href="sitkImageFileReader_8h.html" target="_top" xlink:title=" ">
<polygon fill="#ffffff" stroke="#000000" points="2721.2702,-129 2721.2702,-148 2845.2702,-148 2845.2702,-129 2721.2702,-129"/>
<text text-anchor="middle" x="2783.2702" y="-136" font-family="Helvetica,sans-Serif" font-size="10.00" fill="#000000">sitkImageFileReader.h</text>
</a>
</g>
</g>
<!-- Node3&#45;&gt;Node325 -->
<g id="edge96" class="edge">
<title>Node3&#45;&gt;Node325</title>
<path fill="none" stroke="#191970" d="M3271.207,-302.207C3232.5054,-293.7721 3176.4008,-280.6656 3128.2702,-266 3004.8834,-228.4037 2861.4126,-170.755 2806.3759,-148.1074"/>
<polygon fill="#191970" stroke="#191970" points="3270.6338,-305.6638 3281.1473,-304.3541 3272.1117,-298.8216 3270.6338,-305.6638"/>
</g>
<!-- Node326 -->
<g id="node47" class="node">
<title>Node326</title>
<g id="a_node47"><a xlink:href="sitkImageSeriesReader_8h.html" target="_top" xlink:title=" ">
<polygon fill="#ffffff" stroke="#000000" points="2863.7702,-129 2863.7702,-148 3000.7702,-148 3000.7702,-129 2863.7702,-129"/>
<text text-anchor="middle" x="2932.2702" y="-136" font-family="Helvetica,sans-Serif" font-size="10.00" fill="#000000">sitkImageSeriesReader.h</text>
</a>
</g>
</g>
<!-- Node3&#45;&gt;Node326 -->
<g id="edge99" class="edge">
<title>Node3&#45;&gt;Node326</title>
<path fill="none" stroke="#191970" d="M3273.6192,-299.6385C3245.2952,-291.2848 3208.1181,-279.3675 3176.2702,-266 3087.2464,-228.6342 2986.7941,-170.8523 2948.3768,-148.1381"/>
<polygon fill="#191970" stroke="#191970" points="3272.6656,-303.0061 3283.2453,-302.4412 3274.6225,-296.2852 3272.6656,-303.0061"/>
</g>
<!-- Node327 -->
<g id="node48" class="node">
<title>Node327</title>
<g id="a_node48"><a xlink:href="sitkImportImageFilter_8h.html" target="_top" xlink:title=" ">
<polygon fill="#ffffff" stroke="#000000" points="4014.2702,-129 4014.2702,-148 4144.2702,-148 4144.2702,-129 4014.2702,-129"/>
<text text-anchor="middle" x="4079.2702" y="-136" font-family="Helvetica,sans-Serif" font-size="10.00" fill="#000000">sitkImportImageFilter.h</text>
</a>
</g>
</g>
<!-- Node3&#45;&gt;Node327 -->
<g id="edge103" class="edge">
<title>Node3&#45;&gt;Node327</title>
<path fill="none" stroke="#191970" d="M3365.4442,-304.7322C3417.6941,-296.4321 3504.3301,-281.9265 3578.2702,-266 3755.5036,-227.8244 3964.9729,-170.5107 4045.4569,-148.03"/>
<polygon fill="#191970" stroke="#191970" points="3364.7981,-301.2908 3355.4666,-306.3081 3365.8903,-308.2051 3364.7981,-301.2908"/>
</g>
<!-- Node4&#45;&gt;Node2 -->
<g id="edge4" class="edge">
<title>Node4&#45;&gt;Node2</title>
<path fill="none" stroke="#191970" d="M137.9363,-120.4291C153.1755,-100.4072 180.8037,-69.2062 213.2702,-56 269.3854,-33.1743 2237.2013,-13.2443 2534.7427,-10.3583"/>
<polygon fill="#191970" stroke="#191970" points="134.9329,-118.6056 131.8333,-128.7369 140.5744,-122.7498 134.9329,-118.6056"/>
</g>
<!-- Node5&#45;&gt;Node2 -->
<g id="edge6" class="edge">
<title>Node5&#45;&gt;Node2</title>
<path fill="none" stroke="#191970" d="M3374.5116,-59.9756C3366.4354,-58.4413 3358.1481,-57.0414 3350.2702,-56 3067.5734,-18.6305 2723.0603,-11.6138 2610.1019,-10.3009"/>
<polygon fill="#191970" stroke="#191970" points="3374.0917,-63.4605 3384.5818,-61.9741 3375.4544,-56.5944 3374.0917,-63.4605"/>
</g>
<!-- Node6&#45;&gt;Node2 -->
<g id="edge48" class="edge">
<title>Node6&#45;&gt;Node2</title>
<path fill="none" stroke="#191970" d="M1273.7839,-254.7349C1048.8216,-249.5653 227.8892,-229.3988 209.2702,-210 203.115,-203.587 206.4292,-198.4227 209.2702,-190 233.1915,-119.0793 244.5482,-89.914 311.2702,-56 362.9223,-29.7459 2242.8452,-12.7887 2534.436,-10.314"/>
<polygon fill="#191970" stroke="#191970" points="1273.9628,-258.2398 1284.0404,-254.9697 1274.1231,-251.2416 1273.9628,-258.2398"/>
</g>
<!-- Node6&#45;&gt;Node4 -->
<g id="edge47" class="edge">
<title>Node6&#45;&gt;Node4</title>
<path fill="none" stroke="#191970" d="M1273.7895,-255.126C1048.6415,-251.4654 224.9689,-236.3219 176.2702,-210 151.0529,-196.3699 135.3688,-164.1986 128.8159,-148.0693"/>
<polygon fill="#191970" stroke="#191970" points="1273.9977,-258.6297 1284.0529,-255.2917 1274.1108,-251.6307 1273.9977,-258.6297"/>
</g>
<!-- Node7 -->
<g id="node7" class="node">
<title>Node7</title>
<g id="a_node7"><a xlink:href="sitkBasicFilters_8h.html" target="_top" xlink:title=" ">
<polygon fill="#ffffff" stroke="#ff0000" points="2011.7702,-190.5 2011.7702,-209.5 2110.7702,-209.5 2110.7702,-190.5 2011.7702,-190.5"/>
<text text-anchor="middle" x="2061.2702" y="-197.5" font-family="Helvetica,sans-Serif" font-size="10.00" fill="#000000">sitkBasicFilters.h</text>
</a>
</g>
</g>
<!-- Node6&#45;&gt;Node7 -->
<g id="edge9" class="edge">
<title>Node6&#45;&gt;Node7</title>
<path fill="none" stroke="#191970" d="M1386.6434,-251.6814C1525.051,-241.0783 1879.8722,-213.8964 2011.3113,-203.8272"/>
<polygon fill="#191970" stroke="#191970" points="1385.9778,-248.222 1376.2744,-252.4757 1386.5126,-255.2016 1385.9778,-248.222"/>
</g>
<!-- Node308 -->
<g id="node25" class="node">
<title>Node308</title>
<g id="a_node25"><a xlink:href="sitkBSplineTransform_8h.html" target="_top" xlink:title=" ">
<polygon fill="#ffffff" stroke="#ff0000" points="293.7702,-129 293.7702,-148 422.7702,-148 422.7702,-129 293.7702,-129"/>
<text text-anchor="middle" x="358.2702" y="-136" font-family="Helvetica,sans-Serif" font-size="10.00" fill="#000000">sitkBSplineTransform.h</text>
</a>
</g>
</g>
<!-- Node6&#45;&gt;Node308 -->
<g id="edge49" class="edge">
<title>Node6&#45;&gt;Node308</title>
<path fill="none" stroke="#191970" d="M1273.7852,-254.9134C1075.838,-250.89 423.5289,-235.7275 387.2702,-210 366.8411,-195.5045 360.7836,-164.0347 359.0024,-148.1236"/>
<polygon fill="#191970" stroke="#191970" points="1273.8995,-258.4164 1283.9681,-255.1187 1274.0407,-251.4178 1273.8995,-258.4164"/>
</g>
<!-- Node309 -->
<g id="node26" class="node">
<title>Node309</title>
<g id="a_node26"><a xlink:href="sitkDisplacementFieldTransform_8h.html" target="_top" xlink:title=" ">
<polygon fill="#ffffff" stroke="#000000" points="2445.2702,-129 2445.2702,-148 2627.2702,-148 2627.2702,-129 2445.2702,-129"/>
<text text-anchor="middle" x="2536.2702" y="-136" font-family="Helvetica,sans-Serif" font-size="10.00" fill="#000000">sitkDisplacementFieldTransform.h</text>
</a>
</g>
</g>
<!-- Node6&#45;&gt;Node309 -->
<g id="edge51" class="edge">
<title>Node6&#45;&gt;Node309</title>
<path fill="none" stroke="#191970" d="M1386.5908,-255.1758C1612.0572,-251.6952 2439.7536,-237.1151 2488.2702,-210 2512.8061,-196.2873 2527.1916,-164.1547 2533.1027,-148.0518"/>
<polygon fill="#191970" stroke="#191970" points="1386.2602,-251.6804 1376.315,-255.3332 1386.3674,-258.6795 1386.2602,-251.6804"/>
</g>
<!-- Node310 -->
<g id="node27" class="node">
<title>Node310</title>
<g id="a_node27"><a xlink:href="sitkAffineTransform_8h.html" target="_top" xlink:title=" ">
<polygon fill="#ffffff" stroke="#000000" points="218.7702,-190.5 218.7702,-209.5 339.7702,-209.5 339.7702,-190.5 218.7702,-190.5"/>
<text text-anchor="middle" x="279.2702" y="-197.5" font-family="Helvetica,sans-Serif" font-size="10.00" fill="#000000">sitkAffineTransform.h</text>
</a>
</g>
</g>
<!-- Node6&#45;&gt;Node310 -->
<g id="edge53" class="edge">
<title>Node6&#45;&gt;Node310</title>
<path fill="none" stroke="#191970" d="M1273.603,-255.0214C1123.4209,-252.0616 702.8093,-241.3916 354.2702,-210 349.5602,-209.5758 344.6918,-209.0731 339.8027,-208.5225"/>
<polygon fill="#191970" stroke="#191970" points="1273.8783,-258.5272 1283.9441,-255.2213 1274.0137,-251.5286 1273.8783,-258.5272"/>
</g>
<!-- Node311 -->
<g id="node28" class="node">
<title>Node311</title>
<g id="a_node28"><a xlink:href="sitkEuler2DTransform_8h.html" target="_top" xlink:title=" ">
<polygon fill="#ffffff" stroke="#000000" points="396.7702,-190.5 396.7702,-209.5 527.7702,-209.5 527.7702,-190.5 396.7702,-190.5"/>
<text text-anchor="middle" x="462.2702" y="-197.5" font-family="Helvetica,sans-Serif" font-size="10.00" fill="#000000">sitkEuler2DTransform.h</text>
</a>
</g>
</g>
<!-- Node6&#45;&gt;Node311 -->
<g id="edge55" class="edge">
<title>Node6&#45;&gt;Node311</title>
<path fill="none" stroke="#191970" d="M1273.9588,-254.2175C1143.8302,-249.7752 812.2685,-236.6042 536.2702,-210 533.5603,-209.7388 530.797,-209.4531 528.0074,-209.1488"/>
<polygon fill="#191970" stroke="#191970" points="1273.9702,-257.7198 1284.0827,-254.5593 1274.2065,-250.7238 1273.9702,-257.7198"/>
</g>
<!-- Node312 -->
<g id="node29" class="node">
<title>Node312</title>
<g id="a_node29"><a xlink:href="sitkEuler3DTransform_8h.html" target="_top" xlink:title=" ">
<polygon fill="#ffffff" stroke="#000000" points="752.7702,-190.5 752.7702,-209.5 883.7702,-209.5 883.7702,-190.5 752.7702,-190.5"/>
<text text-anchor="middle" x="818.2702" y="-197.5" font-family="Helvetica,sans-Serif" font-size="10.00" fill="#000000">sitkEuler3DTransform.h</text>
</a>
</g>
</g>
<!-- Node6&#45;&gt;Node312 -->
<g id="edge57" class="edge">
<title>Node6&#45;&gt;Node312</title>
<path fill="none" stroke="#191970" d="M1274.1683,-250.6457C1190.7904,-242.5664 1029.2756,-226.4478 892.2702,-210 889.5671,-209.6755 886.8096,-209.3369 884.0247,-208.9888"/>
<polygon fill="#191970" stroke="#191970" points="1273.8955,-254.1356 1284.1859,-251.6141 1274.5691,-247.168 1273.8955,-254.1356"/>
</g>
<!-- Node313 -->
<g id="node30" class="node">
<title>Node313</title>
<g id="a_node30"><a xlink:href="sitkScaleTransform_8h.html" target="_top" xlink:title=" ">
<polygon fill="#ffffff" stroke="#000000" points="1424.7702,-190.5 1424.7702,-209.5 1543.7702,-209.5 1543.7702,-190.5 1424.7702,-190.5"/>
<text text-anchor="middle" x="1484.2702" y="-197.5" font-family="Helvetica,sans-Serif" font-size="10.00" fill="#000000">sitkScaleTransform.h</text>
</a>
</g>
</g>
<!-- Node6&#45;&gt;Node313 -->
<g id="edge59" class="edge">
<title>Node6&#45;&gt;Node313</title>
<path fill="none" stroke="#191970" d="M1366.2316,-242.9231C1394.3836,-232.686 1432.8757,-218.6889 1458.1421,-209.5011"/>
<polygon fill="#191970" stroke="#191970" points="1364.9455,-239.6665 1356.7437,-246.3733 1367.3378,-246.245 1364.9455,-239.6665"/>
</g>
<!-- Node314 -->
<g id="node31" class="node">
<title>Node314</title>
<g id="a_node31"><a xlink:href="sitkScaleSkewVersor3DTransform_8h.html" target="_top" xlink:title=" ">
<polygon fill="#ffffff" stroke="#000000" points="545.7702,-190.5 545.7702,-209.5 734.7702,-209.5 734.7702,-190.5 545.7702,-190.5"/>
<text text-anchor="middle" x="640.2702" y="-197.5" font-family="Helvetica,sans-Serif" font-size="10.00" fill="#000000">sitkScaleSkewVersor3DTransform.h</text>
</a>
</g>
</g>
<!-- Node6&#45;&gt;Node314 -->
<g id="edge61" class="edge">
<title>Node6&#45;&gt;Node314</title>
<path fill="none" stroke="#191970" d="M1274.1946,-251.9541C1169.708,-244.3379 938.1517,-227.0947 743.2702,-210 740.4961,-209.7567 737.6803,-209.5061 734.8381,-209.2502"/>
<polygon fill="#191970" stroke="#191970" points="1273.9762,-255.4474 1284.2039,-252.6826 1274.4844,-248.4659 1273.9762,-255.4474"/>
</g>
<!-- Node315 -->
<g id="node32" class="node">
<title>Node315</title>
<g id="a_node32"><a xlink:href="sitkScaleVersor3DTransform_8h.html" target="_top" xlink:title=" ">
<polygon fill="#ffffff" stroke="#000000" points="901.7702,-190.5 901.7702,-209.5 1064.7702,-209.5 1064.7702,-190.5 901.7702,-190.5"/>
<text text-anchor="middle" x="983.2702" y="-197.5" font-family="Helvetica,sans-Serif" font-size="10.00" fill="#000000">sitkScaleVersor3DTransform.h</text>
</a>
</g>
</g>
<!-- Node6&#45;&gt;Node315 -->
<g id="edge63" class="edge">
<title>Node6&#45;&gt;Node315</title>
<path fill="none" stroke="#191970" d="M1273.9389,-246.9091C1210.2712,-236.6342 1107.0892,-219.9823 1042.3213,-209.5299"/>
<polygon fill="#191970" stroke="#191970" points="1273.7613,-250.4256 1284.1912,-248.5636 1274.8766,-243.515 1273.7613,-250.4256"/>
</g>
<!-- Node316 -->
<g id="node33" class="node">
<title>Node316</title>
<g id="a_node33"><a xlink:href="sitkSimilarity2DTransform_8h.html" target="_top" xlink:title=" ">
<polygon fill="#ffffff" stroke="#000000" points="1082.7702,-190.5 1082.7702,-209.5 1235.7702,-209.5 1235.7702,-190.5 1082.7702,-190.5"/>
<text text-anchor="middle" x="1159.2702" y="-197.5" font-family="Helvetica,sans-Serif" font-size="10.00" fill="#000000">sitkSimilarity2DTransform.h</text>
</a>
</g>
</g>
<!-- Node6&#45;&gt;Node316 -->
<g id="edge65" class="edge">
<title>Node6&#45;&gt;Node316</title>
<path fill="none" stroke="#191970" d="M1291.1554,-243.1905C1259.827,-232.9309 1216.5831,-218.7691 1188.2825,-209.5011"/>
<polygon fill="#191970" stroke="#191970" points="1290.2815,-246.5872 1300.8742,-246.3733 1292.4601,-239.9348 1290.2815,-246.5872"/>
</g>
<!-- Node317 -->
<g id="node34" class="node">
<title>Node317</title>
<g id="a_node34"><a xlink:href="sitkSimilarity3DTransform_8h.html" target="_top" xlink:title=" ">
<polygon fill="#ffffff" stroke="#000000" points="1253.7702,-190.5 1253.7702,-209.5 1406.7702,-209.5 1406.7702,-190.5 1253.7702,-190.5"/>
<text text-anchor="middle" x="1330.2702" y="-197.5" font-family="Helvetica,sans-Serif" font-size="10.00" fill="#000000">sitkSimilarity3DTransform.h</text>
</a>
</g>
</g>
<!-- Node6&#45;&gt;Node317 -->
<g id="edge67" class="edge">
<title>Node6&#45;&gt;Node317</title>
<path fill="none" stroke="#191970" d="M1330.2702,-236.1575C1330.2702,-227.155 1330.2702,-216.9199 1330.2702,-209.6427"/>
<polygon fill="#191970" stroke="#191970" points="1326.7703,-236.2455 1330.2702,-246.2455 1333.7703,-236.2456 1326.7703,-236.2455"/>
</g>
<!-- Node318 -->
<g id="node35" class="node">
<title>Node318</title>
<g id="a_node35"><a xlink:href="sitkTranslationTransform_8h.html" target="_top" xlink:title=" ">
<polygon fill="#ffffff" stroke="#000000" points="1562.2702,-190.5 1562.2702,-209.5 1708.2702,-209.5 1708.2702,-190.5 1562.2702,-190.5"/>
<text text-anchor="middle" x="1635.2702" y="-197.5" font-family="Helvetica,sans-Serif" font-size="10.00" fill="#000000">sitkTranslationTransform.h</text>
</a>
</g>
</g>
<!-- Node6&#45;&gt;Node318 -->
<g id="edge69" class="edge">
<title>Node6&#45;&gt;Node318</title>
<path fill="none" stroke="#191970" d="M1386.7483,-245.6302C1443.0451,-235.2938 1528.7744,-219.5533 1583.3961,-209.5244"/>
<polygon fill="#191970" stroke="#191970" points="1385.7966,-242.2464 1376.5931,-247.4948 1387.0608,-249.1313 1385.7966,-242.2464"/>
</g>
<!-- Node319 -->
<g id="node36" class="node">
<title>Node319</title>
<g id="a_node36"><a xlink:href="sitkVersorTransform_8h.html" target="_top" xlink:title=" ">
<polygon fill="#ffffff" stroke="#000000" points="1726.7702,-190.5 1726.7702,-209.5 1849.7702,-209.5 1849.7702,-190.5 1726.7702,-190.5"/>
<text text-anchor="middle" x="1788.2702" y="-197.5" font-family="Helvetica,sans-Serif" font-size="10.00" fill="#000000">sitkVersorTransform.h</text>
</a>
</g>
</g>
<!-- Node6&#45;&gt;Node319 -->
<g id="edge71" class="edge">
<title>Node6&#45;&gt;Node319</title>
<path fill="none" stroke="#191970" d="M1386.6946,-249.6802C1462.0915,-241.1468 1599.8378,-225.2473 1717.2702,-210 1720.3563,-209.5993 1723.5167,-209.1815 1726.7076,-208.7538"/>
<polygon fill="#191970" stroke="#191970" points="1386.0219,-246.2338 1376.4781,-250.8345 1386.8079,-253.1895 1386.0219,-246.2338"/>
</g>
<!-- Node320 -->
<g id="node37" class="node">
<title>Node320</title>
<g id="a_node37"><a xlink:href="sitkVersorRigid3DTransform_8h.html" target="_top" xlink:title=" ">
<polygon fill="#ffffff" stroke="#000000" points="2146.7702,-190.5 2146.7702,-209.5 2307.7702,-209.5 2307.7702,-190.5 2146.7702,-190.5"/>
<text text-anchor="middle" x="2227.2702" y="-197.5" font-family="Helvetica,sans-Serif" font-size="10.00" fill="#000000">sitkVersorRigid3DTransform.h</text>
</a>
</g>
</g>
<!-- Node6&#45;&gt;Node320 -->
<g id="edge73" class="edge">
<title>Node6&#45;&gt;Node320</title>
<path fill="none" stroke="#191970" d="M1386.6282,-253.3752C1516.1199,-247.1996 1844.8462,-230.6984 2119.2702,-210 2128.0953,-209.3344 2137.3203,-208.5761 2146.5008,-207.7816"/>
<polygon fill="#191970" stroke="#191970" points="1386.3738,-249.8832 1376.5512,-253.8541 1386.7061,-256.8753 1386.3738,-249.8832"/>
</g>
<!-- Node321 -->
<g id="node38" class="node">
<title>Node321</title>
<g id="a_node38"><a xlink:href="sitkCompositeTransform_8h.html" target="_top" xlink:title=" ">
<polygon fill="#ffffff" stroke="#000000" points="2334.7702,-190.5 2334.7702,-209.5 2479.7702,-209.5 2479.7702,-190.5 2334.7702,-190.5"/>
<text text-anchor="middle" x="2407.2702" y="-197.5" font-family="Helvetica,sans-Serif" font-size="10.00" fill="#000000">sitkCompositeTransform.h</text>
</a>
</g>
</g>
<!-- Node6&#45;&gt;Node321 -->
<g id="edge75" class="edge">
<title>Node6&#45;&gt;Node321</title>
<path fill="none" stroke="#191970" d="M1386.9421,-254.6023C1538.1009,-250.6044 1963.4013,-237.5922 2316.2702,-210 2322.1329,-209.5416 2328.2019,-209.0068 2334.2951,-208.4272"/>
<polygon fill="#191970" stroke="#191970" points="1386.4421,-251.1141 1376.5372,-254.8746 1386.6254,-258.1117 1386.4421,-251.1141"/>
</g>
<!-- Node6&#45;&gt;Node322 -->
<g id="edge77" class="edge">
<title>Node6&#45;&gt;Node322</title>
<path fill="none" stroke="#191970" d="M1386.5503,-255.2874C1556.7699,-252.8155 2081.0488,-242.876 2514.2702,-210 2735.0388,-193.2465 2789.9728,-184.465 3009.2702,-154 3021.8847,-152.2476 3035.4149,-150.1471 3048.1687,-148.0664"/>
<polygon fill="#191970" stroke="#191970" points="1386.2773,-251.7908 1376.3282,-255.4329 1386.3771,-258.7901 1386.2773,-251.7908"/>
</g>
<!-- Node7&#45;&gt;Node4 -->
<g id="edge10" class="edge">
<title>Node7&#45;&gt;Node4</title>
<path fill="none" stroke="#191970" d="M2001.4269,-196.6371C1961.0082,-194.4678 1906.4422,-191.7371 1858.2702,-190 1158.9862,-164.7837 982.7486,-195.9748 284.2702,-154 256.3082,-152.3196 225.6609,-149.5525 198.7995,-146.8178"/>
<polygon fill="#191970" stroke="#191970" points="2001.4725,-200.1446 2011.6469,-197.1898 2001.8505,-193.1548 2001.4725,-200.1446"/>
</g>
<!-- Node7&#45;&gt;Node5 -->
<g id="edge33" class="edge">
<title>Node7&#45;&gt;Node5</title>
<path fill="none" stroke="#191970" d="M2121.3857,-191.7583C2126.7525,-191.123 2132.1066,-190.5255 2137.2702,-190 2358.4817,-167.4867 2419.754,-204.6174 2636.2702,-154 2671.792,-145.6957 2676.7486,-131.3059 2712.2702,-123 2743.766,-115.6354 3196.9152,-86.1054 3363.9916,-75.4005"/>
<polygon fill="#191970" stroke="#191970" points="2120.5969,-188.3287 2111.0962,-193.0177 2121.4474,-195.2768 2120.5969,-188.3287"/>
</g>
<!-- Node9 -->
<g id="node8" class="node">
<title>Node9</title>
<g id="a_node8"><a xlink:href="sitkImageFilter_8h.html" target="_top" xlink:title=" ">
<polygon fill="#ffffff" stroke="#ff0000" points="2012.2702,-129 2012.2702,-148 2110.2702,-148 2110.2702,-129 2012.2702,-129"/>
<text text-anchor="middle" x="2061.2702" y="-136" font-family="Helvetica,sans-Serif" font-size="10.00" fill="#000000">sitkImageFilter.h</text>
</a>
</g>
</g>
<!-- Node7&#45;&gt;Node9 -->
<g id="edge11" class="edge">
<title>Node7&#45;&gt;Node9</title>
<path fill="none" stroke="#191970" d="M2061.2702,-180.2462C2061.2702,-169.5519 2061.2702,-156.814 2061.2702,-148.2449"/>
<polygon fill="#191970" stroke="#191970" points="2057.7703,-180.3906 2061.2702,-190.3906 2064.7703,-180.3907 2057.7703,-180.3906"/>
</g>
<!-- Node65 -->
<g id="node10" class="node">
<title>Node65</title>
<g id="a_node10"><a xlink:href="sitkClampImageFilter_8h.html" target="_top" xlink:title=" ">
<polygon fill="#ffffff" stroke="#ff0000" points="1878.7702,-62 1878.7702,-81 2007.7702,-81 2007.7702,-62 1878.7702,-62"/>
<text text-anchor="middle" x="1943.2702" y="-69" font-family="Helvetica,sans-Serif" font-size="10.00" fill="#000000">sitkClampImageFilter.h</text>
</a>
</g>
</g>
<!-- Node7&#45;&gt;Node65 -->
<g id="edge34" class="edge">
<title>Node7&#45;&gt;Node65</title>
<path fill="none" stroke="#191970" d="M2038.909,-184.5042C2027.6086,-176.1359 2014.0456,-165.2347 2003.2702,-154 1980.3457,-130.0985 1958.8974,-97.0949 1949.0008,-81.0402"/>
<polygon fill="#191970" stroke="#191970" points="2036.8715,-187.3501 2047.0259,-190.3733 2040.9732,-181.6776 2036.8715,-187.3501"/>
</g>
<!-- Node158 -->
<g id="node11" class="node">
<title>Node158</title>
<g id="a_node11"><a xlink:href="sitkLabelIntensityStatisticsImageFilter_8h.html" target="_top" xlink:title=" ">
<polygon fill="#ffffff" stroke="#ff0000" points="2063.7702,-56.5 2063.7702,-86.5 2212.7702,-86.5 2212.7702,-56.5 2063.7702,-56.5"/>
<text text-anchor="start" x="2071.7702" y="-74.5" font-family="Helvetica,sans-Serif" font-size="10.00" fill="#000000">sitkLabelIntensityStatistics</text>
<text text-anchor="middle" x="2138.2702" y="-63.5" font-family="Helvetica,sans-Serif" font-size="10.00" fill="#000000">ImageFilter.h</text>
</a>
</g>
</g>
<!-- Node7&#45;&gt;Node158 -->
<g id="edge35" class="edge">
<title>Node7&#45;&gt;Node158</title>
<path fill="none" stroke="#191970" d="M2087.3281,-184.9921C2098.7531,-177.1482 2111.3404,-166.5555 2119.2702,-154 2132.4557,-133.1229 2136.5178,-104.1172 2137.7525,-86.6427"/>
<polygon fill="#191970" stroke="#191970" points="2085.4049,-182.0677 2078.9143,-190.4416 2089.2103,-187.943 2085.4049,-182.0677"/>
</g>
<!-- Node159 -->
<g id="node12" class="node">
<title>Node159</title>
<g id="a_node12"><a xlink:href="sitkLabelMapContourOverlayImageFilter_8h.html" target="_top" xlink:title=" ">
<polygon fill="#ffffff" stroke="#ff0000" points="2230.2702,-56.5 2230.2702,-86.5 2388.2702,-86.5 2388.2702,-56.5 2230.2702,-56.5"/>
<text text-anchor="start" x="2238.2702" y="-74.5" font-family="Helvetica,sans-Serif" font-size="10.00" fill="#000000">sitkLabelMapContourOverlay</text>
<text text-anchor="middle" x="2309.2702" y="-63.5" font-family="Helvetica,sans-Serif" font-size="10.00" fill="#000000">ImageFilter.h</text>
</a>
</g>
</g>
<!-- Node7&#45;&gt;Node159 -->
<g id="edge36" class="edge">
<title>Node7&#45;&gt;Node159</title>
<path fill="none" stroke="#191970" d="M2088.3639,-185.5266C2117.6194,-169.9416 2165.631,-144.4899 2207.2702,-123 2231.2445,-110.6269 2258.5333,-96.8655 2278.8486,-86.683"/>
<polygon fill="#191970" stroke="#191970" points="2086.3752,-182.6205 2079.1978,-190.4138 2089.6686,-188.7974 2086.3752,-182.6205"/>
</g>
<!-- Node160 -->
<g id="node13" class="node">
<title>Node160</title>
<g id="a_node13"><a xlink:href="sitkLabelMapMaskImageFilter_8h.html" target="_top" xlink:title=" ">
<polygon fill="#ffffff" stroke="#ff0000" points="2406.2702,-62 2406.2702,-81 2576.2702,-81 2576.2702,-62 2406.2702,-62"/>
<text text-anchor="middle" x="2491.2702" y="-69" font-family="Helvetica,sans-Serif" font-size="10.00" fill="#000000">sitkLabelMapMaskImageFilter.h</text>
</a>
</g>
</g>
<!-- Node7&#45;&gt;Node160 -->
<g id="edge37" class="edge">
<title>Node7&#45;&gt;Node160</title>
<path fill="none" stroke="#191970" d="M2103.2927,-187.4669C2129.6015,-179.1065 2163.9515,-167.244 2193.2702,-154 2218.842,-142.4485 2222.0194,-132.9123 2248.2702,-123 2282.1593,-110.2035 2376.2203,-92.0232 2436.8828,-81.0363"/>
<polygon fill="#191970" stroke="#191970" points="2102.126,-184.1646 2093.6305,-190.4953 2104.2196,-190.8442 2102.126,-184.1646"/>
</g>
<!-- Node161 -->
<g id="node14" class="node">
<title>Node161</title>
<g id="a_node14"><a xlink:href="sitkLabelMapOverlayImageFilter_8h.html" target="_top" xlink:title=" ">
<polygon fill="#ffffff" stroke="#ff0000" points="2594.2702,-56.5 2594.2702,-86.5 2744.2702,-86.5 2744.2702,-56.5 2594.2702,-56.5"/>
<text text-anchor="start" x="2602.2702" y="-74.5" font-family="Helvetica,sans-Serif" font-size="10.00" fill="#000000">sitkLabelMapOverlayImage</text>
<text text-anchor="middle" x="2669.2702" y="-63.5" font-family="Helvetica,sans-Serif" font-size="10.00" fill="#000000">Filter.h</text>
</a>
</g>
</g>
<!-- Node7&#45;&gt;Node161 -->
<g id="edge38" class="edge">
<title>Node7&#45;&gt;Node161</title>
<path fill="none" stroke="#191970" d="M2120.6693,-188.4889C2154.9208,-180.8259 2198.3727,-169.3332 2235.2702,-154 2260.4699,-143.5279 2262.4091,-131.712 2288.2702,-123 2414.2784,-80.5509 2453.828,-107.0736 2585.2702,-87 2588.2021,-86.5522 2591.1886,-86.0798 2594.2032,-85.5894"/>
<polygon fill="#191970" stroke="#191970" points="2119.8309,-185.0894 2110.8102,-190.6462 2121.3273,-191.9276 2119.8309,-185.0894"/>
</g>
<!-- Node166 -->
<g id="node15" class="node">
<title>Node166</title>
<g id="a_node15"><a xlink:href="sitkLabelOverlayImageFilter_8h.html" target="_top" xlink:title=" ">
<polygon fill="#ffffff" stroke="#ff0000" points="2762.2702,-62 2762.2702,-81 2924.2702,-81 2924.2702,-62 2762.2702,-62"/>
<text text-anchor="middle" x="2843.2702" y="-69" font-family="Helvetica,sans-Serif" font-size="10.00" fill="#000000">sitkLabelOverlayImageFilter.h</text>
</a>
</g>
</g>
<!-- Node7&#45;&gt;Node166 -->
<g id="edge39" class="edge">
<title>Node7&#45;&gt;Node166</title>
<path fill="none" stroke="#191970" d="M2120.9647,-189.5412C2174.4215,-179.7552 2248.5294,-165.0309 2276.2702,-154 2300.9185,-144.1988 2302.0517,-131.224 2327.2702,-123 2507.9153,-64.0896 2564.8026,-111.1469 2753.2702,-87 2766.0086,-85.3679 2779.6962,-83.2169 2792.4569,-81.0387"/>
<polygon fill="#191970" stroke="#191970" points="2120.1173,-186.1378 2110.9042,-191.3695 2121.3689,-193.025 2120.1173,-186.1378"/>
</g>
<!-- Node168 -->
<g id="node16" class="node">
<title>Node168</title>
<g id="a_node16"><a xlink:href="sitkLabelStatisticsImageFilter_8h.html" target="_top" xlink:title=" ">
<polygon fill="#ffffff" stroke="#ff0000" points="2942.7702,-56.5 2942.7702,-86.5 3079.7702,-86.5 3079.7702,-56.5 2942.7702,-56.5"/>
<text text-anchor="start" x="2950.7702" y="-74.5" font-family="Helvetica,sans-Serif" font-size="10.00" fill="#000000">sitkLabelStatisticsImage</text>
<text text-anchor="middle" x="3011.2702" y="-63.5" font-family="Helvetica,sans-Serif" font-size="10.00" fill="#000000">Filter.h</text>
</a>
</g>
</g>
<!-- Node7&#45;&gt;Node168 -->
<g id="edge40" class="edge">
<title>Node7&#45;&gt;Node168</title>
<path fill="none" stroke="#191970" d="M2120.9028,-191.9438C2184.7303,-182.8436 2281.5023,-167.5363 2316.2702,-154 2340.2844,-144.6504 2340.7576,-130.9519 2365.2702,-123 2485.5738,-83.9734 2807.8574,-103.3616 2933.2702,-87 2936.2821,-86.6071 2939.3523,-86.1672 2942.4487,-85.6914"/>
<polygon fill="#191970" stroke="#191970" points="2120.3679,-188.4845 2110.9563,-193.3497 2121.3477,-195.4156 2120.3679,-188.4845"/>
</g>
<!-- Node184 -->
<g id="node17" class="node">
<title>Node184</title>
<g id="a_node17"><a xlink:href="sitkMaskImageFilter_8h.html" target="_top" xlink:title=" ">
<polygon fill="#ffffff" stroke="#ff0000" points="783.7702,-62 783.7702,-81 906.7702,-81 906.7702,-62 783.7702,-62"/>
<text text-anchor="middle" x="845.2702" y="-69" font-family="Helvetica,sans-Serif" font-size="10.00" fill="#000000">sitkMaskImageFilter.h</text>
</a>
</g>
</g>
<!-- Node7&#45;&gt;Node184 -->
<g id="edge41" class="edge">
<title>Node7&#45;&gt;Node184</title>
<path fill="none" stroke="#191970" d="M2001.3072,-196.9456C1808.8622,-187.1246 1218.1547,-156.831 1198.2702,-154 1078.3275,-136.9236 939.1693,-98.8802 877.5136,-81.0578"/>
<polygon fill="#191970" stroke="#191970" points="2001.3536,-200.4524 2011.519,-197.4666 2001.7103,-193.4615 2001.3536,-200.4524"/>
</g>
<!-- Node185 -->
<g id="node18" class="node">
<title>Node185</title>
<g id="a_node18"><a xlink:href="sitkMaskNegatedImageFilter_8h.html" target="_top" xlink:title=" ">
<polygon fill="#ffffff" stroke="#ff0000" points="925.2702,-62 925.2702,-81 1089.2702,-81 1089.2702,-62 925.2702,-62"/>
<text text-anchor="middle" x="1007.2702" y="-69" font-family="Helvetica,sans-Serif" font-size="10.00" fill="#000000">sitkMaskNegatedImageFilter.h</text>
</a>
</g>
</g>
<!-- Node7&#45;&gt;Node185 -->
<g id="edge42" class="edge">
<title>Node7&#45;&gt;Node185</title>
<path fill="none" stroke="#191970" d="M2001.5959,-196.68C1843.0651,-187.779 1419.1798,-163.4205 1356.2702,-154 1238.0488,-136.2967 1100.847,-98.7421 1039.6349,-81.0713"/>
<polygon fill="#191970" stroke="#191970" points="2001.4674,-200.1782 2011.6476,-197.2437 2001.8593,-193.1892 2001.4674,-200.1782"/>
</g>
<!-- Node203 -->
<g id="node19" class="node">
<title>Node203</title>
<g id="a_node19"><a xlink:href="sitkMorphologicalWatershedFromMarkersImageFilter_8h.html" target="_top" xlink:title=" ">
<polygon fill="#ffffff" stroke="#ff0000" points="1107.7702,-56.5 1107.7702,-86.5 1262.7702,-86.5 1262.7702,-56.5 1107.7702,-56.5"/>
<text text-anchor="start" x="1115.7702" y="-74.5" font-family="Helvetica,sans-Serif" font-size="10.00" fill="#000000">sitkMorphologicalWatershed</text>
<text text-anchor="middle" x="1185.2702" y="-63.5" font-family="Helvetica,sans-Serif" font-size="10.00" fill="#000000">FromMarkersImageFilter.h</text>
</a>
</g>
</g>
<!-- Node7&#45;&gt;Node203 -->
<g id="edge43" class="edge">
<title>Node7&#45;&gt;Node203</title>
<path fill="none" stroke="#191970" d="M2001.473,-196.4374C1877.171,-188.8135 1594.5356,-170.2843 1499.2702,-154 1402.8766,-137.5228 1292.9138,-105.4857 1232.0503,-86.5481"/>
<polygon fill="#191970" stroke="#191970" points="2001.3784,-199.9381 2011.5732,-197.0542 2001.8052,-192.9511 2001.3784,-199.9381"/>
</g>
<!-- Node239 -->
<g id="node20" class="node">
<title>Node239</title>
<g id="a_node20"><a xlink:href="sitkResampleImageFilter_8h.html" target="_top" xlink:title=" ">
<polygon fill="#ffffff" stroke="#ff0000" points="1281.2702,-62 1281.2702,-81 1427.2702,-81 1427.2702,-62 1281.2702,-62"/>
<text text-anchor="middle" x="1354.2702" y="-69" font-family="Helvetica,sans-Serif" font-size="10.00" fill="#000000">sitkResampleImageFilter.h</text>
</a>
</g>
</g>
<!-- Node7&#45;&gt;Node239 -->
<g id="edge44" class="edge">
<title>Node7&#45;&gt;Node239</title>
<path fill="none" stroke="#191970" d="M2001.6302,-197.4644C1916.5001,-193.0112 1755.5776,-181.4947 1621.2702,-154 1530.2487,-135.3666 1425.9976,-98.4456 1379.2429,-81.0238"/>
<polygon fill="#191970" stroke="#191970" points="2001.4643,-200.9604 2011.6293,-197.9731 2001.82,-193.9695 2001.4643,-200.9604"/>
</g>
<!-- Node292 -->
<g id="node21" class="node">
<title>Node292</title>
<g id="a_node21"><a xlink:href="sitkVectorIndexSelectionCastImageFilter_8h.html" target="_top" xlink:title=" ">
<polygon fill="#ffffff" stroke="#ff0000" points="1445.7702,-56.5 1445.7702,-86.5 1582.7702,-86.5 1582.7702,-56.5 1445.7702,-56.5"/>
<text text-anchor="start" x="1453.7702" y="-74.5" font-family="Helvetica,sans-Serif" font-size="10.00" fill="#000000">sitkVectorIndexSelection</text>
<text text-anchor="middle" x="1514.2702" y="-63.5" font-family="Helvetica,sans-Serif" font-size="10.00" fill="#000000">CastImageFilter.h</text>
</a>
</g>
</g>
<!-- Node7&#45;&gt;Node292 -->
<g id="edge45" class="edge">
<title>Node7&#45;&gt;Node292</title>
<path fill="none" stroke="#191970" d="M2001.2642,-196.7772C1931.3467,-191.9414 1812.8233,-180.3773 1714.2702,-154 1651.5001,-137.1999 1582.2317,-105.4301 1543.9136,-86.5953"/>
<polygon fill="#191970" stroke="#191970" points="2001.4273,-200.2958 2011.6383,-197.4699 2001.8937,-193.3114 2001.4273,-200.2958"/>
</g>
<!-- Node297 -->
<g id="node22" class="node">
<title>Node297</title>
<g id="a_node22"><a xlink:href="sitkWarpImageFilter_8h.html" target="_top" xlink:title=" ">
<polygon fill="#ffffff" stroke="#ff0000" points="1601.2702,-62 1601.2702,-81 1723.2702,-81 1723.2702,-62 1601.2702,-62"/>
<text text-anchor="middle" x="1662.2702" y="-69" font-family="Helvetica,sans-Serif" font-size="10.00" fill="#000000">sitkWarpImageFilter.h</text>
</a>
</g>
</g>
<!-- Node7&#45;&gt;Node297 -->
<g id="edge46" class="edge">
<title>Node7&#45;&gt;Node297</title>
<path fill="none" stroke="#191970" d="M2001.6546,-194.2686C1928.2528,-186.592 1808.2697,-171.8483 1767.2702,-154 1726.4584,-136.2335 1687.8018,-98.7105 1671.0242,-81.0594"/>
<polygon fill="#191970" stroke="#191970" points="2001.3831,-197.7591 2011.6897,-195.3045 2002.102,-190.7961 2001.3831,-197.7591"/>
</g>
<!-- Node306 -->
<g id="node23" class="node">
<title>Node306</title>
<g id="a_node23"><a xlink:href="sitkCenteredTransformInitializerFilter_8h.html" target="_top" xlink:title=" ">
<polygon fill="#ffffff" stroke="#000000" points="3281.7702,-123.5 3281.7702,-153.5 3454.7702,-153.5 3454.7702,-123.5 3281.7702,-123.5"/>
<text text-anchor="start" x="3289.7702" y="-141.5" font-family="Helvetica,sans-Serif" font-size="10.00" fill="#000000">sitkCenteredTransformInitializer</text>
<text text-anchor="middle" x="3368.2702" y="-130.5" font-family="Helvetica,sans-Serif" font-size="10.00" fill="#000000">Filter.h</text>
</a>
</g>
</g>
<!-- Node7&#45;&gt;Node306 -->
<g id="edge29" class="edge">
<title>Node7&#45;&gt;Node306</title>
<path fill="none" stroke="#191970" d="M2121.3662,-191.5464C2126.7372,-190.9563 2132.0976,-190.4272 2137.2702,-190 2606.6107,-151.2365 2726.2344,-183.1454 3196.2702,-154 3224.1001,-152.2744 3254.4092,-149.7569 3281.7235,-147.2507"/>
<polygon fill="#191970" stroke="#191970" points="2120.599,-188.112 2111.0711,-192.7455 2121.4089,-195.065 2120.599,-188.112"/>
</g>
<!-- Node307 -->
<g id="node24" class="node">
<title>Node307</title>
<g id="a_node24"><a xlink:href="sitkCenteredVersorTransformInitializerFilter_8h.html" target="_top" xlink:title=" ">
<polygon fill="#ffffff" stroke="#000000" points="3473.2702,-123.5 3473.2702,-153.5 3631.2702,-153.5 3631.2702,-123.5 3473.2702,-123.5"/>
<text text-anchor="start" x="3481.2702" y="-141.5" font-family="Helvetica,sans-Serif" font-size="10.00" fill="#000000">sitkCenteredVersorTransform</text>
<text text-anchor="middle" x="3552.2702" y="-130.5" font-family="Helvetica,sans-Serif" font-size="10.00" fill="#000000">InitializerFilter.h</text>
</a>
</g>
</g>
<!-- Node7&#45;&gt;Node307 -->
<g id="edge31" class="edge">
<title>Node7&#45;&gt;Node307</title>
<path fill="none" stroke="#191970" d="M2121.3631,-191.5083C2126.7347,-190.9264 2132.0962,-190.4095 2137.2702,-190 2724.9826,-143.4827 2876.6523,-212.7309 3463.2702,-154 3466.5474,-153.6719 3469.8859,-153.2933 3473.2535,-152.8747"/>
<polygon fill="#191970" stroke="#191970" points="2120.5999,-188.0731 2111.0671,-192.6966 2121.4025,-195.0269 2120.5999,-188.0731"/>
</g>
<!-- Node9&#45;&gt;Node2 -->
<g id="edge15" class="edge">
<title>Node9&#45;&gt;Node2</title>
<path fill="none" stroke="#191970" d="M2052.5468,-119.6632C2045.3853,-101.061 2038.713,-72.9999 2054.2702,-56 2086.5747,-20.6996 2420.6146,-12.3191 2534.4865,-10.4811"/>
<polygon fill="#191970" stroke="#191970" points="2049.3284,-121.0389 2056.4377,-128.8944 2055.7788,-118.32 2049.3284,-121.0389"/>
</g>
<!-- Node9&#45;&gt;Node5 -->
<g id="edge14" class="edge">
<title>Node9&#45;&gt;Node5</title>
<path fill="none" stroke="#191970" d="M2120.8654,-135.5727C2345.091,-124.5587 3136.7921,-85.6701 3363.9319,-74.5129"/>
<polygon fill="#191970" stroke="#191970" points="2120.4377,-132.0894 2110.6215,-136.0759 2120.7812,-139.0809 2120.4377,-132.0894"/>
</g>
<!-- Node10 -->
<g id="node9" class="node">
<title>Node10</title>
<g id="a_node9"><a xlink:href="sitkCastImageFilter_8h.html" target="_top" xlink:title=" ">
<polygon fill="#ffffff" stroke="#000000" points="1741.7702,-62 1741.7702,-81 1860.7702,-81 1860.7702,-62 1741.7702,-62"/>
<text text-anchor="middle" x="1801.2702" y="-69" font-family="Helvetica,sans-Serif" font-size="10.00" fill="#000000">sitkCastImageFilter.h</text>
</a>
</g>
</g>
<!-- Node9&#45;&gt;Node10 -->
<g id="edge12" class="edge">
<title>Node9&#45;&gt;Node10</title>
<path fill="none" stroke="#191970" d="M2014.3044,-126.3973C1963.8974,-113.4078 1884.8468,-93.0371 1838.5391,-81.1039"/>
<polygon fill="#191970" stroke="#191970" points="2013.7376,-129.8655 2024.2946,-128.9717 2015.4844,-123.0869 2013.7376,-129.8655"/>
</g>
<!-- Node9&#45;&gt;Node65 -->
<g id="edge16" class="edge">
<title>Node9&#45;&gt;Node65</title>
<path fill="none" stroke="#191970" d="M2035.5296,-123.8846C2012.6454,-110.891 1979.8469,-92.2681 1960.1453,-81.0817"/>
<polygon fill="#191970" stroke="#191970" points="2033.9395,-127.0065 2044.3636,-128.9005 2037.3958,-120.9193 2033.9395,-127.0065"/>
</g>
<!-- Node9&#45;&gt;Node158 -->
<g id="edge17" class="edge">
<title>Node9&#45;&gt;Node158</title>
<path fill="none" stroke="#191970" d="M2079.8867,-122.3012C2092.4026,-111.4107 2108.7827,-97.1579 2121.0063,-86.5218"/>
<polygon fill="#191970" stroke="#191970" points="2077.5489,-119.6959 2072.3024,-128.9005 2082.1438,-124.9767 2077.5489,-119.6959"/>
</g>
<!-- Node9&#45;&gt;Node159 -->
<g id="edge18" class="edge">
<title>Node9&#45;&gt;Node159</title>
<path fill="none" stroke="#191970" d="M2106.3406,-126.3237C2147.7026,-115.1493 2209.1165,-98.5576 2253.5429,-86.5553"/>
<polygon fill="#191970" stroke="#191970" points="2105.2802,-122.9846 2096.5391,-128.9717 2107.1059,-129.7424 2105.2802,-122.9846"/>
</g>
<!-- Node9&#45;&gt;Node160 -->
<g id="edge19" class="edge">
<title>Node9&#45;&gt;Node160</title>
<path fill="none" stroke="#191970" d="M2120.519,-129.6262C2187.6714,-119.5204 2300.3958,-102.4106 2397.2702,-87 2409.1943,-85.1031 2421.9615,-83.0277 2434.1213,-81.0298"/>
<polygon fill="#191970" stroke="#191970" points="2119.9141,-126.1777 2110.5458,-131.126 2120.9552,-133.0999 2119.9141,-126.1777"/>
</g>
<!-- Node9&#45;&gt;Node161 -->
<g id="edge20" class="edge">
<title>Node9&#45;&gt;Node161</title>
<path fill="none" stroke="#191970" d="M2120.674,-133.2997C2238.2436,-122.9021 2496.8594,-99.4788 2585.2702,-87 2588.207,-86.5855 2591.1976,-86.1411 2594.2157,-85.6741"/>
<polygon fill="#191970" stroke="#191970" points="2120.0762,-129.8387 2110.4228,-134.2048 2120.692,-136.8116 2120.0762,-129.8387"/>
</g>
<!-- Node9&#45;&gt;Node166 -->
<g id="edge21" class="edge">
<title>Node9&#45;&gt;Node166</title>
<path fill="none" stroke="#191970" d="M2120.835,-134.3977C2277.1611,-123.5845 2691.3947,-94.6127 2753.2702,-87 2766.174,-85.4124 2780.0453,-83.2516 2792.9404,-81.0476"/>
<polygon fill="#191970" stroke="#191970" points="2120.2099,-130.9325 2110.4751,-135.1139 2120.6927,-137.9158 2120.2099,-130.9325"/>
</g>
<!-- Node9&#45;&gt;Node168 -->
<g id="edge22" class="edge">
<title>Node9&#45;&gt;Node168</title>
<path fill="none" stroke="#191970" d="M2120.4072,-135.0341C2315.7413,-123.5827 2928.2134,-87.6486 2933.2702,-87 2936.2829,-86.6135 2939.3539,-86.179 2942.4508,-85.7076"/>
<polygon fill="#191970" stroke="#191970" points="2120.1066,-131.5456 2110.3286,-135.625 2120.5163,-138.5336 2120.1066,-131.5456"/>
</g>
<!-- Node9&#45;&gt;Node184 -->
<g id="edge23" class="edge">
<title>Node9&#45;&gt;Node184</title>
<path fill="none" stroke="#191970" d="M2002.0657,-127.7451C1989.9306,-125.8779 1977.2159,-124.1647 1965.2702,-123 1500.975,-77.7321 1379.1491,-144.9851 916.2702,-87 905.3788,-85.6356 893.69,-83.4084 883.0038,-81.0625"/>
<polygon fill="#191970" stroke="#191970" points="2001.6675,-131.2257 2012.0934,-129.3412 2002.7679,-124.3127 2001.6675,-131.2257"/>
</g>
<!-- Node9&#45;&gt;Node185 -->
<g id="edge24" class="edge">
<title>Node9&#45;&gt;Node185</title>
<path fill="none" stroke="#191970" d="M2002.0591,-127.8124C1989.9244,-125.9399 1977.2117,-124.2076 1965.2702,-123 1581.562,-84.1954 1481.8073,-127.4606 1098.2702,-87 1084.5637,-85.5541 1069.7966,-83.3304 1056.2282,-81.0147"/>
<polygon fill="#191970" stroke="#191970" points="2001.6605,-131.2929 2012.0866,-129.4097 2002.7617,-124.3801 2001.6605,-131.2929"/>
</g>
<!-- Node9&#45;&gt;Node203 -->
<g id="edge25" class="edge">
<title>Node9&#45;&gt;Node203</title>
<path fill="none" stroke="#191970" d="M2002.049,-127.9095C1989.9151,-126.0297 1977.2052,-124.2697 1965.2702,-123 1658.5856,-90.3725 1578.6798,-122.1158 1272.2702,-87 1269.2217,-86.6506 1266.1186,-86.2613 1262.9879,-85.8402"/>
<polygon fill="#191970" stroke="#191970" points="2001.6499,-131.39 2012.0763,-129.5088 2002.7524,-124.4774 2001.6499,-131.39"/>
</g>
<!-- Node9&#45;&gt;Node239 -->
<g id="edge26" class="edge">
<title>Node9&#45;&gt;Node239</title>
<path fill="none" stroke="#191970" d="M2002.0324,-128.0594C1989.8998,-126.1679 1977.1946,-124.3655 1965.2702,-123 1731.1452,-96.1906 1670.0157,-116.9376 1436.2702,-87 1424.3424,-85.4723 1411.5294,-83.3059 1399.6589,-81.0756"/>
<polygon fill="#191970" stroke="#191970" points="2001.6325,-131.5398 2012.0595,-129.6614 2002.7369,-124.6274 2001.6325,-131.5398"/>
</g>
<!-- Node9&#45;&gt;Node292 -->
<g id="edge27" class="edge">
<title>Node9&#45;&gt;Node292</title>
<path fill="none" stroke="#191970" d="M2002.0004,-128.3229C1989.8702,-126.4112 1977.1742,-124.5339 1965.2702,-123 1800.0877,-101.7158 1757.0418,-111.261 1592.2702,-87 1589.2651,-86.5575 1586.2006,-86.0767 1583.1088,-85.5672"/>
<polygon fill="#191970" stroke="#191970" points="2001.5988,-131.8032 2012.0268,-129.9301 2002.7068,-124.8914 2001.5988,-131.8032"/>
</g>
<!-- Node9&#45;&gt;Node297 -->
<g id="edge28" class="edge">
<title>Node9&#45;&gt;Node297</title>
<path fill="none" stroke="#191970" d="M2001.9243,-128.8536C1989.8,-126.901 1977.1255,-124.8729 1965.2702,-123 1861.7695,-106.6489 1835.2548,-106.3369 1732.2702,-87 1722.8505,-85.2313 1712.7645,-83.1243 1703.2652,-81.0426"/>
<polygon fill="#191970" stroke="#191970" points="2001.5194,-132.3334 2011.9492,-130.471 2002.6344,-125.4228 2001.5194,-132.3334"/>
</g>
<!-- Node10&#45;&gt;Node2 -->
<g id="edge13" class="edge">
<title>Node10&#45;&gt;Node2</title>
<path fill="none" stroke="#191970" d="M1848.2369,-59.7759C1855.2536,-58.321 1862.4274,-56.9973 1869.2702,-56 2121.6196,-19.2212 2429.2392,-11.8383 2534.7071,-10.3647"/>
<polygon fill="#191970" stroke="#191970" points="1847.1519,-56.4301 1838.126,-61.9785 1848.6419,-63.2697 1847.1519,-56.4301"/>
</g>
<!-- Node306&#45;&gt;Node2 -->
<g id="edge30" class="edge">
<title>Node306&#45;&gt;Node2</title>
<path fill="none" stroke="#191970" d="M3436.0699,-120.2999C3478.696,-105.6971 3521.1328,-83.1837 3495.2702,-56 3464.2704,-23.4168 2779.3306,-12.6204 2609.9103,-10.4436"/>
<polygon fill="#191970" stroke="#191970" points="3434.8282,-117.0238 3426.4246,-123.476 3437.0177,-123.6726 3434.8282,-117.0238"/>
</g>
<!-- Node307&#45;&gt;Node2 -->
<g id="edge32" class="edge">
<title>Node307&#45;&gt;Node2</title>
<path fill="none" stroke="#191970" d="M3547.5925,-113.3303C3542.5938,-94.1556 3532.6096,-68.9216 3513.2702,-56 3475.1052,-30.5003 2780.205,-14.3485 2609.7722,-10.7598"/>
<polygon fill="#191970" stroke="#191970" points="3544.2216,-114.2883 3549.8844,-123.2428 3551.0417,-112.7114 3544.2216,-114.2883"/>
</g>
<!-- Node308&#45;&gt;Node2 -->
<g id="edge50" class="edge">
<title>Node308&#45;&gt;Node2</title>
<path fill="none" stroke="#191970" d="M369.3764,-120.2141C382.6858,-100.2339 407.025,-69.3006 437.2702,-56 487.2226,-34.033 2252.0275,-13.5541 2534.3517,-10.4151"/>
<polygon fill="#191970" stroke="#191970" points="366.344,-118.4594 363.9032,-128.7693 372.2406,-122.2318 366.344,-118.4594"/>
</g>
<!-- Node309&#45;&gt;Node2 -->
<g id="edge52" class="edge">
<title>Node309&#45;&gt;Node2</title>
<path fill="none" stroke="#191970" d="M2605.2641,-127.5391C2617.2483,-125.8574 2629.6058,-124.2636 2641.2702,-123 2698.7392,-116.7745 3120.8353,-129.265 3160.2702,-87 3169.6694,-76.9262 3169.6249,-66.1151 3160.2702,-56 3141.5205,-35.7263 2736.7372,-16.9526 2609.9154,-11.5503"/>
<polygon fill="#191970" stroke="#191970" points="2604.7102,-124.0827 2595.3085,-128.9671 2605.7042,-131.0118 2604.7102,-124.0827"/>
</g>
<!-- Node310&#45;&gt;Node2 -->
<g id="edge54" class="edge">
<title>Node310&#45;&gt;Node2</title>
<path fill="none" stroke="#191970" d="M275.7619,-180.0047C273.9366,-163.5154 273.8999,-140.1334 284.2702,-123 313.9111,-74.0281 339.3211,-72.0449 394.2702,-56 501.1427,-24.7937 2254.5326,-12.0743 2534.6636,-10.2374"/>
<polygon fill="#191970" stroke="#191970" points="272.3326,-180.75 277.2054,-190.1577 279.2629,-179.7646 272.3326,-180.75"/>
</g>
<!-- Node311&#45;&gt;Node2 -->
<g id="edge56" class="edge">
<title>Node311&#45;&gt;Node2</title>
<path fill="none" stroke="#191970" d="M473.8843,-181.6001C495.6172,-149.0904 545.9189,-82.4322 608.2702,-56 700.2667,-17.0004 2270.0183,-10.8544 2534.5641,-10.0944"/>
<polygon fill="#191970" stroke="#191970" points="470.8337,-179.8704 468.2994,-190.1576 476.6958,-183.6961 470.8337,-179.8704"/>
</g>
<!-- Node312&#45;&gt;Node2 -->
<g id="edge58" class="edge">
<title>Node312&#45;&gt;Node2</title>
<path fill="none" stroke="#191970" d="M744.6529,-188.5422C705.6057,-180.8251 663.2592,-169.2601 651.2702,-154 624.3564,-119.7432 618.8359,-87.171 649.2702,-56 683.4628,-20.9796 2268.5732,-11.5198 2534.581,-10.1778"/>
<polygon fill="#191970" stroke="#191970" points="744.0095,-191.9825 754.4886,-190.4212 745.323,-185.1069 744.0095,-191.9825"/>
</g>
<!-- Node313&#45;&gt;Node2 -->
<g id="edge60" class="edge">
<title>Node313&#45;&gt;Node2</title>
<path fill="none" stroke="#191970" d="M1414.445,-190.2376C1305.8172,-183.8909 806.0666,-199.7133 751.2702,-154 717.3819,-125.7291 704.457,-87.5944 735.2702,-56 767.8462,-22.598 2275.7015,-11.8256 2534.6236,-10.2207"/>
<polygon fill="#191970" stroke="#191970" points="1414.235,-193.7316 1424.4712,-190.9984 1414.7648,-186.7517 1414.235,-193.7316"/>
</g>
<!-- Node314&#45;&gt;Node2 -->
<g id="edge62" class="edge">
<title>Node314&#45;&gt;Node2</title>
<path fill="none" stroke="#191970" d="M630.5632,-181.0688C616.2874,-150.2681 594.6527,-89.398 627.2702,-56 661.877,-20.565 2266.8092,-11.4436 2534.5791,-10.1674"/>
<polygon fill="#191970" stroke="#191970" points="627.518,-182.8105 635.0335,-190.2784 633.8154,-179.7538 627.518,-182.8105"/>
</g>
<!-- Node315&#45;&gt;Node2 -->
<g id="edge64" class="edge">
<title>Node315&#45;&gt;Node2</title>
<path fill="none" stroke="#191970" d="M891.5467,-189.2805C802.7954,-178.4694 680.5904,-162.235 673.2702,-154 644.3267,-121.44 640.8402,-87.1752 671.2702,-56 705.0491,-21.3938 2270.3767,-11.5967 2534.5905,-10.1885"/>
<polygon fill="#191970" stroke="#191970" points="891.3019,-192.7764 901.6505,-190.5056 892.1445,-185.8273 891.3019,-192.7764"/>
</g>
<!-- Node316&#45;&gt;Node2 -->
<g id="edge66" class="edge">
<title>Node316&#45;&gt;Node2</title>
<path fill="none" stroke="#191970" d="M1072.2966,-190.1552C1000.1215,-185.3511 724.8736,-182.6105 697.2702,-154 667.0031,-122.6288 662.8256,-87.199 693.2702,-56 726.6357,-21.8076 2272.2198,-11.6743 2534.6075,-10.1993"/>
<polygon fill="#191970" stroke="#191970" points="1072.1323,-193.6533 1082.3847,-190.9815 1072.7039,-186.6767 1072.1323,-193.6533"/>
</g>
<!-- Node317&#45;&gt;Node2 -->
<g id="edge68" class="edge">
<title>Node317&#45;&gt;Node2</title>
<path fill="none" stroke="#191970" d="M1243.4066,-190.1884C1152.3796,-185.3555 762.3822,-192.7227 722.2702,-154 690.854,-123.672 684.778,-87.2569 715.2702,-56 748.2228,-22.221 2274.1023,-11.7527 2534.6322,-10.2103"/>
<polygon fill="#191970" stroke="#191970" points="1243.1769,-193.6808 1253.3948,-190.8801 1243.6605,-186.6975 1243.1769,-193.6808"/>
</g>
<!-- Node318&#45;&gt;Node2 -->
<g id="edge70" class="edge">
<title>Node318&#45;&gt;Node2</title>
<path fill="none" stroke="#191970" d="M1551.6848,-190.1975C1430.4929,-183.8333 860.2283,-196.9918 790.2702,-154 750.4696,-129.5411 719.6574,-89.4474 752.2702,-56 784.5238,-22.9208 2276.8498,-11.8898 2534.5597,-10.2301"/>
<polygon fill="#191970" stroke="#191970" points="1551.7705,-193.7106 1561.9793,-190.8768 1552.2315,-186.7258 1551.7705,-193.7106"/>
</g>
<!-- Node319&#45;&gt;Node2 -->
<g id="edge72" class="edge">
<title>Node319&#45;&gt;Node2</title>
<path fill="none" stroke="#191970" d="M1716.3691,-190.0111C1414.6613,-161.7526 1333.6888,-198.8763 1038.2702,-154 914.533,-135.2034 686.9101,-145.6237 774.2702,-56 806.1121,-23.333 2278.8444,-11.9702 2534.6062,-10.2418"/>
<polygon fill="#191970" stroke="#191970" points="1716.4485,-193.5345 1726.7355,-190.9995 1717.1129,-186.5661 1716.4485,-193.5345"/>
</g>
<!-- Node320&#45;&gt;Node2 -->
<g id="edge74" class="edge">
<title>Node320&#45;&gt;Node2</title>
<path fill="none" stroke="#191970" d="M2267.5007,-187.3051C2293.0309,-178.8195 2326.5479,-166.8803 2355.2702,-154 2381.5831,-142.2001 2384.5213,-130.8491 2412.2702,-123 2484.6479,-102.5271 3036.5169,-141.5827 3088.2702,-87 3097.7499,-77.002 3097.5699,-66.1657 3088.2702,-56 3056.0954,-20.8294 2723.3419,-12.3637 2609.9084,-10.4926"/>
<polygon fill="#191970" stroke="#191970" points="2266.1944,-184.0501 2257.7859,-190.4959 2268.3788,-190.7006 2266.1944,-184.0501"/>
</g>
<!-- Node321&#45;&gt;Node2 -->
<g id="edge76" class="edge">
<title>Node321&#45;&gt;Node2</title>
<path fill="none" stroke="#191970" d="M2408.7887,-180.4192C2411.3327,-162.315 2418.1289,-136.2692 2436.2702,-123 2497.8763,-77.9388 3069.732,-142.3676 3122.2702,-87 3131.7538,-77.0056 3131.5977,-66.1402 3122.2702,-56 3087.646,-18.3591 2728.2324,-11.5077 2609.8501,-10.2702"/>
<polygon fill="#191970" stroke="#191970" points="2405.2963,-180.1594 2407.6907,-190.4801 2412.255,-180.9188 2405.2963,-180.1594"/>
</g>
<!-- Node322&#45;&gt;Node2 -->
<g id="edge78" class="edge">
<title>Node322&#45;&gt;Node2</title>
<path fill="none" stroke="#191970" d="M3171.1554,-126.9956C3214.2151,-118.1578 3264.1965,-104.5038 3277.2702,-87 3285.5149,-75.9614 3286.69,-66.0545 3277.2702,-56 3254.2611,-31.4407 2752.4125,-15.1788 2609.775,-11.0409"/>
<polygon fill="#191970" stroke="#191970" points="3170.3622,-123.5848 3161.2397,-128.9728 3171.7311,-130.4497 3170.3622,-123.5848"/>
</g>
<!-- Node323&#45;&gt;Node2 -->
<g id="edge84" class="edge">
<title>Node323&#45;&gt;Node2</title>
<path fill="none" stroke="#191970" d="M3631.0079,-197.1352C3739.5228,-191.7852 3944.3836,-178.5339 3966.2702,-154 3975.442,-143.7188 3974.8296,-133.7964 3966.2702,-123 3885.1641,-20.6977 3809.6206,-73.6751 3680.2702,-56 3466.6255,-26.8065 2778.5465,-13.4829 2609.8649,-10.6081"/>
<polygon fill="#191970" stroke="#191970" points="3630.6357,-193.649 3620.8166,-197.6283 3630.9741,-200.6408 3630.6357,-193.649"/>
</g>
<!-- Node323&#45;&gt;Node5 -->
<g id="edge83" class="edge">
<title>Node323&#45;&gt;Node5</title>
<path fill="none" stroke="#191970" d="M3603.1185,-186.0943C3617.4346,-178.8605 3632.1321,-168.4382 3640.2702,-154 3647.0353,-141.9975 3648.8027,-133.8177 3640.2702,-123 3621.373,-99.0418 3543.0118,-84.9776 3486.3418,-77.7594"/>
<polygon fill="#191970" stroke="#191970" points="3601.4383,-183.0154 3593.8387,-190.3976 3604.3832,-189.3658 3601.4383,-183.0154"/>
</g>
<!-- Node323&#45;&gt;Node9 -->
<g id="edge80" class="edge">
<title>Node323&#45;&gt;Node9</title>
<path fill="none" stroke="#191970" d="M3497.4736,-195.255C3470.4128,-193.4391 3438.8607,-191.4563 3410.2702,-190 2977.6466,-167.963 2869.1231,-170.9449 2436.2702,-154 2319.3979,-149.4248 2182.055,-143.6452 2110.4076,-140.5995"/>
<polygon fill="#191970" stroke="#191970" points="3497.3959,-198.7577 3507.6095,-195.9414 3497.8689,-191.7737 3497.3959,-198.7577"/>
</g>
<!-- Node323&#45;&gt;Node306 -->
<g id="edge81" class="edge">
<title>Node323&#45;&gt;Node306</title>
<path fill="none" stroke="#191970" d="M3523.9503,-187.3486C3492.686,-177.5386 3449.2622,-163.9133 3416.2172,-153.5446"/>
<polygon fill="#191970" stroke="#191970" points="3523.056,-190.7362 3533.6452,-190.3906 3525.1517,-184.0573 3523.056,-190.7362"/>
</g>
<!-- Node323&#45;&gt;Node307 -->
<g id="edge82" class="edge">
<title>Node323&#45;&gt;Node307</title>
<path fill="none" stroke="#191970" d="M3560.4398,-180.3693C3558.7445,-171.681 3556.7822,-161.6241 3555.2057,-153.5446"/>
<polygon fill="#191970" stroke="#191970" points="3557.0448,-181.246 3562.3952,-190.3906 3563.9152,-179.9054 3557.0448,-181.246"/>
</g>
<!-- Node323&#45;&gt;Node322 -->
<g id="edge93" class="edge">
<title>Node323&#45;&gt;Node322</title>
<path fill="none" stroke="#191970" d="M3497.581,-191.1033C3411.6319,-179.6372 3262.7999,-159.7822 3174.6378,-148.0208"/>
<polygon fill="#191970" stroke="#191970" points="3497.3675,-194.6057 3507.7425,-192.4589 3498.2932,-187.6672 3497.3675,-194.6057"/>
</g>
<!-- Node323&#45;&gt;Node328 -->
<g id="edge85" class="edge">
<title>Node323&#45;&gt;Node328</title>
<path fill="none" stroke="#191970" d="M3602.653,-187.1009C3637.3613,-175.4366 3687.6681,-158.5302 3718.8772,-148.0419"/>
<polygon fill="#191970" stroke="#191970" points="3601.228,-183.8873 3592.8639,-190.3906 3603.4579,-190.5226 3601.228,-183.8873"/>
</g>
<!-- Node323&#45;&gt;Node329 -->
<g id="edge87" class="edge">
<title>Node323&#45;&gt;Node329</title>
<path fill="none" stroke="#191970" d="M3628.038,-188.6754C3678.8096,-179.5716 3751.6593,-166.3143 3815.2702,-154 3824.9212,-152.1317 3835.248,-150.0685 3845.0804,-148.0736"/>
<polygon fill="#191970" stroke="#191970" points="3627.4138,-185.2314 3618.1873,-190.4393 3628.6477,-192.1219 3627.4138,-185.2314"/>
</g>
<!-- Node323&#45;&gt;Node330 -->
<g id="edge89" class="edge">
<title>Node323&#45;&gt;Node330</title>
<path fill="none" stroke="#191970" d="M3631.3395,-198.3218C3741.0975,-194.7801 3965.6531,-184.1987 4153.2702,-154 4162.6114,-152.4964 4172.6054,-150.3108 4181.8181,-148.0525"/>
<polygon fill="#191970" stroke="#191970" points="3630.9667,-194.8317 3621.0812,-198.643 3631.1859,-201.8282 3630.9667,-194.8317"/>
</g>
<!-- Node323&#45;&gt;Node331 -->
<g id="edge91" class="edge">
<title>Node323&#45;&gt;Node331</title>
<path fill="none" stroke="#191970" d="M3631.0175,-198.1033C3784.0747,-193.3661 4156.5784,-179.5239 4279.2702,-154 4285.9516,-152.61 4292.9967,-150.4047 4299.4071,-148.0887"/>
<polygon fill="#191970" stroke="#191970" points="3630.7085,-194.6111 3620.8203,-198.4155 3630.9228,-201.6078 3630.7085,-194.6111"/>
</g>
<!-- Node328&#45;&gt;Node2 -->
<g id="edge86" class="edge">
<title>Node328&#45;&gt;Node2</title>
<path fill="none" stroke="#191970" d="M3720.3229,-124.3772C3681.6749,-104.9184 3607.7154,-70.6133 3540.2702,-56 3357.9586,-16.4988 2765.1765,-10.9156 2609.8242,-10.1287"/>
<polygon fill="#191970" stroke="#191970" points="3718.8633,-127.5616 3729.3624,-128.9834 3722.0415,-121.3247 3718.8633,-127.5616"/>
</g>
<!-- Node329&#45;&gt;Node2 -->
<g id="edge88" class="edge">
<title>Node329&#45;&gt;Node2</title>
<path fill="none" stroke="#191970" d="M3855.8818,-125.5338C3801.8481,-106.4032 3695.1476,-71.2383 3601.2702,-56 3404.6777,-24.089 2771.1423,-12.8838 2609.888,-10.5114"/>
<polygon fill="#191970" stroke="#191970" points="3854.7486,-128.8456 3865.3433,-128.9109 3857.1018,-122.2529 3854.7486,-128.8456"/>
</g>
<!-- Node330&#45;&gt;Node2 -->
<g id="edge90" class="edge">
<title>Node330&#45;&gt;Node2</title>
<path fill="none" stroke="#191970" d="M4191.7208,-123.5572C4157.7625,-103.7983 4093.8805,-69.8645 4034.2702,-56 3892.0479,-22.9212 2825.2696,-12.1501 2610.0472,-10.3035"/>
<polygon fill="#191970" stroke="#191970" points="4190.0861,-126.6565 4200.4769,-128.7258 4193.6445,-120.6284 4190.0861,-126.6565"/>
</g>
<!-- Node331&#45;&gt;Node2 -->
<g id="edge92" class="edge">
<title>Node331&#45;&gt;Node2</title>
<path fill="none" stroke="#191970" d="M4292.7163,-124.5982C4249.4204,-105.0246 4165.6947,-70.1528 4090.2702,-56 3940.9407,-27.9796 2829.8734,-13.1255 2610.0096,-10.4443"/>
<polygon fill="#191970" stroke="#191970" points="4291.525,-127.902 4302.0749,-128.8768 4294.4356,-121.5357 4291.525,-127.902"/>
</g>
<!-- Node332&#45;&gt;Node323 -->
<g id="edge95" class="edge">
<title>Node332&#45;&gt;Node323</title>
<path fill="none" stroke="#191970" d="M3424.2424,-243.3235C3457.4362,-233.0536 3503.476,-218.8093 3533.5612,-209.5011"/>
<polygon fill="#191970" stroke="#191970" points="3422.9039,-240.0739 3414.3852,-246.3733 3424.9729,-246.7611 3422.9039,-240.0739"/>
</g>
<!-- Node325&#45;&gt;Node2 -->
<g id="edge97" class="edge">
<title>Node325&#45;&gt;Node2</title>
<path fill="none" stroke="#191970" d="M2833.13,-126.8204C2840.2015,-125.3963 2847.4019,-124.0693 2854.2702,-123 2896.3952,-116.4415 3207.5735,-118.5282 3236.2702,-87 3245.5442,-76.8108 3245.6698,-66.0734 3236.2702,-56 3214.763,-32.9513 2747.3169,-15.7686 2609.9244,-11.2022"/>
<polygon fill="#191970" stroke="#191970" points="2831.9865,-123.4838 2822.9154,-128.9579 2833.4203,-130.3354 2831.9865,-123.4838"/>
</g>
<!-- Node326&#45;&gt;Node2 -->
<g id="edge100" class="edge">
<title>Node326&#45;&gt;Node2</title>
<path fill="none" stroke="#191970" d="M2987.6171,-126.9945C2994.889,-125.5898 3002.2507,-124.2213 3009.2702,-123 3120.4864,-103.649 3331.3608,-138.4654 3254.2702,-56 3232.1105,-32.2954 2749.8544,-15.5144 2609.9795,-11.1327"/>
<polygon fill="#191970" stroke="#191970" points="2986.9359,-123.5613 2977.7973,-128.922 2988.2842,-130.4303 2986.9359,-123.5613"/>
</g>
<!-- Node327&#45;&gt;Node2 -->
<g id="edge104" class="edge">
<title>Node327&#45;&gt;Node2</title>
<path fill="none" stroke="#191970" d="M4068.1379,-120.273C4054.8047,-100.3463 4030.444,-69.4616 4000.2702,-56 3935.0028,-26.882 2829.5834,-12.9068 2610.0107,-10.4116"/>
<polygon fill="#191970" stroke="#191970" points="4065.2701,-122.2845 4073.6222,-128.8032 4071.1581,-118.4988 4065.2701,-122.2845"/>
</g>
<!-- Node333&#45;&gt;Node10 -->
<g id="edge108" class="edge">
<title>Node333&#45;&gt;Node10</title>
<path fill="none" stroke="#191970" d="M1849.8538,-121.5785C1837.4217,-108.7639 1820.7913,-91.6218 1810.5658,-81.0817"/>
<polygon fill="#191970" stroke="#191970" points="1847.482,-124.1602 1856.9572,-128.9005 1852.5062,-119.286 1847.482,-124.1602"/>
</g>
<!-- Node333&#45;&gt;Node65 -->
<g id="edge109" class="edge">
<title>Node333&#45;&gt;Node65</title>
<path fill="none" stroke="#191970" d="M1884.889,-122.2992C1899.6984,-109.4131 1919.9166,-91.8207 1932.2584,-81.0817"/>
<polygon fill="#191970" stroke="#191970" points="1882.5489,-119.6959 1877.3024,-128.9005 1887.1438,-124.9767 1882.5489,-119.6959"/>
</g>
<!-- Node333&#45;&gt;Node158 -->
<g id="edge110" class="edge">
<title>Node333&#45;&gt;Node158</title>
<path fill="none" stroke="#191970" d="M1914.8418,-126.5357C1960.2119,-115.3599 2028.1152,-98.6338 2077.1499,-86.5553"/>
<polygon fill="#191970" stroke="#191970" points="1913.8249,-123.1814 1904.9523,-128.9717 1915.4992,-129.9783 1913.8249,-123.1814"/>
</g>
<!-- Node333&#45;&gt;Node159 -->
<g id="edge111" class="edge">
<title>Node333&#45;&gt;Node159</title>
<path fill="none" stroke="#191970" d="M1946.3316,-127.5908C2018.3514,-117.6095 2127.0129,-102.1345 2221.2702,-87 2224.1803,-86.5327 2227.1433,-86.0494 2230.1351,-85.5551"/>
<polygon fill="#191970" stroke="#191970" points="1945.8439,-124.1248 1936.4178,-128.9621 1946.8031,-131.0588 1945.8439,-124.1248"/>
</g>
<!-- Node333&#45;&gt;Node160 -->
<g id="edge112" class="edge">
<title>Node333&#45;&gt;Node160</title>
<path fill="none" stroke="#191970" d="M1958.104,-127.834C1973.1895,-126.1612 1988.6628,-124.4935 2003.2702,-123 2178.1988,-105.1148 2222.8518,-109.3189 2397.2702,-87 2410.395,-85.3205 2424.4965,-83.177 2437.6825,-81.0236"/>
<polygon fill="#191970" stroke="#191970" points="1957.2877,-124.4033 1947.7375,-128.9907 1958.064,-131.3601 1957.2877,-124.4033"/>
</g>
<!-- Node333&#45;&gt;Node161 -->
<g id="edge113" class="edge">
<title>Node333&#45;&gt;Node161</title>
<path fill="none" stroke="#191970" d="M1954.4563,-127.8536C1970.6763,-126.0858 1987.4725,-124.3813 2003.2702,-123 2261.4461,-100.4251 2328.0393,-118.5712 2585.2702,-87 2588.214,-86.6387 2591.2105,-86.2392 2594.2336,-85.8098"/>
<polygon fill="#191970" stroke="#191970" points="1954.0004,-124.3826 1944.4455,-128.9602 1954.7696,-131.3402 1954.0004,-124.3826"/>
</g>
<!-- Node333&#45;&gt;Node166 -->
<g id="edge114" class="edge">
<title>Node333&#45;&gt;Node166</title>
<path fill="none" stroke="#191970" d="M1952.9221,-127.838C1969.6117,-126.0276 1986.9694,-124.312 2003.2702,-123 2335.9116,-96.2275 2421.5428,-123.3882 2753.2702,-87 2766.6666,-85.5305 2781.089,-83.3281 2794.3791,-81.0414"/>
<polygon fill="#191970" stroke="#191970" points="1952.1875,-124.3978 1942.6323,-128.9748 1952.9562,-131.3555 1952.1875,-124.3978"/>
</g>
<!-- Node333&#45;&gt;Node168 -->
<g id="edge115" class="edge">
<title>Node333&#45;&gt;Node168</title>
<path fill="none" stroke="#191970" d="M1951.5228,-127.8664C1968.6374,-126.0105 1986.5104,-124.2707 2003.2702,-123 2415.7292,-91.7274 2522.4758,-135.4611 2933.2702,-87 2936.2867,-86.6441 2939.3608,-86.235 2942.4603,-85.7843"/>
<polygon fill="#191970" stroke="#191970" points="1951.1023,-124.3915 1941.5478,-128.9699 1951.8721,-131.3491 1951.1023,-124.3915"/>
</g>
<!-- Node333&#45;&gt;Node184 -->
<g id="edge116" class="edge">
<title>Node333&#45;&gt;Node184</title>
<path fill="none" stroke="#191970" d="M1765.8791,-135.1044C1556.2395,-127.6781 1078.0172,-108.895 916.2702,-87 905.5179,-85.5445 893.9771,-83.3177 883.3911,-81.002"/>
<polygon fill="#191970" stroke="#191970" points="1765.8431,-138.6052 1775.9603,-135.4601 1766.09,-131.6096 1765.8431,-138.6052"/>
</g>
<!-- Node333&#45;&gt;Node185 -->
<g id="edge117" class="edge">
<title>Node333&#45;&gt;Node185</title>
<path fill="none" stroke="#191970" d="M1765.79,-135.0247C1618.806,-129.2024 1336.7265,-115.229 1098.2702,-87 1085.0607,-85.4362 1070.851,-83.2571 1057.6783,-81.0261"/>
<polygon fill="#191970" stroke="#191970" points="1766.0076,-138.5358 1776.1369,-135.4299 1766.2816,-131.5412 1766.0076,-138.5358"/>
</g>
<!-- Node333&#45;&gt;Node203 -->
<g id="edge118" class="edge">
<title>Node333&#45;&gt;Node203</title>
<path fill="none" stroke="#191970" d="M1766.0535,-132.5677C1647.7282,-124.9267 1445.1482,-109.8474 1272.2702,-87 1269.2282,-86.598 1266.1306,-86.1642 1263.0045,-85.706"/>
<polygon fill="#191970" stroke="#191970" points="1765.9785,-136.07 1776.182,-133.2169 1766.4263,-129.0843 1765.9785,-136.07"/>
</g>
<!-- Node333&#45;&gt;Node239 -->
<g id="edge119" class="edge">
<title>Node333&#45;&gt;Node239</title>
<path fill="none" stroke="#191970" d="M1766.0922,-128.4405C1678.7769,-119.2104 1548.8477,-104.3612 1436.2702,-87 1425.1014,-85.2776 1413.1262,-83.1659 1401.8728,-81.0619"/>
<polygon fill="#191970" stroke="#191970" points="1765.9482,-131.9446 1776.2595,-129.5102 1766.6807,-124.983 1765.9482,-131.9446"/>
</g>
<!-- Node333&#45;&gt;Node292 -->
<g id="edge120" class="edge">
<title>Node333&#45;&gt;Node292</title>
<path fill="none" stroke="#191970" d="M1804.6958,-127.1154C1749.1407,-116.7989 1665.193,-101.0983 1592.2702,-87 1589.288,-86.4234 1586.2423,-85.8315 1583.1661,-85.2311"/>
<polygon fill="#191970" stroke="#191970" points="1804.2589,-130.594 1814.7297,-128.9775 1805.5362,-123.7115 1804.2589,-130.594"/>
</g>
<!-- Node333&#45;&gt;Node297 -->
<g id="edge121" class="edge">
<title>Node333&#45;&gt;Node297</title>
<path fill="none" stroke="#191970" d="M1827.4445,-125.7484C1787.8054,-112.7297 1727.1696,-92.815 1691.4442,-81.0817"/>
<polygon fill="#191970" stroke="#191970" points="1826.4491,-129.1054 1837.0419,-128.9005 1828.6334,-122.4549 1826.4491,-129.1054"/>
</g>
<!-- Node334&#45;&gt;Node5 -->
<g id="edge126" class="edge">
<title>Node334&#45;&gt;Node5</title>
<path fill="none" stroke="#191970" d="M3297.7777,-184.2969C3287.9041,-176.5062 3277.6024,-166.1513 3272.2702,-154 3266.7338,-141.3835 3264.2306,-134.1889 3272.2702,-123 3284.9038,-105.4174 3338.0156,-90.2996 3378.1456,-81.0757"/>
<polygon fill="#191970" stroke="#191970" points="3295.7193,-187.1277 3305.8525,-190.2212 3299.8602,-181.4838 3295.7193,-187.1277"/>
</g>
<!-- Node334&#45;&gt;Node9 -->
<g id="edge123" class="edge">
<title>Node334&#45;&gt;Node9</title>
<path fill="none" stroke="#191970" d="M3232.8971,-195.6412C2985.935,-183.5967 2299.9526,-150.1407 2110.3689,-140.8946"/>
<polygon fill="#191970" stroke="#191970" points="3232.7526,-199.1382 3242.9113,-196.1296 3233.0937,-192.1465 3232.7526,-199.1382"/>
</g>
<!-- Node334&#45;&gt;Node306 -->
<g id="edge124" class="edge">
<title>Node334&#45;&gt;Node306</title>
<path fill="none" stroke="#191970" d="M3335.4567,-182.3701C3342.2728,-173.2574 3350.5041,-162.2525 3357.0173,-153.5446"/>
<polygon fill="#191970" stroke="#191970" points="3332.6445,-180.2864 3329.4577,-190.3906 3338.25,-184.4792 3332.6445,-180.2864"/>
</g>
<!-- Node334&#45;&gt;Node307 -->
<g id="edge125" class="edge">
<title>Node334&#45;&gt;Node307</title>
<path fill="none" stroke="#191970" d="M3367.9003,-187.7989C3404.6609,-177.9694 3456.5204,-164.1026 3495.8793,-153.5784"/>
<polygon fill="#191970" stroke="#191970" points="3366.7118,-184.4937 3357.9553,-190.4581 3368.52,-191.2561 3366.7118,-184.4937"/>
</g>
<!-- Node334&#45;&gt;Node322 -->
<g id="edge132" class="edge">
<title>Node334&#45;&gt;Node322</title>
<path fill="none" stroke="#191970" d="M3278.1956,-187.6229C3236.6142,-175.9459 3175.1582,-158.6877 3137.2486,-148.0419"/>
<polygon fill="#191970" stroke="#191970" points="3277.4775,-191.0566 3288.0514,-190.3906 3279.3701,-184.3173 3277.4775,-191.0566"/>
</g>
<!-- Node334&#45;&gt;Node328 -->
<g id="edge128" class="edge">
<title>Node334&#45;&gt;Node328</title>
<path fill="none" stroke="#191970" d="M3398.1184,-189.0326C3462.5451,-179.7157 3557.4718,-165.9856 3640.2702,-154 3655.5959,-151.7815 3672.1562,-149.3831 3687.5637,-147.1512"/>
<polygon fill="#191970" stroke="#191970" points="3397.4428,-185.5938 3388.0467,-190.4891 3398.4447,-192.5218 3397.4428,-185.5938"/>
</g>
<!-- Node334&#45;&gt;Node329 -->
<g id="edge130" class="edge">
<title>Node334&#45;&gt;Node329</title>
<path fill="none" stroke="#191970" d="M3411.8353,-194.5657C3510.8911,-187.8767 3675.0381,-174.78 3815.2702,-154 3826.1931,-152.3814 3837.9161,-150.2094 3848.806,-148.0046"/>
<polygon fill="#191970" stroke="#191970" points="3411.3116,-191.0928 3401.5673,-195.2518 3411.7784,-198.0772 3411.3116,-191.0928"/>
</g>
<!-- Node334&#45;&gt;Node325 -->
<g id="edge127" class="edge">
<title>Node334&#45;&gt;Node325</title>
<path fill="none" stroke="#191970" d="M3233.161,-194.3558C3138.7096,-187.6472 2985.3786,-174.6818 2854.2702,-154 2844.0508,-152.3879 2833.0937,-150.2183 2822.9198,-148.0137"/>
<polygon fill="#191970" stroke="#191970" points="3233.0265,-197.8549 3243.2472,-195.0643 3233.5171,-190.8721 3233.0265,-197.8549"/>
</g>
<!-- Node334&#45;&gt;Node326 -->
<g id="edge129" class="edge">
<title>Node334&#45;&gt;Node326</title>
<path fill="none" stroke="#191970" d="M3240.0741,-189.1263C3176.8339,-180.4687 3087.342,-167.5851 3009.2702,-154 2999.0601,-152.2234 2988.1258,-150.1355 2977.7973,-148.0778"/>
<polygon fill="#191970" stroke="#191970" points="3239.6114,-192.5955 3249.9927,-190.479 3240.5573,-185.6597 3239.6114,-192.5955"/>
</g>
<!-- Node334&#45;&gt;Node327 -->
<g id="edge131" class="edge">
<title>Node334&#45;&gt;Node327</title>
<path fill="none" stroke="#191970" d="M3411.5457,-194.3446C3562.3356,-184.6711 3861.3061,-164.9359 3966.2702,-154 3982.1248,-152.3482 3999.1818,-150.2025 4015.1174,-148.037"/>
<polygon fill="#191970" stroke="#191970" points="3411.1462,-190.8629 3401.3905,-194.9953 3411.5938,-197.8486 3411.1462,-190.8629"/>
</g>
</g>
</svg>
        <g id="navigator" transform="translate(0 0)" fill="#404254">
                <rect fill="#f2f5e9" fill-opacity="0.5" stroke="#606060" stroke-width=".5" x="0" y="0" width="60" height="60"/>
                <use id="zoomplus" xlink:href="#zoomPlus" x="17" y="9" onmousedown="handleZoom(evt,'in')"/>
                <use id="zoomminus" xlink:href="#zoomMin" x="42" y="9" onmousedown="handleZoom(evt,'out')"/>
                <use id="reset" xlink:href="#resetDef" x="30" y="36" onmousedown="handleReset()"/>
                <g id="arrowUp" xlink:href="#dirArrow" transform="translate(30 24)" onmousedown="handlePan(0,-1)">
                  <use xlink:href="#rim" fill="#404040">
                        <set attributeName="fill" to="#808080" begin="arrowUp.mouseover" end="arrowUp.mouseout"/>
                  </use>
                  <path fill="none" stroke="white" stroke-width="1.5" d="M0,-3.0v7 M-2.5,-0.5L0,-3.0L2.5,-0.5"/>
                </g>
                <g id="arrowRight" xlink:href="#dirArrow" transform="rotate(90) translate(36 -43)" onmousedown="handlePan(1,0)">
                  <use xlink:href="#rim" fill="#404040">
                        <set attributeName="fill" to="#808080" begin="arrowRight.mouseover" end="arrowRight.mouseout"/>
                  </use>
                  <path fill="none" stroke="white" stroke-width="1.5" d="M0,-3.0v7 M-2.5,-0.5L0,-3.0L2.5,-0.5"/>
                </g>
                <g id="arrowDown" xlink:href="#dirArrow" transform="rotate(180) translate(-30 -48)" onmousedown="handlePan(0,1)">
                  <use xlink:href="#rim" fill="#404040">
                        <set attributeName="fill" to="#808080" begin="arrowDown.mouseover" end="arrowDown.mouseout"/>
                  </use>
                  <path fill="none" stroke="white" stroke-width="1.5" d="M0,-3.0v7 M-2.5,-0.5L0,-3.0L2.5,-0.5"/>
                </g>
                <g id="arrowLeft" xlink:href="#dirArrow" transform="rotate(270) translate(-36 17)" onmousedown="handlePan(-1,0)">
                  <use xlink:href="#rim" fill="#404040">
                        <set attributeName="fill" to="#808080" begin="arrowLeft.mouseover" end="arrowLeft.mouseout"/>
                  </use>
                  <path fill="none" stroke="white" stroke-width="1.5" d="M0,-3.0v7 M-2.5,-0.5L0,-3.0L2.5,-0.5"/>
                </g>
        </g>
        <svg viewBox="0 0 15 15" width="100%" height="30px" preserveAspectRatio="xMaxYMin meet">
         <g id="arrow_out" transform="scale(0.3 0.3)">
          <a xlink:href="sitkDetail_8h__dep__incl_org.svg" target="_base">
           <rect id="button" ry="5" rx="5" y="6" x="6" height="38" width="38"
                fill="#f2f5e9" fill-opacity="0.5" stroke="#606060" stroke-width="1.0"/>
           <path id="arrow"
             d="M 11.500037,31.436501 C 11.940474,20.09759 22.043105,11.32322 32.158766,21.979434 L 37.068811,17.246167 C 37.068811,17.246167 37.088388,32 37.088388,32 L 22.160133,31.978069 C 22.160133,31.978069 26.997745,27.140456 26.997745,27.140456 C 18.528582,18.264221 13.291696,25.230495 11.500037,31.436501 z"
             style="fill:#404040;"/>
          </a>
         </g>
        </svg>
</svg>
