<?xml version="1.0" encoding="UTF-8" standalone="no"?>
<!DOCTYPE svg PUBLIC "-//W3C//DTD SVG 1.1//EN"
 "http://www.w3.org/Graphics/SVG/1.1/DTD/svg11.dtd">
<!-- Generated by graphviz version 2.40.1 (20161225.0304)
 -->
<!-- Title: sitkMemberFunctionFactory.h Pages: 1 -->
<svg width="1643pt" height="400pt"
 viewBox="0.00 0.00 1642.50 399.56" xmlns="http://www.w3.org/2000/svg" xmlns:xlink="http://www.w3.org/1999/xlink">
<g id="graph0" class="graph" transform="scale(1 1) rotate(0) translate(4 395.5593)">
<title>sitkMemberFunctionFactory.h</title>
<polygon fill="#ffffff" stroke="transparent" points="-4,4 -4,-395.5593 1638.5,-395.5593 1638.5,4 -4,4"/>
<!-- Node1 -->
<g id="node1" class="node">
<title>Node1</title>
<g id="a_node1"><a xlink:title=" ">
<polygon fill="#bfbfbf" stroke="#000000" points="950,-369.5 950,-388.5 1108,-388.5 1108,-369.5 950,-369.5"/>
<text text-anchor="middle" x="1029" y="-376.5" font-family="Helvetica,sans-Serif" font-size="10.00" fill="#000000">sitkMemberFunctionFactory.h</text>
</a>
</g>
</g>
<!-- Node1&#45;&gt;Node1 -->
<g id="edge34" class="edge">
<title>Node1&#45;&gt;Node1</title>
<path fill="none" stroke="#191970" d="M1059.292,-388.5645C1090.7528,-394.3698 1126,-391.1816 1126,-379 1126,-368.1031 1097.7957,-364.4027 1069.327,-367.8988"/>
<polygon fill="#191970" stroke="#191970" points="1068.6469,-364.462 1059.292,-369.4355 1069.7066,-371.3814 1068.6469,-364.462"/>
</g>
<!-- Node2 -->
<g id="node2" class="node">
<title>Node2</title>
<g id="a_node2"><a xlink:href="sitkDetail_8h.html" target="_top" xlink:title=" ">
<polygon fill="#ffffff" stroke="#000000" points="895.5,-302.5 895.5,-321.5 968.5,-321.5 968.5,-302.5 895.5,-302.5"/>
<text text-anchor="middle" x="932" y="-309.5" font-family="Helvetica,sans-Serif" font-size="10.00" fill="#000000">sitkDetail.h</text>
</a>
</g>
</g>
<!-- Node1&#45;&gt;Node2 -->
<g id="edge1" class="edge">
<title>Node1&#45;&gt;Node2</title>
<path fill="none" stroke="#191970" d="M1015.1023,-369.4005C999.1836,-358.4052 972.8879,-340.2422 954.1401,-327.2927"/>
<polygon fill="#191970" stroke="#191970" points="956.0892,-324.3852 945.872,-321.5817 952.1108,-330.1448 956.0892,-324.3852"/>
</g>
<!-- Node3 -->
<g id="node3" class="node">
<title>Node3</title>
<g id="a_node3"><a xlink:href="sitkMemberFunctionFactoryBase_8h.html" target="_top" xlink:title=" ">
<polygon fill="#ffffff" stroke="#000000" points="565,-224.5 565,-254.5 715,-254.5 715,-224.5 565,-224.5"/>
<text text-anchor="start" x="573" y="-242.5" font-family="Helvetica,sans-Serif" font-size="10.00" fill="#000000">sitkMemberFunctionFactory</text>
<text text-anchor="middle" x="640" y="-231.5" font-family="Helvetica,sans-Serif" font-size="10.00" fill="#000000">Base.h</text>
</a>
</g>
</g>
<!-- Node1&#45;&gt;Node3 -->
<g id="edge26" class="edge">
<title>Node1&#45;&gt;Node3</title>
<path fill="none" stroke="#191970" d="M998.1084,-369.4687C969.2457,-360.451 925.022,-346.3461 887,-333 817.2373,-308.5126 737.3614,-277.7772 687.7911,-258.3803"/>
<polygon fill="#191970" stroke="#191970" points="688.8807,-255.0482 678.2931,-254.6573 686.3261,-261.5654 688.8807,-255.0482"/>
</g>
<!-- Node12 -->
<g id="node12" class="node">
<title>Node12</title>
<g id="a_node12"><a xlink:title=" ">
<polygon fill="#ffffff" stroke="#bfbfbf" points="759,-.5 759,-19.5 811,-19.5 811,-.5 759,-.5"/>
<text text-anchor="middle" x="785" y="-7.5" font-family="Helvetica,sans-Serif" font-size="10.00" fill="#000000">cassert</text>
</a>
</g>
</g>
<!-- Node1&#45;&gt;Node12 -->
<g id="edge33" class="edge">
<title>Node1&#45;&gt;Node12</title>
<path fill="none" stroke="#191970" d="M1029,-369.1906C1029,-346.4147 1029,-288.1797 1029,-239.5 1029,-239.5 1029,-239.5 1029,-122 1029,-76.7786 888.8193,-35.7644 820.962,-18.5598"/>
<polygon fill="#191970" stroke="#191970" points="821.6623,-15.1273 811.1123,-16.1011 819.9669,-21.9189 821.6623,-15.1273"/>
</g>
<!-- Node20 -->
<g id="node20" class="node">
<title>Node20</title>
<g id="a_node20"><a xlink:href="sitkPixelIDValues_8h.html" target="_top" xlink:title=" ">
<polygon fill="#ffffff" stroke="#000000" points="93,-230 93,-249 203,-249 203,-230 93,-230"/>
<text text-anchor="middle" x="148" y="-237" font-family="Helvetica,sans-Serif" font-size="10.00" fill="#000000">sitkPixelIDValues.h</text>
</a>
</g>
</g>
<!-- Node1&#45;&gt;Node20 -->
<g id="edge27" class="edge">
<title>Node1&#45;&gt;Node20</title>
<path fill="none" stroke="#191970" d="M968.792,-369.4665C809.4503,-344.2359 377.7012,-275.8715 213.0193,-249.7953"/>
<polygon fill="#191970" stroke="#191970" points="213.4559,-246.321 203.0316,-248.2139 212.3611,-253.2348 213.4559,-246.321"/>
</g>
<!-- Node23 -->
<g id="node23" class="node">
<title>Node23</title>
<g id="a_node23"><a xlink:title=" ">
<polygon fill="#ffffff" stroke="#bfbfbf" points="1057,-302.5 1057,-321.5 1227,-321.5 1227,-302.5 1057,-302.5"/>
<text text-anchor="middle" x="1142" y="-309.5" font-family="Helvetica,sans-Serif" font-size="10.00" fill="#000000">sitkMemberFunctionFactory.hxx</text>
</a>
</g>
</g>
<!-- Node1&#45;&gt;Node23 -->
<g id="edge32" class="edge">
<title>Node1&#45;&gt;Node23</title>
<path fill="none" stroke="#191970" d="M1045.1901,-369.4005C1063.9863,-358.2559 1095.2016,-339.7477 1117.0924,-326.7682"/>
<polygon fill="#191970" stroke="#191970" points="1119.0233,-329.6924 1125.8399,-321.5817 1115.4531,-323.6712 1119.0233,-329.6924"/>
</g>
<!-- Node24 -->
<g id="node24" class="node">
<title>Node24</title>
<g id="a_node24"><a xlink:title=" ">
<polygon fill="#ffffff" stroke="#bfbfbf" points="1245,-297 1245,-327 1445,-327 1445,-297 1245,-297"/>
<text text-anchor="start" x="1253" y="-315" font-family="Helvetica,sans-Serif" font-size="10.00" fill="#000000">/work/SimpleITK/Code</text>
<text text-anchor="middle" x="1345" y="-304" font-family="Helvetica,sans-Serif" font-size="10.00" fill="#000000">/Common/include/sitkPixelIDTokens.h</text>
</a>
</g>
</g>
<!-- Node1&#45;&gt;Node24 -->
<g id="edge35" class="edge">
<title>Node1&#45;&gt;Node24</title>
<path fill="none" stroke="#191970" d="M1073.9395,-369.4717C1123.3306,-358.9995 1203.6758,-341.9643 1264.0959,-329.1537"/>
<polygon fill="#191970" stroke="#191970" points="1264.9361,-332.5535 1273.9927,-327.0553 1263.4842,-325.7057 1264.9361,-332.5535"/>
</g>
<!-- Node25 -->
<g id="node25" class="node">
<title>Node25</title>
<g id="a_node25"><a xlink:title=" ">
<polygon fill="#ffffff" stroke="#bfbfbf" points="1463.5,-291.5 1463.5,-332.5 1634.5,-332.5 1634.5,-291.5 1463.5,-291.5"/>
<text text-anchor="start" x="1471.5" y="-320.5" font-family="Helvetica,sans-Serif" font-size="10.00" fill="#000000">/work/SimpleITK/Code</text>
<text text-anchor="start" x="1471.5" y="-309.5" font-family="Helvetica,sans-Serif" font-size="10.00" fill="#000000">/Common/include/sitkException</text>
<text text-anchor="middle" x="1549" y="-298.5" font-family="Helvetica,sans-Serif" font-size="10.00" fill="#000000">Object.h</text>
</a>
</g>
</g>
<!-- Node1&#45;&gt;Node25 -->
<g id="edge36" class="edge">
<title>Node1&#45;&gt;Node25</title>
<path fill="none" stroke="#191970" d="M1108.0716,-373.0532C1191.4247,-366.1928 1326.711,-353.3819 1453.1288,-333.0485"/>
<polygon fill="#191970" stroke="#191970" points="1454.0711,-336.4413 1463.3788,-331.38 1452.9463,-329.5322 1454.0711,-336.4413"/>
</g>
<!-- Node2&#45;&gt;Node3 -->
<g id="edge2" class="edge">
<title>Node2&#45;&gt;Node3</title>
<path fill="none" stroke="#191970" d="M895.3137,-302.8912C849.1233,-291.4227 768.7769,-271.4737 710.5315,-257.0121"/>
<polygon fill="#191970" stroke="#191970" points="711.2044,-253.573 700.6556,-254.56 709.5175,-260.3667 711.2044,-253.573"/>
</g>
<!-- Node17 -->
<g id="node17" class="node">
<title>Node17</title>
<g id="a_node17"><a xlink:title=" ">
<polygon fill="#ffffff" stroke="#bfbfbf" points="863,-168.5 863,-187.5 1001,-187.5 1001,-168.5 863,-168.5"/>
<text text-anchor="middle" x="932" y="-175.5" font-family="Helvetica,sans-Serif" font-size="10.00" fill="#000000">Ancillary/FunctionTraits.h</text>
</a>
</g>
</g>
<!-- Node2&#45;&gt;Node17 -->
<g id="edge25" class="edge">
<title>Node2&#45;&gt;Node17</title>
<path fill="none" stroke="#191970" d="M932,-302.3631C932,-280.5364 932,-226.9605 932,-197.7589"/>
<polygon fill="#191970" stroke="#191970" points="935.5001,-197.5496 932,-187.5496 928.5001,-197.5497 935.5001,-197.5496"/>
</g>
<!-- Node4 -->
<g id="node4" class="node">
<title>Node4</title>
<g id="a_node4"><a xlink:href="sitkConfigure_8h.html" target="_top" xlink:title=" ">
<polygon fill="#ffffff" stroke="#000000" points="407,-.5 407,-19.5 497,-19.5 497,-.5 407,-.5"/>
<text text-anchor="middle" x="452" y="-7.5" font-family="Helvetica,sans-Serif" font-size="10.00" fill="#000000">sitkConfigure.h</text>
</a>
</g>
</g>
<!-- Node3&#45;&gt;Node4 -->
<g id="edge3" class="edge">
<title>Node3&#45;&gt;Node4</title>
<path fill="none" stroke="#191970" d="M639.4636,-224.4252C637.807,-198.6666 631.0907,-145.7036 604,-112 571.2007,-71.1943 517.6709,-40.6677 483.6735,-24.0886"/>
<polygon fill="#191970" stroke="#191970" points="484.7492,-20.7245 474.2153,-19.5901 481.7426,-27.046 484.7492,-20.7245"/>
</g>
<!-- Node5 -->
<g id="node5" class="node">
<title>Node5</title>
<g id="a_node5"><a xlink:href="sitkPixelIDTypes_8h.html" target="_top" xlink:title=" ">
<polygon fill="#ffffff" stroke="#000000" points="338,-112.5 338,-131.5 444,-131.5 444,-112.5 338,-112.5"/>
<text text-anchor="middle" x="391" y="-119.5" font-family="Helvetica,sans-Serif" font-size="10.00" fill="#000000">sitkPixelIDTypes.h</text>
</a>
</g>
</g>
<!-- Node3&#45;&gt;Node5 -->
<g id="edge4" class="edge">
<title>Node3&#45;&gt;Node5</title>
<path fill="none" stroke="#191970" d="M608.2111,-224.4992C559.6386,-201.5785 467.632,-158.1617 420.4795,-135.911"/>
<polygon fill="#191970" stroke="#191970" points="421.9388,-132.7296 411.4015,-131.6272 418.9515,-139.0601 421.9388,-132.7296"/>
</g>
<!-- Node6 -->
<g id="node6" class="node">
<title>Node6</title>
<g id="a_node6"><a xlink:href="sitkPixelIDTypeLists_8h.html" target="_top" xlink:title=" ">
<polygon fill="#ffffff" stroke="#000000" points="303.5,-168.5 303.5,-187.5 426.5,-187.5 426.5,-168.5 303.5,-168.5"/>
<text text-anchor="middle" x="365" y="-175.5" font-family="Helvetica,sans-Serif" font-size="10.00" fill="#000000">sitkPixelIDTypeLists.h</text>
</a>
</g>
</g>
<!-- Node3&#45;&gt;Node6 -->
<g id="edge5" class="edge">
<title>Node3&#45;&gt;Node6</title>
<path fill="none" stroke="#191970" d="M572.7274,-224.4554C524.9311,-213.7664 461.6591,-199.6165 417.5561,-189.7535"/>
<polygon fill="#191970" stroke="#191970" points="418.1381,-186.2972 407.6152,-187.5303 416.6103,-193.1285 418.1381,-186.2972"/>
</g>
<!-- Node8 -->
<g id="node8" class="node">
<title>Node8</title>
<g id="a_node8"><a xlink:title=" ">
<polygon fill="#ffffff" stroke="#bfbfbf" points="462.5,-112.5 462.5,-131.5 573.5,-131.5 573.5,-112.5 462.5,-112.5"/>
<text text-anchor="middle" x="518" y="-119.5" font-family="Helvetica,sans-Serif" font-size="10.00" fill="#000000">Ancillary/TypeList.h</text>
</a>
</g>
</g>
<!-- Node3&#45;&gt;Node8 -->
<g id="edge21" class="edge">
<title>Node3&#45;&gt;Node8</title>
<path fill="none" stroke="#191970" d="M624.0506,-224.1389C601.0711,-202.007 558.8196,-161.314 535.1758,-138.5423"/>
<polygon fill="#191970" stroke="#191970" points="537.5562,-135.9756 527.9256,-131.5595 532.7003,-141.0174 537.5562,-135.9756"/>
</g>
<!-- Node10 -->
<g id="node10" class="node">
<title>Node10</title>
<g id="a_node10"><a xlink:href="sitkMacro_8h.html" target="_top" xlink:title=" ">
<polygon fill="#ffffff" stroke="#000000" points="222.5,-56.5 222.5,-75.5 295.5,-75.5 295.5,-56.5 222.5,-56.5"/>
<text text-anchor="middle" x="259" y="-63.5" font-family="Helvetica,sans-Serif" font-size="10.00" fill="#000000">sitkMacro.h</text>
</a>
</g>
</g>
<!-- Node3&#45;&gt;Node10 -->
<g id="edge11" class="edge">
<title>Node3&#45;&gt;Node10</title>
<path fill="none" stroke="#191970" d="M635.0792,-224.1255C624.941,-193.4334 601.0773,-126.2832 582,-112 539.3114,-80.039 384.6755,-70.2084 305.8685,-67.244"/>
<polygon fill="#191970" stroke="#191970" points="305.8469,-63.7412 295.7293,-66.8849 305.5991,-70.7368 305.8469,-63.7412"/>
</g>
<!-- Node15 -->
<g id="node15" class="node">
<title>Node15</title>
<g id="a_node15"><a xlink:href="sitkNonCopyable_8h.html" target="_top" xlink:title=" ">
<polygon fill="#ffffff" stroke="#000000" points="176.5,-168.5 176.5,-187.5 285.5,-187.5 285.5,-168.5 176.5,-168.5"/>
<text text-anchor="middle" x="231" y="-175.5" font-family="Helvetica,sans-Serif" font-size="10.00" fill="#000000">sitkNonCopyable.h</text>
</a>
</g>
</g>
<!-- Node3&#45;&gt;Node15 -->
<g id="edge18" class="edge">
<title>Node3&#45;&gt;Node15</title>
<path fill="none" stroke="#191970" d="M564.7116,-228.5077C496.9288,-218.5621 394.2814,-203.38 295.7647,-188.2618"/>
<polygon fill="#191970" stroke="#191970" points="296.0463,-184.7641 285.6307,-186.7046 294.9831,-191.6829 296.0463,-184.7641"/>
</g>
<!-- Node3&#45;&gt;Node17 -->
<g id="edge22" class="edge">
<title>Node3&#45;&gt;Node17</title>
<path fill="none" stroke="#191970" d="M711.4312,-224.4554C762.3959,-213.7214 829.9317,-199.4973 876.7854,-189.6291"/>
<polygon fill="#191970" stroke="#191970" points="877.6864,-193.0162 886.7504,-187.5303 876.2437,-186.1665 877.6864,-193.0162"/>
</g>
<!-- Node18 -->
<g id="node18" class="node">
<title>Node18</title>
<g id="a_node18"><a xlink:title=" ">
<polygon fill="#ffffff" stroke="#bfbfbf" points="668.5,-168.5 668.5,-187.5 761.5,-187.5 761.5,-168.5 668.5,-168.5"/>
<text text-anchor="middle" x="715" y="-175.5" font-family="Helvetica,sans-Serif" font-size="10.00" fill="#000000">unordered_map</text>
</a>
</g>
</g>
<!-- Node3&#45;&gt;Node18 -->
<g id="edge23" class="edge">
<title>Node3&#45;&gt;Node18</title>
<path fill="none" stroke="#191970" d="M658.5393,-224.2977C669.6008,-215.2274 683.6491,-203.7077 694.9653,-194.4285"/>
<polygon fill="#191970" stroke="#191970" points="697.4781,-196.8942 702.9916,-187.8469 693.0396,-191.4813 697.4781,-196.8942"/>
</g>
<!-- Node19 -->
<g id="node19" class="node">
<title>Node19</title>
<g id="a_node19"><a xlink:title=" ">
<polygon fill="#ffffff" stroke="#bfbfbf" points="779.5,-168.5 779.5,-187.5 844.5,-187.5 844.5,-168.5 779.5,-168.5"/>
<text text-anchor="middle" x="812" y="-175.5" font-family="Helvetica,sans-Serif" font-size="10.00" fill="#000000">functional</text>
</a>
</g>
</g>
<!-- Node3&#45;&gt;Node19 -->
<g id="edge24" class="edge">
<title>Node3&#45;&gt;Node19</title>
<path fill="none" stroke="#191970" d="M682.0759,-224.4554C710.7746,-214.194 748.3937,-200.7429 775.7623,-190.9571"/>
<polygon fill="#191970" stroke="#191970" points="777.1083,-194.1929 785.3461,-187.5303 774.7515,-187.6015 777.1083,-194.1929"/>
</g>
<!-- Node6&#45;&gt;Node4 -->
<g id="edge7" class="edge">
<title>Node6&#45;&gt;Node4</title>
<path fill="none" stroke="#191970" d="M353.3128,-168.35C339.4443,-155.6583 319.3425,-132.5549 329,-112 348.1607,-71.2189 392.5204,-41.1267 422.3906,-24.576"/>
<polygon fill="#191970" stroke="#191970" points="424.3662,-27.4884 431.5293,-19.6819 421.0615,-21.3176 424.3662,-27.4884"/>
</g>
<!-- Node6&#45;&gt;Node5 -->
<g id="edge8" class="edge">
<title>Node6&#45;&gt;Node5</title>
<path fill="none" stroke="#191970" d="M369.5289,-168.2455C373.0334,-160.6973 377.9927,-150.0158 382.2623,-140.8197"/>
<polygon fill="#191970" stroke="#191970" points="385.4864,-142.1867 386.523,-131.6427 379.1373,-139.2389 385.4864,-142.1867"/>
</g>
<!-- Node7 -->
<g id="node7" class="node">
<title>Node7</title>
<g id="a_node7"><a xlink:title=" ">
<polygon fill="#ffffff" stroke="#bfbfbf" points="125.5,-.5 125.5,-19.5 178.5,-19.5 178.5,-.5 125.5,-.5"/>
<text text-anchor="middle" x="152" y="-7.5" font-family="Helvetica,sans-Serif" font-size="10.00" fill="#000000">stdint.h</text>
</a>
</g>
</g>
<!-- Node6&#45;&gt;Node7 -->
<g id="edge6" class="edge">
<title>Node6&#45;&gt;Node7</title>
<path fill="none" stroke="#191970" d="M319.5676,-168.4289C280.9389,-159.5514 229.2303,-145.6847 213,-132 180.699,-104.7651 163.7923,-56.2333 156.5117,-29.319"/>
<polygon fill="#191970" stroke="#191970" points="159.8827,-28.3729 154.0354,-19.5377 153.0967,-30.0909 159.8827,-28.3729"/>
</g>
<!-- Node6&#45;&gt;Node8 -->
<g id="edge9" class="edge">
<title>Node6&#45;&gt;Node8</title>
<path fill="none" stroke="#191970" d="M391.3016,-168.3733C416.4128,-159.1822 454.4438,-145.2624 482.2872,-135.0713"/>
<polygon fill="#191970" stroke="#191970" points="483.8538,-138.2251 492.0416,-131.5011 481.4478,-131.6516 483.8538,-138.2251"/>
</g>
<!-- Node9 -->
<g id="node9" class="node">
<title>Node9</title>
<g id="a_node9"><a xlink:title=" ">
<polygon fill="#ffffff" stroke="#bfbfbf" points="222.5,-112.5 222.5,-131.5 281.5,-131.5 281.5,-112.5 222.5,-112.5"/>
<text text-anchor="middle" x="252" y="-119.5" font-family="Helvetica,sans-Serif" font-size="10.00" fill="#000000">complex</text>
</a>
</g>
</g>
<!-- Node6&#45;&gt;Node9 -->
<g id="edge10" class="edge">
<title>Node6&#45;&gt;Node9</title>
<path fill="none" stroke="#191970" d="M345.5746,-168.3733C327.5979,-159.4644 300.6559,-146.1127 280.291,-136.0203"/>
<polygon fill="#191970" stroke="#191970" points="281.6861,-132.8055 271.1719,-131.5011 278.5778,-139.0776 281.6861,-132.8055"/>
</g>
<!-- Node10&#45;&gt;Node4 -->
<g id="edge17" class="edge">
<title>Node10&#45;&gt;Node4</title>
<path fill="none" stroke="#191970" d="M292.1779,-56.3733C324.5487,-46.9807 373.9398,-32.6496 409.2424,-22.4064"/>
<polygon fill="#191970" stroke="#191970" points="410.6265,-25.6492 419.2551,-19.5011 408.6758,-18.9264 410.6265,-25.6492"/>
</g>
<!-- Node10&#45;&gt;Node7 -->
<g id="edge12" class="edge">
<title>Node10&#45;&gt;Node7</title>
<path fill="none" stroke="#191970" d="M240.362,-56.2455C223.5614,-47.4527 198.6366,-34.4079 179.5382,-24.4125"/>
<polygon fill="#191970" stroke="#191970" points="180.9073,-21.1787 170.4244,-19.6427 177.6614,-27.3807 180.9073,-21.1787"/>
</g>
<!-- Node11 -->
<g id="node11" class="node">
<title>Node11</title>
<g id="a_node11"><a xlink:title=" ">
<polygon fill="#ffffff" stroke="#bfbfbf" points="333,-.5 333,-19.5 389,-19.5 389,-.5 333,-.5"/>
<text text-anchor="middle" x="361" y="-7.5" font-family="Helvetica,sans-Serif" font-size="10.00" fill="#000000">stddef.h</text>
</a>
</g>
</g>
<!-- Node10&#45;&gt;Node11 -->
<g id="edge13" class="edge">
<title>Node10&#45;&gt;Node11</title>
<path fill="none" stroke="#191970" d="M276.767,-56.2455C292.7095,-47.4928 316.3259,-34.527 334.4989,-24.5496"/>
<polygon fill="#191970" stroke="#191970" points="336.3552,-27.5233 343.4366,-19.6427 332.9863,-21.3873 336.3552,-27.5233"/>
</g>
<!-- Node10&#45;&gt;Node12 -->
<g id="edge14" class="edge">
<title>Node10&#45;&gt;Node12</title>
<path fill="none" stroke="#191970" d="M295.5697,-62.1066C392.0184,-51.8383 652.4704,-24.1096 748.6592,-13.869"/>
<polygon fill="#191970" stroke="#191970" points="749.1937,-17.3319 758.7669,-12.7929 748.4526,-10.3713 749.1937,-17.3319"/>
</g>
<!-- Node13 -->
<g id="node13" class="node">
<title>Node13</title>
<g id="a_node13"><a xlink:title=" ">
<polygon fill="#ffffff" stroke="#bfbfbf" points="197,-.5 197,-19.5 253,-19.5 253,-.5 197,-.5"/>
<text text-anchor="middle" x="225" y="-7.5" font-family="Helvetica,sans-Serif" font-size="10.00" fill="#000000">sstream</text>
</a>
</g>
</g>
<!-- Node10&#45;&gt;Node13 -->
<g id="edge15" class="edge">
<title>Node10&#45;&gt;Node13</title>
<path fill="none" stroke="#191970" d="M253.0777,-56.2455C248.3973,-48.5367 241.7327,-37.5598 236.0711,-28.2348"/>
<polygon fill="#191970" stroke="#191970" points="239.0361,-26.3741 230.8545,-19.6427 233.0525,-30.007 239.0361,-26.3741"/>
</g>
<!-- Node14 -->
<g id="node14" class="node">
<title>Node14</title>
<g id="a_node14"><a xlink:title=" ">
<polygon fill="#ffffff" stroke="#bfbfbf" points="271,-.5 271,-19.5 315,-19.5 315,-.5 271,-.5"/>
<text text-anchor="middle" x="293" y="-7.5" font-family="Helvetica,sans-Serif" font-size="10.00" fill="#000000">limits</text>
</a>
</g>
</g>
<!-- Node10&#45;&gt;Node14 -->
<g id="edge16" class="edge">
<title>Node10&#45;&gt;Node14</title>
<path fill="none" stroke="#191970" d="M264.9223,-56.2455C269.6027,-48.5367 276.2673,-37.5598 281.9289,-28.2348"/>
<polygon fill="#191970" stroke="#191970" points="284.9475,-30.007 287.1455,-19.6427 278.9639,-26.3741 284.9475,-30.007"/>
</g>
<!-- Node16 -->
<g id="node16" class="node">
<title>Node16</title>
<g id="a_node16"><a xlink:href="sitkCommon_8h.html" target="_top" xlink:title=" ">
<polygon fill="#ffffff" stroke="#000000" points="78,-112.5 78,-131.5 166,-131.5 166,-112.5 78,-112.5"/>
<text text-anchor="middle" x="122" y="-119.5" font-family="Helvetica,sans-Serif" font-size="10.00" fill="#000000">sitkCommon.h</text>
</a>
</g>
</g>
<!-- Node15&#45;&gt;Node16 -->
<g id="edge19" class="edge">
<title>Node15&#45;&gt;Node16</title>
<path fill="none" stroke="#191970" d="M212.0136,-168.2455C194.8208,-159.4125 169.2762,-146.2887 149.7868,-136.2758"/>
<polygon fill="#191970" stroke="#191970" points="151.263,-133.0993 140.7688,-131.6427 148.0641,-139.3257 151.263,-133.0993"/>
</g>
<!-- Node16&#45;&gt;Node10 -->
<g id="edge20" class="edge">
<title>Node16&#45;&gt;Node10</title>
<path fill="none" stroke="#191970" d="M145.5511,-112.3733C167.8391,-103.2629 201.4937,-89.5062 226.3637,-79.3404"/>
<polygon fill="#191970" stroke="#191970" points="227.8239,-82.5247 235.7562,-75.5011 225.1753,-76.0451 227.8239,-82.5247"/>
</g>
<!-- Node20&#45;&gt;Node6 -->
<g id="edge29" class="edge">
<title>Node20&#45;&gt;Node6</title>
<path fill="none" stroke="#191970" d="M181.9063,-229.8906C219.5679,-219.2169 280.4702,-201.9566 321.5885,-190.3033"/>
<polygon fill="#191970" stroke="#191970" points="322.6651,-193.6361 331.3318,-187.5419 320.7564,-186.9013 322.6651,-193.6361"/>
</g>
<!-- Node20&#45;&gt;Node16 -->
<g id="edge28" class="edge">
<title>Node20&#45;&gt;Node16</title>
<path fill="none" stroke="#191970" d="M145.8723,-229.8845C141.6253,-210.6913 132.0207,-167.286 126.3738,-141.7663"/>
<polygon fill="#191970" stroke="#191970" points="129.735,-140.756 124.1571,-131.7484 122.9003,-142.2684 129.735,-140.756"/>
</g>
<!-- Node21 -->
<g id="node21" class="node">
<title>Node21</title>
<g id="a_node21"><a xlink:title=" ">
<polygon fill="#ffffff" stroke="#bfbfbf" points="0,-168.5 0,-187.5 44,-187.5 44,-168.5 0,-168.5"/>
<text text-anchor="middle" x="22" y="-175.5" font-family="Helvetica,sans-Serif" font-size="10.00" fill="#000000">string</text>
</a>
</g>
</g>
<!-- Node20&#45;&gt;Node21 -->
<g id="edge30" class="edge">
<title>Node20&#45;&gt;Node21</title>
<path fill="none" stroke="#191970" d="M128.3125,-229.8906C107.5078,-219.7359 74.489,-203.6196 50.7681,-192.0416"/>
<polygon fill="#191970" stroke="#191970" points="52.0712,-188.783 41.5493,-187.5419 49.0007,-195.0736 52.0712,-188.783"/>
</g>
<!-- Node22 -->
<g id="node22" class="node">
<title>Node22</title>
<g id="a_node22"><a xlink:title=" ">
<polygon fill="#ffffff" stroke="#bfbfbf" points="62.5,-168.5 62.5,-187.5 119.5,-187.5 119.5,-168.5 62.5,-168.5"/>
<text text-anchor="middle" x="91" y="-175.5" font-family="Helvetica,sans-Serif" font-size="10.00" fill="#000000">ostream</text>
</a>
</g>
</g>
<!-- Node20&#45;&gt;Node22 -->
<g id="edge31" class="edge">
<title>Node20&#45;&gt;Node22</title>
<path fill="none" stroke="#191970" d="M139.0938,-229.8906C130.5272,-220.6478 117.3831,-206.466 106.9997,-195.2628"/>
<polygon fill="#191970" stroke="#191970" points="109.3965,-192.7 100.0318,-187.7449 104.2625,-197.4584 109.3965,-192.7"/>
</g>
</g>
</svg>
