<?xml version="1.0" encoding="UTF-8" standalone="no"?>
<!DOCTYPE svg PUBLIC "-//W3C//DTD SVG 1.1//EN"
 "http://www.w3.org/Graphics/SVG/1.1/DTD/svg11.dtd">
<!-- Generated by graphviz version 2.40.1 (20161225.0304)
 -->
<!-- Title: sitkMemberFunctionFactoryBase.h Pages: 1 -->
<svg width="4746pt" height="520pt"
 viewBox="0.00 0.00 4746.24 520.00" xmlns="http://www.w3.org/2000/svg" xmlns:xlink="http://www.w3.org/1999/xlink">
<g id="graph0" class="graph" transform="scale(1 1) rotate(0) translate(4 516)">
<title>sitkMemberFunctionFactoryBase.h</title>
<polygon fill="#ffffff" stroke="transparent" points="-4,4 -4,-516 4742.2446,-516 4742.2446,4 -4,4"/>
<!-- Node1 -->
<g id="node1" class="node">
<title>Node1</title>
<g id="a_node1"><a xlink:title=" ">
<polygon fill="#bfbfbf" stroke="#000000" points="3168.2446,-481.5 3168.2446,-511.5 3318.2446,-511.5 3318.2446,-481.5 3168.2446,-481.5"/>
<text text-anchor="start" x="3176.2446" y="-499.5" font-family="Helvetica,sans-Serif" font-size="10.00" fill="#000000">sitkMemberFunctionFactory</text>
<text text-anchor="middle" x="3243.2446" y="-488.5" font-family="Helvetica,sans-Serif" font-size="10.00" fill="#000000">Base.h</text>
</a>
</g>
</g>
<!-- Node2 -->
<g id="node2" class="node">
<title>Node2</title>
<g id="a_node2"><a xlink:href="sitkDetail_8h.html" target="_top" xlink:title=" ">
<polygon fill="#ffffff" stroke="#000000" points="3588.7446,-425.5 3588.7446,-444.5 3661.7446,-444.5 3661.7446,-425.5 3588.7446,-425.5"/>
<text text-anchor="middle" x="3625.2446" y="-432.5" font-family="Helvetica,sans-Serif" font-size="10.00" fill="#000000">sitkDetail.h</text>
</a>
</g>
</g>
<!-- Node1&#45;&gt;Node2 -->
<g id="edge1" class="edge">
<title>Node1&#45;&gt;Node2</title>
<path fill="none" stroke="#191970" d="M3328.5068,-482.7732C3410.0335,-469.6479 3529.0883,-450.4807 3588.5701,-440.9044"/>
<polygon fill="#191970" stroke="#191970" points="3327.5763,-479.3779 3318.2597,-484.423 3328.6889,-486.2889 3327.5763,-479.3779"/>
</g>
<!-- Node333 -->
<g id="node49" class="node">
<title>Node333</title>
<g id="a_node49"><a xlink:href="sitkDualMemberFunctionFactory_8h.html" target="_top" xlink:title=" ">
<polygon fill="#ffffff" stroke="#000000" points="1452.2446,-196 1452.2446,-215 1632.2446,-215 1632.2446,-196 1452.2446,-196"/>
<text text-anchor="middle" x="1542.2446" y="-203" font-family="Helvetica,sans-Serif" font-size="10.00" fill="#000000">sitkDualMemberFunctionFactory.h</text>
</a>
</g>
</g>
<!-- Node1&#45;&gt;Node333 -->
<g id="edge148" class="edge">
<title>Node1&#45;&gt;Node333</title>
<path fill="none" stroke="#191970" d="M3157.9438,-493.1607C2947.4503,-483.7874 2420.2446,-452.9314 2420.2446,-379 2420.2446,-379 2420.2446,-379 2420.2446,-323 2420.2446,-244.1348 1856.5398,-216.2153 1632.4891,-208.2331"/>
<polygon fill="#191970" stroke="#191970" points="3157.883,-496.6613 3168.0271,-493.604 3158.1905,-489.668 3157.883,-496.6613"/>
</g>
<!-- Node334 -->
<g id="node50" class="node">
<title>Node334</title>
<g id="a_node50"><a xlink:href="sitkMemberFunctionFactory_8h.html" target="_top" xlink:title=" ">
<polygon fill="#ffffff" stroke="#000000" points="3385.2446,-257.5 3385.2446,-276.5 3543.2446,-276.5 3543.2446,-257.5 3385.2446,-257.5"/>
<text text-anchor="middle" x="3464.2446" y="-264.5" font-family="Helvetica,sans-Serif" font-size="10.00" fill="#000000">sitkMemberFunctionFactory.h</text>
</a>
</g>
</g>
<!-- Node1&#45;&gt;Node334 -->
<g id="edge149" class="edge">
<title>Node1&#45;&gt;Node334</title>
<path fill="none" stroke="#191970" d="M3264.7088,-474.2103C3311.6115,-425.5036 3421.6865,-311.1949 3454.7131,-276.8981"/>
<polygon fill="#191970" stroke="#191970" points="3262.1604,-471.8109 3257.745,-481.4419 3267.2026,-476.6664 3262.1604,-471.8109"/>
</g>
<!-- Node3 -->
<g id="node3" class="node">
<title>Node3</title>
<g id="a_node3"><a xlink:href="SimpleITK_8h.html" target="_top" xlink:title=" ">
<polygon fill="#ffffff" stroke="#000000" points="4104.7446,-.5 4104.7446,-19.5 4179.7446,-19.5 4179.7446,-.5 4104.7446,-.5"/>
<text text-anchor="middle" x="4142.2446" y="-7.5" font-family="Helvetica,sans-Serif" font-size="10.00" fill="#000000">SimpleITK.h</text>
</a>
</g>
</g>
<!-- Node2&#45;&gt;Node3 -->
<g id="edge2" class="edge">
<title>Node2&#45;&gt;Node3</title>
<path fill="none" stroke="#191970" d="M3672.1095,-432.7832C3883.5322,-422.4799 4738.2446,-377.4594 4738.2446,-323 4738.2446,-323 4738.2446,-323 4738.2446,-138.5 4738.2446,-58.097 4654.303,-78.9487 4577.2446,-56 4503.097,-33.9182 4271.4247,-17.8472 4179.9441,-12.2069"/>
<polygon fill="#191970" stroke="#191970" points="3671.7779,-429.2951 3661.9591,-433.2752 3672.1169,-436.2869 3671.7779,-429.2951"/>
</g>
<!-- Node4 -->
<g id="node4" class="node">
<title>Node4</title>
<g id="a_node4"><a xlink:href="sitkImage_8h.html" target="_top" xlink:title=" ">
<polygon fill="#ffffff" stroke="#000000" points="3905.2446,-369.5 3905.2446,-388.5 3979.2446,-388.5 3979.2446,-369.5 3905.2446,-369.5"/>
<text text-anchor="middle" x="3942.2446" y="-376.5" font-family="Helvetica,sans-Serif" font-size="10.00" fill="#000000">sitkImage.h</text>
</a>
</g>
</g>
<!-- Node2&#45;&gt;Node4 -->
<g id="edge3" class="edge">
<title>Node2&#45;&gt;Node4</title>
<path fill="none" stroke="#191970" d="M3672.0201,-426.7368C3735.3037,-415.5574 3846.9328,-395.8374 3904.9211,-385.5934"/>
<polygon fill="#191970" stroke="#191970" points="3671.1568,-423.335 3661.9182,-428.5214 3672.3746,-430.2283 3671.1568,-423.335"/>
</g>
<!-- Node322 -->
<g id="node8" class="node">
<title>Node322</title>
<g id="a_node8"><a xlink:href="sitkImageRegistrationMethod_8h.html" target="_top" xlink:title=" ">
<polygon fill="#ffffff" stroke="#000000" points="4299.7446,-196 4299.7446,-215 4468.7446,-215 4468.7446,-196 4299.7446,-196"/>
<text text-anchor="middle" x="4384.2446" y="-203" font-family="Helvetica,sans-Serif" font-size="10.00" fill="#000000">sitkImageRegistrationMethod.h</text>
</a>
</g>
</g>
<!-- Node2&#45;&gt;Node322 -->
<g id="edge147" class="edge">
<title>Node2&#45;&gt;Node322</title>
<path fill="none" stroke="#191970" d="M3672.1708,-433.071C3742.0967,-429.3007 3877.3079,-418.5458 3988.2446,-389 4113.3866,-355.6709 4140.839,-333.7546 4257.2446,-277 4298.4104,-256.9293 4344.8516,-229.4974 4368.53,-215.1468"/>
<polygon fill="#191970" stroke="#191970" points="3671.737,-429.5885 3661.9301,-433.598 3672.0968,-436.5793 3671.737,-429.5885"/>
</g>
<!-- Node2&#45;&gt;Node333 -->
<g id="edge122" class="edge">
<title>Node2&#45;&gt;Node333</title>
<path fill="none" stroke="#191970" d="M3578.3973,-426.4324C3418.8811,-397.5952 2881.9252,-303.2811 2434.2446,-257 2141.8524,-226.7726 1793.5691,-213.0766 1632.3551,-208.0009"/>
<polygon fill="#191970" stroke="#191970" points="3577.8898,-429.8973 3588.3536,-428.2359 3579.1376,-423.0094 3577.8898,-429.8973"/>
</g>
<!-- Node2&#45;&gt;Node334 -->
<g id="edge136" class="edge">
<title>Node2&#45;&gt;Node334</title>
<path fill="none" stroke="#191970" d="M3608.9448,-417.9915C3575.523,-383.1166 3500.1488,-304.4652 3473.663,-276.8279"/>
<polygon fill="#191970" stroke="#191970" points="3606.6812,-420.688 3616.1273,-425.4862 3611.7351,-415.8446 3606.6812,-420.688"/>
</g>
<!-- Node4&#45;&gt;Node3 -->
<g id="edge8" class="edge">
<title>Node4&#45;&gt;Node3</title>
<path fill="none" stroke="#191970" d="M3989.2478,-372.418C4108.7771,-354.6147 4419.0756,-301.3745 4478.2446,-221 4524.4988,-158.1688 4499.8542,-129.7643 4387.2446,-56 4353.6668,-34.0051 4240.1112,-19.7329 4180.1134,-13.5402"/>
<polygon fill="#191970" stroke="#191970" points="3988.6768,-368.9642 3979.2936,-373.8841 3989.6969,-375.8895 3988.6768,-368.9642"/>
</g>
<!-- Node5 -->
<g id="node5" class="node">
<title>Node5</title>
<g id="a_node5"><a xlink:href="sitkAdditionalProcedures_8h.html" target="_top" xlink:title=" ">
<polygon fill="#ffffff" stroke="#000000" points="4562.7446,-196 4562.7446,-215 4709.7446,-215 4709.7446,-196 4562.7446,-196"/>
<text text-anchor="middle" x="4636.2446" y="-203" font-family="Helvetica,sans-Serif" font-size="10.00" fill="#000000">sitkAdditionalProcedures.h</text>
</a>
</g>
</g>
<!-- Node4&#45;&gt;Node5 -->
<g id="edge4" class="edge">
<title>Node4&#45;&gt;Node5</title>
<path fill="none" stroke="#191970" d="M3989.5508,-377.3645C4073.8435,-373.7726 4255.2556,-362.9726 4405.2446,-333 4489.0687,-316.2493 4520.801,-328.2107 4589.2446,-277 4611.1298,-260.6252 4625.8353,-230.8521 4632.376,-215.4001"/>
<polygon fill="#191970" stroke="#191970" points="3989.3674,-373.869 3979.5197,-377.7772 3989.6552,-380.863 3989.3674,-373.869"/>
</g>
<!-- Node6 -->
<g id="node6" class="node">
<title>Node6</title>
<g id="a_node6"><a xlink:href="sitkHashImageFilter_8h.html" target="_top" xlink:title=" ">
<polygon fill="#ffffff" stroke="#000000" points="4119.2446,-129 4119.2446,-148 4241.2446,-148 4241.2446,-129 4119.2446,-129"/>
<text text-anchor="middle" x="4180.2446" y="-136" font-family="Helvetica,sans-Serif" font-size="10.00" fill="#000000">sitkHashImageFilter.h</text>
</a>
</g>
</g>
<!-- Node4&#45;&gt;Node6 -->
<g id="edge6" class="edge">
<title>Node4&#45;&gt;Node6</title>
<path fill="none" stroke="#191970" d="M3908.6769,-364.6137C3894.8455,-357.0916 3879.8431,-346.5827 3870.2446,-333 3833.5579,-281.085 3822.4541,-235.1098 3867.2446,-190 3903.6955,-153.2893 4046.2564,-162.7494 4097.2446,-154 4107.9359,-152.1654 4119.3815,-150.0963 4130.252,-148.0816"/>
<polygon fill="#191970" stroke="#191970" points="3907.4842,-367.9336 3917.9846,-369.3452 3910.6563,-361.6936 3907.4842,-367.9336"/>
</g>
<!-- Node7 -->
<g id="node7" class="node">
<title>Node7</title>
<g id="a_node7"><a xlink:href="sitkTransform_8h.html" target="_top" xlink:title=" ">
<polygon fill="#ffffff" stroke="#ff0000" points="4488.2446,-257.5 4488.2446,-276.5 4580.2446,-276.5 4580.2446,-257.5 4488.2446,-257.5"/>
<text text-anchor="middle" x="4534.2446" y="-264.5" font-family="Helvetica,sans-Serif" font-size="10.00" fill="#000000">sitkTransform.h</text>
</a>
</g>
</g>
<!-- Node4&#45;&gt;Node7 -->
<g id="edge9" class="edge">
<title>Node4&#45;&gt;Node7</title>
<path fill="none" stroke="#191970" d="M3989.4197,-377.6822C4067.5499,-374.6419 4228.2857,-364.7442 4360.2446,-333 4417.8862,-319.1337 4482.294,-291.2354 4514.1519,-276.5457"/>
<polygon fill="#191970" stroke="#191970" points="3989.2699,-374.1853 3979.4057,-378.0516 3989.528,-381.1805 3989.2699,-374.1853"/>
</g>
<!-- Node4&#45;&gt;Node322 -->
<g id="edge121" class="edge">
<title>Node4&#45;&gt;Node322</title>
<path fill="none" stroke="#191970" d="M3982.89,-366.341C4010.5274,-357.5164 4047.8203,-345.1838 4080.2446,-333 4187.929,-292.5364 4313.9222,-237.0133 4363.0895,-215.0235"/>
<polygon fill="#191970" stroke="#191970" points="3981.6435,-363.0645 3973.1716,-369.4267 3983.7619,-369.7363 3981.6435,-363.0645"/>
</g>
<!-- Node323 -->
<g id="node9" class="node">
<title>Node323</title>
<g id="a_node9"><a xlink:href="sitkProcessObject_8h.html" target="_top" xlink:title=" ">
<polygon fill="#ffffff" stroke="#ff0000" points="3866.7446,-257.5 3866.7446,-276.5 3979.7446,-276.5 3979.7446,-257.5 3866.7446,-257.5"/>
<text text-anchor="middle" x="3923.2446" y="-264.5" font-family="Helvetica,sans-Serif" font-size="10.00" fill="#000000">sitkProcessObject.h</text>
</a>
</g>
</g>
<!-- Node4&#45;&gt;Node323 -->
<g id="edge14" class="edge">
<title>Node4&#45;&gt;Node323</title>
<path fill="none" stroke="#191970" d="M3909.3502,-364.5194C3896.5969,-357.074 3883.3691,-346.6498 3876.2446,-333 3864.9842,-311.4264 3890.4069,-288.8699 3908.0756,-276.5113"/>
<polygon fill="#191970" stroke="#191970" points="3907.9938,-367.7638 3918.4587,-369.4178 3911.3093,-361.5988 3907.9938,-367.7638"/>
</g>
<!-- Node328 -->
<g id="node41" class="node">
<title>Node328</title>
<g id="a_node41"><a xlink:href="sitkImageFileWriter_8h.html" target="_top" xlink:title=" ">
<polygon fill="#ffffff" stroke="#000000" points="4075.7446,-196 4075.7446,-215 4194.7446,-215 4194.7446,-196 4075.7446,-196"/>
<text text-anchor="middle" x="4135.2446" y="-203" font-family="Helvetica,sans-Serif" font-size="10.00" fill="#000000">sitkImageFileWriter.h</text>
</a>
</g>
</g>
<!-- Node4&#45;&gt;Node328 -->
<g id="edge113" class="edge">
<title>Node4&#45;&gt;Node328</title>
<path fill="none" stroke="#191970" d="M3972.7517,-365.0538C3988.9024,-356.9128 4008.578,-345.743 4024.2446,-333 4070.2359,-295.5912 4112.758,-237.8342 4128.6506,-215.1324"/>
<polygon fill="#191970" stroke="#191970" points="3971.1464,-361.9427 3963.7067,-369.4861 3974.2267,-368.2286 3971.1464,-361.9427"/>
</g>
<!-- Node329 -->
<g id="node42" class="node">
<title>Node329</title>
<g id="a_node42"><a xlink:href="sitkImageSeriesWriter_8h.html" target="_top" xlink:title=" ">
<polygon fill="#ffffff" stroke="#000000" points="3885.7446,-196 3885.7446,-215 4018.7446,-215 4018.7446,-196 3885.7446,-196"/>
<text text-anchor="middle" x="3952.2446" y="-203" font-family="Helvetica,sans-Serif" font-size="10.00" fill="#000000">sitkImageSeriesWriter.h</text>
</a>
</g>
</g>
<!-- Node4&#45;&gt;Node329 -->
<g id="edge116" class="edge">
<title>Node4&#45;&gt;Node329</title>
<path fill="none" stroke="#191970" d="M3974.3783,-364.5718C3987.0251,-357.0964 4000.19,-346.635 4007.2446,-333 4029.2896,-290.392 3983.827,-236.9826 3962.4891,-215.311"/>
<polygon fill="#191970" stroke="#191970" points="3972.4609,-361.6308 3965.3558,-369.4901 3975.8112,-367.7769 3972.4609,-361.6308"/>
</g>
<!-- Node330 -->
<g id="node43" class="node">
<title>Node330</title>
<g id="a_node43"><a xlink:href="sitkImageViewer_8h.html" target="_top" xlink:title=" ">
<polygon fill="#ffffff" stroke="#000000" points="3683.7446,-196 3683.7446,-215 3790.7446,-215 3790.7446,-196 3683.7446,-196"/>
<text text-anchor="middle" x="3737.2446" y="-203" font-family="Helvetica,sans-Serif" font-size="10.00" fill="#000000">sitkImageViewer.h</text>
</a>
</g>
</g>
<!-- Node4&#45;&gt;Node330 -->
<g id="edge117" class="edge">
<title>Node4&#45;&gt;Node330</title>
<path fill="none" stroke="#191970" d="M3895.2911,-372.2545C3866.6108,-366.1036 3830.6843,-354.5317 3805.2446,-333 3766.1811,-299.9374 3746.1944,-238.6046 3739.6865,-215.0523"/>
<polygon fill="#191970" stroke="#191970" points="3894.613,-375.6881 3905.1044,-374.2114 3895.982,-368.8232 3894.613,-375.6881"/>
</g>
<!-- Node331 -->
<g id="node44" class="node">
<title>Node331</title>
<g id="a_node44"><a xlink:href="sitkShow_8h.html" target="_top" xlink:title=" ">
<polygon fill="#ffffff" stroke="#000000" points="4212.7446,-196 4212.7446,-215 4281.7446,-215 4281.7446,-196 4212.7446,-196"/>
<text text-anchor="middle" x="4247.2446" y="-203" font-family="Helvetica,sans-Serif" font-size="10.00" fill="#000000">sitkShow.h</text>
</a>
</g>
</g>
<!-- Node4&#45;&gt;Node331 -->
<g id="edge120" class="edge">
<title>Node4&#45;&gt;Node331</title>
<path fill="none" stroke="#191970" d="M3977.5115,-365.76C3998.9652,-357.2719 4026.6798,-345.5248 4050.2446,-333 4122.5523,-294.5682 4202.759,-237.8864 4233.8852,-215.3048"/>
<polygon fill="#191970" stroke="#191970" points="3976.1747,-362.5245 3968.1324,-369.4217 3978.7205,-369.0452 3976.1747,-362.5245"/>
</g>
<!-- Node332 -->
<g id="node45" class="node">
<title>Node332</title>
<g id="a_node45"><a xlink:href="sitkImageConvert_8h.html" target="_top" xlink:title=" ">
<polygon fill="#ffffff" stroke="#000000" points="3885.7446,-313.5 3885.7446,-332.5 3998.7446,-332.5 3998.7446,-313.5 3885.7446,-313.5"/>
<text text-anchor="middle" x="3942.2446" y="-320.5" font-family="Helvetica,sans-Serif" font-size="10.00" fill="#000000">sitkImageConvert.h</text>
</a>
</g>
</g>
<!-- Node4&#45;&gt;Node332 -->
<g id="edge109" class="edge">
<title>Node4&#45;&gt;Node332</title>
<path fill="none" stroke="#191970" d="M3942.2446,-359.1575C3942.2446,-350.155 3942.2446,-339.9199 3942.2446,-332.6427"/>
<polygon fill="#191970" stroke="#191970" points="3938.7447,-359.2455 3942.2446,-369.2455 3945.7447,-359.2456 3938.7447,-359.2455"/>
</g>
<!-- Node325 -->
<g id="node46" class="node">
<title>Node325</title>
<g id="a_node46"><a xlink:href="sitkImageFileReader_8h.html" target="_top" xlink:title=" ">
<polygon fill="#ffffff" stroke="#000000" points="1006.2446,-196 1006.2446,-215 1130.2446,-215 1130.2446,-196 1006.2446,-196"/>
<text text-anchor="middle" x="1068.2446" y="-203" font-family="Helvetica,sans-Serif" font-size="10.00" fill="#000000">sitkImageFileReader.h</text>
</a>
</g>
</g>
<!-- Node4&#45;&gt;Node325 -->
<g id="edge111" class="edge">
<title>Node4&#45;&gt;Node325</title>
<path fill="none" stroke="#191970" d="M3894.9142,-378.7601C3697.0308,-377.5317 2916.5128,-370.4418 2276.2446,-333 1997.3878,-316.6929 1928.2049,-304.6607 1650.2446,-277 1422.8967,-254.3759 1364.7223,-257.8609 1139.2446,-221 1129.159,-219.3512 1118.3476,-217.194 1108.2795,-215.0153"/>
<polygon fill="#191970" stroke="#191970" points="3894.9515,-382.2603 3904.9724,-378.8205 3894.9937,-375.2604 3894.9515,-382.2603"/>
</g>
<!-- Node326 -->
<g id="node47" class="node">
<title>Node326</title>
<g id="a_node47"><a xlink:href="sitkImageSeriesReader_8h.html" target="_top" xlink:title=" ">
<polygon fill="#ffffff" stroke="#000000" points="1148.7446,-196 1148.7446,-215 1285.7446,-215 1285.7446,-196 1148.7446,-196"/>
<text text-anchor="middle" x="1217.2446" y="-203" font-family="Helvetica,sans-Serif" font-size="10.00" fill="#000000">sitkImageSeriesReader.h</text>
</a>
</g>
</g>
<!-- Node4&#45;&gt;Node326 -->
<g id="edge114" class="edge">
<title>Node4&#45;&gt;Node326</title>
<path fill="none" stroke="#191970" d="M3894.8499,-378.5834C3633.3512,-375.7835 2340.6523,-355.432 1295.2446,-221 1283.605,-219.5032 1271.0957,-217.2916 1259.5775,-215.0049"/>
<polygon fill="#191970" stroke="#191970" points="3895.0905,-382.086 3905.1263,-378.69 3895.1632,-375.0864 3895.0905,-382.086"/>
</g>
<!-- Node327 -->
<g id="node48" class="node">
<title>Node327</title>
<g id="a_node48"><a xlink:href="sitkImportImageFilter_8h.html" target="_top" xlink:title=" ">
<polygon fill="#ffffff" stroke="#000000" points="1304.2446,-196 1304.2446,-215 1434.2446,-215 1434.2446,-196 1304.2446,-196"/>
<text text-anchor="middle" x="1369.2446" y="-203" font-family="Helvetica,sans-Serif" font-size="10.00" fill="#000000">sitkImportImageFilter.h</text>
</a>
</g>
</g>
<!-- Node4&#45;&gt;Node327 -->
<g id="edge118" class="edge">
<title>Node4&#45;&gt;Node327</title>
<path fill="none" stroke="#191970" d="M3894.8105,-374.6111C3796.2943,-364.5974 3563.1336,-336.2122 3376.2446,-277 3356.1518,-270.634 3353.7801,-261.7476 3333.2446,-257 3128.6043,-209.689 1651.9488,-244.6337 1443.2446,-221 1431.6366,-219.6855 1419.1558,-217.4116 1407.8121,-215.0042"/>
<polygon fill="#191970" stroke="#191970" points="3894.7358,-378.121 3905.0344,-375.6331 3895.4322,-371.1557 3894.7358,-378.121"/>
</g>
<!-- Node5&#45;&gt;Node3 -->
<g id="edge5" class="edge">
<title>Node5&#45;&gt;Node3</title>
<path fill="none" stroke="#191970" d="M4630.9323,-185.8656C4620.8725,-152.8456 4595.6786,-86.7933 4548.2446,-56 4517.677,-36.1561 4274.5654,-18.5294 4179.8398,-12.3473"/>
<polygon fill="#191970" stroke="#191970" points="4627.6352,-187.0635 4633.7739,-195.6987 4634.36,-185.1201 4627.6352,-187.0635"/>
</g>
<!-- Node6&#45;&gt;Node3 -->
<g id="edge7" class="edge">
<title>Node6&#45;&gt;Node3</title>
<path fill="none" stroke="#191970" d="M4174.6808,-119.123C4169.8592,-102.3917 4162.667,-77.5794 4156.2446,-56 4152.4823,-43.3585 4148.0312,-28.799 4145.1747,-19.5045"/>
<polygon fill="#191970" stroke="#191970" points="4171.3467,-120.1933 4177.4751,-128.8358 4178.0738,-118.2579 4171.3467,-120.1933"/>
</g>
<!-- Node7&#45;&gt;Node3 -->
<g id="edge11" class="edge">
<title>Node7&#45;&gt;Node3</title>
<path fill="none" stroke="#191970" d="M4539.0304,-247.3193C4547.8803,-205.6013 4561.539,-107.8668 4510.2446,-56 4487.2395,-32.7382 4268.7955,-17.4175 4179.7494,-12.0914"/>
<polygon fill="#191970" stroke="#191970" points="4535.5647,-246.7769 4536.7713,-257.3028 4542.3921,-248.3219 4535.5647,-246.7769"/>
</g>
<!-- Node7&#45;&gt;Node5 -->
<g id="edge10" class="edge">
<title>Node7&#45;&gt;Node5</title>
<path fill="none" stroke="#191970" d="M4558.9543,-252.1015C4578.0797,-240.57 4603.9943,-224.945 4620.419,-215.0419"/>
<polygon fill="#191970" stroke="#191970" points="4556.9387,-249.2298 4550.1821,-257.3906 4560.5531,-255.2244 4556.9387,-249.2298"/>
</g>
<!-- Node7&#45;&gt;Node322 -->
<g id="edge12" class="edge">
<title>Node7&#45;&gt;Node322</title>
<path fill="none" stroke="#191970" d="M4501.3069,-253.4955C4472.9226,-241.858 4432.6596,-225.3501 4407.5175,-215.0419"/>
<polygon fill="#191970" stroke="#191970" points="4500.2268,-256.8354 4510.8071,-257.3906 4502.8823,-250.3586 4500.2268,-256.8354"/>
</g>
<!-- Node322&#45;&gt;Node3 -->
<g id="edge13" class="edge">
<title>Node322&#45;&gt;Node3</title>
<path fill="none" stroke="#191970" d="M4388.238,-185.7051C4393.3939,-153.9434 4398.172,-91.5661 4365.2446,-56 4340.6048,-29.3856 4236.7115,-17.2907 4179.842,-12.5747"/>
<polygon fill="#191970" stroke="#191970" points="4384.7271,-185.4517 4386.3905,-195.9151 4391.6152,-186.6982 4384.7271,-185.4517"/>
</g>
<!-- Node323&#45;&gt;Node3 -->
<g id="edge99" class="edge">
<title>Node323&#45;&gt;Node3</title>
<path fill="none" stroke="#191970" d="M3959.1408,-253.7646C3979.7172,-245.5376 4005.6616,-234.0558 4027.2446,-221 4046.1901,-209.5397 4046.0592,-199.1006 4066.2446,-190 4149.7773,-152.3393 4210.3805,-224.2215 4269.2446,-154 4291.6388,-127.285 4248.8447,-64.8654 4240.2446,-56 4223.101,-38.3277 4197.8409,-26.6965 4177.2602,-19.5513"/>
<polygon fill="#191970" stroke="#191970" points="3957.8412,-250.5147 3949.8073,-257.4217 3960.395,-257.0322 3957.8412,-250.5147"/>
</g>
<!-- Node323&#45;&gt;Node6 -->
<g id="edge98" class="edge">
<title>Node323&#45;&gt;Node6</title>
<path fill="none" stroke="#191970" d="M3901.8612,-250.9762C3882.672,-234.6788 3859.8576,-209.1644 3876.2446,-190 3909.7227,-150.8478 4054.5617,-163.2156 4105.2446,-154 4115.1866,-152.1923 4125.8356,-150.0918 4135.8956,-148.0317"/>
<polygon fill="#191970" stroke="#191970" points="3899.7631,-253.7808 3909.7383,-257.3511 3904.1668,-248.3395 3899.7631,-253.7808"/>
</g>
<!-- Node323&#45;&gt;Node322 -->
<g id="edge108" class="edge">
<title>Node323&#45;&gt;Node322</title>
<path fill="none" stroke="#191970" d="M3989.8487,-259.5024C4063.6471,-251.0022 4186.1252,-236.3234 4291.2446,-221 4303.5546,-219.2056 4316.7521,-217.1105 4329.2251,-215.0514"/>
<polygon fill="#191970" stroke="#191970" points="3989.3008,-256.0422 3979.7654,-260.6602 3990.0994,-262.9965 3989.3008,-256.0422"/>
</g>
<!-- Node10 -->
<g id="node10" class="node">
<title>Node10</title>
<g id="a_node10"><a xlink:href="sitkImageFilter_8h.html" target="_top" xlink:title=" ">
<polygon fill="#ffffff" stroke="#ff0000" points="2375.2446,-196 2375.2446,-215 2473.2446,-215 2473.2446,-196 2375.2446,-196"/>
<text text-anchor="middle" x="2424.2446" y="-203" font-family="Helvetica,sans-Serif" font-size="10.00" fill="#000000">sitkImageFilter.h</text>
</a>
</g>
</g>
<!-- Node323&#45;&gt;Node10 -->
<g id="edge15" class="edge">
<title>Node323&#45;&gt;Node10</title>
<path fill="none" stroke="#191970" d="M3856.0817,-264.2445C3600.9503,-253.7771 2695.1305,-216.6137 2473.4659,-207.5194"/>
<polygon fill="#191970" stroke="#191970" points="3856.1774,-267.7513 3866.3125,-264.6642 3856.4644,-260.7571 3856.1774,-267.7513"/>
</g>
<!-- Node307 -->
<g id="node39" class="node">
<title>Node307</title>
<g id="a_node39"><a xlink:href="sitkCenteredTransformInitializerFilter_8h.html" target="_top" xlink:title=" ">
<polygon fill="#ffffff" stroke="#000000" points="3492.7446,-190.5 3492.7446,-220.5 3665.7446,-220.5 3665.7446,-190.5 3492.7446,-190.5"/>
<text text-anchor="start" x="3500.7446" y="-208.5" font-family="Helvetica,sans-Serif" font-size="10.00" fill="#000000">sitkCenteredTransformInitializer</text>
<text text-anchor="middle" x="3579.2446" y="-197.5" font-family="Helvetica,sans-Serif" font-size="10.00" fill="#000000">Filter.h</text>
</a>
</g>
</g>
<!-- Node323&#45;&gt;Node307 -->
<g id="edge94" class="edge">
<title>Node323&#45;&gt;Node307</title>
<path fill="none" stroke="#191970" d="M3859.8525,-255.6668C3804.5565,-245.781 3723.9146,-231.364 3663.2551,-220.5193"/>
<polygon fill="#191970" stroke="#191970" points="3859.4121,-259.1435 3869.872,-257.4581 3860.6441,-252.2528 3859.4121,-259.1435"/>
</g>
<!-- Node308 -->
<g id="node40" class="node">
<title>Node308</title>
<g id="a_node40"><a xlink:href="sitkCenteredVersorTransformInitializerFilter_8h.html" target="_top" xlink:title=" ">
<polygon fill="#ffffff" stroke="#000000" points="3278.2446,-190.5 3278.2446,-220.5 3436.2446,-220.5 3436.2446,-190.5 3278.2446,-190.5"/>
<text text-anchor="start" x="3286.2446" y="-208.5" font-family="Helvetica,sans-Serif" font-size="10.00" fill="#000000">sitkCenteredVersorTransform</text>
<text text-anchor="middle" x="3357.2446" y="-197.5" font-family="Helvetica,sans-Serif" font-size="10.00" fill="#000000">InitializerFilter.h</text>
</a>
</g>
</g>
<!-- Node323&#45;&gt;Node308 -->
<g id="edge96" class="edge">
<title>Node323&#45;&gt;Node308</title>
<path fill="none" stroke="#191970" d="M3856.4264,-260.3971C3770.1649,-251.785 3615.4254,-236.0384 3483.2446,-221 3468.1346,-219.2809 3452.0162,-217.3625 3436.5309,-215.4771"/>
<polygon fill="#191970" stroke="#191970" points="3856.3026,-263.902 3866.6006,-261.4115 3856.9972,-256.9365 3856.3026,-263.902"/>
</g>
<!-- Node323&#45;&gt;Node328 -->
<g id="edge100" class="edge">
<title>Node323&#45;&gt;Node328</title>
<path fill="none" stroke="#191970" d="M3966.1659,-254.5488C4006.4141,-242.873 4065.7319,-225.6652 4102.3522,-215.0419"/>
<polygon fill="#191970" stroke="#191970" points="3964.9985,-251.2431 3956.3696,-257.3906 3966.9488,-257.9659 3964.9985,-251.2431"/>
</g>
<!-- Node323&#45;&gt;Node329 -->
<g id="edge102" class="edge">
<title>Node323&#45;&gt;Node329</title>
<path fill="none" stroke="#191970" d="M3932.0846,-248.253C3937.2209,-237.3606 3943.4811,-224.0846 3947.6495,-215.2449"/>
<polygon fill="#191970" stroke="#191970" points="3928.8753,-246.853 3927.7759,-257.3906 3935.2067,-249.8386 3928.8753,-246.853"/>
</g>
<!-- Node323&#45;&gt;Node330 -->
<g id="edge104" class="edge">
<title>Node323&#45;&gt;Node330</title>
<path fill="none" stroke="#191970" d="M3884.6859,-254.2507C3849.3945,-242.5818 3797.9599,-225.5752 3766.103,-215.0419"/>
<polygon fill="#191970" stroke="#191970" points="3883.5889,-257.5743 3894.1821,-257.3906 3885.7864,-250.9282 3883.5889,-257.5743"/>
</g>
<!-- Node323&#45;&gt;Node331 -->
<g id="edge106" class="edge">
<title>Node323&#45;&gt;Node331</title>
<path fill="none" stroke="#191970" d="M3989.8917,-259.594C4047.2843,-252.3868 4132.0262,-239.7572 4204.2446,-221 4210.3891,-219.4041 4216.8925,-217.292 4222.9305,-215.1421"/>
<polygon fill="#191970" stroke="#191970" points="3989.3537,-256.1337 3979.8583,-260.8336 3990.2121,-263.0809 3989.3537,-256.1337"/>
</g>
<!-- Node10&#45;&gt;Node3 -->
<g id="edge23" class="edge">
<title>Node10&#45;&gt;Node3</title>
<path fill="none" stroke="#191970" d="M2483.3439,-204.5499C2755.4119,-200.0388 3875.2126,-179.9206 3900.2446,-154 3909.8156,-144.0892 3905.2394,-135.8405 3900.2446,-123 3892.376,-102.7714 3875.1132,-107.2286 3867.2446,-87 3862.2498,-74.1595 3858.3421,-66.5153 3867.2446,-56 3882.4339,-38.0589 4032.9065,-20.8598 4104.614,-13.6065"/>
<polygon fill="#191970" stroke="#191970" points="2483.2141,-201.0514 2473.2733,-204.7161 2483.3297,-208.0505 2483.2141,-201.0514"/>
</g>
<!-- Node10&#45;&gt;Node6 -->
<g id="edge20" class="edge">
<title>Node10&#45;&gt;Node6</title>
<path fill="none" stroke="#191970" d="M2483.4203,-204.5994C2690.7635,-201.2211 3403.6579,-187.7295 3991.2446,-154 4033.9737,-151.5472 4082.0442,-147.5885 4119.0125,-144.2858"/>
<polygon fill="#191970" stroke="#191970" points="2483.2968,-201.1008 2473.3546,-204.7619 2483.4098,-208.0999 2483.2968,-201.1008"/>
</g>
<!-- Node9 -->
<g id="node11" class="node">
<title>Node9</title>
<g id="a_node11"><a xlink:href="sitkBSplineTransformInitializerFilter_8h.html" target="_top" xlink:title=" ">
<polygon fill="#ffffff" stroke="#000000" points="3654.2446,-56.5 3654.2446,-86.5 3820.2446,-86.5 3820.2446,-56.5 3654.2446,-56.5"/>
<text text-anchor="start" x="3662.2446" y="-74.5" font-family="Helvetica,sans-Serif" font-size="10.00" fill="#000000">sitkBSplineTransformInitializer</text>
<text text-anchor="middle" x="3737.2446" y="-63.5" font-family="Helvetica,sans-Serif" font-size="10.00" fill="#000000">Filter.h</text>
</a>
</g>
</g>
<!-- Node10&#45;&gt;Node9 -->
<g id="edge16" class="edge">
<title>Node10&#45;&gt;Node9</title>
<path fill="none" stroke="#191970" d="M2483.4708,-204.5202C2753.5756,-199.9144 3856.5674,-179.5649 3881.2446,-154 3911.0599,-123.1122 3857.3868,-100.232 3807.3108,-86.5016"/>
<polygon fill="#191970" stroke="#191970" points="2483.4076,-201.0207 2473.4685,-204.69 2483.5265,-208.0196 2483.4076,-201.0207"/>
</g>
<!-- Node11 -->
<g id="node12" class="node">
<title>Node11</title>
<g id="a_node12"><a xlink:href="sitkCastImageFilter_8h.html" target="_top" xlink:title=" ">
<polygon fill="#ffffff" stroke="#000000" points="3753.7446,-129 3753.7446,-148 3872.7446,-148 3872.7446,-129 3753.7446,-129"/>
<text text-anchor="middle" x="3813.2446" y="-136" font-family="Helvetica,sans-Serif" font-size="10.00" fill="#000000">sitkCastImageFilter.h</text>
</a>
</g>
</g>
<!-- Node10&#45;&gt;Node11 -->
<g id="edge18" class="edge">
<title>Node10&#45;&gt;Node11</title>
<path fill="none" stroke="#191970" d="M2483.6951,-204.6186C2706.9714,-201.085 3495.3479,-186.5356 3744.2446,-154 3754.8361,-152.6155 3766.1977,-150.3819 3776.5828,-148.0361"/>
<polygon fill="#191970" stroke="#191970" points="2483.4383,-201.1221 2473.4945,-204.7786 2483.5482,-208.1213 2483.4383,-201.1221"/>
</g>
<!-- Node12 -->
<g id="node13" class="node">
<title>Node12</title>
<g id="a_node13"><a xlink:href="sitkLandmarkBasedTransformInitializerFilter_8h.html" target="_top" xlink:title=" ">
<polygon fill="#ffffff" stroke="#000000" points="3876.2446,-56.5 3876.2446,-86.5 4038.2446,-86.5 4038.2446,-56.5 3876.2446,-56.5"/>
<text text-anchor="start" x="3884.2446" y="-74.5" font-family="Helvetica,sans-Serif" font-size="10.00" fill="#000000">sitkLandmarkBasedTransform</text>
<text text-anchor="middle" x="3957.2446" y="-63.5" font-family="Helvetica,sans-Serif" font-size="10.00" fill="#000000">InitializerFilter.h</text>
</a>
</g>
</g>
<!-- Node10&#45;&gt;Node12 -->
<g id="edge21" class="edge">
<title>Node10&#45;&gt;Node12</title>
<path fill="none" stroke="#191970" d="M2483.5942,-204.5913C2762.0468,-200.1938 3926.5979,-180.2558 3953.2446,-154 3970.8133,-136.689 3966.5797,-105.3978 3961.9099,-86.7268"/>
<polygon fill="#191970" stroke="#191970" points="2483.2402,-201.0963 2473.2965,-204.7532 2483.3503,-208.0955 2483.2402,-201.0963"/>
</g>
<!-- Node13 -->
<g id="node14" class="node">
<title>Node13</title>
<g id="a_node14"><a xlink:href="sitkAbsImageFilter_8h.html" target="_top" xlink:title=" ">
<polygon fill="#ffffff" stroke="#000000" points="2134.2446,-129 2134.2446,-148 2250.2446,-148 2250.2446,-129 2134.2446,-129"/>
<text text-anchor="middle" x="2192.2446" y="-136" font-family="Helvetica,sans-Serif" font-size="10.00" fill="#000000">sitkAbsImageFilter.h</text>
</a>
</g>
</g>
<!-- Node10&#45;&gt;Node13 -->
<g id="edge24" class="edge">
<title>Node10&#45;&gt;Node13</title>
<path fill="none" stroke="#191970" d="M2381.2309,-193.0779C2336.181,-180.0678 2266.3962,-159.9145 2225.4229,-148.0817"/>
<polygon fill="#191970" stroke="#191970" points="2380.4262,-196.4885 2391.0047,-195.9005 2382.3684,-189.7633 2380.4262,-196.4885"/>
</g>
<!-- Node16 -->
<g id="node17" class="node">
<title>Node16</title>
<g id="a_node17"><a xlink:href="sitkAbsoluteValueDifferenceImageFilter_8h.html" target="_top" xlink:title=" ">
<polygon fill="#ffffff" stroke="#000000" points="2268.7446,-123.5 2268.7446,-153.5 2423.7446,-153.5 2423.7446,-123.5 2268.7446,-123.5"/>
<text text-anchor="start" x="2276.7446" y="-141.5" font-family="Helvetica,sans-Serif" font-size="10.00" fill="#000000">sitkAbsoluteValueDifference</text>
<text text-anchor="middle" x="2346.2446" y="-130.5" font-family="Helvetica,sans-Serif" font-size="10.00" fill="#000000">ImageFilter.h</text>
</a>
</g>
</g>
<!-- Node10&#45;&gt;Node16 -->
<g id="edge28" class="edge">
<title>Node10&#45;&gt;Node16</title>
<path fill="none" stroke="#191970" d="M2405.3863,-189.3012C2392.7078,-178.4107 2376.115,-164.1579 2363.7326,-153.5218"/>
<polygon fill="#191970" stroke="#191970" points="2403.2028,-192.0396 2413.0691,-195.9005 2407.764,-186.7296 2403.2028,-192.0396"/>
</g>
<!-- Node17 -->
<g id="node18" class="node">
<title>Node17</title>
<g id="a_node18"><a xlink:href="sitkAcosImageFilter_8h.html" target="_top" xlink:title=" ">
<polygon fill="#ffffff" stroke="#000000" points="2441.7446,-129 2441.7446,-148 2562.7446,-148 2562.7446,-129 2441.7446,-129"/>
<text text-anchor="middle" x="2502.2446" y="-136" font-family="Helvetica,sans-Serif" font-size="10.00" fill="#000000">sitkAcosImageFilter.h</text>
</a>
</g>
</g>
<!-- Node10&#45;&gt;Node17 -->
<g id="edge31" class="edge">
<title>Node10&#45;&gt;Node17</title>
<path fill="none" stroke="#191970" d="M2443.1052,-189.2992C2458.107,-176.4131 2478.5877,-158.8207 2491.0898,-148.0817"/>
<polygon fill="#191970" stroke="#191970" points="2440.7252,-186.7296 2435.4201,-195.9005 2445.2864,-192.0396 2440.7252,-186.7296"/>
</g>
<!-- Node18 -->
<g id="node19" class="node">
<title>Node18</title>
<g id="a_node19"><a xlink:href="sitkAdaptiveHistogramEqualizationImageFilter_8h.html" target="_top" xlink:title=" ">
<polygon fill="#ffffff" stroke="#000000" points="2580.7446,-123.5 2580.7446,-153.5 2769.7446,-153.5 2769.7446,-123.5 2580.7446,-123.5"/>
<text text-anchor="start" x="2588.7446" y="-141.5" font-family="Helvetica,sans-Serif" font-size="10.00" fill="#000000">sitkAdaptiveHistogramEqualization</text>
<text text-anchor="middle" x="2675.2446" y="-130.5" font-family="Helvetica,sans-Serif" font-size="10.00" fill="#000000">ImageFilter.h</text>
</a>
</g>
</g>
<!-- Node10&#45;&gt;Node18 -->
<g id="edge34" class="edge">
<title>Node10&#45;&gt;Node18</title>
<path fill="none" stroke="#191970" d="M2469.8603,-193.3237C2511.7226,-182.1493 2573.8794,-165.5576 2618.8432,-153.5553"/>
<polygon fill="#191970" stroke="#191970" points="2468.6993,-190.011 2459.9402,-195.9717 2470.5046,-196.7742 2468.6993,-190.011"/>
</g>
<!-- Node19 -->
<g id="node20" class="node">
<title>Node19</title>
<g id="a_node20"><a xlink:href="sitkAddImageFilter_8h.html" target="_top" xlink:title=" ">
<polygon fill="#ffffff" stroke="#ff0000" points="2788.2446,-129 2788.2446,-148 2904.2446,-148 2904.2446,-129 2788.2446,-129"/>
<text text-anchor="middle" x="2846.2446" y="-136" font-family="Helvetica,sans-Serif" font-size="10.00" fill="#000000">sitkAddImageFilter.h</text>
</a>
</g>
</g>
<!-- Node10&#45;&gt;Node19 -->
<g id="edge37" class="edge">
<title>Node10&#45;&gt;Node19</title>
<path fill="none" stroke="#191970" d="M2483.4333,-198.3537C2553.9226,-189.5054 2675.0997,-173.2267 2778.2446,-154 2787.5292,-152.2693 2797.4687,-150.1543 2806.8022,-148.0499"/>
<polygon fill="#191970" stroke="#191970" points="2482.8987,-194.8932 2473.4092,-199.6048 2483.7657,-201.8393 2482.8987,-194.8932"/>
</g>
<!-- Node21 -->
<g id="node21" class="node">
<title>Node21</title>
<g id="a_node21"><a xlink:href="sitkAdditiveGaussianNoiseImageFilter_8h.html" target="_top" xlink:title=" ">
<polygon fill="#ffffff" stroke="#000000" points="2922.2446,-123.5 2922.2446,-153.5 3070.2446,-153.5 3070.2446,-123.5 2922.2446,-123.5"/>
<text text-anchor="start" x="2930.2446" y="-141.5" font-family="Helvetica,sans-Serif" font-size="10.00" fill="#000000">sitkAdditiveGaussianNoise</text>
<text text-anchor="middle" x="2996.2446" y="-130.5" font-family="Helvetica,sans-Serif" font-size="10.00" fill="#000000">ImageFilter.h</text>
</a>
</g>
</g>
<!-- Node10&#45;&gt;Node21 -->
<g id="edge40" class="edge">
<title>Node10&#45;&gt;Node21</title>
<path fill="none" stroke="#191970" d="M2483.306,-200.8098C2575.4164,-193.1508 2758.75,-176.5246 2913.2446,-154 2916.1457,-153.577 2919.1001,-153.1256 2922.0817,-152.6526"/>
<polygon fill="#191970" stroke="#191970" points="2483.0159,-197.3218 2473.338,-201.6332 2483.5922,-204.298 2483.0159,-197.3218"/>
</g>
<!-- Node22 -->
<g id="node22" class="node">
<title>Node22</title>
<g id="a_node22"><a xlink:href="sitkAggregateLabelMapFilter_8h.html" target="_top" xlink:title=" ">
<polygon fill="#ffffff" stroke="#000000" points="3088.2446,-129 3088.2446,-148 3252.2446,-148 3252.2446,-129 3088.2446,-129"/>
<text text-anchor="middle" x="3170.2446" y="-136" font-family="Helvetica,sans-Serif" font-size="10.00" fill="#000000">sitkAggregateLabelMapFilter.h</text>
</a>
</g>
</g>
<!-- Node10&#45;&gt;Node22 -->
<g id="edge43" class="edge">
<title>Node10&#45;&gt;Node22</title>
<path fill="none" stroke="#191970" d="M2483.2941,-202.6471C2598.314,-196.6946 2860.3089,-181.1963 3079.2446,-154 3092.2858,-152.38 3106.3091,-150.2075 3119.3473,-148.0027"/>
<polygon fill="#191970" stroke="#191970" points="2483.0944,-199.1527 2473.2867,-203.1601 2483.4528,-206.1435 2483.0944,-199.1527"/>
</g>
<!-- Node23 -->
<g id="node23" class="node">
<title>Node23</title>
<g id="a_node23"><a xlink:href="sitkAndImageFilter_8h.html" target="_top" xlink:title=" ">
<polygon fill="#ffffff" stroke="#ff0000" points="3270.2446,-129 3270.2446,-148 3386.2446,-148 3386.2446,-129 3270.2446,-129"/>
<text text-anchor="middle" x="3328.2446" y="-136" font-family="Helvetica,sans-Serif" font-size="10.00" fill="#000000">sitkAndImageFilter.h</text>
</a>
</g>
</g>
<!-- Node10&#45;&gt;Node23 -->
<g id="edge46" class="edge">
<title>Node10&#45;&gt;Node23</title>
<path fill="none" stroke="#191970" d="M2483.7944,-203.1231C2649.0119,-196.3233 3110.8399,-175.8703 3261.2446,-154 3271.2873,-152.5397 3282.0474,-150.3403 3291.9414,-148.0537"/>
<polygon fill="#191970" stroke="#191970" points="2483.1955,-199.6446 2473.3472,-203.5511 2483.4821,-206.6387 2483.1955,-199.6446"/>
</g>
<!-- Node24 -->
<g id="node24" class="node">
<title>Node24</title>
<g id="a_node24"><a xlink:href="sitkAntiAliasBinaryImageFilter_8h.html" target="_top" xlink:title=" ">
<polygon fill="#ffffff" stroke="#000000" points="3404.2446,-123.5 3404.2446,-153.5 3544.2446,-153.5 3544.2446,-123.5 3404.2446,-123.5"/>
<text text-anchor="start" x="3412.2446" y="-141.5" font-family="Helvetica,sans-Serif" font-size="10.00" fill="#000000">sitkAntiAliasBinaryImage</text>
<text text-anchor="middle" x="3474.2446" y="-130.5" font-family="Helvetica,sans-Serif" font-size="10.00" fill="#000000">Filter.h</text>
</a>
</g>
</g>
<!-- Node10&#45;&gt;Node24 -->
<g id="edge49" class="edge">
<title>Node10&#45;&gt;Node24</title>
<path fill="none" stroke="#191970" d="M2483.723,-203.445C2666.3416,-196.9616 3217.3464,-176.0584 3395.2446,-154 3398.1574,-153.6388 3401.124,-153.2326 3404.1158,-152.7912"/>
<polygon fill="#191970" stroke="#191970" points="2483.3796,-199.9548 2473.5095,-203.8062 2483.627,-206.9505 2483.3796,-199.9548"/>
</g>
<!-- Node25 -->
<g id="node25" class="node">
<title>Node25</title>
<g id="a_node25"><a xlink:href="sitkApproximateSignedDistanceMapImageFilter_8h.html" target="_top" xlink:title=" ">
<polygon fill="#ffffff" stroke="#000000" points="3562.7446,-123.5 3562.7446,-153.5 3735.7446,-153.5 3735.7446,-123.5 3562.7446,-123.5"/>
<text text-anchor="start" x="3570.7446" y="-141.5" font-family="Helvetica,sans-Serif" font-size="10.00" fill="#000000">sitkApproximateSignedDistance</text>
<text text-anchor="middle" x="3649.2446" y="-130.5" font-family="Helvetica,sans-Serif" font-size="10.00" fill="#000000">MapImageFilter.h</text>
</a>
</g>
</g>
<!-- Node10&#45;&gt;Node25 -->
<g id="edge52" class="edge">
<title>Node10&#45;&gt;Node25</title>
<path fill="none" stroke="#191970" d="M2483.5851,-203.6922C2685.1542,-197.4106 3342.7015,-175.7269 3553.2446,-154 3556.3514,-153.6794 3559.5105,-153.3242 3562.6981,-152.941"/>
<polygon fill="#191970" stroke="#191970" points="2483.3759,-200.197 2473.4894,-204.0058 2483.5933,-207.1936 2483.3759,-200.197"/>
</g>
<!-- Node26 -->
<g id="node26" class="node">
<title>Node26</title>
<g id="a_node26"><a xlink:href="sitkAsinImageFilter_8h.html" target="_top" xlink:title=" ">
<polygon fill="#ffffff" stroke="#000000" points="1996.7446,-129 1996.7446,-148 2115.7446,-148 2115.7446,-129 1996.7446,-129"/>
<text text-anchor="middle" x="2056.2446" y="-136" font-family="Helvetica,sans-Serif" font-size="10.00" fill="#000000">sitkAsinImageFilter.h</text>
</a>
</g>
</g>
<!-- Node10&#45;&gt;Node26 -->
<g id="edge55" class="edge">
<title>Node10&#45;&gt;Node26</title>
<path fill="none" stroke="#191970" d="M2365.0434,-196.2061C2304.604,-186.5061 2208.1545,-170.4417 2125.2446,-154 2116.0918,-152.1849 2106.2922,-150.0815 2097.0365,-148.0208"/>
<polygon fill="#191970" stroke="#191970" points="2364.7344,-199.7011 2375.1617,-197.8245 2365.84,-192.7889 2364.7344,-199.7011"/>
</g>
<!-- Node64 -->
<g id="node27" class="node">
<title>Node64</title>
<g id="a_node27"><a xlink:href="sitkClampImageFilter_8h.html" target="_top" xlink:title=" ">
<polygon fill="#ffffff" stroke="#000000" points="1849.7446,-129 1849.7446,-148 1978.7446,-148 1978.7446,-129 1849.7446,-129"/>
<text text-anchor="middle" x="1914.2446" y="-136" font-family="Helvetica,sans-Serif" font-size="10.00" fill="#000000">sitkClampImageFilter.h</text>
</a>
</g>
</g>
<!-- Node10&#45;&gt;Node64 -->
<g id="edge58" class="edge">
<title>Node10&#45;&gt;Node64</title>
<path fill="none" stroke="#191970" d="M2365.0713,-200.2674C2280.8354,-192.4238 2121.6518,-176.141 1987.2446,-154 1977.0175,-152.3153 1966.0535,-150.1698 1955.8118,-148.0162"/>
<polygon fill="#191970" stroke="#191970" points="2364.9334,-203.7695 2375.2131,-201.2046 2365.5776,-196.7991 2364.9334,-203.7695"/>
</g>
<!-- Node158 -->
<g id="node28" class="node">
<title>Node158</title>
<g id="a_node28"><a xlink:href="sitkLabelIntensityStatisticsImageFilter_8h.html" target="_top" xlink:title=" ">
<polygon fill="#ffffff" stroke="#000000" points="40.7446,-123.5 40.7446,-153.5 189.7446,-153.5 189.7446,-123.5 40.7446,-123.5"/>
<text text-anchor="start" x="48.7446" y="-141.5" font-family="Helvetica,sans-Serif" font-size="10.00" fill="#000000">sitkLabelIntensityStatistics</text>
<text text-anchor="middle" x="115.2446" y="-130.5" font-family="Helvetica,sans-Serif" font-size="10.00" fill="#000000">ImageFilter.h</text>
</a>
</g>
</g>
<!-- Node10&#45;&gt;Node158 -->
<g id="edge61" class="edge">
<title>Node10&#45;&gt;Node158</title>
<path fill="none" stroke="#191970" d="M2365.0761,-204.2626C2017.4131,-196.9756 253.6887,-159.7801 198.2446,-154 195.4744,-153.7112 192.6583,-153.3799 189.8182,-153.014"/>
<polygon fill="#191970" stroke="#191970" points="2365.1131,-207.764 2375.1842,-204.4744 2365.2598,-200.7655 2365.1131,-207.764"/>
</g>
<!-- Node159 -->
<g id="node29" class="node">
<title>Node159</title>
<g id="a_node29"><a xlink:href="sitkLabelMapContourOverlayImageFilter_8h.html" target="_top" xlink:title=" ">
<polygon fill="#ffffff" stroke="#000000" points="207.2446,-123.5 207.2446,-153.5 365.2446,-153.5 365.2446,-123.5 207.2446,-123.5"/>
<text text-anchor="start" x="215.2446" y="-141.5" font-family="Helvetica,sans-Serif" font-size="10.00" fill="#000000">sitkLabelMapContourOverlay</text>
<text text-anchor="middle" x="286.2446" y="-130.5" font-family="Helvetica,sans-Serif" font-size="10.00" fill="#000000">ImageFilter.h</text>
</a>
</g>
</g>
<!-- Node10&#45;&gt;Node159 -->
<g id="edge64" class="edge">
<title>Node10&#45;&gt;Node159</title>
<path fill="none" stroke="#191970" d="M2364.6148,-204.2532C2037.8812,-197.3896 475.7081,-164.1529 374.2446,-154 371.3118,-153.7065 368.3296,-153.3712 365.3214,-153.002"/>
<polygon fill="#191970" stroke="#191970" points="2364.7469,-207.7566 2374.8182,-204.4674 2364.8939,-200.7582 2364.7469,-207.7566"/>
</g>
<!-- Node160 -->
<g id="node30" class="node">
<title>Node160</title>
<g id="a_node30"><a xlink:href="sitkLabelMapMaskImageFilter_8h.html" target="_top" xlink:title=" ">
<polygon fill="#ffffff" stroke="#000000" points="383.2446,-129 383.2446,-148 553.2446,-148 553.2446,-129 383.2446,-129"/>
<text text-anchor="middle" x="468.2446" y="-136" font-family="Helvetica,sans-Serif" font-size="10.00" fill="#000000">sitkLabelMapMaskImageFilter.h</text>
</a>
</g>
</g>
<!-- Node10&#45;&gt;Node160 -->
<g id="edge67" class="edge">
<title>Node10&#45;&gt;Node160</title>
<path fill="none" stroke="#191970" d="M2364.7488,-204.3359C2066.9012,-198.4436 744.8771,-171.5015 562.2446,-154 547.9206,-152.6273 532.476,-150.3975 518.3268,-148.0516"/>
<polygon fill="#191970" stroke="#191970" points="2364.8413,-207.8383 2374.9085,-204.5366 2364.9796,-200.8397 2364.8413,-207.8383"/>
</g>
<!-- Node161 -->
<g id="node31" class="node">
<title>Node161</title>
<g id="a_node31"><a xlink:href="sitkLabelMapOverlayImageFilter_8h.html" target="_top" xlink:title=" ">
<polygon fill="#ffffff" stroke="#000000" points="571.2446,-123.5 571.2446,-153.5 721.2446,-153.5 721.2446,-123.5 571.2446,-123.5"/>
<text text-anchor="start" x="579.2446" y="-141.5" font-family="Helvetica,sans-Serif" font-size="10.00" fill="#000000">sitkLabelMapOverlayImage</text>
<text text-anchor="middle" x="646.2446" y="-130.5" font-family="Helvetica,sans-Serif" font-size="10.00" fill="#000000">Filter.h</text>
</a>
</g>
</g>
<!-- Node10&#45;&gt;Node161 -->
<g id="edge70" class="edge">
<title>Node10&#45;&gt;Node161</title>
<path fill="none" stroke="#191970" d="M2364.7705,-204.2295C2083.6865,-198.1526 895.1622,-171.619 730.2446,-154 727.2955,-153.6849 724.2945,-153.3245 721.2677,-152.9277"/>
<polygon fill="#191970" stroke="#191970" points="2365.0861,-207.7371 2375.1593,-204.4537 2365.2372,-200.7387 2365.0861,-207.7371"/>
</g>
<!-- Node166 -->
<g id="node32" class="node">
<title>Node166</title>
<g id="a_node32"><a xlink:href="sitkLabelOverlayImageFilter_8h.html" target="_top" xlink:title=" ">
<polygon fill="#ffffff" stroke="#000000" points="739.2446,-129 739.2446,-148 901.2446,-148 901.2446,-129 739.2446,-129"/>
<text text-anchor="middle" x="820.2446" y="-136" font-family="Helvetica,sans-Serif" font-size="10.00" fill="#000000">sitkLabelOverlayImageFilter.h</text>
</a>
</g>
</g>
<!-- Node10&#45;&gt;Node166 -->
<g id="edge73" class="edge">
<title>Node10&#45;&gt;Node166</title>
<path fill="none" stroke="#191970" d="M2365.1744,-204.5701C2122.3297,-200.5801 1200.0825,-183.7472 910.2446,-154 896.5228,-152.5917 881.7331,-150.3504 868.1861,-148.005"/>
<polygon fill="#191970" stroke="#191970" points="2365.1584,-208.0702 2375.2143,-204.734 2365.2728,-201.0711 2365.1584,-208.0702"/>
</g>
<!-- Node168 -->
<g id="node33" class="node">
<title>Node168</title>
<g id="a_node33"><a xlink:href="sitkLabelStatisticsImageFilter_8h.html" target="_top" xlink:title=" ">
<polygon fill="#ffffff" stroke="#000000" points="919.7446,-123.5 919.7446,-153.5 1056.7446,-153.5 1056.7446,-123.5 919.7446,-123.5"/>
<text text-anchor="start" x="927.7446" y="-141.5" font-family="Helvetica,sans-Serif" font-size="10.00" fill="#000000">sitkLabelStatisticsImage</text>
<text text-anchor="middle" x="988.2446" y="-130.5" font-family="Helvetica,sans-Serif" font-size="10.00" fill="#000000">Filter.h</text>
</a>
</g>
</g>
<!-- Node10&#45;&gt;Node168 -->
<g id="edge76" class="edge">
<title>Node10&#45;&gt;Node168</title>
<path fill="none" stroke="#191970" d="M2364.9401,-204.5224C2137.7298,-200.5797 1322.5636,-184.5734 1065.2446,-154 1062.5364,-153.6782 1059.7814,-153.3121 1057.0034,-152.9106"/>
<polygon fill="#191970" stroke="#191970" points="2364.9367,-208.0227 2374.9955,-204.6956 2365.0573,-201.0238 2364.9367,-208.0227"/>
</g>
<!-- Node184 -->
<g id="node34" class="node">
<title>Node184</title>
<g id="a_node34"><a xlink:href="sitkMaskImageFilter_8h.html" target="_top" xlink:title=" ">
<polygon fill="#ffffff" stroke="#000000" points="1074.7446,-129 1074.7446,-148 1197.7446,-148 1197.7446,-129 1074.7446,-129"/>
<text text-anchor="middle" x="1136.2446" y="-136" font-family="Helvetica,sans-Serif" font-size="10.00" fill="#000000">sitkMaskImageFilter.h</text>
</a>
</g>
</g>
<!-- Node10&#45;&gt;Node184 -->
<g id="edge79" class="edge">
<title>Node10&#45;&gt;Node184</title>
<path fill="none" stroke="#191970" d="M2364.8788,-204.3719C2152.9681,-200.1296 1434.289,-183.8336 1206.2446,-154 1195.5071,-152.5953 1183.9832,-150.3552 1173.4475,-148.0097"/>
<polygon fill="#191970" stroke="#191970" points="2365.1054,-207.877 2375.173,-204.5765 2365.2446,-200.8784 2365.1054,-207.877"/>
</g>
<!-- Node203 -->
<g id="node35" class="node">
<title>Node203</title>
<g id="a_node35"><a xlink:href="sitkMorphologicalWatershedFromMarkersImageFilter_8h.html" target="_top" xlink:title=" ">
<polygon fill="#ffffff" stroke="#000000" points="1215.7446,-123.5 1215.7446,-153.5 1370.7446,-153.5 1370.7446,-123.5 1215.7446,-123.5"/>
<text text-anchor="start" x="1223.7446" y="-141.5" font-family="Helvetica,sans-Serif" font-size="10.00" fill="#000000">sitkMorphologicalWatershed</text>
<text text-anchor="middle" x="1293.2446" y="-130.5" font-family="Helvetica,sans-Serif" font-size="10.00" fill="#000000">FromMarkersImageFilter.h</text>
</a>
</g>
</g>
<!-- Node10&#45;&gt;Node203 -->
<g id="edge82" class="edge">
<title>Node10&#45;&gt;Node203</title>
<path fill="none" stroke="#191970" d="M2364.9077,-203.5667C2173.4361,-197.1716 1573.2394,-175.8627 1380.2446,-154 1377.1957,-153.6546 1374.0922,-153.2686 1370.9612,-152.8504"/>
<polygon fill="#191970" stroke="#191970" points="2364.9451,-207.0697 2375.056,-203.9044 2365.178,-200.0736 2364.9451,-207.0697"/>
</g>
<!-- Node240 -->
<g id="node36" class="node">
<title>Node240</title>
<g id="a_node36"><a xlink:href="sitkResampleImageFilter_8h.html" target="_top" xlink:title=" ">
<polygon fill="#ffffff" stroke="#000000" points="1389.2446,-129 1389.2446,-148 1535.2446,-148 1535.2446,-129 1389.2446,-129"/>
<text text-anchor="middle" x="1462.2446" y="-136" font-family="Helvetica,sans-Serif" font-size="10.00" fill="#000000">sitkResampleImageFilter.h</text>
</a>
</g>
</g>
<!-- Node10&#45;&gt;Node240 -->
<g id="edge85" class="edge">
<title>Node10&#45;&gt;Node240</title>
<path fill="none" stroke="#191970" d="M2364.6549,-204.6477C2222.2862,-202.0383 1851.3508,-191.8529 1544.2446,-154 1532.1659,-152.5112 1519.1853,-150.3306 1507.195,-148.0725"/>
<polygon fill="#191970" stroke="#191970" points="2364.8487,-208.1516 2374.9093,-204.8297 2364.973,-201.1527 2364.8487,-208.1516"/>
</g>
<!-- Node293 -->
<g id="node37" class="node">
<title>Node293</title>
<g id="a_node37"><a xlink:href="sitkVectorIndexSelectionCastImageFilter_8h.html" target="_top" xlink:title=" ">
<polygon fill="#ffffff" stroke="#000000" points="1553.7446,-123.5 1553.7446,-153.5 1690.7446,-153.5 1690.7446,-123.5 1553.7446,-123.5"/>
<text text-anchor="start" x="1561.7446" y="-141.5" font-family="Helvetica,sans-Serif" font-size="10.00" fill="#000000">sitkVectorIndexSelection</text>
<text text-anchor="middle" x="1622.2446" y="-130.5" font-family="Helvetica,sans-Serif" font-size="10.00" fill="#000000">CastImageFilter.h</text>
</a>
</g>
</g>
<!-- Node10&#45;&gt;Node293 -->
<g id="edge88" class="edge">
<title>Node10&#45;&gt;Node293</title>
<path fill="none" stroke="#191970" d="M2364.8199,-203.7904C2240.8139,-199.67 1945.6229,-186.9759 1700.2446,-154 1697.2343,-153.5954 1694.1652,-153.1459 1691.0699,-152.6622"/>
<polygon fill="#191970" stroke="#191970" points="2364.7587,-207.2901 2374.8674,-204.1178 2364.9868,-200.2938 2364.7587,-207.2901"/>
</g>
<!-- Node298 -->
<g id="node38" class="node">
<title>Node298</title>
<g id="a_node38"><a xlink:href="sitkWarpImageFilter_8h.html" target="_top" xlink:title=" ">
<polygon fill="#ffffff" stroke="#000000" points="1709.2446,-129 1709.2446,-148 1831.2446,-148 1831.2446,-129 1709.2446,-129"/>
<text text-anchor="middle" x="1770.2446" y="-136" font-family="Helvetica,sans-Serif" font-size="10.00" fill="#000000">sitkWarpImageFilter.h</text>
</a>
</g>
</g>
<!-- Node10&#45;&gt;Node298 -->
<g id="edge91" class="edge">
<title>Node10&#45;&gt;Node298</title>
<path fill="none" stroke="#191970" d="M2364.9877,-202.8232C2259.1413,-197.4759 2030.8123,-183.3738 1840.2446,-154 1830.0341,-152.4262 1819.0862,-150.2435 1808.9524,-148.0123"/>
<polygon fill="#191970" stroke="#191970" points="2364.9868,-206.3274 2375.1483,-203.3285 2365.3345,-199.3361 2364.9868,-206.3274"/>
</g>
<!-- Node9&#45;&gt;Node3 -->
<g id="edge17" class="edge">
<title>Node9&#45;&gt;Node3</title>
<path fill="none" stroke="#191970" d="M3830.3785,-56.5989C3831.6755,-56.3975 3832.9648,-56.1978 3834.2446,-56 3931.4887,-40.9692 4046.1369,-24.0604 4104.2925,-15.541"/>
<polygon fill="#191970" stroke="#191970" points="3829.6524,-53.1697 3820.3114,-58.1694 3830.7314,-60.0861 3829.6524,-53.1697"/>
</g>
<!-- Node11&#45;&gt;Node3 -->
<g id="edge19" class="edge">
<title>Node11&#45;&gt;Node3</title>
<path fill="none" stroke="#191970" d="M3763.656,-126.4729C3716.7725,-114.6038 3652.5255,-96.8472 3645.2446,-87 3637.0534,-75.9216 3635.962,-66.1814 3645.2446,-56 3676.0409,-22.2218 3993.7017,-12.8754 4104.4277,-10.6332"/>
<polygon fill="#191970" stroke="#191970" points="3762.8189,-129.8712 3773.3701,-128.9113 3764.5231,-123.0819 3762.8189,-129.8712"/>
</g>
<!-- Node12&#45;&gt;Node3 -->
<g id="edge22" class="edge">
<title>Node12&#45;&gt;Node3</title>
<path fill="none" stroke="#191970" d="M4012.114,-53.2596C4045.4224,-42.1868 4086.5787,-28.5052 4113.5762,-19.5303"/>
<polygon fill="#191970" stroke="#191970" points="4010.886,-49.9795 4002.5007,-56.4554 4013.0942,-56.622 4010.886,-49.9795"/>
</g>
<!-- Node14 -->
<g id="node15" class="node">
<title>Node14</title>
<g id="a_node15"><a xlink:href="CMakeTmp_2SimpleITKBasicFiltersGeneratedHeaders_8h.html" target="_top" xlink:title=" ">
<polygon fill="#ffffff" stroke="#000000" points="1969.7446,-56.5 1969.7446,-86.5 2142.7446,-86.5 2142.7446,-56.5 1969.7446,-56.5"/>
<text text-anchor="start" x="1977.7446" y="-74.5" font-family="Helvetica,sans-Serif" font-size="10.00" fill="#000000">SimpleITKBasicFiltersGenerated</text>
<text text-anchor="middle" x="2056.2446" y="-63.5" font-family="Helvetica,sans-Serif" font-size="10.00" fill="#000000">Headers.h</text>
</a>
</g>
</g>
<!-- Node13&#45;&gt;Node14 -->
<g id="edge25" class="edge">
<title>Node13&#45;&gt;Node14</title>
<path fill="none" stroke="#191970" d="M2163.6896,-124.4324C2141.1475,-113.3271 2109.7657,-97.867 2086.7365,-86.5218"/>
<polygon fill="#191970" stroke="#191970" points="2162.2418,-127.6209 2172.7591,-128.9005 2165.3354,-121.3415 2162.2418,-127.6209"/>
</g>
<!-- Node15 -->
<g id="node16" class="node">
<title>Node15</title>
<g id="a_node16"><a xlink:href="include_2SimpleITKBasicFiltersGeneratedHeaders_8h.html" target="_top" xlink:title=" ">
<polygon fill="#ffffff" stroke="#000000" points="1778.7446,-56.5 1778.7446,-86.5 1951.7446,-86.5 1951.7446,-56.5 1778.7446,-56.5"/>
<text text-anchor="start" x="1786.7446" y="-74.5" font-family="Helvetica,sans-Serif" font-size="10.00" fill="#000000">SimpleITKBasicFiltersGenerated</text>
<text text-anchor="middle" x="1865.2446" y="-63.5" font-family="Helvetica,sans-Serif" font-size="10.00" fill="#000000">Headers.h</text>
</a>
</g>
</g>
<!-- Node13&#45;&gt;Node15 -->
<g id="edge26" class="edge">
<title>Node13&#45;&gt;Node15</title>
<path fill="none" stroke="#191970" d="M2141.1311,-126.6882C2135.4389,-125.4207 2129.7215,-124.1685 2124.2446,-123 2063.8274,-110.1101 1995.2543,-96.5211 1943.8506,-86.5403"/>
<polygon fill="#191970" stroke="#191970" points="2140.7686,-130.1939 2151.2927,-128.9715 2142.3033,-123.3642 2140.7686,-130.1939"/>
</g>
<!-- Node15&#45;&gt;Node3 -->
<g id="edge27" class="edge">
<title>Node15&#45;&gt;Node3</title>
<path fill="none" stroke="#191970" d="M1961.9197,-55.9462C2421.7211,-15.5697 3853.2797,-10.6339 4104.4445,-10.0687"/>
<polygon fill="#191970" stroke="#191970" points="1961.5486,-52.4654 1951.9017,-56.8457 1962.1747,-59.4373 1961.5486,-52.4654"/>
</g>
<!-- Node16&#45;&gt;Node14 -->
<g id="edge29" class="edge">
<title>Node16&#45;&gt;Node14</title>
<path fill="none" stroke="#191970" d="M2271.1611,-121.1531C2224.7537,-110.4314 2165.7847,-96.8075 2121.3594,-86.5438"/>
<polygon fill="#191970" stroke="#191970" points="2270.6317,-124.6229 2281.1629,-123.4639 2272.2075,-117.8026 2270.6317,-124.6229"/>
</g>
<!-- Node16&#45;&gt;Node15 -->
<g id="edge30" class="edge">
<title>Node16&#45;&gt;Node15</title>
<path fill="none" stroke="#191970" d="M2258.308,-122.9144C2125.1373,-103.3644 2089.5336,-105.3223 1960.2446,-87 1957.5145,-86.6131 1954.7418,-86.2117 1951.9431,-85.7992"/>
<polygon fill="#191970" stroke="#191970" points="2258.0871,-126.4198 2268.4921,-124.4231 2259.1131,-119.4953 2258.0871,-126.4198"/>
</g>
<!-- Node17&#45;&gt;Node14 -->
<g id="edge32" class="edge">
<title>Node17&#45;&gt;Node14</title>
<path fill="none" stroke="#191970" d="M2451.5647,-126.7657C2445.0788,-125.4149 2438.5164,-124.122 2432.2446,-123 2333.4988,-105.3354 2219.2154,-90.4665 2142.8021,-81.3159"/>
<polygon fill="#191970" stroke="#191970" points="2451.1305,-130.2519 2461.6412,-128.9196 2452.5938,-123.4065 2451.1305,-130.2519"/>
</g>
<!-- Node17&#45;&gt;Node15 -->
<g id="edge33" class="edge">
<title>Node17&#45;&gt;Node15</title>
<path fill="none" stroke="#191970" d="M2454.1173,-126.905C2446.8201,-125.4197 2439.3553,-124.053 2432.2446,-123 2224.1271,-92.1806 2169.1456,-111.962 1960.2446,-87 1957.5067,-86.6728 1954.7272,-86.3235 1951.9226,-85.9561"/>
<polygon fill="#191970" stroke="#191970" points="2453.4064,-130.332 2463.9153,-128.9855 2454.8604,-123.4846 2453.4064,-130.332"/>
</g>
<!-- Node18&#45;&gt;Node14 -->
<g id="edge35" class="edge">
<title>Node18&#45;&gt;Node14</title>
<path fill="none" stroke="#191970" d="M2570.3031,-122.9206C2413.4863,-103.6012 2243.2205,-87.7131 2142.9529,-78.8836"/>
<polygon fill="#191970" stroke="#191970" points="2570.2575,-126.4417 2580.612,-124.1981 2571.1184,-119.4948 2570.2575,-126.4417"/>
</g>
<!-- Node18&#45;&gt;Node15 -->
<g id="edge36" class="edge">
<title>Node18&#45;&gt;Node15</title>
<path fill="none" stroke="#191970" d="M2570.4715,-122.9901C2298.9309,-95.4522 2227.3178,-116.5761 1960.2446,-87 1957.504,-86.6965 1954.7221,-86.3677 1951.9155,-86.0182"/>
<polygon fill="#191970" stroke="#191970" points="2570.3255,-126.4935 2580.6308,-124.0335 2571.0408,-119.5301 2570.3255,-126.4935"/>
</g>
<!-- Node19&#45;&gt;Node14 -->
<g id="edge38" class="edge">
<title>Node19&#45;&gt;Node14</title>
<path fill="none" stroke="#191970" d="M2799.0248,-126.7607C2792.0878,-125.3208 2785.0039,-124.0054 2778.2446,-123 2550.4682,-89.1198 2278.8339,-77.3553 2142.8427,-73.405"/>
<polygon fill="#191970" stroke="#191970" points="2798.5125,-130.2311 2809.0281,-128.9378 2800.0011,-123.3912 2798.5125,-130.2311"/>
</g>
<!-- Node19&#45;&gt;Node15 -->
<g id="edge39" class="edge">
<title>Node19&#45;&gt;Node15</title>
<path fill="none" stroke="#191970" d="M2800.292,-126.8484C2792.9575,-125.3296 2785.422,-123.9679 2778.2446,-123 2417.6017,-74.3653 2322.2288,-124.3645 1960.2446,-87 1957.5018,-86.7169 1954.718,-86.4059 1951.9097,-86.0718"/>
<polygon fill="#191970" stroke="#191970" points="2799.5999,-130.2796 2810.1165,-128.9944 2801.0938,-123.4409 2799.5999,-130.2796"/>
</g>
<!-- Node21&#45;&gt;Node14 -->
<g id="edge41" class="edge">
<title>Node21&#45;&gt;Node14</title>
<path fill="none" stroke="#191970" d="M2911.9183,-122.9378C2625.075,-88.2637 2296.1888,-76.8318 2142.9356,-73.1432"/>
<polygon fill="#191970" stroke="#191970" points="2911.7537,-126.4436 2922.1041,-124.1811 2912.6019,-119.4951 2911.7537,-126.4436"/>
</g>
<!-- Node21&#45;&gt;Node15 -->
<g id="edge42" class="edge">
<title>Node21&#45;&gt;Node15</title>
<path fill="none" stroke="#191970" d="M2912.0914,-122.9889C2490.2664,-76.7948 2378.7006,-128.8779 1960.2446,-87 1957.501,-86.7254 1954.7164,-86.4219 1951.9075,-86.0942"/>
<polygon fill="#191970" stroke="#191970" points="2911.7894,-126.4767 2922.1138,-124.0984 2912.5597,-119.5192 2911.7894,-126.4767"/>
</g>
<!-- Node22&#45;&gt;Node14 -->
<g id="edge44" class="edge">
<title>Node22&#45;&gt;Node14</title>
<path fill="none" stroke="#191970" d="M3110.8706,-127.3457C3100.3646,-125.6699 3089.5059,-124.1282 3079.2446,-123 2733.8921,-85.0302 2319.8288,-75.0201 2143.0829,-72.4085"/>
<polygon fill="#191970" stroke="#191970" points="3110.3678,-130.81 3120.8041,-128.9844 3111.5072,-123.9034 3110.3678,-130.81"/>
</g>
<!-- Node22&#45;&gt;Node15 -->
<g id="edge45" class="edge">
<title>Node22&#45;&gt;Node15</title>
<path fill="none" stroke="#191970" d="M3111.6282,-127.3066C3100.8909,-125.6012 3089.7574,-124.0594 3079.2446,-123 2584.1615,-73.1082 2455.4987,-135.1642 1960.2446,-87 1957.5002,-86.7331 1954.7149,-86.4362 1951.9055,-86.1143"/>
<polygon fill="#191970" stroke="#191970" points="3111.3314,-130.805 3121.7681,-128.9815 3112.4722,-123.8985 3111.3314,-130.805"/>
</g>
<!-- Node23&#45;&gt;Node14 -->
<g id="edge47" class="edge">
<title>Node23&#45;&gt;Node14</title>
<path fill="none" stroke="#191970" d="M3282.4823,-126.7336C3275.4103,-125.258 3268.1599,-123.9395 3261.2446,-123 3044.9401,-93.614 2381.658,-77.9333 2142.965,-73.126"/>
<polygon fill="#191970" stroke="#191970" points="3282.1363,-130.2415 3292.656,-128.9819 3283.6469,-123.4064 3282.1363,-130.2415"/>
</g>
<!-- Node23&#45;&gt;Node15 -->
<g id="edge48" class="edge">
<title>Node23&#45;&gt;Node15</title>
<path fill="none" stroke="#191970" d="M3283.237,-126.7949C3275.9294,-125.2685 3268.4092,-123.9185 3261.2446,-123 2687.4966,-49.4459 2536.0964,-141.6958 1960.2446,-87 1957.4996,-86.7393 1954.7138,-86.4478 1951.9039,-86.1305"/>
<polygon fill="#191970" stroke="#191970" points="3282.4964,-130.2156 3293.0167,-128.9615 3284.0105,-123.3813 3282.4964,-130.2156"/>
</g>
<!-- Node24&#45;&gt;Node14 -->
<g id="edge50" class="edge">
<title>Node24&#45;&gt;Node14</title>
<path fill="none" stroke="#191970" d="M3393.8655,-122.9913C3131.5702,-94.1199 2395.64,-77.9351 2142.7672,-73.0704"/>
<polygon fill="#191970" stroke="#191970" points="3393.7913,-126.5053 3404.1222,-124.1553 3394.5807,-119.5499 3393.7913,-126.5053"/>
</g>
<!-- Node24&#45;&gt;Node15 -->
<g id="edge51" class="edge">
<title>Node24&#45;&gt;Node15</title>
<path fill="none" stroke="#191970" d="M3393.8074,-122.9798C2759.2881,-54.3333 2592.0302,-146.1856 1960.2446,-87 1957.4993,-86.7428 1954.7132,-86.4544 1951.903,-86.1398"/>
<polygon fill="#191970" stroke="#191970" points="3393.8071,-126.5005 3404.1278,-124.106 3394.5665,-119.5418 3393.8071,-126.5005"/>
</g>
<!-- Node25&#45;&gt;Node14 -->
<g id="edge53" class="edge">
<title>Node25&#45;&gt;Node14</title>
<path fill="none" stroke="#191970" d="M3552.4174,-123.0346C3256.7734,-95.6186 2416.0576,-78.1508 2142.9922,-73.0496"/>
<polygon fill="#191970" stroke="#191970" points="3552.4158,-126.5502 3562.7026,-124.014 3553.0795,-119.5817 3552.4158,-126.5502"/>
</g>
<!-- Node25&#45;&gt;Node15 -->
<g id="edge54" class="edge">
<title>Node25&#45;&gt;Node15</title>
<path fill="none" stroke="#191970" d="M3552.5357,-123.0412C2846.2653,-59.2968 2662.0626,-151.8661 1960.2446,-87 1957.499,-86.7462 1954.7126,-86.4608 1951.9022,-86.1488"/>
<polygon fill="#191970" stroke="#191970" points="3552.431,-126.546 3562.7071,-123.9667 3553.0654,-119.5748 3552.431,-126.546"/>
</g>
<!-- Node26&#45;&gt;Node14 -->
<g id="edge56" class="edge">
<title>Node26&#45;&gt;Node14</title>
<path fill="none" stroke="#191970" d="M2056.2446,-118.7758C2056.2446,-108.4641 2056.2446,-96.0437 2056.2446,-86.5218"/>
<polygon fill="#191970" stroke="#191970" points="2052.7447,-118.9005 2056.2446,-128.9005 2059.7447,-118.9006 2052.7447,-118.9005"/>
</g>
<!-- Node26&#45;&gt;Node15 -->
<g id="edge57" class="edge">
<title>Node26&#45;&gt;Node15</title>
<path fill="none" stroke="#191970" d="M2019.0724,-125.4605C1987.2492,-114.2974 1941.421,-98.2216 1908.0678,-86.5218"/>
<polygon fill="#191970" stroke="#191970" points="2018.2841,-128.8931 2028.879,-128.9005 2020.6012,-122.2877 2018.2841,-128.8931"/>
</g>
<!-- Node64&#45;&gt;Node14 -->
<g id="edge59" class="edge">
<title>Node64&#45;&gt;Node14</title>
<path fill="none" stroke="#191970" d="M1943.7448,-124.5809C1967.3033,-113.4653 2000.2549,-97.9177 2024.4074,-86.5218"/>
<polygon fill="#191970" stroke="#191970" points="1942.1401,-121.468 1934.5897,-128.9005 1945.1271,-127.7987 1942.1401,-121.468"/>
</g>
<!-- Node64&#45;&gt;Node15 -->
<g id="edge60" class="edge">
<title>Node64&#45;&gt;Node15</title>
<path fill="none" stroke="#191970" d="M1901.2438,-120.7233C1893.4463,-110.0615 1883.639,-96.6515 1876.2307,-86.5218"/>
<polygon fill="#191970" stroke="#191970" points="1898.4958,-122.8949 1907.2241,-128.9005 1904.146,-118.7627 1898.4958,-122.8949"/>
</g>
<!-- Node158&#45;&gt;Node14 -->
<g id="edge62" class="edge">
<title>Node158&#45;&gt;Node14</title>
<path fill="none" stroke="#191970" d="M199.8801,-122.9471C979.1492,-43.8131 1183.4909,-157.2951 1960.2446,-87 1963.3552,-86.7185 1966.5175,-86.3967 1969.7079,-86.042"/>
<polygon fill="#191970" stroke="#191970" points="199.4091,-119.4769 189.8172,-123.9764 200.1215,-126.4406 199.4091,-119.4769"/>
</g>
<!-- Node158&#45;&gt;Node15 -->
<g id="edge63" class="edge">
<title>Node158&#45;&gt;Node15</title>
<path fill="none" stroke="#191970" d="M199.8488,-122.9546C529.026,-89.0931 1485.201,-75.792 1778.6389,-72.4159"/>
<polygon fill="#191970" stroke="#191970" points="199.3982,-119.4826 189.8211,-124.0136 200.1334,-126.4439 199.3982,-119.4826"/>
</g>
<!-- Node159&#45;&gt;Node14 -->
<g id="edge65" class="edge">
<title>Node159&#45;&gt;Node14</title>
<path fill="none" stroke="#191970" d="M375.4333,-122.9957C1077.6428,-54.5743 1261.4589,-151.0375 1960.2446,-87 1963.3548,-86.715 1966.5169,-86.3902 1969.707,-86.0329"/>
<polygon fill="#191970" stroke="#191970" points="374.9305,-119.5281 365.3205,-123.9889 375.6148,-126.4946 374.9305,-119.5281"/>
</g>
<!-- Node159&#45;&gt;Node15 -->
<g id="edge66" class="edge">
<title>Node159&#45;&gt;Node15</title>
<path fill="none" stroke="#191970" d="M375.5389,-122.9893C669.1509,-93.7897 1505.815,-77.5547 1778.3446,-72.9037"/>
<polygon fill="#191970" stroke="#191970" points="374.9172,-119.5345 365.3251,-124.0335 375.6292,-126.4982 374.9172,-119.5345"/>
</g>
<!-- Node160&#45;&gt;Node14 -->
<g id="edge68" class="edge">
<title>Node160&#45;&gt;Node14</title>
<path fill="none" stroke="#191970" d="M528.4562,-127.3104C539.6526,-125.5889 551.2768,-124.0405 562.2446,-123 1181.0058,-64.2998 1341.3861,-144.6649 1960.2446,-87 1963.3544,-86.7102 1966.5161,-86.3814 1969.7059,-86.0207"/>
<polygon fill="#191970" stroke="#191970" points="527.647,-123.8953 518.3251,-128.9305 528.7524,-130.8074 527.647,-123.8953"/>
</g>
<!-- Node160&#45;&gt;Node15 -->
<g id="edge69" class="edge">
<title>Node160&#45;&gt;Node15</title>
<path fill="none" stroke="#191970" d="M528.8546,-127.3745C539.9307,-125.6641 551.4102,-124.1031 562.2446,-123 799.1559,-98.8794 1526.6299,-79.6234 1778.4095,-73.5259"/>
<polygon fill="#191970" stroke="#191970" points="528.1479,-123.943 518.8262,-128.9785 529.2535,-130.8551 528.1479,-123.943"/>
</g>
<!-- Node161&#45;&gt;Node14 -->
<g id="edge71" class="edge">
<title>Node161&#45;&gt;Node14</title>
<path fill="none" stroke="#191970" d="M731.3438,-123.0051C1275.8284,-66.1025 1419.1158,-138.3814 1960.2446,-87 1963.3539,-86.7048 1966.5151,-86.3713 1969.7046,-86.0065"/>
<polygon fill="#191970" stroke="#191970" points="730.8448,-119.5382 721.2672,-124.0681 731.5792,-126.4996 730.8448,-119.5382"/>
</g>
<!-- Node161&#45;&gt;Node15 -->
<g id="edge72" class="edge">
<title>Node161&#45;&gt;Node15</title>
<path fill="none" stroke="#191970" d="M731.4958,-122.9916C952.2602,-99.1939 1553.5552,-80.3426 1778.7091,-73.8877"/>
<polygon fill="#191970" stroke="#191970" points="730.8257,-119.5444 721.2739,-124.1285 731.5995,-126.5015 730.8257,-119.5444"/>
</g>
<!-- Node166&#45;&gt;Node14 -->
<g id="edge74" class="edge">
<title>Node166&#45;&gt;Node14</title>
<path fill="none" stroke="#191970" d="M878.2149,-127.3219C888.8344,-125.6149 899.8462,-124.0686 910.2446,-123 1374.739,-75.2638 1495.5066,-132.3034 1960.2446,-87 1963.3531,-86.697 1966.5137,-86.3568 1969.7026,-85.9864"/>
<polygon fill="#191970" stroke="#191970" points="877.4729,-123.8973 868.1864,-128.9974 878.6265,-130.8016 877.4729,-123.8973"/>
</g>
<!-- Node166&#45;&gt;Node15 -->
<g id="edge75" class="edge">
<title>Node166&#45;&gt;Node15</title>
<path fill="none" stroke="#191970" d="M879.6507,-127.2613C889.8277,-125.6252 900.3188,-124.1185 910.2446,-123 1229.098,-87.0699 1610.7624,-76.0387 1778.7099,-72.7895"/>
<polygon fill="#191970" stroke="#191970" points="878.9014,-123.8378 869.6111,-128.9309 880.0498,-130.7429 878.9014,-123.8378"/>
</g>
<!-- Node168&#45;&gt;Node14 -->
<g id="edge77" class="edge">
<title>Node168&#45;&gt;Node14</title>
<path fill="none" stroke="#191970" d="M1066.9909,-122.9095C1462.2492,-76.4149 1567.4275,-126.4685 1960.2446,-87 1963.3522,-86.6878 1966.512,-86.3397 1969.7003,-85.9626"/>
<polygon fill="#191970" stroke="#191970" points="1066.5209,-119.4407 1057.0044,-124.0974 1067.3478,-126.3917 1066.5209,-119.4407"/>
</g>
<!-- Node168&#45;&gt;Node15 -->
<g id="edge78" class="edge">
<title>Node168&#45;&gt;Node15</title>
<path fill="none" stroke="#191970" d="M1067.1748,-122.8475C1331.0515,-88.5862 1633.0674,-77.0804 1778.4525,-73.2717"/>
<polygon fill="#191970" stroke="#191970" points="1066.4746,-119.4093 1057.0149,-124.1805 1067.3852,-126.3498 1066.4746,-119.4093"/>
</g>
<!-- Node184&#45;&gt;Node14 -->
<g id="edge80" class="edge">
<title>Node184&#45;&gt;Node14</title>
<path fill="none" stroke="#191970" d="M1183.8251,-126.8276C1191.2911,-125.3257 1198.95,-123.9745 1206.2446,-123 1538.783,-78.5738 1626.5607,-121.7927 1960.2446,-87 1963.351,-86.6761 1966.5098,-86.3181 1969.6972,-85.9325"/>
<polygon fill="#191970" stroke="#191970" points="1182.8738,-123.4513 1173.8162,-128.9477 1184.3245,-130.2994 1182.8738,-123.4513"/>
</g>
<!-- Node184&#45;&gt;Node15 -->
<g id="edge81" class="edge">
<title>Node184&#45;&gt;Node15</title>
<path fill="none" stroke="#191970" d="M1184.3737,-126.9169C1191.6707,-125.43 1199.1349,-124.0596 1206.2446,-123 1410.1277,-92.6132 1652.341,-79.514 1778.7178,-74.4026"/>
<polygon fill="#191970" stroke="#191970" points="1183.6301,-123.4967 1174.5759,-128.9986 1185.0849,-130.3438 1183.6301,-123.4967"/>
</g>
<!-- Node203&#45;&gt;Node14 -->
<g id="edge83" class="edge">
<title>Node203&#45;&gt;Node14</title>
<path fill="none" stroke="#191970" d="M1380.9918,-123.0105C1638.4159,-92.8831 1706.8198,-115.2548 1960.2446,-87 1963.3486,-86.6539 1966.5054,-86.2769 1969.691,-85.8753"/>
<polygon fill="#191970" stroke="#191970" points="1380.4853,-119.5459 1370.967,-124.1989 1381.3095,-126.4973 1380.4853,-119.5459"/>
</g>
<!-- Node203&#45;&gt;Node15 -->
<g id="edge84" class="edge">
<title>Node203&#45;&gt;Node15</title>
<path fill="none" stroke="#191970" d="M1380.9965,-122.9552C1526.4587,-102.5646 1683.7161,-87.3046 1778.7216,-78.8323"/>
<polygon fill="#191970" stroke="#191970" points="1380.4013,-119.5044 1370.9892,-124.3688 1381.3805,-126.4356 1380.4013,-119.5044"/>
</g>
<!-- Node240&#45;&gt;Node14 -->
<g id="edge86" class="edge">
<title>Node240&#45;&gt;Node14</title>
<path fill="none" stroke="#191970" d="M1518.1689,-127.153C1526.8745,-125.6114 1535.7851,-124.1626 1544.2446,-123 1728.0965,-97.7337 1776.0713,-109.8057 1960.2446,-87 1963.3442,-86.6162 1966.4971,-86.2069 1969.6795,-85.7778"/>
<polygon fill="#191970" stroke="#191970" points="1517.2918,-123.7552 1508.0828,-128.9938 1518.5487,-130.6414 1517.2918,-123.7552"/>
</g>
<!-- Node240&#45;&gt;Node15 -->
<g id="edge87" class="edge">
<title>Node240&#45;&gt;Node15</title>
<path fill="none" stroke="#191970" d="M1521.5741,-127.0838C1529.1971,-125.6762 1536.9012,-124.2829 1544.2446,-123 1623.4743,-109.1589 1713.9605,-94.7696 1778.6224,-84.7311"/>
<polygon fill="#191970" stroke="#191970" points="1520.8268,-123.6627 1511.6366,-128.9342 1522.1083,-130.5444 1520.8268,-123.6627"/>
</g>
<!-- Node293&#45;&gt;Node14 -->
<g id="edge89" class="edge">
<title>Node293&#45;&gt;Node14</title>
<path fill="none" stroke="#191970" d="M1701.0855,-122.9162C1816.9646,-103.6465 1848.0309,-103.8254 1960.2446,-87 1963.3333,-86.5369 1966.477,-86.0597 1969.6515,-85.573"/>
<polygon fill="#191970" stroke="#191970" points="1700.3918,-119.4836 1691.1078,-124.5883 1701.5488,-126.3873 1700.3918,-119.4836"/>
</g>
<!-- Node293&#45;&gt;Node15 -->
<g id="edge90" class="edge">
<title>Node293&#45;&gt;Node15</title>
<path fill="none" stroke="#191970" d="M1686.86,-120.6842C1725.4044,-110.0568 1773.8131,-96.7095 1810.4728,-86.6017"/>
<polygon fill="#191970" stroke="#191970" points="1685.4885,-117.4317 1676.7786,-123.4639 1687.3492,-124.1799 1685.4885,-117.4317"/>
</g>
<!-- Node298&#45;&gt;Node14 -->
<g id="edge92" class="edge">
<title>Node298&#45;&gt;Node14</title>
<path fill="none" stroke="#191970" d="M1820.7161,-126.6762C1868.4212,-115.5006 1940.2032,-98.6845 1991.9785,-86.5553"/>
<polygon fill="#191970" stroke="#191970" points="1819.8558,-123.283 1810.9177,-128.9717 1821.4524,-130.0984 1819.8558,-123.283"/>
</g>
<!-- Node298&#45;&gt;Node15 -->
<g id="edge93" class="edge">
<title>Node298&#45;&gt;Node15</title>
<path fill="none" stroke="#191970" d="M1792.3359,-122.9198C1807.8831,-111.955 1828.5767,-97.3605 1843.9451,-86.5218"/>
<polygon fill="#191970" stroke="#191970" points="1790.0106,-120.2768 1783.8558,-128.9005 1794.0451,-125.9973 1790.0106,-120.2768"/>
</g>
<!-- Node307&#45;&gt;Node3 -->
<g id="edge95" class="edge">
<title>Node307&#45;&gt;Node3</title>
<path fill="none" stroke="#191970" d="M3676.0932,-189.9466C3768.0232,-180.4783 3962.3597,-190.8223 4029.2446,-154 4058.7534,-137.7544 4116.8826,-49.6617 4135.9928,-19.8597"/>
<polygon fill="#191970" stroke="#191970" points="3675.4602,-186.4967 3665.9339,-191.1335 3676.2725,-193.4494 3675.4602,-186.4967"/>
</g>
<!-- Node308&#45;&gt;Node3 -->
<g id="edge97" class="edge">
<title>Node308&#45;&gt;Node3</title>
<path fill="none" stroke="#191970" d="M3446.5276,-191.846C3451.8404,-191.1809 3457.1097,-190.5587 3462.2446,-190 3575.6341,-177.6626 3868.8512,-197.6076 3974.2446,-154 4035.6723,-128.5836 4036.6345,-99.1042 4087.2446,-56 4102.0283,-43.4088 4119.218,-29.0816 4130.3916,-19.8097"/>
<polygon fill="#191970" stroke="#191970" points="3445.7492,-188.4174 3436.2814,-193.1724 3446.648,-195.3595 3445.7492,-188.4174"/>
</g>
<!-- Node328&#45;&gt;Node3 -->
<g id="edge101" class="edge">
<title>Node328&#45;&gt;Node3</title>
<path fill="none" stroke="#191970" d="M4184.4045,-193.4513C4238.0601,-180.0687 4316.9803,-159.6055 4321.2446,-154 4347.6157,-119.3351 4347.9365,-90.4185 4321.2446,-56 4304.0885,-33.8777 4227.1515,-20.5411 4179.9031,-14.2917"/>
<polygon fill="#191970" stroke="#191970" points="4183.2325,-190.136 4174.3719,-195.9447 4184.9208,-196.9294 4183.2325,-190.136"/>
</g>
<!-- Node329&#45;&gt;Node3 -->
<g id="edge103" class="edge">
<title>Node329&#45;&gt;Node3</title>
<path fill="none" stroke="#191970" d="M4011.1077,-194.0599C4018.5544,-192.6645 4026.074,-191.2807 4033.2446,-190 4081.3645,-181.4058 4218.635,-191.2856 4250.2446,-154 4291.3681,-105.4921 4198.8664,-43.1105 4159.1967,-19.5643"/>
<polygon fill="#191970" stroke="#191970" points="4010.215,-190.6665 4001.038,-195.9612 4011.5138,-197.545 4010.215,-190.6665"/>
</g>
<!-- Node330&#45;&gt;Node3 -->
<g id="edge105" class="edge">
<title>Node330&#45;&gt;Node3</title>
<path fill="none" stroke="#191970" d="M3786.2249,-193.7977C3792.6058,-192.4314 3799.069,-191.1259 3805.2446,-190 3920.8772,-168.9189 3965.7342,-213.2532 4067.2446,-154 4118.1232,-124.3014 4135.9155,-47.1163 4140.7337,-19.7759"/>
<polygon fill="#191970" stroke="#191970" points="3785.3326,-190.4102 3776.3185,-195.9776 3786.8371,-197.2467 3785.3326,-190.4102"/>
</g>
<!-- Node331&#45;&gt;Node3 -->
<g id="edge107" class="edge">
<title>Node331&#45;&gt;Node3</title>
<path fill="none" stroke="#191970" d="M4280.9827,-191.8292C4305.701,-181.0455 4336.1289,-165.8923 4343.2446,-154 4365.6084,-116.6242 4370.3911,-90.061 4343.2446,-56 4323.22,-30.8749 4232.4567,-18.3683 4179.9997,-13.1373"/>
<polygon fill="#191970" stroke="#191970" points="4279.331,-188.7287 4271.5089,-195.8748 4282.08,-195.1664 4279.331,-188.7287"/>
</g>
<!-- Node332&#45;&gt;Node323 -->
<g id="edge110" class="edge">
<title>Node332&#45;&gt;Node323</title>
<path fill="none" stroke="#191970" d="M3935.7131,-303.7493C3932.611,-294.6064 3929.0395,-284.0798 3926.5162,-276.6427"/>
<polygon fill="#191970" stroke="#191970" points="3932.4076,-304.9003 3938.9351,-313.2455 3939.0365,-302.6512 3932.4076,-304.9003"/>
</g>
<!-- Node325&#45;&gt;Node3 -->
<g id="edge112" class="edge">
<title>Node325&#45;&gt;Node3</title>
<path fill="none" stroke="#191970" d="M995.9232,-204.6857C762.8027,-201.7109 44.2228,-189.6723 10.2446,-154 -23.3,-118.7829 37.4341,-66.0381 56.2446,-56 103.4666,-30.8002 3695.9765,-12.2176 4104.5419,-10.185"/>
<polygon fill="#191970" stroke="#191970" points="995.9511,-208.1862 1005.9944,-204.8124 996.0392,-201.1868 995.9511,-208.1862"/>
</g>
<!-- Node326&#45;&gt;Node3 -->
<g id="edge115" class="edge">
<title>Node326&#45;&gt;Node3</title>
<path fill="none" stroke="#191970" d="M1165.9145,-194.0598C1157.0592,-192.4424 1147.915,-190.9941 1139.2446,-190 1077.4507,-182.9147 63.5129,-198.6827 20.2446,-154 10.6602,-144.1022 11.4492,-133.6051 20.2446,-123 123.0229,.9258 216.0349,-71.9322 376.2446,-56 766.6399,-17.1768 3735.005,-10.7174 4104.5256,-10.0616"/>
<polygon fill="#191970" stroke="#191970" points="1165.2694,-197.4998 1175.7492,-195.9426 1166.5857,-190.6246 1165.2694,-197.4998"/>
</g>
<!-- Node327&#45;&gt;Node3 -->
<g id="edge119" class="edge">
<title>Node327&#45;&gt;Node3</title>
<path fill="none" stroke="#191970" d="M1319.9233,-194.0284C1311.4014,-192.4137 1302.5977,-190.9746 1294.2446,-190 1224.5224,-181.8654 80.1679,-204.3376 31.2446,-154 21.642,-144.1198 21.6917,-132.9282 31.2446,-123 105.946,-45.3634 3696.3395,-13.6576 4104.5752,-10.3017"/>
<polygon fill="#191970" stroke="#191970" points="1319.2626,-197.4655 1329.7538,-195.9873 1320.6306,-190.6005 1319.2626,-197.4655"/>
</g>
<!-- Node333&#45;&gt;Node11 -->
<g id="edge123" class="edge">
<title>Node333&#45;&gt;Node11</title>
<path fill="none" stroke="#191970" d="M1642.4021,-203.4261C2066.0455,-194.6202 3691.4481,-160.4828 3744.2446,-154 3754.9684,-152.6832 3766.473,-150.4402 3776.9543,-148.0633"/>
<polygon fill="#191970" stroke="#191970" points="1642.2439,-199.9285 1632.3188,-203.6356 1642.3894,-206.927 1642.2439,-199.9285"/>
</g>
<!-- Node333&#45;&gt;Node64 -->
<g id="edge124" class="edge">
<title>Node333&#45;&gt;Node64</title>
<path fill="none" stroke="#191970" d="M1611.0679,-194.315C1671.5477,-184.317 1761.8793,-168.9738 1840.2446,-154 1849.9142,-152.1524 1860.2695,-150.057 1870.0787,-148.0175"/>
<polygon fill="#191970" stroke="#191970" points="1610.1764,-190.9147 1600.8793,-195.9954 1611.3156,-197.8214 1610.1764,-190.9147"/>
</g>
<!-- Node333&#45;&gt;Node158 -->
<g id="edge125" class="edge">
<title>Node333&#45;&gt;Node158</title>
<path fill="none" stroke="#191970" d="M1479.5312,-194.4579C1467.5197,-192.6903 1455.0189,-191.0876 1443.2446,-190 892.0264,-139.0853 748.6573,-212.9886 198.2446,-154 195.4753,-153.7032 192.6598,-153.3651 189.8204,-152.9934"/>
<polygon fill="#191970" stroke="#191970" points="1479.0659,-197.9273 1489.4791,-195.9738 1480.1205,-191.0072 1479.0659,-197.9273"/>
</g>
<!-- Node333&#45;&gt;Node159 -->
<g id="edge126" class="edge">
<title>Node333&#45;&gt;Node159</title>
<path fill="none" stroke="#191970" d="M1479.3198,-194.4726C1467.3722,-192.7128 1454.9487,-191.1092 1443.2446,-190 969.9845,-145.1508 847.0562,-203.3532 374.2446,-154 371.3131,-153.694 368.3319,-153.348 365.3247,-152.9697"/>
<polygon fill="#191970" stroke="#191970" points="1478.8046,-197.9344 1489.2176,-195.9802 1479.8587,-191.0143 1478.8046,-197.9344"/>
</g>
<!-- Node333&#45;&gt;Node160 -->
<g id="edge127" class="edge">
<title>Node333&#45;&gt;Node160</title>
<path fill="none" stroke="#191970" d="M1478.544,-194.4274C1466.8338,-192.7052 1454.6937,-191.1265 1443.2446,-190 1053.2454,-151.6287 952.0849,-193.954 562.2446,-154 548.0945,-152.5498 532.8432,-150.3247 518.8275,-148.009"/>
<polygon fill="#191970" stroke="#191970" points="1478.2835,-197.928 1488.6959,-195.9701 1479.3352,-191.0074 1478.2835,-197.928"/>
</g>
<!-- Node333&#45;&gt;Node161 -->
<g id="edge128" class="edge">
<title>Node333&#45;&gt;Node161</title>
<path fill="none" stroke="#191970" d="M1478.1238,-194.4575C1466.5418,-192.7493 1454.5543,-191.1676 1443.2446,-190 1127.6296,-157.4156 1045.3879,-190.8683 730.2446,-154 727.2988,-153.6554 724.3006,-153.27 721.2761,-152.8523"/>
<polygon fill="#191970" stroke="#191970" points="1477.758,-197.942 1488.1704,-195.984 1478.8096,-191.0214 1477.758,-197.942"/>
</g>
<!-- Node333&#45;&gt;Node166 -->
<g id="edge129" class="edge">
<title>Node333&#45;&gt;Node166</title>
<path fill="none" stroke="#191970" d="M1476.9404,-194.4441C1465.7236,-192.7835 1454.1651,-191.2213 1443.2446,-190 1207.287,-163.6117 1145.9942,-182.1861 910.2446,-154 897.178,-152.4378 883.1237,-150.2592 870.0956,-148.0282"/>
<polygon fill="#191970" stroke="#191970" points="1476.7052,-197.9484 1487.1174,-195.9898 1477.7564,-191.0278 1476.7052,-197.9484"/>
</g>
<!-- Node333&#45;&gt;Node168 -->
<g id="edge130" class="edge">
<title>Node333&#45;&gt;Node168</title>
<path fill="none" stroke="#191970" d="M1475.1516,-194.4354C1464.4928,-192.8394 1453.5782,-191.2998 1443.2446,-190 1275.8038,-168.9384 1232.1897,-178.6848 1065.2446,-154 1062.5467,-153.6011 1059.8004,-153.1699 1057.0296,-152.7139"/>
<polygon fill="#191970" stroke="#191970" points="1474.8519,-197.9301 1485.2651,-195.977 1475.9068,-191.01 1474.8519,-197.9301"/>
</g>
<!-- Node333&#45;&gt;Node184 -->
<g id="edge131" class="edge">
<title>Node333&#45;&gt;Node184</title>
<path fill="none" stroke="#191970" d="M1471.8408,-194.4368C1462.2325,-192.9387 1452.4962,-191.4269 1443.2446,-190 1337.948,-173.76 1310.9813,-173.5277 1206.2446,-154 1196.8227,-152.2433 1186.7358,-150.1411 1177.2363,-148.0602"/>
<polygon fill="#191970" stroke="#191970" points="1471.3616,-197.9043 1481.7818,-195.9888 1472.4414,-190.9881 1471.3616,-197.9043"/>
</g>
<!-- Node333&#45;&gt;Node203 -->
<g id="edge132" class="edge">
<title>Node333&#45;&gt;Node203</title>
<path fill="none" stroke="#191970" d="M1496.9924,-193.3237C1455.4636,-182.1493 1393.8021,-165.5576 1349.1966,-153.5553"/>
<polygon fill="#191970" stroke="#191970" points="1496.2674,-196.7531 1506.8334,-195.9717 1498.0863,-189.9935 1496.2674,-196.7531"/>
</g>
<!-- Node333&#45;&gt;Node240 -->
<g id="edge133" class="edge">
<title>Node333&#45;&gt;Node240</title>
<path fill="none" stroke="#191970" d="M1522.9004,-189.2992C1507.514,-176.4131 1486.5081,-158.8207 1473.6854,-148.0817"/>
<polygon fill="#191970" stroke="#191970" points="1520.8688,-192.1631 1530.7826,-195.9005 1525.3633,-186.7965 1520.8688,-192.1631"/>
</g>
<!-- Node333&#45;&gt;Node293 -->
<g id="edge134" class="edge">
<title>Node333&#45;&gt;Node293</title>
<path fill="none" stroke="#191970" d="M1561.5864,-189.3012C1574.59,-178.4107 1591.6083,-164.1579 1604.3082,-153.5218"/>
<polygon fill="#191970" stroke="#191970" points="1559.1259,-186.7965 1553.7067,-195.9005 1563.6204,-192.1631 1559.1259,-186.7965"/>
</g>
<!-- Node333&#45;&gt;Node298 -->
<g id="edge135" class="edge">
<title>Node333&#45;&gt;Node298</title>
<path fill="none" stroke="#191970" d="M1584.5167,-193.0779C1628.7899,-180.0678 1697.3715,-159.9145 1737.6384,-148.0817"/>
<polygon fill="#191970" stroke="#191970" points="1583.519,-189.7231 1574.9114,-195.9005 1585.4926,-196.4391 1583.519,-189.7231"/>
</g>
<!-- Node334&#45;&gt;Node6 -->
<g id="edge140" class="edge">
<title>Node334&#45;&gt;Node6</title>
<path fill="none" stroke="#191970" d="M3463.1408,-247.1692C3463.3357,-229.2967 3466.803,-203.7744 3483.2446,-190 3529.8491,-150.9556 3968.6609,-159.105 4029.2446,-154 4058.7871,-151.5107 4091.5255,-148.2159 4118.9456,-145.3043"/>
<polygon fill="#191970" stroke="#191970" points="3459.6462,-247.4528 3463.3686,-257.3722 3466.6445,-247.2965 3459.6462,-247.4528"/>
</g>
<!-- Node334&#45;&gt;Node322 -->
<g id="edge146" class="edge">
<title>Node334&#45;&gt;Node322</title>
<path fill="none" stroke="#191970" d="M3553.6605,-265.235C3705.6361,-261.5182 4023.8681,-250.6273 4291.2446,-221 4304.9105,-219.4857 4319.6212,-217.2964 4333.2195,-215.038"/>
<polygon fill="#191970" stroke="#191970" points="3553.3637,-261.7411 3543.4506,-265.48 3553.5317,-268.7391 3553.3637,-261.7411"/>
</g>
<!-- Node334&#45;&gt;Node10 -->
<g id="edge137" class="edge">
<title>Node334&#45;&gt;Node10</title>
<path fill="none" stroke="#191970" d="M3375.0955,-257.3184C3373.8035,-257.2094 3372.5193,-257.1031 3371.2446,-257 3028.036,-229.2352 2613.609,-212.4654 2473.3482,-207.255"/>
<polygon fill="#191970" stroke="#191970" points="3374.8542,-260.8106 3385.1236,-258.2052 3375.4708,-253.8379 3374.8542,-260.8106"/>
</g>
<!-- Node334&#45;&gt;Node307 -->
<g id="edge138" class="edge">
<title>Node334&#45;&gt;Node307</title>
<path fill="none" stroke="#191970" d="M3491.0641,-252.6574C3509.0939,-243.0154 3532.8149,-230.3298 3551.1124,-220.5446"/>
<polygon fill="#191970" stroke="#191970" points="3489.381,-249.5884 3482.2134,-257.3906 3492.6821,-255.7611 3489.381,-249.5884"/>
</g>
<!-- Node334&#45;&gt;Node308 -->
<g id="edge139" class="edge">
<title>Node334&#45;&gt;Node308</title>
<path fill="none" stroke="#191970" d="M3438.8278,-252.3912C3422.1107,-242.7829 3400.2882,-230.24 3383.4198,-220.5446"/>
<polygon fill="#191970" stroke="#191970" points="3437.1118,-255.4419 3447.5259,-257.3906 3440.6,-249.3729 3437.1118,-255.4419"/>
</g>
<!-- Node334&#45;&gt;Node328 -->
<g id="edge142" class="edge">
<title>Node334&#45;&gt;Node328</title>
<path fill="none" stroke="#191970" d="M3553.8097,-261.375C3665.0226,-254.0007 3860.4456,-239.7658 4027.2446,-221 4042.9621,-219.2317 4059.9163,-216.9679 4075.6283,-214.72"/>
<polygon fill="#191970" stroke="#191970" points="3553.3916,-257.8948 3543.6437,-262.0455 3553.8524,-264.8797 3553.3916,-257.8948"/>
</g>
<!-- Node334&#45;&gt;Node329 -->
<g id="edge144" class="edge">
<title>Node334&#45;&gt;Node329</title>
<path fill="none" stroke="#191970" d="M3549.63,-256.2393C3645.3211,-244.1799 3798.4498,-224.8819 3885.6873,-213.8879"/>
<polygon fill="#191970" stroke="#191970" points="3549.1759,-252.7688 3539.692,-257.4918 3550.0512,-259.7139 3549.1759,-252.7688"/>
</g>
<!-- Node334&#45;&gt;Node325 -->
<g id="edge141" class="edge">
<title>Node334&#45;&gt;Node325</title>
<path fill="none" stroke="#191970" d="M3374.9039,-266.2647C2975.5544,-262.8378 1363.7822,-247.4734 1139.2446,-221 1128.093,-219.6852 1116.1138,-217.4112 1105.2303,-215.0038"/>
<polygon fill="#191970" stroke="#191970" points="3374.928,-269.7649 3384.9576,-266.3506 3374.9879,-262.7651 3374.928,-269.7649"/>
</g>
<!-- Node334&#45;&gt;Node326 -->
<g id="edge143" class="edge">
<title>Node334&#45;&gt;Node326</title>
<path fill="none" stroke="#191970" d="M3374.8953,-259.4772C3360.9614,-258.507 3346.7202,-257.6328 3333.2446,-257 2880.7837,-235.7525 1745.6179,-269.3348 1295.2446,-221 1283.027,-219.6888 1269.877,-217.4159 1257.9196,-215.0084"/>
<polygon fill="#191970" stroke="#191970" points="3374.7472,-262.9755 3384.9717,-260.1986 3375.2472,-255.9934 3374.7472,-262.9755"/>
</g>
<!-- Node334&#45;&gt;Node327 -->
<g id="edge145" class="edge">
<title>Node334&#45;&gt;Node327</title>
<path fill="none" stroke="#191970" d="M3375.1001,-257.2543C3373.8067,-257.1653 3372.5209,-257.0804 3371.2446,-257 2943.5727,-230.067 1869.0514,-269.1375 1443.2446,-221 1431.6364,-219.6877 1419.1555,-217.4144 1407.8118,-215.007"/>
<polygon fill="#191970" stroke="#191970" points="3374.9021,-260.7493 3385.1375,-258.0128 3375.4296,-253.7692 3374.9021,-260.7493"/>
</g>
</g>
</svg>
