<?xml version="1.0" encoding="UTF-8" standalone="no"?>
<!DOCTYPE svg PUBLIC "-//W3C//DTD SVG 1.1//EN"
 "http://www.w3.org/Graphics/SVG/1.1/DTD/svg11.dtd">
<!-- Generated by graphviz version 2.40.1 (20161225.0304)
 -->
<!-- Title: sitkProcessObject.h Pages: 1 -->
<svg width="7599pt" height="218pt"
 viewBox="0.00 0.00 7598.50 218.00" xmlns="http://www.w3.org/2000/svg" xmlns:xlink="http://www.w3.org/1999/xlink">
<g id="graph0" class="graph" transform="scale(1 1) rotate(0) translate(4 214)">
<title>sitkProcessObject.h</title>
<polygon fill="#ffffff" stroke="transparent" points="-4,4 -4,-214 7594.5,-214 7594.5,4 -4,4"/>
<!-- Node1 -->
<g id="node1" class="node">
<title>Node1</title>
<g id="a_node1"><a xlink:title=" ">
<polygon fill="#bfbfbf" stroke="#000000" points="6780.5,-190.5 6780.5,-209.5 6893.5,-209.5 6893.5,-190.5 6780.5,-190.5"/>
<text text-anchor="middle" x="6837" y="-197.5" font-family="Helvetica,sans-Serif" font-size="10.00" fill="#000000">sitkProcessObject.h</text>
</a>
</g>
</g>
<!-- Node2 -->
<g id="node2" class="node">
<title>Node2</title>
<g id="a_node2"><a xlink:href="sitkImageFilter_8h.html" target="_top" xlink:title=" ">
<polygon fill="#ffffff" stroke="#ff0000" points="3107,-129 3107,-148 3205,-148 3205,-129 3107,-129"/>
<text text-anchor="middle" x="3156" y="-136" font-family="Helvetica,sans-Serif" font-size="10.00" fill="#000000">sitkImageFilter.h</text>
</a>
</g>
</g>
<!-- Node1&#45;&gt;Node2 -->
<g id="edge1" class="edge">
<title>Node1&#45;&gt;Node2</title>
<path fill="none" stroke="#191970" d="M6770.1242,-198.8827C6308.7304,-191.174 3604.2613,-145.9893 3205.186,-139.3218"/>
<polygon fill="#191970" stroke="#191970" points="6770.2296,-202.3848 6780.2867,-199.0525 6770.3466,-195.3858 6770.2296,-202.3848"/>
</g>
<!-- Node4 -->
<g id="node4" class="node">
<title>Node4</title>
<g id="a_node4"><a xlink:href="SimpleITK_8h.html" target="_top" xlink:title=" ">
<polygon fill="#ffffff" stroke="#000000" points="6598.5,-.5 6598.5,-19.5 6673.5,-19.5 6673.5,-.5 6598.5,-.5"/>
<text text-anchor="middle" x="6636" y="-7.5" font-family="Helvetica,sans-Serif" font-size="10.00" fill="#000000">SimpleITK.h</text>
</a>
</g>
</g>
<!-- Node1&#45;&gt;Node4 -->
<g id="edge51" class="edge">
<title>Node1&#45;&gt;Node4</title>
<path fill="none" stroke="#191970" d="M6769.8334,-197.867C6652.3448,-193.4386 6419.5998,-181.2929 6395,-154 6385.7756,-143.7658 6386.2428,-133.6366 6395,-123 6447.9639,-58.6694 6508.5499,-131.5016 6579,-87 6605.5768,-70.2121 6623.9797,-36.243 6631.792,-19.6123"/>
<polygon fill="#191970" stroke="#191970" points="6770.0253,-201.3764 6780.1474,-198.2471 6770.2831,-194.3811 6770.0253,-201.3764"/>
</g>
<!-- Node6 -->
<g id="node6" class="node">
<title>Node6</title>
<g id="a_node6"><a xlink:href="sitkHashImageFilter_8h.html" target="_top" xlink:title=" ">
<polygon fill="#ffffff" stroke="#000000" points="6448,-62 6448,-81 6570,-81 6570,-62 6448,-62"/>
<text text-anchor="middle" x="6509" y="-69" font-family="Helvetica,sans-Serif" font-size="10.00" fill="#000000">sitkHashImageFilter.h</text>
</a>
</g>
</g>
<!-- Node1&#45;&gt;Node6 -->
<g id="edge50" class="edge">
<title>Node1&#45;&gt;Node6</title>
<path fill="none" stroke="#191970" d="M6770.2093,-198.4198C6645.6408,-194.7783 6387.9732,-183.7055 6361,-154 6351.738,-143.7998 6353.0175,-134.2297 6361,-123 6373.2946,-105.7041 6425.5632,-90.3637 6464.522,-81.0181"/>
<polygon fill="#191970" stroke="#191970" points="6770.2959,-201.9235 6780.3915,-198.7095 6770.4951,-194.9264 6770.2959,-201.9235"/>
</g>
<!-- Node303 -->
<g id="node43" class="node">
<title>Node303</title>
<g id="a_node43"><a xlink:href="sitkCenteredTransformInitializerFilter_8h.html" target="_top" xlink:title=" ">
<polygon fill="#ffffff" stroke="#000000" points="6403.5,-123.5 6403.5,-153.5 6576.5,-153.5 6576.5,-123.5 6403.5,-123.5"/>
<text text-anchor="start" x="6411.5" y="-141.5" font-family="Helvetica,sans-Serif" font-size="10.00" fill="#000000">sitkCenteredTransformInitializer</text>
<text text-anchor="middle" x="6490" y="-130.5" font-family="Helvetica,sans-Serif" font-size="10.00" fill="#000000">Filter.h</text>
</a>
</g>
</g>
<!-- Node1&#45;&gt;Node303 -->
<g id="edge46" class="edge">
<title>Node1&#45;&gt;Node303</title>
<path fill="none" stroke="#191970" d="M6773.0551,-188.6668C6717.2768,-178.781 6635.9317,-164.364 6574.7431,-153.5193"/>
<polygon fill="#191970" stroke="#191970" points="6772.7046,-192.1592 6783.162,-190.4581 6773.9263,-185.2666 6772.7046,-192.1592"/>
</g>
<!-- Node304 -->
<g id="node44" class="node">
<title>Node304</title>
<g id="a_node44"><a xlink:href="sitkCenteredVersorTransformInitializerFilter_8h.html" target="_top" xlink:title=" ">
<polygon fill="#ffffff" stroke="#000000" points="6595,-123.5 6595,-153.5 6753,-153.5 6753,-123.5 6595,-123.5"/>
<text text-anchor="start" x="6603" y="-141.5" font-family="Helvetica,sans-Serif" font-size="10.00" fill="#000000">sitkCenteredVersorTransform</text>
<text text-anchor="middle" x="6674" y="-130.5" font-family="Helvetica,sans-Serif" font-size="10.00" fill="#000000">InitializerFilter.h</text>
</a>
</g>
</g>
<!-- Node1&#45;&gt;Node304 -->
<g id="edge48" class="edge">
<title>Node1&#45;&gt;Node304</title>
<path fill="none" stroke="#191970" d="M6802.109,-186.8356C6776.2202,-177.0678 6740.8797,-163.7338 6713.8743,-153.5446"/>
<polygon fill="#191970" stroke="#191970" points="6800.9395,-190.1351 6811.5313,-190.3906 6803.4106,-183.5858 6800.9395,-190.1351"/>
</g>
<!-- Node305 -->
<g id="node45" class="node">
<title>Node305</title>
<g id="a_node45"><a xlink:href="sitkImageReaderBase_8h.html" target="_top" xlink:title=" ">
<polygon fill="#ffffff" stroke="#ff0000" points="6771,-129 6771,-148 6903,-148 6903,-129 6771,-129"/>
<text text-anchor="middle" x="6837" y="-136" font-family="Helvetica,sans-Serif" font-size="10.00" fill="#000000">sitkImageReaderBase.h</text>
</a>
</g>
</g>
<!-- Node1&#45;&gt;Node305 -->
<g id="edge52" class="edge">
<title>Node1&#45;&gt;Node305</title>
<path fill="none" stroke="#191970" d="M6837,-180.2462C6837,-169.5519 6837,-156.814 6837,-148.2449"/>
<polygon fill="#191970" stroke="#191970" points="6833.5001,-180.3906 6837,-190.3906 6840.5001,-180.3907 6833.5001,-180.3906"/>
</g>
<!-- Node309 -->
<g id="node46" class="node">
<title>Node309</title>
<g id="a_node46"><a xlink:href="sitkImageFileWriter_8h.html" target="_top" xlink:title=" ">
<polygon fill="#ffffff" stroke="#000000" points="6921.5,-129 6921.5,-148 7040.5,-148 7040.5,-129 6921.5,-129"/>
<text text-anchor="middle" x="6981" y="-136" font-family="Helvetica,sans-Serif" font-size="10.00" fill="#000000">sitkImageFileWriter.h</text>
</a>
</g>
</g>
<!-- Node1&#45;&gt;Node309 -->
<g id="edge53" class="edge">
<title>Node1&#45;&gt;Node309</title>
<path fill="none" stroke="#191970" d="M6868.9778,-186.3428C6896.2064,-174.7139 6934.627,-158.3051 6958.658,-148.0419"/>
<polygon fill="#191970" stroke="#191970" points="6867.3217,-183.2442 6859.5,-190.3906 6870.0711,-189.6817 6867.3217,-183.2442"/>
</g>
<!-- Node310 -->
<g id="node47" class="node">
<title>Node310</title>
<g id="a_node47"><a xlink:href="sitkImageSeriesWriter_8h.html" target="_top" xlink:title=" ">
<polygon fill="#ffffff" stroke="#000000" points="7058.5,-129 7058.5,-148 7191.5,-148 7191.5,-129 7058.5,-129"/>
<text text-anchor="middle" x="7125" y="-136" font-family="Helvetica,sans-Serif" font-size="10.00" fill="#000000">sitkImageSeriesWriter.h</text>
</a>
</g>
</g>
<!-- Node1&#45;&gt;Node310 -->
<g id="edge55" class="edge">
<title>Node1&#45;&gt;Node310</title>
<path fill="none" stroke="#191970" d="M6891.5423,-188.3529C6946.1889,-176.6836 7029.2985,-158.9363 7080.2112,-148.0643"/>
<polygon fill="#191970" stroke="#191970" points="6890.7326,-184.9469 6881.684,-190.4581 6892.1945,-191.7925 6890.7326,-184.9469"/>
</g>
<!-- Node311 -->
<g id="node48" class="node">
<title>Node311</title>
<g id="a_node48"><a xlink:href="sitkImageViewer_8h.html" target="_top" xlink:title=" ">
<polygon fill="#ffffff" stroke="#000000" points="7209.5,-129 7209.5,-148 7316.5,-148 7316.5,-129 7209.5,-129"/>
<text text-anchor="middle" x="7263" y="-136" font-family="Helvetica,sans-Serif" font-size="10.00" fill="#000000">sitkImageViewer.h</text>
</a>
</g>
</g>
<!-- Node1&#45;&gt;Node311 -->
<g id="edge57" class="edge">
<title>Node1&#45;&gt;Node311</title>
<path fill="none" stroke="#191970" d="M6903.7761,-193.9732C6977.0644,-186.799 7098.0053,-173.311 7201,-154 7209.8332,-152.3438 7219.2836,-150.184 7228.0764,-148.0049"/>
<polygon fill="#191970" stroke="#191970" points="6903.3739,-190.4957 6893.7579,-194.9436 6904.0488,-197.4631 6903.3739,-190.4957"/>
</g>
<!-- Node312 -->
<g id="node49" class="node">
<title>Node312</title>
<g id="a_node49"><a xlink:href="sitkShow_8h.html" target="_top" xlink:title=" ">
<polygon fill="#ffffff" stroke="#000000" points="7334.5,-129 7334.5,-148 7403.5,-148 7403.5,-129 7334.5,-129"/>
<text text-anchor="middle" x="7369" y="-136" font-family="Helvetica,sans-Serif" font-size="10.00" fill="#000000">sitkShow.h</text>
</a>
</g>
</g>
<!-- Node1&#45;&gt;Node312 -->
<g id="edge59" class="edge">
<title>Node1&#45;&gt;Node312</title>
<path fill="none" stroke="#191970" d="M6903.7116,-195.8137C7018.1949,-188.2804 7247.3409,-171.5798 7326,-154 7332.5053,-152.5461 7339.3711,-150.3775 7345.6605,-148.1198"/>
<polygon fill="#191970" stroke="#191970" points="6903.4168,-192.3254 6893.6665,-196.4705 6903.8736,-199.3105 6903.4168,-192.3254"/>
</g>
<!-- Node313 -->
<g id="node50" class="node">
<title>Node313</title>
<g id="a_node50"><a xlink:href="sitkImageRegistrationMethod_8h.html" target="_top" xlink:title=" ">
<polygon fill="#ffffff" stroke="#000000" points="7421.5,-129 7421.5,-148 7590.5,-148 7590.5,-129 7421.5,-129"/>
<text text-anchor="middle" x="7506" y="-136" font-family="Helvetica,sans-Serif" font-size="10.00" fill="#000000">sitkImageRegistrationMethod.h</text>
</a>
</g>
</g>
<!-- Node1&#45;&gt;Node313 -->
<g id="edge61" class="edge">
<title>Node1&#45;&gt;Node313</title>
<path fill="none" stroke="#191970" d="M6903.625,-196.5334C7011.0924,-190.5254 7229.2511,-176.6077 7413,-154 7426.1593,-152.3809 7440.3017,-150.2347 7453.4877,-148.057"/>
<polygon fill="#191970" stroke="#191970" points="6903.3664,-193.0422 6893.5754,-197.0901 6903.7537,-200.0315 6903.3664,-193.0422"/>
</g>
<!-- Node3 -->
<g id="node3" class="node">
<title>Node3</title>
<g id="a_node3"><a xlink:href="sitkBSplineTransformInitializerFilter_8h.html" target="_top" xlink:title=" ">
<polygon fill="#ffffff" stroke="#000000" points="0,-56.5 0,-86.5 166,-86.5 166,-56.5 0,-56.5"/>
<text text-anchor="start" x="8" y="-74.5" font-family="Helvetica,sans-Serif" font-size="10.00" fill="#000000">sitkBSplineTransformInitializer</text>
<text text-anchor="middle" x="83" y="-63.5" font-family="Helvetica,sans-Serif" font-size="10.00" fill="#000000">Filter.h</text>
</a>
</g>
</g>
<!-- Node2&#45;&gt;Node3 -->
<g id="edge2" class="edge">
<title>Node2&#45;&gt;Node3</title>
<path fill="none" stroke="#191970" d="M3096.7523,-137.9785C2703.8062,-134.4528 480.1563,-113.4455 180,-87 175.4981,-86.6034 170.8889,-86.1227 166.2428,-85.5798"/>
<polygon fill="#191970" stroke="#191970" points="3096.7396,-141.4784 3106.7706,-138.0681 3096.8023,-134.4787 3096.7396,-141.4784"/>
</g>
<!-- Node2&#45;&gt;Node4 -->
<g id="edge10" class="edge">
<title>Node2&#45;&gt;Node4</title>
<path fill="none" stroke="#191970" d="M3096.6761,-138.0276C2682.5203,-134.6623 239.2238,-113.6867 213,-87 203.3432,-77.1728 203.2926,-65.7772 213,-56 243.0158,-25.7685 6074.5918,-11.3239 6598.4619,-10.0871"/>
<polygon fill="#191970" stroke="#191970" points="3096.9013,-141.5294 3106.9293,-138.1107 3096.9581,-134.5297 3096.9013,-141.5294"/>
</g>
<!-- Node5 -->
<g id="node5" class="node">
<title>Node5</title>
<g id="a_node5"><a xlink:href="sitkCastImageFilter_8h.html" target="_top" xlink:title=" ">
<polygon fill="#ffffff" stroke="#000000" points="222.5,-62 222.5,-81 341.5,-81 341.5,-62 222.5,-62"/>
<text text-anchor="middle" x="282" y="-69" font-family="Helvetica,sans-Serif" font-size="10.00" fill="#000000">sitkCastImageFilter.h</text>
</a>
</g>
</g>
<!-- Node2&#45;&gt;Node5 -->
<g id="edge4" class="edge">
<title>Node2&#45;&gt;Node5</title>
<path fill="none" stroke="#191970" d="M3096.585,-138.1325C2716.4441,-135.685 632.0922,-120.798 351,-87 340.151,-85.6955 328.5058,-83.4247 317.9292,-81.017"/>
<polygon fill="#191970" stroke="#191970" points="3096.7908,-141.6337 3106.813,-138.1979 3096.8356,-134.6339 3096.7908,-141.6337"/>
</g>
<!-- Node2&#45;&gt;Node6 -->
<g id="edge6" class="edge">
<title>Node2&#45;&gt;Node6</title>
<path fill="none" stroke="#191970" d="M3215.3253,-138.2925C3631.5955,-136.7408 6107.2986,-125.9196 6439,-87 6450.0025,-85.709 6461.8153,-83.4423 6472.5453,-81.0343"/>
<polygon fill="#191970" stroke="#191970" points="3215.0109,-134.7935 3205.0239,-138.3305 3215.0368,-141.7934 3215.0109,-134.7935"/>
</g>
<!-- Node7 -->
<g id="node7" class="node">
<title>Node7</title>
<g id="a_node7"><a xlink:href="sitkLandmarkBasedTransformInitializerFilter_8h.html" target="_top" xlink:title=" ">
<polygon fill="#ffffff" stroke="#000000" points="360,-56.5 360,-86.5 522,-86.5 522,-56.5 360,-56.5"/>
<text text-anchor="start" x="368" y="-74.5" font-family="Helvetica,sans-Serif" font-size="10.00" fill="#000000">sitkLandmarkBasedTransform</text>
<text text-anchor="middle" x="441" y="-63.5" font-family="Helvetica,sans-Serif" font-size="10.00" fill="#000000">InitializerFilter.h</text>
</a>
</g>
</g>
<!-- Node2&#45;&gt;Node7 -->
<g id="edge8" class="edge">
<title>Node2&#45;&gt;Node7</title>
<path fill="none" stroke="#191970" d="M3096.6874,-137.8741C2731.3786,-133.9478 793.8507,-112.0682 531,-87 528.159,-86.7291 525.2725,-86.4196 522.3611,-86.0783"/>
<polygon fill="#191970" stroke="#191970" points="3096.7468,-141.3749 3106.7838,-137.9824 3096.8219,-134.3753 3096.7468,-141.3749"/>
</g>
<!-- Node8 -->
<g id="node8" class="node">
<title>Node8</title>
<g id="a_node8"><a xlink:href="sitkAbsImageFilter_8h.html" target="_top" xlink:title=" ">
<polygon fill="#ffffff" stroke="#ff0000" points="540,-62 540,-81 656,-81 656,-62 540,-62"/>
<text text-anchor="middle" x="598" y="-69" font-family="Helvetica,sans-Serif" font-size="10.00" fill="#000000">sitkAbsImageFilter.h</text>
</a>
</g>
</g>
<!-- Node2&#45;&gt;Node8 -->
<g id="edge11" class="edge">
<title>Node2&#45;&gt;Node8</title>
<path fill="none" stroke="#191970" d="M3096.9051,-138.0103C2743.1668,-134.9815 912.9868,-117.9109 665,-87 654.4557,-85.6857 643.1451,-83.4118 632.8754,-81.0045"/>
<polygon fill="#191970" stroke="#191970" points="3096.9075,-141.5103 3106.9371,-138.0958 3096.9673,-134.5106 3096.9075,-141.5103"/>
</g>
<!-- Node11 -->
<g id="node9" class="node">
<title>Node11</title>
<g id="a_node9"><a xlink:href="sitkAbsoluteValueDifferenceImageFilter_8h.html" target="_top" xlink:title=" ">
<polygon fill="#ffffff" stroke="#ff0000" points="674.5,-56.5 674.5,-86.5 829.5,-86.5 829.5,-56.5 674.5,-56.5"/>
<text text-anchor="start" x="682.5" y="-74.5" font-family="Helvetica,sans-Serif" font-size="10.00" fill="#000000">sitkAbsoluteValueDifference</text>
<text text-anchor="middle" x="752" y="-63.5" font-family="Helvetica,sans-Serif" font-size="10.00" fill="#000000">ImageFilter.h</text>
</a>
</g>
</g>
<!-- Node2&#45;&gt;Node11 -->
<g id="edge12" class="edge">
<title>Node2&#45;&gt;Node11</title>
<path fill="none" stroke="#191970" d="M3096.7669,-137.7379C2757.5465,-133.2996 1068.4083,-110.1798 838,-87 835.2829,-86.7267 832.5227,-86.4151 829.739,-86.0721"/>
<polygon fill="#191970" stroke="#191970" points="3096.8273,-141.2389 3106.8722,-137.8698 3096.9187,-134.2395 3096.8273,-141.2389"/>
</g>
<!-- Node12 -->
<g id="node10" class="node">
<title>Node12</title>
<g id="a_node10"><a xlink:href="sitkAcosImageFilter_8h.html" target="_top" xlink:title=" ">
<polygon fill="#ffffff" stroke="#ff0000" points="847.5,-62 847.5,-81 968.5,-81 968.5,-62 847.5,-62"/>
<text text-anchor="middle" x="908" y="-69" font-family="Helvetica,sans-Serif" font-size="10.00" fill="#000000">sitkAcosImageFilter.h</text>
</a>
</g>
</g>
<!-- Node2&#45;&gt;Node12 -->
<g id="edge13" class="edge">
<title>Node2&#45;&gt;Node12</title>
<path fill="none" stroke="#191970" d="M3096.6928,-137.7978C2769.5437,-133.8307 1192.2629,-113.4587 977,-87 966.2763,-85.6819 954.7719,-83.4385 944.2905,-81.0616"/>
<polygon fill="#191970" stroke="#191970" points="3096.863,-141.3 3106.9046,-137.9212 3096.9477,-134.3005 3096.863,-141.3"/>
</g>
<!-- Node13 -->
<g id="node11" class="node">
<title>Node13</title>
<g id="a_node11"><a xlink:href="sitkAdaptiveHistogramEqualizationImageFilter_8h.html" target="_top" xlink:title=" ">
<polygon fill="#ffffff" stroke="#ff0000" points="986.5,-56.5 986.5,-86.5 1175.5,-86.5 1175.5,-56.5 986.5,-56.5"/>
<text text-anchor="start" x="994.5" y="-74.5" font-family="Helvetica,sans-Serif" font-size="10.00" fill="#000000">sitkAdaptiveHistogramEqualization</text>
<text text-anchor="middle" x="1081" y="-63.5" font-family="Helvetica,sans-Serif" font-size="10.00" fill="#000000">ImageFilter.h</text>
</a>
</g>
</g>
<!-- Node2&#45;&gt;Node13 -->
<g id="edge14" class="edge">
<title>Node2&#45;&gt;Node13</title>
<path fill="none" stroke="#191970" d="M3096.3866,-137.9228C2809.6075,-134.9963 1570.0569,-120.5988 1185,-87 1181.9084,-86.7302 1178.7688,-86.428 1175.6012,-86.0986"/>
<polygon fill="#191970" stroke="#191970" points="3096.5436,-141.4245 3106.5786,-138.0261 3096.6146,-134.4249 3096.5436,-141.4245"/>
</g>
<!-- Node14 -->
<g id="node12" class="node">
<title>Node14</title>
<g id="a_node12"><a xlink:href="sitkAddImageFilter_8h.html" target="_top" xlink:title=" ">
<polygon fill="#ffffff" stroke="#ff0000" points="1194,-62 1194,-81 1310,-81 1310,-62 1194,-62"/>
<text text-anchor="middle" x="1252" y="-69" font-family="Helvetica,sans-Serif" font-size="10.00" fill="#000000">sitkAddImageFilter.h</text>
</a>
</g>
</g>
<!-- Node2&#45;&gt;Node14 -->
<g id="edge15" class="edge">
<title>Node2&#45;&gt;Node14</title>
<path fill="none" stroke="#191970" d="M3096.797,-137.5425C2801.8875,-132.6787 1498.4364,-110.0368 1319,-87 1308.5791,-85.6621 1297.4055,-83.4125 1287.2282,-81.036"/>
<polygon fill="#191970" stroke="#191970" points="3096.8026,-141.043 3106.8589,-137.708 3096.9178,-134.044 3096.8026,-141.043"/>
</g>
<!-- Node16 -->
<g id="node13" class="node">
<title>Node16</title>
<g id="a_node13"><a xlink:href="sitkAdditiveGaussianNoiseImageFilter_8h.html" target="_top" xlink:title=" ">
<polygon fill="#ffffff" stroke="#ff0000" points="1328,-56.5 1328,-86.5 1476,-86.5 1476,-56.5 1328,-56.5"/>
<text text-anchor="start" x="1336" y="-74.5" font-family="Helvetica,sans-Serif" font-size="10.00" fill="#000000">sitkAdditiveGaussianNoise</text>
<text text-anchor="middle" x="1402" y="-63.5" font-family="Helvetica,sans-Serif" font-size="10.00" fill="#000000">ImageFilter.h</text>
</a>
</g>
</g>
<!-- Node2&#45;&gt;Node16 -->
<g id="edge16" class="edge">
<title>Node2&#45;&gt;Node16</title>
<path fill="none" stroke="#191970" d="M3096.4446,-137.8937C2837.3588,-135.0667 1806.9703,-121.8159 1485,-87 1482.0852,-86.6848 1479.1193,-86.3243 1476.128,-85.9274"/>
<polygon fill="#191970" stroke="#191970" points="3096.7327,-141.3969 3106.77,-138.0052 3096.8084,-134.3973 3096.7327,-141.3969"/>
</g>
<!-- Node17 -->
<g id="node14" class="node">
<title>Node17</title>
<g id="a_node14"><a xlink:href="sitkAggregateLabelMapFilter_8h.html" target="_top" xlink:title=" ">
<polygon fill="#ffffff" stroke="#ff0000" points="1494,-62 1494,-81 1658,-81 1658,-62 1494,-62"/>
<text text-anchor="middle" x="1576" y="-69" font-family="Helvetica,sans-Serif" font-size="10.00" fill="#000000">sitkAggregateLabelMapFilter.h</text>
</a>
</g>
</g>
<!-- Node2&#45;&gt;Node17 -->
<g id="edge17" class="edge">
<title>Node2&#45;&gt;Node17</title>
<path fill="none" stroke="#191970" d="M3096.3473,-137.5066C2855.1562,-133.3245 1951.4594,-116.013 1667,-87 1653.2886,-85.6015 1638.5199,-83.3934 1624.9516,-81.0775"/>
<polygon fill="#191970" stroke="#191970" points="3096.6018,-141.0114 3106.6607,-137.6844 3096.7225,-134.0125 3096.6018,-141.0114"/>
</g>
<!-- Node18 -->
<g id="node15" class="node">
<title>Node18</title>
<g id="a_node15"><a xlink:href="sitkAndImageFilter_8h.html" target="_top" xlink:title=" ">
<polygon fill="#ffffff" stroke="#ff0000" points="1676,-62 1676,-81 1792,-81 1792,-62 1676,-62"/>
<text text-anchor="middle" x="1734" y="-69" font-family="Helvetica,sans-Serif" font-size="10.00" fill="#000000">sitkAndImageFilter.h</text>
</a>
</g>
</g>
<!-- Node2&#45;&gt;Node18 -->
<g id="edge18" class="edge">
<title>Node2&#45;&gt;Node18</title>
<path fill="none" stroke="#191970" d="M3096.8417,-137.7421C2870.196,-134.607 2057.097,-121.1762 1801,-87 1790.7042,-85.626 1779.6683,-83.3958 1769.5843,-81.0499"/>
<polygon fill="#191970" stroke="#191970" points="3096.8252,-141.2421 3106.8722,-137.8794 3096.921,-134.2427 3096.8252,-141.2421"/>
</g>
<!-- Node19 -->
<g id="node16" class="node">
<title>Node19</title>
<g id="a_node16"><a xlink:href="sitkAntiAliasBinaryImageFilter_8h.html" target="_top" xlink:title=" ">
<polygon fill="#ffffff" stroke="#ff0000" points="1810,-56.5 1810,-86.5 1950,-86.5 1950,-56.5 1810,-56.5"/>
<text text-anchor="start" x="1818" y="-74.5" font-family="Helvetica,sans-Serif" font-size="10.00" fill="#000000">sitkAntiAliasBinaryImage</text>
<text text-anchor="middle" x="1880" y="-63.5" font-family="Helvetica,sans-Serif" font-size="10.00" fill="#000000">Filter.h</text>
</a>
</g>
</g>
<!-- Node2&#45;&gt;Node19 -->
<g id="edge19" class="edge">
<title>Node2&#45;&gt;Node19</title>
<path fill="none" stroke="#191970" d="M3096.6166,-137.1315C2887.1072,-132.1179 2183.067,-113.6473 1959,-87 1956.0854,-86.6534 1953.1174,-86.2593 1950.1243,-85.828"/>
<polygon fill="#191970" stroke="#191970" points="3096.7193,-140.6348 3106.7998,-137.3739 3096.886,-133.6368 3096.7193,-140.6348"/>
</g>
<!-- Node20 -->
<g id="node17" class="node">
<title>Node20</title>
<g id="a_node17"><a xlink:href="sitkApproximateSignedDistanceMapImageFilter_8h.html" target="_top" xlink:title=" ">
<polygon fill="#ffffff" stroke="#ff0000" points="1968.5,-56.5 1968.5,-86.5 2141.5,-86.5 2141.5,-56.5 1968.5,-56.5"/>
<text text-anchor="start" x="1976.5" y="-74.5" font-family="Helvetica,sans-Serif" font-size="10.00" fill="#000000">sitkApproximateSignedDistance</text>
<text text-anchor="middle" x="2055" y="-63.5" font-family="Helvetica,sans-Serif" font-size="10.00" fill="#000000">MapImageFilter.h</text>
</a>
</g>
</g>
<!-- Node2&#45;&gt;Node20 -->
<g id="edge20" class="edge">
<title>Node2&#45;&gt;Node20</title>
<path fill="none" stroke="#191970" d="M3096.6178,-137.75C2940.8906,-135.2876 2508.033,-125.2538 2150,-87 2147.2583,-86.7071 2144.4753,-86.3875 2141.6678,-86.0459"/>
<polygon fill="#191970" stroke="#191970" points="3096.8564,-141.2539 3106.909,-137.9079 3096.9639,-134.2548 3096.8564,-141.2539"/>
</g>
<!-- Node21 -->
<g id="node18" class="node">
<title>Node21</title>
<g id="a_node18"><a xlink:href="sitkAsinImageFilter_8h.html" target="_top" xlink:title=" ">
<polygon fill="#ffffff" stroke="#ff0000" points="2159.5,-62 2159.5,-81 2278.5,-81 2278.5,-62 2159.5,-62"/>
<text text-anchor="middle" x="2219" y="-69" font-family="Helvetica,sans-Serif" font-size="10.00" fill="#000000">sitkAsinImageFilter.h</text>
</a>
</g>
</g>
<!-- Node2&#45;&gt;Node21 -->
<g id="edge21" class="edge">
<title>Node2&#45;&gt;Node21</title>
<path fill="none" stroke="#191970" d="M3096.5547,-136.228C2927.268,-129.5585 2444.755,-109.1088 2288,-87 2277.6662,-85.5425 2266.5878,-83.3441 2256.3986,-81.0575"/>
<polygon fill="#191970" stroke="#191970" points="3096.6405,-139.734 3106.77,-136.6287 3096.9149,-132.7394 3096.6405,-139.734"/>
</g>
<!-- Node22 -->
<g id="node19" class="node">
<title>Node22</title>
<g id="a_node19"><a xlink:href="sitkAtan2ImageFilter_8h.html" target="_top" xlink:title=" ">
<polygon fill="#ffffff" stroke="#ff0000" points="2297,-62 2297,-81 2423,-81 2423,-62 2297,-62"/>
<text text-anchor="middle" x="2360" y="-69" font-family="Helvetica,sans-Serif" font-size="10.00" fill="#000000">sitkAtan2ImageFilter.h</text>
</a>
</g>
</g>
<!-- Node2&#45;&gt;Node22 -->
<g id="edge22" class="edge">
<title>Node2&#45;&gt;Node22</title>
<path fill="none" stroke="#191970" d="M3096.5316,-137.1062C2972.4439,-133.5755 2677.1087,-121.9231 2432,-87 2421.3668,-85.485 2409.9597,-83.2954 2399.4314,-81.037"/>
<polygon fill="#191970" stroke="#191970" points="3096.4926,-140.6063 3106.5858,-137.385 3096.6868,-133.609 3096.4926,-140.6063"/>
</g>
<!-- Node23 -->
<g id="node20" class="node">
<title>Node23</title>
<g id="a_node20"><a xlink:href="sitkAtanImageFilter_8h.html" target="_top" xlink:title=" ">
<polygon fill="#ffffff" stroke="#ff0000" points="2441,-62 2441,-81 2561,-81 2561,-62 2441,-62"/>
<text text-anchor="middle" x="2501" y="-69" font-family="Helvetica,sans-Serif" font-size="10.00" fill="#000000">sitkAtanImageFilter.h</text>
</a>
</g>
</g>
<!-- Node2&#45;&gt;Node23 -->
<g id="edge23" class="edge">
<title>Node2&#45;&gt;Node23</title>
<path fill="none" stroke="#191970" d="M3096.5309,-135.8969C2990.3074,-130.6649 2761.1744,-116.7373 2570,-87 2559.9306,-85.4337 2549.1375,-83.2537 2539.1483,-81.0226"/>
<polygon fill="#191970" stroke="#191970" points="3096.57,-139.4029 3106.7277,-136.391 3096.9088,-132.4111 3096.57,-139.4029"/>
</g>
<!-- Node24 -->
<g id="node21" class="node">
<title>Node24</title>
<g id="a_node21"><a xlink:href="sitkBSplineDecompositionImageFilter_8h.html" target="_top" xlink:title=" ">
<polygon fill="#ffffff" stroke="#ff0000" points="2579.5,-56.5 2579.5,-86.5 2724.5,-86.5 2724.5,-56.5 2579.5,-56.5"/>
<text text-anchor="start" x="2587.5" y="-74.5" font-family="Helvetica,sans-Serif" font-size="10.00" fill="#000000">sitkBSplineDecomposition</text>
<text text-anchor="middle" x="2652" y="-63.5" font-family="Helvetica,sans-Serif" font-size="10.00" fill="#000000">ImageFilter.h</text>
</a>
</g>
</g>
<!-- Node2&#45;&gt;Node24 -->
<g id="edge24" class="edge">
<title>Node2&#45;&gt;Node24</title>
<path fill="none" stroke="#191970" d="M3096.8815,-132.5836C3014.9426,-124.0919 2862.3229,-107.2221 2733,-87 2730.3123,-86.5797 2727.5774,-86.1365 2724.817,-85.6759"/>
<polygon fill="#191970" stroke="#191970" points="3096.6936,-136.0827 3106.9998,-133.6268 3097.4115,-129.1196 3096.6936,-136.0827"/>
</g>
<!-- Node25 -->
<g id="node22" class="node">
<title>Node25</title>
<g id="a_node22"><a xlink:href="sitkBilateralImageFilter_8h.html" target="_top" xlink:title=" ">
<polygon fill="#ffffff" stroke="#ff0000" points="2742.5,-62 2742.5,-81 2881.5,-81 2881.5,-62 2742.5,-62"/>
<text text-anchor="middle" x="2812" y="-69" font-family="Helvetica,sans-Serif" font-size="10.00" fill="#000000">sitkBilateralImageFilter.h</text>
</a>
</g>
</g>
<!-- Node2&#45;&gt;Node25 -->
<g id="edge25" class="edge">
<title>Node2&#45;&gt;Node25</title>
<path fill="none" stroke="#191970" d="M3096.6347,-126.9946C3042.9241,-116.5775 2961.6546,-100.7968 2891,-87 2881.1233,-85.0714 2870.5532,-83.0015 2860.461,-81.0224"/>
<polygon fill="#191970" stroke="#191970" points="3096.1824,-130.472 3106.6659,-128.9399 3097.5151,-123.6 3096.1824,-130.472"/>
</g>
<!-- Node26 -->
<g id="node23" class="node">
<title>Node26</title>
<g id="a_node23"><a xlink:href="sitkBinShrinkImageFilter_8h.html" target="_top" xlink:title=" ">
<polygon fill="#ffffff" stroke="#ff0000" points="2900,-62 2900,-81 3044,-81 3044,-62 2900,-62"/>
<text text-anchor="middle" x="2972" y="-69" font-family="Helvetica,sans-Serif" font-size="10.00" fill="#000000">sitkBinShrinkImageFilter.h</text>
</a>
</g>
</g>
<!-- Node2&#45;&gt;Node26 -->
<g id="edge26" class="edge">
<title>Node2&#45;&gt;Node26</title>
<path fill="none" stroke="#191970" d="M3120.0678,-125.416C3084.3025,-112.3928 3030.2637,-92.7156 2998.3138,-81.0817"/>
<polygon fill="#191970" stroke="#191970" points="3119.0433,-128.7677 3129.6373,-128.9005 3121.4384,-122.1902 3119.0433,-128.7677"/>
</g>
<!-- Node27 -->
<g id="node24" class="node">
<title>Node27</title>
<g id="a_node24"><a xlink:href="sitkBinaryClosingByReconstructionImageFilter_8h.html" target="_top" xlink:title=" ">
<polygon fill="#ffffff" stroke="#ff0000" points="3062.5,-56.5 3062.5,-86.5 3249.5,-86.5 3249.5,-56.5 3062.5,-56.5"/>
<text text-anchor="start" x="3070.5" y="-74.5" font-family="Helvetica,sans-Serif" font-size="10.00" fill="#000000">sitkBinaryClosingByReconstruction</text>
<text text-anchor="middle" x="3156" y="-63.5" font-family="Helvetica,sans-Serif" font-size="10.00" fill="#000000">ImageFilter.h</text>
</a>
</g>
</g>
<!-- Node2&#45;&gt;Node27 -->
<g id="edge27" class="edge">
<title>Node2&#45;&gt;Node27</title>
<path fill="none" stroke="#191970" d="M3156,-118.7758C3156,-108.4641 3156,-96.0437 3156,-86.5218"/>
<polygon fill="#191970" stroke="#191970" points="3152.5001,-118.9005 3156,-128.9005 3159.5001,-118.9006 3152.5001,-118.9005"/>
</g>
<!-- Node28 -->
<g id="node25" class="node">
<title>Node28</title>
<g id="a_node25"><a xlink:href="sitkBinaryContourImageFilter_8h.html" target="_top" xlink:title=" ">
<polygon fill="#ffffff" stroke="#ff0000" points="3267.5,-62 3267.5,-81 3434.5,-81 3434.5,-62 3267.5,-62"/>
<text text-anchor="middle" x="3351" y="-69" font-family="Helvetica,sans-Serif" font-size="10.00" fill="#000000">sitkBinaryContourImageFilter.h</text>
</a>
</g>
</g>
<!-- Node2&#45;&gt;Node28 -->
<g id="edge28" class="edge">
<title>Node2&#45;&gt;Node28</title>
<path fill="none" stroke="#191970" d="M3193.5955,-125.5826C3231.4938,-112.5611 3289.1084,-92.7653 3323.1131,-81.0817"/>
<polygon fill="#191970" stroke="#191970" points="3192.2588,-122.341 3183.9387,-128.9005 3194.5334,-128.9611 3192.2588,-122.341"/>
</g>
<!-- Node29 -->
<g id="node26" class="node">
<title>Node29</title>
<g id="a_node26"><a xlink:href="sitkBinaryDilateImageFilter_8h.html" target="_top" xlink:title=" ">
<polygon fill="#ffffff" stroke="#ff0000" points="3452,-62 3452,-81 3610,-81 3610,-62 3452,-62"/>
<text text-anchor="middle" x="3531" y="-69" font-family="Helvetica,sans-Serif" font-size="10.00" fill="#000000">sitkBinaryDilateImageFilter.h</text>
</a>
</g>
</g>
<!-- Node2&#45;&gt;Node29 -->
<g id="edge29" class="edge">
<title>Node2&#45;&gt;Node29</title>
<path fill="none" stroke="#191970" d="M3214.8694,-127.982C3287.0199,-115.0911 3408.2285,-93.4352 3477.7258,-81.0183"/>
<polygon fill="#191970" stroke="#191970" points="3214.2532,-124.5366 3205.0247,-129.7409 3215.4844,-131.4275 3214.2532,-124.5366"/>
</g>
<!-- Node30 -->
<g id="node27" class="node">
<title>Node30</title>
<g id="a_node27"><a xlink:href="sitkBinaryErodeImageFilter_8h.html" target="_top" xlink:title=" ">
<polygon fill="#ffffff" stroke="#ff0000" points="3628.5,-62 3628.5,-81 3785.5,-81 3785.5,-62 3628.5,-62"/>
<text text-anchor="middle" x="3707" y="-69" font-family="Helvetica,sans-Serif" font-size="10.00" fill="#000000">sitkBinaryErodeImageFilter.h</text>
</a>
</g>
</g>
<!-- Node2&#45;&gt;Node30 -->
<g id="edge30" class="edge">
<title>Node2&#45;&gt;Node30</title>
<path fill="none" stroke="#191970" d="M3215.2081,-133.1298C3303.4039,-124.8554 3474.4172,-107.7528 3619,-87 3630.9774,-85.2808 3643.8254,-83.1703 3655.9017,-81.0666"/>
<polygon fill="#191970" stroke="#191970" points="3214.7597,-129.6563 3205.1283,-134.0708 3215.4104,-136.626 3214.7597,-129.6563"/>
</g>
<!-- Node31 -->
<g id="node28" class="node">
<title>Node31</title>
<g id="a_node28"><a xlink:href="sitkBinaryFillholeImageFilter_8h.html" target="_top" xlink:title=" ">
<polygon fill="#ffffff" stroke="#ff0000" points="3804,-62 3804,-81 3968,-81 3968,-62 3804,-62"/>
<text text-anchor="middle" x="3886" y="-69" font-family="Helvetica,sans-Serif" font-size="10.00" fill="#000000">sitkBinaryFillholeImageFilter.h</text>
</a>
</g>
</g>
<!-- Node2&#45;&gt;Node31 -->
<g id="edge31" class="edge">
<title>Node2&#45;&gt;Node31</title>
<path fill="none" stroke="#191970" d="M3215.5499,-135.4145C3328.6069,-129.1752 3581.9988,-113.3653 3794,-87 3807.0195,-85.3808 3821.0105,-83.2346 3834.0548,-81.0568"/>
<polygon fill="#191970" stroke="#191970" points="3215.1712,-131.9298 3205.3773,-135.9708 3215.5535,-138.9194 3215.1712,-131.9298"/>
</g>
<!-- Node32 -->
<g id="node29" class="node">
<title>Node32</title>
<g id="a_node29"><a xlink:href="sitkBinaryGrindPeakImageFilter_8h.html" target="_top" xlink:title=" ">
<polygon fill="#ffffff" stroke="#ff0000" points="3986.5,-56.5 3986.5,-86.5 4133.5,-86.5 4133.5,-56.5 3986.5,-56.5"/>
<text text-anchor="start" x="3994.5" y="-74.5" font-family="Helvetica,sans-Serif" font-size="10.00" fill="#000000">sitkBinaryGrindPeakImage</text>
<text text-anchor="middle" x="4060" y="-63.5" font-family="Helvetica,sans-Serif" font-size="10.00" fill="#000000">Filter.h</text>
</a>
</g>
</g>
<!-- Node2&#45;&gt;Node32 -->
<g id="edge32" class="edge">
<title>Node2&#45;&gt;Node32</title>
<path fill="none" stroke="#191970" d="M3215.4061,-137.2559C3350.9278,-133.8761 3693.1504,-122.2732 3977,-87 3980.0549,-86.6204 3983.167,-86.1987 3986.3066,-85.7445"/>
<polygon fill="#191970" stroke="#191970" points="3215.1515,-133.761 3205.2397,-137.5036 3215.3221,-140.7589 3215.1515,-133.761"/>
</g>
<!-- Node33 -->
<g id="node30" class="node">
<title>Node33</title>
<g id="a_node30"><a xlink:href="sitkBinaryImageToLabelMapFilter_8h.html" target="_top" xlink:title=" ">
<polygon fill="#ffffff" stroke="#ff0000" points="4152,-56.5 4152,-86.5 4306,-86.5 4306,-56.5 4152,-56.5"/>
<text text-anchor="start" x="4160" y="-74.5" font-family="Helvetica,sans-Serif" font-size="10.00" fill="#000000">sitkBinaryImageToLabelMap</text>
<text text-anchor="middle" x="4229" y="-63.5" font-family="Helvetica,sans-Serif" font-size="10.00" fill="#000000">Filter.h</text>
</a>
</g>
</g>
<!-- Node2&#45;&gt;Node33 -->
<g id="edge33" class="edge">
<title>Node2&#45;&gt;Node33</title>
<path fill="none" stroke="#191970" d="M3215.3265,-137.9638C3368.9589,-136.0206 3792.202,-127.1383 4142,-87 4145.2008,-86.6327 4148.4619,-86.2214 4151.7519,-85.7757"/>
<polygon fill="#191970" stroke="#191970" points="3215.1244,-134.4659 3205.1677,-138.087 3215.2094,-141.4653 3215.1244,-134.4659"/>
</g>
<!-- Node34 -->
<g id="node31" class="node">
<title>Node34</title>
<g id="a_node31"><a xlink:href="sitkBinaryMagnitudeImageFilter_8h.html" target="_top" xlink:title=" ">
<polygon fill="#ffffff" stroke="#ff0000" points="4324,-56.5 4324,-86.5 4472,-86.5 4472,-56.5 4324,-56.5"/>
<text text-anchor="start" x="4332" y="-74.5" font-family="Helvetica,sans-Serif" font-size="10.00" fill="#000000">sitkBinaryMagnitudeImage</text>
<text text-anchor="middle" x="4398" y="-63.5" font-family="Helvetica,sans-Serif" font-size="10.00" fill="#000000">Filter.h</text>
</a>
</g>
</g>
<!-- Node2&#45;&gt;Node34 -->
<g id="edge34" class="edge">
<title>Node2&#45;&gt;Node34</title>
<path fill="none" stroke="#191970" d="M3215.5314,-136.9597C3420.8542,-131.4744 4098.6574,-111.8829 4315,-87 4317.9126,-86.665 4320.8766,-86.2878 4323.8664,-85.8769"/>
<polygon fill="#191970" stroke="#191970" points="3215.1583,-133.4683 3205.2549,-137.233 3215.3445,-140.4658 3215.1583,-133.4683"/>
</g>
<!-- Node35 -->
<g id="node32" class="node">
<title>Node35</title>
<g id="a_node32"><a xlink:href="sitkBinaryMedianImageFilter_8h.html" target="_top" xlink:title=" ">
<polygon fill="#ffffff" stroke="#ff0000" points="4490,-62 4490,-81 4654,-81 4654,-62 4490,-62"/>
<text text-anchor="middle" x="4572" y="-69" font-family="Helvetica,sans-Serif" font-size="10.00" fill="#000000">sitkBinaryMedianImageFilter.h</text>
</a>
</g>
</g>
<!-- Node2&#45;&gt;Node35 -->
<g id="edge35" class="edge">
<title>Node2&#45;&gt;Node35</title>
<path fill="none" stroke="#191970" d="M3215.2502,-137.2217C3438.6858,-132.2416 4230.2512,-113.1164 4481,-87 4494.7083,-85.5722 4509.4761,-83.3545 4523.0444,-81.0387"/>
<polygon fill="#191970" stroke="#191970" points="3214.9641,-133.727 3205.0443,-137.4481 3215.1195,-140.7253 3214.9641,-133.727"/>
</g>
<!-- Node36 -->
<g id="node33" class="node">
<title>Node36</title>
<g id="a_node33"><a xlink:href="sitkBinaryMinMaxCurvatureFlowImageFilter_8h.html" target="_top" xlink:title=" ">
<polygon fill="#ffffff" stroke="#ff0000" points="4672,-56.5 4672,-86.5 4824,-86.5 4824,-56.5 4672,-56.5"/>
<text text-anchor="start" x="4680" y="-74.5" font-family="Helvetica,sans-Serif" font-size="10.00" fill="#000000">sitkBinaryMinMaxCurvature</text>
<text text-anchor="middle" x="4748" y="-63.5" font-family="Helvetica,sans-Serif" font-size="10.00" fill="#000000">FlowImageFilter.h</text>
</a>
</g>
</g>
<!-- Node2&#45;&gt;Node36 -->
<g id="edge36" class="edge">
<title>Node2&#45;&gt;Node36</title>
<path fill="none" stroke="#191970" d="M3215.2093,-137.6345C3457.5803,-133.9126 4374.8123,-118.0318 4663,-87 4665.8337,-86.6949 4668.7149,-86.3497 4671.6211,-85.972"/>
<polygon fill="#191970" stroke="#191970" points="3215.1323,-134.1352 3205.1869,-137.7874 3215.2391,-141.1344 3215.1323,-134.1352"/>
</g>
<!-- Node37 -->
<g id="node34" class="node">
<title>Node37</title>
<g id="a_node34"><a xlink:href="sitkBinaryMorphologicalClosingImageFilter_8h.html" target="_top" xlink:title=" ">
<polygon fill="#ffffff" stroke="#ff0000" points="4842,-56.5 4842,-86.5 5012,-86.5 5012,-56.5 4842,-56.5"/>
<text text-anchor="start" x="4850" y="-74.5" font-family="Helvetica,sans-Serif" font-size="10.00" fill="#000000">sitkBinaryMorphologicalClosing</text>
<text text-anchor="middle" x="4927" y="-63.5" font-family="Helvetica,sans-Serif" font-size="10.00" fill="#000000">ImageFilter.h</text>
</a>
</g>
</g>
<!-- Node2&#45;&gt;Node37 -->
<g id="edge37" class="edge">
<title>Node2&#45;&gt;Node37</title>
<path fill="none" stroke="#191970" d="M3215.7518,-137.7298C3475.6949,-134.215 4509.5208,-118.4963 4833,-87 4835.8808,-86.7195 4838.8071,-86.4049 4841.7591,-86.0622"/>
<polygon fill="#191970" stroke="#191970" points="3215.3444,-134.2348 3205.3923,-137.8689 3215.4384,-141.2342 3215.3444,-134.2348"/>
</g>
<!-- Node38 -->
<g id="node35" class="node">
<title>Node38</title>
<g id="a_node35"><a xlink:href="sitkBinaryMorphologicalOpeningImageFilter_8h.html" target="_top" xlink:title=" ">
<polygon fill="#ffffff" stroke="#ff0000" points="5030.5,-56.5 5030.5,-86.5 5205.5,-86.5 5205.5,-56.5 5030.5,-56.5"/>
<text text-anchor="start" x="5038.5" y="-74.5" font-family="Helvetica,sans-Serif" font-size="10.00" fill="#000000">sitkBinaryMorphologicalOpening</text>
<text text-anchor="middle" x="5118" y="-63.5" font-family="Helvetica,sans-Serif" font-size="10.00" fill="#000000">ImageFilter.h</text>
</a>
</g>
</g>
<!-- Node2&#45;&gt;Node38 -->
<g id="edge38" class="edge">
<title>Node2&#45;&gt;Node38</title>
<path fill="none" stroke="#191970" d="M3215.5255,-137.9058C3492.6471,-134.9786 4658.208,-120.8485 5021,-87 5024.0564,-86.7148 5027.1626,-86.3931 5030.2964,-86.0415"/>
<polygon fill="#191970" stroke="#191970" points="3215.2424,-134.4085 3205.2796,-138.0132 3215.3158,-141.4081 3215.2424,-134.4085"/>
</g>
<!-- Node39 -->
<g id="node36" class="node">
<title>Node39</title>
<g id="a_node36"><a xlink:href="sitkBinaryNotImageFilter_8h.html" target="_top" xlink:title=" ">
<polygon fill="#ffffff" stroke="#ff0000" points="5224,-62 5224,-81 5370,-81 5370,-62 5224,-62"/>
<text text-anchor="middle" x="5297" y="-69" font-family="Helvetica,sans-Serif" font-size="10.00" fill="#000000">sitkBinaryNotImageFilter.h</text>
</a>
</g>
</g>
<!-- Node2&#45;&gt;Node39 -->
<g id="edge39" class="edge">
<title>Node2&#45;&gt;Node39</title>
<path fill="none" stroke="#191970" d="M3215.4028,-138.2941C3509.4747,-137.0792 4811.3492,-129.361 5214,-87 5226.829,-85.6503 5240.6456,-83.397 5253.255,-81.0208"/>
<polygon fill="#191970" stroke="#191970" points="3215.3557,-134.7942 3205.37,-138.3346 3215.3841,-141.7941 3215.3557,-134.7942"/>
</g>
<!-- Node40 -->
<g id="node37" class="node">
<title>Node40</title>
<g id="a_node37"><a xlink:href="sitkBinaryOpeningByReconstructionImageFilter_8h.html" target="_top" xlink:title=" ">
<polygon fill="#ffffff" stroke="#ff0000" points="5388.5,-56.5 5388.5,-86.5 5579.5,-86.5 5579.5,-56.5 5388.5,-56.5"/>
<text text-anchor="start" x="5396.5" y="-74.5" font-family="Helvetica,sans-Serif" font-size="10.00" fill="#000000">sitkBinaryOpeningByReconstruction</text>
<text text-anchor="middle" x="5484" y="-63.5" font-family="Helvetica,sans-Serif" font-size="10.00" fill="#000000">ImageFilter.h</text>
</a>
</g>
</g>
<!-- Node2&#45;&gt;Node40 -->
<g id="edge40" class="edge">
<title>Node2&#45;&gt;Node40</title>
<path fill="none" stroke="#191970" d="M3215.082,-138.1193C3522.4091,-135.9884 4940.905,-124.267 5379,-87 5382.1213,-86.7345 5385.291,-86.4359 5388.4891,-86.1098"/>
<polygon fill="#191970" stroke="#191970" points="3215.0189,-134.6195 3205.0432,-138.1882 3215.067,-141.6194 3215.0189,-134.6195"/>
</g>
<!-- Node41 -->
<g id="node38" class="node">
<title>Node41</title>
<g id="a_node38"><a xlink:href="sitkBinaryProjectionImageFilter_8h.html" target="_top" xlink:title=" ">
<polygon fill="#ffffff" stroke="#ff0000" points="5598,-56.5 5598,-86.5 5744,-86.5 5744,-56.5 5598,-56.5"/>
<text text-anchor="start" x="5606" y="-74.5" font-family="Helvetica,sans-Serif" font-size="10.00" fill="#000000">sitkBinaryProjectionImage</text>
<text text-anchor="middle" x="5671" y="-63.5" font-family="Helvetica,sans-Serif" font-size="10.00" fill="#000000">Filter.h</text>
</a>
</g>
</g>
<!-- Node2&#45;&gt;Node41 -->
<g id="edge41" class="edge">
<title>Node2&#45;&gt;Node41</title>
<path fill="none" stroke="#191970" d="M3215.3314,-137.825C3564.601,-133.7743 5345.6859,-112.0217 5588,-87 5591.2079,-86.6687 5594.4774,-86.28 5597.7742,-85.846"/>
<polygon fill="#191970" stroke="#191970" points="3215.1381,-134.3269 3205.1792,-137.9425 3215.2191,-141.3265 3215.1381,-134.3269"/>
</g>
<!-- Node42 -->
<g id="node39" class="node">
<title>Node42</title>
<g id="a_node39"><a xlink:href="sitkBinaryPruningImageFilter_8h.html" target="_top" xlink:title=" ">
<polygon fill="#ffffff" stroke="#ff0000" points="5762,-62 5762,-81 5928,-81 5928,-62 5762,-62"/>
<text text-anchor="middle" x="5845" y="-69" font-family="Helvetica,sans-Serif" font-size="10.00" fill="#000000">sitkBinaryPruningImageFilter.h</text>
</a>
</g>
</g>
<!-- Node2&#45;&gt;Node42 -->
<g id="edge42" class="edge">
<title>Node2&#45;&gt;Node42</title>
<path fill="none" stroke="#191970" d="M3215.2594,-137.8484C3578.1319,-133.7885 5493.0488,-111.3423 5753,-87 5767.1916,-85.6711 5782.4975,-83.4242 5796.4748,-81.0476"/>
<polygon fill="#191970" stroke="#191970" points="3215.1879,-134.3488 3205.2277,-137.9603 3215.2661,-141.3484 3215.1879,-134.3488"/>
</g>
<!-- Node43 -->
<g id="node40" class="node">
<title>Node43</title>
<g id="a_node40"><a xlink:href="sitkBinaryReconstructionByDilationImageFilter_8h.html" target="_top" xlink:title=" ">
<polygon fill="#ffffff" stroke="#ff0000" points="5946,-56.5 5946,-86.5 6084,-86.5 6084,-56.5 5946,-56.5"/>
<text text-anchor="start" x="5954" y="-74.5" font-family="Helvetica,sans-Serif" font-size="10.00" fill="#000000">sitkBinaryReconstruction</text>
<text text-anchor="middle" x="6015" y="-63.5" font-family="Helvetica,sans-Serif" font-size="10.00" fill="#000000">ByDilationImageFilter.h</text>
</a>
</g>
</g>
<!-- Node2&#45;&gt;Node43 -->
<g id="edge43" class="edge">
<title>Node2&#45;&gt;Node43</title>
<path fill="none" stroke="#191970" d="M3215.1981,-138.0359C3592.8233,-134.9917 5657.9946,-117.0638 5937,-87 5939.8827,-86.6894 5942.8173,-86.3254 5945.7759,-85.919"/>
<polygon fill="#191970" stroke="#191970" points="3215.0079,-134.5372 3205.0364,-138.1175 3215.0642,-141.537 3215.0079,-134.5372"/>
</g>
<!-- Node44 -->
<g id="node41" class="node">
<title>Node44</title>
<g id="a_node41"><a xlink:href="sitkBinaryReconstructionByErosionImageFilter_8h.html" target="_top" xlink:title=" ">
<polygon fill="#ffffff" stroke="#ff0000" points="6102,-56.5 6102,-86.5 6240,-86.5 6240,-56.5 6102,-56.5"/>
<text text-anchor="start" x="6110" y="-74.5" font-family="Helvetica,sans-Serif" font-size="10.00" fill="#000000">sitkBinaryReconstruction</text>
<text text-anchor="middle" x="6171" y="-63.5" font-family="Helvetica,sans-Serif" font-size="10.00" fill="#000000">ByErosionImageFilter.h</text>
</a>
</g>
</g>
<!-- Node2&#45;&gt;Node44 -->
<g id="edge44" class="edge">
<title>Node2&#45;&gt;Node44</title>
<path fill="none" stroke="#191970" d="M3215.3921,-138.097C3605.7766,-135.3633 5797.5542,-118.6884 6093,-87 6095.8828,-86.6908 6098.8175,-86.328 6101.7763,-85.9225"/>
<polygon fill="#191970" stroke="#191970" points="3215.1436,-134.5985 3205.1683,-138.1682 3215.1925,-141.5983 3215.1436,-134.5985"/>
</g>
<!-- Node45 -->
<g id="node42" class="node">
<title>Node45</title>
<g id="a_node42"><a xlink:href="sitkBinaryThinningImageFilter_8h.html" target="_top" xlink:title=" ">
<polygon fill="#ffffff" stroke="#ff0000" points="6258.5,-62 6258.5,-81 6429.5,-81 6429.5,-62 6258.5,-62"/>
<text text-anchor="middle" x="6344" y="-69" font-family="Helvetica,sans-Serif" font-size="10.00" fill="#000000">sitkBinaryThinningImageFilter.h</text>
</a>
</g>
</g>
<!-- Node2&#45;&gt;Node45 -->
<g id="edge45" class="edge">
<title>Node2&#45;&gt;Node45</title>
<path fill="none" stroke="#191970" d="M3215.3198,-138.031C3617.3779,-134.784 5936.5031,-114.946 6249,-87 6263.6473,-85.6901 6279.4502,-83.4492 6293.8834,-81.0722"/>
<polygon fill="#191970" stroke="#191970" points="3215.051,-134.533 3205.0796,-138.1135 3215.1075,-141.5328 3215.051,-134.533"/>
</g>
<!-- Node3&#45;&gt;Node4 -->
<g id="edge3" class="edge">
<title>Node3&#45;&gt;Node4</title>
<path fill="none" stroke="#191970" d="M176.6032,-56.2966C177.7414,-56.1924 178.874,-56.0934 180,-56 520.9537,-27.7079 6085.4177,-11.5362 6598.2092,-10.1041"/>
<polygon fill="#191970" stroke="#191970" points="175.8265,-52.858 166.2381,-57.365 176.5442,-59.8211 175.8265,-52.858"/>
</g>
<!-- Node5&#45;&gt;Node4 -->
<g id="edge5" class="edge">
<title>Node5&#45;&gt;Node4</title>
<path fill="none" stroke="#191970" d="M327.5742,-59.8244C335.3425,-58.2485 343.3668,-56.8751 351,-56 681.7274,-18.0846 6094.3606,-10.654 6598.433,-10.0434"/>
<polygon fill="#191970" stroke="#191970" points="326.5991,-56.4543 317.5641,-61.9878 328.0778,-63.2963 326.5991,-56.4543"/>
</g>
<!-- Node6&#45;&gt;Node4 -->
<g id="edge7" class="edge">
<title>Node6&#45;&gt;Node4</title>
<path fill="none" stroke="#191970" d="M6538.1557,-57.3813C6562.1063,-45.7832 6595.3805,-29.6701 6616.2956,-19.5419"/>
<polygon fill="#191970" stroke="#191970" points="6536.3186,-54.3821 6528.8438,-61.8906 6539.3695,-60.6823 6536.3186,-54.3821"/>
</g>
<!-- Node7&#45;&gt;Node4 -->
<g id="edge9" class="edge">
<title>Node7&#45;&gt;Node4</title>
<path fill="none" stroke="#191970" d="M532.5097,-56.0781C947.2753,-26.9844 6106.3606,-11.5196 6598.3775,-10.1064"/>
<polygon fill="#191970" stroke="#191970" points="532.0515,-52.6033 522.357,-56.8772 532.6008,-59.5817 532.0515,-52.6033"/>
</g>
<!-- Node303&#45;&gt;Node4 -->
<g id="edge47" class="edge">
<title>Node303&#45;&gt;Node4</title>
<path fill="none" stroke="#191970" d="M6562.9078,-119.6783C6580.9438,-112.0524 6598.846,-101.5003 6612,-87 6629.5929,-67.6064 6634.2897,-35.4596 6635.5435,-19.5394"/>
<polygon fill="#191970" stroke="#191970" points="6561.4994,-116.4715 6553.4883,-123.4049 6564.0747,-122.9806 6561.4994,-116.4715"/>
</g>
<!-- Node304&#45;&gt;Node4 -->
<g id="edge49" class="edge">
<title>Node304&#45;&gt;Node4</title>
<path fill="none" stroke="#191970" d="M6666.7839,-113.3953C6662.0601,-97.0359 6655.7243,-75.2338 6650,-56 6646.2377,-43.3585 6641.7866,-28.799 6638.9301,-19.5045"/>
<polygon fill="#191970" stroke="#191970" points="6663.4998,-114.6387 6669.6327,-123.278 6670.2259,-112.6998 6663.4998,-114.6387"/>
</g>
<!-- Node309&#45;&gt;Node4 -->
<g id="edge54" class="edge">
<title>Node309&#45;&gt;Node4</title>
<path fill="none" stroke="#191970" d="M6945.7193,-125.3592C6876.1777,-99.4575 6722.8647,-42.3539 6661.8181,-19.6163"/>
<polygon fill="#191970" stroke="#191970" points="6944.758,-128.736 6955.3508,-128.9466 6947.2014,-122.1763 6944.758,-128.736"/>
</g>
<!-- Node310&#45;&gt;Node4 -->
<g id="edge56" class="edge">
<title>Node310&#45;&gt;Node4</title>
<path fill="none" stroke="#191970" d="M7080.0402,-126.2634C7020.0988,-109.9937 6910.6726,-80.4475 6817,-56 6767.5896,-43.1044 6710.4662,-28.6648 6673.823,-19.4622"/>
<polygon fill="#191970" stroke="#191970" points="7079.366,-129.707 7089.9338,-128.9502 7081.2006,-122.9517 7079.366,-129.707"/>
</g>
<!-- Node311&#45;&gt;Node4 -->
<g id="edge58" class="edge">
<title>Node311&#45;&gt;Node4</title>
<path fill="none" stroke="#191970" d="M7215.6295,-126.4743C7210.6951,-125.2764 7205.7496,-124.0984 7201,-123 7061.549,-90.7488 7026.3977,-83.8423 6886,-56 6810.8946,-41.1059 6722.7613,-25.2714 6673.7566,-16.6124"/>
<polygon fill="#191970" stroke="#191970" points="7215.1297,-129.9555 7225.6759,-128.9418 7216.7994,-123.1575 7215.1297,-129.9555"/>
</g>
<!-- Node312&#45;&gt;Node4 -->
<g id="edge60" class="edge">
<title>Node312&#45;&gt;Node4</title>
<path fill="none" stroke="#191970" d="M7335.0646,-125.7143C7332.0186,-124.7349 7328.9656,-123.8129 7326,-123 7082.2048,-56.1693 6778.4495,-23.2919 6673.6164,-13.3522"/>
<polygon fill="#191970" stroke="#191970" points="7334.0603,-129.0695 7344.6547,-128.9748 7336.3136,-122.4421 7334.0603,-129.0695"/>
</g>
<!-- Node313&#45;&gt;Node4 -->
<g id="edge62" class="edge">
<title>Node313&#45;&gt;Node4</title>
<path fill="none" stroke="#191970" d="M7455.5794,-126.6783C7378.5016,-108.9879 7226.561,-75.6146 7096,-56 6940.0404,-32.5697 6752.4821,-18.0064 6673.7217,-12.5025"/>
<polygon fill="#191970" stroke="#191970" points="7454.9693,-130.1294 7465.4998,-128.9636 7456.5407,-123.308 7454.9693,-130.1294"/>
</g>
</g>
</svg>
