<?xml version="1.0" encoding="UTF-8" standalone="no"?>
<!DOCTYPE svg PUBLIC "-//W3C//DTD SVG 1.1//EN"
 "http://www.w3.org/Graphics/SVG/1.1/DTD/svg11.dtd">
<!-- Generated by graphviz version 2.40.1 (20161225.0304)
 -->
<!-- Title: sitkImageSeriesReader.h Pages: 1 -->
<!--zoomable 599 -->
<svg id="main" version="1.1" xmlns="http://www.w3.org/2000/svg" xmlns:xlink="http://www.w3.org/1999/xlink" xml:space="preserve" onload="init(evt)">
<style type="text/css"><![CDATA[
.edge:hover path { stroke: red; }
.edge:hover polygon { stroke: red; fill: red; }
]]></style>
<script type="text/javascript"><![CDATA[
var edges = document.getElementsByTagName('g');
if (edges && edges.length) {
  for (var i=0;i<edges.length;i++) {
    if (edges[i].id.substr(0,4)=='edge') {
      edges[i].setAttribute('class','edge');
    }
  }
}
]]></script>
        <defs>
                <circle id="rim" cx="0" cy="0" r="7"/>
                <circle id="rim2" cx="0" cy="0" r="3.5"/>
                <g id="zoomPlus">
                        <use xlink:href="#rim" fill="#404040">
                                <set attributeName="fill" to="#808080" begin="zoomplus.mouseover" end="zoomplus.mouseout"/>
                        </use>
                        <path d="M-4,0h8M0,-4v8" fill="none" stroke="white" stroke-width="1.5" pointer-events="none"/>
                </g>
                <g id="zoomMin">
                        <use xlink:href="#rim" fill="#404040">
                                <set attributeName="fill" to="#808080" begin="zoomminus.mouseover" end="zoomminus.mouseout"/>
                        </use>
                        <path d="M-4,0h8" fill="none" stroke="white" stroke-width="1.5" pointer-events="none"/>
                </g>
                <g id="dirArrow">
                        <path fill="none" stroke="white" stroke-width="1.5" d="M0,-3.0v7 M-2.5,-0.5L0,-3.0L2.5,-0.5"/>
                </g>
               <g id="resetDef">
                       <use xlink:href="#rim2" fill="#404040">
                               <set attributeName="fill" to="#808080" begin="reset.mouseover" end="reset.mouseout"/>
                       </use>
               </g>
        </defs>

<script type="text/javascript">
var viewWidth = 1542;
var viewHeight = 599;
var sectionId = 'dynsection-0';
</script>
<script xlink:href="svgpan.js"/>
<svg id="graph" class="graph">
<g id="viewport">
<title>sitkImageSeriesReader.h</title>
<polygon fill="#ffffff" stroke="transparent" points="-4,4 -4,-595 1538,-595 1538,4 -4,4"/>
<!-- Node1 -->
<g id="node1" class="node">
<title>Node1</title>
<g id="a_node1"><a xlink:title=" ">
<polygon fill="#bfbfbf" stroke="#000000" points="1062.5,-571.5 1062.5,-590.5 1199.5,-590.5 1199.5,-571.5 1062.5,-571.5"/>
<text text-anchor="middle" x="1131" y="-578.5" font-family="Helvetica,sans-Serif" font-size="10.00" fill="#000000">sitkImageSeriesReader.h</text>
</a>
</g>
</g>
<!-- Node2 -->
<g id="node2" class="node">
<title>Node2</title>
<g id="a_node2"><a xlink:href="sitkMacro_8h.html" target="_top" xlink:title=" ">
<polygon fill="#ffffff" stroke="#000000" points="927.5,-56.5 927.5,-75.5 1000.5,-75.5 1000.5,-56.5 927.5,-56.5"/>
<text text-anchor="middle" x="964" y="-63.5" font-family="Helvetica,sans-Serif" font-size="10.00" fill="#000000">sitkMacro.h</text>
</a>
</g>
</g>
<!-- Node1&#45;&gt;Node2 -->
<g id="edge1" class="edge">
<title>Node1&#45;&gt;Node2</title>
<path fill="none" stroke="#191970" d="M1199.8203,-576.0618C1314.9219,-565.8915 1534,-537.5323 1534,-469 1534,-469 1534,-469 1534,-178 1534,-122.8799 1481.148,-129.8552 1429,-112 1352.3877,-85.7683 1112.466,-72.4744 1010.545,-67.8926"/>
<polygon fill="#191970" stroke="#191970" points="1010.6892,-64.3956 1000.5446,-67.4511 1010.3805,-71.3888 1010.6892,-64.3956"/>
</g>
<!-- Node9 -->
<g id="node9" class="node">
<title>Node9</title>
<g id="a_node9"><a xlink:href="sitkImage_8h.html" target="_top" xlink:title=" ">
<polygon fill="#ffffff" stroke="#000000" points="1214,-347.5 1214,-366.5 1288,-366.5 1288,-347.5 1214,-347.5"/>
<text text-anchor="middle" x="1251" y="-354.5" font-family="Helvetica,sans-Serif" font-size="10.00" fill="#000000">sitkImage.h</text>
</a>
</g>
</g>
<!-- Node1&#45;&gt;Node9 -->
<g id="edge8" class="edge">
<title>Node1&#45;&gt;Node9</title>
<path fill="none" stroke="#191970" d="M1122.7911,-571.1677C1115.9886,-562.3343 1106.8369,-548.6831 1103,-535 1087.1599,-478.5122 1068.2132,-450.2404 1103,-403 1115.1561,-386.4921 1165.2794,-373.3381 1203.8632,-365.3943"/>
<polygon fill="#191970" stroke="#191970" points="1204.7743,-368.7815 1213.8951,-363.3908 1203.4033,-361.9171 1204.7743,-368.7815"/>
</g>
<!-- Node31 -->
<g id="node31" class="node">
<title>Node31</title>
<g id="a_node31"><a xlink:href="sitkImageReaderBase_8h.html" target="_top" xlink:title=" ">
<polygon fill="#ffffff" stroke="#000000" points="1112,-515.5 1112,-534.5 1244,-534.5 1244,-515.5 1112,-515.5"/>
<text text-anchor="middle" x="1178" y="-522.5" font-family="Helvetica,sans-Serif" font-size="10.00" fill="#000000">sitkImageReaderBase.h</text>
</a>
</g>
</g>
<!-- Node1&#45;&gt;Node31 -->
<g id="edge49" class="edge">
<title>Node1&#45;&gt;Node31</title>
<path fill="none" stroke="#191970" d="M1139.1868,-571.2455C1145.8589,-563.2958 1155.4479,-551.8706 1163.4253,-542.3656"/>
<polygon fill="#191970" stroke="#191970" points="1166.1592,-544.5525 1169.907,-534.6427 1160.7974,-540.0524 1166.1592,-544.5525"/>
</g>
<!-- Node38 -->
<g id="node38" class="node">
<title>Node38</title>
<g id="a_node38"><a xlink:href="sitkMemberFunctionFactory_8h.html" target="_top" xlink:title=" ">
<polygon fill="#ffffff" stroke="#000000" points="609,-347.5 609,-366.5 767,-366.5 767,-347.5 609,-347.5"/>
<text text-anchor="middle" x="688" y="-354.5" font-family="Helvetica,sans-Serif" font-size="10.00" fill="#000000">sitkMemberFunctionFactory.h</text>
</a>
</g>
</g>
<!-- Node1&#45;&gt;Node38 -->
<g id="edge65" class="edge">
<title>Node1&#45;&gt;Node38</title>
<path fill="none" stroke="#191970" d="M1092.3453,-571.4318C1035.7943,-556.5169 928.2004,-524.6246 845,-479 789.5928,-448.6163 733.1456,-399.3018 705.4782,-373.6677"/>
<polygon fill="#191970" stroke="#191970" points="707.5394,-370.8026 697.8488,-366.5197 702.7534,-375.9109 707.5394,-370.8026"/>
</g>
<!-- Node3 -->
<g id="node3" class="node">
<title>Node3</title>
<g id="a_node3"><a xlink:title=" ">
<polygon fill="#ffffff" stroke="#bfbfbf" points="688.5,-.5 688.5,-19.5 741.5,-19.5 741.5,-.5 688.5,-.5"/>
<text text-anchor="middle" x="715" y="-7.5" font-family="Helvetica,sans-Serif" font-size="10.00" fill="#000000">stdint.h</text>
</a>
</g>
</g>
<!-- Node2&#45;&gt;Node3 -->
<g id="edge2" class="edge">
<title>Node2&#45;&gt;Node3</title>
<path fill="none" stroke="#191970" d="M927.2592,-57.737C879.997,-47.1077 798.4045,-28.7576 751.3382,-18.1724"/>
<polygon fill="#191970" stroke="#191970" points="752.0869,-14.7535 741.5625,-15.9739 750.5509,-21.5829 752.0869,-14.7535"/>
</g>
<!-- Node4 -->
<g id="node4" class="node">
<title>Node4</title>
<g id="a_node4"><a xlink:title=" ">
<polygon fill="#ffffff" stroke="#bfbfbf" points="862,-.5 862,-19.5 918,-19.5 918,-.5 862,-.5"/>
<text text-anchor="middle" x="890" y="-7.5" font-family="Helvetica,sans-Serif" font-size="10.00" fill="#000000">stddef.h</text>
</a>
</g>
</g>
<!-- Node2&#45;&gt;Node4 -->
<g id="edge3" class="edge">
<title>Node2&#45;&gt;Node4</title>
<path fill="none" stroke="#191970" d="M951.1102,-56.2455C940.0746,-47.8943 923.9708,-35.7076 911.0647,-25.9408"/>
<polygon fill="#191970" stroke="#191970" points="912.8283,-22.8862 902.7421,-19.6427 908.6041,-28.4681 912.8283,-22.8862"/>
</g>
<!-- Node5 -->
<g id="node5" class="node">
<title>Node5</title>
<g id="a_node5"><a xlink:title=" ">
<polygon fill="#ffffff" stroke="#bfbfbf" points="192,-.5 192,-19.5 244,-19.5 244,-.5 192,-.5"/>
<text text-anchor="middle" x="218" y="-7.5" font-family="Helvetica,sans-Serif" font-size="10.00" fill="#000000">cassert</text>
</a>
</g>
</g>
<!-- Node2&#45;&gt;Node5 -->
<g id="edge4" class="edge">
<title>Node2&#45;&gt;Node5</title>
<path fill="none" stroke="#191970" d="M927.2602,-63.2421C800.311,-53.7124 381.0273,-22.238 254.4792,-12.7384"/>
<polygon fill="#191970" stroke="#191970" points="254.4086,-9.2233 244.1746,-11.9649 253.8846,-16.2037 254.4086,-9.2233"/>
</g>
<!-- Node6 -->
<g id="node6" class="node">
<title>Node6</title>
<g id="a_node6"><a xlink:title=" ">
<polygon fill="#ffffff" stroke="#bfbfbf" points="936,-.5 936,-19.5 992,-19.5 992,-.5 936,-.5"/>
<text text-anchor="middle" x="964" y="-7.5" font-family="Helvetica,sans-Serif" font-size="10.00" fill="#000000">sstream</text>
</a>
</g>
</g>
<!-- Node2&#45;&gt;Node6 -->
<g id="edge5" class="edge">
<title>Node2&#45;&gt;Node6</title>
<path fill="none" stroke="#191970" d="M964,-56.2455C964,-48.9382 964,-38.6944 964,-29.7046"/>
<polygon fill="#191970" stroke="#191970" points="967.5001,-29.6426 964,-19.6427 960.5001,-29.6427 967.5001,-29.6426"/>
</g>
<!-- Node7 -->
<g id="node7" class="node">
<title>Node7</title>
<g id="a_node7"><a xlink:title=" ">
<polygon fill="#ffffff" stroke="#bfbfbf" points="1010,-.5 1010,-19.5 1054,-19.5 1054,-.5 1010,-.5"/>
<text text-anchor="middle" x="1032" y="-7.5" font-family="Helvetica,sans-Serif" font-size="10.00" fill="#000000">limits</text>
</a>
</g>
</g>
<!-- Node2&#45;&gt;Node7 -->
<g id="edge6" class="edge">
<title>Node2&#45;&gt;Node7</title>
<path fill="none" stroke="#191970" d="M975.8447,-56.2455C985.888,-47.9746 1000.4995,-35.9416 1012.3004,-26.2232"/>
<polygon fill="#191970" stroke="#191970" points="1014.7967,-28.7015 1020.291,-19.6427 1010.3467,-23.298 1014.7967,-28.7015"/>
</g>
<!-- Node8 -->
<g id="node8" class="node">
<title>Node8</title>
<g id="a_node8"><a xlink:href="sitkConfigure_8h.html" target="_top" xlink:title=" ">
<polygon fill="#ffffff" stroke="#000000" points="463,-.5 463,-19.5 553,-19.5 553,-.5 463,-.5"/>
<text text-anchor="middle" x="508" y="-7.5" font-family="Helvetica,sans-Serif" font-size="10.00" fill="#000000">sitkConfigure.h</text>
</a>
</g>
</g>
<!-- Node2&#45;&gt;Node8 -->
<g id="edge7" class="edge">
<title>Node2&#45;&gt;Node8</title>
<path fill="none" stroke="#191970" d="M927.2866,-61.0912C914.8202,-59.4452 900.8072,-57.6177 888,-56 772.4532,-41.405 637.0166,-25.2344 563.0769,-16.4858"/>
<polygon fill="#191970" stroke="#191970" points="563.4021,-13 553.0603,-15.3016 562.5802,-19.9516 563.4021,-13"/>
</g>
<!-- Node10 -->
<g id="node10" class="node">
<title>Node10</title>
<g id="a_node10"><a xlink:href="sitkCommon_8h.html" target="_top" xlink:title=" ">
<polygon fill="#ffffff" stroke="#000000" points="1029,-112.5 1029,-131.5 1117,-131.5 1117,-112.5 1029,-112.5"/>
<text text-anchor="middle" x="1073" y="-119.5" font-family="Helvetica,sans-Serif" font-size="10.00" fill="#000000">sitkCommon.h</text>
</a>
</g>
</g>
<!-- Node9&#45;&gt;Node10 -->
<g id="edge9" class="edge">
<title>Node9&#45;&gt;Node10</title>
<path fill="none" stroke="#191970" d="M1251.5063,-347.3026C1252.5581,-316.7338 1251.6067,-221.2649 1203,-168 1183.4674,-146.5955 1153.3445,-135.1483 1127.0119,-129.0275"/>
<polygon fill="#191970" stroke="#191970" points="1127.6439,-125.5837 1117.1353,-126.9328 1126.1915,-132.4314 1127.6439,-125.5837"/>
</g>
<!-- Node11 -->
<g id="node11" class="node">
<title>Node11</title>
<g id="a_node11"><a xlink:href="sitkTemplateFunctions_8h.html" target="_top" xlink:title=" ">
<polygon fill="#ffffff" stroke="#000000" points="1310,-230 1310,-249 1444,-249 1444,-230 1310,-230"/>
<text text-anchor="middle" x="1377" y="-237" font-family="Helvetica,sans-Serif" font-size="10.00" fill="#000000">sitkTemplateFunctions.h</text>
</a>
</g>
</g>
<!-- Node9&#45;&gt;Node11 -->
<g id="edge11" class="edge">
<title>Node9&#45;&gt;Node11</title>
<path fill="none" stroke="#191970" d="M1261.3111,-347.3845C1282.7234,-327.4167 1332.2372,-281.243 1359.0204,-256.2667"/>
<polygon fill="#191970" stroke="#191970" points="1361.62,-258.6282 1366.5464,-249.2484 1356.8459,-253.5088 1361.62,-258.6282"/>
</g>
<!-- Node13 -->
<g id="node13" class="node">
<title>Node13</title>
<g id="a_node13"><a xlink:title=" ">
<polygon fill="#ffffff" stroke="#bfbfbf" points="1272.5,-168.5 1272.5,-187.5 1319.5,-187.5 1319.5,-168.5 1272.5,-168.5"/>
<text text-anchor="middle" x="1296" y="-175.5" font-family="Helvetica,sans-Serif" font-size="10.00" fill="#000000">vector</text>
</a>
</g>
</g>
<!-- Node9&#45;&gt;Node13 -->
<g id="edge46" class="edge">
<title>Node9&#45;&gt;Node13</title>
<path fill="none" stroke="#191970" d="M1253.4194,-347.3762C1260.5309,-319.0883 1281.4696,-235.7987 1291.0785,-197.5767"/>
<polygon fill="#191970" stroke="#191970" points="1294.5248,-198.223 1293.5686,-187.6714 1287.7361,-196.5163 1294.5248,-198.223"/>
</g>
<!-- Node16 -->
<g id="node16" class="node">
<title>Node16</title>
<g id="a_node16"><a xlink:href="sitkDetail_8h.html" target="_top" xlink:title=" ">
<polygon fill="#ffffff" stroke="#000000" points="643.5,-291.5 643.5,-310.5 716.5,-310.5 716.5,-291.5 643.5,-291.5"/>
<text text-anchor="middle" x="680" y="-298.5" font-family="Helvetica,sans-Serif" font-size="10.00" fill="#000000">sitkDetail.h</text>
</a>
</g>
</g>
<!-- Node9&#45;&gt;Node16 -->
<g id="edge20" class="edge">
<title>Node9&#45;&gt;Node16</title>
<path fill="none" stroke="#191970" d="M1213.9751,-353.3688C1113.7831,-343.5427 837.4554,-316.4422 726.7558,-305.5855"/>
<polygon fill="#191970" stroke="#191970" points="726.8654,-302.0795 716.5715,-304.5867 726.1821,-309.0461 726.8654,-302.0795"/>
</g>
<!-- Node26 -->
<g id="node26" class="node">
<title>Node26</title>
<g id="a_node26"><a xlink:href="sitkPixelIDTokens_8h.html" target="_top" xlink:title=" ">
<polygon fill="#ffffff" stroke="#000000" points="887,-291.5 887,-310.5 999,-310.5 999,-291.5 887,-291.5"/>
<text text-anchor="middle" x="943" y="-298.5" font-family="Helvetica,sans-Serif" font-size="10.00" fill="#000000">sitkPixelIDTokens.h</text>
</a>
</g>
</g>
<!-- Node9&#45;&gt;Node26 -->
<g id="edge38" class="edge">
<title>Node9&#45;&gt;Node26</title>
<path fill="none" stroke="#191970" d="M1213.848,-350.2451C1162.2419,-340.8622 1068.1673,-323.7577 1005.6124,-312.3841"/>
<polygon fill="#191970" stroke="#191970" points="1005.9357,-308.8855 995.4709,-310.5402 1004.6835,-315.7726 1005.9357,-308.8855"/>
</g>
<!-- Node29 -->
<g id="node29" class="node">
<title>Node29</title>
<g id="a_node29"><a xlink:title=" ">
<polygon fill="#ffffff" stroke="#bfbfbf" points="977.5,-230 977.5,-249 1046.5,-249 1046.5,-230 977.5,-230"/>
<text text-anchor="middle" x="1012" y="-237" font-family="Helvetica,sans-Serif" font-size="10.00" fill="#000000">type_traits</text>
</a>
</g>
</g>
<!-- Node9&#45;&gt;Node29 -->
<g id="edge48" class="edge">
<title>Node9&#45;&gt;Node29</title>
<path fill="none" stroke="#191970" d="M1231.4416,-347.3845C1189.3213,-326.6768 1089.8734,-277.785 1040.6389,-253.5798"/>
<polygon fill="#191970" stroke="#191970" points="1042.0118,-250.3547 1031.4934,-249.0836 1038.9233,-256.6365 1042.0118,-250.3547"/>
</g>
<!-- Node30 -->
<g id="node30" class="node">
<title>Node30</title>
<g id="a_node30"><a xlink:title=" ">
<polygon fill="#ffffff" stroke="#bfbfbf" points="1348,-291.5 1348,-310.5 1406,-310.5 1406,-291.5 1348,-291.5"/>
<text text-anchor="middle" x="1377" y="-298.5" font-family="Helvetica,sans-Serif" font-size="10.00" fill="#000000">memory</text>
</a>
</g>
</g>
<!-- Node9&#45;&gt;Node30 -->
<g id="edge47" class="edge">
<title>Node9&#45;&gt;Node30</title>
<path fill="none" stroke="#191970" d="M1272.6602,-347.3733C1292.9772,-338.3435 1323.564,-324.7494 1346.375,-314.6111"/>
<polygon fill="#191970" stroke="#191970" points="1347.9059,-317.7609 1355.6225,-310.5011 1345.0628,-311.3642 1347.9059,-317.7609"/>
</g>
<!-- Node10&#45;&gt;Node2 -->
<g id="edge10" class="edge">
<title>Node10&#45;&gt;Node2</title>
<path fill="none" stroke="#191970" d="M1054.0136,-112.2455C1036.8208,-103.4125 1011.2762,-90.2887 991.7868,-80.2758"/>
<polygon fill="#191970" stroke="#191970" points="993.263,-77.0993 982.7688,-75.6427 990.0641,-83.3257 993.263,-77.0993"/>
</g>
<!-- Node11&#45;&gt;Node2 -->
<g id="edge12" class="edge">
<title>Node11&#45;&gt;Node2</title>
<path fill="none" stroke="#191970" d="M1395.879,-229.967C1420.2265,-216.429 1457.3812,-190.7473 1439,-168 1385.3339,-101.5864 1119.4376,-76.4227 1010.583,-68.8029"/>
<polygon fill="#191970" stroke="#191970" points="1010.7661,-65.3073 1000.5513,-68.1194 1010.2903,-72.2911 1010.7661,-65.3073"/>
</g>
<!-- Node11&#45;&gt;Node10 -->
<g id="edge13" class="edge">
<title>Node11&#45;&gt;Node10</title>
<path fill="none" stroke="#191970" d="M1373.4181,-229.7973C1367.0707,-214.0619 1352.2811,-183.2092 1329,-168 1296.5246,-146.7843 1192.334,-133.3265 1127.3156,-126.7694"/>
<polygon fill="#191970" stroke="#191970" points="1127.5289,-123.2735 1117.2339,-125.7761 1126.8425,-130.2398 1127.5289,-123.2735"/>
</g>
<!-- Node12 -->
<g id="node12" class="node">
<title>Node12</title>
<g id="a_node12"><a xlink:href="sitkExceptionObject_8h.html" target="_top" xlink:title=" ">
<polygon fill="#ffffff" stroke="#000000" points="902.5,-168.5 902.5,-187.5 1025.5,-187.5 1025.5,-168.5 902.5,-168.5"/>
<text text-anchor="middle" x="964" y="-175.5" font-family="Helvetica,sans-Serif" font-size="10.00" fill="#000000">sitkExceptionObject.h</text>
</a>
</g>
</g>
<!-- Node11&#45;&gt;Node12 -->
<g id="edge14" class="edge">
<title>Node11&#45;&gt;Node12</title>
<path fill="none" stroke="#191970" d="M1312.9219,-229.9581C1237.897,-218.7861 1113.9697,-200.3321 1035.7759,-188.6882"/>
<polygon fill="#191970" stroke="#191970" points="1035.9352,-185.1734 1025.5288,-187.1623 1034.9042,-192.097 1035.9352,-185.1734"/>
</g>
<!-- Node11&#45;&gt;Node13 -->
<g id="edge17" class="edge">
<title>Node11&#45;&gt;Node13</title>
<path fill="none" stroke="#191970" d="M1364.3438,-229.8906C1351.6232,-220.2324 1331.7996,-205.1812 1316.7716,-193.771"/>
<polygon fill="#191970" stroke="#191970" points="1318.6484,-190.8015 1308.5674,-187.5419 1314.4154,-196.3766 1318.6484,-190.8015"/>
</g>
<!-- Node14 -->
<g id="node14" class="node">
<title>Node14</title>
<g id="a_node14"><a xlink:title=" ">
<polygon fill="#ffffff" stroke="#bfbfbf" points="1120.5,-168.5 1120.5,-187.5 1177.5,-187.5 1177.5,-168.5 1120.5,-168.5"/>
<text text-anchor="middle" x="1149" y="-175.5" font-family="Helvetica,sans-Serif" font-size="10.00" fill="#000000">ostream</text>
</a>
</g>
</g>
<!-- Node11&#45;&gt;Node14 -->
<g id="edge18" class="edge">
<title>Node11&#45;&gt;Node14</title>
<path fill="none" stroke="#191970" d="M1341.375,-229.8906C1299.5175,-218.6001 1230.3377,-199.9398 1187.3393,-188.3415"/>
<polygon fill="#191970" stroke="#191970" points="1188.0968,-184.9208 1177.5303,-185.6957 1186.2737,-191.6793 1188.0968,-184.9208"/>
</g>
<!-- Node15 -->
<g id="node15" class="node">
<title>Node15</title>
<g id="a_node15"><a xlink:title=" ">
<polygon fill="#ffffff" stroke="#bfbfbf" points="1376.5,-168.5 1376.5,-187.5 1429.5,-187.5 1429.5,-168.5 1376.5,-168.5"/>
<text text-anchor="middle" x="1403" y="-175.5" font-family="Helvetica,sans-Serif" font-size="10.00" fill="#000000">iterator</text>
</a>
</g>
</g>
<!-- Node11&#45;&gt;Node15 -->
<g id="edge19" class="edge">
<title>Node11&#45;&gt;Node15</title>
<path fill="none" stroke="#191970" d="M1381.0625,-229.8906C1384.7424,-221.1862 1390.2742,-208.1015 1394.862,-197.2494"/>
<polygon fill="#191970" stroke="#191970" points="1398.21,-198.3185 1398.8802,-187.7449 1391.7625,-195.5927 1398.21,-198.3185"/>
</g>
<!-- Node12&#45;&gt;Node2 -->
<g id="edge15" class="edge">
<title>Node12&#45;&gt;Node2</title>
<path fill="none" stroke="#191970" d="M964,-168.4509C964,-150.184 964,-109.9553 964,-85.6976"/>
<polygon fill="#191970" stroke="#191970" points="967.5001,-85.5249 964,-75.5249 960.5001,-85.5249 967.5001,-85.5249"/>
</g>
<!-- Node12&#45;&gt;Node10 -->
<g id="edge16" class="edge">
<title>Node12&#45;&gt;Node10</title>
<path fill="none" stroke="#191970" d="M982.9864,-168.2455C1000.1792,-159.4125 1025.7238,-146.2887 1045.2132,-136.2758"/>
<polygon fill="#191970" stroke="#191970" points="1046.9359,-139.3257 1054.2312,-131.6427 1043.737,-133.0993 1046.9359,-139.3257"/>
</g>
<!-- Node17 -->
<g id="node17" class="node">
<title>Node17</title>
<g id="a_node17"><a xlink:href="sitkMemberFunctionFactoryBase_8h.html" target="_top" xlink:title=" ">
<polygon fill="#ffffff" stroke="#000000" points="332,-224.5 332,-254.5 482,-254.5 482,-224.5 332,-224.5"/>
<text text-anchor="start" x="340" y="-242.5" font-family="Helvetica,sans-Serif" font-size="10.00" fill="#000000">sitkMemberFunctionFactory</text>
<text text-anchor="middle" x="407" y="-231.5" font-family="Helvetica,sans-Serif" font-size="10.00" fill="#000000">Base.h</text>
</a>
</g>
</g>
<!-- Node16&#45;&gt;Node17 -->
<g id="edge21" class="edge">
<title>Node16&#45;&gt;Node17</title>
<path fill="none" stroke="#191970" d="M643.4653,-292.7697C602.7895,-283.6064 535.8975,-268.5374 483.6202,-256.7606"/>
<polygon fill="#191970" stroke="#191970" points="484.2303,-253.3104 473.7055,-254.5271 482.6919,-260.1393 484.2303,-253.3104"/>
</g>
<!-- Node23 -->
<g id="node23" class="node">
<title>Node23</title>
<g id="a_node23"><a xlink:title=" ">
<polygon fill="#ffffff" stroke="#bfbfbf" points="338,-168.5 338,-187.5 476,-187.5 476,-168.5 338,-168.5"/>
<text text-anchor="middle" x="407" y="-175.5" font-family="Helvetica,sans-Serif" font-size="10.00" fill="#000000">Ancillary/FunctionTraits.h</text>
</a>
</g>
</g>
<!-- Node16&#45;&gt;Node23 -->
<g id="edge37" class="edge">
<title>Node16&#45;&gt;Node23</title>
<path fill="none" stroke="#191970" d="M658.5781,-291.3484C610.4355,-269.6577 493.54,-216.9905 437.6933,-191.8289"/>
<polygon fill="#191970" stroke="#191970" points="438.8774,-188.5236 428.3223,-187.6068 436.0019,-194.9057 438.8774,-188.5236"/>
</g>
<!-- Node17&#45;&gt;Node2 -->
<g id="edge30" class="edge">
<title>Node17&#45;&gt;Node2</title>
<path fill="none" stroke="#191970" d="M482.0661,-226.541C524.9696,-217.9799 579.3532,-205.1548 626,-188 644.2825,-181.2764 647.068,-175.6091 665,-168 754.2522,-130.1275 862.8124,-95.9229 921.4582,-78.3791"/>
<polygon fill="#191970" stroke="#191970" points="922.5351,-81.7104 931.1218,-75.5041 920.539,-75.001 922.5351,-81.7104"/>
</g>
<!-- Node17&#45;&gt;Node8 -->
<g id="edge22" class="edge">
<title>Node17&#45;&gt;Node8</title>
<path fill="none" stroke="#191970" d="M331.8278,-233.6189C234.3727,-225.2193 74.7135,-208.5106 57,-188 51.1901,-181.2726 52.5728,-175.7079 57,-168 97.5713,-97.3639 341.2666,-42.1269 452.5938,-20.2266"/>
<polygon fill="#191970" stroke="#191970" points="453.4764,-23.6206 462.623,-18.2736 452.1383,-16.7497 453.4764,-23.6206"/>
</g>
<!-- Node18 -->
<g id="node18" class="node">
<title>Node18</title>
<g id="a_node18"><a xlink:href="sitkPixelIDTypes_8h.html" target="_top" xlink:title=" ">
<polygon fill="#ffffff" stroke="#000000" points="162,-112.5 162,-131.5 268,-131.5 268,-112.5 162,-112.5"/>
<text text-anchor="middle" x="215" y="-119.5" font-family="Helvetica,sans-Serif" font-size="10.00" fill="#000000">sitkPixelIDTypes.h</text>
</a>
</g>
</g>
<!-- Node17&#45;&gt;Node18 -->
<g id="edge23" class="edge">
<title>Node17&#45;&gt;Node18</title>
<path fill="none" stroke="#191970" d="M331.8228,-229.7978C281.7948,-221.6208 222.5134,-208.0141 207,-188 196.7579,-174.7865 200.6667,-155.397 205.9921,-141.0502"/>
<polygon fill="#191970" stroke="#191970" points="209.2926,-142.2304 209.9381,-131.6552 202.8387,-139.5197 209.2926,-142.2304"/>
</g>
<!-- Node19 -->
<g id="node19" class="node">
<title>Node19</title>
<g id="a_node19"><a xlink:href="sitkPixelIDTypeLists_8h.html" target="_top" xlink:title=" ">
<polygon fill="#ffffff" stroke="#000000" points="494.5,-168.5 494.5,-187.5 617.5,-187.5 617.5,-168.5 494.5,-168.5"/>
<text text-anchor="middle" x="556" y="-175.5" font-family="Helvetica,sans-Serif" font-size="10.00" fill="#000000">sitkPixelIDTypeLists.h</text>
</a>
</g>
</g>
<!-- Node17&#45;&gt;Node19 -->
<g id="edge24" class="edge">
<title>Node17&#45;&gt;Node19</title>
<path fill="none" stroke="#191970" d="M443.4495,-224.4554C467.8744,-214.374 499.7581,-201.2139 523.3521,-191.4755"/>
<polygon fill="#191970" stroke="#191970" points="525.0021,-194.5809 532.9103,-187.5303 522.3313,-188.1104 525.0021,-194.5809"/>
</g>
<!-- Node20 -->
<g id="node20" class="node">
<title>Node20</title>
<g id="a_node20"><a xlink:title=" ">
<polygon fill="#ffffff" stroke="#bfbfbf" points="332.5,-112.5 332.5,-131.5 443.5,-131.5 443.5,-112.5 332.5,-112.5"/>
<text text-anchor="middle" x="388" y="-119.5" font-family="Helvetica,sans-Serif" font-size="10.00" fill="#000000">Ancillary/TypeList.h</text>
</a>
</g>
</g>
<!-- Node17&#45;&gt;Node20 -->
<g id="edge33" class="edge">
<title>Node17&#45;&gt;Node20</title>
<path fill="none" stroke="#191970" d="M369.3088,-224.3598C353.9039,-216.0741 337.6882,-204.1476 329,-188 318.216,-167.9573 339.6507,-149.0177 359.638,-136.6117"/>
<polygon fill="#191970" stroke="#191970" points="361.4355,-139.6151 368.3071,-131.5509 357.9064,-133.5698 361.4355,-139.6151"/>
</g>
<!-- Node22 -->
<g id="node22" class="node">
<title>Node22</title>
<g id="a_node22"><a xlink:href="sitkNonCopyable_8h.html" target="_top" xlink:title=" ">
<polygon fill="#ffffff" stroke="#000000" points="674.5,-168.5 674.5,-187.5 783.5,-187.5 783.5,-168.5 674.5,-168.5"/>
<text text-anchor="middle" x="729" y="-175.5" font-family="Helvetica,sans-Serif" font-size="10.00" fill="#000000">sitkNonCopyable.h</text>
</a>
</g>
</g>
<!-- Node17&#45;&gt;Node22 -->
<g id="edge31" class="edge">
<title>Node17&#45;&gt;Node22</title>
<path fill="none" stroke="#191970" d="M482.0883,-225.1586C539.003,-214.2882 616.1747,-199.5489 669.005,-189.4587"/>
<polygon fill="#191970" stroke="#191970" points="669.7385,-192.8819 678.9043,-187.568 668.4252,-186.0062 669.7385,-192.8819"/>
</g>
<!-- Node17&#45;&gt;Node23 -->
<g id="edge34" class="edge">
<title>Node17&#45;&gt;Node23</title>
<path fill="none" stroke="#191970" d="M407,-224.2977C407,-216.3834 407,-206.6043 407,-198.0759"/>
<polygon fill="#191970" stroke="#191970" points="410.5001,-197.8469 407,-187.8469 403.5001,-197.847 410.5001,-197.8469"/>
</g>
<!-- Node24 -->
<g id="node24" class="node">
<title>Node24</title>
<g id="a_node24"><a xlink:title=" ">
<polygon fill="#ffffff" stroke="#bfbfbf" points="66.5,-168.5 66.5,-187.5 159.5,-187.5 159.5,-168.5 66.5,-168.5"/>
<text text-anchor="middle" x="113" y="-175.5" font-family="Helvetica,sans-Serif" font-size="10.00" fill="#000000">unordered_map</text>
</a>
</g>
</g>
<!-- Node17&#45;&gt;Node24 -->
<g id="edge35" class="edge">
<title>Node17&#45;&gt;Node24</title>
<path fill="none" stroke="#191970" d="M335.0795,-224.4554C283.7658,-213.7214 215.7674,-199.4973 168.5928,-189.6291"/>
<polygon fill="#191970" stroke="#191970" points="169.0644,-186.1521 158.5596,-187.5303 167.631,-193.0038 169.0644,-186.1521"/>
</g>
<!-- Node25 -->
<g id="node25" class="node">
<title>Node25</title>
<g id="a_node25"><a xlink:title=" ">
<polygon fill="#ffffff" stroke="#bfbfbf" points="216.5,-168.5 216.5,-187.5 281.5,-187.5 281.5,-168.5 216.5,-168.5"/>
<text text-anchor="middle" x="249" y="-175.5" font-family="Helvetica,sans-Serif" font-size="10.00" fill="#000000">functional</text>
</a>
</g>
</g>
<!-- Node17&#45;&gt;Node25 -->
<g id="edge36" class="edge">
<title>Node17&#45;&gt;Node25</title>
<path fill="none" stroke="#191970" d="M368.3489,-224.4554C342.2174,-214.284 308.0347,-200.9787 282.9519,-191.2155"/>
<polygon fill="#191970" stroke="#191970" points="284.0729,-187.8961 273.4844,-187.5303 281.5338,-194.4193 284.0729,-187.8961"/>
</g>
<!-- Node19&#45;&gt;Node3 -->
<g id="edge25" class="edge">
<title>Node19&#45;&gt;Node3</title>
<path fill="none" stroke="#191970" d="M565.0041,-168.4862C590.7911,-141.2396 665.2016,-62.6172 698.5231,-27.4096"/>
<polygon fill="#191970" stroke="#191970" points="701.3668,-29.4967 705.6986,-19.8279 696.2827,-24.685 701.3668,-29.4967"/>
</g>
<!-- Node19&#45;&gt;Node8 -->
<g id="edge26" class="edge">
<title>Node19&#45;&gt;Node8</title>
<path fill="none" stroke="#191970" d="M543.1668,-168.2358C533.2286,-159.8411 520.1523,-146.7753 514,-132 499.9327,-98.2162 502.1045,-54.5414 505.0142,-29.6624"/>
<polygon fill="#191970" stroke="#191970" points="508.4958,-30.032 506.3473,-19.6573 501.5571,-29.1074 508.4958,-30.032"/>
</g>
<!-- Node19&#45;&gt;Node18 -->
<g id="edge27" class="edge">
<title>Node19&#45;&gt;Node18</title>
<path fill="none" stroke="#191970" d="M497.7675,-168.4369C436.7729,-158.4202 341.2714,-142.7367 278.4071,-132.4129"/>
<polygon fill="#191970" stroke="#191970" points="278.6581,-128.9073 268.2231,-130.7404 277.5237,-135.8148 278.6581,-128.9073"/>
</g>
<!-- Node19&#45;&gt;Node20 -->
<g id="edge28" class="edge">
<title>Node19&#45;&gt;Node20</title>
<path fill="none" stroke="#191970" d="M527.1198,-168.3733C499.1839,-159.0613 456.6858,-144.8953 426.0131,-134.671"/>
<polygon fill="#191970" stroke="#191970" points="427.097,-131.3431 416.5034,-131.5011 424.8834,-137.9839 427.097,-131.3431"/>
</g>
<!-- Node21 -->
<g id="node21" class="node">
<title>Node21</title>
<g id="a_node21"><a xlink:title=" ">
<polygon fill="#ffffff" stroke="#bfbfbf" points="523.5,-112.5 523.5,-131.5 582.5,-131.5 582.5,-112.5 523.5,-112.5"/>
<text text-anchor="middle" x="553" y="-119.5" font-family="Helvetica,sans-Serif" font-size="10.00" fill="#000000">complex</text>
</a>
</g>
</g>
<!-- Node19&#45;&gt;Node21 -->
<g id="edge29" class="edge">
<title>Node19&#45;&gt;Node21</title>
<path fill="none" stroke="#191970" d="M555.4774,-168.2455C555.086,-160.9382 554.5372,-150.6944 554.0556,-141.7046"/>
<polygon fill="#191970" stroke="#191970" points="557.5466,-141.4411 553.5166,-131.6427 550.5566,-141.8156 557.5466,-141.4411"/>
</g>
<!-- Node22&#45;&gt;Node10 -->
<g id="edge32" class="edge">
<title>Node22&#45;&gt;Node10</title>
<path fill="none" stroke="#191970" d="M783.5078,-169.1266C847.9769,-158.6317 954.6302,-141.2695 1018.9144,-130.8046"/>
<polygon fill="#191970" stroke="#191970" points="1019.5472,-134.2478 1028.8549,-129.1864 1018.4224,-127.3387 1019.5472,-134.2478"/>
</g>
<!-- Node26&#45;&gt;Node8 -->
<g id="edge39" class="edge">
<title>Node26&#45;&gt;Node8</title>
<path fill="none" stroke="#191970" d="M939.659,-291.4975C934.1314,-276.4453 922.1712,-246.5191 907,-224 888.023,-195.8317 882.5469,-187.8683 855,-168 755.1671,-95.9951 617.2796,-45.2306 549.297,-22.8412"/>
<polygon fill="#191970" stroke="#191970" points="549.9869,-19.3851 539.3947,-19.6185 547.8206,-26.0415 549.9869,-19.3851"/>
</g>
<!-- Node27 -->
<g id="node27" class="node">
<title>Node27</title>
<g id="a_node27"><a xlink:href="sitkPixelIDValues_8h.html" target="_top" xlink:title=" ">
<polygon fill="#ffffff" stroke="#000000" points="788,-230 788,-249 898,-249 898,-230 788,-230"/>
<text text-anchor="middle" x="843" y="-237" font-family="Helvetica,sans-Serif" font-size="10.00" fill="#000000">sitkPixelIDValues.h</text>
</a>
</g>
</g>
<!-- Node26&#45;&gt;Node27 -->
<g id="edge40" class="edge">
<title>Node26&#45;&gt;Node27</title>
<path fill="none" stroke="#191970" d="M927.375,-291.3906C911.2302,-281.4616 885.8178,-265.833 867.0977,-254.3201"/>
<polygon fill="#191970" stroke="#191970" points="868.8669,-251.2992 858.5153,-249.0419 865.1998,-257.2619 868.8669,-251.2992"/>
</g>
<!-- Node26&#45;&gt;Node29 -->
<g id="edge45" class="edge">
<title>Node26&#45;&gt;Node29</title>
<path fill="none" stroke="#191970" d="M953.7813,-291.3906C964.3526,-281.9683 980.6825,-267.4134 993.3603,-256.1137"/>
<polygon fill="#191970" stroke="#191970" points="995.9304,-258.5114 1001.0667,-249.2449 991.2728,-253.2858 995.9304,-258.5114"/>
</g>
<!-- Node27&#45;&gt;Node10 -->
<g id="edge41" class="edge">
<title>Node27&#45;&gt;Node10</title>
<path fill="none" stroke="#191970" d="M895.585,-229.9494C944.2813,-220.2924 1012.3363,-204.4767 1034,-188 1049.5145,-176.2002 1060.0417,-156.301 1066.2103,-141.4312"/>
<polygon fill="#191970" stroke="#191970" points="1069.6365,-142.2708 1069.9407,-131.6803 1063.0986,-139.7695 1069.6365,-142.2708"/>
</g>
<!-- Node27&#45;&gt;Node14 -->
<g id="edge44" class="edge">
<title>Node27&#45;&gt;Node14</title>
<path fill="none" stroke="#191970" d="M890.4768,-229.9581C951.0039,-217.7933 1054.4896,-196.9947 1110.413,-185.7552"/>
<polygon fill="#191970" stroke="#191970" points="1111.1662,-189.1739 1120.2805,-183.7721 1109.7869,-182.3111 1111.1662,-189.1739"/>
</g>
<!-- Node27&#45;&gt;Node19 -->
<g id="edge42" class="edge">
<title>Node27&#45;&gt;Node19</title>
<path fill="none" stroke="#191970" d="M798.4711,-229.9581C747.7793,-219.0956 664.9609,-201.3488 610.4651,-189.6711"/>
<polygon fill="#191970" stroke="#191970" points="611.1447,-186.2373 600.6333,-187.5643 609.678,-193.082 611.1447,-186.2373"/>
</g>
<!-- Node28 -->
<g id="node28" class="node">
<title>Node28</title>
<g id="a_node28"><a xlink:title=" ">
<polygon fill="#ffffff" stroke="#bfbfbf" points="802,-168.5 802,-187.5 846,-187.5 846,-168.5 802,-168.5"/>
<text text-anchor="middle" x="824" y="-175.5" font-family="Helvetica,sans-Serif" font-size="10.00" fill="#000000">string</text>
</a>
</g>
</g>
<!-- Node27&#45;&gt;Node28 -->
<g id="edge43" class="edge">
<title>Node27&#45;&gt;Node28</title>
<path fill="none" stroke="#191970" d="M840.0313,-229.8906C837.3698,-221.276 833.3829,-208.3708 830.0509,-197.5858"/>
<polygon fill="#191970" stroke="#191970" points="833.3065,-196.2661 827.0106,-187.7449 826.6184,-198.3324 833.3065,-196.2661"/>
</g>
<!-- Node31&#45;&gt;Node27 -->
<g id="edge62" class="edge">
<title>Node31&#45;&gt;Node27</title>
<path fill="none" stroke="#191970" d="M1111.903,-515.4715C1018.4659,-500.1131 859,-466.1201 859,-413 859,-413 859,-413 859,-357 859,-322.3228 852.0734,-282.411 847.3351,-259.1651"/>
<polygon fill="#191970" stroke="#191970" points="850.7185,-258.2473 845.2247,-249.1881 843.87,-259.696 850.7185,-258.2473"/>
</g>
<!-- Node32 -->
<g id="node32" class="node">
<title>Node32</title>
<g id="a_node32"><a xlink:href="sitkProcessObject_8h.html" target="_top" xlink:title=" ">
<polygon fill="#ffffff" stroke="#000000" points="1121.5,-459.5 1121.5,-478.5 1234.5,-478.5 1234.5,-459.5 1121.5,-459.5"/>
<text text-anchor="middle" x="1178" y="-466.5" font-family="Helvetica,sans-Serif" font-size="10.00" fill="#000000">sitkProcessObject.h</text>
</a>
</g>
</g>
<!-- Node31&#45;&gt;Node32 -->
<g id="edge50" class="edge">
<title>Node31&#45;&gt;Node32</title>
<path fill="none" stroke="#191970" d="M1178,-515.2455C1178,-507.9382 1178,-497.6944 1178,-488.7046"/>
<polygon fill="#191970" stroke="#191970" points="1181.5001,-488.6426 1178,-478.6427 1174.5001,-488.6427 1181.5001,-488.6426"/>
</g>
<!-- Node37 -->
<g id="node37" class="node">
<title>Node37</title>
<g id="a_node37"><a xlink:href="sitkIO_8h.html" target="_top" xlink:title=" ">
<polygon fill="#ffffff" stroke="#000000" points="1352.5,-459.5 1352.5,-478.5 1405.5,-478.5 1405.5,-459.5 1352.5,-459.5"/>
<text text-anchor="middle" x="1379" y="-466.5" font-family="Helvetica,sans-Serif" font-size="10.00" fill="#000000">sitkIO.h</text>
</a>
</g>
</g>
<!-- Node31&#45;&gt;Node37 -->
<g id="edge63" class="edge">
<title>Node31&#45;&gt;Node37</title>
<path fill="none" stroke="#191970" d="M1212.5531,-515.3733C1248.7702,-505.2829 1305.4444,-489.4931 1342.4077,-479.1949"/>
<polygon fill="#191970" stroke="#191970" points="1343.5834,-482.5007 1352.2771,-476.4452 1341.7046,-475.7575 1343.5834,-482.5007"/>
</g>
<!-- Node32&#45;&gt;Node9 -->
<g id="edge57" class="edge">
<title>Node32&#45;&gt;Node9</title>
<path fill="none" stroke="#191970" d="M1229.001,-459.4369C1266.0527,-451.3317 1311.6137,-438.5578 1323,-423 1338.0739,-402.4037 1310.5329,-383.2113 1285.2771,-370.8918"/>
<polygon fill="#191970" stroke="#191970" points="1286.7044,-367.6958 1276.1589,-366.6742 1283.7656,-374.0491 1286.7044,-367.6958"/>
</g>
<!-- Node32&#45;&gt;Node10 -->
<g id="edge51" class="edge">
<title>Node32&#45;&gt;Node10</title>
<path fill="none" stroke="#191970" d="M1150.5424,-459.4317C1133.9116,-452.1325 1113.8722,-440.342 1103,-423 1045.5569,-331.3739 1061.1163,-192.3917 1069.401,-141.5269"/>
<polygon fill="#191970" stroke="#191970" points="1072.8699,-142.0063 1071.1212,-131.5568 1065.9719,-140.8161 1072.8699,-142.0063"/>
</g>
<!-- Node32&#45;&gt;Node11 -->
<g id="edge53" class="edge">
<title>Node32&#45;&gt;Node11</title>
<path fill="none" stroke="#191970" d="M1234.7473,-467.2283C1303.5353,-463.7465 1413.4532,-453.443 1439,-423 1481.2458,-372.6575 1422.8534,-292.2329 1392.861,-256.9979"/>
<polygon fill="#191970" stroke="#191970" points="1395.1411,-254.2879 1385.9263,-249.0593 1389.8692,-258.8932 1395.1411,-254.2879"/>
</g>
<!-- Node32&#45;&gt;Node22 -->
<g id="edge52" class="edge">
<title>Node32&#45;&gt;Node22</title>
<path fill="none" stroke="#191970" d="M1138.6047,-459.4194C1108.654,-451.4662 1066.8099,-438.8988 1032,-423 909.2226,-366.9235 869.9578,-354.7273 779,-255 762.6334,-237.0554 748.036,-213.193 738.9002,-196.8149"/>
<polygon fill="#191970" stroke="#191970" points="741.7998,-194.8204 733.9505,-187.7042 735.6489,-198.1621 741.7998,-194.8204"/>
</g>
<!-- Node33 -->
<g id="node33" class="node">
<title>Node33</title>
<g id="a_node33"><a xlink:href="sitkEvent_8h.html" target="_top" xlink:title=" ">
<polygon fill="#ffffff" stroke="#000000" points="1136.5,-230 1136.5,-249 1207.5,-249 1207.5,-230 1136.5,-230"/>
<text text-anchor="middle" x="1172" y="-237" font-family="Helvetica,sans-Serif" font-size="10.00" fill="#000000">sitkEvent.h</text>
</a>
</g>
</g>
<!-- Node32&#45;&gt;Node33 -->
<g id="edge54" class="edge">
<title>Node32&#45;&gt;Node33</title>
<path fill="none" stroke="#191970" d="M1177.7498,-459.4309C1176.8483,-424.9475 1173.7541,-306.5953 1172.5171,-259.2785"/>
<polygon fill="#191970" stroke="#191970" points="1176.0115,-259.0151 1172.2512,-249.11 1169.0139,-259.1981 1176.0115,-259.0151"/>
</g>
<!-- Node34 -->
<g id="node34" class="node">
<title>Node34</title>
<g id="a_node34"><a xlink:href="sitkImageConvert_8h.html" target="_top" xlink:title=" ">
<polygon fill="#ffffff" stroke="#000000" points="1200.5,-403.5 1200.5,-422.5 1313.5,-422.5 1313.5,-403.5 1200.5,-403.5"/>
<text text-anchor="middle" x="1257" y="-410.5" font-family="Helvetica,sans-Serif" font-size="10.00" fill="#000000">sitkImageConvert.h</text>
</a>
</g>
</g>
<!-- Node32&#45;&gt;Node34 -->
<g id="edge58" class="edge">
<title>Node32&#45;&gt;Node34</title>
<path fill="none" stroke="#191970" d="M1191.7607,-459.2455C1203.6552,-450.814 1221.065,-438.4729 1234.9085,-428.6598"/>
<polygon fill="#191970" stroke="#191970" points="1237.2628,-431.2811 1243.3969,-422.6427 1233.2146,-425.5704 1237.2628,-431.2811"/>
</g>
<!-- Node35 -->
<g id="node35" class="node">
<title>Node35</title>
<g id="a_node35"><a xlink:title=" ">
<polygon fill="#ffffff" stroke="#bfbfbf" points="1370,-403.5 1370,-422.5 1430,-422.5 1430,-403.5 1370,-403.5"/>
<text text-anchor="middle" x="1400" y="-410.5" font-family="Helvetica,sans-Serif" font-size="10.00" fill="#000000">iostream</text>
</a>
</g>
</g>
<!-- Node32&#45;&gt;Node35 -->
<g id="edge60" class="edge">
<title>Node32&#45;&gt;Node35</title>
<path fill="none" stroke="#191970" d="M1215.9109,-459.4369C1255.9827,-449.3287 1318.9316,-433.4497 1359.8364,-423.1314"/>
<polygon fill="#191970" stroke="#191970" points="1360.8935,-426.4744 1369.7336,-420.6348 1359.1813,-419.687 1360.8935,-426.4744"/>
</g>
<!-- Node36 -->
<g id="node36" class="node">
<title>Node36</title>
<g id="a_node36"><a xlink:title=" ">
<polygon fill="#ffffff" stroke="#bfbfbf" points="1112,-403.5 1112,-422.5 1144,-422.5 1144,-403.5 1112,-403.5"/>
<text text-anchor="middle" x="1128" y="-410.5" font-family="Helvetica,sans-Serif" font-size="10.00" fill="#000000">list</text>
</a>
</g>
</g>
<!-- Node32&#45;&gt;Node36 -->
<g id="edge61" class="edge">
<title>Node32&#45;&gt;Node36</title>
<path fill="none" stroke="#191970" d="M1169.2907,-459.2455C1162.1927,-451.2958 1151.9916,-439.8706 1143.505,-430.3656"/>
<polygon fill="#191970" stroke="#191970" points="1145.8805,-427.771 1136.6095,-422.6427 1140.6589,-432.4331 1145.8805,-427.771"/>
</g>
<!-- Node33&#45;&gt;Node10 -->
<g id="edge55" class="edge">
<title>Node33&#45;&gt;Node10</title>
<path fill="none" stroke="#191970" d="M1178.2723,-229.8274C1186.8836,-215.2005 1199.9126,-187.1345 1187,-168 1173.4288,-147.8895 1149.4313,-136.5688 1126.9433,-130.1971"/>
<polygon fill="#191970" stroke="#191970" points="1127.6529,-126.7661 1117.0976,-127.6811 1125.9197,-133.5481 1127.6529,-126.7661"/>
</g>
<!-- Node33&#45;&gt;Node14 -->
<g id="edge56" class="edge">
<title>Node33&#45;&gt;Node14</title>
<path fill="none" stroke="#191970" d="M1168.4063,-229.8906C1165.1509,-221.1862 1160.2575,-208.1015 1156.199,-197.2494"/>
<polygon fill="#191970" stroke="#191970" points="1159.4256,-195.8852 1152.6444,-187.7449 1152.8691,-198.3373 1159.4256,-195.8852"/>
</g>
<!-- Node34&#45;&gt;Node9 -->
<g id="edge59" class="edge">
<title>Node34&#45;&gt;Node9</title>
<path fill="none" stroke="#191970" d="M1255.9549,-403.2455C1255.172,-395.9382 1254.0744,-385.6944 1253.1112,-376.7046"/>
<polygon fill="#191970" stroke="#191970" points="1256.5786,-376.2129 1252.0331,-366.6427 1249.6185,-376.9587 1256.5786,-376.2129"/>
</g>
<!-- Node37&#45;&gt;Node2 -->
<g id="edge64" class="edge">
<title>Node37&#45;&gt;Node2</title>
<path fill="none" stroke="#191970" d="M1402.1154,-459.4252C1436.2128,-443.5793 1496,-408.458 1496,-357 1496,-357 1496,-357 1496,-178 1496,-112.4087 1426.8699,-130.6977 1364,-112 1298.7588,-92.5971 1101.2996,-76.0945 1010.5394,-69.308"/>
<polygon fill="#191970" stroke="#191970" points="1010.7662,-65.8153 1000.5349,-68.5671 1010.2491,-72.7962 1010.7662,-65.8153"/>
</g>
<!-- Node38&#45;&gt;Node5 -->
<g id="edge70" class="edge">
<title>Node38&#45;&gt;Node5</title>
<path fill="none" stroke="#191970" d="M608.7419,-351.6649C427.8323,-338.4268 0,-300.6549 0,-239.5 0,-239.5 0,-239.5 0,-122 0,-41.3529 119.4968,-18.7306 181.5462,-12.42"/>
<polygon fill="#191970" stroke="#191970" points="182.069,-15.8867 191.7041,-11.4805 181.4242,-8.9165 182.069,-15.8867"/>
</g>
<!-- Node38&#45;&gt;Node12 -->
<g id="edge73" class="edge">
<title>Node38&#45;&gt;Node12</title>
<path fill="none" stroke="#191970" d="M696.2952,-347.3983C704.0391,-338.2734 715.7566,-324.0456 725,-311 751.3106,-273.8669 742.2138,-250.7934 779,-224 797.7155,-210.3684 851.2365,-197.8964 895.926,-189.3885"/>
<polygon fill="#191970" stroke="#191970" points="896.7074,-192.8032 905.8952,-187.5274 895.4227,-185.9221 896.7074,-192.8032"/>
</g>
<!-- Node38&#45;&gt;Node16 -->
<g id="edge66" class="edge">
<title>Node38&#45;&gt;Node16</title>
<path fill="none" stroke="#191970" d="M686.6065,-347.2455C685.5626,-339.9382 684.0992,-329.6944 682.8149,-320.7046"/>
<polygon fill="#191970" stroke="#191970" points="686.2566,-320.0472 681.3775,-310.6427 679.327,-321.0372 686.2566,-320.0472"/>
</g>
<!-- Node38&#45;&gt;Node17 -->
<g id="edge67" class="edge">
<title>Node38&#45;&gt;Node17</title>
<path fill="none" stroke="#191970" d="M608.7857,-349.297C548.4649,-342.0983 471.5782,-329.6356 446,-311 430.438,-299.6619 420.3968,-280.1556 414.4063,-264.3787"/>
<polygon fill="#191970" stroke="#191970" points="417.6231,-262.9722 411.0373,-254.6729 411.0101,-265.2677 417.6231,-262.9722"/>
</g>
<!-- Node38&#45;&gt;Node26 -->
<g id="edge72" class="edge">
<title>Node38&#45;&gt;Node26</title>
<path fill="none" stroke="#191970" d="M731.5463,-347.4369C775.2793,-337.8328 842.7345,-323.0191 889.6542,-312.7152"/>
<polygon fill="#191970" stroke="#191970" points="890.6168,-316.0872 899.6333,-310.5237 889.1153,-309.2502 890.6168,-316.0872"/>
</g>
<!-- Node38&#45;&gt;Node27 -->
<g id="edge68" class="edge">
<title>Node38&#45;&gt;Node27</title>
<path fill="none" stroke="#191970" d="M704.1922,-347.3449C718.85,-338.4108 740.8583,-324.5083 759,-311 782.5448,-293.4685 808.0091,-271.2979 824.6533,-256.3287"/>
<polygon fill="#191970" stroke="#191970" points="827.4374,-258.529 832.4963,-249.2199 822.7363,-253.3424 827.4374,-258.529"/>
</g>
<!-- Node38&#45;&gt;Node38 -->
<g id="edge71" class="edge">
<title>Node38&#45;&gt;Node38</title>
<path fill="none" stroke="#191970" d="M729.1182,-366.5001C757.3159,-369.3269 785,-366.1602 785,-357 785,-348.9491 763.6147,-345.528 739.291,-346.7367"/>
<polygon fill="#191970" stroke="#191970" points="738.8282,-343.2615 729.1182,-347.4999 739.352,-350.2418 738.8282,-343.2615"/>
</g>
<!-- Node39 -->
<g id="node39" class="node">
<title>Node39</title>
<g id="a_node39"><a xlink:title=" ">
<polygon fill="#ffffff" stroke="#bfbfbf" points="455,-291.5 455,-310.5 625,-310.5 625,-291.5 455,-291.5"/>
<text text-anchor="middle" x="540" y="-298.5" font-family="Helvetica,sans-Serif" font-size="10.00" fill="#000000">sitkMemberFunctionFactory.hxx</text>
</a>
</g>
</g>
<!-- Node38&#45;&gt;Node39 -->
<g id="edge69" class="edge">
<title>Node38&#45;&gt;Node39</title>
<path fill="none" stroke="#191970" d="M662.5579,-347.3733C638.2674,-338.1822 601.4792,-324.2624 574.5457,-314.0713"/>
<polygon fill="#191970" stroke="#191970" points="575.7016,-310.7666 565.1101,-310.5011 573.2243,-317.3136 575.7016,-310.7666"/>
</g>
</g>
</svg>
        <g id="navigator" transform="translate(0 0)" fill="#404254">
                <rect fill="#f2f5e9" fill-opacity="0.5" stroke="#606060" stroke-width=".5" x="0" y="0" width="60" height="60"/>
                <use id="zoomplus" xlink:href="#zoomPlus" x="17" y="9" onmousedown="handleZoom(evt,'in')"/>
                <use id="zoomminus" xlink:href="#zoomMin" x="42" y="9" onmousedown="handleZoom(evt,'out')"/>
                <use id="reset" xlink:href="#resetDef" x="30" y="36" onmousedown="handleReset()"/>
                <g id="arrowUp" xlink:href="#dirArrow" transform="translate(30 24)" onmousedown="handlePan(0,-1)">
                  <use xlink:href="#rim" fill="#404040">
                        <set attributeName="fill" to="#808080" begin="arrowUp.mouseover" end="arrowUp.mouseout"/>
                  </use>
                  <path fill="none" stroke="white" stroke-width="1.5" d="M0,-3.0v7 M-2.5,-0.5L0,-3.0L2.5,-0.5"/>
                </g>
                <g id="arrowRight" xlink:href="#dirArrow" transform="rotate(90) translate(36 -43)" onmousedown="handlePan(1,0)">
                  <use xlink:href="#rim" fill="#404040">
                        <set attributeName="fill" to="#808080" begin="arrowRight.mouseover" end="arrowRight.mouseout"/>
                  </use>
                  <path fill="none" stroke="white" stroke-width="1.5" d="M0,-3.0v7 M-2.5,-0.5L0,-3.0L2.5,-0.5"/>
                </g>
                <g id="arrowDown" xlink:href="#dirArrow" transform="rotate(180) translate(-30 -48)" onmousedown="handlePan(0,1)">
                  <use xlink:href="#rim" fill="#404040">
                        <set attributeName="fill" to="#808080" begin="arrowDown.mouseover" end="arrowDown.mouseout"/>
                  </use>
                  <path fill="none" stroke="white" stroke-width="1.5" d="M0,-3.0v7 M-2.5,-0.5L0,-3.0L2.5,-0.5"/>
                </g>
                <g id="arrowLeft" xlink:href="#dirArrow" transform="rotate(270) translate(-36 17)" onmousedown="handlePan(-1,0)">
                  <use xlink:href="#rim" fill="#404040">
                        <set attributeName="fill" to="#808080" begin="arrowLeft.mouseover" end="arrowLeft.mouseout"/>
                  </use>
                  <path fill="none" stroke="white" stroke-width="1.5" d="M0,-3.0v7 M-2.5,-0.5L0,-3.0L2.5,-0.5"/>
                </g>
        </g>
        <svg viewBox="0 0 15 15" width="100%" height="30px" preserveAspectRatio="xMaxYMin meet">
         <g id="arrow_out" transform="scale(0.3 0.3)">
          <a xlink:href="sitkImageSeriesReader_8h__incl_org.svg" target="_base">
           <rect id="button" ry="5" rx="5" y="6" x="6" height="38" width="38"
                fill="#f2f5e9" fill-opacity="0.5" stroke="#606060" stroke-width="1.0"/>
           <path id="arrow"
             d="M 11.500037,31.436501 C 11.940474,20.09759 22.043105,11.32322 32.158766,21.979434 L 37.068811,17.246167 C 37.068811,17.246167 37.088388,32 37.088388,32 L 22.160133,31.978069 C 22.160133,31.978069 26.997745,27.140456 26.997745,27.140456 C 18.528582,18.264221 13.291696,25.230495 11.500037,31.436501 z"
             style="fill:#404040;"/>
          </a>
         </g>
        </svg>
</svg>
