<?xml version="1.0" encoding="UTF-8" standalone="no"?>
<!DOCTYPE svg PUBLIC "-//W3C//DTD SVG 1.1//EN"
 "http://www.w3.org/Graphics/SVG/1.1/DTD/svg11.dtd">
<!-- Generated by graphviz version 2.40.1 (20161225.0304)
 -->
<!-- Title: sitkPixelIDTypes.h Pages: 1 -->
<svg width="4732pt" height="632pt"
 viewBox="0.00 0.00 4732.00 632.00" xmlns="http://www.w3.org/2000/svg" xmlns:xlink="http://www.w3.org/1999/xlink">
<g id="graph0" class="graph" transform="scale(1 1) rotate(0) translate(4 628)">
<title>sitkPixelIDTypes.h</title>
<polygon fill="#ffffff" stroke="transparent" points="-4,4 -4,-628 4728,-628 4728,4 -4,4"/>
<!-- Node1 -->
<g id="node1" class="node">
<title>Node1</title>
<g id="a_node1"><a xlink:title=" ">
<polygon fill="#bfbfbf" stroke="#000000" points="3159,-604.5 3159,-623.5 3265,-623.5 3265,-604.5 3159,-604.5"/>
<text text-anchor="middle" x="3212" y="-611.5" font-family="Helvetica,sans-Serif" font-size="10.00" fill="#000000">sitkPixelIDTypes.h</text>
</a>
</g>
</g>
<!-- Node2 -->
<g id="node2" class="node">
<title>Node2</title>
<g id="a_node2"><a xlink:href="sitkMemberFunctionFactoryBase_8h.html" target="_top" xlink:title=" ">
<polygon fill="#ffffff" stroke="#000000" points="2972,-481.5 2972,-511.5 3122,-511.5 3122,-481.5 2972,-481.5"/>
<text text-anchor="start" x="2980" y="-499.5" font-family="Helvetica,sans-Serif" font-size="10.00" fill="#000000">sitkMemberFunctionFactory</text>
<text text-anchor="middle" x="3047" y="-488.5" font-family="Helvetica,sans-Serif" font-size="10.00" fill="#000000">Base.h</text>
</a>
</g>
</g>
<!-- Node1&#45;&gt;Node2 -->
<g id="edge1" class="edge">
<title>Node1&#45;&gt;Node2</title>
<path fill="none" stroke="#191970" d="M3190.2866,-598.5374C3158.4671,-575.8781 3099.5469,-533.9197 3068.0873,-511.5167"/>
<polygon fill="#191970" stroke="#191970" points="3188.3214,-601.4347 3198.4974,-604.3845 3192.3819,-595.7327 3188.3214,-601.4347"/>
</g>
<!-- Node336 -->
<g id="node48" class="node">
<title>Node336</title>
<g id="a_node48"><a xlink:href="sitkPixelIDTypeLists_8h.html" target="_top" xlink:title=" ">
<polygon fill="#ffffff" stroke="#000000" points="3255.5,-548.5 3255.5,-567.5 3378.5,-567.5 3378.5,-548.5 3255.5,-548.5"/>
<text text-anchor="middle" x="3317" y="-555.5" font-family="Helvetica,sans-Serif" font-size="10.00" fill="#000000">sitkPixelIDTypeLists.h</text>
</a>
</g>
</g>
<!-- Node1&#45;&gt;Node336 -->
<g id="edge140" class="edge">
<title>Node1&#45;&gt;Node336</title>
<path fill="none" stroke="#191970" d="M3239.2625,-599.46C3258.0522,-589.4388 3282.5013,-576.3993 3298.92,-567.6427"/>
<polygon fill="#191970" stroke="#191970" points="3237.4661,-596.4514 3230.2896,-604.2455 3240.7602,-602.6278 3237.4661,-596.4514"/>
</g>
<!-- Node3 -->
<g id="node3" class="node">
<title>Node3</title>
<g id="a_node3"><a xlink:href="sitkDetail_8h.html" target="_top" xlink:title=" ">
<polygon fill="#ffffff" stroke="#000000" points="3010.5,-425.5 3010.5,-444.5 3083.5,-444.5 3083.5,-425.5 3010.5,-425.5"/>
<text text-anchor="middle" x="3047" y="-432.5" font-family="Helvetica,sans-Serif" font-size="10.00" fill="#000000">sitkDetail.h</text>
</a>
</g>
</g>
<!-- Node2&#45;&gt;Node3 -->
<g id="edge2" class="edge">
<title>Node2&#45;&gt;Node3</title>
<path fill="none" stroke="#191970" d="M3047,-471.2849C3047,-461.9858 3047,-451.9883 3047,-444.8469"/>
<polygon fill="#191970" stroke="#191970" points="3043.5001,-471.2977 3047,-481.2977 3050.5001,-471.2978 3043.5001,-471.2977"/>
</g>
<!-- Node334 -->
<g id="node46" class="node">
<title>Node334</title>
<g id="a_node46"><a xlink:href="sitkDualMemberFunctionFactory_8h.html" target="_top" xlink:title=" ">
<polygon fill="#ffffff" stroke="#000000" points="1123,-196 1123,-215 1303,-215 1303,-196 1123,-196"/>
<text text-anchor="middle" x="1213" y="-203" font-family="Helvetica,sans-Serif" font-size="10.00" fill="#000000">sitkDualMemberFunctionFactory.h</text>
</a>
</g>
</g>
<!-- Node2&#45;&gt;Node334 -->
<g id="edge138" class="edge">
<title>Node2&#45;&gt;Node334</title>
<path fill="none" stroke="#191970" d="M2961.4796,-494.0372C2651.499,-484.555 1605,-447.4726 1605,-379 1605,-379 1605,-379 1605,-323 1605,-260.3897 1419.192,-228.2959 1303.4249,-214.376"/>
<polygon fill="#191970" stroke="#191970" points="2961.6524,-497.544 2971.7542,-494.3496 2961.8652,-490.5472 2961.6524,-497.544"/>
</g>
<!-- Node335 -->
<g id="node47" class="node">
<title>Node335</title>
<g id="a_node47"><a xlink:href="sitkMemberFunctionFactory_8h.html" target="_top" xlink:title=" ">
<polygon fill="#ffffff" stroke="#000000" points="3007,-257.5 3007,-276.5 3165,-276.5 3165,-257.5 3007,-257.5"/>
<text text-anchor="middle" x="3086" y="-264.5" font-family="Helvetica,sans-Serif" font-size="10.00" fill="#000000">sitkMemberFunctionFactory.h</text>
</a>
</g>
</g>
<!-- Node2&#45;&gt;Node335 -->
<g id="edge139" class="edge">
<title>Node2&#45;&gt;Node335</title>
<path fill="none" stroke="#191970" d="M2991.7544,-476.7188C2977.9982,-469.0189 2964.927,-458.669 2957,-445 2927.5688,-394.2498 2923.1934,-360.9467 2957,-313 2967.3104,-298.3771 3010.0824,-285.0492 3043.5849,-276.5476"/>
<polygon fill="#191970" stroke="#191970" points="2990.3535,-479.9343 3000.8458,-481.4044 2993.5603,-473.712 2990.3535,-479.9343"/>
</g>
<!-- Node4 -->
<g id="node4" class="node">
<title>Node4</title>
<g id="a_node4"><a xlink:href="SimpleITK_8h.html" target="_top" xlink:title=" ">
<polygon fill="#ffffff" stroke="#000000" points="3667.5,-.5 3667.5,-19.5 3742.5,-19.5 3742.5,-.5 3667.5,-.5"/>
<text text-anchor="middle" x="3705" y="-7.5" font-family="Helvetica,sans-Serif" font-size="10.00" fill="#000000">SimpleITK.h</text>
</a>
</g>
</g>
<!-- Node3&#45;&gt;Node4 -->
<g id="edge3" class="edge">
<title>Node3&#45;&gt;Node4</title>
<path fill="none" stroke="#191970" d="M3028.5297,-418.4936C2983.5394,-376.3483 2876.3412,-262.9545 2938,-190 2999.9743,-116.6722 3063.3162,-193.1066 3151,-154 3171.222,-144.9811 3171.1466,-134.6112 3190,-123 3222.51,-102.9781 3235.49,-107.0219 3268,-87 3286.8534,-75.3888 3286.5488,-64.4864 3307,-56 3371.7273,-29.1407 3581.1371,-16.0649 3667.3662,-11.7148"/>
<polygon fill="#191970" stroke="#191970" points="3026.1836,-421.0911 3035.9108,-425.2903 3030.9253,-415.9417 3026.1836,-421.0911"/>
</g>
<!-- Node5 -->
<g id="node5" class="node">
<title>Node5</title>
<g id="a_node5"><a xlink:href="sitkImage_8h.html" target="_top" xlink:title=" ">
<polygon fill="#ffffff" stroke="#000000" points="3883,-369.5 3883,-388.5 3957,-388.5 3957,-369.5 3883,-369.5"/>
<text text-anchor="middle" x="3920" y="-376.5" font-family="Helvetica,sans-Serif" font-size="10.00" fill="#000000">sitkImage.h</text>
</a>
</g>
</g>
<!-- Node3&#45;&gt;Node5 -->
<g id="edge4" class="edge">
<title>Node3&#45;&gt;Node5</title>
<path fill="none" stroke="#191970" d="M3093.8153,-431.997C3248.8228,-422.0537 3743.4072,-390.3278 3882.9973,-381.3736"/>
<polygon fill="#191970" stroke="#191970" points="3093.4321,-428.5142 3083.6767,-432.6473 3093.8803,-435.4999 3093.4321,-428.5142"/>
</g>
<!-- Node323 -->
<g id="node9" class="node">
<title>Node323</title>
<g id="a_node9"><a xlink:href="sitkImageRegistrationMethod_8h.html" target="_top" xlink:title=" ">
<polygon fill="#ffffff" stroke="#000000" points="4285.5,-196 4285.5,-215 4454.5,-215 4454.5,-196 4285.5,-196"/>
<text text-anchor="middle" x="4370" y="-203" font-family="Helvetica,sans-Serif" font-size="10.00" fill="#000000">sitkImageRegistrationMethod.h</text>
</a>
</g>
</g>
<!-- Node3&#45;&gt;Node323 -->
<g id="edge137" class="edge">
<title>Node3&#45;&gt;Node323</title>
<path fill="none" stroke="#191970" d="M3093.806,-434.5908C3256.5104,-432.8671 3796.7666,-424.5397 3966,-389 4098.7865,-361.1143 4128.5835,-337.5633 4250,-277 4289.4962,-257.2991 4333.4856,-229.472 4355.6168,-215.0306"/>
<polygon fill="#191970" stroke="#191970" points="3093.6065,-431.0926 3083.6429,-434.695 3093.6783,-438.0922 3093.6065,-431.0926"/>
</g>
<!-- Node3&#45;&gt;Node334 -->
<g id="edge112" class="edge">
<title>Node3&#45;&gt;Node334</title>
<path fill="none" stroke="#191970" d="M3000.284,-429.1541C2753.1698,-398.2312 1598.0828,-253.6878 1289.149,-215.029"/>
<polygon fill="#191970" stroke="#191970" points="3000.0079,-432.6468 3010.3652,-430.4157 3000.8772,-425.701 3000.0079,-432.6468"/>
</g>
<!-- Node3&#45;&gt;Node335 -->
<g id="edge126" class="edge">
<title>Node3&#45;&gt;Node335</title>
<path fill="none" stroke="#191970" d="M3051.4742,-415.7267C3059.8095,-379.8207 3077.4381,-303.8822 3083.7185,-276.8279"/>
<polygon fill="#191970" stroke="#191970" points="3048.0606,-414.9538 3049.2086,-425.4862 3054.8793,-416.5367 3048.0606,-414.9538"/>
</g>
<!-- Node5&#45;&gt;Node4 -->
<g id="edge9" class="edge">
<title>Node5&#45;&gt;Node4</title>
<path fill="none" stroke="#191970" d="M3967.3201,-367.7329C4024.1709,-354.1949 4112.1024,-333.2498 4113,-333 4191.8772,-311.0489 4415.7005,-287.1106 4464,-221 4472.1278,-209.875 4471.4606,-201.583 4464,-190 4386.0231,-68.9356 4308.067,-93.3813 4169,-56 4088.6747,-34.4085 3838.3157,-17.8399 3742.667,-12.1433"/>
<polygon fill="#191970" stroke="#191970" points="3966.3588,-364.3639 3957.4416,-370.0852 3967.9804,-371.1735 3966.3588,-364.3639"/>
</g>
<!-- Node6 -->
<g id="node6" class="node">
<title>Node6</title>
<g id="a_node6"><a xlink:href="sitkAdditionalProcedures_8h.html" target="_top" xlink:title=" ">
<polygon fill="#ffffff" stroke="#000000" points="4548.5,-196 4548.5,-215 4695.5,-215 4695.5,-196 4548.5,-196"/>
<text text-anchor="middle" x="4622" y="-203" font-family="Helvetica,sans-Serif" font-size="10.00" fill="#000000">sitkAdditionalProcedures.h</text>
</a>
</g>
</g>
<!-- Node5&#45;&gt;Node6 -->
<g id="edge5" class="edge">
<title>Node5&#45;&gt;Node6</title>
<path fill="none" stroke="#191970" d="M3967.3778,-374.8792C4093.8462,-363.2992 4436.5892,-327.9537 4537,-277 4568.6409,-260.9437 4598.7092,-231.0313 4613.1197,-215.4757"/>
<polygon fill="#191970" stroke="#191970" points="3966.8776,-371.4101 3957.2348,-375.7993 3967.5101,-378.3815 3966.8776,-371.4101"/>
</g>
<!-- Node7 -->
<g id="node7" class="node">
<title>Node7</title>
<g id="a_node7"><a xlink:href="sitkHashImageFilter_8h.html" target="_top" xlink:title=" ">
<polygon fill="#ffffff" stroke="#000000" points="3431,-129 3431,-148 3553,-148 3553,-129 3431,-129"/>
<text text-anchor="middle" x="3492" y="-136" font-family="Helvetica,sans-Serif" font-size="10.00" fill="#000000">sitkHashImageFilter.h</text>
</a>
</g>
</g>
<!-- Node5&#45;&gt;Node7 -->
<g id="edge7" class="edge">
<title>Node5&#45;&gt;Node7</title>
<path fill="none" stroke="#191970" d="M3872.8556,-371.1425C3760.8335,-351.3784 3484.2918,-295.7853 3434,-221 3416.0227,-194.2673 3453.8507,-163.3432 3476.5509,-148.063"/>
<polygon fill="#191970" stroke="#191970" points="3872.4012,-374.616 3882.8541,-372.8883 3873.6052,-367.7204 3872.4012,-374.616"/>
</g>
<!-- Node8 -->
<g id="node8" class="node">
<title>Node8</title>
<g id="a_node8"><a xlink:href="sitkTransform_8h.html" target="_top" xlink:title=" ">
<polygon fill="#ffffff" stroke="#ff0000" points="4436,-257.5 4436,-276.5 4528,-276.5 4528,-257.5 4436,-257.5"/>
<text text-anchor="middle" x="4482" y="-264.5" font-family="Helvetica,sans-Serif" font-size="10.00" fill="#000000">sitkTransform.h</text>
</a>
</g>
</g>
<!-- Node5&#45;&gt;Node8 -->
<g id="edge10" class="edge">
<title>Node5&#45;&gt;Node8</title>
<path fill="none" stroke="#191970" d="M3967.5455,-376.7303C4035.6,-372.5911 4164.2451,-361.443 4270,-333 4292.318,-326.9975 4296.167,-320.5791 4318,-313 4360.0432,-298.4051 4409.3337,-285.0723 4442.8195,-276.5619"/>
<polygon fill="#191970" stroke="#191970" points="3966.9355,-373.2598 3957.1562,-377.336 3967.343,-380.2479 3966.9355,-373.2598"/>
</g>
<!-- Node5&#45;&gt;Node323 -->
<g id="edge111" class="edge">
<title>Node5&#45;&gt;Node323</title>
<path fill="none" stroke="#191970" d="M3966.726,-366.8328C3997.9731,-358.3039 4039.8328,-346.1189 4076,-333 4181.6468,-294.6788 4303.6199,-237.4492 4350.3766,-215.0106"/>
<polygon fill="#191970" stroke="#191970" points="3965.7139,-363.4807 3956.9744,-369.47 3967.5414,-370.2379 3965.7139,-363.4807"/>
</g>
<!-- Node324 -->
<g id="node10" class="node">
<title>Node324</title>
<g id="a_node10"><a xlink:href="sitkProcessObject_8h.html" target="_top" xlink:title=" ">
<polygon fill="#ffffff" stroke="#000000" points="3760.5,-257.5 3760.5,-276.5 3873.5,-276.5 3873.5,-257.5 3760.5,-257.5"/>
<text text-anchor="middle" x="3817" y="-264.5" font-family="Helvetica,sans-Serif" font-size="10.00" fill="#000000">sitkProcessObject.h</text>
</a>
</g>
</g>
<!-- Node5&#45;&gt;Node324 -->
<g id="edge15" class="edge">
<title>Node5&#45;&gt;Node324</title>
<path fill="none" stroke="#191970" d="M3911.4526,-360.0533C3904.5415,-346.0562 3893.8635,-327.0694 3881,-313 3867.2426,-297.9529 3847.819,-284.8386 3833.9855,-276.5045"/>
<polygon fill="#191970" stroke="#191970" points="3908.352,-361.6835 3915.7967,-369.2219 3914.6779,-358.6863 3908.352,-361.6835"/>
</g>
<!-- Node326 -->
<g id="node38" class="node">
<title>Node326</title>
<g id="a_node38"><a xlink:href="sitkImageFileReader_8h.html" target="_top" xlink:title=" ">
<polygon fill="#ffffff" stroke="#000000" points="3757,-129 3757,-148 3881,-148 3881,-129 3757,-129"/>
<text text-anchor="middle" x="3819" y="-136" font-family="Helvetica,sans-Serif" font-size="10.00" fill="#000000">sitkImageFileReader.h</text>
</a>
</g>
</g>
<!-- Node5&#45;&gt;Node326 -->
<g id="edge104" class="edge">
<title>Node5&#45;&gt;Node326</title>
<path fill="none" stroke="#191970" d="M3936.0329,-361.9145C3967.0417,-326.7551 4028.7354,-244.9982 3988,-190 3974.2625,-171.4525 3918.2683,-156.9136 3874.4499,-148.0804"/>
<polygon fill="#191970" stroke="#191970" points="3933.3448,-359.6689 3929.2354,-369.4343 3938.5377,-364.363 3933.3448,-359.6689"/>
</g>
<!-- Node327 -->
<g id="node39" class="node">
<title>Node327</title>
<g id="a_node39"><a xlink:href="sitkImageSeriesReader_8h.html" target="_top" xlink:title=" ">
<polygon fill="#ffffff" stroke="#000000" points="3199.5,-129 3199.5,-148 3336.5,-148 3336.5,-129 3199.5,-129"/>
<text text-anchor="middle" x="3268" y="-136" font-family="Helvetica,sans-Serif" font-size="10.00" fill="#000000">sitkImageSeriesReader.h</text>
</a>
</g>
</g>
<!-- Node5&#45;&gt;Node327 -->
<g id="edge106" class="edge">
<title>Node5&#45;&gt;Node327</title>
<path fill="none" stroke="#191970" d="M3872.5725,-378.1284C3706.5944,-374.4112 3153.5123,-356.2176 2998,-277 2968.004,-261.7201 2959.1529,-252.3933 2947,-221 2942.0261,-208.1514 2938.0157,-200.4455 2947,-190 2981.8806,-149.4466 3132.257,-162.911 3185,-154 3195.8405,-152.1685 3207.4531,-150.0797 3218.4549,-148.0417"/>
<polygon fill="#191970" stroke="#191970" points="3872.8636,-381.6354 3882.9371,-378.3528 3873.0152,-374.637 3872.8636,-381.6354"/>
</g>
<!-- Node328 -->
<g id="node40" class="node">
<title>Node328</title>
<g id="a_node40"><a xlink:href="sitkImportImageFilter_8h.html" target="_top" xlink:title=" ">
<polygon fill="#ffffff" stroke="#000000" points="3571,-129 3571,-148 3701,-148 3701,-129 3571,-129"/>
<text text-anchor="middle" x="3636" y="-136" font-family="Helvetica,sans-Serif" font-size="10.00" fill="#000000">sitkImportImageFilter.h</text>
</a>
</g>
</g>
<!-- Node5&#45;&gt;Node328 -->
<g id="edge109" class="edge">
<title>Node5&#45;&gt;Node328</title>
<path fill="none" stroke="#191970" d="M3872.5878,-371.3223C3825.1339,-362.9329 3756.0899,-348.5936 3734,-333 3667.586,-286.1172 3643.6037,-180.7947 3637.6254,-148.2611"/>
<polygon fill="#191970" stroke="#191970" points="3872.2064,-374.8084 3882.6578,-373.0711 3873.4041,-367.9116 3872.2064,-374.8084"/>
</g>
<!-- Node329 -->
<g id="node41" class="node">
<title>Node329</title>
<g id="a_node41"><a xlink:href="sitkImageFileWriter_8h.html" target="_top" xlink:title=" ">
<polygon fill="#ffffff" stroke="#000000" points="3669.5,-196 3669.5,-215 3788.5,-215 3788.5,-196 3669.5,-196"/>
<text text-anchor="middle" x="3729" y="-203" font-family="Helvetica,sans-Serif" font-size="10.00" fill="#000000">sitkImageFileWriter.h</text>
</a>
</g>
</g>
<!-- Node5&#45;&gt;Node329 -->
<g id="edge105" class="edge">
<title>Node5&#45;&gt;Node329</title>
<path fill="none" stroke="#191970" d="M3872.7717,-372.0404C3828.3724,-364.507 3766.3566,-351.0984 3750,-333 3719.465,-299.2134 3724.1518,-238.8383 3727.4012,-215.2874"/>
<polygon fill="#191970" stroke="#191970" points="3872.3603,-375.5198 3882.7965,-373.6934 3873.4992,-368.613 3872.3603,-375.5198"/>
</g>
<!-- Node330 -->
<g id="node42" class="node">
<title>Node330</title>
<g id="a_node42"><a xlink:href="sitkImageSeriesWriter_8h.html" target="_top" xlink:title=" ">
<polygon fill="#ffffff" stroke="#000000" points="3845.5,-196 3845.5,-215 3978.5,-215 3978.5,-196 3845.5,-196"/>
<text text-anchor="middle" x="3912" y="-203" font-family="Helvetica,sans-Serif" font-size="10.00" fill="#000000">sitkImageSeriesWriter.h</text>
</a>
</g>
</g>
<!-- Node5&#45;&gt;Node330 -->
<g id="edge107" class="edge">
<title>Node5&#45;&gt;Node330</title>
<path fill="none" stroke="#191970" d="M3919.0941,-359.3528C3917.3812,-322.2047 3913.7252,-242.9161 3912.45,-215.2595"/>
<polygon fill="#191970" stroke="#191970" points="3915.6015,-359.5966 3919.5585,-369.4248 3922.5941,-359.2741 3915.6015,-359.5966"/>
</g>
<!-- Node331 -->
<g id="node43" class="node">
<title>Node331</title>
<g id="a_node43"><a xlink:href="sitkImageViewer_8h.html" target="_top" xlink:title=" ">
<polygon fill="#ffffff" stroke="#000000" points="4073.5,-196 4073.5,-215 4180.5,-215 4180.5,-196 4073.5,-196"/>
<text text-anchor="middle" x="4127" y="-203" font-family="Helvetica,sans-Serif" font-size="10.00" fill="#000000">sitkImageViewer.h</text>
</a>
</g>
</g>
<!-- Node5&#45;&gt;Node331 -->
<g id="edge108" class="edge">
<title>Node5&#45;&gt;Node331</title>
<path fill="none" stroke="#191970" d="M3959.3668,-365.849C3979.0432,-358.1331 4002.5306,-347.1075 4021,-333 4067.4385,-297.5288 4106.8812,-238.1408 4121.2225,-215.0708"/>
<polygon fill="#191970" stroke="#191970" points="3957.8818,-362.6685 3949.7628,-369.4754 3960.3545,-369.2173 3957.8818,-362.6685"/>
</g>
<!-- Node332 -->
<g id="node44" class="node">
<title>Node332</title>
<g id="a_node44"><a xlink:href="sitkShow_8h.html" target="_top" xlink:title=" ">
<polygon fill="#ffffff" stroke="#000000" points="4198.5,-196 4198.5,-215 4267.5,-215 4267.5,-196 4198.5,-196"/>
<text text-anchor="middle" x="4233" y="-203" font-family="Helvetica,sans-Serif" font-size="10.00" fill="#000000">sitkShow.h</text>
</a>
</g>
</g>
<!-- Node5&#45;&gt;Node332 -->
<g id="edge110" class="edge">
<title>Node5&#45;&gt;Node332</title>
<path fill="none" stroke="#191970" d="M3962.3125,-366.2826C3987.047,-358.1542 4018.5118,-346.598 4045,-333 4115.8697,-296.6183 4191.9506,-238.2675 4220.894,-215.2695"/>
<polygon fill="#191970" stroke="#191970" points="3960.9475,-363.0451 3952.5029,-369.4435 3963.0944,-369.7078 3960.9475,-363.0451"/>
</g>
<!-- Node333 -->
<g id="node45" class="node">
<title>Node333</title>
<g id="a_node45"><a xlink:href="sitkImageConvert_8h.html" target="_top" xlink:title=" ">
<polygon fill="#ffffff" stroke="#000000" points="3759.5,-313.5 3759.5,-332.5 3872.5,-332.5 3872.5,-313.5 3759.5,-313.5"/>
<text text-anchor="middle" x="3816" y="-320.5" font-family="Helvetica,sans-Serif" font-size="10.00" fill="#000000">sitkImageConvert.h</text>
</a>
</g>
</g>
<!-- Node5&#45;&gt;Node333 -->
<g id="edge102" class="edge">
<title>Node5&#45;&gt;Node333</title>
<path fill="none" stroke="#191970" d="M3892.9971,-364.46C3874.3864,-354.4388 3850.1701,-341.3993 3833.9078,-332.6427"/>
<polygon fill="#191970" stroke="#191970" points="3891.4205,-367.5861 3901.8846,-369.2455 3894.7392,-361.4228 3891.4205,-367.5861"/>
</g>
<!-- Node6&#45;&gt;Node4 -->
<g id="edge6" class="edge">
<title>Node6&#45;&gt;Node4</title>
<path fill="none" stroke="#191970" d="M4617.0112,-186.0509C4607.3251,-152.7525 4582.529,-85.5605 4534,-56 4499.8,-35.1677 3900.1578,-15.8365 3742.6434,-11.1015"/>
<polygon fill="#191970" stroke="#191970" points="4613.7042,-187.2258 4619.7292,-195.9407 4620.4539,-185.3707 4613.7042,-187.2258"/>
</g>
<!-- Node7&#45;&gt;Node4 -->
<g id="edge8" class="edge">
<title>Node7&#45;&gt;Node4</title>
<path fill="none" stroke="#191970" d="M3516.6828,-123.6092C3560.8582,-96.9588 3652.2557,-41.8199 3689.0952,-19.5952"/>
<polygon fill="#191970" stroke="#191970" points="3514.7641,-120.6791 3508.0096,-128.8416 3518.3801,-126.6728 3514.7641,-120.6791"/>
</g>
<!-- Node8&#45;&gt;Node4 -->
<g id="edge12" class="edge">
<title>Node8&#45;&gt;Node4</title>
<path fill="none" stroke="#191970" d="M4491.1949,-248.257C4509.8217,-207.2858 4546.1692,-109.1715 4496,-56 4469.8475,-28.2824 3896.1413,-14.0804 3742.5414,-10.7662"/>
<polygon fill="#191970" stroke="#191970" points="4487.9929,-246.8413 4486.9045,-257.3801 4494.3274,-249.8204 4487.9929,-246.8413"/>
</g>
<!-- Node8&#45;&gt;Node6 -->
<g id="edge11" class="edge">
<title>Node8&#45;&gt;Node6</title>
<path fill="none" stroke="#191970" d="M4513.0895,-253.3428C4539.5618,-241.7139 4576.9152,-225.3051 4600.2786,-215.0419"/>
<polygon fill="#191970" stroke="#191970" points="4511.6229,-250.1642 4503.875,-257.3906 4514.4383,-256.5731 4511.6229,-250.1642"/>
</g>
<!-- Node8&#45;&gt;Node323 -->
<g id="edge13" class="edge">
<title>Node8&#45;&gt;Node323</title>
<path fill="none" stroke="#191970" d="M4455.7227,-252.571C4434.6453,-240.9972 4405.658,-225.0801 4387.3771,-215.0419"/>
<polygon fill="#191970" stroke="#191970" points="4454.0499,-255.6453 4464.5,-257.3906 4457.4192,-249.5095 4454.0499,-255.6453"/>
</g>
<!-- Node323&#45;&gt;Node4 -->
<g id="edge14" class="edge">
<title>Node323&#45;&gt;Node4</title>
<path fill="none" stroke="#191970" d="M4350.108,-189.2906C4309.8686,-157.5053 4214.7278,-87.3663 4122,-56 4052.0567,-32.3408 3831.3386,-17.3038 3742.5426,-12.0719"/>
<polygon fill="#191970" stroke="#191970" points="4348.058,-192.1325 4358.0563,-195.6374 4352.4259,-186.6625 4348.058,-192.1325"/>
</g>
<!-- Node324&#45;&gt;Node4 -->
<g id="edge85" class="edge">
<title>Node324&#45;&gt;Node4</title>
<path fill="none" stroke="#191970" d="M3883.9051,-257.4867C3926.1269,-249.9578 3975.0571,-237.8848 3988,-221 3996.382,-210.0652 3993.3889,-202.6802 3988,-190 3954.4374,-111.0259 3922.6818,-99.9812 3849,-56 3815.7605,-36.1591 3773.0201,-23.911 3742.7617,-17.0927"/>
<polygon fill="#191970" stroke="#191970" points="3883.1624,-254.063 3873.9018,-259.2099 3884.3509,-260.9614 3883.1624,-254.063"/>
</g>
<!-- Node324&#45;&gt;Node7 -->
<g id="edge84" class="edge">
<title>Node324&#45;&gt;Node7</title>
<path fill="none" stroke="#191970" d="M3817.5369,-247.1838C3816.8681,-229.5319 3812.8858,-204.3411 3797,-190 3757.7847,-154.5978 3613.9303,-163.7161 3562,-154 3552.5792,-152.2374 3542.4927,-150.1328 3532.9933,-148.0514"/>
<polygon fill="#191970" stroke="#191970" points="3814.0373,-247.2913 3817.5959,-257.2706 3821.0372,-247.2503 3814.0373,-247.2913"/>
</g>
<!-- Node324&#45;&gt;Node323 -->
<g id="edge101" class="edge">
<title>Node324&#45;&gt;Node323</title>
<path fill="none" stroke="#191970" d="M3883.8209,-261.6992C3973.4779,-254.2714 4137.5797,-239.5691 4277,-221 4289.818,-219.2928 4303.5812,-217.1632 4316.4857,-215.0345"/>
<polygon fill="#191970" stroke="#191970" points="3883.4711,-258.216 3873.7923,-262.5253 3884.0459,-265.1924 3883.4711,-258.216"/>
</g>
<!-- Node11 -->
<g id="node11" class="node">
<title>Node11</title>
<g id="a_node11"><a xlink:href="sitkImageFilter_8h.html" target="_top" xlink:title=" ">
<polygon fill="#ffffff" stroke="#ff0000" points="1984,-196 1984,-215 2082,-215 2082,-196 1984,-196"/>
<text text-anchor="middle" x="2033" y="-203" font-family="Helvetica,sans-Serif" font-size="10.00" fill="#000000">sitkImageFilter.h</text>
</a>
</g>
</g>
<!-- Node324&#45;&gt;Node11 -->
<g id="edge16" class="edge">
<title>Node324&#45;&gt;Node11</title>
<path fill="none" stroke="#191970" d="M3749.8689,-264.6858C3461.7035,-254.7518 2332.8504,-215.8368 2082.398,-207.2029"/>
<polygon fill="#191970" stroke="#191970" points="3750.0491,-268.194 3760.1638,-265.0407 3750.2904,-261.1981 3750.0491,-268.194"/>
</g>
<!-- Node308 -->
<g id="node35" class="node">
<title>Node308</title>
<g id="a_node35"><a xlink:href="sitkCenteredTransformInitializerFilter_8h.html" target="_top" xlink:title=" ">
<polygon fill="#ffffff" stroke="#000000" points="2999.5,-190.5 2999.5,-220.5 3172.5,-220.5 3172.5,-190.5 2999.5,-190.5"/>
<text text-anchor="start" x="3007.5" y="-208.5" font-family="Helvetica,sans-Serif" font-size="10.00" fill="#000000">sitkCenteredTransformInitializer</text>
<text text-anchor="middle" x="3086" y="-197.5" font-family="Helvetica,sans-Serif" font-size="10.00" fill="#000000">Filter.h</text>
</a>
</g>
</g>
<!-- Node324&#45;&gt;Node308 -->
<g id="edge80" class="edge">
<title>Node324&#45;&gt;Node308</title>
<path fill="none" stroke="#191970" d="M3750.2162,-264.0932C3634.3018,-258.6171 3388.4798,-245.1006 3182,-221 3178.8978,-220.6379 3175.7426,-220.2472 3172.5583,-219.8339"/>
<polygon fill="#191970" stroke="#191970" points="3750.1993,-267.5962 3760.3519,-264.5672 3750.5263,-260.6038 3750.1993,-267.5962"/>
</g>
<!-- Node309 -->
<g id="node36" class="node">
<title>Node309</title>
<g id="a_node36"><a xlink:href="sitkCenteredVersorTransformInitializerFilter_8h.html" target="_top" xlink:title=" ">
<polygon fill="#ffffff" stroke="#000000" points="3191,-190.5 3191,-220.5 3349,-220.5 3349,-190.5 3191,-190.5"/>
<text text-anchor="start" x="3199" y="-208.5" font-family="Helvetica,sans-Serif" font-size="10.00" fill="#000000">sitkCenteredVersorTransform</text>
<text text-anchor="middle" x="3270" y="-197.5" font-family="Helvetica,sans-Serif" font-size="10.00" fill="#000000">InitializerFilter.h</text>
</a>
</g>
</g>
<!-- Node324&#45;&gt;Node309 -->
<g id="edge82" class="edge">
<title>Node324&#45;&gt;Node309</title>
<path fill="none" stroke="#191970" d="M3750.1721,-259.4864C3649.0298,-248.1149 3457.4411,-226.5743 3349.3572,-214.4222"/>
<polygon fill="#191970" stroke="#191970" points="3749.9373,-262.982 3760.2658,-260.6213 3750.7194,-256.0258 3749.9373,-262.982"/>
</g>
<!-- Node325 -->
<g id="node37" class="node">
<title>Node325</title>
<g id="a_node37"><a xlink:href="sitkImageReaderBase_8h.html" target="_top" xlink:title=" ">
<polygon fill="#ffffff" stroke="#000000" points="3443,-196 3443,-215 3575,-215 3575,-196 3443,-196"/>
<text text-anchor="middle" x="3509" y="-203" font-family="Helvetica,sans-Serif" font-size="10.00" fill="#000000">sitkImageReaderBase.h</text>
</a>
</g>
</g>
<!-- Node324&#45;&gt;Node325 -->
<g id="edge86" class="edge">
<title>Node324&#45;&gt;Node325</title>
<path fill="none" stroke="#191970" d="M3759.3811,-255.4949C3700.8613,-243.81 3611.2922,-225.9252 3556.6457,-215.0137"/>
<polygon fill="#191970" stroke="#191970" points="3758.7212,-258.9322 3769.2129,-257.4581 3760.0919,-252.0677 3758.7212,-258.9322"/>
</g>
<!-- Node324&#45;&gt;Node329 -->
<g id="edge93" class="edge">
<title>Node324&#45;&gt;Node329</title>
<path fill="none" stroke="#191970" d="M3794.7761,-251.4685C3778.3712,-240.0037 3756.5661,-224.765 3742.6534,-215.0419"/>
<polygon fill="#191970" stroke="#191970" points="3793.0483,-254.5311 3803.25,-257.3906 3797.0582,-248.7934 3793.0483,-254.5311"/>
</g>
<!-- Node324&#45;&gt;Node330 -->
<g id="edge95" class="edge">
<title>Node324&#45;&gt;Node330</title>
<path fill="none" stroke="#191970" d="M3840.5013,-251.786C3858.2649,-240.2864 3882.1021,-224.855 3897.2605,-215.0419"/>
<polygon fill="#191970" stroke="#191970" points="3838.3362,-249.0182 3831.8438,-257.3906 3842.1403,-254.8943 3838.3362,-249.0182"/>
</g>
<!-- Node324&#45;&gt;Node331 -->
<g id="edge97" class="edge">
<title>Node324&#45;&gt;Node331</title>
<path fill="none" stroke="#191970" d="M3880.5715,-255.5672C3929.453,-246.6188 3998.6179,-233.6162 4059,-221 4067.8893,-219.1427 4077.4065,-217.0432 4086.4208,-215.003"/>
<polygon fill="#191970" stroke="#191970" points="3879.6677,-252.1743 3870.459,-257.4136 3880.9251,-259.0604 3879.6677,-252.1743"/>
</g>
<!-- Node324&#45;&gt;Node332 -->
<g id="edge99" class="edge">
<title>Node324&#45;&gt;Node332</title>
<path fill="none" stroke="#191970" d="M3883.9014,-263.2612C3959.1731,-258.017 4084.6844,-246.1411 4190,-221 4196.3292,-219.4891 4203.0156,-217.3558 4209.181,-215.1538"/>
<polygon fill="#191970" stroke="#191970" points="3883.3614,-259.7897 3873.621,-263.9579 3883.8348,-266.7737 3883.3614,-259.7897"/>
</g>
<!-- Node11&#45;&gt;Node4 -->
<g id="edge24" class="edge">
<title>Node11&#45;&gt;Node4</title>
<path fill="none" stroke="#191970" d="M2092.2951,-204.1861C2283.3847,-199.6664 2872.2975,-183.3969 2900,-154 2931.4235,-120.6545 2836.5027,-89.2758 2868,-56 2895.8401,-26.5878 3508.2441,-13.5433 3667.4504,-10.642"/>
<polygon fill="#191970" stroke="#191970" points="2092.0728,-200.6903 2082.1576,-204.4237 2092.2368,-207.6884 2092.0728,-200.6903"/>
</g>
<!-- Node11&#45;&gt;Node7 -->
<g id="edge21" class="edge">
<title>Node11&#45;&gt;Node7</title>
<path fill="none" stroke="#191970" d="M2092.2875,-204.5625C2277.5704,-201.3347 2862.1773,-188.8931 3345,-154 3373.2831,-151.956 3404.538,-148.7887 3430.9297,-145.8486"/>
<polygon fill="#191970" stroke="#191970" points="2092.1488,-201.0642 2082.2104,-204.7358 2092.2692,-208.0632 2092.1488,-201.0642"/>
</g>
<!-- Node10 -->
<g id="node12" class="node">
<title>Node10</title>
<g id="a_node12"><a xlink:href="sitkBSplineTransformInitializerFilter_8h.html" target="_top" xlink:title=" ">
<polygon fill="#ffffff" stroke="#000000" points="2877,-56.5 2877,-86.5 3043,-86.5 3043,-56.5 2877,-56.5"/>
<text text-anchor="start" x="2885" y="-74.5" font-family="Helvetica,sans-Serif" font-size="10.00" fill="#000000">sitkBSplineTransformInitializer</text>
<text text-anchor="middle" x="2960" y="-63.5" font-family="Helvetica,sans-Serif" font-size="10.00" fill="#000000">Filter.h</text>
</a>
</g>
</g>
<!-- Node11&#45;&gt;Node10 -->
<g id="edge17" class="edge">
<title>Node11&#45;&gt;Node10</title>
<path fill="none" stroke="#191970" d="M2092.2204,-203.936C2287.3615,-198.5456 2899.6608,-179.6529 2933,-154 2953.7824,-138.0089 2958.7871,-105.6428 2959.8609,-86.5489"/>
<polygon fill="#191970" stroke="#191970" points="2092.0522,-200.4392 2082.152,-204.2124 2092.2443,-207.4366 2092.0522,-200.4392"/>
</g>
<!-- Node12 -->
<g id="node13" class="node">
<title>Node12</title>
<g id="a_node13"><a xlink:href="sitkCastImageFilter_8h.html" target="_top" xlink:title=" ">
<polygon fill="#ffffff" stroke="#000000" points="3023.5,-129 3023.5,-148 3142.5,-148 3142.5,-129 3023.5,-129"/>
<text text-anchor="middle" x="3083" y="-136" font-family="Helvetica,sans-Serif" font-size="10.00" fill="#000000">sitkCastImageFilter.h</text>
</a>
</g>
</g>
<!-- Node11&#45;&gt;Node12 -->
<g id="edge19" class="edge">
<title>Node11&#45;&gt;Node12</title>
<path fill="none" stroke="#191970" d="M2092.4796,-203.5625C2275.753,-197.403 2830.2268,-177.2989 3009,-154 3020.0636,-152.5581 3031.9383,-150.365 3042.8659,-148.0783"/>
<polygon fill="#191970" stroke="#191970" points="2092.1086,-200.0729 2082.2312,-203.9054 2092.3427,-207.069 2092.1086,-200.0729"/>
</g>
<!-- Node13 -->
<g id="node14" class="node">
<title>Node13</title>
<g id="a_node14"><a xlink:href="sitkLandmarkBasedTransformInitializerFilter_8h.html" target="_top" xlink:title=" ">
<polygon fill="#ffffff" stroke="#000000" points="3061,-56.5 3061,-86.5 3223,-86.5 3223,-56.5 3061,-56.5"/>
<text text-anchor="start" x="3069" y="-74.5" font-family="Helvetica,sans-Serif" font-size="10.00" fill="#000000">sitkLandmarkBasedTransform</text>
<text text-anchor="middle" x="3142" y="-63.5" font-family="Helvetica,sans-Serif" font-size="10.00" fill="#000000">InitializerFilter.h</text>
</a>
</g>
</g>
<!-- Node11&#45;&gt;Node13 -->
<g id="edge22" class="edge">
<title>Node11&#45;&gt;Node13</title>
<path fill="none" stroke="#191970" d="M2092.3529,-203.7357C2283.4695,-197.8413 2875.2454,-177.8502 2958,-154 2985.3353,-146.1219 2988.311,-135.2213 3014,-123 3042.444,-109.468 3075.4401,-96.2493 3100.8066,-86.5926"/>
<polygon fill="#191970" stroke="#191970" points="2092.1045,-200.2416 2082.2165,-204.0467 2092.3192,-207.2383 2092.1045,-200.2416"/>
</g>
<!-- Node14 -->
<g id="node15" class="node">
<title>Node14</title>
<g id="a_node15"><a xlink:href="sitkAbsImageFilter_8h.html" target="_top" xlink:title=" ">
<polygon fill="#ffffff" stroke="#000000" points="2775,-129 2775,-148 2891,-148 2891,-129 2775,-129"/>
<text text-anchor="middle" x="2833" y="-136" font-family="Helvetica,sans-Serif" font-size="10.00" fill="#000000">sitkAbsImageFilter.h</text>
</a>
</g>
</g>
<!-- Node11&#45;&gt;Node14 -->
<g id="edge25" class="edge">
<title>Node11&#45;&gt;Node14</title>
<path fill="none" stroke="#191970" d="M2092.3223,-204.4876C2217.4853,-201.6603 2517.5076,-191.2367 2766,-154 2775.9182,-152.5138 2786.5411,-150.334 2796.3386,-148.076"/>
<polygon fill="#191970" stroke="#191970" points="2092.1073,-200.9913 2082.186,-204.7084 2092.2599,-207.9897 2092.1073,-200.9913"/>
</g>
<!-- Node17 -->
<g id="node18" class="node">
<title>Node17</title>
<g id="a_node18"><a xlink:href="sitkAbsoluteValueDifferenceImageFilter_8h.html" target="_top" xlink:title=" ">
<polygon fill="#ffffff" stroke="#000000" points="1955.5,-123.5 1955.5,-153.5 2110.5,-153.5 2110.5,-123.5 1955.5,-123.5"/>
<text text-anchor="start" x="1963.5" y="-141.5" font-family="Helvetica,sans-Serif" font-size="10.00" fill="#000000">sitkAbsoluteValueDifference</text>
<text text-anchor="middle" x="2033" y="-130.5" font-family="Helvetica,sans-Serif" font-size="10.00" fill="#000000">ImageFilter.h</text>
</a>
</g>
</g>
<!-- Node11&#45;&gt;Node17 -->
<g id="edge29" class="edge">
<title>Node11&#45;&gt;Node17</title>
<path fill="none" stroke="#191970" d="M2033,-185.7758C2033,-175.4641 2033,-163.0437 2033,-153.5218"/>
<polygon fill="#191970" stroke="#191970" points="2029.5001,-185.9005 2033,-195.9005 2036.5001,-185.9006 2029.5001,-185.9005"/>
</g>
<!-- Node18 -->
<g id="node19" class="node">
<title>Node18</title>
<g id="a_node19"><a xlink:href="sitkAcosImageFilter_8h.html" target="_top" xlink:title=" ">
<polygon fill="#ffffff" stroke="#000000" points="2128.5,-129 2128.5,-148 2249.5,-148 2249.5,-129 2128.5,-129"/>
<text text-anchor="middle" x="2189" y="-136" font-family="Helvetica,sans-Serif" font-size="10.00" fill="#000000">sitkAcosImageFilter.h</text>
</a>
</g>
</g>
<!-- Node11&#45;&gt;Node18 -->
<g id="edge32" class="edge">
<title>Node11&#45;&gt;Node18</title>
<path fill="none" stroke="#191970" d="M2064.6381,-191.9118C2094.9587,-178.8895 2139.9498,-159.5664 2166.6905,-148.0817"/>
<polygon fill="#191970" stroke="#191970" points="2063.1582,-188.7382 2055.351,-195.9005 2065.9206,-195.1701 2063.1582,-188.7382"/>
</g>
<!-- Node19 -->
<g id="node20" class="node">
<title>Node19</title>
<g id="a_node20"><a xlink:href="sitkAdaptiveHistogramEqualizationImageFilter_8h.html" target="_top" xlink:title=" ">
<polygon fill="#ffffff" stroke="#000000" points="2267.5,-123.5 2267.5,-153.5 2456.5,-153.5 2456.5,-123.5 2267.5,-123.5"/>
<text text-anchor="start" x="2275.5" y="-141.5" font-family="Helvetica,sans-Serif" font-size="10.00" fill="#000000">sitkAdaptiveHistogramEqualization</text>
<text text-anchor="middle" x="2362" y="-130.5" font-family="Helvetica,sans-Serif" font-size="10.00" fill="#000000">ImageFilter.h</text>
</a>
</g>
</g>
<!-- Node11&#45;&gt;Node19 -->
<g id="edge35" class="edge">
<title>Node11&#45;&gt;Node19</title>
<path fill="none" stroke="#191970" d="M2089.6881,-193.9556C2144.5538,-182.7823 2228.0134,-165.786 2288.0715,-153.5553"/>
<polygon fill="#191970" stroke="#191970" points="2088.8887,-190.5465 2079.7883,-195.9717 2090.2856,-197.4057 2088.8887,-190.5465"/>
</g>
<!-- Node20 -->
<g id="node21" class="node">
<title>Node20</title>
<g id="a_node21"><a xlink:href="sitkAddImageFilter_8h.html" target="_top" xlink:title=" ">
<polygon fill="#ffffff" stroke="#ff0000" points="2475,-129 2475,-148 2591,-148 2591,-129 2475,-129"/>
<text text-anchor="middle" x="2533" y="-136" font-family="Helvetica,sans-Serif" font-size="10.00" fill="#000000">sitkAddImageFilter.h</text>
</a>
</g>
</g>
<!-- Node11&#45;&gt;Node20 -->
<g id="edge38" class="edge">
<title>Node11&#45;&gt;Node20</title>
<path fill="none" stroke="#191970" d="M2092.2153,-200.4349C2175.7133,-192.8405 2332.6488,-176.9074 2465,-154 2474.5448,-152.348 2484.7647,-150.2148 2494.3057,-148.0625"/>
<polygon fill="#191970" stroke="#191970" points="2091.8031,-196.9577 2082.1578,-201.3415 2092.4316,-203.9295 2091.8031,-196.9577"/>
</g>
<!-- Node22 -->
<g id="node22" class="node">
<title>Node22</title>
<g id="a_node22"><a xlink:href="sitkAdditiveGaussianNoiseImageFilter_8h.html" target="_top" xlink:title=" ">
<polygon fill="#ffffff" stroke="#000000" points="2609,-123.5 2609,-153.5 2757,-153.5 2757,-123.5 2609,-123.5"/>
<text text-anchor="start" x="2617" y="-141.5" font-family="Helvetica,sans-Serif" font-size="10.00" fill="#000000">sitkAdditiveGaussianNoise</text>
<text text-anchor="middle" x="2683" y="-130.5" font-family="Helvetica,sans-Serif" font-size="10.00" fill="#000000">ImageFilter.h</text>
</a>
</g>
</g>
<!-- Node11&#45;&gt;Node22 -->
<g id="edge41" class="edge">
<title>Node11&#45;&gt;Node22</title>
<path fill="none" stroke="#191970" d="M2092.3339,-201.9545C2195.7645,-195.363 2415.6543,-179.5273 2600,-154 2602.9041,-153.5979 2605.8609,-153.1639 2608.8447,-152.7057"/>
<polygon fill="#191970" stroke="#191970" points="2091.8552,-198.4776 2082.0957,-202.6009 2092.2964,-205.4637 2091.8552,-198.4776"/>
</g>
<!-- Node65 -->
<g id="node23" class="node">
<title>Node65</title>
<g id="a_node23"><a xlink:href="sitkClampImageFilter_8h.html" target="_top" xlink:title=" ">
<polygon fill="#ffffff" stroke="#000000" points="460.5,-129 460.5,-148 589.5,-148 589.5,-129 460.5,-129"/>
<text text-anchor="middle" x="525" y="-136" font-family="Helvetica,sans-Serif" font-size="10.00" fill="#000000">sitkClampImageFilter.h</text>
</a>
</g>
</g>
<!-- Node11&#45;&gt;Node65 -->
<g id="edge44" class="edge">
<title>Node11&#45;&gt;Node65</title>
<path fill="none" stroke="#191970" d="M1973.7638,-203.9814C1720.5614,-197.4078 735.8064,-170.9729 598,-154 586.8127,-152.6221 574.7982,-150.3906 563.8108,-148.0448"/>
<polygon fill="#191970" stroke="#191970" points="1973.7797,-207.4829 1983.8671,-204.2433 1973.9611,-200.4853 1973.7797,-207.4829"/>
</g>
<!-- Node159 -->
<g id="node24" class="node">
<title>Node159</title>
<g id="a_node24"><a xlink:href="sitkLabelIntensityStatisticsImageFilter_8h.html" target="_top" xlink:title=" ">
<polygon fill="#ffffff" stroke="#000000" points="607.5,-123.5 607.5,-153.5 756.5,-153.5 756.5,-123.5 607.5,-123.5"/>
<text text-anchor="start" x="615.5" y="-141.5" font-family="Helvetica,sans-Serif" font-size="10.00" fill="#000000">sitkLabelIntensityStatistics</text>
<text text-anchor="middle" x="682" y="-130.5" font-family="Helvetica,sans-Serif" font-size="10.00" fill="#000000">ImageFilter.h</text>
</a>
</g>
</g>
<!-- Node11&#45;&gt;Node159 -->
<g id="edge47" class="edge">
<title>Node11&#45;&gt;Node159</title>
<path fill="none" stroke="#191970" d="M1973.4132,-204.22C1755.7157,-199.366 1003.6872,-180.9919 765,-154 762.2325,-153.687 759.4185,-153.3351 756.5803,-152.9518"/>
<polygon fill="#191970" stroke="#191970" points="1973.5993,-207.7249 1983.6745,-204.4476 1973.7546,-200.7266 1973.5993,-207.7249"/>
</g>
<!-- Node160 -->
<g id="node25" class="node">
<title>Node160</title>
<g id="a_node25"><a xlink:href="sitkLabelMapContourOverlayImageFilter_8h.html" target="_top" xlink:title=" ">
<polygon fill="#ffffff" stroke="#000000" points="774,-123.5 774,-153.5 932,-153.5 932,-123.5 774,-123.5"/>
<text text-anchor="start" x="782" y="-141.5" font-family="Helvetica,sans-Serif" font-size="10.00" fill="#000000">sitkLabelMapContourOverlay</text>
<text text-anchor="middle" x="853" y="-130.5" font-family="Helvetica,sans-Serif" font-size="10.00" fill="#000000">ImageFilter.h</text>
</a>
</g>
</g>
<!-- Node11&#45;&gt;Node160 -->
<g id="edge50" class="edge">
<title>Node11&#45;&gt;Node160</title>
<path fill="none" stroke="#191970" d="M1973.6222,-203.6976C1776.3435,-197.5525 1143.8049,-176.5503 941,-154 938.0706,-153.6743 935.0913,-153.3115 932.0856,-152.919"/>
<polygon fill="#191970" stroke="#191970" points="1973.685,-207.2011 1983.7887,-204.0131 1973.9022,-200.2045 1973.685,-207.2011"/>
</g>
<!-- Node161 -->
<g id="node26" class="node">
<title>Node161</title>
<g id="a_node26"><a xlink:href="sitkLabelMapMaskImageFilter_8h.html" target="_top" xlink:title=" ">
<polygon fill="#ffffff" stroke="#000000" points="950,-129 950,-148 1120,-148 1120,-129 950,-129"/>
<text text-anchor="middle" x="1035" y="-136" font-family="Helvetica,sans-Serif" font-size="10.00" fill="#000000">sitkLabelMapMaskImageFilter.h</text>
</a>
</g>
</g>
<!-- Node11&#45;&gt;Node161 -->
<g id="edge53" class="edge">
<title>Node11&#45;&gt;Node161</title>
<path fill="none" stroke="#191970" d="M1973.4196,-204.2992C1828.4723,-200.9011 1446.0572,-189.0707 1129,-154 1115.1908,-152.4725 1100.3232,-150.2786 1086.5787,-148.0201"/>
<polygon fill="#191970" stroke="#191970" points="1973.7729,-207.8082 1983.8507,-204.5387 1973.9337,-200.81 1973.7729,-207.8082"/>
</g>
<!-- Node162 -->
<g id="node27" class="node">
<title>Node162</title>
<g id="a_node27"><a xlink:href="sitkLabelMapOverlayImageFilter_8h.html" target="_top" xlink:title=" ">
<polygon fill="#ffffff" stroke="#000000" points="1138,-123.5 1138,-153.5 1288,-153.5 1288,-123.5 1138,-123.5"/>
<text text-anchor="start" x="1146" y="-141.5" font-family="Helvetica,sans-Serif" font-size="10.00" fill="#000000">sitkLabelMapOverlayImage</text>
<text text-anchor="middle" x="1213" y="-130.5" font-family="Helvetica,sans-Serif" font-size="10.00" fill="#000000">Filter.h</text>
</a>
</g>
</g>
<!-- Node11&#45;&gt;Node162 -->
<g id="edge56" class="edge">
<title>Node11&#45;&gt;Node162</title>
<path fill="none" stroke="#191970" d="M1973.5587,-203.6115C1848.1173,-199.1278 1547.2849,-185.7458 1297,-154 1294.0577,-153.6268 1291.0624,-153.2173 1288.0404,-152.7795"/>
<polygon fill="#191970" stroke="#191970" points="1973.6003,-207.1151 1983.7172,-203.9688 1973.8464,-200.1194 1973.6003,-207.1151"/>
</g>
<!-- Node167 -->
<g id="node28" class="node">
<title>Node167</title>
<g id="a_node28"><a xlink:href="sitkLabelOverlayImageFilter_8h.html" target="_top" xlink:title=" ">
<polygon fill="#ffffff" stroke="#000000" points="1306,-129 1306,-148 1468,-148 1468,-129 1306,-129"/>
<text text-anchor="middle" x="1387" y="-136" font-family="Helvetica,sans-Serif" font-size="10.00" fill="#000000">sitkLabelOverlayImageFilter.h</text>
</a>
</g>
</g>
<!-- Node11&#45;&gt;Node167 -->
<g id="edge59" class="edge">
<title>Node11&#45;&gt;Node167</title>
<path fill="none" stroke="#191970" d="M1973.6788,-201.5356C1871.8288,-194.3873 1657.2524,-177.8327 1477,-154 1464.4254,-152.3374 1450.9209,-150.2003 1438.2956,-148.0475"/>
<polygon fill="#191970" stroke="#191970" points="1973.5484,-205.0349 1983.7676,-202.2387 1974.0352,-198.0519 1973.5484,-205.0349"/>
</g>
<!-- Node169 -->
<g id="node29" class="node">
<title>Node169</title>
<g id="a_node29"><a xlink:href="sitkLabelStatisticsImageFilter_8h.html" target="_top" xlink:title=" ">
<polygon fill="#ffffff" stroke="#000000" points="1486.5,-123.5 1486.5,-153.5 1623.5,-153.5 1623.5,-123.5 1486.5,-123.5"/>
<text text-anchor="start" x="1494.5" y="-141.5" font-family="Helvetica,sans-Serif" font-size="10.00" fill="#000000">sitkLabelStatisticsImage</text>
<text text-anchor="middle" x="1555" y="-130.5" font-family="Helvetica,sans-Serif" font-size="10.00" fill="#000000">Filter.h</text>
</a>
</g>
</g>
<!-- Node11&#45;&gt;Node169 -->
<g id="edge62" class="edge">
<title>Node11&#45;&gt;Node169</title>
<path fill="none" stroke="#191970" d="M1973.5878,-199.2028C1895.136,-190.583 1752.7979,-173.8895 1632,-154 1629.309,-153.5569 1626.5685,-153.0885 1623.8026,-152.6013"/>
<polygon fill="#191970" stroke="#191970" points="1973.4397,-202.7074 1983.7607,-200.3146 1974.2002,-195.7488 1973.4397,-202.7074"/>
</g>
<!-- Node185 -->
<g id="node30" class="node">
<title>Node185</title>
<g id="a_node30"><a xlink:href="sitkMaskImageFilter_8h.html" target="_top" xlink:title=" ">
<polygon fill="#ffffff" stroke="#000000" points="1641.5,-129 1641.5,-148 1764.5,-148 1764.5,-129 1641.5,-129"/>
<text text-anchor="middle" x="1703" y="-136" font-family="Helvetica,sans-Serif" font-size="10.00" fill="#000000">sitkMaskImageFilter.h</text>
</a>
</g>
</g>
<!-- Node11&#45;&gt;Node185 -->
<g id="edge65" class="edge">
<title>Node11&#45;&gt;Node185</title>
<path fill="none" stroke="#191970" d="M1973.714,-194.1483C1920.9656,-183.9551 1841.7526,-168.4192 1773,-154 1764.1071,-152.1349 1754.5939,-150.0732 1745.5373,-148.0785"/>
<polygon fill="#191970" stroke="#191970" points="1973.091,-197.5926 1983.5731,-196.0508 1974.4174,-190.7194 1973.091,-197.5926"/>
</g>
<!-- Node204 -->
<g id="node31" class="node">
<title>Node204</title>
<g id="a_node31"><a xlink:href="sitkMorphologicalWatershedFromMarkersImageFilter_8h.html" target="_top" xlink:title=" ">
<polygon fill="#ffffff" stroke="#000000" points="1782.5,-123.5 1782.5,-153.5 1937.5,-153.5 1937.5,-123.5 1782.5,-123.5"/>
<text text-anchor="start" x="1790.5" y="-141.5" font-family="Helvetica,sans-Serif" font-size="10.00" fill="#000000">sitkMorphologicalWatershed</text>
<text text-anchor="middle" x="1860" y="-130.5" font-family="Helvetica,sans-Serif" font-size="10.00" fill="#000000">FromMarkersImageFilter.h</text>
</a>
</g>
</g>
<!-- Node11&#45;&gt;Node204 -->
<g id="edge68" class="edge">
<title>Node11&#45;&gt;Node204</title>
<path fill="none" stroke="#191970" d="M1998.5794,-192.1695C1969.7888,-181.0194 1928.7359,-165.1203 1898.7875,-153.5218"/>
<polygon fill="#191970" stroke="#191970" points="1997.6242,-195.5528 2008.2133,-195.9005 2000.1522,-189.0252 1997.6242,-195.5528"/>
</g>
<!-- Node241 -->
<g id="node32" class="node">
<title>Node241</title>
<g id="a_node32"><a xlink:href="sitkResampleImageFilter_8h.html" target="_top" xlink:title=" ">
<polygon fill="#ffffff" stroke="#000000" points="0,-129 0,-148 146,-148 146,-129 0,-129"/>
<text text-anchor="middle" x="73" y="-136" font-family="Helvetica,sans-Serif" font-size="10.00" fill="#000000">sitkResampleImageFilter.h</text>
</a>
</g>
</g>
<!-- Node11&#45;&gt;Node241 -->
<g id="edge71" class="edge">
<title>Node11&#45;&gt;Node241</title>
<path fill="none" stroke="#191970" d="M1973.4718,-204.1349C1663.7698,-196.9988 247.3881,-163.9345 155,-154 142.3235,-152.6369 128.6726,-150.3794 116.2151,-148.0034"/>
<polygon fill="#191970" stroke="#191970" points="1973.5148,-207.6367 1983.5927,-204.3679 1973.676,-200.6385 1973.5148,-207.6367"/>
</g>
<!-- Node294 -->
<g id="node33" class="node">
<title>Node294</title>
<g id="a_node33"><a xlink:href="sitkVectorIndexSelectionCastImageFilter_8h.html" target="_top" xlink:title=" ">
<polygon fill="#ffffff" stroke="#000000" points="164.5,-123.5 164.5,-153.5 301.5,-153.5 301.5,-123.5 164.5,-123.5"/>
<text text-anchor="start" x="172.5" y="-141.5" font-family="Helvetica,sans-Serif" font-size="10.00" fill="#000000">sitkVectorIndexSelection</text>
<text text-anchor="middle" x="233" y="-130.5" font-family="Helvetica,sans-Serif" font-size="10.00" fill="#000000">CastImageFilter.h</text>
</a>
</g>
</g>
<!-- Node11&#45;&gt;Node294 -->
<g id="edge74" class="edge">
<title>Node11&#45;&gt;Node294</title>
<path fill="none" stroke="#191970" d="M1973.8934,-204.3166C1690.6276,-198.5666 478.7854,-173.046 311,-154 307.982,-153.6574 304.9066,-153.2592 301.8061,-152.8175"/>
<polygon fill="#191970" stroke="#191970" points="1973.8971,-207.8173 1983.966,-204.5207 1974.0389,-200.8188 1973.8971,-207.8173"/>
</g>
<!-- Node299 -->
<g id="node34" class="node">
<title>Node299</title>
<g id="a_node34"><a xlink:href="sitkWarpImageFilter_8h.html" target="_top" xlink:title=" ">
<polygon fill="#ffffff" stroke="#000000" points="320,-129 320,-148 442,-148 442,-129 320,-129"/>
<text text-anchor="middle" x="381" y="-136" font-family="Helvetica,sans-Serif" font-size="10.00" fill="#000000">sitkWarpImageFilter.h</text>
</a>
</g>
</g>
<!-- Node11&#45;&gt;Node299 -->
<g id="edge77" class="edge">
<title>Node11&#45;&gt;Node299</title>
<path fill="none" stroke="#191970" d="M1973.5471,-204.218C1704.0872,-198.3191 603.9392,-173.2529 451,-154 440.2558,-152.6475 428.7297,-150.4241 418.1941,-148.0779"/>
<polygon fill="#191970" stroke="#191970" points="1973.8237,-207.7248 1983.8978,-204.4441 1973.9766,-200.7265 1973.8237,-207.7248"/>
</g>
<!-- Node10&#45;&gt;Node4 -->
<g id="edge18" class="edge">
<title>Node10&#45;&gt;Node4</title>
<path fill="none" stroke="#191970" d="M3053.1341,-55.9379C3292.7122,-27.876 3568.378,-15.2749 3667.3368,-11.3793"/>
<polygon fill="#191970" stroke="#191970" points="3052.7124,-52.4633 3043.1928,-57.1138 3053.5347,-59.4148 3052.7124,-52.4633"/>
</g>
<!-- Node12&#45;&gt;Node4 -->
<g id="edge20" class="edge">
<title>Node12&#45;&gt;Node4</title>
<path fill="none" stroke="#191970" d="M3129.8735,-126.1323C3159.9636,-117.2752 3199.3705,-103.9338 3232,-87 3252.9114,-76.1476 3252.9974,-64.4229 3275,-56 3346.3437,-28.6887 3575.9794,-15.7306 3667.1654,-11.5645"/>
<polygon fill="#191970" stroke="#191970" points="3128.6895,-122.831 3120.0494,-128.9628 3130.6276,-129.5573 3128.6895,-122.831"/>
</g>
<!-- Node13&#45;&gt;Node4 -->
<g id="edge23" class="edge">
<title>Node13&#45;&gt;Node4</title>
<path fill="none" stroke="#191970" d="M3233.129,-56.5138C3234.4275,-56.3388 3235.7184,-56.1674 3237,-56 3396.4797,-35.1737 3587.6497,-19.1602 3667.2961,-12.8851"/>
<polygon fill="#191970" stroke="#191970" points="3232.4753,-53.071 3223.0555,-57.9204 3233.4434,-60.0038 3232.4753,-53.071"/>
</g>
<!-- Node15 -->
<g id="node16" class="node">
<title>Node15</title>
<g id="a_node16"><a xlink:href="CMakeTmp_2SimpleITKBasicFiltersGeneratedHeaders_8h.html" target="_top" xlink:title=" ">
<polygon fill="#ffffff" stroke="#000000" points="1300.5,-56.5 1300.5,-86.5 1473.5,-86.5 1473.5,-56.5 1300.5,-56.5"/>
<text text-anchor="start" x="1308.5" y="-74.5" font-family="Helvetica,sans-Serif" font-size="10.00" fill="#000000">SimpleITKBasicFiltersGenerated</text>
<text text-anchor="middle" x="1387" y="-63.5" font-family="Helvetica,sans-Serif" font-size="10.00" fill="#000000">Headers.h</text>
</a>
</g>
</g>
<!-- Node14&#45;&gt;Node15 -->
<g id="edge26" class="edge">
<title>Node14&#45;&gt;Node15</title>
<path fill="none" stroke="#191970" d="M2787.9921,-126.7972C2780.6845,-125.2705 2773.1644,-123.9198 2766,-123 2199.7566,-50.3026 2050.3231,-141.0857 1482,-87 1479.2551,-86.7388 1476.4693,-86.4468 1473.6594,-86.1292"/>
<polygon fill="#191970" stroke="#191970" points="2787.2514,-130.2179 2797.7718,-128.964 2788.7657,-123.3836 2787.2514,-130.2179"/>
</g>
<!-- Node16 -->
<g id="node17" class="node">
<title>Node16</title>
<g id="a_node17"><a xlink:href="include_2SimpleITKBasicFiltersGeneratedHeaders_8h.html" target="_top" xlink:title=" ">
<polygon fill="#ffffff" stroke="#000000" points="1491.5,-56.5 1491.5,-86.5 1664.5,-86.5 1664.5,-56.5 1491.5,-56.5"/>
<text text-anchor="start" x="1499.5" y="-74.5" font-family="Helvetica,sans-Serif" font-size="10.00" fill="#000000">SimpleITKBasicFiltersGenerated</text>
<text text-anchor="middle" x="1578" y="-63.5" font-family="Helvetica,sans-Serif" font-size="10.00" fill="#000000">Headers.h</text>
</a>
</g>
</g>
<!-- Node14&#45;&gt;Node16 -->
<g id="edge27" class="edge">
<title>Node14&#45;&gt;Node16</title>
<path fill="none" stroke="#191970" d="M2787.2371,-126.7373C2780.1653,-125.2613 2772.915,-123.9416 2766,-123 2553.1338,-94.0149 1901.1745,-78.12 1664.7711,-73.1886"/>
<polygon fill="#191970" stroke="#191970" points="2786.8911,-130.2453 2797.4108,-128.986 2788.4019,-123.4102 2786.8911,-130.2453"/>
</g>
<!-- Node16&#45;&gt;Node4 -->
<g id="edge28" class="edge">
<title>Node16&#45;&gt;Node4</title>
<path fill="none" stroke="#191970" d="M1674.7734,-68.7019C2052.9713,-57.7667 3422.3509,-18.1725 3667.3475,-11.0887"/>
<polygon fill="#191970" stroke="#191970" points="1674.5743,-65.2061 1664.6797,-68.9937 1674.7767,-72.2032 1674.5743,-65.2061"/>
</g>
<!-- Node17&#45;&gt;Node15 -->
<g id="edge30" class="edge">
<title>Node17&#45;&gt;Node15</title>
<path fill="none" stroke="#191970" d="M1945.3346,-123.0037C1739.1129,-97.2824 1684.156,-111.2901 1482,-87 1479.2624,-86.6711 1476.483,-86.3201 1473.6786,-85.9514"/>
<polygon fill="#191970" stroke="#191970" points="1944.9104,-126.4779 1955.2702,-124.2589 1945.7878,-119.5331 1944.9104,-126.4779"/>
</g>
<!-- Node17&#45;&gt;Node16 -->
<g id="edge31" class="edge">
<title>Node17&#45;&gt;Node16</title>
<path fill="none" stroke="#191970" d="M1945.3519,-122.9303C1843.0817,-106.7879 1737.0834,-92.2765 1664.7585,-82.7136"/>
<polygon fill="#191970" stroke="#191970" points="1944.8113,-126.3882 1955.2361,-124.4974 1945.9076,-119.4746 1944.8113,-126.3882"/>
</g>
<!-- Node18&#45;&gt;Node15 -->
<g id="edge33" class="edge">
<title>Node18&#45;&gt;Node15</title>
<path fill="none" stroke="#191970" d="M2141.1513,-126.8315C2133.7689,-125.343 2126.2055,-123.9947 2119,-123 1838.1012,-84.2217 1763.8771,-117.8736 1482,-87 1479.2591,-86.6998 1476.4768,-86.3739 1473.6699,-86.0268"/>
<polygon fill="#191970" stroke="#191970" points="2140.5475,-130.2812 2151.0556,-128.9283 2141.9974,-123.433 2140.5475,-130.2812"/>
</g>
<!-- Node18&#45;&gt;Node16 -->
<g id="edge34" class="edge">
<title>Node18&#45;&gt;Node16</title>
<path fill="none" stroke="#191970" d="M2139.8468,-126.8184C2132.8742,-125.3946 2125.7739,-124.0682 2119,-123 1959.634,-97.8682 1771.7864,-83.3326 1664.6131,-76.4506"/>
<polygon fill="#191970" stroke="#191970" points="2139.4093,-130.3035 2149.918,-128.9556 2140.8624,-123.4559 2139.4093,-130.3035"/>
</g>
<!-- Node19&#45;&gt;Node15 -->
<g id="edge36" class="edge">
<title>Node19&#45;&gt;Node15</title>
<path fill="none" stroke="#191970" d="M2257.3787,-123.0167C1912.6509,-90.1382 1822.1231,-122.5166 1482,-87 1479.2576,-86.7136 1476.474,-86.3998 1473.666,-86.0632"/>
<polygon fill="#191970" stroke="#191970" points="2257.1013,-126.5061 2267.3913,-123.9831 2257.7738,-119.5385 2257.1013,-126.5061"/>
</g>
<!-- Node19&#45;&gt;Node16 -->
<g id="edge37" class="edge">
<title>Node19&#45;&gt;Node16</title>
<path fill="none" stroke="#191970" d="M2257.2764,-122.9735C2037.7575,-98.6539 1792.0309,-83.1847 1664.5983,-76.0464"/>
<polygon fill="#191970" stroke="#191970" points="2257.0524,-126.4701 2267.3789,-124.1011 2257.8289,-119.5133 2257.0524,-126.4701"/>
</g>
<!-- Node20&#45;&gt;Node15 -->
<g id="edge39" class="edge">
<title>Node20&#45;&gt;Node15</title>
<path fill="none" stroke="#191970" d="M2487.0536,-126.8017C2479.7183,-125.2891 2472.1809,-123.9414 2465,-123 2031.5276,-66.1706 1917.0338,-130.2841 1482,-87 1479.2562,-86.727 1476.4715,-86.4248 1473.6624,-86.0983"/>
<polygon fill="#191970" stroke="#191970" points="2486.3625,-130.2332 2496.8786,-128.944 2487.8538,-123.3939 2486.3625,-130.2332"/>
</g>
<!-- Node20&#45;&gt;Node16 -->
<g id="edge40" class="edge">
<title>Node20&#45;&gt;Node16</title>
<path fill="none" stroke="#191970" d="M2486.0398,-126.7303C2479.0222,-125.2819 2471.8463,-123.9722 2465,-123 2312.2796,-101.3142 1856.803,-82.0793 1664.8399,-74.7018"/>
<polygon fill="#191970" stroke="#191970" points="2485.6361,-130.2243 2496.1513,-128.9284 2487.1231,-123.384 2485.6361,-130.2243"/>
</g>
<!-- Node22&#45;&gt;Node15 -->
<g id="edge42" class="edge">
<title>Node22&#45;&gt;Node15</title>
<path fill="none" stroke="#191970" d="M2598.6062,-122.9694C2103.9916,-70.1083 1973.4288,-134.7993 1482,-87 1479.2556,-86.7331 1476.4703,-86.4361 1473.6609,-86.1142"/>
<polygon fill="#191970" stroke="#191970" points="2598.5535,-126.484 2608.8715,-124.0777 2599.305,-119.5244 2598.5535,-126.484"/>
</g>
<!-- Node22&#45;&gt;Node16 -->
<g id="edge43" class="edge">
<title>Node22&#45;&gt;Node16</title>
<path fill="none" stroke="#191970" d="M2598.8707,-122.9989C2401.4778,-101.0633 1873.6146,-81.5192 1664.7058,-74.3689"/>
<polygon fill="#191970" stroke="#191970" points="2598.5301,-126.4827 2608.8638,-124.1452 2599.3279,-119.5283 2598.5301,-126.4827"/>
</g>
<!-- Node65&#45;&gt;Node15 -->
<g id="edge45" class="edge">
<title>Node65&#45;&gt;Node15</title>
<path fill="none" stroke="#191970" d="M574.937,-126.902C582.6285,-125.4045 590.5039,-124.035 598,-123 851.774,-87.9619 1154.8549,-76.6401 1300.4856,-73.077"/>
<polygon fill="#191970" stroke="#191970" points="574.0809,-123.5044 564.979,-128.9271 575.476,-130.364 574.0809,-123.5044"/>
</g>
<!-- Node65&#45;&gt;Node16 -->
<g id="edge46" class="edge">
<title>Node65&#45;&gt;Node16</title>
<path fill="none" stroke="#191970" d="M573.8236,-126.9485C581.8625,-125.3886 590.1363,-123.9878 598,-123 988.1484,-73.9911 1090.7652,-126.4082 1482,-87 1485.1075,-86.687 1488.2673,-86.3383 1491.4555,-85.9606"/>
<polygon fill="#191970" stroke="#191970" points="572.9137,-123.562 563.8152,-128.9905 574.3131,-130.4207 572.9137,-123.562"/>
</g>
<!-- Node159&#45;&gt;Node15 -->
<g id="edge48" class="edge">
<title>Node159&#45;&gt;Node15</title>
<path fill="none" stroke="#191970" d="M766.5118,-122.8743C962.6482,-96.9417 1181.9743,-82.4794 1300.4177,-75.8726"/>
<polygon fill="#191970" stroke="#191970" points="766.0478,-119.4051 756.5988,-124.1975 766.974,-126.3436 766.0478,-119.4051"/>
</g>
<!-- Node159&#45;&gt;Node16 -->
<g id="edge49" class="edge">
<title>Node159&#45;&gt;Node16</title>
<path fill="none" stroke="#191970" d="M766.9838,-122.8682C1083.6784,-86.3702 1168.1018,-120.1197 1482,-87 1485.106,-86.6723 1488.2645,-86.311 1491.4515,-85.9227"/>
<polygon fill="#191970" stroke="#191970" points="766.111,-119.4463 756.5843,-124.0822 766.9227,-126.3991 766.111,-119.4463"/>
</g>
<!-- Node160&#45;&gt;Node15 -->
<g id="edge51" class="edge">
<title>Node160&#45;&gt;Node15</title>
<path fill="none" stroke="#191970" d="M942.3044,-122.8592C1072.8893,-104.0587 1212.751,-88.8747 1300.4682,-79.954"/>
<polygon fill="#191970" stroke="#191970" points="941.5127,-119.4373 932.1183,-124.3359 942.5171,-126.3649 941.5127,-119.4373"/>
</g>
<!-- Node160&#45;&gt;Node16 -->
<g id="edge52" class="edge">
<title>Node160&#45;&gt;Node16</title>
<path fill="none" stroke="#191970" d="M942.1683,-122.9472C1181.9694,-94.6002 1245.8413,-113.8626 1482,-87 1485.1033,-86.647 1488.2593,-86.2641 1491.4444,-85.8574"/>
<polygon fill="#191970" stroke="#191970" points="941.6069,-119.4894 932.094,-124.1537 942.4393,-126.4397 941.6069,-119.4894"/>
</g>
<!-- Node161&#45;&gt;Node15 -->
<g id="edge54" class="edge">
<title>Node161&#45;&gt;Node15</title>
<path fill="none" stroke="#191970" d="M1094.9219,-127.0944C1153.611,-115.9235 1243.38,-98.8368 1307.9032,-86.5553"/>
<polygon fill="#191970" stroke="#191970" points="1094.2284,-123.6635 1085.0592,-128.9717 1095.5373,-130.54 1094.2284,-123.6635"/>
</g>
<!-- Node161&#45;&gt;Node16 -->
<g id="edge55" class="edge">
<title>Node161&#45;&gt;Node16</title>
<path fill="none" stroke="#191970" d="M1099.0116,-127.4012C1109.0334,-125.8208 1119.2861,-124.2949 1129,-123 1285.3198,-102.1612 1325.6456,-107.5772 1482,-87 1485.0966,-86.5925 1488.2469,-86.1629 1491.4271,-85.7166"/>
<polygon fill="#191970" stroke="#191970" points="1098.414,-123.9523 1089.0953,-128.9934 1099.5237,-130.8637 1098.414,-123.9523"/>
</g>
<!-- Node162&#45;&gt;Node15 -->
<g id="edge57" class="edge">
<title>Node162&#45;&gt;Node15</title>
<path fill="none" stroke="#191970" d="M1261.3954,-119.865C1288.632,-109.3773 1322.2007,-96.4515 1347.7807,-86.6017"/>
<polygon fill="#191970" stroke="#191970" points="1260.1234,-116.6042 1252.049,-123.4639 1262.6388,-123.1367 1260.1234,-116.6042"/>
</g>
<!-- Node162&#45;&gt;Node16 -->
<g id="edge58" class="edge">
<title>Node162&#45;&gt;Node16</title>
<path fill="none" stroke="#191970" d="M1298.3249,-122.7574C1370.7315,-109.4454 1442.399,-96.3139 1495.9207,-86.516"/>
<polygon fill="#191970" stroke="#191970" points="1297.3071,-119.3858 1288.105,-124.6367 1298.5731,-126.2704 1297.3071,-119.3858"/>
</g>
<!-- Node167&#45;&gt;Node15 -->
<g id="edge60" class="edge">
<title>Node167&#45;&gt;Node15</title>
<path fill="none" stroke="#191970" d="M1387,-118.7758C1387,-108.4641 1387,-96.0437 1387,-86.5218"/>
<polygon fill="#191970" stroke="#191970" points="1383.5001,-118.9005 1387,-128.9005 1390.5001,-118.9006 1383.5001,-118.9005"/>
</g>
<!-- Node167&#45;&gt;Node16 -->
<g id="edge61" class="edge">
<title>Node167&#45;&gt;Node16</title>
<path fill="none" stroke="#191970" d="M1424.1722,-125.4605C1455.9954,-114.2974 1501.8236,-98.2216 1535.1768,-86.5218"/>
<polygon fill="#191970" stroke="#191970" points="1422.6434,-122.2877 1414.3656,-128.9005 1424.9605,-128.8931 1422.6434,-122.2877"/>
</g>
<!-- Node169&#45;&gt;Node15 -->
<g id="edge63" class="edge">
<title>Node169&#45;&gt;Node15</title>
<path fill="none" stroke="#191970" d="M1507.9286,-119.7275C1481.6931,-109.2645 1449.457,-96.4084 1424.8669,-86.6017"/>
<polygon fill="#191970" stroke="#191970" points="1506.7124,-123.0105 1517.2975,-123.4639 1509.3055,-116.5085 1506.7124,-123.0105"/>
</g>
<!-- Node169&#45;&gt;Node16 -->
<g id="edge64" class="edge">
<title>Node169&#45;&gt;Node16</title>
<path fill="none" stroke="#191970" d="M1563.5442,-113.6103C1566.6527,-104.5553 1570.0702,-94.5998 1572.8016,-86.6432"/>
<polygon fill="#191970" stroke="#191970" points="1560.1556,-112.702 1560.2191,-123.2967 1566.7764,-114.9749 1560.1556,-112.702"/>
</g>
<!-- Node185&#45;&gt;Node15 -->
<g id="edge66" class="edge">
<title>Node185&#45;&gt;Node15</title>
<path fill="none" stroke="#191970" d="M1649.5577,-126.7865C1643.635,-125.5022 1637.6903,-124.2192 1632,-123 1573.8816,-110.5479 1507.9443,-96.7037 1459.1254,-86.5079"/>
<polygon fill="#191970" stroke="#191970" points="1648.9403,-130.2339 1659.4556,-128.938 1650.4272,-123.3937 1648.9403,-130.2339"/>
</g>
<!-- Node185&#45;&gt;Node16 -->
<g id="edge67" class="edge">
<title>Node185&#45;&gt;Node16</title>
<path fill="none" stroke="#191970" d="M1676.1976,-124.1339C1655.5213,-113.0514 1627.0032,-97.7657 1606.0257,-86.5218"/>
<polygon fill="#191970" stroke="#191970" points="1674.6233,-127.2611 1685.0905,-128.9005 1677.9303,-121.0915 1674.6233,-127.2611"/>
</g>
<!-- Node204&#45;&gt;Node15 -->
<g id="edge69" class="edge">
<title>Node204&#45;&gt;Node15</title>
<path fill="none" stroke="#191970" d="M1772.3151,-122.9472C1642.463,-103.6463 1607.8506,-105.0445 1482,-87 1479.2706,-86.6087 1476.4983,-86.2034 1473.7002,-85.7876"/>
<polygon fill="#191970" stroke="#191970" points="1771.8372,-126.4146 1782.2456,-124.4358 1772.875,-119.492 1771.8372,-126.4146"/>
</g>
<!-- Node204&#45;&gt;Node16 -->
<g id="edge70" class="edge">
<title>Node204&#45;&gt;Node16</title>
<path fill="none" stroke="#191970" d="M1786.7217,-121.0899C1741.7203,-110.3981 1684.6489,-96.8386 1641.5623,-86.6017"/>
<polygon fill="#191970" stroke="#191970" points="1786.1755,-124.5575 1796.7137,-123.4639 1787.7936,-117.7471 1786.1755,-124.5575"/>
</g>
<!-- Node241&#45;&gt;Node15 -->
<g id="edge72" class="edge">
<title>Node241&#45;&gt;Node15</title>
<path fill="none" stroke="#191970" d="M127.0149,-127.1412C136.3136,-125.5156 145.9095,-124.0436 155,-123 377.2494,-97.4859 1057.7588,-79.3058 1300.1421,-73.4903"/>
<polygon fill="#191970" stroke="#191970" points="126.2896,-123.7157 117.0794,-128.9524 127.545,-130.6022 126.2896,-123.7157"/>
</g>
<!-- Node241&#45;&gt;Node16 -->
<g id="edge73" class="edge">
<title>Node241&#45;&gt;Node16</title>
<path fill="none" stroke="#191970" d="M126.3539,-127.1406C135.8556,-125.4824 145.6905,-123.9997 155,-123 741.6224,-60.0079 894.5878,-142.1426 1482,-87 1485.1096,-86.7081 1488.2711,-86.3774 1491.4608,-86.0151"/>
<polygon fill="#191970" stroke="#191970" points="125.4224,-123.7528 116.2149,-128.9942 126.6813,-130.6386 125.4224,-123.7528"/>
</g>
<!-- Node294&#45;&gt;Node15 -->
<g id="edge75" class="edge">
<title>Node294&#45;&gt;Node15</title>
<path fill="none" stroke="#191970" d="M311.7695,-123.0638C520.2643,-99.0054 1083.1602,-80.482 1300.1725,-73.9916"/>
<polygon fill="#191970" stroke="#191970" points="311.3296,-119.5913 301.8141,-124.2502 312.158,-126.5422 311.3296,-119.5913"/>
</g>
<!-- Node294&#45;&gt;Node16 -->
<g id="edge76" class="edge">
<title>Node294&#45;&gt;Node16</title>
<path fill="none" stroke="#191970" d="M311.7861,-123.0565C830.0767,-64.9715 966.9677,-136.2863 1482,-87 1485.1091,-86.7025 1488.2701,-86.367 1491.4594,-86.0006"/>
<polygon fill="#191970" stroke="#191970" points="311.3495,-119.5835 301.8064,-124.1856 312.1365,-126.5391 311.3495,-119.5835"/>
</g>
<!-- Node299&#45;&gt;Node15 -->
<g id="edge78" class="edge">
<title>Node299&#45;&gt;Node15</title>
<path fill="none" stroke="#191970" d="M428.5868,-126.8745C436.052,-125.3664 443.709,-124.001 451,-123 613.5433,-100.6841 1100.6594,-81.5741 1300.2555,-74.4629"/>
<polygon fill="#191970" stroke="#191970" points="427.6339,-123.4987 418.5785,-128.9986 429.0873,-130.3462 427.6339,-123.4987"/>
</g>
<!-- Node299&#45;&gt;Node16 -->
<g id="edge79" class="edge">
<title>Node299&#45;&gt;Node16</title>
<path fill="none" stroke="#191970" d="M428.052,-126.8483C435.6825,-125.3154 443.5305,-123.9493 451,-123 905.8432,-65.196 1025.6757,-131.6286 1482,-87 1485.1084,-86.696 1488.2689,-86.355 1491.4578,-85.9839"/>
<polygon fill="#191970" stroke="#191970" points="427.2524,-123.44 418.1962,-128.9386 428.7048,-130.2877 427.2524,-123.44"/>
</g>
<!-- Node308&#45;&gt;Node4 -->
<g id="edge81" class="edge">
<title>Node308&#45;&gt;Node4</title>
<path fill="none" stroke="#191970" d="M3183.0758,-188.7924C3250.3113,-176.7778 3330.2825,-161.4349 3345,-154 3363.2524,-144.7793 3362.564,-135.1669 3379,-123 3425.9277,-88.2613 3437.6484,-77.3282 3492,-56 3550.9889,-32.8521 3623.9715,-20.3026 3667.3824,-14.3922"/>
<polygon fill="#191970" stroke="#191970" points="3182.0648,-185.4172 3172.8325,-190.6149 3183.291,-192.309 3182.0648,-185.4172"/>
</g>
<!-- Node309&#45;&gt;Node4 -->
<g id="edge83" class="edge">
<title>Node309&#45;&gt;Node4</title>
<path fill="none" stroke="#191970" d="M3315.3806,-186.3078C3335.3291,-177.3033 3358.7698,-165.9352 3379,-154 3399.2916,-142.0286 3401.5252,-134.6552 3422,-123 3486.8679,-86.0742 3506.5852,-83.4397 3576,-56 3610.2738,-42.4515 3650.3346,-28.4462 3676.6102,-19.5039"/>
<polygon fill="#191970" stroke="#191970" points="3313.9026,-183.1346 3306.1922,-190.401 3316.7511,-189.5288 3313.9026,-183.1346"/>
</g>
<!-- Node325&#45;&gt;Node326 -->
<g id="edge87" class="edge">
<title>Node325&#45;&gt;Node326</title>
<path fill="none" stroke="#191970" d="M3563.1268,-193.8016C3623.1264,-180.834 3718.7745,-160.1616 3774.564,-148.1039"/>
<polygon fill="#191970" stroke="#191970" points="3562.1211,-190.4381 3553.0862,-195.9717 3563.5999,-197.2801 3562.1211,-190.4381"/>
</g>
<!-- Node325&#45;&gt;Node327 -->
<g id="edge89" class="edge">
<title>Node325&#45;&gt;Node327</title>
<path fill="none" stroke="#191970" d="M3464.8797,-193.2342C3418.1316,-180.2378 3345.2899,-159.9872 3302.5454,-148.1039"/>
<polygon fill="#191970" stroke="#191970" points="3464.1544,-196.6652 3474.7265,-195.9717 3466.0294,-189.921 3464.1544,-196.6652"/>
</g>
<!-- Node325&#45;&gt;Node328 -->
<g id="edge91" class="edge">
<title>Node325&#45;&gt;Node328</title>
<path fill="none" stroke="#191970" d="M3536.0496,-191.2298C3560.7047,-178.2227 3596.4451,-159.3676 3617.8378,-148.0817"/>
<polygon fill="#191970" stroke="#191970" points="3534.4075,-188.1388 3527.196,-195.9005 3537.6738,-194.33 3534.4075,-188.1388"/>
</g>
<!-- Node326&#45;&gt;Node4 -->
<g id="edge88" class="edge">
<title>Node326&#45;&gt;Node4</title>
<path fill="none" stroke="#191970" d="M3803.6668,-121.2166C3779.3952,-93.8577 3732.9083,-41.4581 3713.668,-19.7705"/>
<polygon fill="#191970" stroke="#191970" points="3801.1768,-123.6838 3810.4315,-128.8416 3806.4132,-119.0383 3801.1768,-123.6838"/>
</g>
<!-- Node327&#45;&gt;Node4 -->
<g id="edge90" class="edge">
<title>Node327&#45;&gt;Node4</title>
<path fill="none" stroke="#191970" d="M3280.3992,-120.4961C3294.886,-101.0361 3320.7623,-70.8233 3351,-56 3406.0915,-28.9927 3587.7281,-16.2449 3667.2043,-11.8548"/>
<polygon fill="#191970" stroke="#191970" points="3277.4026,-118.6681 3274.4013,-128.8289 3283.0839,-122.7575 3277.4026,-118.6681"/>
</g>
<!-- Node328&#45;&gt;Node4 -->
<g id="edge92" class="edge">
<title>Node328&#45;&gt;Node4</title>
<path fill="none" stroke="#191970" d="M3646.0523,-119.7794C3660.9367,-92.06 3688.3089,-41.0841 3699.7536,-19.7705"/>
<polygon fill="#191970" stroke="#191970" points="3642.8335,-118.3756 3641.1862,-128.8416 3649.0006,-121.6872 3642.8335,-118.3756"/>
</g>
<!-- Node329&#45;&gt;Node4 -->
<g id="edge94" class="edge">
<title>Node329&#45;&gt;Node4</title>
<path fill="none" stroke="#191970" d="M3726.5612,-185.6343C3721.4845,-144.2803 3709.9422,-50.2585 3706.1973,-19.7534"/>
<polygon fill="#191970" stroke="#191970" points="3723.1174,-186.3061 3727.8098,-195.8051 3730.0652,-185.4531 3723.1174,-186.3061"/>
</g>
<!-- Node330&#45;&gt;Node4 -->
<g id="edge96" class="edge">
<title>Node330&#45;&gt;Node4</title>
<path fill="none" stroke="#191970" d="M3910.8477,-185.6879C3908.9112,-167.7531 3903.7454,-141.4026 3890,-123 3849.4603,-68.7249 3774.4683,-34.9087 3733.5149,-19.6138"/>
<polygon fill="#191970" stroke="#191970" points="3907.3767,-186.1821 3911.6979,-195.8556 3914.3523,-185.5987 3907.3767,-186.1821"/>
</g>
<!-- Node331&#45;&gt;Node4 -->
<g id="edge98" class="edge">
<title>Node331&#45;&gt;Node4</title>
<path fill="none" stroke="#191970" d="M4124.1837,-185.6576C4118.3896,-152.827 4101.8673,-87.6885 4059,-56 4033.8636,-37.4186 3828.4844,-19.555 3742.5677,-12.8184"/>
<polygon fill="#191970" stroke="#191970" points="4120.7731,-186.4948 4125.8113,-195.815 4127.6849,-185.3872 4120.7731,-186.4948"/>
</g>
<!-- Node332&#45;&gt;Node4 -->
<g id="edge100" class="edge">
<title>Node332&#45;&gt;Node4</title>
<path fill="none" stroke="#191970" d="M4221.1791,-187.0135C4199.0945,-154.2446 4148.136,-86.5527 4086,-56 4026.0612,-26.5277 3826.3028,-15.0043 3742.506,-11.393"/>
<polygon fill="#191970" stroke="#191970" points="4218.4317,-189.205 4226.8582,-195.6273 4224.2759,-185.352 4218.4317,-189.205"/>
</g>
<!-- Node333&#45;&gt;Node324 -->
<g id="edge103" class="edge">
<title>Node333&#45;&gt;Node324</title>
<path fill="none" stroke="#191970" d="M3816.3543,-303.1575C3816.5151,-294.155 3816.6979,-283.9199 3816.8278,-276.6427"/>
<polygon fill="#191970" stroke="#191970" points="3812.8534,-303.1846 3816.1742,-313.2455 3819.8523,-303.3097 3812.8534,-303.1846"/>
</g>
<!-- Node334&#45;&gt;Node12 -->
<g id="edge113" class="edge">
<title>Node334&#45;&gt;Node12</title>
<path fill="none" stroke="#191970" d="M1313.6232,-203.1427C1627.8643,-195.6679 2588.5153,-171.9326 2900,-154 2941.2223,-151.6268 2987.5678,-147.6882 3023.3047,-144.3753"/>
<polygon fill="#191970" stroke="#191970" points="1313.0818,-199.6544 1303.1678,-203.391 1313.2481,-206.6525 1313.0818,-199.6544"/>
</g>
<!-- Node334&#45;&gt;Node65 -->
<g id="edge114" class="edge">
<title>Node334&#45;&gt;Node65</title>
<path fill="none" stroke="#191970" d="M1112.8868,-200.9881C990.8085,-194.5961 778.4254,-180.6015 598,-154 587.3614,-152.4315 575.9477,-150.2507 565.3797,-148.0196"/>
<polygon fill="#191970" stroke="#191970" points="1112.7983,-204.4881 1122.9657,-201.5093 1113.1598,-197.4975 1112.7983,-204.4881"/>
</g>
<!-- Node334&#45;&gt;Node159 -->
<g id="edge115" class="edge">
<title>Node334&#45;&gt;Node159</title>
<path fill="none" stroke="#191970" d="M1112.6245,-195.9957C1021.6541,-186.8989 884.0174,-171.9313 765,-154 762.2459,-153.5851 759.4434,-153.1463 756.6149,-152.6896"/>
<polygon fill="#191970" stroke="#191970" points="1112.3575,-199.4863 1122.655,-196.9938 1113.0508,-192.5207 1112.3575,-199.4863"/>
</g>
<!-- Node334&#45;&gt;Node160 -->
<g id="edge116" class="edge">
<title>Node334&#45;&gt;Node160</title>
<path fill="none" stroke="#191970" d="M1151.6311,-194.0786C1091.0875,-182.8107 998.2638,-165.5352 932.1893,-153.238"/>
<polygon fill="#191970" stroke="#191970" points="1151.3315,-197.5828 1161.8031,-195.9717 1152.6123,-190.701 1151.3315,-197.5828"/>
</g>
<!-- Node334&#45;&gt;Node161 -->
<g id="edge117" class="edge">
<title>Node334&#45;&gt;Node161</title>
<path fill="none" stroke="#191970" d="M1177.7949,-192.2487C1143.1941,-179.2247 1091.2317,-159.6659 1060.4558,-148.0817"/>
<polygon fill="#191970" stroke="#191970" points="1176.905,-195.6534 1187.4969,-195.9005 1179.371,-189.1021 1176.905,-195.6534"/>
</g>
<!-- Node334&#45;&gt;Node162 -->
<g id="edge118" class="edge">
<title>Node334&#45;&gt;Node162</title>
<path fill="none" stroke="#191970" d="M1213,-185.7758C1213,-175.4641 1213,-163.0437 1213,-153.5218"/>
<polygon fill="#191970" stroke="#191970" points="1209.5001,-185.9005 1213,-195.9005 1216.5001,-185.9006 1209.5001,-185.9005"/>
</g>
<!-- Node334&#45;&gt;Node167 -->
<g id="edge119" class="edge">
<title>Node334&#45;&gt;Node167</title>
<path fill="none" stroke="#191970" d="M1247.4139,-192.2487C1281.2373,-179.2247 1332.0319,-159.6659 1362.1163,-148.0817"/>
<polygon fill="#191970" stroke="#191970" points="1246.0043,-189.0409 1237.93,-195.9005 1248.5197,-195.5733 1246.0043,-189.0409"/>
</g>
<!-- Node334&#45;&gt;Node169 -->
<g id="edge120" class="edge">
<title>Node334&#45;&gt;Node169</title>
<path fill="none" stroke="#191970" d="M1272.147,-194.0234C1325.6587,-183.6255 1406.6239,-167.8568 1477,-154 1479.9802,-153.4132 1483.0242,-152.8128 1486.0991,-152.2055"/>
<polygon fill="#191970" stroke="#191970" points="1271.3019,-190.622 1262.1529,-195.9649 1272.6369,-197.4935 1271.3019,-190.622"/>
</g>
<!-- Node334&#45;&gt;Node185 -->
<g id="edge121" class="edge">
<title>Node334&#45;&gt;Node185</title>
<path fill="none" stroke="#191970" d="M1313.437,-195.796C1398.555,-186.9414 1523.6912,-172.4379 1632,-154 1641.9502,-152.3061 1652.6151,-150.1573 1662.5764,-148.0032"/>
<polygon fill="#191970" stroke="#191970" points="1312.8463,-192.3383 1303.259,-196.8477 1313.5658,-199.3013 1312.8463,-192.3383"/>
</g>
<!-- Node334&#45;&gt;Node204 -->
<g id="edge122" class="edge">
<title>Node334&#45;&gt;Node204</title>
<path fill="none" stroke="#191970" d="M1313.7657,-198.8126C1426.0988,-190.7581 1613.0233,-175.5675 1773,-154 1776.0409,-153.59 1779.1376,-153.1495 1782.263,-152.6857"/>
<polygon fill="#191970" stroke="#191970" points="1313.1923,-195.3444 1303.4662,-199.546 1313.6896,-202.3268 1313.1923,-195.3444"/>
</g>
<!-- Node334&#45;&gt;Node241 -->
<g id="edge123" class="edge">
<title>Node334&#45;&gt;Node241</title>
<path fill="none" stroke="#191970" d="M1112.5963,-202.3864C885.6109,-195.059 338.4579,-175.6987 155,-154 142.7703,-152.5535 129.6218,-150.3588 117.5129,-148.0722"/>
<polygon fill="#191970" stroke="#191970" points="1112.7254,-205.8923 1122.8328,-202.7157 1112.9505,-198.8959 1112.7254,-205.8923"/>
</g>
<!-- Node334&#45;&gt;Node294 -->
<g id="edge124" class="edge">
<title>Node334&#45;&gt;Node294</title>
<path fill="none" stroke="#191970" d="M1112.674,-204.3201C945.7046,-201.3394 600.5252,-190.8504 311,-154 307.9869,-153.6165 304.9156,-153.1844 301.8184,-152.715"/>
<polygon fill="#191970" stroke="#191970" points="1112.6225,-207.8196 1122.6817,-204.4935 1112.7439,-200.8207 1112.6225,-207.8196"/>
</g>
<!-- Node334&#45;&gt;Node299 -->
<g id="edge125" class="edge">
<title>Node334&#45;&gt;Node299</title>
<path fill="none" stroke="#191970" d="M1112.5057,-203.5158C966.2541,-199.5414 686.5118,-187.837 451,-154 440.6507,-152.5131 429.5565,-150.3331 419.3205,-148.075"/>
<polygon fill="#191970" stroke="#191970" points="1112.7134,-207.0224 1122.8027,-203.7888 1112.899,-200.0249 1112.7134,-207.0224"/>
</g>
<!-- Node335&#45;&gt;Node7 -->
<g id="edge130" class="edge">
<title>Node335&#45;&gt;Node7</title>
<path fill="none" stroke="#191970" d="M3032.786,-253.7114C3016.195,-246.7941 2999.714,-236.4263 2990,-221 2982.6584,-209.3412 2980.7622,-200.222 2990,-190 3016.5827,-160.5853 3305.5636,-158.0787 3345,-154 3373.2064,-151.0828 3404.4508,-147.7961 3430.8554,-145.0024"/>
<polygon fill="#191970" stroke="#191970" points="3031.9254,-257.1281 3042.5168,-257.3976 3034.4052,-250.582 3031.9254,-257.1281"/>
</g>
<!-- Node335&#45;&gt;Node323 -->
<g id="edge136" class="edge">
<title>Node335&#45;&gt;Node323</title>
<path fill="none" stroke="#191970" d="M3175.4084,-265.0151C3414.2567,-259.4775 4063.5354,-242.8225 4277,-221 4291.004,-219.5684 4306.0944,-217.3494 4319.961,-215.0336"/>
<polygon fill="#191970" stroke="#191970" points="3175.2893,-261.5168 3165.3728,-265.2468 3175.4509,-268.5149 3175.2893,-261.5168"/>
</g>
<!-- Node335&#45;&gt;Node11 -->
<g id="edge127" class="edge">
<title>Node335&#45;&gt;Node11</title>
<path fill="none" stroke="#191970" d="M2996.6064,-261.779C2782.7012,-249.286 2246.9216,-217.994 2082.0544,-208.365"/>
<polygon fill="#191970" stroke="#191970" points="2996.6668,-265.2884 3006.8539,-262.3775 2997.075,-258.3003 2996.6668,-265.2884"/>
</g>
<!-- Node335&#45;&gt;Node308 -->
<g id="edge128" class="edge">
<title>Node335&#45;&gt;Node308</title>
<path fill="none" stroke="#191970" d="M3086,-247.3693C3086,-238.681 3086,-228.6241 3086,-220.5446"/>
<polygon fill="#191970" stroke="#191970" points="3082.5001,-247.3906 3086,-257.3906 3089.5001,-247.3907 3082.5001,-247.3906"/>
</g>
<!-- Node335&#45;&gt;Node309 -->
<g id="edge129" class="edge">
<title>Node335&#45;&gt;Node309</title>
<path fill="none" stroke="#191970" d="M3124.6162,-254.0929C3153.9066,-244.303 3194.2353,-230.8235 3224.9885,-220.5446"/>
<polygon fill="#191970" stroke="#191970" points="3123.1247,-250.9011 3114.75,-257.3906 3125.3438,-257.54 3123.1247,-250.9011"/>
</g>
<!-- Node335&#45;&gt;Node326 -->
<g id="edge131" class="edge">
<title>Node335&#45;&gt;Node326</title>
<path fill="none" stroke="#191970" d="M3175.1252,-261.9307C3296.9251,-254.4593 3508.833,-239.3708 3584,-221 3619.4367,-212.3393 3625.7353,-202.5179 3660,-190 3703.6068,-174.0692 3754.8145,-157.9347 3787.088,-148.0741"/>
<polygon fill="#191970" stroke="#191970" points="3174.8404,-258.4415 3165.0716,-262.5427 3175.2658,-265.4285 3174.8404,-258.4415"/>
</g>
<!-- Node335&#45;&gt;Node327 -->
<g id="edge133" class="edge">
<title>Node335&#45;&gt;Node327</title>
<path fill="none" stroke="#191970" d="M3029.4464,-254.8814C2983.648,-242.5125 2930.7172,-220.7583 2957,-190 2990.3223,-151.0034 3134.4504,-162.709 3185,-154 3195.69,-152.1583 3207.1351,-150.0861 3218.0056,-148.0707"/>
<polygon fill="#191970" stroke="#191970" points="3028.8205,-258.3346 3039.3785,-257.4523 3030.5747,-251.558 3028.8205,-258.3346"/>
</g>
<!-- Node335&#45;&gt;Node328 -->
<g id="edge135" class="edge">
<title>Node335&#45;&gt;Node328</title>
<path fill="none" stroke="#191970" d="M3175.4444,-256.9106C3229.0422,-249.6255 3298.1754,-238.0354 3358,-221 3393.0849,-211.0094 3399.3546,-201.422 3434,-190 3487.2758,-172.4358 3550.0896,-157.2612 3591.361,-148.0215"/>
<polygon fill="#191970" stroke="#191970" points="3174.7312,-253.4747 3165.2816,-258.2659 3175.6565,-260.4132 3174.7312,-253.4747"/>
</g>
<!-- Node335&#45;&gt;Node329 -->
<g id="edge132" class="edge">
<title>Node335&#45;&gt;Node329</title>
<path fill="none" stroke="#191970" d="M3175.317,-263.259C3287.6964,-257.7542 3486.4035,-245.3733 3655,-221 3665.7825,-219.4412 3677.3519,-217.2639 3688.0646,-215.0329"/>
<polygon fill="#191970" stroke="#191970" points="3174.8676,-259.7765 3165.048,-263.7546 3175.2051,-266.7684 3174.8676,-259.7765"/>
</g>
<!-- Node335&#45;&gt;Node330 -->
<g id="edge134" class="edge">
<title>Node335&#45;&gt;Node330</title>
<path fill="none" stroke="#191970" d="M3175.3339,-263.2119C3310.2305,-257.0415 3573.8724,-243.2277 3797,-221 3813.338,-219.3724 3830.9288,-217.2102 3847.3189,-215.0187"/>
<polygon fill="#191970" stroke="#191970" points="3174.8869,-259.7285 3165.056,-263.6786 3175.2045,-266.7212 3174.8869,-259.7285"/>
</g>
<!-- Node336&#45;&gt;Node2 -->
<g id="edge141" class="edge">
<title>Node336&#45;&gt;Node2</title>
<path fill="none" stroke="#191970" d="M3265.3412,-546.2333C3222.0085,-536.363 3159.8577,-522.2065 3112.9384,-511.5193"/>
<polygon fill="#191970" stroke="#191970" points="3264.5811,-549.6497 3275.1087,-548.4581 3266.1358,-542.8245 3264.5811,-549.6497"/>
</g>
<!-- Node336&#45;&gt;Node4 -->
<g id="edge149" class="edge">
<title>Node336&#45;&gt;Node4</title>
<path fill="none" stroke="#191970" d="M3389.1161,-555.515C3676.4211,-545.1479 4724,-502.7051 4724,-435 4724,-435 4724,-435 4724,-138.5 4724,-58.887 4641.8123,-76.9307 4565,-56 4484.9813,-34.1956 3897.6628,-15.6332 3742.5046,-11.0719"/>
<polygon fill="#191970" stroke="#191970" points="3388.6844,-552.0282 3378.8164,-555.8846 3388.9355,-559.0237 3388.6844,-552.0282"/>
</g>
<!-- Node337 -->
<g id="node49" class="node">
<title>Node337</title>
<g id="a_node49"><a xlink:href="sitkPixelIDValues_8h.html" target="_top" xlink:title=" ">
<polygon fill="#ffffff" stroke="#000000" points="3277,-487 3277,-506 3387,-506 3387,-487 3277,-487"/>
<text text-anchor="middle" x="3332" y="-494" font-family="Helvetica,sans-Serif" font-size="10.00" fill="#000000">sitkPixelIDValues.h</text>
</a>
</g>
</g>
<!-- Node336&#45;&gt;Node337 -->
<g id="edge142" class="edge">
<title>Node336&#45;&gt;Node337</title>
<path fill="none" stroke="#191970" d="M3321.7358,-538.5832C3324.3608,-527.8205 3327.5112,-514.9042 3329.6232,-506.2449"/>
<polygon fill="#191970" stroke="#191970" points="3318.3131,-537.846 3319.3438,-548.3906 3325.1137,-539.5048 3318.3131,-537.846"/>
</g>
<!-- Node337&#45;&gt;Node325 -->
<g id="edge148" class="edge">
<title>Node337&#45;&gt;Node325</title>
<path fill="none" stroke="#191970" d="M3340.0074,-477.4229C3348.8944,-454.4867 3362,-414.6235 3362,-379 3362,-379 3362,-379 3362,-323 3362,-264.5175 3433.8693,-230.3726 3477.1032,-215.1231"/>
<polygon fill="#191970" stroke="#191970" points="3336.655,-476.3786 3336.1714,-486.9624 3343.1496,-478.9903 3336.655,-476.3786"/>
</g>
<!-- Node337&#45;&gt;Node335 -->
<g id="edge147" class="edge">
<title>Node337&#45;&gt;Node335</title>
<path fill="none" stroke="#191970" d="M3266.6752,-490.8684C3175.1728,-482.3098 3018.0465,-464.9039 3001,-445 2954.2201,-390.3789 3041.3861,-305.5921 3074.2217,-276.8854"/>
<polygon fill="#191970" stroke="#191970" points="3266.3984,-494.3577 3276.6782,-491.7933 3267.043,-487.3874 3266.3984,-494.3577"/>
</g>
<!-- Node338 -->
<g id="node50" class="node">
<title>Node338</title>
<g id="a_node50"><a xlink:href="sitkPixelIDTokens_8h.html" target="_top" xlink:title=" ">
<polygon fill="#ffffff" stroke="#ff0000" points="3625,-425.5 3625,-444.5 3737,-444.5 3737,-425.5 3625,-425.5"/>
<text text-anchor="middle" x="3681" y="-432.5" font-family="Helvetica,sans-Serif" font-size="10.00" fill="#000000">sitkPixelIDTokens.h</text>
</a>
</g>
</g>
<!-- Node337&#45;&gt;Node338 -->
<g id="edge143" class="edge">
<title>Node337&#45;&gt;Node338</title>
<path fill="none" stroke="#191970" d="M3396.06,-485.2115C3462.3391,-473.5319 3564.7071,-455.4929 3627.0118,-444.5137"/>
<polygon fill="#191970" stroke="#191970" points="3395.3892,-481.7757 3386.1483,-486.9581 3396.604,-488.6695 3395.3892,-481.7757"/>
</g>
<!-- Node338&#45;&gt;Node5 -->
<g id="edge145" class="edge">
<title>Node338&#45;&gt;Node5</title>
<path fill="none" stroke="#191970" d="M3731.7292,-423.1137C3777.0263,-412.5001 3842.3086,-397.2038 3882.8903,-387.6951"/>
<polygon fill="#191970" stroke="#191970" points="3730.7518,-419.7478 3721.814,-425.4369 3732.3488,-426.5632 3730.7518,-419.7478"/>
</g>
<!-- Node338&#45;&gt;Node323 -->
<g id="edge146" class="edge">
<title>Node338&#45;&gt;Node323</title>
<path fill="none" stroke="#191970" d="M3747.1891,-433.0923C3918.1002,-427.8461 4362.4137,-412.0449 4384,-389 4430.5239,-339.3324 4389.9373,-245.2821 4374.9901,-215.0884"/>
<polygon fill="#191970" stroke="#191970" points="3746.9518,-429.5978 3737.0629,-433.4006 3747.1648,-436.5946 3746.9518,-429.5978"/>
</g>
<!-- Node338&#45;&gt;Node12 -->
<g id="edge144" class="edge">
<title>Node338&#45;&gt;Node12</title>
<path fill="none" stroke="#191970" d="M3614.7241,-428.8579C3455.8373,-412.8453 3059.3344,-364.849 2964,-277 2934.3224,-249.6526 2914.7239,-222.9676 2938,-190 2950.0566,-172.9234 3001.5618,-157.4789 3039.7777,-148.0529"/>
<polygon fill="#191970" stroke="#191970" points="3614.5424,-432.3571 3624.8404,-429.8665 3615.2369,-425.3916 3614.5424,-432.3571"/>
</g>
</g>
</svg>
