<?xml version="1.0" encoding="UTF-8" standalone="no"?>
<!DOCTYPE svg PUBLIC "-//W3C//DTD SVG 1.1//EN"
 "http://www.w3.org/Graphics/SVG/1.1/DTD/svg11.dtd">
<!-- Generated by graphviz version 2.40.1 (20161225.0304)
 -->
<!-- Title: sitkPixelIDValues.h Pages: 1 -->
<svg width="781pt" height="196pt"
 viewBox="0.00 0.00 781.00 196.00" xmlns="http://www.w3.org/2000/svg" xmlns:xlink="http://www.w3.org/1999/xlink">
<g id="graph0" class="graph" transform="scale(1 1) rotate(0) translate(4 192)">
<title>sitkPixelIDValues.h</title>
<polygon fill="#ffffff" stroke="transparent" points="-4,4 -4,-192 777,-192 777,4 -4,4"/>
<!-- Node1 -->
<g id="node1" class="node">
<title>Node1</title>
<g id="a_node1"><a xlink:title=" ">
<polygon fill="#bfbfbf" stroke="#000000" points="452,-168.5 452,-187.5 562,-187.5 562,-168.5 452,-168.5"/>
<text text-anchor="middle" x="507" y="-175.5" font-family="Helvetica,sans-Serif" font-size="10.00" fill="#000000">sitkPixelIDValues.h</text>
</a>
</g>
</g>
<!-- Node2 -->
<g id="node2" class="node">
<title>Node2</title>
<g id="a_node2"><a xlink:href="sitkCommon_8h.html" target="_top" xlink:title=" ">
<polygon fill="#ffffff" stroke="#000000" points="421,-112.5 421,-131.5 509,-131.5 509,-112.5 421,-112.5"/>
<text text-anchor="middle" x="465" y="-119.5" font-family="Helvetica,sans-Serif" font-size="10.00" fill="#000000">sitkCommon.h</text>
</a>
</g>
</g>
<!-- Node1&#45;&gt;Node2 -->
<g id="edge1" class="edge">
<title>Node1&#45;&gt;Node2</title>
<path fill="none" stroke="#191970" d="M499.6842,-168.2455C493.7821,-160.3761 485.3258,-149.101 478.2406,-139.6542"/>
<polygon fill="#191970" stroke="#191970" points="481.0321,-137.5427 472.232,-131.6427 475.432,-141.7427 481.0321,-137.5427"/>
</g>
<!-- Node10 -->
<g id="node10" class="node">
<title>Node10</title>
<g id="a_node10"><a xlink:href="sitkPixelIDTypeLists_8h.html" target="_top" xlink:title=" ">
<polygon fill="#ffffff" stroke="#000000" points="268.5,-56.5 268.5,-75.5 391.5,-75.5 391.5,-56.5 268.5,-56.5"/>
<text text-anchor="middle" x="330" y="-63.5" font-family="Helvetica,sans-Serif" font-size="10.00" fill="#000000">sitkPixelIDTypeLists.h</text>
</a>
</g>
</g>
<!-- Node1&#45;&gt;Node10 -->
<g id="edge9" class="edge">
<title>Node1&#45;&gt;Node10</title>
<path fill="none" stroke="#191970" d="M483.5713,-168.4328C463.8492,-159.9674 435.2254,-146.7014 412,-132 388.4631,-117.1015 363.8834,-96.5456 347.8474,-82.3516"/>
<polygon fill="#191970" stroke="#191970" points="350.072,-79.6453 340.2912,-75.5726 345.3974,-84.8557 350.072,-79.6453"/>
</g>
<!-- Node14 -->
<g id="node14" class="node">
<title>Node14</title>
<g id="a_node14"><a xlink:title=" ">
<polygon fill="#ffffff" stroke="#bfbfbf" points="527,-112.5 527,-131.5 571,-131.5 571,-112.5 527,-112.5"/>
<text text-anchor="middle" x="549" y="-119.5" font-family="Helvetica,sans-Serif" font-size="10.00" fill="#000000">string</text>
</a>
</g>
</g>
<!-- Node1&#45;&gt;Node14 -->
<g id="edge15" class="edge">
<title>Node1&#45;&gt;Node14</title>
<path fill="none" stroke="#191970" d="M514.3158,-168.2455C520.2179,-160.3761 528.6742,-149.101 535.7594,-139.6542"/>
<polygon fill="#191970" stroke="#191970" points="538.568,-141.7427 541.768,-131.6427 532.9679,-137.5427 538.568,-141.7427"/>
</g>
<!-- Node15 -->
<g id="node15" class="node">
<title>Node15</title>
<g id="a_node15"><a xlink:title=" ">
<polygon fill="#ffffff" stroke="#bfbfbf" points="589.5,-112.5 589.5,-131.5 646.5,-131.5 646.5,-112.5 589.5,-112.5"/>
<text text-anchor="middle" x="618" y="-119.5" font-family="Helvetica,sans-Serif" font-size="10.00" fill="#000000">ostream</text>
</a>
</g>
</g>
<!-- Node1&#45;&gt;Node15 -->
<g id="edge16" class="edge">
<title>Node1&#45;&gt;Node15</title>
<path fill="none" stroke="#191970" d="M526.0816,-168.3733C543.7402,-159.4644 570.2053,-146.1127 590.2098,-136.0203"/>
<polygon fill="#191970" stroke="#191970" points="591.8158,-139.1303 599.1674,-131.5011 588.6628,-132.8806 591.8158,-139.1303"/>
</g>
<!-- Node3 -->
<g id="node3" class="node">
<title>Node3</title>
<g id="a_node3"><a xlink:href="sitkMacro_8h.html" target="_top" xlink:title=" ">
<polygon fill="#ffffff" stroke="#000000" points="496.5,-56.5 496.5,-75.5 569.5,-75.5 569.5,-56.5 496.5,-56.5"/>
<text text-anchor="middle" x="533" y="-63.5" font-family="Helvetica,sans-Serif" font-size="10.00" fill="#000000">sitkMacro.h</text>
</a>
</g>
</g>
<!-- Node2&#45;&gt;Node3 -->
<g id="edge2" class="edge">
<title>Node2&#45;&gt;Node3</title>
<path fill="none" stroke="#191970" d="M476.8447,-112.2455C486.888,-103.9746 501.4995,-91.9416 513.3004,-82.2232"/>
<polygon fill="#191970" stroke="#191970" points="515.7967,-84.7015 521.291,-75.6427 511.3467,-79.298 515.7967,-84.7015"/>
</g>
<!-- Node4 -->
<g id="node4" class="node">
<title>Node4</title>
<g id="a_node4"><a xlink:title=" ">
<polygon fill="#ffffff" stroke="#bfbfbf" points="439.5,-.5 439.5,-19.5 492.5,-19.5 492.5,-.5 439.5,-.5"/>
<text text-anchor="middle" x="466" y="-7.5" font-family="Helvetica,sans-Serif" font-size="10.00" fill="#000000">stdint.h</text>
</a>
</g>
</g>
<!-- Node3&#45;&gt;Node4 -->
<g id="edge3" class="edge">
<title>Node3&#45;&gt;Node4</title>
<path fill="none" stroke="#191970" d="M521.3295,-56.2455C511.4339,-47.9746 497.0373,-35.9416 485.4099,-26.2232"/>
<polygon fill="#191970" stroke="#191970" points="487.4542,-23.3703 477.5368,-19.6427 482.965,-28.7413 487.4542,-23.3703"/>
</g>
<!-- Node5 -->
<g id="node5" class="node">
<title>Node5</title>
<g id="a_node5"><a xlink:title=" ">
<polygon fill="#ffffff" stroke="#bfbfbf" points="573,-.5 573,-19.5 629,-19.5 629,-.5 573,-.5"/>
<text text-anchor="middle" x="601" y="-7.5" font-family="Helvetica,sans-Serif" font-size="10.00" fill="#000000">stddef.h</text>
</a>
</g>
</g>
<!-- Node3&#45;&gt;Node5 -->
<g id="edge4" class="edge">
<title>Node3&#45;&gt;Node5</title>
<path fill="none" stroke="#191970" d="M544.8447,-56.2455C554.888,-47.9746 569.4995,-35.9416 581.3004,-26.2232"/>
<polygon fill="#191970" stroke="#191970" points="583.7967,-28.7015 589.291,-19.6427 579.3467,-23.298 583.7967,-28.7015"/>
</g>
<!-- Node6 -->
<g id="node6" class="node">
<title>Node6</title>
<g id="a_node6"><a xlink:title=" ">
<polygon fill="#ffffff" stroke="#bfbfbf" points="647,-.5 647,-19.5 699,-19.5 699,-.5 647,-.5"/>
<text text-anchor="middle" x="673" y="-7.5" font-family="Helvetica,sans-Serif" font-size="10.00" fill="#000000">cassert</text>
</a>
</g>
</g>
<!-- Node3&#45;&gt;Node6 -->
<g id="edge5" class="edge">
<title>Node3&#45;&gt;Node6</title>
<path fill="none" stroke="#191970" d="M557.0669,-56.3733C579.8428,-47.2629 614.2344,-33.5062 639.649,-23.3404"/>
<polygon fill="#191970" stroke="#191970" points="641.2623,-26.4648 649.2472,-19.5011 638.6625,-19.9654 641.2623,-26.4648"/>
</g>
<!-- Node7 -->
<g id="node7" class="node">
<title>Node7</title>
<g id="a_node7"><a xlink:title=" ">
<polygon fill="#ffffff" stroke="#bfbfbf" points="717,-.5 717,-19.5 773,-19.5 773,-.5 717,-.5"/>
<text text-anchor="middle" x="745" y="-7.5" font-family="Helvetica,sans-Serif" font-size="10.00" fill="#000000">sstream</text>
</a>
</g>
</g>
<!-- Node3&#45;&gt;Node7 -->
<g id="edge6" class="edge">
<title>Node3&#45;&gt;Node7</title>
<path fill="none" stroke="#191970" d="M569.5535,-56.4703C602.8954,-47.7604 653.789,-34.422 706.8037,-20.3074"/>
<polygon fill="#191970" stroke="#191970" points="707.9622,-23.6209 716.7237,-17.6638 706.1596,-16.857 707.9622,-23.6209"/>
</g>
<!-- Node8 -->
<g id="node8" class="node">
<title>Node8</title>
<g id="a_node8"><a xlink:title=" ">
<polygon fill="#ffffff" stroke="#bfbfbf" points="511,-.5 511,-19.5 555,-19.5 555,-.5 511,-.5"/>
<text text-anchor="middle" x="533" y="-7.5" font-family="Helvetica,sans-Serif" font-size="10.00" fill="#000000">limits</text>
</a>
</g>
</g>
<!-- Node3&#45;&gt;Node8 -->
<g id="edge7" class="edge">
<title>Node3&#45;&gt;Node8</title>
<path fill="none" stroke="#191970" d="M533,-56.2455C533,-48.9382 533,-38.6944 533,-29.7046"/>
<polygon fill="#191970" stroke="#191970" points="536.5001,-29.6426 533,-19.6427 529.5001,-29.6427 536.5001,-29.6426"/>
</g>
<!-- Node9 -->
<g id="node9" class="node">
<title>Node9</title>
<g id="a_node9"><a xlink:href="sitkConfigure_8h.html" target="_top" xlink:title=" ">
<polygon fill="#ffffff" stroke="#000000" points="331,-.5 331,-19.5 421,-19.5 421,-.5 331,-.5"/>
<text text-anchor="middle" x="376" y="-7.5" font-family="Helvetica,sans-Serif" font-size="10.00" fill="#000000">sitkConfigure.h</text>
</a>
</g>
</g>
<!-- Node3&#45;&gt;Node9 -->
<g id="edge8" class="edge">
<title>Node3&#45;&gt;Node9</title>
<path fill="none" stroke="#191970" d="M506.0107,-56.3733C480.1301,-47.1419 440.8752,-33.1402 412.2711,-22.9375"/>
<polygon fill="#191970" stroke="#191970" points="413.2317,-19.5642 402.6371,-19.5011 410.88,-26.1573 413.2317,-19.5642"/>
</g>
<!-- Node10&#45;&gt;Node4 -->
<g id="edge10" class="edge">
<title>Node10&#45;&gt;Node4</title>
<path fill="none" stroke="#191970" d="M353.3792,-56.3733C375.5045,-47.2629 408.9134,-33.5062 433.6019,-23.3404"/>
<polygon fill="#191970" stroke="#191970" points="435.0117,-26.5451 442.9258,-19.5011 432.3464,-20.0723 435.0117,-26.5451"/>
</g>
<!-- Node10&#45;&gt;Node9 -->
<g id="edge11" class="edge">
<title>Node10&#45;&gt;Node9</title>
<path fill="none" stroke="#191970" d="M338.0126,-56.2455C344.4768,-48.3761 353.7385,-37.101 361.4983,-27.6542"/>
<polygon fill="#191970" stroke="#191970" points="364.4364,-29.5916 368.0792,-19.6427 359.0273,-25.1484 364.4364,-29.5916"/>
</g>
<!-- Node11 -->
<g id="node11" class="node">
<title>Node11</title>
<g id="a_node11"><a xlink:href="sitkPixelIDTypes_8h.html" target="_top" xlink:title=" ">
<polygon fill="#ffffff" stroke="#000000" points="0,-.5 0,-19.5 106,-19.5 106,-.5 0,-.5"/>
<text text-anchor="middle" x="53" y="-7.5" font-family="Helvetica,sans-Serif" font-size="10.00" fill="#000000">sitkPixelIDTypes.h</text>
</a>
</g>
</g>
<!-- Node10&#45;&gt;Node11 -->
<g id="edge12" class="edge">
<title>Node10&#45;&gt;Node11</title>
<path fill="none" stroke="#191970" d="M282.6967,-56.4369C234.892,-46.7724 160.9932,-31.8326 109.9892,-21.5213"/>
<polygon fill="#191970" stroke="#191970" points="110.6034,-18.0747 100.1082,-19.5237 109.2163,-24.9359 110.6034,-18.0747"/>
</g>
<!-- Node12 -->
<g id="node12" class="node">
<title>Node12</title>
<g id="a_node12"><a xlink:title=" ">
<polygon fill="#ffffff" stroke="#bfbfbf" points="124.5,-.5 124.5,-19.5 235.5,-19.5 235.5,-.5 124.5,-.5"/>
<text text-anchor="middle" x="180" y="-7.5" font-family="Helvetica,sans-Serif" font-size="10.00" fill="#000000">Ancillary/TypeList.h</text>
</a>
</g>
</g>
<!-- Node10&#45;&gt;Node12 -->
<g id="edge13" class="edge">
<title>Node10&#45;&gt;Node12</title>
<path fill="none" stroke="#191970" d="M304.2141,-56.3733C279.5953,-47.1822 242.31,-33.2624 215.0125,-23.0713"/>
<polygon fill="#191970" stroke="#191970" points="216.042,-19.7198 205.4494,-19.5011 213.5937,-26.2777 216.042,-19.7198"/>
</g>
<!-- Node13 -->
<g id="node13" class="node">
<title>Node13</title>
<g id="a_node13"><a xlink:title=" ">
<polygon fill="#ffffff" stroke="#bfbfbf" points="253.5,-.5 253.5,-19.5 312.5,-19.5 312.5,-.5 253.5,-.5"/>
<text text-anchor="middle" x="283" y="-7.5" font-family="Helvetica,sans-Serif" font-size="10.00" fill="#000000">complex</text>
</a>
</g>
</g>
<!-- Node10&#45;&gt;Node13 -->
<g id="edge14" class="edge">
<title>Node10&#45;&gt;Node13</title>
<path fill="none" stroke="#191970" d="M321.8132,-56.2455C315.1411,-48.2958 305.5521,-36.8706 297.5747,-27.3656"/>
<polygon fill="#191970" stroke="#191970" points="300.2026,-25.0524 291.093,-19.6427 294.8408,-29.5525 300.2026,-25.0524"/>
</g>
</g>
</svg>
