<?xml version="1.0" encoding="UTF-8" standalone="no"?>
<!DOCTYPE svg PUBLIC "-//W3C//DTD SVG 1.1//EN"
 "http://www.w3.org/Graphics/SVG/1.1/DTD/svg11.dtd">
<!-- Generated by graphviz version 2.40.1 (20161225.0304)
 -->
<!-- Title: sitkExplicitITK.h Pages: 1 -->
<!--zoomable 274 -->
<svg id="main" version="1.1" xmlns="http://www.w3.org/2000/svg" xmlns:xlink="http://www.w3.org/1999/xlink" xml:space="preserve" onload="init(evt)">
<style type="text/css"><![CDATA[
.edge:hover path { stroke: red; }
.edge:hover polygon { stroke: red; fill: red; }
]]></style>
<script type="text/javascript"><![CDATA[
var edges = document.getElementsByTagName('g');
if (edges && edges.length) {
  for (var i=0;i<edges.length;i++) {
    if (edges[i].id.substr(0,4)=='edge') {
      edges[i].setAttribute('class','edge');
    }
  }
}
]]></script>
        <defs>
                <circle id="rim" cx="0" cy="0" r="7"/>
                <circle id="rim2" cx="0" cy="0" r="3.5"/>
                <g id="zoomPlus">
                        <use xlink:href="#rim" fill="#404040">
                                <set attributeName="fill" to="#808080" begin="zoomplus.mouseover" end="zoomplus.mouseout"/>
                        </use>
                        <path d="M-4,0h8M0,-4v8" fill="none" stroke="white" stroke-width="1.5" pointer-events="none"/>
                </g>
                <g id="zoomMin">
                        <use xlink:href="#rim" fill="#404040">
                                <set attributeName="fill" to="#808080" begin="zoomminus.mouseover" end="zoomminus.mouseout"/>
                        </use>
                        <path d="M-4,0h8" fill="none" stroke="white" stroke-width="1.5" pointer-events="none"/>
                </g>
                <g id="dirArrow">
                        <path fill="none" stroke="white" stroke-width="1.5" d="M0,-3.0v7 M-2.5,-0.5L0,-3.0L2.5,-0.5"/>
                </g>
               <g id="resetDef">
                       <use xlink:href="#rim2" fill="#404040">
                               <set attributeName="fill" to="#808080" begin="reset.mouseover" end="reset.mouseout"/>
                       </use>
               </g>
        </defs>

<script type="text/javascript">
var viewWidth = 3288;
var viewHeight = 274;
var sectionId = 'dynsection-0';
</script>
<script xlink:href="svgpan.js"/>
<svg id="graph" class="graph">
<g id="viewport">
<title>sitkExplicitITK.h</title>
<polygon fill="#ffffff" stroke="transparent" points="-4,4 -4,-270 3283.5,-270 3283.5,4 -4,4"/>
<!-- Node1 -->
<g id="node1" class="node">
<title>Node1</title>
<g id="a_node1"><a xlink:title=" ">
<polygon fill="#bfbfbf" stroke="#000000" points="1455,-246.5 1455,-265.5 1550,-265.5 1550,-246.5 1455,-246.5"/>
<text text-anchor="middle" x="1502.5" y="-253.5" font-family="Helvetica,sans-Serif" font-size="10.00" fill="#000000">sitkExplicitITK.h</text>
</a>
</g>
</g>
<!-- Node2 -->
<g id="node2" class="node">
<title>Node2</title>
<g id="a_node2"><a xlink:title=" ">
<polygon fill="#ffffff" stroke="#bfbfbf" points="0,-185 0,-204 59,-204 59,-185 0,-185"/>
<text text-anchor="middle" x="29.5" y="-192" font-family="Helvetica,sans-Serif" font-size="10.00" fill="#000000">complex</text>
</a>
</g>
</g>
<!-- Node1&#45;&gt;Node2 -->
<g id="edge1" class="edge">
<title>Node1&#45;&gt;Node2</title>
<path fill="none" stroke="#191970" d="M1454.8395,-255.4741C1221.5271,-252.765 205.4762,-239.3609 67.5,-210 64.6253,-209.3883 61.6904,-208.5713 58.7894,-207.631"/>
<polygon fill="#191970" stroke="#191970" points="59.7862,-204.2679 49.193,-204.0785 57.356,-210.8325 59.7862,-204.2679"/>
</g>
<!-- Node3 -->
<g id="node3" class="node">
<title>Node3</title>
<g id="a_node3"><a xlink:title=" ">
<polygon fill="#ffffff" stroke="#bfbfbf" points="77,-185 77,-204 216,-204 216,-185 77,-185"/>
<text text-anchor="middle" x="146.5" y="-192" font-family="Helvetica,sans-Serif" font-size="10.00" fill="#000000">itkAttributeLabelObject.h</text>
</a>
</g>
</g>
<!-- Node1&#45;&gt;Node3 -->
<g id="edge2" class="edge">
<title>Node1&#45;&gt;Node3</title>
<path fill="none" stroke="#191970" d="M1454.8766,-255.291C1253.4396,-252.1368 470.5384,-238.273 225.5,-210 216.7234,-208.9873 207.4645,-207.5298 198.4965,-205.9087"/>
<polygon fill="#191970" stroke="#191970" points="199.0127,-202.4443 188.5363,-204.024 197.7112,-209.3223 199.0127,-202.4443"/>
</g>
<!-- Node4 -->
<g id="node4" class="node">
<title>Node4</title>
<g id="a_node4"><a xlink:title=" ">
<polygon fill="#ffffff" stroke="#bfbfbf" points="234.5,-185 234.5,-204 360.5,-204 360.5,-185 234.5,-185"/>
<text text-anchor="middle" x="297.5" y="-192" font-family="Helvetica,sans-Serif" font-size="10.00" fill="#000000">itkShapeLabelObject.h</text>
</a>
</g>
</g>
<!-- Node1&#45;&gt;Node4 -->
<g id="edge3" class="edge">
<title>Node1&#45;&gt;Node4</title>
<path fill="none" stroke="#191970" d="M1454.8707,-255.0608C1268.531,-251.2306 588.6746,-235.76 374.5,-210 366.1314,-208.9935 357.315,-207.5693 348.7548,-205.988"/>
<polygon fill="#191970" stroke="#191970" points="349.3487,-202.538 338.8659,-204.0749 348.0191,-209.4106 349.3487,-202.538"/>
</g>
<!-- Node5 -->
<g id="node5" class="node">
<title>Node5</title>
<g id="a_node5"><a xlink:title=" ">
<polygon fill="#ffffff" stroke="#bfbfbf" points="392.5,-118 392.5,-137 492.5,-137 492.5,-118 392.5,-118"/>
<text text-anchor="middle" x="442.5" y="-125" font-family="Helvetica,sans-Serif" font-size="10.00" fill="#000000">itkVectorImage.h</text>
</a>
</g>
</g>
<!-- Node1&#45;&gt;Node5 -->
<g id="edge4" class="edge">
<title>Node1&#45;&gt;Node5</title>
<path fill="none" stroke="#191970" d="M1454.7815,-255.8141C1248.7558,-254.782 444.2288,-248.3041 407.5,-210 389.8511,-191.5941 409.1471,-162.94 425.3158,-144.7046"/>
<polygon fill="#191970" stroke="#191970" points="428.1171,-146.8327 432.3806,-137.1335 422.9992,-142.057 428.1171,-146.8327"/>
</g>
<!-- Node6 -->
<g id="node6" class="node">
<title>Node6</title>
<g id="a_node6"><a xlink:href="sitkExplicitITKImageRegion_8h.html" target="_top" xlink:title=" ">
<polygon fill="#ffffff" stroke="#000000" points="592,-185 592,-204 751,-204 751,-185 592,-185"/>
<text text-anchor="middle" x="671.5" y="-192" font-family="Helvetica,sans-Serif" font-size="10.00" fill="#000000">sitkExplicitITKImageRegion.h</text>
</a>
</g>
</g>
<!-- Node1&#45;&gt;Node6 -->
<g id="edge5" class="edge">
<title>Node1&#45;&gt;Node6</title>
<path fill="none" stroke="#191970" d="M1454.5922,-254.8637C1336.3596,-251.6612 1021.3499,-240.7049 760.5,-210 750.6869,-208.8449 740.3136,-207.3196 730.2502,-205.6763"/>
<polygon fill="#191970" stroke="#191970" points="730.765,-202.2137 720.3223,-204.0029 729.6015,-209.1164 730.765,-202.2137"/>
</g>
<!-- Node16 -->
<g id="node16" class="node">
<title>Node16</title>
<g id="a_node16"><a xlink:href="sitkExplicitITKDefaultPixelAccessor_8h.html" target="_top" xlink:title=" ">
<polygon fill="#ffffff" stroke="#000000" points="769.5,-179.5 769.5,-209.5 915.5,-209.5 915.5,-179.5 769.5,-179.5"/>
<text text-anchor="start" x="777.5" y="-197.5" font-family="Helvetica,sans-Serif" font-size="10.00" fill="#000000">sitkExplicitITKDefaultPixel</text>
<text text-anchor="middle" x="842.5" y="-186.5" font-family="Helvetica,sans-Serif" font-size="10.00" fill="#000000">Accessor.h</text>
</a>
</g>
</g>
<!-- Node1&#45;&gt;Node16 -->
<g id="edge15" class="edge">
<title>Node1&#45;&gt;Node16</title>
<path fill="none" stroke="#191970" d="M1454.738,-253.9373C1357.2258,-249.3503 1128.0806,-236.6516 925.9667,-210.1067"/>
<polygon fill="#191970" stroke="#191970" points="926.1282,-206.5975 915.7544,-208.7504 925.2065,-213.5365 926.1282,-206.5975"/>
</g>
<!-- Node18 -->
<g id="node18" class="node">
<title>Node18</title>
<g id="a_node18"><a xlink:href="sitkExplicitITKDefaultVectorPixelAccessor_8h.html" target="_top" xlink:title=" ">
<polygon fill="#ffffff" stroke="#000000" points="934,-179.5 934,-209.5 1087,-209.5 1087,-179.5 934,-179.5"/>
<text text-anchor="start" x="942" y="-197.5" font-family="Helvetica,sans-Serif" font-size="10.00" fill="#000000">sitkExplicitITKDefaultVector</text>
<text text-anchor="middle" x="1010.5" y="-186.5" font-family="Helvetica,sans-Serif" font-size="10.00" fill="#000000">PixelAccessor.h</text>
</a>
</g>
</g>
<!-- Node1&#45;&gt;Node18 -->
<g id="edge18" class="edge">
<title>Node1&#45;&gt;Node18</title>
<path fill="none" stroke="#191970" d="M1454.7432,-251.6619C1380.4271,-244.679 1232.396,-229.8419 1097.4754,-210.2397"/>
<polygon fill="#191970" stroke="#191970" points="1097.7741,-206.7462 1087.3722,-208.7592 1096.7591,-213.6722 1097.7741,-206.7462"/>
</g>
<!-- Node20 -->
<g id="node20" class="node">
<title>Node20</title>
<g id="a_node20"><a xlink:href="sitkExplicitITKImportImageContainer_8h.html" target="_top" xlink:title=" ">
<polygon fill="#ffffff" stroke="#000000" points="1105,-179.5 1105,-209.5 1254,-209.5 1254,-179.5 1105,-179.5"/>
<text text-anchor="start" x="1113" y="-197.5" font-family="Helvetica,sans-Serif" font-size="10.00" fill="#000000">sitkExplicitITKImportImage</text>
<text text-anchor="middle" x="1179.5" y="-186.5" font-family="Helvetica,sans-Serif" font-size="10.00" fill="#000000">Container.h</text>
</a>
</g>
</g>
<!-- Node1&#45;&gt;Node20 -->
<g id="edge21" class="edge">
<title>Node1&#45;&gt;Node20</title>
<path fill="none" stroke="#191970" d="M1454.8402,-246.9255C1404.7219,-237.3828 1324.8431,-222.1737 1264.0001,-210.589"/>
<polygon fill="#191970" stroke="#191970" points="1264.5023,-207.1219 1254.0241,-208.6896 1263.193,-213.9983 1264.5023,-207.1219"/>
</g>
<!-- Node22 -->
<g id="node22" class="node">
<title>Node22</title>
<g id="a_node22"><a xlink:href="sitkExplicitITKImageBase_8h.html" target="_top" xlink:title=" ">
<polygon fill="#ffffff" stroke="#000000" points="1271.5,-185 1271.5,-204 1421.5,-204 1421.5,-185 1271.5,-185"/>
<text text-anchor="middle" x="1346.5" y="-192" font-family="Helvetica,sans-Serif" font-size="10.00" fill="#000000">sitkExplicitITKImageBase.h</text>
</a>
</g>
</g>
<!-- Node1&#45;&gt;Node22 -->
<g id="edge24" class="edge">
<title>Node1&#45;&gt;Node22</title>
<path fill="none" stroke="#191970" d="M1478.125,-246.3906C1451.7944,-236.0103 1409.662,-219.4004 1380.1771,-207.7766"/>
<polygon fill="#191970" stroke="#191970" points="1381.2907,-204.4534 1370.7038,-204.0419 1378.7233,-210.9657 1381.2907,-204.4534"/>
</g>
<!-- Node24 -->
<g id="node24" class="node">
<title>Node24</title>
<g id="a_node24"><a xlink:href="sitkExplicitITKImage_8h.html" target="_top" xlink:title=" ">
<polygon fill="#ffffff" stroke="#000000" points="1439.5,-185 1439.5,-204 1565.5,-204 1565.5,-185 1439.5,-185"/>
<text text-anchor="middle" x="1502.5" y="-192" font-family="Helvetica,sans-Serif" font-size="10.00" fill="#000000">sitkExplicitITKImage.h</text>
</a>
</g>
</g>
<!-- Node1&#45;&gt;Node24 -->
<g id="edge27" class="edge">
<title>Node1&#45;&gt;Node24</title>
<path fill="none" stroke="#191970" d="M1502.5,-246.3906C1502.5,-237.8657 1502.5,-225.1392 1502.5,-214.4235"/>
<polygon fill="#191970" stroke="#191970" points="1506.0001,-214.2448 1502.5,-204.2449 1499.0001,-214.2449 1506.0001,-214.2448"/>
</g>
<!-- Node26 -->
<g id="node26" class="node">
<title>Node26</title>
<g id="a_node26"><a xlink:href="sitkExplicitITKLabelMap_8h.html" target="_top" xlink:title=" ">
<polygon fill="#ffffff" stroke="#000000" points="1583.5,-185 1583.5,-204 1725.5,-204 1725.5,-185 1583.5,-185"/>
<text text-anchor="middle" x="1654.5" y="-192" font-family="Helvetica,sans-Serif" font-size="10.00" fill="#000000">sitkExplicitITKLabelMap.h</text>
</a>
</g>
</g>
<!-- Node1&#45;&gt;Node26 -->
<g id="edge30" class="edge">
<title>Node1&#45;&gt;Node26</title>
<path fill="none" stroke="#191970" d="M1526.25,-246.3906C1551.7939,-236.0554 1592.6009,-219.5447 1621.311,-207.9284"/>
<polygon fill="#191970" stroke="#191970" points="1622.9596,-211.0371 1630.9168,-204.0419 1620.334,-204.5481 1622.9596,-211.0371"/>
</g>
<!-- Node28 -->
<g id="node28" class="node">
<title>Node28</title>
<g id="a_node28"><a xlink:href="sitkExplicitITKVectorImage_8h.html" target="_top" xlink:title=" ">
<polygon fill="#ffffff" stroke="#000000" points="417,-185 417,-204 574,-204 574,-185 417,-185"/>
<text text-anchor="middle" x="495.5" y="-192" font-family="Helvetica,sans-Serif" font-size="10.00" fill="#000000">sitkExplicitITKVectorImage.h</text>
</a>
</g>
</g>
<!-- Node1&#45;&gt;Node28 -->
<g id="edge33" class="edge">
<title>Node1&#45;&gt;Node28</title>
<path fill="none" stroke="#191970" d="M1454.9891,-254.4196C1291.7111,-248.8637 754.2106,-229.5097 582.5,-210 572.8832,-208.9073 562.7229,-207.4119 552.8709,-205.7786"/>
<polygon fill="#191970" stroke="#191970" points="553.2,-202.2839 542.7513,-204.0377 552.0131,-209.1826 553.2,-202.2839"/>
</g>
<!-- Node29 -->
<g id="node29" class="node">
<title>Node29</title>
<g id="a_node29"><a xlink:href="sitkExplicitITKImageConstIterator_8h.html" target="_top" xlink:title=" ">
<polygon fill="#ffffff" stroke="#000000" points="1744,-179.5 1744,-209.5 1889,-209.5 1889,-179.5 1744,-179.5"/>
<text text-anchor="start" x="1752" y="-197.5" font-family="Helvetica,sans-Serif" font-size="10.00" fill="#000000">sitkExplicitITKImageConst</text>
<text text-anchor="middle" x="1816.5" y="-186.5" font-family="Helvetica,sans-Serif" font-size="10.00" fill="#000000">Iterator.h</text>
</a>
</g>
</g>
<!-- Node1&#45;&gt;Node29 -->
<g id="edge36" class="edge">
<title>Node1&#45;&gt;Node29</title>
<path fill="none" stroke="#191970" d="M1550.1898,-246.6595C1598.8442,-237.13 1675.3034,-222.1547 1733.8385,-210.6901"/>
<polygon fill="#191970" stroke="#191970" points="1734.6679,-214.0942 1743.8087,-208.7373 1733.3224,-207.2247 1734.6679,-214.0942"/>
</g>
<!-- Node31 -->
<g id="node31" class="node">
<title>Node31</title>
<g id="a_node31"><a xlink:href="sitkExplicitITKImageRegionConstIterator_8h.html" target="_top" xlink:title=" ">
<polygon fill="#ffffff" stroke="#000000" points="1907.5,-179.5 1907.5,-209.5 2057.5,-209.5 2057.5,-179.5 1907.5,-179.5"/>
<text text-anchor="start" x="1915.5" y="-197.5" font-family="Helvetica,sans-Serif" font-size="10.00" fill="#000000">sitkExplicitITKImageRegion</text>
<text text-anchor="middle" x="1982.5" y="-186.5" font-family="Helvetica,sans-Serif" font-size="10.00" fill="#000000">ConstIterator.h</text>
</a>
</g>
</g>
<!-- Node1&#45;&gt;Node31 -->
<g id="edge39" class="edge">
<title>Node1&#45;&gt;Node31</title>
<path fill="none" stroke="#191970" d="M1550.1821,-251.5003C1622.8171,-244.4179 1765.7508,-229.5875 1897.1881,-210.1375"/>
<polygon fill="#191970" stroke="#191970" points="1898.0621,-213.5459 1907.4359,-208.608 1897.0288,-206.6226 1898.0621,-213.5459"/>
</g>
<!-- Node33 -->
<g id="node33" class="node">
<title>Node33</title>
<g id="a_node33"><a xlink:href="sitkExplicitITKImageScanlineConstIterator_8h.html" target="_top" xlink:title=" ">
<polygon fill="#ffffff" stroke="#000000" points="2075.5,-179.5 2075.5,-209.5 2233.5,-209.5 2233.5,-179.5 2075.5,-179.5"/>
<text text-anchor="start" x="2083.5" y="-197.5" font-family="Helvetica,sans-Serif" font-size="10.00" fill="#000000">sitkExplicitITKImageScanline</text>
<text text-anchor="middle" x="2154.5" y="-186.5" font-family="Helvetica,sans-Serif" font-size="10.00" fill="#000000">ConstIterator.h</text>
</a>
</g>
</g>
<!-- Node1&#45;&gt;Node33 -->
<g id="edge42" class="edge">
<title>Node1&#45;&gt;Node33</title>
<path fill="none" stroke="#191970" d="M1550.1932,-253.6104C1645.9235,-248.4893 1868.4555,-234.9506 2065.4449,-210.0604"/>
<polygon fill="#191970" stroke="#191970" points="2065.9225,-213.528 2075.399,-208.7901 2065.0363,-206.5843 2065.9225,-213.528"/>
</g>
<!-- Node35 -->
<g id="node35" class="node">
<title>Node35</title>
<g id="a_node35"><a xlink:href="sitkExplicitITKImageScanlineIterator_8h.html" target="_top" xlink:title=" ">
<polygon fill="#ffffff" stroke="#000000" points="2251.5,-179.5 2251.5,-209.5 2409.5,-209.5 2409.5,-179.5 2251.5,-179.5"/>
<text text-anchor="start" x="2259.5" y="-197.5" font-family="Helvetica,sans-Serif" font-size="10.00" fill="#000000">sitkExplicitITKImageScanline</text>
<text text-anchor="middle" x="2330.5" y="-186.5" font-family="Helvetica,sans-Serif" font-size="10.00" fill="#000000">Iterator.h</text>
</a>
</g>
</g>
<!-- Node1&#45;&gt;Node35 -->
<g id="edge45" class="edge">
<title>Node1&#45;&gt;Node35</title>
<path fill="none" stroke="#191970" d="M1550.2824,-254.8875C1666.7076,-251.7787 1974.437,-241.168 2241.1405,-210.0724"/>
<polygon fill="#191970" stroke="#191970" points="2241.8862,-213.5089 2251.4079,-208.8627 2241.0671,-206.557 2241.8862,-213.5089"/>
</g>
<!-- Node37 -->
<g id="node37" class="node">
<title>Node37</title>
<g id="a_node37"><a xlink:href="sitkExplicitITKImageSource_8h.html" target="_top" xlink:title=" ">
<polygon fill="#ffffff" stroke="#000000" points="2427,-185 2427,-204 2586,-204 2586,-185 2427,-185"/>
<text text-anchor="middle" x="2506.5" y="-192" font-family="Helvetica,sans-Serif" font-size="10.00" fill="#000000">sitkExplicitITKImageSource.h</text>
</a>
</g>
</g>
<!-- Node1&#45;&gt;Node37 -->
<g id="edge48" class="edge">
<title>Node1&#45;&gt;Node37</title>
<path fill="none" stroke="#191970" d="M1550.3493,-255.6877C1686.5425,-254.349 2087.8079,-247.2809 2418.5,-210 2428.3273,-208.8921 2438.7172,-207.3748 2448.7802,-205.7207"/>
<polygon fill="#191970" stroke="#191970" points="2449.4308,-209.1604 2458.7012,-204.0311 2448.2555,-202.2597 2449.4308,-209.1604"/>
</g>
<!-- Node39 -->
<g id="node39" class="node">
<title>Node39</title>
<g id="a_node39"><a xlink:href="sitkExplicitITKImageToImageFilter_8h.html" target="_top" xlink:title=" ">
<polygon fill="#ffffff" stroke="#000000" points="2603.5,-179.5 2603.5,-209.5 2761.5,-209.5 2761.5,-179.5 2603.5,-179.5"/>
<text text-anchor="start" x="2611.5" y="-197.5" font-family="Helvetica,sans-Serif" font-size="10.00" fill="#000000">sitkExplicitITKImageToImage</text>
<text text-anchor="middle" x="2682.5" y="-186.5" font-family="Helvetica,sans-Serif" font-size="10.00" fill="#000000">Filter.h</text>
</a>
</g>
</g>
<!-- Node1&#45;&gt;Node39 -->
<g id="edge51" class="edge">
<title>Node1&#45;&gt;Node39</title>
<path fill="none" stroke="#191970" d="M1550.185,-254.8465C1730.1067,-250.3638 2368.5649,-233.2431 2593.3128,-210.1308"/>
<polygon fill="#191970" stroke="#191970" points="2593.8051,-213.5982 2603.3791,-209.0609 2593.0652,-206.6375 2593.8051,-213.5982"/>
</g>
<!-- Node41 -->
<g id="node41" class="node">
<title>Node41</title>
<g id="a_node41"><a xlink:href="sitkExplicitITKInPlaceImageFilter_8h.html" target="_top" xlink:title=" ">
<polygon fill="#ffffff" stroke="#000000" points="2779.5,-179.5 2779.5,-209.5 2931.5,-209.5 2931.5,-179.5 2779.5,-179.5"/>
<text text-anchor="start" x="2787.5" y="-197.5" font-family="Helvetica,sans-Serif" font-size="10.00" fill="#000000">sitkExplicitITKInPlaceImage</text>
<text text-anchor="middle" x="2855.5" y="-186.5" font-family="Helvetica,sans-Serif" font-size="10.00" fill="#000000">Filter.h</text>
</a>
</g>
</g>
<!-- Node1&#45;&gt;Node41 -->
<g id="edge54" class="edge">
<title>Node1&#45;&gt;Node41</title>
<path fill="none" stroke="#191970" d="M1550.1162,-255.1921C1747.9876,-251.6949 2506.77,-236.8613 2768.8835,-210.0455"/>
<polygon fill="#191970" stroke="#191970" points="2769.5433,-213.4954 2779.1203,-208.9643 2768.808,-206.5341 2769.5433,-213.4954"/>
</g>
<!-- Node43 -->
<g id="node43" class="node">
<title>Node43</title>
<g id="a_node43"><a xlink:href="sitkExplicitITKComposeImageFilter_8h.html" target="_top" xlink:title=" ">
<polygon fill="#ffffff" stroke="#000000" points="2949.5,-179.5 2949.5,-209.5 3111.5,-209.5 3111.5,-179.5 2949.5,-179.5"/>
<text text-anchor="start" x="2957.5" y="-197.5" font-family="Helvetica,sans-Serif" font-size="10.00" fill="#000000">sitkExplicitITKComposeImage</text>
<text text-anchor="middle" x="3030.5" y="-186.5" font-family="Helvetica,sans-Serif" font-size="10.00" fill="#000000">Filter.h</text>
</a>
</g>
</g>
<!-- Node1&#45;&gt;Node43 -->
<g id="edge57" class="edge">
<title>Node1&#45;&gt;Node43</title>
<path fill="none" stroke="#191970" d="M1550.15,-255.3644C1764.4211,-252.3712 2640.8354,-238.6547 2938.7816,-210.0564"/>
<polygon fill="#191970" stroke="#191970" points="2939.5273,-213.4998 2949.1344,-209.0328 2938.8385,-206.5338 2939.5273,-213.4998"/>
</g>
<!-- Node45 -->
<g id="node45" class="node">
<title>Node45</title>
<g id="a_node45"><a xlink:href="sitkExplicitITKVectorIndexSelectionCastImageFilter_8h.html" target="_top" xlink:title=" ">
<polygon fill="#ffffff" stroke="#000000" points="3129.5,-179.5 3129.5,-209.5 3275.5,-209.5 3275.5,-179.5 3129.5,-179.5"/>
<text text-anchor="start" x="3137.5" y="-197.5" font-family="Helvetica,sans-Serif" font-size="10.00" fill="#000000">sitkExplicitITKVectorIndex</text>
<text text-anchor="middle" x="3202.5" y="-186.5" font-family="Helvetica,sans-Serif" font-size="10.00" fill="#000000">SelectionCastImageFilter.h</text>
</a>
</g>
</g>
<!-- Node1&#45;&gt;Node45 -->
<g id="edge60" class="edge">
<title>Node1&#45;&gt;Node45</title>
<path fill="none" stroke="#191970" d="M1550.1693,-255.6642C1780.8582,-253.8847 2783.58,-244.3453 3119.0579,-210.0125"/>
<polygon fill="#191970" stroke="#191970" points="3119.6897,-213.4654 3129.2682,-208.9374 3118.9567,-206.5039 3119.6897,-213.4654"/>
</g>
<!-- Node7 -->
<g id="node7" class="node">
<title>Node7</title>
<g id="a_node7"><a xlink:href="sitkExplicit_8h.html" target="_top" xlink:title=" ">
<polygon fill="#ffffff" stroke="#000000" points="1652.5,-118 1652.5,-137 1732.5,-137 1732.5,-118 1652.5,-118"/>
<text text-anchor="middle" x="1692.5" y="-125" font-family="Helvetica,sans-Serif" font-size="10.00" fill="#000000">sitkExplicit.h</text>
</a>
</g>
</g>
<!-- Node6&#45;&gt;Node7 -->
<g id="edge6" class="edge">
<title>Node6&#45;&gt;Node7</title>
<path fill="none" stroke="#191970" d="M719.3736,-184.9712C732.6437,-182.6555 747.0884,-180.4353 760.5,-179 1150.5989,-137.253 1255.8756,-209.6452 1642.5,-143 1647.0564,-142.2146 1651.7764,-141.1292 1656.4152,-139.8941"/>
<polygon fill="#191970" stroke="#191970" points="1657.7187,-143.1602 1666.3453,-137.0093 1655.7659,-136.4381 1657.7187,-143.1602"/>
</g>
<!-- Node15 -->
<g id="node15" class="node">
<title>Node15</title>
<g id="a_node15"><a xlink:title=" ">
<polygon fill="#ffffff" stroke="#bfbfbf" points="620.5,-118 620.5,-137 722.5,-137 722.5,-118 620.5,-118"/>
<text text-anchor="middle" x="671.5" y="-125" font-family="Helvetica,sans-Serif" font-size="10.00" fill="#000000">itkImageRegion.h</text>
</a>
</g>
</g>
<!-- Node6&#45;&gt;Node15 -->
<g id="edge14" class="edge">
<title>Node6&#45;&gt;Node15</title>
<path fill="none" stroke="#191970" d="M671.5,-184.9005C671.5,-175.149 671.5,-159.7597 671.5,-147.3695"/>
<polygon fill="#191970" stroke="#191970" points="675.0001,-147.0816 671.5,-137.0817 668.0001,-147.0817 675.0001,-147.0816"/>
</g>
<!-- Node8 -->
<g id="node8" class="node">
<title>Node8</title>
<g id="a_node8"><a xlink:href="sitkMacro_8h.html" target="_top" xlink:title=" ">
<polygon fill="#ffffff" stroke="#000000" points="1656,-56.5 1656,-75.5 1729,-75.5 1729,-56.5 1656,-56.5"/>
<text text-anchor="middle" x="1692.5" y="-63.5" font-family="Helvetica,sans-Serif" font-size="10.00" fill="#000000">sitkMacro.h</text>
</a>
</g>
</g>
<!-- Node7&#45;&gt;Node8 -->
<g id="edge7" class="edge">
<title>Node7&#45;&gt;Node8</title>
<path fill="none" stroke="#191970" d="M1692.5,-117.8906C1692.5,-109.3657 1692.5,-96.6392 1692.5,-85.9235"/>
<polygon fill="#191970" stroke="#191970" points="1696.0001,-85.7448 1692.5,-75.7449 1689.0001,-85.7449 1696.0001,-85.7448"/>
</g>
<!-- Node9 -->
<g id="node9" class="node">
<title>Node9</title>
<g id="a_node9"><a xlink:title=" ">
<polygon fill="#ffffff" stroke="#bfbfbf" points="1485,-.5 1485,-19.5 1538,-19.5 1538,-.5 1485,-.5"/>
<text text-anchor="middle" x="1511.5" y="-7.5" font-family="Helvetica,sans-Serif" font-size="10.00" fill="#000000">stdint.h</text>
</a>
</g>
</g>
<!-- Node8&#45;&gt;Node9 -->
<g id="edge8" class="edge">
<title>Node8&#45;&gt;Node9</title>
<path fill="none" stroke="#191970" d="M1661.385,-56.3733C1629.8748,-46.6242 1581.168,-31.5547 1547.8884,-21.2583"/>
<polygon fill="#191970" stroke="#191970" points="1548.6794,-17.8394 1538.0917,-18.2273 1546.6104,-24.5267 1548.6794,-17.8394"/>
</g>
<!-- Node10 -->
<g id="node10" class="node">
<title>Node10</title>
<g id="a_node10"><a xlink:title=" ">
<polygon fill="#ffffff" stroke="#bfbfbf" points="1556.5,-.5 1556.5,-19.5 1612.5,-19.5 1612.5,-.5 1556.5,-.5"/>
<text text-anchor="middle" x="1584.5" y="-7.5" font-family="Helvetica,sans-Serif" font-size="10.00" fill="#000000">stddef.h</text>
</a>
</g>
</g>
<!-- Node8&#45;&gt;Node10 -->
<g id="edge9" class="edge">
<title>Node8&#45;&gt;Node10</title>
<path fill="none" stroke="#191970" d="M1673.6878,-56.2455C1656.6527,-47.4125 1631.3425,-34.2887 1612.0319,-24.2758"/>
<polygon fill="#191970" stroke="#191970" points="1613.5853,-21.1388 1603.0966,-19.6427 1610.363,-27.353 1613.5853,-21.1388"/>
</g>
<!-- Node11 -->
<g id="node11" class="node">
<title>Node11</title>
<g id="a_node11"><a xlink:title=" ">
<polygon fill="#ffffff" stroke="#bfbfbf" points="1630.5,-.5 1630.5,-19.5 1682.5,-19.5 1682.5,-.5 1630.5,-.5"/>
<text text-anchor="middle" x="1656.5" y="-7.5" font-family="Helvetica,sans-Serif" font-size="10.00" fill="#000000">cassert</text>
</a>
</g>
</g>
<!-- Node8&#45;&gt;Node11 -->
<g id="edge10" class="edge">
<title>Node8&#45;&gt;Node11</title>
<path fill="none" stroke="#191970" d="M1686.2293,-56.2455C1681.2736,-48.5367 1674.217,-37.5598 1668.2224,-28.2348"/>
<polygon fill="#191970" stroke="#191970" points="1671.0506,-26.1618 1662.6989,-19.6427 1665.1624,-29.9471 1671.0506,-26.1618"/>
</g>
<!-- Node12 -->
<g id="node12" class="node">
<title>Node12</title>
<g id="a_node12"><a xlink:title=" ">
<polygon fill="#ffffff" stroke="#bfbfbf" points="1700.5,-.5 1700.5,-19.5 1756.5,-19.5 1756.5,-.5 1700.5,-.5"/>
<text text-anchor="middle" x="1728.5" y="-7.5" font-family="Helvetica,sans-Serif" font-size="10.00" fill="#000000">sstream</text>
</a>
</g>
</g>
<!-- Node8&#45;&gt;Node12 -->
<g id="edge11" class="edge">
<title>Node8&#45;&gt;Node12</title>
<path fill="none" stroke="#191970" d="M1698.7707,-56.2455C1703.7264,-48.5367 1710.783,-37.5598 1716.7776,-28.2348"/>
<polygon fill="#191970" stroke="#191970" points="1719.8376,-29.9471 1722.3011,-19.6427 1713.9494,-26.1618 1719.8376,-29.9471"/>
</g>
<!-- Node13 -->
<g id="node13" class="node">
<title>Node13</title>
<g id="a_node13"><a xlink:title=" ">
<polygon fill="#ffffff" stroke="#bfbfbf" points="1774.5,-.5 1774.5,-19.5 1818.5,-19.5 1818.5,-.5 1774.5,-.5"/>
<text text-anchor="middle" x="1796.5" y="-7.5" font-family="Helvetica,sans-Serif" font-size="10.00" fill="#000000">limits</text>
</a>
</g>
</g>
<!-- Node8&#45;&gt;Node13 -->
<g id="edge12" class="edge">
<title>Node8&#45;&gt;Node13</title>
<path fill="none" stroke="#191970" d="M1710.6154,-56.2455C1726.945,-47.4527 1751.171,-34.4079 1769.7339,-24.4125"/>
<polygon fill="#191970" stroke="#191970" points="1771.4468,-27.4654 1778.5922,-19.6427 1768.1281,-21.3021 1771.4468,-27.4654"/>
</g>
<!-- Node14 -->
<g id="node14" class="node">
<title>Node14</title>
<g id="a_node14"><a xlink:href="sitkConfigure_8h.html" target="_top" xlink:title=" ">
<polygon fill="#ffffff" stroke="#000000" points="1836.5,-.5 1836.5,-19.5 1926.5,-19.5 1926.5,-.5 1836.5,-.5"/>
<text text-anchor="middle" x="1881.5" y="-7.5" font-family="Helvetica,sans-Serif" font-size="10.00" fill="#000000">sitkConfigure.h</text>
</a>
</g>
</g>
<!-- Node8&#45;&gt;Node14 -->
<g id="edge13" class="edge">
<title>Node8&#45;&gt;Node14</title>
<path fill="none" stroke="#191970" d="M1724.9903,-56.3733C1756.6902,-46.9807 1805.0576,-32.6496 1839.6286,-22.4064"/>
<polygon fill="#191970" stroke="#191970" points="1840.8401,-25.6979 1849.4337,-19.5011 1838.8514,-18.9863 1840.8401,-25.6979"/>
</g>
<!-- Node16&#45;&gt;Node7 -->
<g id="edge16" class="edge">
<title>Node16&#45;&gt;Node7</title>
<path fill="none" stroke="#191970" d="M915.7408,-180.1421C918.6944,-179.726 921.6227,-179.3424 924.5,-179 1241.7728,-141.2395 1327.8877,-198.7402 1642.5,-143 1647.0009,-142.2026 1651.6633,-141.1202 1656.25,-139.8955"/>
<polygon fill="#191970" stroke="#191970" points="1657.4499,-143.1918 1666.0779,-137.0429 1655.4986,-136.4692 1657.4499,-143.1918"/>
</g>
<!-- Node17 -->
<g id="node17" class="node">
<title>Node17</title>
<g id="a_node17"><a xlink:title=" ">
<polygon fill="#ffffff" stroke="#bfbfbf" points="765,-118 765,-137 906,-137 906,-118 765,-118"/>
<text text-anchor="middle" x="835.5" y="-125" font-family="Helvetica,sans-Serif" font-size="10.00" fill="#000000">itkDefaultPixelAccessor.h</text>
</a>
</g>
</g>
<!-- Node16&#45;&gt;Node17 -->
<g id="edge17" class="edge">
<title>Node16&#45;&gt;Node17</title>
<path fill="none" stroke="#191970" d="M840.9116,-179.2967C839.9163,-169.7699 838.6234,-157.3954 837.551,-147.1306"/>
<polygon fill="#191970" stroke="#191970" points="841.0185,-146.6371 836.4983,-137.055 834.0564,-147.3646 841.0185,-146.6371"/>
</g>
<!-- Node18&#45;&gt;Node7 -->
<g id="edge19" class="edge">
<title>Node18&#45;&gt;Node7</title>
<path fill="none" stroke="#191970" d="M1087.3502,-180.0784C1090.0973,-179.6928 1092.8204,-179.3314 1095.5,-179 1337.295,-149.0973 1402.9384,-187.376 1642.5,-143 1646.9429,-142.177 1651.546,-141.089 1656.0795,-139.8701"/>
<polygon fill="#191970" stroke="#191970" points="1657.1776,-143.1958 1665.8037,-137.0443 1655.2242,-136.4739 1657.1776,-143.1958"/>
</g>
<!-- Node19 -->
<g id="node19" class="node">
<title>Node19</title>
<g id="a_node19"><a xlink:title=" ">
<polygon fill="#ffffff" stroke="#bfbfbf" points="924.5,-118 924.5,-137 1096.5,-137 1096.5,-118 924.5,-118"/>
<text text-anchor="middle" x="1010.5" y="-125" font-family="Helvetica,sans-Serif" font-size="10.00" fill="#000000">itkDefaultVectorPixelAccessor.h</text>
</a>
</g>
</g>
<!-- Node18&#45;&gt;Node19 -->
<g id="edge20" class="edge">
<title>Node18&#45;&gt;Node19</title>
<path fill="none" stroke="#191970" d="M1010.5,-179.2967C1010.5,-169.7699 1010.5,-157.3954 1010.5,-147.1306"/>
<polygon fill="#191970" stroke="#191970" points="1014.0001,-147.0549 1010.5,-137.055 1007.0001,-147.055 1014.0001,-147.0549"/>
</g>
<!-- Node20&#45;&gt;Node7 -->
<g id="edge22" class="edge">
<title>Node20&#45;&gt;Node7</title>
<path fill="none" stroke="#191970" d="M1254.1046,-180.2395C1256.936,-179.8026 1259.7419,-179.3874 1262.5,-179 1430.4962,-155.4049 1476.1538,-176.2926 1642.5,-143 1646.7106,-142.1573 1651.0702,-141.0976 1655.3804,-139.9298"/>
<polygon fill="#191970" stroke="#191970" points="1656.6287,-143.2119 1665.2544,-137.0598 1654.6749,-136.4901 1656.6287,-143.2119"/>
</g>
<!-- Node21 -->
<g id="node21" class="node">
<title>Node21</title>
<g id="a_node21"><a xlink:title=" ">
<polygon fill="#ffffff" stroke="#bfbfbf" points="1114.5,-118 1114.5,-137 1262.5,-137 1262.5,-118 1114.5,-118"/>
<text text-anchor="middle" x="1188.5" y="-125" font-family="Helvetica,sans-Serif" font-size="10.00" fill="#000000">itkImportImageContainer.h</text>
</a>
</g>
</g>
<!-- Node20&#45;&gt;Node21 -->
<g id="edge23" class="edge">
<title>Node20&#45;&gt;Node21</title>
<path fill="none" stroke="#191970" d="M1181.5422,-179.2967C1182.822,-169.7699 1184.4842,-157.3954 1185.863,-147.1306"/>
<polygon fill="#191970" stroke="#191970" points="1189.3539,-147.4319 1187.2165,-137.055 1182.4162,-146.5 1189.3539,-147.4319"/>
</g>
<!-- Node22&#45;&gt;Node7 -->
<g id="edge25" class="edge">
<title>Node22&#45;&gt;Node7</title>
<path fill="none" stroke="#191970" d="M1397.5631,-184.9573C1408.4298,-182.9602 1419.8404,-180.8884 1430.5,-179 1524.6057,-162.3284 1549.5426,-165.1979 1642.5,-143 1646.3673,-142.0765 1650.3731,-141.016 1654.3571,-139.8922"/>
<polygon fill="#191970" stroke="#191970" points="1655.5232,-143.1973 1664.124,-137.0105 1653.5423,-136.4835 1655.5232,-143.1973"/>
</g>
<!-- Node23 -->
<g id="node23" class="node">
<title>Node23</title>
<g id="a_node23"><a xlink:title=" ">
<polygon fill="#ffffff" stroke="#bfbfbf" points="1300,-118 1300,-137 1393,-137 1393,-118 1300,-118"/>
<text text-anchor="middle" x="1346.5" y="-125" font-family="Helvetica,sans-Serif" font-size="10.00" fill="#000000">itkImageBase.h</text>
</a>
</g>
</g>
<!-- Node22&#45;&gt;Node23 -->
<g id="edge26" class="edge">
<title>Node22&#45;&gt;Node23</title>
<path fill="none" stroke="#191970" d="M1346.5,-184.9005C1346.5,-175.149 1346.5,-159.7597 1346.5,-147.3695"/>
<polygon fill="#191970" stroke="#191970" points="1350.0001,-147.0816 1346.5,-137.0817 1343.0001,-147.0817 1350.0001,-147.0816"/>
</g>
<!-- Node24&#45;&gt;Node7 -->
<g id="edge28" class="edge">
<title>Node24&#45;&gt;Node7</title>
<path fill="none" stroke="#191970" d="M1529.7224,-184.9005C1562.7374,-173.2584 1618.5403,-153.5805 1655.4526,-140.5641"/>
<polygon fill="#191970" stroke="#191970" points="1657.0613,-143.7081 1665.3281,-137.0817 1654.7333,-137.1065 1657.0613,-143.7081"/>
</g>
<!-- Node25 -->
<g id="node25" class="node">
<title>Node25</title>
<g id="a_node25"><a xlink:title=" ">
<polygon fill="#ffffff" stroke="#bfbfbf" points="1462,-118 1462,-137 1531,-137 1531,-118 1462,-118"/>
<text text-anchor="middle" x="1496.5" y="-125" font-family="Helvetica,sans-Serif" font-size="10.00" fill="#000000">itkImage.h</text>
</a>
</g>
</g>
<!-- Node24&#45;&gt;Node25 -->
<g id="edge29" class="edge">
<title>Node24&#45;&gt;Node25</title>
<path fill="none" stroke="#191970" d="M1501.6403,-184.9005C1500.7671,-175.149 1499.3889,-159.7597 1498.2794,-147.3695"/>
<polygon fill="#191970" stroke="#191970" points="1501.7361,-146.7296 1497.3581,-137.0817 1494.7641,-147.354 1501.7361,-146.7296"/>
</g>
<!-- Node26&#45;&gt;Node7 -->
<g id="edge31" class="edge">
<title>Node26&#45;&gt;Node7</title>
<path fill="none" stroke="#191970" d="M1659.9445,-184.9005C1665.7009,-174.751 1674.9213,-158.4941 1682.0824,-145.8679"/>
<polygon fill="#191970" stroke="#191970" points="1685.1766,-147.5067 1687.0656,-137.0817 1679.0877,-144.0533 1685.1766,-147.5067"/>
</g>
<!-- Node27 -->
<g id="node27" class="node">
<title>Node27</title>
<g id="a_node27"><a xlink:title=" ">
<polygon fill="#ffffff" stroke="#bfbfbf" points="1549,-118 1549,-137 1634,-137 1634,-118 1549,-118"/>
<text text-anchor="middle" x="1591.5" y="-125" font-family="Helvetica,sans-Serif" font-size="10.00" fill="#000000">itkLabelMap.h</text>
</a>
</g>
</g>
<!-- Node26&#45;&gt;Node27 -->
<g id="edge32" class="edge">
<title>Node26&#45;&gt;Node27</title>
<path fill="none" stroke="#191970" d="M1645.4736,-184.9005C1635.5558,-174.353 1619.4359,-157.2096 1607.3909,-144.3998"/>
<polygon fill="#191970" stroke="#191970" points="1609.9097,-141.9693 1600.5096,-137.0817 1604.8101,-146.7645 1609.9097,-141.9693"/>
</g>
<!-- Node28&#45;&gt;Node5 -->
<g id="edge35" class="edge">
<title>Node28&#45;&gt;Node5</title>
<path fill="none" stroke="#191970" d="M487.9064,-184.9005C479.7202,-174.552 466.5115,-157.8542 456.4457,-145.1295"/>
<polygon fill="#191970" stroke="#191970" points="459.0286,-142.7531 450.0795,-137.0817 453.5386,-147.0959 459.0286,-142.7531"/>
</g>
<!-- Node28&#45;&gt;Node7 -->
<g id="edge34" class="edge">
<title>Node28&#45;&gt;Node7</title>
<path fill="none" stroke="#191970" d="M541.8311,-184.9849C554.9264,-182.6394 569.2261,-180.4006 582.5,-179 1051.2802,-129.5347 1177.697,-221.4845 1642.5,-143 1647.059,-142.2302 1651.7807,-141.1542 1656.4203,-139.9241"/>
<polygon fill="#191970" stroke="#191970" points="1657.7218,-143.191 1666.3512,-137.0442 1655.7721,-136.468 1657.7218,-143.191"/>
</g>
<!-- Node29&#45;&gt;Node7 -->
<g id="edge37" class="edge">
<title>Node29&#45;&gt;Node7</title>
<path fill="none" stroke="#191970" d="M1788.672,-179.4639C1767.8664,-168.2222 1739.5946,-152.9463 1719.0927,-141.8686"/>
<polygon fill="#191970" stroke="#191970" points="1720.7361,-138.7784 1710.2744,-137.1039 1717.4085,-144.9369 1720.7361,-138.7784"/>
</g>
<!-- Node30 -->
<g id="node30" class="node">
<title>Node30</title>
<g id="a_node30"><a xlink:title=" ">
<polygon fill="#ffffff" stroke="#bfbfbf" points="1750.5,-118 1750.5,-137 1882.5,-137 1882.5,-118 1750.5,-118"/>
<text text-anchor="middle" x="1816.5" y="-125" font-family="Helvetica,sans-Serif" font-size="10.00" fill="#000000">itkImageConstIterator.h</text>
</a>
</g>
</g>
<!-- Node29&#45;&gt;Node30 -->
<g id="edge38" class="edge">
<title>Node29&#45;&gt;Node30</title>
<path fill="none" stroke="#191970" d="M1816.5,-179.2967C1816.5,-169.7699 1816.5,-157.3954 1816.5,-147.1306"/>
<polygon fill="#191970" stroke="#191970" points="1820.0001,-147.0549 1816.5,-137.055 1813.0001,-147.055 1820.0001,-147.0549"/>
</g>
<!-- Node31&#45;&gt;Node7 -->
<g id="edge40" class="edge">
<title>Node31&#45;&gt;Node7</title>
<path fill="none" stroke="#191970" d="M1907.426,-180.3834C1859.6505,-170.926 1796.6175,-157.5708 1741.5,-143 1738.0752,-142.0946 1734.5341,-141.0972 1730.9951,-140.0582"/>
<polygon fill="#191970" stroke="#191970" points="1731.7112,-136.6179 1721.1257,-137.0613 1729.6773,-143.3159 1731.7112,-136.6179"/>
</g>
<!-- Node32 -->
<g id="node32" class="node">
<title>Node32</title>
<g id="a_node32"><a xlink:title=" ">
<polygon fill="#ffffff" stroke="#bfbfbf" points="1901,-118 1901,-137 2066,-137 2066,-118 1901,-118"/>
<text text-anchor="middle" x="1983.5" y="-125" font-family="Helvetica,sans-Serif" font-size="10.00" fill="#000000">itkImageRegionConstIterator.h</text>
</a>
</g>
</g>
<!-- Node31&#45;&gt;Node32 -->
<g id="edge41" class="edge">
<title>Node31&#45;&gt;Node32</title>
<path fill="none" stroke="#191970" d="M1982.7269,-179.2967C1982.8691,-169.7699 1983.0538,-157.3954 1983.207,-147.1306"/>
<polygon fill="#191970" stroke="#191970" points="1986.7077,-147.1061 1983.3574,-137.055 1979.7084,-147.0016 1986.7077,-147.1061"/>
</g>
<!-- Node33&#45;&gt;Node7 -->
<g id="edge43" class="edge">
<title>Node33&#45;&gt;Node7</title>
<path fill="none" stroke="#191970" d="M2075.3842,-180.3185C2072.387,-179.8595 2069.4177,-179.4181 2066.5,-179 1922.6417,-158.3847 1883.6852,-173.0595 1741.5,-143 1737.5376,-142.1623 1733.4399,-141.1344 1729.3795,-140.01"/>
<polygon fill="#191970" stroke="#191970" points="1730.0434,-136.5564 1719.4611,-137.07 1728.054,-143.2677 1730.0434,-136.5564"/>
</g>
<!-- Node34 -->
<g id="node34" class="node">
<title>Node34</title>
<g id="a_node34"><a xlink:title=" ">
<polygon fill="#ffffff" stroke="#bfbfbf" points="2084,-118 2084,-137 2257,-137 2257,-118 2084,-118"/>
<text text-anchor="middle" x="2170.5" y="-125" font-family="Helvetica,sans-Serif" font-size="10.00" fill="#000000">itkImageScanlineConstIterator.h</text>
</a>
</g>
</g>
<!-- Node33&#45;&gt;Node34 -->
<g id="edge44" class="edge">
<title>Node33&#45;&gt;Node34</title>
<path fill="none" stroke="#191970" d="M2158.1306,-179.2967C2160.4299,-169.6685 2163.4238,-157.1318 2165.8901,-146.8038"/>
<polygon fill="#191970" stroke="#191970" points="2169.2997,-147.5945 2168.2182,-137.055 2162.4911,-145.9685 2169.2997,-147.5945"/>
</g>
<!-- Node35&#45;&gt;Node7 -->
<g id="edge46" class="edge">
<title>Node35&#45;&gt;Node7</title>
<path fill="none" stroke="#191970" d="M2251.4035,-180.1736C2248.4009,-179.7552 2245.4252,-179.3617 2242.5,-179 2020.9469,-151.6016 1960.7633,-184.9527 1741.5,-143 1737.2607,-142.1889 1732.8739,-141.1308 1728.5466,-139.9481"/>
<polygon fill="#191970" stroke="#191970" points="1729.2376,-136.5026 1718.6554,-137.0199 1727.2505,-143.2147 1729.2376,-136.5026"/>
</g>
<!-- Node36 -->
<g id="node36" class="node">
<title>Node36</title>
<g id="a_node36"><a xlink:title=" ">
<polygon fill="#ffffff" stroke="#bfbfbf" points="2275.5,-118 2275.5,-137 2421.5,-137 2421.5,-118 2275.5,-118"/>
<text text-anchor="middle" x="2348.5" y="-125" font-family="Helvetica,sans-Serif" font-size="10.00" fill="#000000">itkImageScanlineIterator.h</text>
</a>
</g>
</g>
<!-- Node35&#45;&gt;Node36 -->
<g id="edge47" class="edge">
<title>Node35&#45;&gt;Node36</title>
<path fill="none" stroke="#191970" d="M2334.5845,-179.2967C2337.1711,-169.6685 2340.5392,-157.1318 2343.3139,-146.8038"/>
<polygon fill="#191970" stroke="#191970" points="2346.7185,-147.6206 2345.933,-137.055 2339.9582,-145.8044 2346.7185,-147.6206"/>
</g>
<!-- Node37&#45;&gt;Node7 -->
<g id="edge49" class="edge">
<title>Node37&#45;&gt;Node7</title>
<path fill="none" stroke="#191970" d="M2458.6982,-184.9948C2445.7034,-182.708 2431.6008,-180.4965 2418.5,-179 2119.1328,-144.8033 2037.9595,-196.8689 1741.5,-143 1737.0846,-142.1977 1732.5128,-141.1123 1728.0164,-139.8861"/>
<polygon fill="#191970" stroke="#191970" points="1728.9659,-136.5171 1718.3836,-137.0319 1726.9772,-143.2287 1728.9659,-136.5171"/>
</g>
<!-- Node38 -->
<g id="node38" class="node">
<title>Node38</title>
<g id="a_node38"><a xlink:title=" ">
<polygon fill="#ffffff" stroke="#bfbfbf" points="2455.5,-118 2455.5,-137 2557.5,-137 2557.5,-118 2455.5,-118"/>
<text text-anchor="middle" x="2506.5" y="-125" font-family="Helvetica,sans-Serif" font-size="10.00" fill="#000000">itkImageSource.h</text>
</a>
</g>
</g>
<!-- Node37&#45;&gt;Node38 -->
<g id="edge50" class="edge">
<title>Node37&#45;&gt;Node38</title>
<path fill="none" stroke="#191970" d="M2506.5,-184.9005C2506.5,-175.149 2506.5,-159.7597 2506.5,-147.3695"/>
<polygon fill="#191970" stroke="#191970" points="2510.0001,-147.0816 2506.5,-137.0817 2503.0001,-147.0817 2510.0001,-147.0816"/>
</g>
<!-- Node39&#45;&gt;Node7 -->
<g id="edge52" class="edge">
<title>Node39&#45;&gt;Node7</title>
<path fill="none" stroke="#191970" d="M2603.3791,-179.9394C2600.7245,-179.5992 2598.0926,-179.2843 2595.5,-179 2217.871,-137.5905 2115.64,-208.8612 1741.5,-143 1737.0295,-142.213 1732.4006,-141.1267 1727.8529,-139.8911"/>
<polygon fill="#191970" stroke="#191970" points="1728.7022,-136.4924 1718.1198,-137.0058 1726.7126,-143.2037 1728.7022,-136.4924"/>
</g>
<!-- Node40 -->
<g id="node40" class="node">
<title>Node40</title>
<g id="a_node40"><a xlink:title=" ">
<polygon fill="#ffffff" stroke="#bfbfbf" points="2615.5,-118 2615.5,-137 2749.5,-137 2749.5,-118 2615.5,-118"/>
<text text-anchor="middle" x="2682.5" y="-125" font-family="Helvetica,sans-Serif" font-size="10.00" fill="#000000">itkImageToImageFilter.h</text>
</a>
</g>
</g>
<!-- Node39&#45;&gt;Node40 -->
<g id="edge53" class="edge">
<title>Node39&#45;&gt;Node40</title>
<path fill="none" stroke="#191970" d="M2682.5,-179.2967C2682.5,-169.7699 2682.5,-157.3954 2682.5,-147.1306"/>
<polygon fill="#191970" stroke="#191970" points="2686.0001,-147.0549 2682.5,-137.055 2679.0001,-147.055 2686.0001,-147.0549"/>
</g>
<!-- Node41&#45;&gt;Node7 -->
<g id="edge55" class="edge">
<title>Node41&#45;&gt;Node7</title>
<path fill="none" stroke="#191970" d="M2779.1208,-180.031C2776.2147,-179.6525 2773.3336,-179.3063 2770.5,-179 2315.5369,-129.8234 2192.4646,-220.7218 1741.5,-143 1737.0267,-142.229 1732.3961,-141.1524 1727.8475,-139.9219"/>
<polygon fill="#191970" stroke="#191970" points="1728.6957,-136.5229 1718.1136,-137.0416 1726.7095,-143.2352 1728.6957,-136.5229"/>
</g>
<!-- Node42 -->
<g id="node42" class="node">
<title>Node42</title>
<g id="a_node42"><a xlink:title=" ">
<polygon fill="#ffffff" stroke="#bfbfbf" points="2791.5,-118 2791.5,-137 2919.5,-137 2919.5,-118 2791.5,-118"/>
<text text-anchor="middle" x="2855.5" y="-125" font-family="Helvetica,sans-Serif" font-size="10.00" fill="#000000">itkInPlaceImageFilter.h</text>
</a>
</g>
</g>
<!-- Node41&#45;&gt;Node42 -->
<g id="edge56" class="edge">
<title>Node41&#45;&gt;Node42</title>
<path fill="none" stroke="#191970" d="M2855.5,-179.2967C2855.5,-169.7699 2855.5,-157.3954 2855.5,-147.1306"/>
<polygon fill="#191970" stroke="#191970" points="2859.0001,-147.0549 2855.5,-137.055 2852.0001,-147.055 2859.0001,-147.0549"/>
</g>
<!-- Node43&#45;&gt;Node7 -->
<g id="edge58" class="edge">
<title>Node43&#45;&gt;Node7</title>
<path fill="none" stroke="#191970" d="M2949.1351,-179.96C2946.2248,-179.6079 2943.3396,-179.2857 2940.5,-179 2675.2747,-152.313 2004.3031,-187.6228 1741.5,-143 1737.0248,-142.2401 1732.3931,-141.1701 1727.8439,-139.9433"/>
<polygon fill="#191970" stroke="#191970" points="1728.6913,-136.5441 1718.1093,-137.0664 1726.7073,-143.2571 1728.6913,-136.5441"/>
</g>
<!-- Node44 -->
<g id="node44" class="node">
<title>Node44</title>
<g id="a_node44"><a xlink:title=" ">
<polygon fill="#ffffff" stroke="#bfbfbf" points="2961.5,-118 2961.5,-137 3099.5,-137 3099.5,-118 2961.5,-118"/>
<text text-anchor="middle" x="3030.5" y="-125" font-family="Helvetica,sans-Serif" font-size="10.00" fill="#000000">itkComposeImageFilter.h</text>
</a>
</g>
</g>
<!-- Node43&#45;&gt;Node44 -->
<g id="edge59" class="edge">
<title>Node43&#45;&gt;Node44</title>
<path fill="none" stroke="#191970" d="M3030.5,-179.2967C3030.5,-169.7699 3030.5,-157.3954 3030.5,-147.1306"/>
<polygon fill="#191970" stroke="#191970" points="3034.0001,-147.0549 3030.5,-137.055 3027.0001,-147.055 3034.0001,-147.0549"/>
</g>
<!-- Node45&#45;&gt;Node7 -->
<g id="edge61" class="edge">
<title>Node45&#45;&gt;Node7</title>
<path fill="none" stroke="#191970" d="M3129.2692,-180.054C3126.3128,-179.6623 3123.3812,-179.3079 3120.5,-179 2815.6867,-146.4264 2043.8231,-193.7243 1741.5,-143 1736.9724,-142.2404 1732.2854,-141.1599 1727.6859,-139.9183"/>
<polygon fill="#191970" stroke="#191970" points="1728.435,-136.4899 1717.8527,-137.0049 1726.4464,-143.2015 1728.435,-136.4899"/>
</g>
<!-- Node46 -->
<g id="node46" class="node">
<title>Node46</title>
<g id="a_node46"><a xlink:title=" ">
<polygon fill="#ffffff" stroke="#bfbfbf" points="3125.5,-112.5 3125.5,-142.5 3279.5,-142.5 3279.5,-112.5 3125.5,-112.5"/>
<text text-anchor="start" x="3133.5" y="-130.5" font-family="Helvetica,sans-Serif" font-size="10.00" fill="#000000">itkVectorIndexSelectionCast</text>
<text text-anchor="middle" x="3202.5" y="-119.5" font-family="Helvetica,sans-Serif" font-size="10.00" fill="#000000">ImageFilter.h</text>
</a>
</g>
</g>
<!-- Node45&#45;&gt;Node46 -->
<g id="edge62" class="edge">
<title>Node45&#45;&gt;Node46</title>
<path fill="none" stroke="#191970" d="M3202.5,-179.2967C3202.5,-171.5013 3202.5,-161.7991 3202.5,-152.9064"/>
<polygon fill="#191970" stroke="#191970" points="3206.0001,-152.6431 3202.5,-142.6432 3199.0001,-152.6432 3206.0001,-152.6431"/>
</g>
</g>
</svg>
        <g id="navigator" transform="translate(0 0)" fill="#404254">
                <rect fill="#f2f5e9" fill-opacity="0.5" stroke="#606060" stroke-width=".5" x="0" y="0" width="60" height="60"/>
                <use id="zoomplus" xlink:href="#zoomPlus" x="17" y="9" onmousedown="handleZoom(evt,'in')"/>
                <use id="zoomminus" xlink:href="#zoomMin" x="42" y="9" onmousedown="handleZoom(evt,'out')"/>
                <use id="reset" xlink:href="#resetDef" x="30" y="36" onmousedown="handleReset()"/>
                <g id="arrowUp" xlink:href="#dirArrow" transform="translate(30 24)" onmousedown="handlePan(0,-1)">
                  <use xlink:href="#rim" fill="#404040">
                        <set attributeName="fill" to="#808080" begin="arrowUp.mouseover" end="arrowUp.mouseout"/>
                  </use>
                  <path fill="none" stroke="white" stroke-width="1.5" d="M0,-3.0v7 M-2.5,-0.5L0,-3.0L2.5,-0.5"/>
                </g>
                <g id="arrowRight" xlink:href="#dirArrow" transform="rotate(90) translate(36 -43)" onmousedown="handlePan(1,0)">
                  <use xlink:href="#rim" fill="#404040">
                        <set attributeName="fill" to="#808080" begin="arrowRight.mouseover" end="arrowRight.mouseout"/>
                  </use>
                  <path fill="none" stroke="white" stroke-width="1.5" d="M0,-3.0v7 M-2.5,-0.5L0,-3.0L2.5,-0.5"/>
                </g>
                <g id="arrowDown" xlink:href="#dirArrow" transform="rotate(180) translate(-30 -48)" onmousedown="handlePan(0,1)">
                  <use xlink:href="#rim" fill="#404040">
                        <set attributeName="fill" to="#808080" begin="arrowDown.mouseover" end="arrowDown.mouseout"/>
                  </use>
                  <path fill="none" stroke="white" stroke-width="1.5" d="M0,-3.0v7 M-2.5,-0.5L0,-3.0L2.5,-0.5"/>
                </g>
                <g id="arrowLeft" xlink:href="#dirArrow" transform="rotate(270) translate(-36 17)" onmousedown="handlePan(-1,0)">
                  <use xlink:href="#rim" fill="#404040">
                        <set attributeName="fill" to="#808080" begin="arrowLeft.mouseover" end="arrowLeft.mouseout"/>
                  </use>
                  <path fill="none" stroke="white" stroke-width="1.5" d="M0,-3.0v7 M-2.5,-0.5L0,-3.0L2.5,-0.5"/>
                </g>
        </g>
        <svg viewBox="0 0 15 15" width="100%" height="30px" preserveAspectRatio="xMaxYMin meet">
         <g id="arrow_out" transform="scale(0.3 0.3)">
          <a xlink:href="sitkExplicitITK_8h__incl_org.svg" target="_base">
           <rect id="button" ry="5" rx="5" y="6" x="6" height="38" width="38"
                fill="#f2f5e9" fill-opacity="0.5" stroke="#606060" stroke-width="1.0"/>
           <path id="arrow"
             d="M 11.500037,31.436501 C 11.940474,20.09759 22.043105,11.32322 32.158766,21.979434 L 37.068811,17.246167 C 37.068811,17.246167 37.088388,32 37.088388,32 L 22.160133,31.978069 C 22.160133,31.978069 26.997745,27.140456 26.997745,27.140456 C 18.528582,18.264221 13.291696,25.230495 11.500037,31.436501 z"
             style="fill:#404040;"/>
          </a>
         </g>
        </svg>
</svg>
