<?xml version="1.0" encoding="UTF-8" standalone="no"?>
<!DOCTYPE svg PUBLIC "-//W3C//DTD SVG 1.1//EN"
 "http://www.w3.org/Graphics/SVG/1.1/DTD/svg11.dtd">
<!-- Generated by graphviz version 2.40.1 (20161225.0304)
 -->
<!-- Title: sitkPixelIDTokens.h Pages: 1 -->
<svg width="4635pt" height="386pt"
 viewBox="0.00 0.00 4634.77 386.00" xmlns="http://www.w3.org/2000/svg" xmlns:xlink="http://www.w3.org/1999/xlink">
<g id="graph0" class="graph" transform="scale(1 1) rotate(0) translate(4 382)">
<title>sitkPixelIDTokens.h</title>
<polygon fill="#ffffff" stroke="transparent" points="-4,4 -4,-382 4630.7702,-382 4630.7702,4 -4,4"/>
<!-- Node1 -->
<g id="node1" class="node">
<title>Node1</title>
<g id="a_node1"><a xlink:title=" ">
<polygon fill="#bfbfbf" stroke="#000000" points="3739.2702,-358.5 3739.2702,-377.5 3851.2702,-377.5 3851.2702,-358.5 3739.2702,-358.5"/>
<text text-anchor="middle" x="3795.2702" y="-365.5" font-family="Helvetica,sans-Serif" font-size="10.00" fill="#000000">sitkPixelIDTokens.h</text>
</a>
</g>
</g>
<!-- Node2 -->
<g id="node2" class="node">
<title>Node2</title>
<g id="a_node2"><a xlink:href="sitkCastImageFilter_8h.html" target="_top" xlink:title=" ">
<polygon fill="#ffffff" stroke="#000000" points="1121.7702,-62 1121.7702,-81 1240.7702,-81 1240.7702,-62 1121.7702,-62"/>
<text text-anchor="middle" x="1181.2702" y="-69" font-family="Helvetica,sans-Serif" font-size="10.00" fill="#000000">sitkCastImageFilter.h</text>
</a>
</g>
</g>
<!-- Node1&#45;&gt;Node2 -->
<g id="edge1" class="edge">
<title>Node1&#45;&gt;Node2</title>
<path fill="none" stroke="#191970" d="M3729.1251,-367.8434C3382.2825,-366.5985 1789.2702,-355.4669 1789.2702,-256 1789.2702,-256 1789.2702,-256 1789.2702,-200 1789.2702,-77.6183 1369.8651,-112.9678 1250.2702,-87 1241.5115,-85.0982 1232.1374,-83.0207 1223.211,-81.0223"/>
<polygon fill="#191970" stroke="#191970" points="3729.2487,-371.3437 3739.2607,-367.8782 3729.2728,-364.3438 3729.2487,-371.3437"/>
</g>
<!-- Node4 -->
<g id="node4" class="node">
<title>Node4</title>
<g id="a_node4"><a xlink:href="sitkImage_8h.html" target="_top" xlink:title=" ">
<polygon fill="#ffffff" stroke="#000000" points="3834.2702,-302.5 3834.2702,-321.5 3908.2702,-321.5 3908.2702,-302.5 3834.2702,-302.5"/>
<text text-anchor="middle" x="3871.2702" y="-309.5" font-family="Helvetica,sans-Serif" font-size="10.00" fill="#000000">sitkImage.h</text>
</a>
</g>
</g>
<!-- Node1&#45;&gt;Node4 -->
<g id="edge3" class="edge">
<title>Node1&#45;&gt;Node4</title>
<path fill="none" stroke="#191970" d="M3816.6998,-352.2097C3830.0479,-342.3743 3846.7881,-330.0394 3858.1837,-321.6427"/>
<polygon fill="#191970" stroke="#191970" points="3814.4827,-349.4958 3808.5084,-358.2455 3818.6351,-355.1312 3814.4827,-349.4958"/>
</g>
<!-- Node321 -->
<g id="node39" class="node">
<title>Node321</title>
<g id="a_node39"><a xlink:href="sitkImageRegistrationMethod_8h.html" target="_top" xlink:title=" ">
<polygon fill="#ffffff" stroke="#000000" points="3617.7702,-129 3617.7702,-148 3786.7702,-148 3786.7702,-129 3617.7702,-129"/>
<text text-anchor="middle" x="3702.2702" y="-136" font-family="Helvetica,sans-Serif" font-size="10.00" fill="#000000">sitkImageRegistrationMethod.h</text>
</a>
</g>
</g>
<!-- Node1&#45;&gt;Node321 -->
<g id="edge116" class="edge">
<title>Node1&#45;&gt;Node321</title>
<path fill="none" stroke="#191970" d="M3787.5194,-348.8731C3768.5328,-302.0192 3720.2241,-182.8056 3706.1644,-148.11"/>
<polygon fill="#191970" stroke="#191970" points="3784.393,-350.4774 3791.3925,-358.4309 3790.8806,-347.8484 3784.393,-350.4774"/>
</g>
<!-- Node332 -->
<g id="node50" class="node">
<title>Node332</title>
<g id="a_node50"><a xlink:href="sitkPimpleImageBase_8h.html" target="_top" xlink:title=" ">
<polygon fill="#ffffff" stroke="#000000" points="3926.2702,-302.5 3926.2702,-321.5 4058.2702,-321.5 4058.2702,-302.5 3926.2702,-302.5"/>
<text text-anchor="middle" x="3992.2702" y="-309.5" font-family="Helvetica,sans-Serif" font-size="10.00" fill="#000000">sitkPimpleImageBase.h</text>
</a>
</g>
</g>
<!-- Node1&#45;&gt;Node332 -->
<g id="edge115" class="edge">
<title>Node1&#45;&gt;Node332</title>
<path fill="none" stroke="#191970" d="M3838.9331,-355.5882C3875.1271,-345.2996 3925.8196,-330.8895 3958.8466,-321.5011"/>
<polygon fill="#191970" stroke="#191970" points="3837.7976,-352.2723 3829.1357,-358.3733 3839.7116,-359.0055 3837.7976,-352.2723"/>
</g>
<!-- Node3 -->
<g id="node3" class="node">
<title>Node3</title>
<g id="a_node3"><a xlink:href="SimpleITK_8h.html" target="_top" xlink:title=" ">
<polygon fill="#ffffff" stroke="#000000" points="1287.7702,-.5 1287.7702,-19.5 1362.7702,-19.5 1362.7702,-.5 1287.7702,-.5"/>
<text text-anchor="middle" x="1325.2702" y="-7.5" font-family="Helvetica,sans-Serif" font-size="10.00" fill="#000000">SimpleITK.h</text>
</a>
</g>
</g>
<!-- Node2&#45;&gt;Node3 -->
<g id="edge2" class="edge">
<title>Node2&#45;&gt;Node3</title>
<path fill="none" stroke="#191970" d="M1213.248,-57.8428C1240.4766,-46.2139 1278.8972,-29.8051 1302.9282,-19.5419"/>
<polygon fill="#191970" stroke="#191970" points="1211.5919,-54.7442 1203.7702,-61.8906 1214.3413,-61.1817 1211.5919,-54.7442"/>
</g>
<!-- Node4&#45;&gt;Node3 -->
<g id="edge8" class="edge">
<title>Node4&#45;&gt;Node3</title>
<path fill="none" stroke="#191970" d="M3823.9887,-311.711C3413.7582,-309.1645 468.0863,-290.0788 284.2702,-266 165.6324,-250.4592 23.2702,-319.6513 23.2702,-200 23.2702,-200 23.2702,-200 23.2702,-138.5 23.2702,-106.5857 -83.4249,-124.4405 166.2702,-56 276.3632,-25.8239 1100.7091,-13.0155 1287.6478,-10.4825"/>
<polygon fill="#191970" stroke="#191970" points="3824.0056,-315.2111 3834.0271,-311.7732 3824.049,-308.2112 3824.0056,-315.2111"/>
</g>
<!-- Node5 -->
<g id="node5" class="node">
<title>Node5</title>
<g id="a_node5"><a xlink:href="sitkAdditionalProcedures_8h.html" target="_top" xlink:title=" ">
<polygon fill="#ffffff" stroke="#000000" points="51.7702,-129 51.7702,-148 198.7702,-148 198.7702,-129 51.7702,-129"/>
<text text-anchor="middle" x="125.2702" y="-136" font-family="Helvetica,sans-Serif" font-size="10.00" fill="#000000">sitkAdditionalProcedures.h</text>
</a>
</g>
</g>
<!-- Node4&#45;&gt;Node5 -->
<g id="edge4" class="edge">
<title>Node4&#45;&gt;Node5</title>
<path fill="none" stroke="#191970" d="M3824.0817,-311.947C3558.2683,-311.4942 2220.8528,-307.1762 1129.2702,-266 917.0562,-257.995 360.6534,-313.5951 175.2702,-210 150.4114,-196.1085 135.0986,-164.0597 128.7176,-148.0139"/>
<polygon fill="#191970" stroke="#191970" points="3824.1527,-315.447 3834.1584,-311.9631 3824.164,-308.447 3824.1527,-315.447"/>
</g>
<!-- Node6 -->
<g id="node6" class="node">
<title>Node6</title>
<g id="a_node6"><a xlink:href="sitkHashImageFilter_8h.html" target="_top" xlink:title=" ">
<polygon fill="#ffffff" stroke="#000000" points="3385.2702,-62 3385.2702,-81 3507.2702,-81 3507.2702,-62 3385.2702,-62"/>
<text text-anchor="middle" x="3446.2702" y="-69" font-family="Helvetica,sans-Serif" font-size="10.00" fill="#000000">sitkHashImageFilter.h</text>
</a>
</g>
</g>
<!-- Node4&#45;&gt;Node6 -->
<g id="edge6" class="edge">
<title>Node4&#45;&gt;Node6</title>
<path fill="none" stroke="#191970" d="M3823.6372,-308.8401C3678.8189,-298.1477 3248.5746,-258.0083 3165.2702,-154 3070.0451,-35.1085 3013.6744,-158.0327 3376.2702,-87 3385.5535,-85.1814 3395.4943,-83.0765 3404.884,-81.0156"/>
<polygon fill="#191970" stroke="#191970" points="3823.7365,-312.3563 3833.9633,-309.588 3824.2423,-305.3746 3823.7365,-312.3563"/>
</g>
<!-- Node7 -->
<g id="node7" class="node">
<title>Node7</title>
<g id="a_node7"><a xlink:href="sitkTransform_8h.html" target="_top" xlink:title=" ">
<polygon fill="#ffffff" stroke="#000000" points="1138.2702,-246.5 1138.2702,-265.5 1230.2702,-265.5 1230.2702,-246.5 1138.2702,-246.5"/>
<text text-anchor="middle" x="1184.2702" y="-253.5" font-family="Helvetica,sans-Serif" font-size="10.00" fill="#000000">sitkTransform.h</text>
</a>
</g>
</g>
<!-- Node4&#45;&gt;Node7 -->
<g id="edge9" class="edge">
<title>Node4&#45;&gt;Node7</title>
<path fill="none" stroke="#191970" d="M3823.9152,-311.0131C3495.0639,-304.1595 1555.2212,-263.731 1230.4001,-256.9614"/>
<polygon fill="#191970" stroke="#191970" points="3823.9833,-314.5152 3834.054,-311.2244 3824.1292,-307.5167 3823.9833,-314.5152"/>
</g>
<!-- Node4&#45;&gt;Node321 -->
<g id="edge114" class="edge">
<title>Node4&#45;&gt;Node321</title>
<path fill="none" stroke="#191970" d="M3854.856,-295.1488C3819.9764,-259.3404 3739.4125,-176.6314 3711.7766,-148.2595"/>
<polygon fill="#191970" stroke="#191970" points="3852.4585,-297.7035 3861.9433,-302.4248 3857.4729,-292.8192 3852.4585,-297.7035"/>
</g>
<!-- Node322 -->
<g id="node40" class="node">
<title>Node322</title>
<g id="a_node40"><a xlink:href="sitkProcessObject_8h.html" target="_top" xlink:title=" ">
<polygon fill="#ffffff" stroke="#000000" points="3927.7702,-190.5 3927.7702,-209.5 4040.7702,-209.5 4040.7702,-190.5 3927.7702,-190.5"/>
<text text-anchor="middle" x="3984.2702" y="-197.5" font-family="Helvetica,sans-Serif" font-size="10.00" fill="#000000">sitkProcessObject.h</text>
</a>
</g>
</g>
<!-- Node4&#45;&gt;Node322 -->
<g id="edge83" class="edge">
<title>Node4&#45;&gt;Node322</title>
<path fill="none" stroke="#191970" d="M3918.4626,-300.7213C3967.4243,-288.7964 4037.4236,-271.0257 4041.2702,-266 4057.2814,-245.0804 4025.1948,-222.1081 4002.9966,-209.5377"/>
<polygon fill="#191970" stroke="#191970" points="3917.5641,-297.3376 3908.6712,-303.0966 3919.2145,-304.1403 3917.5641,-297.3376"/>
</g>
<!-- Node324 -->
<g id="node42" class="node">
<title>Node324</title>
<g id="a_node42"><a xlink:href="sitkImageFileReader_8h.html" target="_top" xlink:title=" ">
<polygon fill="#ffffff" stroke="#000000" points="3715.2702,-62 3715.2702,-81 3839.2702,-81 3839.2702,-62 3715.2702,-62"/>
<text text-anchor="middle" x="3777.2702" y="-69" font-family="Helvetica,sans-Serif" font-size="10.00" fill="#000000">sitkImageFileReader.h</text>
</a>
</g>
</g>
<!-- Node4&#45;&gt;Node324 -->
<g id="edge107" class="edge">
<title>Node4&#45;&gt;Node324</title>
<path fill="none" stroke="#191970" d="M3863.8067,-292.9048C3844.797,-244.2682 3795.0657,-117.0302 3781.0158,-81.0833"/>
<polygon fill="#191970" stroke="#191970" points="3860.5686,-294.2345 3867.4688,-302.2742 3867.0883,-291.6862 3860.5686,-294.2345"/>
</g>
<!-- Node325 -->
<g id="node43" class="node">
<title>Node325</title>
<g id="a_node43"><a xlink:href="sitkImageSeriesReader_8h.html" target="_top" xlink:title=" ">
<polygon fill="#ffffff" stroke="#000000" points="3857.7702,-62 3857.7702,-81 3994.7702,-81 3994.7702,-62 3857.7702,-62"/>
<text text-anchor="middle" x="3926.2702" y="-69" font-family="Helvetica,sans-Serif" font-size="10.00" fill="#000000">sitkImageSeriesReader.h</text>
</a>
</g>
</g>
<!-- Node4&#45;&gt;Node325 -->
<g id="edge109" class="edge">
<title>Node4&#45;&gt;Node325</title>
<path fill="none" stroke="#191970" d="M3874.4217,-292.3251C3880.1349,-257.7695 3893.1203,-184.0468 3909.2702,-123 3913.1712,-108.2542 3918.9426,-91.5478 3922.6551,-81.2671"/>
<polygon fill="#191970" stroke="#191970" points="3870.9229,-292.0348 3872.7689,-302.4676 3877.8318,-293.1607 3870.9229,-292.0348"/>
</g>
<!-- Node326 -->
<g id="node44" class="node">
<title>Node326</title>
<g id="a_node44"><a xlink:href="sitkImportImageFilter_8h.html" target="_top" xlink:title=" ">
<polygon fill="#ffffff" stroke="#000000" points="4013.2702,-62 4013.2702,-81 4143.2702,-81 4143.2702,-62 4013.2702,-62"/>
<text text-anchor="middle" x="4078.2702" y="-69" font-family="Helvetica,sans-Serif" font-size="10.00" fill="#000000">sitkImportImageFilter.h</text>
</a>
</g>
</g>
<!-- Node4&#45;&gt;Node326 -->
<g id="edge112" class="edge">
<title>Node4&#45;&gt;Node326</title>
<path fill="none" stroke="#191970" d="M3918.5264,-301.7251C3972.0849,-289.8709 4052.6189,-271.3251 4057.2702,-266 4105.0836,-211.2591 4087.6336,-112.1232 4080.6208,-81.0677"/>
<polygon fill="#191970" stroke="#191970" points="3917.5463,-298.357 3908.5346,-303.9283 3919.0537,-305.1928 3917.5463,-298.357"/>
</g>
<!-- Node327 -->
<g id="node45" class="node">
<title>Node327</title>
<g id="a_node45"><a xlink:href="sitkImageFileWriter_8h.html" target="_top" xlink:title=" ">
<polygon fill="#ffffff" stroke="#000000" points="4144.7702,-129 4144.7702,-148 4263.7702,-148 4263.7702,-129 4144.7702,-129"/>
<text text-anchor="middle" x="4204.2702" y="-136" font-family="Helvetica,sans-Serif" font-size="10.00" fill="#000000">sitkImageFileWriter.h</text>
</a>
</g>
</g>
<!-- Node4&#45;&gt;Node327 -->
<g id="edge108" class="edge">
<title>Node4&#45;&gt;Node327</title>
<path fill="none" stroke="#191970" d="M3918.4984,-301.9232C4006.1926,-286.5969 4040.4865,-311.4209 4112.2702,-266 4159.5566,-236.0797 4190.1059,-172.3192 4200.4012,-148.1021"/>
<polygon fill="#191970" stroke="#191970" points="3917.5866,-298.5332 3908.4062,-303.8219 3918.8809,-305.4125 3917.5866,-298.5332"/>
</g>
<!-- Node328 -->
<g id="node46" class="node">
<title>Node328</title>
<g id="a_node46"><a xlink:href="sitkImageSeriesWriter_8h.html" target="_top" xlink:title=" ">
<polygon fill="#ffffff" stroke="#000000" points="4281.7702,-129 4281.7702,-148 4414.7702,-148 4414.7702,-129 4281.7702,-129"/>
<text text-anchor="middle" x="4348.2702" y="-136" font-family="Helvetica,sans-Serif" font-size="10.00" fill="#000000">sitkImageSeriesWriter.h</text>
</a>
</g>
</g>
<!-- Node4&#45;&gt;Node328 -->
<g id="edge110" class="edge">
<title>Node4&#45;&gt;Node328</title>
<path fill="none" stroke="#191970" d="M3918.4278,-301.908C4016.58,-284.4982 4047.293,-299.1376 4137.2702,-266 4219.6047,-235.6771 4305.3792,-172.1588 4336.2873,-148.0541"/>
<polygon fill="#191970" stroke="#191970" points="3917.5937,-298.5026 3908.3935,-303.7568 3918.8621,-305.3868 3917.5937,-298.5026"/>
</g>
<!-- Node329 -->
<g id="node47" class="node">
<title>Node329</title>
<g id="a_node47"><a xlink:href="sitkImageViewer_8h.html" target="_top" xlink:title=" ">
<polygon fill="#ffffff" stroke="#000000" points="4432.7702,-129 4432.7702,-148 4539.7702,-148 4539.7702,-129 4432.7702,-129"/>
<text text-anchor="middle" x="4486.2702" y="-136" font-family="Helvetica,sans-Serif" font-size="10.00" fill="#000000">sitkImageViewer.h</text>
</a>
</g>
</g>
<!-- Node4&#45;&gt;Node329 -->
<g id="edge111" class="edge">
<title>Node4&#45;&gt;Node329</title>
<path fill="none" stroke="#191970" d="M3918.5321,-301.9087C4032.2481,-282.5466 4065.4735,-295.0537 4173.2702,-266 4289.1277,-234.7738 4419.6183,-172.0752 4467.4316,-148.1126"/>
<polygon fill="#191970" stroke="#191970" points="3917.6274,-298.5137 3908.3802,-303.6847 3918.8337,-305.409 3917.6274,-298.5137"/>
</g>
<!-- Node330 -->
<g id="node48" class="node">
<title>Node330</title>
<g id="a_node48"><a xlink:href="sitkShow_8h.html" target="_top" xlink:title=" ">
<polygon fill="#ffffff" stroke="#000000" points="4557.7702,-129 4557.7702,-148 4626.7702,-148 4626.7702,-129 4557.7702,-129"/>
<text text-anchor="middle" x="4592.2702" y="-136" font-family="Helvetica,sans-Serif" font-size="10.00" fill="#000000">sitkShow.h</text>
</a>
</g>
</g>
<!-- Node4&#45;&gt;Node330 -->
<g id="edge113" class="edge">
<title>Node4&#45;&gt;Node330</title>
<path fill="none" stroke="#191970" d="M3918.5671,-301.9342C4051.9868,-280.4225 4090.073,-295.0251 4218.2702,-266 4369.7409,-231.7056 4402.6563,-205.2238 4549.2702,-154 4554.664,-152.1155 4560.4251,-150.065 4565.9204,-148.0909"/>
<polygon fill="#191970" stroke="#191970" points="3917.6648,-298.5357 3908.3686,-303.6183 3918.8053,-305.4422 3917.6648,-298.5357"/>
</g>
<!-- Node331 -->
<g id="node49" class="node">
<title>Node331</title>
<g id="a_node49"><a xlink:href="sitkImageConvert_8h.html" target="_top" xlink:title=" ">
<polygon fill="#ffffff" stroke="#000000" points="3918.7702,-246.5 3918.7702,-265.5 4031.7702,-265.5 4031.7702,-246.5 3918.7702,-246.5"/>
<text text-anchor="middle" x="3975.2702" y="-253.5" font-family="Helvetica,sans-Serif" font-size="10.00" fill="#000000">sitkImageConvert.h</text>
</a>
</g>
</g>
<!-- Node4&#45;&gt;Node331 -->
<g id="edge105" class="edge">
<title>Node4&#45;&gt;Node331</title>
<path fill="none" stroke="#191970" d="M3898.273,-297.46C3916.8838,-287.4388 3941.1,-274.3993 3957.3623,-265.6427"/>
<polygon fill="#191970" stroke="#191970" points="3896.5309,-294.4228 3889.3856,-302.2455 3899.8497,-300.5861 3896.5309,-294.4228"/>
</g>
<!-- Node5&#45;&gt;Node3 -->
<g id="edge5" class="edge">
<title>Node5&#45;&gt;Node3</title>
<path fill="none" stroke="#191970" d="M137.9888,-120.5563C153.2767,-100.6522 180.9499,-69.56 213.2702,-56 263.8272,-34.7887 1099.0569,-15.0259 1287.6398,-10.8206"/>
<polygon fill="#191970" stroke="#191970" points="135.0119,-118.6946 131.864,-128.811 140.6335,-122.8658 135.0119,-118.6946"/>
</g>
<!-- Node6&#45;&gt;Node3 -->
<g id="edge7" class="edge">
<title>Node6&#45;&gt;Node3</title>
<path fill="none" stroke="#191970" d="M3399.4914,-59.8193C3391.777,-58.2751 3383.8313,-56.913 3376.2702,-56 3169.3052,-31.0089 1625.4373,-13.2545 1363.1039,-10.4028"/>
<polygon fill="#191970" stroke="#191970" points="3398.939,-63.28 3409.4477,-61.932 3400.392,-56.4324 3398.939,-63.28"/>
</g>
<!-- Node7&#45;&gt;Node3 -->
<g id="edge53" class="edge">
<title>Node7&#45;&gt;Node3</title>
<path fill="none" stroke="#191970" d="M1128.0925,-254.4971C951.5428,-249.5574 415.1482,-232.8238 340.2702,-210 285.8182,-193.4023 212.7197,-168.9876 246.2702,-123 303.761,-44.1973 359.3277,-73.6097 455.2702,-56 618.7285,-25.9981 1142.6197,-13.6084 1287.7099,-10.7011"/>
<polygon fill="#191970" stroke="#191970" points="1128.115,-257.999 1138.2084,-254.7782 1128.3096,-251.0017 1128.115,-257.999"/>
</g>
<!-- Node7&#45;&gt;Node5 -->
<g id="edge52" class="edge">
<title>Node7&#45;&gt;Node5</title>
<path fill="none" stroke="#191970" d="M1127.8609,-255.3766C933.4514,-252.9469 298.5607,-242.5745 213.2702,-210 178.6981,-196.7961 147.4448,-164.425 133.2807,-148.1595"/>
<polygon fill="#191970" stroke="#191970" points="1128.0959,-258.8797 1138.1381,-255.5028 1128.1818,-251.8802 1128.0959,-258.8797"/>
</g>
<!-- Node8 -->
<g id="node8" class="node">
<title>Node8</title>
<g id="a_node8"><a xlink:href="sitkBasicFilters_8h.html" target="_top" xlink:title=" ">
<polygon fill="#ffffff" stroke="#ff0000" points="2277.7702,-190.5 2277.7702,-209.5 2376.7702,-209.5 2376.7702,-190.5 2277.7702,-190.5"/>
<text text-anchor="middle" x="2327.2702" y="-197.5" font-family="Helvetica,sans-Serif" font-size="10.00" fill="#000000">sitkBasicFilters.h</text>
</a>
</g>
</g>
<!-- Node7&#45;&gt;Node8 -->
<g id="edge10" class="edge">
<title>Node7&#45;&gt;Node8</title>
<path fill="none" stroke="#191970" d="M1240.6062,-253.2399C1437.3031,-243.6029 2091.6542,-211.5437 2277.5989,-202.4336"/>
<polygon fill="#191970" stroke="#191970" points="1240.3095,-249.7501 1230.4928,-253.7354 1240.6521,-256.7417 1240.3095,-249.7501"/>
</g>
<!-- Node308 -->
<g id="node26" class="node">
<title>Node308</title>
<g id="a_node26"><a xlink:href="sitkBSplineTransform_8h.html" target="_top" xlink:title=" ">
<polygon fill="#ffffff" stroke="#000000" points="823.7702,-129 823.7702,-148 952.7702,-148 952.7702,-129 823.7702,-129"/>
<text text-anchor="middle" x="888.2702" y="-136" font-family="Helvetica,sans-Serif" font-size="10.00" fill="#000000">sitkBSplineTransform.h</text>
</a>
</g>
</g>
<!-- Node7&#45;&gt;Node308 -->
<g id="edge54" class="edge">
<title>Node7&#45;&gt;Node308</title>
<path fill="none" stroke="#191970" d="M1240.829,-252.4597C1304.4486,-246.4604 1394.3577,-230.6686 1357.2702,-190 1327.9469,-157.8453 1010.3442,-160.1973 967.2702,-154 956.0644,-152.3878 944.0408,-150.244 932.8388,-148.0665"/>
<polygon fill="#191970" stroke="#191970" points="1240.1284,-249.0078 1230.4747,-253.3732 1240.7437,-255.9807 1240.1284,-249.0078"/>
</g>
<!-- Node309 -->
<g id="node27" class="node">
<title>Node309</title>
<g id="a_node27"><a xlink:href="sitkDisplacementFieldTransform_8h.html" target="_top" xlink:title=" ">
<polygon fill="#ffffff" stroke="#000000" points="255.2702,-129 255.2702,-148 437.2702,-148 437.2702,-129 255.2702,-129"/>
<text text-anchor="middle" x="346.2702" y="-136" font-family="Helvetica,sans-Serif" font-size="10.00" fill="#000000">sitkDisplacementFieldTransform.h</text>
</a>
</g>
</g>
<!-- Node7&#45;&gt;Node309 -->
<g id="edge57" class="edge">
<title>Node7&#45;&gt;Node309</title>
<path fill="none" stroke="#191970" d="M1128.1076,-254.8413C946.2419,-250.8357 383.5307,-236.3542 355.2702,-210 338.2513,-194.1291 341.2119,-163.5763 344.1035,-148.0543"/>
<polygon fill="#191970" stroke="#191970" points="1128.1878,-258.3438 1138.2618,-255.0628 1128.3405,-251.3455 1128.1878,-258.3438"/>
</g>
<!-- Node310 -->
<g id="node28" class="node">
<title>Node310</title>
<g id="a_node28"><a xlink:href="sitkAffineTransform_8h.html" target="_top" xlink:title=" ">
<polygon fill="#ffffff" stroke="#000000" points="455.7702,-129 455.7702,-148 576.7702,-148 576.7702,-129 455.7702,-129"/>
<text text-anchor="middle" x="516.2702" y="-136" font-family="Helvetica,sans-Serif" font-size="10.00" fill="#000000">sitkAffineTransform.h</text>
</a>
</g>
</g>
<!-- Node7&#45;&gt;Node310 -->
<g id="edge59" class="edge">
<title>Node7&#45;&gt;Node310</title>
<path fill="none" stroke="#191970" d="M1127.8949,-254.9436C946.7126,-251.2765 389.5334,-237.776 363.2702,-210 357.1631,-203.5412 358.0833,-197.2187 363.2702,-190 370.3638,-180.1276 438.1188,-159.9817 481.0523,-148.0224"/>
<polygon fill="#191970" stroke="#191970" points="1127.9469,-258.4452 1138.0149,-255.146 1128.087,-251.4466 1127.9469,-258.4452"/>
</g>
<!-- Node311 -->
<g id="node29" class="node">
<title>Node311</title>
<g id="a_node29"><a xlink:href="sitkEuler2DTransform_8h.html" target="_top" xlink:title=" ">
<polygon fill="#ffffff" stroke="#000000" points="372.7702,-190.5 372.7702,-209.5 503.7702,-209.5 503.7702,-190.5 372.7702,-190.5"/>
<text text-anchor="middle" x="438.2702" y="-197.5" font-family="Helvetica,sans-Serif" font-size="10.00" fill="#000000">sitkEuler2DTransform.h</text>
</a>
</g>
</g>
<!-- Node7&#45;&gt;Node311 -->
<g id="edge61" class="edge">
<title>Node7&#45;&gt;Node311</title>
<path fill="none" stroke="#191970" d="M1128.1251,-253.4111C1012.6243,-247.8088 740.1093,-233.1671 512.2702,-210 509.5617,-209.7246 506.7996,-209.4271 504.011,-209.1129"/>
<polygon fill="#191970" stroke="#191970" points="1127.9915,-256.9086 1138.1483,-253.8936 1128.3282,-249.9167 1127.9915,-256.9086"/>
</g>
<!-- Node312 -->
<g id="node30" class="node">
<title>Node312</title>
<g id="a_node30"><a xlink:href="sitkEuler3DTransform_8h.html" target="_top" xlink:title=" ">
<polygon fill="#ffffff" stroke="#000000" points="521.7702,-190.5 521.7702,-209.5 652.7702,-209.5 652.7702,-190.5 521.7702,-190.5"/>
<text text-anchor="middle" x="587.2702" y="-197.5" font-family="Helvetica,sans-Serif" font-size="10.00" fill="#000000">sitkEuler3DTransform.h</text>
</a>
</g>
</g>
<!-- Node7&#45;&gt;Node312 -->
<g id="edge63" class="edge">
<title>Node7&#45;&gt;Node312</title>
<path fill="none" stroke="#191970" d="M1127.9639,-251.9126C1032.0381,-244.7556 830.8324,-228.9034 661.2702,-210 658.5645,-209.6984 655.8048,-209.3789 653.018,-209.0466"/>
<polygon fill="#191970" stroke="#191970" points="1127.7919,-255.4094 1138.0238,-252.6601 1128.3106,-248.4286 1127.7919,-255.4094"/>
</g>
<!-- Node313 -->
<g id="node31" class="node">
<title>Node313</title>
<g id="a_node31"><a xlink:href="sitkScaleTransform_8h.html" target="_top" xlink:title=" ">
<polygon fill="#ffffff" stroke="#000000" points="670.7702,-190.5 670.7702,-209.5 789.7702,-209.5 789.7702,-190.5 670.7702,-190.5"/>
<text text-anchor="middle" x="730.2702" y="-197.5" font-family="Helvetica,sans-Serif" font-size="10.00" fill="#000000">sitkScaleTransform.h</text>
</a>
</g>
</g>
<!-- Node7&#45;&gt;Node313 -->
<g id="edge65" class="edge">
<title>Node7&#45;&gt;Node313</title>
<path fill="none" stroke="#191970" d="M1127.9781,-249.7808C1052.761,-241.3589 915.3541,-225.5826 798.2702,-210 795.5497,-209.6379 792.7691,-209.2602 789.9613,-208.8726"/>
<polygon fill="#191970" stroke="#191970" points="1127.8433,-253.2875 1138.1702,-250.9196 1128.6207,-246.3308 1127.8433,-253.2875"/>
</g>
<!-- Node314 -->
<g id="node32" class="node">
<title>Node314</title>
<g id="a_node32"><a xlink:href="sitkScaleSkewVersor3DTransform_8h.html" target="_top" xlink:title=" ">
<polygon fill="#ffffff" stroke="#000000" points="807.7702,-190.5 807.7702,-209.5 996.7702,-209.5 996.7702,-190.5 807.7702,-190.5"/>
<text text-anchor="middle" x="902.2702" y="-197.5" font-family="Helvetica,sans-Serif" font-size="10.00" fill="#000000">sitkScaleSkewVersor3DTransform.h</text>
</a>
</g>
</g>
<!-- Node7&#45;&gt;Node314 -->
<g id="edge67" class="edge">
<title>Node7&#45;&gt;Node314</title>
<path fill="none" stroke="#191970" d="M1127.9661,-244.819C1075.9975,-234.499 999.6415,-219.3361 950.4354,-209.5647"/>
<polygon fill="#191970" stroke="#191970" points="1127.5291,-248.3006 1138.0194,-246.8154 1128.8926,-241.4346 1127.5291,-248.3006"/>
</g>
<!-- Node315 -->
<g id="node33" class="node">
<title>Node315</title>
<g id="a_node33"><a xlink:href="sitkScaleVersor3DTransform_8h.html" target="_top" xlink:title=" ">
<polygon fill="#ffffff" stroke="#000000" points="1014.7702,-190.5 1014.7702,-209.5 1177.7702,-209.5 1177.7702,-190.5 1014.7702,-190.5"/>
<text text-anchor="middle" x="1096.2702" y="-197.5" font-family="Helvetica,sans-Serif" font-size="10.00" fill="#000000">sitkScaleVersor3DTransform.h</text>
</a>
</g>
</g>
<!-- Node7&#45;&gt;Node315 -->
<g id="edge69" class="edge">
<title>Node7&#45;&gt;Node315</title>
<path fill="none" stroke="#191970" d="M1160.3357,-240.769C1144.7419,-230.8456 1124.8692,-218.1994 1111.4229,-209.6427"/>
<polygon fill="#191970" stroke="#191970" points="1158.626,-243.8296 1168.9417,-246.2455 1162.3842,-237.9239 1158.626,-243.8296"/>
</g>
<!-- Node316 -->
<g id="node34" class="node">
<title>Node316</title>
<g id="a_node34"><a xlink:href="sitkSimilarity2DTransform_8h.html" target="_top" xlink:title=" ">
<polygon fill="#ffffff" stroke="#000000" points="1195.7702,-190.5 1195.7702,-209.5 1348.7702,-209.5 1348.7702,-190.5 1195.7702,-190.5"/>
<text text-anchor="middle" x="1272.2702" y="-197.5" font-family="Helvetica,sans-Serif" font-size="10.00" fill="#000000">sitkSimilarity2DTransform.h</text>
</a>
</g>
</g>
<!-- Node7&#45;&gt;Node316 -->
<g id="edge71" class="edge">
<title>Node7&#45;&gt;Node316</title>
<path fill="none" stroke="#191970" d="M1208.2046,-240.769C1223.7984,-230.8456 1243.6711,-218.1994 1257.1174,-209.6427"/>
<polygon fill="#191970" stroke="#191970" points="1206.1561,-237.9239 1199.5986,-246.2455 1209.9143,-243.8296 1206.1561,-237.9239"/>
</g>
<!-- Node317 -->
<g id="node35" class="node">
<title>Node317</title>
<g id="a_node35"><a xlink:href="sitkSimilarity3DTransform_8h.html" target="_top" xlink:title=" ">
<polygon fill="#ffffff" stroke="#000000" points="1405.7702,-190.5 1405.7702,-209.5 1558.7702,-209.5 1558.7702,-190.5 1405.7702,-190.5"/>
<text text-anchor="middle" x="1482.2702" y="-197.5" font-family="Helvetica,sans-Serif" font-size="10.00" fill="#000000">sitkSimilarity3DTransform.h</text>
</a>
</g>
</g>
<!-- Node7&#45;&gt;Node317 -->
<g id="edge73" class="edge">
<title>Node7&#45;&gt;Node317</title>
<path fill="none" stroke="#191970" d="M1240.4441,-245.4438C1295.4938,-235.0989 1378.6413,-219.4739 1431.6852,-209.5059"/>
<polygon fill="#191970" stroke="#191970" points="1239.6872,-242.0247 1230.5057,-247.3114 1240.9801,-248.9043 1239.6872,-242.0247"/>
</g>
<!-- Node318 -->
<g id="node36" class="node">
<title>Node318</title>
<g id="a_node36"><a xlink:href="sitkTranslationTransform_8h.html" target="_top" xlink:title=" ">
<polygon fill="#ffffff" stroke="#000000" points="1577.2702,-190.5 1577.2702,-209.5 1723.2702,-209.5 1723.2702,-190.5 1577.2702,-190.5"/>
<text text-anchor="middle" x="1650.2702" y="-197.5" font-family="Helvetica,sans-Serif" font-size="10.00" fill="#000000">sitkTranslationTransform.h</text>
</a>
</g>
</g>
<!-- Node7&#45;&gt;Node318 -->
<g id="edge75" class="edge">
<title>Node7&#45;&gt;Node318</title>
<path fill="none" stroke="#191970" d="M1240.677,-249.2319C1315.3752,-240.2676 1451.2154,-223.9606 1567.2702,-210 1570.4404,-209.6186 1573.6787,-209.229 1576.95,-208.8353"/>
<polygon fill="#191970" stroke="#191970" points="1240.0627,-245.7805 1230.5509,-250.4471 1240.8968,-252.7306 1240.0627,-245.7805"/>
</g>
<!-- Node319 -->
<g id="node37" class="node">
<title>Node319</title>
<g id="a_node37"><a xlink:href="sitkVersorTransform_8h.html" target="_top" xlink:title=" ">
<polygon fill="#ffffff" stroke="#000000" points="2585.7702,-190.5 2585.7702,-209.5 2708.7702,-209.5 2708.7702,-190.5 2585.7702,-190.5"/>
<text text-anchor="middle" x="2647.2702" y="-197.5" font-family="Helvetica,sans-Serif" font-size="10.00" fill="#000000">sitkVersorTransform.h</text>
</a>
</g>
</g>
<!-- Node7&#45;&gt;Node319 -->
<g id="edge77" class="edge">
<title>Node7&#45;&gt;Node319</title>
<path fill="none" stroke="#191970" d="M1240.6621,-253.8415C1471.6525,-244.9997 2344.6811,-211.5824 2585.4486,-202.3664"/>
<polygon fill="#191970" stroke="#191970" points="1240.3299,-250.3515 1230.4712,-254.2315 1240.5978,-257.3464 1240.3299,-250.3515"/>
</g>
<!-- Node320 -->
<g id="node38" class="node">
<title>Node320</title>
<g id="a_node38"><a xlink:href="sitkVersorRigid3DTransform_8h.html" target="_top" xlink:title=" ">
<polygon fill="#ffffff" stroke="#000000" points="2822.7702,-190.5 2822.7702,-209.5 2983.7702,-209.5 2983.7702,-190.5 2822.7702,-190.5"/>
<text text-anchor="middle" x="2903.2702" y="-197.5" font-family="Helvetica,sans-Serif" font-size="10.00" fill="#000000">sitkVersorRigid3DTransform.h</text>
</a>
</g>
</g>
<!-- Node7&#45;&gt;Node320 -->
<g id="edge79" class="edge">
<title>Node7&#45;&gt;Node320</title>
<path fill="none" stroke="#191970" d="M1240.3745,-254.797C1440.8226,-250.3964 2140.3667,-234.1602 2717.2702,-210 2751.8418,-208.5522 2790.0076,-206.5677 2822.7233,-204.748"/>
<polygon fill="#191970" stroke="#191970" points="1240.2959,-251.2977 1230.3748,-255.0157 1240.449,-258.2961 1240.2959,-251.2977"/>
</g>
<!-- Node7&#45;&gt;Node321 -->
<g id="edge81" class="edge">
<title>Node7&#45;&gt;Node321</title>
<path fill="none" stroke="#191970" d="M1240.5759,-255.0677C1506.5704,-250.5868 2639.0611,-230.6307 2992.2702,-210 3264.9418,-194.0734 3333.2329,-187.7975 3604.2702,-154 3617.8591,-152.3055 3632.4591,-150.1686 3646.1317,-148.0276"/>
<polygon fill="#191970" stroke="#191970" points="1240.3227,-251.5714 1230.3829,-255.239 1240.4404,-258.5704 1240.3227,-251.5714"/>
</g>
<!-- Node8&#45;&gt;Node5 -->
<g id="edge11" class="edge">
<title>Node8&#45;&gt;Node5</title>
<path fill="none" stroke="#191970" d="M2267.2817,-198.8524C1936.8218,-192.5081 349.5416,-161.7343 246.2702,-154 227.7906,-152.616 207.8078,-150.3673 189.5081,-148.0067"/>
<polygon fill="#191970" stroke="#191970" points="2267.5335,-202.3578 2277.5988,-199.0504 2267.6678,-195.3591 2267.5335,-202.3578"/>
</g>
<!-- Node8&#45;&gt;Node6 -->
<g id="edge39" class="edge">
<title>Node8&#45;&gt;Node6</title>
<path fill="none" stroke="#191970" d="M2387.2585,-196.7085C2494.4518,-190.5235 2725.8695,-175.7957 2920.2702,-154 2923.4509,-153.6434 3373.1223,-87.579 3376.2702,-87 3385.8188,-85.2437 3396.0471,-83.1187 3405.6545,-81.0128"/>
<polygon fill="#191970" stroke="#191970" points="2386.7526,-193.2316 2376.9692,-197.2979 2387.153,-200.2202 2386.7526,-193.2316"/>
</g>
<!-- Node9 -->
<g id="node9" class="node">
<title>Node9</title>
<g id="a_node9"><a xlink:href="sitkBSplineTransformInitializerFilter_8h.html" target="_top" xlink:title=" ">
<polygon fill="#ffffff" stroke="#000000" points="937.2702,-56.5 937.2702,-86.5 1103.2702,-86.5 1103.2702,-56.5 937.2702,-56.5"/>
<text text-anchor="start" x="945.2702" y="-74.5" font-family="Helvetica,sans-Serif" font-size="10.00" fill="#000000">sitkBSplineTransformInitializer</text>
<text text-anchor="middle" x="1020.2702" y="-63.5" font-family="Helvetica,sans-Serif" font-size="10.00" fill="#000000">Filter.h</text>
</a>
</g>
</g>
<!-- Node8&#45;&gt;Node9 -->
<g id="edge12" class="edge">
<title>Node8&#45;&gt;Node9</title>
<path fill="none" stroke="#191970" d="M2267.5065,-196.0196C2090.5996,-183.8984 1554.3166,-144.7129 1112.2702,-87 1109.3792,-86.6226 1106.4399,-86.2216 1103.4734,-85.8022"/>
<polygon fill="#191970" stroke="#191970" points="2267.4321,-199.5226 2277.6473,-196.7117 2267.9088,-192.5388 2267.4321,-199.5226"/>
</g>
<!-- Node10 -->
<g id="node10" class="node">
<title>Node10</title>
<g id="a_node10"><a xlink:href="sitkImageFilter_8h.html" target="_top" xlink:title=" ">
<polygon fill="#ffffff" stroke="#ff0000" points="2316.2702,-129 2316.2702,-148 2414.2702,-148 2414.2702,-129 2316.2702,-129"/>
<text text-anchor="middle" x="2365.2702" y="-136" font-family="Helvetica,sans-Serif" font-size="10.00" fill="#000000">sitkImageFilter.h</text>
</a>
</g>
</g>
<!-- Node8&#45;&gt;Node10 -->
<g id="edge14" class="edge">
<title>Node8&#45;&gt;Node10</title>
<path fill="none" stroke="#191970" d="M2338.6481,-181.5857C2345.4163,-170.632 2353.7313,-157.1748 2359.2489,-148.2449"/>
<polygon fill="#191970" stroke="#191970" points="2335.4866,-180.0438 2333.2077,-190.3906 2341.4416,-183.7233 2335.4866,-180.0438"/>
</g>
<!-- Node11 -->
<g id="node11" class="node">
<title>Node11</title>
<g id="a_node11"><a xlink:href="sitkExtractImageFilter_8h.html" target="_top" xlink:title=" ">
<polygon fill="#ffffff" stroke="#000000" points="1259.2702,-62 1259.2702,-81 1391.2702,-81 1391.2702,-62 1259.2702,-62"/>
<text text-anchor="middle" x="1325.2702" y="-69" font-family="Helvetica,sans-Serif" font-size="10.00" fill="#000000">sitkExtractImageFilter.h</text>
</a>
</g>
</g>
<!-- Node8&#45;&gt;Node11 -->
<g id="edge38" class="edge">
<title>Node8&#45;&gt;Node11</title>
<path fill="none" stroke="#191970" d="M2267.3878,-196.8261C2167.8653,-190.9851 1972.9553,-176.983 1908.2702,-154 1884.3401,-145.4975 1884.3301,-131.1276 1860.2702,-123 1665.9864,-57.3697 1603.3061,-115.8089 1400.2702,-87 1389.3439,-85.4497 1377.6188,-83.2753 1366.7614,-81.0445"/>
<polygon fill="#191970" stroke="#191970" points="2267.4001,-200.3325 2277.5855,-197.4156 2267.8042,-193.3442 2267.4001,-200.3325"/>
</g>
<!-- Node12 -->
<g id="node12" class="node">
<title>Node12</title>
<g id="a_node12"><a xlink:href="sitkLandmarkBasedTransformInitializerFilter_8h.html" target="_top" xlink:title=" ">
<polygon fill="#ffffff" stroke="#000000" points="1409.2702,-56.5 1409.2702,-86.5 1571.2702,-86.5 1571.2702,-56.5 1409.2702,-56.5"/>
<text text-anchor="start" x="1417.2702" y="-74.5" font-family="Helvetica,sans-Serif" font-size="10.00" fill="#000000">sitkLandmarkBasedTransform</text>
<text text-anchor="middle" x="1490.2702" y="-63.5" font-family="Helvetica,sans-Serif" font-size="10.00" fill="#000000">InitializerFilter.h</text>
</a>
</g>
</g>
<!-- Node8&#45;&gt;Node12 -->
<g id="edge40" class="edge">
<title>Node8&#45;&gt;Node12</title>
<path fill="none" stroke="#191970" d="M2267.2966,-196.3076C2176.1546,-190.0842 2007.4348,-175.9903 1951.2702,-154 1929.332,-145.4105 1930.2612,-131.4531 1908.2702,-123 1771.3817,-70.3815 1725.4899,-107.4548 1580.2702,-87 1577.4442,-86.6019 1574.5706,-86.1832 1571.6702,-85.7487"/>
<polygon fill="#191970" stroke="#191970" points="2267.2655,-199.8133 2277.4778,-196.9921 2267.7351,-192.8291 2267.2655,-199.8133"/>
</g>
<!-- Node13 -->
<g id="node13" class="node">
<title>Node13</title>
<g id="a_node13"><a xlink:href="sitkAbsImageFilter_8h.html" target="_top" xlink:title=" ">
<polygon fill="#ffffff" stroke="#ff0000" points="2076.2702,-62 2076.2702,-81 2192.2702,-81 2192.2702,-62 2076.2702,-62"/>
<text text-anchor="middle" x="2134.2702" y="-69" font-family="Helvetica,sans-Serif" font-size="10.00" fill="#000000">sitkAbsImageFilter.h</text>
</a>
</g>
</g>
<!-- Node8&#45;&gt;Node13 -->
<g id="edge41" class="edge">
<title>Node8&#45;&gt;Node13</title>
<path fill="none" stroke="#191970" d="M2304.4003,-184.7732C2264.1853,-157.9979 2181.9223,-103.2269 2148.6816,-81.0952"/>
<polygon fill="#191970" stroke="#191970" points="2302.5002,-187.7129 2312.7638,-190.3416 2306.3797,-181.8862 2302.5002,-187.7129"/>
</g>
<!-- Node16 -->
<g id="node14" class="node">
<title>Node16</title>
<g id="a_node14"><a xlink:href="sitkAbsoluteValueDifferenceImageFilter_8h.html" target="_top" xlink:title=" ">
<polygon fill="#ffffff" stroke="#ff0000" points="2210.7702,-56.5 2210.7702,-86.5 2365.7702,-86.5 2365.7702,-56.5 2210.7702,-56.5"/>
<text text-anchor="start" x="2218.7702" y="-74.5" font-family="Helvetica,sans-Serif" font-size="10.00" fill="#000000">sitkAbsoluteValueDifference</text>
<text text-anchor="middle" x="2288.2702" y="-63.5" font-family="Helvetica,sans-Serif" font-size="10.00" fill="#000000">ImageFilter.h</text>
</a>
</g>
</g>
<!-- Node8&#45;&gt;Node16 -->
<g id="edge42" class="edge">
<title>Node8&#45;&gt;Node16</title>
<path fill="none" stroke="#191970" d="M2318.1911,-181.2601C2314.4494,-173.0317 2310.2921,-163.1731 2307.2702,-154 2299.682,-130.9663 2293.9824,-103.3523 2290.8893,-86.6309"/>
<polygon fill="#191970" stroke="#191970" points="2315.0308,-182.7644 2322.4449,-190.3329 2321.3688,-179.7929 2315.0308,-182.7644"/>
</g>
<!-- Node17 -->
<g id="node15" class="node">
<title>Node17</title>
<g id="a_node15"><a xlink:href="sitkAcosImageFilter_8h.html" target="_top" xlink:title=" ">
<polygon fill="#ffffff" stroke="#ff0000" points="2422.7702,-62 2422.7702,-81 2543.7702,-81 2543.7702,-62 2422.7702,-62"/>
<text text-anchor="middle" x="2483.2702" y="-69" font-family="Helvetica,sans-Serif" font-size="10.00" fill="#000000">sitkAcosImageFilter.h</text>
</a>
</g>
</g>
<!-- Node8&#45;&gt;Node17 -->
<g id="edge43" class="edge">
<title>Node8&#45;&gt;Node17</title>
<path fill="none" stroke="#191970" d="M2365.7018,-186.7125C2384.3579,-179.0434 2406.3394,-168.0999 2423.2702,-154 2448.9911,-132.5797 2469.437,-97.8204 2478.3774,-81.0933"/>
<polygon fill="#191970" stroke="#191970" points="2364.3114,-183.4985 2356.2933,-190.4239 2366.8801,-190.0101 2364.3114,-183.4985"/>
</g>
<!-- Node18 -->
<g id="node16" class="node">
<title>Node18</title>
<g id="a_node16"><a xlink:href="sitkAdaptiveHistogramEqualizationImageFilter_8h.html" target="_top" xlink:title=" ">
<polygon fill="#ffffff" stroke="#ff0000" points="2561.7702,-56.5 2561.7702,-86.5 2750.7702,-86.5 2750.7702,-56.5 2561.7702,-56.5"/>
<text text-anchor="start" x="2569.7702" y="-74.5" font-family="Helvetica,sans-Serif" font-size="10.00" fill="#000000">sitkAdaptiveHistogramEqualization</text>
<text text-anchor="middle" x="2656.2702" y="-63.5" font-family="Helvetica,sans-Serif" font-size="10.00" fill="#000000">ImageFilter.h</text>
</a>
</g>
</g>
<!-- Node8&#45;&gt;Node18 -->
<g id="edge44" class="edge">
<title>Node8&#45;&gt;Node18</title>
<path fill="none" stroke="#191970" d="M2363.6391,-186.9605C2388.6413,-177.9122 2422.5613,-165.4704 2452.2702,-154 2511.2529,-131.2271 2579.233,-103.4186 2619.9258,-86.6032"/>
<polygon fill="#191970" stroke="#191970" points="2362.4016,-183.6861 2354.1845,-190.3743 2364.7789,-190.2701 2362.4016,-183.6861"/>
</g>
<!-- Node19 -->
<g id="node17" class="node">
<title>Node19</title>
<g id="a_node17"><a xlink:href="sitkAddImageFilter_8h.html" target="_top" xlink:title=" ">
<polygon fill="#ffffff" stroke="#ff0000" points="2769.2702,-62 2769.2702,-81 2885.2702,-81 2885.2702,-62 2769.2702,-62"/>
<text text-anchor="middle" x="2827.2702" y="-69" font-family="Helvetica,sans-Serif" font-size="10.00" fill="#000000">sitkAddImageFilter.h</text>
</a>
</g>
</g>
<!-- Node8&#45;&gt;Node19 -->
<g id="edge45" class="edge">
<title>Node8&#45;&gt;Node19</title>
<path fill="none" stroke="#191970" d="M2374.1526,-187.9512C2472.9285,-162.5658 2700.6891,-104.0313 2790.1925,-81.029"/>
<polygon fill="#191970" stroke="#191970" points="2373.257,-184.5676 2364.4429,-190.4466 2374.9994,-191.3473 2373.257,-184.5676"/>
</g>
<!-- Node21 -->
<g id="node18" class="node">
<title>Node21</title>
<g id="a_node18"><a xlink:href="sitkAdditiveGaussianNoiseImageFilter_8h.html" target="_top" xlink:title=" ">
<polygon fill="#ffffff" stroke="#ff0000" points="2903.2702,-56.5 2903.2702,-86.5 3051.2702,-86.5 3051.2702,-56.5 2903.2702,-56.5"/>
<text text-anchor="start" x="2911.2702" y="-74.5" font-family="Helvetica,sans-Serif" font-size="10.00" fill="#000000">sitkAdditiveGaussianNoise</text>
<text text-anchor="middle" x="2977.2702" y="-63.5" font-family="Helvetica,sans-Serif" font-size="10.00" fill="#000000">ImageFilter.h</text>
</a>
</g>
</g>
<!-- Node8&#45;&gt;Node21 -->
<g id="edge46" class="edge">
<title>Node8&#45;&gt;Node21</title>
<path fill="none" stroke="#191970" d="M2387.1801,-189.7971C2439.326,-180.7923 2516.9033,-167.0969 2584.2702,-154 2698.3856,-131.8147 2830.5807,-103.5279 2908.8856,-86.501"/>
<polygon fill="#191970" stroke="#191970" points="2386.3609,-186.3866 2377.1005,-191.534 2387.5497,-193.285 2386.3609,-186.3866"/>
</g>
<!-- Node22 -->
<g id="node19" class="node">
<title>Node22</title>
<g id="a_node19"><a xlink:href="sitkAggregateLabelMapFilter_8h.html" target="_top" xlink:title=" ">
<polygon fill="#ffffff" stroke="#ff0000" points="3069.2702,-62 3069.2702,-81 3233.2702,-81 3233.2702,-62 3069.2702,-62"/>
<text text-anchor="middle" x="3151.2702" y="-69" font-family="Helvetica,sans-Serif" font-size="10.00" fill="#000000">sitkAggregateLabelMapFilter.h</text>
</a>
</g>
</g>
<!-- Node8&#45;&gt;Node22 -->
<g id="edge47" class="edge">
<title>Node8&#45;&gt;Node22</title>
<path fill="none" stroke="#191970" d="M2387.0475,-192.8032C2456.2777,-184.2996 2573.7029,-169.3566 2674.2702,-154 2829.8356,-130.2452 3013.0266,-97.1026 3100.2007,-81.0146"/>
<polygon fill="#191970" stroke="#191970" points="2386.276,-189.3714 2376.7756,-194.061 2387.1269,-196.3195 2386.276,-189.3714"/>
</g>
<!-- Node23 -->
<g id="node20" class="node">
<title>Node23</title>
<g id="a_node20"><a xlink:href="sitkAndImageFilter_8h.html" target="_top" xlink:title=" ">
<polygon fill="#ffffff" stroke="#ff0000" points="3251.2702,-62 3251.2702,-81 3367.2702,-81 3367.2702,-62 3251.2702,-62"/>
<text text-anchor="middle" x="3309.2702" y="-69" font-family="Helvetica,sans-Serif" font-size="10.00" fill="#000000">sitkAndImageFilter.h</text>
</a>
</g>
</g>
<!-- Node8&#45;&gt;Node23 -->
<g id="edge48" class="edge">
<title>Node8&#45;&gt;Node23</title>
<path fill="none" stroke="#191970" d="M2387.3534,-195.2113C2534.2144,-182.9365 2922.7349,-147.0229 3242.2702,-87 3251.4226,-85.2808 3261.2177,-83.1702 3270.4142,-81.0665"/>
<polygon fill="#191970" stroke="#191970" points="2386.8773,-191.7387 2377.2013,-196.0543 2387.4566,-198.7147 2386.8773,-191.7387"/>
</g>
<!-- Node24 -->
<g id="node21" class="node">
<title>Node24</title>
<g id="a_node21"><a xlink:href="sitkAntiAliasBinaryImageFilter_8h.html" target="_top" xlink:title=" ">
<polygon fill="#ffffff" stroke="#ff0000" points="1589.2702,-56.5 1589.2702,-86.5 1729.2702,-86.5 1729.2702,-56.5 1589.2702,-56.5"/>
<text text-anchor="start" x="1597.2702" y="-74.5" font-family="Helvetica,sans-Serif" font-size="10.00" fill="#000000">sitkAntiAliasBinaryImage</text>
<text text-anchor="middle" x="1659.2702" y="-63.5" font-family="Helvetica,sans-Serif" font-size="10.00" fill="#000000">Filter.h</text>
</a>
</g>
</g>
<!-- Node8&#45;&gt;Node24 -->
<g id="edge49" class="edge">
<title>Node8&#45;&gt;Node24</title>
<path fill="none" stroke="#191970" d="M2267.2299,-197.0308C2202.8715,-192.5213 2098.3404,-181.3426 2012.2702,-154 1983.2864,-144.7925 1980.1489,-132.5319 1951.2702,-123 1860.0988,-92.9074 1832.7182,-104.2439 1738.2702,-87 1735.3828,-86.4728 1732.4375,-85.9279 1729.4632,-85.3715"/>
<polygon fill="#191970" stroke="#191970" points="2267.3836,-200.5488 2277.5948,-197.7235 2267.8505,-193.5643 2267.3836,-200.5488"/>
</g>
<!-- Node25 -->
<g id="node22" class="node">
<title>Node25</title>
<g id="a_node22"><a xlink:href="sitkApproximateSignedDistanceMapImageFilter_8h.html" target="_top" xlink:title=" ">
<polygon fill="#ffffff" stroke="#ff0000" points="1747.7702,-56.5 1747.7702,-86.5 1920.7702,-86.5 1920.7702,-56.5 1747.7702,-56.5"/>
<text text-anchor="start" x="1755.7702" y="-74.5" font-family="Helvetica,sans-Serif" font-size="10.00" fill="#000000">sitkApproximateSignedDistance</text>
<text text-anchor="middle" x="1834.2702" y="-63.5" font-family="Helvetica,sans-Serif" font-size="10.00" fill="#000000">MapImageFilter.h</text>
</a>
</g>
</g>
<!-- Node8&#45;&gt;Node25 -->
<g id="edge50" class="edge">
<title>Node8&#45;&gt;Node25</title>
<path fill="none" stroke="#191970" d="M2274.1009,-188.2271C2234.3711,-179.2743 2178.7847,-166.4191 2130.2702,-154 2044.0919,-131.9395 1944.5944,-103.6149 1885.6927,-86.5465"/>
<polygon fill="#191970" stroke="#191970" points="2273.5766,-191.6965 2284.1006,-190.4735 2275.1109,-184.8667 2273.5766,-191.6965"/>
</g>
<!-- Node26 -->
<g id="node23" class="node">
<title>Node26</title>
<g id="a_node23"><a xlink:href="sitkAsinImageFilter_8h.html" target="_top" xlink:title=" ">
<polygon fill="#ffffff" stroke="#ff0000" points="1938.7702,-62 1938.7702,-81 2057.7702,-81 2057.7702,-62 1938.7702,-62"/>
<text text-anchor="middle" x="1998.2702" y="-69" font-family="Helvetica,sans-Serif" font-size="10.00" fill="#000000">sitkAsinImageFilter.h</text>
</a>
</g>
</g>
<!-- Node8&#45;&gt;Node26 -->
<g id="edge51" class="edge">
<title>Node8&#45;&gt;Node26</title>
<path fill="none" stroke="#191970" d="M2293.217,-186.6996C2226.7103,-160.7236 2080.987,-103.8073 2022.8909,-81.1163"/>
<polygon fill="#191970" stroke="#191970" points="2292.2224,-190.0686 2302.8105,-190.4466 2294.7691,-183.5483 2292.2224,-190.0686"/>
</g>
<!-- Node306 -->
<g id="node24" class="node">
<title>Node306</title>
<g id="a_node24"><a xlink:href="sitkCenteredTransformInitializerFilter_8h.html" target="_top" xlink:title=" ">
<polygon fill="#ffffff" stroke="#000000" points="3388.7702,-123.5 3388.7702,-153.5 3561.7702,-153.5 3561.7702,-123.5 3388.7702,-123.5"/>
<text text-anchor="start" x="3396.7702" y="-141.5" font-family="Helvetica,sans-Serif" font-size="10.00" fill="#000000">sitkCenteredTransformInitializer</text>
<text text-anchor="middle" x="3475.2702" y="-130.5" font-family="Helvetica,sans-Serif" font-size="10.00" fill="#000000">Filter.h</text>
</a>
</g>
</g>
<!-- Node8&#45;&gt;Node306 -->
<g id="edge34" class="edge">
<title>Node8&#45;&gt;Node306</title>
<path fill="none" stroke="#191970" d="M2387.2164,-197.5255C2590.5277,-189.0992 3246.4725,-161.6236 3341.2702,-154 3356.5602,-152.7704 3372.7983,-151.1553 3388.4982,-149.4325"/>
<polygon fill="#191970" stroke="#191970" points="2386.8739,-194.0366 2377.0273,-197.9475 2387.1636,-201.0306 2386.8739,-194.0366"/>
</g>
<!-- Node307 -->
<g id="node25" class="node">
<title>Node307</title>
<g id="a_node25"><a xlink:href="sitkCenteredVersorTransformInitializerFilter_8h.html" target="_top" xlink:title=" ">
<polygon fill="#ffffff" stroke="#000000" points="3174.2702,-123.5 3174.2702,-153.5 3332.2702,-153.5 3332.2702,-123.5 3174.2702,-123.5"/>
<text text-anchor="start" x="3182.2702" y="-141.5" font-family="Helvetica,sans-Serif" font-size="10.00" fill="#000000">sitkCenteredVersorTransform</text>
<text text-anchor="middle" x="3253.2702" y="-130.5" font-family="Helvetica,sans-Serif" font-size="10.00" fill="#000000">InitializerFilter.h</text>
</a>
</g>
</g>
<!-- Node8&#45;&gt;Node307 -->
<g id="edge36" class="edge">
<title>Node8&#45;&gt;Node307</title>
<path fill="none" stroke="#191970" d="M2387.1931,-197.4041C2517.9067,-191.5346 2838.4142,-176.0183 3106.2702,-154 3128.2656,-152.1919 3152.0723,-149.8494 3173.9912,-147.5356"/>
<polygon fill="#191970" stroke="#191970" points="2386.8296,-193.9168 2376.9958,-197.8597 2387.1421,-200.9098 2386.8296,-193.9168"/>
</g>
<!-- Node9&#45;&gt;Node3 -->
<g id="edge13" class="edge">
<title>Node9&#45;&gt;Node3</title>
<path fill="none" stroke="#191970" d="M1104.7162,-54.4724C1164.6356,-42.3902 1242.1888,-26.7525 1287.5629,-17.6033"/>
<polygon fill="#191970" stroke="#191970" points="1103.9924,-51.0478 1094.8816,-56.4554 1105.3761,-57.9097 1103.9924,-51.0478"/>
</g>
<!-- Node10&#45;&gt;Node2 -->
<g id="edge16" class="edge">
<title>Node10&#45;&gt;Node2</title>
<path fill="none" stroke="#191970" d="M2305.9398,-136.3681C2090.2597,-128.5345 1354.967,-101.0673 1250.2702,-87 1239.8054,-85.5939 1228.5847,-83.3833 1218.297,-81.0674"/>
<polygon fill="#191970" stroke="#191970" points="2305.9931,-139.8723 2316.1134,-136.7371 2306.2468,-132.8769 2305.9931,-139.8723"/>
</g>
<!-- Node10&#45;&gt;Node3 -->
<g id="edge22" class="edge">
<title>Node10&#45;&gt;Node3</title>
<path fill="none" stroke="#191970" d="M2374.7962,-119.5318C2382.6799,-100.8267 2390.2409,-72.6864 2374.2702,-56 2338.6229,-18.7553 1546.6288,-11.4137 1363.0334,-10.2103"/>
<polygon fill="#191970" stroke="#191970" points="2371.5234,-118.272 2370.5307,-128.8203 2377.8847,-121.1934 2371.5234,-118.272"/>
</g>
<!-- Node10&#45;&gt;Node6 -->
<g id="edge19" class="edge">
<title>Node10&#45;&gt;Node6</title>
<path fill="none" stroke="#191970" d="M2424.6559,-136.7792C2612.2168,-131.1388 3190.4886,-112.1213 3376.2702,-87 3386.8782,-85.5656 3398.2587,-83.3457 3408.6956,-81.0299"/>
<polygon fill="#191970" stroke="#191970" points="2424.3332,-133.2872 2414.4423,-137.0847 2424.5425,-140.2841 2424.3332,-133.2872"/>
</g>
<!-- Node10&#45;&gt;Node9 -->
<g id="edge15" class="edge">
<title>Node10&#45;&gt;Node9</title>
<path fill="none" stroke="#191970" d="M2305.7323,-136.4945C2072.9723,-128.5936 1231.4983,-99.444 1112.2702,-87 1109.3704,-86.6973 1106.4236,-86.3606 1103.4507,-85.9961"/>
<polygon fill="#191970" stroke="#191970" points="2305.9154,-140.0026 2316.0283,-136.8436 2306.1526,-133.0066 2305.9154,-140.0026"/>
</g>
<!-- Node10&#45;&gt;Node11 -->
<g id="edge17" class="edge">
<title>Node10&#45;&gt;Node11</title>
<path fill="none" stroke="#191970" d="M2305.8347,-136.5022C2123.9983,-130.2045 1576.8539,-109.827 1400.2702,-87 1389.0618,-85.5511 1377.0282,-83.3556 1365.9529,-81.0689"/>
<polygon fill="#191970" stroke="#191970" points="2305.8914,-140.0061 2316.0061,-136.8529 2306.1327,-133.0103 2305.8914,-140.0061"/>
</g>
<!-- Node10&#45;&gt;Node12 -->
<g id="edge20" class="edge">
<title>Node10&#45;&gt;Node12</title>
<path fill="none" stroke="#191970" d="M2305.7225,-136.7286C2174.364,-132.3536 1849.985,-118.9832 1580.2702,-87 1577.4361,-86.6639 1574.5557,-86.2985 1571.6493,-85.9095"/>
<polygon fill="#191970" stroke="#191970" points="2305.8555,-140.2347 2315.9649,-137.0644 2306.085,-133.2385 2305.8555,-140.2347"/>
</g>
<!-- Node10&#45;&gt;Node13 -->
<g id="edge23" class="edge">
<title>Node10&#45;&gt;Node13</title>
<path fill="none" stroke="#191970" d="M2322.4418,-126.0779C2277.5861,-113.0678 2208.1021,-92.9145 2167.3054,-81.0817"/>
<polygon fill="#191970" stroke="#191970" points="2321.5943,-129.4763 2332.1735,-128.9005 2323.5443,-122.7534 2321.5943,-129.4763"/>
</g>
<!-- Node10&#45;&gt;Node16 -->
<g id="edge24" class="edge">
<title>Node10&#45;&gt;Node16</title>
<path fill="none" stroke="#191970" d="M2346.6537,-122.3012C2334.1377,-111.4107 2317.7576,-97.1579 2305.534,-86.5218"/>
<polygon fill="#191970" stroke="#191970" points="2344.3965,-124.9767 2354.2379,-128.9005 2348.9915,-119.6959 2344.3965,-124.9767"/>
</g>
<!-- Node10&#45;&gt;Node17 -->
<g id="edge25" class="edge">
<title>Node10&#45;&gt;Node17</title>
<path fill="none" stroke="#191970" d="M2391.0107,-123.8846C2413.8949,-110.891 2446.6935,-92.2681 2466.395,-81.0817"/>
<polygon fill="#191970" stroke="#191970" points="2389.1445,-120.9193 2382.1767,-128.9005 2392.6009,-127.0065 2389.1445,-120.9193"/>
</g>
<!-- Node10&#45;&gt;Node18 -->
<g id="edge26" class="edge">
<title>Node10&#45;&gt;Node18</title>
<path fill="none" stroke="#191970" d="M2416.6241,-126.6762C2465.1632,-115.5006 2538.2001,-98.6845 2590.8805,-86.5553"/>
<polygon fill="#191970" stroke="#191970" points="2415.614,-123.3171 2406.6543,-128.9717 2417.1847,-130.1387 2415.614,-123.3171"/>
</g>
<!-- Node10&#45;&gt;Node19 -->
<g id="edge27" class="edge">
<title>Node10&#45;&gt;Node19</title>
<path fill="none" stroke="#191970" d="M2424.3572,-132.5318C2501.6532,-124.3236 2641.1536,-108.133 2759.2702,-87 2768.6862,-85.3153 2778.7665,-83.1943 2788.2043,-81.0667"/>
<polygon fill="#191970" stroke="#191970" points="2423.9076,-129.0597 2414.3297,-133.5889 2424.6415,-136.0212 2423.9076,-129.0597"/>
</g>
<!-- Node10&#45;&gt;Node21 -->
<g id="edge28" class="edge">
<title>Node10&#45;&gt;Node21</title>
<path fill="none" stroke="#191970" d="M2424.3064,-134.4488C2522.2567,-127.3477 2724.4116,-111.0813 2894.2702,-87 2897.1729,-86.5885 2900.1287,-86.1466 2903.1115,-85.6818"/>
<polygon fill="#191970" stroke="#191970" points="2424.0278,-130.9597 2414.3048,-135.1683 2424.5301,-137.9417 2424.0278,-130.9597"/>
</g>
<!-- Node10&#45;&gt;Node22 -->
<g id="edge29" class="edge">
<title>Node10&#45;&gt;Node22</title>
<path fill="none" stroke="#191970" d="M2424.3862,-136.0115C2544.5254,-130.5375 2825.7038,-115.6023 3060.2702,-87 3073.315,-85.4094 3087.3396,-83.2474 3100.3779,-81.0434"/>
<polygon fill="#191970" stroke="#191970" points="2424.1294,-132.5194 2414.2971,-136.4661 2424.4445,-139.5123 2424.1294,-132.5194"/>
</g>
<!-- Node10&#45;&gt;Node23 -->
<g id="edge30" class="edge">
<title>Node10&#45;&gt;Node23</title>
<path fill="none" stroke="#191970" d="M2424.4862,-136.3275C2594.7733,-129.8728 3083.6967,-109.8318 3242.2702,-87 3252.3149,-85.5537 3263.0757,-83.3591 3272.9696,-81.0725"/>
<polygon fill="#191970" stroke="#191970" points="2424.3154,-132.8314 2414.4545,-136.706 2424.5794,-139.8264 2424.3154,-132.8314"/>
</g>
<!-- Node10&#45;&gt;Node24 -->
<g id="edge31" class="edge">
<title>Node10&#45;&gt;Node24</title>
<path fill="none" stroke="#191970" d="M2305.8354,-135.8358C2194.2018,-130.3407 1945.7288,-115.7801 1738.2702,-87 1735.3629,-86.5967 1732.401,-86.1552 1729.413,-85.6846"/>
<polygon fill="#191970" stroke="#191970" points="2305.7269,-139.3345 2315.885,-136.3241 2306.0666,-132.3428 2305.7269,-139.3345"/>
</g>
<!-- Node10&#45;&gt;Node25 -->
<g id="edge32" class="edge">
<title>Node10&#45;&gt;Node25</title>
<path fill="none" stroke="#191970" d="M2306.0281,-132.3411C2222.0586,-123.4209 2063.677,-105.8934 1929.2702,-87 1926.5397,-86.6162 1923.7665,-86.2174 1920.9675,-85.8073"/>
<polygon fill="#191970" stroke="#191970" points="2305.8264,-135.8393 2316.1394,-133.4119 2306.5636,-128.8782 2305.8264,-135.8393"/>
</g>
<!-- Node10&#45;&gt;Node26 -->
<g id="edge33" class="edge">
<title>Node10&#45;&gt;Node26</title>
<path fill="none" stroke="#191970" d="M2306.002,-129.1505C2245.7492,-119.4362 2149.7845,-103.3873 2067.2702,-87 2058.1179,-85.1824 2048.3184,-83.0778 2039.0628,-81.017"/>
<polygon fill="#191970" stroke="#191970" points="2305.6623,-132.6407 2316.091,-130.7717 2306.773,-125.7294 2305.6623,-132.6407"/>
</g>
<!-- Node11&#45;&gt;Node3 -->
<g id="edge18" class="edge">
<title>Node11&#45;&gt;Node3</title>
<path fill="none" stroke="#191970" d="M1325.2702,-51.7462C1325.2702,-41.0519 1325.2702,-28.314 1325.2702,-19.7449"/>
<polygon fill="#191970" stroke="#191970" points="1321.7703,-51.8906 1325.2702,-61.8906 1328.7703,-51.8907 1321.7703,-51.8906"/>
</g>
<!-- Node12&#45;&gt;Node3 -->
<g id="edge21" class="edge">
<title>Node12&#45;&gt;Node3</title>
<path fill="none" stroke="#191970" d="M1440.1817,-52.8306C1410.6819,-41.8353 1374.6081,-28.3896 1350.8393,-19.5303"/>
<polygon fill="#191970" stroke="#191970" points="1439.3139,-56.2424 1449.9066,-56.4554 1441.7588,-49.6832 1439.3139,-56.2424"/>
</g>
<!-- Node306&#45;&gt;Node3 -->
<g id="edge35" class="edge">
<title>Node306&#45;&gt;Node3</title>
<path fill="none" stroke="#191970" d="M3533.4785,-119.7346C3572.2361,-104.3667 3611.8894,-81.125 3587.2702,-56 3546.6786,-14.5745 1654.5634,-10.432 1362.8575,-10.0394"/>
<polygon fill="#191970" stroke="#191970" points="3531.7813,-116.6358 3523.6839,-123.4684 3534.2747,-123.1767 3531.7813,-116.6358"/>
</g>
<!-- Node307&#45;&gt;Node3 -->
<g id="edge37" class="edge">
<title>Node307&#45;&gt;Node3</title>
<path fill="none" stroke="#191970" d="M3342.3854,-122.412C3417.5477,-108.6345 3513.4049,-90.4808 3516.2702,-87 3525.0265,-76.3627 3525.9097,-65.8441 3516.2702,-56 3477.0277,-15.925 1650.0431,-10.6473 1363.0351,-10.0652"/>
<polygon fill="#191970" stroke="#191970" points="3341.6036,-118.9969 3332.3969,-124.2396 3342.8636,-125.8826 3341.6036,-118.9969"/>
</g>
<!-- Node308&#45;&gt;Node3 -->
<g id="edge56" class="edge">
<title>Node308&#45;&gt;Node3</title>
<path fill="none" stroke="#191970" d="M872.1811,-120.869C857.5463,-102.6703 840.579,-74.4122 857.2702,-56 885.989,-24.32 1181.1284,-13.6845 1287.3995,-10.866"/>
<polygon fill="#191970" stroke="#191970" points="869.8745,-123.5593 879.0203,-128.9077 875.206,-119.0232 869.8745,-123.5593"/>
</g>
<!-- Node308&#45;&gt;Node9 -->
<g id="edge55" class="edge">
<title>Node308&#45;&gt;Node9</title>
<path fill="none" stroke="#191970" d="M916.2789,-124.2834C938.1362,-113.1892 968.423,-97.8164 990.675,-86.5218"/>
<polygon fill="#191970" stroke="#191970" points="914.5155,-121.2534 907.1825,-128.9005 917.6838,-127.4954 914.5155,-121.2534"/>
</g>
<!-- Node309&#45;&gt;Node3 -->
<g id="edge58" class="edge">
<title>Node309&#45;&gt;Node3</title>
<path fill="none" stroke="#191970" d="M373.1198,-124.3312C411.2848,-104.9712 483.9633,-70.9525 550.2702,-56 693.2587,-23.7554 1152.7014,-13.097 1287.6591,-10.6204"/>
<polygon fill="#191970" stroke="#191970" points="371.4838,-121.2368 364.1854,-128.9169 374.6802,-127.4644 371.4838,-121.2368"/>
</g>
<!-- Node310&#45;&gt;Node3 -->
<g id="edge60" class="edge">
<title>Node310&#45;&gt;Node3</title>
<path fill="none" stroke="#191970" d="M526.8538,-120.1878C539.4081,-100.4192 562.3303,-69.9006 591.2702,-56 654.2832,-25.7332 1146.6457,-13.587 1287.653,-10.7082"/>
<polygon fill="#191970" stroke="#191970" points="523.7548,-118.5475 521.5427,-128.9088 529.7334,-122.1885 523.7548,-118.5475"/>
</g>
<!-- Node311&#45;&gt;Node3 -->
<g id="edge62" class="edge">
<title>Node311&#45;&gt;Node3</title>
<path fill="none" stroke="#191970" d="M494.6454,-188.0378C522.9447,-180.6463 557.1052,-169.5521 585.2702,-154 614.6631,-137.7699 669.2103,-68.7532 700.2702,-56 754.4935,-33.7359 1160.3155,-16.3589 1287.363,-11.4179"/>
<polygon fill="#191970" stroke="#191970" points="493.738,-184.657 484.8994,-190.4991 495.4521,-191.4439 493.738,-184.657"/>
</g>
<!-- Node312&#45;&gt;Node3 -->
<g id="edge64" class="edge">
<title>Node312&#45;&gt;Node3</title>
<path fill="none" stroke="#191970" d="M601.254,-182.3389C627.636,-150.5097 688.2499,-84.2134 756.2702,-56 805.1321,-35.7331 1168.2504,-17.2764 1287.4703,-11.7067"/>
<polygon fill="#191970" stroke="#191970" points="598.3388,-180.3762 594.7429,-190.3421 603.7688,-184.7938 598.3388,-180.3762"/>
</g>
<!-- Node313&#45;&gt;Node3 -->
<g id="edge66" class="edge">
<title>Node313&#45;&gt;Node3</title>
<path fill="none" stroke="#191970" d="M731.7675,-179.8957C735.3332,-147.8372 747.3066,-85.7292 787.2702,-56 827.2277,-26.2753 1171.5475,-14.2029 1287.4087,-10.9584"/>
<polygon fill="#191970" stroke="#191970" points="728.2472,-179.9483 730.7979,-190.2315 735.2166,-180.6021 728.2472,-179.9483"/>
</g>
<!-- Node314&#45;&gt;Node3 -->
<g id="edge68" class="edge">
<title>Node314&#45;&gt;Node3</title>
<path fill="none" stroke="#191970" d="M840.3215,-187.0464C822.8021,-180.216 805.6862,-169.8157 795.2702,-154 784.1509,-137.1165 786.371,-70.8731 801.2702,-56 835.565,-21.7652 1173.1946,-12.6778 1287.5937,-10.5717"/>
<polygon fill="#191970" stroke="#191970" points="839.4612,-190.4545 850.056,-190.4856 841.7931,-183.8543 839.4612,-190.4545"/>
</g>
<!-- Node315&#45;&gt;Node3 -->
<g id="edge70" class="edge">
<title>Node315&#45;&gt;Node3</title>
<path fill="none" stroke="#191970" d="M1010.6394,-189.1558C927.5472,-178.2177 812.9799,-161.8579 806.2702,-154 790.2987,-135.2955 804.0652,-69.7421 819.2702,-56 853.8318,-24.7636 1175.9126,-13.7559 1287.4589,-10.862"/>
<polygon fill="#191970" stroke="#191970" points="1010.2372,-192.633 1020.6072,-190.4619 1011.1467,-185.6923 1010.2372,-192.633"/>
</g>
<!-- Node316&#45;&gt;Node3 -->
<g id="edge72" class="edge">
<title>Node316&#45;&gt;Node3</title>
<path fill="none" stroke="#191970" d="M1185.3815,-190.1664C1113.8065,-185.4282 840.7118,-183.124 814.2702,-154 805.0089,-143.7992 811.1448,-136.4186 814.2702,-123 821.7998,-90.6715 819.9595,-74.8667 847.2702,-56 883.2389,-31.1521 1181.1535,-16.1414 1287.6244,-11.5287"/>
<polygon fill="#191970" stroke="#191970" points="1185.132,-193.6576 1195.3843,-190.9854 1185.7033,-186.6809 1185.132,-193.6576"/>
</g>
<!-- Node317&#45;&gt;Node3 -->
<g id="edge74" class="edge">
<title>Node317&#45;&gt;Node3</title>
<path fill="none" stroke="#191970" d="M1395.495,-191.7709C1258.5659,-178.7666 1007.5385,-154.8408 1005.2702,-154 982.8397,-145.6861 981.5815,-135.637 961.2702,-123 932.8997,-105.3489 912.3264,-115.732 895.2702,-87 888.2371,-75.1525 886.0605,-66.2474 895.2702,-56 921.304,-27.0326 1187.6386,-14.8027 1287.6201,-11.2084"/>
<polygon fill="#191970" stroke="#191970" points="1395.2688,-195.2651 1405.5549,-192.7261 1395.9305,-188.2964 1395.2688,-195.2651"/>
</g>
<!-- Node318&#45;&gt;Node3 -->
<g id="edge76" class="edge">
<title>Node318&#45;&gt;Node3</title>
<path fill="none" stroke="#191970" d="M1567.2831,-189.923C1381.9572,-167.0284 948.9873,-111.2118 928.2702,-87 919.3126,-76.5315 919.1056,-66.2878 928.2702,-56 951.9522,-29.4155 1192.8575,-15.8901 1287.442,-11.5723"/>
<polygon fill="#191970" stroke="#191970" points="1566.9037,-193.4026 1577.2569,-191.1529 1567.7604,-186.4553 1566.9037,-193.4026"/>
</g>
<!-- Node319&#45;&gt;Node3 -->
<g id="edge78" class="edge">
<title>Node319&#45;&gt;Node3</title>
<path fill="none" stroke="#191970" d="M2719.227,-195.5156C2895.306,-184.5053 3334.0886,-156.8288 3341.2702,-154 3361.5495,-146.0119 3359.7038,-132.603 3379.2702,-123 3446.6426,-89.9342 3586.7827,-109.6174 3534.2702,-56 3494.681,-15.5779 1650.7579,-10.5908 1362.8866,-10.0583"/>
<polygon fill="#191970" stroke="#191970" points="2718.7847,-192.0363 2709.0226,-196.1534 2719.2215,-199.0227 2718.7847,-192.0363"/>
</g>
<!-- Node320&#45;&gt;Node3 -->
<g id="edge80" class="edge">
<title>Node320&#45;&gt;Node3</title>
<path fill="none" stroke="#191970" d="M2993.1433,-189.7965C3089.4375,-184.6007 3519.4106,-188.5282 3571.2702,-154 3609.5253,-128.5296 3636.4383,-88.8239 3604.2702,-56 3563.3705,-14.2664 1657.0377,-10.3845 1363.1399,-10.0339"/>
<polygon fill="#191970" stroke="#191970" points="2992.6253,-186.3236 2982.8874,-190.4977 2993.1028,-193.3073 2992.6253,-186.3236"/>
</g>
<!-- Node321&#45;&gt;Node3 -->
<g id="edge82" class="edge">
<title>Node321&#45;&gt;Node3</title>
<path fill="none" stroke="#191970" d="M3699.0791,-118.9724C3694.7215,-99.311 3684.8279,-69.9532 3663.2702,-56 3612.8926,-23.3933 1660.2097,-11.7735 1363.023,-10.1925"/>
<polygon fill="#191970" stroke="#191970" points="3695.6803,-119.8322 3701.0106,-128.9886 3702.5537,-118.5067 3695.6803,-119.8322"/>
</g>
<!-- Node322&#45;&gt;Node3 -->
<g id="edge88" class="edge">
<title>Node322&#45;&gt;Node3</title>
<path fill="none" stroke="#191970" d="M4022.9989,-186.8227C4063.8452,-170.5621 4125.8696,-138.5581 4152.2702,-87 4158.5498,-74.7365 4161.9329,-65.8213 4152.2702,-56 4126.6189,-29.928 1696.3298,-12.5178 1362.9978,-10.2517"/>
<polygon fill="#191970" stroke="#191970" points="4021.6903,-183.576 4013.6127,-190.4319 4024.2026,-190.1096 4021.6903,-183.576"/>
</g>
<!-- Node322&#45;&gt;Node6 -->
<g id="edge87" class="edge">
<title>Node322&#45;&gt;Node6</title>
<path fill="none" stroke="#191970" d="M3955.9177,-185.8389C3919.7593,-168.3811 3854.8814,-139.0581 3796.2702,-123 3697.1993,-95.857 3578.1888,-82.1985 3507.5788,-75.9905"/>
<polygon fill="#191970" stroke="#191970" points="3954.8033,-189.1894 3965.3256,-190.4273 3957.8719,-182.8978 3954.8033,-189.1894"/>
</g>
<!-- Node322&#45;&gt;Node10 -->
<g id="edge84" class="edge">
<title>Node322&#45;&gt;Node10</title>
<path fill="none" stroke="#191970" d="M3917.5999,-197.4674C3648.9207,-187.2613 2648.8159,-149.2709 2414.5786,-140.373"/>
<polygon fill="#191970" stroke="#191970" points="3917.4727,-200.965 3927.5984,-197.8472 3917.7385,-193.9701 3917.4727,-200.965"/>
</g>
<!-- Node322&#45;&gt;Node306 -->
<g id="edge85" class="edge">
<title>Node322&#45;&gt;Node306</title>
<path fill="none" stroke="#191970" d="M3917.4121,-191.9219C3826.151,-180.8952 3662.4584,-161.117 3561.8949,-148.9665"/>
<polygon fill="#191970" stroke="#191970" points="3917.0153,-195.3993 3927.363,-193.1242 3917.8551,-188.4498 3917.0153,-195.3993"/>
</g>
<!-- Node322&#45;&gt;Node307 -->
<g id="edge86" class="edge">
<title>Node322&#45;&gt;Node307</title>
<path fill="none" stroke="#191970" d="M3917.3732,-195.9341C3805.7335,-188.92 3574.433,-173.4129 3379.2702,-154 3364.1373,-152.4947 3348.0085,-150.6749 3332.5199,-148.8194"/>
<polygon fill="#191970" stroke="#191970" points="3917.2753,-199.4347 3927.4743,-196.566 3917.7124,-192.4484 3917.2753,-199.4347"/>
</g>
<!-- Node322&#45;&gt;Node321 -->
<g id="edge104" class="edge">
<title>Node322&#45;&gt;Node321</title>
<path fill="none" stroke="#191970" d="M3930.5308,-188.2802C3877.0185,-176.61 3795.8745,-158.9137 3746.1259,-148.0643"/>
<polygon fill="#191970" stroke="#191970" points="3930.0009,-191.7469 3940.5171,-190.4581 3931.4925,-184.9076 3930.0009,-191.7469"/>
</g>
<!-- Node323 -->
<g id="node41" class="node">
<title>Node323</title>
<g id="a_node41"><a xlink:href="sitkImageReaderBase_8h.html" target="_top" xlink:title=" ">
<polygon fill="#ffffff" stroke="#000000" points="3918.2702,-129 3918.2702,-148 4050.2702,-148 4050.2702,-129 3918.2702,-129"/>
<text text-anchor="middle" x="3984.2702" y="-136" font-family="Helvetica,sans-Serif" font-size="10.00" fill="#000000">sitkImageReaderBase.h</text>
</a>
</g>
</g>
<!-- Node322&#45;&gt;Node323 -->
<g id="edge89" class="edge">
<title>Node322&#45;&gt;Node323</title>
<path fill="none" stroke="#191970" d="M3984.2702,-180.2462C3984.2702,-169.5519 3984.2702,-156.814 3984.2702,-148.2449"/>
<polygon fill="#191970" stroke="#191970" points="3980.7703,-180.3906 3984.2702,-190.3906 3987.7703,-180.3907 3980.7703,-180.3906"/>
</g>
<!-- Node322&#45;&gt;Node327 -->
<g id="edge96" class="edge">
<title>Node322&#45;&gt;Node327</title>
<path fill="none" stroke="#191970" d="M4028.2813,-187.6969C4070.0561,-176.0189 4131.9733,-158.7103 4170.1365,-148.0419"/>
<polygon fill="#191970" stroke="#191970" points="4027.3336,-184.3275 4018.6452,-190.3906 4029.2183,-191.0691 4027.3336,-184.3275"/>
</g>
<!-- Node322&#45;&gt;Node328 -->
<g id="edge98" class="edge">
<title>Node322&#45;&gt;Node328</title>
<path fill="none" stroke="#191970" d="M4051.1323,-190.2484C4109.8023,-181.4793 4197.3648,-167.8769 4273.2702,-154 4283.2104,-152.1827 4293.8587,-150.0784 4303.9186,-148.0176"/>
<polygon fill="#191970" stroke="#191970" points="4050.2609,-186.8395 4040.8856,-191.7747 4051.2922,-193.7631 4050.2609,-186.8395"/>
</g>
<!-- Node322&#45;&gt;Node329 -->
<g id="edge100" class="edge">
<title>Node322&#45;&gt;Node329</title>
<path fill="none" stroke="#191970" d="M4051.0951,-195.9531C4137.6758,-190.0391 4293.0769,-177.1383 4424.2702,-154 4433.2299,-152.4198 4442.811,-150.2616 4451.6962,-148.0578"/>
<polygon fill="#191970" stroke="#191970" points="4050.6264,-192.4767 4040.8839,-196.64 4051.0962,-199.4609 4050.6264,-192.4767"/>
</g>
<!-- Node322&#45;&gt;Node330 -->
<g id="edge102" class="edge">
<title>Node322&#45;&gt;Node330</title>
<path fill="none" stroke="#191970" d="M4051.2289,-196.773C4179.6238,-190.2182 4455.979,-174.2359 4549.2702,-154 4555.9396,-152.5533 4562.9807,-150.3294 4569.3911,-148.0137"/>
<polygon fill="#191970" stroke="#191970" points="4050.9398,-193.2831 4041.1297,-197.2847 4051.2941,-200.2741 4050.9398,-193.2831"/>
</g>
<!-- Node323&#45;&gt;Node324 -->
<g id="edge90" class="edge">
<title>Node323&#45;&gt;Node324</title>
<path fill="none" stroke="#191970" d="M3944.8736,-125.7484C3904.6515,-112.7297 3843.124,-92.815 3806.8732,-81.0817"/>
<polygon fill="#191970" stroke="#191970" points="3944.0202,-129.151 3954.6121,-128.9005 3946.1759,-122.4911 3944.0202,-129.151"/>
</g>
<!-- Node323&#45;&gt;Node325 -->
<g id="edge92" class="edge">
<title>Node323&#45;&gt;Node325</title>
<path fill="none" stroke="#191970" d="M3969.3068,-121.2147C3958.249,-108.441 3943.603,-91.5224 3934.5647,-81.0817"/>
<polygon fill="#191970" stroke="#191970" points="3966.7689,-123.6307 3975.9602,-128.9005 3972.0614,-119.0491 3966.7689,-123.6307"/>
</g>
<!-- Node323&#45;&gt;Node326 -->
<g id="edge94" class="edge">
<title>Node323&#45;&gt;Node326</title>
<path fill="none" stroke="#191970" d="M4006.0022,-123.0102C4024.1612,-110.067 4049.4815,-92.0195 4064.8272,-81.0817"/>
<polygon fill="#191970" stroke="#191970" points="4003.8498,-120.2462 3997.7381,-128.9005 4007.9128,-125.9464 4003.8498,-120.2462"/>
</g>
<!-- Node324&#45;&gt;Node3 -->
<g id="edge91" class="edge">
<title>Node324&#45;&gt;Node3</title>
<path fill="none" stroke="#191970" d="M3727.2931,-59.9651C3718.6574,-58.3577 3709.7357,-56.9373 3701.2702,-56 3459.5844,-29.24 1648.0586,-12.756 1362.9818,-10.3156"/>
<polygon fill="#191970" stroke="#191970" points="3726.7679,-63.4287 3737.2548,-61.9203 3728.1161,-56.5598 3726.7679,-63.4287"/>
</g>
<!-- Node325&#45;&gt;Node3 -->
<g id="edge93" class="edge">
<title>Node325&#45;&gt;Node3</title>
<path fill="none" stroke="#191970" d="M3875.5618,-60.068C3866.5156,-58.4168 3857.1467,-56.9552 3848.2702,-56 3590.8702,-28.3015 1657.8056,-12.5357 1362.9402,-10.2812"/>
<polygon fill="#191970" stroke="#191970" points="3875.1138,-63.5459 3885.5947,-61.996 3876.4349,-56.6717 3875.1138,-63.5459"/>
</g>
<!-- Node326&#45;&gt;Node3 -->
<g id="edge95" class="edge">
<title>Node326&#45;&gt;Node3</title>
<path fill="none" stroke="#191970" d="M4029.6305,-59.9484C4021.2177,-58.3423 4012.5236,-56.9268 4004.2702,-56 3730.3767,-25.2445 1667.5211,-12.0095 1362.8247,-10.2143"/>
<polygon fill="#191970" stroke="#191970" points="4029.2094,-63.4339 4039.7043,-61.9819 4030.5945,-56.5723 4029.2094,-63.4339"/>
</g>
<!-- Node327&#45;&gt;Node3 -->
<g id="edge97" class="edge">
<title>Node327&#45;&gt;Node3</title>
<path fill="none" stroke="#191970" d="M4205.967,-118.8176C4206.4212,-99.4989 4203.6093,-70.8381 4185.2702,-56 4156.4895,-32.7137 1697.699,-12.8809 1362.8703,-10.2871"/>
<polygon fill="#191970" stroke="#191970" points="4202.4649,-118.7617 4205.4149,-128.9375 4209.4545,-119.1431 4202.4649,-118.7617"/>
</g>
<!-- Node328&#45;&gt;Node3 -->
<g id="edge99" class="edge">
<title>Node328&#45;&gt;Node3</title>
<path fill="none" stroke="#191970" d="M4328.8989,-122.722C4303.0188,-102.7408 4254.877,-69.3129 4207.2702,-56 4063.7477,-15.8649 1691.1648,-10.5921 1362.8443,-10.0539"/>
<polygon fill="#191970" stroke="#191970" points="4326.767,-125.4982 4336.7892,-128.9343 4331.0973,-119.9982 4326.767,-125.4982"/>
</g>
<!-- Node329&#45;&gt;Node3 -->
<g id="edge101" class="edge">
<title>Node329&#45;&gt;Node3</title>
<path fill="none" stroke="#191970" d="M4457.2093,-124.6132C4414.2376,-104.8986 4330.6855,-69.6735 4255.2702,-56 4106.1124,-28.9563 1694.2909,-12.3921 1362.9014,-10.2395"/>
<polygon fill="#191970" stroke="#191970" points="4455.9453,-127.8851 4466.4894,-128.9203 4458.8922,-121.5356 4455.9453,-127.8851"/>
</g>
<!-- Node330&#45;&gt;Node3 -->
<g id="edge103" class="edge">
<title>Node330&#45;&gt;Node3</title>
<path fill="none" stroke="#191970" d="M4559.8338,-125.1626C4509.999,-105.4548 4411.1348,-69.4389 4323.2702,-56 4169.8258,-32.5306 1698.8755,-12.8559 1362.9688,-10.2845"/>
<polygon fill="#191970" stroke="#191970" points="4558.8311,-128.5309 4569.416,-128.9909 4561.4282,-122.0305 4558.8311,-128.5309"/>
</g>
<!-- Node331&#45;&gt;Node322 -->
<g id="edge106" class="edge">
<title>Node331&#45;&gt;Node322</title>
<path fill="none" stroke="#191970" d="M3978.4591,-236.1575C3979.906,-227.155 3981.5509,-216.9199 3982.7204,-209.6427"/>
<polygon fill="#191970" stroke="#191970" points="3974.969,-235.8168 3976.8378,-246.2455 3981.8804,-236.9276 3974.969,-235.8168"/>
</g>
</g>
</svg>
