<?xml version="1.0" encoding="UTF-8" standalone="no"?>
<!DOCTYPE svg PUBLIC "-//W3C//DTD SVG 1.1//EN"
 "http://www.w3.org/Graphics/SVG/1.1/DTD/svg11.dtd">
<!-- Generated by graphviz version 2.40.1 (20161225.0304)
 -->
<!-- Title: sitkImageSeriesWriter.h Pages: 1 -->
<svg width="1625pt" height="543pt"
 viewBox="0.00 0.00 1625.00 543.00" xmlns="http://www.w3.org/2000/svg" xmlns:xlink="http://www.w3.org/1999/xlink">
<g id="graph0" class="graph" transform="scale(1 1) rotate(0) translate(4 539)">
<title>sitkImageSeriesWriter.h</title>
<polygon fill="#ffffff" stroke="transparent" points="-4,4 -4,-539 1621,-539 1621,4 -4,4"/>
<!-- Node1 -->
<g id="node1" class="node">
<title>Node1</title>
<g id="a_node1"><a xlink:title=" ">
<polygon fill="#bfbfbf" stroke="#000000" points="1440.5,-515.5 1440.5,-534.5 1573.5,-534.5 1573.5,-515.5 1440.5,-515.5"/>
<text text-anchor="middle" x="1507" y="-522.5" font-family="Helvetica,sans-Serif" font-size="10.00" fill="#000000">sitkImageSeriesWriter.h</text>
</a>
</g>
</g>
<!-- Node2 -->
<g id="node2" class="node">
<title>Node2</title>
<g id="a_node2"><a xlink:href="sitkMacro_8h.html" target="_top" xlink:title=" ">
<polygon fill="#ffffff" stroke="#000000" points="1009.5,-56.5 1009.5,-75.5 1082.5,-75.5 1082.5,-56.5 1009.5,-56.5"/>
<text text-anchor="middle" x="1046" y="-63.5" font-family="Helvetica,sans-Serif" font-size="10.00" fill="#000000">sitkMacro.h</text>
</a>
</g>
</g>
<!-- Node1&#45;&gt;Node2 -->
<g id="edge1" class="edge">
<title>Node1&#45;&gt;Node2</title>
<path fill="none" stroke="#191970" d="M1539.8731,-515.4233C1559.0354,-508.2689 1582.2569,-496.6369 1597,-479 1616.658,-455.4836 1617,-443.6506 1617,-413 1617,-413 1617,-413 1617,-178 1617,-91.5387 1518.1435,-131.8855 1434,-112 1313.0363,-83.4128 1166.4528,-72.1822 1092.8992,-68.1076"/>
<polygon fill="#191970" stroke="#191970" points="1092.7611,-64.5954 1082.5887,-67.5572 1092.3879,-71.5854 1092.7611,-64.5954"/>
</g>
<!-- Node9 -->
<g id="node9" class="node">
<title>Node9</title>
<g id="a_node9"><a xlink:href="sitkImage_8h.html" target="_top" xlink:title=" ">
<polygon fill="#ffffff" stroke="#000000" points="1194,-347.5 1194,-366.5 1268,-366.5 1268,-347.5 1194,-347.5"/>
<text text-anchor="middle" x="1231" y="-354.5" font-family="Helvetica,sans-Serif" font-size="10.00" fill="#000000">sitkImage.h</text>
</a>
</g>
</g>
<!-- Node1&#45;&gt;Node9 -->
<g id="edge8" class="edge">
<title>Node1&#45;&gt;Node9</title>
<path fill="none" stroke="#191970" d="M1503.8782,-515.2618C1495.8615,-491.8986 1472.2324,-432.4281 1431,-403 1406.8534,-385.7662 1329.492,-371.4888 1278.3656,-363.6139"/>
<polygon fill="#191970" stroke="#191970" points="1278.6088,-360.111 1268.1983,-362.0786 1277.5636,-367.0325 1278.6088,-360.111"/>
</g>
<!-- Node32 -->
<g id="node32" class="node">
<title>Node32</title>
<g id="a_node32"><a xlink:href="sitkProcessObject_8h.html" target="_top" xlink:title=" ">
<polygon fill="#ffffff" stroke="#000000" points="1268.5,-459.5 1268.5,-478.5 1381.5,-478.5 1381.5,-459.5 1268.5,-459.5"/>
<text text-anchor="middle" x="1325" y="-466.5" font-family="Helvetica,sans-Serif" font-size="10.00" fill="#000000">sitkProcessObject.h</text>
</a>
</g>
</g>
<!-- Node1&#45;&gt;Node32 -->
<g id="edge50" class="edge">
<title>Node1&#45;&gt;Node32</title>
<path fill="none" stroke="#191970" d="M1475.7131,-515.3733C1445.3182,-506.021 1399.0107,-491.7725 1365.75,-481.5385"/>
<polygon fill="#191970" stroke="#191970" points="1366.4658,-478.0968 1355.8786,-478.5011 1364.4071,-484.7873 1366.4658,-478.0968"/>
</g>
<!-- Node37 -->
<g id="node37" class="node">
<title>Node37</title>
<g id="a_node37"><a xlink:href="sitkIO_8h.html" target="_top" xlink:title=" ">
<polygon fill="#ffffff" stroke="#000000" points="1535.5,-459.5 1535.5,-478.5 1588.5,-478.5 1588.5,-459.5 1535.5,-459.5"/>
<text text-anchor="middle" x="1562" y="-466.5" font-family="Helvetica,sans-Serif" font-size="10.00" fill="#000000">sitkIO.h</text>
</a>
</g>
</g>
<!-- Node1&#45;&gt;Node37 -->
<g id="edge62" class="edge">
<title>Node1&#45;&gt;Node37</title>
<path fill="none" stroke="#191970" d="M1516.5803,-515.2455C1524.5458,-507.1352 1536.0641,-495.4075 1545.5079,-485.7919"/>
<polygon fill="#191970" stroke="#191970" points="1548.0195,-488.2297 1552.5295,-478.6427 1543.0253,-483.3247 1548.0195,-488.2297"/>
</g>
<!-- Node38 -->
<g id="node38" class="node">
<title>Node38</title>
<g id="a_node38"><a xlink:href="sitkMemberFunctionFactory_8h.html" target="_top" xlink:title=" ">
<polygon fill="#ffffff" stroke="#000000" points="584,-347.5 584,-366.5 742,-366.5 742,-347.5 584,-347.5"/>
<text text-anchor="middle" x="663" y="-354.5" font-family="Helvetica,sans-Serif" font-size="10.00" fill="#000000">sitkMemberFunctionFactory.h</text>
</a>
</g>
</g>
<!-- Node1&#45;&gt;Node38 -->
<g id="edge64" class="edge">
<title>Node1&#45;&gt;Node38</title>
<path fill="none" stroke="#191970" d="M1440.4244,-519.1392C1283.9507,-504.8189 896.7567,-466.058 774,-423 740.1234,-411.1175 705.1985,-388.2782 683.7904,-372.8376"/>
<polygon fill="#191970" stroke="#191970" points="685.6144,-369.8343 675.4855,-366.7267 681.4657,-375.4725 685.6144,-369.8343"/>
</g>
<!-- Node3 -->
<g id="node3" class="node">
<title>Node3</title>
<g id="a_node3"><a xlink:title=" ">
<polygon fill="#ffffff" stroke="#bfbfbf" points="743.5,-.5 743.5,-19.5 796.5,-19.5 796.5,-.5 743.5,-.5"/>
<text text-anchor="middle" x="770" y="-7.5" font-family="Helvetica,sans-Serif" font-size="10.00" fill="#000000">stdint.h</text>
</a>
</g>
</g>
<!-- Node2&#45;&gt;Node3 -->
<g id="edge2" class="edge">
<title>Node2&#45;&gt;Node3</title>
<path fill="none" stroke="#191970" d="M1009.3493,-58.5636C956.5605,-47.8529 859.6753,-28.195 806.8023,-17.4671"/>
<polygon fill="#191970" stroke="#191970" points="807.3369,-14.0044 796.8406,-15.4459 805.9449,-20.8646 807.3369,-14.0044"/>
</g>
<!-- Node4 -->
<g id="node4" class="node">
<title>Node4</title>
<g id="a_node4"><a xlink:title=" ">
<polygon fill="#ffffff" stroke="#bfbfbf" points="944,-.5 944,-19.5 1000,-19.5 1000,-.5 944,-.5"/>
<text text-anchor="middle" x="972" y="-7.5" font-family="Helvetica,sans-Serif" font-size="10.00" fill="#000000">stddef.h</text>
</a>
</g>
</g>
<!-- Node2&#45;&gt;Node4 -->
<g id="edge3" class="edge">
<title>Node2&#45;&gt;Node4</title>
<path fill="none" stroke="#191970" d="M1033.1102,-56.2455C1022.0746,-47.8943 1005.9708,-35.7076 993.0647,-25.9408"/>
<polygon fill="#191970" stroke="#191970" points="994.8283,-22.8862 984.7421,-19.6427 990.6041,-28.4681 994.8283,-22.8862"/>
</g>
<!-- Node5 -->
<g id="node5" class="node">
<title>Node5</title>
<g id="a_node5"><a xlink:title=" ">
<polygon fill="#ffffff" stroke="#bfbfbf" points="283,-.5 283,-19.5 335,-19.5 335,-.5 283,-.5"/>
<text text-anchor="middle" x="309" y="-7.5" font-family="Helvetica,sans-Serif" font-size="10.00" fill="#000000">cassert</text>
</a>
</g>
</g>
<!-- Node2&#45;&gt;Node5 -->
<g id="edge4" class="edge">
<title>Node2&#45;&gt;Node5</title>
<path fill="none" stroke="#191970" d="M1009.4521,-63.223C883.8614,-53.6801 470.8203,-22.2957 345.422,-12.7675"/>
<polygon fill="#191970" stroke="#191970" points="345.4413,-9.2589 335.2048,-11.9911 344.9109,-16.2388 345.4413,-9.2589"/>
</g>
<!-- Node6 -->
<g id="node6" class="node">
<title>Node6</title>
<g id="a_node6"><a xlink:title=" ">
<polygon fill="#ffffff" stroke="#bfbfbf" points="1018,-.5 1018,-19.5 1074,-19.5 1074,-.5 1018,-.5"/>
<text text-anchor="middle" x="1046" y="-7.5" font-family="Helvetica,sans-Serif" font-size="10.00" fill="#000000">sstream</text>
</a>
</g>
</g>
<!-- Node2&#45;&gt;Node6 -->
<g id="edge5" class="edge">
<title>Node2&#45;&gt;Node6</title>
<path fill="none" stroke="#191970" d="M1046,-56.2455C1046,-48.9382 1046,-38.6944 1046,-29.7046"/>
<polygon fill="#191970" stroke="#191970" points="1049.5001,-29.6426 1046,-19.6427 1042.5001,-29.6427 1049.5001,-29.6426"/>
</g>
<!-- Node7 -->
<g id="node7" class="node">
<title>Node7</title>
<g id="a_node7"><a xlink:title=" ">
<polygon fill="#ffffff" stroke="#bfbfbf" points="1092,-.5 1092,-19.5 1136,-19.5 1136,-.5 1092,-.5"/>
<text text-anchor="middle" x="1114" y="-7.5" font-family="Helvetica,sans-Serif" font-size="10.00" fill="#000000">limits</text>
</a>
</g>
</g>
<!-- Node2&#45;&gt;Node7 -->
<g id="edge6" class="edge">
<title>Node2&#45;&gt;Node7</title>
<path fill="none" stroke="#191970" d="M1057.8447,-56.2455C1067.888,-47.9746 1082.4995,-35.9416 1094.3004,-26.2232"/>
<polygon fill="#191970" stroke="#191970" points="1096.7967,-28.7015 1102.291,-19.6427 1092.3467,-23.298 1096.7967,-28.7015"/>
</g>
<!-- Node8 -->
<g id="node8" class="node">
<title>Node8</title>
<g id="a_node8"><a xlink:href="sitkConfigure_8h.html" target="_top" xlink:title=" ">
<polygon fill="#ffffff" stroke="#000000" points="583,-.5 583,-19.5 673,-19.5 673,-.5 583,-.5"/>
<text text-anchor="middle" x="628" y="-7.5" font-family="Helvetica,sans-Serif" font-size="10.00" fill="#000000">sitkConfigure.h</text>
</a>
</g>
</g>
<!-- Node2&#45;&gt;Node8 -->
<g id="edge7" class="edge">
<title>Node2&#45;&gt;Node8</title>
<path fill="none" stroke="#191970" d="M1009.2716,-61.0795C935.6854,-51.221 769.8345,-29.0017 683.1443,-17.3877"/>
<polygon fill="#191970" stroke="#191970" points="683.6062,-13.9184 673.23,-16.0595 682.6767,-20.8565 683.6062,-13.9184"/>
</g>
<!-- Node10 -->
<g id="node10" class="node">
<title>Node10</title>
<g id="a_node10"><a xlink:href="sitkCommon_8h.html" target="_top" xlink:title=" ">
<polygon fill="#ffffff" stroke="#000000" points="1002,-112.5 1002,-131.5 1090,-131.5 1090,-112.5 1002,-112.5"/>
<text text-anchor="middle" x="1046" y="-119.5" font-family="Helvetica,sans-Serif" font-size="10.00" fill="#000000">sitkCommon.h</text>
</a>
</g>
</g>
<!-- Node9&#45;&gt;Node10 -->
<g id="edge9" class="edge">
<title>Node9&#45;&gt;Node10</title>
<path fill="none" stroke="#191970" d="M1229.1476,-347.4702C1224.4928,-324.9084 1210.9348,-266.9038 1187,-224 1171.1697,-195.6239 1165.5929,-188.0202 1140,-168 1122.6537,-154.4307 1100.6596,-143.3983 1082.3081,-135.5426"/>
<polygon fill="#191970" stroke="#191970" points="1083.3932,-132.204 1072.8146,-131.6186 1080.7192,-138.6731 1083.3932,-132.204"/>
</g>
<!-- Node11 -->
<g id="node11" class="node">
<title>Node11</title>
<g id="a_node11"><a xlink:href="sitkTemplateFunctions_8h.html" target="_top" xlink:title=" ">
<polygon fill="#ffffff" stroke="#000000" points="1273,-230 1273,-249 1407,-249 1407,-230 1273,-230"/>
<text text-anchor="middle" x="1340" y="-237" font-family="Helvetica,sans-Serif" font-size="10.00" fill="#000000">sitkTemplateFunctions.h</text>
</a>
</g>
</g>
<!-- Node9&#45;&gt;Node11 -->
<g id="edge11" class="edge">
<title>Node9&#45;&gt;Node11</title>
<path fill="none" stroke="#191970" d="M1234.1388,-347.1293C1238.889,-333.3603 1248.9734,-308.152 1264,-291 1277.2205,-275.9095 1295.8144,-263.2079 1311.3012,-254.1944"/>
<polygon fill="#191970" stroke="#191970" points="1313.4459,-257.0053 1320.4665,-249.0704 1310.03,-250.8953 1313.4459,-257.0053"/>
</g>
<!-- Node13 -->
<g id="node13" class="node">
<title>Node13</title>
<g id="a_node13"><a xlink:title=" ">
<polygon fill="#ffffff" stroke="#bfbfbf" points="1477.5,-168.5 1477.5,-187.5 1524.5,-187.5 1524.5,-168.5 1477.5,-168.5"/>
<text text-anchor="middle" x="1501" y="-175.5" font-family="Helvetica,sans-Serif" font-size="10.00" fill="#000000">vector</text>
</a>
</g>
</g>
<!-- Node9&#45;&gt;Node13 -->
<g id="edge47" class="edge">
<title>Node9&#45;&gt;Node13</title>
<path fill="none" stroke="#191970" d="M1258.7223,-347.3719C1281.2746,-339.0563 1313.5769,-326.0302 1340,-311 1398.5118,-277.7167 1456.8398,-222.7506 1484.4716,-195.062"/>
<polygon fill="#191970" stroke="#191970" points="1487.1963,-197.2838 1491.7277,-187.7069 1482.2131,-192.3677 1487.1963,-197.2838"/>
</g>
<!-- Node16 -->
<g id="node16" class="node">
<title>Node16</title>
<g id="a_node16"><a xlink:href="sitkDetail_8h.html" target="_top" xlink:title=" ">
<polygon fill="#ffffff" stroke="#000000" points="626.5,-291.5 626.5,-310.5 699.5,-310.5 699.5,-291.5 626.5,-291.5"/>
<text text-anchor="middle" x="663" y="-298.5" font-family="Helvetica,sans-Serif" font-size="10.00" fill="#000000">sitkDetail.h</text>
</a>
</g>
</g>
<!-- Node9&#45;&gt;Node16 -->
<g id="edge20" class="edge">
<title>Node9&#45;&gt;Node16</title>
<path fill="none" stroke="#191970" d="M1193.7319,-353.3257C1093.7909,-343.4723 819.9558,-316.4745 709.8044,-305.6145"/>
<polygon fill="#191970" stroke="#191970" points="709.9621,-302.1132 699.6669,-304.615 709.2752,-309.0794 709.9621,-302.1132"/>
</g>
<!-- Node27 -->
<g id="node27" class="node">
<title>Node27</title>
<g id="a_node27"><a xlink:href="sitkPixelIDTokens_8h.html" target="_top" xlink:title=" ">
<polygon fill="#ffffff" stroke="#000000" points="930,-291.5 930,-310.5 1042,-310.5 1042,-291.5 930,-291.5"/>
<text text-anchor="middle" x="986" y="-298.5" font-family="Helvetica,sans-Serif" font-size="10.00" fill="#000000">sitkPixelIDTokens.h</text>
</a>
</g>
</g>
<!-- Node9&#45;&gt;Node27 -->
<g id="edge39" class="edge">
<title>Node9&#45;&gt;Node27</title>
<path fill="none" stroke="#191970" d="M1193.7898,-348.4948C1152.1358,-338.9739 1084.363,-323.483 1037.6041,-312.7952"/>
<polygon fill="#191970" stroke="#191970" points="1038.1978,-309.3407 1027.6693,-310.5244 1036.638,-316.1647 1038.1978,-309.3407"/>
</g>
<!-- Node30 -->
<g id="node30" class="node">
<title>Node30</title>
<g id="a_node30"><a xlink:title=" ">
<polygon fill="#ffffff" stroke="#bfbfbf" points="1020.5,-230 1020.5,-249 1089.5,-249 1089.5,-230 1020.5,-230"/>
<text text-anchor="middle" x="1055" y="-237" font-family="Helvetica,sans-Serif" font-size="10.00" fill="#000000">type_traits</text>
</a>
</g>
</g>
<!-- Node9&#45;&gt;Node30 -->
<g id="edge49" class="edge">
<title>Node9&#45;&gt;Node30</title>
<path fill="none" stroke="#191970" d="M1216.5972,-347.3845C1186.1723,-327.0724 1115.1292,-279.6431 1078.2079,-254.9939"/>
<polygon fill="#191970" stroke="#191970" points="1079.8621,-251.89 1069.6018,-249.2484 1075.9753,-257.7118 1079.8621,-251.89"/>
</g>
<!-- Node31 -->
<g id="node31" class="node">
<title>Node31</title>
<g id="a_node31"><a xlink:title=" ">
<polygon fill="#ffffff" stroke="#bfbfbf" points="1273,-291.5 1273,-310.5 1331,-310.5 1331,-291.5 1273,-291.5"/>
<text text-anchor="middle" x="1302" y="-298.5" font-family="Helvetica,sans-Serif" font-size="10.00" fill="#000000">memory</text>
</a>
</g>
</g>
<!-- Node9&#45;&gt;Node31 -->
<g id="edge48" class="edge">
<title>Node9&#45;&gt;Node31</title>
<path fill="none" stroke="#191970" d="M1243.3673,-347.2455C1253.9554,-338.8943 1269.4064,-326.7076 1281.7893,-316.9408"/>
<polygon fill="#191970" stroke="#191970" points="1284.0903,-319.5837 1289.7745,-310.6427 1279.7553,-314.0875 1284.0903,-319.5837"/>
</g>
<!-- Node10&#45;&gt;Node2 -->
<g id="edge10" class="edge">
<title>Node10&#45;&gt;Node2</title>
<path fill="none" stroke="#191970" d="M1046,-112.2455C1046,-104.9382 1046,-94.6944 1046,-85.7046"/>
<polygon fill="#191970" stroke="#191970" points="1049.5001,-85.6426 1046,-75.6427 1042.5001,-85.6427 1049.5001,-85.6426"/>
</g>
<!-- Node11&#45;&gt;Node2 -->
<g id="edge12" class="edge">
<title>Node11&#45;&gt;Node2</title>
<path fill="none" stroke="#191970" d="M1343.4883,-229.6439C1348.0731,-214.7775 1354.1087,-186.4027 1341,-168 1311.6853,-126.8466 1168.5467,-91.5254 1092.9653,-75.3764"/>
<polygon fill="#191970" stroke="#191970" points="1093.2746,-71.8647 1082.7676,-73.2263 1091.8304,-78.7141 1093.2746,-71.8647"/>
</g>
<!-- Node11&#45;&gt;Node10 -->
<g id="edge13" class="edge">
<title>Node11&#45;&gt;Node10</title>
<path fill="none" stroke="#191970" d="M1340.3311,-229.9808C1340.3088,-214.5092 1337.8304,-184.0271 1320,-168 1288.4156,-139.6098 1170.6418,-128.5116 1100.1934,-124.3494"/>
<polygon fill="#191970" stroke="#191970" points="1100.3396,-120.8521 1090.1587,-123.7843 1099.9461,-127.8411 1100.3396,-120.8521"/>
</g>
<!-- Node12 -->
<g id="node12" class="node">
<title>Node12</title>
<g id="a_node12"><a xlink:href="sitkExceptionObject_8h.html" target="_top" xlink:title=" ">
<polygon fill="#ffffff" stroke="#000000" points="1188.5,-168.5 1188.5,-187.5 1311.5,-187.5 1311.5,-168.5 1188.5,-168.5"/>
<text text-anchor="middle" x="1250" y="-175.5" font-family="Helvetica,sans-Serif" font-size="10.00" fill="#000000">sitkExceptionObject.h</text>
</a>
</g>
</g>
<!-- Node11&#45;&gt;Node12 -->
<g id="edge14" class="edge">
<title>Node11&#45;&gt;Node12</title>
<path fill="none" stroke="#191970" d="M1325.9375,-229.8906C1311.6714,-220.1421 1289.365,-204.8994 1272.6128,-193.4521"/>
<polygon fill="#191970" stroke="#191970" points="1274.1949,-190.2941 1263.9638,-187.5419 1270.2455,-196.0736 1274.1949,-190.2941"/>
</g>
<!-- Node11&#45;&gt;Node13 -->
<g id="edge17" class="edge">
<title>Node11&#45;&gt;Node13</title>
<path fill="none" stroke="#191970" d="M1365.1563,-229.8906C1392.848,-219.3127 1437.4745,-202.2659 1467.9665,-190.6184"/>
<polygon fill="#191970" stroke="#191970" points="1469.2377,-193.8795 1477.3304,-187.0415 1466.7398,-187.3404 1469.2377,-193.8795"/>
</g>
<!-- Node14 -->
<g id="node14" class="node">
<title>Node14</title>
<g id="a_node14"><a xlink:title=" ">
<polygon fill="#ffffff" stroke="#bfbfbf" points="1074.5,-168.5 1074.5,-187.5 1131.5,-187.5 1131.5,-168.5 1074.5,-168.5"/>
<text text-anchor="middle" x="1103" y="-175.5" font-family="Helvetica,sans-Serif" font-size="10.00" fill="#000000">ostream</text>
</a>
</g>
</g>
<!-- Node11&#45;&gt;Node14 -->
<g id="edge18" class="edge">
<title>Node11&#45;&gt;Node14</title>
<path fill="none" stroke="#191970" d="M1303.2288,-229.9581C1259.3225,-218.5647 1186.2303,-199.5977 1141.5521,-188.004"/>
<polygon fill="#191970" stroke="#191970" points="1142.2145,-184.5601 1131.6559,-185.436 1140.4562,-191.3356 1142.2145,-184.5601"/>
</g>
<!-- Node15 -->
<g id="node15" class="node">
<title>Node15</title>
<g id="a_node15"><a xlink:title=" ">
<polygon fill="#ffffff" stroke="#bfbfbf" points="1406.5,-168.5 1406.5,-187.5 1459.5,-187.5 1459.5,-168.5 1406.5,-168.5"/>
<text text-anchor="middle" x="1433" y="-175.5" font-family="Helvetica,sans-Serif" font-size="10.00" fill="#000000">iterator</text>
</a>
</g>
</g>
<!-- Node11&#45;&gt;Node15 -->
<g id="edge19" class="edge">
<title>Node11&#45;&gt;Node15</title>
<path fill="none" stroke="#191970" d="M1354.5313,-229.8906C1369.4094,-220.0519 1392.7504,-204.6167 1410.1128,-193.1351"/>
<polygon fill="#191970" stroke="#191970" points="1412.1602,-195.9773 1418.5708,-187.5419 1408.299,-190.1385 1412.1602,-195.9773"/>
</g>
<!-- Node12&#45;&gt;Node2 -->
<g id="edge15" class="edge">
<title>Node12&#45;&gt;Node2</title>
<path fill="none" stroke="#191970" d="M1232.6071,-168.4509C1196.7757,-148.7788 1114.5519,-103.6363 1072.2294,-80.4005"/>
<polygon fill="#191970" stroke="#191970" points="1073.7991,-77.2695 1063.3489,-75.5249 1070.4303,-83.4056 1073.7991,-77.2695"/>
</g>
<!-- Node12&#45;&gt;Node10 -->
<g id="edge16" class="edge">
<title>Node12&#45;&gt;Node10</title>
<path fill="none" stroke="#191970" d="M1214.9311,-168.3733C1180.5685,-158.9404 1128.0608,-144.5265 1090.7149,-134.2747"/>
<polygon fill="#191970" stroke="#191970" points="1091.181,-130.7732 1080.6112,-131.5011 1089.328,-137.5235 1091.181,-130.7732"/>
</g>
<!-- Node17 -->
<g id="node17" class="node">
<title>Node17</title>
<g id="a_node17"><a xlink:href="sitkMemberFunctionFactoryBase_8h.html" target="_top" xlink:title=" ">
<polygon fill="#ffffff" stroke="#000000" points="314,-224.5 314,-254.5 464,-254.5 464,-224.5 314,-224.5"/>
<text text-anchor="start" x="322" y="-242.5" font-family="Helvetica,sans-Serif" font-size="10.00" fill="#000000">sitkMemberFunctionFactory</text>
<text text-anchor="middle" x="389" y="-231.5" font-family="Helvetica,sans-Serif" font-size="10.00" fill="#000000">Base.h</text>
</a>
</g>
</g>
<!-- Node16&#45;&gt;Node17 -->
<g id="edge21" class="edge">
<title>Node16&#45;&gt;Node17</title>
<path fill="none" stroke="#191970" d="M626.3315,-292.7697C585.5067,-283.6064 518.3697,-268.5374 465.9008,-256.7606"/>
<polygon fill="#191970" stroke="#191970" points="466.4737,-253.3022 455.9499,-254.5271 464.9406,-260.1322 466.4737,-253.3022"/>
</g>
<!-- Node23 -->
<g id="node23" class="node">
<title>Node23</title>
<g id="a_node23"><a xlink:title=" ">
<polygon fill="#ffffff" stroke="#bfbfbf" points="396,-168.5 396,-187.5 534,-187.5 534,-168.5 396,-168.5"/>
<text text-anchor="middle" x="465" y="-175.5" font-family="Helvetica,sans-Serif" font-size="10.00" fill="#000000">Ancillary/FunctionTraits.h</text>
</a>
</g>
</g>
<!-- Node16&#45;&gt;Node23 -->
<g id="edge38" class="edge">
<title>Node16&#45;&gt;Node23</title>
<path fill="none" stroke="#191970" d="M647.4633,-291.3484C613.0526,-269.9721 530.2122,-218.5106 489.0498,-192.94"/>
<polygon fill="#191970" stroke="#191970" points="490.8059,-189.9106 480.4646,-187.6068 487.1121,-195.8567 490.8059,-189.9106"/>
</g>
<!-- Node17&#45;&gt;Node2 -->
<g id="edge30" class="edge">
<title>Node17&#45;&gt;Node2</title>
<path fill="none" stroke="#191970" d="M464.1795,-232.6837C524.728,-225.705 611.4121,-212.3245 684,-188 702.4702,-181.8106 704.9821,-175.4035 723,-168 819.0338,-128.54 936.2367,-94.9932 999.732,-77.9721"/>
<polygon fill="#191970" stroke="#191970" points="1000.6877,-81.3396 1009.45,-75.3838 998.886,-74.5754 1000.6877,-81.3396"/>
</g>
<!-- Node17&#45;&gt;Node8 -->
<g id="edge22" class="edge">
<title>Node17&#45;&gt;Node8</title>
<path fill="none" stroke="#191970" d="M313.9688,-231.7933C229.0678,-222.3018 100.6088,-205.3013 86,-188 80.2653,-181.2084 83.0486,-176.3846 86,-168 96.6014,-137.8825 103.749,-128.6385 131,-112 204.9957,-66.8209 459.0695,-30.8109 572.5208,-16.5832"/>
<polygon fill="#191970" stroke="#191970" points="573.2333,-20.0216 582.7252,-15.3148 572.3698,-13.0751 573.2333,-20.0216"/>
</g>
<!-- Node18 -->
<g id="node18" class="node">
<title>Node18</title>
<g id="a_node18"><a xlink:href="sitkPixelIDTypes_8h.html" target="_top" xlink:title=" ">
<polygon fill="#ffffff" stroke="#000000" points="140,-112.5 140,-131.5 246,-131.5 246,-112.5 140,-112.5"/>
<text text-anchor="middle" x="193" y="-119.5" font-family="Helvetica,sans-Serif" font-size="10.00" fill="#000000">sitkPixelIDTypes.h</text>
</a>
</g>
</g>
<!-- Node17&#45;&gt;Node18 -->
<g id="edge23" class="edge">
<title>Node17&#45;&gt;Node18</title>
<path fill="none" stroke="#191970" d="M313.6794,-236.9727C235.9917,-232.593 122.4146,-220.6342 95,-188 75.3659,-164.6276 111.6722,-146.1262 145.5179,-134.7303"/>
<polygon fill="#191970" stroke="#191970" points="146.9544,-137.9456 155.4128,-131.5655 144.8219,-131.2784 146.9544,-137.9456"/>
</g>
<!-- Node19 -->
<g id="node19" class="node">
<title>Node19</title>
<g id="a_node19"><a xlink:href="sitkPixelIDTypeLists_8h.html" target="_top" xlink:title=" ">
<polygon fill="#ffffff" stroke="#000000" points="552.5,-168.5 552.5,-187.5 675.5,-187.5 675.5,-168.5 552.5,-168.5"/>
<text text-anchor="middle" x="614" y="-175.5" font-family="Helvetica,sans-Serif" font-size="10.00" fill="#000000">sitkPixelIDTypeLists.h</text>
</a>
</g>
</g>
<!-- Node17&#45;&gt;Node19 -->
<g id="edge24" class="edge">
<title>Node17&#45;&gt;Node19</title>
<path fill="none" stroke="#191970" d="M444.0412,-224.4554C482.571,-213.9239 533.3922,-200.0328 569.3941,-190.1923"/>
<polygon fill="#191970" stroke="#191970" points="570.4097,-193.5432 579.133,-187.5303 568.564,-186.7909 570.4097,-193.5432"/>
</g>
<!-- Node20 -->
<g id="node20" class="node">
<title>Node20</title>
<g id="a_node20"><a xlink:title=" ">
<polygon fill="#ffffff" stroke="#bfbfbf" points="374.5,-112.5 374.5,-131.5 485.5,-131.5 485.5,-112.5 374.5,-112.5"/>
<text text-anchor="middle" x="430" y="-119.5" font-family="Helvetica,sans-Serif" font-size="10.00" fill="#000000">Ancillary/TypeList.h</text>
</a>
</g>
</g>
<!-- Node17&#45;&gt;Node20 -->
<g id="edge33" class="edge">
<title>Node17&#45;&gt;Node20</title>
<path fill="none" stroke="#191970" d="M385.2346,-224.394C382.2792,-209.5 379.7524,-186.3664 387,-168 391.5469,-156.4774 400.4932,-146.143 409.0534,-138.2024"/>
<polygon fill="#191970" stroke="#191970" points="411.3938,-140.8057 416.669,-131.6175 406.8153,-135.5106 411.3938,-140.8057"/>
</g>
<!-- Node22 -->
<g id="node22" class="node">
<title>Node22</title>
<g id="a_node22"><a xlink:href="sitkNonCopyable_8h.html" target="_top" xlink:title=" ">
<polygon fill="#ffffff" stroke="#000000" points="732.5,-168.5 732.5,-187.5 841.5,-187.5 841.5,-168.5 732.5,-168.5"/>
<text text-anchor="middle" x="787" y="-175.5" font-family="Helvetica,sans-Serif" font-size="10.00" fill="#000000">sitkNonCopyable.h</text>
</a>
</g>
</g>
<!-- Node17&#45;&gt;Node22 -->
<g id="edge31" class="edge">
<title>Node17&#45;&gt;Node22</title>
<path fill="none" stroke="#191970" d="M464.3287,-227.86C538.863,-216.3428 651.7457,-198.8999 722.3322,-187.9926"/>
<polygon fill="#191970" stroke="#191970" points="723.0819,-191.4184 732.4301,-186.4323 722.0129,-184.5005 723.0819,-191.4184"/>
</g>
<!-- Node17&#45;&gt;Node23 -->
<g id="edge34" class="edge">
<title>Node17&#45;&gt;Node23</title>
<path fill="none" stroke="#191970" d="M407.7865,-224.2977C419.1053,-215.1384 433.5105,-203.4816 445.0346,-194.1562"/>
<polygon fill="#191970" stroke="#191970" points="447.2595,-196.8583 452.8314,-187.8469 442.8561,-191.4167 447.2595,-196.8583"/>
</g>
<!-- Node24 -->
<g id="node24" class="node">
<title>Node24</title>
<g id="a_node24"><a xlink:title=" ">
<polygon fill="#ffffff" stroke="#bfbfbf" points="104.5,-168.5 104.5,-187.5 197.5,-187.5 197.5,-168.5 104.5,-168.5"/>
<text text-anchor="middle" x="151" y="-175.5" font-family="Helvetica,sans-Serif" font-size="10.00" fill="#000000">unordered_map</text>
</a>
</g>
</g>
<!-- Node17&#45;&gt;Node24 -->
<g id="edge35" class="edge">
<title>Node17&#45;&gt;Node24</title>
<path fill="none" stroke="#191970" d="M330.7787,-224.4554C289.8485,-213.8789 235.8054,-199.914 197.6957,-190.0663"/>
<polygon fill="#191970" stroke="#191970" points="198.4392,-186.6436 187.8816,-187.5303 196.6879,-193.4209 198.4392,-186.6436"/>
</g>
<!-- Node25 -->
<g id="node25" class="node">
<title>Node25</title>
<g id="a_node25"><a xlink:title=" ">
<polygon fill="#ffffff" stroke="#bfbfbf" points="215.5,-168.5 215.5,-187.5 280.5,-187.5 280.5,-168.5 215.5,-168.5"/>
<text text-anchor="middle" x="248" y="-175.5" font-family="Helvetica,sans-Serif" font-size="10.00" fill="#000000">functional</text>
</a>
</g>
</g>
<!-- Node17&#45;&gt;Node25 -->
<g id="edge36" class="edge">
<title>Node17&#45;&gt;Node25</title>
<path fill="none" stroke="#191970" d="M354.5075,-224.4554C331.4972,-214.419 301.4914,-201.3314 279.1945,-191.6061"/>
<polygon fill="#191970" stroke="#191970" points="280.4154,-188.3202 269.85,-187.5303 277.6167,-194.7364 280.4154,-188.3202"/>
</g>
<!-- Node26 -->
<g id="node26" class="node">
<title>Node26</title>
<g id="a_node26"><a xlink:title=" ">
<polygon fill="#ffffff" stroke="#bfbfbf" points="298.5,-168.5 298.5,-187.5 339.5,-187.5 339.5,-168.5 298.5,-168.5"/>
<text text-anchor="middle" x="319" y="-175.5" font-family="Helvetica,sans-Serif" font-size="10.00" fill="#000000">tuple</text>
</a>
</g>
</g>
<!-- Node17&#45;&gt;Node26 -->
<g id="edge37" class="edge">
<title>Node17&#45;&gt;Node26</title>
<path fill="none" stroke="#191970" d="M371.6966,-224.2977C361.4738,-215.3163 348.5177,-203.9334 338.0104,-194.702"/>
<polygon fill="#191970" stroke="#191970" points="340.0305,-191.8178 330.2079,-187.8469 335.4103,-197.0766 340.0305,-191.8178"/>
</g>
<!-- Node19&#45;&gt;Node3 -->
<g id="edge25" class="edge">
<title>Node19&#45;&gt;Node3</title>
<path fill="none" stroke="#191970" d="M612.4376,-168.2675C610.7672,-154.6626 609.6089,-129.648 620,-112 645.7783,-68.2185 698.6389,-39.1096 734.2091,-23.5679"/>
<polygon fill="#191970" stroke="#191970" points="735.8939,-26.6559 743.7463,-19.5432 733.1722,-20.2066 735.8939,-26.6559"/>
</g>
<!-- Node19&#45;&gt;Node8 -->
<g id="edge26" class="edge">
<title>Node19&#45;&gt;Node8</title>
<path fill="none" stroke="#191970" d="M606.3381,-168.4654C599.7513,-159.6125 590.7403,-145.7614 587,-132 578.1407,-99.4047 574.9748,-87.5647 587,-56 591.2275,-44.9034 599.4971,-34.7814 607.5088,-26.8751"/>
<polygon fill="#191970" stroke="#191970" points="610.2703,-29.0916 615.2752,-19.7534 605.5393,-23.9323 610.2703,-29.0916"/>
</g>
<!-- Node19&#45;&gt;Node18 -->
<g id="edge27" class="edge">
<title>Node19&#45;&gt;Node18</title>
<path fill="none" stroke="#191970" d="M552.4312,-169.2929C549.242,-168.8529 546.0836,-168.4198 543,-168 442.7233,-154.3489 326.1861,-139.1695 256.0876,-130.1132"/>
<polygon fill="#191970" stroke="#191970" points="256.4555,-126.6317 246.0897,-128.8223 255.5591,-133.5741 256.4555,-126.6317"/>
</g>
<!-- Node19&#45;&gt;Node20 -->
<g id="edge28" class="edge">
<title>Node19&#45;&gt;Node20</title>
<path fill="none" stroke="#191970" d="M582.3693,-168.3733C551.6404,-159.021 504.824,-144.7725 471.1978,-134.5385"/>
<polygon fill="#191970" stroke="#191970" points="471.8038,-131.0644 461.218,-131.5011 469.7656,-137.7612 471.8038,-131.0644"/>
</g>
<!-- Node21 -->
<g id="node21" class="node">
<title>Node21</title>
<g id="a_node21"><a xlink:title=" ">
<polygon fill="#ffffff" stroke="#bfbfbf" points="629.5,-112.5 629.5,-131.5 688.5,-131.5 688.5,-112.5 629.5,-112.5"/>
<text text-anchor="middle" x="659" y="-119.5" font-family="Helvetica,sans-Serif" font-size="10.00" fill="#000000">complex</text>
</a>
</g>
</g>
<!-- Node19&#45;&gt;Node21 -->
<g id="edge29" class="edge">
<title>Node19&#45;&gt;Node21</title>
<path fill="none" stroke="#191970" d="M621.8384,-168.2455C628.162,-160.3761 637.2224,-149.101 644.8136,-139.6542"/>
<polygon fill="#191970" stroke="#191970" points="647.7158,-141.6302 651.2514,-131.6427 642.2592,-137.2454 647.7158,-141.6302"/>
</g>
<!-- Node22&#45;&gt;Node10 -->
<g id="edge32" class="edge">
<title>Node22&#45;&gt;Node10</title>
<path fill="none" stroke="#191970" d="M831.2294,-168.4369C875.7415,-158.8127 944.449,-143.957 992.1169,-133.6504"/>
<polygon fill="#191970" stroke="#191970" points="992.9186,-137.058 1001.953,-131.5237 991.4392,-130.2161 992.9186,-137.058"/>
</g>
<!-- Node27&#45;&gt;Node8 -->
<g id="edge40" class="edge">
<title>Node27&#45;&gt;Node8</title>
<path fill="none" stroke="#191970" d="M946.6509,-291.4248C925.3566,-284.4572 900.0073,-273.0141 883,-255 854.6101,-224.9295 875.2703,-200.7358 850,-168 796.7235,-98.9841 705.0948,-47.45 657.9492,-23.9973"/>
<polygon fill="#191970" stroke="#191970" points="659.3863,-20.804 648.8656,-19.5534 656.3101,-27.0919 659.3863,-20.804"/>
</g>
<!-- Node28 -->
<g id="node28" class="node">
<title>Node28</title>
<g id="a_node28"><a xlink:href="sitkPixelIDValues_8h.html" target="_top" xlink:title=" ">
<polygon fill="#ffffff" stroke="#000000" points="892,-230 892,-249 1002,-249 1002,-230 892,-230"/>
<text text-anchor="middle" x="947" y="-237" font-family="Helvetica,sans-Serif" font-size="10.00" fill="#000000">sitkPixelIDValues.h</text>
</a>
</g>
</g>
<!-- Node27&#45;&gt;Node28 -->
<g id="edge41" class="edge">
<title>Node27&#45;&gt;Node28</title>
<path fill="none" stroke="#191970" d="M979.9063,-291.3906C974.2157,-282.417 965.5728,-268.7879 958.5726,-257.7491"/>
<polygon fill="#191970" stroke="#191970" points="961.4909,-255.8155 953.1797,-249.2449 955.5793,-259.5644 961.4909,-255.8155"/>
</g>
<!-- Node27&#45;&gt;Node30 -->
<g id="edge46" class="edge">
<title>Node27&#45;&gt;Node30</title>
<path fill="none" stroke="#191970" d="M996.7813,-291.3906C1007.3526,-281.9683 1023.6825,-267.4134 1036.3603,-256.1137"/>
<polygon fill="#191970" stroke="#191970" points="1038.9304,-258.5114 1044.0667,-249.2449 1034.2728,-253.2858 1038.9304,-258.5114"/>
</g>
<!-- Node28&#45;&gt;Node10 -->
<g id="edge42" class="edge">
<title>Node28&#45;&gt;Node10</title>
<path fill="none" stroke="#191970" d="M955.1016,-229.8845C971.7805,-210.0889 1010.1602,-164.5372 1031.325,-139.4173"/>
<polygon fill="#191970" stroke="#191970" points="1034.0197,-141.651 1037.7865,-131.7484 1028.6665,-137.1406 1034.0197,-141.651"/>
</g>
<!-- Node28&#45;&gt;Node14 -->
<g id="edge45" class="edge">
<title>Node28&#45;&gt;Node14</title>
<path fill="none" stroke="#191970" d="M971.375,-229.8906C997.7056,-219.5103 1039.838,-202.9004 1069.3229,-191.2766"/>
<polygon fill="#191970" stroke="#191970" points="1070.7767,-194.4657 1078.7962,-187.5419 1068.2093,-187.9534 1070.7767,-194.4657"/>
</g>
<!-- Node28&#45;&gt;Node19 -->
<g id="edge43" class="edge">
<title>Node28&#45;&gt;Node19</title>
<path fill="none" stroke="#191970" d="M895.3341,-229.9581C835.9426,-218.9894 738.5432,-201.0012 675.3504,-189.3305"/>
<polygon fill="#191970" stroke="#191970" points="675.9825,-185.8881 665.5131,-187.5137 674.7111,-192.7717 675.9825,-185.8881"/>
</g>
<!-- Node29 -->
<g id="node29" class="node">
<title>Node29</title>
<g id="a_node29"><a xlink:title=" ">
<polygon fill="#ffffff" stroke="#bfbfbf" points="936,-168.5 936,-187.5 980,-187.5 980,-168.5 936,-168.5"/>
<text text-anchor="middle" x="958" y="-175.5" font-family="Helvetica,sans-Serif" font-size="10.00" fill="#000000">string</text>
</a>
</g>
</g>
<!-- Node28&#45;&gt;Node29 -->
<g id="edge44" class="edge">
<title>Node28&#45;&gt;Node29</title>
<path fill="none" stroke="#191970" d="M948.7188,-229.8906C950.2435,-221.3657 952.5198,-208.6392 954.4364,-197.9235"/>
<polygon fill="#191970" stroke="#191970" points="957.9416,-198.2049 956.257,-187.7449 951.0509,-196.9724 957.9416,-198.2049"/>
</g>
<!-- Node32&#45;&gt;Node9 -->
<g id="edge57" class="edge">
<title>Node32&#45;&gt;Node9</title>
<path fill="none" stroke="#191970" d="M1357.8434,-459.4998C1390.6442,-448.335 1433.5763,-428.1061 1414,-403 1397.4506,-381.7758 1326.7558,-368.8465 1278.2393,-362.3076"/>
<polygon fill="#191970" stroke="#191970" points="1278.6184,-358.8276 1268.2505,-361.0086 1277.7156,-365.7691 1278.6184,-358.8276"/>
</g>
<!-- Node32&#45;&gt;Node10 -->
<g id="edge51" class="edge">
<title>Node32&#45;&gt;Node10</title>
<path fill="none" stroke="#191970" d="M1268.4724,-467.0902C1145.3721,-461.3931 864,-439.3629 864,-357 864,-357 864,-357 864,-301 864,-235.5926 874.414,-206.8952 927,-168 947.6312,-152.7401 973.9612,-141.871 996.6063,-134.5438"/>
<polygon fill="#191970" stroke="#191970" points="997.8665,-137.8178 1006.3871,-131.5209 995.7995,-131.1299 997.8665,-137.8178"/>
</g>
<!-- Node32&#45;&gt;Node11 -->
<g id="edge53" class="edge">
<title>Node32&#45;&gt;Node11</title>
<path fill="none" stroke="#191970" d="M1376.4625,-459.4528C1397.039,-452.8386 1418.7291,-441.7016 1431,-423 1469.0861,-364.9544 1396.1541,-288.7183 1359.3851,-255.7971"/>
<polygon fill="#191970" stroke="#191970" points="1361.5577,-253.0475 1351.7267,-249.0974 1356.9487,-258.316 1361.5577,-253.0475"/>
</g>
<!-- Node32&#45;&gt;Node22 -->
<g id="edge52" class="edge">
<title>Node32&#45;&gt;Node22</title>
<path fill="none" stroke="#191970" d="M1268.1238,-465.7439C1150.1609,-458.6661 886.7637,-441.0586 850,-423 813.8766,-405.2559 788,-397.2462 788,-357 788,-357 788,-357 788,-301 788,-264.4982 787.5542,-221.9052 787.2579,-197.6281"/>
<polygon fill="#191970" stroke="#191970" points="790.757,-197.5239 787.1307,-187.5689 783.7575,-197.6124 790.757,-197.5239"/>
</g>
<!-- Node33 -->
<g id="node33" class="node">
<title>Node33</title>
<g id="a_node33"><a xlink:href="sitkEvent_8h.html" target="_top" xlink:title=" ">
<polygon fill="#ffffff" stroke="#000000" points="1107.5,-230 1107.5,-249 1178.5,-249 1178.5,-230 1107.5,-230"/>
<text text-anchor="middle" x="1143" y="-237" font-family="Helvetica,sans-Serif" font-size="10.00" fill="#000000">sitkEvent.h</text>
</a>
</g>
</g>
<!-- Node32&#45;&gt;Node33 -->
<g id="edge54" class="edge">
<title>Node32&#45;&gt;Node33</title>
<path fill="none" stroke="#191970" d="M1268.3784,-460.9884C1224.3987,-453.5077 1168.5202,-440.8118 1154,-423 1115.257,-375.4744 1128.4708,-295.9304 1137.4768,-259.1949"/>
<polygon fill="#191970" stroke="#191970" points="1140.9331,-259.8113 1140.0744,-249.2514 1134.1604,-258.042 1140.9331,-259.8113"/>
</g>
<!-- Node34 -->
<g id="node34" class="node">
<title>Node34</title>
<g id="a_node34"><a xlink:href="sitkImageConvert_8h.html" target="_top" xlink:title=" ">
<polygon fill="#ffffff" stroke="#000000" points="1163.5,-403.5 1163.5,-422.5 1276.5,-422.5 1276.5,-403.5 1163.5,-403.5"/>
<text text-anchor="middle" x="1220" y="-410.5" font-family="Helvetica,sans-Serif" font-size="10.00" fill="#000000">sitkImageConvert.h</text>
</a>
</g>
</g>
<!-- Node32&#45;&gt;Node34 -->
<g id="edge58" class="edge">
<title>Node32&#45;&gt;Node34</title>
<path fill="none" stroke="#191970" d="M1306.7104,-459.2455C1290.2238,-450.4527 1265.7648,-437.4079 1247.0235,-427.4125"/>
<polygon fill="#191970" stroke="#191970" points="1248.5506,-424.2604 1238.08,-422.6427 1245.2565,-430.4368 1248.5506,-424.2604"/>
</g>
<!-- Node35 -->
<g id="node35" class="node">
<title>Node35</title>
<g id="a_node35"><a xlink:title=" ">
<polygon fill="#ffffff" stroke="#bfbfbf" points="1295,-403.5 1295,-422.5 1355,-422.5 1355,-403.5 1295,-403.5"/>
<text text-anchor="middle" x="1325" y="-410.5" font-family="Helvetica,sans-Serif" font-size="10.00" fill="#000000">iostream</text>
</a>
</g>
</g>
<!-- Node32&#45;&gt;Node35 -->
<g id="edge60" class="edge">
<title>Node32&#45;&gt;Node35</title>
<path fill="none" stroke="#191970" d="M1325,-459.2455C1325,-451.9382 1325,-441.6944 1325,-432.7046"/>
<polygon fill="#191970" stroke="#191970" points="1328.5001,-432.6426 1325,-422.6427 1321.5001,-432.6427 1328.5001,-432.6426"/>
</g>
<!-- Node36 -->
<g id="node36" class="node">
<title>Node36</title>
<g id="a_node36"><a xlink:title=" ">
<polygon fill="#ffffff" stroke="#bfbfbf" points="1373,-403.5 1373,-422.5 1405,-422.5 1405,-403.5 1373,-403.5"/>
<text text-anchor="middle" x="1389" y="-410.5" font-family="Helvetica,sans-Serif" font-size="10.00" fill="#000000">list</text>
</a>
</g>
</g>
<!-- Node32&#45;&gt;Node36 -->
<g id="edge61" class="edge">
<title>Node32&#45;&gt;Node36</title>
<path fill="none" stroke="#191970" d="M1336.1479,-459.2455C1345.5087,-451.0549 1359.0858,-439.1749 1370.1349,-429.5069"/>
<polygon fill="#191970" stroke="#191970" points="1372.7588,-431.8618 1377.9798,-422.6427 1368.1492,-426.5937 1372.7588,-431.8618"/>
</g>
<!-- Node33&#45;&gt;Node10 -->
<g id="edge55" class="edge">
<title>Node33&#45;&gt;Node10</title>
<path fill="none" stroke="#191970" d="M1120.3025,-229.8952C1102.7478,-221.3491 1079.1259,-207.2214 1065,-188 1055.0825,-174.5051 1050.3282,-155.9513 1048.0568,-141.9518"/>
<polygon fill="#191970" stroke="#191970" points="1051.5056,-141.335 1046.7163,-131.8845 1044.5669,-142.259 1051.5056,-141.335"/>
</g>
<!-- Node33&#45;&gt;Node14 -->
<g id="edge56" class="edge">
<title>Node33&#45;&gt;Node14</title>
<path fill="none" stroke="#191970" d="M1136.75,-229.8906C1130.9135,-220.917 1122.0491,-207.2879 1114.8694,-196.2491"/>
<polygon fill="#191970" stroke="#191970" points="1117.7245,-194.2194 1109.3381,-187.7449 1111.8564,-198.0361 1117.7245,-194.2194"/>
</g>
<!-- Node34&#45;&gt;Node9 -->
<g id="edge59" class="edge">
<title>Node34&#45;&gt;Node9</title>
<path fill="none" stroke="#191970" d="M1221.9161,-403.2455C1223.3514,-395.9382 1225.3636,-385.6944 1227.1295,-376.7046"/>
<polygon fill="#191970" stroke="#191970" points="1230.6127,-377.1298 1229.1059,-366.6427 1223.744,-375.7805 1230.6127,-377.1298"/>
</g>
<!-- Node37&#45;&gt;Node2 -->
<g id="edge63" class="edge">
<title>Node37&#45;&gt;Node2</title>
<path fill="none" stroke="#191970" d="M1561.5702,-459.4139C1560.7406,-440.0603 1559,-394.9303 1559,-357 1559,-357 1559,-357 1559,-178 1559,-130.5628 1219.8563,-86.223 1093.0707,-71.3044"/>
<polygon fill="#191970" stroke="#191970" points="1093.2321,-67.7996 1082.8937,-70.1165 1092.4205,-74.7524 1093.2321,-67.7996"/>
</g>
<!-- Node38&#45;&gt;Node5 -->
<g id="edge69" class="edge">
<title>Node38&#45;&gt;Node5</title>
<path fill="none" stroke="#191970" d="M583.6853,-351.1415C407.7037,-337.0787 0,-298.1681 0,-239.5 0,-239.5 0,-239.5 0,-122 0,-64.5921 190.8986,-28.2363 272.6035,-15.305"/>
<polygon fill="#191970" stroke="#191970" points="273.5756,-18.6962 282.9211,-13.7052 272.5029,-11.7789 273.5756,-18.6962"/>
</g>
<!-- Node38&#45;&gt;Node12 -->
<g id="edge72" class="edge">
<title>Node38&#45;&gt;Node12</title>
<path fill="none" stroke="#191970" d="M742.1949,-353.9216C821.439,-349.377 946.2863,-338.2187 1051,-311 1114.2657,-294.5551 1134.4842,-293.924 1187,-255 1208.8943,-238.7722 1227.7318,-213.2982 1238.9636,-196.1398"/>
<polygon fill="#191970" stroke="#191970" points="1241.9952,-197.8946 1244.3922,-187.5744 1236.0827,-194.1473 1241.9952,-197.8946"/>
</g>
<!-- Node38&#45;&gt;Node16 -->
<g id="edge65" class="edge">
<title>Node38&#45;&gt;Node16</title>
<path fill="none" stroke="#191970" d="M663,-347.2455C663,-339.9382 663,-329.6944 663,-320.7046"/>
<polygon fill="#191970" stroke="#191970" points="666.5001,-320.6426 663,-310.6427 659.5001,-320.6427 666.5001,-320.6426"/>
</g>
<!-- Node38&#45;&gt;Node17 -->
<g id="edge66" class="edge">
<title>Node38&#45;&gt;Node17</title>
<path fill="none" stroke="#191970" d="M583.7717,-348.6092C525.8881,-341.1671 453.4257,-328.7128 429,-311 413.3202,-299.6295 403.0036,-280.1252 396.7811,-264.3573"/>
<polygon fill="#191970" stroke="#191970" points="399.9644,-262.8685 393.268,-254.6582 393.3829,-265.2524 399.9644,-262.8685"/>
</g>
<!-- Node38&#45;&gt;Node27 -->
<g id="edge71" class="edge">
<title>Node38&#45;&gt;Node27</title>
<path fill="none" stroke="#191970" d="M718.1587,-347.4369C774.3667,-337.6918 861.5112,-322.5832 921.0282,-312.2645"/>
<polygon fill="#191970" stroke="#191970" points="921.8137,-315.6806 931.0688,-310.5237 920.6179,-308.7835 921.8137,-315.6806"/>
</g>
<!-- Node38&#45;&gt;Node28 -->
<g id="edge67" class="edge">
<title>Node38&#45;&gt;Node28</title>
<path fill="none" stroke="#191970" d="M686.2409,-347.3845C736.7089,-326.5042 856.4386,-276.9682 914.4189,-252.9799"/>
<polygon fill="#191970" stroke="#191970" points="915.934,-256.1408 923.8363,-249.0836 913.2578,-249.6726 915.934,-256.1408"/>
</g>
<!-- Node38&#45;&gt;Node38 -->
<g id="edge70" class="edge">
<title>Node38&#45;&gt;Node38</title>
<path fill="none" stroke="#191970" d="M704.1182,-366.5001C732.3159,-369.3269 760,-366.1602 760,-357 760,-348.9491 738.6147,-345.528 714.291,-346.7367"/>
<polygon fill="#191970" stroke="#191970" points="713.8282,-343.2615 704.1182,-347.4999 714.352,-350.2418 713.8282,-343.2615"/>
</g>
<!-- Node39 -->
<g id="node39" class="node">
<title>Node39</title>
<g id="a_node39"><a xlink:title=" ">
<polygon fill="#ffffff" stroke="#bfbfbf" points="438,-291.5 438,-310.5 608,-310.5 608,-291.5 438,-291.5"/>
<text text-anchor="middle" x="523" y="-298.5" font-family="Helvetica,sans-Serif" font-size="10.00" fill="#000000">sitkMemberFunctionFactory.hxx</text>
</a>
</g>
</g>
<!-- Node38&#45;&gt;Node39 -->
<g id="edge68" class="edge">
<title>Node38&#45;&gt;Node39</title>
<path fill="none" stroke="#191970" d="M638.9331,-347.3733C616.1572,-338.2629 581.7656,-324.5062 556.351,-314.3404"/>
<polygon fill="#191970" stroke="#191970" points="557.3375,-310.9654 546.7528,-310.5011 554.7377,-317.4648 557.3375,-310.9654"/>
</g>
</g>
</svg>
