<?xml version="1.0" encoding="UTF-8" standalone="no"?>
<!DOCTYPE svg PUBLIC "-//W3C//DTD SVG 1.1//EN"
 "http://www.w3.org/Graphics/SVG/1.1/DTD/svg11.dtd">
<!-- Generated by graphviz version 2.40.1 (20161225.0304)
 -->
<!-- Title: sitkNonCopyable.h Pages: 1 -->
<svg width="5496pt" height="453pt"
 viewBox="0.00 0.00 5496.25 453.00" xmlns="http://www.w3.org/2000/svg" xmlns:xlink="http://www.w3.org/1999/xlink">
<g id="graph0" class="graph" transform="scale(1 1) rotate(0) translate(4 449)">
<title>sitkNonCopyable.h</title>
<polygon fill="#ffffff" stroke="transparent" points="-4,4 -4,-449 5492.2518,-449 5492.2518,4 -4,4"/>
<!-- Node1 -->
<g id="node1" class="node">
<title>Node1</title>
<g id="a_node1"><a xlink:title=" ">
<polygon fill="#bfbfbf" stroke="#000000" points="4366.7518,-425.5 4366.7518,-444.5 4475.7518,-444.5 4475.7518,-425.5 4366.7518,-425.5"/>
<text text-anchor="middle" x="4421.2518" y="-432.5" font-family="Helvetica,sans-Serif" font-size="10.00" fill="#000000">sitkNonCopyable.h</text>
</a>
</g>
</g>
<!-- Node2 -->
<g id="node2" class="node">
<title>Node2</title>
<g id="a_node2"><a xlink:href="sitkMemberFunctionFactoryBase_8h.html" target="_top" xlink:title=" ">
<polygon fill="#ffffff" stroke="#000000" points="3395.2518,-358.5 3395.2518,-388.5 3545.2518,-388.5 3545.2518,-358.5 3395.2518,-358.5"/>
<text text-anchor="start" x="3403.2518" y="-376.5" font-family="Helvetica,sans-Serif" font-size="10.00" fill="#000000">sitkMemberFunctionFactory</text>
<text text-anchor="middle" x="3470.2518" y="-365.5" font-family="Helvetica,sans-Serif" font-size="10.00" fill="#000000">Base.h</text>
</a>
</g>
</g>
<!-- Node1&#45;&gt;Node2 -->
<g id="edge1" class="edge">
<title>Node1&#45;&gt;Node2</title>
<path fill="none" stroke="#191970" d="M4356.6512,-430.8224C4186.5932,-419.8249 3727.1601,-390.1139 3545.5744,-378.371"/>
<polygon fill="#191970" stroke="#191970" points="4356.5011,-434.3199 4366.7062,-431.4726 4356.9529,-427.3345 4356.5011,-434.3199"/>
</g>
<!-- Node325 -->
<g id="node7" class="node">
<title>Node325</title>
<g id="a_node7"><a xlink:href="sitkProcessObject_8h.html" target="_top" xlink:title=" ">
<polygon fill="#ffffff" stroke="#000000" points="4364.7518,-190.5 4364.7518,-209.5 4477.7518,-209.5 4477.7518,-190.5 4364.7518,-190.5"/>
<text text-anchor="middle" x="4421.2518" y="-197.5" font-family="Helvetica,sans-Serif" font-size="10.00" fill="#000000">sitkProcessObject.h</text>
</a>
</g>
</g>
<!-- Node1&#45;&gt;Node325 -->
<g id="edge104" class="edge">
<title>Node1&#45;&gt;Node325</title>
<path fill="none" stroke="#191970" d="M4421.2518,-415.4619C4421.2518,-367.4192 4421.2518,-244.8751 4421.2518,-209.6216"/>
<polygon fill="#191970" stroke="#191970" points="4417.7519,-415.4966 4421.2518,-425.4967 4424.7519,-415.4967 4417.7519,-415.4966"/>
</g>
<!-- Node337 -->
<g id="node49" class="node">
<title>Node337</title>
<g id="a_node49"><a xlink:href="sitkCommand_8h.html" target="_top" xlink:title=" ">
<polygon fill="#ffffff" stroke="#000000" points="5316.2518,-129 5316.2518,-148 5410.2518,-148 5410.2518,-129 5316.2518,-129"/>
<text text-anchor="middle" x="5363.2518" y="-136" font-family="Helvetica,sans-Serif" font-size="10.00" fill="#000000">sitkCommand.h</text>
</a>
</g>
</g>
<!-- Node1&#45;&gt;Node337 -->
<g id="edge105" class="edge">
<title>Node1&#45;&gt;Node337</title>
<path fill="none" stroke="#191970" d="M4486.1442,-433.1857C4696.2269,-426.461 5344.2518,-398.6915 5344.2518,-312 5344.2518,-312 5344.2518,-312 5344.2518,-256 5344.2518,-215.498 5355.3892,-168.1383 5360.6099,-148.1633"/>
<polygon fill="#191970" stroke="#191970" points="4485.7691,-429.6957 4475.8841,-433.5085 4485.9893,-436.6922 4485.7691,-429.6957"/>
</g>
<!-- Node3 -->
<g id="node3" class="node">
<title>Node3</title>
<g id="a_node3"><a xlink:href="sitkDetail_8h.html" target="_top" xlink:title=" ">
<polygon fill="#ffffff" stroke="#000000" points="3400.7518,-302.5 3400.7518,-321.5 3473.7518,-321.5 3473.7518,-302.5 3400.7518,-302.5"/>
<text text-anchor="middle" x="3437.2518" y="-309.5" font-family="Helvetica,sans-Serif" font-size="10.00" fill="#000000">sitkDetail.h</text>
</a>
</g>
</g>
<!-- Node2&#45;&gt;Node3 -->
<g id="edge2" class="edge">
<title>Node2&#45;&gt;Node3</title>
<path fill="none" stroke="#191970" d="M3457.3633,-349.4806C3452.1962,-339.8511 3446.5322,-329.2954 3442.5355,-321.8469"/>
<polygon fill="#191970" stroke="#191970" points="3454.2822,-351.141 3462.0945,-358.2977 3460.4503,-347.8313 3454.2822,-351.141"/>
</g>
<!-- Node335 -->
<g id="node47" class="node">
<title>Node335</title>
<g id="a_node47"><a xlink:href="sitkDualMemberFunctionFactory_8h.html" target="_top" xlink:title=" ">
<polygon fill="#ffffff" stroke="#000000" points="3386.2518,-129 3386.2518,-148 3566.2518,-148 3566.2518,-129 3386.2518,-129"/>
<text text-anchor="middle" x="3476.2518" y="-136" font-family="Helvetica,sans-Serif" font-size="10.00" fill="#000000">sitkDualMemberFunctionFactory.h</text>
</a>
</g>
</g>
<!-- Node2&#45;&gt;Node335 -->
<g id="edge102" class="edge">
<title>Node2&#45;&gt;Node335</title>
<path fill="none" stroke="#191970" d="M3477.2991,-348.4573C3479.3212,-340.113 3481.2491,-330.7214 3482.2518,-322 3489.8604,-255.8179 3481.0465,-175.3925 3477.5536,-148.0921"/>
<polygon fill="#191970" stroke="#191970" points="3473.8593,-347.7799 3474.75,-358.3372 3480.6374,-349.5287 3473.8593,-347.7799"/>
</g>
<!-- Node336 -->
<g id="node48" class="node">
<title>Node336</title>
<g id="a_node48"><a xlink:href="sitkMemberFunctionFactory_8h.html" target="_top" xlink:title=" ">
<polygon fill="#ffffff" stroke="#000000" points="3070.2518,-190.5 3070.2518,-209.5 3228.2518,-209.5 3228.2518,-190.5 3070.2518,-190.5"/>
<text text-anchor="middle" x="3149.2518" y="-197.5" font-family="Helvetica,sans-Serif" font-size="10.00" fill="#000000">sitkMemberFunctionFactory.h</text>
</a>
</g>
</g>
<!-- Node2&#45;&gt;Node336 -->
<g id="edge103" class="edge">
<title>Node2&#45;&gt;Node336</title>
<path fill="none" stroke="#191970" d="M3433.5076,-353.6399C3364.4248,-316.3007 3217.5783,-236.9304 3166.8911,-209.534"/>
<polygon fill="#191970" stroke="#191970" points="3431.8652,-356.7306 3442.3267,-358.4065 3435.1937,-350.5726 3431.8652,-356.7306"/>
</g>
<!-- Node4 -->
<g id="node4" class="node">
<title>Node4</title>
<g id="a_node4"><a xlink:href="SimpleITK_8h.html" target="_top" xlink:title=" ">
<polygon fill="#ffffff" stroke="#000000" points="4595.7518,-.5 4595.7518,-19.5 4670.7518,-19.5 4670.7518,-.5 4595.7518,-.5"/>
<text text-anchor="middle" x="4633.2518" y="-7.5" font-family="Helvetica,sans-Serif" font-size="10.00" fill="#000000">SimpleITK.h</text>
</a>
</g>
</g>
<!-- Node3&#45;&gt;Node4 -->
<g id="edge3" class="edge">
<title>Node3&#45;&gt;Node4</title>
<path fill="none" stroke="#191970" d="M3483.8922,-311.6863C3771.1772,-309.4566 5288.2518,-293.2669 5288.2518,-200 5288.2518,-200 5288.2518,-200 5288.2518,-138.5 5288.2518,-87.7335 5255.1095,-77.7785 5209.2518,-56 5160.771,-32.9757 4790.8401,-16.3008 4670.7615,-11.449"/>
<polygon fill="#191970" stroke="#191970" points="3483.7833,-308.1869 3473.8101,-311.7627 3483.8364,-315.1867 3483.7833,-308.1869"/>
</g>
<!-- Node5 -->
<g id="node5" class="node">
<title>Node5</title>
<g id="a_node5"><a xlink:href="sitkImage_8h.html" target="_top" xlink:title=" ">
<polygon fill="#ffffff" stroke="#ff0000" points="4638.2518,-246.5 4638.2518,-265.5 4712.2518,-265.5 4712.2518,-246.5 4638.2518,-246.5"/>
<text text-anchor="middle" x="4675.2518" y="-253.5" font-family="Helvetica,sans-Serif" font-size="10.00" fill="#000000">sitkImage.h</text>
</a>
</g>
</g>
<!-- Node3&#45;&gt;Node5 -->
<g id="edge4" class="edge">
<title>Node3&#45;&gt;Node5</title>
<path fill="none" stroke="#191970" d="M3484.104,-309.8807C3683.3849,-300.8664 4458.5234,-265.8035 4638.0046,-257.6848"/>
<polygon fill="#191970" stroke="#191970" points="3483.7984,-306.3908 3473.9668,-310.3392 3484.1148,-313.3837 3483.7984,-306.3908"/>
</g>
<!-- Node324 -->
<g id="node46" class="node">
<title>Node324</title>
<g id="a_node46"><a xlink:href="sitkImageRegistrationMethod_8h.html" target="_top" xlink:title=" ">
<polygon fill="#ffffff" stroke="#000000" points="2257.7518,-129 2257.7518,-148 2426.7518,-148 2426.7518,-129 2257.7518,-129"/>
<text text-anchor="middle" x="2342.2518" y="-136" font-family="Helvetica,sans-Serif" font-size="10.00" fill="#000000">sitkImageRegistrationMethod.h</text>
</a>
</g>
</g>
<!-- Node3&#45;&gt;Node324 -->
<g id="edge101" class="edge">
<title>Node3&#45;&gt;Node324</title>
<path fill="none" stroke="#191970" d="M3390.3624,-309.5652C3199.3962,-299.3571 2486.2054,-258.2912 2398.2518,-210 2372.4063,-195.8095 2354.4387,-164.1991 2346.6307,-148.1901"/>
<polygon fill="#191970" stroke="#191970" points="3390.4538,-313.0749 3400.6256,-310.1109 3390.8256,-306.0848 3390.4538,-313.0749"/>
</g>
<!-- Node3&#45;&gt;Node335 -->
<g id="edge75" class="edge">
<title>Node3&#45;&gt;Node335</title>
<path fill="none" stroke="#191970" d="M3441.6682,-292.3528C3450.0184,-255.2047 3467.8412,-175.9161 3474.058,-148.2595"/>
<polygon fill="#191970" stroke="#191970" points="3438.1825,-291.9006 3439.4041,-302.4248 3445.0121,-293.4358 3438.1825,-291.9006"/>
</g>
<!-- Node3&#45;&gt;Node336 -->
<g id="edge90" class="edge">
<title>Node3&#45;&gt;Node336</title>
<path fill="none" stroke="#191970" d="M3403.1151,-298.7246C3344.2733,-275.8417 3225.1254,-229.5064 3173.7443,-209.5249"/>
<polygon fill="#191970" stroke="#191970" points="3402.1084,-302.0884 3412.6971,-302.4509 3404.6456,-295.5644 3402.1084,-302.0884"/>
</g>
<!-- Node5&#45;&gt;Node4 -->
<g id="edge7" class="edge">
<title>Node5&#45;&gt;Node4</title>
<path fill="none" stroke="#191970" d="M4722.5492,-254.1125C4798.0268,-250.3104 4949.9743,-239.4118 5075.2518,-210 5152.1594,-191.9441 5256.8704,-197.379 5230.2518,-123 5217.2704,-86.727 5209.3516,-73.9289 5175.2518,-56 5130.8466,-32.6528 4786.7068,-16.3702 4671.0352,-11.5108"/>
<polygon fill="#191970" stroke="#191970" points="4722.2363,-250.6235 4712.4173,-254.6031 4722.5749,-257.6153 4722.2363,-250.6235"/>
</g>
<!-- Node7 -->
<g id="node6" class="node">
<title>Node7</title>
<g id="a_node6"><a xlink:href="sitkHashImageFilter_8h.html" target="_top" xlink:title=" ">
<polygon fill="#ffffff" stroke="#000000" points="27.2518,-62 27.2518,-81 149.2518,-81 149.2518,-62 27.2518,-62"/>
<text text-anchor="middle" x="88.2518" y="-69" font-family="Helvetica,sans-Serif" font-size="10.00" fill="#000000">sitkHashImageFilter.h</text>
</a>
</g>
</g>
<!-- Node5&#45;&gt;Node7 -->
<g id="edge5" class="edge">
<title>Node5&#45;&gt;Node7</title>
<path fill="none" stroke="#191970" d="M4627.8213,-255.7856C4433.5661,-254.6669 3679.7608,-247.9773 3061.2518,-210 2797.0213,-193.7759 2709.5213,-262.9496 2468.2518,-154 2449.9119,-145.7183 2453.9012,-130.5589 2435.2518,-123 2319.3908,-76.04 309.7925,-97.8909 185.2518,-87 170.2164,-85.6852 153.9841,-83.427 139.1792,-81.0349"/>
<polygon fill="#191970" stroke="#191970" points="4627.9516,-259.2862 4637.9709,-255.8418 4627.9905,-252.2863 4627.9516,-259.2862"/>
</g>
<!-- Node5&#45;&gt;Node325 -->
<g id="edge8" class="edge">
<title>Node5&#45;&gt;Node325</title>
<path fill="none" stroke="#191970" d="M4628.1449,-245.6142C4581.2824,-235.2823 4509.983,-219.5628 4464.5153,-209.5384"/>
<polygon fill="#191970" stroke="#191970" points="4627.5269,-249.062 4638.046,-247.7971 4629.0341,-242.2261 4627.5269,-249.062"/>
</g>
<!-- Node327 -->
<g id="node39" class="node">
<title>Node327</title>
<g id="a_node39"><a xlink:href="sitkImageFileReader_8h.html" target="_top" xlink:title=" ">
<polygon fill="#ffffff" stroke="#000000" points="4984.2518,-62 4984.2518,-81 5108.2518,-81 5108.2518,-62 4984.2518,-62"/>
<text text-anchor="middle" x="5046.2518" y="-69" font-family="Helvetica,sans-Serif" font-size="10.00" fill="#000000">sitkImageFileReader.h</text>
</a>
</g>
</g>
<!-- Node5&#45;&gt;Node327 -->
<g id="edge67" class="edge">
<title>Node5&#45;&gt;Node327</title>
<path fill="none" stroke="#191970" d="M4722.4299,-250.7289C4764.8831,-244.7533 4828.2426,-232.7312 4879.2518,-210 4950.47,-178.263 5015.7036,-107.2961 5038.0666,-81.2918"/>
<polygon fill="#191970" stroke="#191970" points="4721.8157,-247.28 4712.3738,-252.0864 4722.7522,-254.2171 4721.8157,-247.28"/>
</g>
<!-- Node328 -->
<g id="node40" class="node">
<title>Node328</title>
<g id="a_node40"><a xlink:href="sitkImageSeriesReader_8h.html" target="_top" xlink:title=" ">
<polygon fill="#ffffff" stroke="#000000" points="4828.7518,-62 4828.7518,-81 4965.7518,-81 4965.7518,-62 4828.7518,-62"/>
<text text-anchor="middle" x="4897.2518" y="-69" font-family="Helvetica,sans-Serif" font-size="10.00" fill="#000000">sitkImageSeriesReader.h</text>
</a>
</g>
</g>
<!-- Node5&#45;&gt;Node328 -->
<g id="edge69" class="edge">
<title>Node5&#45;&gt;Node328</title>
<path fill="none" stroke="#191970" d="M4722.0916,-244.8075C4791.3527,-227.202 4915.6791,-191.1945 4941.2518,-154 4958.3575,-129.1204 4927.3792,-96.8428 4909.1589,-81.0512"/>
<polygon fill="#191970" stroke="#191970" points="4721.1366,-241.4386 4712.2907,-247.2695 4722.8421,-248.2277 4721.1366,-241.4386"/>
</g>
<!-- Node329 -->
<g id="node41" class="node">
<title>Node329</title>
<g id="a_node41"><a xlink:href="sitkImportImageFilter_8h.html" target="_top" xlink:title=" ">
<polygon fill="#ffffff" stroke="#000000" points="4680.2518,-62 4680.2518,-81 4810.2518,-81 4810.2518,-62 4680.2518,-62"/>
<text text-anchor="middle" x="4745.2518" y="-69" font-family="Helvetica,sans-Serif" font-size="10.00" fill="#000000">sitkImportImageFilter.h</text>
</a>
</g>
</g>
<!-- Node5&#45;&gt;Node329 -->
<g id="edge72" class="edge">
<title>Node5&#45;&gt;Node329</title>
<path fill="none" stroke="#191970" d="M4657.2965,-239.086C4631.6417,-212.8242 4590.3143,-161.2829 4616.2518,-123 4631.2657,-100.84 4657.5121,-88.2147 4682.4278,-81.0218"/>
<polygon fill="#191970" stroke="#191970" points="4655.0952,-241.832 4664.6633,-246.382 4660.021,-236.8583 4655.0952,-241.832"/>
</g>
<!-- Node330 -->
<g id="node42" class="node">
<title>Node330</title>
<g id="a_node42"><a xlink:href="sitkImageFileWriter_8h.html" target="_top" xlink:title=" ">
<polygon fill="#ffffff" stroke="#000000" points="4813.7518,-129 4813.7518,-148 4932.7518,-148 4932.7518,-129 4813.7518,-129"/>
<text text-anchor="middle" x="4873.2518" y="-136" font-family="Helvetica,sans-Serif" font-size="10.00" fill="#000000">sitkImageFileWriter.h</text>
</a>
</g>
</g>
<!-- Node5&#45;&gt;Node330 -->
<g id="edge68" class="edge">
<title>Node5&#45;&gt;Node330</title>
<path fill="none" stroke="#191970" d="M4700.0701,-241.2719C4741.2416,-216.8394 4822.547,-168.59 4857.1024,-148.0836"/>
<polygon fill="#191970" stroke="#191970" points="4698.2685,-238.2711 4691.4549,-246.3845 4701.8409,-244.291 4698.2685,-238.2711"/>
</g>
<!-- Node331 -->
<g id="node43" class="node">
<title>Node331</title>
<g id="a_node43"><a xlink:href="sitkImageSeriesWriter_8h.html" target="_top" xlink:title=" ">
<polygon fill="#ffffff" stroke="#000000" points="4435.7518,-129 4435.7518,-148 4568.7518,-148 4568.7518,-129 4435.7518,-129"/>
<text text-anchor="middle" x="4502.2518" y="-136" font-family="Helvetica,sans-Serif" font-size="10.00" fill="#000000">sitkImageSeriesWriter.h</text>
</a>
</g>
</g>
<!-- Node5&#45;&gt;Node331 -->
<g id="edge70" class="edge">
<title>Node5&#45;&gt;Node331</title>
<path fill="none" stroke="#191970" d="M4642.4832,-242.1393C4624.383,-233.8715 4601.8638,-222.5541 4583.2518,-210 4554.9497,-190.9099 4525.9496,-162.8251 4511.5488,-148.1837"/>
<polygon fill="#191970" stroke="#191970" points="4641.4736,-245.5218 4652.0313,-246.4073 4644.3302,-239.1311 4641.4736,-245.5218"/>
</g>
<!-- Node332 -->
<g id="node44" class="node">
<title>Node332</title>
<g id="a_node44"><a xlink:href="sitkImageViewer_8h.html" target="_top" xlink:title=" ">
<polygon fill="#ffffff" stroke="#000000" points="5114.7518,-129 5114.7518,-148 5221.7518,-148 5221.7518,-129 5114.7518,-129"/>
<text text-anchor="middle" x="5168.2518" y="-136" font-family="Helvetica,sans-Serif" font-size="10.00" fill="#000000">sitkImageViewer.h</text>
</a>
</g>
</g>
<!-- Node5&#45;&gt;Node332 -->
<g id="edge71" class="edge">
<title>Node5&#45;&gt;Node332</title>
<path fill="none" stroke="#191970" d="M4722.3734,-252.2418C4806.8306,-245.14 4980.5504,-228.7666 5038.2518,-210 5084.0572,-195.1024 5132.3098,-163.8179 5154.9933,-148.036"/>
<polygon fill="#191970" stroke="#191970" points="4721.9614,-248.7639 4712.2863,-253.0816 4722.5422,-255.7398 4721.9614,-248.7639"/>
</g>
<!-- Node333 -->
<g id="node45" class="node">
<title>Node333</title>
<g id="a_node45"><a xlink:href="sitkShow_8h.html" target="_top" xlink:title=" ">
<polygon fill="#ffffff" stroke="#000000" points="5027.7518,-129 5027.7518,-148 5096.7518,-148 5096.7518,-129 5027.7518,-129"/>
<text text-anchor="middle" x="5062.2518" y="-136" font-family="Helvetica,sans-Serif" font-size="10.00" fill="#000000">sitkShow.h</text>
</a>
</g>
</g>
<!-- Node5&#45;&gt;Node333 -->
<g id="edge73" class="edge">
<title>Node5&#45;&gt;Node333</title>
<path fill="none" stroke="#191970" d="M4722.7829,-254.2343C4804.065,-250.4514 4965.6144,-239.3793 5013.2518,-210 5037.2036,-195.2283 5052.3089,-163.8858 5058.7116,-148.0634"/>
<polygon fill="#191970" stroke="#191970" points="4722.1716,-250.758 4712.3377,-254.7007 4722.4839,-257.751 4722.1716,-250.758"/>
</g>
<!-- Node5&#45;&gt;Node324 -->
<g id="edge74" class="edge">
<title>Node5&#45;&gt;Node324</title>
<path fill="none" stroke="#191970" d="M4627.8805,-255.8315C4314.3587,-254.6161 2547.4573,-246.1758 2440.2518,-210 2402.5362,-197.2731 2367.0942,-164.3665 2351.126,-148.0138"/>
<polygon fill="#191970" stroke="#191970" points="4627.9831,-259.3318 4637.9964,-255.8702 4628.0099,-252.3319 4627.9831,-259.3318"/>
</g>
<!-- Node7&#45;&gt;Node4 -->
<g id="edge6" class="edge">
<title>Node7&#45;&gt;Node4</title>
<path fill="none" stroke="#191970" d="M137.2682,-59.9537C145.8819,-58.3311 154.7952,-56.9087 163.2518,-56 396.4922,-30.9372 4177.379,-12.1794 4595.7356,-10.1773"/>
<polygon fill="#191970" stroke="#191970" points="136.4628,-56.5453 127.3393,-61.9317 137.8305,-63.4104 136.4628,-56.5453"/>
</g>
<!-- Node325&#45;&gt;Node4 -->
<g id="edge49" class="edge">
<title>Node325&#45;&gt;Node4</title>
<path fill="none" stroke="#191970" d="M4416.541,-180.2999C4413.6835,-163.1081 4412.812,-138.5454 4426.2518,-123 4476.4777,-64.905 4534.636,-134.153 4595.2518,-87 4617.4903,-69.7006 4627.6045,-35.9753 4631.3754,-19.5072"/>
<polygon fill="#191970" stroke="#191970" points="4413.1633,-181.2556 4418.575,-190.3641 4420.0245,-179.8689 4413.1633,-181.2556"/>
</g>
<!-- Node325&#45;&gt;Node7 -->
<g id="edge48" class="edge">
<title>Node325&#45;&gt;Node7</title>
<path fill="none" stroke="#191970" d="M4354.226,-199.1489C4071.1986,-195.4016 2985.3153,-179.4202 2917.2518,-154 2896.8334,-146.3742 2899.7348,-130.4503 2879.2518,-123 2739.1621,-72.0448 344.8677,-98.6128 196.2518,-87 179.4445,-85.6867 161.2702,-83.4131 144.7107,-81.0057"/>
<polygon fill="#191970" stroke="#191970" points="4354.3023,-202.6502 4364.3476,-199.2823 4354.3946,-195.6508 4354.3023,-202.6502"/>
</g>
<!-- Node11 -->
<g id="node8" class="node">
<title>Node11</title>
<g id="a_node8"><a xlink:href="sitkImageFilter_8h.html" target="_top" xlink:title=" ">
<polygon fill="#ffffff" stroke="#ff0000" points="2926.2518,-129 2926.2518,-148 3024.2518,-148 3024.2518,-129 2926.2518,-129"/>
<text text-anchor="middle" x="2975.2518" y="-136" font-family="Helvetica,sans-Serif" font-size="10.00" fill="#000000">sitkImageFilter.h</text>
</a>
</g>
</g>
<!-- Node325&#45;&gt;Node11 -->
<g id="edge9" class="edge">
<title>Node325&#45;&gt;Node11</title>
<path fill="none" stroke="#191970" d="M4354.2457,-197.1502C4105.7738,-186.5824 3240.2805,-149.772 3024.3499,-140.5882"/>
<polygon fill="#191970" stroke="#191970" points="4354.4271,-200.6609 4364.5669,-197.5891 4354.7246,-193.6673 4354.4271,-200.6609"/>
</g>
<!-- Node308 -->
<g id="node36" class="node">
<title>Node308</title>
<g id="a_node36"><a xlink:href="sitkCenteredTransformInitializerFilter_8h.html" target="_top" xlink:title=" ">
<polygon fill="#ffffff" stroke="#000000" points="2520.7518,-123.5 2520.7518,-153.5 2693.7518,-153.5 2693.7518,-123.5 2520.7518,-123.5"/>
<text text-anchor="start" x="2528.7518" y="-141.5" font-family="Helvetica,sans-Serif" font-size="10.00" fill="#000000">sitkCenteredTransformInitializer</text>
<text text-anchor="middle" x="2607.2518" y="-130.5" font-family="Helvetica,sans-Serif" font-size="10.00" fill="#000000">Filter.h</text>
</a>
</g>
</g>
<!-- Node325&#45;&gt;Node308 -->
<g id="edge44" class="edge">
<title>Node325&#45;&gt;Node308</title>
<path fill="none" stroke="#191970" d="M4354.0808,-199.3994C4078.3262,-196.7485 3032.2958,-184.83 2703.2518,-154 2700.1421,-153.7086 2696.9806,-153.3784 2693.7909,-153.0165"/>
<polygon fill="#191970" stroke="#191970" points="4354.3,-202.9015 4364.3329,-199.4971 4354.3668,-195.9019 4354.3,-202.9015"/>
</g>
<!-- Node309 -->
<g id="node37" class="node">
<title>Node309</title>
<g id="a_node37"><a xlink:href="sitkCenteredVersorTransformInitializerFilter_8h.html" target="_top" xlink:title=" ">
<polygon fill="#ffffff" stroke="#000000" points="2712.2518,-123.5 2712.2518,-153.5 2870.2518,-153.5 2870.2518,-123.5 2712.2518,-123.5"/>
<text text-anchor="start" x="2720.2518" y="-141.5" font-family="Helvetica,sans-Serif" font-size="10.00" fill="#000000">sitkCenteredVersorTransform</text>
<text text-anchor="middle" x="2791.2518" y="-130.5" font-family="Helvetica,sans-Serif" font-size="10.00" fill="#000000">InitializerFilter.h</text>
</a>
</g>
</g>
<!-- Node325&#45;&gt;Node309 -->
<g id="edge46" class="edge">
<title>Node325&#45;&gt;Node309</title>
<path fill="none" stroke="#191970" d="M4354.0623,-199.1994C4097.0094,-195.9486 3175.7918,-182.5256 2884.2518,-154 2879.6904,-153.5537 2875.0142,-153.0196 2870.303,-152.4222"/>
<polygon fill="#191970" stroke="#191970" points="4354.3222,-202.7029 4364.3654,-199.3288 4354.4101,-195.7034 4354.3222,-202.7029"/>
</g>
<!-- Node326 -->
<g id="node38" class="node">
<title>Node326</title>
<g id="a_node38"><a xlink:href="sitkImageReaderBase_8h.html" target="_top" xlink:title=" ">
<polygon fill="#ffffff" stroke="#000000" points="4625.2518,-129 4625.2518,-148 4757.2518,-148 4757.2518,-129 4625.2518,-129"/>
<text text-anchor="middle" x="4691.2518" y="-136" font-family="Helvetica,sans-Serif" font-size="10.00" fill="#000000">sitkImageReaderBase.h</text>
</a>
</g>
</g>
<!-- Node325&#45;&gt;Node326 -->
<g id="edge50" class="edge">
<title>Node325&#45;&gt;Node326</title>
<path fill="none" stroke="#191970" d="M4473.0243,-188.2074C4524.2624,-176.5365 4601.7296,-158.8912 4649.2622,-148.0643"/>
<polygon fill="#191970" stroke="#191970" points="4472.116,-184.8245 4463.143,-190.4581 4473.6706,-191.6497 4472.116,-184.8245"/>
</g>
<!-- Node325&#45;&gt;Node330 -->
<g id="edge57" class="edge">
<title>Node325&#45;&gt;Node330</title>
<path fill="none" stroke="#191970" d="M4488.1629,-193.6015C4563.9041,-185.9543 4690.8595,-171.9136 4799.2518,-154 4809.4826,-152.3092 4820.4461,-150.1859 4830.7158,-148.058"/>
<polygon fill="#191970" stroke="#191970" points="4487.4237,-190.1579 4477.8226,-194.6378 4488.1219,-197.123 4487.4237,-190.1579"/>
</g>
<!-- Node325&#45;&gt;Node331 -->
<g id="edge59" class="edge">
<title>Node325&#45;&gt;Node331</title>
<path fill="none" stroke="#191970" d="M4442.1286,-184.1491C4457.1789,-172.722 4476.997,-157.6749 4489.6844,-148.0419"/>
<polygon fill="#191970" stroke="#191970" points="4439.756,-181.5559 4433.908,-190.3906 4443.989,-187.1311 4439.756,-181.5559"/>
</g>
<!-- Node325&#45;&gt;Node332 -->
<g id="edge61" class="edge">
<title>Node325&#45;&gt;Node332</title>
<path fill="none" stroke="#191970" d="M4488.0781,-196.9912C4636.0613,-190.0865 4987.6026,-172.2861 5105.2518,-154 5114.7123,-152.5296 5124.8359,-150.3268 5134.1392,-148.0401"/>
<polygon fill="#191970" stroke="#191970" points="4487.6079,-193.5091 4477.7811,-197.4694 4487.9327,-200.5016 4487.6079,-193.5091"/>
</g>
<!-- Node325&#45;&gt;Node333 -->
<g id="edge63" class="edge">
<title>Node325&#45;&gt;Node333</title>
<path fill="none" stroke="#191970" d="M4488.0417,-194.9333C4587.0934,-187.2285 4778.7339,-171.5907 4941.2518,-154 4970.4138,-150.8436 5003.4381,-146.5657 5027.6098,-143.3036"/>
<polygon fill="#191970" stroke="#191970" points="4487.5784,-191.4586 4477.8789,-195.7212 4488.1195,-198.4377 4487.5784,-191.4586"/>
</g>
<!-- Node325&#45;&gt;Node324 -->
<g id="edge65" class="edge">
<title>Node325&#45;&gt;Node324</title>
<path fill="none" stroke="#191970" d="M4354.5112,-198.9974C4060.7694,-194.4914 2881.2595,-175.399 2511.2518,-154 2483.7494,-152.4094 2453.7927,-149.9131 2426.8432,-147.3848"/>
<polygon fill="#191970" stroke="#191970" points="4354.5316,-202.498 4364.584,-199.1515 4354.6388,-195.4988 4354.5316,-202.498"/>
</g>
<!-- Node11&#45;&gt;Node4 -->
<g id="edge21" class="edge">
<title>Node11&#45;&gt;Node4</title>
<path fill="none" stroke="#191970" d="M2932.7295,-126.659C2925.9285,-125.1652 2918.9319,-123.8609 2912.2518,-123 2846.5101,-114.5279 572.7677,-134.223 526.2518,-87 516.5832,-77.1844 516.5641,-65.7968 526.2518,-56 564.0904,-17.7351 4185.468,-10.7287 4595.5808,-10.0577"/>
<polygon fill="#191970" stroke="#191970" points="2931.9584,-130.0731 2942.4939,-128.9534 2933.5596,-123.2586 2931.9584,-130.0731"/>
</g>
<!-- Node11&#45;&gt;Node7 -->
<g id="edge16" class="edge">
<title>Node11&#45;&gt;Node7</title>
<path fill="none" stroke="#191970" d="M2932.7309,-126.6482C2925.9298,-125.1559 2918.9326,-123.8547 2912.2518,-123 2313.5234,-46.3996 798.0298,-133.9733 196.2518,-87 179.4444,-85.6881 161.27,-83.4149 144.7105,-81.0075"/>
<polygon fill="#191970" stroke="#191970" points="2931.96,-130.0623 2942.4954,-128.9417 2933.5607,-123.2478 2931.96,-130.0623"/>
</g>
<!-- Node10 -->
<g id="node9" class="node">
<title>Node10</title>
<g id="a_node9"><a xlink:href="sitkBSplineTransformInitializerFilter_8h.html" target="_top" xlink:title=" ">
<polygon fill="#ffffff" stroke="#000000" points="535.2518,-56.5 535.2518,-86.5 701.2518,-86.5 701.2518,-56.5 535.2518,-56.5"/>
<text text-anchor="start" x="543.2518" y="-74.5" font-family="Helvetica,sans-Serif" font-size="10.00" fill="#000000">sitkBSplineTransformInitializer</text>
<text text-anchor="middle" x="618.2518" y="-63.5" font-family="Helvetica,sans-Serif" font-size="10.00" fill="#000000">Filter.h</text>
</a>
</g>
</g>
<!-- Node11&#45;&gt;Node10 -->
<g id="edge10" class="edge">
<title>Node11&#45;&gt;Node10</title>
<path fill="none" stroke="#191970" d="M2932.7285,-126.6664C2925.9277,-125.1717 2918.9313,-123.8651 2912.2518,-123 2426.9065,-60.1426 1197.5975,-131.7804 710.2518,-87 707.3485,-86.7332 704.3986,-86.4273 701.4231,-86.0892"/>
<polygon fill="#191970" stroke="#191970" points="2931.9573,-130.0804 2942.4928,-128.9614 2933.5589,-123.2661 2931.9573,-130.0804"/>
</g>
<!-- Node12 -->
<g id="node10" class="node">
<title>Node12</title>
<g id="a_node10"><a xlink:href="sitkCastImageFilter_8h.html" target="_top" xlink:title=" ">
<polygon fill="#ffffff" stroke="#000000" points="3844.7518,-62 3844.7518,-81 3963.7518,-81 3963.7518,-62 3844.7518,-62"/>
<text text-anchor="middle" x="3904.2518" y="-69" font-family="Helvetica,sans-Serif" font-size="10.00" fill="#000000">sitkCastImageFilter.h</text>
</a>
</g>
</g>
<!-- Node11&#45;&gt;Node12 -->
<g id="edge12" class="edge">
<title>Node11&#45;&gt;Node12</title>
<path fill="none" stroke="#191970" d="M3034.4434,-136.2006C3202.4341,-129.4766 3680.0331,-108.9356 3835.2518,-87 3845.5851,-85.5397 3856.6634,-83.3403 3866.8527,-81.0537"/>
<polygon fill="#191970" stroke="#191970" points="3034.1573,-132.7091 3024.3046,-136.6046 3034.4361,-139.7035 3034.1573,-132.7091"/>
</g>
<!-- Node13 -->
<g id="node11" class="node">
<title>Node13</title>
<g id="a_node11"><a xlink:href="sitkExtractImageFilter_8h.html" target="_top" xlink:title=" ">
<polygon fill="#ffffff" stroke="#000000" points="719.2518,-62 719.2518,-81 851.2518,-81 851.2518,-62 719.2518,-62"/>
<text text-anchor="middle" x="785.2518" y="-69" font-family="Helvetica,sans-Serif" font-size="10.00" fill="#000000">sitkExtractImageFilter.h</text>
</a>
</g>
</g>
<!-- Node11&#45;&gt;Node13 -->
<g id="edge14" class="edge">
<title>Node11&#45;&gt;Node13</title>
<path fill="none" stroke="#191970" d="M2932.7276,-126.6734C2925.9269,-125.1778 2918.9308,-123.8691 2912.2518,-123 2459.9941,-64.1531 1313.5319,-137.3702 860.2518,-87 848.4907,-85.6931 835.8424,-83.4215 824.3453,-81.0139"/>
<polygon fill="#191970" stroke="#191970" points="2931.9562,-130.0874 2942.4919,-128.969 2933.5583,-123.2732 2931.9562,-130.0874"/>
</g>
<!-- Node14 -->
<g id="node12" class="node">
<title>Node14</title>
<g id="a_node12"><a xlink:href="sitkLandmarkBasedTransformInitializerFilter_8h.html" target="_top" xlink:title=" ">
<polygon fill="#ffffff" stroke="#000000" points="869.2518,-56.5 869.2518,-86.5 1031.2518,-86.5 1031.2518,-56.5 869.2518,-56.5"/>
<text text-anchor="start" x="877.2518" y="-74.5" font-family="Helvetica,sans-Serif" font-size="10.00" fill="#000000">sitkLandmarkBasedTransform</text>
<text text-anchor="middle" x="950.2518" y="-63.5" font-family="Helvetica,sans-Serif" font-size="10.00" fill="#000000">InitializerFilter.h</text>
</a>
</g>
</g>
<!-- Node11&#45;&gt;Node14 -->
<g id="edge17" class="edge">
<title>Node11&#45;&gt;Node14</title>
<path fill="none" stroke="#191970" d="M2932.7263,-126.6834C2925.9258,-125.1864 2918.9301,-123.8747 2912.2518,-123 2499.6984,-68.9655 1454.4569,-126.4218 1040.2518,-87 1037.4107,-86.7296 1034.5242,-86.4206 1031.6127,-86.0798"/>
<polygon fill="#191970" stroke="#191970" points="2931.9548,-130.0973 2942.4905,-128.9797 2933.5573,-123.2832 2931.9548,-130.0973"/>
</g>
<!-- Node15 -->
<g id="node13" class="node">
<title>Node15</title>
<g id="a_node13"><a xlink:href="sitkPasteImageFilter_8h.html" target="_top" xlink:title=" ">
<polygon fill="#ffffff" stroke="#000000" points="1049.2518,-62 1049.2518,-81 1173.2518,-81 1173.2518,-62 1049.2518,-62"/>
<text text-anchor="middle" x="1111.2518" y="-69" font-family="Helvetica,sans-Serif" font-size="10.00" fill="#000000">sitkPasteImageFilter.h</text>
</a>
</g>
</g>
<!-- Node11&#45;&gt;Node15 -->
<g id="edge19" class="edge">
<title>Node11&#45;&gt;Node15</title>
<path fill="none" stroke="#191970" d="M2932.7251,-126.6926C2925.9247,-125.1945 2918.9294,-123.88 2912.2518,-123 2149.7882,-22.5239 1945.9708,-177.4403 1182.2518,-87 1171.2261,-85.6943 1159.3909,-83.4548 1148.6056,-81.0776"/>
<polygon fill="#191970" stroke="#191970" points="2931.9534,-130.1066 2942.4892,-128.9897 2933.5564,-123.2926 2931.9534,-130.1066"/>
</g>
<!-- Node16 -->
<g id="node14" class="node">
<title>Node16</title>
<g id="a_node14"><a xlink:href="sitkAbsImageFilter_8h.html" target="_top" xlink:title=" ">
<polygon fill="#ffffff" stroke="#ff0000" points="1191.2518,-62 1191.2518,-81 1307.2518,-81 1307.2518,-62 1191.2518,-62"/>
<text text-anchor="middle" x="1249.2518" y="-69" font-family="Helvetica,sans-Serif" font-size="10.00" fill="#000000">sitkAbsImageFilter.h</text>
</a>
</g>
</g>
<!-- Node11&#45;&gt;Node16 -->
<g id="edge22" class="edge">
<title>Node11&#45;&gt;Node16</title>
<path fill="none" stroke="#191970" d="M2932.0248,-126.5496C2925.445,-125.1138 2918.7,-123.8555 2912.2518,-123 2208.9007,-29.6887 2020.2343,-175.422 1316.2518,-87 1305.8272,-85.6907 1294.6526,-83.4499 1284.4753,-81.0729"/>
<polygon fill="#191970" stroke="#191970" points="2931.6276,-130.051 2942.1618,-128.9197 2933.2213,-123.2349 2931.6276,-130.051"/>
</g>
<!-- Node19 -->
<g id="node15" class="node">
<title>Node19</title>
<g id="a_node15"><a xlink:href="sitkAbsoluteValueDifferenceImageFilter_8h.html" target="_top" xlink:title=" ">
<polygon fill="#ffffff" stroke="#ff0000" points="1325.7518,-56.5 1325.7518,-86.5 1480.7518,-86.5 1480.7518,-56.5 1325.7518,-56.5"/>
<text text-anchor="start" x="1333.7518" y="-74.5" font-family="Helvetica,sans-Serif" font-size="10.00" fill="#000000">sitkAbsoluteValueDifference</text>
<text text-anchor="middle" x="1403.2518" y="-63.5" font-family="Helvetica,sans-Serif" font-size="10.00" fill="#000000">ImageFilter.h</text>
</a>
</g>
</g>
<!-- Node11&#45;&gt;Node19 -->
<g id="edge23" class="edge">
<title>Node11&#45;&gt;Node19</title>
<path fill="none" stroke="#191970" d="M2932.0226,-126.5655C2925.4432,-125.1274 2918.6989,-123.8643 2912.2518,-123 2285.2146,-38.9385 2118.6229,-151.2959 1489.2518,-87 1486.5351,-86.7225 1483.7753,-86.4073 1480.9919,-86.0613"/>
<polygon fill="#191970" stroke="#191970" points="2931.6251,-130.0669 2942.1595,-128.937 2933.2198,-123.251 2931.6251,-130.0669"/>
</g>
<!-- Node20 -->
<g id="node16" class="node">
<title>Node20</title>
<g id="a_node16"><a xlink:href="sitkAcosImageFilter_8h.html" target="_top" xlink:title=" ">
<polygon fill="#ffffff" stroke="#ff0000" points="1498.7518,-62 1498.7518,-81 1619.7518,-81 1619.7518,-62 1498.7518,-62"/>
<text text-anchor="middle" x="1559.2518" y="-69" font-family="Helvetica,sans-Serif" font-size="10.00" fill="#000000">sitkAcosImageFilter.h</text>
</a>
</g>
</g>
<!-- Node11&#45;&gt;Node20 -->
<g id="edge24" class="edge">
<title>Node11&#45;&gt;Node20</title>
<path fill="none" stroke="#191970" d="M2932.0205,-126.5814C2925.4414,-125.1411 2918.6977,-123.8731 2912.2518,-123 2346.5272,-46.37 2194.7239,-157.8923 1628.2518,-87 1617.531,-85.6583 1606.0275,-83.4075 1595.5461,-81.0311"/>
<polygon fill="#191970" stroke="#191970" points="2931.6226,-130.0828 2942.1572,-128.9544 2933.2183,-123.267 2931.6226,-130.0828"/>
</g>
<!-- Node21 -->
<g id="node17" class="node">
<title>Node21</title>
<g id="a_node17"><a xlink:href="sitkAdaptiveHistogramEqualizationImageFilter_8h.html" target="_top" xlink:title=" ">
<polygon fill="#ffffff" stroke="#ff0000" points="1637.7518,-56.5 1637.7518,-86.5 1826.7518,-86.5 1826.7518,-56.5 1637.7518,-56.5"/>
<text text-anchor="start" x="1645.7518" y="-74.5" font-family="Helvetica,sans-Serif" font-size="10.00" fill="#000000">sitkAdaptiveHistogramEqualization</text>
<text text-anchor="middle" x="1732.2518" y="-63.5" font-family="Helvetica,sans-Serif" font-size="10.00" fill="#000000">ImageFilter.h</text>
</a>
</g>
</g>
<!-- Node11&#45;&gt;Node21 -->
<g id="edge25" class="edge">
<title>Node11&#45;&gt;Node21</title>
<path fill="none" stroke="#191970" d="M2932.0162,-126.6127C2925.4377,-125.1681 2918.6953,-123.8906 2912.2518,-123 2438.2678,-57.4894 2312.7749,-130.3382 1836.2518,-87 1833.1612,-86.7189 1830.0224,-86.4068 1826.8556,-86.0691"/>
<polygon fill="#191970" stroke="#191970" points="2931.6176,-130.1141 2942.1525,-128.9888 2933.2152,-123.2988 2931.6176,-130.1141"/>
</g>
<!-- Node22 -->
<g id="node18" class="node">
<title>Node22</title>
<g id="a_node18"><a xlink:href="sitkAddImageFilter_8h.html" target="_top" xlink:title=" ">
<polygon fill="#ffffff" stroke="#ff0000" points="1845.2518,-62 1845.2518,-81 1961.2518,-81 1961.2518,-62 1845.2518,-62"/>
<text text-anchor="middle" x="1903.2518" y="-69" font-family="Helvetica,sans-Serif" font-size="10.00" fill="#000000">sitkAddImageFilter.h</text>
</a>
</g>
</g>
<!-- Node11&#45;&gt;Node22 -->
<g id="edge26" class="edge">
<title>Node11&#45;&gt;Node22</title>
<path fill="none" stroke="#191970" d="M2931.788,-126.591C2925.2812,-125.1627 2918.62,-123.8956 2912.2518,-123 2497.3623,-64.6518 2385.5366,-142.464 1970.2518,-87 1959.9561,-85.6249 1948.9202,-83.3943 1938.8363,-81.0485"/>
<polygon fill="#191970" stroke="#191970" points="2931.2873,-130.0683 2941.8217,-128.938 2932.8817,-123.2522 2931.2873,-130.0683"/>
</g>
<!-- Node24 -->
<g id="node19" class="node">
<title>Node24</title>
<g id="a_node19"><a xlink:href="sitkAdditiveGaussianNoiseImageFilter_8h.html" target="_top" xlink:title=" ">
<polygon fill="#ffffff" stroke="#ff0000" points="1979.2518,-56.5 1979.2518,-86.5 2127.2518,-86.5 2127.2518,-56.5 1979.2518,-56.5"/>
<text text-anchor="start" x="1987.2518" y="-74.5" font-family="Helvetica,sans-Serif" font-size="10.00" fill="#000000">sitkAdditiveGaussianNoise</text>
<text text-anchor="middle" x="2053.2518" y="-63.5" font-family="Helvetica,sans-Serif" font-size="10.00" fill="#000000">ImageFilter.h</text>
</a>
</g>
</g>
<!-- Node11&#45;&gt;Node24 -->
<g id="edge27" class="edge">
<title>Node11&#45;&gt;Node24</title>
<path fill="none" stroke="#191970" d="M2931.7813,-126.638C2925.2754,-125.203 2918.6162,-123.9216 2912.2518,-123 2570.5555,-73.5228 2479.2116,-126.7853 2136.2518,-87 2133.3395,-86.6622 2130.3757,-86.2825 2127.3862,-85.8696"/>
<polygon fill="#191970" stroke="#191970" points="2931.2794,-130.1152 2941.8143,-128.9897 2932.8769,-123.2999 2931.2794,-130.1152"/>
</g>
<!-- Node25 -->
<g id="node20" class="node">
<title>Node25</title>
<g id="a_node20"><a xlink:href="sitkAggregateLabelMapFilter_8h.html" target="_top" xlink:title=" ">
<polygon fill="#ffffff" stroke="#ff0000" points="2145.2518,-62 2145.2518,-81 2309.2518,-81 2309.2518,-62 2145.2518,-62"/>
<text text-anchor="middle" x="2227.2518" y="-69" font-family="Helvetica,sans-Serif" font-size="10.00" fill="#000000">sitkAggregateLabelMapFilter.h</text>
</a>
</g>
</g>
<!-- Node11&#45;&gt;Node25 -->
<g id="edge28" class="edge">
<title>Node11&#45;&gt;Node25</title>
<path fill="none" stroke="#191970" d="M2931.5449,-126.6698C2925.1121,-125.2431 2918.5365,-123.9555 2912.2518,-123 2650.7724,-83.2442 2581.0007,-117.2492 2318.2518,-87 2304.8781,-85.4603 2290.4834,-83.2623 2277.1774,-81.0036"/>
<polygon fill="#191970" stroke="#191970" points="2930.9386,-130.1226 2941.4736,-128.9987 2932.5372,-123.3075 2930.9386,-130.1226"/>
</g>
<!-- Node26 -->
<g id="node21" class="node">
<title>Node26</title>
<g id="a_node21"><a xlink:href="sitkAndImageFilter_8h.html" target="_top" xlink:title=" ">
<polygon fill="#ffffff" stroke="#ff0000" points="205.2518,-62 205.2518,-81 321.2518,-81 321.2518,-62 205.2518,-62"/>
<text text-anchor="middle" x="263.2518" y="-69" font-family="Helvetica,sans-Serif" font-size="10.00" fill="#000000">sitkAndImageFilter.h</text>
</a>
</g>
</g>
<!-- Node11&#45;&gt;Node26 -->
<g id="edge29" class="edge">
<title>Node11&#45;&gt;Node26</title>
<path fill="none" stroke="#191970" d="M2932.7303,-126.6522C2925.9293,-125.1594 2918.9323,-123.857 2912.2518,-123 2343.0828,-49.9825 899.9144,-156.0611 330.2518,-87 319.7032,-85.7212 308.3912,-83.4581 298.1216,-81.0498"/>
<polygon fill="#191970" stroke="#191970" points="2931.9594,-130.0663 2942.4948,-128.9461 2933.5603,-123.2518 2931.9594,-130.0663"/>
</g>
<!-- Node27 -->
<g id="node22" class="node">
<title>Node27</title>
<g id="a_node22"><a xlink:href="sitkAntiAliasBinaryImageFilter_8h.html" target="_top" xlink:title=" ">
<polygon fill="#ffffff" stroke="#ff0000" points="339.2518,-56.5 339.2518,-86.5 479.2518,-86.5 479.2518,-56.5 339.2518,-56.5"/>
<text text-anchor="start" x="347.2518" y="-74.5" font-family="Helvetica,sans-Serif" font-size="10.00" fill="#000000">sitkAntiAliasBinaryImage</text>
<text text-anchor="middle" x="409.2518" y="-63.5" font-family="Helvetica,sans-Serif" font-size="10.00" fill="#000000">Filter.h</text>
</a>
</g>
</g>
<!-- Node11&#45;&gt;Node27 -->
<g id="edge30" class="edge">
<title>Node11&#45;&gt;Node27</title>
<path fill="none" stroke="#191970" d="M2932.7296,-126.6578C2925.9287,-125.1642 2918.9319,-123.8602 2912.2518,-123 2379.039,-54.3406 1028.2516,-139.9638 493.2518,-87 488.677,-86.5471 483.9784,-85.9766 479.2531,-85.3236"/>
<polygon fill="#191970" stroke="#191970" points="2931.9586,-130.0718 2942.494,-128.9521 2933.5598,-123.2574 2931.9586,-130.0718"/>
</g>
<!-- Node67 -->
<g id="node23" class="node">
<title>Node67</title>
<g id="a_node23"><a xlink:href="sitkClampImageFilter_8h.html" target="_top" xlink:title=" ">
<polygon fill="#ffffff" stroke="#ff0000" points="4122.7518,-62 4122.7518,-81 4251.7518,-81 4251.7518,-62 4122.7518,-62"/>
<text text-anchor="middle" x="4187.2518" y="-69" font-family="Helvetica,sans-Serif" font-size="10.00" fill="#000000">sitkClampImageFilter.h</text>
</a>
</g>
</g>
<!-- Node11&#45;&gt;Node67 -->
<g id="edge31" class="edge">
<title>Node11&#45;&gt;Node67</title>
<path fill="none" stroke="#191970" d="M3034.3886,-136.0889C3260.3688,-126.841 4059.3868,-93.8149 4113.2518,-87 4124.4509,-85.5831 4136.4768,-83.369 4147.5101,-81.0531"/>
<polygon fill="#191970" stroke="#191970" points="3034.2285,-132.5924 3024.3799,-136.4983 3034.5146,-139.5866 3034.2285,-132.5924"/>
</g>
<!-- Node160 -->
<g id="node24" class="node">
<title>Node160</title>
<g id="a_node24"><a xlink:href="sitkLabelIntensityStatisticsImageFilter_8h.html" target="_top" xlink:title=" ">
<polygon fill="#ffffff" stroke="#ff0000" points="4269.7518,-56.5 4269.7518,-86.5 4418.7518,-86.5 4418.7518,-56.5 4269.7518,-56.5"/>
<text text-anchor="start" x="4277.7518" y="-74.5" font-family="Helvetica,sans-Serif" font-size="10.00" fill="#000000">sitkLabelIntensityStatistics</text>
<text text-anchor="middle" x="4344.2518" y="-63.5" font-family="Helvetica,sans-Serif" font-size="10.00" fill="#000000">ImageFilter.h</text>
</a>
</g>
</g>
<!-- Node11&#45;&gt;Node160 -->
<g id="edge32" class="edge">
<title>Node11&#45;&gt;Node160</title>
<path fill="none" stroke="#191970" d="M3034.5777,-136.179C3285.1706,-126.3681 4244.8208,-88.724 4260.2518,-87 4263.3467,-86.6542 4266.4991,-86.2609 4269.6788,-85.8301"/>
<polygon fill="#191970" stroke="#191970" points="3034.4256,-132.6822 3024.5701,-136.5708 3034.6994,-139.6768 3034.4256,-132.6822"/>
</g>
<!-- Node161 -->
<g id="node25" class="node">
<title>Node161</title>
<g id="a_node25"><a xlink:href="sitkLabelMapContourOverlayImageFilter_8h.html" target="_top" xlink:title=" ">
<polygon fill="#ffffff" stroke="#ff0000" points="3480.2518,-56.5 3480.2518,-86.5 3638.2518,-86.5 3638.2518,-56.5 3480.2518,-56.5"/>
<text text-anchor="start" x="3488.2518" y="-74.5" font-family="Helvetica,sans-Serif" font-size="10.00" fill="#000000">sitkLabelMapContourOverlay</text>
<text text-anchor="middle" x="3559.2518" y="-63.5" font-family="Helvetica,sans-Serif" font-size="10.00" fill="#000000">ImageFilter.h</text>
</a>
</g>
</g>
<!-- Node11&#45;&gt;Node161 -->
<g id="edge33" class="edge">
<title>Node11&#45;&gt;Node161</title>
<path fill="none" stroke="#191970" d="M3034.6383,-133.6504C3127.7157,-125.7505 3313.5262,-108.7741 3470.2518,-87 3473.5141,-86.5468 3476.84,-86.0636 3480.1973,-85.5584"/>
<polygon fill="#191970" stroke="#191970" points="3034.2382,-130.1717 3024.568,-134.5004 3034.827,-137.1469 3034.2382,-130.1717"/>
</g>
<!-- Node162 -->
<g id="node26" class="node">
<title>Node162</title>
<g id="a_node26"><a xlink:href="sitkLabelMapMaskImageFilter_8h.html" target="_top" xlink:title=" ">
<polygon fill="#ffffff" stroke="#ff0000" points="3656.2518,-62 3656.2518,-81 3826.2518,-81 3826.2518,-62 3656.2518,-62"/>
<text text-anchor="middle" x="3741.2518" y="-69" font-family="Helvetica,sans-Serif" font-size="10.00" fill="#000000">sitkLabelMapMaskImageFilter.h</text>
</a>
</g>
</g>
<!-- Node11&#45;&gt;Node162 -->
<g id="edge34" class="edge">
<title>Node11&#45;&gt;Node162</title>
<path fill="none" stroke="#191970" d="M3034.4962,-135.6939C3151.7832,-129.7556 3421.7226,-114.1839 3647.2518,-87 3660.5528,-85.3968 3674.8473,-83.2563 3688.1751,-81.0792"/>
<polygon fill="#191970" stroke="#191970" points="3034.1114,-132.2087 3024.2993,-136.2052 3034.462,-139.1999 3034.1114,-132.2087"/>
</g>
<!-- Node163 -->
<g id="node27" class="node">
<title>Node163</title>
<g id="a_node27"><a xlink:href="sitkLabelMapOverlayImageFilter_8h.html" target="_top" xlink:title=" ">
<polygon fill="#ffffff" stroke="#ff0000" points="4436.2518,-56.5 4436.2518,-86.5 4586.2518,-86.5 4586.2518,-56.5 4436.2518,-56.5"/>
<text text-anchor="start" x="4444.2518" y="-74.5" font-family="Helvetica,sans-Serif" font-size="10.00" fill="#000000">sitkLabelMapOverlayImage</text>
<text text-anchor="middle" x="4511.2518" y="-63.5" font-family="Helvetica,sans-Serif" font-size="10.00" fill="#000000">Filter.h</text>
</a>
</g>
</g>
<!-- Node11&#45;&gt;Node163 -->
<g id="edge35" class="edge">
<title>Node11&#45;&gt;Node163</title>
<path fill="none" stroke="#191970" d="M3034.617,-136.1318C3113.0514,-133.0211 3255.5122,-127.4339 3377.2518,-123 3843.8833,-106.0047 3963.0502,-137.5042 4427.2518,-87 4430.2003,-86.6792 4433.2008,-86.3139 4436.2271,-85.9131"/>
<polygon fill="#191970" stroke="#191970" points="3034.3005,-132.6415 3024.4472,-136.5355 3034.5782,-139.636 3034.3005,-132.6415"/>
</g>
<!-- Node168 -->
<g id="node28" class="node">
<title>Node168</title>
<g id="a_node28"><a xlink:href="sitkLabelOverlayImageFilter_8h.html" target="_top" xlink:title=" ">
<polygon fill="#ffffff" stroke="#ff0000" points="2327.2518,-62 2327.2518,-81 2489.2518,-81 2489.2518,-62 2327.2518,-62"/>
<text text-anchor="middle" x="2408.2518" y="-69" font-family="Helvetica,sans-Serif" font-size="10.00" fill="#000000">sitkLabelOverlayImageFilter.h</text>
</a>
</g>
</g>
<!-- Node11&#45;&gt;Node168 -->
<g id="edge36" class="edge">
<title>Node11&#45;&gt;Node168</title>
<path fill="none" stroke="#191970" d="M2930.4037,-126.5696C2924.3326,-125.218 2918.1605,-123.9778 2912.2518,-123 2730.0353,-92.8477 2681.4199,-110.6943 2498.2518,-87 2485.5153,-85.3524 2471.8285,-83.1957 2459.0678,-81.017"/>
<polygon fill="#191970" stroke="#191970" points="2929.9269,-130.0525 2940.4613,-128.9225 2931.5215,-123.2365 2929.9269,-130.0525"/>
</g>
<!-- Node170 -->
<g id="node29" class="node">
<title>Node170</title>
<g id="a_node29"><a xlink:href="sitkLabelStatisticsImageFilter_8h.html" target="_top" xlink:title=" ">
<polygon fill="#ffffff" stroke="#ff0000" points="2507.7518,-56.5 2507.7518,-86.5 2644.7518,-86.5 2644.7518,-56.5 2507.7518,-56.5"/>
<text text-anchor="start" x="2515.7518" y="-74.5" font-family="Helvetica,sans-Serif" font-size="10.00" fill="#000000">sitkLabelStatisticsImage</text>
<text text-anchor="middle" x="2576.2518" y="-63.5" font-family="Helvetica,sans-Serif" font-size="10.00" fill="#000000">Filter.h</text>
</a>
</g>
</g>
<!-- Node11&#45;&gt;Node170 -->
<g id="edge37" class="edge">
<title>Node11&#45;&gt;Node170</title>
<path fill="none" stroke="#191970" d="M2929.0526,-126.5566C2923.4119,-125.2692 2917.7135,-124.0486 2912.2518,-123 2798.1183,-101.0882 2767.826,-106.4761 2653.2518,-87 2650.5631,-86.543 2647.8246,-86.0627 2645.0604,-85.5657"/>
<polygon fill="#191970" stroke="#191970" points="2928.5433,-130.0325 2939.0799,-128.9232 2930.1513,-123.2197 2928.5433,-130.0325"/>
</g>
<!-- Node186 -->
<g id="node30" class="node">
<title>Node186</title>
<g id="a_node30"><a xlink:href="sitkMaskImageFilter_8h.html" target="_top" xlink:title=" ">
<polygon fill="#ffffff" stroke="#ff0000" points="2662.7518,-62 2662.7518,-81 2785.7518,-81 2785.7518,-62 2662.7518,-62"/>
<text text-anchor="middle" x="2724.2518" y="-69" font-family="Helvetica,sans-Serif" font-size="10.00" fill="#000000">sitkMaskImageFilter.h</text>
</a>
</g>
</g>
<!-- Node11&#45;&gt;Node186 -->
<g id="edge38" class="edge">
<title>Node11&#45;&gt;Node186</title>
<path fill="none" stroke="#191970" d="M2929.6066,-126.3158C2880.9311,-113.3228 2804.8421,-93.0122 2760.2306,-81.1039"/>
<polygon fill="#191970" stroke="#191970" points="2928.9918,-129.7742 2939.5562,-128.9717 2930.7971,-123.011 2928.9918,-129.7742"/>
</g>
<!-- Node187 -->
<g id="node31" class="node">
<title>Node187</title>
<g id="a_node31"><a xlink:href="sitkMaskNegatedImageFilter_8h.html" target="_top" xlink:title=" ">
<polygon fill="#ffffff" stroke="#ff0000" points="2804.2518,-62 2804.2518,-81 2968.2518,-81 2968.2518,-62 2804.2518,-62"/>
<text text-anchor="middle" x="2886.2518" y="-69" font-family="Helvetica,sans-Serif" font-size="10.00" fill="#000000">sitkMaskNegatedImageFilter.h</text>
</a>
</g>
</g>
<!-- Node11&#45;&gt;Node187 -->
<g id="edge39" class="edge">
<title>Node11&#45;&gt;Node187</title>
<path fill="none" stroke="#191970" d="M2954.2052,-122.6559C2937.0475,-109.7395 2913.377,-91.9201 2898.9796,-81.0817"/>
<polygon fill="#191970" stroke="#191970" points="2952.406,-125.6824 2962.5002,-128.9005 2956.616,-120.0899 2952.406,-125.6824"/>
</g>
<!-- Node205 -->
<g id="node32" class="node">
<title>Node205</title>
<g id="a_node32"><a xlink:href="sitkMorphologicalWatershedFromMarkersImageFilter_8h.html" target="_top" xlink:title=" ">
<polygon fill="#ffffff" stroke="#ff0000" points="2986.7518,-56.5 2986.7518,-86.5 3141.7518,-86.5 3141.7518,-56.5 2986.7518,-56.5"/>
<text text-anchor="start" x="2994.7518" y="-74.5" font-family="Helvetica,sans-Serif" font-size="10.00" fill="#000000">sitkMorphologicalWatershed</text>
<text text-anchor="middle" x="3064.2518" y="-63.5" font-family="Helvetica,sans-Serif" font-size="10.00" fill="#000000">FromMarkersImageFilter.h</text>
</a>
</g>
</g>
<!-- Node11&#45;&gt;Node205 -->
<g id="edge40" class="edge">
<title>Node11&#45;&gt;Node205</title>
<path fill="none" stroke="#191970" d="M2996.3574,-122.6115C3010.875,-111.6825 3030.0343,-97.2592 3044.2975,-86.5218"/>
<polygon fill="#191970" stroke="#191970" points="2993.8875,-120.0899 2988.0033,-128.9005 2998.0976,-125.6824 2993.8875,-120.0899"/>
</g>
<!-- Node241 -->
<g id="node33" class="node">
<title>Node241</title>
<g id="a_node33"><a xlink:href="sitkResampleImageFilter_8h.html" target="_top" xlink:title=" ">
<polygon fill="#ffffff" stroke="#ff0000" points="3160.2518,-62 3160.2518,-81 3306.2518,-81 3306.2518,-62 3160.2518,-62"/>
<text text-anchor="middle" x="3233.2518" y="-69" font-family="Helvetica,sans-Serif" font-size="10.00" fill="#000000">sitkResampleImageFilter.h</text>
</a>
</g>
</g>
<!-- Node11&#45;&gt;Node241 -->
<g id="edge41" class="edge">
<title>Node11&#45;&gt;Node241</title>
<path fill="none" stroke="#191970" d="M3021.8563,-126.3973C3071.8755,-113.4078 3150.318,-93.0371 3196.2695,-81.1039"/>
<polygon fill="#191970" stroke="#191970" points="3020.7421,-123.0705 3011.9429,-128.9717 3022.5016,-129.8457 3020.7421,-123.0705"/>
</g>
<!-- Node294 -->
<g id="node34" class="node">
<title>Node294</title>
<g id="a_node34"><a xlink:href="sitkVectorIndexSelectionCastImageFilter_8h.html" target="_top" xlink:title=" ">
<polygon fill="#ffffff" stroke="#ff0000" points="3324.7518,-56.5 3324.7518,-86.5 3461.7518,-86.5 3461.7518,-56.5 3324.7518,-56.5"/>
<text text-anchor="start" x="3332.7518" y="-74.5" font-family="Helvetica,sans-Serif" font-size="10.00" fill="#000000">sitkVectorIndexSelection</text>
<text text-anchor="middle" x="3393.2518" y="-63.5" font-family="Helvetica,sans-Serif" font-size="10.00" fill="#000000">CastImageFilter.h</text>
</a>
</g>
</g>
<!-- Node11&#45;&gt;Node294 -->
<g id="edge42" class="edge">
<title>Node11&#45;&gt;Node294</title>
<path fill="none" stroke="#191970" d="M3034.4355,-130.3742C3102.3738,-120.852 3217.0842,-104.1793 3315.2518,-87 3318.2437,-86.4764 3321.2975,-85.9283 3324.3803,-85.3639"/>
<polygon fill="#191970" stroke="#191970" points="3033.7706,-126.933 3024.3511,-131.7832 3034.7393,-133.8657 3033.7706,-126.933"/>
</g>
<!-- Node299 -->
<g id="node35" class="node">
<title>Node299</title>
<g id="a_node35"><a xlink:href="sitkWarpImageFilter_8h.html" target="_top" xlink:title=" ">
<polygon fill="#ffffff" stroke="#ff0000" points="3982.2518,-62 3982.2518,-81 4104.2518,-81 4104.2518,-62 3982.2518,-62"/>
<text text-anchor="middle" x="4043.2518" y="-69" font-family="Helvetica,sans-Serif" font-size="10.00" fill="#000000">sitkWarpImageFilter.h</text>
</a>
</g>
</g>
<!-- Node11&#45;&gt;Node299 -->
<g id="edge43" class="edge">
<title>Node11&#45;&gt;Node299</title>
<path fill="none" stroke="#191970" d="M3034.5718,-136.0022C3234.9868,-127.4846 3879.5963,-99.4221 3972.2518,-87 3983.0059,-85.5582 3994.5473,-83.3359 4005.1332,-81.0202"/>
<polygon fill="#191970" stroke="#191970" points="3034.3686,-132.5075 3024.5261,-136.4285 3034.6655,-139.5012 3034.3686,-132.5075"/>
</g>
<!-- Node10&#45;&gt;Node4 -->
<g id="edge11" class="edge">
<title>Node10&#45;&gt;Node4</title>
<path fill="none" stroke="#191970" d="M711.6725,-56.0221C1166.2167,-19.3572 4221.6953,-10.98 4595.749,-10.0851"/>
<polygon fill="#191970" stroke="#191970" points="711.0891,-52.5589 701.4216,-56.8934 711.6821,-59.5338 711.0891,-52.5589"/>
</g>
<!-- Node12&#45;&gt;Node4 -->
<g id="edge13" class="edge">
<title>Node12&#45;&gt;Node4</title>
<path fill="none" stroke="#191970" d="M3952.1705,-59.7566C3959.2088,-58.3173 3966.3955,-57.0031 3973.2518,-56 4208.2259,-21.6215 4494.1438,-12.769 4595.4585,-10.6353"/>
<polygon fill="#191970" stroke="#191970" points="3951.0644,-56.4141 3942.0206,-61.9332 3952.5322,-63.2585 3951.0644,-56.4141"/>
</g>
<!-- Node13&#45;&gt;Node4 -->
<g id="edge15" class="edge">
<title>Node13&#45;&gt;Node4</title>
<path fill="none" stroke="#191970" d="M834.2696,-59.9672C842.8832,-58.3431 851.796,-56.9167 860.2518,-56 1251.1138,-13.6242 4226.7593,-10.273 4595.7472,-10.0199"/>
<polygon fill="#191970" stroke="#191970" points="833.4639,-56.5589 824.3409,-61.9459 834.8321,-63.4239 833.4639,-56.5589"/>
</g>
<!-- Node14&#45;&gt;Node4 -->
<g id="edge18" class="edge">
<title>Node14&#45;&gt;Node4</title>
<path fill="none" stroke="#191970" d="M1041.5952,-56.0273C1459.104,-21.6141 4238.8956,-11.3098 4595.5981,-10.1206"/>
<polygon fill="#191970" stroke="#191970" points="1041.2693,-52.5424 1031.6105,-56.8966 1041.8764,-59.516 1041.2693,-52.5424"/>
</g>
<!-- Node15&#45;&gt;Node4 -->
<g id="edge20" class="edge">
<title>Node15&#45;&gt;Node4</title>
<path fill="none" stroke="#191970" d="M1158.1649,-59.8656C1166.1562,-58.2849 1174.4078,-56.8992 1182.2518,-56 1538.4007,-15.1742 4244.4365,-10.4791 4595.712,-10.0405"/>
<polygon fill="#191970" stroke="#191970" points="1157.3001,-56.4708 1148.2322,-61.9502 1158.7379,-63.3216 1157.3001,-56.4708"/>
</g>
<!-- Node308&#45;&gt;Node4 -->
<g id="edge45" class="edge">
<title>Node308&#45;&gt;Node4</title>
<path fill="none" stroke="#191970" d="M2510.6789,-128.5152C2486.1049,-126.3271 2459.725,-124.2832 2435.2518,-123 2368.1975,-119.4843 65.3765,-134.8319 18.2518,-87 8.5822,-77.1854 8.5581,-65.7908 18.2518,-56 60.9398,-12.8843 4157.5109,-10.1769 4595.45,-10.0107"/>
<polygon fill="#191970" stroke="#191970" points="2510.4483,-132.0085 2520.7236,-129.4262 2511.0806,-125.0371 2510.4483,-132.0085"/>
</g>
<!-- Node309&#45;&gt;Node4 -->
<g id="edge47" class="edge">
<title>Node309&#45;&gt;Node4</title>
<path fill="none" stroke="#191970" d="M2702.5594,-123.029C2702.4568,-123.0193 2702.3543,-123.0096 2702.2518,-123 2632.9369,-116.5074 245.1245,-136.5799 196.2518,-87 186.5796,-77.1879 186.56,-65.7927 196.2518,-56 237.2429,-14.5817 4167.7364,-10.3625 4595.5935,-10.0259"/>
<polygon fill="#191970" stroke="#191970" points="2701.9227,-126.4805 2712.2402,-124.0723 2702.6729,-119.5208 2701.9227,-126.4805"/>
</g>
<!-- Node326&#45;&gt;Node327 -->
<g id="edge51" class="edge">
<title>Node326&#45;&gt;Node327</title>
<path fill="none" stroke="#191970" d="M4750.1917,-126.9705C4757.2848,-125.6155 4764.4295,-124.2658 4771.2518,-123 4861.3442,-106.2849 4884.3368,-104.645 4974.2518,-87 4983.6621,-85.1533 4993.7383,-83.0583 5003.2826,-81.019"/>
<polygon fill="#191970" stroke="#191970" points="4749.0406,-123.6275 4739.88,-128.9504 4750.3606,-130.5019 4749.0406,-123.6275"/>
</g>
<!-- Node326&#45;&gt;Node328 -->
<g id="edge53" class="edge">
<title>Node326&#45;&gt;Node328</title>
<path fill="none" stroke="#191970" d="M4730.4581,-125.7484C4770.4858,-112.7297 4831.716,-92.815 4867.7917,-81.0817"/>
<polygon fill="#191970" stroke="#191970" points="4729.1937,-122.4791 4720.7666,-128.9005 4731.3588,-129.1359 4729.1937,-122.4791"/>
</g>
<!-- Node326&#45;&gt;Node329 -->
<g id="edge55" class="edge">
<title>Node326&#45;&gt;Node329</title>
<path fill="none" stroke="#191970" d="M4705.4783,-120.8486C4715.7377,-108.1194 4729.1945,-91.4229 4737.5292,-81.0817"/>
<polygon fill="#191970" stroke="#191970" points="4702.5389,-118.9182 4698.9887,-128.9005 4707.989,-123.3109 4702.5389,-118.9182"/>
</g>
<!-- Node327&#45;&gt;Node4 -->
<g id="edge52" class="edge">
<title>Node327&#45;&gt;Node4</title>
<path fill="none" stroke="#191970" d="M4994.5929,-59.8722C4987.7681,-58.4849 4980.8525,-57.1539 4974.2518,-56 4864.6525,-36.8406 4734.033,-21.2112 4670.9916,-14.1167"/>
<polygon fill="#191970" stroke="#191970" points="4993.9765,-63.3188 5004.48,-61.9309 4995.4035,-56.4658 4993.9765,-63.3188"/>
</g>
<!-- Node328&#45;&gt;Node4 -->
<g id="edge54" class="edge">
<title>Node328&#45;&gt;Node4</title>
<path fill="none" stroke="#191970" d="M4846.3952,-59.6527C4795.042,-47.6898 4716.9185,-29.4906 4670.8848,-18.7668"/>
<polygon fill="#191970" stroke="#191970" points="4845.7581,-63.098 4856.2914,-61.9581 4847.3463,-56.2805 4845.7581,-63.098"/>
</g>
<!-- Node329&#45;&gt;Node4 -->
<g id="edge56" class="edge">
<title>Node329&#45;&gt;Node4</title>
<path fill="none" stroke="#191970" d="M4718.9745,-57.071C4697.8971,-45.4972 4668.9098,-29.5801 4650.6289,-19.5419"/>
<polygon fill="#191970" stroke="#191970" points="4717.3017,-60.1453 4727.7518,-61.8906 4720.6709,-54.0095 4717.3017,-60.1453"/>
</g>
<!-- Node330&#45;&gt;Node4 -->
<g id="edge58" class="edge">
<title>Node330&#45;&gt;Node4</title>
<path fill="none" stroke="#191970" d="M4943.098,-128.3115C5011.2262,-117.6613 5106.1955,-100.6335 5117.2518,-87 5125.93,-76.2988 5126.5218,-66.1928 5117.2518,-56 5087.3657,-23.1388 4779.3858,-13.2173 4670.8526,-10.7286"/>
<polygon fill="#191970" stroke="#191970" points="4942.1803,-124.9117 4932.8332,-129.8999 4943.2508,-131.8294 4942.1803,-124.9117"/>
</g>
<!-- Node331&#45;&gt;Node4 -->
<g id="edge60" class="edge">
<title>Node331&#45;&gt;Node4</title>
<path fill="none" stroke="#191970" d="M4570.1,-125.8431C4592.1237,-118.2772 4614.4234,-106.2145 4628.2518,-87 4642.8067,-66.776 4638.8509,-35.2922 4635.5994,-19.5867"/>
<polygon fill="#191970" stroke="#191970" points="4568.8515,-122.5669 4560.3691,-128.9151 4570.9589,-129.2421 4568.8515,-122.5669"/>
</g>
<!-- Node332&#45;&gt;Node4 -->
<g id="edge62" class="edge">
<title>Node332&#45;&gt;Node4</title>
<path fill="none" stroke="#191970" d="M5170.7728,-118.8994C5172.0099,-99.8818 5170.4228,-71.6657 5153.2518,-56 5117.7668,-23.6258 4784.4425,-13.325 4670.9105,-10.7404"/>
<polygon fill="#191970" stroke="#191970" points="5167.2874,-118.5804 5169.8145,-128.8694 5174.2553,-119.2502 5167.2874,-118.5804"/>
</g>
<!-- Node333&#45;&gt;Node4 -->
<g id="edge64" class="edge">
<title>Node333&#45;&gt;Node4</title>
<path fill="none" stroke="#191970" d="M5090.8941,-123.7841C5119.5904,-107.1881 5156.656,-79.4552 5135.2518,-56 5104.0959,-21.8586 4782.5238,-12.7403 4671.0513,-10.5957"/>
<polygon fill="#191970" stroke="#191970" points="5088.9898,-120.8385 5081.9559,-128.7616 5092.3955,-126.9541 5088.9898,-120.8385"/>
</g>
<!-- Node324&#45;&gt;Node4 -->
<g id="edge66" class="edge">
<title>Node324&#45;&gt;Node4</title>
<path fill="none" stroke="#191970" d="M2247.3548,-138.2024C1814.5473,-136.6239 47.0559,-127.6918 7.2518,-87 -2.3826,-77.1508 -2.442,-65.7907 7.2518,-56 50.0531,-12.7709 4158.4956,-10.1646 4595.6988,-10.0097"/>
<polygon fill="#191970" stroke="#191970" points="2247.6224,-141.7033 2257.6349,-138.2394 2247.6476,-134.7034 2247.6224,-141.7033"/>
</g>
<!-- Node335&#45;&gt;Node12 -->
<g id="edge76" class="edge">
<title>Node335&#45;&gt;Node12</title>
<path fill="none" stroke="#191970" d="M3565.3851,-127.6902C3638.2196,-118.383 3743.7238,-103.8185 3835.2518,-87 3844.6707,-85.2692 3854.7555,-83.1542 3864.2261,-81.0498"/>
<polygon fill="#191970" stroke="#191970" points="3564.8083,-124.2353 3555.3295,-128.9683 3565.691,-131.1794 3564.8083,-124.2353"/>
</g>
<!-- Node335&#45;&gt;Node67 -->
<g id="edge77" class="edge">
<title>Node335&#45;&gt;Node67</title>
<path fill="none" stroke="#191970" d="M3576.326,-134.3073C3702.1504,-128.142 3924.5483,-114.2805 4113.2518,-87 4124.0343,-85.4412 4135.6037,-83.2639 4146.3164,-81.0329"/>
<polygon fill="#191970" stroke="#191970" points="3576.1378,-130.8122 3566.3186,-134.7913 3576.476,-137.804 3576.1378,-130.8122"/>
</g>
<!-- Node335&#45;&gt;Node160 -->
<g id="edge78" class="edge">
<title>Node335&#45;&gt;Node160</title>
<path fill="none" stroke="#191970" d="M3576.6029,-135.6605C3726.0661,-130.5836 4015.7974,-117.4768 4260.2518,-87 4263.3421,-86.6147 4266.4906,-86.1884 4269.667,-85.7302"/>
<polygon fill="#191970" stroke="#191970" points="3576.4019,-132.1652 3566.5247,-135.9978 3576.6362,-139.1612 3576.4019,-132.1652"/>
</g>
<!-- Node335&#45;&gt;Node161 -->
<g id="edge79" class="edge">
<title>Node335&#45;&gt;Node161</title>
<path fill="none" stroke="#191970" d="M3495.9346,-122.6115C3509.4734,-111.6825 3527.3411,-97.2592 3540.6427,-86.5218"/>
<polygon fill="#191970" stroke="#191970" points="3493.7264,-119.8959 3488.1436,-128.9005 3498.1233,-125.3427 3493.7264,-119.8959"/>
</g>
<!-- Node335&#45;&gt;Node162 -->
<g id="edge80" class="edge">
<title>Node335&#45;&gt;Node162</title>
<path fill="none" stroke="#191970" d="M3523.7993,-126.4785C3575.1606,-113.4929 3655.9693,-93.062 3703.2661,-81.1039"/>
<polygon fill="#191970" stroke="#191970" points="3522.7754,-123.1272 3513.9384,-128.9717 3524.4913,-129.9137 3522.7754,-123.1272"/>
</g>
<!-- Node335&#45;&gt;Node163 -->
<g id="edge81" class="edge">
<title>Node335&#45;&gt;Node163</title>
<path fill="none" stroke="#191970" d="M3576.5518,-137.2944C3750.3666,-134.263 4118.5652,-123.6845 4427.2518,-87 4430.197,-86.65 4433.1946,-86.2601 4436.2187,-85.8386"/>
<polygon fill="#191970" stroke="#191970" points="3576.337,-133.7975 3566.3979,-137.4668 3576.4559,-140.7965 3576.337,-133.7975"/>
</g>
<!-- Node335&#45;&gt;Node168 -->
<g id="edge82" class="edge">
<title>Node335&#45;&gt;Node168</title>
<path fill="none" stroke="#191970" d="M3375.7762,-134.7165C3161.5861,-126.4041 2665.9534,-105.7901 2498.2518,-87 2485.0164,-85.517 2470.7768,-83.3384 2457.617,-81.0804"/>
<polygon fill="#191970" stroke="#191970" points="3375.9426,-138.2254 3386.0706,-135.1149 3376.2134,-131.2307 3375.9426,-138.2254"/>
</g>
<!-- Node335&#45;&gt;Node170 -->
<g id="edge83" class="edge">
<title>Node335&#45;&gt;Node170</title>
<path fill="none" stroke="#191970" d="M3376.0392,-136.6216C3220.6497,-132.7209 2912.4613,-121.0384 2653.2518,-87 2650.5477,-86.6449 2647.7963,-86.2507 2645.0212,-85.8257"/>
<polygon fill="#191970" stroke="#191970" points="3375.9684,-140.1208 3386.0513,-136.8675 3376.1403,-133.1229 3375.9684,-140.1208"/>
</g>
<!-- Node335&#45;&gt;Node186 -->
<g id="edge84" class="edge">
<title>Node335&#45;&gt;Node186</title>
<path fill="none" stroke="#191970" d="M3375.8378,-135.2854C3242.5689,-130.0205 3000.2064,-116.9722 2795.2518,-87 2784.7653,-85.4665 2773.5163,-83.2705 2763.1342,-81.0119"/>
<polygon fill="#191970" stroke="#191970" points="3375.9005,-138.7904 3386.0289,-135.6812 3376.1722,-131.7957 3375.9005,-138.7904"/>
</g>
<!-- Node335&#45;&gt;Node187 -->
<g id="edge85" class="edge">
<title>Node335&#45;&gt;Node187</title>
<path fill="none" stroke="#191970" d="M3375.7044,-130.0825C3274.7631,-121.1715 3114.9037,-105.8056 2977.2518,-87 2964.7076,-85.2863 2951.2396,-83.1541 2938.6126,-81.0251"/>
<polygon fill="#191970" stroke="#191970" points="3375.6247,-133.5889 3385.8926,-130.9776 3376.2374,-126.6157 3375.6247,-133.5889"/>
</g>
<!-- Node335&#45;&gt;Node205 -->
<g id="edge86" class="edge">
<title>Node335&#45;&gt;Node205</title>
<path fill="none" stroke="#191970" d="M3403.6099,-127.3966C3337.7019,-117.2255 3237.8806,-101.5792 3151.2518,-87 3148.2259,-86.4908 3145.1419,-85.9665 3142.0271,-85.4326"/>
<polygon fill="#191970" stroke="#191970" points="3403.4728,-130.9167 3413.8893,-128.981 3404.5392,-123.9984 3403.4728,-130.9167"/>
</g>
<!-- Node335&#45;&gt;Node241 -->
<g id="edge87" class="edge">
<title>Node335&#45;&gt;Node241</title>
<path fill="none" stroke="#191970" d="M3431.7653,-126.2342C3384.6292,-113.2378 3311.1831,-92.9872 3268.0839,-81.1039"/>
<polygon fill="#191970" stroke="#191970" points="3431.1233,-129.6877 3441.6939,-128.9717 3432.9839,-122.9395 3431.1233,-129.6877"/>
</g>
<!-- Node335&#45;&gt;Node294 -->
<g id="edge88" class="edge">
<title>Node335&#45;&gt;Node294</title>
<path fill="none" stroke="#191970" d="M3456.569,-122.6115C3443.0301,-111.6825 3425.1625,-97.2592 3411.8608,-86.5218"/>
<polygon fill="#191970" stroke="#191970" points="3454.3803,-125.3427 3464.3599,-128.9005 3458.7771,-119.8959 3454.3803,-125.3427"/>
</g>
<!-- Node335&#45;&gt;Node299 -->
<g id="edge89" class="edge">
<title>Node335&#45;&gt;Node299</title>
<path fill="none" stroke="#191970" d="M3576.8506,-131.3621C3677.3626,-123.4546 3836.1006,-108.8601 3972.2518,-87 3982.3421,-85.3799 3993.1551,-83.2333 4003.2234,-81.0555"/>
<polygon fill="#191970" stroke="#191970" points="3576.4018,-127.8864 3566.7042,-132.1532 3576.946,-134.8652 3576.4018,-127.8864"/>
</g>
<!-- Node336&#45;&gt;Node7 -->
<g id="edge94" class="edge">
<title>Node336&#45;&gt;Node7</title>
<path fill="none" stroke="#191970" d="M3060.159,-196.2768C2896.8155,-189.0538 2561.4783,-172.2377 2511.2518,-154 2489.1067,-145.9589 2490.614,-130.4156 2468.2518,-123 2347.8502,-83.0733 311.6199,-98.036 185.2518,-87 170.2163,-85.6869 153.9839,-83.4293 139.179,-81.0371"/>
<polygon fill="#191970" stroke="#191970" points="3060.0443,-199.7751 3070.1885,-196.7178 3060.3519,-192.7818 3060.0443,-199.7751"/>
</g>
<!-- Node336&#45;&gt;Node11 -->
<g id="edge91" class="edge">
<title>Node336&#45;&gt;Node11</title>
<path fill="none" stroke="#191970" d="M3112.3309,-186.9504C3079.345,-175.2916 3031.7952,-158.4852 3002.2484,-148.0419"/>
<polygon fill="#191970" stroke="#191970" points="3111.4695,-190.3581 3122.0643,-190.3906 3113.8022,-183.7582 3111.4695,-190.3581"/>
</g>
<!-- Node336&#45;&gt;Node308 -->
<g id="edge92" class="edge">
<title>Node336&#45;&gt;Node308</title>
<path fill="none" stroke="#191970" d="M3059.9535,-192.3066C2969.7876,-184.1821 2826.6002,-170.3052 2703.2518,-154 2700.1554,-153.5907 2697.0053,-153.1596 2693.8253,-152.712"/>
<polygon fill="#191970" stroke="#191970" points="3059.8652,-195.8126 3070.1379,-193.2201 3060.4906,-188.8406 3059.8652,-195.8126"/>
</g>
<!-- Node336&#45;&gt;Node309 -->
<g id="edge93" class="edge">
<title>Node336&#45;&gt;Node309</title>
<path fill="none" stroke="#191970" d="M3083.5845,-188.7192C3023.526,-178.4019 2934.5529,-163.1174 2870.5504,-152.1225"/>
<polygon fill="#191970" stroke="#191970" points="3083.2588,-192.2144 3093.7071,-190.4581 3084.444,-185.3155 3083.2588,-192.2144"/>
</g>
<!-- Node336&#45;&gt;Node327 -->
<g id="edge95" class="edge">
<title>Node336&#45;&gt;Node327</title>
<path fill="none" stroke="#191970" d="M3238.819,-199.0476C3567.8388,-195.3425 4694.3855,-180.753 4766.2518,-154 4786.6783,-146.396 4784.5925,-132.4115 4804.2518,-123 4873.9118,-89.6516 4898.7232,-103.1269 4974.2518,-87 4983.255,-85.0776 4992.8892,-83.0105 5002.0874,-81.0321"/>
<polygon fill="#191970" stroke="#191970" points="3238.3453,-195.5526 3228.3852,-199.1645 3238.4238,-202.5522 3238.3453,-195.5526"/>
</g>
<!-- Node336&#45;&gt;Node328 -->
<g id="edge97" class="edge">
<title>Node336&#45;&gt;Node328</title>
<path fill="none" stroke="#191970" d="M3238.6988,-195.9579C3393.5292,-188.7812 3721.4787,-172.7879 3998.2518,-154 4089.5671,-147.8013 4728.6065,-99.6625 4819.2518,-87 4830.4642,-85.4337 4842.4965,-83.2805 4853.673,-81.0771"/>
<polygon fill="#191970" stroke="#191970" points="3238.1307,-192.4803 3228.3031,-196.4385 3238.4541,-199.4728 3238.1307,-192.4803"/>
</g>
<!-- Node336&#45;&gt;Node329 -->
<g id="edge99" class="edge">
<title>Node336&#45;&gt;Node329</title>
<path fill="none" stroke="#191970" d="M3238.6513,-193.7942C3465.5485,-177.874 4082.1485,-133.5517 4595.2518,-87 4623.0198,-84.4807 4653.6443,-81.375 4679.9428,-78.6068"/>
<polygon fill="#191970" stroke="#191970" points="3238.1983,-190.3172 3228.4675,-194.508 3238.6878,-197.3001 3238.1983,-190.3172"/>
</g>
<!-- Node336&#45;&gt;Node330 -->
<g id="edge96" class="edge">
<title>Node336&#45;&gt;Node330</title>
<path fill="none" stroke="#191970" d="M3238.8093,-199.6112C3536.7809,-197.9868 4493.1955,-190.0266 4799.2518,-154 4810.7235,-152.6496 4823.0525,-150.3961 4834.2939,-148.0199"/>
<polygon fill="#191970" stroke="#191970" points="3238.4706,-196.1129 3228.4895,-199.6664 3238.5081,-203.1128 3238.4706,-196.1129"/>
</g>
<!-- Node336&#45;&gt;Node331 -->
<g id="edge98" class="edge">
<title>Node336&#45;&gt;Node331</title>
<path fill="none" stroke="#191970" d="M3238.5659,-198.5481C3488.5019,-194.2019 4191.6812,-179.9618 4421.2518,-154 4433.6292,-152.6003 4446.9489,-150.3617 4459.1408,-148.0162"/>
<polygon fill="#191970" stroke="#191970" points="3238.3742,-195.0508 3228.4362,-198.7232 3238.4952,-202.0498 3238.3742,-195.0508"/>
</g>
<!-- Node336&#45;&gt;Node324 -->
<g id="edge100" class="edge">
<title>Node336&#45;&gt;Node324</title>
<path fill="none" stroke="#191970" d="M3059.9429,-195.1602C2931.2621,-187.8954 2686.2892,-172.9763 2478.2518,-154 2459.5559,-152.2946 2439.4475,-150.1657 2420.5789,-148.0371"/>
<polygon fill="#191970" stroke="#191970" points="3059.9578,-198.6665 3070.1386,-195.7335 3060.3509,-191.6775 3059.9578,-198.6665"/>
</g>
<!-- Node337&#45;&gt;Node4 -->
<g id="edge106" class="edge">
<title>Node337&#45;&gt;Node4</title>
<path fill="none" stroke="#191970" d="M5355.2663,-119.7601C5345.7752,-100.0783 5327.9243,-70.0711 5302.2518,-56 5246.8037,-25.6088 4803.6669,-13.6714 4670.7846,-10.7538"/>
<polygon fill="#191970" stroke="#191970" points="5352.1326,-121.3241 5359.4646,-128.9722 5358.5023,-118.4211 5352.1326,-121.3241"/>
</g>
<!-- Node338 -->
<g id="node50" class="node">
<title>Node338</title>
<g id="a_node50"><a xlink:href="sitkFunctionCommand_8h.html" target="_top" xlink:title=" ">
<polygon fill="#ffffff" stroke="#000000" points="5354.2518,-62 5354.2518,-81 5488.2518,-81 5488.2518,-62 5354.2518,-62"/>
<text text-anchor="middle" x="5421.2518" y="-69" font-family="Helvetica,sans-Serif" font-size="10.00" fill="#000000">sitkFunctionCommand.h</text>
</a>
</g>
</g>
<!-- Node337&#45;&gt;Node338 -->
<g id="edge107" class="edge">
<title>Node337&#45;&gt;Node338</title>
<path fill="none" stroke="#191970" d="M5378.2152,-121.2147C5389.273,-108.441 5403.919,-91.5224 5412.9572,-81.0817"/>
<polygon fill="#191970" stroke="#191970" points="5375.4606,-119.0491 5371.5618,-128.9005 5380.753,-123.6307 5375.4606,-119.0491"/>
</g>
<!-- Node338&#45;&gt;Node4 -->
<g id="edge108" class="edge">
<title>Node338&#45;&gt;Node4</title>
<path fill="none" stroke="#191970" d="M5366.9507,-60.1491C5358.0583,-58.5671 5348.9196,-57.107 5340.2518,-56 5085.8576,-23.5114 4776.8706,-13.4303 4670.9657,-10.8078"/>
<polygon fill="#191970" stroke="#191970" points="5366.3786,-63.6025 5376.8476,-61.9746 5367.6484,-56.7186 5366.3786,-63.6025"/>
</g>
</g>
</svg>
