<?xml version="1.0" encoding="UTF-8" standalone="no"?>
<!DOCTYPE svg PUBLIC "-//W3C//DTD SVG 1.1//EN"
 "http://www.w3.org/Graphics/SVG/1.1/DTD/svg11.dtd">
<!-- Generated by graphviz version 2.40.1 (20161225.0304)
 -->
<!-- Title: sitkImageSeriesWriter.h Pages: 1 -->
<!--zoomable 543 -->
<svg id="main" version="1.1" xmlns="http://www.w3.org/2000/svg" xmlns:xlink="http://www.w3.org/1999/xlink" xml:space="preserve" onload="init(evt)">
<style type="text/css"><![CDATA[
.edge:hover path { stroke: red; }
.edge:hover polygon { stroke: red; fill: red; }
]]></style>
<script type="text/javascript"><![CDATA[
var edges = document.getElementsByTagName('g');
if (edges && edges.length) {
  for (var i=0;i<edges.length;i++) {
    if (edges[i].id.substr(0,4)=='edge') {
      edges[i].setAttribute('class','edge');
    }
  }
}
]]></script>
        <defs>
                <circle id="rim" cx="0" cy="0" r="7"/>
                <circle id="rim2" cx="0" cy="0" r="3.5"/>
                <g id="zoomPlus">
                        <use xlink:href="#rim" fill="#404040">
                                <set attributeName="fill" to="#808080" begin="zoomplus.mouseover" end="zoomplus.mouseout"/>
                        </use>
                        <path d="M-4,0h8M0,-4v8" fill="none" stroke="white" stroke-width="1.5" pointer-events="none"/>
                </g>
                <g id="zoomMin">
                        <use xlink:href="#rim" fill="#404040">
                                <set attributeName="fill" to="#808080" begin="zoomminus.mouseover" end="zoomminus.mouseout"/>
                        </use>
                        <path d="M-4,0h8" fill="none" stroke="white" stroke-width="1.5" pointer-events="none"/>
                </g>
                <g id="dirArrow">
                        <path fill="none" stroke="white" stroke-width="1.5" d="M0,-3.0v7 M-2.5,-0.5L0,-3.0L2.5,-0.5"/>
                </g>
               <g id="resetDef">
                       <use xlink:href="#rim2" fill="#404040">
                               <set attributeName="fill" to="#808080" begin="reset.mouseover" end="reset.mouseout"/>
                       </use>
               </g>
        </defs>

<script type="text/javascript">
var viewWidth = 1540;
var viewHeight = 543;
var sectionId = 'dynsection-0';
</script>
<script xlink:href="svgpan.js"/>
<svg id="graph" class="graph">
<g id="viewport">
<title>sitkImageSeriesWriter.h</title>
<polygon fill="#ffffff" stroke="transparent" points="-4,4 -4,-539 1536,-539 1536,4 -4,4"/>
<!-- Node1 -->
<g id="node1" class="node">
<title>Node1</title>
<g id="a_node1"><a xlink:title=" ">
<polygon fill="#bfbfbf" stroke="#000000" points="1165.5,-515.5 1165.5,-534.5 1298.5,-534.5 1298.5,-515.5 1165.5,-515.5"/>
<text text-anchor="middle" x="1232" y="-522.5" font-family="Helvetica,sans-Serif" font-size="10.00" fill="#000000">sitkImageSeriesWriter.h</text>
</a>
</g>
</g>
<!-- Node2 -->
<g id="node2" class="node">
<title>Node2</title>
<g id="a_node2"><a xlink:href="sitkMacro_8h.html" target="_top" xlink:title=" ">
<polygon fill="#ffffff" stroke="#000000" points="1026.5,-56.5 1026.5,-75.5 1099.5,-75.5 1099.5,-56.5 1026.5,-56.5"/>
<text text-anchor="middle" x="1063" y="-63.5" font-family="Helvetica,sans-Serif" font-size="10.00" fill="#000000">sitkMacro.h</text>
</a>
</g>
</g>
<!-- Node1&#45;&gt;Node2 -->
<g id="edge1" class="edge">
<title>Node1&#45;&gt;Node2</title>
<path fill="none" stroke="#191970" d="M1290.1987,-515.4777C1377.4404,-499.5331 1532,-464.0775 1532,-413 1532,-413 1532,-413 1532,-178 1532,-91.8638 1228.9338,-71.8371 1110.0491,-67.2948"/>
<polygon fill="#191970" stroke="#191970" points="1109.9216,-63.788 1099.8016,-66.9244 1109.6687,-70.7834 1109.9216,-63.788"/>
</g>
<!-- Node9 -->
<g id="node9" class="node">
<title>Node9</title>
<g id="a_node9"><a xlink:href="sitkImage_8h.html" target="_top" xlink:title=" ">
<polygon fill="#ffffff" stroke="#000000" points="1094,-347.5 1094,-366.5 1168,-366.5 1168,-347.5 1094,-347.5"/>
<text text-anchor="middle" x="1131" y="-354.5" font-family="Helvetica,sans-Serif" font-size="10.00" fill="#000000">sitkImage.h</text>
</a>
</g>
</g>
<!-- Node1&#45;&gt;Node9 -->
<g id="edge8" class="edge">
<title>Node1&#45;&gt;Node9</title>
<path fill="none" stroke="#191970" d="M1233.0416,-515.4279C1234.9245,-493.4203 1236.6576,-438.4001 1212,-403 1201.8961,-388.4941 1185.6521,-377.9891 1170.3541,-370.7131"/>
<polygon fill="#191970" stroke="#191970" points="1171.5764,-367.4269 1161.0144,-366.5931 1168.7511,-373.8315 1171.5764,-367.4269"/>
</g>
<!-- Node31 -->
<g id="node31" class="node">
<title>Node31</title>
<g id="a_node31"><a xlink:href="sitkProcessObject_8h.html" target="_top" xlink:title=" ">
<polygon fill="#ffffff" stroke="#000000" points="967.5,-459.5 967.5,-478.5 1080.5,-478.5 1080.5,-459.5 967.5,-459.5"/>
<text text-anchor="middle" x="1024" y="-466.5" font-family="Helvetica,sans-Serif" font-size="10.00" fill="#000000">sitkProcessObject.h</text>
</a>
</g>
</g>
<!-- Node1&#45;&gt;Node31 -->
<g id="edge49" class="edge">
<title>Node1&#45;&gt;Node31</title>
<path fill="none" stroke="#191970" d="M1196.2435,-515.3733C1161.0574,-505.9001 1107.2119,-491.4032 1069.1044,-481.1435"/>
<polygon fill="#191970" stroke="#191970" points="1069.856,-477.7213 1059.2899,-478.5011 1068.0361,-484.4806 1069.856,-477.7213"/>
</g>
<!-- Node36 -->
<g id="node36" class="node">
<title>Node36</title>
<g id="a_node36"><a xlink:href="sitkIO_8h.html" target="_top" xlink:title=" ">
<polygon fill="#ffffff" stroke="#000000" points="1362.5,-459.5 1362.5,-478.5 1415.5,-478.5 1415.5,-459.5 1362.5,-459.5"/>
<text text-anchor="middle" x="1389" y="-466.5" font-family="Helvetica,sans-Serif" font-size="10.00" fill="#000000">sitkIO.h</text>
</a>
</g>
</g>
<!-- Node1&#45;&gt;Node36 -->
<g id="edge61" class="edge">
<title>Node1&#45;&gt;Node36</title>
<path fill="none" stroke="#191970" d="M1258.9893,-515.3733C1284.8699,-506.1419 1324.1248,-492.1402 1352.7289,-481.9375"/>
<polygon fill="#191970" stroke="#191970" points="1354.12,-485.1573 1362.3629,-478.5011 1351.7683,-478.5642 1354.12,-485.1573"/>
</g>
<!-- Node37 -->
<g id="node37" class="node">
<title>Node37</title>
<g id="a_node37"><a xlink:href="sitkMemberFunctionFactory_8h.html" target="_top" xlink:title=" ">
<polygon fill="#ffffff" stroke="#000000" points="490,-347.5 490,-366.5 648,-366.5 648,-347.5 490,-347.5"/>
<text text-anchor="middle" x="569" y="-354.5" font-family="Helvetica,sans-Serif" font-size="10.00" fill="#000000">sitkMemberFunctionFactory.h</text>
</a>
</g>
</g>
<!-- Node1&#45;&gt;Node37 -->
<g id="edge63" class="edge">
<title>Node1&#45;&gt;Node37</title>
<path fill="none" stroke="#191970" d="M1165.279,-520.6263C1059.2918,-511.9432 847.3382,-487.4441 680,-423 646.6815,-410.1686 611.862,-387.7612 590.3024,-372.657"/>
<polygon fill="#191970" stroke="#191970" points="592.092,-369.6345 581.9174,-366.6801 588.0289,-375.3346 592.092,-369.6345"/>
</g>
<!-- Node3 -->
<g id="node3" class="node">
<title>Node3</title>
<g id="a_node3"><a xlink:title=" ">
<polygon fill="#ffffff" stroke="#bfbfbf" points="688.5,-.5 688.5,-19.5 741.5,-19.5 741.5,-.5 688.5,-.5"/>
<text text-anchor="middle" x="715" y="-7.5" font-family="Helvetica,sans-Serif" font-size="10.00" fill="#000000">stdint.h</text>
</a>
</g>
</g>
<!-- Node2&#45;&gt;Node3 -->
<g id="edge2" class="edge">
<title>Node2&#45;&gt;Node3</title>
<path fill="none" stroke="#191970" d="M1026.4156,-60.1129C959.6605,-49.3707 818.8187,-26.7065 751.8601,-15.9315"/>
<polygon fill="#191970" stroke="#191970" points="752.1998,-12.4412 741.7707,-14.3079 751.0876,-19.3523 752.1998,-12.4412"/>
</g>
<!-- Node4 -->
<g id="node4" class="node">
<title>Node4</title>
<g id="a_node4"><a xlink:title=" ">
<polygon fill="#ffffff" stroke="#bfbfbf" points="961,-.5 961,-19.5 1017,-19.5 1017,-.5 961,-.5"/>
<text text-anchor="middle" x="989" y="-7.5" font-family="Helvetica,sans-Serif" font-size="10.00" fill="#000000">stddef.h</text>
</a>
</g>
</g>
<!-- Node2&#45;&gt;Node4 -->
<g id="edge3" class="edge">
<title>Node2&#45;&gt;Node4</title>
<path fill="none" stroke="#191970" d="M1050.1102,-56.2455C1039.0746,-47.8943 1022.9708,-35.7076 1010.0647,-25.9408"/>
<polygon fill="#191970" stroke="#191970" points="1011.8283,-22.8862 1001.7421,-19.6427 1007.6041,-28.4681 1011.8283,-22.8862"/>
</g>
<!-- Node5 -->
<g id="node5" class="node">
<title>Node5</title>
<g id="a_node5"><a xlink:title=" ">
<polygon fill="#ffffff" stroke="#bfbfbf" points="142,-.5 142,-19.5 194,-19.5 194,-.5 142,-.5"/>
<text text-anchor="middle" x="168" y="-7.5" font-family="Helvetica,sans-Serif" font-size="10.00" fill="#000000">cassert</text>
</a>
</g>
</g>
<!-- Node2&#45;&gt;Node5 -->
<g id="edge4" class="edge">
<title>Node2&#45;&gt;Node5</title>
<path fill="none" stroke="#191970" d="M1026.2464,-63.7003C881.0363,-54.6146 348.2012,-21.2752 204.1217,-12.2601"/>
<polygon fill="#191970" stroke="#191970" points="204.2466,-8.7612 194.0475,-11.6298 203.8094,-15.7475 204.2466,-8.7612"/>
</g>
<!-- Node6 -->
<g id="node6" class="node">
<title>Node6</title>
<g id="a_node6"><a xlink:title=" ">
<polygon fill="#ffffff" stroke="#bfbfbf" points="1035,-.5 1035,-19.5 1091,-19.5 1091,-.5 1035,-.5"/>
<text text-anchor="middle" x="1063" y="-7.5" font-family="Helvetica,sans-Serif" font-size="10.00" fill="#000000">sstream</text>
</a>
</g>
</g>
<!-- Node2&#45;&gt;Node6 -->
<g id="edge5" class="edge">
<title>Node2&#45;&gt;Node6</title>
<path fill="none" stroke="#191970" d="M1063,-56.2455C1063,-48.9382 1063,-38.6944 1063,-29.7046"/>
<polygon fill="#191970" stroke="#191970" points="1066.5001,-29.6426 1063,-19.6427 1059.5001,-29.6427 1066.5001,-29.6426"/>
</g>
<!-- Node7 -->
<g id="node7" class="node">
<title>Node7</title>
<g id="a_node7"><a xlink:title=" ">
<polygon fill="#ffffff" stroke="#bfbfbf" points="1109,-.5 1109,-19.5 1153,-19.5 1153,-.5 1109,-.5"/>
<text text-anchor="middle" x="1131" y="-7.5" font-family="Helvetica,sans-Serif" font-size="10.00" fill="#000000">limits</text>
</a>
</g>
</g>
<!-- Node2&#45;&gt;Node7 -->
<g id="edge6" class="edge">
<title>Node2&#45;&gt;Node7</title>
<path fill="none" stroke="#191970" d="M1074.8447,-56.2455C1084.888,-47.9746 1099.4995,-35.9416 1111.3004,-26.2232"/>
<polygon fill="#191970" stroke="#191970" points="1113.7967,-28.7015 1119.291,-19.6427 1109.3467,-23.298 1113.7967,-28.7015"/>
</g>
<!-- Node8 -->
<g id="node8" class="node">
<title>Node8</title>
<g id="a_node8"><a xlink:href="sitkConfigure_8h.html" target="_top" xlink:title=" ">
<polygon fill="#ffffff" stroke="#000000" points="362,-.5 362,-19.5 452,-19.5 452,-.5 362,-.5"/>
<text text-anchor="middle" x="407" y="-7.5" font-family="Helvetica,sans-Serif" font-size="10.00" fill="#000000">sitkConfigure.h</text>
</a>
</g>
</g>
<!-- Node2&#45;&gt;Node8 -->
<g id="edge7" class="edge">
<title>Node2&#45;&gt;Node8</title>
<path fill="none" stroke="#191970" d="M1026.3249,-62.8692C917.0378,-53.5398 593.0847,-25.8853 462.4923,-14.7371"/>
<polygon fill="#191970" stroke="#191970" points="462.5775,-11.2318 452.316,-13.8684 461.982,-18.2064 462.5775,-11.2318"/>
</g>
<!-- Node10 -->
<g id="node10" class="node">
<title>Node10</title>
<g id="a_node10"><a xlink:href="sitkCommon_8h.html" target="_top" xlink:title=" ">
<polygon fill="#ffffff" stroke="#000000" points="1019,-112.5 1019,-131.5 1107,-131.5 1107,-112.5 1019,-112.5"/>
<text text-anchor="middle" x="1063" y="-119.5" font-family="Helvetica,sans-Serif" font-size="10.00" fill="#000000">sitkCommon.h</text>
</a>
</g>
</g>
<!-- Node9&#45;&gt;Node10 -->
<g id="edge9" class="edge">
<title>Node9&#45;&gt;Node10</title>
<path fill="none" stroke="#191970" d="M1128.3858,-347.2987C1122.4428,-325.3127 1107.3939,-270.025 1094,-224 1085.5832,-195.0779 1075.3391,-161.7046 1068.9928,-141.2292"/>
<polygon fill="#191970" stroke="#191970" points="1072.2918,-140.051 1065.982,-131.54 1065.6071,-142.1282 1072.2918,-140.051"/>
</g>
<!-- Node11 -->
<g id="node11" class="node">
<title>Node11</title>
<g id="a_node11"><a xlink:href="sitkTemplateFunctions_8h.html" target="_top" xlink:title=" ">
<polygon fill="#ffffff" stroke="#000000" points="1191,-230 1191,-249 1325,-249 1325,-230 1191,-230"/>
<text text-anchor="middle" x="1258" y="-237" font-family="Helvetica,sans-Serif" font-size="10.00" fill="#000000">sitkTemplateFunctions.h</text>
</a>
</g>
</g>
<!-- Node9&#45;&gt;Node11 -->
<g id="edge11" class="edge">
<title>Node9&#45;&gt;Node11</title>
<path fill="none" stroke="#191970" d="M1134.9506,-347.4886C1141.0467,-333.7022 1153.8583,-307.9647 1171,-291 1186.7893,-275.3738 1208.2308,-262.6109 1225.8767,-253.6994"/>
<polygon fill="#191970" stroke="#191970" points="1227.7671,-256.672 1235.2294,-249.1511 1224.7057,-250.3769 1227.7671,-256.672"/>
</g>
<!-- Node13 -->
<g id="node13" class="node">
<title>Node13</title>
<g id="a_node13"><a xlink:title=" ">
<polygon fill="#ffffff" stroke="#bfbfbf" points="1418.5,-168.5 1418.5,-187.5 1465.5,-187.5 1465.5,-168.5 1418.5,-168.5"/>
<text text-anchor="middle" x="1442" y="-175.5" font-family="Helvetica,sans-Serif" font-size="10.00" fill="#000000">vector</text>
</a>
</g>
</g>
<!-- Node9&#45;&gt;Node13 -->
<g id="edge46" class="edge">
<title>Node9&#45;&gt;Node13</title>
<path fill="none" stroke="#191970" d="M1159.8076,-347.3424C1183.7035,-338.9173 1218.2894,-325.7551 1247,-311 1315.2534,-275.923 1387.996,-220.9956 1422.1376,-194.0289"/>
<polygon fill="#191970" stroke="#191970" points="1424.6909,-196.4699 1430.3349,-187.5035 1420.3313,-190.9933 1424.6909,-196.4699"/>
</g>
<!-- Node16 -->
<g id="node16" class="node">
<title>Node16</title>
<g id="a_node16"><a xlink:href="sitkDetail_8h.html" target="_top" xlink:title=" ">
<polygon fill="#ffffff" stroke="#000000" points="581.5,-291.5 581.5,-310.5 654.5,-310.5 654.5,-291.5 581.5,-291.5"/>
<text text-anchor="middle" x="618" y="-298.5" font-family="Helvetica,sans-Serif" font-size="10.00" fill="#000000">sitkDetail.h</text>
</a>
</g>
</g>
<!-- Node9&#45;&gt;Node16 -->
<g id="edge20" class="edge">
<title>Node9&#45;&gt;Node16</title>
<path fill="none" stroke="#191970" d="M1093.6931,-352.9275C1002.0578,-342.9244 766.0561,-317.1621 665.0288,-306.1337"/>
<polygon fill="#191970" stroke="#191970" points="665.1433,-302.6255 654.8225,-305.0196 664.3836,-309.5842 665.1433,-302.6255"/>
</g>
<!-- Node26 -->
<g id="node26" class="node">
<title>Node26</title>
<g id="a_node26"><a xlink:href="sitkPixelIDTokens_8h.html" target="_top" xlink:title=" ">
<polygon fill="#ffffff" stroke="#000000" points="760,-291.5 760,-310.5 872,-310.5 872,-291.5 760,-291.5"/>
<text text-anchor="middle" x="816" y="-298.5" font-family="Helvetica,sans-Serif" font-size="10.00" fill="#000000">sitkPixelIDTokens.h</text>
</a>
</g>
</g>
<!-- Node9&#45;&gt;Node26 -->
<g id="edge38" class="edge">
<title>Node9&#45;&gt;Node26</title>
<path fill="none" stroke="#191970" d="M1093.9392,-350.4114C1041.2206,-341.0392 943.8467,-323.7283 879.4937,-312.2878"/>
<polygon fill="#191970" stroke="#191970" points="879.9192,-308.8086 869.4609,-310.5042 878.6939,-315.7005 879.9192,-308.8086"/>
</g>
<!-- Node29 -->
<g id="node29" class="node">
<title>Node29</title>
<g id="a_node29"><a xlink:title=" ">
<polygon fill="#ffffff" stroke="#bfbfbf" points="888.5,-230 888.5,-249 957.5,-249 957.5,-230 888.5,-230"/>
<text text-anchor="middle" x="923" y="-237" font-family="Helvetica,sans-Serif" font-size="10.00" fill="#000000">type_traits</text>
</a>
</g>
</g>
<!-- Node9&#45;&gt;Node29 -->
<g id="edge48" class="edge">
<title>Node9&#45;&gt;Node29</title>
<path fill="none" stroke="#191970" d="M1113.9785,-347.3845C1077.5506,-326.8062 991.8525,-278.3951 948.7328,-254.0365"/>
<polygon fill="#191970" stroke="#191970" points="950.3933,-250.9548 939.965,-249.0836 946.9503,-257.0495 950.3933,-250.9548"/>
</g>
<!-- Node30 -->
<g id="node30" class="node">
<title>Node30</title>
<g id="a_node30"><a xlink:title=" ">
<polygon fill="#ffffff" stroke="#bfbfbf" points="1180,-291.5 1180,-310.5 1238,-310.5 1238,-291.5 1180,-291.5"/>
<text text-anchor="middle" x="1209" y="-298.5" font-family="Helvetica,sans-Serif" font-size="10.00" fill="#000000">memory</text>
</a>
</g>
</g>
<!-- Node9&#45;&gt;Node30 -->
<g id="edge47" class="edge">
<title>Node9&#45;&gt;Node30</title>
<path fill="none" stroke="#191970" d="M1144.5866,-347.2455C1156.3305,-338.814 1173.5199,-326.4729 1187.1882,-316.6598"/>
<polygon fill="#191970" stroke="#191970" points="1189.4871,-319.3179 1195.5691,-310.6427 1185.4046,-313.6316 1189.4871,-319.3179"/>
</g>
<!-- Node10&#45;&gt;Node2 -->
<g id="edge10" class="edge">
<title>Node10&#45;&gt;Node2</title>
<path fill="none" stroke="#191970" d="M1063,-112.2455C1063,-104.9382 1063,-94.6944 1063,-85.7046"/>
<polygon fill="#191970" stroke="#191970" points="1066.5001,-85.6426 1063,-75.6427 1059.5001,-85.6427 1066.5001,-85.6426"/>
</g>
<!-- Node11&#45;&gt;Node2 -->
<g id="edge12" class="edge">
<title>Node11&#45;&gt;Node2</title>
<path fill="none" stroke="#191970" d="M1301.0568,-229.9176C1341.2075,-218.8888 1391.8664,-198.3067 1370,-168 1339.0615,-125.1193 1187.5467,-90.1362 1109.5687,-74.6315"/>
<polygon fill="#191970" stroke="#191970" points="1110.0145,-71.1523 1099.5278,-72.662 1108.6671,-78.0214 1110.0145,-71.1523"/>
</g>
<!-- Node11&#45;&gt;Node10 -->
<g id="edge13" class="edge">
<title>Node11&#45;&gt;Node10</title>
<path fill="none" stroke="#191970" d="M1237.6559,-229.9978C1217.1452,-220.1931 1184.777,-204.1012 1158,-188 1131.5531,-172.0973 1102.6272,-151.506 1083.7272,-137.5845"/>
<polygon fill="#191970" stroke="#191970" points="1085.6676,-134.6661 1075.5516,-131.5172 1081.496,-140.2872 1085.6676,-134.6661"/>
</g>
<!-- Node12 -->
<g id="node12" class="node">
<title>Node12</title>
<g id="a_node12"><a xlink:href="sitkExceptionObject_8h.html" target="_top" xlink:title=" ">
<polygon fill="#ffffff" stroke="#000000" points="1167.5,-168.5 1167.5,-187.5 1290.5,-187.5 1290.5,-168.5 1167.5,-168.5"/>
<text text-anchor="middle" x="1229" y="-175.5" font-family="Helvetica,sans-Serif" font-size="10.00" fill="#000000">sitkExceptionObject.h</text>
</a>
</g>
</g>
<!-- Node11&#45;&gt;Node12 -->
<g id="edge14" class="edge">
<title>Node11&#45;&gt;Node12</title>
<path fill="none" stroke="#191970" d="M1253.4688,-229.8906C1249.3219,-221.0965 1243.0668,-207.8312 1237.919,-196.9145"/>
<polygon fill="#191970" stroke="#191970" points="1241.0259,-195.2969 1233.5951,-187.7449 1234.6945,-198.2825 1241.0259,-195.2969"/>
</g>
<!-- Node11&#45;&gt;Node13 -->
<g id="edge17" class="edge">
<title>Node11&#45;&gt;Node13</title>
<path fill="none" stroke="#191970" d="M1286.75,-229.8906C1319.7756,-218.8522 1373.8774,-200.7693 1408.7044,-189.1287"/>
<polygon fill="#191970" stroke="#191970" points="1410.041,-192.3724 1418.4157,-185.8828 1407.8219,-185.7334 1410.041,-192.3724"/>
</g>
<!-- Node14 -->
<g id="node14" class="node">
<title>Node14</title>
<g id="a_node14"><a xlink:title=" ">
<polygon fill="#ffffff" stroke="#bfbfbf" points="977.5,-168.5 977.5,-187.5 1034.5,-187.5 1034.5,-168.5 977.5,-168.5"/>
<text text-anchor="middle" x="1006" y="-175.5" font-family="Helvetica,sans-Serif" font-size="10.00" fill="#000000">ostream</text>
</a>
</g>
</g>
<!-- Node11&#45;&gt;Node14 -->
<g id="edge18" class="edge">
<title>Node11&#45;&gt;Node14</title>
<path fill="none" stroke="#191970" d="M1218.9015,-229.9581C1171.3758,-218.3596 1091.6894,-198.9123 1044.4558,-187.3851"/>
<polygon fill="#191970" stroke="#191970" points="1045.1529,-183.9525 1034.6082,-184.9818 1043.4933,-190.7529 1045.1529,-183.9525"/>
</g>
<!-- Node15 -->
<g id="node15" class="node">
<title>Node15</title>
<g id="a_node15"><a xlink:title=" ">
<polygon fill="#ffffff" stroke="#bfbfbf" points="1308.5,-168.5 1308.5,-187.5 1361.5,-187.5 1361.5,-168.5 1308.5,-168.5"/>
<text text-anchor="middle" x="1335" y="-175.5" font-family="Helvetica,sans-Serif" font-size="10.00" fill="#000000">iterator</text>
</a>
</g>
</g>
<!-- Node11&#45;&gt;Node15 -->
<g id="edge19" class="edge">
<title>Node11&#45;&gt;Node15</title>
<path fill="none" stroke="#191970" d="M1270.0313,-229.8906C1282.0107,-220.3227 1300.6166,-205.4621 1314.8525,-194.0919"/>
<polygon fill="#191970" stroke="#191970" points="1317.4239,-196.5175 1323.0532,-187.5419 1313.0553,-191.0479 1317.4239,-196.5175"/>
</g>
<!-- Node12&#45;&gt;Node2 -->
<g id="edge15" class="edge">
<title>Node12&#45;&gt;Node2</title>
<path fill="none" stroke="#191970" d="M1214.8469,-168.4509C1186.0575,-149.0268 1120.4632,-104.7703 1085.6612,-81.2895"/>
<polygon fill="#191970" stroke="#191970" points="1087.3645,-78.2166 1077.1172,-75.5249 1083.4493,-84.0193 1087.3645,-78.2166"/>
</g>
<!-- Node12&#45;&gt;Node10 -->
<g id="edge16" class="edge">
<title>Node12&#45;&gt;Node10</title>
<path fill="none" stroke="#191970" d="M1200.4636,-168.3733C1172.9798,-159.1016 1131.2314,-145.0178 1100.9548,-134.804"/>
<polygon fill="#191970" stroke="#191970" points="1101.7582,-131.3813 1091.164,-131.5011 1099.5206,-138.0141 1101.7582,-131.3813"/>
</g>
<!-- Node17 -->
<g id="node17" class="node">
<title>Node17</title>
<g id="a_node17"><a xlink:href="sitkMemberFunctionFactoryBase_8h.html" target="_top" xlink:title=" ">
<polygon fill="#ffffff" stroke="#000000" points="290,-224.5 290,-254.5 440,-254.5 440,-224.5 290,-224.5"/>
<text text-anchor="start" x="298" y="-242.5" font-family="Helvetica,sans-Serif" font-size="10.00" fill="#000000">sitkMemberFunctionFactory</text>
<text text-anchor="middle" x="365" y="-231.5" font-family="Helvetica,sans-Serif" font-size="10.00" fill="#000000">Base.h</text>
</a>
</g>
</g>
<!-- Node16&#45;&gt;Node17 -->
<g id="edge21" class="edge">
<title>Node16&#45;&gt;Node17</title>
<path fill="none" stroke="#191970" d="M581.4818,-292.1231C543.794,-282.9618 484.013,-268.43 436.812,-256.9563"/>
<polygon fill="#191970" stroke="#191970" points="437.487,-253.5185 426.9433,-254.5574 435.8336,-260.3204 437.487,-253.5185"/>
</g>
<!-- Node23 -->
<g id="node23" class="node">
<title>Node23</title>
<g id="a_node23"><a xlink:title=" ">
<polygon fill="#ffffff" stroke="#bfbfbf" points="517,-168.5 517,-187.5 655,-187.5 655,-168.5 517,-168.5"/>
<text text-anchor="middle" x="586" y="-175.5" font-family="Helvetica,sans-Serif" font-size="10.00" fill="#000000">Ancillary/FunctionTraits.h</text>
</a>
</g>
</g>
<!-- Node16&#45;&gt;Node23 -->
<g id="edge37" class="edge">
<title>Node16&#45;&gt;Node23</title>
<path fill="none" stroke="#191970" d="M615.489,-291.3484C610.2315,-271.1397 597.9786,-224.0427 591.0349,-197.3528"/>
<polygon fill="#191970" stroke="#191970" points="594.4045,-196.4034 588.4993,-187.6068 587.63,-198.1659 594.4045,-196.4034"/>
</g>
<!-- Node17&#45;&gt;Node2 -->
<g id="edge30" class="edge">
<title>Node17&#45;&gt;Node2</title>
<path fill="none" stroke="#191970" d="M396.0016,-224.2899C416.7083,-214.0959 444.5305,-200.332 469,-188 486.3954,-179.2332 489.5576,-174.2718 508,-168 690.1132,-106.0683 919.3532,-79.1352 1016.3014,-69.9459"/>
<polygon fill="#191970" stroke="#191970" points="1016.73,-73.4213 1026.3634,-69.0112 1016.0825,-66.4513 1016.73,-73.4213"/>
</g>
<!-- Node17&#45;&gt;Node8 -->
<g id="edge22" class="edge">
<title>Node17&#45;&gt;Node8</title>
<path fill="none" stroke="#191970" d="M289.8776,-232.0053C203.596,-222.6249 71.9324,-205.6365 57,-188 51.2562,-181.2161 53.327,-176.0945 57,-168 107.7608,-56.135 266.7714,-23.4493 351.9058,-13.9149"/>
<polygon fill="#191970" stroke="#191970" points="352.3303,-17.3896 361.9096,-12.8631 351.5984,-10.428 352.3303,-17.3896"/>
</g>
<!-- Node18 -->
<g id="node18" class="node">
<title>Node18</title>
<g id="a_node18"><a xlink:href="sitkPixelIDTypes_8h.html" target="_top" xlink:title=" ">
<polygon fill="#ffffff" stroke="#000000" points="260,-112.5 260,-131.5 366,-131.5 366,-112.5 260,-112.5"/>
<text text-anchor="middle" x="313" y="-119.5" font-family="Helvetica,sans-Serif" font-size="10.00" fill="#000000">sitkPixelIDTypes.h</text>
</a>
</g>
</g>
<!-- Node17&#45;&gt;Node18 -->
<g id="edge23" class="edge">
<title>Node17&#45;&gt;Node18</title>
<path fill="none" stroke="#191970" d="M351.5679,-224.2827C343.6192,-214.5282 333.9686,-201.25 328,-188 321.3641,-173.2686 317.5293,-155.3219 315.401,-141.8636"/>
<polygon fill="#191970" stroke="#191970" points="318.8426,-141.2018 313.9905,-131.7834 311.9101,-142.1719 318.8426,-141.2018"/>
</g>
<!-- Node19 -->
<g id="node19" class="node">
<title>Node19</title>
<g id="a_node19"><a xlink:href="sitkPixelIDTypeLists_8h.html" target="_top" xlink:title=" ">
<polygon fill="#ffffff" stroke="#000000" points="337.5,-168.5 337.5,-187.5 460.5,-187.5 460.5,-168.5 337.5,-168.5"/>
<text text-anchor="middle" x="399" y="-175.5" font-family="Helvetica,sans-Serif" font-size="10.00" fill="#000000">sitkPixelIDTypeLists.h</text>
</a>
</g>
</g>
<!-- Node17&#45;&gt;Node19 -->
<g id="edge24" class="edge">
<title>Node17&#45;&gt;Node19</title>
<path fill="none" stroke="#191970" d="M373.4045,-224.2977C378.0257,-215.9388 383.7969,-205.4997 388.6889,-196.6509"/>
<polygon fill="#191970" stroke="#191970" points="391.7809,-198.292 393.5562,-187.8469 385.6548,-194.9051 391.7809,-198.292"/>
</g>
<!-- Node20 -->
<g id="node20" class="node">
<title>Node20</title>
<g id="a_node20"><a xlink:title=" ">
<polygon fill="#ffffff" stroke="#bfbfbf" points="130.5,-112.5 130.5,-131.5 241.5,-131.5 241.5,-112.5 130.5,-112.5"/>
<text text-anchor="middle" x="186" y="-119.5" font-family="Helvetica,sans-Serif" font-size="10.00" fill="#000000">Ancillary/TypeList.h</text>
</a>
</g>
</g>
<!-- Node17&#45;&gt;Node20 -->
<g id="edge33" class="edge">
<title>Node17&#45;&gt;Node20</title>
<path fill="none" stroke="#191970" d="M341.9653,-224.3795C307.6408,-201.848 243.4363,-159.7026 209.0834,-137.1525"/>
<polygon fill="#191970" stroke="#191970" points="210.9122,-134.1663 200.6317,-131.6046 207.0709,-140.0182 210.9122,-134.1663"/>
</g>
<!-- Node22 -->
<g id="node22" class="node">
<title>Node22</title>
<g id="a_node22"><a xlink:href="sitkNonCopyable_8h.html" target="_top" xlink:title=" ">
<polygon fill="#ffffff" stroke="#000000" points="673.5,-168.5 673.5,-187.5 782.5,-187.5 782.5,-168.5 673.5,-168.5"/>
<text text-anchor="middle" x="728" y="-175.5" font-family="Helvetica,sans-Serif" font-size="10.00" fill="#000000">sitkNonCopyable.h</text>
</a>
</g>
</g>
<!-- Node17&#45;&gt;Node22 -->
<g id="edge31" class="edge">
<title>Node17&#45;&gt;Node22</title>
<path fill="none" stroke="#191970" d="M440.2138,-226.7572C506.0149,-215.609 600.593,-199.5855 663.1281,-188.9907"/>
<polygon fill="#191970" stroke="#191970" points="663.9889,-192.3948 673.2637,-187.2735 662.8196,-185.4932 663.9889,-192.3948"/>
</g>
<!-- Node17&#45;&gt;Node23 -->
<g id="edge34" class="edge">
<title>Node17&#45;&gt;Node23</title>
<path fill="none" stroke="#191970" d="M419.0627,-224.4554C456.7458,-213.9689 506.3988,-200.1515 541.733,-190.3187"/>
<polygon fill="#191970" stroke="#191970" points="543.0573,-193.5832 551.7528,-187.5303 541.1806,-186.8394 543.0573,-193.5832"/>
</g>
<!-- Node24 -->
<g id="node24" class="node">
<title>Node24</title>
<g id="a_node24"><a xlink:title=" ">
<polygon fill="#ffffff" stroke="#bfbfbf" points="66.5,-168.5 66.5,-187.5 159.5,-187.5 159.5,-168.5 66.5,-168.5"/>
<text text-anchor="middle" x="113" y="-175.5" font-family="Helvetica,sans-Serif" font-size="10.00" fill="#000000">unordered_map</text>
</a>
</g>
</g>
<!-- Node17&#45;&gt;Node24 -->
<g id="edge35" class="edge">
<title>Node17&#45;&gt;Node24</title>
<path fill="none" stroke="#191970" d="M303.3539,-224.4554C259.8317,-213.8339 202.3067,-199.7951 161.9283,-189.9408"/>
<polygon fill="#191970" stroke="#191970" points="162.5958,-186.5011 152.0511,-187.5303 160.9361,-193.3015 162.5958,-186.5011"/>
</g>
<!-- Node25 -->
<g id="node25" class="node">
<title>Node25</title>
<g id="a_node25"><a xlink:title=" ">
<polygon fill="#ffffff" stroke="#bfbfbf" points="177.5,-168.5 177.5,-187.5 242.5,-187.5 242.5,-168.5 177.5,-168.5"/>
<text text-anchor="middle" x="210" y="-175.5" font-family="Helvetica,sans-Serif" font-size="10.00" fill="#000000">functional</text>
</a>
</g>
</g>
<!-- Node17&#45;&gt;Node25 -->
<g id="edge36" class="edge">
<title>Node17&#45;&gt;Node25</title>
<path fill="none" stroke="#191970" d="M327.0827,-224.4554C301.5609,-214.329 268.2104,-201.0964 243.6344,-191.3453"/>
<polygon fill="#191970" stroke="#191970" points="244.6054,-187.9651 234.0195,-187.5303 242.0237,-194.4717 244.6054,-187.9651"/>
</g>
<!-- Node19&#45;&gt;Node3 -->
<g id="edge25" class="edge">
<title>Node19&#45;&gt;Node3</title>
<path fill="none" stroke="#191970" d="M418.2556,-168.4677C436.7312,-159.2742 465.3794,-144.8943 490,-132 562.4902,-94.0354 647.1194,-47.5592 688.9113,-24.4628"/>
<polygon fill="#191970" stroke="#191970" points="690.8154,-27.4093 697.8717,-19.5062 687.4271,-21.284 690.8154,-27.4093"/>
</g>
<!-- Node19&#45;&gt;Node8 -->
<g id="edge26" class="edge">
<title>Node19&#45;&gt;Node8</title>
<path fill="none" stroke="#191970" d="M399.453,-168.4862C400.7177,-141.9293 404.3064,-66.5651 406.0397,-30.1655"/>
<polygon fill="#191970" stroke="#191970" points="409.5523,-29.9831 406.532,-19.8279 402.5602,-29.6501 409.5523,-29.9831"/>
</g>
<!-- Node19&#45;&gt;Node18 -->
<g id="edge27" class="edge">
<title>Node19&#45;&gt;Node18</title>
<path fill="none" stroke="#191970" d="M384.0199,-168.2455C370.8249,-159.6534 351.3949,-147.0014 336.1921,-137.1018"/>
<polygon fill="#191970" stroke="#191970" points="338.0983,-134.1665 327.8084,-131.6427 334.2785,-140.0325 338.0983,-134.1665"/>
</g>
<!-- Node19&#45;&gt;Node20 -->
<g id="edge28" class="edge">
<title>Node19&#45;&gt;Node20</title>
<path fill="none" stroke="#191970" d="M362.384,-168.3733C326.352,-158.9001 271.2122,-144.4032 232.1886,-134.1435"/>
<polygon fill="#191970" stroke="#191970" points="232.6995,-130.6589 222.1382,-131.5011 230.9196,-137.4289 232.6995,-130.6589"/>
</g>
<!-- Node21 -->
<g id="node21" class="node">
<title>Node21</title>
<g id="a_node21"><a xlink:title=" ">
<polygon fill="#ffffff" stroke="#bfbfbf" points="422.5,-112.5 422.5,-131.5 481.5,-131.5 481.5,-112.5 422.5,-112.5"/>
<text text-anchor="middle" x="452" y="-119.5" font-family="Helvetica,sans-Serif" font-size="10.00" fill="#000000">complex</text>
</a>
</g>
</g>
<!-- Node19&#45;&gt;Node21 -->
<g id="edge29" class="edge">
<title>Node19&#45;&gt;Node21</title>
<path fill="none" stroke="#191970" d="M408.2319,-168.2455C415.8317,-160.2155 426.7877,-148.6394 435.8368,-139.0781"/>
<polygon fill="#191970" stroke="#191970" points="438.5421,-141.3115 442.8739,-131.6427 433.458,-136.4998 438.5421,-141.3115"/>
</g>
<!-- Node22&#45;&gt;Node10 -->
<g id="edge32" class="edge">
<title>Node22&#45;&gt;Node10</title>
<path fill="none" stroke="#191970" d="M782.5691,-168.878C845.004,-158.4411 946.6229,-141.4541 1008.8724,-131.0482"/>
<polygon fill="#191970" stroke="#191970" points="1009.603,-134.4747 1018.8891,-129.3738 1008.4488,-127.5705 1009.603,-134.4747"/>
</g>
<!-- Node26&#45;&gt;Node8 -->
<g id="edge39" class="edge">
<title>Node26&#45;&gt;Node8</title>
<path fill="none" stroke="#191970" d="M792.8888,-291.4901C777.9702,-283.9878 759.7669,-271.9445 751,-255 744.6687,-242.7631 745.3947,-236.586 751,-224 760.7306,-202.1513 781.2694,-209.8487 791,-188 794.6163,-179.88 795.9471,-175.385 791,-168 716.8046,-57.2412 549.422,-24.0527 462.2014,-14.1616"/>
<polygon fill="#191970" stroke="#191970" points="462.545,-10.6785 452.229,-13.0929 461.7991,-17.6386 462.545,-10.6785"/>
</g>
<!-- Node27 -->
<g id="node27" class="node">
<title>Node27</title>
<g id="a_node27"><a xlink:href="sitkPixelIDValues_8h.html" target="_top" xlink:title=" ">
<polygon fill="#ffffff" stroke="#000000" points="760,-230 760,-249 870,-249 870,-230 760,-230"/>
<text text-anchor="middle" x="815" y="-237" font-family="Helvetica,sans-Serif" font-size="10.00" fill="#000000">sitkPixelIDValues.h</text>
</a>
</g>
</g>
<!-- Node26&#45;&gt;Node27 -->
<g id="edge40" class="edge">
<title>Node26&#45;&gt;Node27</title>
<path fill="none" stroke="#191970" d="M815.8438,-291.3906C815.7051,-282.8657 815.4982,-270.1392 815.324,-259.4235"/>
<polygon fill="#191970" stroke="#191970" points="818.8207,-259.1866 815.1585,-249.2449 811.8216,-259.3005 818.8207,-259.1866"/>
</g>
<!-- Node26&#45;&gt;Node29 -->
<g id="edge45" class="edge">
<title>Node26&#45;&gt;Node29</title>
<path fill="none" stroke="#191970" d="M832.7188,-291.3906C850.0722,-281.4165 877.4323,-265.6908 897.4882,-254.1633"/>
<polygon fill="#191970" stroke="#191970" points="899.4728,-257.0596 906.3987,-249.0419 895.9846,-250.9907 899.4728,-257.0596"/>
</g>
<!-- Node27&#45;&gt;Node10 -->
<g id="edge41" class="edge">
<title>Node27&#45;&gt;Node10</title>
<path fill="none" stroke="#191970" d="M828.9187,-229.9967C850.7931,-215.3441 894.8698,-186.9502 935,-168 963.0871,-154.7368 996.1045,-142.9588 1021.5702,-134.6414"/>
<polygon fill="#191970" stroke="#191970" points="1022.8353,-137.9111 1031.283,-131.5167 1020.6916,-131.2475 1022.8353,-137.9111"/>
</g>
<!-- Node27&#45;&gt;Node14 -->
<g id="edge44" class="edge">
<title>Node27&#45;&gt;Node14</title>
<path fill="none" stroke="#191970" d="M844.8438,-229.8906C877.9303,-219.2371 931.3954,-202.0219 967.5843,-190.3694"/>
<polygon fill="#191970" stroke="#191970" points="968.8561,-193.637 977.302,-187.2404 966.7106,-186.9739 968.8561,-193.637"/>
</g>
<!-- Node27&#45;&gt;Node19 -->
<g id="edge42" class="edge">
<title>Node27&#45;&gt;Node19</title>
<path fill="none" stroke="#191970" d="M759.7584,-231.3333C685.2879,-220.3238 552.5932,-200.7067 470.5614,-188.5794"/>
<polygon fill="#191970" stroke="#191970" points="470.9737,-185.1024 460.5693,-187.1022 469.9499,-192.0271 470.9737,-185.1024"/>
</g>
<!-- Node28 -->
<g id="node28" class="node">
<title>Node28</title>
<g id="a_node28"><a xlink:title=" ">
<polygon fill="#ffffff" stroke="#bfbfbf" points="839,-168.5 839,-187.5 883,-187.5 883,-168.5 839,-168.5"/>
<text text-anchor="middle" x="861" y="-175.5" font-family="Helvetica,sans-Serif" font-size="10.00" fill="#000000">string</text>
</a>
</g>
</g>
<!-- Node27&#45;&gt;Node28 -->
<g id="edge43" class="edge">
<title>Node27&#45;&gt;Node28</title>
<path fill="none" stroke="#191970" d="M822.1875,-229.8906C828.9666,-220.8273 839.2978,-207.0149 847.5973,-195.9188"/>
<polygon fill="#191970" stroke="#191970" points="850.5243,-197.849 853.7112,-187.7449 844.9188,-193.6563 850.5243,-197.849"/>
</g>
<!-- Node31&#45;&gt;Node9 -->
<g id="edge56" class="edge">
<title>Node31&#45;&gt;Node9</title>
<path fill="none" stroke="#191970" d="M1031.7875,-459.2984C1042.4687,-446.1549 1062.4562,-422.1354 1081,-403 1090.9042,-392.7798 1102.5792,-381.9752 1112.1558,-373.4073"/>
<polygon fill="#191970" stroke="#191970" points="1114.7644,-375.7726 1119.9341,-366.5246 1110.1257,-370.5302 1114.7644,-375.7726"/>
</g>
<!-- Node31&#45;&gt;Node10 -->
<g id="edge50" class="edge">
<title>Node31&#45;&gt;Node10</title>
<path fill="none" stroke="#191970" d="M1018.393,-459.4834C1007.8226,-440.6141 986,-396.8343 986,-357 986,-357 986,-357 986,-301 986,-271.175 952.1591,-193.2705 968,-168 977.6819,-152.5548 994.1838,-142.1672 1010.7437,-135.2389"/>
<polygon fill="#191970" stroke="#191970" points="1012.3471,-138.3737 1020.4495,-131.5472 1009.8585,-131.831 1012.3471,-138.3737"/>
</g>
<!-- Node31&#45;&gt;Node11 -->
<g id="edge52" class="edge">
<title>Node31&#45;&gt;Node11</title>
<path fill="none" stroke="#191970" d="M1080.7703,-461.3463C1128.9367,-453.7596 1193.1384,-440.7107 1212,-423 1258.217,-379.6031 1260.8899,-297.3207 1259.4085,-259.468"/>
<polygon fill="#191970" stroke="#191970" points="1262.8905,-259.037 1258.859,-249.2392 1255.9006,-259.4126 1262.8905,-259.037"/>
</g>
<!-- Node31&#45;&gt;Node22 -->
<g id="edge51" class="edge">
<title>Node31&#45;&gt;Node22</title>
<path fill="none" stroke="#191970" d="M967.271,-461.6396C872.9191,-447.7946 694,-414.0226 694,-357 694,-357 694,-357 694,-301 694,-262.9808 709.2778,-220.663 719.351,-196.8934"/>
<polygon fill="#191970" stroke="#191970" points="722.601,-198.1971 723.4146,-187.6336 716.1911,-195.3841 722.601,-198.1971"/>
</g>
<!-- Node32 -->
<g id="node32" class="node">
<title>Node32</title>
<g id="a_node32"><a xlink:href="sitkEvent_8h.html" target="_top" xlink:title=" ">
<polygon fill="#ffffff" stroke="#000000" points="1014.5,-230 1014.5,-249 1085.5,-249 1085.5,-230 1014.5,-230"/>
<text text-anchor="middle" x="1050" y="-237" font-family="Helvetica,sans-Serif" font-size="10.00" fill="#000000">sitkEvent.h</text>
</a>
</g>
</g>
<!-- Node31&#45;&gt;Node32 -->
<g id="edge53" class="edge">
<title>Node31&#45;&gt;Node32</title>
<path fill="none" stroke="#191970" d="M1025.0841,-459.4309C1028.9907,-424.9475 1042.3988,-306.5953 1047.7593,-259.2785"/>
<polygon fill="#191970" stroke="#191970" points="1051.2633,-259.4405 1048.9113,-249.11 1044.3077,-258.6524 1051.2633,-259.4405"/>
</g>
<!-- Node33 -->
<g id="node33" class="node">
<title>Node33</title>
<g id="a_node33"><a xlink:href="sitkImageConvert_8h.html" target="_top" xlink:title=" ">
<polygon fill="#ffffff" stroke="#000000" points="1090.5,-403.5 1090.5,-422.5 1203.5,-422.5 1203.5,-403.5 1090.5,-403.5"/>
<text text-anchor="middle" x="1147" y="-410.5" font-family="Helvetica,sans-Serif" font-size="10.00" fill="#000000">sitkImageConvert.h</text>
</a>
</g>
</g>
<!-- Node31&#45;&gt;Node33 -->
<g id="edge57" class="edge">
<title>Node31&#45;&gt;Node33</title>
<path fill="none" stroke="#191970" d="M1045.1445,-459.3733C1064.8892,-450.3838 1094.5698,-436.8706 1116.8055,-426.7471"/>
<polygon fill="#191970" stroke="#191970" points="1118.4806,-429.8302 1126.1315,-422.5011 1115.58,-423.4594 1118.4806,-429.8302"/>
</g>
<!-- Node34 -->
<g id="node34" class="node">
<title>Node34</title>
<g id="a_node34"><a xlink:title=" ">
<polygon fill="#ffffff" stroke="#bfbfbf" points="848,-403.5 848,-422.5 908,-422.5 908,-403.5 848,-403.5"/>
<text text-anchor="middle" x="878" y="-410.5" font-family="Helvetica,sans-Serif" font-size="10.00" fill="#000000">iostream</text>
</a>
</g>
</g>
<!-- Node31&#45;&gt;Node34 -->
<g id="edge59" class="edge">
<title>Node31&#45;&gt;Node34</title>
<path fill="none" stroke="#191970" d="M998.9017,-459.3733C975.0445,-450.2226 938.9665,-436.3844 912.429,-426.2057"/>
<polygon fill="#191970" stroke="#191970" points="913.361,-422.8145 902.7708,-422.5011 910.8541,-429.3503 913.361,-422.8145"/>
</g>
<!-- Node35 -->
<g id="node35" class="node">
<title>Node35</title>
<g id="a_node35"><a xlink:title=" ">
<polygon fill="#ffffff" stroke="#bfbfbf" points="926,-403.5 926,-422.5 958,-422.5 958,-403.5 926,-403.5"/>
<text text-anchor="middle" x="942" y="-410.5" font-family="Helvetica,sans-Serif" font-size="10.00" fill="#000000">list</text>
</a>
</g>
</g>
<!-- Node31&#45;&gt;Node35 -->
<g id="edge60" class="edge">
<title>Node31&#45;&gt;Node35</title>
<path fill="none" stroke="#191970" d="M1009.7167,-459.2455C997.253,-450.7337 978.9549,-438.2375 964.5208,-428.3801"/>
<polygon fill="#191970" stroke="#191970" points="966.3515,-425.392 956.1196,-422.6427 962.4038,-431.1726 966.3515,-425.392"/>
</g>
<!-- Node32&#45;&gt;Node10 -->
<g id="edge54" class="edge">
<title>Node32&#45;&gt;Node10</title>
<path fill="none" stroke="#191970" d="M1051.0638,-229.8845C1053.1873,-210.6913 1057.9896,-167.286 1060.8131,-141.7663"/>
<polygon fill="#191970" stroke="#191970" points="1064.3005,-142.0726 1061.9215,-131.7484 1057.3429,-141.3028 1064.3005,-142.0726"/>
</g>
<!-- Node32&#45;&gt;Node14 -->
<g id="edge55" class="edge">
<title>Node32&#45;&gt;Node14</title>
<path fill="none" stroke="#191970" d="M1043.125,-229.8906C1036.6407,-220.8273 1026.7586,-207.0149 1018.8199,-195.9188"/>
<polygon fill="#191970" stroke="#191970" points="1021.6371,-193.8412 1012.9719,-187.7449 1015.9441,-197.9143 1021.6371,-193.8412"/>
</g>
<!-- Node33&#45;&gt;Node9 -->
<g id="edge58" class="edge">
<title>Node33&#45;&gt;Node9</title>
<path fill="none" stroke="#191970" d="M1144.213,-403.2455C1142.1023,-395.8579 1139.134,-385.4689 1136.5453,-376.4087"/>
<polygon fill="#191970" stroke="#191970" points="1139.8677,-375.2964 1133.755,-366.6427 1133.137,-377.2195 1139.8677,-375.2964"/>
</g>
<!-- Node36&#45;&gt;Node2 -->
<g id="edge62" class="edge">
<title>Node36&#45;&gt;Node2</title>
<path fill="none" stroke="#191970" d="M1408.7497,-459.312C1439.1656,-442.8407 1494,-406.3083 1494,-357 1494,-357 1494,-357 1494,-178 1494,-99.3597 1221.818,-74.9774 1110.048,-68.2801"/>
<polygon fill="#191970" stroke="#191970" points="1109.9318,-64.7677 1099.7468,-67.686 1109.5287,-71.7561 1109.9318,-64.7677"/>
</g>
<!-- Node37&#45;&gt;Node5 -->
<g id="edge68" class="edge">
<title>Node37&#45;&gt;Node5</title>
<path fill="none" stroke="#191970" d="M489.883,-348.8073C333.5374,-331.5447 0,-288.9258 0,-239.5 0,-239.5 0,-239.5 0,-122 0,-59.1658 82.3659,-29.4134 131.7533,-17.2213"/>
<polygon fill="#191970" stroke="#191970" points="132.8113,-20.5683 141.75,-14.8806 131.2154,-13.7526 132.8113,-20.5683"/>
</g>
<!-- Node37&#45;&gt;Node12 -->
<g id="edge71" class="edge">
<title>Node37&#45;&gt;Node12</title>
<path fill="none" stroke="#191970" d="M648.2387,-351.2782C753.4753,-341.5403 943.5732,-316.4332 1094,-255 1135.7844,-237.9356 1180.6032,-210.2954 1206.6504,-193.1864"/>
<polygon fill="#191970" stroke="#191970" points="1208.653,-196.058 1215.0449,-187.6085 1204.7789,-190.2277 1208.653,-196.058"/>
</g>
<!-- Node37&#45;&gt;Node16 -->
<g id="edge64" class="edge">
<title>Node37&#45;&gt;Node16</title>
<path fill="none" stroke="#191970" d="M577.5351,-347.2455C584.4912,-339.2958 594.4883,-327.8706 602.8051,-318.3656"/>
<polygon fill="#191970" stroke="#191970" points="605.6116,-320.4732 609.5627,-310.6427 600.3436,-315.8637 605.6116,-320.4732"/>
</g>
<!-- Node37&#45;&gt;Node17 -->
<g id="edge65" class="edge">
<title>Node37&#45;&gt;Node17</title>
<path fill="none" stroke="#191970" d="M501.0955,-347.4819C455.4495,-339.7455 400.6894,-327.424 384,-311 371.8452,-299.0384 367.1876,-280.2514 365.52,-264.9366"/>
<polygon fill="#191970" stroke="#191970" points="368.9809,-264.2678 364.7697,-254.5459 361.9991,-264.772 368.9809,-264.2678"/>
</g>
<!-- Node37&#45;&gt;Node26 -->
<g id="edge70" class="edge">
<title>Node37&#45;&gt;Node26</title>
<path fill="none" stroke="#191970" d="M611.1802,-347.4369C653.4523,-337.8529 718.6062,-323.0812 764.0417,-312.78"/>
<polygon fill="#191970" stroke="#191970" points="765.0152,-316.1482 773.9938,-310.5237 763.4674,-309.3215 765.0152,-316.1482"/>
</g>
<!-- Node37&#45;&gt;Node27 -->
<g id="edge66" class="edge">
<title>Node37&#45;&gt;Node27</title>
<path fill="none" stroke="#191970" d="M589.1312,-347.3845C632.5755,-326.6336 735.2726,-277.5812 785.8383,-253.4289"/>
<polygon fill="#191970" stroke="#191970" points="787.4206,-256.5519 794.9356,-249.0836 784.4036,-250.2354 787.4206,-256.5519"/>
</g>
<!-- Node37&#45;&gt;Node37 -->
<g id="edge69" class="edge">
<title>Node37&#45;&gt;Node37</title>
<path fill="none" stroke="#191970" d="M610.1182,-366.5001C638.3159,-369.3269 666,-366.1602 666,-357 666,-348.9491 644.6147,-345.528 620.291,-346.7367"/>
<polygon fill="#191970" stroke="#191970" points="619.8282,-343.2615 610.1182,-347.4999 620.352,-350.2418 619.8282,-343.2615"/>
</g>
<!-- Node38 -->
<g id="node38" class="node">
<title>Node38</title>
<g id="a_node38"><a xlink:title=" ">
<polygon fill="#ffffff" stroke="#bfbfbf" points="393,-291.5 393,-310.5 563,-310.5 563,-291.5 393,-291.5"/>
<text text-anchor="middle" x="478" y="-298.5" font-family="Helvetica,sans-Serif" font-size="10.00" fill="#000000">sitkMemberFunctionFactory.hxx</text>
</a>
</g>
</g>
<!-- Node37&#45;&gt;Node38 -->
<g id="edge67" class="edge">
<title>Node37&#45;&gt;Node38</title>
<path fill="none" stroke="#191970" d="M553.149,-347.2455C539.1868,-338.6534 518.6272,-326.0014 502.5404,-316.1018"/>
<polygon fill="#191970" stroke="#191970" points="504.0203,-312.9029 493.6693,-310.6427 500.3516,-318.8645 504.0203,-312.9029"/>
</g>
</g>
</svg>
        <g id="navigator" transform="translate(0 0)" fill="#404254">
                <rect fill="#f2f5e9" fill-opacity="0.5" stroke="#606060" stroke-width=".5" x="0" y="0" width="60" height="60"/>
                <use id="zoomplus" xlink:href="#zoomPlus" x="17" y="9" onmousedown="handleZoom(evt,'in')"/>
                <use id="zoomminus" xlink:href="#zoomMin" x="42" y="9" onmousedown="handleZoom(evt,'out')"/>
                <use id="reset" xlink:href="#resetDef" x="30" y="36" onmousedown="handleReset()"/>
                <g id="arrowUp" xlink:href="#dirArrow" transform="translate(30 24)" onmousedown="handlePan(0,-1)">
                  <use xlink:href="#rim" fill="#404040">
                        <set attributeName="fill" to="#808080" begin="arrowUp.mouseover" end="arrowUp.mouseout"/>
                  </use>
                  <path fill="none" stroke="white" stroke-width="1.5" d="M0,-3.0v7 M-2.5,-0.5L0,-3.0L2.5,-0.5"/>
                </g>
                <g id="arrowRight" xlink:href="#dirArrow" transform="rotate(90) translate(36 -43)" onmousedown="handlePan(1,0)">
                  <use xlink:href="#rim" fill="#404040">
                        <set attributeName="fill" to="#808080" begin="arrowRight.mouseover" end="arrowRight.mouseout"/>
                  </use>
                  <path fill="none" stroke="white" stroke-width="1.5" d="M0,-3.0v7 M-2.5,-0.5L0,-3.0L2.5,-0.5"/>
                </g>
                <g id="arrowDown" xlink:href="#dirArrow" transform="rotate(180) translate(-30 -48)" onmousedown="handlePan(0,1)">
                  <use xlink:href="#rim" fill="#404040">
                        <set attributeName="fill" to="#808080" begin="arrowDown.mouseover" end="arrowDown.mouseout"/>
                  </use>
                  <path fill="none" stroke="white" stroke-width="1.5" d="M0,-3.0v7 M-2.5,-0.5L0,-3.0L2.5,-0.5"/>
                </g>
                <g id="arrowLeft" xlink:href="#dirArrow" transform="rotate(270) translate(-36 17)" onmousedown="handlePan(-1,0)">
                  <use xlink:href="#rim" fill="#404040">
                        <set attributeName="fill" to="#808080" begin="arrowLeft.mouseover" end="arrowLeft.mouseout"/>
                  </use>
                  <path fill="none" stroke="white" stroke-width="1.5" d="M0,-3.0v7 M-2.5,-0.5L0,-3.0L2.5,-0.5"/>
                </g>
        </g>
        <svg viewBox="0 0 15 15" width="100%" height="30px" preserveAspectRatio="xMaxYMin meet">
         <g id="arrow_out" transform="scale(0.3 0.3)">
          <a xlink:href="sitkImageSeriesWriter_8h__incl_org.svg" target="_base">
           <rect id="button" ry="5" rx="5" y="6" x="6" height="38" width="38"
                fill="#f2f5e9" fill-opacity="0.5" stroke="#606060" stroke-width="1.0"/>
           <path id="arrow"
             d="M 11.500037,31.436501 C 11.940474,20.09759 22.043105,11.32322 32.158766,21.979434 L 37.068811,17.246167 C 37.068811,17.246167 37.088388,32 37.088388,32 L 22.160133,31.978069 C 22.160133,31.978069 26.997745,27.140456 26.997745,27.140456 C 18.528582,18.264221 13.291696,25.230495 11.500037,31.436501 z"
             style="fill:#404040;"/>
          </a>
         </g>
        </svg>
</svg>
