<?xml version="1.0" encoding="UTF-8" standalone="no"?>
<!DOCTYPE svg PUBLIC "-//W3C//DTD SVG 1.1//EN"
 "http://www.w3.org/Graphics/SVG/1.1/DTD/svg11.dtd">
<!-- Generated by graphviz version 2.40.1 (20161225.0304)
 -->
<!-- Title: sitkBSplineTransform.h Pages: 1 -->
<!--zoomable 487 -->
<svg id="main" version="1.1" xmlns="http://www.w3.org/2000/svg" xmlns:xlink="http://www.w3.org/1999/xlink" xml:space="preserve" onload="init(evt)">
<style type="text/css"><![CDATA[
.edge:hover path { stroke: red; }
.edge:hover polygon { stroke: red; fill: red; }
]]></style>
<script type="text/javascript"><![CDATA[
var edges = document.getElementsByTagName('g');
if (edges && edges.length) {
  for (var i=0;i<edges.length;i++) {
    if (edges[i].id.substr(0,4)=='edge') {
      edges[i].setAttribute('class','edge');
    }
  }
}
]]></script>
        <defs>
                <circle id="rim" cx="0" cy="0" r="7"/>
                <circle id="rim2" cx="0" cy="0" r="3.5"/>
                <g id="zoomPlus">
                        <use xlink:href="#rim" fill="#404040">
                                <set attributeName="fill" to="#808080" begin="zoomplus.mouseover" end="zoomplus.mouseout"/>
                        </use>
                        <path d="M-4,0h8M0,-4v8" fill="none" stroke="white" stroke-width="1.5" pointer-events="none"/>
                </g>
                <g id="zoomMin">
                        <use xlink:href="#rim" fill="#404040">
                                <set attributeName="fill" to="#808080" begin="zoomminus.mouseover" end="zoomminus.mouseout"/>
                        </use>
                        <path d="M-4,0h8" fill="none" stroke="white" stroke-width="1.5" pointer-events="none"/>
                </g>
                <g id="dirArrow">
                        <path fill="none" stroke="white" stroke-width="1.5" d="M0,-3.0v7 M-2.5,-0.5L0,-3.0L2.5,-0.5"/>
                </g>
               <g id="resetDef">
                       <use xlink:href="#rim2" fill="#404040">
                               <set attributeName="fill" to="#808080" begin="reset.mouseover" end="reset.mouseout"/>
                       </use>
               </g>
        </defs>

<script type="text/javascript">
var viewWidth = 1523;
var viewHeight = 487;
var sectionId = 'dynsection-0';
</script>
<script xlink:href="svgpan.js"/>
<svg id="graph" class="graph">
<g id="viewport">
<title>sitkBSplineTransform.h</title>
<polygon fill="#ffffff" stroke="transparent" points="-4,4 -4,-483 1518.5,-483 1518.5,4 -4,4"/>
<!-- Node1 -->
<g id="node1" class="node">
<title>Node1</title>
<g id="a_node1"><a xlink:title=" ">
<polygon fill="#bfbfbf" stroke="#000000" points="1385.5,-459.5 1385.5,-478.5 1514.5,-478.5 1514.5,-459.5 1385.5,-459.5"/>
<text text-anchor="middle" x="1450" y="-466.5" font-family="Helvetica,sans-Serif" font-size="10.00" fill="#000000">sitkBSplineTransform.h</text>
</a>
</g>
</g>
<!-- Node2 -->
<g id="node2" class="node">
<title>Node2</title>
<g id="a_node2"><a xlink:href="sitkCommon_8h.html" target="_top" xlink:title=" ">
<polygon fill="#ffffff" stroke="#000000" points="1075,-112.5 1075,-131.5 1163,-131.5 1163,-112.5 1075,-112.5"/>
<text text-anchor="middle" x="1119" y="-119.5" font-family="Helvetica,sans-Serif" font-size="10.00" fill="#000000">sitkCommon.h</text>
</a>
</g>
</g>
<!-- Node1&#45;&gt;Node2 -->
<g id="edge1" class="edge">
<title>Node1&#45;&gt;Node2</title>
<path fill="none" stroke="#191970" d="M1455.607,-459.4834C1466.1774,-440.6141 1488,-396.8343 1488,-357 1488,-357 1488,-357 1488,-239.5 1488,-202.1872 1475.2134,-188.4444 1444,-168 1400.5448,-139.5374 1254.1507,-128.2847 1173.4764,-124.165"/>
<polygon fill="#191970" stroke="#191970" points="1173.1822,-120.6464 1163.0228,-123.6523 1172.8393,-127.638 1173.1822,-120.6464"/>
</g>
<!-- Node10 -->
<g id="node10" class="node">
<title>Node10</title>
<g id="a_node10"><a xlink:href="sitkTransform_8h.html" target="_top" xlink:title=" ">
<polygon fill="#ffffff" stroke="#000000" points="1366,-403.5 1366,-422.5 1458,-422.5 1458,-403.5 1366,-403.5"/>
<text text-anchor="middle" x="1412" y="-410.5" font-family="Helvetica,sans-Serif" font-size="10.00" fill="#000000">sitkTransform.h</text>
</a>
</g>
</g>
<!-- Node1&#45;&gt;Node10 -->
<g id="edge9" class="edge">
<title>Node1&#45;&gt;Node10</title>
<path fill="none" stroke="#191970" d="M1443.3809,-459.2455C1438.0954,-451.4564 1430.5459,-440.3308 1424.1762,-430.9439"/>
<polygon fill="#191970" stroke="#191970" points="1427.0545,-428.9522 1418.5432,-422.6427 1421.2621,-432.8827 1427.0545,-428.9522"/>
</g>
<!-- Node3 -->
<g id="node3" class="node">
<title>Node3</title>
<g id="a_node3"><a xlink:href="sitkMacro_8h.html" target="_top" xlink:title=" ">
<polygon fill="#ffffff" stroke="#000000" points="877.5,-56.5 877.5,-75.5 950.5,-75.5 950.5,-56.5 877.5,-56.5"/>
<text text-anchor="middle" x="914" y="-63.5" font-family="Helvetica,sans-Serif" font-size="10.00" fill="#000000">sitkMacro.h</text>
</a>
</g>
</g>
<!-- Node2&#45;&gt;Node3 -->
<g id="edge2" class="edge">
<title>Node2&#45;&gt;Node3</title>
<path fill="none" stroke="#191970" d="M1083.7592,-112.3733C1049.0806,-102.9001 996.0117,-88.4032 958.4538,-78.1435"/>
<polygon fill="#191970" stroke="#191970" points="959.3498,-74.7601 948.7809,-75.5011 957.5051,-81.5126 959.3498,-74.7601"/>
</g>
<!-- Node4 -->
<g id="node4" class="node">
<title>Node4</title>
<g id="a_node4"><a xlink:title=" ">
<polygon fill="#ffffff" stroke="#bfbfbf" points="716.5,-.5 716.5,-19.5 769.5,-19.5 769.5,-.5 716.5,-.5"/>
<text text-anchor="middle" x="743" y="-7.5" font-family="Helvetica,sans-Serif" font-size="10.00" fill="#000000">stdint.h</text>
</a>
</g>
</g>
<!-- Node3&#45;&gt;Node4 -->
<g id="edge3" class="edge">
<title>Node3&#45;&gt;Node4</title>
<path fill="none" stroke="#191970" d="M884.6041,-56.3733C855.48,-46.8356 810.8063,-32.2056 779.4429,-21.9345"/>
<polygon fill="#191970" stroke="#191970" points="780.3569,-18.551 769.7643,-18.7649 778.1783,-25.2034 780.3569,-18.551"/>
</g>
<!-- Node5 -->
<g id="node5" class="node">
<title>Node5</title>
<g id="a_node5"><a xlink:title=" ">
<polygon fill="#ffffff" stroke="#bfbfbf" points="805,-.5 805,-19.5 861,-19.5 861,-.5 805,-.5"/>
<text text-anchor="middle" x="833" y="-7.5" font-family="Helvetica,sans-Serif" font-size="10.00" fill="#000000">stddef.h</text>
</a>
</g>
</g>
<!-- Node3&#45;&gt;Node5 -->
<g id="edge4" class="edge">
<title>Node3&#45;&gt;Node5</title>
<path fill="none" stroke="#191970" d="M899.8909,-56.2455C887.5791,-47.7337 869.5042,-35.2375 855.2462,-25.3801"/>
<polygon fill="#191970" stroke="#191970" points="857.1634,-22.4506 846.9474,-19.6427 853.1826,-28.2085 857.1634,-22.4506"/>
</g>
<!-- Node6 -->
<g id="node6" class="node">
<title>Node6</title>
<g id="a_node6"><a xlink:title=" ">
<polygon fill="#ffffff" stroke="#bfbfbf" points="879,-.5 879,-19.5 931,-19.5 931,-.5 879,-.5"/>
<text text-anchor="middle" x="905" y="-7.5" font-family="Helvetica,sans-Serif" font-size="10.00" fill="#000000">cassert</text>
</a>
</g>
</g>
<!-- Node3&#45;&gt;Node6 -->
<g id="edge5" class="edge">
<title>Node3&#45;&gt;Node6</title>
<path fill="none" stroke="#191970" d="M912.4323,-56.2455C911.2579,-48.9382 909.6116,-38.6944 908.1668,-29.7046"/>
<polygon fill="#191970" stroke="#191970" points="911.5922,-28.9606 906.5497,-19.6427 904.6809,-30.0714 911.5922,-28.9606"/>
</g>
<!-- Node7 -->
<g id="node7" class="node">
<title>Node7</title>
<g id="a_node7"><a xlink:title=" ">
<polygon fill="#ffffff" stroke="#bfbfbf" points="949,-.5 949,-19.5 1005,-19.5 1005,-.5 949,-.5"/>
<text text-anchor="middle" x="977" y="-7.5" font-family="Helvetica,sans-Serif" font-size="10.00" fill="#000000">sstream</text>
</a>
</g>
</g>
<!-- Node3&#45;&gt;Node7 -->
<g id="edge6" class="edge">
<title>Node3&#45;&gt;Node7</title>
<path fill="none" stroke="#191970" d="M924.9738,-56.2455C934.1882,-48.0549 947.5532,-36.1749 958.4297,-26.5069"/>
<polygon fill="#191970" stroke="#191970" points="961.0032,-28.9023 966.152,-19.6427 956.3526,-23.6704 961.0032,-28.9023"/>
</g>
<!-- Node8 -->
<g id="node8" class="node">
<title>Node8</title>
<g id="a_node8"><a xlink:title=" ">
<polygon fill="#ffffff" stroke="#bfbfbf" points="1023,-.5 1023,-19.5 1067,-19.5 1067,-.5 1023,-.5"/>
<text text-anchor="middle" x="1045" y="-7.5" font-family="Helvetica,sans-Serif" font-size="10.00" fill="#000000">limits</text>
</a>
</g>
</g>
<!-- Node3&#45;&gt;Node8 -->
<g id="edge7" class="edge">
<title>Node3&#45;&gt;Node8</title>
<path fill="none" stroke="#191970" d="M936.5197,-56.3733C957.7372,-47.3032 989.7276,-33.6279 1013.4769,-23.4755"/>
<polygon fill="#191970" stroke="#191970" points="1014.9548,-26.6502 1022.7742,-19.5011 1012.2033,-20.2136 1014.9548,-26.6502"/>
</g>
<!-- Node9 -->
<g id="node9" class="node">
<title>Node9</title>
<g id="a_node9"><a xlink:href="sitkConfigure_8h.html" target="_top" xlink:title=" ">
<polygon fill="#ffffff" stroke="#000000" points="583,-.5 583,-19.5 673,-19.5 673,-.5 583,-.5"/>
<text text-anchor="middle" x="628" y="-7.5" font-family="Helvetica,sans-Serif" font-size="10.00" fill="#000000">sitkConfigure.h</text>
</a>
</g>
</g>
<!-- Node3&#45;&gt;Node9 -->
<g id="edge8" class="edge">
<title>Node3&#45;&gt;Node9</title>
<path fill="none" stroke="#191970" d="M877.4874,-58.8507C828.3345,-49.2263 740.4573,-32.0196 683.206,-20.8096"/>
<polygon fill="#191970" stroke="#191970" points="683.7261,-17.345 673.2398,-18.8582 682.3809,-24.2146 683.7261,-17.345"/>
</g>
<!-- Node10&#45;&gt;Node2 -->
<g id="edge10" class="edge">
<title>Node10&#45;&gt;Node2</title>
<path fill="none" stroke="#191970" d="M1417.607,-403.4834C1428.1774,-384.6141 1450,-340.8343 1450,-301 1450,-301 1450,-301 1450,-239.5 1450,-205.2079 1447.9147,-189.2496 1421,-168 1383.58,-138.4562 1249.7597,-127.7212 1173.404,-123.9479"/>
<polygon fill="#191970" stroke="#191970" points="1173.1805,-120.4337 1163.0272,-123.4605 1172.852,-127.4259 1173.1805,-120.4337"/>
</g>
<!-- Node11 -->
<g id="node11" class="node">
<title>Node11</title>
<g id="a_node11"><a xlink:href="sitkExceptionObject_8h.html" target="_top" xlink:title=" ">
<polygon fill="#ffffff" stroke="#000000" points="861.5,-168.5 861.5,-187.5 984.5,-187.5 984.5,-168.5 861.5,-168.5"/>
<text text-anchor="middle" x="923" y="-175.5" font-family="Helvetica,sans-Serif" font-size="10.00" fill="#000000">sitkExceptionObject.h</text>
</a>
</g>
</g>
<!-- Node10&#45;&gt;Node11 -->
<g id="edge11" class="edge">
<title>Node10&#45;&gt;Node11</title>
<path fill="none" stroke="#191970" d="M1365.9089,-407.322C1266.8242,-394.3137 1037.6747,-359.6822 978,-311 942.7896,-282.2756 929.8495,-227.2435 925.3075,-197.7769"/>
<polygon fill="#191970" stroke="#191970" points="928.7275,-196.9515 923.9103,-187.5152 921.7915,-197.896 928.7275,-196.9515"/>
</g>
<!-- Node12 -->
<g id="node12" class="node">
<title>Node12</title>
<g id="a_node12"><a xlink:href="sitkImage_8h.html" target="_top" xlink:title=" ">
<polygon fill="#ffffff" stroke="#000000" points="1185,-347.5 1185,-366.5 1259,-366.5 1259,-347.5 1185,-347.5"/>
<text text-anchor="middle" x="1222" y="-354.5" font-family="Helvetica,sans-Serif" font-size="10.00" fill="#000000">sitkImage.h</text>
</a>
</g>
</g>
<!-- Node10&#45;&gt;Node12 -->
<g id="edge14" class="edge">
<title>Node10&#45;&gt;Node12</title>
<path fill="none" stroke="#191970" d="M1379.3378,-403.3733C1347.4702,-393.9807 1298.8469,-379.6496 1264.093,-369.4064"/>
<polygon fill="#191970" stroke="#191970" points="1264.8175,-365.9711 1254.236,-366.5011 1262.8385,-372.6855 1264.8175,-365.9711"/>
</g>
<!-- Node14 -->
<g id="node14" class="node">
<title>Node14</title>
<g id="a_node14"><a xlink:title=" ">
<polygon fill="#ffffff" stroke="#bfbfbf" points="1364.5,-168.5 1364.5,-187.5 1411.5,-187.5 1411.5,-168.5 1364.5,-168.5"/>
<text text-anchor="middle" x="1388" y="-175.5" font-family="Helvetica,sans-Serif" font-size="10.00" fill="#000000">vector</text>
</a>
</g>
</g>
<!-- Node10&#45;&gt;Node14 -->
<g id="edge53" class="edge">
<title>Node10&#45;&gt;Node14</title>
<path fill="none" stroke="#191970" d="M1411.4707,-403.1297C1409.8983,-375.0354 1404.8074,-292.2576 1396,-224 1394.8875,-215.3778 1393.303,-205.9064 1391.8373,-197.8106"/>
<polygon fill="#191970" stroke="#191970" points="1395.2495,-197.0169 1389.9677,-187.8325 1388.3693,-198.3061 1395.2495,-197.0169"/>
</g>
<!-- Node11&#45;&gt;Node2 -->
<g id="edge13" class="edge">
<title>Node11&#45;&gt;Node2</title>
<path fill="none" stroke="#191970" d="M956.6936,-168.3733C989.7087,-158.9404 1040.1573,-144.5265 1076.0386,-134.2747"/>
<polygon fill="#191970" stroke="#191970" points="1077.0924,-137.6137 1085.7461,-131.5011 1075.1693,-130.8831 1077.0924,-137.6137"/>
</g>
<!-- Node11&#45;&gt;Node3 -->
<g id="edge12" class="edge">
<title>Node11&#45;&gt;Node3</title>
<path fill="none" stroke="#191970" d="M922.2327,-168.4509C920.7648,-150.184 917.5321,-109.9553 915.5828,-85.6976"/>
<polygon fill="#191970" stroke="#191970" points="919.0552,-85.2124 914.7654,-75.5249 912.0777,-85.7731 919.0552,-85.2124"/>
</g>
<!-- Node12&#45;&gt;Node2 -->
<g id="edge15" class="edge">
<title>Node12&#45;&gt;Node2</title>
<path fill="none" stroke="#191970" d="M1238.3279,-347.2474C1270.913,-326.4342 1339.0637,-275.3617 1317,-224 1292.8692,-167.8265 1223.0203,-142.1326 1173.1293,-130.6961"/>
<polygon fill="#191970" stroke="#191970" points="1173.6377,-127.2252 1163.1235,-128.5302 1172.1566,-134.0667 1173.6377,-127.2252"/>
</g>
<!-- Node13 -->
<g id="node13" class="node">
<title>Node13</title>
<g id="a_node13"><a xlink:href="sitkTemplateFunctions_8h.html" target="_top" xlink:title=" ">
<polygon fill="#ffffff" stroke="#000000" points="1174,-230 1174,-249 1308,-249 1308,-230 1174,-230"/>
<text text-anchor="middle" x="1241" y="-237" font-family="Helvetica,sans-Serif" font-size="10.00" fill="#000000">sitkTemplateFunctions.h</text>
</a>
</g>
</g>
<!-- Node12&#45;&gt;Node13 -->
<g id="edge16" class="edge">
<title>Node12&#45;&gt;Node13</title>
<path fill="none" stroke="#191970" d="M1223.5548,-347.3845C1226.6584,-328.1913 1233.6772,-284.786 1237.8037,-259.2663"/>
<polygon fill="#191970" stroke="#191970" points="1241.2824,-259.6789 1239.4237,-249.2484 1234.3722,-258.5614 1241.2824,-259.6789"/>
</g>
<!-- Node12&#45;&gt;Node14 -->
<g id="edge50" class="edge">
<title>Node12&#45;&gt;Node14</title>
<path fill="none" stroke="#191970" d="M1259.2505,-352.8181C1287.8648,-347.6768 1326.3676,-336.2637 1350,-311 1379.5443,-279.4162 1386.3265,-226.4486 1387.751,-197.8146"/>
<polygon fill="#191970" stroke="#191970" points="1391.2495,-197.9132 1388.0758,-187.805 1384.2532,-197.6862 1391.2495,-197.9132"/>
</g>
<!-- Node17 -->
<g id="node17" class="node">
<title>Node17</title>
<g id="a_node17"><a xlink:href="sitkDetail_8h.html" target="_top" xlink:title=" ">
<polygon fill="#ffffff" stroke="#000000" points="391.5,-291.5 391.5,-310.5 464.5,-310.5 464.5,-291.5 391.5,-291.5"/>
<text text-anchor="middle" x="428" y="-298.5" font-family="Helvetica,sans-Serif" font-size="10.00" fill="#000000">sitkDetail.h</text>
</a>
</g>
</g>
<!-- Node12&#45;&gt;Node17 -->
<g id="edge23" class="edge">
<title>Node12&#45;&gt;Node17</title>
<path fill="none" stroke="#191970" d="M1184.7687,-354.3741C1054.5063,-345.1868 619.321,-314.4937 474.9737,-304.313"/>
<polygon fill="#191970" stroke="#191970" points="474.914,-300.8002 464.6926,-303.5879 474.4215,-307.7828 474.914,-300.8002"/>
</g>
<!-- Node28 -->
<g id="node28" class="node">
<title>Node28</title>
<g id="a_node28"><a xlink:href="sitkPixelIDTokens_8h.html" target="_top" xlink:title=" ">
<polygon fill="#ffffff" stroke="#000000" points="1063,-291.5 1063,-310.5 1175,-310.5 1175,-291.5 1063,-291.5"/>
<text text-anchor="middle" x="1119" y="-298.5" font-family="Helvetica,sans-Serif" font-size="10.00" fill="#000000">sitkPixelIDTokens.h</text>
</a>
</g>
</g>
<!-- Node12&#45;&gt;Node28 -->
<g id="edge42" class="edge">
<title>Node12&#45;&gt;Node28</title>
<path fill="none" stroke="#191970" d="M1204.0588,-347.2455C1187.96,-338.4928 1164.1121,-325.527 1145.7609,-315.5496"/>
<polygon fill="#191970" stroke="#191970" points="1147.1929,-312.3444 1136.7356,-310.6427 1143.8493,-318.4942 1147.1929,-312.3444"/>
</g>
<!-- Node31 -->
<g id="node31" class="node">
<title>Node31</title>
<g id="a_node31"><a xlink:title=" ">
<polygon fill="#ffffff" stroke="#bfbfbf" points="1086.5,-230 1086.5,-249 1155.5,-249 1155.5,-230 1086.5,-230"/>
<text text-anchor="middle" x="1121" y="-237" font-family="Helvetica,sans-Serif" font-size="10.00" fill="#000000">type_traits</text>
</a>
</g>
</g>
<!-- Node12&#45;&gt;Node31 -->
<g id="edge52" class="edge">
<title>Node12&#45;&gt;Node31</title>
<path fill="none" stroke="#191970" d="M1217.8089,-347.3489C1211.6538,-333.8408 1199.2326,-308.9404 1184,-291 1172.3364,-277.263 1156.654,-264.4289 1143.8539,-255.0087"/>
<polygon fill="#191970" stroke="#191970" points="1145.7081,-252.0319 1135.5376,-249.0633 1141.637,-257.7263 1145.7081,-252.0319"/>
</g>
<!-- Node32 -->
<g id="node32" class="node">
<title>Node32</title>
<g id="a_node32"><a xlink:title=" ">
<polygon fill="#ffffff" stroke="#bfbfbf" points="987,-291.5 987,-310.5 1045,-310.5 1045,-291.5 987,-291.5"/>
<text text-anchor="middle" x="1016" y="-298.5" font-family="Helvetica,sans-Serif" font-size="10.00" fill="#000000">memory</text>
</a>
</g>
</g>
<!-- Node12&#45;&gt;Node32 -->
<g id="edge51" class="edge">
<title>Node12&#45;&gt;Node32</title>
<path fill="none" stroke="#191970" d="M1186.5873,-347.3733C1149.9443,-337.412 1092.8684,-321.8963 1054.9667,-311.5929"/>
<polygon fill="#191970" stroke="#191970" points="1055.8614,-308.2092 1045.2934,-308.9633 1054.0251,-314.964 1055.8614,-308.2092"/>
</g>
<!-- Node13&#45;&gt;Node2 -->
<g id="edge18" class="edge">
<title>Node13&#45;&gt;Node2</title>
<path fill="none" stroke="#191970" d="M1244.2215,-229.6885C1248.4298,-214.8802 1253.8516,-186.5805 1241,-168 1232.1787,-155.2464 1197.8539,-142.968 1167.8515,-134.3093"/>
<polygon fill="#191970" stroke="#191970" points="1168.4591,-130.8448 1157.8855,-131.5162 1166.57,-137.5851 1168.4591,-130.8448"/>
</g>
<!-- Node13&#45;&gt;Node3 -->
<g id="edge17" class="edge">
<title>Node13&#45;&gt;Node3</title>
<path fill="none" stroke="#191970" d="M1247.4995,-229.6751C1256.0948,-215.3365 1268.9463,-188.1902 1258,-168 1236.2609,-127.9026 1214.4113,-128.7832 1172,-112 1101.6003,-84.141 1013.7104,-73.0636 960.8146,-68.7222"/>
<polygon fill="#191970" stroke="#191970" points="960.9579,-65.2229 950.7176,-67.9408 960.4177,-72.2021 960.9579,-65.2229"/>
</g>
<!-- Node13&#45;&gt;Node11 -->
<g id="edge19" class="edge">
<title>Node13&#45;&gt;Node11</title>
<path fill="none" stroke="#191970" d="M1194.8007,-229.9751C1184.969,-227.9769 1174.6448,-225.9001 1165,-224 1103.6938,-211.9223 1033.5385,-198.6471 984.6047,-189.4753"/>
<polygon fill="#191970" stroke="#191970" points="984.969,-185.9828 974.4957,-187.5824 983.6806,-192.8632 984.969,-185.9828"/>
</g>
<!-- Node13&#45;&gt;Node14 -->
<g id="edge20" class="edge">
<title>Node13&#45;&gt;Node14</title>
<path fill="none" stroke="#191970" d="M1263.9688,-229.8906C1288.6724,-219.5554 1328.137,-203.0447 1355.9027,-191.4284"/>
<polygon fill="#191970" stroke="#191970" points="1357.3182,-194.6303 1365.1925,-187.5419 1354.6165,-188.1727 1357.3182,-194.6303"/>
</g>
<!-- Node15 -->
<g id="node15" class="node">
<title>Node15</title>
<g id="a_node15"><a xlink:title=" ">
<polygon fill="#ffffff" stroke="#bfbfbf" points="1103.5,-168.5 1103.5,-187.5 1160.5,-187.5 1160.5,-168.5 1103.5,-168.5"/>
<text text-anchor="middle" x="1132" y="-175.5" font-family="Helvetica,sans-Serif" font-size="10.00" fill="#000000">ostream</text>
</a>
</g>
</g>
<!-- Node13&#45;&gt;Node15 -->
<g id="edge21" class="edge">
<title>Node13&#45;&gt;Node15</title>
<path fill="none" stroke="#191970" d="M1223.9688,-229.8906C1206.211,-219.8713 1178.167,-204.0483 1157.7118,-192.5071"/>
<polygon fill="#191970" stroke="#191970" points="1159.3409,-189.4077 1148.9117,-187.5419 1155.9011,-195.5042 1159.3409,-189.4077"/>
</g>
<!-- Node16 -->
<g id="node16" class="node">
<title>Node16</title>
<g id="a_node16"><a xlink:title=" ">
<polygon fill="#ffffff" stroke="#bfbfbf" points="1178.5,-168.5 1178.5,-187.5 1231.5,-187.5 1231.5,-168.5 1178.5,-168.5"/>
<text text-anchor="middle" x="1205" y="-175.5" font-family="Helvetica,sans-Serif" font-size="10.00" fill="#000000">iterator</text>
</a>
</g>
</g>
<!-- Node13&#45;&gt;Node16 -->
<g id="edge22" class="edge">
<title>Node13&#45;&gt;Node16</title>
<path fill="none" stroke="#191970" d="M1235.375,-229.8906C1230.1747,-221.0068 1222.3034,-207.5601 1215.8767,-196.5811"/>
<polygon fill="#191970" stroke="#191970" points="1218.7767,-194.6069 1210.7043,-187.7449 1212.7356,-198.1432 1218.7767,-194.6069"/>
</g>
<!-- Node18 -->
<g id="node18" class="node">
<title>Node18</title>
<g id="a_node18"><a xlink:href="sitkMemberFunctionFactoryBase_8h.html" target="_top" xlink:title=" ">
<polygon fill="#ffffff" stroke="#000000" points="245,-224.5 245,-254.5 395,-254.5 395,-224.5 245,-224.5"/>
<text text-anchor="start" x="253" y="-242.5" font-family="Helvetica,sans-Serif" font-size="10.00" fill="#000000">sitkMemberFunctionFactory</text>
<text text-anchor="middle" x="320" y="-231.5" font-family="Helvetica,sans-Serif" font-size="10.00" fill="#000000">Base.h</text>
</a>
</g>
</g>
<!-- Node17&#45;&gt;Node18 -->
<g id="edge24" class="edge">
<title>Node17&#45;&gt;Node18</title>
<path fill="none" stroke="#191970" d="M411.125,-291.3906C396.2378,-282.9132 374.0543,-270.2809 355.3025,-259.6028"/>
<polygon fill="#191970" stroke="#191970" points="356.8416,-256.4516 346.4198,-254.5446 353.3777,-262.5345 356.8416,-256.4516"/>
</g>
<!-- Node24 -->
<g id="node24" class="node">
<title>Node24</title>
<g id="a_node24"><a xlink:title=" ">
<polygon fill="#ffffff" stroke="#bfbfbf" points="359,-168.5 359,-187.5 497,-187.5 497,-168.5 359,-168.5"/>
<text text-anchor="middle" x="428" y="-175.5" font-family="Helvetica,sans-Serif" font-size="10.00" fill="#000000">Ancillary/FunctionTraits.h</text>
</a>
</g>
</g>
<!-- Node17&#45;&gt;Node24 -->
<g id="edge41" class="edge">
<title>Node17&#45;&gt;Node24</title>
<path fill="none" stroke="#191970" d="M428,-291.3484C428,-271.2295 428,-224.4608 428,-197.7098"/>
<polygon fill="#191970" stroke="#191970" points="431.5001,-197.6067 428,-187.6068 424.5001,-197.6068 431.5001,-197.6067"/>
</g>
<!-- Node18&#45;&gt;Node3 -->
<g id="edge33" class="edge">
<title>Node18&#45;&gt;Node3</title>
<path fill="none" stroke="#191970" d="M395.278,-234.4591C462.5955,-228.3616 563.2607,-215.2892 647,-188 665.521,-181.9643 668.4364,-176.4248 686,-168 755.2455,-134.7845 837.804,-98.7087 882.1135,-79.6276"/>
<polygon fill="#191970" stroke="#191970" points="883.6828,-82.7627 891.4882,-75.5985 880.9188,-76.3315 883.6828,-82.7627"/>
</g>
<!-- Node18&#45;&gt;Node9 -->
<g id="edge25" class="edge">
<title>Node18&#45;&gt;Node9</title>
<path fill="none" stroke="#191970" d="M256.7391,-224.4399C222.6552,-212.977 190.632,-194.5908 207,-168 246.753,-103.4188 468.6397,-45.8612 573.3192,-21.8617"/>
<polygon fill="#191970" stroke="#191970" points="574.3996,-25.2055 583.3756,-19.5768 572.8486,-18.3795 574.3996,-25.2055"/>
</g>
<!-- Node19 -->
<g id="node19" class="node">
<title>Node19</title>
<g id="a_node19"><a xlink:href="sitkPixelIDTypes_8h.html" target="_top" xlink:title=" ">
<polygon fill="#ffffff" stroke="#000000" points="0,-112.5 0,-131.5 106,-131.5 106,-112.5 0,-112.5"/>
<text text-anchor="middle" x="53" y="-119.5" font-family="Helvetica,sans-Serif" font-size="10.00" fill="#000000">sitkPixelIDTypes.h</text>
</a>
</g>
</g>
<!-- Node18&#45;&gt;Node19 -->
<g id="edge26" class="edge">
<title>Node18&#45;&gt;Node19</title>
<path fill="none" stroke="#191970" d="M244.8954,-235.6806C173.495,-230.2908 73.4698,-217.5579 49,-188 38.397,-175.1923 41.0728,-155.7494 45.3954,-141.2798"/>
<polygon fill="#191970" stroke="#191970" points="48.7171,-142.3833 48.6678,-131.7885 42.0994,-140.1016 48.7171,-142.3833"/>
</g>
<!-- Node20 -->
<g id="node20" class="node">
<title>Node20</title>
<g id="a_node20"><a xlink:href="sitkPixelIDTypeLists_8h.html" target="_top" xlink:title=" ">
<polygon fill="#ffffff" stroke="#000000" points="515.5,-168.5 515.5,-187.5 638.5,-187.5 638.5,-168.5 515.5,-168.5"/>
<text text-anchor="middle" x="577" y="-175.5" font-family="Helvetica,sans-Serif" font-size="10.00" fill="#000000">sitkPixelIDTypeLists.h</text>
</a>
</g>
</g>
<!-- Node18&#45;&gt;Node20 -->
<g id="edge27" class="edge">
<title>Node18&#45;&gt;Node20</title>
<path fill="none" stroke="#191970" d="M382.8693,-224.4554C427.349,-213.8114 486.17,-199.7356 527.3624,-189.8783"/>
<polygon fill="#191970" stroke="#191970" points="528.2633,-193.2616 537.1741,-187.5303 526.6341,-186.4538 528.2633,-193.2616"/>
</g>
<!-- Node21 -->
<g id="node21" class="node">
<title>Node21</title>
<g id="a_node21"><a xlink:title=" ">
<polygon fill="#ffffff" stroke="#bfbfbf" points="327.5,-112.5 327.5,-131.5 438.5,-131.5 438.5,-112.5 327.5,-112.5"/>
<text text-anchor="middle" x="383" y="-119.5" font-family="Helvetica,sans-Serif" font-size="10.00" fill="#000000">Ancillary/TypeList.h</text>
</a>
</g>
</g>
<!-- Node18&#45;&gt;Node21 -->
<g id="edge36" class="edge">
<title>Node18&#45;&gt;Node21</title>
<path fill="none" stroke="#191970" d="M244.8091,-235.1676C175.6674,-229.4264 80.4341,-216.468 57,-188 51.3507,-181.1372 51.1702,-174.7101 57,-168 73.8072,-148.6548 227.0529,-133.839 317.3275,-126.7003"/>
<polygon fill="#191970" stroke="#191970" points="317.7753,-130.1761 327.4729,-125.9093 317.2311,-123.1973 317.7753,-130.1761"/>
</g>
<!-- Node23 -->
<g id="node23" class="node">
<title>Node23</title>
<g id="a_node23"><a xlink:href="sitkNonCopyable_8h.html" target="_top" xlink:title=" ">
<polygon fill="#ffffff" stroke="#000000" points="695.5,-168.5 695.5,-187.5 804.5,-187.5 804.5,-168.5 695.5,-168.5"/>
<text text-anchor="middle" x="750" y="-175.5" font-family="Helvetica,sans-Serif" font-size="10.00" fill="#000000">sitkNonCopyable.h</text>
</a>
</g>
</g>
<!-- Node18&#45;&gt;Node23 -->
<g id="edge34" class="edge">
<title>Node18&#45;&gt;Node23</title>
<path fill="none" stroke="#191970" d="M395.024,-228.8467C468.046,-218.4659 582.1481,-202.2142 681,-188 682.4602,-187.79 683.9377,-187.5774 685.4277,-187.3628"/>
<polygon fill="#191970" stroke="#191970" points="685.9905,-190.8179 695.3884,-185.9261 684.9911,-183.8896 685.9905,-190.8179"/>
</g>
<!-- Node18&#45;&gt;Node24 -->
<g id="edge37" class="edge">
<title>Node18&#45;&gt;Node24</title>
<path fill="none" stroke="#191970" d="M346.4198,-224.4554C363.4914,-214.734 385.5902,-202.15 402.4809,-192.5317"/>
<polygon fill="#191970" stroke="#191970" points="404.3059,-195.5202 411.2638,-187.5303 400.842,-189.4373 404.3059,-195.5202"/>
</g>
<!-- Node25 -->
<g id="node25" class="node">
<title>Node25</title>
<g id="a_node25"><a xlink:title=" ">
<polygon fill="#ffffff" stroke="#bfbfbf" points="66.5,-168.5 66.5,-187.5 159.5,-187.5 159.5,-168.5 66.5,-168.5"/>
<text text-anchor="middle" x="113" y="-175.5" font-family="Helvetica,sans-Serif" font-size="10.00" fill="#000000">unordered_map</text>
</a>
</g>
</g>
<!-- Node18&#45;&gt;Node25 -->
<g id="edge38" class="edge">
<title>Node18&#45;&gt;Node25</title>
<path fill="none" stroke="#191970" d="M269.3621,-224.4554C234.2177,-214.0139 187.9576,-200.27 154.8897,-190.4455"/>
<polygon fill="#191970" stroke="#191970" points="155.6603,-187.0233 145.0777,-187.5303 153.6667,-193.7334 155.6603,-187.0233"/>
</g>
<!-- Node26 -->
<g id="node26" class="node">
<title>Node26</title>
<g id="a_node26"><a xlink:title=" ">
<polygon fill="#ffffff" stroke="#bfbfbf" points="216.5,-168.5 216.5,-187.5 281.5,-187.5 281.5,-168.5 216.5,-168.5"/>
<text text-anchor="middle" x="249" y="-175.5" font-family="Helvetica,sans-Serif" font-size="10.00" fill="#000000">functional</text>
</a>
</g>
</g>
<!-- Node18&#45;&gt;Node26 -->
<g id="edge39" class="edge">
<title>Node18&#45;&gt;Node26</title>
<path fill="none" stroke="#191970" d="M302.4494,-224.2977C291.9779,-215.2274 278.6789,-203.7077 267.9662,-194.4285"/>
<polygon fill="#191970" stroke="#191970" points="270.2182,-191.7487 260.368,-187.8469 265.6351,-197.0398 270.2182,-191.7487"/>
</g>
<!-- Node27 -->
<g id="node27" class="node">
<title>Node27</title>
<g id="a_node27"><a xlink:title=" ">
<polygon fill="#ffffff" stroke="#bfbfbf" points="299.5,-168.5 299.5,-187.5 340.5,-187.5 340.5,-168.5 299.5,-168.5"/>
<text text-anchor="middle" x="320" y="-175.5" font-family="Helvetica,sans-Serif" font-size="10.00" fill="#000000">tuple</text>
</a>
</g>
</g>
<!-- Node18&#45;&gt;Node27 -->
<g id="edge40" class="edge">
<title>Node18&#45;&gt;Node27</title>
<path fill="none" stroke="#191970" d="M320,-224.2977C320,-216.3834 320,-206.6043 320,-198.0759"/>
<polygon fill="#191970" stroke="#191970" points="323.5001,-197.8469 320,-187.8469 316.5001,-197.847 323.5001,-197.8469"/>
</g>
<!-- Node20&#45;&gt;Node4 -->
<g id="edge28" class="edge">
<title>Node20&#45;&gt;Node4</title>
<path fill="none" stroke="#191970" d="M584.8113,-168.3214C595.5195,-155.2039 615.5375,-131.2138 634,-112 664.2534,-80.5155 701.8957,-46.2943 724.0983,-26.5748"/>
<polygon fill="#191970" stroke="#191970" points="726.6298,-29.0085 731.8041,-19.7631 721.9937,-23.7638 726.6298,-29.0085"/>
</g>
<!-- Node20&#45;&gt;Node9 -->
<g id="edge29" class="edge">
<title>Node20&#45;&gt;Node9</title>
<path fill="none" stroke="#191970" d="M579.8881,-168.4862C587.9849,-141.8144 611.0268,-65.9117 622.0212,-29.695"/>
<polygon fill="#191970" stroke="#191970" points="625.4607,-30.4134 625.0165,-19.8279 618.7626,-28.38 625.4607,-30.4134"/>
</g>
<!-- Node20&#45;&gt;Node19 -->
<g id="edge30" class="edge">
<title>Node20&#45;&gt;Node19</title>
<path fill="none" stroke="#191970" d="M515.4455,-169.1817C512.2526,-168.7708 509.0894,-168.3743 506,-168 367.1028,-151.1727 203.7317,-135.6254 116.121,-127.6316"/>
<polygon fill="#191970" stroke="#191970" points="116.3529,-124.1383 106.0769,-126.718 115.7187,-131.1095 116.3529,-124.1383"/>
</g>
<!-- Node20&#45;&gt;Node21 -->
<g id="edge31" class="edge">
<title>Node20&#45;&gt;Node21</title>
<path fill="none" stroke="#191970" d="M543.6502,-168.3733C510.972,-158.9404 461.0382,-144.5265 425.523,-134.2747"/>
<polygon fill="#191970" stroke="#191970" points="426.493,-130.9119 415.9146,-131.5011 424.5516,-137.6373 426.493,-130.9119"/>
</g>
<!-- Node22 -->
<g id="node22" class="node">
<title>Node22</title>
<g id="a_node22"><a xlink:title=" ">
<polygon fill="#ffffff" stroke="#bfbfbf" points="643.5,-112.5 643.5,-131.5 702.5,-131.5 702.5,-112.5 643.5,-112.5"/>
<text text-anchor="middle" x="673" y="-119.5" font-family="Helvetica,sans-Serif" font-size="10.00" fill="#000000">complex</text>
</a>
</g>
</g>
<!-- Node20&#45;&gt;Node22 -->
<g id="edge32" class="edge">
<title>Node20&#45;&gt;Node22</title>
<path fill="none" stroke="#191970" d="M593.7219,-168.2455C608.5889,-159.5731 630.5466,-146.7645 647.5858,-136.825"/>
<polygon fill="#191970" stroke="#191970" points="649.5955,-139.7047 656.4697,-131.6427 646.0683,-133.6582 649.5955,-139.7047"/>
</g>
<!-- Node23&#45;&gt;Node2 -->
<g id="edge35" class="edge">
<title>Node23&#45;&gt;Node2</title>
<path fill="none" stroke="#191970" d="M804.8446,-169.6767C874.8804,-159.048 995.317,-140.7703 1064.9629,-130.2008"/>
<polygon fill="#191970" stroke="#191970" points="1065.4963,-133.66 1074.8579,-128.6991 1064.4459,-126.7392 1065.4963,-133.66"/>
</g>
<!-- Node28&#45;&gt;Node9 -->
<g id="edge43" class="edge">
<title>Node28&#45;&gt;Node9</title>
<path fill="none" stroke="#191970" d="M1065.6783,-291.4454C1031.3365,-284.1251 986.3049,-272.3063 949,-255 881.414,-223.6458 704.7799,-75.4692 646.7639,-26.0699"/>
<polygon fill="#191970" stroke="#191970" points="648.971,-23.3522 639.0919,-19.5239 644.4274,-28.6772 648.971,-23.3522"/>
</g>
<!-- Node29 -->
<g id="node29" class="node">
<title>Node29</title>
<g id="a_node29"><a xlink:href="sitkPixelIDValues_8h.html" target="_top" xlink:title=" ">
<polygon fill="#ffffff" stroke="#000000" points="958,-230 958,-249 1068,-249 1068,-230 958,-230"/>
<text text-anchor="middle" x="1013" y="-237" font-family="Helvetica,sans-Serif" font-size="10.00" fill="#000000">sitkPixelIDValues.h</text>
</a>
</g>
</g>
<!-- Node28&#45;&gt;Node29 -->
<g id="edge44" class="edge">
<title>Node28&#45;&gt;Node29</title>
<path fill="none" stroke="#191970" d="M1102.4375,-291.3906C1085.2463,-281.4165 1058.1418,-265.6908 1038.2734,-254.1633"/>
<polygon fill="#191970" stroke="#191970" points="1039.8523,-251.033 1029.4462,-249.0419 1036.3394,-257.0877 1039.8523,-251.033"/>
</g>
<!-- Node28&#45;&gt;Node31 -->
<g id="edge49" class="edge">
<title>Node28&#45;&gt;Node31</title>
<path fill="none" stroke="#191970" d="M1119.3125,-291.3906C1119.5897,-282.8657 1120.0036,-270.1392 1120.3521,-259.4235"/>
<polygon fill="#191970" stroke="#191970" points="1123.8561,-259.3534 1120.6831,-249.2449 1116.8598,-259.1258 1123.8561,-259.3534"/>
</g>
<!-- Node29&#45;&gt;Node2 -->
<g id="edge45" class="edge">
<title>Node29&#45;&gt;Node2</title>
<path fill="none" stroke="#191970" d="M1013.1966,-229.6163C1013.9826,-214.7137 1017.4457,-186.2925 1032,-168 1043.738,-153.2472 1061.5206,-142.666 1077.9562,-135.4011"/>
<polygon fill="#191970" stroke="#191970" points="1079.5096,-138.5465 1087.4218,-131.5004 1076.8425,-132.0745 1079.5096,-138.5465"/>
</g>
<!-- Node29&#45;&gt;Node15 -->
<g id="edge48" class="edge">
<title>Node29&#45;&gt;Node15</title>
<path fill="none" stroke="#191970" d="M1031.5938,-229.8906C1051.1553,-219.7811 1082.1501,-203.7628 1104.5309,-192.1962"/>
<polygon fill="#191970" stroke="#191970" points="1106.26,-195.2425 1113.5368,-187.5419 1103.0461,-189.0238 1106.26,-195.2425"/>
</g>
<!-- Node29&#45;&gt;Node20 -->
<g id="edge46" class="edge">
<title>Node29&#45;&gt;Node20</title>
<path fill="none" stroke="#191970" d="M957.7803,-231.711C879.3121,-220.6426 735.4715,-200.3532 648.8063,-188.1286"/>
<polygon fill="#191970" stroke="#191970" points="649.1794,-184.6467 638.7885,-186.7156 648.2016,-191.5781 649.1794,-184.6467"/>
</g>
<!-- Node30 -->
<g id="node30" class="node">
<title>Node30</title>
<g id="a_node30"><a xlink:title=" ">
<polygon fill="#ffffff" stroke="#bfbfbf" points="1041,-168.5 1041,-187.5 1085,-187.5 1085,-168.5 1041,-168.5"/>
<text text-anchor="middle" x="1063" y="-175.5" font-family="Helvetica,sans-Serif" font-size="10.00" fill="#000000">string</text>
</a>
</g>
</g>
<!-- Node29&#45;&gt;Node30 -->
<g id="edge47" class="edge">
<title>Node29&#45;&gt;Node30</title>
<path fill="none" stroke="#191970" d="M1020.8125,-229.8906C1028.254,-220.7376 1039.6334,-206.7409 1048.6992,-195.59"/>
<polygon fill="#191970" stroke="#191970" points="1051.4847,-197.712 1055.0774,-187.7449 1046.0533,-193.2962 1051.4847,-197.712"/>
</g>
</g>
</svg>
        <g id="navigator" transform="translate(0 0)" fill="#404254">
                <rect fill="#f2f5e9" fill-opacity="0.5" stroke="#606060" stroke-width=".5" x="0" y="0" width="60" height="60"/>
                <use id="zoomplus" xlink:href="#zoomPlus" x="17" y="9" onmousedown="handleZoom(evt,'in')"/>
                <use id="zoomminus" xlink:href="#zoomMin" x="42" y="9" onmousedown="handleZoom(evt,'out')"/>
                <use id="reset" xlink:href="#resetDef" x="30" y="36" onmousedown="handleReset()"/>
                <g id="arrowUp" xlink:href="#dirArrow" transform="translate(30 24)" onmousedown="handlePan(0,-1)">
                  <use xlink:href="#rim" fill="#404040">
                        <set attributeName="fill" to="#808080" begin="arrowUp.mouseover" end="arrowUp.mouseout"/>
                  </use>
                  <path fill="none" stroke="white" stroke-width="1.5" d="M0,-3.0v7 M-2.5,-0.5L0,-3.0L2.5,-0.5"/>
                </g>
                <g id="arrowRight" xlink:href="#dirArrow" transform="rotate(90) translate(36 -43)" onmousedown="handlePan(1,0)">
                  <use xlink:href="#rim" fill="#404040">
                        <set attributeName="fill" to="#808080" begin="arrowRight.mouseover" end="arrowRight.mouseout"/>
                  </use>
                  <path fill="none" stroke="white" stroke-width="1.5" d="M0,-3.0v7 M-2.5,-0.5L0,-3.0L2.5,-0.5"/>
                </g>
                <g id="arrowDown" xlink:href="#dirArrow" transform="rotate(180) translate(-30 -48)" onmousedown="handlePan(0,1)">
                  <use xlink:href="#rim" fill="#404040">
                        <set attributeName="fill" to="#808080" begin="arrowDown.mouseover" end="arrowDown.mouseout"/>
                  </use>
                  <path fill="none" stroke="white" stroke-width="1.5" d="M0,-3.0v7 M-2.5,-0.5L0,-3.0L2.5,-0.5"/>
                </g>
                <g id="arrowLeft" xlink:href="#dirArrow" transform="rotate(270) translate(-36 17)" onmousedown="handlePan(-1,0)">
                  <use xlink:href="#rim" fill="#404040">
                        <set attributeName="fill" to="#808080" begin="arrowLeft.mouseover" end="arrowLeft.mouseout"/>
                  </use>
                  <path fill="none" stroke="white" stroke-width="1.5" d="M0,-3.0v7 M-2.5,-0.5L0,-3.0L2.5,-0.5"/>
                </g>
        </g>
        <svg viewBox="0 0 15 15" width="100%" height="30px" preserveAspectRatio="xMaxYMin meet">
         <g id="arrow_out" transform="scale(0.3 0.3)">
          <a xlink:href="sitkBSplineTransform_8h__incl_org.svg" target="_base">
           <rect id="button" ry="5" rx="5" y="6" x="6" height="38" width="38"
                fill="#f2f5e9" fill-opacity="0.5" stroke="#606060" stroke-width="1.0"/>
           <path id="arrow"
             d="M 11.500037,31.436501 C 11.940474,20.09759 22.043105,11.32322 32.158766,21.979434 L 37.068811,17.246167 C 37.068811,17.246167 37.088388,32 37.088388,32 L 22.160133,31.978069 C 22.160133,31.978069 26.997745,27.140456 26.997745,27.140456 C 18.528582,18.264221 13.291696,25.230495 11.500037,31.436501 z"
             style="fill:#404040;"/>
          </a>
         </g>
        </svg>
</svg>
