<?xml version="1.0" encoding="UTF-8" standalone="no"?>
<!DOCTYPE svg PUBLIC "-//W3C//DTD SVG 1.1//EN"
 "http://www.w3.org/Graphics/SVG/1.1/DTD/svg11.dtd">
<!-- Generated by graphviz version 2.40.1 (20161225.0304)
 -->
<!-- Title: sitkImageViewer.h Pages: 1 -->
<svg width="1483pt" height="543pt"
 viewBox="0.00 0.00 1482.50 543.00" xmlns="http://www.w3.org/2000/svg" xmlns:xlink="http://www.w3.org/1999/xlink">
<g id="graph0" class="graph" transform="scale(1 1) rotate(0) translate(4 539)">
<title>sitkImageViewer.h</title>
<polygon fill="#ffffff" stroke="transparent" points="-4,4 -4,-539 1478.5,-539 1478.5,4 -4,4"/>
<!-- Node1 -->
<g id="node1" class="node">
<title>Node1</title>
<g id="a_node1"><a xlink:title=" ">
<polygon fill="#bfbfbf" stroke="#000000" points="739,-515.5 739,-534.5 846,-534.5 846,-515.5 739,-515.5"/>
<text text-anchor="middle" x="792.5" y="-522.5" font-family="Helvetica,sans-Serif" font-size="10.00" fill="#000000">sitkImageViewer.h</text>
</a>
</g>
</g>
<!-- Node2 -->
<g id="node2" class="node">
<title>Node2</title>
<g id="a_node2"><a xlink:href="sitkImage_8h.html" target="_top" xlink:title=" ">
<polygon fill="#ffffff" stroke="#000000" points="492.5,-347.5 492.5,-366.5 566.5,-366.5 566.5,-347.5 492.5,-347.5"/>
<text text-anchor="middle" x="529.5" y="-354.5" font-family="Helvetica,sans-Serif" font-size="10.00" fill="#000000">sitkImage.h</text>
</a>
</g>
</g>
<!-- Node1&#45;&gt;Node2 -->
<g id="edge1" class="edge">
<title>Node1&#45;&gt;Node2</title>
<path fill="none" stroke="#191970" d="M789.93,-515.2936C783.2383,-492.001 762.9895,-432.6754 723.5,-403 700.5888,-385.7828 626.1468,-371.5926 576.4248,-363.7172"/>
<polygon fill="#191970" stroke="#191970" points="576.9437,-360.2559 566.5251,-362.1804 575.8699,-367.173 576.9437,-360.2559"/>
</g>
<!-- Node31 -->
<g id="node31" class="node">
<title>Node31</title>
<g id="a_node31"><a xlink:href="sitkIO_8h.html" target="_top" xlink:title=" ">
<polygon fill="#ffffff" stroke="#000000" points="804,-347.5 804,-366.5 857,-366.5 857,-347.5 804,-347.5"/>
<text text-anchor="middle" x="830.5" y="-354.5" font-family="Helvetica,sans-Serif" font-size="10.00" fill="#000000">sitkIO.h</text>
</a>
</g>
</g>
<!-- Node1&#45;&gt;Node31 -->
<g id="edge48" class="edge">
<title>Node1&#45;&gt;Node31</title>
<path fill="none" stroke="#191970" d="M795.7947,-515.21C798.8351,-505.952 803.3433,-491.6342 806.5,-479 815.4441,-443.2027 823.1439,-400.8192 827.2736,-376.6036"/>
<polygon fill="#191970" stroke="#191970" points="830.7551,-377.0051 828.9579,-366.5639 823.8516,-375.847 830.7551,-377.0051"/>
</g>
<!-- Node32 -->
<g id="node32" class="node">
<title>Node32</title>
<g id="a_node32"><a xlink:href="sitkProcessObject_8h.html" target="_top" xlink:title=" ">
<polygon fill="#ffffff" stroke="#000000" points="473,-459.5 473,-478.5 586,-478.5 586,-459.5 473,-459.5"/>
<text text-anchor="middle" x="529.5" y="-466.5" font-family="Helvetica,sans-Serif" font-size="10.00" fill="#000000">sitkProcessObject.h</text>
</a>
</g>
</g>
<!-- Node1&#45;&gt;Node32 -->
<g id="edge50" class="edge">
<title>Node1&#45;&gt;Node32</title>
<path fill="none" stroke="#191970" d="M747.5875,-515.4369C702.388,-505.8127 632.6193,-490.957 584.2153,-480.6504"/>
<polygon fill="#191970" stroke="#191970" points="584.7369,-477.1831 574.2272,-478.5237 583.279,-484.0296 584.7369,-477.1831"/>
</g>
<!-- Node3 -->
<g id="node3" class="node">
<title>Node3</title>
<g id="a_node3"><a xlink:href="sitkCommon_8h.html" target="_top" xlink:title=" ">
<polygon fill="#ffffff" stroke="#000000" points="328.5,-112.5 328.5,-131.5 416.5,-131.5 416.5,-112.5 328.5,-112.5"/>
<text text-anchor="middle" x="372.5" y="-119.5" font-family="Helvetica,sans-Serif" font-size="10.00" fill="#000000">sitkCommon.h</text>
</a>
</g>
</g>
<!-- Node2&#45;&gt;Node3 -->
<g id="edge2" class="edge">
<title>Node2&#45;&gt;Node3</title>
<path fill="none" stroke="#191970" d="M519.2324,-347.383C510.5601,-338.6877 498.4706,-325.1181 491.5,-311 462.6236,-252.5143 498.1406,-219.7981 458.5,-168 447.2312,-153.2751 429.8666,-142.7306 413.6835,-135.4844"/>
<polygon fill="#191970" stroke="#191970" points="414.9234,-132.2094 404.3466,-131.5925 412.2301,-138.6706 414.9234,-132.2094"/>
</g>
<!-- Node11 -->
<g id="node11" class="node">
<title>Node11</title>
<g id="a_node11"><a xlink:href="sitkTemplateFunctions_8h.html" target="_top" xlink:title=" ">
<polygon fill="#ffffff" stroke="#000000" points="272.5,-230 272.5,-249 406.5,-249 406.5,-230 272.5,-230"/>
<text text-anchor="middle" x="339.5" y="-237" font-family="Helvetica,sans-Serif" font-size="10.00" fill="#000000">sitkTemplateFunctions.h</text>
</a>
</g>
</g>
<!-- Node2&#45;&gt;Node11 -->
<g id="edge10" class="edge">
<title>Node2&#45;&gt;Node11</title>
<path fill="none" stroke="#191970" d="M500.0143,-347.4958C477.3338,-339.5042 445.7135,-326.852 420.5,-311 395.8889,-295.5267 371.3893,-272.5827 355.8866,-256.8848"/>
<polygon fill="#191970" stroke="#191970" points="358.1196,-254.1597 348.6469,-249.4143 353.0928,-259.0312 358.1196,-254.1597"/>
</g>
<!-- Node13 -->
<g id="node13" class="node">
<title>Node13</title>
<g id="a_node13"><a xlink:title=" ">
<polygon fill="#ffffff" stroke="#bfbfbf" points="403,-168.5 403,-187.5 450,-187.5 450,-168.5 403,-168.5"/>
<text text-anchor="middle" x="426.5" y="-175.5" font-family="Helvetica,sans-Serif" font-size="10.00" fill="#000000">vector</text>
</a>
</g>
</g>
<!-- Node2&#45;&gt;Node13 -->
<g id="edge45" class="edge">
<title>Node2&#45;&gt;Node13</title>
<path fill="none" stroke="#191970" d="M505.9565,-347.399C490.2139,-339.7924 470.2957,-327.6628 458.5,-311 434.0176,-276.4157 428.1176,-225.4357 426.79,-197.7125"/>
<polygon fill="#191970" stroke="#191970" points="430.2871,-197.5631 426.465,-187.6817 423.2908,-197.7899 430.2871,-197.5631"/>
</g>
<!-- Node16 -->
<g id="node16" class="node">
<title>Node16</title>
<g id="a_node16"><a xlink:href="sitkDetail_8h.html" target="_top" xlink:title=" ">
<polygon fill="#ffffff" stroke="#000000" points="1135,-291.5 1135,-310.5 1208,-310.5 1208,-291.5 1135,-291.5"/>
<text text-anchor="middle" x="1171.5" y="-298.5" font-family="Helvetica,sans-Serif" font-size="10.00" fill="#000000">sitkDetail.h</text>
</a>
</g>
</g>
<!-- Node2&#45;&gt;Node16 -->
<g id="edge19" class="edge">
<title>Node2&#45;&gt;Node16</title>
<path fill="none" stroke="#191970" d="M566.7916,-353.7472C677.3066,-344.1072 1002.9417,-315.7029 1124.7819,-305.0751"/>
<polygon fill="#191970" stroke="#191970" points="1125.2475,-308.5479 1134.9055,-304.192 1124.6391,-301.5743 1125.2475,-308.5479"/>
</g>
<!-- Node26 -->
<g id="node26" class="node">
<title>Node26</title>
<g id="a_node26"><a xlink:href="sitkPixelIDTokens_8h.html" target="_top" xlink:title=" ">
<polygon fill="#ffffff" stroke="#000000" points="614.5,-291.5 614.5,-310.5 726.5,-310.5 726.5,-291.5 614.5,-291.5"/>
<text text-anchor="middle" x="670.5" y="-298.5" font-family="Helvetica,sans-Serif" font-size="10.00" fill="#000000">sitkPixelIDTokens.h</text>
</a>
</g>
</g>
<!-- Node2&#45;&gt;Node26 -->
<g id="edge37" class="edge">
<title>Node2&#45;&gt;Node26</title>
<path fill="none" stroke="#191970" d="M553.7388,-347.3733C576.7789,-338.2226 611.6214,-324.3844 637.2501,-314.2057"/>
<polygon fill="#191970" stroke="#191970" points="638.5756,-317.4452 646.5775,-310.5011 635.9918,-310.9395 638.5756,-317.4452"/>
</g>
<!-- Node29 -->
<g id="node29" class="node">
<title>Node29</title>
<g id="a_node29"><a xlink:title=" ">
<polygon fill="#ffffff" stroke="#bfbfbf" points="528,-230 528,-249 597,-249 597,-230 528,-230"/>
<text text-anchor="middle" x="562.5" y="-237" font-family="Helvetica,sans-Serif" font-size="10.00" fill="#000000">type_traits</text>
</a>
</g>
</g>
<!-- Node2&#45;&gt;Node29 -->
<g id="edge47" class="edge">
<title>Node2&#45;&gt;Node29</title>
<path fill="none" stroke="#191970" d="M540.9453,-347.3916C550.0993,-338.901 562.2419,-325.6212 567.5,-311 573.5401,-294.2044 571.2419,-273.7834 568.0532,-259.0724"/>
<polygon fill="#191970" stroke="#191970" points="571.3798,-257.9468 565.5645,-249.0905 564.5877,-259.6402 571.3798,-257.9468"/>
</g>
<!-- Node30 -->
<g id="node30" class="node">
<title>Node30</title>
<g id="a_node30"><a xlink:title=" ">
<polygon fill="#ffffff" stroke="#bfbfbf" points="500.5,-291.5 500.5,-310.5 558.5,-310.5 558.5,-291.5 500.5,-291.5"/>
<text text-anchor="middle" x="529.5" y="-298.5" font-family="Helvetica,sans-Serif" font-size="10.00" fill="#000000">memory</text>
</a>
</g>
</g>
<!-- Node2&#45;&gt;Node30 -->
<g id="edge46" class="edge">
<title>Node2&#45;&gt;Node30</title>
<path fill="none" stroke="#191970" d="M529.5,-347.2455C529.5,-339.9382 529.5,-329.6944 529.5,-320.7046"/>
<polygon fill="#191970" stroke="#191970" points="533.0001,-320.6426 529.5,-310.6427 526.0001,-320.6427 533.0001,-320.6426"/>
</g>
<!-- Node4 -->
<g id="node4" class="node">
<title>Node4</title>
<g id="a_node4"><a xlink:href="sitkMacro_8h.html" target="_top" xlink:title=" ">
<polygon fill="#ffffff" stroke="#000000" points="717,-56.5 717,-75.5 790,-75.5 790,-56.5 717,-56.5"/>
<text text-anchor="middle" x="753.5" y="-63.5" font-family="Helvetica,sans-Serif" font-size="10.00" fill="#000000">sitkMacro.h</text>
</a>
</g>
</g>
<!-- Node3&#45;&gt;Node4 -->
<g id="edge3" class="edge">
<title>Node3&#45;&gt;Node4</title>
<path fill="none" stroke="#191970" d="M416.5777,-115.5214C489.0718,-104.8661 632.8029,-83.7403 706.9077,-72.8482"/>
<polygon fill="#191970" stroke="#191970" points="707.5027,-76.2984 716.8874,-71.3814 706.4847,-69.3729 707.5027,-76.2984"/>
</g>
<!-- Node5 -->
<g id="node5" class="node">
<title>Node5</title>
<g id="a_node5"><a xlink:title=" ">
<polygon fill="#ffffff" stroke="#bfbfbf" points="870,-.5 870,-19.5 923,-19.5 923,-.5 870,-.5"/>
<text text-anchor="middle" x="896.5" y="-7.5" font-family="Helvetica,sans-Serif" font-size="10.00" fill="#000000">stdint.h</text>
</a>
</g>
</g>
<!-- Node4&#45;&gt;Node5 -->
<g id="edge4" class="edge">
<title>Node4&#45;&gt;Node5</title>
<path fill="none" stroke="#191970" d="M778.0826,-56.3733C801.4496,-47.2226 836.7862,-33.3844 862.7784,-23.2057"/>
<polygon fill="#191970" stroke="#191970" points="864.203,-26.4066 872.2382,-19.5011 861.6505,-19.8886 864.203,-26.4066"/>
</g>
<!-- Node6 -->
<g id="node6" class="node">
<title>Node6</title>
<g id="a_node6"><a xlink:title=" ">
<polygon fill="#ffffff" stroke="#bfbfbf" points="725.5,-.5 725.5,-19.5 781.5,-19.5 781.5,-.5 725.5,-.5"/>
<text text-anchor="middle" x="753.5" y="-7.5" font-family="Helvetica,sans-Serif" font-size="10.00" fill="#000000">stddef.h</text>
</a>
</g>
</g>
<!-- Node4&#45;&gt;Node6 -->
<g id="edge5" class="edge">
<title>Node4&#45;&gt;Node6</title>
<path fill="none" stroke="#191970" d="M753.5,-56.2455C753.5,-48.9382 753.5,-38.6944 753.5,-29.7046"/>
<polygon fill="#191970" stroke="#191970" points="757.0001,-29.6426 753.5,-19.6427 750.0001,-29.6427 757.0001,-29.6426"/>
</g>
<!-- Node7 -->
<g id="node7" class="node">
<title>Node7</title>
<g id="a_node7"><a xlink:title=" ">
<polygon fill="#ffffff" stroke="#bfbfbf" points="799.5,-.5 799.5,-19.5 851.5,-19.5 851.5,-.5 799.5,-.5"/>
<text text-anchor="middle" x="825.5" y="-7.5" font-family="Helvetica,sans-Serif" font-size="10.00" fill="#000000">cassert</text>
</a>
</g>
</g>
<!-- Node4&#45;&gt;Node7 -->
<g id="edge6" class="edge">
<title>Node4&#45;&gt;Node7</title>
<path fill="none" stroke="#191970" d="M766.0414,-56.2455C776.7787,-47.8943 792.4473,-35.7076 805.0047,-25.9408"/>
<polygon fill="#191970" stroke="#191970" points="807.3575,-28.5449 813.1023,-19.6427 803.0599,-23.0194 807.3575,-28.5449"/>
</g>
<!-- Node8 -->
<g id="node8" class="node">
<title>Node8</title>
<g id="a_node8"><a xlink:title=" ">
<polygon fill="#ffffff" stroke="#bfbfbf" points="589.5,-.5 589.5,-19.5 645.5,-19.5 645.5,-.5 589.5,-.5"/>
<text text-anchor="middle" x="617.5" y="-7.5" font-family="Helvetica,sans-Serif" font-size="10.00" fill="#000000">sstream</text>
</a>
</g>
</g>
<!-- Node4&#45;&gt;Node8 -->
<g id="edge7" class="edge">
<title>Node4&#45;&gt;Node8</title>
<path fill="none" stroke="#191970" d="M730.1208,-56.3733C707.9955,-47.2629 674.5866,-33.5062 649.8981,-23.3404"/>
<polygon fill="#191970" stroke="#191970" points="651.1536,-20.0723 640.5742,-19.5011 648.4883,-26.5451 651.1536,-20.0723"/>
</g>
<!-- Node9 -->
<g id="node9" class="node">
<title>Node9</title>
<g id="a_node9"><a xlink:title=" ">
<polygon fill="#ffffff" stroke="#bfbfbf" points="663.5,-.5 663.5,-19.5 707.5,-19.5 707.5,-.5 663.5,-.5"/>
<text text-anchor="middle" x="685.5" y="-7.5" font-family="Helvetica,sans-Serif" font-size="10.00" fill="#000000">limits</text>
</a>
</g>
</g>
<!-- Node4&#45;&gt;Node9 -->
<g id="edge8" class="edge">
<title>Node4&#45;&gt;Node9</title>
<path fill="none" stroke="#191970" d="M741.6553,-56.2455C731.612,-47.9746 717.0005,-35.9416 705.1996,-26.2232"/>
<polygon fill="#191970" stroke="#191970" points="707.1533,-23.298 697.209,-19.6427 702.7033,-28.7015 707.1533,-23.298"/>
</g>
<!-- Node10 -->
<g id="node10" class="node">
<title>Node10</title>
<g id="a_node10"><a xlink:href="sitkConfigure_8h.html" target="_top" xlink:title=" ">
<polygon fill="#ffffff" stroke="#000000" points="954.5,-.5 954.5,-19.5 1044.5,-19.5 1044.5,-.5 954.5,-.5"/>
<text text-anchor="middle" x="999.5" y="-7.5" font-family="Helvetica,sans-Serif" font-size="10.00" fill="#000000">sitkConfigure.h</text>
</a>
</g>
</g>
<!-- Node4&#45;&gt;Node10 -->
<g id="edge9" class="edge">
<title>Node4&#45;&gt;Node10</title>
<path fill="none" stroke="#191970" d="M790.0631,-57.6767C831.7109,-48.1959 900.0935,-32.6291 947.3316,-21.8757"/>
<polygon fill="#191970" stroke="#191970" points="948.3958,-25.2231 957.3695,-19.5907 946.842,-18.3977 948.3958,-25.2231"/>
</g>
<!-- Node11&#45;&gt;Node3 -->
<g id="edge12" class="edge">
<title>Node11&#45;&gt;Node3</title>
<path fill="none" stroke="#191970" d="M332.465,-229.9268C323.0852,-215.9016 308.7368,-189.1421 318.5,-168 324.3259,-155.384 335.5069,-144.9528 346.1905,-137.2314"/>
<polygon fill="#191970" stroke="#191970" points="348.1856,-140.1076 354.5401,-131.6299 344.2858,-134.2946 348.1856,-140.1076"/>
</g>
<!-- Node11&#45;&gt;Node4 -->
<g id="edge11" class="edge">
<title>Node11&#45;&gt;Node4</title>
<path fill="none" stroke="#191970" d="M362.3481,-229.9248C431.7613,-200.8349 640.3425,-113.4223 721.0849,-79.5846"/>
<polygon fill="#191970" stroke="#191970" points="722.8524,-82.6388 730.7225,-75.5457 720.1468,-76.1828 722.8524,-82.6388"/>
</g>
<!-- Node12 -->
<g id="node12" class="node">
<title>Node12</title>
<g id="a_node12"><a xlink:href="sitkExceptionObject_8h.html" target="_top" xlink:title=" ">
<polygon fill="#ffffff" stroke="#000000" points="0,-168.5 0,-187.5 123,-187.5 123,-168.5 0,-168.5"/>
<text text-anchor="middle" x="61.5" y="-175.5" font-family="Helvetica,sans-Serif" font-size="10.00" fill="#000000">sitkExceptionObject.h</text>
</a>
</g>
</g>
<!-- Node11&#45;&gt;Node12 -->
<g id="edge13" class="edge">
<title>Node11&#45;&gt;Node12</title>
<path fill="none" stroke="#191970" d="M296.3675,-229.9581C247.3672,-219.1181 167.3767,-201.4224 114.5861,-189.7439"/>
<polygon fill="#191970" stroke="#191970" points="115.2536,-186.307 104.7337,-187.5643 113.7416,-193.1417 115.2536,-186.307"/>
</g>
<!-- Node11&#45;&gt;Node13 -->
<g id="edge16" class="edge">
<title>Node11&#45;&gt;Node13</title>
<path fill="none" stroke="#191970" d="M353.0938,-229.8906C366.8843,-220.1421 388.4472,-204.8994 404.641,-193.4521"/>
<polygon fill="#191970" stroke="#191970" points="406.8563,-196.1723 413.0017,-187.5419 402.8156,-190.4563 406.8563,-196.1723"/>
</g>
<!-- Node14 -->
<g id="node14" class="node">
<title>Node14</title>
<g id="a_node14"><a xlink:title=" ">
<polygon fill="#ffffff" stroke="#bfbfbf" points="328,-168.5 328,-187.5 385,-187.5 385,-168.5 328,-168.5"/>
<text text-anchor="middle" x="356.5" y="-175.5" font-family="Helvetica,sans-Serif" font-size="10.00" fill="#000000">ostream</text>
</a>
</g>
</g>
<!-- Node11&#45;&gt;Node14 -->
<g id="edge17" class="edge">
<title>Node11&#45;&gt;Node14</title>
<path fill="none" stroke="#191970" d="M342.1563,-229.8906C344.5375,-221.276 348.1048,-208.3708 351.086,-197.5858"/>
<polygon fill="#191970" stroke="#191970" points="354.5154,-198.3159 353.8063,-187.7449 347.7684,-196.4509 354.5154,-198.3159"/>
</g>
<!-- Node15 -->
<g id="node15" class="node">
<title>Node15</title>
<g id="a_node15"><a xlink:title=" ">
<polygon fill="#ffffff" stroke="#bfbfbf" points="218,-168.5 218,-187.5 271,-187.5 271,-168.5 218,-168.5"/>
<text text-anchor="middle" x="244.5" y="-175.5" font-family="Helvetica,sans-Serif" font-size="10.00" fill="#000000">iterator</text>
</a>
</g>
</g>
<!-- Node11&#45;&gt;Node15 -->
<g id="edge18" class="edge">
<title>Node11&#45;&gt;Node15</title>
<path fill="none" stroke="#191970" d="M324.6563,-229.8906C309.4582,-220.0519 285.6152,-204.6167 267.8794,-193.1351"/>
<polygon fill="#191970" stroke="#191970" points="269.5361,-190.0382 259.2395,-187.5419 265.732,-195.9144 269.5361,-190.0382"/>
</g>
<!-- Node12&#45;&gt;Node3 -->
<g id="edge15" class="edge">
<title>Node12&#45;&gt;Node3</title>
<path fill="none" stroke="#191970" d="M114.6094,-168.4369C171.3996,-158.211 260.9891,-142.0791 318.2238,-131.7732"/>
<polygon fill="#191970" stroke="#191970" points="318.9476,-135.1992 328.1691,-129.9824 317.7071,-128.31 318.9476,-135.1992"/>
</g>
<!-- Node12&#45;&gt;Node4 -->
<g id="edge14" class="edge">
<title>Node12&#45;&gt;Node4</title>
<path fill="none" stroke="#191970" d="M92.5538,-168.4975C140.6958,-154.1218 236.4563,-126.9416 319.5,-112 459.202,-86.8642 626.854,-73.8828 706.7356,-68.7276"/>
<polygon fill="#191970" stroke="#191970" points="707.1953,-72.2056 716.9539,-68.0802 706.7526,-65.2196 707.1953,-72.2056"/>
</g>
<!-- Node17 -->
<g id="node17" class="node">
<title>Node17</title>
<g id="a_node17"><a xlink:href="sitkMemberFunctionFactoryBase_8h.html" target="_top" xlink:title=" ">
<polygon fill="#ffffff" stroke="#000000" points="1096.5,-224.5 1096.5,-254.5 1246.5,-254.5 1246.5,-224.5 1096.5,-224.5"/>
<text text-anchor="start" x="1104.5" y="-242.5" font-family="Helvetica,sans-Serif" font-size="10.00" fill="#000000">sitkMemberFunctionFactory</text>
<text text-anchor="middle" x="1171.5" y="-231.5" font-family="Helvetica,sans-Serif" font-size="10.00" fill="#000000">Base.h</text>
</a>
</g>
</g>
<!-- Node16&#45;&gt;Node17 -->
<g id="edge20" class="edge">
<title>Node16&#45;&gt;Node17</title>
<path fill="none" stroke="#191970" d="M1171.5,-291.3906C1171.5,-284.2234 1171.5,-274.0862 1171.5,-264.671"/>
<polygon fill="#191970" stroke="#191970" points="1175.0001,-264.5446 1171.5,-254.5446 1168.0001,-264.5446 1175.0001,-264.5446"/>
</g>
<!-- Node23 -->
<g id="node23" class="node">
<title>Node23</title>
<g id="a_node23"><a xlink:title=" ">
<polygon fill="#ffffff" stroke="#bfbfbf" points="1336.5,-168.5 1336.5,-187.5 1474.5,-187.5 1474.5,-168.5 1336.5,-168.5"/>
<text text-anchor="middle" x="1405.5" y="-175.5" font-family="Helvetica,sans-Serif" font-size="10.00" fill="#000000">Ancillary/FunctionTraits.h</text>
</a>
</g>
</g>
<!-- Node16&#45;&gt;Node23 -->
<g id="edge36" class="edge">
<title>Node16&#45;&gt;Node23</title>
<path fill="none" stroke="#191970" d="M1189.8616,-291.3484C1230.8704,-269.7925 1330.0805,-217.6436 1378.2934,-192.3009"/>
<polygon fill="#191970" stroke="#191970" points="1380.0005,-195.3577 1387.2237,-187.6068 1376.7436,-189.1615 1380.0005,-195.3577"/>
</g>
<!-- Node17&#45;&gt;Node4 -->
<g id="edge29" class="edge">
<title>Node17&#45;&gt;Node4</title>
<path fill="none" stroke="#191970" d="M1096.4445,-231.4972C1022.3071,-222.6817 914.7624,-207.179 877.5,-188 864.5039,-181.3109 800.251,-114.9697 769.6969,-83.0227"/>
<polygon fill="#191970" stroke="#191970" points="772.1429,-80.5162 762.7067,-75.6988 767.0792,-85.3493 772.1429,-80.5162"/>
</g>
<!-- Node17&#45;&gt;Node10 -->
<g id="edge21" class="edge">
<title>Node17&#45;&gt;Node10</title>
<path fill="none" stroke="#191970" d="M1204.1996,-224.323C1248.8092,-201.4959 1319.8202,-156.268 1288.5,-112 1260.9645,-73.0814 1130.3631,-38.6678 1054.4844,-21.5231"/>
<polygon fill="#191970" stroke="#191970" points="1055.1315,-18.0814 1044.6092,-19.3193 1053.6068,-24.9134 1055.1315,-18.0814"/>
</g>
<!-- Node18 -->
<g id="node18" class="node">
<title>Node18</title>
<g id="a_node18"><a xlink:href="sitkPixelIDTypes_8h.html" target="_top" xlink:title=" ">
<polygon fill="#ffffff" stroke="#000000" points="1173.5,-112.5 1173.5,-131.5 1279.5,-131.5 1279.5,-112.5 1173.5,-112.5"/>
<text text-anchor="middle" x="1226.5" y="-119.5" font-family="Helvetica,sans-Serif" font-size="10.00" fill="#000000">sitkPixelIDTypes.h</text>
</a>
</g>
</g>
<!-- Node17&#45;&gt;Node18 -->
<g id="edge22" class="edge">
<title>Node17&#45;&gt;Node18</title>
<path fill="none" stroke="#191970" d="M1206.9931,-224.4687C1222.045,-216.0984 1238.0391,-204.0734 1246.5,-188 1254.475,-172.8496 1247.2999,-154.0313 1239.4118,-140.3701"/>
<polygon fill="#191970" stroke="#191970" points="1242.3207,-138.4216 1234.0143,-131.8447 1236.4064,-142.166 1242.3207,-138.4216"/>
</g>
<!-- Node19 -->
<g id="node19" class="node">
<title>Node19</title>
<g id="a_node19"><a xlink:href="sitkPixelIDTypeLists_8h.html" target="_top" xlink:title=" ">
<polygon fill="#ffffff" stroke="#000000" points="887,-168.5 887,-187.5 1010,-187.5 1010,-168.5 887,-168.5"/>
<text text-anchor="middle" x="948.5" y="-175.5" font-family="Helvetica,sans-Serif" font-size="10.00" fill="#000000">sitkPixelIDTypeLists.h</text>
</a>
</g>
</g>
<!-- Node17&#45;&gt;Node19 -->
<g id="edge23" class="edge">
<title>Node17&#45;&gt;Node19</title>
<path fill="none" stroke="#191970" d="M1116.9481,-224.4554C1078.7608,-213.9239 1028.3912,-200.0328 992.7094,-190.1923"/>
<polygon fill="#191970" stroke="#191970" points="993.6277,-186.8149 983.0571,-187.5303 991.7667,-193.563 993.6277,-186.8149"/>
</g>
<!-- Node20 -->
<g id="node20" class="node">
<title>Node20</title>
<g id="a_node20"><a xlink:title=" ">
<polygon fill="#ffffff" stroke="#bfbfbf" points="1042,-112.5 1042,-131.5 1153,-131.5 1153,-112.5 1042,-112.5"/>
<text text-anchor="middle" x="1097.5" y="-119.5" font-family="Helvetica,sans-Serif" font-size="10.00" fill="#000000">Ancillary/TypeList.h</text>
</a>
</g>
</g>
<!-- Node17&#45;&gt;Node20 -->
<g id="edge32" class="edge">
<title>Node17&#45;&gt;Node20</title>
<path fill="none" stroke="#191970" d="M1190.871,-224.3606C1207.2862,-209.6422 1226.2802,-186.8165 1213.5,-168 1201.7317,-150.6734 1182.3078,-139.8731 1162.6891,-133.1409"/>
<polygon fill="#191970" stroke="#191970" points="1163.6634,-129.7786 1153.0752,-130.152 1161.5852,-136.463 1163.6634,-129.7786"/>
</g>
<!-- Node22 -->
<g id="node22" class="node">
<title>Node22</title>
<g id="a_node22"><a xlink:href="sitkNonCopyable_8h.html" target="_top" xlink:title=" ">
<polygon fill="#ffffff" stroke="#000000" points="645,-168.5 645,-187.5 754,-187.5 754,-168.5 645,-168.5"/>
<text text-anchor="middle" x="699.5" y="-175.5" font-family="Helvetica,sans-Serif" font-size="10.00" fill="#000000">sitkNonCopyable.h</text>
</a>
</g>
</g>
<!-- Node17&#45;&gt;Node22 -->
<g id="edge30" class="edge">
<title>Node17&#45;&gt;Node22</title>
<path fill="none" stroke="#191970" d="M1096.4494,-229.7212C1004.6256,-217.7568 850.7141,-197.7027 763.9871,-186.4024"/>
<polygon fill="#191970" stroke="#191970" points="764.3779,-182.9239 754.0095,-185.1024 763.4734,-189.8652 764.3779,-182.9239"/>
</g>
<!-- Node17&#45;&gt;Node23 -->
<g id="edge33" class="edge">
<title>Node17&#45;&gt;Node23</title>
<path fill="none" stroke="#191970" d="M1228.7428,-224.4554C1268.8138,-213.9239 1321.6679,-200.0328 1359.1099,-190.1923"/>
<polygon fill="#191970" stroke="#191970" points="1360.4564,-193.4573 1369.2383,-187.5303 1358.6771,-186.6872 1360.4564,-193.4573"/>
</g>
<!-- Node24 -->
<g id="node24" class="node">
<title>Node24</title>
<g id="a_node24"><a xlink:title=" ">
<polygon fill="#ffffff" stroke="#bfbfbf" points="1028,-168.5 1028,-187.5 1121,-187.5 1121,-168.5 1028,-168.5"/>
<text text-anchor="middle" x="1074.5" y="-175.5" font-family="Helvetica,sans-Serif" font-size="10.00" fill="#000000">unordered_map</text>
</a>
</g>
</g>
<!-- Node17&#45;&gt;Node24 -->
<g id="edge34" class="edge">
<title>Node17&#45;&gt;Node24</title>
<path fill="none" stroke="#191970" d="M1147.5225,-224.2977C1132.5624,-214.8127 1113.378,-202.6495 1098.4274,-193.1705"/>
<polygon fill="#191970" stroke="#191970" points="1100.061,-190.062 1089.7413,-187.6633 1096.3127,-195.9739 1100.061,-190.062"/>
</g>
<!-- Node25 -->
<g id="node25" class="node">
<title>Node25</title>
<g id="a_node25"><a xlink:title=" ">
<polygon fill="#ffffff" stroke="#bfbfbf" points="1139,-168.5 1139,-187.5 1204,-187.5 1204,-168.5 1139,-168.5"/>
<text text-anchor="middle" x="1171.5" y="-175.5" font-family="Helvetica,sans-Serif" font-size="10.00" fill="#000000">functional</text>
</a>
</g>
</g>
<!-- Node17&#45;&gt;Node25 -->
<g id="edge35" class="edge">
<title>Node17&#45;&gt;Node25</title>
<path fill="none" stroke="#191970" d="M1171.5,-224.2977C1171.5,-216.3834 1171.5,-206.6043 1171.5,-198.0759"/>
<polygon fill="#191970" stroke="#191970" points="1175.0001,-197.8469 1171.5,-187.8469 1168.0001,-197.847 1175.0001,-197.8469"/>
</g>
<!-- Node19&#45;&gt;Node5 -->
<g id="edge24" class="edge">
<title>Node19&#45;&gt;Node5</title>
<path fill="none" stroke="#191970" d="M939.3875,-168.2388C931.7307,-159.451 921.1577,-145.8267 915.5,-132 901.554,-97.9176 897.7691,-54.638 896.7881,-29.8534"/>
<polygon fill="#191970" stroke="#191970" points="900.2791,-29.4789 896.5037,-19.5796 893.2818,-29.6726 900.2791,-29.4789"/>
</g>
<!-- Node19&#45;&gt;Node10 -->
<g id="edge25" class="edge">
<title>Node19&#45;&gt;Node10</title>
<path fill="none" stroke="#191970" d="M962.236,-168.4372C972.876,-160.1594 986.8823,-147.1524 993.5,-132 1008.1469,-98.4634 1005.7732,-54.7025 1002.6705,-29.7412"/>
<polygon fill="#191970" stroke="#191970" points="1006.1164,-29.1118 1001.2521,-19.6997 999.1852,-30.0909 1006.1164,-29.1118"/>
</g>
<!-- Node19&#45;&gt;Node18 -->
<g id="edge26" class="edge">
<title>Node19&#45;&gt;Node18</title>
<path fill="none" stroke="#191970" d="M995.974,-168.4369C1043.9514,-158.7724 1118.117,-143.8326 1169.3051,-133.5213"/>
<polygon fill="#191970" stroke="#191970" points="1170.1099,-136.9296 1179.2218,-131.5237 1168.7275,-130.0674 1170.1099,-136.9296"/>
</g>
<!-- Node19&#45;&gt;Node20 -->
<g id="edge27" class="edge">
<title>Node19&#45;&gt;Node20</title>
<path fill="none" stroke="#191970" d="M974.114,-168.3733C998.5687,-159.1822 1035.6054,-145.2624 1062.7209,-135.0713"/>
<polygon fill="#191970" stroke="#191970" points="1064.0909,-138.2956 1072.2202,-131.5011 1061.6281,-131.7431 1064.0909,-138.2956"/>
</g>
<!-- Node21 -->
<g id="node21" class="node">
<title>Node21</title>
<g id="a_node21"><a xlink:title=" ">
<polygon fill="#ffffff" stroke="#bfbfbf" points="925,-112.5 925,-131.5 984,-131.5 984,-112.5 925,-112.5"/>
<text text-anchor="middle" x="954.5" y="-119.5" font-family="Helvetica,sans-Serif" font-size="10.00" fill="#000000">complex</text>
</a>
</g>
</g>
<!-- Node19&#45;&gt;Node21 -->
<g id="edge28" class="edge">
<title>Node19&#45;&gt;Node21</title>
<path fill="none" stroke="#191970" d="M949.5451,-168.2455C950.328,-160.9382 951.4256,-150.6944 952.3888,-141.7046"/>
<polygon fill="#191970" stroke="#191970" points="955.8815,-141.9587 953.4669,-131.6427 948.9214,-141.2129 955.8815,-141.9587"/>
</g>
<!-- Node22&#45;&gt;Node3 -->
<g id="edge31" class="edge">
<title>Node22&#45;&gt;Node3</title>
<path fill="none" stroke="#191970" d="M644.7676,-168.6269C584.1829,-158.2515 487.1329,-141.6313 426.7448,-131.2896"/>
<polygon fill="#191970" stroke="#191970" points="427.0938,-127.7985 416.6465,-129.5603 425.9122,-134.6981 427.0938,-127.7985"/>
</g>
<!-- Node26&#45;&gt;Node10 -->
<g id="edge38" class="edge">
<title>Node26&#45;&gt;Node10</title>
<path fill="none" stroke="#191970" d="M684.8535,-291.4331C698.0747,-282.4474 718.0712,-268.4136 734.5,-255 832.7819,-174.7562 941.3908,-68.1627 982.4935,-27.1145"/>
<polygon fill="#191970" stroke="#191970" points="985.2019,-29.3555 989.7909,-19.8061 980.2484,-24.4095 985.2019,-29.3555"/>
</g>
<!-- Node27 -->
<g id="node27" class="node">
<title>Node27</title>
<g id="a_node27"><a xlink:href="sitkPixelIDValues_8h.html" target="_top" xlink:title=" ">
<polygon fill="#ffffff" stroke="#000000" points="615.5,-230 615.5,-249 725.5,-249 725.5,-230 615.5,-230"/>
<text text-anchor="middle" x="670.5" y="-237" font-family="Helvetica,sans-Serif" font-size="10.00" fill="#000000">sitkPixelIDValues.h</text>
</a>
</g>
</g>
<!-- Node26&#45;&gt;Node27 -->
<g id="edge39" class="edge">
<title>Node26&#45;&gt;Node27</title>
<path fill="none" stroke="#191970" d="M670.5,-291.3906C670.5,-282.8657 670.5,-270.1392 670.5,-259.4235"/>
<polygon fill="#191970" stroke="#191970" points="674.0001,-259.2448 670.5,-249.2449 667.0001,-259.2449 674.0001,-259.2448"/>
</g>
<!-- Node26&#45;&gt;Node29 -->
<g id="edge44" class="edge">
<title>Node26&#45;&gt;Node29</title>
<path fill="none" stroke="#191970" d="M653.625,-291.3906C636.0302,-281.3713 608.2434,-265.5483 587.9759,-254.0071"/>
<polygon fill="#191970" stroke="#191970" points="589.6783,-250.9489 579.2565,-249.0419 586.2144,-257.0318 589.6783,-250.9489"/>
</g>
<!-- Node27&#45;&gt;Node3 -->
<g id="edge40" class="edge">
<title>Node27&#45;&gt;Node3</title>
<path fill="none" stroke="#191970" d="M646.9373,-229.8966C612.9067,-216.0583 547.9909,-189.7791 492.5,-168 463.841,-156.7519 431.2126,-144.2648 407.2206,-135.1424"/>
<polygon fill="#191970" stroke="#191970" points="408.4199,-131.854 397.8287,-131.5755 405.9345,-138.398 408.4199,-131.854"/>
</g>
<!-- Node27&#45;&gt;Node14 -->
<g id="edge43" class="edge">
<title>Node27&#45;&gt;Node14</title>
<path fill="none" stroke="#191970" d="M632.4419,-229.981C623.6207,-227.8981 614.2528,-225.7847 605.5,-224 514.9651,-205.5394 488.5848,-208.278 395.0016,-188.1782"/>
<polygon fill="#191970" stroke="#191970" points="395.6324,-184.7336 385.1165,-186.0247 394.1423,-191.5731 395.6324,-184.7336"/>
</g>
<!-- Node27&#45;&gt;Node19 -->
<g id="edge41" class="edge">
<title>Node27&#45;&gt;Node19</title>
<path fill="none" stroke="#191970" d="M713.6325,-229.9581C762.6328,-219.1181 842.6233,-201.4224 895.4139,-189.7439"/>
<polygon fill="#191970" stroke="#191970" points="896.2584,-193.1417 905.2663,-187.5643 894.7464,-186.307 896.2584,-193.1417"/>
</g>
<!-- Node28 -->
<g id="node28" class="node">
<title>Node28</title>
<g id="a_node28"><a xlink:title=" ">
<polygon fill="#ffffff" stroke="#bfbfbf" points="582.5,-168.5 582.5,-187.5 626.5,-187.5 626.5,-168.5 582.5,-168.5"/>
<text text-anchor="middle" x="604.5" y="-175.5" font-family="Helvetica,sans-Serif" font-size="10.00" fill="#000000">string</text>
</a>
</g>
</g>
<!-- Node27&#45;&gt;Node28 -->
<g id="edge42" class="edge">
<title>Node27&#45;&gt;Node28</title>
<path fill="none" stroke="#191970" d="M660.1875,-229.8906C650.0758,-220.4683 634.4558,-205.9134 622.3293,-194.6137"/>
<polygon fill="#191970" stroke="#191970" points="624.6601,-192.0015 614.9579,-187.7449 619.888,-197.1228 624.6601,-192.0015"/>
</g>
<!-- Node31&#45;&gt;Node4 -->
<g id="edge49" class="edge">
<title>Node31&#45;&gt;Node4</title>
<path fill="none" stroke="#191970" d="M827.9381,-347.3179C816.9537,-305.8054 773.7166,-142.403 758.6841,-85.5918"/>
<polygon fill="#191970" stroke="#191970" points="762.0132,-84.4904 756.0716,-75.7185 755.2461,-86.2811 762.0132,-84.4904"/>
</g>
<!-- Node32&#45;&gt;Node2 -->
<g id="edge57" class="edge">
<title>Node32&#45;&gt;Node2</title>
<path fill="none" stroke="#191970" d="M506.575,-459.3141C482.8799,-447.7672 450.9783,-426.9903 463.5,-403 470.6245,-389.3502 483.8523,-378.926 496.6056,-371.4806"/>
<polygon fill="#191970" stroke="#191970" points="498.5647,-374.4012 505.7141,-366.5822 495.2492,-368.2362 498.5647,-374.4012"/>
</g>
<!-- Node32&#45;&gt;Node3 -->
<g id="edge51" class="edge">
<title>Node32&#45;&gt;Node3</title>
<path fill="none" stroke="#191970" d="M472.9096,-464.0736C367.4602,-453.3225 151.5,-423.2206 151.5,-357 151.5,-357 151.5,-357 151.5,-239.5 151.5,-201.4714 167.635,-190.2154 198.5,-168 217.6749,-154.1986 274.9108,-140.6514 318.5512,-131.8739"/>
<polygon fill="#191970" stroke="#191970" points="319.346,-135.2846 328.4774,-129.9116 317.9884,-128.4175 319.346,-135.2846"/>
</g>
<!-- Node32&#45;&gt;Node11 -->
<g id="edge53" class="edge">
<title>Node32&#45;&gt;Node11</title>
<path fill="none" stroke="#191970" d="M509.8547,-459.4567C494.3895,-451.2779 472.9412,-438.3957 457.5,-423 405.9905,-371.6423 365.3578,-294.0734 348.2702,-258.5206"/>
<polygon fill="#191970" stroke="#191970" points="351.3447,-256.8345 343.9103,-249.2859 345.0147,-259.8231 351.3447,-256.8345"/>
</g>
<!-- Node32&#45;&gt;Node22 -->
<g id="edge52" class="edge">
<title>Node32&#45;&gt;Node22</title>
<path fill="none" stroke="#191970" d="M586.0633,-461.144C635.5208,-453.296 702.6115,-439.9695 723.5,-423 748.6536,-402.5655 754.5,-389.4079 754.5,-357 754.5,-357 754.5,-357 754.5,-301 754.5,-265.6422 749.9517,-255.8028 734.5,-224 729.5527,-213.8175 722.169,-203.6765 715.4568,-195.5177"/>
<polygon fill="#191970" stroke="#191970" points="718.0081,-193.1164 708.8355,-187.8143 712.6996,-197.6793 718.0081,-193.1164"/>
</g>
<!-- Node33 -->
<g id="node33" class="node">
<title>Node33</title>
<g id="a_node33"><a xlink:href="sitkEvent_8h.html" target="_top" xlink:title=" ">
<polygon fill="#ffffff" stroke="#000000" points="183,-230 183,-249 254,-249 254,-230 183,-230"/>
<text text-anchor="middle" x="218.5" y="-237" font-family="Helvetica,sans-Serif" font-size="10.00" fill="#000000">sitkEvent.h</text>
</a>
</g>
</g>
<!-- Node32&#45;&gt;Node33 -->
<g id="edge54" class="edge">
<title>Node32&#45;&gt;Node33</title>
<path fill="none" stroke="#191970" d="M506.4985,-459.4816C487.1513,-451.0459 459.108,-437.7962 436.5,-423 355.6421,-370.0812 271.2526,-291.0804 235.7997,-256.6126"/>
<polygon fill="#191970" stroke="#191970" points="237.8387,-253.7108 228.2437,-249.2179 232.9426,-258.7137 237.8387,-253.7108"/>
</g>
<!-- Node34 -->
<g id="node34" class="node">
<title>Node34</title>
<g id="a_node34"><a xlink:href="sitkImageConvert_8h.html" target="_top" xlink:title=" ">
<polygon fill="#ffffff" stroke="#000000" points="473,-403.5 473,-422.5 586,-422.5 586,-403.5 473,-403.5"/>
<text text-anchor="middle" x="529.5" y="-410.5" font-family="Helvetica,sans-Serif" font-size="10.00" fill="#000000">sitkImageConvert.h</text>
</a>
</g>
</g>
<!-- Node32&#45;&gt;Node34 -->
<g id="edge58" class="edge">
<title>Node32&#45;&gt;Node34</title>
<path fill="none" stroke="#191970" d="M529.5,-459.2455C529.5,-451.9382 529.5,-441.6944 529.5,-432.7046"/>
<polygon fill="#191970" stroke="#191970" points="533.0001,-432.6426 529.5,-422.6427 526.0001,-432.6427 533.0001,-432.6426"/>
</g>
<!-- Node35 -->
<g id="node35" class="node">
<title>Node35</title>
<g id="a_node35"><a xlink:title=" ">
<polygon fill="#ffffff" stroke="#bfbfbf" points="604.5,-403.5 604.5,-422.5 664.5,-422.5 664.5,-403.5 604.5,-403.5"/>
<text text-anchor="middle" x="634.5" y="-410.5" font-family="Helvetica,sans-Serif" font-size="10.00" fill="#000000">iostream</text>
</a>
</g>
</g>
<!-- Node32&#45;&gt;Node35 -->
<g id="edge60" class="edge">
<title>Node32&#45;&gt;Node35</title>
<path fill="none" stroke="#191970" d="M547.7896,-459.2455C564.2762,-450.4527 588.7352,-437.4079 607.4765,-427.4125"/>
<polygon fill="#191970" stroke="#191970" points="609.2435,-430.4368 616.42,-422.6427 605.9494,-424.2604 609.2435,-430.4368"/>
</g>
<!-- Node36 -->
<g id="node36" class="node">
<title>Node36</title>
<g id="a_node36"><a xlink:title=" ">
<polygon fill="#ffffff" stroke="#bfbfbf" points="682.5,-403.5 682.5,-422.5 714.5,-422.5 714.5,-403.5 682.5,-403.5"/>
<text text-anchor="middle" x="698.5" y="-410.5" font-family="Helvetica,sans-Serif" font-size="10.00" fill="#000000">list</text>
</a>
</g>
</g>
<!-- Node32&#45;&gt;Node36 -->
<g id="edge61" class="edge">
<title>Node32&#45;&gt;Node36</title>
<path fill="none" stroke="#191970" d="M561.7487,-459.4186C589.0738,-451.1415 629.4651,-438.5363 672.8355,-423.0743"/>
<polygon fill="#191970" stroke="#191970" points="674.201,-426.3027 682.4265,-419.6251 671.8321,-419.7157 674.201,-426.3027"/>
</g>
<!-- Node33&#45;&gt;Node3 -->
<g id="edge55" class="edge">
<title>Node33&#45;&gt;Node3</title>
<path fill="none" stroke="#191970" d="M213.0218,-229.5878C205.587,-214.6479 194.7188,-186.1786 208.5,-168 221.8964,-150.3291 275.8836,-137.5752 318.304,-130.0419"/>
<polygon fill="#191970" stroke="#191970" points="318.994,-133.4747 328.2564,-128.3309 317.808,-126.5759 318.994,-133.4747"/>
</g>
<!-- Node33&#45;&gt;Node14 -->
<g id="edge56" class="edge">
<title>Node33&#45;&gt;Node14</title>
<path fill="none" stroke="#191970" d="M240.0625,-229.8906C263.0512,-219.6457 299.656,-203.3326 325.6824,-191.7339"/>
<polygon fill="#191970" stroke="#191970" points="327.3796,-194.8095 335.0889,-187.5419 324.5302,-188.4156 327.3796,-194.8095"/>
</g>
<!-- Node34&#45;&gt;Node2 -->
<g id="edge59" class="edge">
<title>Node34&#45;&gt;Node2</title>
<path fill="none" stroke="#191970" d="M529.5,-403.2455C529.5,-395.9382 529.5,-385.6944 529.5,-376.7046"/>
<polygon fill="#191970" stroke="#191970" points="533.0001,-376.6426 529.5,-366.6427 526.0001,-376.6427 533.0001,-376.6426"/>
</g>
</g>
</svg>
