<?xml version="1.0" encoding="UTF-8" standalone="no"?>
<!DOCTYPE svg PUBLIC "-//W3C//DTD SVG 1.1//EN"
 "http://www.w3.org/Graphics/SVG/1.1/DTD/svg11.dtd">
<!-- Generated by graphviz version 2.40.1 (20161225.0304)
 -->
<!-- Title: sitkMemberFunctionFactoryBase.h Pages: 1 -->
<!--zoomable 520 -->
<svg id="main" version="1.1" xmlns="http://www.w3.org/2000/svg" xmlns:xlink="http://www.w3.org/1999/xlink" xml:space="preserve" onload="init(evt)">
<style type="text/css"><![CDATA[
.edge:hover path { stroke: red; }
.edge:hover polygon { stroke: red; fill: red; }
]]></style>
<script type="text/javascript"><![CDATA[
var edges = document.getElementsByTagName('g');
if (edges && edges.length) {
  for (var i=0;i<edges.length;i++) {
    if (edges[i].id.substr(0,4)=='edge') {
      edges[i].setAttribute('class','edge');
    }
  }
}
]]></script>
        <defs>
                <circle id="rim" cx="0" cy="0" r="7"/>
                <circle id="rim2" cx="0" cy="0" r="3.5"/>
                <g id="zoomPlus">
                        <use xlink:href="#rim" fill="#404040">
                                <set attributeName="fill" to="#808080" begin="zoomplus.mouseover" end="zoomplus.mouseout"/>
                        </use>
                        <path d="M-4,0h8M0,-4v8" fill="none" stroke="white" stroke-width="1.5" pointer-events="none"/>
                </g>
                <g id="zoomMin">
                        <use xlink:href="#rim" fill="#404040">
                                <set attributeName="fill" to="#808080" begin="zoomminus.mouseover" end="zoomminus.mouseout"/>
                        </use>
                        <path d="M-4,0h8" fill="none" stroke="white" stroke-width="1.5" pointer-events="none"/>
                </g>
                <g id="dirArrow">
                        <path fill="none" stroke="white" stroke-width="1.5" d="M0,-3.0v7 M-2.5,-0.5L0,-3.0L2.5,-0.5"/>
                </g>
               <g id="resetDef">
                       <use xlink:href="#rim2" fill="#404040">
                               <set attributeName="fill" to="#808080" begin="reset.mouseover" end="reset.mouseout"/>
                       </use>
               </g>
        </defs>

<script type="text/javascript">
var viewWidth = 4620;
var viewHeight = 520;
var sectionId = 'dynsection-1';
</script>
<script xlink:href="svgpan.js"/>
<svg id="graph" class="graph">
<g id="viewport">
<title>sitkMemberFunctionFactoryBase.h</title>
<polygon fill="#ffffff" stroke="transparent" points="-4,4 -4,-516 4616.0483,-516 4616.0483,4 -4,4"/>
<!-- Node1 -->
<g id="node1" class="node">
<title>Node1</title>
<g id="a_node1"><a xlink:title=" ">
<polygon fill="#bfbfbf" stroke="#000000" points="3171.0483,-481.5 3171.0483,-511.5 3321.0483,-511.5 3321.0483,-481.5 3171.0483,-481.5"/>
<text text-anchor="start" x="3179.0483" y="-499.5" font-family="Helvetica,sans-Serif" font-size="10.00" fill="#000000">sitkMemberFunctionFactory</text>
<text text-anchor="middle" x="3246.0483" y="-488.5" font-family="Helvetica,sans-Serif" font-size="10.00" fill="#000000">Base.h</text>
</a>
</g>
</g>
<!-- Node2 -->
<g id="node2" class="node">
<title>Node2</title>
<g id="a_node2"><a xlink:href="sitkDetail_8h.html" target="_top" xlink:title=" ">
<polygon fill="#ffffff" stroke="#000000" points="3540.5483,-425.5 3540.5483,-444.5 3613.5483,-444.5 3613.5483,-425.5 3540.5483,-425.5"/>
<text text-anchor="middle" x="3577.0483" y="-432.5" font-family="Helvetica,sans-Serif" font-size="10.00" fill="#000000">sitkDetail.h</text>
</a>
</g>
</g>
<!-- Node1&#45;&gt;Node2 -->
<g id="edge1" class="edge">
<title>Node1&#45;&gt;Node2</title>
<path fill="none" stroke="#191970" d="M3331.3921,-480.6431C3399.1194,-468.0593 3490.4577,-451.0886 3540.4975,-441.7912"/>
<polygon fill="#191970" stroke="#191970" points="3330.3496,-477.2768 3321.1573,-482.5447 3331.6284,-484.159 3330.3496,-477.2768"/>
</g>
<!-- Node334 -->
<g id="node49" class="node">
<title>Node334</title>
<g id="a_node49"><a xlink:href="sitkDualMemberFunctionFactory_8h.html" target="_top" xlink:title=" ">
<polygon fill="#ffffff" stroke="#000000" points="1447.0483,-196 1447.0483,-215 1627.0483,-215 1627.0483,-196 1447.0483,-196"/>
<text text-anchor="middle" x="1537.0483" y="-203" font-family="Helvetica,sans-Serif" font-size="10.00" fill="#000000">sitkDualMemberFunctionFactory.h</text>
</a>
</g>
</g>
<!-- Node1&#45;&gt;Node334 -->
<g id="edge147" class="edge">
<title>Node1&#45;&gt;Node334</title>
<path fill="none" stroke="#191970" d="M3160.6717,-493.5705C2863.7365,-482.8261 1894.0483,-442.8507 1894.0483,-379 1894.0483,-379 1894.0483,-379 1894.0483,-323 1894.0483,-264.4382 1718.5321,-230.2323 1613.6337,-215.0183"/>
<polygon fill="#191970" stroke="#191970" points="3160.8287,-497.0783 3170.9481,-493.9404 3161.0805,-490.0828 3160.8287,-497.0783"/>
</g>
<!-- Node335 -->
<g id="node50" class="node">
<title>Node335</title>
<g id="a_node50"><a xlink:href="sitkMemberFunctionFactory_8h.html" target="_top" xlink:title=" ">
<polygon fill="#ffffff" stroke="#000000" points="3259.0483,-257.5 3259.0483,-276.5 3417.0483,-276.5 3417.0483,-257.5 3259.0483,-257.5"/>
<text text-anchor="middle" x="3338.0483" y="-264.5" font-family="Helvetica,sans-Serif" font-size="10.00" fill="#000000">sitkMemberFunctionFactory.h</text>
</a>
</g>
</g>
<!-- Node1&#45;&gt;Node335 -->
<g id="edge148" class="edge">
<title>Node1&#45;&gt;Node335</title>
<path fill="none" stroke="#191970" d="M3255.8434,-472.0653C3275.822,-422.2273 3320.5298,-310.7009 3334.0804,-276.8981"/>
<polygon fill="#191970" stroke="#191970" points="3252.5569,-470.8576 3252.0846,-481.4419 3259.0543,-473.4622 3252.5569,-470.8576"/>
</g>
<!-- Node3 -->
<g id="node3" class="node">
<title>Node3</title>
<g id="a_node3"><a xlink:href="SimpleITK_8h.html" target="_top" xlink:title=" ">
<polygon fill="#ffffff" stroke="#000000" points="3789.5483,-.5 3789.5483,-19.5 3864.5483,-19.5 3864.5483,-.5 3789.5483,-.5"/>
<text text-anchor="middle" x="3827.0483" y="-7.5" font-family="Helvetica,sans-Serif" font-size="10.00" fill="#000000">SimpleITK.h</text>
</a>
</g>
</g>
<!-- Node2&#45;&gt;Node3 -->
<g id="edge2" class="edge">
<title>Node2&#45;&gt;Node3</title>
<path fill="none" stroke="#191970" d="M3623.849,-432.4284C3825.7517,-421.0313 4612.0483,-373.4103 4612.0483,-323 4612.0483,-323 4612.0483,-323 4612.0483,-138.5 4612.0483,-58.4923 4529.0547,-77.708 4452.0483,-56 4340.5224,-24.561 3981.91,-13.5938 3864.5852,-10.7965"/>
<polygon fill="#191970" stroke="#191970" points="3623.3684,-428.9498 3613.5804,-433.0052 3623.761,-435.9388 3623.3684,-428.9498"/>
</g>
<!-- Node4 -->
<g id="node4" class="node">
<title>Node4</title>
<g id="a_node4"><a xlink:href="sitkImage_8h.html" target="_top" xlink:title=" ">
<polygon fill="#ffffff" stroke="#000000" points="3791.0483,-369.5 3791.0483,-388.5 3865.0483,-388.5 3865.0483,-369.5 3791.0483,-369.5"/>
<text text-anchor="middle" x="3828.0483" y="-376.5" font-family="Helvetica,sans-Serif" font-size="10.00" fill="#000000">sitkImage.h</text>
</a>
</g>
</g>
<!-- Node2&#45;&gt;Node4 -->
<g id="edge3" class="edge">
<title>Node2&#45;&gt;Node4</title>
<path fill="none" stroke="#191970" d="M3623.6918,-424.5935C3671.9324,-413.8306 3746.3051,-397.2375 3790.7738,-387.3162"/>
<polygon fill="#191970" stroke="#191970" points="3622.8125,-421.2035 3613.8146,-426.7971 3624.3368,-428.0355 3622.8125,-421.2035"/>
</g>
<!-- Node323 -->
<g id="node8" class="node">
<title>Node323</title>
<g id="a_node8"><a xlink:href="sitkImageRegistrationMethod_8h.html" target="_top" xlink:title=" ">
<polygon fill="#ffffff" stroke="#000000" points="3960.5483,-196 3960.5483,-215 4129.5483,-215 4129.5483,-196 3960.5483,-196"/>
<text text-anchor="middle" x="4045.0483" y="-203" font-family="Helvetica,sans-Serif" font-size="10.00" fill="#000000">sitkImageRegistrationMethod.h</text>
</a>
</g>
</g>
<!-- Node2&#45;&gt;Node323 -->
<g id="edge146" class="edge">
<title>Node2&#45;&gt;Node323</title>
<path fill="none" stroke="#191970" d="M3623.7822,-431.0053C3695.9097,-424.2993 3830.5753,-409.4743 3874.0483,-389 3941.8324,-357.076 3951.6114,-334.1638 4000.0483,-277 4017.1154,-256.8578 4032.4292,-229.6921 4040.0176,-215.3376"/>
<polygon fill="#191970" stroke="#191970" points="3623.2521,-427.539 3613.6125,-431.9355 3623.8897,-434.5099 3623.2521,-427.539"/>
</g>
<!-- Node2&#45;&gt;Node334 -->
<g id="edge120" class="edge">
<title>Node2&#45;&gt;Node334</title>
<path fill="none" stroke="#191970" d="M3530.3436,-429.7457C3267.0177,-400.1216 1967.3491,-253.9088 1621.6384,-215.0164"/>
<polygon fill="#191970" stroke="#191970" points="3530.0092,-433.2301 3540.3378,-430.8701 3530.7918,-426.274 3530.0092,-433.2301"/>
</g>
<!-- Node2&#45;&gt;Node335 -->
<g id="edge135" class="edge">
<title>Node2&#45;&gt;Node335</title>
<path fill="none" stroke="#191970" d="M3555.2886,-419.7045C3506.8807,-385.6772 3391.428,-304.5222 3351.7305,-276.6177"/>
<polygon fill="#191970" stroke="#191970" points="3553.32,-422.5989 3563.5138,-425.4862 3557.3455,-416.8721 3553.32,-422.5989"/>
</g>
<!-- Node4&#45;&gt;Node3 -->
<g id="edge8" class="edge">
<title>Node4&#45;&gt;Node3</title>
<path fill="none" stroke="#191970" d="M3871.2296,-366.6081C3960.489,-340.6909 4157.0483,-281.9239 4157.0483,-267 4157.0483,-267 4157.0483,-267 4157.0483,-138.5 4157.0483,-97.7508 4149.7737,-80.2805 4117.0483,-56 4077.6956,-26.8024 3933.8987,-15.5158 3864.7215,-11.7052"/>
<polygon fill="#191970" stroke="#191970" points="3870.0364,-363.3098 3861.4051,-369.4539 3871.984,-370.0334 3870.0364,-363.3098"/>
</g>
<!-- Node5 -->
<g id="node5" class="node">
<title>Node5</title>
<g id="a_node5"><a xlink:href="sitkAdditionalProcedures_8h.html" target="_top" xlink:title=" ">
<polygon fill="#ffffff" stroke="#000000" points="4436.5483,-196 4436.5483,-215 4583.5483,-215 4583.5483,-196 4436.5483,-196"/>
<text text-anchor="middle" x="4510.0483" y="-203" font-family="Helvetica,sans-Serif" font-size="10.00" fill="#000000">sitkAdditionalProcedures.h</text>
</a>
</g>
</g>
<!-- Node4&#45;&gt;Node5 -->
<g id="edge4" class="edge">
<title>Node4&#45;&gt;Node5</title>
<path fill="none" stroke="#191970" d="M3875.333,-377.9391C3959.2128,-375.2459 4139.1512,-365.8056 4287.0483,-333 4360.6014,-316.6849 4384.5534,-319.0789 4447.0483,-277 4472.2995,-259.9979 4493.798,-230.4993 4503.8934,-215.2512"/>
<polygon fill="#191970" stroke="#191970" points="3874.997,-374.4476 3865.1076,-378.2489 3875.2091,-381.4444 3874.997,-374.4476"/>
</g>
<!-- Node6 -->
<g id="node6" class="node">
<title>Node6</title>
<g id="a_node6"><a xlink:href="sitkHashImageFilter_8h.html" target="_top" xlink:title=" ">
<polygon fill="#ffffff" stroke="#000000" points="3893.0483,-129 3893.0483,-148 4015.0483,-148 4015.0483,-129 3893.0483,-129"/>
<text text-anchor="middle" x="3954.0483" y="-136" font-family="Helvetica,sans-Serif" font-size="10.00" fill="#000000">sitkHashImageFilter.h</text>
</a>
</g>
</g>
<!-- Node4&#45;&gt;Node6 -->
<g id="edge6" class="edge">
<title>Node4&#45;&gt;Node6</title>
<path fill="none" stroke="#191970" d="M3794.4805,-364.6137C3780.6492,-357.0916 3765.6467,-346.5827 3756.0483,-333 3719.3615,-281.085 3710.4634,-237.1976 3753.0483,-190 3763.3344,-178.5997 3849.078,-159.5408 3905.2047,-148.0816"/>
<polygon fill="#191970" stroke="#191970" points="3793.2878,-367.9336 3803.7882,-369.3452 3796.4599,-361.6936 3793.2878,-367.9336"/>
</g>
<!-- Node7 -->
<g id="node7" class="node">
<title>Node7</title>
<g id="a_node7"><a xlink:href="sitkTransform_8h.html" target="_top" xlink:title=" ">
<polygon fill="#ffffff" stroke="#ff0000" points="4346.0483,-257.5 4346.0483,-276.5 4438.0483,-276.5 4438.0483,-257.5 4346.0483,-257.5"/>
<text text-anchor="middle" x="4392.0483" y="-264.5" font-family="Helvetica,sans-Serif" font-size="10.00" fill="#000000">sitkTransform.h</text>
</a>
</g>
</g>
<!-- Node4&#45;&gt;Node7 -->
<g id="edge9" class="edge">
<title>Node4&#45;&gt;Node7</title>
<path fill="none" stroke="#191970" d="M3875.3961,-375.701C3969.7368,-368.8166 4178.0147,-351.9754 4247.0483,-333 4296.1202,-319.5115 4349.5585,-291.317 4375.7358,-276.5246"/>
<polygon fill="#191970" stroke="#191970" points="3875.0014,-372.2203 3865.28,-376.4329 3875.5065,-379.2021 3875.0014,-372.2203"/>
</g>
<!-- Node4&#45;&gt;Node323 -->
<g id="edge119" class="edge">
<title>Node4&#45;&gt;Node323</title>
<path fill="none" stroke="#191970" d="M3857.4252,-364.7651C3873.5497,-356.4081 3893.5586,-345.125 3910.0483,-333 3962.2529,-294.6135 4015.7034,-237.9058 4036.2608,-215.3111"/>
<polygon fill="#191970" stroke="#191970" points="3855.7664,-361.682 3848.4361,-369.3317 3858.9369,-367.9228 3855.7664,-361.682"/>
</g>
<!-- Node324 -->
<g id="node9" class="node">
<title>Node324</title>
<g id="a_node9"><a xlink:href="sitkProcessObject_8h.html" target="_top" xlink:title=" ">
<polygon fill="#ffffff" stroke="#ff0000" points="3752.5483,-257.5 3752.5483,-276.5 3865.5483,-276.5 3865.5483,-257.5 3752.5483,-257.5"/>
<text text-anchor="middle" x="3809.0483" y="-264.5" font-family="Helvetica,sans-Serif" font-size="10.00" fill="#000000">sitkProcessObject.h</text>
</a>
</g>
</g>
<!-- Node4&#45;&gt;Node324 -->
<g id="edge14" class="edge">
<title>Node4&#45;&gt;Node324</title>
<path fill="none" stroke="#191970" d="M3795.1539,-364.5194C3782.4006,-357.074 3769.1728,-346.6498 3762.0483,-333 3750.7879,-311.4264 3776.2106,-288.8699 3793.8793,-276.5113"/>
<polygon fill="#191970" stroke="#191970" points="3793.7974,-367.7638 3804.2624,-369.4178 3797.1129,-361.5988 3793.7974,-367.7638"/>
</g>
<!-- Node329 -->
<g id="node41" class="node">
<title>Node329</title>
<g id="a_node41"><a xlink:href="sitkImageFileWriter_8h.html" target="_top" xlink:title=" ">
<polygon fill="#ffffff" stroke="#000000" points="3557.5483,-196 3557.5483,-215 3676.5483,-215 3676.5483,-196 3557.5483,-196"/>
<text text-anchor="middle" x="3617.0483" y="-203" font-family="Helvetica,sans-Serif" font-size="10.00" fill="#000000">sitkImageFileWriter.h</text>
</a>
</g>
</g>
<!-- Node4&#45;&gt;Node329 -->
<g id="edge111" class="edge">
<title>Node4&#45;&gt;Node329</title>
<path fill="none" stroke="#191970" d="M3780.6973,-371.7886C3752.2287,-365.4812 3716.6712,-353.9087 3691.0483,-333 3650.5964,-299.9908 3627.624,-238.6262 3619.9604,-215.0589"/>
<polygon fill="#191970" stroke="#191970" points="3780.3322,-375.287 3790.8334,-373.8817 3781.7479,-368.4316 3780.3322,-375.287"/>
</g>
<!-- Node330 -->
<g id="node42" class="node">
<title>Node330</title>
<g id="a_node42"><a xlink:href="sitkImageSeriesWriter_8h.html" target="_top" xlink:title=" ">
<polygon fill="#ffffff" stroke="#000000" points="3771.5483,-196 3771.5483,-215 3904.5483,-215 3904.5483,-196 3771.5483,-196"/>
<text text-anchor="middle" x="3838.0483" y="-203" font-family="Helvetica,sans-Serif" font-size="10.00" fill="#000000">sitkImageSeriesWriter.h</text>
</a>
</g>
</g>
<!-- Node4&#45;&gt;Node330 -->
<g id="edge114" class="edge">
<title>Node4&#45;&gt;Node330</title>
<path fill="none" stroke="#191970" d="M3860.1819,-364.5718C3872.8287,-357.0964 3885.9936,-346.635 3893.0483,-333 3915.0932,-290.392 3869.6307,-236.9826 3848.2927,-215.311"/>
<polygon fill="#191970" stroke="#191970" points="3858.2645,-361.6308 3851.1595,-369.4901 3861.6149,-367.7769 3858.2645,-361.6308"/>
</g>
<!-- Node331 -->
<g id="node43" class="node">
<title>Node331</title>
<g id="a_node43"><a xlink:href="sitkImageViewer_8h.html" target="_top" xlink:title=" ">
<polygon fill="#ffffff" stroke="#000000" points="4185.5483,-196 4185.5483,-215 4292.5483,-215 4292.5483,-196 4185.5483,-196"/>
<text text-anchor="middle" x="4239.0483" y="-203" font-family="Helvetica,sans-Serif" font-size="10.00" fill="#000000">sitkImageViewer.h</text>
</a>
</g>
</g>
<!-- Node4&#45;&gt;Node331 -->
<g id="edge115" class="edge">
<title>Node4&#45;&gt;Node331</title>
<path fill="none" stroke="#191970" d="M3875.1853,-377.9019C3957.7297,-375.14 4124.14,-365.5814 4171.0483,-333 4213.287,-303.6619 4231.4828,-239.5512 4237.0563,-215.1714"/>
<polygon fill="#191970" stroke="#191970" points="3874.9552,-374.4074 3865.0702,-378.2203 3875.1754,-381.4039 3874.9552,-374.4074"/>
</g>
<!-- Node332 -->
<g id="node44" class="node">
<title>Node332</title>
<g id="a_node44"><a xlink:href="sitkShow_8h.html" target="_top" xlink:title=" ">
<polygon fill="#ffffff" stroke="#000000" points="4310.5483,-196 4310.5483,-215 4379.5483,-215 4379.5483,-196 4310.5483,-196"/>
<text text-anchor="middle" x="4345.0483" y="-203" font-family="Helvetica,sans-Serif" font-size="10.00" fill="#000000">sitkShow.h</text>
</a>
</g>
</g>
<!-- Node4&#45;&gt;Node332 -->
<g id="edge118" class="edge">
<title>Node4&#45;&gt;Node332</title>
<path fill="none" stroke="#191970" d="M3875.2052,-376.4447C3960.943,-371.2498 4138.7116,-357.7939 4195.0483,-333 4259.1776,-304.7766 4316.7874,-239.9953 4337.1961,-215.3041"/>
<polygon fill="#191970" stroke="#191970" points="3874.9949,-372.9509 3865.2199,-377.0375 3875.4098,-379.9386 3874.9949,-372.9509"/>
</g>
<!-- Node333 -->
<g id="node45" class="node">
<title>Node333</title>
<g id="a_node45"><a xlink:href="sitkImageConvert_8h.html" target="_top" xlink:title=" ">
<polygon fill="#ffffff" stroke="#000000" points="3771.5483,-313.5 3771.5483,-332.5 3884.5483,-332.5 3884.5483,-313.5 3771.5483,-313.5"/>
<text text-anchor="middle" x="3828.0483" y="-320.5" font-family="Helvetica,sans-Serif" font-size="10.00" fill="#000000">sitkImageConvert.h</text>
</a>
</g>
</g>
<!-- Node4&#45;&gt;Node333 -->
<g id="edge107" class="edge">
<title>Node4&#45;&gt;Node333</title>
<path fill="none" stroke="#191970" d="M3828.0483,-359.1575C3828.0483,-350.155 3828.0483,-339.9199 3828.0483,-332.6427"/>
<polygon fill="#191970" stroke="#191970" points="3824.5484,-359.2455 3828.0483,-369.2455 3831.5484,-359.2456 3824.5484,-359.2455"/>
</g>
<!-- Node326 -->
<g id="node46" class="node">
<title>Node326</title>
<g id="a_node46"><a xlink:href="sitkImageFileReader_8h.html" target="_top" xlink:title=" ">
<polygon fill="#ffffff" stroke="#000000" points="973.0483,-196 973.0483,-215 1097.0483,-215 1097.0483,-196 973.0483,-196"/>
<text text-anchor="middle" x="1035.0483" y="-203" font-family="Helvetica,sans-Serif" font-size="10.00" fill="#000000">sitkImageFileReader.h</text>
</a>
</g>
</g>
<!-- Node4&#45;&gt;Node326 -->
<g id="edge109" class="edge">
<title>Node4&#45;&gt;Node326</title>
<path fill="none" stroke="#191970" d="M3780.7427,-377.2727C3464.5063,-365.5729 1653.2116,-296.1323 1106.0483,-221 1095.4237,-219.5411 1084.0272,-217.3422 1073.5426,-215.0556"/>
<polygon fill="#191970" stroke="#191970" points="3780.8132,-380.7776 3790.9355,-377.649 3781.0714,-373.7824 3780.8132,-380.7776"/>
</g>
<!-- Node327 -->
<g id="node47" class="node">
<title>Node327</title>
<g id="a_node47"><a xlink:href="sitkImageSeriesReader_8h.html" target="_top" xlink:title=" ">
<polygon fill="#ffffff" stroke="#000000" points="1115.5483,-196 1115.5483,-215 1252.5483,-215 1252.5483,-196 1115.5483,-196"/>
<text text-anchor="middle" x="1184.0483" y="-203" font-family="Helvetica,sans-Serif" font-size="10.00" fill="#000000">sitkImageSeriesReader.h</text>
</a>
</g>
</g>
<!-- Node4&#45;&gt;Node327 -->
<g id="edge112" class="edge">
<title>Node4&#45;&gt;Node327</title>
<path fill="none" stroke="#191970" d="M3781.0701,-371.8109C3682.34,-356.4606 3446.2312,-318.4811 3250.0483,-277 3213.7692,-269.3291 3205.8142,-261.8244 3169.0483,-257 2748.7976,-201.8551 1683.454,-266.4845 1262.0483,-221 1249.9687,-219.6962 1236.9771,-217.4572 1225.1278,-215.08"/>
<polygon fill="#191970" stroke="#191970" points="3780.6099,-375.2813 3791.0281,-373.3548 3781.6824,-368.3639 3780.6099,-375.2813"/>
</g>
<!-- Node328 -->
<g id="node48" class="node">
<title>Node328</title>
<g id="a_node48"><a xlink:href="sitkImportImageFilter_8h.html" target="_top" xlink:title=" ">
<polygon fill="#ffffff" stroke="#000000" points="3180.0483,-196 3180.0483,-215 3310.0483,-215 3310.0483,-196 3180.0483,-196"/>
<text text-anchor="middle" x="3245.0483" y="-203" font-family="Helvetica,sans-Serif" font-size="10.00" fill="#000000">sitkImportImageFilter.h</text>
</a>
</g>
</g>
<!-- Node4&#45;&gt;Node328 -->
<g id="edge116" class="edge">
<title>Node4&#45;&gt;Node328</title>
<path fill="none" stroke="#191970" d="M3784.2537,-366.6038C3752.2768,-357.4859 3707.9065,-344.6961 3669.0483,-333 3560.6914,-300.3852 3534.4768,-289.3756 3426.0483,-257 3375.1774,-241.8105 3315.9588,-225.1538 3279.4875,-215.0128"/>
<polygon fill="#191970" stroke="#191970" points="3783.6014,-370.0571 3794.1776,-369.429 3785.5181,-363.3246 3783.6014,-370.0571"/>
</g>
<!-- Node5&#45;&gt;Node3 -->
<g id="edge5" class="edge">
<title>Node5&#45;&gt;Node3</title>
<path fill="none" stroke="#191970" d="M4504.9922,-186.1599C4495.203,-153.0289 4470.2533,-86.0859 4422.0483,-56 4374.8607,-26.5491 3988.1409,-14.1389 3864.7396,-10.9041"/>
<polygon fill="#191970" stroke="#191970" points="4501.6792,-187.3091 4507.7425,-195.9973 4508.4207,-185.4242 4501.6792,-187.3091"/>
</g>
<!-- Node6&#45;&gt;Node3 -->
<g id="edge7" class="edge">
<title>Node6&#45;&gt;Node3</title>
<path fill="none" stroke="#191970" d="M3938.6923,-120.5023C3923.8969,-103.4326 3900.6396,-77.3004 3879.0483,-56 3865.6627,-42.7948 3849.2812,-28.6019 3838.5257,-19.5286"/>
<polygon fill="#191970" stroke="#191970" points="3936.4268,-123.2352 3945.6044,-128.529 3941.7312,-118.6675 3936.4268,-123.2352"/>
</g>
<!-- Node7&#45;&gt;Node3 -->
<g id="edge11" class="edge">
<title>Node7&#45;&gt;Node3</title>
<path fill="none" stroke="#191970" d="M4395.4249,-247.4666C4397.2862,-231.2555 4397.7196,-208.0229 4389.0483,-190 4349.5669,-107.9405 4317.466,-92.5243 4234.0483,-56 4168.1762,-27.158 3952.3533,-15.1772 3864.6284,-11.4176"/>
<polygon fill="#191970" stroke="#191970" points="4391.9528,-247.0228 4394.0024,-257.4175 4398.8824,-248.0134 4391.9528,-247.0228"/>
</g>
<!-- Node7&#45;&gt;Node5 -->
<g id="edge10" class="edge">
<title>Node7&#45;&gt;Node5</title>
<path fill="none" stroke="#191970" d="M4419.435,-252.7264C4441.6657,-241.1401 4472.3936,-225.1251 4491.7402,-215.0419"/>
<polygon fill="#191970" stroke="#191970" points="4417.736,-249.665 4410.4858,-257.3906 4420.9713,-255.8725 4417.736,-249.665"/>
</g>
<!-- Node7&#45;&gt;Node323 -->
<g id="edge12" class="edge">
<title>Node7&#45;&gt;Node323</title>
<path fill="none" stroke="#191970" d="M4335.8381,-257.0377C4270.392,-245.4384 4163.0749,-226.4183 4098.7304,-215.0143"/>
<polygon fill="#191970" stroke="#191970" points="4335.512,-260.5343 4345.9693,-258.8333 4336.7336,-253.6418 4335.512,-260.5343"/>
</g>
<!-- Node323&#45;&gt;Node3 -->
<g id="edge13" class="edge">
<title>Node323&#45;&gt;Node3</title>
<path fill="none" stroke="#191970" d="M4066.9207,-189.6811C4077.5736,-180.5907 4089.3005,-168.1716 4095.0483,-154 4111.4185,-113.6379 4123.121,-89.3017 4095.0483,-56 4080.3482,-38.5619 3935.1225,-21.2382 3864.8111,-13.7933"/>
<polygon fill="#191970" stroke="#191970" points="4064.7087,-186.9686 4059.1006,-195.9575 4069.0902,-192.4277 4064.7087,-186.9686"/>
</g>
<!-- Node324&#45;&gt;Node3 -->
<g id="edge97" class="edge">
<title>Node324&#45;&gt;Node3</title>
<path fill="none" stroke="#191970" d="M3844.9445,-253.7646C3865.5208,-245.5376 3891.4652,-234.0558 3913.0483,-221 3931.9938,-209.5397 3932.8789,-201.0818 3952.0483,-190 3989.7032,-168.2318 4018.5958,-189.9699 4043.0483,-154 4067.6591,-117.7971 4002.5503,-56.3733 4002.0483,-56 3980.4312,-39.9272 3909.2385,-24.7449 3864.5953,-16.4733"/>
<polygon fill="#191970" stroke="#191970" points="3843.6448,-250.5147 3835.6109,-257.4217 3846.1986,-257.0322 3843.6448,-250.5147"/>
</g>
<!-- Node324&#45;&gt;Node6 -->
<g id="edge96" class="edge">
<title>Node324&#45;&gt;Node6</title>
<path fill="none" stroke="#191970" d="M3787.5349,-250.8469C3768.8056,-234.8048 3746.8524,-209.809 3762.0483,-190 3770.9757,-178.3624 3852.7144,-159.4705 3906.625,-148.091"/>
<polygon fill="#191970" stroke="#191970" points="3785.5417,-253.7373 3795.5071,-257.3346 3789.9601,-248.3079 3785.5417,-253.7373"/>
</g>
<!-- Node324&#45;&gt;Node323 -->
<g id="edge106" class="edge">
<title>Node324&#45;&gt;Node323</title>
<path fill="none" stroke="#191970" d="M3855.4257,-254.9144C3900.2139,-243.2428 3967.1455,-225.8009 4008.3463,-215.0643"/>
<polygon fill="#191970" stroke="#191970" points="3854.4585,-251.5494 3845.6643,-257.4581 3856.2238,-258.3232 3854.4585,-251.5494"/>
</g>
<!-- Node10 -->
<g id="node10" class="node">
<title>Node10</title>
<g id="a_node10"><a xlink:href="sitkImageFilter_8h.html" target="_top" xlink:title=" ">
<polygon fill="#ffffff" stroke="#ff0000" points="2450.0483,-196 2450.0483,-215 2548.0483,-215 2548.0483,-196 2450.0483,-196"/>
<text text-anchor="middle" x="2499.0483" y="-203" font-family="Helvetica,sans-Serif" font-size="10.00" fill="#000000">sitkImageFilter.h</text>
</a>
</g>
</g>
<!-- Node324&#45;&gt;Node10 -->
<g id="edge15" class="edge">
<title>Node324&#45;&gt;Node10</title>
<path fill="none" stroke="#191970" d="M3742.0593,-263.8551C3510.8855,-253.0023 2749.7133,-217.2679 2548.3037,-207.8124"/>
<polygon fill="#191970" stroke="#191970" points="3742.1856,-267.3648 3752.3387,-264.3377 3742.5139,-260.3725 3742.1856,-267.3648"/>
</g>
<!-- Node307 -->
<g id="node39" class="node">
<title>Node307</title>
<g id="a_node39"><a xlink:href="sitkCenteredTransformInitializerFilter_8h.html" target="_top" xlink:title=" ">
<polygon fill="#ffffff" stroke="#000000" points="3366.5483,-190.5 3366.5483,-220.5 3539.5483,-220.5 3539.5483,-190.5 3366.5483,-190.5"/>
<text text-anchor="start" x="3374.5483" y="-208.5" font-family="Helvetica,sans-Serif" font-size="10.00" fill="#000000">sitkCenteredTransformInitializer</text>
<text text-anchor="middle" x="3453.0483" y="-197.5" font-family="Helvetica,sans-Serif" font-size="10.00" fill="#000000">Filter.h</text>
</a>
</g>
</g>
<!-- Node324&#45;&gt;Node307 -->
<g id="edge92" class="edge">
<title>Node324&#45;&gt;Node307</title>
<path fill="none" stroke="#191970" d="M3743.783,-255.7253C3686.4453,-245.82 3602.5854,-231.333 3539.6476,-220.4603"/>
<polygon fill="#191970" stroke="#191970" points="3743.364,-259.2046 3753.8139,-257.4581 3744.5557,-252.3068 3743.364,-259.2046"/>
</g>
<!-- Node308 -->
<g id="node40" class="node">
<title>Node308</title>
<g id="a_node40"><a xlink:href="sitkCenteredVersorTransformInitializerFilter_8h.html" target="_top" xlink:title=" ">
<polygon fill="#ffffff" stroke="#000000" points="1271.0483,-190.5 1271.0483,-220.5 1429.0483,-220.5 1429.0483,-190.5 1271.0483,-190.5"/>
<text text-anchor="start" x="1279.0483" y="-208.5" font-family="Helvetica,sans-Serif" font-size="10.00" fill="#000000">sitkCenteredVersorTransform</text>
<text text-anchor="middle" x="1350.0483" y="-197.5" font-family="Helvetica,sans-Serif" font-size="10.00" fill="#000000">InitializerFilter.h</text>
</a>
</g>
</g>
<!-- Node324&#45;&gt;Node308 -->
<g id="edge94" class="edge">
<title>Node324&#45;&gt;Node308</title>
<path fill="none" stroke="#191970" d="M3741.8346,-265.0824C3665.3589,-262.9385 3536.7182,-259.4468 3426.0483,-257 2984.306,-247.2336 1877.8543,-263.4525 1438.0483,-221 1435.1144,-220.7168 1432.1314,-220.3903 1429.1225,-220.0284"/>
<polygon fill="#191970" stroke="#191970" points="3742.1777,-268.5934 3752.2721,-265.3758 3742.3744,-261.5961 3742.1777,-268.5934"/>
</g>
<!-- Node324&#45;&gt;Node329 -->
<g id="edge98" class="edge">
<title>Node324&#45;&gt;Node329</title>
<path fill="none" stroke="#191970" d="M3769.2457,-254.2507C3732.8159,-242.5818 3679.7221,-225.5752 3646.8376,-215.0419"/>
<polygon fill="#191970" stroke="#191970" points="3768.4572,-257.6733 3779.0483,-257.3906 3770.5926,-251.0069 3768.4572,-257.6733"/>
</g>
<!-- Node324&#45;&gt;Node330 -->
<g id="edge100" class="edge">
<title>Node324&#45;&gt;Node330</title>
<path fill="none" stroke="#191970" d="M3817.8883,-248.253C3823.0246,-237.3606 3829.2848,-224.0846 3833.4531,-215.2449"/>
<polygon fill="#191970" stroke="#191970" points="3814.6789,-246.853 3813.5795,-257.3906 3821.0103,-249.8386 3814.6789,-246.853"/>
</g>
<!-- Node324&#45;&gt;Node331 -->
<g id="edge102" class="edge">
<title>Node324&#45;&gt;Node331</title>
<path fill="none" stroke="#191970" d="M3875.6828,-258.0156C3942.3664,-248.953 4047.8703,-234.4203 4139.0483,-221 4154.083,-218.7871 4170.3745,-216.3 4185.357,-213.9766"/>
<polygon fill="#191970" stroke="#191970" points="3875.1656,-254.5536 3865.7274,-259.3671 3876.1074,-261.49 3875.1656,-254.5536"/>
</g>
<!-- Node324&#45;&gt;Node332 -->
<g id="edge104" class="edge">
<title>Node324&#45;&gt;Node332</title>
<path fill="none" stroke="#191970" d="M3875.8614,-262.8656C3991.1314,-255.382 4222.6428,-238.7151 4302.0483,-221 4308.5541,-219.5486 4315.4201,-217.3808 4321.7095,-215.1231"/>
<polygon fill="#191970" stroke="#191970" points="3875.5034,-259.3813 3865.7495,-263.5179 3875.9541,-266.3668 3875.5034,-259.3813"/>
</g>
<!-- Node10&#45;&gt;Node3 -->
<g id="edge27" class="edge">
<title>Node10&#45;&gt;Node3</title>
<path fill="none" stroke="#191970" d="M2558.5488,-203.9076C2787.7904,-197.6362 3603.5868,-174.0056 3655.0483,-154 3730.9117,-124.5081 3797.5457,-47.1922 3819.4557,-19.7968"/>
<polygon fill="#191970" stroke="#191970" points="2558.3003,-200.413 2548.3994,-204.1844 2558.4912,-207.4104 2558.3003,-200.413"/>
</g>
<!-- Node10&#45;&gt;Node6 -->
<g id="edge22" class="edge">
<title>Node10&#45;&gt;Node6</title>
<path fill="none" stroke="#191970" d="M2558.3672,-203.9551C2739.3855,-199.0542 3300.6352,-182.4773 3765.0483,-154 3807.7675,-151.3805 3855.8381,-147.4244 3892.8089,-144.1647"/>
<polygon fill="#191970" stroke="#191970" points="2558.1606,-200.4593 2548.2584,-204.2273 2558.3491,-207.4568 2558.1606,-200.4593"/>
</g>
<!-- Node9 -->
<g id="node11" class="node">
<title>Node9</title>
<g id="a_node11"><a xlink:href="sitkBSplineTransformInitializerFilter_8h.html" target="_top" xlink:title=" ">
<polygon fill="#ffffff" stroke="#000000" points="3557.0483,-56.5 3557.0483,-86.5 3723.0483,-86.5 3723.0483,-56.5 3557.0483,-56.5"/>
<text text-anchor="start" x="3565.0483" y="-74.5" font-family="Helvetica,sans-Serif" font-size="10.00" fill="#000000">sitkBSplineTransformInitializer</text>
<text text-anchor="middle" x="3640.0483" y="-63.5" font-family="Helvetica,sans-Serif" font-size="10.00" fill="#000000">Filter.h</text>
</a>
</g>
</g>
<!-- Node10&#45;&gt;Node9 -->
<g id="edge16" class="edge">
<title>Node10&#45;&gt;Node9</title>
<path fill="none" stroke="#191970" d="M2558.549,-203.8636C2789.4786,-197.3799 3614.6002,-172.9251 3634.0483,-154 3651.7505,-136.7738 3648.3739,-105.4535 3644.252,-86.7542"/>
<polygon fill="#191970" stroke="#191970" points="2558.2256,-200.3712 2548.3275,-204.1498 2558.4215,-207.3685 2558.2256,-200.3712"/>
</g>
<!-- Node11 -->
<g id="node12" class="node">
<title>Node11</title>
<g id="a_node12"><a xlink:href="sitkCastImageFilter_8h.html" target="_top" xlink:title=" ">
<polygon fill="#ffffff" stroke="#000000" points="41.5483,-129 41.5483,-148 160.5483,-148 160.5483,-129 41.5483,-129"/>
<text text-anchor="middle" x="101.0483" y="-136" font-family="Helvetica,sans-Serif" font-size="10.00" fill="#000000">sitkCastImageFilter.h</text>
</a>
</g>
</g>
<!-- Node10&#45;&gt;Node11 -->
<g id="edge18" class="edge">
<title>Node10&#45;&gt;Node11</title>
<path fill="none" stroke="#191970" d="M2439.724,-204.3505C2082.2095,-197.4036 228.0791,-161.088 170.0483,-154 159.3236,-152.6901 147.8188,-150.4492 137.3375,-148.0721"/>
<polygon fill="#191970" stroke="#191970" points="2439.7954,-207.8525 2449.8615,-204.5475 2439.9314,-200.8538 2439.7954,-207.8525"/>
</g>
<!-- Node12 -->
<g id="node13" class="node">
<title>Node12</title>
<g id="a_node13"><a xlink:href="sitkExtractImageFilter_8h.html" target="_top" xlink:title=" ">
<polygon fill="#ffffff" stroke="#000000" points="3085.0483,-62 3085.0483,-81 3217.0483,-81 3217.0483,-62 3085.0483,-62"/>
<text text-anchor="middle" x="3151.0483" y="-69" font-family="Helvetica,sans-Serif" font-size="10.00" fill="#000000">sitkExtractImageFilter.h</text>
</a>
</g>
</g>
<!-- Node10&#45;&gt;Node12 -->
<g id="edge20" class="edge">
<title>Node10&#45;&gt;Node12</title>
<path fill="none" stroke="#191970" d="M2558.2708,-203.7735C2781.6347,-197.1246 3561.2965,-172.6184 3579.0483,-154 3588.5558,-144.0283 3588.2832,-133.2246 3579.0483,-123 3526.196,-64.4836 3303.9819,-98.995 3226.0483,-87 3215.4038,-85.3617 3203.9869,-83.2084 3193.3519,-81.03"/>
<polygon fill="#191970" stroke="#191970" points="2557.952,-200.2813 2548.0602,-204.0765 2558.1597,-207.2783 2557.952,-200.2813"/>
</g>
<!-- Node13 -->
<g id="node14" class="node">
<title>Node13</title>
<g id="a_node14"><a xlink:href="sitkLandmarkBasedTransformInitializerFilter_8h.html" target="_top" xlink:title=" ">
<polygon fill="#ffffff" stroke="#000000" points="3235.0483,-56.5 3235.0483,-86.5 3397.0483,-86.5 3397.0483,-56.5 3235.0483,-56.5"/>
<text text-anchor="start" x="3243.0483" y="-74.5" font-family="Helvetica,sans-Serif" font-size="10.00" fill="#000000">sitkLandmarkBasedTransform</text>
<text text-anchor="middle" x="3316.0483" y="-63.5" font-family="Helvetica,sans-Serif" font-size="10.00" fill="#000000">InitializerFilter.h</text>
</a>
</g>
</g>
<!-- Node10&#45;&gt;Node13 -->
<g id="edge23" class="edge">
<title>Node10&#45;&gt;Node13</title>
<path fill="none" stroke="#191970" d="M2558.495,-203.8143C2784.5623,-197.2659 3578.9737,-172.9422 3597.0483,-154 3606.5597,-144.032 3605.8689,-133.5841 3597.0483,-123 3595.4135,-121.0384 3479.5032,-100.2722 3397.0795,-85.7174"/>
<polygon fill="#191970" stroke="#191970" points="2558.0597,-200.3253 2548.1649,-204.1126 2558.2618,-207.3224 2558.0597,-200.3253"/>
</g>
<!-- Node14 -->
<g id="node15" class="node">
<title>Node14</title>
<g id="a_node15"><a xlink:href="sitkPasteImageFilter_8h.html" target="_top" xlink:title=" ">
<polygon fill="#ffffff" stroke="#000000" points="3415.0483,-62 3415.0483,-81 3539.0483,-81 3539.0483,-62 3415.0483,-62"/>
<text text-anchor="middle" x="3477.0483" y="-69" font-family="Helvetica,sans-Serif" font-size="10.00" fill="#000000">sitkPasteImageFilter.h</text>
</a>
</g>
</g>
<!-- Node10&#45;&gt;Node14 -->
<g id="edge25" class="edge">
<title>Node10&#45;&gt;Node14</title>
<path fill="none" stroke="#191970" d="M2558.3586,-203.8641C2786.6266,-197.4303 3596.641,-173.2762 3615.0483,-154 3648.2053,-119.2776 3574.5121,-93.9716 3522.5811,-81.103"/>
<polygon fill="#191970" stroke="#191970" points="2558.1486,-200.3685 2548.2509,-204.1481 2558.3453,-207.3657 2558.1486,-200.3685"/>
</g>
<!-- Node15 -->
<g id="node16" class="node">
<title>Node15</title>
<g id="a_node16"><a xlink:href="sitkAbsImageFilter_8h.html" target="_top" xlink:title=" ">
<polygon fill="#ffffff" stroke="#000000" points="3142.0483,-129 3142.0483,-148 3258.0483,-148 3258.0483,-129 3142.0483,-129"/>
<text text-anchor="middle" x="3200.0483" y="-136" font-family="Helvetica,sans-Serif" font-size="10.00" fill="#000000">sitkAbsImageFilter.h</text>
</a>
</g>
</g>
<!-- Node10&#45;&gt;Node15 -->
<g id="edge28" class="edge">
<title>Node10&#45;&gt;Node15</title>
<path fill="none" stroke="#191970" d="M2558.3899,-203.5758C2671.0149,-199.2841 2923.2636,-186.6072 3133.0483,-154 3142.9582,-152.4597 3153.5783,-150.2614 3163.3756,-148.0027"/>
<polygon fill="#191970" stroke="#191970" points="2558.1183,-200.0833 2548.2557,-203.9535 2558.3791,-207.0785 2558.1183,-200.0833"/>
</g>
<!-- Node18 -->
<g id="node19" class="node">
<title>Node18</title>
<g id="a_node19"><a xlink:href="sitkAbsoluteValueDifferenceImageFilter_8h.html" target="_top" xlink:title=" ">
<polygon fill="#ffffff" stroke="#000000" points="3276.5483,-123.5 3276.5483,-153.5 3431.5483,-153.5 3431.5483,-123.5 3276.5483,-123.5"/>
<text text-anchor="start" x="3284.5483" y="-141.5" font-family="Helvetica,sans-Serif" font-size="10.00" fill="#000000">sitkAbsoluteValueDifference</text>
<text text-anchor="middle" x="3354.0483" y="-130.5" font-family="Helvetica,sans-Serif" font-size="10.00" fill="#000000">ImageFilter.h</text>
</a>
</g>
</g>
<!-- Node10&#45;&gt;Node18 -->
<g id="edge32" class="edge">
<title>Node10&#45;&gt;Node18</title>
<path fill="none" stroke="#191970" d="M2558.2671,-203.7359C2687.4136,-199.4053 3003.9093,-186.1654 3267.0483,-154 3270.094,-153.6277 3273.1948,-153.219 3276.3236,-152.7818"/>
<polygon fill="#191970" stroke="#191970" points="2558.0708,-200.2404 2548.1917,-204.0683 2558.3018,-207.2366 2558.0708,-200.2404"/>
</g>
<!-- Node19 -->
<g id="node20" class="node">
<title>Node19</title>
<g id="a_node20"><a xlink:href="sitkAcosImageFilter_8h.html" target="_top" xlink:title=" ">
<polygon fill="#ffffff" stroke="#000000" points="3449.5483,-129 3449.5483,-148 3570.5483,-148 3570.5483,-129 3449.5483,-129"/>
<text text-anchor="middle" x="3510.0483" y="-136" font-family="Helvetica,sans-Serif" font-size="10.00" fill="#000000">sitkAcosImageFilter.h</text>
</a>
</g>
</g>
<!-- Node10&#45;&gt;Node19 -->
<g id="edge35" class="edge">
<title>Node10&#45;&gt;Node19</title>
<path fill="none" stroke="#191970" d="M2558.2552,-203.5267C2736.8402,-197.3742 3268.4185,-177.5379 3440.0483,-154 3450.6535,-152.5456 3462.0332,-150.3191 3472.47,-148.0034"/>
<polygon fill="#191970" stroke="#191970" points="2558.1332,-200.0287 2548.259,-203.8695 2558.3731,-207.0246 2558.1332,-200.0287"/>
</g>
<!-- Node20 -->
<g id="node21" class="node">
<title>Node20</title>
<g id="a_node21"><a xlink:href="sitkAdaptiveHistogramEqualizationImageFilter_8h.html" target="_top" xlink:title=" ">
<polygon fill="#ffffff" stroke="#000000" points="2318.5483,-123.5 2318.5483,-153.5 2507.5483,-153.5 2507.5483,-123.5 2318.5483,-123.5"/>
<text text-anchor="start" x="2326.5483" y="-141.5" font-family="Helvetica,sans-Serif" font-size="10.00" fill="#000000">sitkAdaptiveHistogramEqualization</text>
<text text-anchor="middle" x="2413.0483" y="-130.5" font-family="Helvetica,sans-Serif" font-size="10.00" fill="#000000">ImageFilter.h</text>
</a>
</g>
</g>
<!-- Node10&#45;&gt;Node20 -->
<g id="edge38" class="edge">
<title>Node10&#45;&gt;Node20</title>
<path fill="none" stroke="#191970" d="M2478.654,-189.6115C2464.6258,-178.6825 2446.1124,-164.2592 2432.3299,-153.5218"/>
<polygon fill="#191970" stroke="#191970" points="2476.6869,-192.5158 2486.7266,-195.9005 2480.989,-186.9937 2476.6869,-192.5158"/>
</g>
<!-- Node21 -->
<g id="node22" class="node">
<title>Node21</title>
<g id="a_node22"><a xlink:href="sitkAddImageFilter_8h.html" target="_top" xlink:title=" ">
<polygon fill="#ffffff" stroke="#ff0000" points="2526.0483,-129 2526.0483,-148 2642.0483,-148 2642.0483,-129 2526.0483,-129"/>
<text text-anchor="middle" x="2584.0483" y="-136" font-family="Helvetica,sans-Serif" font-size="10.00" fill="#000000">sitkAddImageFilter.h</text>
</a>
</g>
</g>
<!-- Node10&#45;&gt;Node21 -->
<g id="edge41" class="edge">
<title>Node10&#45;&gt;Node21</title>
<path fill="none" stroke="#191970" d="M2519.149,-189.6559C2535.5355,-176.7395 2558.1421,-158.9201 2571.8924,-148.0817"/>
<polygon fill="#191970" stroke="#191970" points="2516.9136,-186.9613 2511.2267,-195.9005 2521.2469,-192.4588 2516.9136,-186.9613"/>
</g>
<!-- Node23 -->
<g id="node23" class="node">
<title>Node23</title>
<g id="a_node23"><a xlink:href="sitkAdditiveGaussianNoiseImageFilter_8h.html" target="_top" xlink:title=" ">
<polygon fill="#ffffff" stroke="#000000" points="2660.0483,-123.5 2660.0483,-153.5 2808.0483,-153.5 2808.0483,-123.5 2660.0483,-123.5"/>
<text text-anchor="start" x="2668.0483" y="-141.5" font-family="Helvetica,sans-Serif" font-size="10.00" fill="#000000">sitkAdditiveGaussianNoise</text>
<text text-anchor="middle" x="2734.0483" y="-130.5" font-family="Helvetica,sans-Serif" font-size="10.00" fill="#000000">ImageFilter.h</text>
</a>
</g>
</g>
<!-- Node10&#45;&gt;Node23 -->
<g id="edge44" class="edge">
<title>Node10&#45;&gt;Node23</title>
<path fill="none" stroke="#191970" d="M2542.5153,-193.1073C2581.7352,-181.9254 2639.524,-165.4495 2681.36,-153.5218"/>
<polygon fill="#191970" stroke="#191970" points="2541.3752,-189.7928 2532.718,-195.9005 2543.2945,-196.5245 2541.3752,-189.7928"/>
</g>
<!-- Node24 -->
<g id="node24" class="node">
<title>Node24</title>
<g id="a_node24"><a xlink:href="sitkAggregateLabelMapFilter_8h.html" target="_top" xlink:title=" ">
<polygon fill="#ffffff" stroke="#000000" points="2826.0483,-129 2826.0483,-148 2990.0483,-148 2990.0483,-129 2826.0483,-129"/>
<text text-anchor="middle" x="2908.0483" y="-136" font-family="Helvetica,sans-Serif" font-size="10.00" fill="#000000">sitkAggregateLabelMapFilter.h</text>
</a>
</g>
</g>
<!-- Node10&#45;&gt;Node24 -->
<g id="edge47" class="edge">
<title>Node10&#45;&gt;Node24</title>
<path fill="none" stroke="#191970" d="M2557.9854,-196.1025C2621.8404,-185.8865 2726.7104,-169.0084 2817.0483,-154 2828.4311,-152.1089 2840.6093,-150.0555 2852.2351,-148.0806"/>
<polygon fill="#191970" stroke="#191970" points="2557.4196,-192.6485 2548.0977,-197.6836 2558.5249,-199.5606 2557.4196,-192.6485"/>
</g>
<!-- Node25 -->
<g id="node25" class="node">
<title>Node25</title>
<g id="a_node25"><a xlink:href="sitkAndImageFilter_8h.html" target="_top" xlink:title=" ">
<polygon fill="#ffffff" stroke="#ff0000" points="3008.0483,-129 3008.0483,-148 3124.0483,-148 3124.0483,-129 3008.0483,-129"/>
<text text-anchor="middle" x="3066.0483" y="-136" font-family="Helvetica,sans-Serif" font-size="10.00" fill="#000000">sitkAndImageFilter.h</text>
</a>
</g>
</g>
<!-- Node10&#45;&gt;Node25 -->
<g id="edge50" class="edge">
<title>Node10&#45;&gt;Node25</title>
<path fill="none" stroke="#191970" d="M2558.4547,-201.7885C2652.4423,-195.3765 2840.9915,-180.3172 2999.0483,-154 3008.7054,-152.392 3019.0502,-150.2239 3028.6512,-148.0194"/>
<polygon fill="#191970" stroke="#191970" points="2558.0321,-198.3089 2548.29,-202.4733 2558.5026,-205.2931 2558.0321,-198.3089"/>
</g>
<!-- Node66 -->
<g id="node26" class="node">
<title>Node66</title>
<g id="a_node26"><a xlink:href="sitkClampImageFilter_8h.html" target="_top" xlink:title=" ">
<polygon fill="#ffffff" stroke="#000000" points="1472.5483,-129 1472.5483,-148 1601.5483,-148 1601.5483,-129 1472.5483,-129"/>
<text text-anchor="middle" x="1537.0483" y="-136" font-family="Helvetica,sans-Serif" font-size="10.00" fill="#000000">sitkClampImageFilter.h</text>
</a>
</g>
</g>
<!-- Node10&#45;&gt;Node66 -->
<g id="edge53" class="edge">
<title>Node10&#45;&gt;Node66</title>
<path fill="none" stroke="#191970" d="M2439.6441,-203.2344C2267.6342,-196.4875 1771.1834,-175.6474 1610.0483,-154 1599.1336,-152.5337 1587.4191,-150.3323 1576.6391,-148.0456"/>
<polygon fill="#191970" stroke="#191970" points="2439.645,-206.737 2449.774,-203.6301 2439.9183,-199.7423 2439.645,-206.737"/>
</g>
<!-- Node159 -->
<g id="node27" class="node">
<title>Node159</title>
<g id="a_node27"><a xlink:href="sitkLabelIntensityStatisticsImageFilter_8h.html" target="_top" xlink:title=" ">
<polygon fill="#ffffff" stroke="#000000" points="1619.5483,-123.5 1619.5483,-153.5 1768.5483,-153.5 1768.5483,-123.5 1619.5483,-123.5"/>
<text text-anchor="start" x="1627.5483" y="-141.5" font-family="Helvetica,sans-Serif" font-size="10.00" fill="#000000">sitkLabelIntensityStatistics</text>
<text text-anchor="middle" x="1694.0483" y="-130.5" font-family="Helvetica,sans-Serif" font-size="10.00" fill="#000000">ImageFilter.h</text>
</a>
</g>
</g>
<!-- Node10&#45;&gt;Node159 -->
<g id="edge56" class="edge">
<title>Node10&#45;&gt;Node159</title>
<path fill="none" stroke="#191970" d="M2439.8179,-203.5504C2316.2108,-198.9821 2021.9347,-185.4966 1777.0483,-154 1774.2858,-153.6447 1771.4763,-153.2568 1768.6417,-152.843"/>
<polygon fill="#191970" stroke="#191970" points="2439.7124,-207.0488 2449.833,-203.9148 2439.9669,-200.0534 2439.7124,-207.0488"/>
</g>
<!-- Node160 -->
<g id="node28" class="node">
<title>Node160</title>
<g id="a_node28"><a xlink:href="sitkLabelMapContourOverlayImageFilter_8h.html" target="_top" xlink:title=" ">
<polygon fill="#ffffff" stroke="#000000" points="1786.0483,-123.5 1786.0483,-153.5 1944.0483,-153.5 1944.0483,-123.5 1786.0483,-123.5"/>
<text text-anchor="start" x="1794.0483" y="-141.5" font-family="Helvetica,sans-Serif" font-size="10.00" fill="#000000">sitkLabelMapContourOverlay</text>
<text text-anchor="middle" x="1865.0483" y="-130.5" font-family="Helvetica,sans-Serif" font-size="10.00" fill="#000000">ImageFilter.h</text>
</a>
</g>
</g>
<!-- Node10&#45;&gt;Node160 -->
<g id="edge59" class="edge">
<title>Node10&#45;&gt;Node160</title>
<path fill="none" stroke="#191970" d="M2439.706,-201.4715C2339.2456,-194.3009 2129.3873,-177.8071 1953.0483,-154 1950.1273,-153.6056 1947.1552,-153.1845 1944.1556,-152.7426"/>
<polygon fill="#191970" stroke="#191970" points="2439.7319,-204.982 2449.9543,-202.1976 2440.2267,-197.9995 2439.7319,-204.982"/>
</g>
<!-- Node161 -->
<g id="node29" class="node">
<title>Node161</title>
<g id="a_node29"><a xlink:href="sitkLabelMapMaskImageFilter_8h.html" target="_top" xlink:title=" ">
<polygon fill="#ffffff" stroke="#000000" points="1962.0483,-129 1962.0483,-148 2132.0483,-148 2132.0483,-129 1962.0483,-129"/>
<text text-anchor="middle" x="2047.0483" y="-136" font-family="Helvetica,sans-Serif" font-size="10.00" fill="#000000">sitkLabelMapMaskImageFilter.h</text>
</a>
</g>
</g>
<!-- Node10&#45;&gt;Node161 -->
<g id="edge62" class="edge">
<title>Node10&#45;&gt;Node161</title>
<path fill="none" stroke="#191970" d="M2439.6755,-197.3394C2368.6111,-187.4839 2246.0372,-170.2058 2141.0483,-154 2128.952,-152.1329 2115.9946,-150.05 2103.6845,-148.0322"/>
<polygon fill="#191970" stroke="#191970" points="2439.3928,-200.8336 2449.7784,-198.7386 2440.3532,-193.8998 2439.3928,-200.8336"/>
</g>
<!-- Node162 -->
<g id="node30" class="node">
<title>Node162</title>
<g id="a_node30"><a xlink:href="sitkLabelMapOverlayImageFilter_8h.html" target="_top" xlink:title=" ">
<polygon fill="#ffffff" stroke="#000000" points="2150.0483,-123.5 2150.0483,-153.5 2300.0483,-153.5 2300.0483,-123.5 2150.0483,-123.5"/>
<text text-anchor="start" x="2158.0483" y="-141.5" font-family="Helvetica,sans-Serif" font-size="10.00" fill="#000000">sitkLabelMapOverlayImage</text>
<text text-anchor="middle" x="2225.0483" y="-130.5" font-family="Helvetica,sans-Serif" font-size="10.00" fill="#000000">Filter.h</text>
</a>
</g>
</g>
<!-- Node10&#45;&gt;Node162 -->
<g id="edge65" class="edge">
<title>Node10&#45;&gt;Node162</title>
<path fill="none" stroke="#191970" d="M2450.1195,-193.5357C2404.4158,-182.3599 2336.0132,-165.6338 2286.6179,-153.5553"/>
<polygon fill="#191970" stroke="#191970" points="2449.5365,-196.9962 2460.0817,-195.9717 2451.1993,-190.1965 2449.5365,-196.9962"/>
</g>
<!-- Node167 -->
<g id="node31" class="node">
<title>Node167</title>
<g id="a_node31"><a xlink:href="sitkLabelOverlayImageFilter_8h.html" target="_top" xlink:title=" ">
<polygon fill="#ffffff" stroke="#000000" points="179.0483,-129 179.0483,-148 341.0483,-148 341.0483,-129 179.0483,-129"/>
<text text-anchor="middle" x="260.0483" y="-136" font-family="Helvetica,sans-Serif" font-size="10.00" fill="#000000">sitkLabelOverlayImageFilter.h</text>
</a>
</g>
</g>
<!-- Node10&#45;&gt;Node167 -->
<g id="edge68" class="edge">
<title>Node10&#45;&gt;Node167</title>
<path fill="none" stroke="#191970" d="M2439.5551,-204.3207C2103.766,-197.6336 456.7505,-164.4101 350.0483,-154 336.1618,-152.6452 321.1875,-150.3903 307.5141,-148.0142"/>
<polygon fill="#191970" stroke="#191970" points="2439.9588,-207.8293 2450.0265,-204.5291 2440.0981,-200.8307 2439.9588,-207.8293"/>
</g>
<!-- Node169 -->
<g id="node32" class="node">
<title>Node169</title>
<g id="a_node32"><a xlink:href="sitkLabelStatisticsImageFilter_8h.html" target="_top" xlink:title=" ">
<polygon fill="#ffffff" stroke="#000000" points="359.5483,-123.5 359.5483,-153.5 496.5483,-153.5 496.5483,-123.5 359.5483,-123.5"/>
<text text-anchor="start" x="367.5483" y="-141.5" font-family="Helvetica,sans-Serif" font-size="10.00" fill="#000000">sitkLabelStatisticsImage</text>
<text text-anchor="middle" x="428.0483" y="-130.5" font-family="Helvetica,sans-Serif" font-size="10.00" fill="#000000">Filter.h</text>
</a>
</g>
</g>
<!-- Node10&#45;&gt;Node169 -->
<g id="edge71" class="edge">
<title>Node10&#45;&gt;Node169</title>
<path fill="none" stroke="#191970" d="M2440.0098,-204.263C2119.9334,-197.5201 603.5043,-165.0966 505.0483,-154 502.3382,-153.6946 499.5816,-153.3422 496.8023,-152.9522"/>
<polygon fill="#191970" stroke="#191970" points="2439.9387,-207.7622 2450.0102,-204.4735 2440.0861,-200.7637 2439.9387,-207.7622"/>
</g>
<!-- Node185 -->
<g id="node33" class="node">
<title>Node185</title>
<g id="a_node33"><a xlink:href="sitkMaskImageFilter_8h.html" target="_top" xlink:title=" ">
<polygon fill="#ffffff" stroke="#000000" points="514.5483,-129 514.5483,-148 637.5483,-148 637.5483,-129 514.5483,-129"/>
<text text-anchor="middle" x="576.0483" y="-136" font-family="Helvetica,sans-Serif" font-size="10.00" fill="#000000">sitkMaskImageFilter.h</text>
</a>
</g>
</g>
<!-- Node10&#45;&gt;Node185 -->
<g id="edge74" class="edge">
<title>Node10&#45;&gt;Node185</title>
<path fill="none" stroke="#191970" d="M2439.8522,-204.5135C2143.5083,-199.4864 828.1904,-176.0937 647.0483,-154 636.0272,-152.6558 624.1935,-150.4042 613.4081,-148.0278"/>
<polygon fill="#191970" stroke="#191970" points="2439.9029,-208.0148 2449.9607,-204.6846 2440.0214,-201.0158 2439.9029,-208.0148"/>
</g>
<!-- Node186 -->
<g id="node34" class="node">
<title>Node186</title>
<g id="a_node34"><a xlink:href="sitkMaskNegatedImageFilter_8h.html" target="_top" xlink:title=" ">
<polygon fill="#ffffff" stroke="#000000" points="656.0483,-129 656.0483,-148 820.0483,-148 820.0483,-129 656.0483,-129"/>
<text text-anchor="middle" x="738.0483" y="-136" font-family="Helvetica,sans-Serif" font-size="10.00" fill="#000000">sitkMaskNegatedImageFilter.h</text>
</a>
</g>
</g>
<!-- Node10&#45;&gt;Node186 -->
<g id="edge77" class="edge">
<title>Node10&#45;&gt;Node186</title>
<path fill="none" stroke="#191970" d="M2439.5417,-204.7663C2180.6661,-201.4051 1151.0923,-186.2372 829.0483,-154 815.1748,-152.6112 800.2211,-150.3763 786.5236,-148.0306"/>
<polygon fill="#191970" stroke="#191970" points="2439.8143,-208.2701 2449.8586,-204.8993 2439.9046,-201.2706 2439.8143,-208.2701"/>
</g>
<!-- Node204 -->
<g id="node35" class="node">
<title>Node204</title>
<g id="a_node35"><a xlink:href="sitkMorphologicalWatershedFromMarkersImageFilter_8h.html" target="_top" xlink:title=" ">
<polygon fill="#ffffff" stroke="#000000" points="838.5483,-123.5 838.5483,-153.5 993.5483,-153.5 993.5483,-123.5 838.5483,-123.5"/>
<text text-anchor="start" x="846.5483" y="-141.5" font-family="Helvetica,sans-Serif" font-size="10.00" fill="#000000">sitkMorphologicalWatershed</text>
<text text-anchor="middle" x="916.0483" y="-130.5" font-family="Helvetica,sans-Serif" font-size="10.00" fill="#000000">FromMarkersImageFilter.h</text>
</a>
</g>
</g>
<!-- Node10&#45;&gt;Node204 -->
<g id="edge80" class="edge">
<title>Node10&#45;&gt;Node204</title>
<path fill="none" stroke="#191970" d="M2439.5133,-204.58C2197.7715,-200.6698 1288.8921,-184.2288 1003.0483,-154 999.9969,-153.6773 996.8913,-153.3104 993.7585,-152.9082"/>
<polygon fill="#191970" stroke="#191970" points="2439.7931,-208.0849 2449.8481,-204.7461 2439.9057,-201.0858 2439.7931,-208.0849"/>
</g>
<!-- Node240 -->
<g id="node36" class="node">
<title>Node240</title>
<g id="a_node36"><a xlink:href="sitkResampleImageFilter_8h.html" target="_top" xlink:title=" ">
<polygon fill="#ffffff" stroke="#000000" points="1012.0483,-129 1012.0483,-148 1158.0483,-148 1158.0483,-129 1012.0483,-129"/>
<text text-anchor="middle" x="1085.0483" y="-136" font-family="Helvetica,sans-Serif" font-size="10.00" fill="#000000">sitkResampleImageFilter.h</text>
</a>
</g>
</g>
<!-- Node10&#45;&gt;Node240 -->
<g id="edge83" class="edge">
<title>Node10&#45;&gt;Node240</title>
<path fill="none" stroke="#191970" d="M2439.4696,-204.3715C2214.7976,-199.9331 1418.8746,-182.5098 1167.0483,-154 1154.6675,-152.5983 1141.351,-150.3892 1129.1247,-148.0733"/>
<polygon fill="#191970" stroke="#191970" points="2439.6652,-207.8759 2449.732,-204.573 2439.8027,-200.8772 2439.6652,-207.8759"/>
</g>
<!-- Node293 -->
<g id="node37" class="node">
<title>Node293</title>
<g id="a_node37"><a xlink:href="sitkVectorIndexSelectionCastImageFilter_8h.html" target="_top" xlink:title=" ">
<polygon fill="#ffffff" stroke="#000000" points="1176.5483,-123.5 1176.5483,-153.5 1313.5483,-153.5 1313.5483,-123.5 1176.5483,-123.5"/>
<text text-anchor="start" x="1184.5483" y="-141.5" font-family="Helvetica,sans-Serif" font-size="10.00" fill="#000000">sitkVectorIndexSelection</text>
<text text-anchor="middle" x="1245.0483" y="-130.5" font-family="Helvetica,sans-Serif" font-size="10.00" fill="#000000">CastImageFilter.h</text>
</a>
</g>
</g>
<!-- Node10&#45;&gt;Node293 -->
<g id="edge86" class="edge">
<title>Node10&#45;&gt;Node293</title>
<path fill="none" stroke="#191970" d="M2439.6505,-204.0976C2232.5123,-199.0195 1542.7754,-180.4864 1323.0483,-154 1320.0327,-153.6365 1316.9593,-153.221 1313.8604,-152.7651"/>
<polygon fill="#191970" stroke="#191970" points="2439.6415,-207.5983 2449.7239,-204.3432 2439.8122,-200.6004 2439.6415,-207.5983"/>
</g>
<!-- Node298 -->
<g id="node38" class="node">
<title>Node298</title>
<g id="a_node38"><a xlink:href="sitkWarpImageFilter_8h.html" target="_top" xlink:title=" ">
<polygon fill="#ffffff" stroke="#000000" points="1332.0483,-129 1332.0483,-148 1454.0483,-148 1454.0483,-129 1332.0483,-129"/>
<text text-anchor="middle" x="1393.0483" y="-136" font-family="Helvetica,sans-Serif" font-size="10.00" fill="#000000">sitkWarpImageFilter.h</text>
</a>
</g>
</g>
<!-- Node10&#45;&gt;Node298 -->
<g id="edge89" class="edge">
<title>Node10&#45;&gt;Node298</title>
<path fill="none" stroke="#191970" d="M2439.7988,-203.8671C2249.3166,-198.4109 1653.9607,-179.6959 1463.0483,-154 1452.4394,-152.5721 1441.0586,-150.3543 1430.6217,-148.0385"/>
<polygon fill="#191970" stroke="#191970" points="2439.8008,-207.3685 2449.8965,-204.1547 2440.0002,-200.3713 2439.8008,-207.3685"/>
</g>
<!-- Node9&#45;&gt;Node3 -->
<g id="edge17" class="edge">
<title>Node9&#45;&gt;Node3</title>
<path fill="none" stroke="#191970" d="M3695.5108,-53.2596C3729.1794,-42.1868 3770.7806,-28.5052 3798.0699,-19.5303"/>
<polygon fill="#191970" stroke="#191970" points="3694.1996,-50.0064 3685.7936,-56.4554 3696.3865,-56.656 3694.1996,-50.0064"/>
</g>
<!-- Node11&#45;&gt;Node3 -->
<g id="edge19" class="edge">
<title>Node11&#45;&gt;Node3</title>
<path fill="none" stroke="#191970" d="M147.6815,-126.8401C155.1232,-125.3224 162.7681,-123.9632 170.0483,-123 871.2316,-30.2296 1053.1207,-78.7583 1760.0483,-56 2580.2568,-29.5948 3584.0362,-13.6647 3789.3328,-10.5597"/>
<polygon fill="#191970" stroke="#191970" points="146.7526,-123.4598 137.7129,-128.9854 148.2254,-130.3031 146.7526,-123.4598"/>
</g>
<!-- Node12&#45;&gt;Node3 -->
<g id="edge21" class="edge">
<title>Node12&#45;&gt;Node3</title>
<path fill="none" stroke="#191970" d="M3202.3936,-59.9867C3210.2869,-58.4785 3218.3648,-57.0835 3226.0483,-56 3437.6926,-26.1544 3694.1922,-14.6514 3789.2456,-11.2204"/>
<polygon fill="#191970" stroke="#191970" points="3201.6651,-56.5629 3192.5377,-61.9427 3203.0278,-63.429 3201.6651,-56.5629"/>
</g>
<!-- Node13&#45;&gt;Node3 -->
<g id="edge24" class="edge">
<title>Node13&#45;&gt;Node3</title>
<path fill="none" stroke="#191970" d="M3407.5605,-55.8362C3554.6456,-35.4438 3717.4577,-19.8547 3789.4984,-13.3185"/>
<polygon fill="#191970" stroke="#191970" points="3406.8673,-52.399 3397.448,-57.2495 3407.8362,-59.3317 3406.8673,-52.399"/>
</g>
<!-- Node14&#45;&gt;Node3 -->
<g id="edge26" class="edge">
<title>Node14&#45;&gt;Node3</title>
<path fill="none" stroke="#191970" d="M3528.9933,-59.8371C3535.4009,-58.4938 3541.8679,-57.1833 3548.0483,-56 3634.1132,-39.522 3735.8019,-23.6588 3789.4836,-15.5644"/>
<polygon fill="#191970" stroke="#191970" points="3528.0743,-56.4543 3519.0232,-61.9614 3529.533,-63.3006 3528.0743,-56.4543"/>
</g>
<!-- Node16 -->
<g id="node17" class="node">
<title>Node16</title>
<g id="a_node17"><a xlink:href="CMakeTmp_2SimpleITKBasicFiltersGeneratedHeaders_8h.html" target="_top" xlink:title=" ">
<polygon fill="#ffffff" stroke="#000000" points="1769.5483,-56.5 1769.5483,-86.5 1942.5483,-86.5 1942.5483,-56.5 1769.5483,-56.5"/>
<text text-anchor="start" x="1777.5483" y="-74.5" font-family="Helvetica,sans-Serif" font-size="10.00" fill="#000000">SimpleITKBasicFiltersGenerated</text>
<text text-anchor="middle" x="1856.0483" y="-63.5" font-family="Helvetica,sans-Serif" font-size="10.00" fill="#000000">Headers.h</text>
</a>
</g>
</g>
<!-- Node15&#45;&gt;Node16 -->
<g id="edge29" class="edge">
<title>Node15&#45;&gt;Node16</title>
<path fill="none" stroke="#191970" d="M3155.0384,-126.8123C3147.731,-125.2838 3140.2115,-123.9285 3133.0483,-123 2611.8313,-55.4429 2474.2006,-137.4251 1951.0483,-87 1948.3036,-86.7355 1945.5182,-86.4406 1942.7085,-86.1205"/>
<polygon fill="#191970" stroke="#191970" points="3154.2974,-130.233 3164.818,-128.9803 3155.8125,-123.3989 3154.2974,-130.233"/>
</g>
<!-- Node17 -->
<g id="node18" class="node">
<title>Node17</title>
<g id="a_node18"><a xlink:href="include_2SimpleITKBasicFiltersGeneratedHeaders_8h.html" target="_top" xlink:title=" ">
<polygon fill="#ffffff" stroke="#000000" points="1960.5483,-56.5 1960.5483,-86.5 2133.5483,-86.5 2133.5483,-56.5 1960.5483,-56.5"/>
<text text-anchor="start" x="1968.5483" y="-74.5" font-family="Helvetica,sans-Serif" font-size="10.00" fill="#000000">SimpleITKBasicFiltersGenerated</text>
<text text-anchor="middle" x="2047.0483" y="-63.5" font-family="Helvetica,sans-Serif" font-size="10.00" fill="#000000">Headers.h</text>
</a>
</g>
</g>
<!-- Node15&#45;&gt;Node17 -->
<g id="edge30" class="edge">
<title>Node15&#45;&gt;Node17</title>
<path fill="none" stroke="#191970" d="M3154.038,-126.7115C3147.0439,-125.2525 3139.8819,-123.9446 3133.0483,-123 2940.6972,-96.4102 2356.0323,-79.295 2133.9169,-73.6004"/>
<polygon fill="#191970" stroke="#191970" points="3153.5881,-130.1963 3164.1072,-128.9325 3155.0959,-123.3606 3153.5881,-130.1963"/>
</g>
<!-- Node17&#45;&gt;Node3 -->
<g id="edge31" class="edge">
<title>Node17&#45;&gt;Node3</title>
<path fill="none" stroke="#191970" d="M2143.9332,-68.1526C2477.7551,-56.6188 3571.5899,-18.8262 3789.2027,-11.3076"/>
<polygon fill="#191970" stroke="#191970" points="2143.6775,-64.6592 2133.8044,-68.5025 2143.9193,-71.655 2143.6775,-64.6592"/>
</g>
<!-- Node18&#45;&gt;Node16 -->
<g id="edge33" class="edge">
<title>Node18&#45;&gt;Node16</title>
<path fill="none" stroke="#191970" d="M3265.9908,-123.0143C2683.1822,-64.4393 2530.13,-141.9105 1951.0483,-87 1948.3032,-86.7397 1945.5174,-86.4486 1942.7074,-86.1317"/>
<polygon fill="#191970" stroke="#191970" points="3266.0386,-126.5371 3276.3409,-124.0643 3266.7452,-119.5728 3266.0386,-126.5371"/>
</g>
<!-- Node18&#45;&gt;Node17 -->
<g id="edge34" class="edge">
<title>Node18&#45;&gt;Node17</title>
<path fill="none" stroke="#191970" d="M3266.3326,-123.0532C3028.141,-98.3383 2371.2378,-79.7628 2133.9102,-73.65"/>
<polygon fill="#191970" stroke="#191970" points="3266.0194,-126.5396 3276.3347,-124.122 3266.7632,-119.5792 3266.0194,-126.5396"/>
</g>
<!-- Node19&#45;&gt;Node16 -->
<g id="edge36" class="edge">
<title>Node19&#45;&gt;Node16</title>
<path fill="none" stroke="#191970" d="M3463.2681,-126.8308C3455.5539,-125.2851 3447.6086,-123.9196 3440.0483,-123 2782.9205,-43.0688 2610.1617,-148.4434 1951.0483,-87 1948.3028,-86.7441 1945.5166,-86.4567 1942.7064,-86.1431"/>
<polygon fill="#191970" stroke="#191970" points="3462.7155,-130.2914 3473.2243,-128.9442 3464.1691,-123.444 3462.7155,-130.2914"/>
</g>
<!-- Node19&#45;&gt;Node17 -->
<g id="edge37" class="edge">
<title>Node19&#45;&gt;Node17</title>
<path fill="none" stroke="#191970" d="M3462.9946,-126.8617C3455.3642,-125.3271 3447.5167,-123.9569 3440.0483,-123 3185.6025,-90.3985 2397.2756,-76.475 2133.8049,-72.6519"/>
<polygon fill="#191970" stroke="#191970" points="3462.3415,-130.301 3472.8502,-128.953 3463.7946,-123.4535 3462.3415,-130.301"/>
</g>
<!-- Node20&#45;&gt;Node16 -->
<g id="edge39" class="edge">
<title>Node20&#45;&gt;Node16</title>
<path fill="none" stroke="#191970" d="M2308.2348,-122.9407C2148.6424,-103.389 2106.3407,-107.4569 1951.0483,-87 1948.3145,-86.6399 1945.5386,-86.2618 1942.7371,-85.8696"/>
<polygon fill="#191970" stroke="#191970" points="2308.0613,-126.4459 2318.4154,-124.2003 2308.9209,-119.4988 2308.0613,-126.4459"/>
</g>
<!-- Node20&#45;&gt;Node17 -->
<g id="edge40" class="edge">
<title>Node20&#45;&gt;Node17</title>
<path fill="none" stroke="#191970" d="M2320.8558,-121.6232C2261.9067,-110.832 2186.1182,-96.9582 2129.2277,-86.5438"/>
<polygon fill="#191970" stroke="#191970" points="2320.4439,-125.1059 2330.9107,-123.4639 2321.7044,-118.2203 2320.4439,-125.1059"/>
</g>
<!-- Node21&#45;&gt;Node16 -->
<g id="edge42" class="edge">
<title>Node21&#45;&gt;Node16</title>
<path fill="none" stroke="#191970" d="M2537.083,-126.7653C2530.0661,-125.3119 2522.8918,-123.9914 2516.0483,-123 2267.0276,-86.9238 2201.0728,-115.2931 1951.0483,-87 1948.3084,-86.69 1945.5271,-86.3555 1942.721,-86.001"/>
<polygon fill="#191970" stroke="#191970" points="2536.6784,-130.2591 2547.1941,-128.9668 2538.1677,-123.4194 2536.6784,-130.2591"/>
</g>
<!-- Node21&#45;&gt;Node17 -->
<g id="edge43" class="edge">
<title>Node21&#45;&gt;Node17</title>
<path fill="none" stroke="#191970" d="M2535.5809,-126.7393C2529.0384,-125.3611 2522.3953,-124.0682 2516.0483,-123 2383.574,-100.7041 2228.3546,-85.8392 2133.8998,-78.0346"/>
<polygon fill="#191970" stroke="#191970" points="2535.2055,-130.2398 2545.7221,-128.9553 2536.6998,-123.4012 2535.2055,-130.2398"/>
</g>
<!-- Node23&#45;&gt;Node16 -->
<g id="edge45" class="edge">
<title>Node23&#45;&gt;Node16</title>
<path fill="none" stroke="#191970" d="M2649.7381,-122.9547C2339.9281,-87.0437 2257.4761,-119.7765 1951.0483,-87 1948.3066,-86.7067 1945.5236,-86.3869 1942.7162,-86.0451"/>
<polygon fill="#191970" stroke="#191970" points="2649.5717,-126.4591 2659.9116,-124.149 2650.3879,-119.5069 2649.5717,-126.4591"/>
</g>
<!-- Node23&#45;&gt;Node17 -->
<g id="edge46" class="edge">
<title>Node23&#45;&gt;Node17</title>
<path fill="none" stroke="#191970" d="M2649.7352,-122.9049C2460.0547,-97.5927 2249.0905,-82.9947 2133.614,-76.1644"/>
<polygon fill="#191970" stroke="#191970" points="2649.5179,-126.4071 2659.8957,-124.2739 2650.4527,-119.4698 2649.5179,-126.4071"/>
</g>
<!-- Node24&#45;&gt;Node16 -->
<g id="edge48" class="edge">
<title>Node24&#45;&gt;Node16</title>
<path fill="none" stroke="#191970" d="M2849.053,-127.3292C2838.4312,-125.6385 2827.4351,-124.096 2817.0483,-123 2433.9537,-82.5768 2334.2815,-126.0864 1951.0483,-87 1948.3051,-86.7202 1945.521,-86.4121 1942.7125,-86.0805"/>
<polygon fill="#191970" stroke="#191970" points="2848.6536,-130.8105 2859.0901,-128.9858 2849.7936,-123.904 2848.6536,-130.8105"/>
</g>
<!-- Node24&#45;&gt;Node17 -->
<g id="edge49" class="edge">
<title>Node24&#45;&gt;Node17</title>
<path fill="none" stroke="#191970" d="M2847.5982,-127.3177C2837.4252,-125.6905 2826.9555,-124.172 2817.0483,-123 2570.0714,-93.784 2276.4189,-79.8599 2133.6318,-74.4123"/>
<polygon fill="#191970" stroke="#191970" points="2847.2043,-130.7999 2857.6403,-128.9723 2848.3424,-123.893 2847.2043,-130.7999"/>
</g>
<!-- Node25&#45;&gt;Node16 -->
<g id="edge51" class="edge">
<title>Node25&#45;&gt;Node16</title>
<path fill="none" stroke="#191970" d="M3020.2928,-126.6818C3013.2199,-125.2133 3005.9674,-123.9105 2999.0483,-123 2536.9793,-62.1952 2414.863,-132.6164 1951.0483,-87 1948.3042,-86.7301 1945.5191,-86.4306 1942.7099,-86.1065"/>
<polygon fill="#191970" stroke="#191970" points="3019.9481,-130.1898 3030.4672,-128.9255 3021.4556,-123.3541 3019.9481,-130.1898"/>
</g>
<!-- Node25&#45;&gt;Node17 -->
<g id="edge52" class="edge">
<title>Node25&#45;&gt;Node17</title>
<path fill="none" stroke="#191970" d="M3020.0323,-126.7524C3013.039,-125.2877 3005.8787,-123.9674 2999.0483,-123 2833.4231,-99.5426 2335.8692,-81.0222 2133.7849,-74.2659"/>
<polygon fill="#191970" stroke="#191970" points="3019.5813,-130.2371 3030.101,-128.9773 3021.0917,-123.402 3019.5813,-130.2371"/>
</g>
<!-- Node66&#45;&gt;Node16 -->
<g id="edge54" class="edge">
<title>Node66&#45;&gt;Node16</title>
<path fill="none" stroke="#191970" d="M1592.0023,-126.8141C1598.0906,-125.5247 1604.2008,-124.2329 1610.0483,-123 1668.5411,-110.6674 1734.8808,-96.7854 1783.9169,-86.5442"/>
<polygon fill="#191970" stroke="#191970" points="1590.8837,-123.4734 1581.8269,-128.9711 1592.3353,-130.3212 1590.8837,-123.4734"/>
</g>
<!-- Node66&#45;&gt;Node17 -->
<g id="edge55" class="edge">
<title>Node66&#45;&gt;Node17</title>
<path fill="none" stroke="#191970" d="M1588.0993,-126.956C1595.4422,-125.5011 1602.9223,-124.1295 1610.0483,-123 1760.5669,-99.1413 1799.9889,-107.1532 1951.0483,-87 1954.1441,-86.587 1957.2938,-86.1527 1960.4735,-85.7024"/>
<polygon fill="#191970" stroke="#191970" points="1587.3136,-123.5441 1578.2175,-128.9766 1588.7159,-130.4022 1587.3136,-123.5441"/>
</g>
<!-- Node159&#45;&gt;Node16 -->
<g id="edge57" class="edge">
<title>Node159&#45;&gt;Node16</title>
<path fill="none" stroke="#191970" d="M1739.7718,-119.5897C1765.0096,-109.1518 1795.9259,-96.3654 1819.5337,-86.6017"/>
<polygon fill="#191970" stroke="#191970" points="1738.3074,-116.4077 1730.4042,-123.4639 1740.9828,-122.8763 1738.3074,-116.4077"/>
</g>
<!-- Node159&#45;&gt;Node17 -->
<g id="edge58" class="edge">
<title>Node159&#45;&gt;Node17</title>
<path fill="none" stroke="#191970" d="M1779.0584,-122.3649C1836.5145,-111.4597 1911.8481,-97.1612 1968.0068,-86.5022"/>
<polygon fill="#191970" stroke="#191970" points="1778.0824,-118.9876 1768.9105,-124.291 1779.3878,-125.8648 1778.0824,-118.9876"/>
</g>
<!-- Node160&#45;&gt;Node16 -->
<g id="edge60" class="edge">
<title>Node160&#45;&gt;Node16</title>
<path fill="none" stroke="#191970" d="M1861.6656,-113.3179C1860.4598,-104.3414 1859.1397,-94.5143 1858.0824,-86.6432"/>
<polygon fill="#191970" stroke="#191970" points="1858.2058,-113.8517 1863.006,-123.2967 1865.1434,-112.9197 1858.2058,-113.8517"/>
</g>
<!-- Node160&#45;&gt;Node17 -->
<g id="edge61" class="edge">
<title>Node160&#45;&gt;Node17</title>
<path fill="none" stroke="#191970" d="M1915.2959,-120.0023C1943.8508,-109.4903 1979.1528,-96.4945 2006.0258,-86.6017"/>
<polygon fill="#191970" stroke="#191970" points="1914.0678,-116.7247 1905.8926,-123.4639 1916.4861,-123.2937 1914.0678,-116.7247"/>
</g>
<!-- Node161&#45;&gt;Node16 -->
<g id="edge63" class="edge">
<title>Node161&#45;&gt;Node16</title>
<path fill="none" stroke="#191970" d="M2009.8761,-125.4605C1978.0528,-114.2974 1932.2246,-98.2216 1898.8715,-86.5218"/>
<polygon fill="#191970" stroke="#191970" points="2009.0878,-128.8931 2019.6826,-128.9005 2011.4049,-122.2877 2009.0878,-128.8931"/>
</g>
<!-- Node161&#45;&gt;Node17 -->
<g id="edge64" class="edge">
<title>Node161&#45;&gt;Node17</title>
<path fill="none" stroke="#191970" d="M2047.0483,-118.7758C2047.0483,-108.4641 2047.0483,-96.0437 2047.0483,-86.5218"/>
<polygon fill="#191970" stroke="#191970" points="2043.5484,-118.9005 2047.0483,-128.9005 2050.5484,-118.9006 2043.5484,-118.9005"/>
</g>
<!-- Node162&#45;&gt;Node16 -->
<g id="edge66" class="edge">
<title>Node162&#45;&gt;Node16</title>
<path fill="none" stroke="#191970" d="M2140.0635,-122.8235C2066.7167,-109.4395 1993.9863,-96.3069 1939.6166,-86.517"/>
<polygon fill="#191970" stroke="#191970" points="2139.479,-126.2745 2149.945,-124.6274 2140.7362,-119.3883 2139.479,-126.2745"/>
</g>
<!-- Node162&#45;&gt;Node17 -->
<g id="edge67" class="edge">
<title>Node162&#45;&gt;Node17</title>
<path fill="none" stroke="#191970" d="M2175.5403,-119.865C2147.6776,-109.3773 2113.3372,-96.4515 2087.1692,-86.6017"/>
<polygon fill="#191970" stroke="#191970" points="2174.5096,-123.2167 2185.1016,-123.4639 2176.9756,-116.6654 2174.5096,-123.2167"/>
</g>
<!-- Node167&#45;&gt;Node16 -->
<g id="edge69" class="edge">
<title>Node167&#45;&gt;Node16</title>
<path fill="none" stroke="#191970" d="M318.0185,-127.3211C328.638,-125.6142 339.6498,-124.0682 350.0483,-123 628.1815,-94.4287 1491.7766,-77.6655 1769.2546,-72.9106"/>
<polygon fill="#191970" stroke="#191970" points="317.2765,-123.8965 307.9899,-128.9966 318.43,-130.8008 317.2765,-123.8965"/>
</g>
<!-- Node167&#45;&gt;Node17 -->
<g id="edge70" class="edge">
<title>Node167&#45;&gt;Node17</title>
<path fill="none" stroke="#191970" d="M317.6424,-127.2791C328.3757,-125.5588 339.5241,-124.0189 350.0483,-123 1058.4712,-54.413 1242.2758,-151.8767 1951.0483,-87 1954.1585,-86.7153 1957.3206,-86.3908 1960.5107,-86.0338"/>
<polygon fill="#191970" stroke="#191970" points="316.7988,-123.8714 307.5128,-128.9726 317.9531,-130.7756 316.7988,-123.8714"/>
</g>
<!-- Node169&#45;&gt;Node16 -->
<g id="edge72" class="edge">
<title>Node169&#45;&gt;Node16</title>
<path fill="none" stroke="#191970" d="M507.1312,-122.8965C771.1829,-93.3007 1514.4804,-77.633 1769.2026,-72.9869"/>
<polygon fill="#191970" stroke="#191970" points="506.339,-119.4647 496.8072,-124.0902 507.143,-126.4184 506.339,-119.4647"/>
</g>
<!-- Node169&#45;&gt;Node17 -->
<g id="edge73" class="edge">
<title>Node169&#45;&gt;Node17</title>
<path fill="none" stroke="#191970" d="M507.1874,-122.8869C1145.7108,-52.3148 1314.3679,-146.0512 1951.0483,-87 1954.1582,-86.7116 1957.3199,-86.3839 1960.5099,-86.0241"/>
<polygon fill="#191970" stroke="#191970" points="506.3525,-119.4581 496.8019,-124.0446 507.1281,-126.4151 506.3525,-119.4581"/>
</g>
<!-- Node185&#45;&gt;Node16 -->
<g id="edge75" class="edge">
<title>Node185&#45;&gt;Node16</title>
<path fill="none" stroke="#191970" d="M623.7851,-126.902C631.523,-125.3623 639.4793,-123.98 647.0483,-123 864.3804,-94.8618 1530.4192,-78.3829 1769.4887,-73.2474"/>
<polygon fill="#191970" stroke="#191970" points="622.8591,-123.52 613.7894,-128.9964 624.2947,-130.3712 622.8591,-123.52"/>
</g>
<!-- Node185&#45;&gt;Node17 -->
<g id="edge76" class="edge">
<title>Node185&#45;&gt;Node17</title>
<path fill="none" stroke="#191970" d="M623.2422,-126.9079C631.148,-125.3377 639.299,-123.9444 647.0483,-123 1222.5667,-52.8633 1373.8227,-141.3256 1951.0483,-87 1954.1578,-86.7073 1957.3192,-86.376 1960.5088,-86.0132"/>
<polygon fill="#191970" stroke="#191970" points="622.4764,-123.4922 613.4079,-128.9707 623.9135,-130.3431 622.4764,-123.4922"/>
</g>
<!-- Node186&#45;&gt;Node16 -->
<g id="edge78" class="edge">
<title>Node186&#45;&gt;Node16</title>
<path fill="none" stroke="#191970" d="M797.4221,-127.344C807.9281,-125.6684 818.7869,-124.1272 829.0483,-123 1175.9733,-84.8917 1591.9655,-74.9533 1769.2108,-72.3843"/>
<polygon fill="#191970" stroke="#191970" points="796.7855,-123.9017 787.4885,-128.9826 797.9249,-130.8083 796.7855,-123.9017"/>
</g>
<!-- Node186&#45;&gt;Node17 -->
<g id="edge79" class="edge">
<title>Node186&#45;&gt;Node17</title>
<path fill="none" stroke="#191970" d="M796.6646,-127.3059C807.4019,-125.6005 818.5355,-124.059 829.0483,-123 1325.4594,-72.9959 1454.4259,-134.8607 1951.0483,-87 1954.1571,-86.7004 1957.318,-86.3631 1960.5071,-85.9953"/>
<polygon fill="#191970" stroke="#191970" points="795.8206,-123.8978 786.5247,-128.9807 796.9614,-130.8042 795.8206,-123.8978"/>
</g>
<!-- Node204&#45;&gt;Node16 -->
<g id="edge81" class="edge">
<title>Node204&#45;&gt;Node16</title>
<path fill="none" stroke="#191970" d="M1003.9224,-122.9937C1289.8213,-89.5518 1616.8583,-77.5085 1769.4847,-73.4107"/>
<polygon fill="#191970" stroke="#191970" points="1003.2904,-119.5439 993.7698,-124.1924 1004.1112,-126.4956 1003.2904,-119.5439"/>
</g>
<!-- Node204&#45;&gt;Node17 -->
<g id="edge82" class="edge">
<title>Node204&#45;&gt;Node17</title>
<path fill="none" stroke="#191970" d="M1003.745,-123.0406C1423.9932,-78.7024 1534.7544,-128.3553 1951.0483,-87 1954.1562,-86.6912 1957.3163,-86.3462 1960.5048,-85.9716"/>
<polygon fill="#191970" stroke="#191970" points="1003.3324,-119.5647 993.76,-124.1055 1004.0748,-126.5252 1003.3324,-119.5647"/>
</g>
<!-- Node240&#45;&gt;Node16 -->
<g id="edge84" class="edge">
<title>Node240&#45;&gt;Node16</title>
<path fill="none" stroke="#191970" d="M1140.3551,-127.1715C1149.2541,-125.6012 1158.3857,-124.1388 1167.0483,-123 1382.7547,-94.6425 1638.6619,-80.6161 1769.5282,-74.8482"/>
<polygon fill="#191970" stroke="#191970" points="1139.654,-123.7416 1130.4441,-128.9788 1140.9098,-130.628 1139.654,-123.7416"/>
</g>
<!-- Node240&#45;&gt;Node17 -->
<g id="edge85" class="edge">
<title>Node240&#45;&gt;Node17</title>
<path fill="none" stroke="#191970" d="M1139.0668,-127.173C1148.3651,-125.5438 1157.9599,-124.0623 1167.0483,-123 1513.5014,-82.5062 1604.0846,-122.8577 1951.0483,-87 1954.155,-86.6789 1957.314,-86.3233 1960.5016,-85.9398"/>
<polygon fill="#191970" stroke="#191970" points="1138.3408,-123.7476 1129.1316,-128.986 1139.5975,-130.6339 1138.3408,-123.7476"/>
</g>
<!-- Node293&#45;&gt;Node16 -->
<g id="edge87" class="edge">
<title>Node293&#45;&gt;Node16</title>
<path fill="none" stroke="#191970" d="M1324.1065,-122.9378C1487.1487,-99.3171 1665.8496,-84.6163 1769.4108,-77.2005"/>
<polygon fill="#191970" stroke="#191970" points="1323.2749,-119.5221 1313.887,-124.4332 1324.2884,-126.4484 1323.2749,-119.5221"/>
</g>
<!-- Node293&#45;&gt;Node17 -->
<g id="edge88" class="edge">
<title>Node293&#45;&gt;Node17</title>
<path fill="none" stroke="#191970" d="M1323.852,-123.0257C1602.1095,-88.3565 1676.3849,-116.9656 1951.0483,-87 1954.1531,-86.6613 1957.3105,-86.2905 1960.4967,-85.8942"/>
<polygon fill="#191970" stroke="#191970" points="1323.3498,-119.5612 1313.8668,-124.2859 1324.2263,-126.5061 1323.3498,-119.5612"/>
</g>
<!-- Node298&#45;&gt;Node16 -->
<g id="edge90" class="edge">
<title>Node298&#45;&gt;Node16</title>
<path fill="none" stroke="#191970" d="M1443.4725,-126.7824C1450.0406,-125.4186 1456.6927,-124.1179 1463.0483,-123 1567.9257,-104.5534 1689.6144,-89.5898 1769.4665,-80.6389"/>
<polygon fill="#191970" stroke="#191970" points="1442.3237,-123.4487 1433.2752,-128.9601 1443.7857,-130.2944 1442.3237,-123.4487"/>
</g>
<!-- Node298&#45;&gt;Node17 -->
<g id="edge91" class="edge">
<title>Node298&#45;&gt;Node17</title>
<path fill="none" stroke="#191970" d="M1441.1732,-126.8891C1448.4708,-125.406 1455.9363,-124.0442 1463.0483,-123 1678.2199,-91.4093 1735.0532,-112.3561 1951.0483,-87 1954.1502,-86.6359 1957.3052,-86.2434 1960.4893,-85.8286"/>
<polygon fill="#191970" stroke="#191970" points="1440.4307,-123.4686 1431.375,-128.9681 1441.8837,-130.3161 1440.4307,-123.4686"/>
</g>
<!-- Node307&#45;&gt;Node3 -->
<g id="edge93" class="edge">
<title>Node307&#45;&gt;Node3</title>
<path fill="none" stroke="#191970" d="M3549.8976,-189.9782C3619.7245,-182.4939 3764.0812,-192.0086 3803.0483,-154 3840.6047,-117.3672 3833.1171,-45.8259 3828.8748,-19.781"/>
<polygon fill="#191970" stroke="#191970" points="3549.2332,-186.5345 3539.7575,-191.2739 3550.1205,-193.4781 3549.2332,-186.5345"/>
</g>
<!-- Node308&#45;&gt;Node3 -->
<g id="edge95" class="edge">
<title>Node308&#45;&gt;Node3</title>
<path fill="none" stroke="#191970" d="M1261.3556,-190.0312C1261.2531,-190.0208 1261.1507,-190.0104 1261.0483,-190 1193.0883,-183.1225 79.6363,-203.0024 32.0483,-154 22.4496,-144.116 23.021,-133.4085 32.0483,-123 170.008,36.0689 291.1255,-72.3784 501.0483,-56 845.0506,-29.1606 3445.6686,-12.3419 3789.5463,-10.2265"/>
<polygon fill="#191970" stroke="#191970" points="1260.6986,-193.4789 1271.0307,-191.1341 1261.4915,-186.524 1260.6986,-193.4789"/>
</g>
<!-- Node329&#45;&gt;Node3 -->
<g id="edge99" class="edge">
<title>Node329&#45;&gt;Node3</title>
<path fill="none" stroke="#191970" d="M3671.8466,-193.7747C3737.2928,-179.6453 3838.3646,-157.3707 3841.0483,-154 3873.2773,-113.5203 3844.5724,-44.9445 3832.1301,-19.7012"/>
<polygon fill="#191970" stroke="#191970" points="3670.7073,-190.4398 3661.6693,-195.9683 3672.1823,-197.2827 3670.7073,-190.4398"/>
</g>
<!-- Node330&#45;&gt;Node3 -->
<g id="edge101" class="edge">
<title>Node330&#45;&gt;Node3</title>
<path fill="none" stroke="#191970" d="M3893.3047,-193.7435C3945.1498,-182.1559 4015.9246,-164.6786 4024.0483,-154 4074.0012,-88.3365 3933.942,-39.2421 3864.0619,-19.5085"/>
<polygon fill="#191970" stroke="#191970" points="3892.5445,-190.327 3883.5383,-195.9072 3894.0587,-197.1613 3892.5445,-190.327"/>
</g>
<!-- Node331&#45;&gt;Node3 -->
<g id="edge103" class="edge">
<title>Node331&#45;&gt;Node3</title>
<path fill="none" stroke="#191970" d="M4236.2191,-185.6749C4230.4061,-152.8699 4213.8566,-87.768 4171.0483,-56 4123.1462,-20.452 3943.5599,-12.3748 3864.6437,-10.5396"/>
<polygon fill="#191970" stroke="#191970" points="4232.8079,-186.5074 4237.8529,-195.824 4239.719,-185.3948 4232.8079,-186.5074"/>
</g>
<!-- Node332&#45;&gt;Node3 -->
<g id="edge105" class="edge">
<title>Node332&#45;&gt;Node3</title>
<path fill="none" stroke="#191970" d="M4333.2177,-187.0332C4311.1175,-154.2958 4260.1352,-86.6523 4198.0483,-56 4139.9969,-27.3401 3947.1144,-15.4134 3864.8025,-11.5449"/>
<polygon fill="#191970" stroke="#191970" points="4330.4694,-189.2229 4338.901,-195.6384 4336.3104,-185.3651 4330.4694,-189.2229"/>
</g>
<!-- Node333&#45;&gt;Node324 -->
<g id="edge108" class="edge">
<title>Node333&#45;&gt;Node324</title>
<path fill="none" stroke="#191970" d="M3821.5168,-303.7493C3818.4147,-294.6064 3814.8432,-284.0798 3812.3199,-276.6427"/>
<polygon fill="#191970" stroke="#191970" points="3818.2112,-304.9003 3824.7387,-313.2455 3824.8401,-302.6512 3818.2112,-304.9003"/>
</g>
<!-- Node326&#45;&gt;Node3 -->
<g id="edge110" class="edge">
<title>Node326&#45;&gt;Node3</title>
<path fill="none" stroke="#191970" d="M962.5418,-204.5717C733.8578,-201.2932 40.8968,-188.5371 8.0483,-154 -13.0308,-131.8374 13.4256,-67.6217 29.0483,-56 68.8742,-26.3734 3396.2248,-11.7742 3789.259,-10.1525"/>
<polygon fill="#191970" stroke="#191970" points="962.7044,-208.0743 972.7529,-204.7162 962.8035,-201.075 962.7044,-208.0743"/>
</g>
<!-- Node327&#45;&gt;Node3 -->
<g id="edge113" class="edge">
<title>Node327&#45;&gt;Node3</title>
<path fill="none" stroke="#191970" d="M1132.7173,-194.0674C1123.862,-192.4491 1114.7181,-190.9986 1106.0483,-190 1046.1886,-183.105 63.9422,-197.3084 22.0483,-154 -12.3449,-118.4456 48.8278,-66.6728 69.0483,-56 112.4722,-33.08 3399.5317,-12.5766 3789.3962,-10.2245"/>
<polygon fill="#191970" stroke="#191970" points="1132.072,-197.5074 1142.5519,-195.9507 1133.3886,-190.6323 1132.072,-197.5074"/>
</g>
<!-- Node328&#45;&gt;Node3 -->
<g id="edge117" class="edge">
<title>Node328&#45;&gt;Node3</title>
<path fill="none" stroke="#191970" d="M3306.5624,-194.2931C3316.4032,-192.7107 3326.4904,-191.2128 3336.0483,-190 3430.9557,-177.9572 3687.4074,-209.8958 3765.0483,-154 3810.9949,-120.9218 3823.2079,-46.5332 3826.1725,-19.8003"/>
<polygon fill="#191970" stroke="#191970" points="3305.7262,-190.8836 3296.429,-195.9641 3306.8652,-197.7903 3305.7262,-190.8836"/>
</g>
<!-- Node334&#45;&gt;Node11 -->
<g id="edge121" class="edge">
<title>Node334&#45;&gt;Node11</title>
<path fill="none" stroke="#191970" d="M1474.3353,-194.4529C1462.3238,-192.6857 1449.8229,-191.0845 1438.0483,-190 876.6418,-138.2926 729.4548,-224.1085 170.0483,-154 159.3277,-152.6564 147.8243,-150.405 137.3429,-148.0287"/>
<polygon fill="#191970" stroke="#191970" points="1473.8701,-197.9223 1484.2832,-195.9686 1474.9245,-191.0022 1473.8701,-197.9223"/>
</g>
<!-- Node334&#45;&gt;Node66 -->
<g id="edge122" class="edge">
<title>Node334&#45;&gt;Node66</title>
<path fill="none" stroke="#191970" d="M1537.0483,-185.6079C1537.0483,-173.214 1537.0483,-157.8263 1537.0483,-148.0817"/>
<polygon fill="#191970" stroke="#191970" points="1533.5484,-185.9005 1537.0483,-195.9005 1540.5484,-185.9006 1533.5484,-185.9005"/>
</g>
<!-- Node334&#45;&gt;Node159 -->
<g id="edge123" class="edge">
<title>Node334&#45;&gt;Node159</title>
<path fill="none" stroke="#191970" d="M1568.9725,-191.8763C1595.0633,-180.742 1631.9068,-165.019 1658.848,-153.5218"/>
<polygon fill="#191970" stroke="#191970" points="1567.3662,-188.7563 1559.5425,-195.9005 1570.1138,-195.1946 1567.3662,-188.7563"/>
</g>
<!-- Node334&#45;&gt;Node160 -->
<g id="edge124" class="edge">
<title>Node334&#45;&gt;Node160</title>
<path fill="none" stroke="#191970" d="M1593.564,-193.9556C1648.263,-182.7823 1731.469,-165.786 1791.3445,-153.5553"/>
<polygon fill="#191970" stroke="#191970" points="1592.7915,-190.5411 1583.6943,-195.9717 1594.1925,-197.3994 1592.7915,-190.5411"/>
</g>
<!-- Node334&#45;&gt;Node161 -->
<g id="edge125" class="edge">
<title>Node334&#45;&gt;Node161</title>
<path fill="none" stroke="#191970" d="M1632.1146,-194.8338C1716.5268,-185.1003 1843.1709,-169.8538 1953.0483,-154 1965.4897,-152.2049 1978.8287,-150.1095 1991.4358,-148.0504"/>
<polygon fill="#191970" stroke="#191970" points="1631.5684,-191.3735 1622.0338,-195.9932 1632.3682,-198.3276 1631.5684,-191.3735"/>
</g>
<!-- Node334&#45;&gt;Node162 -->
<g id="edge126" class="edge">
<title>Node334&#45;&gt;Node162</title>
<path fill="none" stroke="#191970" d="M1637.4222,-199.9429C1757.5391,-192.6005 1964.5767,-177.7476 2141.0483,-154 2143.9877,-153.6044 2146.9805,-153.1761 2150.0004,-152.7225"/>
<polygon fill="#191970" stroke="#191970" points="1636.9138,-196.4672 1627.1439,-200.5658 1637.3373,-203.4543 1636.9138,-196.4672"/>
</g>
<!-- Node334&#45;&gt;Node167 -->
<g id="edge127" class="edge">
<title>Node334&#45;&gt;Node167</title>
<path fill="none" stroke="#191970" d="M1474.124,-194.467C1462.1763,-192.7078 1449.7526,-191.1057 1438.0483,-190 956.3727,-144.4961 831.363,-203.174 350.0483,-154 336.3258,-152.598 321.5359,-150.3588 307.9889,-148.0133"/>
<polygon fill="#191970" stroke="#191970" points="1473.6088,-197.9289 1484.0218,-195.9744 1474.6628,-191.0087 1473.6088,-197.9289"/>
</g>
<!-- Node334&#45;&gt;Node169 -->
<g id="edge128" class="edge">
<title>Node334&#45;&gt;Node169</title>
<path fill="none" stroke="#191970" d="M1473.5551,-194.4362C1461.7814,-192.7043 1449.5656,-191.1199 1438.0483,-190 1025.0211,-149.8371 917.1081,-203.1028 505.0483,-154 502.3402,-153.6773 499.5853,-153.3104 496.8074,-152.9082"/>
<polygon fill="#191970" stroke="#191970" points="1473.3467,-197.9446 1483.7593,-195.9881 1474.3993,-191.0242 1473.3467,-197.9446"/>
</g>
<!-- Node334&#45;&gt;Node185 -->
<g id="edge129" class="edge">
<title>Node334&#45;&gt;Node185</title>
<path fill="none" stroke="#191970" d="M1473.1378,-194.441C1461.4916,-192.726 1449.4278,-191.1463 1438.0483,-190 1087.9007,-154.7292 995.9886,-199.6938 647.0483,-154 636.2897,-152.5912 624.747,-150.3797 614.161,-148.0638"/>
<polygon fill="#191970" stroke="#191970" points="1472.8248,-197.9335 1483.2371,-195.9754 1473.8763,-191.013 1472.8248,-197.9335"/>
</g>
<!-- Node334&#45;&gt;Node186 -->
<g id="edge130" class="edge">
<title>Node334&#45;&gt;Node186</title>
<path fill="none" stroke="#191970" d="M1472.5076,-194.4775C1461.0542,-192.7837 1449.219,-191.2018 1438.0483,-190 1168.4648,-160.9963 1098.4312,-184.81 829.0483,-154 815.6735,-152.4703 801.2783,-150.2756 787.9724,-148.0171"/>
<polygon fill="#191970" stroke="#191970" points="1472.0358,-197.9459 1482.4481,-195.9879 1473.0874,-191.0253 1472.0358,-197.9459"/>
</g>
<!-- Node334&#45;&gt;Node204 -->
<g id="edge131" class="edge">
<title>Node334&#45;&gt;Node204</title>
<path fill="none" stroke="#191970" d="M1470.9116,-194.4629C1459.953,-192.8303 1448.6947,-191.2723 1438.0483,-190 1245.4245,-166.9811 1195.4196,-179.0407 1003.0483,-154 1000.0055,-153.6039 996.9072,-153.1751 993.7806,-152.7212"/>
<polygon fill="#191970" stroke="#191970" points="1470.4525,-197.9332 1480.8651,-195.977 1471.5052,-191.0128 1470.4525,-197.9332"/>
</g>
<!-- Node334&#45;&gt;Node240 -->
<g id="edge132" class="edge">
<title>Node334&#45;&gt;Node240</title>
<path fill="none" stroke="#191970" d="M1467.7755,-194.4447C1457.8056,-192.9146 1447.6686,-191.3919 1438.0483,-190 1317.7978,-172.6017 1287.0096,-173.2909 1167.0483,-154 1156.0338,-152.2288 1144.2268,-150.1208 1133.1004,-148.0388"/>
<polygon fill="#191970" stroke="#191970" points="1467.247,-197.9045 1477.6643,-195.9727 1468.316,-190.9866 1467.247,-197.9045"/>
</g>
<!-- Node334&#45;&gt;Node293 -->
<g id="edge133" class="edge">
<title>Node334&#45;&gt;Node293</title>
<path fill="none" stroke="#191970" d="M1485.5179,-193.6762C1436.812,-182.5006 1363.5241,-165.6845 1310.6626,-153.5553"/>
<polygon fill="#191970" stroke="#191970" points="1484.9924,-197.1466 1495.5219,-195.9717 1486.5579,-190.3239 1484.9924,-197.1466"/>
</g>
<!-- Node334&#45;&gt;Node298 -->
<g id="edge134" class="edge">
<title>Node334&#45;&gt;Node298</title>
<path fill="none" stroke="#191970" d="M1507.1139,-191.5722C1479.1378,-178.5555 1438.1117,-159.467 1413.6417,-148.0817"/>
<polygon fill="#191970" stroke="#191970" points="1505.8734,-194.8553 1516.4166,-195.9005 1508.8264,-188.5086 1505.8734,-194.8553"/>
</g>
<!-- Node335&#45;&gt;Node6 -->
<g id="edge139" class="edge">
<title>Node335&#45;&gt;Node6</title>
<path fill="none" stroke="#191970" d="M3336.9913,-247.2246C3337.219,-229.391 3340.7084,-203.8949 3357.0483,-190 3394.9225,-157.7929 3753.5391,-158.5386 3803.0483,-154 3832.5716,-151.2935 3865.3077,-147.9724 3892.7313,-145.0996"/>
<polygon fill="#191970" stroke="#191970" points="3333.4955,-247.4752 3337.1976,-257.4022 3340.4941,-247.3333 3333.4955,-247.4752"/>
</g>
<!-- Node335&#45;&gt;Node323 -->
<g id="edge145" class="edge">
<title>Node335&#45;&gt;Node323</title>
<path fill="none" stroke="#191970" d="M3427.1863,-260.8975C3540.2918,-252.9178 3741.3321,-237.9446 3913.0483,-221 3930.8443,-219.2439 3949.9629,-217.1306 3967.9724,-215.0372"/>
<polygon fill="#191970" stroke="#191970" points="3426.9186,-257.4076 3417.1889,-261.6008 3427.4099,-264.3904 3426.9186,-257.4076"/>
</g>
<!-- Node335&#45;&gt;Node10 -->
<g id="edge136" class="edge">
<title>Node335&#45;&gt;Node10</title>
<path fill="none" stroke="#191970" d="M3248.8969,-257.3446C3247.6056,-257.2274 3246.3221,-257.1124 3245.0483,-257 2982.8528,-233.8617 2668.0412,-215.0706 2548.419,-208.2544"/>
<polygon fill="#191970" stroke="#191970" points="3248.6377,-260.8356 3258.9206,-258.2839 3249.2908,-253.8661 3248.6377,-260.8356"/>
</g>
<!-- Node335&#45;&gt;Node307 -->
<g id="edge137" class="edge">
<title>Node335&#45;&gt;Node307</title>
<path fill="none" stroke="#191970" d="M3364.8678,-252.6574C3382.8976,-243.0154 3406.6186,-230.3298 3424.9161,-220.5446"/>
<polygon fill="#191970" stroke="#191970" points="3363.1847,-249.5884 3356.017,-257.3906 3366.4858,-255.7611 3363.1847,-249.5884"/>
</g>
<!-- Node335&#45;&gt;Node308 -->
<g id="edge138" class="edge">
<title>Node335&#45;&gt;Node308</title>
<path fill="none" stroke="#191970" d="M3248.9036,-257.2566C3247.6102,-257.1668 3246.3245,-257.0812 3245.0483,-257 2443.3976,-206.0125 2237.5323,-298.9022 1438.0483,-221 1435.1147,-220.7142 1432.1318,-220.3854 1429.1232,-220.0216"/>
<polygon fill="#191970" stroke="#191970" points="3248.7041,-260.7514 3258.9407,-258.0195 3249.2347,-253.7716 3248.7041,-260.7514"/>
</g>
<!-- Node335&#45;&gt;Node329 -->
<g id="edge141" class="edge">
<title>Node335&#45;&gt;Node329</title>
<path fill="none" stroke="#191970" d="M3391.7451,-255.3203C3434.1853,-246.0692 3494.9194,-232.7862 3548.0483,-221 3556.6784,-219.0855 3565.9121,-217.0218 3574.7272,-215.0443"/>
<polygon fill="#191970" stroke="#191970" points="3390.9296,-251.9158 3381.9041,-257.4647 3392.42,-258.7553 3390.9296,-251.9158"/>
</g>
<!-- Node335&#45;&gt;Node330 -->
<g id="edge143" class="edge">
<title>Node335&#45;&gt;Node330</title>
<path fill="none" stroke="#191970" d="M3425.2932,-256.2689C3523.894,-244.141 3682.2368,-224.6648 3771.4159,-213.6958"/>
<polygon fill="#191970" stroke="#191970" points="3424.8488,-252.7971 3415.3509,-257.4918 3425.7034,-259.7447 3424.8488,-252.7971"/>
</g>
<!-- Node335&#45;&gt;Node326 -->
<g id="edge140" class="edge">
<title>Node335&#45;&gt;Node326</title>
<path fill="none" stroke="#191970" d="M3248.8668,-261.026C3223.1197,-259.4902 3194.9765,-257.9929 3169.0483,-257 2710.8698,-239.4544 1561.4708,-274.1564 1106.0483,-221 1094.8951,-219.6982 1082.9155,-217.4282 1072.032,-215.0205"/>
<polygon fill="#191970" stroke="#191970" points="3248.7893,-264.5276 3258.9826,-261.6385 3249.2125,-257.5404 3248.7893,-264.5276"/>
</g>
<!-- Node335&#45;&gt;Node327 -->
<g id="edge142" class="edge">
<title>Node335&#45;&gt;Node327</title>
<path fill="none" stroke="#191970" d="M3248.9038,-257.2534C3247.6103,-257.1646 3246.3246,-257.08 3245.0483,-257 2805.1732,-229.4129 1700.2595,-268.1381 1262.0483,-221 1249.831,-219.6858 1236.6811,-217.412 1224.7237,-215.0046"/>
<polygon fill="#191970" stroke="#191970" points="3248.7065,-260.7484 3258.9413,-258.01 3249.2327,-253.7682 3248.7065,-260.7484"/>
</g>
<!-- Node335&#45;&gt;Node328 -->
<g id="edge144" class="edge">
<title>Node335&#45;&gt;Node328</title>
<path fill="none" stroke="#191970" d="M3315.0418,-251.786C3297.6521,-240.2864 3274.3168,-224.855 3259.4775,-215.0419"/>
<polygon fill="#191970" stroke="#191970" points="3313.2453,-254.7941 3323.517,-257.3906 3317.1064,-248.9553 3313.2453,-254.7941"/>
</g>
</g>
</svg>
        <g id="navigator" transform="translate(0 0)" fill="#404254">
                <rect fill="#f2f5e9" fill-opacity="0.5" stroke="#606060" stroke-width=".5" x="0" y="0" width="60" height="60"/>
                <use id="zoomplus" xlink:href="#zoomPlus" x="17" y="9" onmousedown="handleZoom(evt,'in')"/>
                <use id="zoomminus" xlink:href="#zoomMin" x="42" y="9" onmousedown="handleZoom(evt,'out')"/>
                <use id="reset" xlink:href="#resetDef" x="30" y="36" onmousedown="handleReset()"/>
                <g id="arrowUp" xlink:href="#dirArrow" transform="translate(30 24)" onmousedown="handlePan(0,-1)">
                  <use xlink:href="#rim" fill="#404040">
                        <set attributeName="fill" to="#808080" begin="arrowUp.mouseover" end="arrowUp.mouseout"/>
                  </use>
                  <path fill="none" stroke="white" stroke-width="1.5" d="M0,-3.0v7 M-2.5,-0.5L0,-3.0L2.5,-0.5"/>
                </g>
                <g id="arrowRight" xlink:href="#dirArrow" transform="rotate(90) translate(36 -43)" onmousedown="handlePan(1,0)">
                  <use xlink:href="#rim" fill="#404040">
                        <set attributeName="fill" to="#808080" begin="arrowRight.mouseover" end="arrowRight.mouseout"/>
                  </use>
                  <path fill="none" stroke="white" stroke-width="1.5" d="M0,-3.0v7 M-2.5,-0.5L0,-3.0L2.5,-0.5"/>
                </g>
                <g id="arrowDown" xlink:href="#dirArrow" transform="rotate(180) translate(-30 -48)" onmousedown="handlePan(0,1)">
                  <use xlink:href="#rim" fill="#404040">
                        <set attributeName="fill" to="#808080" begin="arrowDown.mouseover" end="arrowDown.mouseout"/>
                  </use>
                  <path fill="none" stroke="white" stroke-width="1.5" d="M0,-3.0v7 M-2.5,-0.5L0,-3.0L2.5,-0.5"/>
                </g>
                <g id="arrowLeft" xlink:href="#dirArrow" transform="rotate(270) translate(-36 17)" onmousedown="handlePan(-1,0)">
                  <use xlink:href="#rim" fill="#404040">
                        <set attributeName="fill" to="#808080" begin="arrowLeft.mouseover" end="arrowLeft.mouseout"/>
                  </use>
                  <path fill="none" stroke="white" stroke-width="1.5" d="M0,-3.0v7 M-2.5,-0.5L0,-3.0L2.5,-0.5"/>
                </g>
        </g>
        <svg viewBox="0 0 15 15" width="100%" height="30px" preserveAspectRatio="xMaxYMin meet">
         <g id="arrow_out" transform="scale(0.3 0.3)">
          <a xlink:href="sitkMemberFunctionFactoryBase_8h__dep__incl_org.svg" target="_base">
           <rect id="button" ry="5" rx="5" y="6" x="6" height="38" width="38"
                fill="#f2f5e9" fill-opacity="0.5" stroke="#606060" stroke-width="1.0"/>
           <path id="arrow"
             d="M 11.500037,31.436501 C 11.940474,20.09759 22.043105,11.32322 32.158766,21.979434 L 37.068811,17.246167 C 37.068811,17.246167 37.088388,32 37.088388,32 L 22.160133,31.978069 C 22.160133,31.978069 26.997745,27.140456 26.997745,27.140456 C 18.528582,18.264221 13.291696,25.230495 11.500037,31.436501 z"
             style="fill:#404040;"/>
          </a>
         </g>
        </svg>
</svg>
