<?xml version="1.0" encoding="UTF-8" standalone="no"?>
<!DOCTYPE svg PUBLIC "-//W3C//DTD SVG 1.1//EN"
 "http://www.w3.org/Graphics/SVG/1.1/DTD/svg11.dtd">
<!-- Generated by graphviz version 2.40.1 (20161225.0304)
 -->
<!-- Title: sitkImageFileWriter.h Pages: 1 -->
<!--zoomable 543 -->
<svg id="main" version="1.1" xmlns="http://www.w3.org/2000/svg" xmlns:xlink="http://www.w3.org/1999/xlink" xml:space="preserve" onload="init(evt)">
<style type="text/css"><![CDATA[
.edge:hover path { stroke: red; }
.edge:hover polygon { stroke: red; fill: red; }
]]></style>
<script type="text/javascript"><![CDATA[
var edges = document.getElementsByTagName('g');
if (edges && edges.length) {
  for (var i=0;i<edges.length;i++) {
    if (edges[i].id.substr(0,4)=='edge') {
      edges[i].setAttribute('class','edge');
    }
  }
}
]]></script>
        <defs>
                <circle id="rim" cx="0" cy="0" r="7"/>
                <circle id="rim2" cx="0" cy="0" r="3.5"/>
                <g id="zoomPlus">
                        <use xlink:href="#rim" fill="#404040">
                                <set attributeName="fill" to="#808080" begin="zoomplus.mouseover" end="zoomplus.mouseout"/>
                        </use>
                        <path d="M-4,0h8M0,-4v8" fill="none" stroke="white" stroke-width="1.5" pointer-events="none"/>
                </g>
                <g id="zoomMin">
                        <use xlink:href="#rim" fill="#404040">
                                <set attributeName="fill" to="#808080" begin="zoomminus.mouseover" end="zoomminus.mouseout"/>
                        </use>
                        <path d="M-4,0h8" fill="none" stroke="white" stroke-width="1.5" pointer-events="none"/>
                </g>
                <g id="dirArrow">
                        <path fill="none" stroke="white" stroke-width="1.5" d="M0,-3.0v7 M-2.5,-0.5L0,-3.0L2.5,-0.5"/>
                </g>
               <g id="resetDef">
                       <use xlink:href="#rim2" fill="#404040">
                               <set attributeName="fill" to="#808080" begin="reset.mouseover" end="reset.mouseout"/>
                       </use>
               </g>
        </defs>

<script type="text/javascript">
var viewWidth = 1540;
var viewHeight = 543;
var sectionId = 'dynsection-0';
</script>
<script xlink:href="svgpan.js"/>
<svg id="graph" class="graph">
<g id="viewport">
<title>sitkImageFileWriter.h</title>
<polygon fill="#ffffff" stroke="transparent" points="-4,4 -4,-539 1536,-539 1536,4 -4,4"/>
<!-- Node1 -->
<g id="node1" class="node">
<title>Node1</title>
<g id="a_node1"><a xlink:title=" ">
<polygon fill="#bfbfbf" stroke="#000000" points="1166.5,-515.5 1166.5,-534.5 1285.5,-534.5 1285.5,-515.5 1166.5,-515.5"/>
<text text-anchor="middle" x="1226" y="-522.5" font-family="Helvetica,sans-Serif" font-size="10.00" fill="#000000">sitkImageFileWriter.h</text>
</a>
</g>
</g>
<!-- Node2 -->
<g id="node2" class="node">
<title>Node2</title>
<g id="a_node2"><a xlink:href="sitkMacro_8h.html" target="_top" xlink:title=" ">
<polygon fill="#ffffff" stroke="#000000" points="1026.5,-56.5 1026.5,-75.5 1099.5,-75.5 1099.5,-56.5 1026.5,-56.5"/>
<text text-anchor="middle" x="1063" y="-63.5" font-family="Helvetica,sans-Serif" font-size="10.00" fill="#000000">sitkMacro.h</text>
</a>
</g>
</g>
<!-- Node1&#45;&gt;Node2 -->
<g id="edge1" class="edge">
<title>Node1&#45;&gt;Node2</title>
<path fill="none" stroke="#191970" d="M1285.5619,-521.3348C1333.4005,-516.4804 1401.2312,-505.2012 1455,-479 1495.5186,-459.2555 1532,-458.0733 1532,-413 1532,-413 1532,-413 1532,-178 1532,-91.8638 1228.9338,-71.8371 1110.0491,-67.2948"/>
<polygon fill="#191970" stroke="#191970" points="1109.9216,-63.788 1099.8016,-66.9244 1109.6687,-70.7834 1109.9216,-63.788"/>
</g>
<!-- Node9 -->
<g id="node9" class="node">
<title>Node9</title>
<g id="a_node9"><a xlink:href="sitkImage_8h.html" target="_top" xlink:title=" ">
<polygon fill="#ffffff" stroke="#000000" points="1051,-347.5 1051,-366.5 1125,-366.5 1125,-347.5 1051,-347.5"/>
<text text-anchor="middle" x="1088" y="-354.5" font-family="Helvetica,sans-Serif" font-size="10.00" fill="#000000">sitkImage.h</text>
</a>
</g>
</g>
<!-- Node1&#45;&gt;Node9 -->
<g id="edge8" class="edge">
<title>Node1&#45;&gt;Node9</title>
<path fill="none" stroke="#191970" d="M1166.4173,-519.1062C1108.8869,-509.7384 1025.6807,-485.5229 992,-423 978.1947,-397.3726 1010.255,-379.7 1040.9729,-369.138"/>
<polygon fill="#191970" stroke="#191970" points="1042.3953,-372.3568 1050.8392,-365.9575 1040.2476,-365.6944 1042.3953,-372.3568"/>
</g>
<!-- Node30 -->
<g id="node30" class="node">
<title>Node30</title>
<g id="a_node30"><a xlink:title=" ">
<polygon fill="#ffffff" stroke="#bfbfbf" points="1261,-291.5 1261,-310.5 1319,-310.5 1319,-291.5 1261,-291.5"/>
<text text-anchor="middle" x="1290" y="-298.5" font-family="Helvetica,sans-Serif" font-size="10.00" fill="#000000">memory</text>
</a>
</g>
</g>
<!-- Node1&#45;&gt;Node30 -->
<g id="edge72" class="edge">
<title>Node1&#45;&gt;Node30</title>
<path fill="none" stroke="#191970" d="M1234.6115,-515.4997C1249.3971,-498.4714 1279.0739,-460.9708 1290,-423 1300.0114,-388.2079 1296.6537,-345.4873 1293.3166,-320.9366"/>
<polygon fill="#191970" stroke="#191970" points="1296.7322,-320.1125 1291.7858,-310.7432 1289.8098,-321.1521 1296.7322,-320.1125"/>
</g>
<!-- Node31 -->
<g id="node31" class="node">
<title>Node31</title>
<g id="a_node31"><a xlink:href="sitkMemberFunctionFactory_8h.html" target="_top" xlink:title=" ">
<polygon fill="#ffffff" stroke="#000000" points="520,-347.5 520,-366.5 678,-366.5 678,-347.5 520,-347.5"/>
<text text-anchor="middle" x="599" y="-354.5" font-family="Helvetica,sans-Serif" font-size="10.00" fill="#000000">sitkMemberFunctionFactory.h</text>
</a>
</g>
</g>
<!-- Node1&#45;&gt;Node31 -->
<g id="edge49" class="edge">
<title>Node1&#45;&gt;Node31</title>
<path fill="none" stroke="#191970" d="M1178.7037,-515.4644C1136.4083,-506.7177 1072.819,-493.0264 1018,-479 877.7958,-443.1263 713.5427,-392.8641 639.1874,-369.6581"/>
<polygon fill="#191970" stroke="#191970" points="639.8928,-366.2117 629.304,-366.5675 637.8036,-372.8926 639.8928,-366.2117"/>
</g>
<!-- Node33 -->
<g id="node33" class="node">
<title>Node33</title>
<g id="a_node33"><a xlink:href="sitkIO_8h.html" target="_top" xlink:title=" ">
<polygon fill="#ffffff" stroke="#000000" points="1393.5,-459.5 1393.5,-478.5 1446.5,-478.5 1446.5,-459.5 1393.5,-459.5"/>
<text text-anchor="middle" x="1420" y="-466.5" font-family="Helvetica,sans-Serif" font-size="10.00" fill="#000000">sitkIO.h</text>
</a>
</g>
</g>
<!-- Node1&#45;&gt;Node33 -->
<g id="edge58" class="edge">
<title>Node1&#45;&gt;Node33</title>
<path fill="none" stroke="#191970" d="M1259.3498,-515.3733C1293.8604,-505.4114 1347.616,-489.8944 1383.3098,-479.591"/>
<polygon fill="#191970" stroke="#191970" points="1384.6791,-482.8387 1393.3162,-476.7026 1382.7377,-476.1133 1384.6791,-482.8387"/>
</g>
<!-- Node34 -->
<g id="node34" class="node">
<title>Node34</title>
<g id="a_node34"><a xlink:href="sitkProcessObject_8h.html" target="_top" xlink:title=" ">
<polygon fill="#ffffff" stroke="#000000" points="1086.5,-459.5 1086.5,-478.5 1199.5,-478.5 1199.5,-459.5 1086.5,-459.5"/>
<text text-anchor="middle" x="1143" y="-466.5" font-family="Helvetica,sans-Serif" font-size="10.00" fill="#000000">sitkProcessObject.h</text>
</a>
</g>
</g>
<!-- Node1&#45;&gt;Node34 -->
<g id="edge60" class="edge">
<title>Node1&#45;&gt;Node34</title>
<path fill="none" stroke="#191970" d="M1211.5425,-515.2455C1198.9268,-506.7337 1180.4056,-494.2375 1165.7955,-484.3801"/>
<polygon fill="#191970" stroke="#191970" points="1167.5391,-481.3343 1157.2918,-478.6427 1163.6239,-487.1371 1167.5391,-481.3343"/>
</g>
<!-- Node3 -->
<g id="node3" class="node">
<title>Node3</title>
<g id="a_node3"><a xlink:title=" ">
<polygon fill="#ffffff" stroke="#bfbfbf" points="773.5,-.5 773.5,-19.5 826.5,-19.5 826.5,-.5 773.5,-.5"/>
<text text-anchor="middle" x="800" y="-7.5" font-family="Helvetica,sans-Serif" font-size="10.00" fill="#000000">stdint.h</text>
</a>
</g>
</g>
<!-- Node2&#45;&gt;Node3 -->
<g id="edge2" class="edge">
<title>Node2&#45;&gt;Node3</title>
<path fill="none" stroke="#191970" d="M1026.431,-58.2134C976.3583,-47.5516 886.9641,-28.5171 836.7808,-17.8317"/>
<polygon fill="#191970" stroke="#191970" points="837.2054,-14.3437 826.6957,-15.6843 835.7475,-21.1902 837.2054,-14.3437"/>
</g>
<!-- Node4 -->
<g id="node4" class="node">
<title>Node4</title>
<g id="a_node4"><a xlink:title=" ">
<polygon fill="#ffffff" stroke="#bfbfbf" points="961,-.5 961,-19.5 1017,-19.5 1017,-.5 961,-.5"/>
<text text-anchor="middle" x="989" y="-7.5" font-family="Helvetica,sans-Serif" font-size="10.00" fill="#000000">stddef.h</text>
</a>
</g>
</g>
<!-- Node2&#45;&gt;Node4 -->
<g id="edge3" class="edge">
<title>Node2&#45;&gt;Node4</title>
<path fill="none" stroke="#191970" d="M1050.1102,-56.2455C1039.0746,-47.8943 1022.9708,-35.7076 1010.0647,-25.9408"/>
<polygon fill="#191970" stroke="#191970" points="1011.8283,-22.8862 1001.7421,-19.6427 1007.6041,-28.4681 1011.8283,-22.8862"/>
</g>
<!-- Node5 -->
<g id="node5" class="node">
<title>Node5</title>
<g id="a_node5"><a xlink:title=" ">
<polygon fill="#ffffff" stroke="#bfbfbf" points="252,-.5 252,-19.5 304,-19.5 304,-.5 252,-.5"/>
<text text-anchor="middle" x="278" y="-7.5" font-family="Helvetica,sans-Serif" font-size="10.00" fill="#000000">cassert</text>
</a>
</g>
</g>
<!-- Node2&#45;&gt;Node5 -->
<g id="edge4" class="edge">
<title>Node2&#45;&gt;Node5</title>
<path fill="none" stroke="#191970" d="M1026.4519,-63.3927C894.8593,-54.0052 446.0921,-21.9913 314.5295,-12.6059"/>
<polygon fill="#191970" stroke="#191970" points="314.4237,-9.0896 304.2,-11.869 313.9256,-16.0718 314.4237,-9.0896"/>
</g>
<!-- Node6 -->
<g id="node6" class="node">
<title>Node6</title>
<g id="a_node6"><a xlink:title=" ">
<polygon fill="#ffffff" stroke="#bfbfbf" points="1035,-.5 1035,-19.5 1091,-19.5 1091,-.5 1035,-.5"/>
<text text-anchor="middle" x="1063" y="-7.5" font-family="Helvetica,sans-Serif" font-size="10.00" fill="#000000">sstream</text>
</a>
</g>
</g>
<!-- Node2&#45;&gt;Node6 -->
<g id="edge5" class="edge">
<title>Node2&#45;&gt;Node6</title>
<path fill="none" stroke="#191970" d="M1063,-56.2455C1063,-48.9382 1063,-38.6944 1063,-29.7046"/>
<polygon fill="#191970" stroke="#191970" points="1066.5001,-29.6426 1063,-19.6427 1059.5001,-29.6427 1066.5001,-29.6426"/>
</g>
<!-- Node7 -->
<g id="node7" class="node">
<title>Node7</title>
<g id="a_node7"><a xlink:title=" ">
<polygon fill="#ffffff" stroke="#bfbfbf" points="1109,-.5 1109,-19.5 1153,-19.5 1153,-.5 1109,-.5"/>
<text text-anchor="middle" x="1131" y="-7.5" font-family="Helvetica,sans-Serif" font-size="10.00" fill="#000000">limits</text>
</a>
</g>
</g>
<!-- Node2&#45;&gt;Node7 -->
<g id="edge6" class="edge">
<title>Node2&#45;&gt;Node7</title>
<path fill="none" stroke="#191970" d="M1074.8447,-56.2455C1084.888,-47.9746 1099.4995,-35.9416 1111.3004,-26.2232"/>
<polygon fill="#191970" stroke="#191970" points="1113.7967,-28.7015 1119.291,-19.6427 1109.3467,-23.298 1113.7967,-28.7015"/>
</g>
<!-- Node8 -->
<g id="node8" class="node">
<title>Node8</title>
<g id="a_node8"><a xlink:href="sitkConfigure_8h.html" target="_top" xlink:title=" ">
<polygon fill="#ffffff" stroke="#000000" points="542,-.5 542,-19.5 632,-19.5 632,-.5 542,-.5"/>
<text text-anchor="middle" x="587" y="-7.5" font-family="Helvetica,sans-Serif" font-size="10.00" fill="#000000">sitkConfigure.h</text>
</a>
</g>
</g>
<!-- Node2&#45;&gt;Node8 -->
<g id="edge7" class="edge">
<title>Node2&#45;&gt;Node8</title>
<path fill="none" stroke="#191970" d="M1026.4395,-61.6988C943.493,-51.9404 740.6413,-28.0755 642.2798,-16.5035"/>
<polygon fill="#191970" stroke="#191970" points="642.5799,-13.0148 632.2395,-15.3223 641.762,-19.9668 642.5799,-13.0148"/>
</g>
<!-- Node10 -->
<g id="node10" class="node">
<title>Node10</title>
<g id="a_node10"><a xlink:href="sitkCommon_8h.html" target="_top" xlink:title=" ">
<polygon fill="#ffffff" stroke="#000000" points="1019,-112.5 1019,-131.5 1107,-131.5 1107,-112.5 1019,-112.5"/>
<text text-anchor="middle" x="1063" y="-119.5" font-family="Helvetica,sans-Serif" font-size="10.00" fill="#000000">sitkCommon.h</text>
</a>
</g>
</g>
<!-- Node9&#45;&gt;Node10 -->
<g id="edge9" class="edge">
<title>Node9&#45;&gt;Node10</title>
<path fill="none" stroke="#191970" d="M1088.4095,-347.277C1089.2,-325.2466 1090.4148,-269.8738 1085,-224 1081.5619,-194.8727 1073.6732,-161.7906 1068.3384,-141.406"/>
<polygon fill="#191970" stroke="#191970" points="1071.7183,-140.4963 1065.7502,-131.7422 1064.9566,-142.3073 1071.7183,-140.4963"/>
</g>
<!-- Node11 -->
<g id="node11" class="node">
<title>Node11</title>
<g id="a_node11"><a xlink:href="sitkTemplateFunctions_8h.html" target="_top" xlink:title=" ">
<polygon fill="#ffffff" stroke="#000000" points="1171,-230 1171,-249 1305,-249 1305,-230 1171,-230"/>
<text text-anchor="middle" x="1238" y="-237" font-family="Helvetica,sans-Serif" font-size="10.00" fill="#000000">sitkTemplateFunctions.h</text>
</a>
</g>
</g>
<!-- Node9&#45;&gt;Node11 -->
<g id="edge11" class="edge">
<title>Node9&#45;&gt;Node11</title>
<path fill="none" stroke="#191970" d="M1125.0422,-351.0343C1151.4532,-345.0282 1186.1871,-333.3158 1209,-311 1223.3157,-296.9963 1230.8012,-274.9642 1234.5518,-259.0565"/>
<polygon fill="#191970" stroke="#191970" points="1237.9932,-259.6973 1236.5896,-249.1959 1231.1381,-258.2805 1237.9932,-259.6973"/>
</g>
<!-- Node13 -->
<g id="node13" class="node">
<title>Node13</title>
<g id="a_node13"><a xlink:title=" ">
<polygon fill="#ffffff" stroke="#bfbfbf" points="1129.5,-168.5 1129.5,-187.5 1176.5,-187.5 1176.5,-168.5 1129.5,-168.5"/>
<text text-anchor="middle" x="1153" y="-175.5" font-family="Helvetica,sans-Serif" font-size="10.00" fill="#000000">vector</text>
</a>
</g>
</g>
<!-- Node9&#45;&gt;Node13 -->
<g id="edge46" class="edge">
<title>Node9&#45;&gt;Node13</title>
<path fill="none" stroke="#191970" d="M1091.4947,-347.3762C1101.8109,-318.9669 1132.2716,-235.0828 1146.0689,-197.0871"/>
<polygon fill="#191970" stroke="#191970" points="1149.3646,-198.2655 1149.488,-187.6714 1142.7849,-195.8762 1149.3646,-198.2655"/>
</g>
<!-- Node16 -->
<g id="node16" class="node">
<title>Node16</title>
<g id="a_node16"><a xlink:href="sitkDetail_8h.html" target="_top" xlink:title=" ">
<polygon fill="#ffffff" stroke="#000000" points="573.5,-291.5 573.5,-310.5 646.5,-310.5 646.5,-291.5 573.5,-291.5"/>
<text text-anchor="middle" x="610" y="-298.5" font-family="Helvetica,sans-Serif" font-size="10.00" fill="#000000">sitkDetail.h</text>
</a>
</g>
</g>
<!-- Node9&#45;&gt;Node16 -->
<g id="edge20" class="edge">
<title>Node9&#45;&gt;Node16</title>
<path fill="none" stroke="#191970" d="M1050.8899,-352.6524C964.8394,-342.5711 751.8233,-317.6153 656.9203,-306.4969"/>
<polygon fill="#191970" stroke="#191970" points="657.0975,-302.9938 646.7582,-305.3064 656.2829,-309.9463 657.0975,-302.9938"/>
</g>
<!-- Node26 -->
<g id="node26" class="node">
<title>Node26</title>
<g id="a_node26"><a xlink:href="sitkPixelIDTokens_8h.html" target="_top" xlink:title=" ">
<polygon fill="#ffffff" stroke="#000000" points="790,-291.5 790,-310.5 902,-310.5 902,-291.5 790,-291.5"/>
<text text-anchor="middle" x="846" y="-298.5" font-family="Helvetica,sans-Serif" font-size="10.00" fill="#000000">sitkPixelIDTokens.h</text>
</a>
</g>
</g>
<!-- Node9&#45;&gt;Node26 -->
<g id="edge38" class="edge">
<title>Node9&#45;&gt;Node26</title>
<path fill="none" stroke="#191970" d="M1050.982,-348.4338C1009.7817,-338.8999 942.9482,-323.4343 896.8564,-312.7684"/>
<polygon fill="#191970" stroke="#191970" points="897.5954,-309.347 887.0638,-310.5024 896.0172,-316.1668 897.5954,-309.347"/>
</g>
<!-- Node29 -->
<g id="node29" class="node">
<title>Node29</title>
<g id="a_node29"><a xlink:title=" ">
<polygon fill="#ffffff" stroke="#bfbfbf" points="918.5,-230 918.5,-249 987.5,-249 987.5,-230 918.5,-230"/>
<text text-anchor="middle" x="953" y="-237" font-family="Helvetica,sans-Serif" font-size="10.00" fill="#000000">type_traits</text>
</a>
</g>
</g>
<!-- Node9&#45;&gt;Node29 -->
<g id="edge48" class="edge">
<title>Node9&#45;&gt;Node29</title>
<path fill="none" stroke="#191970" d="M1076.9524,-347.3845C1053.9118,-327.3306 1000.5022,-280.8445 971.8941,-255.9449"/>
<polygon fill="#191970" stroke="#191970" points="974.0412,-253.1736 964.2003,-249.2484 969.4455,-258.4537 974.0412,-253.1736"/>
</g>
<!-- Node9&#45;&gt;Node30 -->
<g id="edge47" class="edge">
<title>Node9&#45;&gt;Node30</title>
<path fill="none" stroke="#191970" d="M1122.725,-347.3733C1158.4005,-337.483 1213.8277,-322.1171 1250.9927,-311.8139"/>
<polygon fill="#191970" stroke="#191970" points="1252.2577,-315.0953 1260.9592,-309.0509 1250.3876,-308.3497 1252.2577,-315.0953"/>
</g>
<!-- Node10&#45;&gt;Node2 -->
<g id="edge10" class="edge">
<title>Node10&#45;&gt;Node2</title>
<path fill="none" stroke="#191970" d="M1063,-112.2455C1063,-104.9382 1063,-94.6944 1063,-85.7046"/>
<polygon fill="#191970" stroke="#191970" points="1066.5001,-85.6426 1063,-75.6427 1059.5001,-85.6427 1066.5001,-85.6426"/>
</g>
<!-- Node11&#45;&gt;Node2 -->
<g id="edge12" class="edge">
<title>Node11&#45;&gt;Node2</title>
<path fill="none" stroke="#191970" d="M1305.144,-230.8794C1356.0426,-222.8045 1419.8958,-208.8287 1436,-188 1441.437,-180.9679 1441.3931,-175.0659 1436,-168 1396.2892,-115.9719 1200.6829,-84.0263 1109.6977,-71.7541"/>
<polygon fill="#191970" stroke="#191970" points="1110.0326,-68.2679 1099.6592,-70.4228 1109.1123,-75.2072 1110.0326,-68.2679"/>
</g>
<!-- Node11&#45;&gt;Node10 -->
<g id="edge13" class="edge">
<title>Node11&#45;&gt;Node10</title>
<path fill="none" stroke="#191970" d="M1233.1654,-229.7796C1225.1427,-214.5739 1207.6894,-185.1322 1185,-168 1164.4513,-152.4842 1138.0766,-141.6749 1115.1104,-134.4529"/>
<polygon fill="#191970" stroke="#191970" points="1116.0872,-131.0919 1105.5033,-131.5741 1114.0779,-137.7973 1116.0872,-131.0919"/>
</g>
<!-- Node12 -->
<g id="node12" class="node">
<title>Node12</title>
<g id="a_node12"><a xlink:href="sitkExceptionObject_8h.html" target="_top" xlink:title=" ">
<polygon fill="#ffffff" stroke="#000000" points="1304.5,-168.5 1304.5,-187.5 1427.5,-187.5 1427.5,-168.5 1304.5,-168.5"/>
<text text-anchor="middle" x="1366" y="-175.5" font-family="Helvetica,sans-Serif" font-size="10.00" fill="#000000">sitkExceptionObject.h</text>
</a>
</g>
</g>
<!-- Node11&#45;&gt;Node12 -->
<g id="edge14" class="edge">
<title>Node11&#45;&gt;Node12</title>
<path fill="none" stroke="#191970" d="M1258,-229.8906C1279.2289,-219.6908 1312.9762,-203.4763 1337.096,-191.8875"/>
<polygon fill="#191970" stroke="#191970" points="1338.6426,-195.0275 1346.1404,-187.5419 1335.6111,-188.7179 1338.6426,-195.0275"/>
</g>
<!-- Node11&#45;&gt;Node13 -->
<g id="edge17" class="edge">
<title>Node11&#45;&gt;Node13</title>
<path fill="none" stroke="#191970" d="M1224.7188,-229.8906C1211.2452,-220.1421 1190.178,-204.8994 1174.3565,-193.4521"/>
<polygon fill="#191970" stroke="#191970" points="1176.3414,-190.5682 1166.188,-187.5419 1172.2381,-196.2394 1176.3414,-190.5682"/>
</g>
<!-- Node14 -->
<g id="node14" class="node">
<title>Node14</title>
<g id="a_node14"><a xlink:title=" ">
<polygon fill="#ffffff" stroke="#bfbfbf" points="977.5,-168.5 977.5,-187.5 1034.5,-187.5 1034.5,-168.5 977.5,-168.5"/>
<text text-anchor="middle" x="1006" y="-175.5" font-family="Helvetica,sans-Serif" font-size="10.00" fill="#000000">ostream</text>
</a>
</g>
</g>
<!-- Node11&#45;&gt;Node14 -->
<g id="edge18" class="edge">
<title>Node11&#45;&gt;Node14</title>
<path fill="none" stroke="#191970" d="M1202.0046,-229.9581C1159.2607,-218.6273 1088.2598,-199.8059 1044.4622,-188.1958"/>
<polygon fill="#191970" stroke="#191970" points="1045.3118,-184.8002 1034.7488,-185.6209 1043.518,-191.5665 1045.3118,-184.8002"/>
</g>
<!-- Node15 -->
<g id="node15" class="node">
<title>Node15</title>
<g id="a_node15"><a xlink:title=" ">
<polygon fill="#ffffff" stroke="#bfbfbf" points="1233.5,-168.5 1233.5,-187.5 1286.5,-187.5 1286.5,-168.5 1233.5,-168.5"/>
<text text-anchor="middle" x="1260" y="-175.5" font-family="Helvetica,sans-Serif" font-size="10.00" fill="#000000">iterator</text>
</a>
</g>
</g>
<!-- Node11&#45;&gt;Node15 -->
<g id="edge19" class="edge">
<title>Node11&#45;&gt;Node15</title>
<path fill="none" stroke="#191970" d="M1241.4375,-229.8906C1244.5513,-221.1862 1249.232,-208.1015 1253.114,-197.2494"/>
<polygon fill="#191970" stroke="#191970" points="1256.4412,-198.3394 1256.514,-187.7449 1249.8503,-195.9817 1256.4412,-198.3394"/>
</g>
<!-- Node12&#45;&gt;Node2 -->
<g id="edge15" class="edge">
<title>Node12&#45;&gt;Node2</title>
<path fill="none" stroke="#191970" d="M1340.1664,-168.4509C1285.94,-148.4069 1160.1769,-101.9202 1098.4572,-79.1063"/>
<polygon fill="#191970" stroke="#191970" points="1099.3615,-75.7091 1088.7682,-75.5249 1096.9344,-82.275 1099.3615,-75.7091"/>
</g>
<!-- Node12&#45;&gt;Node10 -->
<g id="edge16" class="edge">
<title>Node12&#45;&gt;Node10</title>
<path fill="none" stroke="#191970" d="M1314.2567,-168.4369C1259.3602,-158.291 1173.006,-142.3311 1117.1944,-132.0161"/>
<polygon fill="#191970" stroke="#191970" points="1117.6126,-128.5342 1107.143,-130.1584 1116.3404,-135.4176 1117.6126,-128.5342"/>
</g>
<!-- Node17 -->
<g id="node17" class="node">
<title>Node17</title>
<g id="a_node17"><a xlink:href="sitkMemberFunctionFactoryBase_8h.html" target="_top" xlink:title=" ">
<polygon fill="#ffffff" stroke="#000000" points="282,-224.5 282,-254.5 432,-254.5 432,-224.5 282,-224.5"/>
<text text-anchor="start" x="290" y="-242.5" font-family="Helvetica,sans-Serif" font-size="10.00" fill="#000000">sitkMemberFunctionFactory</text>
<text text-anchor="middle" x="357" y="-231.5" font-family="Helvetica,sans-Serif" font-size="10.00" fill="#000000">Base.h</text>
</a>
</g>
</g>
<!-- Node16&#45;&gt;Node17 -->
<g id="edge21" class="edge">
<title>Node16&#45;&gt;Node17</title>
<path fill="none" stroke="#191970" d="M573.4818,-292.1231C535.794,-282.9618 476.013,-268.43 428.812,-256.9563"/>
<polygon fill="#191970" stroke="#191970" points="429.487,-253.5185 418.9433,-254.5574 427.8336,-260.3204 429.487,-253.5185"/>
</g>
<!-- Node23 -->
<g id="node23" class="node">
<title>Node23</title>
<g id="a_node23"><a xlink:title=" ">
<polygon fill="#ffffff" stroke="#bfbfbf" points="337,-168.5 337,-187.5 475,-187.5 475,-168.5 337,-168.5"/>
<text text-anchor="middle" x="406" y="-175.5" font-family="Helvetica,sans-Serif" font-size="10.00" fill="#000000">Ancillary/FunctionTraits.h</text>
</a>
</g>
</g>
<!-- Node16&#45;&gt;Node23 -->
<g id="edge37" class="edge">
<title>Node16&#45;&gt;Node23</title>
<path fill="none" stroke="#191970" d="M593.9925,-291.3484C558.4646,-269.9272 472.8295,-218.2943 430.5118,-192.7792"/>
<polygon fill="#191970" stroke="#191970" points="432.3042,-189.7729 421.9332,-187.6068 428.6898,-195.7676 432.3042,-189.7729"/>
</g>
<!-- Node17&#45;&gt;Node2 -->
<g id="edge30" class="edge">
<title>Node17&#45;&gt;Node2</title>
<path fill="none" stroke="#191970" d="M432.1484,-226.7561C486.0651,-217.2004 560.3121,-203.1975 625,-188 663.9966,-178.8383 916.5382,-107.4995 1019.453,-78.3483"/>
<polygon fill="#191970" stroke="#191970" points="1020.5557,-81.6737 1029.2229,-75.5803 1018.6475,-74.9388 1020.5557,-81.6737"/>
</g>
<!-- Node17&#45;&gt;Node8 -->
<g id="edge22" class="edge">
<title>Node17&#45;&gt;Node8</title>
<path fill="none" stroke="#191970" d="M329.5584,-224.4521C290.1067,-200.8636 225.3072,-153.5753 256,-112 288.9463,-67.3722 446.3293,-34.091 531.6724,-18.9817"/>
<polygon fill="#191970" stroke="#191970" points="532.4606,-22.3971 541.7098,-17.2296 531.2569,-15.5014 532.4606,-22.3971"/>
</g>
<!-- Node18 -->
<g id="node18" class="node">
<title>Node18</title>
<g id="a_node18"><a xlink:href="sitkPixelIDTypes_8h.html" target="_top" xlink:title=" ">
<polygon fill="#ffffff" stroke="#000000" points="395,-112.5 395,-131.5 501,-131.5 501,-112.5 395,-112.5"/>
<text text-anchor="middle" x="448" y="-119.5" font-family="Helvetica,sans-Serif" font-size="10.00" fill="#000000">sitkPixelIDTypes.h</text>
</a>
</g>
</g>
<!-- Node17&#45;&gt;Node18 -->
<g id="edge23" class="edge">
<title>Node17&#45;&gt;Node18</title>
<path fill="none" stroke="#191970" d="M342.7011,-224.3274C330.2204,-209.1749 315.8564,-185.6603 328,-168 336.6887,-155.3642 370.6452,-143.0353 400.2289,-134.3269"/>
<polygon fill="#191970" stroke="#191970" points="401.3994,-137.6325 410.0512,-131.5172 399.4742,-130.9025 401.3994,-137.6325"/>
</g>
<!-- Node19 -->
<g id="node19" class="node">
<title>Node19</title>
<g id="a_node19"><a xlink:href="sitkPixelIDTypeLists_8h.html" target="_top" xlink:title=" ">
<polygon fill="#ffffff" stroke="#000000" points="493.5,-168.5 493.5,-187.5 616.5,-187.5 616.5,-168.5 493.5,-168.5"/>
<text text-anchor="middle" x="555" y="-175.5" font-family="Helvetica,sans-Serif" font-size="10.00" fill="#000000">sitkPixelIDTypeLists.h</text>
</a>
</g>
</g>
<!-- Node17&#45;&gt;Node19 -->
<g id="edge24" class="edge">
<title>Node17&#45;&gt;Node19</title>
<path fill="none" stroke="#191970" d="M405.4362,-224.4554C438.9078,-214.059 482.9202,-200.3884 514.5219,-190.5727"/>
<polygon fill="#191970" stroke="#191970" points="515.8053,-193.8391 524.317,-187.5303 513.7289,-187.1542 515.8053,-193.8391"/>
</g>
<!-- Node20 -->
<g id="node20" class="node">
<title>Node20</title>
<g id="a_node20"><a xlink:title=" ">
<polygon fill="#ffffff" stroke="#bfbfbf" points="265.5,-112.5 265.5,-131.5 376.5,-131.5 376.5,-112.5 265.5,-112.5"/>
<text text-anchor="middle" x="321" y="-119.5" font-family="Helvetica,sans-Serif" font-size="10.00" fill="#000000">Ancillary/TypeList.h</text>
</a>
</g>
</g>
<!-- Node17&#45;&gt;Node20 -->
<g id="edge33" class="edge">
<title>Node17&#45;&gt;Node20</title>
<path fill="none" stroke="#191970" d="M281.9643,-231.6562C197.8962,-222.0972 71.4115,-205.0963 57,-188 51.2709,-181.2037 51.2794,-174.8035 57,-168 81.8633,-138.4298 185.5802,-127.8666 255.3723,-124.0943"/>
<polygon fill="#191970" stroke="#191970" points="255.5999,-127.5873 265.4099,-123.5855 255.2455,-120.5963 255.5999,-127.5873"/>
</g>
<!-- Node22 -->
<g id="node22" class="node">
<title>Node22</title>
<g id="a_node22"><a xlink:href="sitkNonCopyable_8h.html" target="_top" xlink:title=" ">
<polygon fill="#ffffff" stroke="#000000" points="711.5,-168.5 711.5,-187.5 820.5,-187.5 820.5,-168.5 711.5,-168.5"/>
<text text-anchor="middle" x="766" y="-175.5" font-family="Helvetica,sans-Serif" font-size="10.00" fill="#000000">sitkNonCopyable.h</text>
</a>
</g>
</g>
<!-- Node17&#45;&gt;Node22 -->
<g id="edge31" class="edge">
<title>Node17&#45;&gt;Node22</title>
<path fill="none" stroke="#191970" d="M432.0169,-228.22C509.2164,-216.6117 628.2375,-198.7149 701.3917,-187.7149"/>
<polygon fill="#191970" stroke="#191970" points="702.0321,-191.1581 711.4005,-186.2099 700.9912,-184.2359 702.0321,-191.1581"/>
</g>
<!-- Node17&#45;&gt;Node23 -->
<g id="edge34" class="edge">
<title>Node17&#45;&gt;Node23</title>
<path fill="none" stroke="#191970" d="M369.1124,-224.2977C375.9849,-215.672 384.6223,-204.8312 391.811,-195.8087"/>
<polygon fill="#191970" stroke="#191970" points="394.6604,-197.849 398.1545,-187.8469 389.1856,-193.487 394.6604,-197.849"/>
</g>
<!-- Node24 -->
<g id="node24" class="node">
<title>Node24</title>
<g id="a_node24"><a xlink:title=" ">
<polygon fill="#ffffff" stroke="#bfbfbf" points="66.5,-168.5 66.5,-187.5 159.5,-187.5 159.5,-168.5 66.5,-168.5"/>
<text text-anchor="middle" x="113" y="-175.5" font-family="Helvetica,sans-Serif" font-size="10.00" fill="#000000">unordered_map</text>
</a>
</g>
</g>
<!-- Node17&#45;&gt;Node24 -->
<g id="edge35" class="edge">
<title>Node17&#45;&gt;Node24</title>
<path fill="none" stroke="#191970" d="M297.3109,-224.4554C255.3489,-213.8789 199.9433,-199.914 160.8729,-190.0663"/>
<polygon fill="#191970" stroke="#191970" points="161.3635,-186.5806 150.8113,-187.5303 159.6526,-193.3683 161.3635,-186.5806"/>
</g>
<!-- Node25 -->
<g id="node25" class="node">
<title>Node25</title>
<g id="a_node25"><a xlink:title=" ">
<polygon fill="#ffffff" stroke="#bfbfbf" points="177.5,-168.5 177.5,-187.5 242.5,-187.5 242.5,-168.5 177.5,-168.5"/>
<text text-anchor="middle" x="210" y="-175.5" font-family="Helvetica,sans-Serif" font-size="10.00" fill="#000000">functional</text>
</a>
</g>
</g>
<!-- Node17&#45;&gt;Node25 -->
<g id="edge36" class="edge">
<title>Node17&#45;&gt;Node25</title>
<path fill="none" stroke="#191970" d="M321.0398,-224.4554C296.9427,-214.374 265.487,-201.2139 242.2097,-191.4755"/>
<polygon fill="#191970" stroke="#191970" points="243.3558,-188.1611 232.7798,-187.5303 240.6541,-194.6187 243.3558,-188.1611"/>
</g>
<!-- Node19&#45;&gt;Node3 -->
<g id="edge25" class="edge">
<title>Node19&#45;&gt;Node3</title>
<path fill="none" stroke="#191970" d="M569.8267,-168.4248C584.0493,-159.2002 606.0939,-144.7986 625,-132 680.507,-94.4241 744.9966,-49.0018 778.0252,-25.6082"/>
<polygon fill="#191970" stroke="#191970" points="780.3395,-28.2579 786.4731,-19.619 776.2909,-22.5474 780.3395,-28.2579"/>
</g>
<!-- Node19&#45;&gt;Node8 -->
<g id="edge26" class="edge">
<title>Node19&#45;&gt;Node8</title>
<path fill="none" stroke="#191970" d="M553.0653,-168.1787C551.342,-158.8986 548.9506,-144.5658 548,-132 547.3295,-123.1364 546.3859,-120.7411 548,-112 553.5994,-81.6768 567.8266,-48.7113 577.458,-28.7014"/>
<polygon fill="#191970" stroke="#191970" points="580.7121,-30.0167 582.0057,-19.5011 574.4368,-26.9148 580.7121,-30.0167"/>
</g>
<!-- Node19&#45;&gt;Node18 -->
<g id="edge27" class="edge">
<title>Node19&#45;&gt;Node18</title>
<path fill="none" stroke="#191970" d="M536.362,-168.2455C519.5614,-159.4527 494.6366,-146.4079 475.5382,-136.4125"/>
<polygon fill="#191970" stroke="#191970" points="476.9073,-133.1787 466.4244,-131.6427 473.6614,-139.3807 476.9073,-133.1787"/>
</g>
<!-- Node19&#45;&gt;Node20 -->
<g id="edge28" class="edge">
<title>Node19&#45;&gt;Node20</title>
<path fill="none" stroke="#191970" d="M515.0398,-168.4369C475.1608,-158.8932 413.7861,-144.2052 370.7672,-133.9101"/>
<polygon fill="#191970" stroke="#191970" points="371.3354,-130.4473 360.7953,-131.5237 369.7061,-137.2551 371.3354,-130.4473"/>
</g>
<!-- Node21 -->
<g id="node21" class="node">
<title>Node21</title>
<g id="a_node21"><a xlink:title=" ">
<polygon fill="#ffffff" stroke="#bfbfbf" points="557.5,-112.5 557.5,-131.5 616.5,-131.5 616.5,-112.5 557.5,-112.5"/>
<text text-anchor="middle" x="587" y="-119.5" font-family="Helvetica,sans-Serif" font-size="10.00" fill="#000000">complex</text>
</a>
</g>
</g>
<!-- Node19&#45;&gt;Node21 -->
<g id="edge29" class="edge">
<title>Node19&#45;&gt;Node21</title>
<path fill="none" stroke="#191970" d="M560.574,-168.2455C564.9331,-160.617 571.1211,-149.7881 576.4133,-140.5267"/>
<polygon fill="#191970" stroke="#191970" points="579.5673,-142.0616 581.4899,-131.6427 573.4896,-138.5886 579.5673,-142.0616"/>
</g>
<!-- Node22&#45;&gt;Node10 -->
<g id="edge32" class="edge">
<title>Node22&#45;&gt;Node10</title>
<path fill="none" stroke="#191970" d="M816.7187,-168.4369C870.2162,-158.3498 954.192,-142.516 1008.9244,-132.1961"/>
<polygon fill="#191970" stroke="#191970" points="1009.6115,-135.6283 1018.7899,-130.3359 1008.3145,-128.7495 1009.6115,-135.6283"/>
</g>
<!-- Node26&#45;&gt;Node8 -->
<g id="edge39" class="edge">
<title>Node26&#45;&gt;Node8</title>
<path fill="none" stroke="#191970" d="M831.7953,-291.4765C818.4513,-282.407 798.0423,-268.2165 781,-255 744.6198,-226.7867 732.3743,-222.5963 702,-188 655.8044,-135.3832 614.7378,-62.6252 596.7045,-28.7512"/>
<polygon fill="#191970" stroke="#191970" points="599.6194,-26.7742 591.8673,-19.5523 593.4238,-30.0322 599.6194,-26.7742"/>
</g>
<!-- Node27 -->
<g id="node27" class="node">
<title>Node27</title>
<g id="a_node27"><a xlink:href="sitkPixelIDValues_8h.html" target="_top" xlink:title=" ">
<polygon fill="#ffffff" stroke="#000000" points="790,-230 790,-249 900,-249 900,-230 790,-230"/>
<text text-anchor="middle" x="845" y="-237" font-family="Helvetica,sans-Serif" font-size="10.00" fill="#000000">sitkPixelIDValues.h</text>
</a>
</g>
</g>
<!-- Node26&#45;&gt;Node27 -->
<g id="edge40" class="edge">
<title>Node26&#45;&gt;Node27</title>
<path fill="none" stroke="#191970" d="M845.8438,-291.3906C845.7051,-282.8657 845.4982,-270.1392 845.324,-259.4235"/>
<polygon fill="#191970" stroke="#191970" points="848.8207,-259.1866 845.1585,-249.2449 841.8216,-259.3005 848.8207,-259.1866"/>
</g>
<!-- Node26&#45;&gt;Node29 -->
<g id="edge45" class="edge">
<title>Node26&#45;&gt;Node29</title>
<path fill="none" stroke="#191970" d="M862.7188,-291.3906C880.0722,-281.4165 907.4323,-265.6908 927.4882,-254.1633"/>
<polygon fill="#191970" stroke="#191970" points="929.4728,-257.0596 936.3987,-249.0419 925.9846,-250.9907 929.4728,-257.0596"/>
</g>
<!-- Node27&#45;&gt;Node10 -->
<g id="edge41" class="edge">
<title>Node27&#45;&gt;Node10</title>
<path fill="none" stroke="#191970" d="M860.706,-229.8561C883.8832,-215.7429 928.7454,-188.8748 968,-168 989.3555,-156.6436 1013.944,-144.7692 1032.7546,-135.93"/>
<polygon fill="#191970" stroke="#191970" points="1034.4381,-139.0067 1042.017,-131.6032 1031.4754,-132.6646 1034.4381,-139.0067"/>
</g>
<!-- Node27&#45;&gt;Node14 -->
<g id="edge44" class="edge">
<title>Node27&#45;&gt;Node14</title>
<path fill="none" stroke="#191970" d="M870.1563,-229.8906C897.449,-219.4652 941.192,-202.7559 971.6397,-191.1252"/>
<polygon fill="#191970" stroke="#191970" points="972.9277,-194.3799 981.0204,-187.5419 970.4298,-187.8408 972.9277,-194.3799"/>
</g>
<!-- Node27&#45;&gt;Node19 -->
<g id="edge42" class="edge">
<title>Node27&#45;&gt;Node19</title>
<path fill="none" stroke="#191970" d="M800.0057,-229.9581C748.784,-219.0956 665.0999,-201.3488 610.0345,-189.6711"/>
<polygon fill="#191970" stroke="#191970" points="610.6084,-186.2151 600.0999,-187.5643 609.1562,-193.0628 610.6084,-186.2151"/>
</g>
<!-- Node28 -->
<g id="node28" class="node">
<title>Node28</title>
<g id="a_node28"><a xlink:title=" ">
<polygon fill="#ffffff" stroke="#bfbfbf" points="877,-168.5 877,-187.5 921,-187.5 921,-168.5 877,-168.5"/>
<text text-anchor="middle" x="899" y="-175.5" font-family="Helvetica,sans-Serif" font-size="10.00" fill="#000000">string</text>
</a>
</g>
</g>
<!-- Node27&#45;&gt;Node28 -->
<g id="edge43" class="edge">
<title>Node27&#45;&gt;Node28</title>
<path fill="none" stroke="#191970" d="M853.4375,-229.8906C861.5531,-220.6478 874.0055,-206.466 883.8424,-195.2628"/>
<polygon fill="#191970" stroke="#191970" points="886.4755,-197.5686 890.4435,-187.7449 881.2154,-192.95 886.4755,-197.5686"/>
</g>
<!-- Node31&#45;&gt;Node5 -->
<g id="edge54" class="edge">
<title>Node31&#45;&gt;Node5</title>
<path fill="none" stroke="#191970" d="M519.7666,-349.6249C356.9691,-333.4014 0,-291.8582 0,-239.5 0,-239.5 0,-239.5 0,-122 0,-70.4403 166.6015,-31.589 241.8602,-16.669"/>
<polygon fill="#191970" stroke="#191970" points="242.7002,-20.0713 251.8464,-14.7237 241.3617,-13.2004 242.7002,-20.0713"/>
</g>
<!-- Node31&#45;&gt;Node12 -->
<g id="edge57" class="edge">
<title>Node31&#45;&gt;Node12</title>
<path fill="none" stroke="#191970" d="M678.124,-353.7163C841.4046,-345.6703 1209.1761,-320.6116 1314,-255 1335.7037,-241.4152 1350.4845,-215.0739 1358.5833,-197.018"/>
<polygon fill="#191970" stroke="#191970" points="1361.8357,-198.3128 1362.4893,-187.7381 1355.3839,-195.5971 1361.8357,-198.3128"/>
</g>
<!-- Node31&#45;&gt;Node16 -->
<g id="edge50" class="edge">
<title>Node31&#45;&gt;Node16</title>
<path fill="none" stroke="#191970" d="M600.9161,-347.2455C602.3514,-339.9382 604.3636,-329.6944 606.1295,-320.7046"/>
<polygon fill="#191970" stroke="#191970" points="609.6127,-321.1298 608.1059,-310.6427 602.744,-319.7805 609.6127,-321.1298"/>
</g>
<!-- Node31&#45;&gt;Node17 -->
<g id="edge51" class="edge">
<title>Node31&#45;&gt;Node17</title>
<path fill="none" stroke="#191970" d="M519.8853,-349.4809C464.4213,-342.6198 396.6482,-330.5171 376,-311 363.4864,-299.1719 358.8685,-280.1238 357.3084,-264.6614"/>
<polygon fill="#191970" stroke="#191970" points="360.7998,-264.4138 356.6573,-254.6623 353.8145,-264.8686 360.7998,-264.4138"/>
</g>
<!-- Node31&#45;&gt;Node26 -->
<g id="edge56" class="edge">
<title>Node31&#45;&gt;Node26</title>
<path fill="none" stroke="#191970" d="M641.1802,-347.4369C683.4523,-337.8529 748.6062,-323.0812 794.0417,-312.78"/>
<polygon fill="#191970" stroke="#191970" points="795.0152,-316.1482 803.9938,-310.5237 793.4674,-309.3215 795.0152,-316.1482"/>
</g>
<!-- Node31&#45;&gt;Node27 -->
<g id="edge52" class="edge">
<title>Node31&#45;&gt;Node27</title>
<path fill="none" stroke="#191970" d="M619.1312,-347.3845C662.5755,-326.6336 765.2726,-277.5812 815.8383,-253.4289"/>
<polygon fill="#191970" stroke="#191970" points="817.4206,-256.5519 824.9356,-249.0836 814.4036,-250.2354 817.4206,-256.5519"/>
</g>
<!-- Node31&#45;&gt;Node31 -->
<g id="edge55" class="edge">
<title>Node31&#45;&gt;Node31</title>
<path fill="none" stroke="#191970" d="M640.1182,-366.5001C668.3159,-369.3269 696,-366.1602 696,-357 696,-348.9491 674.6147,-345.528 650.291,-346.7367"/>
<polygon fill="#191970" stroke="#191970" points="649.8282,-343.2615 640.1182,-347.4999 650.352,-350.2418 649.8282,-343.2615"/>
</g>
<!-- Node32 -->
<g id="node32" class="node">
<title>Node32</title>
<g id="a_node32"><a xlink:title=" ">
<polygon fill="#ffffff" stroke="#bfbfbf" points="385,-291.5 385,-310.5 555,-310.5 555,-291.5 385,-291.5"/>
<text text-anchor="middle" x="470" y="-298.5" font-family="Helvetica,sans-Serif" font-size="10.00" fill="#000000">sitkMemberFunctionFactory.hxx</text>
</a>
</g>
</g>
<!-- Node31&#45;&gt;Node32 -->
<g id="edge53" class="edge">
<title>Node31&#45;&gt;Node32</title>
<path fill="none" stroke="#191970" d="M576.8241,-347.3733C556.0234,-338.3435 524.7083,-324.7494 501.3542,-314.6111"/>
<polygon fill="#191970" stroke="#191970" points="502.4532,-311.2727 491.8865,-310.5011 499.6657,-317.6938 502.4532,-311.2727"/>
</g>
<!-- Node33&#45;&gt;Node2 -->
<g id="edge59" class="edge">
<title>Node33&#45;&gt;Node2</title>
<path fill="none" stroke="#191970" d="M1432.2196,-459.335C1453.2377,-441.5263 1494,-401.2801 1494,-357 1494,-357 1494,-357 1494,-178 1494,-99.3597 1221.818,-74.9774 1110.048,-68.2801"/>
<polygon fill="#191970" stroke="#191970" points="1109.9318,-64.7677 1099.7468,-67.686 1109.5287,-71.7561 1109.9318,-64.7677"/>
</g>
<!-- Node34&#45;&gt;Node9 -->
<g id="edge67" class="edge">
<title>Node34&#45;&gt;Node9</title>
<path fill="none" stroke="#191970" d="M1141.17,-459.19C1138.445,-445.9235 1132.587,-421.7651 1123,-403 1117.7818,-392.7861 1110.2463,-382.5232 1103.503,-374.2909"/>
<polygon fill="#191970" stroke="#191970" points="1106.0429,-371.8753 1096.8928,-366.5344 1100.7152,-376.4157 1106.0429,-371.8753"/>
</g>
<!-- Node34&#45;&gt;Node10 -->
<g id="edge61" class="edge">
<title>Node34&#45;&gt;Node10</title>
<path fill="none" stroke="#191970" d="M1086.2358,-463.4733C996.637,-454.4186 830.0785,-436.1203 806,-423 777.2153,-407.3154 769.3731,-397.7444 758,-367 743.1217,-326.7801 720.213,-314.4213 781,-224 787.4138,-214.4594 857.4194,-172.4957 868,-168 913.4998,-148.6669 968.5832,-136.6221 1008.5843,-129.7319"/>
<polygon fill="#191970" stroke="#191970" points="1009.384,-133.1469 1018.6713,-128.0483 1008.2315,-126.2424 1009.384,-133.1469"/>
</g>
<!-- Node34&#45;&gt;Node11 -->
<g id="edge63" class="edge">
<title>Node34&#45;&gt;Node11</title>
<path fill="none" stroke="#191970" d="M1188.8709,-459.4229C1226.3623,-450.7531 1275.4591,-437.1985 1290,-423 1333.6795,-380.349 1358.6265,-343.8113 1328,-291 1317.6177,-273.0971 1298.4106,-260.8878 1280.3983,-252.8689"/>
<polygon fill="#191970" stroke="#191970" points="1281.72,-249.6281 1271.141,-249.0495 1279.0502,-256.099 1281.72,-249.6281"/>
</g>
<!-- Node34&#45;&gt;Node22 -->
<g id="edge62" class="edge">
<title>Node34&#45;&gt;Node22</title>
<path fill="none" stroke="#191970" d="M1086.3719,-464.2011C980.237,-453.6356 762,-423.7901 762,-357 762,-357 762,-357 762,-301 762,-264.4801 763.7833,-221.8931 764.9684,-197.6221"/>
<polygon fill="#191970" stroke="#191970" points="768.4674,-197.7298 765.4771,-187.5657 761.4763,-197.3761 768.4674,-197.7298"/>
</g>
<!-- Node35 -->
<g id="node35" class="node">
<title>Node35</title>
<g id="a_node35"><a xlink:href="sitkEvent_8h.html" target="_top" xlink:title=" ">
<polygon fill="#ffffff" stroke="#000000" points="1005.5,-230 1005.5,-249 1076.5,-249 1076.5,-230 1005.5,-230"/>
<text text-anchor="middle" x="1041" y="-237" font-family="Helvetica,sans-Serif" font-size="10.00" fill="#000000">sitkEvent.h</text>
</a>
</g>
</g>
<!-- Node34&#45;&gt;Node35 -->
<g id="edge64" class="edge">
<title>Node34&#45;&gt;Node35</title>
<path fill="none" stroke="#191970" d="M1088.7249,-459.4773C1050.3759,-451.5154 1003.7854,-438.9104 992,-423 953.9844,-371.6786 1001.5448,-292.9721 1026.9486,-257.6992"/>
<polygon fill="#191970" stroke="#191970" points="1030.0065,-259.4515 1033.1513,-249.3341 1024.3836,-255.2821 1030.0065,-259.4515"/>
</g>
<!-- Node36 -->
<g id="node36" class="node">
<title>Node36</title>
<g id="a_node36"><a xlink:href="sitkImageConvert_8h.html" target="_top" xlink:title=" ">
<polygon fill="#ffffff" stroke="#000000" points="1001.5,-403.5 1001.5,-422.5 1114.5,-422.5 1114.5,-403.5 1001.5,-403.5"/>
<text text-anchor="middle" x="1058" y="-410.5" font-family="Helvetica,sans-Serif" font-size="10.00" fill="#000000">sitkImageConvert.h</text>
</a>
</g>
</g>
<!-- Node34&#45;&gt;Node36 -->
<g id="edge68" class="edge">
<title>Node34&#45;&gt;Node36</title>
<path fill="none" stroke="#191970" d="M1128.1941,-459.2455C1115.2744,-450.7337 1096.3069,-438.2375 1081.3448,-428.3801"/>
<polygon fill="#191970" stroke="#191970" points="1082.9124,-425.2216 1072.6362,-422.6427 1079.0613,-431.067 1082.9124,-425.2216"/>
</g>
<!-- Node37 -->
<g id="node37" class="node">
<title>Node37</title>
<g id="a_node37"><a xlink:title=" ">
<polygon fill="#ffffff" stroke="#bfbfbf" points="1171,-403.5 1171,-422.5 1231,-422.5 1231,-403.5 1171,-403.5"/>
<text text-anchor="middle" x="1201" y="-410.5" font-family="Helvetica,sans-Serif" font-size="10.00" fill="#000000">iostream</text>
</a>
</g>
</g>
<!-- Node34&#45;&gt;Node37 -->
<g id="edge70" class="edge">
<title>Node34&#45;&gt;Node37</title>
<path fill="none" stroke="#191970" d="M1153.1028,-459.2455C1161.5028,-451.1352 1173.6494,-439.4075 1183.6084,-429.7919"/>
<polygon fill="#191970" stroke="#191970" points="1186.25,-432.1066 1191.0129,-422.6427 1181.3878,-427.0707 1186.25,-432.1066"/>
</g>
<!-- Node38 -->
<g id="node38" class="node">
<title>Node38</title>
<g id="a_node38"><a xlink:title=" ">
<polygon fill="#ffffff" stroke="#bfbfbf" points="1249,-403.5 1249,-422.5 1281,-422.5 1281,-403.5 1249,-403.5"/>
<text text-anchor="middle" x="1265" y="-410.5" font-family="Helvetica,sans-Serif" font-size="10.00" fill="#000000">list</text>
</a>
</g>
</g>
<!-- Node34&#45;&gt;Node38 -->
<g id="edge71" class="edge">
<title>Node34&#45;&gt;Node38</title>
<path fill="none" stroke="#191970" d="M1163.9725,-459.3733C1184.981,-449.73 1217.3303,-434.8812 1239.7391,-424.5952"/>
<polygon fill="#191970" stroke="#191970" points="1241.3372,-427.7128 1248.9654,-420.3601 1238.417,-421.351 1241.3372,-427.7128"/>
</g>
<!-- Node35&#45;&gt;Node10 -->
<g id="edge65" class="edge">
<title>Node35&#45;&gt;Node10</title>
<path fill="none" stroke="#191970" d="M1042.8004,-229.8845C1046.394,-210.6913 1054.5209,-167.286 1059.2991,-141.7663"/>
<polygon fill="#191970" stroke="#191970" points="1062.7746,-142.2217 1061.1748,-131.7484 1055.8941,-140.9334 1062.7746,-142.2217"/>
</g>
<!-- Node35&#45;&gt;Node14 -->
<g id="edge66" class="edge">
<title>Node35&#45;&gt;Node14</title>
<path fill="none" stroke="#191970" d="M1035.5313,-229.8906C1030.4754,-221.0068 1022.8228,-207.5601 1016.5746,-196.5811"/>
<polygon fill="#191970" stroke="#191970" points="1019.534,-194.7048 1011.5459,-187.7449 1013.4502,-198.1672 1019.534,-194.7048"/>
</g>
<!-- Node36&#45;&gt;Node9 -->
<g id="edge69" class="edge">
<title>Node36&#45;&gt;Node9</title>
<path fill="none" stroke="#191970" d="M1063.2256,-403.2455C1067.3123,-395.617 1073.1135,-384.7881 1078.075,-375.5267"/>
<polygon fill="#191970" stroke="#191970" points="1081.1972,-377.1103 1082.8343,-366.6427 1075.0268,-373.8047 1081.1972,-377.1103"/>
</g>
</g>
</svg>
        <g id="navigator" transform="translate(0 0)" fill="#404254">
                <rect fill="#f2f5e9" fill-opacity="0.5" stroke="#606060" stroke-width=".5" x="0" y="0" width="60" height="60"/>
                <use id="zoomplus" xlink:href="#zoomPlus" x="17" y="9" onmousedown="handleZoom(evt,'in')"/>
                <use id="zoomminus" xlink:href="#zoomMin" x="42" y="9" onmousedown="handleZoom(evt,'out')"/>
                <use id="reset" xlink:href="#resetDef" x="30" y="36" onmousedown="handleReset()"/>
                <g id="arrowUp" xlink:href="#dirArrow" transform="translate(30 24)" onmousedown="handlePan(0,-1)">
                  <use xlink:href="#rim" fill="#404040">
                        <set attributeName="fill" to="#808080" begin="arrowUp.mouseover" end="arrowUp.mouseout"/>
                  </use>
                  <path fill="none" stroke="white" stroke-width="1.5" d="M0,-3.0v7 M-2.5,-0.5L0,-3.0L2.5,-0.5"/>
                </g>
                <g id="arrowRight" xlink:href="#dirArrow" transform="rotate(90) translate(36 -43)" onmousedown="handlePan(1,0)">
                  <use xlink:href="#rim" fill="#404040">
                        <set attributeName="fill" to="#808080" begin="arrowRight.mouseover" end="arrowRight.mouseout"/>
                  </use>
                  <path fill="none" stroke="white" stroke-width="1.5" d="M0,-3.0v7 M-2.5,-0.5L0,-3.0L2.5,-0.5"/>
                </g>
                <g id="arrowDown" xlink:href="#dirArrow" transform="rotate(180) translate(-30 -48)" onmousedown="handlePan(0,1)">
                  <use xlink:href="#rim" fill="#404040">
                        <set attributeName="fill" to="#808080" begin="arrowDown.mouseover" end="arrowDown.mouseout"/>
                  </use>
                  <path fill="none" stroke="white" stroke-width="1.5" d="M0,-3.0v7 M-2.5,-0.5L0,-3.0L2.5,-0.5"/>
                </g>
                <g id="arrowLeft" xlink:href="#dirArrow" transform="rotate(270) translate(-36 17)" onmousedown="handlePan(-1,0)">
                  <use xlink:href="#rim" fill="#404040">
                        <set attributeName="fill" to="#808080" begin="arrowLeft.mouseover" end="arrowLeft.mouseout"/>
                  </use>
                  <path fill="none" stroke="white" stroke-width="1.5" d="M0,-3.0v7 M-2.5,-0.5L0,-3.0L2.5,-0.5"/>
                </g>
        </g>
        <svg viewBox="0 0 15 15" width="100%" height="30px" preserveAspectRatio="xMaxYMin meet">
         <g id="arrow_out" transform="scale(0.3 0.3)">
          <a xlink:href="sitkImageFileWriter_8h__incl_org.svg" target="_base">
           <rect id="button" ry="5" rx="5" y="6" x="6" height="38" width="38"
                fill="#f2f5e9" fill-opacity="0.5" stroke="#606060" stroke-width="1.0"/>
           <path id="arrow"
             d="M 11.500037,31.436501 C 11.940474,20.09759 22.043105,11.32322 32.158766,21.979434 L 37.068811,17.246167 C 37.068811,17.246167 37.088388,32 37.088388,32 L 22.160133,31.978069 C 22.160133,31.978069 26.997745,27.140456 26.997745,27.140456 C 18.528582,18.264221 13.291696,25.230495 11.500037,31.436501 z"
             style="fill:#404040;"/>
          </a>
         </g>
        </svg>
</svg>
