<?xml version="1.0" encoding="UTF-8" standalone="no"?>
<!DOCTYPE svg PUBLIC "-//W3C//DTD SVG 1.1//EN"
 "http://www.w3.org/Graphics/SVG/1.1/DTD/svg11.dtd">
<!-- Generated by graphviz version 2.40.1 (20161225.0304)
 -->
<!-- Title: sitkDisplacementFieldTransform.h Pages: 1 -->
<!--zoomable 487 -->
<svg id="main" version="1.1" xmlns="http://www.w3.org/2000/svg" xmlns:xlink="http://www.w3.org/1999/xlink" xml:space="preserve" onload="init(evt)">
<style type="text/css"><![CDATA[
.edge:hover path { stroke: red; }
.edge:hover polygon { stroke: red; fill: red; }
]]></style>
<script type="text/javascript"><![CDATA[
var edges = document.getElementsByTagName('g');
if (edges && edges.length) {
  for (var i=0;i<edges.length;i++) {
    if (edges[i].id.substr(0,4)=='edge') {
      edges[i].setAttribute('class','edge');
    }
  }
}
]]></script>
        <defs>
                <circle id="rim" cx="0" cy="0" r="7"/>
                <circle id="rim2" cx="0" cy="0" r="3.5"/>
                <g id="zoomPlus">
                        <use xlink:href="#rim" fill="#404040">
                                <set attributeName="fill" to="#808080" begin="zoomplus.mouseover" end="zoomplus.mouseout"/>
                        </use>
                        <path d="M-4,0h8M0,-4v8" fill="none" stroke="white" stroke-width="1.5" pointer-events="none"/>
                </g>
                <g id="zoomMin">
                        <use xlink:href="#rim" fill="#404040">
                                <set attributeName="fill" to="#808080" begin="zoomminus.mouseover" end="zoomminus.mouseout"/>
                        </use>
                        <path d="M-4,0h8" fill="none" stroke="white" stroke-width="1.5" pointer-events="none"/>
                </g>
                <g id="dirArrow">
                        <path fill="none" stroke="white" stroke-width="1.5" d="M0,-3.0v7 M-2.5,-0.5L0,-3.0L2.5,-0.5"/>
                </g>
               <g id="resetDef">
                       <use xlink:href="#rim2" fill="#404040">
                               <set attributeName="fill" to="#808080" begin="reset.mouseover" end="reset.mouseout"/>
                       </use>
               </g>
        </defs>

<script type="text/javascript">
var viewWidth = 1605;
var viewHeight = 487;
var sectionId = 'dynsection-0';
</script>
<script xlink:href="svgpan.js"/>
<svg id="graph" class="graph">
<g id="viewport">
<title>sitkDisplacementFieldTransform.h</title>
<polygon fill="#ffffff" stroke="transparent" points="-4,4 -4,-483 1600.5,-483 1600.5,4 -4,4"/>
<!-- Node1 -->
<g id="node1" class="node">
<title>Node1</title>
<g id="a_node1"><a xlink:title=" ">
<polygon fill="#bfbfbf" stroke="#000000" points="1414.5,-459.5 1414.5,-478.5 1596.5,-478.5 1596.5,-459.5 1414.5,-459.5"/>
<text text-anchor="middle" x="1505.5" y="-466.5" font-family="Helvetica,sans-Serif" font-size="10.00" fill="#000000">sitkDisplacementFieldTransform.h</text>
</a>
</g>
</g>
<!-- Node2 -->
<g id="node2" class="node">
<title>Node2</title>
<g id="a_node2"><a xlink:href="sitkCommon_8h.html" target="_top" xlink:title=" ">
<polygon fill="#ffffff" stroke="#000000" points="1078.5,-112.5 1078.5,-131.5 1166.5,-131.5 1166.5,-112.5 1078.5,-112.5"/>
<text text-anchor="middle" x="1122.5" y="-119.5" font-family="Helvetica,sans-Serif" font-size="10.00" fill="#000000">sitkCommon.h</text>
</a>
</g>
</g>
<!-- Node1&#45;&gt;Node2 -->
<g id="edge1" class="edge">
<title>Node1&#45;&gt;Node2</title>
<path fill="none" stroke="#191970" d="M1518.3801,-459.4827C1540.5343,-441.9082 1583.5,-402.0209 1583.5,-357 1583.5,-357 1583.5,-357 1583.5,-239.5 1583.5,-224.1639 1602.3448,-213.4911 1486.5,-168 1431.3781,-146.3542 1264.298,-131.8847 1176.9778,-125.5863"/>
<polygon fill="#191970" stroke="#191970" points="1176.9602,-122.0763 1166.7372,-124.8588 1176.464,-129.0587 1176.9602,-122.0763"/>
</g>
<!-- Node10 -->
<g id="node10" class="node">
<title>Node10</title>
<g id="a_node10"><a xlink:href="sitkTransform_8h.html" target="_top" xlink:title=" ">
<polygon fill="#ffffff" stroke="#000000" points="1343.5,-403.5 1343.5,-422.5 1435.5,-422.5 1435.5,-403.5 1343.5,-403.5"/>
<text text-anchor="middle" x="1389.5" y="-410.5" font-family="Helvetica,sans-Serif" font-size="10.00" fill="#000000">sitkTransform.h</text>
</a>
</g>
</g>
<!-- Node1&#45;&gt;Node10 -->
<g id="edge9" class="edge">
<title>Node1&#45;&gt;Node10</title>
<path fill="none" stroke="#191970" d="M1485.5589,-459.3733C1467.0214,-450.4241 1439.1972,-436.9917 1418.2587,-426.8835"/>
<polygon fill="#191970" stroke="#191970" points="1419.7081,-423.6967 1409.1809,-422.5011 1416.6648,-430.0006 1419.7081,-423.6967"/>
</g>
<!-- Node33 -->
<g id="node33" class="node">
<title>Node33</title>
<g id="a_node33"><a xlink:href="sitkInterpolator_8h.html" target="_top" xlink:title=" ">
<polygon fill="#ffffff" stroke="#000000" points="1455.5,-230 1455.5,-249 1555.5,-249 1555.5,-230 1455.5,-230"/>
<text text-anchor="middle" x="1505.5" y="-237" font-family="Helvetica,sans-Serif" font-size="10.00" fill="#000000">sitkInterpolator.h</text>
</a>
</g>
</g>
<!-- Node1&#45;&gt;Node33 -->
<g id="edge54" class="edge">
<title>Node1&#45;&gt;Node33</title>
<path fill="none" stroke="#191970" d="M1505.5,-459.4309C1505.5,-424.9475 1505.5,-306.5953 1505.5,-259.2785"/>
<polygon fill="#191970" stroke="#191970" points="1509.0001,-259.11 1505.5,-249.11 1502.0001,-259.11 1509.0001,-259.11"/>
</g>
<!-- Node3 -->
<g id="node3" class="node">
<title>Node3</title>
<g id="a_node3"><a xlink:href="sitkMacro_8h.html" target="_top" xlink:title=" ">
<polygon fill="#ffffff" stroke="#000000" points="914,-56.5 914,-75.5 987,-75.5 987,-56.5 914,-56.5"/>
<text text-anchor="middle" x="950.5" y="-63.5" font-family="Helvetica,sans-Serif" font-size="10.00" fill="#000000">sitkMacro.h</text>
</a>
</g>
</g>
<!-- Node2&#45;&gt;Node3 -->
<g id="edge2" class="edge">
<title>Node2&#45;&gt;Node3</title>
<path fill="none" stroke="#191970" d="M1092.9321,-112.3733C1064.3312,-103.0613 1020.8212,-88.8953 989.4181,-78.671"/>
<polygon fill="#191970" stroke="#191970" points="990.2743,-75.269 979.682,-75.5011 988.1072,-81.9251 990.2743,-75.269"/>
</g>
<!-- Node4 -->
<g id="node4" class="node">
<title>Node4</title>
<g id="a_node4"><a xlink:title=" ">
<polygon fill="#ffffff" stroke="#bfbfbf" points="710,-.5 710,-19.5 763,-19.5 763,-.5 710,-.5"/>
<text text-anchor="middle" x="736.5" y="-7.5" font-family="Helvetica,sans-Serif" font-size="10.00" fill="#000000">stdint.h</text>
</a>
</g>
</g>
<!-- Node3&#45;&gt;Node4 -->
<g id="edge3" class="edge">
<title>Node3&#45;&gt;Node4</title>
<path fill="none" stroke="#191970" d="M913.7121,-56.3733C874.2458,-46.0456 811.9629,-29.7473 772.718,-19.4776"/>
<polygon fill="#191970" stroke="#191970" points="773.5836,-16.0863 763.0233,-16.9407 771.8115,-22.8583 773.5836,-16.0863"/>
</g>
<!-- Node5 -->
<g id="node5" class="node">
<title>Node5</title>
<g id="a_node5"><a xlink:title=" ">
<polygon fill="#ffffff" stroke="#bfbfbf" points="956.5,-.5 956.5,-19.5 1012.5,-19.5 1012.5,-.5 956.5,-.5"/>
<text text-anchor="middle" x="984.5" y="-7.5" font-family="Helvetica,sans-Serif" font-size="10.00" fill="#000000">stddef.h</text>
</a>
</g>
</g>
<!-- Node3&#45;&gt;Node5 -->
<g id="edge4" class="edge">
<title>Node3&#45;&gt;Node5</title>
<path fill="none" stroke="#191970" d="M956.4223,-56.2455C961.1027,-48.5367 967.7673,-37.5598 973.4289,-28.2348"/>
<polygon fill="#191970" stroke="#191970" points="976.4475,-30.007 978.6455,-19.6427 970.4639,-26.3741 976.4475,-30.007"/>
</g>
<!-- Node6 -->
<g id="node6" class="node">
<title>Node6</title>
<g id="a_node6"><a xlink:title=" ">
<polygon fill="#ffffff" stroke="#bfbfbf" points="1030.5,-.5 1030.5,-19.5 1082.5,-19.5 1082.5,-.5 1030.5,-.5"/>
<text text-anchor="middle" x="1056.5" y="-7.5" font-family="Helvetica,sans-Serif" font-size="10.00" fill="#000000">cassert</text>
</a>
</g>
</g>
<!-- Node3&#45;&gt;Node6 -->
<g id="edge5" class="edge">
<title>Node3&#45;&gt;Node6</title>
<path fill="none" stroke="#191970" d="M968.9638,-56.2455C985.6074,-47.4527 1010.2993,-34.4079 1029.2192,-24.4125"/>
<polygon fill="#191970" stroke="#191970" points="1031.0408,-27.4086 1038.2478,-19.6427 1027.7709,-21.2193 1031.0408,-27.4086"/>
</g>
<!-- Node7 -->
<g id="node7" class="node">
<title>Node7</title>
<g id="a_node7"><a xlink:title=" ">
<polygon fill="#ffffff" stroke="#bfbfbf" points="820.5,-.5 820.5,-19.5 876.5,-19.5 876.5,-.5 820.5,-.5"/>
<text text-anchor="middle" x="848.5" y="-7.5" font-family="Helvetica,sans-Serif" font-size="10.00" fill="#000000">sstream</text>
</a>
</g>
</g>
<!-- Node3&#45;&gt;Node7 -->
<g id="edge6" class="edge">
<title>Node3&#45;&gt;Node7</title>
<path fill="none" stroke="#191970" d="M932.733,-56.2455C916.7905,-47.4928 893.1741,-34.527 875.0011,-24.5496"/>
<polygon fill="#191970" stroke="#191970" points="876.5137,-21.3873 866.0634,-19.6427 873.1448,-27.5233 876.5137,-21.3873"/>
</g>
<!-- Node8 -->
<g id="node8" class="node">
<title>Node8</title>
<g id="a_node8"><a xlink:title=" ">
<polygon fill="#ffffff" stroke="#bfbfbf" points="894.5,-.5 894.5,-19.5 938.5,-19.5 938.5,-.5 894.5,-.5"/>
<text text-anchor="middle" x="916.5" y="-7.5" font-family="Helvetica,sans-Serif" font-size="10.00" fill="#000000">limits</text>
</a>
</g>
</g>
<!-- Node3&#45;&gt;Node8 -->
<g id="edge7" class="edge">
<title>Node3&#45;&gt;Node8</title>
<path fill="none" stroke="#191970" d="M944.5777,-56.2455C939.8973,-48.5367 933.2327,-37.5598 927.5711,-28.2348"/>
<polygon fill="#191970" stroke="#191970" points="930.5361,-26.3741 922.3545,-19.6427 924.5525,-30.007 930.5361,-26.3741"/>
</g>
<!-- Node9 -->
<g id="node9" class="node">
<title>Node9</title>
<g id="a_node9"><a xlink:href="sitkConfigure_8h.html" target="_top" xlink:title=" ">
<polygon fill="#ffffff" stroke="#000000" points="523.5,-.5 523.5,-19.5 613.5,-19.5 613.5,-.5 523.5,-.5"/>
<text text-anchor="middle" x="568.5" y="-7.5" font-family="Helvetica,sans-Serif" font-size="10.00" fill="#000000">sitkConfigure.h</text>
</a>
</g>
</g>
<!-- Node3&#45;&gt;Node9 -->
<g id="edge8" class="edge">
<title>Node3&#45;&gt;Node9</title>
<path fill="none" stroke="#191970" d="M913.8722,-60.6305C846.6746,-50.7795 703.334,-29.7662 624.0727,-18.1468"/>
<polygon fill="#191970" stroke="#191970" points="624.1989,-14.6279 613.7969,-16.6404 623.1835,-21.5539 624.1989,-14.6279"/>
</g>
<!-- Node10&#45;&gt;Node2 -->
<g id="edge10" class="edge">
<title>Node10&#45;&gt;Node2</title>
<path fill="none" stroke="#191970" d="M1393.5329,-403.3039C1397.1966,-394.1122 1402.4766,-379.8393 1405.5,-367 1415.7036,-323.6685 1457.5442,-201.7367 1428.5,-168 1412.3075,-149.1914 1260.0473,-133.5678 1176.5964,-126.3315"/>
<polygon fill="#191970" stroke="#191970" points="1176.7904,-122.8354 1166.5284,-125.4702 1176.1936,-129.8099 1176.7904,-122.8354"/>
</g>
<!-- Node11 -->
<g id="node11" class="node">
<title>Node11</title>
<g id="a_node11"><a xlink:href="sitkExceptionObject_8h.html" target="_top" xlink:title=" ">
<polygon fill="#ffffff" stroke="#000000" points="933,-168.5 933,-187.5 1056,-187.5 1056,-168.5 933,-168.5"/>
<text text-anchor="middle" x="994.5" y="-175.5" font-family="Helvetica,sans-Serif" font-size="10.00" fill="#000000">sitkExceptionObject.h</text>
</a>
</g>
</g>
<!-- Node10&#45;&gt;Node11 -->
<g id="edge11" class="edge">
<title>Node10&#45;&gt;Node11</title>
<path fill="none" stroke="#191970" d="M1343.2083,-410.8565C1231.491,-404.5822 952.411,-381.9691 899.5,-311 876.3884,-280.0006 878.9631,-256.762 899.5,-224 909.1819,-208.5548 925.6838,-198.1672 942.2437,-191.2389"/>
<polygon fill="#191970" stroke="#191970" points="943.8471,-194.3737 951.9495,-187.5472 941.3585,-187.831 943.8471,-194.3737"/>
</g>
<!-- Node12 -->
<g id="node12" class="node">
<title>Node12</title>
<g id="a_node12"><a xlink:href="sitkImage_8h.html" target="_top" xlink:title=" ">
<polygon fill="#ffffff" stroke="#000000" points="1096.5,-347.5 1096.5,-366.5 1170.5,-366.5 1170.5,-347.5 1096.5,-347.5"/>
<text text-anchor="middle" x="1133.5" y="-354.5" font-family="Helvetica,sans-Serif" font-size="10.00" fill="#000000">sitkImage.h</text>
</a>
</g>
</g>
<!-- Node10&#45;&gt;Node12 -->
<g id="edge14" class="edge">
<title>Node10&#45;&gt;Node12</title>
<path fill="none" stroke="#191970" d="M1345.7829,-403.4369C1299.8828,-393.3962 1227.9532,-377.6616 1180.7637,-367.3389"/>
<polygon fill="#191970" stroke="#191970" points="1181.3127,-363.8763 1170.7957,-365.1584 1179.8168,-370.7146 1181.3127,-363.8763"/>
</g>
<!-- Node14 -->
<g id="node14" class="node">
<title>Node14</title>
<g id="a_node14"><a xlink:title=" ">
<polygon fill="#ffffff" stroke="#bfbfbf" points="1373,-168.5 1373,-187.5 1420,-187.5 1420,-168.5 1373,-168.5"/>
<text text-anchor="middle" x="1396.5" y="-175.5" font-family="Helvetica,sans-Serif" font-size="10.00" fill="#000000">vector</text>
</a>
</g>
</g>
<!-- Node10&#45;&gt;Node14 -->
<g id="edge53" class="edge">
<title>Node10&#45;&gt;Node14</title>
<path fill="none" stroke="#191970" d="M1389.7831,-403.4967C1390.8273,-368.4391 1394.4772,-245.9096 1395.9132,-197.7"/>
<polygon fill="#191970" stroke="#191970" points="1399.414,-197.7214 1396.2134,-187.6216 1392.4171,-197.5129 1399.414,-197.7214"/>
</g>
<!-- Node11&#45;&gt;Node2 -->
<g id="edge13" class="edge">
<title>Node11&#45;&gt;Node2</title>
<path fill="none" stroke="#191970" d="M1016.504,-168.3733C1037.1435,-159.3435 1068.2158,-145.7494 1091.3889,-135.6111"/>
<polygon fill="#191970" stroke="#191970" points="1093.0245,-138.7159 1100.7831,-131.5011 1090.2187,-132.3028 1093.0245,-138.7159"/>
</g>
<!-- Node11&#45;&gt;Node3 -->
<g id="edge12" class="edge">
<title>Node11&#45;&gt;Node3</title>
<path fill="none" stroke="#191970" d="M990.7486,-168.4509C983.5073,-150.0186 967.4814,-109.2254 957.9812,-85.043"/>
<polygon fill="#191970" stroke="#191970" points="961.1561,-83.5526 954.2419,-75.5249 954.6409,-86.1122 961.1561,-83.5526"/>
</g>
<!-- Node12&#45;&gt;Node2 -->
<g id="edge15" class="edge">
<title>Node12&#45;&gt;Node2</title>
<path fill="none" stroke="#191970" d="M1136.2621,-347.2293C1138.7226,-337.985 1142.138,-323.6764 1143.5,-311 1150.1224,-249.3624 1135.7317,-176.4625 1127.5908,-141.9834"/>
<polygon fill="#191970" stroke="#191970" points="1130.8844,-140.7174 1125.109,-131.8351 1124.0848,-142.3803 1130.8844,-140.7174"/>
</g>
<!-- Node13 -->
<g id="node13" class="node">
<title>Node13</title>
<g id="a_node13"><a xlink:href="sitkTemplateFunctions_8h.html" target="_top" xlink:title=" ">
<polygon fill="#ffffff" stroke="#000000" points="1162.5,-230 1162.5,-249 1296.5,-249 1296.5,-230 1162.5,-230"/>
<text text-anchor="middle" x="1229.5" y="-237" font-family="Helvetica,sans-Serif" font-size="10.00" fill="#000000">sitkTemplateFunctions.h</text>
</a>
</g>
</g>
<!-- Node12&#45;&gt;Node13 -->
<g id="edge16" class="edge">
<title>Node12&#45;&gt;Node13</title>
<path fill="none" stroke="#191970" d="M1143.0598,-347.4235C1152.0025,-338.3164 1165.5816,-324.1006 1176.5,-311 1191.2461,-293.3067 1206.789,-271.9764 1217.2012,-257.2435"/>
<polygon fill="#191970" stroke="#191970" points="1220.0954,-259.2121 1222.9682,-249.0142 1214.3629,-255.1948 1220.0954,-259.2121"/>
</g>
<!-- Node12&#45;&gt;Node14 -->
<g id="edge50" class="edge">
<title>Node12&#45;&gt;Node14</title>
<path fill="none" stroke="#191970" d="M1151.9494,-347.3824C1184.1333,-330.3192 1252.1916,-292.9581 1305.5,-255 1332.3997,-235.8462 1361.1195,-210.6553 1378.9401,-194.3942"/>
<polygon fill="#191970" stroke="#191970" points="1381.3285,-196.9528 1386.3153,-187.605 1376.5875,-191.8026 1381.3285,-196.9528"/>
</g>
<!-- Node17 -->
<g id="node17" class="node">
<title>Node17</title>
<g id="a_node17"><a xlink:href="sitkDetail_8h.html" target="_top" xlink:title=" ">
<polygon fill="#ffffff" stroke="#000000" points="401,-291.5 401,-310.5 474,-310.5 474,-291.5 401,-291.5"/>
<text text-anchor="middle" x="437.5" y="-298.5" font-family="Helvetica,sans-Serif" font-size="10.00" fill="#000000">sitkDetail.h</text>
</a>
</g>
</g>
<!-- Node12&#45;&gt;Node17 -->
<g id="edge23" class="edge">
<title>Node12&#45;&gt;Node17</title>
<path fill="none" stroke="#191970" d="M1096.08,-353.9892C978.1431,-344.5 614.3294,-315.2277 484.3005,-304.7656"/>
<polygon fill="#191970" stroke="#191970" points="484.5088,-301.2711 474.2603,-303.9577 483.9474,-308.2485 484.5088,-301.2711"/>
</g>
<!-- Node28 -->
<g id="node28" class="node">
<title>Node28</title>
<g id="a_node28"><a xlink:href="sitkPixelIDTokens_8h.html" target="_top" xlink:title=" ">
<polygon fill="#ffffff" stroke="#000000" points="908.5,-291.5 908.5,-310.5 1020.5,-310.5 1020.5,-291.5 908.5,-291.5"/>
<text text-anchor="middle" x="964.5" y="-298.5" font-family="Helvetica,sans-Serif" font-size="10.00" fill="#000000">sitkPixelIDTokens.h</text>
</a>
</g>
</g>
<!-- Node12&#45;&gt;Node28 -->
<g id="edge42" class="edge">
<title>Node12&#45;&gt;Node28</title>
<path fill="none" stroke="#191970" d="M1104.4479,-347.3733C1076.3457,-338.0613 1033.5946,-323.8953 1002.7393,-313.671"/>
<polygon fill="#191970" stroke="#191970" points="1003.7664,-310.3243 993.173,-310.5011 1001.5645,-316.969 1003.7664,-310.3243"/>
</g>
<!-- Node31 -->
<g id="node31" class="node">
<title>Node31</title>
<g id="a_node31"><a xlink:title=" ">
<polygon fill="#ffffff" stroke="#bfbfbf" points="1037,-230 1037,-249 1106,-249 1106,-230 1037,-230"/>
<text text-anchor="middle" x="1071.5" y="-237" font-family="Helvetica,sans-Serif" font-size="10.00" fill="#000000">type_traits</text>
</a>
</g>
</g>
<!-- Node12&#45;&gt;Node31 -->
<g id="edge52" class="edge">
<title>Node12&#45;&gt;Node31</title>
<path fill="none" stroke="#191970" d="M1109.7141,-347.4178C1094.6331,-339.9442 1076.3538,-327.9629 1067.5,-311 1059.1675,-295.0359 1061.5445,-274.2477 1065.1797,-259.2048"/>
<polygon fill="#191970" stroke="#191970" points="1068.594,-259.9908 1067.9138,-249.4178 1061.8522,-258.1073 1068.594,-259.9908"/>
</g>
<!-- Node32 -->
<g id="node32" class="node">
<title>Node32</title>
<g id="a_node32"><a xlink:title=" ">
<polygon fill="#ffffff" stroke="#bfbfbf" points="1076.5,-291.5 1076.5,-310.5 1134.5,-310.5 1134.5,-291.5 1076.5,-291.5"/>
<text text-anchor="middle" x="1105.5" y="-298.5" font-family="Helvetica,sans-Serif" font-size="10.00" fill="#000000">memory</text>
</a>
</g>
</g>
<!-- Node12&#45;&gt;Node32 -->
<g id="edge51" class="edge">
<title>Node12&#45;&gt;Node32</title>
<path fill="none" stroke="#191970" d="M1128.6228,-347.2455C1124.8487,-339.6973 1119.5079,-329.0158 1114.9099,-319.8197"/>
<polygon fill="#191970" stroke="#191970" points="1117.924,-318.0217 1110.3213,-310.6427 1111.663,-321.1522 1117.924,-318.0217"/>
</g>
<!-- Node13&#45;&gt;Node2 -->
<g id="edge18" class="edge">
<title>Node13&#45;&gt;Node2</title>
<path fill="none" stroke="#191970" d="M1220.7437,-229.8845C1202.7171,-210.0889 1161.236,-164.5372 1138.3609,-139.4173"/>
<polygon fill="#191970" stroke="#191970" points="1140.6981,-136.7856 1131.3772,-131.7484 1135.5225,-141.4987 1140.6981,-136.7856"/>
</g>
<!-- Node13&#45;&gt;Node3 -->
<g id="edge17" class="edge">
<title>Node13&#45;&gt;Node3</title>
<path fill="none" stroke="#191970" d="M1226.6736,-229.7941C1218.6299,-202.8235 1194.9393,-127.911 1175.5,-112 1148.7227,-90.0829 1054.8166,-76.7392 997.1242,-70.4188"/>
<polygon fill="#191970" stroke="#191970" points="997.4609,-66.9349 987.1464,-69.3559 996.7194,-73.8956 997.4609,-66.9349"/>
</g>
<!-- Node13&#45;&gt;Node11 -->
<g id="edge19" class="edge">
<title>Node13&#45;&gt;Node11</title>
<path fill="none" stroke="#191970" d="M1193.0391,-229.9581C1152.0485,-219.2308 1085.4031,-201.7895 1040.774,-190.11"/>
<polygon fill="#191970" stroke="#191970" points="1041.6068,-186.7101 1031.0464,-187.5643 1039.8345,-193.4821 1041.6068,-186.7101"/>
</g>
<!-- Node13&#45;&gt;Node14 -->
<g id="edge20" class="edge">
<title>Node13&#45;&gt;Node14</title>
<path fill="none" stroke="#191970" d="M1255.5938,-229.8906C1284.5658,-219.2213 1331.4088,-201.9707 1363.0524,-190.3175"/>
<polygon fill="#191970" stroke="#191970" points="1364.5759,-193.4863 1372.7503,-186.7461 1362.1569,-186.9176 1364.5759,-193.4863"/>
</g>
<!-- Node15 -->
<g id="node15" class="node">
<title>Node15</title>
<g id="a_node15"><a xlink:title=" ">
<polygon fill="#ffffff" stroke="#bfbfbf" points="1298,-168.5 1298,-187.5 1355,-187.5 1355,-168.5 1298,-168.5"/>
<text text-anchor="middle" x="1326.5" y="-175.5" font-family="Helvetica,sans-Serif" font-size="10.00" fill="#000000">ostream</text>
</a>
</g>
</g>
<!-- Node13&#45;&gt;Node15 -->
<g id="edge21" class="edge">
<title>Node13&#45;&gt;Node15</title>
<path fill="none" stroke="#191970" d="M1244.6563,-229.8906C1260.1743,-220.0519 1284.5193,-204.6167 1302.6284,-193.1351"/>
<polygon fill="#191970" stroke="#191970" points="1304.8787,-195.8526 1311.4502,-187.5419 1301.1304,-189.9407 1304.8787,-195.8526"/>
</g>
<!-- Node16 -->
<g id="node16" class="node">
<title>Node16</title>
<g id="a_node16"><a xlink:title=" ">
<polygon fill="#ffffff" stroke="#bfbfbf" points="1227,-168.5 1227,-187.5 1280,-187.5 1280,-168.5 1227,-168.5"/>
<text text-anchor="middle" x="1253.5" y="-175.5" font-family="Helvetica,sans-Serif" font-size="10.00" fill="#000000">iterator</text>
</a>
</g>
</g>
<!-- Node13&#45;&gt;Node16 -->
<g id="edge22" class="edge">
<title>Node13&#45;&gt;Node16</title>
<path fill="none" stroke="#191970" d="M1233.25,-229.8906C1236.6468,-221.1862 1241.7531,-208.1015 1245.988,-197.2494"/>
<polygon fill="#191970" stroke="#191970" points="1249.3222,-198.3331 1249.6971,-187.7449 1242.8011,-195.7882 1249.3222,-198.3331"/>
</g>
<!-- Node18 -->
<g id="node18" class="node">
<title>Node18</title>
<g id="a_node18"><a xlink:href="sitkMemberFunctionFactoryBase_8h.html" target="_top" xlink:title=" ">
<polygon fill="#ffffff" stroke="#000000" points="242.5,-224.5 242.5,-254.5 392.5,-254.5 392.5,-224.5 242.5,-224.5"/>
<text text-anchor="start" x="250.5" y="-242.5" font-family="Helvetica,sans-Serif" font-size="10.00" fill="#000000">sitkMemberFunctionFactory</text>
<text text-anchor="middle" x="317.5" y="-231.5" font-family="Helvetica,sans-Serif" font-size="10.00" fill="#000000">Base.h</text>
</a>
</g>
</g>
<!-- Node17&#45;&gt;Node18 -->
<g id="edge24" class="edge">
<title>Node17&#45;&gt;Node18</title>
<path fill="none" stroke="#191970" d="M418.75,-291.3906C401.9831,-282.7976 376.8866,-269.9356 355.8748,-259.1671"/>
<polygon fill="#191970" stroke="#191970" points="357.351,-255.9908 346.8553,-254.5446 354.1583,-262.2203 357.351,-255.9908"/>
</g>
<!-- Node24 -->
<g id="node24" class="node">
<title>Node24</title>
<g id="a_node24"><a xlink:title=" ">
<polygon fill="#ffffff" stroke="#bfbfbf" points="368.5,-168.5 368.5,-187.5 506.5,-187.5 506.5,-168.5 368.5,-168.5"/>
<text text-anchor="middle" x="437.5" y="-175.5" font-family="Helvetica,sans-Serif" font-size="10.00" fill="#000000">Ancillary/FunctionTraits.h</text>
</a>
</g>
</g>
<!-- Node17&#45;&gt;Node24 -->
<g id="edge41" class="edge">
<title>Node17&#45;&gt;Node24</title>
<path fill="none" stroke="#191970" d="M437.5,-291.3484C437.5,-271.2295 437.5,-224.4608 437.5,-197.7098"/>
<polygon fill="#191970" stroke="#191970" points="441.0001,-197.6067 437.5,-187.6068 434.0001,-197.6068 441.0001,-197.6067"/>
</g>
<!-- Node18&#45;&gt;Node3 -->
<g id="edge33" class="edge">
<title>Node18&#45;&gt;Node3</title>
<path fill="none" stroke="#191970" d="M392.8243,-235.0432C462.5986,-229.2915 568.5512,-216.3964 656.5,-188 675.0374,-182.0148 677.7708,-176.0705 695.5,-168 772.2329,-133.0704 864.6182,-97.732 914.4275,-79.2131"/>
<polygon fill="#191970" stroke="#191970" points="915.9357,-82.3869 924.0969,-75.6307 913.5038,-75.8229 915.9357,-82.3869"/>
</g>
<!-- Node18&#45;&gt;Node9 -->
<g id="edge25" class="edge">
<title>Node18&#45;&gt;Node9</title>
<path fill="none" stroke="#191970" d="M243.1091,-224.4423C203.4209,-215.0402 159.8585,-202.0731 145.5,-188 120.7096,-163.7024 105.8966,-139.1704 127.5,-112 175.1749,-52.0397 406.0071,-24.2486 513.3732,-14.4047"/>
<polygon fill="#191970" stroke="#191970" points="513.7207,-17.8877 523.3678,-13.5076 513.0949,-10.9157 513.7207,-17.8877"/>
</g>
<!-- Node19 -->
<g id="node19" class="node">
<title>Node19</title>
<g id="a_node19"><a xlink:href="sitkPixelIDTypes_8h.html" target="_top" xlink:title=" ">
<polygon fill="#ffffff" stroke="#000000" points="136.5,-112.5 136.5,-131.5 242.5,-131.5 242.5,-112.5 136.5,-112.5"/>
<text text-anchor="middle" x="189.5" y="-119.5" font-family="Helvetica,sans-Serif" font-size="10.00" fill="#000000">sitkPixelIDTypes.h</text>
</a>
</g>
</g>
<!-- Node18&#45;&gt;Node19 -->
<g id="edge26" class="edge">
<title>Node18&#45;&gt;Node19</title>
<path fill="none" stroke="#191970" d="M242.1856,-224.8712C204.5287,-215.8682 164.6261,-203.1556 153.5,-188 141.9648,-172.2871 156.14,-152.4458 169.9537,-138.6403"/>
<polygon fill="#191970" stroke="#191970" points="172.51,-141.0418 177.4253,-131.6561 167.7299,-135.9281 172.51,-141.0418"/>
</g>
<!-- Node20 -->
<g id="node20" class="node">
<title>Node20</title>
<g id="a_node20"><a xlink:href="sitkPixelIDTypeLists_8h.html" target="_top" xlink:title=" ">
<polygon fill="#ffffff" stroke="#000000" points="525,-168.5 525,-187.5 648,-187.5 648,-168.5 525,-168.5"/>
<text text-anchor="middle" x="586.5" y="-175.5" font-family="Helvetica,sans-Serif" font-size="10.00" fill="#000000">sitkPixelIDTypeLists.h</text>
</a>
</g>
</g>
<!-- Node18&#45;&gt;Node20 -->
<g id="edge27" class="edge">
<title>Node18&#45;&gt;Node20</title>
<path fill="none" stroke="#191970" d="M383.3048,-224.4554C429.9599,-213.7889 491.6893,-199.6761 534.8179,-189.8158"/>
<polygon fill="#191970" stroke="#191970" points="535.8462,-193.1711 544.8145,-187.5303 534.286,-186.3472 535.8462,-193.1711"/>
</g>
<!-- Node21 -->
<g id="node21" class="node">
<title>Node21</title>
<g id="a_node21"><a xlink:title=" ">
<polygon fill="#ffffff" stroke="#bfbfbf" points="344,-112.5 344,-131.5 455,-131.5 455,-112.5 344,-112.5"/>
<text text-anchor="middle" x="399.5" y="-119.5" font-family="Helvetica,sans-Serif" font-size="10.00" fill="#000000">Ancillary/TypeList.h</text>
</a>
</g>
</g>
<!-- Node18&#45;&gt;Node21 -->
<g id="edge36" class="edge">
<title>Node18&#45;&gt;Node21</title>
<path fill="none" stroke="#191970" d="M242.4853,-229.6481C191.2513,-219.7844 137.1999,-201.162 164.5,-168 185.6183,-142.3471 271.9894,-130.7951 333.8892,-125.7364"/>
<polygon fill="#191970" stroke="#191970" points="334.2859,-129.2162 343.9841,-124.9506 333.7426,-122.2373 334.2859,-129.2162"/>
</g>
<!-- Node23 -->
<g id="node23" class="node">
<title>Node23</title>
<g id="a_node23"><a xlink:href="sitkNonCopyable_8h.html" target="_top" xlink:title=" ">
<polygon fill="#ffffff" stroke="#000000" points="705,-168.5 705,-187.5 814,-187.5 814,-168.5 705,-168.5"/>
<text text-anchor="middle" x="759.5" y="-175.5" font-family="Helvetica,sans-Serif" font-size="10.00" fill="#000000">sitkNonCopyable.h</text>
</a>
</g>
</g>
<!-- Node18&#45;&gt;Node23 -->
<g id="edge34" class="edge">
<title>Node18&#45;&gt;Node23</title>
<path fill="none" stroke="#191970" d="M392.5363,-229.2906C467.8737,-219.0047 587.2612,-202.608 690.5,-188 691.9607,-187.7933 693.4386,-187.5837 694.929,-187.3718"/>
<polygon fill="#191970" stroke="#191970" points="695.487,-190.8277 704.8916,-185.9488 694.4972,-183.898 695.487,-190.8277"/>
</g>
<!-- Node18&#45;&gt;Node24 -->
<g id="edge37" class="edge">
<title>Node18&#45;&gt;Node24</title>
<path fill="none" stroke="#191970" d="M346.8553,-224.4554C366.0873,-214.599 391.0612,-201.7999 409.9241,-192.1327"/>
<polygon fill="#191970" stroke="#191970" points="411.6013,-195.206 418.9043,-187.5303 408.4086,-188.9765 411.6013,-195.206"/>
</g>
<!-- Node25 -->
<g id="node25" class="node">
<title>Node25</title>
<g id="a_node25"><a xlink:title=" ">
<polygon fill="#ffffff" stroke="#bfbfbf" points="174,-168.5 174,-187.5 267,-187.5 267,-168.5 174,-168.5"/>
<text text-anchor="middle" x="220.5" y="-175.5" font-family="Helvetica,sans-Serif" font-size="10.00" fill="#000000">unordered_map</text>
</a>
</g>
</g>
<!-- Node18&#45;&gt;Node25 -->
<g id="edge38" class="edge">
<title>Node18&#45;&gt;Node25</title>
<path fill="none" stroke="#191970" d="M293.5225,-224.2977C278.5624,-214.8127 259.378,-202.6495 244.4274,-193.1705"/>
<polygon fill="#191970" stroke="#191970" points="246.061,-190.062 235.7413,-187.6633 242.3127,-195.9739 246.061,-190.062"/>
</g>
<!-- Node26 -->
<g id="node26" class="node">
<title>Node26</title>
<g id="a_node26"><a xlink:title=" ">
<polygon fill="#ffffff" stroke="#bfbfbf" points="285,-168.5 285,-187.5 350,-187.5 350,-168.5 285,-168.5"/>
<text text-anchor="middle" x="317.5" y="-175.5" font-family="Helvetica,sans-Serif" font-size="10.00" fill="#000000">functional</text>
</a>
</g>
</g>
<!-- Node18&#45;&gt;Node26 -->
<g id="edge39" class="edge">
<title>Node18&#45;&gt;Node26</title>
<path fill="none" stroke="#191970" d="M317.5,-224.2977C317.5,-216.3834 317.5,-206.6043 317.5,-198.0759"/>
<polygon fill="#191970" stroke="#191970" points="321.0001,-197.8469 317.5,-187.8469 314.0001,-197.847 321.0001,-197.8469"/>
</g>
<!-- Node27 -->
<g id="node27" class="node">
<title>Node27</title>
<g id="a_node27"><a xlink:title=" ">
<polygon fill="#ffffff" stroke="#bfbfbf" points="0,-168.5 0,-187.5 41,-187.5 41,-168.5 0,-168.5"/>
<text text-anchor="middle" x="20.5" y="-175.5" font-family="Helvetica,sans-Serif" font-size="10.00" fill="#000000">tuple</text>
</a>
</g>
</g>
<!-- Node18&#45;&gt;Node27 -->
<g id="edge40" class="edge">
<title>Node18&#45;&gt;Node27</title>
<path fill="none" stroke="#191970" d="M242.3175,-226.4581C189.7459,-216.9155 118.0339,-203.0511 55.5,-188 54.0408,-187.6488 52.5511,-187.2767 51.0491,-186.8905"/>
<polygon fill="#191970" stroke="#191970" points="51.7189,-183.446 41.1518,-184.2124 49.8904,-190.203 51.7189,-183.446"/>
</g>
<!-- Node20&#45;&gt;Node4 -->
<g id="edge28" class="edge">
<title>Node20&#45;&gt;Node4</title>
<path fill="none" stroke="#191970" d="M594.9944,-168.4862C619.3218,-141.2396 689.5204,-62.6172 720.9557,-27.4096"/>
<polygon fill="#191970" stroke="#191970" points="723.6757,-29.6184 727.7251,-19.8279 718.4541,-24.9562 723.6757,-29.6184"/>
</g>
<!-- Node20&#45;&gt;Node9 -->
<g id="edge29" class="edge">
<title>Node20&#45;&gt;Node9</title>
<path fill="none" stroke="#191970" d="M573.472,-168.3141C563.4208,-159.9649 550.2875,-146.922 544.5,-132 530.9765,-97.1321 546.7493,-53.5823 558.3592,-29.0712"/>
<polygon fill="#191970" stroke="#191970" points="561.6461,-30.3232 562.9824,-19.8129 555.3835,-27.1958 561.6461,-30.3232"/>
</g>
<!-- Node20&#45;&gt;Node19 -->
<g id="edge30" class="edge">
<title>Node20&#45;&gt;Node19</title>
<path fill="none" stroke="#191970" d="M524.9043,-169.3114C450.9571,-158.8806 327.5875,-141.4783 252.863,-130.9379"/>
<polygon fill="#191970" stroke="#191970" points="253.043,-127.4287 242.6521,-129.4975 252.0652,-134.3601 253.043,-127.4287"/>
</g>
<!-- Node20&#45;&gt;Node21 -->
<g id="edge31" class="edge">
<title>Node20&#45;&gt;Node21</title>
<path fill="none" stroke="#191970" d="M554.3536,-168.3733C522.9891,-158.9807 475.1335,-144.6496 440.9284,-134.4064"/>
<polygon fill="#191970" stroke="#191970" points="441.8107,-131.0171 431.227,-131.5011 439.8025,-137.7229 441.8107,-131.0171"/>
</g>
<!-- Node22 -->
<g id="node22" class="node">
<title>Node22</title>
<g id="a_node22"><a xlink:title=" ">
<polygon fill="#ffffff" stroke="#bfbfbf" points="554,-112.5 554,-131.5 613,-131.5 613,-112.5 554,-112.5"/>
<text text-anchor="middle" x="583.5" y="-119.5" font-family="Helvetica,sans-Serif" font-size="10.00" fill="#000000">complex</text>
</a>
</g>
</g>
<!-- Node20&#45;&gt;Node22 -->
<g id="edge32" class="edge">
<title>Node20&#45;&gt;Node22</title>
<path fill="none" stroke="#191970" d="M585.9774,-168.2455C585.586,-160.9382 585.0372,-150.6944 584.5556,-141.7046"/>
<polygon fill="#191970" stroke="#191970" points="588.0466,-141.4411 584.0166,-131.6427 581.0566,-141.8156 588.0466,-141.4411"/>
</g>
<!-- Node23&#45;&gt;Node2 -->
<g id="edge35" class="edge">
<title>Node23&#45;&gt;Node2</title>
<path fill="none" stroke="#191970" d="M814.2378,-169.5556C882.9061,-158.9622 999.9258,-140.9095 1068.3274,-130.3572"/>
<polygon fill="#191970" stroke="#191970" points="1069.1147,-133.7772 1078.4641,-128.7934 1068.0473,-126.8591 1069.1147,-133.7772"/>
</g>
<!-- Node28&#45;&gt;Node9 -->
<g id="edge43" class="edge">
<title>Node28&#45;&gt;Node9</title>
<path fill="none" stroke="#191970" d="M942.9697,-291.4063C907.9459,-274.162 842.5,-234.3941 842.5,-178 842.5,-178 842.5,-178 842.5,-122 842.5,-75.1818 703.6963,-38.2717 623.675,-20.8829"/>
<polygon fill="#191970" stroke="#191970" points="624.2564,-17.4281 613.7455,-18.7596 622.7925,-24.2734 624.2564,-17.4281"/>
</g>
<!-- Node29 -->
<g id="node29" class="node">
<title>Node29</title>
<g id="a_node29"><a xlink:href="sitkPixelIDValues_8h.html" target="_top" xlink:title=" ">
<polygon fill="#ffffff" stroke="#000000" points="908.5,-230 908.5,-249 1018.5,-249 1018.5,-230 908.5,-230"/>
<text text-anchor="middle" x="963.5" y="-237" font-family="Helvetica,sans-Serif" font-size="10.00" fill="#000000">sitkPixelIDValues.h</text>
</a>
</g>
</g>
<!-- Node28&#45;&gt;Node29 -->
<g id="edge44" class="edge">
<title>Node28&#45;&gt;Node29</title>
<path fill="none" stroke="#191970" d="M964.3438,-291.3906C964.2051,-282.8657 963.9982,-270.1392 963.824,-259.4235"/>
<polygon fill="#191970" stroke="#191970" points="967.3207,-259.1866 963.6585,-249.2449 960.3216,-259.3005 967.3207,-259.1866"/>
</g>
<!-- Node28&#45;&gt;Node31 -->
<g id="edge49" class="edge">
<title>Node28&#45;&gt;Node31</title>
<path fill="none" stroke="#191970" d="M981.2188,-291.3906C998.5722,-281.4165 1025.9323,-265.6908 1045.9882,-254.1633"/>
<polygon fill="#191970" stroke="#191970" points="1047.9728,-257.0596 1054.8987,-249.0419 1044.4846,-250.9907 1047.9728,-257.0596"/>
</g>
<!-- Node29&#45;&gt;Node2 -->
<g id="edge45" class="edge">
<title>Node29&#45;&gt;Node2</title>
<path fill="none" stroke="#191970" d="M988.2676,-229.9972C1009.7005,-221.0725 1040.8778,-206.3591 1064.5,-188 1082.4534,-174.0466 1099.1638,-153.9657 1109.9916,-139.6239"/>
<polygon fill="#191970" stroke="#191970" points="1112.8297,-141.6724 1115.9319,-131.5419 1107.1893,-137.5267 1112.8297,-141.6724"/>
</g>
<!-- Node29&#45;&gt;Node15 -->
<g id="edge48" class="edge">
<title>Node29&#45;&gt;Node15</title>
<path fill="none" stroke="#191970" d="M1000.2517,-229.9295C1009.1349,-227.8021 1018.6265,-225.6821 1027.5,-224 1139.4035,-202.7873 1171.9064,-210.4861 1287.9624,-187.8855"/>
<polygon fill="#191970" stroke="#191970" points="1288.8229,-191.2831 1297.952,-185.9063 1287.4624,-184.4166 1288.8229,-191.2831"/>
</g>
<!-- Node29&#45;&gt;Node20 -->
<g id="edge46" class="edge">
<title>Node29&#45;&gt;Node20</title>
<path fill="none" stroke="#191970" d="M908.2772,-230.4915C841.0821,-219.53 727.626,-201.0219 654.9486,-189.166"/>
<polygon fill="#191970" stroke="#191970" points="655.4063,-185.6945 644.9732,-187.5387 654.2792,-192.6032 655.4063,-185.6945"/>
</g>
<!-- Node30 -->
<g id="node30" class="node">
<title>Node30</title>
<g id="a_node30"><a xlink:title=" ">
<polygon fill="#ffffff" stroke="#bfbfbf" points="870.5,-168.5 870.5,-187.5 914.5,-187.5 914.5,-168.5 870.5,-168.5"/>
<text text-anchor="middle" x="892.5" y="-175.5" font-family="Helvetica,sans-Serif" font-size="10.00" fill="#000000">string</text>
</a>
</g>
</g>
<!-- Node29&#45;&gt;Node30 -->
<g id="edge47" class="edge">
<title>Node29&#45;&gt;Node30</title>
<path fill="none" stroke="#191970" d="M952.4063,-229.8906C941.5285,-220.4683 924.7252,-205.9134 911.68,-194.6137"/>
<polygon fill="#191970" stroke="#191970" points="913.6004,-191.6466 903.7502,-187.7449 909.0173,-196.9377 913.6004,-191.6466"/>
</g>
<!-- Node33&#45;&gt;Node2 -->
<g id="edge55" class="edge">
<title>Node33&#45;&gt;Node2</title>
<path fill="none" stroke="#191970" d="M1502.7442,-229.9619C1497.6425,-214.1767 1485.1289,-182.8877 1462.5,-168 1416.6414,-137.8293 1260.5748,-127.2582 1176.7645,-123.7036"/>
<polygon fill="#191970" stroke="#191970" points="1176.8014,-120.2023 1166.6679,-123.2945 1176.518,-127.1966 1176.8014,-120.2023"/>
</g>
<!-- Node33&#45;&gt;Node15 -->
<g id="edge56" class="edge">
<title>Node33&#45;&gt;Node15</title>
<path fill="none" stroke="#191970" d="M1477.5313,-229.8906C1446.9245,-219.3749 1397.7101,-202.466 1363.8259,-190.8243"/>
<polygon fill="#191970" stroke="#191970" points="1364.867,-187.4812 1354.2724,-187.5419 1362.5924,-194.1014 1364.867,-187.4812"/>
</g>
</g>
</svg>
        <g id="navigator" transform="translate(0 0)" fill="#404254">
                <rect fill="#f2f5e9" fill-opacity="0.5" stroke="#606060" stroke-width=".5" x="0" y="0" width="60" height="60"/>
                <use id="zoomplus" xlink:href="#zoomPlus" x="17" y="9" onmousedown="handleZoom(evt,'in')"/>
                <use id="zoomminus" xlink:href="#zoomMin" x="42" y="9" onmousedown="handleZoom(evt,'out')"/>
                <use id="reset" xlink:href="#resetDef" x="30" y="36" onmousedown="handleReset()"/>
                <g id="arrowUp" xlink:href="#dirArrow" transform="translate(30 24)" onmousedown="handlePan(0,-1)">
                  <use xlink:href="#rim" fill="#404040">
                        <set attributeName="fill" to="#808080" begin="arrowUp.mouseover" end="arrowUp.mouseout"/>
                  </use>
                  <path fill="none" stroke="white" stroke-width="1.5" d="M0,-3.0v7 M-2.5,-0.5L0,-3.0L2.5,-0.5"/>
                </g>
                <g id="arrowRight" xlink:href="#dirArrow" transform="rotate(90) translate(36 -43)" onmousedown="handlePan(1,0)">
                  <use xlink:href="#rim" fill="#404040">
                        <set attributeName="fill" to="#808080" begin="arrowRight.mouseover" end="arrowRight.mouseout"/>
                  </use>
                  <path fill="none" stroke="white" stroke-width="1.5" d="M0,-3.0v7 M-2.5,-0.5L0,-3.0L2.5,-0.5"/>
                </g>
                <g id="arrowDown" xlink:href="#dirArrow" transform="rotate(180) translate(-30 -48)" onmousedown="handlePan(0,1)">
                  <use xlink:href="#rim" fill="#404040">
                        <set attributeName="fill" to="#808080" begin="arrowDown.mouseover" end="arrowDown.mouseout"/>
                  </use>
                  <path fill="none" stroke="white" stroke-width="1.5" d="M0,-3.0v7 M-2.5,-0.5L0,-3.0L2.5,-0.5"/>
                </g>
                <g id="arrowLeft" xlink:href="#dirArrow" transform="rotate(270) translate(-36 17)" onmousedown="handlePan(-1,0)">
                  <use xlink:href="#rim" fill="#404040">
                        <set attributeName="fill" to="#808080" begin="arrowLeft.mouseover" end="arrowLeft.mouseout"/>
                  </use>
                  <path fill="none" stroke="white" stroke-width="1.5" d="M0,-3.0v7 M-2.5,-0.5L0,-3.0L2.5,-0.5"/>
                </g>
        </g>
        <svg viewBox="0 0 15 15" width="100%" height="30px" preserveAspectRatio="xMaxYMin meet">
         <g id="arrow_out" transform="scale(0.3 0.3)">
          <a xlink:href="sitkDisplacementFieldTransform_8h__incl_org.svg" target="_base">
           <rect id="button" ry="5" rx="5" y="6" x="6" height="38" width="38"
                fill="#f2f5e9" fill-opacity="0.5" stroke="#606060" stroke-width="1.0"/>
           <path id="arrow"
             d="M 11.500037,31.436501 C 11.940474,20.09759 22.043105,11.32322 32.158766,21.979434 L 37.068811,17.246167 C 37.068811,17.246167 37.088388,32 37.088388,32 L 22.160133,31.978069 C 22.160133,31.978069 26.997745,27.140456 26.997745,27.140456 C 18.528582,18.264221 13.291696,25.230495 11.500037,31.436501 z"
             style="fill:#404040;"/>
          </a>
         </g>
        </svg>
</svg>
