<?xml version="1.0" encoding="UTF-8" standalone="no"?>
<!DOCTYPE svg PUBLIC "-//W3C//DTD SVG 1.1//EN"
 "http://www.w3.org/Graphics/SVG/1.1/DTD/svg11.dtd">
<!-- Generated by graphviz version 2.40.1 (20161225.0304)
 -->
<!-- Title: sitkCommon.h Pages: 1 -->
<!--zoomable 509 -->
<svg id="main" version="1.1" xmlns="http://www.w3.org/2000/svg" xmlns:xlink="http://www.w3.org/1999/xlink" xml:space="preserve" onload="init(evt)">
<style type="text/css"><![CDATA[
.edge:hover path { stroke: red; }
.edge:hover polygon { stroke: red; fill: red; }
]]></style>
<script type="text/javascript"><![CDATA[
var edges = document.getElementsByTagName('g');
if (edges && edges.length) {
  for (var i=0;i<edges.length;i++) {
    if (edges[i].id.substr(0,4)=='edge') {
      edges[i].setAttribute('class','edge');
    }
  }
}
]]></script>
        <defs>
                <circle id="rim" cx="0" cy="0" r="7"/>
                <circle id="rim2" cx="0" cy="0" r="3.5"/>
                <g id="zoomPlus">
                        <use xlink:href="#rim" fill="#404040">
                                <set attributeName="fill" to="#808080" begin="zoomplus.mouseover" end="zoomplus.mouseout"/>
                        </use>
                        <path d="M-4,0h8M0,-4v8" fill="none" stroke="white" stroke-width="1.5" pointer-events="none"/>
                </g>
                <g id="zoomMin">
                        <use xlink:href="#rim" fill="#404040">
                                <set attributeName="fill" to="#808080" begin="zoomminus.mouseover" end="zoomminus.mouseout"/>
                        </use>
                        <path d="M-4,0h8" fill="none" stroke="white" stroke-width="1.5" pointer-events="none"/>
                </g>
                <g id="dirArrow">
                        <path fill="none" stroke="white" stroke-width="1.5" d="M0,-3.0v7 M-2.5,-0.5L0,-3.0L2.5,-0.5"/>
                </g>
               <g id="resetDef">
                       <use xlink:href="#rim2" fill="#404040">
                               <set attributeName="fill" to="#808080" begin="reset.mouseover" end="reset.mouseout"/>
                       </use>
               </g>
        </defs>

<script type="text/javascript">
var viewWidth = 4163;
var viewHeight = 509;
var sectionId = 'dynsection-1';
</script>
<script xlink:href="svgpan.js"/>
<svg id="graph" class="graph">
<g id="viewport">
<title>sitkCommon.h</title>
<polygon fill="#ffffff" stroke="transparent" points="-4,4 -4,-505 4158.7635,-505 4158.7635,4 -4,4"/>
<!-- Node1 -->
<g id="node1" class="node">
<title>Node1</title>
<g id="a_node1"><a xlink:title=" ">
<polygon fill="#bfbfbf" stroke="#000000" points="2225.7635,-481.5 2225.7635,-500.5 2313.7635,-500.5 2313.7635,-481.5 2225.7635,-481.5"/>
<text text-anchor="middle" x="2269.7635" y="-488.5" font-family="Helvetica,sans-Serif" font-size="10.00" fill="#000000">sitkCommon.h</text>
</a>
</g>
</g>
<!-- Node2 -->
<g id="node2" class="node">
<title>Node2</title>
<g id="a_node2"><a xlink:href="sitkNonCopyable_8h.html" target="_top" xlink:title=" ">
<polygon fill="#ffffff" stroke="#000000" points="1443.2635,-313.5 1443.2635,-332.5 1552.2635,-332.5 1552.2635,-313.5 1443.2635,-313.5"/>
<text text-anchor="middle" x="1497.7635" y="-320.5" font-family="Helvetica,sans-Serif" font-size="10.00" fill="#000000">sitkNonCopyable.h</text>
</a>
</g>
</g>
<!-- Node1&#45;&gt;Node2 -->
<g id="edge1" class="edge">
<title>Node1&#45;&gt;Node2</title>
<path fill="none" stroke="#191970" d="M2215.3828,-489.4178C2094.7546,-485.4342 1808.1397,-473.224 1715.7635,-445 1630.7336,-419.0205 1542.0918,-356.4162 1510.1482,-332.5034"/>
<polygon fill="#191970" stroke="#191970" points="2215.3902,-492.9197 2225.4982,-489.7453 2215.6168,-485.9234 2215.3902,-492.9197"/>
</g>
<!-- Node325 -->
<g id="node17" class="node">
<title>Node325</title>
<g id="a_node17"><a xlink:href="sitkProcessObject_8h.html" target="_top" xlink:title=" ">
<polygon fill="#ffffff" stroke="#000000" points="817.2635,-190.5 817.2635,-209.5 930.2635,-209.5 930.2635,-190.5 817.2635,-190.5"/>
<text text-anchor="middle" x="873.7635" y="-197.5" font-family="Helvetica,sans-Serif" font-size="10.00" fill="#000000">sitkProcessObject.h</text>
</a>
</g>
</g>
<!-- Node1&#45;&gt;Node325 -->
<g id="edge145" class="edge">
<title>Node1&#45;&gt;Node325</title>
<path fill="none" stroke="#191970" d="M2215.3032,-489.6731C2010.6439,-484.5492 1294.1264,-465.3256 1193.7635,-445 1111.4764,-428.3351 1016.7635,-462.9577 1016.7635,-379 1016.7635,-379 1016.7635,-379 1016.7635,-323 1016.7635,-262.9097 943.2904,-225.7674 901.6748,-209.5492"/>
<polygon fill="#191970" stroke="#191970" points="2215.4241,-493.1771 2225.5083,-489.9275 2215.5986,-486.1792 2215.4241,-493.1771"/>
</g>
<!-- Node337 -->
<g id="node21" class="node">
<title>Node337</title>
<g id="a_node21"><a xlink:href="sitkCommand_8h.html" target="_top" xlink:title=" ">
<polygon fill="#ffffff" stroke="#000000" points="1872.7635,-252 1872.7635,-271 1966.7635,-271 1966.7635,-252 1872.7635,-252"/>
<text text-anchor="middle" x="1919.7635" y="-259" font-family="Helvetica,sans-Serif" font-size="10.00" fill="#000000">sitkCommand.h</text>
</a>
</g>
</g>
<!-- Node1&#45;&gt;Node337 -->
<g id="edge146" class="edge">
<title>Node1&#45;&gt;Node337</title>
<path fill="none" stroke="#191970" d="M2215.2666,-485.3113C2155.5229,-478.212 2064.3395,-464.5746 2035.7635,-445 1969.2228,-399.4196 1932.87,-301.8157 1922.7328,-271.0163"/>
<polygon fill="#191970" stroke="#191970" points="2214.9642,-488.7997 2225.3015,-486.4777 2215.7725,-481.8465 2214.9642,-488.7997"/>
</g>
<!-- Node339 -->
<g id="node23" class="node">
<title>Node339</title>
<g id="a_node23"><a xlink:href="sitkVersion_8h.html" target="_top" xlink:title=" ">
<polygon fill="#ffffff" stroke="#000000" points="3577.7635,-425.5 3577.7635,-444.5 3657.7635,-444.5 3657.7635,-425.5 3577.7635,-425.5"/>
<text text-anchor="middle" x="3617.7635" y="-432.5" font-family="Helvetica,sans-Serif" font-size="10.00" fill="#000000">sitkVersion.h</text>
</a>
</g>
</g>
<!-- Node1&#45;&gt;Node339 -->
<g id="edge48" class="edge">
<title>Node1&#45;&gt;Node339</title>
<path fill="none" stroke="#191970" d="M2324.0684,-490.0203C2536.7684,-486.0343 3313.5421,-470.0461 3558.7635,-445 3564.8614,-444.3772 3571.2824,-443.5103 3577.5536,-442.5449"/>
<polygon fill="#191970" stroke="#191970" points="2323.7167,-486.5261 2313.7837,-490.2119 2323.8472,-493.5249 2323.7167,-486.5261"/>
</g>
<!-- Node6 -->
<g id="node24" class="node">
<title>Node6</title>
<g id="a_node24"><a xlink:href="sitkImage_8h.html" target="_top" xlink:title=" ">
<polygon fill="#ffffff" stroke="#000000" points="665.7635,-313.5 665.7635,-332.5 739.7635,-332.5 739.7635,-313.5 665.7635,-313.5"/>
<text text-anchor="middle" x="702.7635" y="-320.5" font-family="Helvetica,sans-Serif" font-size="10.00" fill="#000000">sitkImage.h</text>
</a>
</g>
</g>
<!-- Node1&#45;&gt;Node6 -->
<g id="edge50" class="edge">
<title>Node1&#45;&gt;Node6</title>
<path fill="none" stroke="#191970" d="M2215.2803,-490.1419C1988.0695,-486.4113 1122.2622,-470.6283 1002.7635,-445 889.7894,-420.7709 764.877,-356.8262 719.9913,-332.5409"/>
<polygon fill="#191970" stroke="#191970" points="2215.5559,-493.6468 2225.6116,-490.3105 2215.6701,-486.6477 2215.5559,-493.6468"/>
</g>
<!-- Node9 -->
<g id="node26" class="node">
<title>Node9</title>
<g id="a_node26"><a xlink:href="sitkTransform_8h.html" target="_top" xlink:title=" ">
<polygon fill="#ffffff" stroke="#000000" points="2502.7635,-252 2502.7635,-271 2594.7635,-271 2594.7635,-252 2502.7635,-252"/>
<text text-anchor="middle" x="2548.7635" y="-259" font-family="Helvetica,sans-Serif" font-size="10.00" fill="#000000">sitkTransform.h</text>
</a>
</g>
</g>
<!-- Node1&#45;&gt;Node9 -->
<g id="edge118" class="edge">
<title>Node1&#45;&gt;Node9</title>
<path fill="none" stroke="#191970" d="M2294.5801,-476.1798C2308.498,-467.5604 2325.9804,-456.2124 2340.7635,-445 2421.3358,-383.889 2509.685,-299.5588 2538.834,-271.2257"/>
<polygon fill="#191970" stroke="#191970" points="2292.7167,-473.2168 2286.0131,-481.4211 2296.3699,-479.1879 2292.7167,-473.2168"/>
</g>
<!-- Node311 -->
<g id="node28" class="node">
<title>Node311</title>
<g id="a_node28"><a xlink:href="sitkBSplineTransform_8h.html" target="_top" xlink:title=" ">
<polygon fill="#ffffff" stroke="#000000" points="2194.2635,-129 2194.2635,-148 2323.2635,-148 2323.2635,-129 2194.2635,-129"/>
<text text-anchor="middle" x="2258.7635" y="-136" font-family="Helvetica,sans-Serif" font-size="10.00" fill="#000000">sitkBSplineTransform.h</text>
</a>
</g>
</g>
<!-- Node1&#45;&gt;Node311 -->
<g id="edge119" class="edge">
<title>Node1&#45;&gt;Node311</title>
<path fill="none" stroke="#191970" d="M2264.3657,-471.3284C2258.7487,-449.0948 2250.7635,-411.7312 2250.7635,-379 2250.7635,-379 2250.7635,-379 2250.7635,-323 2250.7635,-255.9918 2256.0957,-175.4226 2258.0536,-148.0973"/>
<polygon fill="#191970" stroke="#191970" points="2261.0346,-472.4237 2266.96,-481.2066 2267.805,-470.6455 2261.0346,-472.4237"/>
</g>
<!-- Node312 -->
<g id="node29" class="node">
<title>Node312</title>
<g id="a_node29"><a xlink:href="sitkDisplacementFieldTransform_8h.html" target="_top" xlink:title=" ">
<polygon fill="#ffffff" stroke="#000000" points="2001.7635,-190.5 2001.7635,-209.5 2183.7635,-209.5 2183.7635,-190.5 2001.7635,-190.5"/>
<text text-anchor="middle" x="2092.7635" y="-197.5" font-family="Helvetica,sans-Serif" font-size="10.00" fill="#000000">sitkDisplacementFieldTransform.h</text>
</a>
</g>
</g>
<!-- Node1&#45;&gt;Node312 -->
<g id="edge120" class="edge">
<title>Node1&#45;&gt;Node312</title>
<path fill="none" stroke="#191970" d="M2254.4136,-473.6687C2237.531,-452.7623 2212.7635,-415.8174 2212.7635,-379 2212.7635,-379 2212.7635,-379 2212.7635,-323 2212.7635,-266.9133 2148.0467,-226.8692 2113.6659,-209.5531"/>
<polygon fill="#191970" stroke="#191970" points="2251.7504,-475.94 2260.8573,-481.3544 2257.1146,-471.4426 2251.7504,-475.94"/>
</g>
<!-- Node313 -->
<g id="node30" class="node">
<title>Node313</title>
<g id="a_node30"><a xlink:href="sitkAffineTransform_8h.html" target="_top" xlink:title=" ">
<polygon fill="#ffffff" stroke="#000000" points="2316.2635,-190.5 2316.2635,-209.5 2437.2635,-209.5 2437.2635,-190.5 2316.2635,-190.5"/>
<text text-anchor="middle" x="2376.7635" y="-197.5" font-family="Helvetica,sans-Serif" font-size="10.00" fill="#000000">sitkAffineTransform.h</text>
</a>
</g>
</g>
<!-- Node1&#45;&gt;Node313 -->
<g id="edge127" class="edge">
<title>Node1&#45;&gt;Node313</title>
<path fill="none" stroke="#191970" d="M2275.1613,-471.3284C2280.7783,-449.0948 2288.7635,-411.7312 2288.7635,-379 2288.7635,-379 2288.7635,-379 2288.7635,-323 2288.7635,-287.154 2291.7939,-275.0725 2312.7635,-246 2324.2903,-230.0192 2343.0994,-217.4622 2357.3511,-209.5335"/>
<polygon fill="#191970" stroke="#191970" points="2271.722,-470.6455 2272.567,-481.2066 2278.4924,-472.4237 2271.722,-470.6455"/>
</g>
<!-- Node314 -->
<g id="node31" class="node">
<title>Node314</title>
<g id="a_node31"><a xlink:href="sitkEuler2DTransform_8h.html" target="_top" xlink:title=" ">
<polygon fill="#ffffff" stroke="#000000" points="2455.2635,-190.5 2455.2635,-209.5 2586.2635,-209.5 2586.2635,-190.5 2455.2635,-190.5"/>
<text text-anchor="middle" x="2520.7635" y="-197.5" font-family="Helvetica,sans-Serif" font-size="10.00" fill="#000000">sitkEuler2DTransform.h</text>
</a>
</g>
</g>
<!-- Node1&#45;&gt;Node314 -->
<g id="edge128" class="edge">
<title>Node1&#45;&gt;Node314</title>
<path fill="none" stroke="#191970" d="M2285.1135,-473.6687C2301.996,-452.7623 2326.7635,-415.8174 2326.7635,-379 2326.7635,-379 2326.7635,-379 2326.7635,-323 2326.7635,-255.5038 2411.5603,-223.4926 2469.0299,-209.5482"/>
<polygon fill="#191970" stroke="#191970" points="2282.4125,-471.4426 2278.6698,-481.3544 2287.7766,-475.94 2282.4125,-471.4426"/>
</g>
<!-- Node315 -->
<g id="node32" class="node">
<title>Node315</title>
<g id="a_node32"><a xlink:href="sitkEuler3DTransform_8h.html" target="_top" xlink:title=" ">
<polygon fill="#ffffff" stroke="#000000" points="2643.2635,-190.5 2643.2635,-209.5 2774.2635,-209.5 2774.2635,-190.5 2643.2635,-190.5"/>
<text text-anchor="middle" x="2708.7635" y="-197.5" font-family="Helvetica,sans-Serif" font-size="10.00" fill="#000000">sitkEuler3DTransform.h</text>
</a>
</g>
</g>
<!-- Node1&#45;&gt;Node315 -->
<g id="edge129" class="edge">
<title>Node1&#45;&gt;Node315</title>
<path fill="none" stroke="#191970" d="M2324.0919,-486.4702C2429.5564,-476.1721 2651.7635,-446.4692 2651.7635,-379 2651.7635,-379 2651.7635,-379 2651.7635,-323 2651.7635,-276.8701 2685.1759,-229.2763 2700.8379,-209.5006"/>
<polygon fill="#191970" stroke="#191970" points="2323.5802,-483.003 2313.957,-487.4351 2324.2437,-489.9715 2323.5802,-483.003"/>
</g>
<!-- Node316 -->
<g id="node33" class="node">
<title>Node316</title>
<g id="a_node33"><a xlink:href="sitkScaleTransform_8h.html" target="_top" xlink:title=" ">
<polygon fill="#ffffff" stroke="#000000" points="2792.2635,-190.5 2792.2635,-209.5 2911.2635,-209.5 2911.2635,-190.5 2792.2635,-190.5"/>
<text text-anchor="middle" x="2851.7635" y="-197.5" font-family="Helvetica,sans-Serif" font-size="10.00" fill="#000000">sitkScaleTransform.h</text>
</a>
</g>
</g>
<!-- Node1&#45;&gt;Node316 -->
<g id="edge130" class="edge">
<title>Node1&#45;&gt;Node316</title>
<path fill="none" stroke="#191970" d="M2324.1338,-487.398C2390.5237,-482.1047 2505.8235,-470.0089 2601.7635,-445 2679.7918,-424.6602 2770.7635,-459.6357 2770.7635,-379 2770.7635,-379 2770.7635,-379 2770.7635,-323 2770.7635,-273.6526 2816.8019,-228.8017 2839.4614,-209.7153"/>
<polygon fill="#191970" stroke="#191970" points="2323.6088,-483.9281 2313.909,-488.19 2324.1495,-490.9071 2323.6088,-483.9281"/>
</g>
<!-- Node317 -->
<g id="node34" class="node">
<title>Node317</title>
<g id="a_node34"><a xlink:href="sitkScaleSkewVersor3DTransform_8h.html" target="_top" xlink:title=" ">
<polygon fill="#ffffff" stroke="#000000" points="2929.2635,-190.5 2929.2635,-209.5 3118.2635,-209.5 3118.2635,-190.5 2929.2635,-190.5"/>
<text text-anchor="middle" x="3023.7635" y="-197.5" font-family="Helvetica,sans-Serif" font-size="10.00" fill="#000000">sitkScaleSkewVersor3DTransform.h</text>
</a>
</g>
</g>
<!-- Node1&#45;&gt;Node317 -->
<g id="edge131" class="edge">
<title>Node1&#45;&gt;Node317</title>
<path fill="none" stroke="#191970" d="M2324.1887,-487.2869C2479.8477,-475.9454 2915.7635,-438.842 2915.7635,-379 2915.7635,-379 2915.7635,-379 2915.7635,-323 2915.7635,-269.0065 2975.2545,-227.406 3005.9295,-209.5445"/>
<polygon fill="#191970" stroke="#191970" points="2323.6339,-483.8177 2313.9115,-488.0278 2324.1373,-490.7996 2323.6339,-483.8177"/>
</g>
<!-- Node318 -->
<g id="node35" class="node">
<title>Node318</title>
<g id="a_node35"><a xlink:href="sitkScaleVersor3DTransform_8h.html" target="_top" xlink:title=" ">
<polygon fill="#ffffff" stroke="#000000" points="3136.2635,-190.5 3136.2635,-209.5 3299.2635,-209.5 3299.2635,-190.5 3136.2635,-190.5"/>
<text text-anchor="middle" x="3217.7635" y="-197.5" font-family="Helvetica,sans-Serif" font-size="10.00" fill="#000000">sitkScaleVersor3DTransform.h</text>
</a>
</g>
</g>
<!-- Node1&#45;&gt;Node318 -->
<g id="edge132" class="edge">
<title>Node1&#45;&gt;Node318</title>
<path fill="none" stroke="#191970" d="M2323.9096,-488.6554C2496.5576,-480.4671 3022.7635,-449.7106 3022.7635,-379 3022.7635,-379 3022.7635,-379 3022.7635,-323 3022.7635,-255.3555 3107.7458,-223.4187 3165.5071,-209.5242"/>
<polygon fill="#191970" stroke="#191970" points="2323.6045,-485.1657 2313.7789,-489.1291 2323.9315,-492.1581 2323.6045,-485.1657"/>
</g>
<!-- Node319 -->
<g id="node36" class="node">
<title>Node319</title>
<g id="a_node36"><a xlink:href="sitkSimilarity2DTransform_8h.html" target="_top" xlink:title=" ">
<polygon fill="#ffffff" stroke="#000000" points="3317.2635,-190.5 3317.2635,-209.5 3470.2635,-209.5 3470.2635,-190.5 3317.2635,-190.5"/>
<text text-anchor="middle" x="3393.7635" y="-197.5" font-family="Helvetica,sans-Serif" font-size="10.00" fill="#000000">sitkSimilarity2DTransform.h</text>
</a>
</g>
</g>
<!-- Node1&#45;&gt;Node319 -->
<g id="edge133" class="edge">
<title>Node1&#45;&gt;Node319</title>
<path fill="none" stroke="#191970" d="M2324.0646,-489.3624C2507.7978,-483.1099 3094.7635,-457.0291 3094.7635,-379 3094.7635,-379 3094.7635,-379 3094.7635,-323 3094.7635,-284.2287 3104.4119,-268.8098 3135.7635,-246 3150.7329,-235.1091 3250.9443,-219.474 3321.9637,-209.5287"/>
<polygon fill="#191970" stroke="#191970" points="2323.705,-485.8723 2313.8274,-489.7043 2323.9387,-492.8684 2323.705,-485.8723"/>
</g>
<!-- Node320 -->
<g id="node37" class="node">
<title>Node320</title>
<g id="a_node37"><a xlink:href="sitkSimilarity3DTransform_8h.html" target="_top" xlink:title=" ">
<polygon fill="#ffffff" stroke="#000000" points="3488.2635,-190.5 3488.2635,-209.5 3641.2635,-209.5 3641.2635,-190.5 3488.2635,-190.5"/>
<text text-anchor="middle" x="3564.7635" y="-197.5" font-family="Helvetica,sans-Serif" font-size="10.00" fill="#000000">sitkSimilarity3DTransform.h</text>
</a>
</g>
</g>
<!-- Node1&#45;&gt;Node320 -->
<g id="edge134" class="edge">
<title>Node1&#45;&gt;Node320</title>
<path fill="none" stroke="#191970" d="M2324.2476,-489.5602C2467.5487,-485.4372 2852.4848,-472.1024 2976.7635,-445 3057.1681,-427.4656 3149.7635,-461.2943 3149.7635,-379 3149.7635,-379 3149.7635,-379 3149.7635,-323 3149.7635,-285.7673 3152.9634,-268.3209 3182.7635,-246 3184.2839,-244.8612 3376.7176,-222.0918 3487.8412,-209.0233"/>
<polygon fill="#191970" stroke="#191970" points="2323.8477,-486.07 2313.9511,-489.8525 2324.0464,-493.0672 2323.8477,-486.07"/>
</g>
<!-- Node321 -->
<g id="node38" class="node">
<title>Node321</title>
<g id="a_node38"><a xlink:href="sitkTranslationTransform_8h.html" target="_top" xlink:title=" ">
<polygon fill="#ffffff" stroke="#000000" points="3659.7635,-190.5 3659.7635,-209.5 3805.7635,-209.5 3805.7635,-190.5 3659.7635,-190.5"/>
<text text-anchor="middle" x="3732.7635" y="-197.5" font-family="Helvetica,sans-Serif" font-size="10.00" fill="#000000">sitkTranslationTransform.h</text>
</a>
</g>
</g>
<!-- Node1&#45;&gt;Node321 -->
<g id="edge135" class="edge">
<title>Node1&#45;&gt;Node321</title>
<path fill="none" stroke="#191970" d="M2324.1224,-489.1539C2492.0554,-483.2709 2995.5802,-464.2199 3066.7635,-445 3129.3208,-428.1092 3196.7635,-443.7975 3196.7635,-379 3196.7635,-379 3196.7635,-379 3196.7635,-323 3196.7635,-286.5854 3195.8465,-268.1322 3224.7635,-246 3262.3972,-217.1964 3602.6195,-214.8352 3649.7635,-210 3652.9399,-209.6742 3656.1834,-209.3306 3659.4589,-208.9746"/>
<polygon fill="#191970" stroke="#191970" points="2323.8946,-485.6596 2314.0227,-489.506 2324.1386,-492.6554 2323.8946,-485.6596"/>
</g>
<!-- Node322 -->
<g id="node39" class="node">
<title>Node322</title>
<g id="a_node39"><a xlink:href="sitkVersorTransform_8h.html" target="_top" xlink:title=" ">
<polygon fill="#ffffff" stroke="#000000" points="3824.2635,-190.5 3824.2635,-209.5 3947.2635,-209.5 3947.2635,-190.5 3824.2635,-190.5"/>
<text text-anchor="middle" x="3885.7635" y="-197.5" font-family="Helvetica,sans-Serif" font-size="10.00" fill="#000000">sitkVersorTransform.h</text>
</a>
</g>
</g>
<!-- Node1&#45;&gt;Node322 -->
<g id="edge136" class="edge">
<title>Node1&#45;&gt;Node322</title>
<path fill="none" stroke="#191970" d="M2324.1493,-489.677C2501.4864,-485.1451 3055.9845,-469.1783 3132.7635,-445 3185.6978,-428.3306 3238.7635,-434.4969 3238.7635,-379 3238.7635,-379 3238.7635,-379 3238.7635,-323 3238.7635,-192.5601 3685.4757,-227.2982 3814.7635,-210 3817.8481,-209.5873 3821.0072,-209.1598 3824.1971,-208.7244"/>
<polygon fill="#191970" stroke="#191970" points="2323.9153,-486.1817 2314.0072,-489.9342 2324.0928,-493.1795 2323.9153,-486.1817"/>
</g>
<!-- Node323 -->
<g id="node40" class="node">
<title>Node323</title>
<g id="a_node40"><a xlink:href="sitkVersorRigid3DTransform_8h.html" target="_top" xlink:title=" ">
<polygon fill="#ffffff" stroke="#000000" points="3965.2635,-190.5 3965.2635,-209.5 4126.2635,-209.5 4126.2635,-190.5 3965.2635,-190.5"/>
<text text-anchor="middle" x="4045.7635" y="-197.5" font-family="Helvetica,sans-Serif" font-size="10.00" fill="#000000">sitkVersorRigid3DTransform.h</text>
</a>
</g>
</g>
<!-- Node1&#45;&gt;Node323 -->
<g id="edge137" class="edge">
<title>Node1&#45;&gt;Node323</title>
<path fill="none" stroke="#191970" d="M2324.2007,-489.202C2494.6126,-483.4253 3016.4729,-464.5714 3184.7635,-445 3346.3412,-426.2093 3544.7635,-541.6667 3544.7635,-379 3544.7635,-379 3544.7635,-379 3544.7635,-323 3544.7635,-278.8627 3841.8215,-229.7681 3978.4566,-209.5211"/>
<polygon fill="#191970" stroke="#191970" points="2323.8417,-485.712 2313.9656,-489.5475 2324.078,-492.708 2323.8417,-485.712"/>
</g>
<!-- Node340 -->
<g id="node42" class="node">
<title>Node340</title>
<g id="a_node42"><a xlink:href="sitkTemplateFunctions_8h.html" target="_top" xlink:title=" ">
<polygon fill="#ffffff" stroke="#000000" points="1054.7635,-369.5 1054.7635,-388.5 1188.7635,-388.5 1188.7635,-369.5 1054.7635,-369.5"/>
<text text-anchor="middle" x="1121.7635" y="-376.5" font-family="Helvetica,sans-Serif" font-size="10.00" fill="#000000">sitkTemplateFunctions.h</text>
</a>
</g>
</g>
<!-- Node1&#45;&gt;Node340 -->
<g id="edge104" class="edge">
<title>Node1&#45;&gt;Node340</title>
<path fill="none" stroke="#191970" d="M2215.337,-489.9338C2017.224,-485.8629 1341.2557,-470.2463 1247.7635,-445 1203.6588,-433.0901 1157.498,-403.9264 1135.2856,-388.6658"/>
<polygon fill="#191970" stroke="#191970" points="2215.4369,-493.4365 2225.5062,-490.1412 2215.5797,-486.4379 2215.4369,-493.4365"/>
</g>
<!-- Node342 -->
<g id="node44" class="node">
<title>Node342</title>
<g id="a_node44"><a xlink:href="sitkExceptionObject_8h.html" target="_top" xlink:title=" ">
<polygon fill="#ffffff" stroke="#000000" points="2061.2635,-425.5 2061.2635,-444.5 2184.2635,-444.5 2184.2635,-425.5 2061.2635,-425.5"/>
<text text-anchor="middle" x="2122.7635" y="-432.5" font-family="Helvetica,sans-Serif" font-size="10.00" fill="#000000">sitkExceptionObject.h</text>
</a>
</g>
</g>
<!-- Node1&#45;&gt;Node342 -->
<g id="edge108" class="edge">
<title>Node1&#45;&gt;Node342</title>
<path fill="none" stroke="#191970" d="M2235.0841,-477.7888C2208.2437,-467.5639 2171.7166,-453.6488 2147.704,-444.5011"/>
<polygon fill="#191970" stroke="#191970" points="2233.9024,-481.0839 2244.4933,-481.3733 2236.3945,-474.5425 2233.9024,-481.0839"/>
</g>
<!-- Node343 -->
<g id="node45" class="node">
<title>Node343</title>
<g id="a_node45"><a xlink:href="sitkPixelIDValues_8h.html" target="_top" xlink:title=" ">
<polygon fill="#ffffff" stroke="#000000" points="1256.7635,-425.5 1256.7635,-444.5 1366.7635,-444.5 1366.7635,-425.5 1256.7635,-425.5"/>
<text text-anchor="middle" x="1311.7635" y="-432.5" font-family="Helvetica,sans-Serif" font-size="10.00" fill="#000000">sitkPixelIDValues.h</text>
</a>
</g>
</g>
<!-- Node1&#45;&gt;Node343 -->
<g id="edge111" class="edge">
<title>Node1&#45;&gt;Node343</title>
<path fill="none" stroke="#191970" d="M2215.3651,-487.8201C2047.0777,-477.9829 1536.1093,-448.1142 1366.8678,-438.2211"/>
<polygon fill="#191970" stroke="#191970" points="2215.2913,-491.3217 2225.4785,-488.4113 2215.6999,-484.3336 2215.2913,-491.3217"/>
</g>
<!-- Node345 -->
<g id="node47" class="node">
<title>Node345</title>
<g id="a_node47"><a xlink:href="sitkInterpolator_8h.html" target="_top" xlink:title=" ">
<polygon fill="#ffffff" stroke="#000000" points="1984.7635,-252 1984.7635,-271 2084.7635,-271 2084.7635,-252 1984.7635,-252"/>
<text text-anchor="middle" x="2034.7635" y="-259" font-family="Helvetica,sans-Serif" font-size="10.00" fill="#000000">sitkInterpolator.h</text>
</a>
</g>
</g>
<!-- Node1&#45;&gt;Node345 -->
<g id="edge121" class="edge">
<title>Node1&#45;&gt;Node345</title>
<path fill="none" stroke="#191970" d="M2215.3368,-486.7859C2157.9874,-481.1341 2073.0594,-468.9113 2051.7635,-445 2006.6525,-394.3487 2024.5982,-301.746 2032.0996,-271.4101"/>
<polygon fill="#191970" stroke="#191970" points="2215.0633,-490.2756 2225.3488,-487.734 2215.7233,-483.3068 2215.0633,-490.2756"/>
</g>
<!-- Node346 -->
<g id="node48" class="node">
<title>Node346</title>
<g id="a_node48"><a xlink:href="sitkEvent_8h.html" target="_top" xlink:title=" ">
<polygon fill="#ffffff" stroke="#000000" points="1619.2635,-252 1619.2635,-271 1690.2635,-271 1690.2635,-252 1619.2635,-252"/>
<text text-anchor="middle" x="1654.7635" y="-259" font-family="Helvetica,sans-Serif" font-size="10.00" fill="#000000">sitkEvent.h</text>
</a>
</g>
</g>
<!-- Node1&#45;&gt;Node346 -->
<g id="edge138" class="edge">
<title>Node1&#45;&gt;Node346</title>
<path fill="none" stroke="#191970" d="M2215.4029,-488.8263C2153.9507,-484.9815 2051.673,-474.3522 1968.7635,-445 1841.3903,-399.9064 1707.5487,-301.9754 1667.0603,-271.0556"/>
<polygon fill="#191970" stroke="#191970" points="2215.4586,-492.3355 2225.6466,-489.4278 2215.869,-485.3476 2215.4586,-492.3355"/>
</g>
<!-- Node347 -->
<g id="node49" class="node">
<title>Node347</title>
<g id="a_node49"><a xlink:href="sitkRandomSeed_8h.html" target="_top" xlink:title=" ">
<polygon fill="#ffffff" stroke="#000000" points="1708.7635,-252 1708.7635,-271 1816.7635,-271 1816.7635,-252 1708.7635,-252"/>
<text text-anchor="middle" x="1762.7635" y="-259" font-family="Helvetica,sans-Serif" font-size="10.00" fill="#000000">sitkRandomSeed.h</text>
</a>
</g>
</g>
<!-- Node1&#45;&gt;Node347 -->
<g id="edge141" class="edge">
<title>Node1&#45;&gt;Node347</title>
<path fill="none" stroke="#191970" d="M2215.6306,-484.405C2150.6555,-475.9728 2045.9248,-460.5893 2009.7635,-445 1904.7832,-399.7423 1802.7154,-301.9216 1772.05,-271.0423"/>
<polygon fill="#191970" stroke="#191970" points="2215.3365,-487.8959 2225.7007,-485.6976 2216.2277,-480.9529 2215.3365,-487.8959"/>
</g>
<!-- Node348 -->
<g id="node50" class="node">
<title>Node348</title>
<g id="a_node50"><a xlink:href="sitkKernel_8h.html" target="_top" xlink:title=" ">
<polygon fill="#ffffff" stroke="#ff0000" points="1630.7635,-369.5 1630.7635,-388.5 1704.7635,-388.5 1704.7635,-369.5 1630.7635,-369.5"/>
<text text-anchor="middle" x="1667.7635" y="-376.5" font-family="Helvetica,sans-Serif" font-size="10.00" fill="#000000">sitkKernel.h</text>
</a>
</g>
</g>
<!-- Node1&#45;&gt;Node348 -->
<g id="edge147" class="edge">
<title>Node1&#45;&gt;Node348</title>
<path fill="none" stroke="#191970" d="M2215.4245,-490.0223C2100.3674,-487.33 1835.9029,-477.6764 1752.7635,-445 1720.769,-432.4251 1690.8554,-403.8309 1676.5599,-388.7414"/>
<polygon fill="#191970" stroke="#191970" points="2215.3485,-493.5214 2225.4248,-490.2475 2215.5061,-486.5232 2215.3485,-493.5214"/>
</g>
<!-- Node3 -->
<g id="node3" class="node">
<title>Node3</title>
<g id="a_node3"><a xlink:href="sitkMemberFunctionFactoryBase_8h.html" target="_top" xlink:title=" ">
<polygon fill="#ffffff" stroke="#ff0000" points="1412.7635,-246.5 1412.7635,-276.5 1562.7635,-276.5 1562.7635,-246.5 1412.7635,-246.5"/>
<text text-anchor="start" x="1420.7635" y="-264.5" font-family="Helvetica,sans-Serif" font-size="10.00" fill="#000000">sitkMemberFunctionFactory</text>
<text text-anchor="middle" x="1487.7635" y="-253.5" font-family="Helvetica,sans-Serif" font-size="10.00" fill="#000000">Base.h</text>
</a>
</g>
</g>
<!-- Node2&#45;&gt;Node3 -->
<g id="edge2" class="edge">
<title>Node2&#45;&gt;Node3</title>
<path fill="none" stroke="#191970" d="M1494.5715,-303.3693C1493.1588,-294.681 1491.5235,-284.6241 1490.2098,-276.5446"/>
<polygon fill="#191970" stroke="#191970" points="1491.1414,-304.082 1496.201,-313.3906 1498.0506,-302.9585 1491.1414,-304.082"/>
</g>
<!-- Node2&#45;&gt;Node325 -->
<g id="edge27" class="edge">
<title>Node2&#45;&gt;Node325</title>
<path fill="none" stroke="#191970" d="M1445.1426,-311.2413C1374.6312,-295.6216 1245.5243,-267.5012 1134.7635,-246 1064.5278,-232.3656 983.3186,-218.3227 930.3812,-209.398"/>
<polygon fill="#191970" stroke="#191970" points="1444.5909,-314.7039 1455.1116,-313.4528 1446.107,-307.8701 1444.5909,-314.7039"/>
</g>
<!-- Node2&#45;&gt;Node337 -->
<g id="edge44" class="edge">
<title>Node2&#45;&gt;Node337</title>
<path fill="none" stroke="#191970" d="M1562.8727,-317.1197C1635.4503,-310.0052 1756.1207,-296.5048 1858.7635,-277 1867.4587,-275.3477 1876.7583,-273.1893 1885.4094,-271.0104"/>
<polygon fill="#191970" stroke="#191970" points="1562.137,-313.6745 1552.5213,-318.123 1562.8124,-320.6419 1562.137,-313.6745"/>
</g>
<!-- Node336 -->
<g id="node4" class="node">
<title>Node336</title>
<g id="a_node4"><a xlink:href="sitkMemberFunctionFactory_8h.html" target="_top" xlink:title=" ">
<polygon fill="#ffffff" stroke="#000000" points="996.7635,-190.5 996.7635,-209.5 1154.7635,-209.5 1154.7635,-190.5 996.7635,-190.5"/>
<text text-anchor="middle" x="1075.7635" y="-197.5" font-family="Helvetica,sans-Serif" font-size="10.00" fill="#000000">sitkMemberFunctionFactory.h</text>
</a>
</g>
</g>
<!-- Node3&#45;&gt;Node336 -->
<g id="edge3" class="edge">
<title>Node3&#45;&gt;Node336</title>
<path fill="none" stroke="#191970" d="M1402.5816,-246.6084C1401.3004,-246.4029 1400.027,-246.1999 1398.7635,-246 1312.3269,-232.3216 1212.5753,-218.3989 1147.0633,-209.5088"/>
<polygon fill="#191970" stroke="#191970" points="1402.0953,-250.0753 1412.5279,-248.2286 1403.2207,-243.1663 1402.0953,-250.0753"/>
</g>
<!-- Node12 -->
<g id="node5" class="node">
<title>Node12</title>
<g id="a_node5"><a xlink:href="sitkImageFilter_8h.html" target="_top" xlink:title=" ">
<polygon fill="#ffffff" stroke="#ff0000" points="1053.7635,-129 1053.7635,-148 1151.7635,-148 1151.7635,-129 1053.7635,-129"/>
<text text-anchor="middle" x="1102.7635" y="-136" font-family="Helvetica,sans-Serif" font-size="10.00" fill="#000000">sitkImageFilter.h</text>
</a>
</g>
</g>
<!-- Node336&#45;&gt;Node12 -->
<g id="edge4" class="edge">
<title>Node336&#45;&gt;Node12</title>
<path fill="none" stroke="#191970" d="M1084.1406,-180.9189C1088.8947,-170.0901 1094.644,-156.9944 1098.4853,-148.2449"/>
<polygon fill="#191970" stroke="#191970" points="1080.7975,-179.8272 1079.9823,-190.3906 1087.207,-182.6412 1080.7975,-179.8272"/>
</g>
<!-- Node8 -->
<g id="node8" class="node">
<title>Node8</title>
<g id="a_node8"><a xlink:href="sitkHashImageFilter_8h.html" target="_top" xlink:title=" ">
<polygon fill="#ffffff" stroke="#000000" points="1003.7635,-62 1003.7635,-81 1125.7635,-81 1125.7635,-62 1003.7635,-62"/>
<text text-anchor="middle" x="1064.7635" y="-69" font-family="Helvetica,sans-Serif" font-size="10.00" fill="#000000">sitkHashImageFilter.h</text>
</a>
</g>
</g>
<!-- Node336&#45;&gt;Node8 -->
<g id="edge14" class="edge">
<title>Node336&#45;&gt;Node8</title>
<path fill="none" stroke="#191970" d="M1060.3023,-182.4201C1054.2001,-174.3418 1047.9044,-164.2808 1044.7635,-154 1036.8404,-128.0658 1050.6388,-96.7924 1059.0271,-81.2525"/>
<polygon fill="#191970" stroke="#191970" points="1057.6819,-184.7461 1066.6894,-190.3243 1063.1265,-180.3465 1057.6819,-184.7461"/>
</g>
<!-- Node309 -->
<g id="node9" class="node">
<title>Node309</title>
<g id="a_node9"><a xlink:href="sitkCenteredTransformInitializerFilter_8h.html" target="_top" xlink:title=" ">
<polygon fill="#ffffff" stroke="#000000" points="1170.2635,-123.5 1170.2635,-153.5 1343.2635,-153.5 1343.2635,-123.5 1170.2635,-123.5"/>
<text text-anchor="start" x="1178.2635" y="-141.5" font-family="Helvetica,sans-Serif" font-size="10.00" fill="#000000">sitkCenteredTransformInitializer</text>
<text text-anchor="middle" x="1256.7635" y="-130.5" font-family="Helvetica,sans-Serif" font-size="10.00" fill="#000000">Filter.h</text>
</a>
</g>
</g>
<!-- Node336&#45;&gt;Node309 -->
<g id="edge10" class="edge">
<title>Node336&#45;&gt;Node309</title>
<path fill="none" stroke="#191970" d="M1113.7501,-187.0929C1142.563,-177.303 1182.2341,-163.8235 1212.4859,-153.5446"/>
<polygon fill="#191970" stroke="#191970" points="1112.3871,-183.8595 1104.0448,-190.3906 1114.6392,-190.4873 1112.3871,-183.8595"/>
</g>
<!-- Node310 -->
<g id="node10" class="node">
<title>Node310</title>
<g id="a_node10"><a xlink:href="sitkCenteredVersorTransformInitializerFilter_8h.html" target="_top" xlink:title=" ">
<polygon fill="#ffffff" stroke="#000000" points="1361.7635,-123.5 1361.7635,-153.5 1519.7635,-153.5 1519.7635,-123.5 1361.7635,-123.5"/>
<text text-anchor="start" x="1369.7635" y="-141.5" font-family="Helvetica,sans-Serif" font-size="10.00" fill="#000000">sitkCenteredVersorTransform</text>
<text text-anchor="middle" x="1440.7635" y="-130.5" font-family="Helvetica,sans-Serif" font-size="10.00" fill="#000000">InitializerFilter.h</text>
</a>
</g>
</g>
<!-- Node336&#45;&gt;Node310 -->
<g id="edge12" class="edge">
<title>Node336&#45;&gt;Node310</title>
<path fill="none" stroke="#191970" d="M1143.8004,-188.8021C1199.6776,-179.5715 1280.873,-166.0804 1351.7635,-154 1355.0104,-153.4467 1358.3234,-152.8799 1361.6699,-152.3055"/>
<polygon fill="#191970" stroke="#191970" points="1142.9659,-185.3924 1133.6697,-190.4748 1144.1063,-192.2989 1142.9659,-185.3924"/>
</g>
<!-- Node327 -->
<g id="node11" class="node">
<title>Node327</title>
<g id="a_node11"><a xlink:href="sitkImageFileReader_8h.html" target="_top" xlink:title=" ">
<polygon fill="#ffffff" stroke="#000000" points="277.7635,-62 277.7635,-81 401.7635,-81 401.7635,-62 277.7635,-62"/>
<text text-anchor="middle" x="339.7635" y="-69" font-family="Helvetica,sans-Serif" font-size="10.00" fill="#000000">sitkImageFileReader.h</text>
</a>
</g>
</g>
<!-- Node336&#45;&gt;Node327 -->
<g id="edge15" class="edge">
<title>Node336&#45;&gt;Node327</title>
<path fill="none" stroke="#191970" d="M986.3461,-189.8479C922.1865,-181.5504 841.9479,-168.8008 811.7635,-154 793.4028,-144.9969 796.4467,-131.3134 777.7635,-123 628.4285,-56.5508 573.2546,-112.2407 411.7635,-87 401.4045,-85.3809 390.2945,-83.2087 379.9775,-81.0039"/>
<polygon fill="#191970" stroke="#191970" points="986.133,-193.349 996.4952,-191.141 987.0178,-186.4051 986.133,-193.349"/>
</g>
<!-- Node330 -->
<g id="node12" class="node">
<title>Node330</title>
<g id="a_node12"><a xlink:href="sitkImageFileWriter_8h.html" target="_top" xlink:title=" ">
<polygon fill="#ffffff" stroke="#000000" points="499.2635,-129 499.2635,-148 618.2635,-148 618.2635,-129 499.2635,-129"/>
<text text-anchor="middle" x="558.7635" y="-136" font-family="Helvetica,sans-Serif" font-size="10.00" fill="#000000">sitkImageFileWriter.h</text>
</a>
</g>
</g>
<!-- Node336&#45;&gt;Node330 -->
<g id="edge17" class="edge">
<title>Node336&#45;&gt;Node330</title>
<path fill="none" stroke="#191970" d="M986.5151,-192.1585C875.8924,-182.2113 693.7758,-165.0279 626.7635,-154 616.9664,-152.3877 606.4688,-150.218 596.7246,-148.0134"/>
<polygon fill="#191970" stroke="#191970" points="986.3881,-195.661 996.6608,-193.0685 987.0135,-188.689 986.3881,-195.661"/>
</g>
<!-- Node328 -->
<g id="node13" class="node">
<title>Node328</title>
<g id="a_node13"><a xlink:href="sitkImageSeriesReader_8h.html" target="_top" xlink:title=" ">
<polygon fill="#ffffff" stroke="#000000" points="582.2635,-62 582.2635,-81 719.2635,-81 719.2635,-62 582.2635,-62"/>
<text text-anchor="middle" x="650.7635" y="-69" font-family="Helvetica,sans-Serif" font-size="10.00" fill="#000000">sitkImageSeriesReader.h</text>
</a>
</g>
</g>
<!-- Node336&#45;&gt;Node328 -->
<g id="edge19" class="edge">
<title>Node336&#45;&gt;Node328</title>
<path fill="none" stroke="#191970" d="M1052.1107,-185.1129C1023.3299,-167.6588 972.7469,-139.0769 925.7635,-123 857.5174,-99.6474 775.9125,-86.0582 719.4113,-78.7633"/>
<polygon fill="#191970" stroke="#191970" points="1050.3033,-188.1103 1060.6568,-190.3589 1053.9654,-182.1446 1050.3033,-188.1103"/>
</g>
<!-- Node331 -->
<g id="node14" class="node">
<title>Node331</title>
<g id="a_node14"><a xlink:href="sitkImageSeriesWriter_8h.html" target="_top" xlink:title=" ">
<polygon fill="#ffffff" stroke="#000000" points="636.2635,-129 636.2635,-148 769.2635,-148 769.2635,-129 636.2635,-129"/>
<text text-anchor="middle" x="702.7635" y="-136" font-family="Helvetica,sans-Serif" font-size="10.00" fill="#000000">sitkImageSeriesWriter.h</text>
</a>
</g>
</g>
<!-- Node336&#45;&gt;Node331 -->
<g id="edge21" class="edge">
<title>Node336&#45;&gt;Node331</title>
<path fill="none" stroke="#191970" d="M1001.3034,-188.959C942.2299,-180.0335 857.6018,-166.8772 783.7635,-154 773.185,-152.1551 761.8525,-150.0608 751.1158,-148.0217"/>
<polygon fill="#191970" stroke="#191970" points="1000.8822,-192.435 1011.2922,-190.4647 1001.9256,-185.5132 1000.8822,-192.435"/>
</g>
<!-- Node329 -->
<g id="node15" class="node">
<title>Node329</title>
<g id="a_node15"><a xlink:href="sitkImportImageFilter_8h.html" target="_top" xlink:title=" ">
<polygon fill="#ffffff" stroke="#000000" points="420.7635,-62 420.7635,-81 550.7635,-81 550.7635,-62 420.7635,-62"/>
<text text-anchor="middle" x="485.7635" y="-69" font-family="Helvetica,sans-Serif" font-size="10.00" fill="#000000">sitkImportImageFilter.h</text>
</a>
</g>
</g>
<!-- Node336&#45;&gt;Node329 -->
<g id="edge23" class="edge">
<title>Node336&#45;&gt;Node329</title>
<path fill="none" stroke="#191970" d="M1035.1931,-187.4409C972.4656,-168.1468 854.695,-132.4494 811.7635,-123 706.8542,-99.9091 678.7618,-104.4223 572.7635,-87 561.5608,-85.1587 549.5651,-83.0867 538.1711,-81.0713"/>
<polygon fill="#191970" stroke="#191970" points="1034.1807,-190.7913 1044.768,-190.3901 1036.2413,-184.1014 1034.1807,-190.7913"/>
</g>
<!-- Node324 -->
<g id="node16" class="node">
<title>Node324</title>
<g id="a_node16"><a xlink:href="sitkImageRegistrationMethod_8h.html" target="_top" xlink:title=" ">
<polygon fill="#ffffff" stroke="#000000" points="1537.2635,-129 1537.2635,-148 1706.2635,-148 1706.2635,-129 1537.2635,-129"/>
<text text-anchor="middle" x="1621.7635" y="-136" font-family="Helvetica,sans-Serif" font-size="10.00" fill="#000000">sitkImageRegistrationMethod.h</text>
</a>
</g>
</g>
<!-- Node336&#45;&gt;Node324 -->
<g id="edge25" class="edge">
<title>Node336&#45;&gt;Node324</title>
<path fill="none" stroke="#191970" d="M1164.9201,-190.3998C1166.2098,-190.2653 1167.4915,-190.132 1168.7635,-190 1328.7028,-173.4044 1369.373,-175.2289 1528.7635,-154 1541.5815,-152.2928 1555.3448,-150.1632 1568.2493,-148.0345"/>
<polygon fill="#191970" stroke="#191970" points="1164.4876,-186.9258 1154.9071,-191.4494 1165.2175,-193.8877 1164.4876,-186.9258"/>
</g>
<!-- Node11 -->
<g id="node6" class="node">
<title>Node11</title>
<g id="a_node6"><a xlink:href="sitkBSplineTransformInitializerFilter_8h.html" target="_top" xlink:title=" ">
<polygon fill="#ffffff" stroke="#000000" points="1615.7635,-56.5 1615.7635,-86.5 1781.7635,-86.5 1781.7635,-56.5 1615.7635,-56.5"/>
<text text-anchor="start" x="1623.7635" y="-74.5" font-family="Helvetica,sans-Serif" font-size="10.00" fill="#000000">sitkBSplineTransformInitializer</text>
<text text-anchor="middle" x="1698.7635" y="-63.5" font-family="Helvetica,sans-Serif" font-size="10.00" fill="#000000">Filter.h</text>
</a>
</g>
</g>
<!-- Node12&#45;&gt;Node11 -->
<g id="edge5" class="edge">
<title>Node12&#45;&gt;Node11</title>
<path fill="none" stroke="#191970" d="M1144.8444,-126.3819C1150.1734,-125.1054 1155.5754,-123.9349 1160.7635,-123 1320.2851,-94.2542 1509.4993,-80.8529 1615.6927,-75.1767"/>
<polygon fill="#191970" stroke="#191970" points="1143.5979,-123.087 1134.7622,-128.9334 1145.3153,-129.8731 1143.5979,-123.087"/>
</g>
<!-- Node5 -->
<g id="node7" class="node">
<title>Node5</title>
<g id="a_node7"><a xlink:href="SimpleITK_8h.html" target="_top" xlink:title=" ">
<polygon fill="#ffffff" stroke="#000000" points="1952.2635,-.5 1952.2635,-19.5 2027.2635,-19.5 2027.2635,-.5 1952.2635,-.5"/>
<text text-anchor="middle" x="1989.7635" y="-7.5" font-family="Helvetica,sans-Serif" font-size="10.00" fill="#000000">SimpleITK.h</text>
</a>
</g>
</g>
<!-- Node12&#45;&gt;Node5 -->
<g id="edge9" class="edge">
<title>Node12&#45;&gt;Node5</title>
<path fill="none" stroke="#191970" d="M1139.9702,-125.6558C1195.702,-106.9932 1304.5024,-72.7819 1399.7635,-56 1606.1775,-19.6367 1858.275,-12.0169 1952.173,-10.4218"/>
<polygon fill="#191970" stroke="#191970" points="1138.5538,-122.4397 1130.1966,-128.9518 1140.7908,-129.0727 1138.5538,-122.4397"/>
</g>
<!-- Node12&#45;&gt;Node8 -->
<g id="edge7" class="edge">
<title>Node12&#45;&gt;Node8</title>
<path fill="none" stroke="#191970" d="M1092.3333,-120.1099C1085.1698,-107.4795 1075.9503,-91.2241 1070.1979,-81.0817"/>
<polygon fill="#191970" stroke="#191970" points="1089.3412,-121.9289 1097.3191,-128.9005 1095.43,-118.4754 1089.3412,-121.9289"/>
</g>
<!-- Node11&#45;&gt;Node5 -->
<g id="edge6" class="edge">
<title>Node11&#45;&gt;Node5</title>
<path fill="none" stroke="#191970" d="M1779.9226,-54.3478C1836.3109,-42.4307 1908.8433,-27.1017 1952.1884,-17.9411"/>
<polygon fill="#191970" stroke="#191970" points="1779.0103,-50.9632 1769.9501,-56.4554 1780.4578,-57.812 1779.0103,-50.9632"/>
</g>
<!-- Node8&#45;&gt;Node5 -->
<g id="edge8" class="edge">
<title>Node8&#45;&gt;Node5</title>
<path fill="none" stroke="#191970" d="M1123.1542,-60.209C1133.0084,-58.5928 1143.1556,-57.1062 1152.7635,-56 1459.9891,-20.6291 1833.8901,-12.284 1952.0873,-10.4693"/>
<polygon fill="#191970" stroke="#191970" points="1122.2987,-56.8041 1113.0262,-61.9297 1123.4712,-63.7053 1122.2987,-56.8041"/>
</g>
<!-- Node309&#45;&gt;Node5 -->
<g id="edge11" class="edge">
<title>Node309&#45;&gt;Node5</title>
<path fill="none" stroke="#191970" d="M1305.6075,-119.9121C1358.0086,-100.761 1444.0599,-71.5747 1520.7635,-56 1678.915,-23.8873 1871.7896,-13.9514 1951.9867,-11.0822"/>
<polygon fill="#191970" stroke="#191970" points="1304.0818,-116.7441 1295.9068,-123.4835 1306.5002,-123.313 1304.0818,-116.7441"/>
</g>
<!-- Node310&#45;&gt;Node5 -->
<g id="edge13" class="edge">
<title>Node310&#45;&gt;Node5</title>
<path fill="none" stroke="#191970" d="M1471.2638,-117.6754C1501.2815,-98.2935 1549.1267,-70.3109 1594.7635,-56 1660.9697,-35.2389 1866.7173,-18.7216 1952.0685,-12.5826"/>
<polygon fill="#191970" stroke="#191970" points="1468.9888,-114.9816 1462.5425,-123.3896 1472.8251,-120.8367 1468.9888,-114.9816"/>
</g>
<!-- Node327&#45;&gt;Node5 -->
<g id="edge16" class="edge">
<title>Node327&#45;&gt;Node5</title>
<path fill="none" stroke="#191970" d="M387.6296,-59.9206C395.6458,-58.3489 403.9094,-56.9518 411.7635,-56 723.8102,-18.1862 1743.5043,-11.2052 1952.2333,-10.1621"/>
<polygon fill="#191970" stroke="#191970" points="386.7405,-56.5303 377.6573,-61.9843 388.1591,-63.3851 386.7405,-56.5303"/>
</g>
<!-- Node330&#45;&gt;Node5 -->
<g id="edge18" class="edge">
<title>Node330&#45;&gt;Node5</title>
<path fill="none" stroke="#191970" d="M605.0782,-126.2871C647.2753,-114.8168 706.1986,-97.841 727.7635,-87 748.4923,-76.5794 747.866,-63.6663 769.7635,-56 883.5422,-16.1662 1758.577,-10.8028 1951.9989,-10.1023"/>
<polygon fill="#191970" stroke="#191970" points="604.0213,-122.947 595.2799,-128.9336 605.8466,-129.7049 604.0213,-122.947"/>
</g>
<!-- Node328&#45;&gt;Node5 -->
<g id="edge20" class="edge">
<title>Node328&#45;&gt;Node5</title>
<path fill="none" stroke="#191970" d="M709.1025,-60.2849C719.6084,-58.5989 730.486,-57.0694 740.7635,-56 984.5076,-30.6374 1770.4706,-14.2201 1952.073,-10.7074"/>
<polygon fill="#191970" stroke="#191970" points="708.4638,-56.8429 699.1753,-61.9394 709.6146,-63.7477 708.4638,-56.8429"/>
</g>
<!-- Node331&#45;&gt;Node5 -->
<g id="edge22" class="edge">
<title>Node331&#45;&gt;Node5</title>
<path fill="none" stroke="#191970" d="M722.589,-122.6961C750.5048,-100.8116 800.3739,-63.1544 821.7635,-56 930.9215,-19.4889 1763.9536,-11.5637 1952.0881,-10.233"/>
<polygon fill="#191970" stroke="#191970" points="720.3697,-119.9889 714.6861,-128.9303 724.7051,-125.4848 720.3697,-119.9889"/>
</g>
<!-- Node329&#45;&gt;Node5 -->
<g id="edge24" class="edge">
<title>Node329&#45;&gt;Node5</title>
<path fill="none" stroke="#191970" d="M542.1058,-60.2448C552.2745,-58.5613 562.8074,-57.043 572.7635,-56 851.526,-26.7963 1755.8064,-13.1468 1951.9893,-10.49"/>
<polygon fill="#191970" stroke="#191970" points="541.3528,-56.823 532.0933,-61.9719 542.5427,-63.7211 541.3528,-56.823"/>
</g>
<!-- Node324&#45;&gt;Node5 -->
<g id="edge26" class="edge">
<title>Node324&#45;&gt;Node5</title>
<path fill="none" stroke="#191970" d="M1610.5333,-119.8191C1601.0553,-101.3671 1591.2865,-73.4471 1606.7635,-56 1629.4847,-30.3866 1860.3077,-16.3408 1952.2583,-11.7261"/>
<polygon fill="#191970" stroke="#191970" points="1607.5626,-121.6796 1615.467,-128.7346 1613.6874,-118.2902 1607.5626,-121.6796"/>
</g>
<!-- Node325&#45;&gt;Node12 -->
<g id="edge28" class="edge">
<title>Node325&#45;&gt;Node12</title>
<path fill="none" stroke="#191970" d="M919.3002,-187.7707C962.7868,-176.092 1027.4253,-158.7328 1067.2335,-148.0419"/>
<polygon fill="#191970" stroke="#191970" points="918.2948,-184.4166 909.5448,-190.3906 920.1104,-191.1771 918.2948,-184.4166"/>
</g>
<!-- Node325&#45;&gt;Node5 -->
<g id="edge32" class="edge">
<title>Node325&#45;&gt;Node5</title>
<path fill="none" stroke="#191970" d="M882.346,-181.3808C898.7178,-148.4641 937.9138,-81.1016 994.7635,-56 1083.5,-16.8191 1781.0373,-10.9828 1952.0239,-10.1388"/>
<polygon fill="#191970" stroke="#191970" points="879.1857,-179.8769 878.0036,-190.4056 885.4935,-182.912 879.1857,-179.8769"/>
</g>
<!-- Node325&#45;&gt;Node8 -->
<g id="edge31" class="edge">
<title>Node325&#45;&gt;Node8</title>
<path fill="none" stroke="#191970" d="M892.9743,-183.8965C912.6764,-167.6991 944.4949,-142.4104 973.7635,-123 997.9693,-106.9471 1027.4648,-90.8432 1046.1824,-81.0226"/>
<polygon fill="#191970" stroke="#191970" points="890.5406,-181.3675 885.0711,-190.4414 895.0054,-186.7588 890.5406,-181.3675"/>
</g>
<!-- Node325&#45;&gt;Node309 -->
<g id="edge29" class="edge">
<title>Node325&#45;&gt;Node309</title>
<path fill="none" stroke="#191970" d="M940.562,-189.3159C998.7309,-180.0067 1085.3288,-166.1351 1160.7635,-154 1163.8471,-153.5039 1166.9864,-152.9986 1170.1572,-152.488"/>
<polygon fill="#191970" stroke="#191970" points="939.7217,-185.9058 930.4004,-190.942 940.8278,-192.8178 939.7217,-185.9058"/>
</g>
<!-- Node325&#45;&gt;Node310 -->
<g id="edge30" class="edge">
<title>Node325&#45;&gt;Node310</title>
<path fill="none" stroke="#191970" d="M940.3628,-193.8765C1062.1698,-182.6347 1312.0351,-159.3631 1351.7635,-154 1355.0276,-153.5594 1358.355,-153.0867 1361.7134,-152.5903"/>
<polygon fill="#191970" stroke="#191970" points="940.0372,-190.3916 930.401,-194.7954 940.6803,-197.362 940.0372,-190.3916"/>
</g>
<!-- Node325&#45;&gt;Node330 -->
<g id="edge37" class="edge">
<title>Node325&#45;&gt;Node330</title>
<path fill="none" stroke="#191970" d="M809.1805,-188.7015C759.2657,-179.793 688.5028,-166.7801 626.7635,-154 617.8708,-152.1592 608.3521,-150.0666 599.3376,-148.0278"/>
<polygon fill="#191970" stroke="#191970" points="808.7317,-192.1765 819.1902,-190.4829 809.9582,-185.2848 808.7317,-192.1765"/>
</g>
<!-- Node325&#45;&gt;Node331 -->
<g id="edge38" class="edge">
<title>Node325&#45;&gt;Node331</title>
<path fill="none" stroke="#191970" d="M837.4792,-186.9504C805.0621,-175.2916 758.3321,-158.4852 729.2947,-148.0419"/>
<polygon fill="#191970" stroke="#191970" points="836.4503,-190.2998 847.0448,-190.3906 838.8194,-183.7128 836.4503,-190.2998"/>
</g>
<!-- Node325&#45;&gt;Node324 -->
<g id="edge43" class="edge">
<title>Node325&#45;&gt;Node324</title>
<path fill="none" stroke="#191970" d="M940.3427,-193.9224C955.8987,-192.5683 972.4078,-191.1843 987.7635,-190 1228.0263,-171.4703 1289.4011,-181.842 1528.7635,-154 1542.2584,-152.4303 1556.7787,-150.2491 1570.2409,-148.018"/>
<polygon fill="#191970" stroke="#191970" points="939.9353,-190.4447 930.2796,-194.8056 940.5473,-197.4179 939.9353,-190.4447"/>
</g>
<!-- Node326 -->
<g id="node18" class="node">
<title>Node326</title>
<g id="a_node18"><a xlink:href="sitkImageReaderBase_8h.html" target="_top" xlink:title=" ">
<polygon fill="#ffffff" stroke="#000000" points="272.7635,-129 272.7635,-148 404.7635,-148 404.7635,-129 272.7635,-129"/>
<text text-anchor="middle" x="338.7635" y="-136" font-family="Helvetica,sans-Serif" font-size="10.00" fill="#000000">sitkImageReaderBase.h</text>
</a>
</g>
</g>
<!-- Node325&#45;&gt;Node326 -->
<g id="edge33" class="edge">
<title>Node325&#45;&gt;Node326</title>
<path fill="none" stroke="#191970" d="M807.0449,-192.3305C704.0531,-180.4912 507.5357,-157.9009 404.8985,-146.1024"/>
<polygon fill="#191970" stroke="#191970" points="806.6813,-195.8116 817.0157,-193.4766 807.4808,-188.8574 806.6813,-195.8116"/>
</g>
<!-- Node332 -->
<g id="node19" class="node">
<title>Node332</title>
<g id="a_node19"><a xlink:href="sitkImageViewer_8h.html" target="_top" xlink:title=" ">
<polygon fill="#ffffff" stroke="#000000" points="22.2635,-129 22.2635,-148 129.2635,-148 129.2635,-129 22.2635,-129"/>
<text text-anchor="middle" x="75.7635" y="-136" font-family="Helvetica,sans-Serif" font-size="10.00" fill="#000000">sitkImageViewer.h</text>
</a>
</g>
</g>
<!-- Node325&#45;&gt;Node332 -->
<g id="edge39" class="edge">
<title>Node325&#45;&gt;Node332</title>
<path fill="none" stroke="#191970" d="M806.6386,-197.3757C650.3243,-191.0101 265.6138,-173.8066 137.7635,-154 128.4438,-152.5562 118.4778,-150.3624 109.3221,-148.0758"/>
<polygon fill="#191970" stroke="#191970" points="806.9124,-200.8896 817.0458,-197.7973 807.1957,-193.8953 806.9124,-200.8896"/>
</g>
<!-- Node333 -->
<g id="node20" class="node">
<title>Node333</title>
<g id="a_node20"><a xlink:href="sitkShow_8h.html" target="_top" xlink:title=" ">
<polygon fill="#ffffff" stroke="#000000" points="147.2635,-129 147.2635,-148 216.2635,-148 216.2635,-129 147.2635,-129"/>
<text text-anchor="middle" x="181.7635" y="-136" font-family="Helvetica,sans-Serif" font-size="10.00" fill="#000000">sitkShow.h</text>
</a>
</g>
</g>
<!-- Node325&#45;&gt;Node333 -->
<g id="edge41" class="edge">
<title>Node325&#45;&gt;Node333</title>
<path fill="none" stroke="#191970" d="M807.0289,-197.4061C694.5679,-192.4899 460.3162,-179.9055 263.7635,-154 248.1068,-151.9365 230.917,-148.8202 216.338,-145.9217"/>
<polygon fill="#191970" stroke="#191970" points="807.0591,-200.9105 817.2005,-197.8443 807.3604,-193.917 807.0591,-200.9105"/>
</g>
<!-- Node326&#45;&gt;Node327 -->
<g id="edge34" class="edge">
<title>Node326&#45;&gt;Node327</title>
<path fill="none" stroke="#191970" d="M339.0604,-118.6079C339.2454,-106.214 339.4751,-90.8263 339.6205,-81.0817"/>
<polygon fill="#191970" stroke="#191970" points="335.5565,-118.8494 338.9068,-128.9005 342.5557,-118.9539 335.5565,-118.8494"/>
</g>
<!-- Node326&#45;&gt;Node328 -->
<g id="edge35" class="edge">
<title>Node326&#45;&gt;Node328</title>
<path fill="none" stroke="#191970" d="M393.2544,-126.7984C453.7328,-113.8111 550.1854,-93.0985 606.2936,-81.0496"/>
<polygon fill="#191970" stroke="#191970" points="392.1764,-123.4501 383.1342,-128.9717 393.6462,-130.294 392.1764,-123.4501"/>
</g>
<!-- Node326&#45;&gt;Node329 -->
<g id="edge36" class="edge">
<title>Node326&#45;&gt;Node329</title>
<path fill="none" stroke="#191970" d="M368.9482,-124.7424C397.5144,-111.7224 439.6522,-92.5167 464.7411,-81.0817"/>
<polygon fill="#191970" stroke="#191970" points="367.4729,-121.5683 359.825,-128.9005 370.3761,-127.9379 367.4729,-121.5683"/>
</g>
<!-- Node332&#45;&gt;Node5 -->
<g id="edge40" class="edge">
<title>Node332&#45;&gt;Node5</title>
<path fill="none" stroke="#191970" d="M96.0981,-122.7923C123.2307,-102.8876 173.5857,-69.5428 222.7635,-56 308.9793,-32.2575 1703.4974,-13.6104 1952.0247,-10.4675"/>
<polygon fill="#191970" stroke="#191970" points="93.7357,-120.1884 87.8221,-128.9793 97.9271,-125.7949 93.7357,-120.1884"/>
</g>
<!-- Node333&#45;&gt;Node5 -->
<g id="edge42" class="edge">
<title>Node333&#45;&gt;Node5</title>
<path fill="none" stroke="#191970" d="M194.2542,-120.4754C209.2911,-100.4963 236.5784,-69.3349 268.7635,-56 349.1431,-22.6972 1707.4055,-11.9186 1952.1388,-10.243"/>
<polygon fill="#191970" stroke="#191970" points="191.2789,-118.616 188.2338,-128.7638 196.9425,-122.7299 191.2789,-118.616"/>
</g>
<!-- Node337&#45;&gt;Node5 -->
<g id="edge45" class="edge">
<title>Node337&#45;&gt;Node5</title>
<path fill="none" stroke="#191970" d="M1917.6852,-241.859C1915.6942,-212.8547 1916.1909,-158.2103 1942.7635,-123 1965.2783,-93.1667 1998.7769,-118.5828 2018.7635,-87 2032.8188,-64.7898 2011.6882,-34.7285 1998.6904,-19.5758"/>
<polygon fill="#191970" stroke="#191970" points="1914.209,-242.2859 1918.5545,-251.9485 1921.1831,-241.685 1914.209,-242.2859"/>
</g>
<!-- Node338 -->
<g id="node22" class="node">
<title>Node338</title>
<g id="a_node22"><a xlink:href="sitkFunctionCommand_8h.html" target="_top" xlink:title=" ">
<polygon fill="#ffffff" stroke="#000000" points="1875.7635,-62 1875.7635,-81 2009.7635,-81 2009.7635,-62 1875.7635,-62"/>
<text text-anchor="middle" x="1942.7635" y="-69" font-family="Helvetica,sans-Serif" font-size="10.00" fill="#000000">sitkFunctionCommand.h</text>
</a>
</g>
</g>
<!-- Node337&#45;&gt;Node338 -->
<g id="edge46" class="edge">
<title>Node337&#45;&gt;Node338</title>
<path fill="none" stroke="#191970" d="M1886.0544,-247.1C1870.823,-238.6787 1854.3459,-226.429 1845.7635,-210 1841.6478,-202.1213 1842.7742,-198.3712 1845.7635,-190 1862.93,-141.9271 1908.9093,-99.3073 1930.826,-81.002"/>
<polygon fill="#191970" stroke="#191970" points="1884.8017,-250.3914 1895.2954,-251.8518 1888.0028,-244.1662 1884.8017,-250.3914"/>
</g>
<!-- Node338&#45;&gt;Node5 -->
<g id="edge47" class="edge">
<title>Node338&#45;&gt;Node5</title>
<path fill="none" stroke="#191970" d="M1956.3313,-53.7465C1964.7905,-42.6775 1975.3539,-28.8552 1982.3162,-19.7449"/>
<polygon fill="#191970" stroke="#191970" points="1953.3985,-51.8199 1950.1073,-61.8906 1958.9603,-56.0704 1953.3985,-51.8199"/>
</g>
<!-- Node339&#45;&gt;Node5 -->
<g id="edge49" class="edge">
<title>Node339&#45;&gt;Node5</title>
<path fill="none" stroke="#191970" d="M3668.1059,-429.8021C3801.6497,-415.3396 4154.7635,-372.4252 4154.7635,-323 4154.7635,-323 4154.7635,-323 4154.7635,-138.5 4154.7635,-27.4238 2314.8307,-11.9382 2027.3412,-10.1965"/>
<polygon fill="#191970" stroke="#191970" points="3667.6948,-426.3261 3658.1258,-430.8742 3668.4424,-433.286 3667.6948,-426.3261"/>
</g>
<!-- Node6&#45;&gt;Node5 -->
<g id="edge54" class="edge">
<title>Node6&#45;&gt;Node5</title>
<path fill="none" stroke="#191970" d="M655.4211,-322.301C542.3185,-320.0892 259.314,-311.2015 171.7635,-277 80.1285,-241.2029 -39.0815,-206.6093 12.7635,-123 48.0631,-66.0732 82.7457,-72.1057 147.7635,-56 238.4412,-33.5381 1697.6955,-13.7632 1952.0873,-10.478"/>
<polygon fill="#191970" stroke="#191970" points="655.4423,-325.8019 665.5059,-322.4892 655.573,-318.8031 655.4423,-325.8019"/>
</g>
<!-- Node6&#45;&gt;Node8 -->
<g id="edge53" class="edge">
<title>Node6&#45;&gt;Node8</title>
<path fill="none" stroke="#191970" d="M750.1789,-317.5997C786.5866,-311.8102 837.021,-300.1193 875.7635,-277 965.6712,-223.3483 1038.4114,-113.9355 1058.9477,-81.0539"/>
<polygon fill="#191970" stroke="#191970" points="749.2043,-314.2064 739.832,-319.147 750.2397,-321.1295 749.2043,-314.2064"/>
</g>
<!-- Node6&#45;&gt;Node327 -->
<g id="edge96" class="edge">
<title>Node6&#45;&gt;Node327</title>
<path fill="none" stroke="#191970" d="M655.7281,-313.6994C618.743,-305.7553 566.218,-293.0698 521.7635,-277 402.2984,-233.8147 331.5593,-261.4273 263.7635,-154 256.4104,-142.3484 257.3083,-135.172 263.7635,-123 274.3675,-103.0052 296.5912,-89.3467 314.2814,-81.1471"/>
<polygon fill="#191970" stroke="#191970" points="655.2204,-317.1693 665.7281,-315.8131 656.6681,-310.3206 655.2204,-317.1693"/>
</g>
<!-- Node6&#45;&gt;Node330 -->
<g id="edge97" class="edge">
<title>Node6&#45;&gt;Node330</title>
<path fill="none" stroke="#191970" d="M688.8284,-305.1456C658.8643,-266.7541 589.164,-177.4507 566.2282,-148.0641"/>
<polygon fill="#191970" stroke="#191970" points="686.3124,-307.6105 695.2242,-313.3402 691.8306,-303.3036 686.3124,-307.6105"/>
</g>
<!-- Node6&#45;&gt;Node328 -->
<g id="edge98" class="edge">
<title>Node6&#45;&gt;Node328</title>
<path fill="none" stroke="#191970" d="M670.6888,-309.13C620.9208,-285.5937 526.9599,-232.6038 489.7635,-154 483.8702,-141.5462 481.6397,-134.1279 489.7635,-123 502.9576,-104.9269 557.565,-90.1108 599.5635,-81.0848"/>
<polygon fill="#191970" stroke="#191970" points="669.4774,-312.4257 680.0233,-313.4434 672.4138,-306.0714 669.4774,-312.4257"/>
</g>
<!-- Node6&#45;&gt;Node331 -->
<g id="edge99" class="edge">
<title>Node6&#45;&gt;Node331</title>
<path fill="none" stroke="#191970" d="M702.7635,-303.1587C702.7635,-263.7567 702.7635,-176.9547 702.7635,-148.0641"/>
<polygon fill="#191970" stroke="#191970" points="699.2636,-303.3402 702.7635,-313.3402 706.2636,-303.3403 699.2636,-303.3402"/>
</g>
<!-- Node6&#45;&gt;Node329 -->
<g id="edge101" class="edge">
<title>Node6&#45;&gt;Node329</title>
<path fill="none" stroke="#191970" d="M655.6335,-314.2079C627.4746,-307.343 592.0034,-295.7398 564.7635,-277 510.2249,-239.4798 496.4293,-218.318 480.7635,-154 474.5154,-128.3474 479.832,-96.9508 483.3168,-81.3194"/>
<polygon fill="#191970" stroke="#191970" points="655.1164,-317.6807 665.6482,-316.5271 656.6957,-310.8612 655.1164,-317.6807"/>
</g>
<!-- Node6&#45;&gt;Node324 -->
<g id="edge103" class="edge">
<title>Node6&#45;&gt;Node324</title>
<path fill="none" stroke="#191970" d="M750.1164,-316.8278C806.0374,-309.1689 901.7038,-294.9041 982.7635,-277 1123.3323,-245.9519 1154.0386,-220.3321 1294.7635,-190 1397.6248,-167.8291 1424.8656,-170.6496 1528.7635,-154 1540.562,-152.1093 1553.1939,-150.0365 1565.2245,-148.0392"/>
<polygon fill="#191970" stroke="#191970" points="749.5882,-313.3673 740.1498,-318.1804 750.5296,-320.3038 749.5882,-313.3673"/>
</g>
<!-- Node6&#45;&gt;Node325 -->
<g id="edge93" class="edge">
<title>Node6&#45;&gt;Node325</title>
<path fill="none" stroke="#191970" d="M749.8474,-313.8981C788.5608,-305.4964 839.3092,-292.0682 853.7635,-277 871.6429,-258.3613 874.0733,-225.8666 874.0846,-209.7039"/>
<polygon fill="#191970" stroke="#191970" points="748.8496,-310.5317 739.7917,-316.0277 750.2999,-317.3798 748.8496,-310.5317"/>
</g>
<!-- Node6&#45;&gt;Node332 -->
<g id="edge100" class="edge">
<title>Node6&#45;&gt;Node332</title>
<path fill="none" stroke="#191970" d="M655.3963,-320.9585C538.1543,-315.5797 241.1109,-299.8444 202.7635,-277 162.8393,-253.2163 176.7387,-223.7223 144.7635,-190 128.616,-172.9701 106.3225,-157.4586 91.4949,-148.0082"/>
<polygon fill="#191970" stroke="#191970" points="655.3601,-324.4604 665.5084,-321.4171 655.6773,-317.4676 655.3601,-324.4604"/>
</g>
<!-- Node6&#45;&gt;Node333 -->
<g id="edge102" class="edge">
<title>Node6&#45;&gt;Node333</title>
<path fill="none" stroke="#191970" d="M655.3485,-321.2396C542.2776,-316.6408 263.7359,-302.7993 230.7635,-277 189.1828,-244.465 182.8085,-173.9906 181.8918,-148.2041"/>
<polygon fill="#191970" stroke="#191970" points="655.31,-324.7407 665.442,-321.6433 655.5899,-317.7463 655.31,-324.7407"/>
</g>
<!-- Node7 -->
<g id="node25" class="node">
<title>Node7</title>
<g id="a_node25"><a xlink:href="sitkAdditionalProcedures_8h.html" target="_top" xlink:title=" ">
<polygon fill="#ffffff" stroke="#000000" points="1952.2635,-129 1952.2635,-148 2099.2635,-148 2099.2635,-129 1952.2635,-129"/>
<text text-anchor="middle" x="2025.7635" y="-136" font-family="Helvetica,sans-Serif" font-size="10.00" fill="#000000">sitkAdditionalProcedures.h</text>
</a>
</g>
</g>
<!-- Node6&#45;&gt;Node7 -->
<g id="edge51" class="edge">
<title>Node6&#45;&gt;Node7</title>
<path fill="none" stroke="#191970" d="M750.032,-321.8984C956.9384,-316.9696 1774.7968,-296.3364 1825.7635,-277 1846.1421,-269.2685 1846.2173,-258.9302 1863.7635,-246 1915.9353,-207.5535 1980.9744,-166.308 2010.2332,-148.0881"/>
<polygon fill="#191970" stroke="#191970" points="749.715,-318.4048 739.8009,-322.1411 749.8812,-325.4028 749.715,-318.4048"/>
</g>
<!-- Node6&#45;&gt;Node9 -->
<g id="edge55" class="edge">
<title>Node6&#45;&gt;Node9</title>
<path fill="none" stroke="#191970" d="M749.839,-321.4602C926.4389,-315.6803 1566.3529,-294.704 2093.7635,-277 2243.2604,-271.9817 2420.3823,-265.9123 2502.5848,-263.0883"/>
<polygon fill="#191970" stroke="#191970" points="749.7215,-317.9621 739.8414,-321.7874 749.9505,-324.9584 749.7215,-317.9621"/>
</g>
<!-- Node334 -->
<g id="node41" class="node">
<title>Node334</title>
<g id="a_node41"><a xlink:href="sitkImageConvert_8h.html" target="_top" xlink:title=" ">
<polygon fill="#ffffff" stroke="#000000" points="732.2635,-252 732.2635,-271 845.2635,-271 845.2635,-252 732.2635,-252"/>
<text text-anchor="middle" x="788.7635" y="-259" font-family="Helvetica,sans-Serif" font-size="10.00" fill="#000000">sitkImageConvert.h</text>
</a>
</g>
</g>
<!-- Node6&#45;&gt;Node334 -->
<g id="edge94" class="edge">
<title>Node6&#45;&gt;Node334</title>
<path fill="none" stroke="#191970" d="M724.4823,-307.4685C740.5144,-296.0037 761.8239,-280.765 775.4204,-271.0419"/>
<polygon fill="#191970" stroke="#191970" points="722.2993,-304.7268 716.201,-313.3906 726.3711,-310.4207 722.2993,-304.7268"/>
</g>
<!-- Node7&#45;&gt;Node5 -->
<g id="edge52" class="edge">
<title>Node7&#45;&gt;Node5</title>
<path fill="none" stroke="#191970" d="M2039.1894,-120.4572C2050.1917,-103.2977 2062.358,-77.0524 2051.7635,-56 2043.3887,-39.3584 2025.8299,-27.227 2011.5294,-19.6143"/>
<polygon fill="#191970" stroke="#191970" points="2036.1231,-118.7397 2033.3488,-128.9648 2041.8941,-122.7016 2036.1231,-118.7397"/>
</g>
<!-- Node9&#45;&gt;Node5 -->
<g id="edge64" class="edge">
<title>Node9&#45;&gt;Node5</title>
<path fill="none" stroke="#191970" d="M2570.9481,-245.3731C2587.995,-230.926 2606.7592,-209.1285 2594.7635,-190 2522.1054,-74.138 2448.6174,-95.7551 2317.7635,-56 2215.7041,-24.993 2089.3318,-14.7692 2027.4685,-11.4897"/>
<polygon fill="#191970" stroke="#191970" points="2568.4908,-242.8563 2562.8599,-251.8309 2572.8584,-248.3266 2568.4908,-242.8563"/>
</g>
<!-- Node9&#45;&gt;Node324 -->
<g id="edge92" class="edge">
<title>Node9&#45;&gt;Node324</title>
<path fill="none" stroke="#191970" d="M2492.2008,-258.0996C2391.4526,-251.634 2174.4427,-235.8574 1992.7635,-210 1872.6235,-192.9011 1732.3753,-163.1759 1663.8224,-148.0029"/>
<polygon fill="#191970" stroke="#191970" points="2492.2516,-261.6098 2502.4535,-258.7511 2492.6956,-254.6239 2492.2516,-261.6098"/>
</g>
<!-- Node9&#45;&gt;Node7 -->
<g id="edge63" class="edge">
<title>Node9&#45;&gt;Node7</title>
<path fill="none" stroke="#191970" d="M2492.3251,-251.9264C2438.2882,-242.4415 2354.5958,-226.9172 2282.7635,-210 2200.4938,-190.6246 2104.9119,-162.5371 2056.8087,-148.0058"/>
<polygon fill="#191970" stroke="#191970" points="2491.9394,-255.412 2502.3923,-253.6838 2493.1432,-248.5162 2491.9394,-255.412"/>
</g>
<!-- Node10 -->
<g id="node27" class="node">
<title>Node10</title>
<g id="a_node27"><a xlink:href="sitkBasicFilters_8h.html" target="_top" xlink:title=" ">
<polygon fill="#ffffff" stroke="#ff0000" points="1542.2635,-190.5 1542.2635,-209.5 1641.2635,-209.5 1641.2635,-190.5 1542.2635,-190.5"/>
<text text-anchor="middle" x="1591.7635" y="-197.5" font-family="Helvetica,sans-Serif" font-size="10.00" fill="#000000">sitkBasicFilters.h</text>
</a>
</g>
</g>
<!-- Node9&#45;&gt;Node10 -->
<g id="edge56" class="edge">
<title>Node9&#45;&gt;Node10</title>
<path fill="none" stroke="#191970" d="M2492.5086,-257.8849C2320.622,-246.8389 1804.1638,-213.6495 1641.4351,-203.1921"/>
<polygon fill="#191970" stroke="#191970" points="2492.4015,-261.3851 2502.6054,-258.5337 2492.8505,-254.3995 2492.4015,-261.3851"/>
</g>
<!-- Node9&#45;&gt;Node311 -->
<g id="edge65" class="edge">
<title>Node9&#45;&gt;Node311</title>
<path fill="none" stroke="#191970" d="M2492.6013,-254.5057C2430.8888,-245.9679 2336.5507,-230.1444 2306.7635,-210 2283.7279,-194.4215 2268.827,-163.7361 2262.4005,-148.1199"/>
<polygon fill="#191970" stroke="#191970" points="2492.2074,-257.9843 2502.5878,-255.8634 2493.1505,-251.0481 2492.2074,-257.9843"/>
</g>
<!-- Node9&#45;&gt;Node312 -->
<g id="edge68" class="edge">
<title>Node9&#45;&gt;Node312</title>
<path fill="none" stroke="#191970" d="M2492.5182,-253.9143C2409.4021,-242.7045 2253.8616,-221.727 2163.247,-209.506"/>
<polygon fill="#191970" stroke="#191970" points="2492.1523,-257.3965 2502.5304,-255.2646 2493.0879,-250.4593 2492.1523,-257.3965"/>
</g>
<!-- Node9&#45;&gt;Node313 -->
<g id="edge70" class="edge">
<title>Node9&#45;&gt;Node313</title>
<path fill="none" stroke="#191970" d="M2512.267,-248.4504C2479.6603,-236.7916 2432.657,-219.9852 2403.4498,-209.5419"/>
<polygon fill="#191970" stroke="#191970" points="2511.2939,-251.8194 2521.8885,-251.8906 2513.6508,-245.2281 2511.2939,-251.8194"/>
</g>
<!-- Node9&#45;&gt;Node314 -->
<g id="edge72" class="edge">
<title>Node9&#45;&gt;Node314</title>
<path fill="none" stroke="#191970" d="M2540.2283,-242.753C2535.2692,-231.8606 2529.2248,-218.5846 2525.2002,-209.7449"/>
<polygon fill="#191970" stroke="#191970" points="2537.0595,-244.2398 2544.3885,-251.8906 2543.4303,-241.3392 2537.0595,-244.2398"/>
</g>
<!-- Node9&#45;&gt;Node315 -->
<g id="edge74" class="edge">
<title>Node9&#45;&gt;Node315</title>
<path fill="none" stroke="#191970" d="M2583.1067,-248.2993C2613.4222,-236.6468 2656.8867,-219.9402 2683.9391,-209.5419"/>
<polygon fill="#191970" stroke="#191970" points="2581.842,-245.0357 2573.7635,-251.8906 2584.3535,-251.5697 2581.842,-245.0357"/>
</g>
<!-- Node9&#45;&gt;Node316 -->
<g id="edge76" class="edge">
<title>Node9&#45;&gt;Node316</title>
<path fill="none" stroke="#191970" d="M2604.7953,-250.1272C2662.3218,-238.451 2750.8418,-220.4841 2804.8119,-209.5298"/>
<polygon fill="#191970" stroke="#191970" points="2603.8867,-246.7402 2594.7827,-252.1595 2605.2791,-253.6003 2603.8867,-246.7402"/>
</g>
<!-- Node9&#45;&gt;Node317 -->
<g id="edge78" class="edge">
<title>Node9&#45;&gt;Node317</title>
<path fill="none" stroke="#191970" d="M2605.2625,-254.1849C2691.2338,-243.0539 2854.9306,-221.8594 2950.1188,-209.5351"/>
<polygon fill="#191970" stroke="#191970" points="2604.6412,-250.736 2595.1734,-255.4911 2605.54,-257.6781 2604.6412,-250.736"/>
</g>
<!-- Node9&#45;&gt;Node318 -->
<g id="edge80" class="edge">
<title>Node9&#45;&gt;Node318</title>
<path fill="none" stroke="#191970" d="M2605.0826,-256.8695C2708.4948,-248.2807 2935.5863,-229.0192 3126.7635,-210 3129.7685,-209.7011 3132.8287,-209.3914 3135.9193,-209.0743"/>
<polygon fill="#191970" stroke="#191970" points="2604.5486,-253.4016 2594.8721,-257.7162 2605.1271,-260.3777 2604.5486,-253.4016"/>
</g>
<!-- Node9&#45;&gt;Node319 -->
<g id="edge82" class="edge">
<title>Node9&#45;&gt;Node319</title>
<path fill="none" stroke="#191970" d="M2605.2154,-258.5989C2731.3368,-251.9138 3045.5233,-234.1293 3307.7635,-210 3310.7571,-209.7246 3313.8079,-209.4311 3316.8885,-209.1242"/>
<polygon fill="#191970" stroke="#191970" points="2604.8316,-255.1142 2595.0299,-259.1363 2605.2004,-262.1045 2604.8316,-255.1142"/>
</g>
<!-- Node9&#45;&gt;Node320 -->
<g id="edge84" class="edge">
<title>Node9&#45;&gt;Node320</title>
<path fill="none" stroke="#191970" d="M2605.2134,-259.5636C2750.3489,-254.327 3148.2905,-238.3377 3478.7635,-210 3481.7588,-209.7432 3484.8109,-209.4654 3487.8928,-209.1716"/>
<polygon fill="#191970" stroke="#191970" points="2604.6657,-256.0809 2594.7974,-259.9366 2604.9162,-263.0764 2604.6657,-256.0809"/>
</g>
<!-- Node9&#45;&gt;Node321 -->
<g id="edge86" class="edge">
<title>Node9&#45;&gt;Node321</title>
<path fill="none" stroke="#191970" d="M2605.2289,-260.317C2767.7308,-256.5985 3250.4522,-243.3489 3649.7635,-210 3652.9455,-209.7343 3656.1936,-209.4403 3659.4729,-209.125"/>
<polygon fill="#191970" stroke="#191970" points="2604.9109,-256.8232 2594.9926,-260.5483 2605.0691,-263.8214 2604.9109,-256.8232"/>
</g>
<!-- Node9&#45;&gt;Node322 -->
<g id="edge88" class="edge">
<title>Node9&#45;&gt;Node322</title>
<path fill="none" stroke="#191970" d="M2604.9538,-259.9578C2817.8175,-253.9999 3574.6977,-231.7348 3814.7635,-210 3817.8629,-209.7194 3821.034,-209.3982 3824.2333,-209.0471"/>
<polygon fill="#191970" stroke="#191970" points="2604.8363,-256.4596 2594.9379,-260.2373 2605.0317,-263.4569 2604.8363,-256.4596"/>
</g>
<!-- Node9&#45;&gt;Node323 -->
<g id="edge90" class="edge">
<title>Node9&#45;&gt;Node323</title>
<path fill="none" stroke="#191970" d="M2605.0685,-260.9625C2795.4002,-258.821 3432.1986,-249.0077 3956.7635,-210 3959.5546,-209.7925 3962.3931,-209.5647 3965.2587,-209.3205"/>
<polygon fill="#191970" stroke="#191970" points="2604.9806,-257.4632 2595.0197,-261.0731 2605.0577,-264.4628 2604.9806,-257.4632"/>
</g>
<!-- Node10&#45;&gt;Node12 -->
<g id="edge59" class="edge">
<title>Node10&#45;&gt;Node12</title>
<path fill="none" stroke="#191970" d="M1531.8749,-196.5469C1448.2441,-191.0596 1291.9776,-178.3833 1160.7635,-154 1152.2582,-152.4195 1143.1712,-150.2345 1134.7738,-148.0031"/>
<polygon fill="#191970" stroke="#191970" points="1531.7488,-200.046 1541.9532,-197.1964 1532.199,-193.0605 1531.7488,-200.046"/>
</g>
<!-- Node10&#45;&gt;Node11 -->
<g id="edge58" class="edge">
<title>Node10&#45;&gt;Node11</title>
<path fill="none" stroke="#191970" d="M1651.5445,-189.9739C1690.3884,-182.1013 1735.9285,-169.8287 1747.7635,-154 1764.323,-131.8527 1738.8038,-103.7388 1718.814,-86.7086"/>
<polygon fill="#191970" stroke="#191970" points="1650.4601,-186.6198 1641.3203,-191.9784 1651.8069,-193.489 1650.4601,-186.6198"/>
</g>
<!-- Node10&#45;&gt;Node8 -->
<g id="edge62" class="edge">
<title>Node10&#45;&gt;Node8</title>
<path fill="none" stroke="#191970" d="M1643.5926,-187.7339C1688.3361,-174.8234 1741.8406,-152.3073 1714.7635,-123 1694.9346,-101.5379 1284.1604,-81.1907 1126.0477,-74.1245"/>
<polygon fill="#191970" stroke="#191970" points="1642.6193,-184.3716 1633.9203,-190.4195 1644.4921,-191.1165 1642.6193,-184.3716"/>
</g>
<!-- Node10&#45;&gt;Node309 -->
<g id="edge60" class="edge">
<title>Node10&#45;&gt;Node309</title>
<path fill="none" stroke="#191970" d="M1531.8937,-189.009C1478.0438,-179.1231 1398.4487,-164.5109 1338.7054,-153.5431"/>
<polygon fill="#191970" stroke="#191970" points="1531.5047,-192.496 1541.9724,-190.8592 1532.7687,-185.611 1531.5047,-192.496"/>
</g>
<!-- Node10&#45;&gt;Node310 -->
<g id="edge61" class="edge">
<title>Node10&#45;&gt;Node310</title>
<path fill="none" stroke="#191970" d="M1558.8052,-186.5766C1534.882,-176.833 1502.4992,-163.644 1477.7023,-153.5446"/>
<polygon fill="#191970" stroke="#191970" points="1557.5882,-189.86 1568.1698,-190.3906 1560.2287,-183.3771 1557.5882,-189.86"/>
</g>
<!-- Node10&#45;&gt;Node7 -->
<g id="edge57" class="edge">
<title>Node10&#45;&gt;Node7</title>
<path fill="none" stroke="#191970" d="M1651.5114,-191.5334C1731.8885,-180.1436 1874.4329,-159.9443 1958.4904,-148.0329"/>
<polygon fill="#191970" stroke="#191970" points="1650.9588,-188.0767 1641.5488,-192.9452 1651.941,-195.0074 1650.9588,-188.0767"/>
</g>
<!-- Node311&#45;&gt;Node11 -->
<g id="edge66" class="edge">
<title>Node311&#45;&gt;Node11</title>
<path fill="none" stroke="#191970" d="M2184.1148,-129.5688C2079.7743,-117.0852 1890.927,-94.491 1782.1109,-81.4719"/>
<polygon fill="#191970" stroke="#191970" points="2183.9061,-133.0687 2194.2511,-130.7815 2184.7377,-126.1183 2183.9061,-133.0687"/>
</g>
<!-- Node311&#45;&gt;Node5 -->
<g id="edge67" class="edge">
<title>Node311&#45;&gt;Node5</title>
<path fill="none" stroke="#191970" d="M2246.4449,-120.5285C2232.486,-101.5697 2207.9739,-72.2385 2179.7635,-56 2131.6715,-28.3172 2067.5082,-17.2314 2027.419,-12.8343"/>
<polygon fill="#191970" stroke="#191970" points="2243.7613,-122.7934 2252.4196,-128.8995 2249.4589,-118.7267 2243.7613,-122.7934"/>
</g>
<!-- Node312&#45;&gt;Node5 -->
<g id="edge69" class="edge">
<title>Node312&#45;&gt;Node5</title>
<path fill="none" stroke="#191970" d="M2116.668,-184.2861C2126.3794,-176.4665 2136.5298,-166.0919 2141.7635,-154 2159.0646,-114.028 2167.721,-90.9757 2141.7635,-56 2128.0846,-37.5687 2067.9017,-23.6541 2027.4927,-16.1776"/>
<polygon fill="#191970" stroke="#191970" points="2114.2964,-181.6891 2108.3815,-190.4791 2118.487,-187.2962 2114.2964,-181.6891"/>
</g>
<!-- Node313&#45;&gt;Node5 -->
<g id="edge71" class="edge">
<title>Node313&#45;&gt;Node5</title>
<path fill="none" stroke="#191970" d="M2369.1237,-181.0446C2361.5968,-164.2018 2348.7628,-139.7279 2331.7635,-123 2246.2982,-38.8992 2096.9896,-17.3882 2027.4271,-11.8882"/>
<polygon fill="#191970" stroke="#191970" points="2365.9737,-182.5808 2373.1142,-190.4079 2372.4133,-179.8363 2365.9737,-182.5808"/>
</g>
<!-- Node314&#45;&gt;Node5 -->
<g id="edge73" class="edge">
<title>Node314&#45;&gt;Node5</title>
<path fill="none" stroke="#191970" d="M2499.7446,-184.3999C2458.1663,-154.3734 2361.4831,-88.6352 2269.7635,-56 2186.4535,-26.357 2082.313,-15.6682 2027.5122,-11.927"/>
<polygon fill="#191970" stroke="#191970" points="2497.8407,-187.3432 2507.9833,-190.4055 2501.9641,-181.6865 2497.8407,-187.3432"/>
</g>
<!-- Node315&#45;&gt;Node5 -->
<g id="edge75" class="edge">
<title>Node315&#45;&gt;Node5</title>
<path fill="none" stroke="#191970" d="M2704.282,-180.5014C2695.7459,-148.3102 2673.842,-84.753 2628.7635,-56 2578.0675,-23.6639 2157.0533,-13.1342 2027.5309,-10.6439"/>
<polygon fill="#191970" stroke="#191970" points="2700.9511,-181.6107 2706.7598,-190.4713 2707.7445,-179.9223 2700.9511,-181.6107"/>
</g>
<!-- Node316&#45;&gt;Node5 -->
<g id="edge77" class="edge">
<title>Node316&#45;&gt;Node5</title>
<path fill="none" stroke="#191970" d="M2835.7538,-182.6564C2805.149,-150.8411 2734.6903,-83.8631 2659.7635,-56 2600.4782,-33.9535 2160.2909,-16.2307 2027.5472,-11.3425"/>
<polygon fill="#191970" stroke="#191970" points="2833.5626,-185.433 2842.9785,-190.2903 2838.6467,-180.6214 2833.5626,-185.433"/>
</g>
<!-- Node317&#45;&gt;Node5 -->
<g id="edge79" class="edge">
<title>Node317&#45;&gt;Node5</title>
<path fill="none" stroke="#191970" d="M2998.9704,-185.0774C2946.6304,-154.4424 2820.09,-84.9107 2703.7635,-56 2573.7222,-23.6807 2155.741,-13.1648 2027.5201,-10.657"/>
<polygon fill="#191970" stroke="#191970" points="2997.4701,-188.2561 3007.8607,-190.3264 3001.0291,-182.2283 2997.4701,-188.2561"/>
</g>
<!-- Node318&#45;&gt;Node5 -->
<g id="edge81" class="edge">
<title>Node318&#45;&gt;Node5</title>
<path fill="none" stroke="#191970" d="M3185.0082,-186.496C3111.2833,-156.7999 2926.0569,-86.0781 2763.7635,-56 2619.9895,-29.3541 2162.8207,-14.8052 2027.7141,-11.0113"/>
<polygon fill="#191970" stroke="#191970" points="3184.0746,-189.8941 3194.6571,-190.4055 3186.7033,-183.4064 3184.0746,-189.8941"/>
</g>
<!-- Node319&#45;&gt;Node5 -->
<g id="edge83" class="edge">
<title>Node319&#45;&gt;Node5</title>
<path fill="none" stroke="#191970" d="M3355.8352,-187.2658C3267.1282,-158.1133 3038.7009,-86.6834 2841.7635,-56 2681.3095,-31.0008 2170.7549,-15.0816 2027.4765,-11.0262"/>
<polygon fill="#191970" stroke="#191970" points="3354.8658,-190.6315 3365.459,-190.4432 3357.0605,-183.9845 3354.8658,-190.6315"/>
</g>
<!-- Node320&#45;&gt;Node5 -->
<g id="edge85" class="edge">
<title>Node320&#45;&gt;Node5</title>
<path fill="none" stroke="#191970" d="M3522.4176,-187.6329C3421.4268,-158.7389 3158.0395,-86.9157 2932.7635,-56 2753.2234,-31.3609 2180.2756,-14.9663 2027.5018,-10.9567"/>
<polygon fill="#191970" stroke="#191970" points="3521.6623,-191.0574 3532.24,-190.4545 3523.5951,-184.3295 3521.6623,-191.0574"/>
</g>
<!-- Node321&#45;&gt;Node5 -->
<g id="edge87" class="edge">
<title>Node321&#45;&gt;Node5</title>
<path fill="none" stroke="#191970" d="M3686.9133,-187.8862C3575.9297,-159.1484 3283.6189,-86.9465 3034.7635,-56 2833.828,-31.0126 2190.0093,-14.6529 2027.3637,-10.8504"/>
<polygon fill="#191970" stroke="#191970" points="3686.2116,-191.32 3696.7705,-190.448 3687.9724,-184.5451 3686.2116,-191.32"/>
</g>
<!-- Node322&#45;&gt;Node5 -->
<g id="edge89" class="edge">
<title>Node322&#45;&gt;Node5</title>
<path fill="none" stroke="#191970" d="M3828.188,-188.5243C3752.114,-173.3864 3613.9267,-145.9745 3495.7635,-123 3340.2948,-92.7721 3303.1073,-74.088 3145.7635,-56 2921.6562,-30.237 2200.8226,-14.2695 2027.5001,-10.7426"/>
<polygon fill="#191970" stroke="#191970" points="3827.5607,-191.9681 3838.0516,-190.4876 3828.9272,-185.1027 3827.5607,-191.9681"/>
</g>
<!-- Node323&#45;&gt;Node5 -->
<g id="edge91" class="edge">
<title>Node323&#45;&gt;Node5</title>
<path fill="none" stroke="#191970" d="M3994.7095,-188.0978C3869.2657,-159.4309 3535.5526,-86.6658 3252.7635,-56 3006.1319,-29.2552 2209.7819,-13.8677 2027.2738,-10.6405"/>
<polygon fill="#191970" stroke="#191970" points="3994.2603,-191.5856 4004.7896,-190.4091 3995.8248,-184.7626 3994.2603,-191.5856"/>
</g>
<!-- Node334&#45;&gt;Node325 -->
<g id="edge95" class="edge">
<title>Node334&#45;&gt;Node325</title>
<path fill="none" stroke="#191970" d="M810.2298,-245.9685C826.0755,-234.5037 847.1372,-219.265 860.5755,-209.5419"/>
<polygon fill="#191970" stroke="#191970" points="808.0949,-243.1931 802.0448,-251.8906 812.1982,-248.8643 808.0949,-243.1931"/>
</g>
<!-- Node340&#45;&gt;Node325 -->
<g id="edge106" class="edge">
<title>Node340&#45;&gt;Node325</title>
<path fill="none" stroke="#191970" d="M1113.8023,-359.8597C1100.7628,-330.8624 1072.1023,-276.0068 1030.7635,-246 1001.4568,-224.727 962.3984,-213.2336 930.5714,-207.0551"/>
<polygon fill="#191970" stroke="#191970" points="1110.6995,-361.5017 1117.8941,-369.2791 1117.1199,-358.7126 1110.6995,-361.5017"/>
</g>
<!-- Node340&#45;&gt;Node6 -->
<g id="edge105" class="edge">
<title>Node340&#45;&gt;Node6</title>
<path fill="none" stroke="#191970" d="M1044.5161,-368.6758C954.0915,-356.5904 808.0554,-337.0724 739.9527,-327.9704"/>
<polygon fill="#191970" stroke="#191970" points="1044.0684,-372.147 1054.4439,-370.0026 1044.9958,-365.2087 1044.0684,-372.147"/>
</g>
<!-- Node341 -->
<g id="node43" class="node">
<title>Node341</title>
<g id="a_node43"><a xlink:href="sitkPimpleImageBase_8h.html" target="_top" xlink:title=" ">
<polygon fill="#ffffff" stroke="#000000" points="1148.7635,-313.5 1148.7635,-332.5 1280.7635,-332.5 1280.7635,-313.5 1148.7635,-313.5"/>
<text text-anchor="middle" x="1214.7635" y="-320.5" font-family="Helvetica,sans-Serif" font-size="10.00" fill="#000000">sitkPimpleImageBase.h</text>
</a>
</g>
</g>
<!-- Node340&#45;&gt;Node341 -->
<g id="edge107" class="edge">
<title>Node340&#45;&gt;Node341</title>
<path fill="none" stroke="#191970" d="M1146.597,-364.0465C1163.1446,-354.0824 1184.4067,-341.2794 1198.7498,-332.6427"/>
<polygon fill="#191970" stroke="#191970" points="1144.7242,-361.0886 1137.9629,-369.2455 1148.3352,-367.0854 1144.7242,-361.0886"/>
</g>
<!-- Node342&#45;&gt;Node9 -->
<g id="edge110" class="edge">
<title>Node342&#45;&gt;Node9</title>
<path fill="none" stroke="#191970" d="M2155.6963,-421.5872C2238.5,-387.8632 2453.8526,-300.155 2525.3258,-271.0457"/>
<polygon fill="#191970" stroke="#191970" points="2154.2151,-418.4113 2146.2739,-425.4248 2156.8555,-424.8942 2154.2151,-418.4113"/>
</g>
<!-- Node342&#45;&gt;Node340 -->
<g id="edge109" class="edge">
<title>Node342&#45;&gt;Node340</title>
<path fill="none" stroke="#191970" d="M2050.8358,-433.4096C1895.0576,-429.529 1514.9476,-417.7064 1197.7635,-389 1194.8476,-388.7361 1191.8717,-388.4437 1188.8674,-388.1297"/>
<polygon fill="#191970" stroke="#191970" points="2051.132,-436.9178 2061.2149,-433.6646 2051.304,-429.9199 2051.132,-436.9178"/>
</g>
<!-- Node343&#45;&gt;Node336 -->
<g id="edge116" class="edge">
<title>Node343&#45;&gt;Node336</title>
<path fill="none" stroke="#191970" d="M1321.7933,-415.9614C1327.4715,-402.6876 1332.565,-384.6269 1327.7635,-369 1318.9295,-340.2485 1312.1727,-333.0629 1289.7635,-313 1232.1678,-261.4347 1146.8132,-225.6185 1103.3571,-209.5508"/>
<polygon fill="#191970" stroke="#191970" points="1318.602,-414.5228 1317.4913,-425.0593 1324.9302,-417.5152 1318.602,-414.5228"/>
</g>
<!-- Node343&#45;&gt;Node326 -->
<g id="edge117" class="edge">
<title>Node343&#45;&gt;Node326</title>
<path fill="none" stroke="#191970" d="M1246.4817,-432.4561C993.6355,-422.1797 92.7635,-381.4637 92.7635,-323 92.7635,-323 92.7635,-323 92.7635,-261.5 92.7635,-214.825 236.2294,-167.7058 304.0395,-148.0415"/>
<polygon fill="#191970" stroke="#191970" points="1246.4852,-435.959 1256.6184,-432.8658 1246.768,-428.9647 1246.4852,-435.959"/>
</g>
<!-- Node344 -->
<g id="node46" class="node">
<title>Node344</title>
<g id="a_node46"><a xlink:href="sitkPixelIDTokens_8h.html" target="_top" xlink:title=" ">
<polygon fill="#ffffff" stroke="#ff0000" points="1206.7635,-369.5 1206.7635,-388.5 1318.7635,-388.5 1318.7635,-369.5 1206.7635,-369.5"/>
<text text-anchor="middle" x="1262.7635" y="-376.5" font-family="Helvetica,sans-Serif" font-size="10.00" fill="#000000">sitkPixelIDTokens.h</text>
</a>
</g>
</g>
<!-- Node343&#45;&gt;Node344 -->
<g id="edge112" class="edge">
<title>Node343&#45;&gt;Node344</title>
<path fill="none" stroke="#191970" d="M1296.4514,-417.5004C1288.1188,-407.9775 1278.1282,-396.5596 1271.2009,-388.6427"/>
<polygon fill="#191970" stroke="#191970" points="1294.0093,-420.0245 1303.2284,-425.2455 1299.2773,-415.415 1294.0093,-420.0245"/>
</g>
<!-- Node344&#45;&gt;Node324 -->
<g id="edge115" class="edge">
<title>Node344&#45;&gt;Node324</title>
<path fill="none" stroke="#191970" d="M1277.895,-361.7257C1302.3362,-334.5613 1352.9211,-281.3209 1403.7635,-246 1468.3976,-201.0979 1554.5581,-164.5655 1596.5767,-148.0391"/>
<polygon fill="#191970" stroke="#191970" points="1275.2135,-359.474 1271.1778,-369.2701 1280.4416,-364.1288 1275.2135,-359.474"/>
</g>
<!-- Node344&#45;&gt;Node6 -->
<g id="edge113" class="edge">
<title>Node344&#45;&gt;Node6</title>
<path fill="none" stroke="#191970" d="M1196.4141,-368.8932C1019.5273,-347.3638 820.7007,-331.692 739.7923,-325.6775"/>
<polygon fill="#191970" stroke="#191970" points="1196.0703,-372.3772 1206.422,-370.1205 1196.9225,-365.4292 1196.0703,-372.3772"/>
</g>
<!-- Node344&#45;&gt;Node341 -->
<g id="edge114" class="edge">
<title>Node344&#45;&gt;Node341</title>
<path fill="none" stroke="#191970" d="M1247.7638,-361.5004C1239.6014,-351.9775 1229.8146,-340.5596 1223.0287,-332.6427"/>
<polygon fill="#191970" stroke="#191970" points="1245.2372,-363.9307 1254.4026,-369.2455 1250.552,-359.3752 1245.2372,-363.9307"/>
</g>
<!-- Node345&#45;&gt;Node5 -->
<g id="edge125" class="edge">
<title>Node345&#45;&gt;Node5</title>
<path fill="none" stroke="#191970" d="M2014.0402,-245.2005C1997.6612,-230.3097 1979.577,-207.9455 1992.7635,-190 2024.4766,-146.8418 2076.0505,-197.1582 2107.7635,-154 2115.9219,-142.8974 2111.3531,-136.302 2107.7635,-123 2098.7869,-89.7347 2093.1253,-80.3652 2068.7635,-56 2052.7166,-39.9508 2029.9469,-27.4783 2012.9722,-19.5945"/>
<polygon fill="#191970" stroke="#191970" points="2011.9309,-248.0024 2021.7993,-251.858 2016.4892,-242.6899 2011.9309,-248.0024"/>
</g>
<!-- Node345&#45;&gt;Node324 -->
<g id="edge126" class="edge">
<title>Node345&#45;&gt;Node324</title>
<path fill="none" stroke="#191970" d="M1990.5025,-249.4441C1985.5445,-248.2212 1980.5554,-247.0462 1975.7635,-246 1884.9595,-226.1746 1858.233,-238.4882 1769.7635,-210 1719.5133,-193.8188 1664.6,-163.6849 1638.0055,-148.2147"/>
<polygon fill="#191970" stroke="#191970" points="1990.0094,-252.9297 2000.5629,-251.9956 1991.7303,-246.1446 1990.0094,-252.9297"/>
</g>
<!-- Node345&#45;&gt;Node7 -->
<g id="edge123" class="edge">
<title>Node345&#45;&gt;Node7</title>
<path fill="none" stroke="#191970" d="M2000.6113,-247.2062C1985.1771,-238.8105 1968.4762,-226.5517 1959.7635,-210 1946.1504,-184.1388 1981.0772,-160.578 2005.156,-148.0188"/>
<polygon fill="#191970" stroke="#191970" points="1999.4712,-250.5516 2009.9748,-251.9384 2002.6286,-244.3041 1999.4712,-250.5516"/>
</g>
<!-- Node345&#45;&gt;Node10 -->
<g id="edge122" class="edge">
<title>Node345&#45;&gt;Node10</title>
<path fill="none" stroke="#191970" d="M1991.5356,-249.4168C1986.2472,-248.154 1980.8988,-246.9773 1975.7635,-246 1856.8717,-223.3732 1715.0322,-209.8046 1641.5018,-203.7559"/>
<polygon fill="#191970" stroke="#191970" points="1991.0095,-252.8929 2001.5597,-251.9217 1992.7066,-246.1017 1991.0095,-252.8929"/>
</g>
<!-- Node345&#45;&gt;Node312 -->
<g id="edge124" class="edge">
<title>Node345&#45;&gt;Node312</title>
<path fill="none" stroke="#191970" d="M2050.8897,-244.4007C2061.4277,-233.2268 2074.8112,-219.0356 2083.5733,-209.7449"/>
<polygon fill="#191970" stroke="#191970" points="2048.1408,-242.2142 2043.826,-251.8906 2053.2334,-247.0169 2048.1408,-242.2142"/>
</g>
<!-- Node346&#45;&gt;Node5 -->
<g id="edge139" class="edge">
<title>Node346&#45;&gt;Node5</title>
<path fill="none" stroke="#191970" d="M1673.0043,-245.0551C1695.4305,-224.5307 1734.2649,-187.9819 1764.7635,-154 1801.7616,-112.7764 1796.1435,-87.4175 1841.7635,-56 1875.1147,-33.0318 1920.4033,-21.1709 1952.0668,-15.2957"/>
<polygon fill="#191970" stroke="#191970" points="1670.5702,-242.5379 1665.5303,-251.8572 1675.2818,-247.7149 1670.5702,-242.5379"/>
</g>
<!-- Node346&#45;&gt;Node325 -->
<g id="edge140" class="edge">
<title>Node346&#45;&gt;Node325</title>
<path fill="none" stroke="#191970" d="M1609.081,-251.926C1596.9937,-249.6793 1583.9247,-247.5046 1571.7635,-246 1313.6829,-214.0706 1247.0898,-229.3636 987.7635,-210 969.0407,-208.602 948.6064,-206.8735 930.2754,-205.2489"/>
<polygon fill="#191970" stroke="#191970" points="1608.4823,-255.3749 1618.962,-253.8171 1609.7982,-248.4996 1608.4823,-255.3749"/>
</g>
<!-- Node347&#45;&gt;Node5 -->
<g id="edge143" class="edge">
<title>Node347&#45;&gt;Node5</title>
<path fill="none" stroke="#191970" d="M1773.8472,-243.3099C1786.5431,-222.1787 1807.6648,-186.1043 1823.7635,-154 1845.0841,-111.4823 1832.2089,-88.6848 1866.7635,-56 1890.2001,-33.8316 1925.3067,-22.1159 1952.0222,-16.0707"/>
<polygon fill="#191970" stroke="#191970" points="1770.833,-241.5307 1768.6552,-251.8993 1776.8236,-245.1518 1770.833,-241.5307"/>
</g>
<!-- Node347&#45;&gt;Node324 -->
<g id="edge144" class="edge">
<title>Node347&#45;&gt;Node324</title>
<path fill="none" stroke="#191970" d="M1714.0407,-249.5711C1708.8869,-248.3478 1703.7203,-247.1375 1698.7635,-246 1625.1835,-229.1139 1580.1517,-268.7667 1532.7635,-210 1511.4266,-183.5398 1558.6206,-160.4432 1592.1007,-148.0788"/>
<polygon fill="#191970" stroke="#191970" points="1713.3377,-253.0016 1723.8776,-251.924 1714.9662,-246.1936 1713.3377,-253.0016"/>
</g>
<!-- Node347&#45;&gt;Node10 -->
<g id="edge142" class="edge">
<title>Node347&#45;&gt;Node10</title>
<path fill="none" stroke="#191970" d="M1726.4792,-248.4504C1694.0621,-236.7916 1647.3321,-219.9852 1618.2947,-209.5419"/>
<polygon fill="#191970" stroke="#191970" points="1725.4503,-251.7998 1736.0448,-251.8906 1727.8194,-245.2128 1725.4503,-251.7998"/>
</g>
<!-- Node348&#45;&gt;Node10 -->
<g id="edge148" class="edge">
<title>Node348&#45;&gt;Node10</title>
<path fill="none" stroke="#191970" d="M1655.402,-361.0093C1642.3305,-341.2286 1621.9502,-308.1116 1609.7635,-277 1600.6506,-253.7353 1595.3973,-224.6318 1593.1217,-209.7503"/>
<polygon fill="#191970" stroke="#191970" points="1652.5189,-362.9942 1661.0009,-369.343 1658.3294,-359.0905 1652.5189,-362.9942"/>
</g>
</g>
</svg>
        <g id="navigator" transform="translate(0 0)" fill="#404254">
                <rect fill="#f2f5e9" fill-opacity="0.5" stroke="#606060" stroke-width=".5" x="0" y="0" width="60" height="60"/>
                <use id="zoomplus" xlink:href="#zoomPlus" x="17" y="9" onmousedown="handleZoom(evt,'in')"/>
                <use id="zoomminus" xlink:href="#zoomMin" x="42" y="9" onmousedown="handleZoom(evt,'out')"/>
                <use id="reset" xlink:href="#resetDef" x="30" y="36" onmousedown="handleReset()"/>
                <g id="arrowUp" xlink:href="#dirArrow" transform="translate(30 24)" onmousedown="handlePan(0,-1)">
                  <use xlink:href="#rim" fill="#404040">
                        <set attributeName="fill" to="#808080" begin="arrowUp.mouseover" end="arrowUp.mouseout"/>
                  </use>
                  <path fill="none" stroke="white" stroke-width="1.5" d="M0,-3.0v7 M-2.5,-0.5L0,-3.0L2.5,-0.5"/>
                </g>
                <g id="arrowRight" xlink:href="#dirArrow" transform="rotate(90) translate(36 -43)" onmousedown="handlePan(1,0)">
                  <use xlink:href="#rim" fill="#404040">
                        <set attributeName="fill" to="#808080" begin="arrowRight.mouseover" end="arrowRight.mouseout"/>
                  </use>
                  <path fill="none" stroke="white" stroke-width="1.5" d="M0,-3.0v7 M-2.5,-0.5L0,-3.0L2.5,-0.5"/>
                </g>
                <g id="arrowDown" xlink:href="#dirArrow" transform="rotate(180) translate(-30 -48)" onmousedown="handlePan(0,1)">
                  <use xlink:href="#rim" fill="#404040">
                        <set attributeName="fill" to="#808080" begin="arrowDown.mouseover" end="arrowDown.mouseout"/>
                  </use>
                  <path fill="none" stroke="white" stroke-width="1.5" d="M0,-3.0v7 M-2.5,-0.5L0,-3.0L2.5,-0.5"/>
                </g>
                <g id="arrowLeft" xlink:href="#dirArrow" transform="rotate(270) translate(-36 17)" onmousedown="handlePan(-1,0)">
                  <use xlink:href="#rim" fill="#404040">
                        <set attributeName="fill" to="#808080" begin="arrowLeft.mouseover" end="arrowLeft.mouseout"/>
                  </use>
                  <path fill="none" stroke="white" stroke-width="1.5" d="M0,-3.0v7 M-2.5,-0.5L0,-3.0L2.5,-0.5"/>
                </g>
        </g>
        <svg viewBox="0 0 15 15" width="100%" height="30px" preserveAspectRatio="xMaxYMin meet">
         <g id="arrow_out" transform="scale(0.3 0.3)">
          <a xlink:href="sitkCommon_8h__dep__incl_org.svg" target="_base">
           <rect id="button" ry="5" rx="5" y="6" x="6" height="38" width="38"
                fill="#f2f5e9" fill-opacity="0.5" stroke="#606060" stroke-width="1.0"/>
           <path id="arrow"
             d="M 11.500037,31.436501 C 11.940474,20.09759 22.043105,11.32322 32.158766,21.979434 L 37.068811,17.246167 C 37.068811,17.246167 37.088388,32 37.088388,32 L 22.160133,31.978069 C 22.160133,31.978069 26.997745,27.140456 26.997745,27.140456 C 18.528582,18.264221 13.291696,25.230495 11.500037,31.436501 z"
             style="fill:#404040;"/>
          </a>
         </g>
        </svg>
</svg>
