<?xml version="1.0" encoding="UTF-8" standalone="no"?>
<!DOCTYPE svg PUBLIC "-//W3C//DTD SVG 1.1//EN"
 "http://www.w3.org/Graphics/SVG/1.1/DTD/svg11.dtd">
<!-- Generated by graphviz version 2.40.1 (20161225.0304)
 -->
<!-- Title: sitkImageConvert.h Pages: 1 -->
<svg width="1433pt" height="431pt"
 viewBox="0.00 0.00 1432.61 431.00" xmlns="http://www.w3.org/2000/svg" xmlns:xlink="http://www.w3.org/1999/xlink">
<g id="graph0" class="graph" transform="scale(1 1) rotate(0) translate(4 427)">
<title>sitkImageConvert.h</title>
<polygon fill="#ffffff" stroke="transparent" points="-4,4 -4,-427 1428.6105,-427 1428.6105,4 -4,4"/>
<!-- Node1 -->
<g id="node1" class="node">
<title>Node1</title>
<g id="a_node1"><a xlink:title=" ">
<polygon fill="#bfbfbf" stroke="#000000" points="745.6105,-403.5 745.6105,-422.5 858.6105,-422.5 858.6105,-403.5 745.6105,-403.5"/>
<text text-anchor="middle" x="802.1105" y="-410.5" font-family="Helvetica,sans-Serif" font-size="10.00" fill="#000000">sitkImageConvert.h</text>
</a>
</g>
</g>
<!-- Node2 -->
<g id="node2" class="node">
<title>Node2</title>
<g id="a_node2"><a xlink:href="sitkImage_8h.html" target="_top" xlink:title=" ">
<polygon fill="#ffffff" stroke="#000000" points="765.1105,-347.5 765.1105,-366.5 839.1105,-366.5 839.1105,-347.5 765.1105,-347.5"/>
<text text-anchor="middle" x="802.1105" y="-354.5" font-family="Helvetica,sans-Serif" font-size="10.00" fill="#000000">sitkImage.h</text>
</a>
</g>
</g>
<!-- Node1&#45;&gt;Node2 -->
<g id="edge1" class="edge">
<title>Node1&#45;&gt;Node2</title>
<path fill="none" stroke="#191970" d="M802.1105,-403.2455C802.1105,-395.9382 802.1105,-385.6944 802.1105,-376.7046"/>
<polygon fill="#191970" stroke="#191970" points="805.6106,-376.6426 802.1105,-366.6427 798.6106,-376.6427 805.6106,-376.6426"/>
</g>
<!-- Node3 -->
<g id="node3" class="node">
<title>Node3</title>
<g id="a_node3"><a xlink:href="sitkCommon_8h.html" target="_top" xlink:title=" ">
<polygon fill="#ffffff" stroke="#000000" points="337.1105,-112.5 337.1105,-131.5 425.1105,-131.5 425.1105,-112.5 337.1105,-112.5"/>
<text text-anchor="middle" x="381.1105" y="-119.5" font-family="Helvetica,sans-Serif" font-size="10.00" fill="#000000">sitkCommon.h</text>
</a>
</g>
</g>
<!-- Node2&#45;&gt;Node3 -->
<g id="edge2" class="edge">
<title>Node2&#45;&gt;Node3</title>
<path fill="none" stroke="#191970" d="M764.9456,-348.5072C667.2554,-325.3556 407.4395,-258.1633 359.1105,-188 349.1064,-173.4761 357.6716,-154.0488 366.8778,-140.0366"/>
<polygon fill="#191970" stroke="#191970" points="369.8584,-141.8857 372.8315,-131.7165 364.1658,-137.8121 369.8584,-141.8857"/>
</g>
<!-- Node11 -->
<g id="node11" class="node">
<title>Node11</title>
<g id="a_node11"><a xlink:href="sitkTemplateFunctions_8h.html" target="_top" xlink:title=" ">
<polygon fill="#ffffff" stroke="#000000" points="140.1105,-230 140.1105,-249 274.1105,-249 274.1105,-230 140.1105,-230"/>
<text text-anchor="middle" x="207.1105" y="-237" font-family="Helvetica,sans-Serif" font-size="10.00" fill="#000000">sitkTemplateFunctions.h</text>
</a>
</g>
</g>
<!-- Node2&#45;&gt;Node11 -->
<g id="edge10" class="edge">
<title>Node2&#45;&gt;Node11</title>
<path fill="none" stroke="#191970" d="M764.8232,-356.6536C661.5924,-355.2265 374.013,-347.9505 288.1105,-311 260.5248,-299.1342 235.7637,-274.1469 221.0827,-257.0901"/>
<polygon fill="#191970" stroke="#191970" points="223.4464,-254.4582 214.3628,-249.0049 218.063,-258.9326 223.4464,-254.4582"/>
</g>
<!-- Node13 -->
<g id="node13" class="node">
<title>Node13</title>
<g id="a_node13"><a xlink:title=" ">
<polygon fill="#ffffff" stroke="#bfbfbf" points="264.6105,-168.5 264.6105,-187.5 311.6105,-187.5 311.6105,-168.5 264.6105,-168.5"/>
<text text-anchor="middle" x="288.1105" y="-175.5" font-family="Helvetica,sans-Serif" font-size="10.00" fill="#000000">vector</text>
</a>
</g>
</g>
<!-- Node2&#45;&gt;Node13 -->
<g id="edge45" class="edge">
<title>Node2&#45;&gt;Node13</title>
<path fill="none" stroke="#191970" d="M764.7713,-355.7799C658.4538,-351.9781 359.6043,-338.8933 326.1105,-311 292.5517,-283.0525 287.4957,-227.6935 287.3819,-197.9724"/>
<polygon fill="#191970" stroke="#191970" points="290.8869,-197.6691 287.5427,-187.6159 283.8878,-197.5603 290.8869,-197.6691"/>
</g>
<!-- Node16 -->
<g id="node16" class="node">
<title>Node16</title>
<g id="a_node16"><a xlink:href="sitkDetail_8h.html" target="_top" xlink:title=" ">
<polygon fill="#ffffff" stroke="#000000" points="765.6105,-291.5 765.6105,-310.5 838.6105,-310.5 838.6105,-291.5 765.6105,-291.5"/>
<text text-anchor="middle" x="802.1105" y="-298.5" font-family="Helvetica,sans-Serif" font-size="10.00" fill="#000000">sitkDetail.h</text>
</a>
</g>
</g>
<!-- Node2&#45;&gt;Node16 -->
<g id="edge19" class="edge">
<title>Node2&#45;&gt;Node16</title>
<path fill="none" stroke="#191970" d="M802.1105,-347.2455C802.1105,-339.9382 802.1105,-329.6944 802.1105,-320.7046"/>
<polygon fill="#191970" stroke="#191970" points="805.6106,-320.6426 802.1105,-310.6427 798.6106,-320.6427 805.6106,-320.6426"/>
</g>
<!-- Node26 -->
<g id="node26" class="node">
<title>Node26</title>
<g id="a_node26"><a xlink:href="sitkPixelIDTokens_8h.html" target="_top" xlink:title=" ">
<polygon fill="#ffffff" stroke="#000000" points="1074.1105,-291.5 1074.1105,-310.5 1186.1105,-310.5 1186.1105,-291.5 1074.1105,-291.5"/>
<text text-anchor="middle" x="1130.1105" y="-298.5" font-family="Helvetica,sans-Serif" font-size="10.00" fill="#000000">sitkPixelIDTokens.h</text>
</a>
</g>
</g>
<!-- Node2&#45;&gt;Node26 -->
<g id="edge37" class="edge">
<title>Node2&#45;&gt;Node26</title>
<path fill="none" stroke="#191970" d="M839.417,-350.6306C894.0373,-341.3052 996.5966,-323.7951 1064.1296,-312.265"/>
<polygon fill="#191970" stroke="#191970" points="1064.9736,-315.6717 1074.2419,-310.5385 1063.7955,-308.7715 1064.9736,-315.6717"/>
</g>
<!-- Node29 -->
<g id="node29" class="node">
<title>Node29</title>
<g id="a_node29"><a xlink:title=" ">
<polygon fill="#ffffff" stroke="#bfbfbf" points="1355.6105,-230 1355.6105,-249 1424.6105,-249 1424.6105,-230 1355.6105,-230"/>
<text text-anchor="middle" x="1390.1105" y="-237" font-family="Helvetica,sans-Serif" font-size="10.00" fill="#000000">type_traits</text>
</a>
</g>
</g>
<!-- Node2&#45;&gt;Node29 -->
<g id="edge47" class="edge">
<title>Node2&#45;&gt;Node29</title>
<path fill="none" stroke="#191970" d="M839.2882,-354.3955C923.9927,-348.1799 1129.0837,-331.4605 1195.1105,-311 1213.3406,-305.3508 1215.5372,-298.4448 1233.1105,-291 1244.1376,-286.3284 1307.5839,-265.8376 1350.3698,-252.1536"/>
<polygon fill="#191970" stroke="#191970" points="1351.4971,-255.4678 1359.9576,-249.0904 1349.3667,-248.7998 1351.4971,-255.4678"/>
</g>
<!-- Node30 -->
<g id="node30" class="node">
<title>Node30</title>
<g id="a_node30"><a xlink:title=" ">
<polygon fill="#ffffff" stroke="#bfbfbf" points="1242.1105,-291.5 1242.1105,-310.5 1300.1105,-310.5 1300.1105,-291.5 1242.1105,-291.5"/>
<text text-anchor="middle" x="1271.1105" y="-298.5" font-family="Helvetica,sans-Serif" font-size="10.00" fill="#000000">memory</text>
</a>
</g>
</g>
<!-- Node2&#45;&gt;Node30 -->
<g id="edge46" class="edge">
<title>Node2&#45;&gt;Node30</title>
<path fill="none" stroke="#191970" d="M839.3569,-354.5007C913.667,-349.1793 1085.4631,-335.1973 1228.1105,-311 1229.3857,-310.7837 1230.6796,-310.5525 1231.9842,-310.3092"/>
<polygon fill="#191970" stroke="#191970" points="1232.962,-313.682 1242.0626,-308.2571 1231.5653,-306.8227 1232.962,-313.682"/>
</g>
<!-- Node4 -->
<g id="node4" class="node">
<title>Node4</title>
<g id="a_node4"><a xlink:href="sitkMacro_8h.html" target="_top" xlink:title=" ">
<polygon fill="#ffffff" stroke="#000000" points="386.6105,-56.5 386.6105,-75.5 459.6105,-75.5 459.6105,-56.5 386.6105,-56.5"/>
<text text-anchor="middle" x="423.1105" y="-63.5" font-family="Helvetica,sans-Serif" font-size="10.00" fill="#000000">sitkMacro.h</text>
</a>
</g>
</g>
<!-- Node3&#45;&gt;Node4 -->
<g id="edge3" class="edge">
<title>Node3&#45;&gt;Node4</title>
<path fill="none" stroke="#191970" d="M388.4264,-112.2455C394.3284,-104.3761 402.7848,-93.101 409.8699,-83.6542"/>
<polygon fill="#191970" stroke="#191970" points="412.6785,-85.7427 415.8785,-75.6427 407.0785,-81.5427 412.6785,-85.7427"/>
</g>
<!-- Node5 -->
<g id="node5" class="node">
<title>Node5</title>
<g id="a_node5"><a xlink:title=" ">
<polygon fill="#ffffff" stroke="#bfbfbf" points="773.6105,-.5 773.6105,-19.5 826.6105,-19.5 826.6105,-.5 773.6105,-.5"/>
<text text-anchor="middle" x="800.1105" y="-7.5" font-family="Helvetica,sans-Serif" font-size="10.00" fill="#000000">stdint.h</text>
</a>
</g>
</g>
<!-- Node4&#45;&gt;Node5 -->
<g id="edge4" class="edge">
<title>Node4&#45;&gt;Node5</title>
<path fill="none" stroke="#191970" d="M459.9453,-60.5285C532.1724,-49.7998 691.6097,-26.1168 763.5861,-15.4254"/>
<polygon fill="#191970" stroke="#191970" points="764.173,-18.8767 773.5502,-13.9453 763.1444,-11.9527 764.173,-18.8767"/>
</g>
<!-- Node6 -->
<g id="node6" class="node">
<title>Node6</title>
<g id="a_node6"><a xlink:title=" ">
<polygon fill="#ffffff" stroke="#bfbfbf" points="429.1105,-.5 429.1105,-19.5 485.1105,-19.5 485.1105,-.5 429.1105,-.5"/>
<text text-anchor="middle" x="457.1105" y="-7.5" font-family="Helvetica,sans-Serif" font-size="10.00" fill="#000000">stddef.h</text>
</a>
</g>
</g>
<!-- Node4&#45;&gt;Node6 -->
<g id="edge5" class="edge">
<title>Node4&#45;&gt;Node6</title>
<path fill="none" stroke="#191970" d="M429.0329,-56.2455C433.7132,-48.5367 440.3778,-37.5598 446.0394,-28.2348"/>
<polygon fill="#191970" stroke="#191970" points="449.058,-30.007 451.256,-19.6427 443.0745,-26.3741 449.058,-30.007"/>
</g>
<!-- Node7 -->
<g id="node7" class="node">
<title>Node7</title>
<g id="a_node7"><a xlink:title=" ">
<polygon fill="#ffffff" stroke="#bfbfbf" points="503.1105,-.5 503.1105,-19.5 555.1105,-19.5 555.1105,-.5 503.1105,-.5"/>
<text text-anchor="middle" x="529.1105" y="-7.5" font-family="Helvetica,sans-Serif" font-size="10.00" fill="#000000">cassert</text>
</a>
</g>
</g>
<!-- Node4&#45;&gt;Node7 -->
<g id="edge6" class="edge">
<title>Node4&#45;&gt;Node7</title>
<path fill="none" stroke="#191970" d="M441.5743,-56.2455C458.218,-47.4527 482.9098,-34.4079 501.8297,-24.4125"/>
<polygon fill="#191970" stroke="#191970" points="503.6513,-27.4086 510.8583,-19.6427 500.3814,-21.2193 503.6513,-27.4086"/>
</g>
<!-- Node8 -->
<g id="node8" class="node">
<title>Node8</title>
<g id="a_node8"><a xlink:title=" ">
<polygon fill="#ffffff" stroke="#bfbfbf" points="293.1105,-.5 293.1105,-19.5 349.1105,-19.5 349.1105,-.5 293.1105,-.5"/>
<text text-anchor="middle" x="321.1105" y="-7.5" font-family="Helvetica,sans-Serif" font-size="10.00" fill="#000000">sstream</text>
</a>
</g>
</g>
<!-- Node4&#45;&gt;Node8 -->
<g id="edge7" class="edge">
<title>Node4&#45;&gt;Node8</title>
<path fill="none" stroke="#191970" d="M405.3435,-56.2455C389.401,-47.4928 365.7846,-34.527 347.6116,-24.5496"/>
<polygon fill="#191970" stroke="#191970" points="349.1242,-21.3873 338.674,-19.6427 345.7553,-27.5233 349.1242,-21.3873"/>
</g>
<!-- Node9 -->
<g id="node9" class="node">
<title>Node9</title>
<g id="a_node9"><a xlink:title=" ">
<polygon fill="#ffffff" stroke="#bfbfbf" points="367.1105,-.5 367.1105,-19.5 411.1105,-19.5 411.1105,-.5 367.1105,-.5"/>
<text text-anchor="middle" x="389.1105" y="-7.5" font-family="Helvetica,sans-Serif" font-size="10.00" fill="#000000">limits</text>
</a>
</g>
</g>
<!-- Node4&#45;&gt;Node9 -->
<g id="edge8" class="edge">
<title>Node4&#45;&gt;Node9</title>
<path fill="none" stroke="#191970" d="M417.1882,-56.2455C412.5078,-48.5367 405.8433,-37.5598 400.1817,-28.2348"/>
<polygon fill="#191970" stroke="#191970" points="403.1466,-26.3741 394.965,-19.6427 397.1631,-30.007 403.1466,-26.3741"/>
</g>
<!-- Node10 -->
<g id="node10" class="node">
<title>Node10</title>
<g id="a_node10"><a xlink:href="sitkConfigure_8h.html" target="_top" xlink:title=" ">
<polygon fill="#ffffff" stroke="#000000" points="988.1105,-.5 988.1105,-19.5 1078.1105,-19.5 1078.1105,-.5 988.1105,-.5"/>
<text text-anchor="middle" x="1033.1105" y="-7.5" font-family="Helvetica,sans-Serif" font-size="10.00" fill="#000000">sitkConfigure.h</text>
</a>
</g>
</g>
<!-- Node4&#45;&gt;Node10 -->
<g id="edge9" class="edge">
<title>Node4&#45;&gt;Node10</title>
<path fill="none" stroke="#191970" d="M459.895,-62.6231C562.8887,-53.1679 854.6106,-26.3869 977.4723,-15.1078"/>
<polygon fill="#191970" stroke="#191970" points="978.1376,-18.5615 987.7758,-14.1619 977.4976,-11.5908 978.1376,-18.5615"/>
</g>
<!-- Node11&#45;&gt;Node3 -->
<g id="edge12" class="edge">
<title>Node11&#45;&gt;Node3</title>
<path fill="none" stroke="#191970" d="M211.2275,-229.7414C218.1349,-214.4832 233.4594,-184.971 255.1105,-168 276.0515,-151.5856 303.3991,-140.6601 327.263,-133.5937"/>
<polygon fill="#191970" stroke="#191970" points="328.2203,-136.9603 336.9025,-130.8884 326.3288,-130.2207 328.2203,-136.9603"/>
</g>
<!-- Node11&#45;&gt;Node4 -->
<g id="edge11" class="edge">
<title>Node11&#45;&gt;Node4</title>
<path fill="none" stroke="#191970" d="M139.8709,-231.3541C87.4492,-223.4584 20.8273,-209.4873 4.1105,-188 -1.3476,-180.9842 -1.3815,-174.9893 4.1105,-168 50.0706,-109.5093 277.1466,-80.3643 376.4664,-70.2499"/>
<polygon fill="#191970" stroke="#191970" points="376.9141,-73.7227 386.5172,-69.2471 376.2191,-66.7572 376.9141,-73.7227"/>
</g>
<!-- Node12 -->
<g id="node12" class="node">
<title>Node12</title>
<g id="a_node12"><a xlink:href="sitkExceptionObject_8h.html" target="_top" xlink:title=" ">
<polygon fill="#ffffff" stroke="#000000" points="84.6105,-168.5 84.6105,-187.5 207.6105,-187.5 207.6105,-168.5 84.6105,-168.5"/>
<text text-anchor="middle" x="146.1105" y="-175.5" font-family="Helvetica,sans-Serif" font-size="10.00" fill="#000000">sitkExceptionObject.h</text>
</a>
</g>
</g>
<!-- Node11&#45;&gt;Node12 -->
<g id="edge13" class="edge">
<title>Node11&#45;&gt;Node12</title>
<path fill="none" stroke="#191970" d="M197.5793,-229.8906C188.3226,-220.5581 174.0715,-206.1902 162.9102,-194.9374"/>
<polygon fill="#191970" stroke="#191970" points="165.3033,-192.38 155.7762,-187.7449 160.3334,-197.3095 165.3033,-192.38"/>
</g>
<!-- Node11&#45;&gt;Node13 -->
<g id="edge16" class="edge">
<title>Node11&#45;&gt;Node13</title>
<path fill="none" stroke="#191970" d="M219.7668,-229.8906C232.4874,-220.2324 252.3109,-205.1812 267.339,-193.771"/>
<polygon fill="#191970" stroke="#191970" points="269.6952,-196.3766 275.5431,-187.5419 265.4622,-190.8015 269.6952,-196.3766"/>
</g>
<!-- Node14 -->
<g id="node14" class="node">
<title>Node14</title>
<g id="a_node14"><a xlink:title=" ">
<polygon fill="#ffffff" stroke="#bfbfbf" points="999.6105,-168.5 999.6105,-187.5 1056.6105,-187.5 1056.6105,-168.5 999.6105,-168.5"/>
<text text-anchor="middle" x="1028.1105" y="-175.5" font-family="Helvetica,sans-Serif" font-size="10.00" fill="#000000">ostream</text>
</a>
</g>
</g>
<!-- Node11&#45;&gt;Node14 -->
<g id="edge17" class="edge">
<title>Node11&#45;&gt;Node14</title>
<path fill="none" stroke="#191970" d="M274.2296,-236.7415C434.0196,-229.9133 834.5155,-211.1968 989.3266,-187.7522"/>
<polygon fill="#191970" stroke="#191970" points="990.2715,-191.1464 999.6028,-186.1288 989.1791,-184.2322 990.2715,-191.1464"/>
</g>
<!-- Node15 -->
<g id="node15" class="node">
<title>Node15</title>
<g id="a_node15"><a xlink:title=" ">
<polygon fill="#ffffff" stroke="#bfbfbf" points="13.6105,-168.5 13.6105,-187.5 66.6105,-187.5 66.6105,-168.5 13.6105,-168.5"/>
<text text-anchor="middle" x="40.1105" y="-175.5" font-family="Helvetica,sans-Serif" font-size="10.00" fill="#000000">iterator</text>
</a>
</g>
</g>
<!-- Node11&#45;&gt;Node15 -->
<g id="edge18" class="edge">
<title>Node11&#45;&gt;Node15</title>
<path fill="none" stroke="#191970" d="M181.0168,-229.8906C152.707,-219.4652 107.3337,-202.7559 75.7514,-191.1252"/>
<polygon fill="#191970" stroke="#191970" points="76.6145,-187.7133 66.021,-187.5419 74.1954,-194.2821 76.6145,-187.7133"/>
</g>
<!-- Node12&#45;&gt;Node3 -->
<g id="edge15" class="edge">
<title>Node12&#45;&gt;Node3</title>
<path fill="none" stroke="#191970" d="M186.2415,-168.4369C226.3754,-158.8731 288.188,-144.1432 331.4038,-133.845"/>
<polygon fill="#191970" stroke="#191970" points="332.2289,-137.2465 341.1451,-131.5237 330.6062,-130.4372 332.2289,-137.2465"/>
</g>
<!-- Node12&#45;&gt;Node4 -->
<g id="edge14" class="edge">
<title>Node12&#45;&gt;Node4</title>
<path fill="none" stroke="#191970" d="M169.7274,-168.4509C219.0963,-148.4895 333.3252,-102.3031 389.9949,-79.3897"/>
<polygon fill="#191970" stroke="#191970" points="391.5946,-82.5183 399.5534,-75.5249 388.9706,-76.0287 391.5946,-82.5183"/>
</g>
<!-- Node17 -->
<g id="node17" class="node">
<title>Node17</title>
<g id="a_node17"><a xlink:href="sitkMemberFunctionFactoryBase_8h.html" target="_top" xlink:title=" ">
<polygon fill="#ffffff" stroke="#000000" points="664.1105,-224.5 664.1105,-254.5 814.1105,-254.5 814.1105,-224.5 664.1105,-224.5"/>
<text text-anchor="start" x="672.1105" y="-242.5" font-family="Helvetica,sans-Serif" font-size="10.00" fill="#000000">sitkMemberFunctionFactory</text>
<text text-anchor="middle" x="739.1105" y="-231.5" font-family="Helvetica,sans-Serif" font-size="10.00" fill="#000000">Base.h</text>
</a>
</g>
</g>
<!-- Node16&#45;&gt;Node17 -->
<g id="edge20" class="edge">
<title>Node16&#45;&gt;Node17</title>
<path fill="none" stroke="#191970" d="M792.2668,-291.3906C784.1352,-283.4527 772.2719,-271.8718 761.8146,-261.6635"/>
<polygon fill="#191970" stroke="#191970" points="764.1227,-259.0255 754.5221,-254.5446 759.2329,-264.0345 764.1227,-259.0255"/>
</g>
<!-- Node23 -->
<g id="node23" class="node">
<title>Node23</title>
<g id="a_node23"><a xlink:title=" ">
<polygon fill="#ffffff" stroke="#bfbfbf" points="843.1105,-168.5 843.1105,-187.5 981.1105,-187.5 981.1105,-168.5 843.1105,-168.5"/>
<text text-anchor="middle" x="912.1105" y="-175.5" font-family="Helvetica,sans-Serif" font-size="10.00" fill="#000000">Ancillary/FunctionTraits.h</text>
</a>
</g>
</g>
<!-- Node16&#45;&gt;Node23 -->
<g id="edge36" class="edge">
<title>Node16&#45;&gt;Node23</title>
<path fill="none" stroke="#191970" d="M810.742,-291.3484C829.2968,-270.6008 873.1976,-221.5117 896.673,-195.262"/>
<polygon fill="#191970" stroke="#191970" points="899.4618,-197.394 903.5191,-187.6068 894.244,-192.7276 899.4618,-197.394"/>
</g>
<!-- Node17&#45;&gt;Node4 -->
<g id="edge29" class="edge">
<title>Node17&#45;&gt;Node4</title>
<path fill="none" stroke="#191970" d="M663.9016,-226.8758C629.2791,-218.9945 588.5584,-206.6865 555.1105,-188 505.425,-160.242 459.5367,-110.113 437.2535,-83.5776"/>
<polygon fill="#191970" stroke="#191970" points="439.6939,-81.0358 430.6301,-75.5495 434.2943,-85.4906 439.6939,-81.0358"/>
</g>
<!-- Node17&#45;&gt;Node10 -->
<g id="edge21" class="edge">
<title>Node17&#45;&gt;Node10</title>
<path fill="none" stroke="#191970" d="M746.212,-224.282C758.9801,-198.3071 788.0667,-145.0268 826.1105,-112 876.1757,-68.5371 948.012,-38.643 992.5522,-22.9369"/>
<polygon fill="#191970" stroke="#191970" points="993.858,-26.1889 1002.1684,-19.6171 991.5736,-19.5721 993.858,-26.1889"/>
</g>
<!-- Node18 -->
<g id="node18" class="node">
<title>Node18</title>
<g id="a_node18"><a xlink:href="sitkPixelIDTypes_8h.html" target="_top" xlink:title=" ">
<polygon fill="#ffffff" stroke="#000000" points="835.1105,-112.5 835.1105,-131.5 941.1105,-131.5 941.1105,-112.5 835.1105,-112.5"/>
<text text-anchor="middle" x="888.1105" y="-119.5" font-family="Helvetica,sans-Serif" font-size="10.00" fill="#000000">sitkPixelIDTypes.h</text>
</a>
</g>
</g>
<!-- Node17&#45;&gt;Node18 -->
<g id="edge22" class="edge">
<title>Node17&#45;&gt;Node18</title>
<path fill="none" stroke="#191970" d="M758.2846,-224.3795C786.4917,-202.1356 838.94,-160.7754 867.7886,-138.0256"/>
<polygon fill="#191970" stroke="#191970" points="870.2461,-140.5451 875.9311,-131.6046 865.9116,-135.0485 870.2461,-140.5451"/>
</g>
<!-- Node19 -->
<g id="node19" class="node">
<title>Node19</title>
<g id="a_node19"><a xlink:href="sitkPixelIDTypeLists_8h.html" target="_top" xlink:title=" ">
<polygon fill="#ffffff" stroke="#000000" points="1113.6105,-168.5 1113.6105,-187.5 1236.6105,-187.5 1236.6105,-168.5 1113.6105,-168.5"/>
<text text-anchor="middle" x="1175.1105" y="-175.5" font-family="Helvetica,sans-Serif" font-size="10.00" fill="#000000">sitkPixelIDTypeLists.h</text>
</a>
</g>
</g>
<!-- Node17&#45;&gt;Node19 -->
<g id="edge23" class="edge">
<title>Node17&#45;&gt;Node19</title>
<path fill="none" stroke="#191970" d="M814.5582,-228.8577C895.7799,-217.401 1024.0145,-199.3129 1103.6546,-188.0792"/>
<polygon fill="#191970" stroke="#191970" points="1104.186,-191.539 1113.5991,-186.6765 1103.2082,-184.6076 1104.186,-191.539"/>
</g>
<!-- Node20 -->
<g id="node20" class="node">
<title>Node20</title>
<g id="a_node20"><a xlink:title=" ">
<polygon fill="#ffffff" stroke="#bfbfbf" points="586.6105,-112.5 586.6105,-131.5 697.6105,-131.5 697.6105,-112.5 586.6105,-112.5"/>
<text text-anchor="middle" x="642.1105" y="-119.5" font-family="Helvetica,sans-Serif" font-size="10.00" fill="#000000">Ancillary/TypeList.h</text>
</a>
</g>
</g>
<!-- Node17&#45;&gt;Node20 -->
<g id="edge32" class="edge">
<title>Node17&#45;&gt;Node20</title>
<path fill="none" stroke="#191970" d="M664.1028,-226.7922C622.1098,-217.9821 575.7106,-204.8153 563.1105,-188 547.0051,-166.5066 577.0329,-147.5036 604.5803,-135.474"/>
<polygon fill="#191970" stroke="#191970" points="606.2395,-138.5753 614.141,-131.5172 603.5626,-132.1074 606.2395,-138.5753"/>
</g>
<!-- Node22 -->
<g id="node22" class="node">
<title>Node22</title>
<g id="a_node22"><a xlink:href="sitkNonCopyable_8h.html" target="_top" xlink:title=" ">
<polygon fill="#ffffff" stroke="#000000" points="368.6105,-168.5 368.6105,-187.5 477.6105,-187.5 477.6105,-168.5 368.6105,-168.5"/>
<text text-anchor="middle" x="423.1105" y="-175.5" font-family="Helvetica,sans-Serif" font-size="10.00" fill="#000000">sitkNonCopyable.h</text>
</a>
</g>
</g>
<!-- Node17&#45;&gt;Node22 -->
<g id="edge30" class="edge">
<title>Node17&#45;&gt;Node22</title>
<path fill="none" stroke="#191970" d="M663.8221,-224.8474C608.201,-214.0224 533.5349,-199.4908 482.1882,-189.4977"/>
<polygon fill="#191970" stroke="#191970" points="482.7268,-186.0369 472.2423,-187.562 481.3895,-192.908 482.7268,-186.0369"/>
</g>
<!-- Node17&#45;&gt;Node23 -->
<g id="edge33" class="edge">
<title>Node17&#45;&gt;Node23</title>
<path fill="none" stroke="#191970" d="M781.4311,-224.4554C810.2966,-214.194 848.1344,-200.7429 875.6621,-190.9571"/>
<polygon fill="#191970" stroke="#191970" points="877.0517,-194.1778 885.3017,-187.5303 874.707,-187.5821 877.0517,-194.1778"/>
</g>
<!-- Node24 -->
<g id="node24" class="node">
<title>Node24</title>
<g id="a_node24"><a xlink:title=" ">
<polygon fill="#ffffff" stroke="#bfbfbf" points="572.6105,-168.5 572.6105,-187.5 665.6105,-187.5 665.6105,-168.5 572.6105,-168.5"/>
<text text-anchor="middle" x="619.1105" y="-175.5" font-family="Helvetica,sans-Serif" font-size="10.00" fill="#000000">unordered_map</text>
</a>
</g>
</g>
<!-- Node17&#45;&gt;Node24 -->
<g id="edge34" class="edge">
<title>Node17&#45;&gt;Node24</title>
<path fill="none" stroke="#191970" d="M709.7552,-224.4554C690.5233,-214.599 665.5494,-201.7999 646.6865,-192.1327"/>
<polygon fill="#191970" stroke="#191970" points="648.2019,-188.9765 637.7063,-187.5303 645.0093,-195.206 648.2019,-188.9765"/>
</g>
<!-- Node25 -->
<g id="node25" class="node">
<title>Node25</title>
<g id="a_node25"><a xlink:title=" ">
<polygon fill="#ffffff" stroke="#bfbfbf" points="683.6105,-168.5 683.6105,-187.5 748.6105,-187.5 748.6105,-168.5 683.6105,-168.5"/>
<text text-anchor="middle" x="716.1105" y="-175.5" font-family="Helvetica,sans-Serif" font-size="10.00" fill="#000000">functional</text>
</a>
</g>
</g>
<!-- Node17&#45;&gt;Node25 -->
<g id="edge35" class="edge">
<title>Node17&#45;&gt;Node25</title>
<path fill="none" stroke="#191970" d="M733.4251,-224.2977C730.3655,-216.1166 726.5607,-205.943 723.2977,-197.2179"/>
<polygon fill="#191970" stroke="#191970" points="726.5743,-195.9873 719.7931,-187.8469 720.0178,-198.4394 726.5743,-195.9873"/>
</g>
<!-- Node19&#45;&gt;Node5 -->
<g id="edge24" class="edge">
<title>Node19&#45;&gt;Node5</title>
<path fill="none" stroke="#191970" d="M1153.8744,-168.4862C1090.8547,-140.2534 904.7058,-56.8587 830.829,-23.7619"/>
<polygon fill="#191970" stroke="#191970" points="832.1355,-20.5121 821.5785,-19.6177 829.2736,-26.9003 832.1355,-20.5121"/>
</g>
<!-- Node19&#45;&gt;Node10 -->
<g id="edge25" class="edge">
<title>Node19&#45;&gt;Node10</title>
<path fill="none" stroke="#191970" d="M1174.1301,-168.2988C1172.3774,-154.7311 1167.7309,-129.7604 1156.1105,-112 1131.0019,-73.6243 1087.0307,-42.2774 1059.0282,-24.8841"/>
<polygon fill="#191970" stroke="#191970" points="1060.5603,-21.7201 1050.1942,-19.5304 1056.9323,-27.7065 1060.5603,-21.7201"/>
</g>
<!-- Node19&#45;&gt;Node18 -->
<g id="edge26" class="edge">
<title>Node19&#45;&gt;Node18</title>
<path fill="none" stroke="#191970" d="M1126.0996,-168.4369C1076.4658,-158.7522 999.6832,-143.7703 946.8271,-133.4569"/>
<polygon fill="#191970" stroke="#191970" points="947.4046,-130.0036 936.9193,-131.5237 946.0639,-136.8741 947.4046,-130.0036"/>
</g>
<!-- Node19&#45;&gt;Node20 -->
<g id="edge27" class="edge">
<title>Node19&#45;&gt;Node20</title>
<path fill="none" stroke="#191970" d="M1113.3283,-169.7105C1108.5196,-169.1143 1103.7373,-168.5371 1099.1105,-168 960.0593,-151.8575 796.8148,-136.2231 707.9449,-127.9908"/>
<polygon fill="#191970" stroke="#191970" points="708.0244,-124.4833 697.7447,-127.0482 707.3802,-131.4536 708.0244,-124.4833"/>
</g>
<!-- Node21 -->
<g id="node21" class="node">
<title>Node21</title>
<g id="a_node21"><a xlink:title=" ">
<polygon fill="#ffffff" stroke="#bfbfbf" points="1087.6105,-112.5 1087.6105,-131.5 1146.6105,-131.5 1146.6105,-112.5 1087.6105,-112.5"/>
<text text-anchor="middle" x="1117.1105" y="-119.5" font-family="Helvetica,sans-Serif" font-size="10.00" fill="#000000">complex</text>
</a>
</g>
</g>
<!-- Node19&#45;&gt;Node21 -->
<g id="edge28" class="edge">
<title>Node19&#45;&gt;Node21</title>
<path fill="none" stroke="#191970" d="M1165.0077,-168.2455C1156.6077,-160.1352 1144.4612,-148.4075 1134.5022,-138.7919"/>
<polygon fill="#191970" stroke="#191970" points="1136.7227,-136.0707 1127.0976,-131.6427 1131.8605,-141.1066 1136.7227,-136.0707"/>
</g>
<!-- Node22&#45;&gt;Node3 -->
<g id="edge31" class="edge">
<title>Node22&#45;&gt;Node3</title>
<path fill="none" stroke="#191970" d="M415.7947,-168.2455C409.8926,-160.3761 401.4363,-149.101 394.3512,-139.6542"/>
<polygon fill="#191970" stroke="#191970" points="397.1426,-137.5427 388.3425,-131.6427 391.5426,-141.7427 397.1426,-137.5427"/>
</g>
<!-- Node26&#45;&gt;Node10 -->
<g id="edge38" class="edge">
<title>Node26&#45;&gt;Node10</title>
<path fill="none" stroke="#191970" d="M1183.6814,-291.4642C1242.017,-277.6363 1327.1105,-245.8391 1327.1105,-178 1327.1105,-178 1327.1105,-178 1327.1105,-122 1327.1105,-71.4819 1173.6067,-35.4929 1088.4367,-19.4127"/>
<polygon fill="#191970" stroke="#191970" points="1088.8745,-15.9343 1078.4037,-17.5508 1087.5972,-22.8168 1088.8745,-15.9343"/>
</g>
<!-- Node27 -->
<g id="node27" class="node">
<title>Node27</title>
<g id="a_node27"><a xlink:href="sitkPixelIDValues_8h.html" target="_top" xlink:title=" ">
<polygon fill="#ffffff" stroke="#000000" points="1075.1105,-230 1075.1105,-249 1185.1105,-249 1185.1105,-230 1075.1105,-230"/>
<text text-anchor="middle" x="1130.1105" y="-237" font-family="Helvetica,sans-Serif" font-size="10.00" fill="#000000">sitkPixelIDValues.h</text>
</a>
</g>
</g>
<!-- Node26&#45;&gt;Node27 -->
<g id="edge39" class="edge">
<title>Node26&#45;&gt;Node27</title>
<path fill="none" stroke="#191970" d="M1130.1105,-291.3906C1130.1105,-282.8657 1130.1105,-270.1392 1130.1105,-259.4235"/>
<polygon fill="#191970" stroke="#191970" points="1133.6106,-259.2448 1130.1105,-249.2449 1126.6106,-259.2449 1133.6106,-259.2448"/>
</g>
<!-- Node26&#45;&gt;Node29 -->
<g id="edge44" class="edge">
<title>Node26&#45;&gt;Node29</title>
<path fill="none" stroke="#191970" d="M1179.8731,-291.4918C1222.8265,-282.966 1286.4073,-269.5821 1341.1105,-255 1344.5335,-254.0876 1348.0733,-253.0853 1351.6114,-252.0431"/>
<polygon fill="#191970" stroke="#191970" points="1352.931,-255.3001 1361.4795,-249.0412 1350.8938,-248.6031 1352.931,-255.3001"/>
</g>
<!-- Node27&#45;&gt;Node3 -->
<g id="edge40" class="edge">
<title>Node27&#45;&gt;Node3</title>
<path fill="none" stroke="#191970" d="M1124.9209,-229.9524C1115.5804,-213.8557 1094.2597,-181.7323 1066.1105,-168 1051.9677,-161.1005 594.7729,-134.2675 435.3195,-125.0946"/>
<polygon fill="#191970" stroke="#191970" points="435.4393,-121.5958 425.255,-124.5163 435.0377,-128.5843 435.4393,-121.5958"/>
</g>
<!-- Node27&#45;&gt;Node14 -->
<g id="edge43" class="edge">
<title>Node27&#45;&gt;Node14</title>
<path fill="none" stroke="#191970" d="M1114.173,-229.8906C1097.7054,-219.9616 1071.7847,-204.333 1052.6901,-192.8201"/>
<polygon fill="#191970" stroke="#191970" points="1054.3072,-189.7081 1043.9361,-187.5419 1050.6927,-195.7027 1054.3072,-189.7081"/>
</g>
<!-- Node27&#45;&gt;Node19 -->
<g id="edge41" class="edge">
<title>Node27&#45;&gt;Node19</title>
<path fill="none" stroke="#191970" d="M1137.1418,-229.8906C1143.7735,-220.8273 1153.8801,-207.0149 1161.9992,-195.9188"/>
<polygon fill="#191970" stroke="#191970" points="1164.8996,-197.882 1167.9801,-187.7449 1159.2504,-193.7484 1164.8996,-197.882"/>
</g>
<!-- Node28 -->
<g id="node28" class="node">
<title>Node28</title>
<g id="a_node28"><a xlink:title=" ">
<polygon fill="#ffffff" stroke="#bfbfbf" points="1255.1105,-168.5 1255.1105,-187.5 1299.1105,-187.5 1299.1105,-168.5 1255.1105,-168.5"/>
<text text-anchor="middle" x="1277.1105" y="-175.5" font-family="Helvetica,sans-Serif" font-size="10.00" fill="#000000">string</text>
</a>
</g>
</g>
<!-- Node27&#45;&gt;Node28 -->
<g id="edge42" class="edge">
<title>Node27&#45;&gt;Node28</title>
<path fill="none" stroke="#191970" d="M1153.0793,-229.8906C1177.9274,-219.495 1217.7096,-202.8514 1245.4992,-191.2252"/>
<polygon fill="#191970" stroke="#191970" points="1246.91,-194.4289 1254.7844,-187.3405 1244.2083,-187.9713 1246.91,-194.4289"/>
</g>
</g>
</svg>
