<?xml version="1.0" encoding="UTF-8" standalone="no"?>
<!DOCTYPE svg PUBLIC "-//W3C//DTD SVG 1.1//EN"
 "http://www.w3.org/Graphics/SVG/1.1/DTD/svg11.dtd">
<!-- Generated by graphviz version 2.40.1 (20161225.0304)
 -->
<!-- Title: sitkKernel.h Pages: 1 -->
<svg width="7217pt" height="218pt"
 viewBox="0.00 0.00 7216.50 218.00" xmlns="http://www.w3.org/2000/svg" xmlns:xlink="http://www.w3.org/1999/xlink">
<g id="graph0" class="graph" transform="scale(1 1) rotate(0) translate(4 214)">
<title>sitkKernel.h</title>
<polygon fill="#ffffff" stroke="transparent" points="-4,4 -4,-214 7212.5,-214 7212.5,4 -4,4"/>
<!-- Node1 -->
<g id="node1" class="node">
<title>Node1</title>
<g id="a_node1"><a xlink:title=" ">
<polygon fill="#bfbfbf" stroke="#000000" points="3473,-190.5 3473,-209.5 3547,-209.5 3547,-190.5 3473,-190.5"/>
<text text-anchor="middle" x="3510" y="-197.5" font-family="Helvetica,sans-Serif" font-size="10.00" fill="#000000">sitkKernel.h</text>
</a>
</g>
</g>
<!-- Node2 -->
<g id="node2" class="node">
<title>Node2</title>
<g id="a_node2"><a xlink:href="sitkBasicFilters_8h.html" target="_top" xlink:title=" ">
<polygon fill="#ffffff" stroke="#ff0000" points="3400.5,-134.5 3400.5,-153.5 3499.5,-153.5 3499.5,-134.5 3400.5,-134.5"/>
<text text-anchor="middle" x="3450" y="-141.5" font-family="Helvetica,sans-Serif" font-size="10.00" fill="#000000">sitkBasicFilters.h</text>
</a>
</g>
</g>
<!-- Node1&#45;&gt;Node2 -->
<g id="edge1" class="edge">
<title>Node1&#45;&gt;Node2</title>
<path fill="none" stroke="#191970" d="M3492.1722,-183.3607C3481.7922,-173.6727 3469.0709,-161.7995 3460.3314,-153.6427"/>
<polygon fill="#191970" stroke="#191970" points="3489.8501,-185.981 3499.5488,-190.2455 3494.6263,-180.8636 3489.8501,-185.981"/>
</g>
<!-- Node306 -->
<g id="node50" class="node">
<title>Node306</title>
<g id="a_node50"><a xlink:href="sitkCreateKernel_8h.html" target="_top" xlink:title=" ">
<polygon fill="#ffffff" stroke="#000000" points="3517.5,-134.5 3517.5,-153.5 3624.5,-153.5 3624.5,-134.5 3517.5,-134.5"/>
<text text-anchor="middle" x="3571" y="-141.5" font-family="Helvetica,sans-Serif" font-size="10.00" fill="#000000">sitkCreateKernel.h</text>
</a>
</g>
</g>
<!-- Node1&#45;&gt;Node306 -->
<g id="edge92" class="edge">
<title>Node1&#45;&gt;Node306</title>
<path fill="none" stroke="#191970" d="M3528.1249,-183.3607C3538.678,-173.6727 3551.6112,-161.7995 3560.4964,-153.6427"/>
<polygon fill="#191970" stroke="#191970" points="3525.625,-180.9045 3520.6254,-190.2455 3530.3589,-186.0611 3525.625,-180.9045"/>
</g>
<!-- Node3 -->
<g id="node3" class="node">
<title>Node3</title>
<g id="a_node3"><a xlink:href="sitkAdditionalProcedures_8h.html" target="_top" xlink:title=" ">
<polygon fill="#ffffff" stroke="#ff0000" points="2399.5,-73 2399.5,-92 2546.5,-92 2546.5,-73 2399.5,-73"/>
<text text-anchor="middle" x="2473" y="-80" font-family="Helvetica,sans-Serif" font-size="10.00" fill="#000000">sitkAdditionalProcedures.h</text>
</a>
</g>
</g>
<!-- Node2&#45;&gt;Node3 -->
<g id="edge2" class="edge">
<title>Node2&#45;&gt;Node3</title>
<path fill="none" stroke="#191970" d="M3389.8324,-143.4285C3246.076,-141.5098 2871.4847,-133.242 2561,-98 2547.8981,-96.5129 2533.7952,-94.3045 2520.8003,-92.0177"/>
<polygon fill="#191970" stroke="#191970" points="3390.1426,-146.9326 3400.1866,-143.5609 3390.2322,-139.9332 3390.1426,-146.9326"/>
</g>
<!-- Node5 -->
<g id="node4" class="node">
<title>Node5</title>
<g id="a_node4"><a xlink:href="sitkBSplineTransformInitializerFilter_8h.html" target="_top" xlink:title=" ">
<polygon fill="#ffffff" stroke="#ff0000" points="0,-.5 0,-30.5 166,-30.5 166,-.5 0,-.5"/>
<text text-anchor="start" x="8" y="-18.5" font-family="Helvetica,sans-Serif" font-size="10.00" fill="#000000">sitkBSplineTransformInitializer</text>
<text text-anchor="middle" x="83" y="-7.5" font-family="Helvetica,sans-Serif" font-size="10.00" fill="#000000">Filter.h</text>
</a>
</g>
</g>
<!-- Node2&#45;&gt;Node5 -->
<g id="edge3" class="edge">
<title>Node2&#45;&gt;Node5</title>
<path fill="none" stroke="#191970" d="M3390.2224,-143.126C3207.1845,-140.1282 2662.3597,-128.6988 2589,-98 2570.1358,-90.1059 2574.0117,-74.5319 2555,-67 2432.059,-18.2944 306.69,-43.0193 175,-31 172.0966,-30.735 169.1466,-30.4306 166.1709,-30.0938"/>
<polygon fill="#191970" stroke="#191970" points="3390.4119,-146.6294 3400.467,-143.2911 3390.5248,-139.6303 3390.4119,-146.6294"/>
</g>
<!-- Node6 -->
<g id="node5" class="node">
<title>Node6</title>
<g id="a_node5"><a xlink:href="sitkImageFilter_8h.html" target="_top" xlink:title=" ">
<polygon fill="#ffffff" stroke="#ff0000" points="3401,-73 3401,-92 3499,-92 3499,-73 3401,-73"/>
<text text-anchor="middle" x="3450" y="-80" font-family="Helvetica,sans-Serif" font-size="10.00" fill="#000000">sitkImageFilter.h</text>
</a>
</g>
</g>
<!-- Node2&#45;&gt;Node6 -->
<g id="edge4" class="edge">
<title>Node2&#45;&gt;Node6</title>
<path fill="none" stroke="#191970" d="M3450,-124.2462C3450,-113.5519 3450,-100.814 3450,-92.2449"/>
<polygon fill="#191970" stroke="#191970" points="3446.5001,-124.3906 3450,-134.3906 3453.5001,-124.3907 3446.5001,-124.3906"/>
</g>
<!-- Node8 -->
<g id="node6" class="node">
<title>Node8</title>
<g id="a_node6"><a xlink:href="sitkExtractImageFilter_8h.html" target="_top" xlink:title=" ">
<polygon fill="#ffffff" stroke="#ff0000" points="184,-6 184,-25 316,-25 316,-6 184,-6"/>
<text text-anchor="middle" x="250" y="-13" font-family="Helvetica,sans-Serif" font-size="10.00" fill="#000000">sitkExtractImageFilter.h</text>
</a>
</g>
</g>
<!-- Node2&#45;&gt;Node8 -->
<g id="edge50" class="edge">
<title>Node2&#45;&gt;Node8</title>
<path fill="none" stroke="#191970" d="M3390.2191,-142.7894C3212.8506,-138.9009 2697.5156,-125.3557 2627,-98 2606.6796,-90.1169 2609.4738,-74.4758 2589,-67 2470.837,-23.8541 450.0355,-44.7905 325,-31 313.2379,-29.7027 300.5893,-27.4341 289.0921,-25.0262"/>
<polygon fill="#191970" stroke="#191970" points="3390.3367,-146.2927 3400.4102,-143.0103 3390.4885,-139.2943 3390.3367,-146.2927"/>
</g>
<!-- Node9 -->
<g id="node7" class="node">
<title>Node9</title>
<g id="a_node7"><a xlink:href="sitkHashImageFilter_8h.html" target="_top" xlink:title=" ">
<polygon fill="#ffffff" stroke="#ff0000" points="334,-6 334,-25 456,-25 456,-6 334,-6"/>
<text text-anchor="middle" x="395" y="-13" font-family="Helvetica,sans-Serif" font-size="10.00" fill="#000000">sitkHashImageFilter.h</text>
</a>
</g>
</g>
<!-- Node2&#45;&gt;Node9 -->
<g id="edge51" class="edge">
<title>Node2&#45;&gt;Node9</title>
<path fill="none" stroke="#191970" d="M3390.3462,-142.6178C3218.7563,-138.3468 2731.8897,-124.0529 2665,-98 2644.6902,-90.0896 2647.471,-74.4834 2627,-67 2514.1747,-25.7552 584.3025,-45.0564 465,-31 453.9981,-29.7037 442.1855,-27.4354 431.4555,-25.0275"/>
<polygon fill="#191970" stroke="#191970" points="3390.378,-146.1195 3400.4612,-142.867 3390.5504,-139.1216 3390.378,-146.1195"/>
</g>
<!-- Node10 -->
<g id="node8" class="node">
<title>Node10</title>
<g id="a_node8"><a xlink:href="sitkLandmarkBasedTransformInitializerFilter_8h.html" target="_top" xlink:title=" ">
<polygon fill="#ffffff" stroke="#ff0000" points="474,-.5 474,-30.5 636,-30.5 636,-.5 474,-.5"/>
<text text-anchor="start" x="482" y="-18.5" font-family="Helvetica,sans-Serif" font-size="10.00" fill="#000000">sitkLandmarkBasedTransform</text>
<text text-anchor="middle" x="555" y="-7.5" font-family="Helvetica,sans-Serif" font-size="10.00" fill="#000000">InitializerFilter.h</text>
</a>
</g>
</g>
<!-- Node2&#45;&gt;Node10 -->
<g id="edge52" class="edge">
<title>Node2&#45;&gt;Node10</title>
<path fill="none" stroke="#191970" d="M3390.3914,-142.427C3224.6379,-137.7592 2766.2611,-122.7478 2703,-98 2682.702,-90.0594 2685.4666,-74.4954 2665,-67 2559.6055,-28.4017 756.7426,-41.5557 645,-31 642.1587,-30.7316 639.2721,-30.4243 636.3605,-30.0849"/>
<polygon fill="#191970" stroke="#191970" points="3390.3177,-145.9262 3400.4115,-142.7066 3390.513,-138.9289 3390.3177,-145.9262"/>
</g>
<!-- Node11 -->
<g id="node9" class="node">
<title>Node11</title>
<g id="a_node9"><a xlink:href="sitkPasteImageFilter_8h.html" target="_top" xlink:title=" ">
<polygon fill="#ffffff" stroke="#ff0000" points="654,-6 654,-25 778,-25 778,-6 654,-6"/>
<text text-anchor="middle" x="716" y="-13" font-family="Helvetica,sans-Serif" font-size="10.00" fill="#000000">sitkPasteImageFilter.h</text>
</a>
</g>
</g>
<!-- Node2&#45;&gt;Node11 -->
<g id="edge53" class="edge">
<title>Node2&#45;&gt;Node11</title>
<path fill="none" stroke="#191970" d="M3390.151,-142.2071C3230.153,-137.1201 2800.6059,-121.431 2741,-98 2720.7151,-90.026 2723.4629,-74.5053 2703,-67 2603.0477,-30.3399 892.7371,-43.4132 787,-31 775.8477,-29.6908 763.8684,-27.4184 752.9849,-25.0109"/>
<polygon fill="#191970" stroke="#191970" points="3390.1879,-145.7099 3400.2932,-142.5268 3390.4085,-138.7134 3390.1879,-145.7099"/>
</g>
<!-- Node12 -->
<g id="node10" class="node">
<title>Node12</title>
<g id="a_node10"><a xlink:href="sitkAbsImageFilter_8h.html" target="_top" xlink:title=" ">
<polygon fill="#ffffff" stroke="#ff0000" points="796,-6 796,-25 912,-25 912,-6 796,-6"/>
<text text-anchor="middle" x="854" y="-13" font-family="Helvetica,sans-Serif" font-size="10.00" fill="#000000">sitkAbsImageFilter.h</text>
</a>
</g>
</g>
<!-- Node2&#45;&gt;Node12 -->
<g id="edge54" class="edge">
<title>Node2&#45;&gt;Node12</title>
<path fill="none" stroke="#191970" d="M3390.1936,-141.9715C3236.3473,-136.4611 2834.9964,-120.1304 2779,-98 2758.7297,-89.989 2761.4592,-74.5154 2741,-67 2551.1424,2.7419 1121.7198,-55.9281 921,-31 910.4552,-29.6904 899.1443,-27.418 888.8746,-25.0105"/>
<polygon fill="#191970" stroke="#191970" points="3390.2812,-145.4768 3400.3992,-142.3342 3390.5299,-138.4812 3390.2812,-145.4768"/>
</g>
<!-- Node15 -->
<g id="node11" class="node">
<title>Node15</title>
<g id="a_node11"><a xlink:href="sitkAbsoluteValueDifferenceImageFilter_8h.html" target="_top" xlink:title=" ">
<polygon fill="#ffffff" stroke="#ff0000" points="930.5,-.5 930.5,-30.5 1085.5,-30.5 1085.5,-.5 930.5,-.5"/>
<text text-anchor="start" x="938.5" y="-18.5" font-family="Helvetica,sans-Serif" font-size="10.00" fill="#000000">sitkAbsoluteValueDifference</text>
<text text-anchor="middle" x="1008" y="-7.5" font-family="Helvetica,sans-Serif" font-size="10.00" fill="#000000">ImageFilter.h</text>
</a>
</g>
</g>
<!-- Node2&#45;&gt;Node15 -->
<g id="edge55" class="edge">
<title>Node2&#45;&gt;Node15</title>
<path fill="none" stroke="#191970" d="M3390.0045,-141.6988C3242.3229,-135.7423 2869.3699,-118.8212 2817,-98 2796.7461,-89.9475 2799.4533,-74.5316 2779,-67 2603.2707,-2.29 1280.3324,-49.6655 1094,-31 1091.2828,-30.7278 1088.5225,-30.4173 1085.7387,-30.0751"/>
<polygon fill="#191970" stroke="#191970" points="3390.1087,-145.2057 3400.2407,-142.1086 3390.3888,-138.2113 3390.1087,-145.2057"/>
</g>
<!-- Node16 -->
<g id="node12" class="node">
<title>Node16</title>
<g id="a_node12"><a xlink:href="sitkAcosImageFilter_8h.html" target="_top" xlink:title=" ">
<polygon fill="#ffffff" stroke="#ff0000" points="1103.5,-6 1103.5,-25 1224.5,-25 1224.5,-6 1103.5,-6"/>
<text text-anchor="middle" x="1164" y="-13" font-family="Helvetica,sans-Serif" font-size="10.00" fill="#000000">sitkAcosImageFilter.h</text>
</a>
</g>
</g>
<!-- Node2&#45;&gt;Node16 -->
<g id="edge56" class="edge">
<title>Node2&#45;&gt;Node16</title>
<path fill="none" stroke="#191970" d="M3390.1653,-141.4064C3249.0824,-135.0015 2903.7967,-117.5311 2855,-98 2834.7648,-89.9008 2837.4481,-74.5456 2817,-67 2651.8406,-6.0545 1407.7402,-52.3975 1233,-31 1222.2757,-29.6868 1210.7711,-27.4449 1200.2898,-25.0679"/>
<polygon fill="#191970" stroke="#191970" points="3390.2181,-144.9123 3400.3656,-141.8664 3390.5335,-137.9194 3390.2181,-144.9123"/>
</g>
<!-- Node17 -->
<g id="node13" class="node">
<title>Node17</title>
<g id="a_node13"><a xlink:href="sitkAdaptiveHistogramEqualizationImageFilter_8h.html" target="_top" xlink:title=" ">
<polygon fill="#ffffff" stroke="#ff0000" points="1242.5,-.5 1242.5,-30.5 1431.5,-30.5 1431.5,-.5 1242.5,-.5"/>
<text text-anchor="start" x="1250.5" y="-18.5" font-family="Helvetica,sans-Serif" font-size="10.00" fill="#000000">sitkAdaptiveHistogramEqualization</text>
<text text-anchor="middle" x="1337" y="-7.5" font-family="Helvetica,sans-Serif" font-size="10.00" fill="#000000">ImageFilter.h</text>
</a>
</g>
</g>
<!-- Node2&#45;&gt;Node17 -->
<g id="edge57" class="edge">
<title>Node2&#45;&gt;Node17</title>
<path fill="none" stroke="#191970" d="M3390.2055,-141.0692C3255.8457,-134.1961 2938.2219,-116.2379 2893,-98 2872.7861,-89.8478 2875.4378,-74.5735 2855,-67 2707.6307,-12.3905 1597.5717,-44.6092 1441,-31 1437.9083,-30.7313 1434.7686,-30.4299 1431.6009,-30.1014"/>
<polygon fill="#191970" stroke="#191970" points="3390.1606,-144.5714 3400.3254,-141.5836 3390.516,-137.5804 3390.1606,-144.5714"/>
</g>
<!-- Node18 -->
<g id="node14" class="node">
<title>Node18</title>
<g id="a_node14"><a xlink:href="sitkAddImageFilter_8h.html" target="_top" xlink:title=" ">
<polygon fill="#ffffff" stroke="#ff0000" points="1450,-6 1450,-25 1566,-25 1566,-6 1450,-6"/>
<text text-anchor="middle" x="1508" y="-13" font-family="Helvetica,sans-Serif" font-size="10.00" fill="#000000">sitkAddImageFilter.h</text>
</a>
</g>
</g>
<!-- Node2&#45;&gt;Node18 -->
<g id="edge58" class="edge">
<title>Node2&#45;&gt;Node18</title>
<path fill="none" stroke="#191970" d="M3389.7582,-143.0744C3271.3597,-140.5381 3012.7418,-131.2519 2931,-98 2910.8106,-89.7871 2913.4308,-74.5924 2893,-67 2755.6765,-15.9683 1720.3132,-49.6027 1575,-31 1564.5786,-29.6659 1553.4049,-27.4174 1543.2276,-25.0409"/>
<polygon fill="#191970" stroke="#191970" points="3390.0169,-146.5803 3400.0865,-143.286 3390.1603,-139.5818 3390.0169,-146.5803"/>
</g>
<!-- Node20 -->
<g id="node15" class="node">
<title>Node20</title>
<g id="a_node15"><a xlink:href="sitkAdditiveGaussianNoiseImageFilter_8h.html" target="_top" xlink:title=" ">
<polygon fill="#ffffff" stroke="#ff0000" points="1584,-.5 1584,-30.5 1732,-30.5 1732,-.5 1584,-.5"/>
<text text-anchor="start" x="1592" y="-18.5" font-family="Helvetica,sans-Serif" font-size="10.00" fill="#000000">sitkAdditiveGaussianNoise</text>
<text text-anchor="middle" x="1658" y="-7.5" font-family="Helvetica,sans-Serif" font-size="10.00" fill="#000000">ImageFilter.h</text>
</a>
</g>
</g>
<!-- Node2&#45;&gt;Node20 -->
<g id="edge59" class="edge">
<title>Node2&#45;&gt;Node20</title>
<path fill="none" stroke="#191970" d="M3390.0885,-142.5891C3278.592,-139.2575 3043.7751,-128.7209 2969,-98 2948.8393,-89.7171 2951.4196,-74.6224 2931,-67 2807.0702,-20.7385 1872.5201,-45.184 1741,-31 1738.0851,-30.6856 1735.1191,-30.3258 1732.1278,-29.9295"/>
<polygon fill="#191970" stroke="#191970" points="3390.0645,-146.0898 3400.1616,-142.8804 3390.267,-139.0927 3390.0645,-146.0898"/>
</g>
<!-- Node21 -->
<g id="node16" class="node">
<title>Node21</title>
<g id="a_node16"><a xlink:href="sitkAggregateLabelMapFilter_8h.html" target="_top" xlink:title=" ">
<polygon fill="#ffffff" stroke="#ff0000" points="1750,-6 1750,-25 1914,-25 1914,-6 1750,-6"/>
<text text-anchor="middle" x="1832" y="-13" font-family="Helvetica,sans-Serif" font-size="10.00" fill="#000000">sitkAggregateLabelMapFilter.h</text>
</a>
</g>
</g>
<!-- Node2&#45;&gt;Node21 -->
<g id="edge60" class="edge">
<title>Node2&#45;&gt;Node21</title>
<path fill="none" stroke="#191970" d="M3390.2507,-142.0205C3285.8336,-137.8656 3074.8056,-126.1799 3007,-98 2986.8731,-89.6353 2989.4037,-74.6649 2969,-67 2860.1369,-26.1045 2038.6918,-42.7899 1923,-31 1909.2885,-29.6027 1894.5197,-27.395 1880.9514,-25.079"/>
<polygon fill="#191970" stroke="#191970" points="3390.1898,-145.5207 3400.318,-142.4108 3390.4611,-138.5259 3390.1898,-145.5207"/>
</g>
<!-- Node22 -->
<g id="node17" class="node">
<title>Node22</title>
<g id="a_node17"><a xlink:href="sitkAndImageFilter_8h.html" target="_top" xlink:title=" ">
<polygon fill="#ffffff" stroke="#ff0000" points="1932,-6 1932,-25 2048,-25 2048,-6 1932,-6"/>
<text text-anchor="middle" x="1990" y="-13" font-family="Helvetica,sans-Serif" font-size="10.00" fill="#000000">sitkAndImageFilter.h</text>
</a>
</g>
</g>
<!-- Node2&#45;&gt;Node22 -->
<g id="edge61" class="edge">
<title>Node2&#45;&gt;Node22</title>
<path fill="none" stroke="#191970" d="M3390.0352,-141.3305C3292.8787,-136.3174 3105.7981,-123.6116 3045,-98 3024.9136,-89.5385 3027.3904,-74.7003 3007,-67 2908.1804,-29.6815 2161.7039,-44.9668 2057,-31 2046.7041,-29.6266 2035.6682,-27.3965 2025.5842,-25.0507"/>
<polygon fill="#191970" stroke="#191970" points="3390.1231,-144.8394 3400.2869,-141.8482 3390.4761,-137.8483 3390.1231,-144.8394"/>
</g>
<!-- Node23 -->
<g id="node18" class="node">
<title>Node23</title>
<g id="a_node18"><a xlink:href="sitkAntiAliasBinaryImageFilter_8h.html" target="_top" xlink:title=" ">
<polygon fill="#ffffff" stroke="#ff0000" points="2066,-.5 2066,-30.5 2206,-30.5 2206,-.5 2066,-.5"/>
<text text-anchor="start" x="2074" y="-18.5" font-family="Helvetica,sans-Serif" font-size="10.00" fill="#000000">sitkAntiAliasBinaryImage</text>
<text text-anchor="middle" x="2136" y="-7.5" font-family="Helvetica,sans-Serif" font-size="10.00" fill="#000000">Filter.h</text>
</a>
</g>
</g>
<!-- Node2&#45;&gt;Node23 -->
<g id="edge62" class="edge">
<title>Node2&#45;&gt;Node23</title>
<path fill="none" stroke="#191970" d="M3390.2415,-140.5246C3300.8193,-134.6504 3136.9282,-121.0866 3083,-98 3062.963,-89.4222 3065.3692,-74.756 3045,-67 2872.4665,-1.3042 2398.3222,-52.8341 2215,-31 2212.0855,-30.6529 2209.1175,-30.2584 2206.1245,-29.8267"/>
<polygon fill="#191970" stroke="#191970" points="3390.0334,-144.0184 3400.238,-141.1696 3390.4842,-137.0329 3390.0334,-144.0184"/>
</g>
<!-- Node24 -->
<g id="node19" class="node">
<title>Node24</title>
<g id="a_node19"><a xlink:href="sitkApproximateSignedDistanceMapImageFilter_8h.html" target="_top" xlink:title=" ">
<polygon fill="#ffffff" stroke="#ff0000" points="2224.5,-.5 2224.5,-30.5 2397.5,-30.5 2397.5,-.5 2224.5,-.5"/>
<text text-anchor="start" x="2232.5" y="-18.5" font-family="Helvetica,sans-Serif" font-size="10.00" fill="#000000">sitkApproximateSignedDistance</text>
<text text-anchor="middle" x="2311" y="-7.5" font-family="Helvetica,sans-Serif" font-size="10.00" fill="#000000">MapImageFilter.h</text>
</a>
</g>
</g>
<!-- Node2&#45;&gt;Node24 -->
<g id="edge63" class="edge">
<title>Node2&#45;&gt;Node24</title>
<path fill="none" stroke="#191970" d="M3390.2657,-139.5254C3308.9324,-132.7742 3168.0772,-118.5512 3121,-98 3101.0245,-89.2799 3103.3311,-74.8555 3083,-67 2942.4682,-12.7013 2555.7885,-47.1539 2406,-31 2403.2586,-30.7044 2400.4759,-30.3824 2397.6686,-30.0388"/>
<polygon fill="#191970" stroke="#191970" points="3390.1111,-143.0243 3400.363,-140.3505 3390.6813,-136.0476 3390.1111,-143.0243"/>
</g>
<!-- Node25 -->
<g id="node20" class="node">
<title>Node25</title>
<g id="a_node20"><a xlink:href="sitkAsinImageFilter_8h.html" target="_top" xlink:title=" ">
<polygon fill="#ffffff" stroke="#ff0000" points="2415.5,-6 2415.5,-25 2534.5,-25 2534.5,-6 2415.5,-6"/>
<text text-anchor="middle" x="2475" y="-13" font-family="Helvetica,sans-Serif" font-size="10.00" fill="#000000">sitkAsinImageFilter.h</text>
</a>
</g>
</g>
<!-- Node2&#45;&gt;Node25 -->
<g id="edge64" class="edge">
<title>Node2&#45;&gt;Node25</title>
<path fill="none" stroke="#191970" d="M3390.3372,-138.2764C3317.5764,-130.6569 3199.3019,-116.0237 3159,-98 3139.1032,-89.1018 3141.2948,-74.9488 3121,-67 3001.3766,-20.1474 2671.185,-49.136 2544,-31 2533.6685,-29.5268 2522.5908,-27.3231 2512.4015,-25.0364"/>
<polygon fill="#191970" stroke="#191970" points="3389.9824,-141.7582 3400.2892,-139.3046 3390.7018,-134.7953 3389.9824,-141.7582"/>
</g>
<!-- Node26 -->
<g id="node21" class="node">
<title>Node26</title>
<g id="a_node21"><a xlink:href="sitkAtan2ImageFilter_8h.html" target="_top" xlink:title=" ">
<polygon fill="#ffffff" stroke="#ff0000" points="2553,-6 2553,-25 2679,-25 2679,-6 2553,-6"/>
<text text-anchor="middle" x="2616" y="-13" font-family="Helvetica,sans-Serif" font-size="10.00" fill="#000000">sitkAtan2ImageFilter.h</text>
</a>
</g>
</g>
<!-- Node2&#45;&gt;Node26 -->
<g id="edge65" class="edge">
<title>Node2&#45;&gt;Node26</title>
<path fill="none" stroke="#191970" d="M3390.5111,-136.6758C3326.8946,-128.2298 3230.6238,-113.5051 3197,-98 3177.2072,-88.8728 3179.2387,-75.0904 3159,-67 3061.5275,-28.0355 2791.883,-46.0807 2688,-31 2677.4974,-29.4753 2666.2366,-27.31 2655.8133,-25.0797"/>
<polygon fill="#191970" stroke="#191970" points="3390.0559,-140.1459 3400.4262,-137.9765 3390.9664,-133.2054 3390.0559,-140.1459"/>
</g>
<!-- Node27 -->
<g id="node22" class="node">
<title>Node27</title>
<g id="a_node22"><a xlink:href="sitkAtanImageFilter_8h.html" target="_top" xlink:title=" ">
<polygon fill="#ffffff" stroke="#ff0000" points="2697,-6 2697,-25 2817,-25 2817,-6 2697,-6"/>
<text text-anchor="middle" x="2757" y="-13" font-family="Helvetica,sans-Serif" font-size="10.00" fill="#000000">sitkAtanImageFilter.h</text>
</a>
</g>
</g>
<!-- Node2&#45;&gt;Node27 -->
<g id="edge66" class="edge">
<title>Node2&#45;&gt;Node27</title>
<path fill="none" stroke="#191970" d="M3390.3863,-138.871C3345.8155,-133.2606 3284.3243,-121.6766 3235,-98 3215.3506,-88.5679 3217.155,-75.2969 3197,-67 3043.8088,-3.938 2989.5776,-57.2052 2826,-31 2816.059,-29.4075 2805.4071,-27.2448 2795.5196,-25.0407"/>
<polygon fill="#191970" stroke="#191970" points="3390.1356,-142.3658 3400.4801,-140.0762 3390.9656,-135.4152 3390.1356,-142.3658"/>
</g>
<!-- Node28 -->
<g id="node23" class="node">
<title>Node28</title>
<g id="a_node23"><a xlink:href="sitkBSplineDecompositionImageFilter_8h.html" target="_top" xlink:title=" ">
<polygon fill="#ffffff" stroke="#ff0000" points="2835.5,-.5 2835.5,-30.5 2980.5,-30.5 2980.5,-.5 2835.5,-.5"/>
<text text-anchor="start" x="2843.5" y="-18.5" font-family="Helvetica,sans-Serif" font-size="10.00" fill="#000000">sitkBSplineDecomposition</text>
<text text-anchor="middle" x="2908" y="-7.5" font-family="Helvetica,sans-Serif" font-size="10.00" fill="#000000">ImageFilter.h</text>
</a>
</g>
</g>
<!-- Node2&#45;&gt;Node28 -->
<g id="edge67" class="edge">
<title>Node2&#45;&gt;Node28</title>
<path fill="none" stroke="#191970" d="M3390.0799,-135.0566C3354.6715,-128.1829 3309.7272,-116.6228 3273,-98 3253.5603,-88.143 3254.9475,-75.784 3235,-67 3133.8728,-22.4684 3097.9571,-49.3883 2989,-31 2986.3176,-30.5473 2983.5871,-30.0764 2980.8306,-29.5925"/>
<polygon fill="#191970" stroke="#191970" points="3389.7975,-138.5642 3400.2698,-136.9575 3391.0812,-131.6829 3389.7975,-138.5642"/>
</g>
<!-- Node29 -->
<g id="node24" class="node">
<title>Node29</title>
<g id="a_node24"><a xlink:href="sitkBilateralImageFilter_8h.html" target="_top" xlink:title=" ">
<polygon fill="#ffffff" stroke="#ff0000" points="2998.5,-6 2998.5,-25 3137.5,-25 3137.5,-6 2998.5,-6"/>
<text text-anchor="middle" x="3068" y="-13" font-family="Helvetica,sans-Serif" font-size="10.00" fill="#000000">sitkBilateralImageFilter.h</text>
</a>
</g>
</g>
<!-- Node2&#45;&gt;Node29 -->
<g id="edge68" class="edge">
<title>Node2&#45;&gt;Node29</title>
<path fill="none" stroke="#191970" d="M3403.2228,-131.6322C3376.8324,-123.7572 3343.6977,-112.3374 3316,-98 3295.0772,-87.1696 3294.3618,-76.9365 3273,-67 3245.1341,-54.0382 3165.9719,-35.9907 3114.569,-25.0617"/>
<polygon fill="#191970" stroke="#191970" points="3402.4017,-135.0385 3412.9816,-134.4755 3404.3598,-128.3179 3402.4017,-135.0385"/>
</g>
<!-- Node30 -->
<g id="node25" class="node">
<title>Node30</title>
<g id="a_node25"><a xlink:href="sitkBinShrinkImageFilter_8h.html" target="_top" xlink:title=" ">
<polygon fill="#ffffff" stroke="#ff0000" points="3156,-6 3156,-25 3300,-25 3300,-6 3156,-6"/>
<text text-anchor="middle" x="3228" y="-13" font-family="Helvetica,sans-Serif" font-size="10.00" fill="#000000">sitkBinShrinkImageFilter.h</text>
</a>
</g>
</g>
<!-- Node2&#45;&gt;Node30 -->
<g id="edge69" class="edge">
<title>Node2&#45;&gt;Node30</title>
<path fill="none" stroke="#191970" d="M3424.5626,-129.2761C3378.6311,-102.6896 3283.0533,-47.3664 3244.5769,-25.0952"/>
<polygon fill="#191970" stroke="#191970" points="3422.9058,-132.3611 3433.3139,-134.3416 3426.4126,-126.3028 3422.9058,-132.3611"/>
</g>
<!-- Node31 -->
<g id="node26" class="node">
<title>Node31</title>
<g id="a_node26"><a xlink:href="sitkBinaryClosingByReconstructionImageFilter_8h.html" target="_top" xlink:title=" ">
<polygon fill="#ffffff" stroke="#ff0000" points="3318.5,-.5 3318.5,-30.5 3505.5,-30.5 3505.5,-.5 3318.5,-.5"/>
<text text-anchor="start" x="3326.5" y="-18.5" font-family="Helvetica,sans-Serif" font-size="10.00" fill="#000000">sitkBinaryClosingByReconstruction</text>
<text text-anchor="middle" x="3412" y="-7.5" font-family="Helvetica,sans-Serif" font-size="10.00" fill="#000000">ImageFilter.h</text>
</a>
</g>
</g>
<!-- Node2&#45;&gt;Node31 -->
<g id="edge70" class="edge">
<title>Node2&#45;&gt;Node31</title>
<path fill="none" stroke="#191970" d="M3421.6451,-129.0855C3410.2235,-121.4519 3398.2828,-111.0019 3392,-98 3381.3557,-75.9723 3392.9251,-47.8229 3402.3755,-30.7529"/>
<polygon fill="#191970" stroke="#191970" points="3419.8316,-132.0791 3430.1759,-134.3695 3423.5177,-126.1282 3419.8316,-132.0791"/>
</g>
<!-- Node32 -->
<g id="node27" class="node">
<title>Node32</title>
<g id="a_node27"><a xlink:href="sitkBinaryContourImageFilter_8h.html" target="_top" xlink:title=" ">
<polygon fill="#ffffff" stroke="#ff0000" points="3523.5,-6 3523.5,-25 3690.5,-25 3690.5,-6 3523.5,-6"/>
<text text-anchor="middle" x="3607" y="-13" font-family="Helvetica,sans-Serif" font-size="10.00" fill="#000000">sitkBinaryContourImageFilter.h</text>
</a>
</g>
</g>
<!-- Node2&#45;&gt;Node32 -->
<g id="edge71" class="edge">
<title>Node2&#45;&gt;Node32</title>
<path fill="none" stroke="#191970" d="M3470.4121,-128.0071C3481.5698,-119.2159 3495.6035,-108.0786 3508,-98 3539.9418,-72.0307 3577.1108,-40.7726 3595.4917,-25.2442"/>
<polygon fill="#191970" stroke="#191970" points="3468.2129,-125.2839 3462.515,-134.2161 3472.5395,-130.7867 3468.2129,-125.2839"/>
</g>
<!-- Node33 -->
<g id="node28" class="node">
<title>Node33</title>
<g id="a_node28"><a xlink:href="sitkBinaryDilateImageFilter_8h.html" target="_top" xlink:title=" ">
<polygon fill="#ffffff" stroke="#ff0000" points="3708,-6 3708,-25 3866,-25 3866,-6 3708,-6"/>
<text text-anchor="middle" x="3787" y="-13" font-family="Helvetica,sans-Serif" font-size="10.00" fill="#000000">sitkBinaryDilateImageFilter.h</text>
</a>
</g>
</g>
<!-- Node2&#45;&gt;Node33 -->
<g id="edge72" class="edge">
<title>Node2&#45;&gt;Node33</title>
<path fill="none" stroke="#191970" d="M3479.225,-129.9096C3497.0097,-121.127 3520.065,-109.3688 3540,-98 3562.3857,-85.2336 3565.3582,-77.255 3589,-67 3635.434,-46.8584 3691.524,-33.1829 3732.1326,-25.0157"/>
<polygon fill="#191970" stroke="#191970" points="3477.3785,-126.9168 3469.9401,-134.4614 3480.4598,-133.2022 3477.3785,-126.9168"/>
</g>
<!-- Node34 -->
<g id="node29" class="node">
<title>Node34</title>
<g id="a_node29"><a xlink:href="sitkBinaryErodeImageFilter_8h.html" target="_top" xlink:title=" ">
<polygon fill="#ffffff" stroke="#ff0000" points="3884.5,-6 3884.5,-25 4041.5,-25 4041.5,-6 3884.5,-6"/>
<text text-anchor="middle" x="3963" y="-13" font-family="Helvetica,sans-Serif" font-size="10.00" fill="#000000">sitkBinaryErodeImageFilter.h</text>
</a>
</g>
</g>
<!-- Node2&#45;&gt;Node34 -->
<g id="edge73" class="edge">
<title>Node2&#45;&gt;Node34</title>
<path fill="none" stroke="#191970" d="M3492.9735,-131.4286C3518.5572,-123.2748 3551.3235,-111.6429 3579,-98 3601.7785,-86.7715 3603.2216,-75.9176 3627,-67 3731.2849,-27.89 3765.0319,-48.6621 3875,-31 3886.4875,-29.155 3898.7971,-27.0606 3910.4612,-25.0214"/>
<polygon fill="#191970" stroke="#191970" points="3491.6924,-128.162 3483.1937,-134.4884 3493.7826,-134.8427 3491.6924,-128.162"/>
</g>
<!-- Node35 -->
<g id="node30" class="node">
<title>Node35</title>
<g id="a_node30"><a xlink:href="sitkBinaryFillholeImageFilter_8h.html" target="_top" xlink:title=" ">
<polygon fill="#ffffff" stroke="#ff0000" points="4060,-6 4060,-25 4224,-25 4224,-6 4060,-6"/>
<text text-anchor="middle" x="4142" y="-13" font-family="Helvetica,sans-Serif" font-size="10.00" fill="#000000">sitkBinaryFillholeImageFilter.h</text>
</a>
</g>
</g>
<!-- Node2&#45;&gt;Node35 -->
<g id="edge74" class="edge">
<title>Node2&#45;&gt;Node35</title>
<path fill="none" stroke="#191970" d="M3509.4357,-132.2742C3542.0325,-124.705 3582.676,-113.374 3617,-98 3640.1769,-87.6189 3641.0023,-75.3094 3665,-67 3827.3977,-10.7684 3879.5942,-53.2911 4050,-31 4062.8484,-29.3193 4076.6509,-27.1753 4089.5565,-25.0218"/>
<polygon fill="#191970" stroke="#191970" points="3508.5738,-128.8807 3499.5937,-134.5028 3510.1198,-135.7078 3508.5738,-128.8807"/>
</g>
<!-- Node36 -->
<g id="node31" class="node">
<title>Node36</title>
<g id="a_node31"><a xlink:href="sitkBinaryGrindPeakImageFilter_8h.html" target="_top" xlink:title=" ">
<polygon fill="#ffffff" stroke="#ff0000" points="4242.5,-.5 4242.5,-30.5 4389.5,-30.5 4389.5,-.5 4242.5,-.5"/>
<text text-anchor="start" x="4250.5" y="-18.5" font-family="Helvetica,sans-Serif" font-size="10.00" fill="#000000">sitkBinaryGrindPeakImage</text>
<text text-anchor="middle" x="4316" y="-7.5" font-family="Helvetica,sans-Serif" font-size="10.00" fill="#000000">Filter.h</text>
</a>
</g>
</g>
<!-- Node2&#45;&gt;Node36 -->
<g id="edge75" class="edge">
<title>Node2&#45;&gt;Node36</title>
<path fill="none" stroke="#191970" d="M3509.6113,-133.0368C3560.3992,-123.255 3629.1414,-108.8442 3655,-98 3678.4196,-88.1786 3678.8986,-75.0038 3703,-67 3815.033,-29.795 4115.8899,-45.8607 4233,-31 4236.0539,-30.6125 4239.1652,-30.1842 4242.3041,-29.7246"/>
<polygon fill="#191970" stroke="#191970" points="3508.8762,-129.6138 3499.7111,-134.929 3510.1904,-136.4894 3508.8762,-129.6138"/>
</g>
<!-- Node37 -->
<g id="node32" class="node">
<title>Node37</title>
<g id="a_node32"><a xlink:href="sitkBinaryImageToLabelMapFilter_8h.html" target="_top" xlink:title=" ">
<polygon fill="#ffffff" stroke="#ff0000" points="4408,-.5 4408,-30.5 4562,-30.5 4562,-.5 4408,-.5"/>
<text text-anchor="start" x="4416" y="-18.5" font-family="Helvetica,sans-Serif" font-size="10.00" fill="#000000">sitkBinaryImageToLabelMap</text>
<text text-anchor="middle" x="4485" y="-7.5" font-family="Helvetica,sans-Serif" font-size="10.00" fill="#000000">Filter.h</text>
</a>
</g>
</g>
<!-- Node2&#45;&gt;Node37 -->
<g id="edge76" class="edge">
<title>Node2&#45;&gt;Node37</title>
<path fill="none" stroke="#191970" d="M3509.6557,-133.2993C3578.8124,-120.806 3684.4736,-101.4082 3693,-98 3716.5815,-88.574 3716.8464,-74.845 3741,-67 3880.2786,-21.7627 4253.5515,-48.02 4399,-31 4401.863,-30.665 4404.7747,-30.2943 4407.7122,-29.8951"/>
<polygon fill="#191970" stroke="#191970" points="3508.9526,-129.8696 3499.7331,-135.0898 3510.1957,-136.7583 3508.9526,-129.8696"/>
</g>
<!-- Node38 -->
<g id="node33" class="node">
<title>Node38</title>
<g id="a_node33"><a xlink:href="sitkBinaryMagnitudeImageFilter_8h.html" target="_top" xlink:title=" ">
<polygon fill="#ffffff" stroke="#ff0000" points="4580,-.5 4580,-30.5 4728,-30.5 4728,-.5 4580,-.5"/>
<text text-anchor="start" x="4588" y="-18.5" font-family="Helvetica,sans-Serif" font-size="10.00" fill="#000000">sitkBinaryMagnitudeImage</text>
<text text-anchor="middle" x="4654" y="-7.5" font-family="Helvetica,sans-Serif" font-size="10.00" fill="#000000">Filter.h</text>
</a>
</g>
</g>
<!-- Node2&#45;&gt;Node38 -->
<g id="edge77" class="edge">
<title>Node2&#45;&gt;Node38</title>
<path fill="none" stroke="#191970" d="M3509.8118,-133.7716C3609.0404,-118.4817 3640.3023,-132.8393 3731,-98 3754.7068,-88.8936 3754.8105,-74.7334 3779,-67 3946.8143,-13.3496 4395.9824,-51.2201 4571,-31 4573.9124,-30.6635 4576.8763,-30.285 4579.8659,-29.8731"/>
<polygon fill="#191970" stroke="#191970" points="3508.9866,-130.3592 3499.6681,-135.4006 3510.0966,-137.2707 3508.9866,-130.3592"/>
</g>
<!-- Node39 -->
<g id="node34" class="node">
<title>Node39</title>
<g id="a_node34"><a xlink:href="sitkBinaryMedianImageFilter_8h.html" target="_top" xlink:title=" ">
<polygon fill="#ffffff" stroke="#ff0000" points="4746,-6 4746,-25 4910,-25 4910,-6 4746,-6"/>
<text text-anchor="middle" x="4828" y="-13" font-family="Helvetica,sans-Serif" font-size="10.00" fill="#000000">sitkBinaryMedianImageFilter.h</text>
</a>
</g>
</g>
<!-- Node2&#45;&gt;Node39 -->
<g id="edge78" class="edge">
<title>Node2&#45;&gt;Node39</title>
<path fill="none" stroke="#191970" d="M3509.6374,-133.8362C3625.7111,-117.2425 3662.2155,-137.6163 3769,-98 3792.8099,-89.1667 3792.7862,-74.657 3817,-67 4012.0794,-5.3109 4533.5027,-52.2219 4737,-31 4750.7081,-29.5704 4765.4758,-27.3521 4779.0442,-25.0363"/>
<polygon fill="#191970" stroke="#191970" points="3509.03,-130.388 3499.656,-135.3255 3510.0631,-137.3114 3509.03,-130.388"/>
</g>
<!-- Node40 -->
<g id="node35" class="node">
<title>Node40</title>
<g id="a_node35"><a xlink:href="sitkBinaryMinMaxCurvatureFlowImageFilter_8h.html" target="_top" xlink:title=" ">
<polygon fill="#ffffff" stroke="#ff0000" points="4928,-.5 4928,-30.5 5080,-30.5 5080,-.5 4928,-.5"/>
<text text-anchor="start" x="4936" y="-18.5" font-family="Helvetica,sans-Serif" font-size="10.00" fill="#000000">sitkBinaryMinMaxCurvature</text>
<text text-anchor="middle" x="5004" y="-7.5" font-family="Helvetica,sans-Serif" font-size="10.00" fill="#000000">FlowImageFilter.h</text>
</a>
</g>
</g>
<!-- Node2&#45;&gt;Node40 -->
<g id="edge79" class="edge">
<title>Node2&#45;&gt;Node40</title>
<path fill="none" stroke="#191970" d="M3509.783,-133.8436C3642.4754,-115.9872 3684.1858,-142.3626 3807,-98 3830.8852,-89.3723 3830.766,-74.593 3855,-67 4080.7579,3.7343 4683.7757,-56.2884 4919,-31 4921.8337,-30.6954 4924.715,-30.3505 4927.6213,-29.9732"/>
<polygon fill="#191970" stroke="#191970" points="3509.0626,-130.4103 3499.6475,-135.269 3510.0376,-137.3421 3509.0626,-130.4103"/>
</g>
<!-- Node41 -->
<g id="node36" class="node">
<title>Node41</title>
<g id="a_node36"><a xlink:href="sitkBinaryMorphologicalClosingImageFilter_8h.html" target="_top" xlink:title=" ">
<polygon fill="#ffffff" stroke="#ff0000" points="5098,-.5 5098,-30.5 5268,-30.5 5268,-.5 5098,-.5"/>
<text text-anchor="start" x="5106" y="-18.5" font-family="Helvetica,sans-Serif" font-size="10.00" fill="#000000">sitkBinaryMorphologicalClosing</text>
<text text-anchor="middle" x="5183" y="-7.5" font-family="Helvetica,sans-Serif" font-size="10.00" fill="#000000">ImageFilter.h</text>
</a>
</g>
</g>
<!-- Node2&#45;&gt;Node41 -->
<g id="edge80" class="edge">
<title>Node2&#45;&gt;Node41</title>
<path fill="none" stroke="#191970" d="M3509.6428,-133.8826C3659.1984,-114.6586 3706.0404,-147.1443 3845,-98 3868.9424,-89.5325 3868.7519,-74.5478 3893,-67 4019.9415,-27.4866 4956.6728,-43.8437 5089,-31 5091.8809,-30.7204 5094.8072,-30.4066 5097.7593,-30.0645"/>
<polygon fill="#191970" stroke="#191970" points="3509.0867,-130.4258 3499.6413,-135.2251 3510.018,-137.3636 3509.0867,-130.4258"/>
</g>
<!-- Node42 -->
<g id="node37" class="node">
<title>Node42</title>
<g id="a_node37"><a xlink:href="sitkBinaryMorphologicalOpeningImageFilter_8h.html" target="_top" xlink:title=" ">
<polygon fill="#ffffff" stroke="#ff0000" points="5286.5,-.5 5286.5,-30.5 5461.5,-30.5 5461.5,-.5 5286.5,-.5"/>
<text text-anchor="start" x="5294.5" y="-18.5" font-family="Helvetica,sans-Serif" font-size="10.00" fill="#000000">sitkBinaryMorphologicalOpening</text>
<text text-anchor="middle" x="5374" y="-7.5" font-family="Helvetica,sans-Serif" font-size="10.00" fill="#000000">ImageFilter.h</text>
</a>
</g>
</g>
<!-- Node2&#45;&gt;Node42 -->
<g id="edge81" class="edge">
<title>Node2&#45;&gt;Node42</title>
<path fill="none" stroke="#191970" d="M3509.7106,-133.8899C3675.9786,-113.3338 3727.94,-151.9055 3883,-98 3906.9875,-89.6609 3906.7393,-74.5071 3931,-67 4073.923,-22.7746 5128.0319,-44.8335 5277,-31 5280.0566,-30.7162 5283.1628,-30.3956 5286.2967,-30.0449"/>
<polygon fill="#191970" stroke="#191970" points="3509.1062,-130.4388 3499.6364,-135.1899 3510.0022,-137.3812 3509.1062,-130.4388"/>
</g>
<!-- Node43 -->
<g id="node38" class="node">
<title>Node43</title>
<g id="a_node38"><a xlink:href="sitkBinaryNotImageFilter_8h.html" target="_top" xlink:title=" ">
<polygon fill="#ffffff" stroke="#ff0000" points="5480,-6 5480,-25 5626,-25 5626,-6 5480,-6"/>
<text text-anchor="middle" x="5553" y="-13" font-family="Helvetica,sans-Serif" font-size="10.00" fill="#000000">sitkBinaryNotImageFilter.h</text>
</a>
</g>
</g>
<!-- Node2&#45;&gt;Node43 -->
<g id="edge82" class="edge">
<title>Node2&#45;&gt;Node43</title>
<path fill="none" stroke="#191970" d="M3509.5859,-133.9175C3692.7289,-111.9602 3749.7656,-156.6891 3921,-98 3945.0237,-89.7661 3944.7289,-74.4734 3969,-67 4128.5447,-17.8738 5304.9894,-48.5612 5471,-31 5483.6789,-29.6588 5497.3305,-27.4081 5509.7879,-25.0317"/>
<polygon fill="#191970" stroke="#191970" points="3509.1215,-130.4482 3499.6327,-135.1612 3509.9895,-137.3942 3509.1215,-130.4482"/>
</g>
<!-- Node44 -->
<g id="node39" class="node">
<title>Node44</title>
<g id="a_node39"><a xlink:href="sitkBinaryOpeningByReconstructionImageFilter_8h.html" target="_top" xlink:title=" ">
<polygon fill="#ffffff" stroke="#ff0000" points="5644.5,-.5 5644.5,-30.5 5835.5,-30.5 5835.5,-.5 5644.5,-.5"/>
<text text-anchor="start" x="5652.5" y="-18.5" font-family="Helvetica,sans-Serif" font-size="10.00" fill="#000000">sitkBinaryOpeningByReconstruction</text>
<text text-anchor="middle" x="5740" y="-7.5" font-family="Helvetica,sans-Serif" font-size="10.00" fill="#000000">ImageFilter.h</text>
</a>
</g>
</g>
<!-- Node2&#45;&gt;Node44 -->
<g id="edge83" class="edge">
<title>Node2&#45;&gt;Node44</title>
<path fill="none" stroke="#191970" d="M3509.5652,-133.9299C3709.5088,-110.5884 3771.6129,-161.4627 3959,-98 3983.0536,-89.8537 3982.722,-74.4509 4007,-67 4179.9705,-13.9153 5454.7099,-46.2409 5635,-31 5638.1214,-30.7361 5641.2913,-30.439 5644.4894,-30.1141"/>
<polygon fill="#191970" stroke="#191970" points="3509.1343,-130.4564 3499.6296,-135.1372 3509.9788,-137.4053 3509.1343,-130.4564"/>
</g>
<!-- Node45 -->
<g id="node40" class="node">
<title>Node45</title>
<g id="a_node40"><a xlink:href="sitkBinaryProjectionImageFilter_8h.html" target="_top" xlink:title=" ">
<polygon fill="#ffffff" stroke="#ff0000" points="5854,-.5 5854,-30.5 6000,-30.5 6000,-.5 5854,-.5"/>
<text text-anchor="start" x="5862" y="-18.5" font-family="Helvetica,sans-Serif" font-size="10.00" fill="#000000">sitkBinaryProjectionImage</text>
<text text-anchor="middle" x="5927" y="-7.5" font-family="Helvetica,sans-Serif" font-size="10.00" fill="#000000">Filter.h</text>
</a>
</g>
</g>
<!-- Node2&#45;&gt;Node45 -->
<g id="edge84" class="edge">
<title>Node2&#45;&gt;Node45</title>
<path fill="none" stroke="#191970" d="M3509.7215,-133.9202C3726.3315,-109.2366 3793.5074,-166.2184 3997,-98 4021.0786,-89.9279 4020.7141,-74.4253 4045,-67 4236.2984,-8.5115 5646.0286,-51.649 5845,-31 5847.8822,-30.7009 5850.8145,-30.3539 5853.7715,-29.9684"/>
<polygon fill="#191970" stroke="#191970" points="3509.1454,-130.4639 3499.6271,-135.117 3509.9696,-137.4152 3509.1454,-130.4639"/>
</g>
<!-- Node46 -->
<g id="node41" class="node">
<title>Node46</title>
<g id="a_node41"><a xlink:href="sitkBinaryPruningImageFilter_8h.html" target="_top" xlink:title=" ">
<polygon fill="#ffffff" stroke="#ff0000" points="6018,-6 6018,-25 6184,-25 6184,-6 6018,-6"/>
<text text-anchor="middle" x="6101" y="-13" font-family="Helvetica,sans-Serif" font-size="10.00" fill="#000000">sitkBinaryPruningImageFilter.h</text>
</a>
</g>
</g>
<!-- Node2&#45;&gt;Node46 -->
<g id="edge85" class="edge">
<title>Node2&#45;&gt;Node46</title>
<path fill="none" stroke="#191970" d="M3509.8631,-133.9672C3640.1875,-120.7647 3926.5425,-134.0407 4035,-98 4059.0999,-89.9915 4058.7093,-74.4094 4083,-67 4287.725,-4.5527 5795.8836,-50.8342 6009,-31 6023.1923,-29.6792 6038.4985,-27.4349 6052.4758,-25.058"/>
<polygon fill="#191970" stroke="#191970" points="3509.1796,-130.5214 3499.625,-135.0996 3509.9492,-137.4789 3509.1796,-130.5214"/>
</g>
<!-- Node47 -->
<g id="node42" class="node">
<title>Node47</title>
<g id="a_node42"><a xlink:href="sitkBinaryReconstructionByDilationImageFilter_8h.html" target="_top" xlink:title=" ">
<polygon fill="#ffffff" stroke="#ff0000" points="6202,-.5 6202,-30.5 6340,-30.5 6340,-.5 6202,-.5"/>
<text text-anchor="start" x="6210" y="-18.5" font-family="Helvetica,sans-Serif" font-size="10.00" fill="#000000">sitkBinaryReconstruction</text>
<text text-anchor="middle" x="6271" y="-7.5" font-family="Helvetica,sans-Serif" font-size="10.00" fill="#000000">ByDilationImageFilter.h</text>
</a>
</g>
</g>
<!-- Node2&#45;&gt;Node47 -->
<g id="edge86" class="edge">
<title>Node2&#45;&gt;Node47</title>
<path fill="none" stroke="#191970" d="M3509.7173,-133.9871C3648.4804,-120.1409 3956.4357,-136.4388 4073,-98 4097.1181,-90.0467 4096.7044,-74.3934 4121,-67 4341.2831,.0345 5964.0542,-55.5373 6193,-31 6195.8828,-30.691 6198.8176,-30.3284 6201.7763,-29.9231"/>
<polygon fill="#191970" stroke="#191970" points="3509.1863,-130.5241 3499.6232,-135.0846 3509.9429,-137.4831 3509.1863,-130.5241"/>
</g>
<!-- Node48 -->
<g id="node43" class="node">
<title>Node48</title>
<g id="a_node43"><a xlink:href="sitkBinaryReconstructionByErosionImageFilter_8h.html" target="_top" xlink:title=" ">
<polygon fill="#ffffff" stroke="#ff0000" points="6358,-.5 6358,-30.5 6496,-30.5 6496,-.5 6358,-.5"/>
<text text-anchor="start" x="6366" y="-18.5" font-family="Helvetica,sans-Serif" font-size="10.00" fill="#000000">sitkBinaryReconstruction</text>
<text text-anchor="middle" x="6427" y="-7.5" font-family="Helvetica,sans-Serif" font-size="10.00" fill="#000000">ByErosionImageFilter.h</text>
</a>
</g>
</g>
<!-- Node2&#45;&gt;Node48 -->
<g id="edge87" class="edge">
<title>Node2&#45;&gt;Node48</title>
<path fill="none" stroke="#191970" d="M3509.9117,-133.9721C3657.2663,-119.5319 3986.4204,-138.8059 4111,-98 4135.134,-90.0949 4134.7009,-74.382 4159,-67 4391.8576,3.742 6107.0075,-56.8211 6349,-31 6351.883,-30.6924 6354.8179,-30.3309 6357.7767,-29.9265"/>
<polygon fill="#191970" stroke="#191970" points="3509.1933,-130.5289 3499.6216,-135.0714 3509.9369,-137.4893 3509.1933,-130.5289"/>
</g>
<!-- Node49 -->
<g id="node44" class="node">
<title>Node49</title>
<g id="a_node44"><a xlink:href="sitkBinaryThinningImageFilter_8h.html" target="_top" xlink:title=" ">
<polygon fill="#ffffff" stroke="#ff0000" points="6514.5,-6 6514.5,-25 6685.5,-25 6685.5,-6 6514.5,-6"/>
<text text-anchor="middle" x="6600" y="-13" font-family="Helvetica,sans-Serif" font-size="10.00" fill="#000000">sitkBinaryThinningImageFilter.h</text>
</a>
</g>
</g>
<!-- Node2&#45;&gt;Node49 -->
<g id="edge88" class="edge">
<title>Node2&#45;&gt;Node49</title>
<path fill="none" stroke="#191970" d="M3509.588,-134.0072C3665.27,-118.8665 4016.2554,-141.2213 4149,-98 4173.1479,-90.1375 4172.6979,-74.3718 4197,-67 4319.7162,-29.7752 6377.2659,-42.3553 6505,-31 6519.8145,-29.683 6535.8104,-27.4084 6550.3758,-25.0011"/>
<polygon fill="#191970" stroke="#191970" points="3509.1974,-130.5289 3499.6203,-135.0598 3509.9326,-137.4902 3509.1974,-130.5289"/>
</g>
<!-- Node50 -->
<g id="node45" class="node">
<title>Node50</title>
<g id="a_node45"><a xlink:href="sitkBinaryThresholdImageFilter_8h.html" target="_top" xlink:title=" ">
<polygon fill="#ffffff" stroke="#ff0000" points="6703.5,-.5 6703.5,-30.5 6848.5,-30.5 6848.5,-.5 6703.5,-.5"/>
<text text-anchor="start" x="6711.5" y="-18.5" font-family="Helvetica,sans-Serif" font-size="10.00" fill="#000000">sitkBinaryThresholdImage</text>
<text text-anchor="middle" x="6776" y="-7.5" font-family="Helvetica,sans-Serif" font-size="10.00" fill="#000000">Filter.h</text>
</a>
</g>
</g>
<!-- Node2&#45;&gt;Node50 -->
<g id="edge89" class="edge">
<title>Node2&#45;&gt;Node50</title>
<path fill="none" stroke="#191970" d="M3509.6547,-134.0034C3673.8499,-118.2278 4046.1981,-143.6008 4187,-98 4211.1602,-90.1754 4210.6943,-74.3601 4235,-67 4365.8152,-27.3873 6559.0271,-44.8973 6695,-31 6697.7063,-30.7234 6700.457,-30.4025 6703.2307,-30.0453"/>
<polygon fill="#191970" stroke="#191970" points="3509.2024,-130.5315 3499.6191,-135.0495 3509.9281,-137.4938 3509.2024,-130.5315"/>
</g>
<!-- Node51 -->
<g id="node46" class="node">
<title>Node51</title>
<g id="a_node46"><a xlink:href="sitkBinaryThresholdProjectionImageFilter_8h.html" target="_top" xlink:title=" ">
<polygon fill="#ffffff" stroke="#ff0000" points="6866.5,-.5 6866.5,-30.5 7029.5,-30.5 7029.5,-.5 6866.5,-.5"/>
<text text-anchor="start" x="6874.5" y="-18.5" font-family="Helvetica,sans-Serif" font-size="10.00" fill="#000000">sitkBinaryThresholdProjection</text>
<text text-anchor="middle" x="6948" y="-7.5" font-family="Helvetica,sans-Serif" font-size="10.00" fill="#000000">ImageFilter.h</text>
</a>
</g>
</g>
<!-- Node2&#45;&gt;Node51 -->
<g id="edge90" class="edge">
<title>Node2&#45;&gt;Node51</title>
<path fill="none" stroke="#191970" d="M3509.6706,-134.0042C3682.3474,-117.5772 4076.1241,-145.9853 4225,-98 4249.1711,-90.2092 4248.6917,-74.3515 4273,-67 4410.4756,-25.4235 6714.9855,-44.2288 6858,-31 6860.6839,-30.7517 6863.4082,-30.4681 6866.1558,-30.1549"/>
<polygon fill="#191970" stroke="#191970" points="3509.2066,-130.5334 3499.6181,-135.0403 3509.9243,-137.4965 3509.2066,-130.5334"/>
</g>
<!-- Node52 -->
<g id="node47" class="node">
<title>Node52</title>
<g id="a_node47"><a xlink:href="sitkBinomialBlurImageFilter_8h.html" target="_top" xlink:title=" ">
<polygon fill="#ffffff" stroke="#ff0000" points="7047.5,-6 7047.5,-25 7208.5,-25 7208.5,-6 7047.5,-6"/>
<text text-anchor="middle" x="7128" y="-13" font-family="Helvetica,sans-Serif" font-size="10.00" fill="#000000">sitkBinomialBlurImageFilter.h</text>
</a>
</g>
</g>
<!-- Node2&#45;&gt;Node52 -->
<g id="edge91" class="edge">
<title>Node2&#45;&gt;Node52</title>
<path fill="none" stroke="#191970" d="M3509.6367,-134.0127C3690.8011,-117.0317 4107.0811,-151.5295 4263,-98 4285.6254,-90.2323 4284.2441,-74.3766 4307,-67 4451.3939,-20.1931 6887.8622,-45.0663 7039,-31 7052.8987,-29.7065 7067.8904,-27.4389 7081.5353,-25.031"/>
<polygon fill="#191970" stroke="#191970" points="3509.2116,-130.5378 3499.6172,-135.032 3509.9201,-137.5019 3509.2116,-130.5378"/>
</g>
<!-- Node304 -->
<g id="node48" class="node">
<title>Node304</title>
<g id="a_node48"><a xlink:href="sitkCenteredTransformInitializerFilter_8h.html" target="_top" xlink:title=" ">
<polygon fill="#ffffff" stroke="#ff0000" points="4315.5,-67.5 4315.5,-97.5 4488.5,-97.5 4488.5,-67.5 4315.5,-67.5"/>
<text text-anchor="start" x="4323.5" y="-85.5" font-family="Helvetica,sans-Serif" font-size="10.00" fill="#000000">sitkCenteredTransformInitializer</text>
<text text-anchor="middle" x="4402" y="-74.5" font-family="Helvetica,sans-Serif" font-size="10.00" fill="#000000">Filter.h</text>
</a>
</g>
</g>
<!-- Node2&#45;&gt;Node304 -->
<g id="edge48" class="edge">
<title>Node2&#45;&gt;Node304</title>
<path fill="none" stroke="#191970" d="M3509.8024,-133.9289C3860.5095,-96.6484 3953.2567,-132.4769 4301,-98 4305.6782,-97.5362 4310.4701,-97.0023 4315.302,-96.4178"/>
<polygon fill="#191970" stroke="#191970" points="3509.1847,-130.4751 3499.6164,-135.0245 3509.9333,-137.4349 3509.1847,-130.4751"/>
</g>
<!-- Node305 -->
<g id="node49" class="node">
<title>Node305</title>
<g id="a_node49"><a xlink:href="sitkCenteredVersorTransformInitializerFilter_8h.html" target="_top" xlink:title=" ">
<polygon fill="#ffffff" stroke="#ff0000" points="4507,-67.5 4507,-97.5 4665,-97.5 4665,-67.5 4507,-67.5"/>
<text text-anchor="start" x="4515" y="-85.5" font-family="Helvetica,sans-Serif" font-size="10.00" fill="#000000">sitkCenteredVersorTransform</text>
<text text-anchor="middle" x="4586" y="-74.5" font-family="Helvetica,sans-Serif" font-size="10.00" fill="#000000">InitializerFilter.h</text>
</a>
</g>
</g>
<!-- Node2&#45;&gt;Node305 -->
<g id="edge49" class="edge">
<title>Node2&#45;&gt;Node305</title>
<path fill="none" stroke="#191970" d="M3509.6902,-133.9564C3947.6802,-89.3319 4063.4639,-143.9475 4498,-98 4500.9311,-97.6901 4503.9119,-97.3408 4506.9188,-96.9596"/>
<polygon fill="#191970" stroke="#191970" points="3509.2018,-130.4881 3499.6132,-134.9948 3509.9193,-137.4513 3509.2018,-130.4881"/>
</g>
<!-- Node6&#45;&gt;Node5 -->
<g id="edge5" class="edge">
<title>Node6&#45;&gt;Node5</title>
<path fill="none" stroke="#191970" d="M3390.9225,-81.3736C3251.3981,-78.7271 2890.5111,-71.9622 2589,-67 2052.5685,-58.1716 709.2886,-79.7072 175,-31 172.0965,-30.7353 169.1465,-30.4312 166.1709,-30.0946"/>
<polygon fill="#191970" stroke="#191970" points="3390.9123,-84.874 3400.977,-81.5645 3391.0452,-77.8752 3390.9123,-84.874"/>
</g>
<!-- Node6&#45;&gt;Node8 -->
<g id="edge6" class="edge">
<title>Node6&#45;&gt;Node8</title>
<path fill="none" stroke="#191970" d="M3390.6815,-81.3179C3255.3088,-78.6343 2913.1754,-71.9325 2627,-67 2115.4579,-58.1831 833.5418,-87.0209 325,-31 313.2377,-29.7043 300.589,-27.4361 289.0919,-25.0282"/>
<polygon fill="#191970" stroke="#191970" points="3390.7686,-84.8202 3400.8361,-81.5193 3390.9075,-77.8216 3390.7686,-84.8202"/>
</g>
<!-- Node6&#45;&gt;Node9 -->
<g id="edge7" class="edge">
<title>Node6&#45;&gt;Node9</title>
<path fill="none" stroke="#191970" d="M3390.6489,-81.2596C3259.6812,-78.5376 2936.0306,-71.8933 2665,-67 2420.5627,-62.5868 707.8018,-59.572 465,-31 453.998,-29.7053 442.1852,-27.4374 431.4553,-25.0295"/>
<polygon fill="#191970" stroke="#191970" points="3390.7898,-84.7632 3400.8604,-81.472 3390.9354,-77.7647 3390.7898,-84.7632"/>
</g>
<!-- Node6&#45;&gt;Node10 -->
<g id="edge8" class="edge">
<title>Node6&#45;&gt;Node10</title>
<path fill="none" stroke="#191970" d="M3390.3658,-81.1967C3263.7607,-78.4443 2958.7599,-71.8904 2703,-67 2245.6803,-58.2555 1100.3831,-73.9417 645,-31 642.1587,-30.7321 639.272,-30.4252 636.3604,-30.0862"/>
<polygon fill="#191970" stroke="#191970" points="3390.5415,-84.7013 3400.6153,-81.4197 3390.6939,-77.7029 3390.5415,-84.7013"/>
</g>
<!-- Node6&#45;&gt;Node11 -->
<g id="edge9" class="edge">
<title>Node6&#45;&gt;Node11</title>
<path fill="none" stroke="#191970" d="M3390.3376,-81.1265C3268.378,-78.334 2981.7124,-71.8486 2741,-67 2306.7922,-58.2539 1218.343,-81.5586 787,-31 775.8475,-29.6928 763.868,-27.4211 752.9846,-25.0135"/>
<polygon fill="#191970" stroke="#191970" points="3390.4989,-84.631 3400.5764,-81.3611 3390.6593,-77.6328 3390.4989,-84.631"/>
</g>
<!-- Node6&#45;&gt;Node12 -->
<g id="edge10" class="edge">
<title>Node6&#45;&gt;Node12</title>
<path fill="none" stroke="#191970" d="M3390.5759,-81.0531C3273.5305,-78.2195 3004.887,-71.7973 2779,-67 2366.1267,-58.2315 1330.8282,-81.8138 921,-31 910.4549,-29.6925 899.144,-27.4208 888.8743,-25.0132"/>
<polygon fill="#191970" stroke="#191970" points="3390.6721,-84.5563 3400.754,-81.2997 3390.8417,-77.5584 3390.6721,-84.5563"/>
</g>
<!-- Node6&#45;&gt;Node15 -->
<g id="edge11" class="edge">
<title>Node6&#45;&gt;Node15</title>
<path fill="none" stroke="#191970" d="M3390.6682,-80.9761C3278.5823,-78.113 3028.0154,-71.788 2817,-67 2434.1261,-58.3125 1475.0743,-69.0827 1094,-31 1091.2827,-30.7284 1088.5224,-30.4185 1085.7385,-30.0768"/>
<polygon fill="#191970" stroke="#191970" points="3390.6691,-84.4772 3400.7554,-81.234 3390.8481,-77.4795 3390.6691,-84.4772"/>
</g>
<!-- Node6&#45;&gt;Node16 -->
<g id="edge12" class="edge">
<title>Node6&#45;&gt;Node16</title>
<path fill="none" stroke="#191970" d="M3390.3506,-80.8701C3283.1815,-77.9586 3050.95,-71.7268 2855,-67 2494.5716,-58.3056 1590.8718,-74.7258 1233,-31 1222.2754,-29.6896 1210.7706,-27.4486 1200.2893,-25.0716"/>
<polygon fill="#191970" stroke="#191970" points="3390.5432,-84.3765 3400.6347,-81.1497 3390.7335,-77.3791 3390.5432,-84.3765"/>
</g>
<!-- Node6&#45;&gt;Node17 -->
<g id="edge13" class="edge">
<title>Node6&#45;&gt;Node17</title>
<path fill="none" stroke="#191970" d="M3390.7442,-80.792C3288.9681,-77.8717 3074.3792,-71.7722 2893,-67 2247.6917,-50.0216 2084.1254,-86.6846 1441,-31 1437.9082,-30.7323 1434.7684,-30.4318 1431.6007,-30.104"/>
<polygon fill="#191970" stroke="#191970" points="3390.7288,-84.2929 3400.8251,-81.0815 3390.9297,-77.2958 3390.7288,-84.2929"/>
</g>
<!-- Node6&#45;&gt;Node18 -->
<g id="edge14" class="edge">
<title>Node6&#45;&gt;Node18</title>
<path fill="none" stroke="#191970" d="M3390.8614,-80.67C3294.5239,-77.7034 3097.7086,-71.7023 2931,-67 2629.6803,-58.5007 1874.014,-69.163 1575,-31 1564.5781,-29.6699 1553.4042,-27.4226 1543.2269,-25.046"/>
<polygon fill="#191970" stroke="#191970" points="3390.8826,-84.1723 3400.9857,-80.982 3391.0983,-77.1756 3390.8826,-84.1723"/>
</g>
<!-- Node6&#45;&gt;Node20 -->
<g id="edge15" class="edge">
<title>Node6&#45;&gt;Node20</title>
<path fill="none" stroke="#191970" d="M3390.7415,-80.535C3299.9549,-77.5371 3120.9782,-71.6764 2969,-67 2423.246,-50.2071 2283.8917,-89.2923 1741,-31 1738.085,-30.687 1735.1189,-30.3283 1732.1274,-29.933"/>
<polygon fill="#191970" stroke="#191970" points="3390.7283,-84.0364 3400.8385,-80.8686 3390.9596,-77.0402 3390.7283,-84.0364"/>
</g>
<!-- Node6&#45;&gt;Node21 -->
<g id="edge16" class="edge">
<title>Node6&#45;&gt;Node21</title>
<path fill="none" stroke="#191970" d="M3390.6037,-80.3883C3305.5963,-77.3736 3144.3286,-71.6828 3007,-67 2525.2366,-50.5721 2402.589,-79.5818 1923,-31 1909.1282,-29.5948 1894.175,-27.3546 1880.4775,-25.0091"/>
<polygon fill="#191970" stroke="#191970" points="3390.7173,-83.8944 3400.8351,-80.7513 3390.9656,-76.8988 3390.7173,-83.8944"/>
</g>
<!-- Node6&#45;&gt;Node22 -->
<g id="edge17" class="edge">
<title>Node6&#45;&gt;Node22</title>
<path fill="none" stroke="#191970" d="M3390.5149,-80.1893C3311.5623,-77.1302 3167.8108,-71.5875 3045,-67 2605.9037,-50.5978 2492.5868,-88.7816 2057,-31 2046.7031,-29.6341 2035.6668,-27.4064 2025.5829,-25.0605"/>
<polygon fill="#191970" stroke="#191970" points="3390.6216,-83.696 3400.7497,-80.586 3390.8928,-76.7012 3390.6216,-83.696"/>
</g>
<!-- Node6&#45;&gt;Node23 -->
<g id="edge18" class="edge">
<title>Node6&#45;&gt;Node23</title>
<path fill="none" stroke="#191970" d="M3390.4175,-79.9697C3317.8126,-76.8895 3191.4023,-71.5371 3083,-67 2697.2283,-50.8537 2598.4428,-76.3004 2215,-31 2212.0851,-30.6556 2209.1169,-30.2635 2206.1237,-29.8337"/>
<polygon fill="#191970" stroke="#191970" points="3390.5913,-83.4801 3400.7307,-80.4073 3390.8881,-76.4864 3390.5913,-83.4801"/>
</g>
<!-- Node6&#45;&gt;Node24 -->
<g id="edge19" class="edge">
<title>Node6&#45;&gt;Node24</title>
<path fill="none" stroke="#191970" d="M3390.7138,-79.6655C3173.2378,-69.2566 2430.6355,-33.609 2406,-31 2403.258,-30.7096 2400.4748,-30.3923 2397.6671,-30.0526"/>
<polygon fill="#191970" stroke="#191970" points="3390.8148,-83.1743 3400.9707,-80.1564 3391.1495,-76.1823 3390.8148,-83.1743"/>
</g>
<!-- Node6&#45;&gt;Node25 -->
<g id="edge20" class="edge">
<title>Node6&#45;&gt;Node25</title>
<path fill="none" stroke="#191970" d="M3390.7777,-79.2644C3192.7703,-68.4295 2565.017,-33.9377 2544,-31 2533.6644,-29.5553 2522.5854,-27.3612 2512.3961,-25.0746"/>
<polygon fill="#191970" stroke="#191970" points="3390.8114,-82.7713 3400.9876,-79.8229 3391.1938,-75.7818 3390.8114,-82.7713"/>
</g>
<!-- Node6&#45;&gt;Node26 -->
<g id="edge21" class="edge">
<title>Node6&#45;&gt;Node26</title>
<path fill="none" stroke="#191970" d="M3390.7068,-78.7278C3217.5514,-67.6807 2722.6208,-35.8704 2688,-31 2677.3642,-29.5038 2665.9562,-27.3206 2655.4278,-25.0624"/>
<polygon fill="#191970" stroke="#191970" points="3390.7067,-82.2349 3400.9092,-79.3785 3391.1522,-75.249 3390.7067,-82.2349"/>
</g>
<!-- Node6&#45;&gt;Node27 -->
<g id="edge22" class="edge">
<title>Node6&#45;&gt;Node27</title>
<path fill="none" stroke="#191970" d="M3390.7422,-78.0807C3245.7428,-67.1995 2880.8944,-39.3896 2826,-31 2815.9265,-29.4605 2805.1319,-27.2899 2795.1427,-25.0593"/>
<polygon fill="#191970" stroke="#191970" points="3390.5612,-81.5768 3400.7949,-78.8344 3391.0846,-74.5964 3390.5612,-81.5768"/>
</g>
<!-- Node6&#45;&gt;Node28 -->
<g id="edge23" class="edge">
<title>Node6&#45;&gt;Node28</title>
<path fill="none" stroke="#191970" d="M3390.6562,-77.3595C3302.6888,-69.403 3132.6132,-52.7289 2989,-31 2986.3103,-30.593 2983.5736,-30.1611 2980.8118,-29.7101"/>
<polygon fill="#191970" stroke="#191970" points="3390.4391,-80.854 3400.7123,-78.2634 3391.0658,-73.8822 3390.4391,-80.854"/>
</g>
<!-- Node6&#45;&gt;Node29 -->
<g id="edge24" class="edge">
<title>Node6&#45;&gt;Node29</title>
<path fill="none" stroke="#191970" d="M3390.6318,-72.8667C3329.487,-62.8378 3231.4714,-46.4629 3147,-31 3136.8262,-29.1376 3125.9332,-27.0568 3115.5867,-25.0395"/>
<polygon fill="#191970" stroke="#191970" points="3390.4296,-76.3801 3400.8637,-74.5421 3391.5608,-69.4721 3390.4296,-76.3801"/>
</g>
<!-- Node6&#45;&gt;Node30 -->
<g id="edge25" class="edge">
<title>Node6&#45;&gt;Node30</title>
<path fill="none" stroke="#191970" d="M3408.5683,-69.9958C3365.4518,-56.9832 3298.873,-36.8896 3259.7482,-25.0817"/>
<polygon fill="#191970" stroke="#191970" points="3407.608,-73.3619 3418.1928,-72.9005 3409.6306,-66.6604 3407.608,-73.3619"/>
</g>
<!-- Node6&#45;&gt;Node31 -->
<g id="edge26" class="edge">
<title>Node6&#45;&gt;Node31</title>
<path fill="none" stroke="#191970" d="M3439.553,-64.0804C3433.5672,-53.5264 3426.1501,-40.4489 3420.5198,-30.5218"/>
<polygon fill="#191970" stroke="#191970" points="3436.5776,-65.9289 3444.5555,-72.9005 3442.6665,-62.4754 3436.5776,-65.9289"/>
</g>
<!-- Node6&#45;&gt;Node32 -->
<g id="edge27" class="edge">
<title>Node6&#45;&gt;Node32</title>
<path fill="none" stroke="#191970" d="M3481.8409,-68.9118C3512.3558,-55.8895 3557.6354,-36.5664 3584.5475,-25.0817"/>
<polygon fill="#191970" stroke="#191970" points="3480.318,-65.7563 3472.4943,-72.9005 3483.0656,-72.1946 3480.318,-65.7563"/>
</g>
<!-- Node6&#45;&gt;Node33 -->
<g id="edge28" class="edge">
<title>Node6&#45;&gt;Node33</title>
<path fill="none" stroke="#191970" d="M3508.0494,-70.959C3573.3198,-57.9824 3678.1123,-37.1483 3738.9668,-25.0496"/>
<polygon fill="#191970" stroke="#191970" points="3507.0515,-67.5888 3497.926,-72.9717 3508.4165,-74.4545 3507.0515,-67.5888"/>
</g>
<!-- Node6&#45;&gt;Node34 -->
<g id="edge29" class="edge">
<title>Node6&#45;&gt;Node34</title>
<path fill="none" stroke="#191970" d="M3509.2529,-75.7194C3608.8859,-64.2507 3805.8589,-41.2707 3875,-31 3886.8153,-29.2449 3899.4843,-27.1433 3911.4245,-25.0624"/>
<polygon fill="#191970" stroke="#191970" points="3508.5854,-72.273 3499.0508,-76.8927 3509.3852,-79.2272 3508.5854,-72.273"/>
</g>
<!-- Node6&#45;&gt;Node35 -->
<g id="edge30" class="edge">
<title>Node6&#45;&gt;Node35</title>
<path fill="none" stroke="#191970" d="M3509.5396,-77.2495C3543.8769,-74.2307 3587.869,-70.3785 3627,-67 3814.9803,-50.7701 3862.8139,-54.6932 4050,-31 4063.016,-29.3525 4077.0057,-27.1958 4090.0498,-25.0171"/>
<polygon fill="#191970" stroke="#191970" points="3508.8641,-73.7954 3499.2093,-78.1582 3509.4775,-80.7684 3508.8641,-73.7954"/>
</g>
<!-- Node6&#45;&gt;Node36 -->
<g id="edge31" class="edge">
<title>Node6&#45;&gt;Node36</title>
<path fill="none" stroke="#191970" d="M3509.141,-78.0977C3552.324,-74.9171 3612.286,-70.5706 3665,-67 3917.3727,-49.9054 3981.9899,-62.2751 4233,-31 4236.0547,-30.6194 4239.1668,-30.1969 4242.3063,-29.742"/>
<polygon fill="#191970" stroke="#191970" points="3508.8064,-74.6128 3499.0911,-78.8392 3509.3216,-81.5938 3508.8064,-74.6128"/>
</g>
<!-- Node6&#45;&gt;Node37 -->
<g id="edge32" class="edge">
<title>Node6&#45;&gt;Node37</title>
<path fill="none" stroke="#191970" d="M3509.6733,-78.6836C3560.9351,-75.4436 3636.8224,-70.7386 3703,-67 4012.2538,-49.5293 4091.299,-66.5419 4399,-31 4401.8635,-30.6692 4404.7756,-30.3022 4407.7135,-29.9061"/>
<polygon fill="#191970" stroke="#191970" points="3509.1991,-75.2065 3499.4403,-79.3316 3509.6415,-82.1925 3509.1991,-75.2065"/>
</g>
<!-- Node6&#45;&gt;Node38 -->
<g id="edge33" class="edge">
<title>Node6&#45;&gt;Node38</title>
<path fill="none" stroke="#191970" d="M3509.3799,-79.1653C3568.1822,-75.9035 3660.7931,-70.8754 3741,-67 4109.8055,-49.1801 4204.1603,-72.9957 4571,-31 4573.9127,-30.6666 4576.877,-30.2906 4579.8668,-29.8808"/>
<polygon fill="#191970" stroke="#191970" points="3508.9541,-75.6834 3499.1638,-79.7331 3509.3426,-82.6727 3508.9541,-75.6834"/>
</g>
<!-- Node6&#45;&gt;Node39 -->
<g id="edge34" class="edge">
<title>Node6&#45;&gt;Node39</title>
<path fill="none" stroke="#191970" d="M3509.2307,-79.5396C3575.0926,-76.2873 3684.6414,-70.9956 3779,-67 4204.6968,-48.9741 4313.1858,-74.866 4737,-31 4750.7093,-29.5811 4765.4773,-27.3662 4779.0457,-25.0504"/>
<polygon fill="#191970" stroke="#191970" points="3508.8592,-76.0536 3499.0444,-80.0435 3509.2051,-83.045 3508.8592,-76.0536"/>
</g>
<!-- Node6&#45;&gt;Node40 -->
<g id="edge35" class="edge">
<title>Node6&#45;&gt;Node40</title>
<path fill="none" stroke="#191970" d="M3509.5762,-79.8088C3582.1747,-76.5697 3708.5788,-71.0604 3817,-67 4306.6958,-48.6608 4431.7381,-83.0972 4919,-31 4921.8339,-30.697 4924.7154,-30.3536 4927.6217,-29.9775"/>
<polygon fill="#191970" stroke="#191970" points="3509.0975,-76.3266 3499.2639,-80.2697 3509.4102,-83.3196 3509.0975,-76.3266"/>
</g>
<!-- Node6&#45;&gt;Node41 -->
<g id="edge36" class="edge">
<title>Node6&#45;&gt;Node41</title>
<path fill="none" stroke="#191970" d="M3509.4803,-80.0543C3588.4277,-76.847 3732.1734,-71.1419 3855,-67 4403.3661,-48.5081 4542.8641,-83.7528 5089,-31 5091.8811,-30.7217 5094.8075,-30.409 5097.7596,-30.068"/>
<polygon fill="#191970" stroke="#191970" points="3509.0956,-76.567 3499.2462,-80.4709 3509.3803,-83.5612 3509.0956,-76.567"/>
</g>
<!-- Node6&#45;&gt;Node42 -->
<g id="edge37" class="edge">
<title>Node6&#45;&gt;Node42</title>
<path fill="none" stroke="#191970" d="M3509.3919,-80.2527C3594.394,-77.0748 3755.6554,-71.1889 3893,-67 4508.0332,-48.2418 4664.296,-87.6704 5277,-31 5280.0567,-30.7173 5283.163,-30.3977 5286.297,-30.0478"/>
<polygon fill="#191970" stroke="#191970" points="3509.0231,-76.7639 3499.1611,-80.6358 3509.2852,-83.759 3509.0231,-76.7639"/>
</g>
<!-- Node6&#45;&gt;Node43 -->
<g id="edge38" class="edge">
<title>Node6&#45;&gt;Node43</title>
<path fill="none" stroke="#191970" d="M3509.2552,-80.4219C3600.0374,-77.2763 3779.0086,-71.2254 3931,-67 4273.1835,-57.4873 5130.573,-66.9099 5471,-31 5483.6793,-29.6625 5497.331,-27.413 5509.7884,-25.0366"/>
<polygon fill="#191970" stroke="#191970" points="3509.0312,-76.9275 3499.1587,-80.7724 3509.2741,-83.9233 3509.0312,-76.9275"/>
</g>
<!-- Node6&#45;&gt;Node44 -->
<g id="edge39" class="edge">
<title>Node6&#45;&gt;Node44</title>
<path fill="none" stroke="#191970" d="M3509.136,-80.5751C3605.4699,-77.4751 3802.2803,-71.2908 3969,-67 4709.3721,-47.9455 4896.9992,-93.1999 5635,-31 5638.1215,-30.7369 5641.2914,-30.4404 5644.4896,-30.1161"/>
<polygon fill="#191970" stroke="#191970" points="3508.8941,-77.081 3499.0121,-80.9014 3509.1197,-84.0773 3508.8941,-77.081"/>
</g>
<!-- Node6&#45;&gt;Node45 -->
<g id="edge40" class="edge">
<title>Node6&#45;&gt;Node45</title>
<path fill="none" stroke="#191970" d="M3509.2533,-80.6908C3611.0256,-77.6193 3825.609,-71.3002 4007,-67 4415.408,-57.318 5438.6508,-73.0856 5845,-31 5847.8822,-30.7015 5850.8146,-30.355 5853.7717,-29.9699"/>
<polygon fill="#191970" stroke="#191970" points="3509.0624,-77.1949 3499.1727,-80.9956 3509.274,-84.1917 3509.0624,-77.1949"/>
</g>
<!-- Node6&#45;&gt;Node46 -->
<g id="edge41" class="edge">
<title>Node6&#45;&gt;Node46</title>
<path fill="none" stroke="#191970" d="M3509.6477,-80.7939C3616.8139,-77.7625 3849.0412,-71.3483 4045,-67 4481.4103,-57.3161 5574.3532,-71.3722 6009,-31 6023.1926,-29.6817 6038.4988,-27.4382 6052.4761,-25.0614"/>
<polygon fill="#191970" stroke="#191970" points="3509.2607,-77.3033 3499.3638,-81.0852 3509.459,-84.3005 3509.2607,-77.3033"/>
</g>
<!-- Node6&#45;&gt;Node47 -->
<g id="edge42" class="edge">
<title>Node6&#45;&gt;Node47</title>
<path fill="none" stroke="#191970" d="M3509.3302,-80.9003C3621.4133,-77.911 3871.9758,-71.3838 4083,-67 4551.856,-57.2601 5726.7054,-80.9014 6193,-31 6195.8829,-30.6915 6198.8177,-30.3293 6201.7765,-29.9243"/>
<polygon fill="#191970" stroke="#191970" points="3509.1462,-77.4039 3499.2433,-81.1698 3509.3332,-84.4014 3509.1462,-77.4039"/>
</g>
<!-- Node6&#45;&gt;Node48 -->
<g id="edge43" class="edge">
<title>Node6&#45;&gt;Node48</title>
<path fill="none" stroke="#191970" d="M3509.4228,-80.9889C3626.4659,-78.0432 3895.1056,-71.434 4121,-67 4616.0804,-57.2822 5856.6119,-83.469 6349,-31 6351.883,-30.6928 6354.8179,-30.3317 6357.7768,-29.9276"/>
<polygon fill="#191970" stroke="#191970" points="3509.1535,-77.4945 3499.2449,-81.2455 3509.33,-84.4923 3509.1535,-77.4945"/>
</g>
<!-- Node6&#45;&gt;Node49 -->
<g id="edge44" class="edge">
<title>Node6&#45;&gt;Node49</title>
<path fill="none" stroke="#191970" d="M3509.6612,-81.0645C3631.6186,-78.1591 3918.2804,-71.4782 4159,-67 4680.3045,-57.302 5985.6476,-77.1032 6505,-31 6519.8147,-29.6849 6535.8107,-27.4108 6550.376,-25.0034"/>
<polygon fill="#191970" stroke="#191970" points="3509.3362,-77.5712 3499.4225,-81.3088 3509.5032,-84.5692 3509.3362,-77.5712"/>
</g>
<!-- Node6&#45;&gt;Node50 -->
<g id="edge45" class="edge">
<title>Node6&#45;&gt;Node50</title>
<path fill="none" stroke="#191970" d="M3509.633,-81.1344C3636.236,-78.2633 3941.2329,-71.4965 4197,-67 4752.083,-57.2414 6142.7021,-87.3863 6695,-31 6697.7063,-30.7237 6700.457,-30.403 6703.2308,-30.0461"/>
<polygon fill="#191970" stroke="#191970" points="3509.3016,-77.6409 3499.3837,-81.3671 3509.4606,-84.6391 3509.3016,-77.6409"/>
</g>
<!-- Node6&#45;&gt;Node51 -->
<g id="edge46" class="edge">
<title>Node6&#45;&gt;Node51</title>
<path fill="none" stroke="#191970" d="M3509.3502,-81.2062C3640.3161,-78.378 3963.9632,-71.5358 4235,-67 4817.8622,-57.2459 6277.5288,-84.6345 6858,-31 6860.6839,-30.752 6863.4083,-30.4686 6866.1558,-30.1556"/>
<polygon fill="#191970" stroke="#191970" points="3509.0608,-77.7115 3499.1388,-81.427 3509.2122,-84.7099 3509.0608,-77.7115"/>
</g>
<!-- Node6&#45;&gt;Node52 -->
<g id="edge47" class="edge">
<title>Node6&#45;&gt;Node52</title>
<path fill="none" stroke="#191970" d="M3509.3176,-81.2645C3644.6885,-78.4709 3986.8184,-71.5572 4273,-67 4887.6408,-57.2123 6426.9218,-87.9158 7039,-31 7052.8988,-29.7076 7067.8905,-27.4404 7081.5354,-25.0324"/>
<polygon fill="#191970" stroke="#191970" points="3509.0887,-77.7684 3499.1632,-81.4744 3509.2334,-84.7669 3509.0887,-77.7684"/>
</g>
</g>
</svg>
