<?xml version="1.0" encoding="UTF-8" standalone="no"?>
<!DOCTYPE svg PUBLIC "-//W3C//DTD SVG 1.1//EN"
 "http://www.w3.org/Graphics/SVG/1.1/DTD/svg11.dtd">
<!-- Generated by graphviz version 2.40.1 (20161225.0304)
 -->
<!-- Title: sitkFunctionCommand.h Pages: 1 -->
<svg width="450pt" height="308pt"
 viewBox="0.00 0.00 449.50 308.00" xmlns="http://www.w3.org/2000/svg" xmlns:xlink="http://www.w3.org/1999/xlink">
<g id="graph0" class="graph" transform="scale(1 1) rotate(0) translate(4 304)">
<title>sitkFunctionCommand.h</title>
<polygon fill="#ffffff" stroke="transparent" points="-4,4 -4,-304 445.5,-304 445.5,4 -4,4"/>
<!-- Node1 -->
<g id="node1" class="node">
<title>Node1</title>
<g id="a_node1"><a xlink:title=" ">
<polygon fill="#bfbfbf" stroke="#000000" points="231.5,-280.5 231.5,-299.5 365.5,-299.5 365.5,-280.5 231.5,-280.5"/>
<text text-anchor="middle" x="298.5" y="-287.5" font-family="Helvetica,sans-Serif" font-size="10.00" fill="#000000">sitkFunctionCommand.h</text>
</a>
</g>
</g>
<!-- Node2 -->
<g id="node2" class="node">
<title>Node2</title>
<g id="a_node2"><a xlink:href="sitkCommand_8h.html" target="_top" xlink:title=" ">
<polygon fill="#ffffff" stroke="#000000" points="202.5,-224.5 202.5,-243.5 296.5,-243.5 296.5,-224.5 202.5,-224.5"/>
<text text-anchor="middle" x="249.5" y="-231.5" font-family="Helvetica,sans-Serif" font-size="10.00" fill="#000000">sitkCommand.h</text>
</a>
</g>
</g>
<!-- Node1&#45;&gt;Node2 -->
<g id="edge1" class="edge">
<title>Node1&#45;&gt;Node2</title>
<path fill="none" stroke="#191970" d="M289.9649,-280.2455C283.0088,-272.2958 273.0117,-260.8706 264.6949,-251.3656"/>
<polygon fill="#191970" stroke="#191970" points="267.1564,-248.8637 257.9373,-243.6427 261.8884,-253.4732 267.1564,-248.8637"/>
</g>
<!-- Node13 -->
<g id="node13" class="node">
<title>Node13</title>
<g id="a_node13"><a xlink:title=" ">
<polygon fill="#ffffff" stroke="#bfbfbf" points="315,-224.5 315,-243.5 380,-243.5 380,-224.5 315,-224.5"/>
<text text-anchor="middle" x="347.5" y="-231.5" font-family="Helvetica,sans-Serif" font-size="10.00" fill="#000000">functional</text>
</a>
</g>
</g>
<!-- Node1&#45;&gt;Node13 -->
<g id="edge13" class="edge">
<title>Node1&#45;&gt;Node13</title>
<path fill="none" stroke="#191970" d="M307.0351,-280.2455C313.9912,-272.2958 323.9883,-260.8706 332.3051,-251.3656"/>
<polygon fill="#191970" stroke="#191970" points="335.1116,-253.4732 339.0627,-243.6427 329.8436,-248.8637 335.1116,-253.4732"/>
</g>
<!-- Node3 -->
<g id="node3" class="node">
<title>Node3</title>
<g id="a_node3"><a xlink:href="sitkCommon_8h.html" target="_top" xlink:title=" ">
<polygon fill="#ffffff" stroke="#000000" points="163.5,-112.5 163.5,-131.5 251.5,-131.5 251.5,-112.5 163.5,-112.5"/>
<text text-anchor="middle" x="207.5" y="-119.5" font-family="Helvetica,sans-Serif" font-size="10.00" fill="#000000">sitkCommon.h</text>
</a>
</g>
</g>
<!-- Node2&#45;&gt;Node3 -->
<g id="edge2" class="edge">
<title>Node2&#45;&gt;Node3</title>
<path fill="none" stroke="#191970" d="M226.734,-224.3999C212.0403,-216.8573 194.1158,-204.8029 185.5,-188 177.6194,-172.6309 185.4075,-153.8382 193.8184,-140.2422"/>
<polygon fill="#191970" stroke="#191970" points="196.8489,-142.0091 199.5559,-131.7659 191.052,-138.0852 196.8489,-142.0091"/>
</g>
<!-- Node11 -->
<g id="node11" class="node">
<title>Node11</title>
<g id="a_node11"><a xlink:href="sitkNonCopyable_8h.html" target="_top" xlink:title=" ">
<polygon fill="#ffffff" stroke="#000000" points="195,-168.5 195,-187.5 304,-187.5 304,-168.5 195,-168.5"/>
<text text-anchor="middle" x="249.5" y="-175.5" font-family="Helvetica,sans-Serif" font-size="10.00" fill="#000000">sitkNonCopyable.h</text>
</a>
</g>
</g>
<!-- Node2&#45;&gt;Node11 -->
<g id="edge10" class="edge">
<title>Node2&#45;&gt;Node11</title>
<path fill="none" stroke="#191970" d="M249.5,-224.2455C249.5,-216.9382 249.5,-206.6944 249.5,-197.7046"/>
<polygon fill="#191970" stroke="#191970" points="253.0001,-197.6426 249.5,-187.6427 246.0001,-197.6427 253.0001,-197.6426"/>
</g>
<!-- Node12 -->
<g id="node12" class="node">
<title>Node12</title>
<g id="a_node12"><a xlink:title=" ">
<polygon fill="#ffffff" stroke="#bfbfbf" points="322.5,-168.5 322.5,-187.5 354.5,-187.5 354.5,-168.5 322.5,-168.5"/>
<text text-anchor="middle" x="338.5" y="-175.5" font-family="Helvetica,sans-Serif" font-size="10.00" fill="#000000">set</text>
</a>
</g>
</g>
<!-- Node2&#45;&gt;Node12 -->
<g id="edge12" class="edge">
<title>Node2&#45;&gt;Node12</title>
<path fill="none" stroke="#191970" d="M265.0026,-224.2455C278.658,-215.6534 298.7657,-203.0014 314.4989,-193.1018"/>
<polygon fill="#191970" stroke="#191970" points="316.5751,-195.9307 323.175,-187.6427 312.8471,-190.006 316.5751,-195.9307"/>
</g>
<!-- Node4 -->
<g id="node4" class="node">
<title>Node4</title>
<g id="a_node4"><a xlink:href="sitkMacro_8h.html" target="_top" xlink:title=" ">
<polygon fill="#ffffff" stroke="#000000" points="171,-56.5 171,-75.5 244,-75.5 244,-56.5 171,-56.5"/>
<text text-anchor="middle" x="207.5" y="-63.5" font-family="Helvetica,sans-Serif" font-size="10.00" fill="#000000">sitkMacro.h</text>
</a>
</g>
</g>
<!-- Node3&#45;&gt;Node4 -->
<g id="edge3" class="edge">
<title>Node3&#45;&gt;Node4</title>
<path fill="none" stroke="#191970" d="M207.5,-112.2455C207.5,-104.9382 207.5,-94.6944 207.5,-85.7046"/>
<polygon fill="#191970" stroke="#191970" points="211.0001,-85.6426 207.5,-75.6427 204.0001,-85.6427 211.0001,-85.6426"/>
</g>
<!-- Node5 -->
<g id="node5" class="node">
<title>Node5</title>
<g id="a_node5"><a xlink:title=" ">
<polygon fill="#ffffff" stroke="#bfbfbf" points="0,-.5 0,-19.5 53,-19.5 53,-.5 0,-.5"/>
<text text-anchor="middle" x="26.5" y="-7.5" font-family="Helvetica,sans-Serif" font-size="10.00" fill="#000000">stdint.h</text>
</a>
</g>
</g>
<!-- Node4&#45;&gt;Node5 -->
<g id="edge4" class="edge">
<title>Node4&#45;&gt;Node5</title>
<path fill="none" stroke="#191970" d="M176.385,-56.3733C144.8748,-46.6242 96.168,-31.5547 62.8884,-21.2583"/>
<polygon fill="#191970" stroke="#191970" points="63.6794,-17.8394 53.0917,-18.2273 61.6104,-24.5267 63.6794,-17.8394"/>
</g>
<!-- Node6 -->
<g id="node6" class="node">
<title>Node6</title>
<g id="a_node6"><a xlink:title=" ">
<polygon fill="#ffffff" stroke="#bfbfbf" points="71.5,-.5 71.5,-19.5 127.5,-19.5 127.5,-.5 71.5,-.5"/>
<text text-anchor="middle" x="99.5" y="-7.5" font-family="Helvetica,sans-Serif" font-size="10.00" fill="#000000">stddef.h</text>
</a>
</g>
</g>
<!-- Node4&#45;&gt;Node6 -->
<g id="edge5" class="edge">
<title>Node4&#45;&gt;Node6</title>
<path fill="none" stroke="#191970" d="M188.6878,-56.2455C171.6527,-47.4125 146.3425,-34.2887 127.0319,-24.2758"/>
<polygon fill="#191970" stroke="#191970" points="128.5853,-21.1388 118.0966,-19.6427 125.363,-27.353 128.5853,-21.1388"/>
</g>
<!-- Node7 -->
<g id="node7" class="node">
<title>Node7</title>
<g id="a_node7"><a xlink:title=" ">
<polygon fill="#ffffff" stroke="#bfbfbf" points="145.5,-.5 145.5,-19.5 197.5,-19.5 197.5,-.5 145.5,-.5"/>
<text text-anchor="middle" x="171.5" y="-7.5" font-family="Helvetica,sans-Serif" font-size="10.00" fill="#000000">cassert</text>
</a>
</g>
</g>
<!-- Node4&#45;&gt;Node7 -->
<g id="edge6" class="edge">
<title>Node4&#45;&gt;Node7</title>
<path fill="none" stroke="#191970" d="M201.2293,-56.2455C196.2736,-48.5367 189.217,-37.5598 183.2224,-28.2348"/>
<polygon fill="#191970" stroke="#191970" points="186.0506,-26.1618 177.6989,-19.6427 180.1624,-29.9471 186.0506,-26.1618"/>
</g>
<!-- Node8 -->
<g id="node8" class="node">
<title>Node8</title>
<g id="a_node8"><a xlink:title=" ">
<polygon fill="#ffffff" stroke="#bfbfbf" points="215.5,-.5 215.5,-19.5 271.5,-19.5 271.5,-.5 215.5,-.5"/>
<text text-anchor="middle" x="243.5" y="-7.5" font-family="Helvetica,sans-Serif" font-size="10.00" fill="#000000">sstream</text>
</a>
</g>
</g>
<!-- Node4&#45;&gt;Node8 -->
<g id="edge7" class="edge">
<title>Node4&#45;&gt;Node8</title>
<path fill="none" stroke="#191970" d="M213.7707,-56.2455C218.7264,-48.5367 225.783,-37.5598 231.7776,-28.2348"/>
<polygon fill="#191970" stroke="#191970" points="234.8376,-29.9471 237.3011,-19.6427 228.9494,-26.1618 234.8376,-29.9471"/>
</g>
<!-- Node9 -->
<g id="node9" class="node">
<title>Node9</title>
<g id="a_node9"><a xlink:title=" ">
<polygon fill="#ffffff" stroke="#bfbfbf" points="289.5,-.5 289.5,-19.5 333.5,-19.5 333.5,-.5 289.5,-.5"/>
<text text-anchor="middle" x="311.5" y="-7.5" font-family="Helvetica,sans-Serif" font-size="10.00" fill="#000000">limits</text>
</a>
</g>
</g>
<!-- Node4&#45;&gt;Node9 -->
<g id="edge8" class="edge">
<title>Node4&#45;&gt;Node9</title>
<path fill="none" stroke="#191970" d="M225.6154,-56.2455C241.945,-47.4527 266.171,-34.4079 284.7339,-24.4125"/>
<polygon fill="#191970" stroke="#191970" points="286.4468,-27.4654 293.5922,-19.6427 283.1281,-21.3021 286.4468,-27.4654"/>
</g>
<!-- Node10 -->
<g id="node10" class="node">
<title>Node10</title>
<g id="a_node10"><a xlink:href="sitkConfigure_8h.html" target="_top" xlink:title=" ">
<polygon fill="#ffffff" stroke="#000000" points="351.5,-.5 351.5,-19.5 441.5,-19.5 441.5,-.5 351.5,-.5"/>
<text text-anchor="middle" x="396.5" y="-7.5" font-family="Helvetica,sans-Serif" font-size="10.00" fill="#000000">sitkConfigure.h</text>
</a>
</g>
</g>
<!-- Node4&#45;&gt;Node10 -->
<g id="edge9" class="edge">
<title>Node4&#45;&gt;Node10</title>
<path fill="none" stroke="#191970" d="M239.9903,-56.3733C271.6902,-46.9807 320.0576,-32.6496 354.6286,-22.4064"/>
<polygon fill="#191970" stroke="#191970" points="355.8401,-25.6979 364.4337,-19.5011 353.8514,-18.9863 355.8401,-25.6979"/>
</g>
<!-- Node11&#45;&gt;Node3 -->
<g id="edge11" class="edge">
<title>Node11&#45;&gt;Node3</title>
<path fill="none" stroke="#191970" d="M242.1842,-168.2455C236.2821,-160.3761 227.8258,-149.101 220.7406,-139.6542"/>
<polygon fill="#191970" stroke="#191970" points="223.5321,-137.5427 214.732,-131.6427 217.932,-141.7427 223.5321,-137.5427"/>
</g>
</g>
</svg>
