<?xml version="1.0" encoding="UTF-8" standalone="no"?>
<!DOCTYPE svg PUBLIC "-//W3C//DTD SVG 1.1//EN"
 "http://www.w3.org/Graphics/SVG/1.1/DTD/svg11.dtd">
<!-- Generated by graphviz version 2.40.1 (20161225.0304)
 -->
<!-- Title: sitkTransform.h Pages: 1 -->
<svg width="6059pt" height="274pt"
 viewBox="0.00 0.00 6058.73 274.00" xmlns="http://www.w3.org/2000/svg" xmlns:xlink="http://www.w3.org/1999/xlink">
<g id="graph0" class="graph" transform="scale(1 1) rotate(0) translate(4 270)">
<title>sitkTransform.h</title>
<polygon fill="#ffffff" stroke="transparent" points="-4,4 -4,-270 6054.7319,-270 6054.7319,4 -4,4"/>
<!-- Node1 -->
<g id="node1" class="node">
<title>Node1</title>
<g id="a_node1"><a xlink:title=" ">
<polygon fill="#bfbfbf" stroke="#000000" points="4592.2319,-246.5 4592.2319,-265.5 4684.2319,-265.5 4684.2319,-246.5 4592.2319,-246.5"/>
<text text-anchor="middle" x="4638.2319" y="-253.5" font-family="Helvetica,sans-Serif" font-size="10.00" fill="#000000">sitkTransform.h</text>
</a>
</g>
</g>
<!-- Node2 -->
<g id="node2" class="node">
<title>Node2</title>
<g id="a_node2"><a xlink:href="sitkBasicFilters_8h.html" target="_top" xlink:title=" ">
<polygon fill="#ffffff" stroke="#ff0000" points="2372.7319,-190.5 2372.7319,-209.5 2471.7319,-209.5 2471.7319,-190.5 2372.7319,-190.5"/>
<text text-anchor="middle" x="2422.2319" y="-197.5" font-family="Helvetica,sans-Serif" font-size="10.00" fill="#000000">sitkBasicFilters.h</text>
</a>
</g>
</g>
<!-- Node1&#45;&gt;Node2 -->
<g id="edge1" class="edge">
<title>Node1&#45;&gt;Node2</title>
<path fill="none" stroke="#191970" d="M4582.0807,-254.581C4271.366,-246.729 2766.0664,-208.689 2472.0769,-201.2596"/>
<polygon fill="#191970" stroke="#191970" points="4582.117,-258.083 4592.2022,-254.8368 4582.2939,-251.0852 4582.117,-258.083"/>
</g>
<!-- Node3 -->
<g id="node3" class="node">
<title>Node3</title>
<g id="a_node3"><a xlink:href="sitkAdditionalProcedures_8h.html" target="_top" xlink:title=" ">
<polygon fill="#ffffff" stroke="#000000" points="1366.7319,-129 1366.7319,-148 1513.7319,-148 1513.7319,-129 1366.7319,-129"/>
<text text-anchor="middle" x="1440.2319" y="-136" font-family="Helvetica,sans-Serif" font-size="10.00" fill="#000000">sitkAdditionalProcedures.h</text>
</a>
</g>
</g>
<!-- Node1&#45;&gt;Node3 -->
<g id="edge72" class="edge">
<title>Node1&#45;&gt;Node3</title>
<path fill="none" stroke="#191970" d="M4581.9866,-255.8214C4326.2371,-254.8077 3247.3815,-248.3547 2363.2319,-210 1988.9783,-193.7648 1893.8368,-201.3188 1522.2319,-154 1510.1593,-152.4627 1497.1807,-150.2655 1485.1905,-148.0068"/>
<polygon fill="#191970" stroke="#191970" points="4582.1311,-259.3219 4592.1445,-255.8605 4582.1581,-252.322 4582.1311,-259.3219"/>
</g>
<!-- Node4 -->
<g id="node4" class="node">
<title>Node4</title>
<g id="a_node4"><a xlink:href="SimpleITK_8h.html" target="_top" xlink:title=" ">
<polygon fill="#ffffff" stroke="#000000" points="4948.7319,-.5 4948.7319,-19.5 5023.7319,-19.5 5023.7319,-.5 4948.7319,-.5"/>
<text text-anchor="middle" x="4986.2319" y="-7.5" font-family="Helvetica,sans-Serif" font-size="10.00" fill="#000000">SimpleITK.h</text>
</a>
</g>
</g>
<!-- Node1&#45;&gt;Node4 -->
<g id="edge73" class="edge">
<title>Node1&#45;&gt;Node4</title>
<path fill="none" stroke="#191970" d="M4582.1628,-249.7562C4484.0642,-237.5472 4287.8287,-206.9723 4247.2319,-154 4238.851,-143.0643 4237.7828,-133.0271 4247.2319,-123 4293.4918,-73.9104 4791.2831,-113.6857 4853.2319,-87 4871.7132,-79.0388 4869.5405,-67.2399 4886.2319,-56 4909.3742,-40.416 4938.6455,-27.6457 4959.5276,-19.5485"/>
<polygon fill="#191970" stroke="#191970" points="4581.8468,-253.2435 4592.1978,-250.9836 4582.6967,-246.2953 4581.8468,-253.2435"/>
</g>
<!-- Node306 -->
<g id="node37" class="node">
<title>Node306</title>
<g id="a_node37"><a xlink:href="sitkBSplineTransform_8h.html" target="_top" xlink:title=" ">
<polygon fill="#ffffff" stroke="#000000" points="4255.7319,-129 4255.7319,-148 4384.7319,-148 4384.7319,-129 4255.7319,-129"/>
<text text-anchor="middle" x="4320.2319" y="-136" font-family="Helvetica,sans-Serif" font-size="10.00" fill="#000000">sitkBSplineTransform.h</text>
</a>
</g>
</g>
<!-- Node1&#45;&gt;Node306 -->
<g id="edge74" class="edge">
<title>Node1&#45;&gt;Node306</title>
<path fill="none" stroke="#191970" d="M4602.7479,-242.8888C4538.2007,-219.0388 4403.0102,-169.0863 4346.2261,-148.1048"/>
<polygon fill="#191970" stroke="#191970" points="4601.8847,-246.3011 4612.478,-246.484 4604.3109,-239.735 4601.8847,-246.3011"/>
</g>
<!-- Node307 -->
<g id="node38" class="node">
<title>Node307</title>
<g id="a_node38"><a xlink:href="sitkDisplacementFieldTransform_8h.html" target="_top" xlink:title=" ">
<polygon fill="#ffffff" stroke="#000000" points="4403.2319,-129 4403.2319,-148 4585.2319,-148 4585.2319,-129 4403.2319,-129"/>
<text text-anchor="middle" x="4494.2319" y="-136" font-family="Helvetica,sans-Serif" font-size="10.00" fill="#000000">sitkDisplacementFieldTransform.h</text>
</a>
</g>
</g>
<!-- Node1&#45;&gt;Node307 -->
<g id="edge77" class="edge">
<title>Node1&#45;&gt;Node307</title>
<path fill="none" stroke="#191970" d="M4596.5023,-242.775C4577.5338,-235.3016 4555.7041,-224.5061 4539.2319,-210 4518.9785,-192.1641 4504.5923,-163.0303 4498.1021,-148.0534"/>
<polygon fill="#191970" stroke="#191970" points="4595.5251,-246.1465 4606.1173,-246.3824 4597.9841,-239.5926 4595.5251,-246.1465"/>
</g>
<!-- Node308 -->
<g id="node39" class="node">
<title>Node308</title>
<g id="a_node39"><a xlink:href="sitkAffineTransform_8h.html" target="_top" xlink:title=" ">
<polygon fill="#ffffff" stroke="#000000" points="4603.7319,-129 4603.7319,-148 4724.7319,-148 4724.7319,-129 4603.7319,-129"/>
<text text-anchor="middle" x="4664.2319" y="-136" font-family="Helvetica,sans-Serif" font-size="10.00" fill="#000000">sitkAffineTransform.h</text>
</a>
</g>
</g>
<!-- Node1&#45;&gt;Node308 -->
<g id="edge79" class="edge">
<title>Node1&#45;&gt;Node308</title>
<path fill="none" stroke="#191970" d="M4594.2308,-243.0932C4564.3309,-231.8935 4532.793,-213.7463 4548.2319,-190 4562.5244,-168.0168 4588.5946,-155.343 4612.4046,-148.0739"/>
<polygon fill="#191970" stroke="#191970" points="4593.2245,-246.4497 4603.8193,-246.4836 4595.5581,-239.8501 4593.2245,-246.4497"/>
</g>
<!-- Node309 -->
<g id="node40" class="node">
<title>Node309</title>
<g id="a_node40"><a xlink:href="sitkEuler2DTransform_8h.html" target="_top" xlink:title=" ">
<polygon fill="#ffffff" stroke="#000000" points="4742.7319,-129 4742.7319,-148 4873.7319,-148 4873.7319,-129 4742.7319,-129"/>
<text text-anchor="middle" x="4808.2319" y="-136" font-family="Helvetica,sans-Serif" font-size="10.00" fill="#000000">sitkEuler2DTransform.h</text>
</a>
</g>
</g>
<!-- Node1&#45;&gt;Node309 -->
<g id="edge81" class="edge">
<title>Node1&#45;&gt;Node309</title>
<path fill="none" stroke="#191970" d="M4612.537,-240.7037C4593.2899,-227.3088 4572.46,-207.3324 4586.2319,-190 4589.0317,-186.4764 4700.0564,-161.9331 4764.0087,-148.0385"/>
<polygon fill="#191970" stroke="#191970" points="4610.8608,-243.7904 4621.1389,-246.3618 4614.7077,-237.9421 4610.8608,-243.7904"/>
</g>
<!-- Node310 -->
<g id="node41" class="node">
<title>Node310</title>
<g id="a_node41"><a xlink:href="sitkEuler3DTransform_8h.html" target="_top" xlink:title=" ">
<polygon fill="#ffffff" stroke="#000000" points="4891.7319,-129 4891.7319,-148 5022.7319,-148 5022.7319,-129 4891.7319,-129"/>
<text text-anchor="middle" x="4957.2319" y="-136" font-family="Helvetica,sans-Serif" font-size="10.00" fill="#000000">sitkEuler3DTransform.h</text>
</a>
</g>
</g>
<!-- Node1&#45;&gt;Node310 -->
<g id="edge83" class="edge">
<title>Node1&#45;&gt;Node310</title>
<path fill="none" stroke="#191970" d="M4626.5166,-237.1337C4619.1563,-222.6185 4612.9833,-202.9202 4624.2319,-190 4662.3879,-146.1736 4825.9833,-163.9623 4883.2319,-154 4893.3186,-152.2447 4904.1284,-150.1201 4914.2844,-148.0142"/>
<polygon fill="#191970" stroke="#191970" points="4623.6599,-239.1955 4631.6023,-246.2076 4629.7662,-235.7731 4623.6599,-239.1955"/>
</g>
<!-- Node311 -->
<g id="node42" class="node">
<title>Node311</title>
<g id="a_node42"><a xlink:href="sitkScaleTransform_8h.html" target="_top" xlink:title=" ">
<polygon fill="#ffffff" stroke="#000000" points="5040.7319,-129 5040.7319,-148 5159.7319,-148 5159.7319,-129 5040.7319,-129"/>
<text text-anchor="middle" x="5100.2319" y="-136" font-family="Helvetica,sans-Serif" font-size="10.00" fill="#000000">sitkScaleTransform.h</text>
</a>
</g>
</g>
<!-- Node1&#45;&gt;Node311 -->
<g id="edge85" class="edge">
<title>Node1&#45;&gt;Node311</title>
<path fill="none" stroke="#191970" d="M4638.6754,-235.7497C4640.1667,-220.7219 4644.7984,-201.0029 4658.2319,-190 4722.8255,-137.0933 4949.8036,-167.3053 5032.2319,-154 5042.0338,-152.4178 5052.5332,-150.2589 5062.2776,-148.0551"/>
<polygon fill="#191970" stroke="#191970" points="4635.1594,-235.9132 4638.0534,-246.1051 4642.1468,-236.333 4635.1594,-235.9132"/>
</g>
<!-- Node312 -->
<g id="node43" class="node">
<title>Node312</title>
<g id="a_node43"><a xlink:href="sitkScaleSkewVersor3DTransform_8h.html" target="_top" xlink:title=" ">
<polygon fill="#ffffff" stroke="#000000" points="4666.7319,-190.5 4666.7319,-209.5 4855.7319,-209.5 4855.7319,-190.5 4666.7319,-190.5"/>
<text text-anchor="middle" x="4761.2319" y="-197.5" font-family="Helvetica,sans-Serif" font-size="10.00" fill="#000000">sitkScaleSkewVersor3DTransform.h</text>
</a>
</g>
</g>
<!-- Node1&#45;&gt;Node312 -->
<g id="edge87" class="edge">
<title>Node1&#45;&gt;Node312</title>
<path fill="none" stroke="#191970" d="M4668.7383,-242.1109C4691.0431,-231.9559 4720.7118,-218.4482 4740.3633,-209.5011"/>
<polygon fill="#191970" stroke="#191970" points="4667.0272,-239.0442 4659.3763,-246.3733 4669.9277,-245.415 4667.0272,-239.0442"/>
</g>
<!-- Node313 -->
<g id="node44" class="node">
<title>Node313</title>
<g id="a_node44"><a xlink:href="sitkScaleVersor3DTransform_8h.html" target="_top" xlink:title=" ">
<polygon fill="#ffffff" stroke="#000000" points="4873.7319,-190.5 4873.7319,-209.5 5036.7319,-209.5 5036.7319,-190.5 4873.7319,-190.5"/>
<text text-anchor="middle" x="4955.2319" y="-197.5" font-family="Helvetica,sans-Serif" font-size="10.00" fill="#000000">sitkScaleVersor3DTransform.h</text>
</a>
</g>
</g>
<!-- Node1&#45;&gt;Node313 -->
<g id="edge89" class="edge">
<title>Node1&#45;&gt;Node313</title>
<path fill="none" stroke="#191970" d="M4694.4944,-246.0609C4752.9679,-235.7312 4843.8249,-219.6807 4901.3863,-209.5121"/>
<polygon fill="#191970" stroke="#191970" points="4693.565,-242.6708 4684.3264,-247.8571 4694.7828,-249.564 4693.565,-242.6708"/>
</g>
<!-- Node314 -->
<g id="node45" class="node">
<title>Node314</title>
<g id="a_node45"><a xlink:href="sitkSimilarity2DTransform_8h.html" target="_top" xlink:title=" ">
<polygon fill="#ffffff" stroke="#000000" points="5054.7319,-190.5 5054.7319,-209.5 5207.7319,-209.5 5207.7319,-190.5 5054.7319,-190.5"/>
<text text-anchor="middle" x="5131.2319" y="-197.5" font-family="Helvetica,sans-Serif" font-size="10.00" fill="#000000">sitkSimilarity2DTransform.h</text>
</a>
</g>
</g>
<!-- Node1&#45;&gt;Node314 -->
<g id="edge91" class="edge">
<title>Node1&#45;&gt;Node314</title>
<path fill="none" stroke="#191970" d="M4694.6179,-249.73C4773.3499,-240.9553 4920.686,-224.4623 5046.2319,-210 5048.8889,-209.6939 5051.5924,-209.3815 5054.3229,-209.065"/>
<polygon fill="#191970" stroke="#191970" points="4693.9872,-246.2785 4684.4362,-250.8643 4694.7623,-253.2355 4693.9872,-246.2785"/>
</g>
<!-- Node315 -->
<g id="node46" class="node">
<title>Node315</title>
<g id="a_node46"><a xlink:href="sitkSimilarity3DTransform_8h.html" target="_top" xlink:title=" ">
<polygon fill="#ffffff" stroke="#000000" points="5225.7319,-190.5 5225.7319,-209.5 5378.7319,-209.5 5378.7319,-190.5 5225.7319,-190.5"/>
<text text-anchor="middle" x="5302.2319" y="-197.5" font-family="Helvetica,sans-Serif" font-size="10.00" fill="#000000">sitkSimilarity3DTransform.h</text>
</a>
</g>
</g>
<!-- Node1&#45;&gt;Node315 -->
<g id="edge93" class="edge">
<title>Node1&#45;&gt;Node315</title>
<path fill="none" stroke="#191970" d="M4694.6749,-252.2279C4798.3091,-245.1435 5025.8603,-228.8523 5217.2319,-210 5219.8935,-209.7378 5222.6012,-209.463 5225.3351,-209.1787"/>
<polygon fill="#191970" stroke="#191970" points="4694.1814,-248.7533 4684.4424,-252.9249 4694.6572,-255.7371 4694.1814,-248.7533"/>
</g>
<!-- Node316 -->
<g id="node47" class="node">
<title>Node316</title>
<g id="a_node47"><a xlink:href="sitkTranslationTransform_8h.html" target="_top" xlink:title=" ">
<polygon fill="#ffffff" stroke="#000000" points="5397.2319,-190.5 5397.2319,-209.5 5543.2319,-209.5 5543.2319,-190.5 5397.2319,-190.5"/>
<text text-anchor="middle" x="5470.2319" y="-197.5" font-family="Helvetica,sans-Serif" font-size="10.00" fill="#000000">sitkTranslationTransform.h</text>
</a>
</g>
</g>
<!-- Node1&#45;&gt;Node316 -->
<g id="edge95" class="edge">
<title>Node1&#45;&gt;Node316</title>
<path fill="none" stroke="#191970" d="M4694.4856,-253.7066C4819.4408,-248.3589 5129.5151,-233.6878 5388.2319,-210 5391.0882,-209.7385 5393.9988,-209.4568 5396.9376,-209.1597"/>
<polygon fill="#191970" stroke="#191970" points="4694.2337,-250.2141 4684.3914,-254.1355 4694.531,-257.2078 4694.2337,-250.2141"/>
</g>
<!-- Node317 -->
<g id="node48" class="node">
<title>Node317</title>
<g id="a_node48"><a xlink:href="sitkVersorTransform_8h.html" target="_top" xlink:title=" ">
<polygon fill="#ffffff" stroke="#000000" points="5561.7319,-190.5 5561.7319,-209.5 5684.7319,-209.5 5684.7319,-190.5 5561.7319,-190.5"/>
<text text-anchor="middle" x="5623.2319" y="-197.5" font-family="Helvetica,sans-Serif" font-size="10.00" fill="#000000">sitkVersorTransform.h</text>
</a>
</g>
</g>
<!-- Node1&#45;&gt;Node317 -->
<g id="edge97" class="edge">
<title>Node1&#45;&gt;Node317</title>
<path fill="none" stroke="#191970" d="M4694.7767,-254.9161C4838.3561,-251.7816 5228.5835,-240.8738 5552.2319,-210 5555.3298,-209.7045 5558.4998,-209.3713 5561.6982,-209.0107"/>
<polygon fill="#191970" stroke="#191970" points="4694.3885,-251.4235 4684.4658,-255.137 4694.5385,-258.4219 4694.3885,-251.4235"/>
</g>
<!-- Node318 -->
<g id="node49" class="node">
<title>Node318</title>
<g id="a_node49"><a xlink:href="sitkVersorRigid3DTransform_8h.html" target="_top" xlink:title=" ">
<polygon fill="#ffffff" stroke="#000000" points="5702.7319,-190.5 5702.7319,-209.5 5863.7319,-209.5 5863.7319,-190.5 5702.7319,-190.5"/>
<text text-anchor="middle" x="5783.2319" y="-197.5" font-family="Helvetica,sans-Serif" font-size="10.00" fill="#000000">sitkVersorRigid3DTransform.h</text>
</a>
</g>
</g>
<!-- Node1&#45;&gt;Node318 -->
<g id="edge99" class="edge">
<title>Node1&#45;&gt;Node318</title>
<path fill="none" stroke="#191970" d="M4694.7775,-254.8967C4852.9103,-251.5178 5313.0705,-239.6805 5694.2319,-210 5697.0222,-209.7827 5699.8601,-209.5466 5702.7251,-209.2952"/>
<polygon fill="#191970" stroke="#191970" points="4694.2842,-251.4062 4684.3603,-255.1163 4694.4318,-258.4047 4694.2842,-251.4062"/>
</g>
<!-- Node319 -->
<g id="node50" class="node">
<title>Node319</title>
<g id="a_node50"><a xlink:href="sitkImageRegistrationMethod_8h.html" target="_top" xlink:title=" ">
<polygon fill="#ffffff" stroke="#000000" points="5881.7319,-190.5 5881.7319,-209.5 6050.7319,-209.5 6050.7319,-190.5 5881.7319,-190.5"/>
<text text-anchor="middle" x="5966.2319" y="-197.5" font-family="Helvetica,sans-Serif" font-size="10.00" fill="#000000">sitkImageRegistrationMethod.h</text>
</a>
</g>
</g>
<!-- Node1&#45;&gt;Node319 -->
<g id="edge101" class="edge">
<title>Node1&#45;&gt;Node319</title>
<path fill="none" stroke="#191970" d="M4694.523,-255.3031C4869.4686,-252.8371 5419.1975,-242.8258 5873.2319,-210 5875.9853,-209.8009 5878.7831,-209.5842 5881.6074,-209.353"/>
<polygon fill="#191970" stroke="#191970" points="4694.2252,-251.8068 4684.2746,-255.4449 4694.3221,-258.8061 4694.2252,-251.8068"/>
</g>
<!-- Node2&#45;&gt;Node3 -->
<g id="edge2" class="edge">
<title>Node2&#45;&gt;Node3</title>
<path fill="none" stroke="#191970" d="M2362.4196,-198.0048C2188.6261,-192.0388 1685.698,-173.5354 1522.2319,-154 1510.0039,-152.5387 1496.856,-150.339 1484.7471,-148.0523"/>
<polygon fill="#191970" stroke="#191970" points="2362.5391,-201.5108 2372.6529,-198.3546 2362.7783,-194.5149 2362.5391,-201.5108"/>
</g>
<!-- Node5 -->
<g id="node5" class="node">
<title>Node5</title>
<g id="a_node5"><a xlink:href="sitkBSplineTransformInitializerFilter_8h.html" target="_top" xlink:title=" ">
<polygon fill="#ffffff" stroke="#000000" points="4678.2319,-56.5 4678.2319,-86.5 4844.2319,-86.5 4844.2319,-56.5 4678.2319,-56.5"/>
<text text-anchor="start" x="4686.2319" y="-74.5" font-family="Helvetica,sans-Serif" font-size="10.00" fill="#000000">sitkBSplineTransformInitializer</text>
<text text-anchor="middle" x="4761.2319" y="-63.5" font-family="Helvetica,sans-Serif" font-size="10.00" fill="#000000">Filter.h</text>
</a>
</g>
</g>
<!-- Node2&#45;&gt;Node5 -->
<g id="edge4" class="edge">
<title>Node2&#45;&gt;Node5</title>
<path fill="none" stroke="#191970" d="M2482.0805,-199.1048C2760.9288,-194.8316 3925.9642,-175.8108 4087.2319,-154 4144.3815,-146.2707 4156.2986,-132.1886 4213.2319,-123 4413.9321,-90.6086 4467.4667,-111.9118 4669.2319,-87 4672.1254,-86.6427 4675.0669,-86.2591 4678.0352,-85.8545"/>
<polygon fill="#191970" stroke="#191970" points="2481.7126,-195.6099 2471.7673,-199.2623 2481.8196,-202.6091 2481.7126,-195.6099"/>
</g>
<!-- Node6 -->
<g id="node6" class="node">
<title>Node6</title>
<g id="a_node6"><a xlink:href="sitkImageFilter_8h.html" target="_top" xlink:title=" ">
<polygon fill="#ffffff" stroke="#ff0000" points="2469.2319,-129 2469.2319,-148 2567.2319,-148 2567.2319,-129 2469.2319,-129"/>
<text text-anchor="middle" x="2518.2319" y="-136" font-family="Helvetica,sans-Serif" font-size="10.00" fill="#000000">sitkImageFilter.h</text>
</a>
</g>
</g>
<!-- Node2&#45;&gt;Node6 -->
<g id="edge6" class="edge">
<title>Node2&#45;&gt;Node6</title>
<path fill="none" stroke="#191970" d="M2445.9805,-184.786C2463.9312,-173.2864 2488.0192,-157.855 2503.3372,-148.0419"/>
<polygon fill="#191970" stroke="#191970" points="2443.7642,-182.0492 2437.2319,-190.3906 2447.5402,-187.9434 2443.7642,-182.0492"/>
</g>
<!-- Node8 -->
<g id="node7" class="node">
<title>Node8</title>
<g id="a_node7"><a xlink:href="sitkExtractImageFilter_8h.html" target="_top" xlink:title=" ">
<polygon fill="#ffffff" stroke="#000000" points="2413.2319,-62 2413.2319,-81 2545.2319,-81 2545.2319,-62 2413.2319,-62"/>
<text text-anchor="middle" x="2479.2319" y="-69" font-family="Helvetica,sans-Serif" font-size="10.00" fill="#000000">sitkExtractImageFilter.h</text>
</a>
</g>
</g>
<!-- Node2&#45;&gt;Node8 -->
<g id="edge44" class="edge">
<title>Node2&#45;&gt;Node8</title>
<path fill="none" stroke="#191970" d="M2430.6983,-180.9134C2443.0298,-153.1134 2465.485,-102.4907 2474.8979,-81.2705"/>
<polygon fill="#191970" stroke="#191970" points="2427.3716,-179.7814 2426.5161,-190.3416 2433.7703,-182.6198 2427.3716,-179.7814"/>
</g>
<!-- Node9 -->
<g id="node8" class="node">
<title>Node9</title>
<g id="a_node8"><a xlink:href="sitkHashImageFilter_8h.html" target="_top" xlink:title=" ">
<polygon fill="#ffffff" stroke="#000000" points="2601.2319,-62 2601.2319,-81 2723.2319,-81 2723.2319,-62 2601.2319,-62"/>
<text text-anchor="middle" x="2662.2319" y="-69" font-family="Helvetica,sans-Serif" font-size="10.00" fill="#000000">sitkHashImageFilter.h</text>
</a>
</g>
</g>
<!-- Node2&#45;&gt;Node9 -->
<g id="edge45" class="edge">
<title>Node2&#45;&gt;Node9</title>
<path fill="none" stroke="#191970" d="M2481.654,-189.1853C2511.4201,-182.0869 2547.2043,-170.9084 2576.2319,-154 2610.1999,-134.2138 2641.1191,-98.3533 2654.804,-81.1778"/>
<polygon fill="#191970" stroke="#191970" points="2480.7756,-185.7957 2471.8085,-191.4386 2482.3374,-192.6193 2480.7756,-185.7957"/>
</g>
<!-- Node10 -->
<g id="node9" class="node">
<title>Node10</title>
<g id="a_node9"><a xlink:href="sitkLandmarkBasedTransformInitializerFilter_8h.html" target="_top" xlink:title=" ">
<polygon fill="#ffffff" stroke="#000000" points="2741.2319,-56.5 2741.2319,-86.5 2903.2319,-86.5 2903.2319,-56.5 2741.2319,-56.5"/>
<text text-anchor="start" x="2749.2319" y="-74.5" font-family="Helvetica,sans-Serif" font-size="10.00" fill="#000000">sitkLandmarkBasedTransform</text>
<text text-anchor="middle" x="2822.2319" y="-63.5" font-family="Helvetica,sans-Serif" font-size="10.00" fill="#000000">InitializerFilter.h</text>
</a>
</g>
</g>
<!-- Node2&#45;&gt;Node10 -->
<g id="edge46" class="edge">
<title>Node2&#45;&gt;Node10</title>
<path fill="none" stroke="#191970" d="M2478.4387,-188.2734C2516.0797,-179.9266 2566.5481,-167.7787 2610.2319,-154 2673.8857,-133.9223 2745.8875,-104.3994 2787.4746,-86.6519"/>
<polygon fill="#191970" stroke="#191970" points="2477.6857,-184.8553 2468.669,-190.4185 2479.187,-191.6924 2477.6857,-184.8553"/>
</g>
<!-- Node11 -->
<g id="node10" class="node">
<title>Node11</title>
<g id="a_node10"><a xlink:href="sitkAbsImageFilter_8h.html" target="_top" xlink:title=" ">
<polygon fill="#ffffff" stroke="#ff0000" points="2921.2319,-62 2921.2319,-81 3037.2319,-81 3037.2319,-62 2921.2319,-62"/>
<text text-anchor="middle" x="2979.2319" y="-69" font-family="Helvetica,sans-Serif" font-size="10.00" fill="#000000">sitkAbsImageFilter.h</text>
</a>
</g>
</g>
<!-- Node2&#45;&gt;Node11 -->
<g id="edge47" class="edge">
<title>Node2&#45;&gt;Node11</title>
<path fill="none" stroke="#191970" d="M2481.8893,-189.979C2531.4411,-181.3622 2603.6829,-168.1204 2666.2319,-154 2769.0133,-130.7972 2889.1423,-97.3264 2946.0711,-81.0756"/>
<polygon fill="#191970" stroke="#191970" points="2481.2387,-186.5395 2471.9816,-191.6929 2482.4319,-193.4371 2481.2387,-186.5395"/>
</g>
<!-- Node14 -->
<g id="node11" class="node">
<title>Node14</title>
<g id="a_node11"><a xlink:href="sitkAbsoluteValueDifferenceImageFilter_8h.html" target="_top" xlink:title=" ">
<polygon fill="#ffffff" stroke="#ff0000" points="3055.7319,-56.5 3055.7319,-86.5 3210.7319,-86.5 3210.7319,-56.5 3055.7319,-56.5"/>
<text text-anchor="start" x="3063.7319" y="-74.5" font-family="Helvetica,sans-Serif" font-size="10.00" fill="#000000">sitkAbsoluteValueDifference</text>
<text text-anchor="middle" x="3133.2319" y="-63.5" font-family="Helvetica,sans-Serif" font-size="10.00" fill="#000000">ImageFilter.h</text>
</a>
</g>
</g>
<!-- Node2&#45;&gt;Node14 -->
<g id="edge48" class="edge">
<title>Node2&#45;&gt;Node14</title>
<path fill="none" stroke="#191970" d="M2481.7918,-192.5736C2546.0079,-184.2958 2651.1466,-169.9578 2741.2319,-154 2856.9636,-133.4991 2990.7293,-104.1118 3068.2819,-86.5053"/>
<polygon fill="#191970" stroke="#191970" points="2481.3189,-189.1055 2471.8455,-193.8495 2482.2095,-196.0486 2481.3189,-189.1055"/>
</g>
<!-- Node15 -->
<g id="node12" class="node">
<title>Node15</title>
<g id="a_node12"><a xlink:href="sitkAcosImageFilter_8h.html" target="_top" xlink:title=" ">
<polygon fill="#ffffff" stroke="#ff0000" points="3228.7319,-62 3228.7319,-81 3349.7319,-81 3349.7319,-62 3228.7319,-62"/>
<text text-anchor="middle" x="3289.2319" y="-69" font-family="Helvetica,sans-Serif" font-size="10.00" fill="#000000">sitkAcosImageFilter.h</text>
</a>
</g>
</g>
<!-- Node2&#45;&gt;Node15 -->
<g id="edge49" class="edge">
<title>Node2&#45;&gt;Node15</title>
<path fill="none" stroke="#191970" d="M2482.1176,-194.3733C2561.9347,-186.6207 2707.5047,-171.5975 2831.2319,-154 3004.9185,-129.2968 3048.1483,-121.1252 3220.2319,-87 3229.3847,-85.1849 3239.1843,-83.0815 3248.44,-81.0208"/>
<polygon fill="#191970" stroke="#191970" points="2481.3892,-190.9273 2471.7723,-195.3732 2482.0627,-197.8949 2481.3892,-190.9273"/>
</g>
<!-- Node16 -->
<g id="node13" class="node">
<title>Node16</title>
<g id="a_node13"><a xlink:href="sitkAdaptiveHistogramEqualizationImageFilter_8h.html" target="_top" xlink:title=" ">
<polygon fill="#ffffff" stroke="#ff0000" points="3367.7319,-56.5 3367.7319,-86.5 3556.7319,-86.5 3556.7319,-56.5 3367.7319,-56.5"/>
<text text-anchor="start" x="3375.7319" y="-74.5" font-family="Helvetica,sans-Serif" font-size="10.00" fill="#000000">sitkAdaptiveHistogramEqualization</text>
<text text-anchor="middle" x="3462.2319" y="-63.5" font-family="Helvetica,sans-Serif" font-size="10.00" fill="#000000">ImageFilter.h</text>
</a>
</g>
</g>
<!-- Node2&#45;&gt;Node16 -->
<g id="edge50" class="edge">
<title>Node2&#45;&gt;Node16</title>
<path fill="none" stroke="#191970" d="M2482.1217,-196.0729C2579.1686,-189.4039 2776.7214,-174.5597 2943.2319,-154 3097.8423,-134.9097 3277.0968,-104.5831 3379.3377,-86.5021"/>
<polygon fill="#191970" stroke="#191970" points="2481.6584,-192.5963 2471.92,-196.7692 2482.1351,-199.5801 2481.6584,-192.5963"/>
</g>
<!-- Node17 -->
<g id="node14" class="node">
<title>Node17</title>
<g id="a_node14"><a xlink:href="sitkAddImageFilter_8h.html" target="_top" xlink:title=" ">
<polygon fill="#ffffff" stroke="#ff0000" points="3575.2319,-62 3575.2319,-81 3691.2319,-81 3691.2319,-62 3575.2319,-62"/>
<text text-anchor="middle" x="3633.2319" y="-69" font-family="Helvetica,sans-Serif" font-size="10.00" fill="#000000">sitkAddImageFilter.h</text>
</a>
</g>
</g>
<!-- Node2&#45;&gt;Node17 -->
<g id="edge51" class="edge">
<title>Node2&#45;&gt;Node17</title>
<path fill="none" stroke="#191970" d="M2482.0048,-197.5408C2652.5549,-189.7862 3155.6615,-161.7723 3566.2319,-87 3575.5112,-85.3101 3585.4438,-83.1871 3594.7429,-81.0592"/>
<polygon fill="#191970" stroke="#191970" points="2481.8056,-194.0461 2471.9725,-197.9909 2482.1194,-201.039 2481.8056,-194.0461"/>
</g>
<!-- Node19 -->
<g id="node15" class="node">
<title>Node19</title>
<g id="a_node15"><a xlink:href="sitkAdditiveGaussianNoiseImageFilter_8h.html" target="_top" xlink:title=" ">
<polygon fill="#ffffff" stroke="#ff0000" points="3709.2319,-56.5 3709.2319,-86.5 3857.2319,-86.5 3857.2319,-56.5 3709.2319,-56.5"/>
<text text-anchor="start" x="3717.2319" y="-74.5" font-family="Helvetica,sans-Serif" font-size="10.00" fill="#000000">sitkAdditiveGaussianNoise</text>
<text text-anchor="middle" x="3783.2319" y="-63.5" font-family="Helvetica,sans-Serif" font-size="10.00" fill="#000000">ImageFilter.h</text>
</a>
</g>
</g>
<!-- Node2&#45;&gt;Node19 -->
<g id="edge52" class="edge">
<title>Node2&#45;&gt;Node19</title>
<path fill="none" stroke="#191970" d="M2482.284,-198.2146C2615.532,-193.8868 2945.9154,-181.1347 3221.2319,-154 3435.1568,-132.916 3488.078,-121.6285 3700.2319,-87 3703.1253,-86.5277 3706.0733,-86.0346 3709.0496,-85.5269"/>
<polygon fill="#191970" stroke="#191970" points="2481.7798,-194.7289 2471.8972,-198.5478 2482.0043,-201.7253 2481.7798,-194.7289"/>
</g>
<!-- Node20 -->
<g id="node16" class="node">
<title>Node20</title>
<g id="a_node16"><a xlink:href="sitkAggregateLabelMapFilter_8h.html" target="_top" xlink:title=" ">
<polygon fill="#ffffff" stroke="#ff0000" points="3875.2319,-62 3875.2319,-81 4039.2319,-81 4039.2319,-62 3875.2319,-62"/>
<text text-anchor="middle" x="3957.2319" y="-69" font-family="Helvetica,sans-Serif" font-size="10.00" fill="#000000">sitkAggregateLabelMapFilter.h</text>
</a>
</g>
</g>
<!-- Node2&#45;&gt;Node20 -->
<g id="edge53" class="edge">
<title>Node2&#45;&gt;Node20</title>
<path fill="none" stroke="#191970" d="M2482.1161,-198.8083C2631.2505,-195.4635 3031.1648,-184.179 3363.2319,-154 3587.8362,-133.5874 3643.2534,-120.829 3866.2319,-87 3878.2739,-85.173 3891.1863,-83.0648 3903.3909,-81.0032"/>
<polygon fill="#191970" stroke="#191970" points="2481.7365,-195.3158 2471.8162,-199.0356 2481.891,-202.3141 2481.7365,-195.3158"/>
</g>
<!-- Node21 -->
<g id="node17" class="node">
<title>Node21</title>
<g id="a_node17"><a xlink:href="sitkAndImageFilter_8h.html" target="_top" xlink:title=" ">
<polygon fill="#ffffff" stroke="#ff0000" points="4057.2319,-62 4057.2319,-81 4173.2319,-81 4173.2319,-62 4057.2319,-62"/>
<text text-anchor="middle" x="4115.2319" y="-69" font-family="Helvetica,sans-Serif" font-size="10.00" fill="#000000">sitkAndImageFilter.h</text>
</a>
</g>
</g>
<!-- Node2&#45;&gt;Node21 -->
<g id="edge54" class="edge">
<title>Node2&#45;&gt;Node21</title>
<path fill="none" stroke="#191970" d="M2482.3873,-199.1874C2647.2009,-196.5877 3119.8071,-186.6303 3511.2319,-154 3750.9176,-134.0191 3811.4191,-129.05 4048.2319,-87 4057.6361,-85.3301 4067.7056,-83.1903 4077.1063,-81.0372"/>
<polygon fill="#191970" stroke="#191970" points="2481.9252,-195.694 2471.9805,-199.3481 2482.0334,-202.6932 2481.9252,-195.694"/>
</g>
<!-- Node22 -->
<g id="node18" class="node">
<title>Node22</title>
<g id="a_node18"><a xlink:href="sitkAntiAliasBinaryImageFilter_8h.html" target="_top" xlink:title=" ">
<polygon fill="#ffffff" stroke="#ff0000" points="4191.2319,-56.5 4191.2319,-86.5 4331.2319,-86.5 4331.2319,-56.5 4191.2319,-56.5"/>
<text text-anchor="start" x="4199.2319" y="-74.5" font-family="Helvetica,sans-Serif" font-size="10.00" fill="#000000">sitkAntiAliasBinaryImage</text>
<text text-anchor="middle" x="4261.2319" y="-63.5" font-family="Helvetica,sans-Serif" font-size="10.00" fill="#000000">Filter.h</text>
</a>
</g>
</g>
<!-- Node2&#45;&gt;Node22 -->
<g id="edge55" class="edge">
<title>Node2&#45;&gt;Node22</title>
<path fill="none" stroke="#191970" d="M2482.264,-198.5595C2699.0037,-193.24 3440.7666,-173.9742 3677.2319,-154 3902.8396,-134.9429 3958.8153,-123.7021 4182.2319,-87 4185.1282,-86.5242 4188.0809,-86.0222 4191.0613,-85.5014"/>
<polygon fill="#191970" stroke="#191970" points="2481.9536,-195.0659 2472.0422,-198.8095 2482.1249,-202.0638 2481.9536,-195.0659"/>
</g>
<!-- Node23 -->
<g id="node19" class="node">
<title>Node23</title>
<g id="a_node19"><a xlink:href="sitkApproximateSignedDistanceMapImageFilter_8h.html" target="_top" xlink:title=" ">
<polygon fill="#ffffff" stroke="#ff0000" points="4349.7319,-56.5 4349.7319,-86.5 4522.7319,-86.5 4522.7319,-56.5 4349.7319,-56.5"/>
<text text-anchor="start" x="4357.7319" y="-74.5" font-family="Helvetica,sans-Serif" font-size="10.00" fill="#000000">sitkApproximateSignedDistance</text>
<text text-anchor="middle" x="4436.2319" y="-63.5" font-family="Helvetica,sans-Serif" font-size="10.00" fill="#000000">MapImageFilter.h</text>
</a>
</g>
</g>
<!-- Node2&#45;&gt;Node23 -->
<g id="edge56" class="edge">
<title>Node2&#45;&gt;Node23</title>
<path fill="none" stroke="#191970" d="M2482.0441,-198.8281C2715.0223,-194.1417 3562.1031,-175.9392 3830.2319,-154 4016.0873,-138.7927 4232.1464,-105.6227 4349.4958,-86.2934"/>
<polygon fill="#191970" stroke="#191970" points="2481.6693,-195.3348 2471.7415,-199.0345 2481.8096,-202.3334 2481.6693,-195.3348"/>
</g>
<!-- Node24 -->
<g id="node20" class="node">
<title>Node24</title>
<g id="a_node20"><a xlink:href="sitkAsinImageFilter_8h.html" target="_top" xlink:title=" ">
<polygon fill="#ffffff" stroke="#ff0000" points="4540.7319,-62 4540.7319,-81 4659.7319,-81 4659.7319,-62 4540.7319,-62"/>
<text text-anchor="middle" x="4600.2319" y="-69" font-family="Helvetica,sans-Serif" font-size="10.00" fill="#000000">sitkAsinImageFilter.h</text>
</a>
</g>
</g>
<!-- Node2&#45;&gt;Node24 -->
<g id="edge57" class="edge">
<title>Node2&#45;&gt;Node24</title>
<path fill="none" stroke="#191970" d="M2482.0619,-199.269C2730.1642,-196.077 3679.0247,-182.2399 3977.2319,-154 4063.7221,-145.8095 4084.0786,-134.1926 4170.2319,-123 4330.567,-102.17 4372.6563,-113.017 4532.2319,-87 4542.0313,-85.4023 4552.5298,-83.2378 4562.2741,-81.0336"/>
<polygon fill="#191970" stroke="#191970" points="2481.7632,-195.7724 2471.8088,-199.3999 2481.8527,-202.7718 2481.7632,-195.7724"/>
</g>
<!-- Node25 -->
<g id="node21" class="node">
<title>Node25</title>
<g id="a_node21"><a xlink:href="sitkAtan2ImageFilter_8h.html" target="_top" xlink:title=" ">
<polygon fill="#ffffff" stroke="#ff0000" points="38.2319,-62 38.2319,-81 164.2319,-81 164.2319,-62 38.2319,-62"/>
<text text-anchor="middle" x="101.2319" y="-69" font-family="Helvetica,sans-Serif" font-size="10.00" fill="#000000">sitkAtan2ImageFilter.h</text>
</a>
</g>
</g>
<!-- Node2&#45;&gt;Node25 -->
<g id="edge58" class="edge">
<title>Node2&#45;&gt;Node25</title>
<path fill="none" stroke="#191970" d="M2362.3932,-199.3134C2247.4281,-197.2103 2000.2376,-188.6699 1923.2319,-154 1904.8827,-145.7388 1908.8625,-130.6051 1890.2319,-123 1801.8982,-86.9416 267.995,-98.0904 173.2319,-87 162.0561,-85.6921 150.0559,-83.4518 139.1186,-81.0747"/>
<polygon fill="#191970" stroke="#191970" points="2362.3739,-202.8135 2372.4328,-199.4867 2362.4948,-195.8145 2362.3739,-202.8135"/>
</g>
<!-- Node26 -->
<g id="node22" class="node">
<title>Node26</title>
<g id="a_node22"><a xlink:href="sitkAtanImageFilter_8h.html" target="_top" xlink:title=" ">
<polygon fill="#ffffff" stroke="#ff0000" points="182.2319,-62 182.2319,-81 302.2319,-81 302.2319,-62 182.2319,-62"/>
<text text-anchor="middle" x="242.2319" y="-69" font-family="Helvetica,sans-Serif" font-size="10.00" fill="#000000">sitkAtanImageFilter.h</text>
</a>
</g>
</g>
<!-- Node2&#45;&gt;Node26 -->
<g id="edge59" class="edge">
<title>Node2&#45;&gt;Node26</title>
<path fill="none" stroke="#191970" d="M2362.4496,-198.3025C2254.6619,-194.5419 2032.3437,-183.3868 1961.2319,-154 1941.0882,-145.6757 1943.6815,-130.5415 1923.2319,-123 1755.1422,-61.0109 489.0636,-108.7404 311.2319,-87 300.5073,-85.6889 289.0026,-83.4476 278.5213,-81.0706"/>
<polygon fill="#191970" stroke="#191970" points="2362.4014,-201.8028 2372.5142,-198.6437 2362.6386,-194.8068 2362.4014,-201.8028"/>
</g>
<!-- Node27 -->
<g id="node23" class="node">
<title>Node27</title>
<g id="a_node23"><a xlink:href="sitkBSplineDecompositionImageFilter_8h.html" target="_top" xlink:title=" ">
<polygon fill="#ffffff" stroke="#ff0000" points="320.7319,-56.5 320.7319,-86.5 465.7319,-86.5 465.7319,-56.5 320.7319,-56.5"/>
<text text-anchor="start" x="328.7319" y="-74.5" font-family="Helvetica,sans-Serif" font-size="10.00" fill="#000000">sitkBSplineDecomposition</text>
<text text-anchor="middle" x="393.2319" y="-63.5" font-family="Helvetica,sans-Serif" font-size="10.00" fill="#000000">ImageFilter.h</text>
</a>
</g>
</g>
<!-- Node2&#45;&gt;Node27 -->
<g id="edge60" class="edge">
<title>Node2&#45;&gt;Node27</title>
<path fill="none" stroke="#191970" d="M2362.565,-197.6819C2261.9866,-193.0848 2063.3848,-180.8447 1999.2319,-154 1979.1253,-145.5864 1981.6744,-130.5607 1961.2319,-123 1806.2234,-65.6698 638.5637,-104.5909 474.2319,-87 471.527,-86.7105 468.7774,-86.3785 466.0047,-86.012"/>
<polygon fill="#191970" stroke="#191970" points="2362.4251,-201.179 2372.5713,-198.1288 2362.7375,-194.186 2362.4251,-201.179"/>
</g>
<!-- Node28 -->
<g id="node24" class="node">
<title>Node28</title>
<g id="a_node24"><a xlink:href="sitkBilateralImageFilter_8h.html" target="_top" xlink:title=" ">
<polygon fill="#ffffff" stroke="#ff0000" points="483.7319,-62 483.7319,-81 622.7319,-81 622.7319,-62 483.7319,-62"/>
<text text-anchor="middle" x="553.2319" y="-69" font-family="Helvetica,sans-Serif" font-size="10.00" fill="#000000">sitkBilateralImageFilter.h</text>
</a>
</g>
</g>
<!-- Node2&#45;&gt;Node28 -->
<g id="edge61" class="edge">
<title>Node2&#45;&gt;Node28</title>
<path fill="none" stroke="#191970" d="M2362.4082,-196.9273C2269.2865,-191.4639 2094.4146,-178.2848 2037.2319,-154 2017.1702,-145.48 2019.6664,-130.5824 1999.2319,-123 1856.7809,-70.1422 783.2545,-103.6852 632.2319,-87 620.0067,-85.6493 606.8514,-83.3957 594.8499,-81.0195"/>
<polygon fill="#191970" stroke="#191970" points="2362.3411,-200.4291 2372.5257,-197.5094 2362.7432,-193.4407 2362.3411,-200.4291"/>
</g>
<!-- Node29 -->
<g id="node25" class="node">
<title>Node29</title>
<g id="a_node25"><a xlink:href="sitkBinShrinkImageFilter_8h.html" target="_top" xlink:title=" ">
<polygon fill="#ffffff" stroke="#ff0000" points="641.2319,-62 641.2319,-81 785.2319,-81 785.2319,-62 641.2319,-62"/>
<text text-anchor="middle" x="713.2319" y="-69" font-family="Helvetica,sans-Serif" font-size="10.00" fill="#000000">sitkBinShrinkImageFilter.h</text>
</a>
</g>
</g>
<!-- Node2&#45;&gt;Node29 -->
<g id="edge62" class="edge">
<title>Node2&#45;&gt;Node29</title>
<path fill="none" stroke="#191970" d="M2362.5064,-196.0269C2277.2905,-189.6922 2125.5506,-175.7533 2075.2319,-154 2055.2254,-145.351 2057.6564,-130.6092 2037.2319,-123 1907.7564,-74.7634 931.5807,-102.0324 794.2319,-87 781.8494,-85.6448 768.5282,-83.4205 756.3363,-81.0744"/>
<polygon fill="#191970" stroke="#191970" points="2362.329,-199.5232 2372.5576,-196.7618 2362.8394,-192.5418 2362.329,-199.5232"/>
</g>
<!-- Node30 -->
<g id="node26" class="node">
<title>Node30</title>
<g id="a_node26"><a xlink:href="sitkBinaryClosingByReconstructionImageFilter_8h.html" target="_top" xlink:title=" ">
<polygon fill="#ffffff" stroke="#ff0000" points="803.7319,-56.5 803.7319,-86.5 990.7319,-86.5 990.7319,-56.5 803.7319,-56.5"/>
<text text-anchor="start" x="811.7319" y="-74.5" font-family="Helvetica,sans-Serif" font-size="10.00" fill="#000000">sitkBinaryClosingByReconstruction</text>
<text text-anchor="middle" x="897.2319" y="-63.5" font-family="Helvetica,sans-Serif" font-size="10.00" fill="#000000">ImageFilter.h</text>
</a>
</g>
</g>
<!-- Node2&#45;&gt;Node30 -->
<g id="edge63" class="edge">
<title>Node2&#45;&gt;Node30</title>
<path fill="none" stroke="#191970" d="M2362.5358,-194.9054C2285.6499,-187.6949 2156.7343,-173.2206 2113.2319,-154 2093.2952,-145.1914 2095.6393,-130.6551 2075.2319,-123 1963.23,-80.9867 1118.347,-98.0047 999.2319,-87 996.4673,-86.7446 993.6636,-86.4633 990.8357,-86.1602"/>
<polygon fill="#191970" stroke="#191970" points="2362.2851,-198.3971 2372.5648,-195.8325 2362.9295,-191.4268 2362.2851,-198.3971"/>
</g>
<!-- Node31 -->
<g id="node27" class="node">
<title>Node31</title>
<g id="a_node27"><a xlink:href="sitkBinaryContourImageFilter_8h.html" target="_top" xlink:title=" ">
<polygon fill="#ffffff" stroke="#ff0000" points="1008.7319,-62 1008.7319,-81 1175.7319,-81 1175.7319,-62 1008.7319,-62"/>
<text text-anchor="middle" x="1092.2319" y="-69" font-family="Helvetica,sans-Serif" font-size="10.00" fill="#000000">sitkBinaryContourImageFilter.h</text>
</a>
</g>
</g>
<!-- Node2&#45;&gt;Node31 -->
<g id="edge64" class="edge">
<title>Node2&#45;&gt;Node31</title>
<path fill="none" stroke="#191970" d="M2362.4161,-193.4593C2294.3807,-185.3908 2187.9644,-170.6784 2151.2319,-154 2131.3859,-144.9889 2133.6189,-130.709 2113.2319,-123 2016.6092,-86.4639 1286.986,-97.6027 1184.2319,-87 1170.3757,-85.5703 1155.4466,-83.3519 1141.7292,-81.0361"/>
<polygon fill="#191970" stroke="#191970" points="2362.2367,-196.9621 2372.5758,-194.6488 2363.0507,-190.0096 2362.2367,-196.9621"/>
</g>
<!-- Node32 -->
<g id="node28" class="node">
<title>Node32</title>
<g id="a_node28"><a xlink:href="sitkBinaryDilateImageFilter_8h.html" target="_top" xlink:title=" ">
<polygon fill="#ffffff" stroke="#ff0000" points="1193.2319,-62 1193.2319,-81 1351.2319,-81 1351.2319,-62 1193.2319,-62"/>
<text text-anchor="middle" x="1272.2319" y="-69" font-family="Helvetica,sans-Serif" font-size="10.00" fill="#000000">sitkBinaryDilateImageFilter.h</text>
</a>
</g>
</g>
<!-- Node2&#45;&gt;Node32 -->
<g id="edge65" class="edge">
<title>Node2&#45;&gt;Node32</title>
<path fill="none" stroke="#191970" d="M2362.274,-196.2109C2313.6764,-191.2834 2244.4438,-179.9662 2189.2319,-154 2169.5083,-144.724 2171.5928,-130.7777 2151.2319,-123 1986.8566,-60.2098 1535.1298,-106.3016 1360.2319,-87 1347.1254,-85.5536 1333.0209,-83.3589 1320.0261,-81.0723"/>
<polygon fill="#191970" stroke="#191970" points="2362.0315,-199.7035 2372.3185,-197.1683 2362.6958,-192.7351 2362.0315,-199.7035"/>
</g>
<!-- Node33 -->
<g id="node29" class="node">
<title>Node33</title>
<g id="a_node29"><a xlink:href="sitkBinaryErodeImageFilter_8h.html" target="_top" xlink:title=" ">
<polygon fill="#ffffff" stroke="#ff0000" points="1369.7319,-62 1369.7319,-81 1526.7319,-81 1526.7319,-62 1369.7319,-62"/>
<text text-anchor="middle" x="1448.2319" y="-69" font-family="Helvetica,sans-Serif" font-size="10.00" fill="#000000">sitkBinaryErodeImageFilter.h</text>
</a>
</g>
</g>
<!-- Node2&#45;&gt;Node33 -->
<g id="edge66" class="edge">
<title>Node2&#45;&gt;Node33</title>
<path fill="none" stroke="#191970" d="M2362.3631,-193.0254C2322.5135,-186.6949 2269.8521,-175.009 2227.2319,-154 2207.6821,-144.3632 2209.5553,-130.8753 2189.2319,-123 2053.7188,-70.4886 1680.6082,-103.6346 1536.2319,-87 1523.2866,-85.5085 1509.3621,-83.327 1496.4947,-81.0688"/>
<polygon fill="#191970" stroke="#191970" points="2362.0511,-196.518 2372.4633,-194.5594 2363.1023,-189.5974 2362.0511,-196.518"/>
</g>
<!-- Node34 -->
<g id="node30" class="node">
<title>Node34</title>
<g id="a_node30"><a xlink:href="sitkBinaryFillholeImageFilter_8h.html" target="_top" xlink:title=" ">
<polygon fill="#ffffff" stroke="#ff0000" points="1545.2319,-62 1545.2319,-81 1709.2319,-81 1709.2319,-62 1545.2319,-62"/>
<text text-anchor="middle" x="1627.2319" y="-69" font-family="Helvetica,sans-Serif" font-size="10.00" fill="#000000">sitkBinaryFillholeImageFilter.h</text>
</a>
</g>
</g>
<!-- Node2&#45;&gt;Node34 -->
<g id="edge67" class="edge">
<title>Node2&#45;&gt;Node34</title>
<path fill="none" stroke="#191970" d="M2362.5484,-188.4444C2332.2815,-181.1346 2295.6011,-169.9907 2265.2319,-154 2245.9461,-143.8452 2247.4935,-131.033 2227.2319,-123 2121.8204,-81.2084 1830.8147,-100.5363 1718.2319,-87 1705.1844,-85.4312 1691.1588,-83.2772 1678.1205,-81.0737"/>
<polygon fill="#191970" stroke="#191970" points="2362.0148,-191.9139 2372.5485,-190.7779 2363.6055,-185.097 2362.0148,-191.9139"/>
</g>
<!-- Node35 -->
<g id="node31" class="node">
<title>Node35</title>
<g id="a_node31"><a xlink:href="sitkBinaryGrindPeakImageFilter_8h.html" target="_top" xlink:title=" ">
<polygon fill="#ffffff" stroke="#ff0000" points="1727.7319,-56.5 1727.7319,-86.5 1874.7319,-86.5 1874.7319,-56.5 1727.7319,-56.5"/>
<text text-anchor="start" x="1735.7319" y="-74.5" font-family="Helvetica,sans-Serif" font-size="10.00" fill="#000000">sitkBinaryGrindPeakImage</text>
<text text-anchor="middle" x="1801.2319" y="-63.5" font-family="Helvetica,sans-Serif" font-size="10.00" fill="#000000">Filter.h</text>
</a>
</g>
</g>
<!-- Node2&#45;&gt;Node35 -->
<g id="edge68" class="edge">
<title>Node2&#45;&gt;Node35</title>
<path fill="none" stroke="#191970" d="M2380.0031,-187.3119C2356.5641,-179.3888 2327.3596,-168.0262 2303.2319,-154 2284.3886,-143.0458 2285.3973,-131.2715 2265.2319,-123 2107.868,-58.4524 2052.6692,-110.6359 1884.2319,-87 1881.1834,-86.5722 1878.0765,-86.1103 1874.9414,-85.6228"/>
<polygon fill="#191970" stroke="#191970" points="2379.0708,-190.6897 2389.6638,-190.4947 2381.2612,-184.0413 2379.0708,-190.6897"/>
</g>
<!-- Node36 -->
<g id="node32" class="node">
<title>Node36</title>
<g id="a_node32"><a xlink:href="sitkBinaryImageToLabelMapFilter_8h.html" target="_top" xlink:title=" ">
<polygon fill="#ffffff" stroke="#ff0000" points="1893.2319,-56.5 1893.2319,-86.5 2047.2319,-86.5 2047.2319,-56.5 1893.2319,-56.5"/>
<text text-anchor="start" x="1901.2319" y="-74.5" font-family="Helvetica,sans-Serif" font-size="10.00" fill="#000000">sitkBinaryImageToLabelMap</text>
<text text-anchor="middle" x="1970.2319" y="-63.5" font-family="Helvetica,sans-Serif" font-size="10.00" fill="#000000">Filter.h</text>
</a>
</g>
</g>
<!-- Node2&#45;&gt;Node36 -->
<g id="edge69" class="edge">
<title>Node2&#45;&gt;Node36</title>
<path fill="none" stroke="#191970" d="M2394.5038,-185.7507C2378.5297,-177.1765 2358.2983,-165.6855 2341.2319,-154 2323.2477,-141.6861 2323.1819,-131.7782 2303.2319,-123 2201.6892,-78.3206 2165.7255,-104.8413 2056.2319,-87 2053.3869,-86.5364 2050.4905,-86.0563 2047.5659,-85.5646"/>
<polygon fill="#191970" stroke="#191970" points="2392.8857,-188.8543 2403.361,-190.4413 2396.1618,-182.6682 2392.8857,-188.8543"/>
</g>
<!-- Node37 -->
<g id="node33" class="node">
<title>Node37</title>
<g id="a_node33"><a xlink:href="sitkBinaryMagnitudeImageFilter_8h.html" target="_top" xlink:title=" ">
<polygon fill="#ffffff" stroke="#ff0000" points="2065.2319,-56.5 2065.2319,-86.5 2213.2319,-86.5 2213.2319,-56.5 2065.2319,-56.5"/>
<text text-anchor="start" x="2073.2319" y="-74.5" font-family="Helvetica,sans-Serif" font-size="10.00" fill="#000000">sitkBinaryMagnitudeImage</text>
<text text-anchor="middle" x="2139.2319" y="-63.5" font-family="Helvetica,sans-Serif" font-size="10.00" fill="#000000">Filter.h</text>
</a>
</g>
</g>
<!-- Node2&#45;&gt;Node37 -->
<g id="edge70" class="edge">
<title>Node2&#45;&gt;Node37</title>
<path fill="none" stroke="#191970" d="M2406.2637,-182.9181C2387.1117,-162.7828 2355.774,-131.0364 2341.2319,-123 2319.217,-110.8339 2261.5562,-96.6965 2213.4491,-86.3152"/>
<polygon fill="#191970" stroke="#191970" points="2403.7679,-185.373 2413.1786,-190.2402 2408.8571,-180.5668 2403.7679,-185.373"/>
</g>
<!-- Node38 -->
<g id="node34" class="node">
<title>Node38</title>
<g id="a_node34"><a xlink:href="sitkBinaryMedianImageFilter_8h.html" target="_top" xlink:title=" ">
<polygon fill="#ffffff" stroke="#ff0000" points="2231.2319,-62 2231.2319,-81 2395.2319,-81 2395.2319,-62 2231.2319,-62"/>
<text text-anchor="middle" x="2313.2319" y="-69" font-family="Helvetica,sans-Serif" font-size="10.00" fill="#000000">sitkBinaryMedianImageFilter.h</text>
</a>
</g>
</g>
<!-- Node2&#45;&gt;Node38 -->
<g id="edge71" class="edge">
<title>Node2&#45;&gt;Node38</title>
<path fill="none" stroke="#191970" d="M2414.2634,-181.0708C2406.7596,-164.6188 2394.4172,-140.7121 2379.2319,-123 2364.4746,-105.7872 2343.1944,-90.4286 2328.8211,-81.0561"/>
<polygon fill="#191970" stroke="#191970" points="2411.0618,-182.4852 2418.2925,-190.2292 2417.4692,-179.6663 2411.0618,-182.4852"/>
</g>
<!-- Node304 -->
<g id="node35" class="node">
<title>Node304</title>
<g id="a_node35"><a xlink:href="sitkCenteredTransformInitializerFilter_8h.html" target="_top" xlink:title=" ">
<polygon fill="#ffffff" stroke="#000000" points="1531.7319,-123.5 1531.7319,-153.5 1704.7319,-153.5 1704.7319,-123.5 1531.7319,-123.5"/>
<text text-anchor="start" x="1539.7319" y="-141.5" font-family="Helvetica,sans-Serif" font-size="10.00" fill="#000000">sitkCenteredTransformInitializer</text>
<text text-anchor="middle" x="1618.2319" y="-130.5" font-family="Helvetica,sans-Serif" font-size="10.00" fill="#000000">Filter.h</text>
</a>
</g>
</g>
<!-- Node2&#45;&gt;Node304 -->
<g id="edge40" class="edge">
<title>Node2&#45;&gt;Node304</title>
<path fill="none" stroke="#191970" d="M2362.0265,-198.0225C2239.67,-193.5775 1953.2835,-181.0022 1714.2319,-154 1711.1283,-153.6494 1707.972,-153.2686 1704.7868,-152.8637"/>
<polygon fill="#191970" stroke="#191970" points="2362.1829,-201.5303 2372.3018,-198.3906 2362.4335,-194.5348 2362.1829,-201.5303"/>
</g>
<!-- Node305 -->
<g id="node36" class="node">
<title>Node305</title>
<g id="a_node36"><a xlink:href="sitkCenteredVersorTransformInitializerFilter_8h.html" target="_top" xlink:title=" ">
<polygon fill="#ffffff" stroke="#000000" points="1723.2319,-123.5 1723.2319,-153.5 1881.2319,-153.5 1881.2319,-123.5 1723.2319,-123.5"/>
<text text-anchor="start" x="1731.2319" y="-141.5" font-family="Helvetica,sans-Serif" font-size="10.00" fill="#000000">sitkCenteredVersorTransform</text>
<text text-anchor="middle" x="1802.2319" y="-130.5" font-family="Helvetica,sans-Serif" font-size="10.00" fill="#000000">InitializerFilter.h</text>
</a>
</g>
</g>
<!-- Node2&#45;&gt;Node305 -->
<g id="edge42" class="edge">
<title>Node2&#45;&gt;Node305</title>
<path fill="none" stroke="#191970" d="M2362.697,-196.3243C2264.8912,-189.9447 2064.187,-175.4201 1895.2319,-154 1890.6851,-153.4236 1886.0203,-152.7878 1881.3179,-152.1126"/>
<polygon fill="#191970" stroke="#191970" points="2362.4831,-199.8176 2372.6883,-196.9709 2362.9353,-192.8323 2362.4831,-199.8176"/>
</g>
<!-- Node3&#45;&gt;Node4 -->
<g id="edge3" class="edge">
<title>Node3&#45;&gt;Node4</title>
<path fill="none" stroke="#191970" d="M1356.538,-137.048C1053.5977,-131.5971 30.784,-111.4138 7.2319,-87 -2.3339,-77.0842 -2.4654,-65.7873 7.2319,-56 30.3212,-32.6964 4491.1451,-12.2064 4948.4931,-10.1666"/>
<polygon fill="#191970" stroke="#191970" points="1356.5182,-140.5482 1366.5793,-137.2281 1356.6437,-133.5493 1356.5182,-140.5482"/>
</g>
<!-- Node5&#45;&gt;Node4 -->
<g id="edge5" class="edge">
<title>Node5&#45;&gt;Node4</title>
<path fill="none" stroke="#191970" d="M4826.1459,-53.7568C4866.9675,-42.5989 4918.0369,-28.64 4951.3649,-19.5303"/>
<polygon fill="#191970" stroke="#191970" points="4824.9964,-50.4426 4816.2731,-56.4554 4826.8421,-57.1949 4824.9964,-50.4426"/>
</g>
<!-- Node6&#45;&gt;Node4 -->
<g id="edge14" class="edge">
<title>Node6&#45;&gt;Node4</title>
<path fill="none" stroke="#191970" d="M2531.4539,-120.6832C2548.2881,-98.5874 2577.0105,-62.9704 2592.2319,-56 2648.1576,-30.3895 4648.1439,-12.8063 4948.6069,-10.3068"/>
<polygon fill="#191970" stroke="#191970" points="2528.4589,-118.8421 2525.2392,-128.9358 2534.0507,-123.053 2528.4589,-118.8421"/>
</g>
<!-- Node6&#45;&gt;Node5 -->
<g id="edge7" class="edge">
<title>Node6&#45;&gt;Node5</title>
<path fill="none" stroke="#191970" d="M2577.814,-138.226C2880.1664,-136.6599 4246.8509,-127.4282 4669.2319,-87 4672.1341,-86.7222 4675.0831,-86.4069 4678.0578,-86.0606"/>
<polygon fill="#191970" stroke="#191970" points="2577.4926,-134.7275 2567.5106,-138.2785 2577.5284,-141.7274 2577.4926,-134.7275"/>
</g>
<!-- Node6&#45;&gt;Node8 -->
<g id="edge8" class="edge">
<title>Node6&#45;&gt;Node8</title>
<path fill="none" stroke="#191970" d="M2507.5272,-120.1099C2500.1752,-107.4795 2490.713,-91.2241 2484.8092,-81.0817"/>
<polygon fill="#191970" stroke="#191970" points="2504.5885,-122.0188 2512.6441,-128.9005 2510.6382,-118.4973 2504.5885,-122.0188"/>
</g>
<!-- Node6&#45;&gt;Node9 -->
<g id="edge10" class="edge">
<title>Node6&#45;&gt;Node9</title>
<path fill="none" stroke="#191970" d="M2548.1663,-124.5722C2576.1424,-111.5555 2617.1685,-92.467 2641.6384,-81.0817"/>
<polygon fill="#191970" stroke="#191970" points="2546.4537,-121.5086 2538.8636,-128.9005 2549.4067,-127.8553 2546.4537,-121.5086"/>
</g>
<!-- Node6&#45;&gt;Node10 -->
<g id="edge12" class="edge">
<title>Node6&#45;&gt;Node10</title>
<path fill="none" stroke="#191970" d="M2571.2448,-126.8162C2621.9486,-115.6414 2698.6569,-98.7353 2753.921,-86.5553"/>
<polygon fill="#191970" stroke="#191970" points="2570.4771,-123.4013 2561.4648,-128.9717 2571.9838,-130.2373 2570.4771,-123.4013"/>
</g>
<!-- Node6&#45;&gt;Node11 -->
<g id="edge15" class="edge">
<title>Node6&#45;&gt;Node11</title>
<path fill="none" stroke="#191970" d="M2577.3295,-132.5906C2654.6369,-124.4459 2794.1496,-108.3238 2912.2319,-87 2921.5137,-85.3239 2931.4473,-83.2061 2940.7465,-81.079"/>
<polygon fill="#191970" stroke="#191970" points="2576.8822,-129.1182 2567.3004,-133.6392 2577.6102,-136.0803 2576.8822,-129.1182"/>
</g>
<!-- Node6&#45;&gt;Node14 -->
<g id="edge16" class="edge">
<title>Node6&#45;&gt;Node14</title>
<path fill="none" stroke="#191970" d="M2577.5154,-134.2551C2675.3912,-126.9026 2876.8154,-110.3168 3046.2319,-87 3049.2716,-86.5816 3052.3674,-86.134 3055.4919,-85.6643"/>
<polygon fill="#191970" stroke="#191970" points="2577.2311,-130.7665 2567.5193,-135.0009 2577.752,-137.7471 2577.2311,-130.7665"/>
</g>
<!-- Node6&#45;&gt;Node15 -->
<g id="edge17" class="edge">
<title>Node6&#45;&gt;Node15</title>
<path fill="none" stroke="#191970" d="M2577.6312,-137.1004C2698.9811,-133.5913 2983.845,-122.0255 3220.2319,-87 3230.4337,-85.4884 3241.3696,-83.2999 3251.4594,-81.0416"/>
<polygon fill="#191970" stroke="#191970" points="2577.3402,-133.6071 2567.4427,-137.387 2577.5372,-140.6043 2577.3402,-133.6071"/>
</g>
<!-- Node6&#45;&gt;Node16 -->
<g id="edge18" class="edge">
<title>Node6&#45;&gt;Node16</title>
<path fill="none" stroke="#191970" d="M2577.9933,-136.6518C2715.9477,-131.9899 3067.1708,-117.8571 3359.2319,-87 3362.0193,-86.7055 3364.8467,-86.3898 3367.6991,-86.0567"/>
<polygon fill="#191970" stroke="#191970" points="2577.528,-133.1653 2567.6503,-136.997 2577.7615,-140.1614 2577.528,-133.1653"/>
</g>
<!-- Node6&#45;&gt;Node17 -->
<g id="edge19" class="edge">
<title>Node6&#45;&gt;Node17</title>
<path fill="none" stroke="#191970" d="M2577.5158,-136.9782C2769.5136,-131.8308 3373.0092,-113.8792 3566.2319,-87 3576.4016,-85.5853 3587.2998,-83.3718 3597.2893,-81.056"/>
<polygon fill="#191970" stroke="#191970" points="2577.2444,-133.4841 2567.3412,-137.2493 2577.4309,-140.4816 2577.2444,-133.4841"/>
</g>
<!-- Node6&#45;&gt;Node19 -->
<g id="edge20" class="edge">
<title>Node6&#45;&gt;Node19</title>
<path fill="none" stroke="#191970" d="M2577.5681,-137.0239C2785.2944,-131.6829 3479.1076,-112.3362 3700.2319,-87 3703.1446,-86.6663 3706.1088,-86.2901 3709.0986,-85.8801"/>
<polygon fill="#191970" stroke="#191970" points="2577.375,-133.5276 2567.4679,-137.2824 2577.5542,-140.5253 2577.375,-133.5276"/>
</g>
<!-- Node6&#45;&gt;Node20 -->
<g id="edge21" class="edge">
<title>Node6&#45;&gt;Node20</title>
<path fill="none" stroke="#191970" d="M2577.7464,-137.2612C2804.0136,-132.3904 3610.8415,-113.5144 3866.2319,-87 3879.9407,-85.5768 3894.7086,-83.3605 3908.2769,-81.0447"/>
<polygon fill="#191970" stroke="#191970" points="2577.3378,-133.769 2567.4151,-137.4825 2577.4878,-140.7674 2577.3378,-133.769"/>
</g>
<!-- Node6&#45;&gt;Node21 -->
<g id="edge22" class="edge">
<title>Node6&#45;&gt;Node21</title>
<path fill="none" stroke="#191970" d="M2577.5697,-138.0386C2822.5602,-135.8962 3756.1369,-125.335 4048.2319,-87 4058.5306,-85.6484 4069.5675,-83.4253 4079.6514,-81.0791"/>
<polygon fill="#191970" stroke="#191970" points="2577.4125,-134.5397 2567.4431,-138.1257 2577.4729,-141.5394 2577.4125,-134.5397"/>
</g>
<!-- Node6&#45;&gt;Node22 -->
<g id="edge23" class="edge">
<title>Node6&#45;&gt;Node22</title>
<path fill="none" stroke="#191970" d="M2577.5458,-137.9597C2835.58,-135.4097 3861.7729,-123.1528 4182.2319,-87 4185.1485,-86.671 4188.1182,-86.2916 4191.1127,-85.8724"/>
<polygon fill="#191970" stroke="#191970" points="2577.2276,-134.4625 2567.2623,-138.0602 2577.2961,-141.4622 2577.2276,-134.4625"/>
</g>
<!-- Node6&#45;&gt;Node23 -->
<g id="edge24" class="edge">
<title>Node6&#45;&gt;Node23</title>
<path fill="none" stroke="#191970" d="M2577.73,-137.8743C2850.8705,-134.8398 3986.4191,-120.4165 4340.2319,-87 4343.3413,-86.7063 4346.5027,-86.3741 4349.6922,-86.0106"/>
<polygon fill="#191970" stroke="#191970" points="2577.5854,-134.3756 2567.6247,-137.9857 2577.6627,-141.3751 2577.5854,-134.3756"/>
</g>
<!-- Node6&#45;&gt;Node24 -->
<g id="edge25" class="edge">
<title>Node6&#45;&gt;Node24</title>
<path fill="none" stroke="#191970" d="M2577.4899,-137.6866C2889.4212,-133.3106 4334.2786,-111.8414 4532.2319,-87 4542.8043,-85.6733 4554.1433,-83.4271 4564.4727,-81.0504"/>
<polygon fill="#191970" stroke="#191970" points="2577.2531,-134.1894 2567.3031,-137.829 2577.3511,-141.1887 2577.2531,-134.1894"/>
</g>
<!-- Node6&#45;&gt;Node25 -->
<g id="edge26" class="edge">
<title>Node6&#45;&gt;Node25</title>
<path fill="none" stroke="#191970" d="M2458.5832,-136.838C2351.4154,-133.8762 2119.1856,-127.5678 1923.2319,-123 1534.3663,-113.9353 559.5752,-132.1374 173.2319,-87 162.0559,-85.6943 150.0556,-83.4547 139.1183,-81.0776"/>
<polygon fill="#191970" stroke="#191970" points="2458.7742,-140.3446 2468.8672,-137.1226 2458.9678,-133.3473 2458.7742,-140.3446"/>
</g>
<!-- Node6&#45;&gt;Node26 -->
<g id="edge27" class="edge">
<title>Node6&#45;&gt;Node26</title>
<path fill="none" stroke="#191970" d="M2458.9775,-136.7342C2357.2036,-133.7275 2142.618,-127.5025 1961.2319,-123 1594.5909,-113.899 675.2869,-131.4118 311.2319,-87 300.507,-85.6917 289.0022,-83.4513 278.5209,-81.0742"/>
<polygon fill="#191970" stroke="#191970" points="2458.9591,-140.2351 2469.0582,-137.0324 2459.1661,-133.2382 2458.9591,-140.2351"/>
</g>
<!-- Node6&#45;&gt;Node27 -->
<g id="edge28" class="edge">
<title>Node6&#45;&gt;Node27</title>
<path fill="none" stroke="#191970" d="M2459.0949,-136.6135C2362.7595,-133.5674 2165.9472,-127.4572 1999.2319,-123 1660.3696,-113.9403 811.3004,-122.9787 474.2319,-87 471.5269,-86.7113 468.7772,-86.38 466.0044,-86.0141"/>
<polygon fill="#191970" stroke="#191970" points="2459.1131,-140.1157 2469.2189,-136.934 2459.3347,-133.1192 2459.1131,-140.1157"/>
</g>
<!-- Node6&#45;&gt;Node28 -->
<g id="edge29" class="edge">
<title>Node6&#45;&gt;Node28</title>
<path fill="none" stroke="#191970" d="M2458.9754,-136.4647C2368.1917,-133.3749 2189.2184,-127.396 2037.2319,-123 1725.0377,-113.9703 942.6799,-121.1869 632.2319,-87 620.0062,-85.6537 606.8507,-83.4014 594.8493,-81.0251"/>
<polygon fill="#191970" stroke="#191970" points="2458.9587,-139.966 2469.0722,-136.8088 2459.1972,-132.9701 2458.9587,-139.966"/>
</g>
<!-- Node6&#45;&gt;Node29 -->
<g id="edge30" class="edge">
<title>Node6&#45;&gt;Node29</title>
<path fill="none" stroke="#191970" d="M2458.8387,-136.2921C2373.8352,-133.1616 2212.572,-127.3325 2075.2319,-123 1505.9569,-105.0419 1360.4356,-148.7234 794.2319,-87 781.7065,-85.6346 768.2211,-83.3763 755.9156,-81.0004"/>
<polygon fill="#191970" stroke="#191970" points="2458.9475,-139.7984 2469.0697,-136.6694 2459.2055,-132.8031 2458.9475,-139.7984"/>
</g>
<!-- Node6&#45;&gt;Node30 -->
<g id="edge31" class="edge">
<title>Node6&#45;&gt;Node30</title>
<path fill="none" stroke="#191970" d="M2458.7495,-136.1127C2379.8,-132.9695 2236.0518,-127.3347 2113.2319,-123 1618.1705,-105.5276 1492.5267,-132.2907 999.2319,-87 996.4672,-86.7462 993.6634,-86.4663 990.8353,-86.1643"/>
<polygon fill="#191970" stroke="#191970" points="2458.8524,-139.6195 2468.9839,-136.5207 2459.1313,-132.6251 2458.8524,-139.6195"/>
</g>
<!-- Node6&#45;&gt;Node31 -->
<g id="edge32" class="edge">
<title>Node6&#45;&gt;Node31</title>
<path fill="none" stroke="#191970" d="M2458.6525,-135.8921C2386.0508,-132.7354 2259.6436,-127.3073 2151.2319,-123 1721.4954,-105.9261 1612.0694,-130.8178 1184.2319,-87 1170.3747,-85.5808 1155.4452,-83.3659 1141.7277,-81.05"/>
<polygon fill="#191970" stroke="#191970" points="2458.8225,-139.4027 2468.9653,-136.341 2459.1269,-132.4094 2458.8225,-139.4027"/>
</g>
<!-- Node6&#45;&gt;Node32 -->
<g id="edge33" class="edge">
<title>Node6&#45;&gt;Node32</title>
<path fill="none" stroke="#191970" d="M2458.9966,-135.6436C2393.1307,-132.4827 2283.5784,-127.271 2189.2319,-123 1820.8175,-106.3223 1726.84,-127.0723 1360.2319,-87 1346.9697,-85.5504 1332.6869,-83.3255 1319.5659,-81.0098"/>
<polygon fill="#191970" stroke="#191970" points="2459.0272,-139.149 2469.1836,-136.1328 2459.363,-132.1571 2459.0272,-139.149"/>
</g>
<!-- Node6&#45;&gt;Node33 -->
<g id="edge34" class="edge">
<title>Node6&#45;&gt;Node33</title>
<path fill="none" stroke="#191970" d="M2458.8443,-135.3165C2400.0363,-132.1688 2307.4211,-127.2245 2227.2319,-123 1920.1301,-106.8214 1841.7912,-121.7377 1536.2319,-87 1523.1302,-85.5105 1509.0274,-83.3014 1496.0325,-81.0146"/>
<polygon fill="#191970" stroke="#191970" points="2458.8886,-138.8238 2469.0615,-135.8635 2459.2629,-131.8338 2458.8886,-138.8238"/>
</g>
<!-- Node6&#45;&gt;Node34 -->
<g id="edge35" class="edge">
<title>Node6&#45;&gt;Node34</title>
<path fill="none" stroke="#191970" d="M2459.0379,-134.8594C2280.1101,-123.8324 1754.8864,-91.2896 1718.2319,-87 1705.0203,-85.4539 1690.8099,-83.281 1677.6371,-81.0503"/>
<polygon fill="#191970" stroke="#191970" points="2458.8644,-138.3553 2469.0607,-135.4769 2459.2949,-131.3685 2458.8644,-138.3553"/>
</g>
<!-- Node6&#45;&gt;Node35 -->
<g id="edge36" class="edge">
<title>Node6&#45;&gt;Node35</title>
<path fill="none" stroke="#191970" d="M2458.569,-134.0085C2311.6457,-122.8971 1940.2174,-94.481 1884.2319,-87 1881.1806,-86.5923 1878.0715,-86.1472 1874.9344,-85.6735"/>
<polygon fill="#191970" stroke="#191970" points="2458.5167,-137.5144 2468.752,-134.778 2459.0443,-130.5343 2458.5167,-137.5144"/>
</g>
<!-- Node6&#45;&gt;Node36 -->
<g id="edge37" class="edge">
<title>Node6&#45;&gt;Node36</title>
<path fill="none" stroke="#191970" d="M2459.1412,-133.1972C2371.1227,-125.0081 2200.4623,-108.012 2056.2319,-87 2053.3795,-86.5845 2050.4767,-86.1452 2047.5469,-85.6881"/>
<polygon fill="#191970" stroke="#191970" points="2458.9207,-136.6917 2469.2007,-134.1282 2459.5659,-129.7215 2458.9207,-136.6917"/>
</g>
<!-- Node6&#45;&gt;Node37 -->
<g id="edge38" class="edge">
<title>Node6&#45;&gt;Node37</title>
<path fill="none" stroke="#191970" d="M2459.2186,-128.4533C2399.4491,-118.226 2304.3611,-101.8128 2222.2319,-87 2219.3466,-86.4796 2216.4057,-85.946 2213.4352,-85.4042"/>
<polygon fill="#191970" stroke="#191970" points="2458.781,-131.9292 2469.2279,-130.1647 2459.9608,-125.0294 2458.781,-131.9292"/>
</g>
<!-- Node6&#45;&gt;Node38 -->
<g id="edge39" class="edge">
<title>Node6&#45;&gt;Node38</title>
<path fill="none" stroke="#191970" d="M2479.2159,-125.7484C2439.3825,-112.7297 2378.4495,-92.815 2342.5489,-81.0817"/>
<polygon fill="#191970" stroke="#191970" points="2478.2678,-129.1207 2488.8604,-128.9005 2480.4425,-122.4671 2478.2678,-129.1207"/>
</g>
<!-- Node8&#45;&gt;Node4 -->
<g id="edge9" class="edge">
<title>Node8&#45;&gt;Node4</title>
<path fill="none" stroke="#191970" d="M2531.2682,-60.0736C2540.54,-58.4226 2550.1398,-56.9597 2559.2319,-56 2806.5018,-29.8996 4660.4623,-12.8285 4948.6344,-10.3205"/>
<polygon fill="#191970" stroke="#191970" points="2530.5617,-56.6449 2521.3757,-61.9239 2531.8488,-63.5256 2530.5617,-56.6449"/>
</g>
<!-- Node9&#45;&gt;Node4 -->
<g id="edge11" class="edge">
<title>Node9&#45;&gt;Node4</title>
<path fill="none" stroke="#191970" d="M2708.4834,-59.9115C2716.3623,-58.3254 2724.4979,-56.926 2732.2319,-56 2960.7922,-28.6354 4672.6976,-12.7188 4948.7119,-10.3183"/>
<polygon fill="#191970" stroke="#191970" points="2707.7411,-56.491 2698.6905,-61.9989 2709.2005,-63.3372 2707.7411,-56.491"/>
</g>
<!-- Node10&#45;&gt;Node4 -->
<g id="edge13" class="edge">
<title>Node10&#45;&gt;Node4</title>
<path fill="none" stroke="#191970" d="M2913.7466,-55.9707C3350.8052,-15.5955 4704.3162,-10.6466 4948.3414,-10.0715"/>
<polygon fill="#191970" stroke="#191970" points="2913.2198,-52.5049 2903.5939,-56.9311 2913.8791,-59.4738 2913.2198,-52.5049"/>
</g>
<!-- Node304&#45;&gt;Node4 -->
<g id="edge41" class="edge">
<title>Node304&#45;&gt;Node4</title>
<path fill="none" stroke="#191970" d="M1521.3033,-123.4728C1381.5828,-118.9676 46.3996,-115.8501 18.2319,-87 8.6068,-77.1418 8.5347,-65.7874 18.2319,-56 41.2699,-32.7477 4492.2388,-12.2116 4948.5764,-10.167"/>
<polygon fill="#191970" stroke="#191970" points="1521.5373,-126.9879 1531.6938,-123.9721 1521.8734,-119.996 1521.5373,-126.9879"/>
</g>
<!-- Node305&#45;&gt;Node4 -->
<g id="edge43" class="edge">
<title>Node305&#45;&gt;Node4</title>
<path fill="none" stroke="#191970" d="M1713.5394,-123.03C1713.4368,-123.02 1713.3343,-123.01 1713.2319,-123 1666.6629,-118.4732 61.9608,-120.4361 29.2319,-87 19.5942,-77.1541 19.5348,-65.7875 29.2319,-56 52.2187,-32.7989 4493.3326,-12.2169 4948.6598,-10.1674"/>
<polygon fill="#191970" stroke="#191970" points="1712.8931,-126.4798 1723.2175,-124.1014 1713.6634,-119.5223 1712.8931,-126.4798"/>
</g>
<!-- Node306&#45;&gt;Node4 -->
<g id="edge76" class="edge">
<title>Node306&#45;&gt;Node4</title>
<path fill="none" stroke="#191970" d="M4370.6029,-127.0118C4378.4814,-125.4866 4386.5549,-124.08 4394.2319,-123 4502.7886,-107.7288 4784.3723,-127.5267 4886.2319,-87 4906.4837,-78.9424 4907.0307,-69.3859 4924.2319,-56 4940.7327,-43.159 4960.1461,-28.8864 4972.795,-19.6954"/>
<polygon fill="#191970" stroke="#191970" points="4369.8847,-123.5861 4360.7724,-128.9913 4371.2665,-130.4483 4369.8847,-123.5861"/>
</g>
<!-- Node306&#45;&gt;Node5 -->
<g id="edge75" class="edge">
<title>Node306&#45;&gt;Node5</title>
<path fill="none" stroke="#191970" d="M4373.3304,-126.8694C4380.344,-125.4825 4387.4502,-124.1524 4394.2319,-123 4515.7548,-102.3497 4547.3242,-105.2425 4669.2319,-87 4672.1153,-86.5685 4675.048,-86.1211 4678.009,-85.6621"/>
<polygon fill="#191970" stroke="#191970" points="4372.2754,-123.5119 4363.1693,-128.9276 4373.6652,-130.3725 4372.2754,-123.5119"/>
</g>
<!-- Node307&#45;&gt;Node4 -->
<g id="edge78" class="edge">
<title>Node307&#45;&gt;Node4</title>
<path fill="none" stroke="#191970" d="M4563.5283,-127.4601C4574.1365,-125.8874 4584.9685,-124.3484 4595.2319,-123 4668.1527,-113.4196 4859.7211,-122.3214 4924.2319,-87 4952.8347,-71.3392 4973.1324,-36.51 4981.6973,-19.5922"/>
<polygon fill="#191970" stroke="#191970" points="4562.8214,-124.0269 4553.452,-128.9731 4563.8608,-130.9493 4562.8214,-124.0269"/>
</g>
<!-- Node308&#45;&gt;Node4 -->
<g id="edge80" class="edge">
<title>Node308&#45;&gt;Node4</title>
<path fill="none" stroke="#191970" d="M4715.1838,-126.8362C4721.5847,-125.4835 4728.0521,-124.1709 4734.2319,-123 4784.6295,-113.4508 4923.4201,-120.5374 4962.2319,-87 4982.2561,-69.6969 4985.7947,-35.9734 4986.2754,-19.5064"/>
<polygon fill="#191970" stroke="#191970" points="4714.2698,-123.4527 4705.2312,-128.9803 4715.744,-130.2957 4714.2698,-123.4527"/>
</g>
<!-- Node309&#45;&gt;Node4 -->
<g id="edge82" class="edge">
<title>Node309&#45;&gt;Node4</title>
<path fill="none" stroke="#191970" d="M4865.7312,-126.7627C4919.1969,-115.2684 4991.8449,-97.933 5000.2319,-87 5015.614,-66.9482 5001.2535,-35.3864 4992.25,-19.6253"/>
<polygon fill="#191970" stroke="#191970" points="4864.7065,-123.4024 4855.6551,-128.909 4866.1649,-130.2488 4864.7065,-123.4024"/>
</g>
<!-- Node310&#45;&gt;Node4 -->
<g id="edge84" class="edge">
<title>Node310&#45;&gt;Node4</title>
<path fill="none" stroke="#191970" d="M4994.6255,-124.5601C5011.1111,-116.3217 5028.8438,-104.094 5038.2319,-87 5044.8643,-74.9236 5043.891,-68.5619 5038.2319,-56 5031.1027,-40.1752 5015.5407,-27.5986 5003.2886,-19.623"/>
<polygon fill="#191970" stroke="#191970" points="4992.738,-121.5771 4985.1355,-128.9563 4995.6804,-127.9286 4992.738,-121.5771"/>
</g>
<!-- Node311&#45;&gt;Node4 -->
<g id="edge86" class="edge">
<title>Node311&#45;&gt;Node4</title>
<path fill="none" stroke="#191970" d="M5092.7463,-119.5939C5085.0212,-101.7564 5071.654,-74.991 5054.2319,-56 5040.0681,-40.5607 5019.749,-27.685 5005.0139,-19.5196"/>
<polygon fill="#191970" stroke="#191970" points="5089.5603,-121.0479 5096.6308,-128.9384 5096.0241,-118.3609 5089.5603,-121.0479"/>
</g>
<!-- Node312&#45;&gt;Node4 -->
<g id="edge88" class="edge">
<title>Node312&#45;&gt;Node4</title>
<path fill="none" stroke="#191970" d="M4866.1176,-189.8855C4985.3197,-178.1417 5164.1768,-159.657 5169.2319,-154 5222.5685,-94.312 5083.9284,-40.8123 5018.3693,-19.634"/>
<polygon fill="#191970" stroke="#191970" points="4865.4622,-186.4329 4855.8527,-190.8946 4866.1472,-193.3993 4865.4622,-186.4329"/>
</g>
<!-- Node313&#45;&gt;Node4 -->
<g id="edge90" class="edge">
<title>Node313&#45;&gt;Node4</title>
<path fill="none" stroke="#191970" d="M5043.6795,-189.089C5110.2944,-179.9606 5191.874,-166.465 5202.2319,-154 5230.0685,-120.5006 5229.6357,-89.8544 5202.2319,-56 5180.2197,-28.8064 5079.818,-17.0071 5023.98,-12.4734"/>
<polygon fill="#191970" stroke="#191970" points="5042.9908,-185.6502 5033.5505,-190.4596 5043.9295,-192.587 5042.9908,-185.6502"/>
</g>
<!-- Node314&#45;&gt;Node4 -->
<g id="edge92" class="edge">
<title>Node314&#45;&gt;Node4</title>
<path fill="none" stroke="#191970" d="M5182.0071,-186.6855C5198.3577,-179.7334 5214.6992,-169.3501 5224.2319,-154 5247.2102,-116.9989 5251.9545,-89.5938 5224.2319,-56 5199.2539,-25.7321 5084.3547,-15.1516 5023.809,-11.6377"/>
<polygon fill="#191970" stroke="#191970" points="5180.4918,-183.519 5172.4304,-190.3939 5183.0196,-190.0466 5180.4918,-183.519"/>
</g>
<!-- Node315&#45;&gt;Node4 -->
<g id="edge94" class="edge">
<title>Node315&#45;&gt;Node4</title>
<path fill="none" stroke="#191970" d="M5300.5639,-180.3094C5296.7826,-148.8351 5284.6348,-87.5347 5246.2319,-56 5212.8424,-28.5821 5087.6576,-16.6011 5023.9635,-12.1892"/>
<polygon fill="#191970" stroke="#191970" points="5297.1019,-180.8582 5301.6116,-190.4453 5304.0648,-180.1384 5297.1019,-180.8582"/>
</g>
<!-- Node316&#45;&gt;Node4 -->
<g id="edge96" class="edge">
<title>Node316&#45;&gt;Node4</title>
<path fill="none" stroke="#191970" d="M5453.2971,-183.2559C5421.0908,-152.4992 5347.4856,-87.2978 5272.2319,-56 5227.9444,-37.581 5090.8686,-21.0714 5023.8691,-13.852"/>
<polygon fill="#191970" stroke="#191970" points="5450.9484,-185.8535 5460.5689,-190.2916 5455.8158,-180.8228 5450.9484,-185.8535"/>
</g>
<!-- Node317&#45;&gt;Node4 -->
<g id="edge98" class="edge">
<title>Node317&#45;&gt;Node4</title>
<path fill="none" stroke="#191970" d="M5598.3622,-185.324C5547,-155.7319 5424.6689,-88.9278 5313.2319,-56 5211.2442,-25.8644 5085.3648,-15.2492 5023.7675,-11.688"/>
<polygon fill="#191970" stroke="#191970" points="5596.7023,-188.4074 5607.1081,-190.3999 5600.2161,-182.3532 5596.7023,-188.4074"/>
</g>
<!-- Node318&#45;&gt;Node4 -->
<g id="edge100" class="edge">
<title>Node318&#45;&gt;Node4</title>
<path fill="none" stroke="#191970" d="M5751.8133,-186.5212C5683.3249,-157.724 5514.8712,-90.0551 5367.2319,-56 5243.3942,-27.4351 5092.5726,-15.8994 5023.7341,-11.8746"/>
<polygon fill="#191970" stroke="#191970" points="5750.6047,-189.8101 5761.1784,-190.4793 5753.3298,-183.3624 5750.6047,-189.8101"/>
</g>
<!-- Node319&#45;&gt;Node4 -->
<g id="edge102" class="edge">
<title>Node319&#45;&gt;Node4</title>
<path fill="none" stroke="#191970" d="M5927.8734,-187.2769C5841.149,-159.0267 5622.9081,-90.8218 5435.2319,-56 5284.2247,-27.9819 5101.2517,-15.9021 5023.7782,-11.7789"/>
<polygon fill="#191970" stroke="#191970" points="5926.9535,-190.6584 5937.5461,-190.44 5929.1293,-184.0051 5926.9535,-190.6584"/>
</g>
</g>
</svg>
