<?xml version="1.0" encoding="UTF-8" standalone="no"?>
<!DOCTYPE svg PUBLIC "-//W3C//DTD SVG 1.1//EN"
 "http://www.w3.org/Graphics/SVG/1.1/DTD/svg11.dtd">
<!-- Generated by graphviz version 2.40.1 (20161225.0304)
 -->
<!-- Title: sitkBasicFilters.h Pages: 1 -->
<svg width="1604pt" height="487pt"
 viewBox="0.00 0.00 1603.50 487.00" xmlns="http://www.w3.org/2000/svg" xmlns:xlink="http://www.w3.org/1999/xlink">
<g id="graph0" class="graph" transform="scale(1 1) rotate(0) translate(4 483)">
<title>sitkBasicFilters.h</title>
<polygon fill="#ffffff" stroke="transparent" points="-4,4 -4,-483 1599.5,-483 1599.5,4 -4,4"/>
<!-- Node1 -->
<g id="node1" class="node">
<title>Node1</title>
<g id="a_node1"><a xlink:title=" ">
<polygon fill="#bfbfbf" stroke="#000000" points="141.5,-459.5 141.5,-478.5 240.5,-478.5 240.5,-459.5 141.5,-459.5"/>
<text text-anchor="middle" x="191" y="-466.5" font-family="Helvetica,sans-Serif" font-size="10.00" fill="#000000">sitkBasicFilters.h</text>
</a>
</g>
</g>
<!-- Node2 -->
<g id="node2" class="node">
<title>Node2</title>
<g id="a_node2"><a xlink:href="sitkMacro_8h.html" target="_top" xlink:title=" ">
<polygon fill="#ffffff" stroke="#000000" points="573.5,-56.5 573.5,-75.5 646.5,-75.5 646.5,-56.5 573.5,-56.5"/>
<text text-anchor="middle" x="610" y="-63.5" font-family="Helvetica,sans-Serif" font-size="10.00" fill="#000000">sitkMacro.h</text>
</a>
</g>
</g>
<!-- Node1&#45;&gt;Node2 -->
<g id="edge1" class="edge">
<title>Node1&#45;&gt;Node2</title>
<path fill="none" stroke="#191970" d="M141.3156,-461.798C84.7232,-450.4597 0,-422.5406 0,-357 0,-357 0,-357 0,-178 0,-120.8165 420.0464,-81.4137 563.0137,-69.6587"/>
<polygon fill="#191970" stroke="#191970" points="563.5324,-73.1281 573.2155,-68.8282 562.9645,-66.1512 563.5324,-73.1281"/>
</g>
<!-- Node9 -->
<g id="node9" class="node">
<title>Node9</title>
<g id="a_node9"><a xlink:href="sitkInterpolator_8h.html" target="_top" xlink:title=" ">
<polygon fill="#ffffff" stroke="#000000" points="66,-230 66,-249 166,-249 166,-230 66,-230"/>
<text text-anchor="middle" x="116" y="-237" font-family="Helvetica,sans-Serif" font-size="10.00" fill="#000000">sitkInterpolator.h</text>
</a>
</g>
</g>
<!-- Node1&#45;&gt;Node9 -->
<g id="edge8" class="edge">
<title>Node1&#45;&gt;Node9</title>
<path fill="none" stroke="#191970" d="M187.8728,-459.4309C176.5561,-424.8017 137.599,-305.5929 122.2687,-258.6821"/>
<polygon fill="#191970" stroke="#191970" points="125.5738,-257.5281 119.1405,-249.11 118.92,-259.7025 125.5738,-257.5281"/>
</g>
<!-- Node12 -->
<g id="node12" class="node">
<title>Node12</title>
<g id="a_node12"><a xlink:href="sitkRandomSeed_8h.html" target="_top" xlink:title=" ">
<polygon fill="#ffffff" stroke="#000000" points="30,-347.5 30,-366.5 138,-366.5 138,-347.5 30,-347.5"/>
<text text-anchor="middle" x="84" y="-354.5" font-family="Helvetica,sans-Serif" font-size="10.00" fill="#000000">sitkRandomSeed.h</text>
</a>
</g>
</g>
<!-- Node1&#45;&gt;Node12 -->
<g id="edge12" class="edge">
<title>Node1&#45;&gt;Node12</title>
<path fill="none" stroke="#191970" d="M181.8772,-459.4509C163.7151,-440.4401 122.828,-397.6423 100.0653,-373.816"/>
<polygon fill="#191970" stroke="#191970" points="102.5383,-371.3378 93.0997,-366.5249 97.4768,-376.1733 102.5383,-371.3378"/>
</g>
<!-- Node13 -->
<g id="node13" class="node">
<title>Node13</title>
<g id="a_node13"><a xlink:href="sitkKernel_8h.html" target="_top" xlink:title=" ">
<polygon fill="#ffffff" stroke="#000000" points="184,-230 184,-249 258,-249 258,-230 184,-230"/>
<text text-anchor="middle" x="221" y="-237" font-family="Helvetica,sans-Serif" font-size="10.00" fill="#000000">sitkKernel.h</text>
</a>
</g>
</g>
<!-- Node1&#45;&gt;Node13 -->
<g id="edge14" class="edge">
<title>Node1&#45;&gt;Node13</title>
<path fill="none" stroke="#191970" d="M192.2509,-459.4309C196.7585,-424.9475 212.2294,-306.5953 218.4146,-259.2785"/>
<polygon fill="#191970" stroke="#191970" points="221.918,-259.4793 219.7438,-249.11 214.9771,-258.5719 221.918,-259.4793"/>
</g>
<!-- Node14 -->
<g id="node14" class="node">
<title>Node14</title>
<g id="a_node14"><a xlink:href="sitkTransform_8h.html" target="_top" xlink:title=" ">
<polygon fill="#ffffff" stroke="#000000" points="247,-403.5 247,-422.5 339,-422.5 339,-403.5 247,-403.5"/>
<text text-anchor="middle" x="293" y="-410.5" font-family="Helvetica,sans-Serif" font-size="10.00" fill="#000000">sitkTransform.h</text>
</a>
</g>
</g>
<!-- Node1&#45;&gt;Node14 -->
<g id="edge17" class="edge">
<title>Node1&#45;&gt;Node14</title>
<path fill="none" stroke="#191970" d="M208.767,-459.2455C224.7095,-450.4928 248.3259,-437.527 266.4989,-427.5496"/>
<polygon fill="#191970" stroke="#191970" points="268.3552,-430.5233 275.4366,-422.6427 264.9863,-424.3873 268.3552,-430.5233"/>
</g>
<!-- Node35 -->
<g id="node35" class="node">
<title>Node35</title>
<g id="a_node35"><a xlink:title=" ">
<polygon fill="#ffffff" stroke="#bfbfbf" points="357,-403.5 357,-422.5 395,-422.5 395,-403.5 357,-403.5"/>
<text text-anchor="middle" x="376" y="-410.5" font-family="Helvetica,sans-Serif" font-size="10.00" fill="#000000">map</text>
</a>
</g>
</g>
<!-- Node1&#45;&gt;Node35 -->
<g id="edge61" class="edge">
<title>Node1&#45;&gt;Node35</title>
<path fill="none" stroke="#191970" d="M225.7875,-459.4329C255.6619,-451.0786 300.075,-438.3318 347.033,-423.195"/>
<polygon fill="#191970" stroke="#191970" points="348.3404,-426.4504 356.7706,-420.0331 346.1785,-419.7926 348.3404,-426.4504"/>
</g>
<!-- Node3 -->
<g id="node3" class="node">
<title>Node3</title>
<g id="a_node3"><a xlink:title=" ">
<polygon fill="#ffffff" stroke="#bfbfbf" points="982.5,-.5 982.5,-19.5 1035.5,-19.5 1035.5,-.5 982.5,-.5"/>
<text text-anchor="middle" x="1009" y="-7.5" font-family="Helvetica,sans-Serif" font-size="10.00" fill="#000000">stdint.h</text>
</a>
</g>
</g>
<!-- Node2&#45;&gt;Node3 -->
<g id="edge2" class="edge">
<title>Node2&#45;&gt;Node3</title>
<path fill="none" stroke="#191970" d="M646.8218,-60.832C722.8271,-50.1646 896.3056,-25.8168 972.2497,-15.1579"/>
<polygon fill="#191970" stroke="#191970" points="972.8817,-18.6036 982.2981,-13.7476 971.9087,-11.6716 972.8817,-18.6036"/>
</g>
<!-- Node4 -->
<g id="node4" class="node">
<title>Node4</title>
<g id="a_node4"><a xlink:title=" ">
<polygon fill="#ffffff" stroke="#bfbfbf" points="616,-.5 616,-19.5 672,-19.5 672,-.5 616,-.5"/>
<text text-anchor="middle" x="644" y="-7.5" font-family="Helvetica,sans-Serif" font-size="10.00" fill="#000000">stddef.h</text>
</a>
</g>
</g>
<!-- Node2&#45;&gt;Node4 -->
<g id="edge3" class="edge">
<title>Node2&#45;&gt;Node4</title>
<path fill="none" stroke="#191970" d="M615.9223,-56.2455C620.6027,-48.5367 627.2673,-37.5598 632.9289,-28.2348"/>
<polygon fill="#191970" stroke="#191970" points="635.9475,-30.007 638.1455,-19.6427 629.9639,-26.3741 635.9475,-30.007"/>
</g>
<!-- Node5 -->
<g id="node5" class="node">
<title>Node5</title>
<g id="a_node5"><a xlink:title=" ">
<polygon fill="#ffffff" stroke="#bfbfbf" points="690,-.5 690,-19.5 742,-19.5 742,-.5 690,-.5"/>
<text text-anchor="middle" x="716" y="-7.5" font-family="Helvetica,sans-Serif" font-size="10.00" fill="#000000">cassert</text>
</a>
</g>
</g>
<!-- Node2&#45;&gt;Node5 -->
<g id="edge4" class="edge">
<title>Node2&#45;&gt;Node5</title>
<path fill="none" stroke="#191970" d="M628.4638,-56.2455C645.1074,-47.4527 669.7993,-34.4079 688.7192,-24.4125"/>
<polygon fill="#191970" stroke="#191970" points="690.5408,-27.4086 697.7478,-19.6427 687.2709,-21.2193 690.5408,-27.4086"/>
</g>
<!-- Node6 -->
<g id="node6" class="node">
<title>Node6</title>
<g id="a_node6"><a xlink:title=" ">
<polygon fill="#ffffff" stroke="#bfbfbf" points="480,-.5 480,-19.5 536,-19.5 536,-.5 480,-.5"/>
<text text-anchor="middle" x="508" y="-7.5" font-family="Helvetica,sans-Serif" font-size="10.00" fill="#000000">sstream</text>
</a>
</g>
</g>
<!-- Node2&#45;&gt;Node6 -->
<g id="edge5" class="edge">
<title>Node2&#45;&gt;Node6</title>
<path fill="none" stroke="#191970" d="M592.233,-56.2455C576.2905,-47.4928 552.6741,-34.527 534.5011,-24.5496"/>
<polygon fill="#191970" stroke="#191970" points="536.0137,-21.3873 525.5634,-19.6427 532.6448,-27.5233 536.0137,-21.3873"/>
</g>
<!-- Node7 -->
<g id="node7" class="node">
<title>Node7</title>
<g id="a_node7"><a xlink:title=" ">
<polygon fill="#ffffff" stroke="#bfbfbf" points="554,-.5 554,-19.5 598,-19.5 598,-.5 554,-.5"/>
<text text-anchor="middle" x="576" y="-7.5" font-family="Helvetica,sans-Serif" font-size="10.00" fill="#000000">limits</text>
</a>
</g>
</g>
<!-- Node2&#45;&gt;Node7 -->
<g id="edge6" class="edge">
<title>Node2&#45;&gt;Node7</title>
<path fill="none" stroke="#191970" d="M604.0777,-56.2455C599.3973,-48.5367 592.7327,-37.5598 587.0711,-28.2348"/>
<polygon fill="#191970" stroke="#191970" points="590.0361,-26.3741 581.8545,-19.6427 584.0525,-30.007 590.0361,-26.3741"/>
</g>
<!-- Node8 -->
<g id="node8" class="node">
<title>Node8</title>
<g id="a_node8"><a xlink:href="sitkConfigure_8h.html" target="_top" xlink:title=" ">
<polygon fill="#ffffff" stroke="#000000" points="1320,-.5 1320,-19.5 1410,-19.5 1410,-.5 1320,-.5"/>
<text text-anchor="middle" x="1365" y="-7.5" font-family="Helvetica,sans-Serif" font-size="10.00" fill="#000000">sitkConfigure.h</text>
</a>
</g>
</g>
<!-- Node2&#45;&gt;Node8 -->
<g id="edge7" class="edge">
<title>Node2&#45;&gt;Node8</title>
<path fill="none" stroke="#191970" d="M646.6704,-63.2801C768.9467,-54.2106 1163.2523,-24.9641 1309.6271,-14.1071"/>
<polygon fill="#191970" stroke="#191970" points="1310.0168,-17.5879 1319.7305,-13.3577 1309.4989,-10.6071 1310.0168,-17.5879"/>
</g>
<!-- Node10 -->
<g id="node10" class="node">
<title>Node10</title>
<g id="a_node10"><a xlink:href="sitkCommon_8h.html" target="_top" xlink:title=" ">
<polygon fill="#ffffff" stroke="#000000" points="321,-112.5 321,-131.5 409,-131.5 409,-112.5 321,-112.5"/>
<text text-anchor="middle" x="365" y="-119.5" font-family="Helvetica,sans-Serif" font-size="10.00" fill="#000000">sitkCommon.h</text>
</a>
</g>
</g>
<!-- Node9&#45;&gt;Node10 -->
<g id="edge9" class="edge">
<title>Node9&#45;&gt;Node10</title>
<path fill="none" stroke="#191970" d="M121.6544,-229.967C131.3562,-214.4756 152.6932,-183.9656 179,-168 219.2008,-143.602 271.7218,-132.1226 310.6973,-126.7341"/>
<polygon fill="#191970" stroke="#191970" points="311.333,-130.1811 320.8031,-125.4305 310.4374,-123.2387 311.333,-130.1811"/>
</g>
<!-- Node11 -->
<g id="node11" class="node">
<title>Node11</title>
<g id="a_node11"><a xlink:title=" ">
<polygon fill="#ffffff" stroke="#bfbfbf" points="196.5,-168.5 196.5,-187.5 253.5,-187.5 253.5,-168.5 196.5,-168.5"/>
<text text-anchor="middle" x="225" y="-175.5" font-family="Helvetica,sans-Serif" font-size="10.00" fill="#000000">ostream</text>
</a>
</g>
</g>
<!-- Node9&#45;&gt;Node11 -->
<g id="edge11" class="edge">
<title>Node9&#45;&gt;Node11</title>
<path fill="none" stroke="#191970" d="M133.0313,-229.8906C150.789,-219.8713 178.833,-204.0483 199.2882,-192.5071"/>
<polygon fill="#191970" stroke="#191970" points="201.0989,-195.5042 208.0883,-187.5419 197.6591,-189.4077 201.0989,-195.5042"/>
</g>
<!-- Node10&#45;&gt;Node2 -->
<g id="edge10" class="edge">
<title>Node10&#45;&gt;Node2</title>
<path fill="none" stroke="#191970" d="M406.8386,-112.4369C450.2932,-102.5044 518.1249,-87 563.2993,-76.6745"/>
<polygon fill="#191970" stroke="#191970" points="564.1711,-80.0655 573.1398,-74.4252 562.6113,-73.2415 564.1711,-80.0655"/>
</g>
<!-- Node12&#45;&gt;Node10 -->
<g id="edge13" class="edge">
<title>Node12&#45;&gt;Node10</title>
<path fill="none" stroke="#191970" d="M77.777,-347.2741C63.9318,-324.2886 33.5833,-265.4346 57,-224 80.7387,-181.9955 105.1291,-185.7343 150,-168 202.694,-147.1738 266.5651,-135.0335 310.9354,-128.5083"/>
<polygon fill="#191970" stroke="#191970" points="311.528,-131.9593 320.9346,-127.0842 310.5409,-125.0292 311.528,-131.9593"/>
</g>
<!-- Node13&#45;&gt;Node10 -->
<g id="edge15" class="edge">
<title>Node13&#45;&gt;Node10</title>
<path fill="none" stroke="#191970" d="M210.5063,-229.9649C195.8793,-215.5177 172.7784,-187.6831 188,-168 203.019,-148.5788 264.4878,-135.835 310.8036,-128.7886"/>
<polygon fill="#191970" stroke="#191970" points="311.3454,-132.2467 320.7299,-127.3292 310.3271,-125.3212 311.3454,-132.2467"/>
</g>
<!-- Node13&#45;&gt;Node11 -->
<g id="edge16" class="edge">
<title>Node13&#45;&gt;Node11</title>
<path fill="none" stroke="#191970" d="M221.625,-229.8906C222.1795,-221.3657 223.0072,-208.6392 223.7042,-197.9235"/>
<polygon fill="#191970" stroke="#191970" points="227.2097,-197.951 224.3662,-187.7449 220.2244,-197.4966 227.2097,-197.951"/>
</g>
<!-- Node14&#45;&gt;Node10 -->
<g id="edge18" class="edge">
<title>Node14&#45;&gt;Node10</title>
<path fill="none" stroke="#191970" d="M292.9678,-403.2268C293.1802,-369.3074 296.6234,-254.043 332,-168 336.1719,-157.853 342.9798,-147.8091 349.3317,-139.7075"/>
<polygon fill="#191970" stroke="#191970" points="352.2235,-141.7028 355.899,-131.7659 346.829,-137.2419 352.2235,-141.7028"/>
</g>
<!-- Node15 -->
<g id="node15" class="node">
<title>Node15</title>
<g id="a_node15"><a xlink:href="sitkExceptionObject_8h.html" target="_top" xlink:title=" ">
<polygon fill="#ffffff" stroke="#000000" points="348.5,-168.5 348.5,-187.5 471.5,-187.5 471.5,-168.5 348.5,-168.5"/>
<text text-anchor="middle" x="410" y="-175.5" font-family="Helvetica,sans-Serif" font-size="10.00" fill="#000000">sitkExceptionObject.h</text>
</a>
</g>
</g>
<!-- Node14&#45;&gt;Node15 -->
<g id="edge19" class="edge">
<title>Node14&#45;&gt;Node15</title>
<path fill="none" stroke="#191970" d="M297.7314,-403.4967C315.2961,-368.2172 376.9636,-244.3551 400.6432,-196.7936"/>
<polygon fill="#191970" stroke="#191970" points="403.8859,-198.1334 405.2097,-187.6216 397.6196,-195.0135 403.8859,-198.1334"/>
</g>
<!-- Node16 -->
<g id="node16" class="node">
<title>Node16</title>
<g id="a_node16"><a xlink:href="sitkImage_8h.html" target="_top" xlink:title=" ">
<polygon fill="#ffffff" stroke="#000000" points="1060,-347.5 1060,-366.5 1134,-366.5 1134,-347.5 1060,-347.5"/>
<text text-anchor="middle" x="1097" y="-354.5" font-family="Helvetica,sans-Serif" font-size="10.00" fill="#000000">sitkImage.h</text>
</a>
</g>
</g>
<!-- Node14&#45;&gt;Node16 -->
<g id="edge22" class="edge">
<title>Node14&#45;&gt;Node16</title>
<path fill="none" stroke="#191970" d="M339.1531,-404.1988C342.1413,-403.7558 345.1096,-403.3503 348,-403 611.9572,-371.0126 931.09,-360.7914 1049.6594,-357.9614"/>
<polygon fill="#191970" stroke="#191970" points="1049.924,-361.4563 1059.84,-357.725 1049.7614,-354.4582 1049.924,-361.4563"/>
</g>
<!-- Node18 -->
<g id="node18" class="node">
<title>Node18</title>
<g id="a_node18"><a xlink:title=" ">
<polygon fill="#ffffff" stroke="#bfbfbf" points="1548.5,-168.5 1548.5,-187.5 1595.5,-187.5 1595.5,-168.5 1548.5,-168.5"/>
<text text-anchor="middle" x="1572" y="-175.5" font-family="Helvetica,sans-Serif" font-size="10.00" fill="#000000">vector</text>
</a>
</g>
</g>
<!-- Node14&#45;&gt;Node18 -->
<g id="edge60" class="edge">
<title>Node14&#45;&gt;Node18</title>
<path fill="none" stroke="#191970" d="M339.1468,-404.1444C342.1365,-403.7147 345.1069,-403.327 348,-403 699.4574,-363.2746 791.4339,-405.7517 1143,-367 1285.6441,-351.2769 1328.2467,-365.5081 1461,-311 1501.486,-294.3766 1514.8664,-289.3398 1542,-255 1555.4253,-238.0091 1563.4483,-214.2866 1567.7724,-197.6768"/>
<polygon fill="#191970" stroke="#191970" points="1571.1812,-198.4706 1570.0995,-187.9312 1564.3726,-196.8448 1571.1812,-198.4706"/>
</g>
<!-- Node15&#45;&gt;Node2 -->
<g id="edge20" class="edge">
<title>Node15&#45;&gt;Node2</title>
<path fill="none" stroke="#191970" d="M427.0519,-168.4509C462.1069,-148.8201 542.4538,-103.8259 584.0228,-80.5472"/>
<polygon fill="#191970" stroke="#191970" points="585.9763,-83.4647 592.9913,-75.5249 582.5561,-77.3572 585.9763,-83.4647"/>
</g>
<!-- Node15&#45;&gt;Node10 -->
<g id="edge21" class="edge">
<title>Node15&#45;&gt;Node10</title>
<path fill="none" stroke="#191970" d="M402.1616,-168.2455C395.838,-160.3761 386.7776,-149.101 379.1864,-139.6542"/>
<polygon fill="#191970" stroke="#191970" points="381.7408,-137.2454 372.7486,-131.6427 376.2842,-141.6302 381.7408,-137.2454"/>
</g>
<!-- Node16&#45;&gt;Node10 -->
<g id="edge23" class="edge">
<title>Node16&#45;&gt;Node10</title>
<path fill="none" stroke="#191970" d="M1059.8675,-354.7635C962.3961,-348.069 692.0625,-324.1758 479,-255 413.7719,-233.8221 376.4764,-246.0748 340,-188 330.4841,-172.8495 339.9566,-153.5104 349.8523,-139.6897"/>
<polygon fill="#191970" stroke="#191970" points="352.8428,-141.5457 356.221,-131.5038 347.3179,-137.2473 352.8428,-141.5457"/>
</g>
<!-- Node17 -->
<g id="node17" class="node">
<title>Node17</title>
<g id="a_node17"><a xlink:href="sitkTemplateFunctions_8h.html" target="_top" xlink:title=" ">
<polygon fill="#ffffff" stroke="#000000" points="488,-230 488,-249 622,-249 622,-230 488,-230"/>
<text text-anchor="middle" x="555" y="-237" font-family="Helvetica,sans-Serif" font-size="10.00" fill="#000000">sitkTemplateFunctions.h</text>
</a>
</g>
</g>
<!-- Node16&#45;&gt;Node17 -->
<g id="edge24" class="edge">
<title>Node16&#45;&gt;Node17</title>
<path fill="none" stroke="#191970" d="M1059.7461,-348.9237C965.7001,-328.5355 718.3881,-274.9209 608.7044,-251.1426"/>
<polygon fill="#191970" stroke="#191970" points="609.3577,-247.703 598.8431,-249.0047 607.8746,-254.544 609.3577,-247.703"/>
</g>
<!-- Node16&#45;&gt;Node18 -->
<g id="edge57" class="edge">
<title>Node16&#45;&gt;Node18</title>
<path fill="none" stroke="#191970" d="M1134.282,-353.7742C1208.681,-347.0133 1372.9794,-330.3703 1426,-311 1469.8966,-294.963 1480.7284,-286.7735 1515,-255 1533.7604,-237.6071 1550.554,-213.3178 1560.9718,-196.698"/>
<polygon fill="#191970" stroke="#191970" points="1564.1138,-198.2682 1566.3355,-187.9089 1558.1386,-194.6217 1564.1138,-198.2682"/>
</g>
<!-- Node20 -->
<g id="node20" class="node">
<title>Node20</title>
<g id="a_node20"><a xlink:href="sitkDetail_8h.html" target="_top" xlink:title=" ">
<polygon fill="#ffffff" stroke="#000000" points="1102.5,-291.5 1102.5,-310.5 1175.5,-310.5 1175.5,-291.5 1102.5,-291.5"/>
<text text-anchor="middle" x="1139" y="-298.5" font-family="Helvetica,sans-Serif" font-size="10.00" fill="#000000">sitkDetail.h</text>
</a>
</g>
</g>
<!-- Node16&#45;&gt;Node20 -->
<g id="edge31" class="edge">
<title>Node16&#45;&gt;Node20</title>
<path fill="none" stroke="#191970" d="M1104.3158,-347.2455C1110.2179,-339.3761 1118.6742,-328.101 1125.7594,-318.6542"/>
<polygon fill="#191970" stroke="#191970" points="1128.568,-320.7427 1131.768,-310.6427 1122.9679,-316.5427 1128.568,-320.7427"/>
</g>
<!-- Node30 -->
<g id="node30" class="node">
<title>Node30</title>
<g id="a_node30"><a xlink:href="sitkPixelIDTokens_8h.html" target="_top" xlink:title=" ">
<polygon fill="#ffffff" stroke="#000000" points="1278,-291.5 1278,-310.5 1390,-310.5 1390,-291.5 1278,-291.5"/>
<text text-anchor="middle" x="1334" y="-298.5" font-family="Helvetica,sans-Serif" font-size="10.00" fill="#000000">sitkPixelIDTokens.h</text>
</a>
</g>
</g>
<!-- Node16&#45;&gt;Node30 -->
<g id="edge49" class="edge">
<title>Node16&#45;&gt;Node30</title>
<path fill="none" stroke="#191970" d="M1134.0313,-348.25C1174.3356,-338.7266 1239.0104,-323.4448 1283.8482,-312.8502"/>
<polygon fill="#191970" stroke="#191970" points="1284.7348,-316.2372 1293.6619,-310.5314 1283.1251,-309.4248 1284.7348,-316.2372"/>
</g>
<!-- Node33 -->
<g id="node33" class="node">
<title>Node33</title>
<g id="a_node33"><a xlink:title=" ">
<polygon fill="#ffffff" stroke="#bfbfbf" points="1436.5,-230 1436.5,-249 1505.5,-249 1505.5,-230 1436.5,-230"/>
<text text-anchor="middle" x="1471" y="-237" font-family="Helvetica,sans-Serif" font-size="10.00" fill="#000000">type_traits</text>
</a>
</g>
</g>
<!-- Node16&#45;&gt;Node33 -->
<g id="edge59" class="edge">
<title>Node16&#45;&gt;Node33</title>
<path fill="none" stroke="#191970" d="M1134.0178,-354.2403C1204.0833,-348.5503 1353.1719,-334.0797 1399,-311 1423.8249,-298.4978 1445.3994,-274.2462 1458.3,-257.4774"/>
<polygon fill="#191970" stroke="#191970" points="1461.4002,-259.1723 1464.5401,-249.0534 1455.7753,-255.0056 1461.4002,-259.1723"/>
</g>
<!-- Node34 -->
<g id="node34" class="node">
<title>Node34</title>
<g id="a_node34"><a xlink:title=" ">
<polygon fill="#ffffff" stroke="#bfbfbf" points="1026,-291.5 1026,-310.5 1084,-310.5 1084,-291.5 1026,-291.5"/>
<text text-anchor="middle" x="1055" y="-298.5" font-family="Helvetica,sans-Serif" font-size="10.00" fill="#000000">memory</text>
</a>
</g>
</g>
<!-- Node16&#45;&gt;Node34 -->
<g id="edge58" class="edge">
<title>Node16&#45;&gt;Node34</title>
<path fill="none" stroke="#191970" d="M1089.6842,-347.2455C1083.7821,-339.3761 1075.3258,-328.101 1068.2406,-318.6542"/>
<polygon fill="#191970" stroke="#191970" points="1071.0321,-316.5427 1062.232,-310.6427 1065.432,-320.7427 1071.0321,-316.5427"/>
</g>
<!-- Node17&#45;&gt;Node2 -->
<g id="edge25" class="edge">
<title>Node17&#45;&gt;Node2</title>
<path fill="none" stroke="#191970" d="M563.961,-229.6676C572.3641,-219.8611 584.5702,-203.9918 591,-188 604.7374,-153.8329 608.5936,-110.5823 609.6442,-85.826"/>
<polygon fill="#191970" stroke="#191970" points="613.1506,-85.6681 609.9603,-75.565 606.154,-85.4525 613.1506,-85.6681"/>
</g>
<!-- Node17&#45;&gt;Node10 -->
<g id="edge26" class="edge">
<title>Node17&#45;&gt;Node10</title>
<path fill="none" stroke="#191970" d="M547.287,-229.9423C534.7663,-214.9593 508.6227,-185.8175 481,-168 458.7182,-153.6276 431.2283,-142.4837 408.6029,-134.7663"/>
<polygon fill="#191970" stroke="#191970" points="409.5038,-131.378 398.9106,-131.566 407.3089,-138.025 409.5038,-131.378"/>
</g>
<!-- Node17&#45;&gt;Node11 -->
<g id="edge29" class="edge">
<title>Node17&#45;&gt;Node11</title>
<path fill="none" stroke="#191970" d="M503.7996,-229.9581C437.5358,-217.609 323.5293,-196.3623 263.9069,-185.2508"/>
<polygon fill="#191970" stroke="#191970" points="264.2497,-181.7545 253.7777,-183.3631 262.9672,-188.636 264.2497,-181.7545"/>
</g>
<!-- Node17&#45;&gt;Node15 -->
<g id="edge27" class="edge">
<title>Node17&#45;&gt;Node15</title>
<path fill="none" stroke="#191970" d="M532.3438,-229.8906C508.0826,-219.6005 469.3882,-203.1888 442.02,-191.5809"/>
<polygon fill="#191970" stroke="#191970" points="443.07,-188.2245 432.4972,-187.5419 440.3367,-194.6688 443.07,-188.2245"/>
</g>
<!-- Node17&#45;&gt;Node18 -->
<g id="edge28" class="edge">
<title>Node17&#45;&gt;Node18</title>
<path fill="none" stroke="#191970" d="M597.4518,-229.9385C609.2307,-227.6226 622.063,-225.4105 634,-224 1017.0007,-178.7425 1116.9203,-222.9364 1501,-188 1513.2729,-186.8836 1526.6716,-185.1352 1538.49,-183.4105"/>
<polygon fill="#191970" stroke="#191970" points="1539.034,-186.8681 1548.401,-181.9175 1537.9912,-179.9462 1539.034,-186.8681"/>
</g>
<!-- Node19 -->
<g id="node19" class="node">
<title>Node19</title>
<g id="a_node19"><a xlink:title=" ">
<polygon fill="#ffffff" stroke="#bfbfbf" points="528.5,-168.5 528.5,-187.5 581.5,-187.5 581.5,-168.5 528.5,-168.5"/>
<text text-anchor="middle" x="555" y="-175.5" font-family="Helvetica,sans-Serif" font-size="10.00" fill="#000000">iterator</text>
</a>
</g>
</g>
<!-- Node17&#45;&gt;Node19 -->
<g id="edge30" class="edge">
<title>Node17&#45;&gt;Node19</title>
<path fill="none" stroke="#191970" d="M555,-229.8906C555,-221.3657 555,-208.6392 555,-197.9235"/>
<polygon fill="#191970" stroke="#191970" points="558.5001,-197.7448 555,-187.7449 551.5001,-197.7449 558.5001,-197.7448"/>
</g>
<!-- Node21 -->
<g id="node21" class="node">
<title>Node21</title>
<g id="a_node21"><a xlink:href="sitkMemberFunctionFactoryBase_8h.html" target="_top" xlink:title=" ">
<polygon fill="#ffffff" stroke="#000000" points="1052,-224.5 1052,-254.5 1202,-254.5 1202,-224.5 1052,-224.5"/>
<text text-anchor="start" x="1060" y="-242.5" font-family="Helvetica,sans-Serif" font-size="10.00" fill="#000000">sitkMemberFunctionFactory</text>
<text text-anchor="middle" x="1127" y="-231.5" font-family="Helvetica,sans-Serif" font-size="10.00" fill="#000000">Base.h</text>
</a>
</g>
</g>
<!-- Node20&#45;&gt;Node21 -->
<g id="edge32" class="edge">
<title>Node20&#45;&gt;Node21</title>
<path fill="none" stroke="#191970" d="M1137.125,-291.3906C1135.7115,-284.1463 1133.7059,-273.8679 1131.8522,-264.3676"/>
<polygon fill="#191970" stroke="#191970" points="1135.2859,-263.6892 1129.9355,-254.5446 1128.4155,-265.0298 1135.2859,-263.6892"/>
</g>
<!-- Node27 -->
<g id="node27" class="node">
<title>Node27</title>
<g id="a_node27"><a xlink:title=" ">
<polygon fill="#ffffff" stroke="#bfbfbf" points="1354,-168.5 1354,-187.5 1492,-187.5 1492,-168.5 1354,-168.5"/>
<text text-anchor="middle" x="1423" y="-175.5" font-family="Helvetica,sans-Serif" font-size="10.00" fill="#000000">Ancillary/FunctionTraits.h</text>
</a>
</g>
</g>
<!-- Node20&#45;&gt;Node27 -->
<g id="edge48" class="edge">
<title>Node20&#45;&gt;Node27</title>
<path fill="none" stroke="#191970" d="M1161.285,-291.3484C1211.4712,-269.6128 1333.4769,-216.7723 1391.43,-191.6729"/>
<polygon fill="#191970" stroke="#191970" points="1393.0332,-194.7928 1400.8185,-187.6068 1390.2512,-188.3694 1393.0332,-194.7928"/>
</g>
<!-- Node21&#45;&gt;Node2 -->
<g id="edge41" class="edge">
<title>Node21&#45;&gt;Node2</title>
<path fill="none" stroke="#191970" d="M1115.2574,-224.4607C1101.6014,-208.0353 1077.5181,-182.1818 1051,-168 982.3153,-131.2675 755.5689,-90.2613 656.7372,-73.6257"/>
<polygon fill="#191970" stroke="#191970" points="657.1783,-70.151 646.7378,-71.9524 656.0229,-77.055 657.1783,-70.151"/>
</g>
<!-- Node21&#45;&gt;Node8 -->
<g id="edge33" class="edge">
<title>Node21&#45;&gt;Node8</title>
<path fill="none" stroke="#191970" d="M1202.4255,-229.5521C1236.6928,-222.2453 1276.3282,-209.6481 1307,-188 1353.6609,-155.0669 1358.9417,-132.0316 1370,-76 1373.0246,-60.6748 1371.4272,-43.0153 1369.2636,-29.8218"/>
<polygon fill="#191970" stroke="#191970" points="1372.6927,-29.1182 1367.402,-19.9389 1365.8136,-30.414 1372.6927,-29.1182"/>
</g>
<!-- Node22 -->
<g id="node22" class="node">
<title>Node22</title>
<g id="a_node22"><a xlink:href="sitkPixelIDTypes_8h.html" target="_top" xlink:title=" ">
<polygon fill="#ffffff" stroke="#000000" points="966,-112.5 966,-131.5 1072,-131.5 1072,-112.5 966,-112.5"/>
<text text-anchor="middle" x="1019" y="-119.5" font-family="Helvetica,sans-Serif" font-size="10.00" fill="#000000">sitkPixelIDTypes.h</text>
</a>
</g>
</g>
<!-- Node21&#45;&gt;Node22 -->
<g id="edge34" class="edge">
<title>Node21&#45;&gt;Node22</title>
<path fill="none" stroke="#191970" d="M1120.1848,-224.3303C1112.7827,-208.9657 1099.8655,-185.0925 1084,-168 1072.7991,-155.9329 1057.9524,-145.1379 1045.2762,-137.043"/>
<polygon fill="#191970" stroke="#191970" points="1046.8629,-133.9098 1036.5127,-131.6463 1043.1923,-139.8702 1046.8629,-133.9098"/>
</g>
<!-- Node23 -->
<g id="node23" class="node">
<title>Node23</title>
<g id="a_node23"><a xlink:href="sitkPixelIDTypeLists_8h.html" target="_top" xlink:title=" ">
<polygon fill="#ffffff" stroke="#000000" points="1174.5,-168.5 1174.5,-187.5 1297.5,-187.5 1297.5,-168.5 1174.5,-168.5"/>
<text text-anchor="middle" x="1236" y="-175.5" font-family="Helvetica,sans-Serif" font-size="10.00" fill="#000000">sitkPixelIDTypeLists.h</text>
</a>
</g>
</g>
<!-- Node21&#45;&gt;Node23 -->
<g id="edge35" class="edge">
<title>Node21&#45;&gt;Node23</title>
<path fill="none" stroke="#191970" d="M1153.6644,-224.4554C1170.8941,-214.734 1193.1975,-202.15 1210.2446,-192.5317"/>
<polygon fill="#191970" stroke="#191970" points="1212.1194,-195.4926 1219.1089,-187.5303 1208.6796,-189.3961 1212.1194,-195.4926"/>
</g>
<!-- Node24 -->
<g id="node24" class="node">
<title>Node24</title>
<g id="a_node24"><a xlink:title=" ">
<polygon fill="#ffffff" stroke="#bfbfbf" points="1090.5,-112.5 1090.5,-131.5 1201.5,-131.5 1201.5,-112.5 1090.5,-112.5"/>
<text text-anchor="middle" x="1146" y="-119.5" font-family="Helvetica,sans-Serif" font-size="10.00" fill="#000000">Ancillary/TypeList.h</text>
</a>
</g>
</g>
<!-- Node21&#45;&gt;Node24 -->
<g id="edge44" class="edge">
<title>Node21&#45;&gt;Node24</title>
<path fill="none" stroke="#191970" d="M1129.4839,-224.1389C1132.9071,-202.9692 1139.0763,-164.8174 1142.8288,-141.6112"/>
<polygon fill="#191970" stroke="#191970" points="1146.313,-141.99 1144.4542,-131.5595 1139.4027,-140.8725 1146.313,-141.99"/>
</g>
<!-- Node26 -->
<g id="node26" class="node">
<title>Node26</title>
<g id="a_node26"><a xlink:href="sitkNonCopyable_8h.html" target="_top" xlink:title=" ">
<polygon fill="#ffffff" stroke="#000000" points="738.5,-168.5 738.5,-187.5 847.5,-187.5 847.5,-168.5 738.5,-168.5"/>
<text text-anchor="middle" x="793" y="-175.5" font-family="Helvetica,sans-Serif" font-size="10.00" fill="#000000">sitkNonCopyable.h</text>
</a>
</g>
</g>
<!-- Node21&#45;&gt;Node26 -->
<g id="edge42" class="edge">
<title>Node21&#45;&gt;Node26</title>
<path fill="none" stroke="#191970" d="M1051.6274,-225.6215C992.2173,-214.6822 910.3994,-199.617 854.81,-189.3812"/>
<polygon fill="#191970" stroke="#191970" points="855.2152,-185.897 844.7467,-187.5282 853.9476,-192.7813 855.2152,-185.897"/>
</g>
<!-- Node21&#45;&gt;Node27 -->
<g id="edge45" class="edge">
<title>Node21&#45;&gt;Node27</title>
<path fill="none" stroke="#191970" d="M1199.4097,-224.4554C1251.1809,-213.6989 1319.8206,-199.4376 1367.3275,-189.5671"/>
<polygon fill="#191970" stroke="#191970" points="1368.0516,-192.9915 1377.1305,-187.5303 1366.6276,-186.1378 1368.0516,-192.9915"/>
</g>
<!-- Node28 -->
<g id="node28" class="node">
<title>Node28</title>
<g id="a_node28"><a xlink:title=" ">
<polygon fill="#ffffff" stroke="#bfbfbf" points="865.5,-168.5 865.5,-187.5 958.5,-187.5 958.5,-168.5 865.5,-168.5"/>
<text text-anchor="middle" x="912" y="-175.5" font-family="Helvetica,sans-Serif" font-size="10.00" fill="#000000">unordered_map</text>
</a>
</g>
</g>
<!-- Node21&#45;&gt;Node28 -->
<g id="edge46" class="edge">
<title>Node21&#45;&gt;Node28</title>
<path fill="none" stroke="#191970" d="M1074.4051,-224.4554C1037.7451,-213.9689 989.44,-200.1515 955.0652,-190.3187"/>
<polygon fill="#191970" stroke="#191970" points="955.8944,-186.9155 945.3174,-187.5303 953.9692,-193.6456 955.8944,-186.9155"/>
</g>
<!-- Node29 -->
<g id="node29" class="node">
<title>Node29</title>
<g id="a_node29"><a xlink:title=" ">
<polygon fill="#ffffff" stroke="#bfbfbf" points="976.5,-168.5 976.5,-187.5 1041.5,-187.5 1041.5,-168.5 976.5,-168.5"/>
<text text-anchor="middle" x="1009" y="-175.5" font-family="Helvetica,sans-Serif" font-size="10.00" fill="#000000">functional</text>
</a>
</g>
</g>
<!-- Node21&#45;&gt;Node29 -->
<g id="edge47" class="edge">
<title>Node21&#45;&gt;Node29</title>
<path fill="none" stroke="#191970" d="M1098.134,-224.4554C1079.3089,-214.644 1054.889,-201.9167 1036.3708,-192.2653"/>
<polygon fill="#191970" stroke="#191970" points="1037.7713,-189.0484 1027.2858,-187.5303 1034.536,-195.2559 1037.7713,-189.0484"/>
</g>
<!-- Node23&#45;&gt;Node3 -->
<g id="edge36" class="edge">
<title>Node23&#45;&gt;Node3</title>
<path fill="none" stroke="#191970" d="M1234.5984,-168.3383C1232.1182,-154.3645 1225.7512,-128.396 1211,-112 1165.8066,-61.7676 1090.1613,-32.9917 1045.3812,-19.5151"/>
<polygon fill="#191970" stroke="#191970" points="1046.357,-16.1539 1035.7772,-16.7172 1044.3991,-22.8745 1046.357,-16.1539"/>
</g>
<!-- Node23&#45;&gt;Node8 -->
<g id="edge37" class="edge">
<title>Node23&#45;&gt;Node8</title>
<path fill="none" stroke="#191970" d="M1269.1853,-168.4696C1288.541,-161.332 1312.0188,-149.7015 1327,-132 1352.0929,-102.3508 1360.6371,-56.1892 1363.5315,-29.9717"/>
<polygon fill="#191970" stroke="#191970" points="1367.04,-30.0419 1364.4806,-19.7609 1360.07,-29.394 1367.04,-30.0419"/>
</g>
<!-- Node23&#45;&gt;Node22 -->
<g id="edge38" class="edge">
<title>Node23&#45;&gt;Node22</title>
<path fill="none" stroke="#191970" d="M1198.6964,-168.3733C1161.8315,-158.8598 1105.334,-144.2797 1065.5494,-134.0127"/>
<polygon fill="#191970" stroke="#191970" points="1066.3742,-130.611 1055.8169,-131.5011 1064.625,-137.3889 1066.3742,-130.611"/>
</g>
<!-- Node23&#45;&gt;Node24 -->
<g id="edge39" class="edge">
<title>Node23&#45;&gt;Node24</title>
<path fill="none" stroke="#191970" d="M1220.3232,-168.2455C1206.5144,-159.6534 1186.1807,-147.0014 1170.2708,-137.1018"/>
<polygon fill="#191970" stroke="#191970" points="1171.8368,-133.954 1161.4972,-131.6427 1168.1387,-139.8974 1171.8368,-133.954"/>
</g>
<!-- Node25 -->
<g id="node25" class="node">
<title>Node25</title>
<g id="a_node25"><a xlink:title=" ">
<polygon fill="#ffffff" stroke="#bfbfbf" points="1258.5,-112.5 1258.5,-131.5 1317.5,-131.5 1317.5,-112.5 1258.5,-112.5"/>
<text text-anchor="middle" x="1288" y="-119.5" font-family="Helvetica,sans-Serif" font-size="10.00" fill="#000000">complex</text>
</a>
</g>
</g>
<!-- Node23&#45;&gt;Node25 -->
<g id="edge40" class="edge">
<title>Node23&#45;&gt;Node25</title>
<path fill="none" stroke="#191970" d="M1245.0577,-168.2455C1252.5142,-160.2155 1263.2634,-148.6394 1272.1417,-139.0781"/>
<polygon fill="#191970" stroke="#191970" points="1274.8063,-141.3522 1279.0461,-131.6427 1269.6768,-136.589 1274.8063,-141.3522"/>
</g>
<!-- Node26&#45;&gt;Node10 -->
<g id="edge43" class="edge">
<title>Node26&#45;&gt;Node10</title>
<path fill="none" stroke="#191970" d="M738.203,-169.3299C735.0908,-168.8712 732.0065,-168.4248 729,-168 619.1412,-152.479 490.2653,-136.7834 419.1101,-128.3363"/>
<polygon fill="#191970" stroke="#191970" points="419.3821,-124.8441 409.0398,-127.1434 418.5586,-131.7955 419.3821,-124.8441"/>
</g>
<!-- Node30&#45;&gt;Node8 -->
<g id="edge50" class="edge">
<title>Node30&#45;&gt;Node8</title>
<path fill="none" stroke="#191970" d="M1344.1095,-291.3936C1360.711,-275.9344 1395.1901,-245.1335 1428,-224 1458.4123,-204.4108 1481.8971,-218.7201 1501,-188 1541.0201,-123.6421 1441.3074,-54.1228 1391.4057,-24.592"/>
<polygon fill="#191970" stroke="#191970" points="1393.1196,-21.54 1382.7126,-19.5536 1389.6094,-27.5963 1393.1196,-21.54"/>
</g>
<!-- Node31 -->
<g id="node31" class="node">
<title>Node31</title>
<g id="a_node31"><a xlink:href="sitkPixelIDValues_8h.html" target="_top" xlink:title=" ">
<polygon fill="#ffffff" stroke="#000000" points="643,-230 643,-249 753,-249 753,-230 643,-230"/>
<text text-anchor="middle" x="698" y="-237" font-family="Helvetica,sans-Serif" font-size="10.00" fill="#000000">sitkPixelIDValues.h</text>
</a>
</g>
</g>
<!-- Node30&#45;&gt;Node31 -->
<g id="edge51" class="edge">
<title>Node30&#45;&gt;Node31</title>
<path fill="none" stroke="#191970" d="M1277.8382,-295.5693C1160.1757,-284.1915 888.354,-257.9069 763.2151,-245.8062"/>
<polygon fill="#191970" stroke="#191970" points="763.3061,-242.2987 753.0157,-244.8199 762.6323,-249.2662 763.3061,-242.2987"/>
</g>
<!-- Node30&#45;&gt;Node33 -->
<g id="edge56" class="edge">
<title>Node30&#45;&gt;Node33</title>
<path fill="none" stroke="#191970" d="M1355.4063,-291.3906C1378.2283,-281.1457 1414.5679,-264.8326 1440.4057,-253.2339"/>
<polygon fill="#191970" stroke="#191970" points="1442.0545,-256.3303 1449.7441,-249.0419 1439.1877,-249.9443 1442.0545,-256.3303"/>
</g>
<!-- Node31&#45;&gt;Node10 -->
<g id="edge52" class="edge">
<title>Node31&#45;&gt;Node10</title>
<path fill="none" stroke="#191970" d="M686.9783,-229.9722C668.4612,-214.4883 629.3573,-183.9889 591,-168 535.0483,-144.6771 466.236,-132.852 419.3415,-127.0823"/>
<polygon fill="#191970" stroke="#191970" points="419.7278,-123.6037 409.3866,-125.9079 418.9076,-130.5555 419.7278,-123.6037"/>
</g>
<!-- Node31&#45;&gt;Node11 -->
<g id="edge55" class="edge">
<title>Node31&#45;&gt;Node11</title>
<path fill="none" stroke="#191970" d="M660.2398,-229.968C650.7385,-227.7897 640.5312,-225.6369 631,-224 560.7943,-211.9428 350.8649,-190.4924 263.6518,-181.8077"/>
<polygon fill="#191970" stroke="#191970" points="263.939,-178.3191 253.642,-180.8134 263.247,-185.2848 263.939,-178.3191"/>
</g>
<!-- Node31&#45;&gt;Node23 -->
<g id="edge53" class="edge">
<title>Node31&#45;&gt;Node23</title>
<path fill="none" stroke="#191970" d="M753.0471,-233.2074C850.9856,-222.0119 1055.4057,-198.6441 1164.2299,-186.2042"/>
<polygon fill="#191970" stroke="#191970" points="1164.9184,-189.6484 1174.4561,-185.0352 1164.1233,-182.6937 1164.9184,-189.6484"/>
</g>
<!-- Node32 -->
<g id="node32" class="node">
<title>Node32</title>
<g id="a_node32"><a xlink:title=" ">
<polygon fill="#ffffff" stroke="#bfbfbf" points="676,-168.5 676,-187.5 720,-187.5 720,-168.5 676,-168.5"/>
<text text-anchor="middle" x="698" y="-175.5" font-family="Helvetica,sans-Serif" font-size="10.00" fill="#000000">string</text>
</a>
</g>
</g>
<!-- Node31&#45;&gt;Node32 -->
<g id="edge54" class="edge">
<title>Node31&#45;&gt;Node32</title>
<path fill="none" stroke="#191970" d="M698,-229.8906C698,-221.3657 698,-208.6392 698,-197.9235"/>
<polygon fill="#191970" stroke="#191970" points="701.5001,-197.7448 698,-187.7449 694.5001,-197.7449 701.5001,-197.7448"/>
</g>
</g>
</svg>
