<?xml version="1.0" encoding="UTF-8" standalone="no"?>
<!DOCTYPE svg PUBLIC "-//W3C//DTD SVG 1.1//EN"
 "http://www.w3.org/Graphics/SVG/1.1/DTD/svg11.dtd">
<!-- Generated by graphviz version 2.40.1 (20161225.0304)
 -->
<!-- Title: sitkPixelIDTypeLists.h Pages: 1 -->
<svg width="4222pt" height="576pt"
 viewBox="0.00 0.00 4222.00 576.00" xmlns="http://www.w3.org/2000/svg" xmlns:xlink="http://www.w3.org/1999/xlink">
<g id="graph0" class="graph" transform="scale(1 1) rotate(0) translate(4 572)">
<title>sitkPixelIDTypeLists.h</title>
<polygon fill="#ffffff" stroke="transparent" points="-4,4 -4,-572 4218,-572 4218,4 -4,4"/>
<!-- Node1 -->
<g id="node1" class="node">
<title>Node1</title>
<g id="a_node1"><a xlink:title=" ">
<polygon fill="#bfbfbf" stroke="#000000" points="2673.5,-548.5 2673.5,-567.5 2796.5,-567.5 2796.5,-548.5 2673.5,-548.5"/>
<text text-anchor="middle" x="2735" y="-555.5" font-family="Helvetica,sans-Serif" font-size="10.00" fill="#000000">sitkPixelIDTypeLists.h</text>
</a>
</g>
</g>
<!-- Node2 -->
<g id="node2" class="node">
<title>Node2</title>
<g id="a_node2"><a xlink:href="sitkMemberFunctionFactoryBase_8h.html" target="_top" xlink:title=" ">
<polygon fill="#ffffff" stroke="#000000" points="2660,-481.5 2660,-511.5 2810,-511.5 2810,-481.5 2660,-481.5"/>
<text text-anchor="start" x="2668" y="-499.5" font-family="Helvetica,sans-Serif" font-size="10.00" fill="#000000">sitkMemberFunctionFactory</text>
<text text-anchor="middle" x="2735" y="-488.5" font-family="Helvetica,sans-Serif" font-size="10.00" fill="#000000">Base.h</text>
</a>
</g>
</g>
<!-- Node1&#45;&gt;Node2 -->
<g id="edge1" class="edge">
<title>Node1&#45;&gt;Node2</title>
<path fill="none" stroke="#191970" d="M2735,-538.3693C2735,-529.681 2735,-519.6241 2735,-511.5446"/>
<polygon fill="#191970" stroke="#191970" points="2731.5001,-538.3906 2735,-548.3906 2738.5001,-538.3907 2731.5001,-538.3906"/>
</g>
<!-- Node4 -->
<g id="node4" class="node">
<title>Node4</title>
<g id="a_node4"><a xlink:href="SimpleITK_8h.html" target="_top" xlink:title=" ">
<polygon fill="#ffffff" stroke="#000000" points="950.5,-.5 950.5,-19.5 1025.5,-19.5 1025.5,-.5 950.5,-.5"/>
<text text-anchor="middle" x="988" y="-7.5" font-family="Helvetica,sans-Serif" font-size="10.00" fill="#000000">SimpleITK.h</text>
</a>
</g>
</g>
<!-- Node1&#45;&gt;Node4 -->
<g id="edge148" class="edge">
<title>Node1&#45;&gt;Node4</title>
<path fill="none" stroke="#191970" d="M2806.8585,-555.8345C3103.0819,-546.4427 4214,-506.4577 4214,-435 4214,-435 4214,-435 4214,-138.5 4214,-95.8536 4201.9102,-77.3624 4165,-56 4093.5729,-14.6603 1377.9619,-10.4113 1025.5519,-10.0338"/>
<polygon fill="#191970" stroke="#191970" points="2806.5526,-552.3423 2796.6678,-556.1557 2806.7731,-559.3388 2806.5526,-552.3423"/>
</g>
<!-- Node336 -->
<g id="node48" class="node">
<title>Node336</title>
<g id="a_node48"><a xlink:href="sitkPixelIDValues_8h.html" target="_top" xlink:title=" ">
<polygon fill="#ffffff" stroke="#000000" points="788,-487 788,-506 898,-506 898,-487 788,-487"/>
<text text-anchor="middle" x="843" y="-494" font-family="Helvetica,sans-Serif" font-size="10.00" fill="#000000">sitkPixelIDValues.h</text>
</a>
</g>
</g>
<!-- Node1&#45;&gt;Node336 -->
<g id="edge140" class="edge">
<title>Node1&#45;&gt;Node336</title>
<path fill="none" stroke="#191970" d="M2663.3373,-555.6706C2358.1141,-545.7492 1169.7469,-507.121 898.3872,-498.3004"/>
<polygon fill="#191970" stroke="#191970" points="2663.2846,-559.1706 2673.393,-555.9974 2663.5121,-552.1743 2663.2846,-559.1706"/>
</g>
<!-- Node3 -->
<g id="node3" class="node">
<title>Node3</title>
<g id="a_node3"><a xlink:href="sitkDetail_8h.html" target="_top" xlink:title=" ">
<polygon fill="#ffffff" stroke="#000000" points="2852.5,-425.5 2852.5,-444.5 2925.5,-444.5 2925.5,-425.5 2852.5,-425.5"/>
<text text-anchor="middle" x="2889" y="-432.5" font-family="Helvetica,sans-Serif" font-size="10.00" fill="#000000">sitkDetail.h</text>
</a>
</g>
</g>
<!-- Node2&#45;&gt;Node3 -->
<g id="edge2" class="edge">
<title>Node2&#45;&gt;Node3</title>
<path fill="none" stroke="#191970" d="M2782.1087,-477.6871C2809.5749,-466.7185 2843.0477,-453.3511 2865.1355,-444.5303"/>
<polygon fill="#191970" stroke="#191970" points="2780.6614,-474.4962 2772.6726,-481.4554 2783.2576,-480.997 2780.6614,-474.4962"/>
</g>
<!-- Node334 -->
<g id="node46" class="node">
<title>Node334</title>
<g id="a_node46"><a xlink:href="sitkDualMemberFunctionFactory_8h.html" target="_top" xlink:title=" ">
<polygon fill="#ffffff" stroke="#000000" points="2645,-196 2645,-215 2825,-215 2825,-196 2645,-196"/>
<text text-anchor="middle" x="2735" y="-203" font-family="Helvetica,sans-Serif" font-size="10.00" fill="#000000">sitkDualMemberFunctionFactory.h</text>
</a>
</g>
</g>
<!-- Node2&#45;&gt;Node334 -->
<g id="edge138" class="edge">
<title>Node2&#45;&gt;Node334</title>
<path fill="none" stroke="#191970" d="M2735,-471.0078C2735,-447.2074 2735,-410.6986 2735,-379 2735,-379 2735,-379 2735,-323 2735,-283.0174 2735,-235.3818 2735,-215.2489"/>
<polygon fill="#191970" stroke="#191970" points="2731.5001,-471.2898 2735,-481.2899 2738.5001,-471.2899 2731.5001,-471.2898"/>
</g>
<!-- Node335 -->
<g id="node47" class="node">
<title>Node335</title>
<g id="a_node47"><a xlink:href="sitkMemberFunctionFactory_8h.html" target="_top" xlink:title=" ">
<polygon fill="#ffffff" stroke="#000000" points="488,-257.5 488,-276.5 646,-276.5 646,-257.5 488,-257.5"/>
<text text-anchor="middle" x="567" y="-264.5" font-family="Helvetica,sans-Serif" font-size="10.00" fill="#000000">sitkMemberFunctionFactory.h</text>
</a>
</g>
</g>
<!-- Node2&#45;&gt;Node335 -->
<g id="edge139" class="edge">
<title>Node2&#45;&gt;Node335</title>
<path fill="none" stroke="#191970" d="M2649.6135,-495.3154C2415.0652,-491.7053 1741.1751,-478.9413 1182,-445 1040.8224,-436.4307 643.5103,-493.3184 548,-389 518.7599,-357.0634 547.4941,-299.5671 560.9174,-276.7319"/>
<polygon fill="#191970" stroke="#191970" points="2649.7287,-498.8174 2659.7809,-495.4703 2649.8354,-491.8182 2649.7287,-498.8174"/>
</g>
<!-- Node3&#45;&gt;Node4 -->
<g id="edge3" class="edge">
<title>Node3&#45;&gt;Node4</title>
<path fill="none" stroke="#191970" d="M2935.8966,-433.4258C3167.2626,-425.358 4176,-386.5395 4176,-323 4176,-323 4176,-323 4176,-138.5 4176,-97.7508 4170.3731,-77.8858 4136,-56 4101.5105,-34.0401 1379.1152,-12.9284 1025.6683,-10.279"/>
<polygon fill="#191970" stroke="#191970" points="2935.6589,-429.9319 2925.7861,-433.776 2935.9013,-436.9277 2935.6589,-429.9319"/>
</g>
<!-- Node5 -->
<g id="node5" class="node">
<title>Node5</title>
<g id="a_node5"><a xlink:href="sitkImage_8h.html" target="_top" xlink:title=" ">
<polygon fill="#ffffff" stroke="#000000" points="1210,-369.5 1210,-388.5 1284,-388.5 1284,-369.5 1210,-369.5"/>
<text text-anchor="middle" x="1247" y="-376.5" font-family="Helvetica,sans-Serif" font-size="10.00" fill="#000000">sitkImage.h</text>
</a>
</g>
</g>
<!-- Node3&#45;&gt;Node5 -->
<g id="edge4" class="edge">
<title>Node3&#45;&gt;Node5</title>
<path fill="none" stroke="#191970" d="M2842.2193,-433.4046C2600.9915,-425.1775 1500.5519,-387.6473 1284.0421,-380.2633"/>
<polygon fill="#191970" stroke="#191970" points="2842.2888,-436.9089 2852.4023,-433.7518 2842.5274,-429.9129 2842.2888,-436.9089"/>
</g>
<!-- Node323 -->
<g id="node9" class="node">
<title>Node323</title>
<g id="a_node9"><a xlink:href="sitkImageRegistrationMethod_8h.html" target="_top" xlink:title=" ">
<polygon fill="#ffffff" stroke="#000000" points="2930.5,-196 2930.5,-215 3099.5,-215 3099.5,-196 2930.5,-196"/>
<text text-anchor="middle" x="3015" y="-203" font-family="Helvetica,sans-Serif" font-size="10.00" fill="#000000">sitkImageRegistrationMethod.h</text>
</a>
</g>
</g>
<!-- Node3&#45;&gt;Node323 -->
<g id="edge137" class="edge">
<title>Node3&#45;&gt;Node323</title>
<path fill="none" stroke="#191970" d="M2935.3168,-424.9361C2955.5246,-418.1548 2977.6163,-407.0288 2991,-389 3031.5999,-334.3092 3021.4152,-244.3574 3016.7148,-215.0521"/>
<polygon fill="#191970" stroke="#191970" points="2934.1231,-421.6414 2925.5944,-427.9272 2936.1815,-428.3319 2934.1231,-421.6414"/>
</g>
<!-- Node3&#45;&gt;Node334 -->
<g id="edge112" class="edge">
<title>Node3&#45;&gt;Node334</title>
<path fill="none" stroke="#191970" d="M2876.9493,-417.0413C2846.0766,-371.033 2764.9262,-250.0978 2741.4485,-215.11"/>
<polygon fill="#191970" stroke="#191970" points="2874.1005,-419.0773 2882.5789,-425.4309 2879.9131,-415.1769 2874.1005,-419.0773"/>
</g>
<!-- Node3&#45;&gt;Node335 -->
<g id="edge126" class="edge">
<title>Node3&#45;&gt;Node335</title>
<path fill="none" stroke="#191970" d="M2842.4321,-434.7568C2605.4957,-433.3629 1532.1381,-425.1287 1201,-389 972.295,-364.0472 702.7769,-300.6831 604.9054,-276.5409"/>
<polygon fill="#191970" stroke="#191970" points="2842.4193,-438.2567 2852.4394,-434.8145 2842.4598,-431.2568 2842.4193,-438.2567"/>
</g>
<!-- Node5&#45;&gt;Node4 -->
<g id="edge9" class="edge">
<title>Node5&#45;&gt;Node4</title>
<path fill="none" stroke="#191970" d="M1294.3031,-375.5029C1396.0034,-367.9596 1643.0343,-349.5056 1850,-333 1909.7668,-328.2336 3960.4003,-198.1186 4001,-154 4010.3296,-143.8617 4009.8927,-133.5236 4001,-123 3885.7886,13.3416 3782.7367,-72.5039 3605,-56 3337.1978,-31.1331 1326.4999,-12.9181 1025.6241,-10.3194"/>
<polygon fill="#191970" stroke="#191970" points="1293.7739,-372.0324 1284.06,-376.2621 1294.2915,-379.0132 1293.7739,-372.0324"/>
</g>
<!-- Node6 -->
<g id="node6" class="node">
<title>Node6</title>
<g id="a_node6"><a xlink:href="sitkAdditionalProcedures_8h.html" target="_top" xlink:title=" ">
<polygon fill="#ffffff" stroke="#000000" points="4000.5,-196 4000.5,-215 4147.5,-215 4147.5,-196 4000.5,-196"/>
<text text-anchor="middle" x="4074" y="-203" font-family="Helvetica,sans-Serif" font-size="10.00" fill="#000000">sitkAdditionalProcedures.h</text>
</a>
</g>
</g>
<!-- Node5&#45;&gt;Node6 -->
<g id="edge5" class="edge">
<title>Node5&#45;&gt;Node6</title>
<path fill="none" stroke="#191970" d="M1294.4688,-378.1833C1531.3602,-374.0326 2587.2513,-354.6246 2915,-333 3392.5573,-301.4912 3512.0384,-287.4398 3986,-221 3998.1366,-219.2987 4011.1629,-217.1714 4023.374,-215.0429"/>
<polygon fill="#191970" stroke="#191970" points="1294.0695,-374.6897 1284.1322,-378.3639 1294.1918,-381.6886 1294.0695,-374.6897"/>
</g>
<!-- Node7 -->
<g id="node7" class="node">
<title>Node7</title>
<g id="a_node7"><a xlink:href="sitkHashImageFilter_8h.html" target="_top" xlink:title=" ">
<polygon fill="#ffffff" stroke="#000000" points="560,-129 560,-148 682,-148 682,-129 560,-129"/>
<text text-anchor="middle" x="621" y="-136" font-family="Helvetica,sans-Serif" font-size="10.00" fill="#000000">sitkHashImageFilter.h</text>
</a>
</g>
</g>
<!-- Node5&#45;&gt;Node7 -->
<g id="edge7" class="edge">
<title>Node5&#45;&gt;Node7</title>
<path fill="none" stroke="#191970" d="M1199.6041,-371.1655C1165.3382,-364.2611 1118.6459,-352.243 1081,-333 1045.5243,-314.8663 1035.9761,-308.0411 1011,-277 983.9614,-243.3955 1002.8631,-215.3951 968,-190 962.2542,-185.8147 780.2323,-160.3295 682.1761,-146.8479"/>
<polygon fill="#191970" stroke="#191970" points="1199.3321,-374.678 1209.8156,-373.1465 1200.6652,-367.8061 1199.3321,-374.678"/>
</g>
<!-- Node8 -->
<g id="node8" class="node">
<title>Node8</title>
<g id="a_node8"><a xlink:href="sitkTransform_8h.html" target="_top" xlink:title=" ">
<polygon fill="#ffffff" stroke="#ff0000" points="3043,-257.5 3043,-276.5 3135,-276.5 3135,-257.5 3043,-257.5"/>
<text text-anchor="middle" x="3089" y="-264.5" font-family="Helvetica,sans-Serif" font-size="10.00" fill="#000000">sitkTransform.h</text>
</a>
</g>
</g>
<!-- Node5&#45;&gt;Node8 -->
<g id="edge10" class="edge">
<title>Node5&#45;&gt;Node8</title>
<path fill="none" stroke="#191970" d="M1294.4237,-378.6933C1546.007,-376.9283 2718.9906,-366.9267 2877,-333 2899.5961,-328.1483 2903.167,-320.5791 2925,-313 2967.0432,-298.4051 3016.3337,-285.0723 3049.8195,-276.5619"/>
<polygon fill="#191970" stroke="#191970" points="1294.1344,-375.1951 1284.1588,-378.7643 1294.1828,-382.195 1294.1344,-375.1951"/>
</g>
<!-- Node5&#45;&gt;Node323 -->
<g id="edge111" class="edge">
<title>Node5&#45;&gt;Node323</title>
<path fill="none" stroke="#191970" d="M1294.0918,-374.493C1462.2424,-358.4084 2048.833,-302.3695 2533,-257 2705.8704,-240.801 2749.8086,-243.2869 2922,-221 2934.9865,-219.3191 2948.9385,-217.1751 2961.9843,-215.0216"/>
<polygon fill="#191970" stroke="#191970" points="1293.7063,-371.0138 1284.0851,-375.4503 1294.373,-377.982 1293.7063,-371.0138"/>
</g>
<!-- Node324 -->
<g id="node10" class="node">
<title>Node324</title>
<g id="a_node10"><a xlink:href="sitkProcessObject_8h.html" target="_top" xlink:title=" ">
<polygon fill="#ffffff" stroke="#000000" points="1020.5,-257.5 1020.5,-276.5 1133.5,-276.5 1133.5,-257.5 1020.5,-257.5"/>
<text text-anchor="middle" x="1077" y="-264.5" font-family="Helvetica,sans-Serif" font-size="10.00" fill="#000000">sitkProcessObject.h</text>
</a>
</g>
</g>
<!-- Node5&#45;&gt;Node324 -->
<g id="edge15" class="edge">
<title>Node5&#45;&gt;Node324</title>
<path fill="none" stroke="#191970" d="M1199.6628,-369.7279C1161.0562,-361.2611 1110.6061,-347.8329 1096,-333 1080.941,-317.7072 1077.6654,-291.2905 1077.0477,-276.9534"/>
<polygon fill="#191970" stroke="#191970" points="1199.1837,-373.2046 1209.6949,-371.8763 1200.6496,-366.3598 1199.1837,-373.2046"/>
</g>
<!-- Node326 -->
<g id="node38" class="node">
<title>Node326</title>
<g id="a_node38"><a xlink:href="sitkImageFileReader_8h.html" target="_top" xlink:title=" ">
<polygon fill="#ffffff" stroke="#000000" points="0,-129 0,-148 124,-148 124,-129 0,-129"/>
<text text-anchor="middle" x="62" y="-136" font-family="Helvetica,sans-Serif" font-size="10.00" fill="#000000">sitkImageFileReader.h</text>
</a>
</g>
</g>
<!-- Node5&#45;&gt;Node326 -->
<g id="edge104" class="edge">
<title>Node5&#45;&gt;Node326</title>
<path fill="none" stroke="#191970" d="M1199.8744,-378.2058C1018.0486,-374.9441 367.9092,-361.3889 280,-333 175.2609,-299.1761 91.4497,-182.9419 68.3443,-148.3118"/>
<polygon fill="#191970" stroke="#191970" points="1199.866,-381.7061 1209.9265,-378.3841 1199.9902,-374.7072 1199.866,-381.7061"/>
</g>
<!-- Node327 -->
<g id="node39" class="node">
<title>Node327</title>
<g id="a_node39"><a xlink:href="sitkImageSeriesReader_8h.html" target="_top" xlink:title=" ">
<polygon fill="#ffffff" stroke="#000000" points="142.5,-129 142.5,-148 279.5,-148 279.5,-129 142.5,-129"/>
<text text-anchor="middle" x="211" y="-136" font-family="Helvetica,sans-Serif" font-size="10.00" fill="#000000">sitkImageSeriesReader.h</text>
</a>
</g>
</g>
<!-- Node5&#45;&gt;Node327 -->
<g id="edge106" class="edge">
<title>Node5&#45;&gt;Node327</title>
<path fill="none" stroke="#191970" d="M1199.6354,-377.9295C1096.8115,-375.0576 845.6825,-365.0769 638,-333 423.2139,-299.826 296.9356,-391.3701 162,-221 142.7621,-196.7102 177.3461,-164.1654 197.6975,-148.1835"/>
<polygon fill="#191970" stroke="#191970" points="1199.6061,-381.4299 1209.6969,-378.2008 1199.7949,-374.4324 1199.6061,-381.4299"/>
</g>
<!-- Node328 -->
<g id="node40" class="node">
<title>Node328</title>
<g id="a_node40"><a xlink:href="sitkImportImageFilter_8h.html" target="_top" xlink:title=" ">
<polygon fill="#ffffff" stroke="#000000" points="298,-129 298,-148 428,-148 428,-129 298,-129"/>
<text text-anchor="middle" x="363" y="-136" font-family="Helvetica,sans-Serif" font-size="10.00" fill="#000000">sitkImportImageFilter.h</text>
</a>
</g>
</g>
<!-- Node5&#45;&gt;Node328 -->
<g id="edge109" class="edge">
<title>Node5&#45;&gt;Node328</title>
<path fill="none" stroke="#191970" d="M1199.4953,-375.4227C1053.4902,-364.0014 613.1074,-326.254 479,-277 435.8348,-261.1466 420.4998,-257.0878 392,-221 374.3103,-198.6005 366.9625,-164.6075 364.307,-148.1291"/>
<polygon fill="#191970" stroke="#191970" points="1199.6531,-378.9454 1209.8941,-376.2304 1200.1952,-371.9664 1199.6531,-378.9454"/>
</g>
<!-- Node329 -->
<g id="node41" class="node">
<title>Node329</title>
<g id="a_node41"><a xlink:href="sitkImageFileWriter_8h.html" target="_top" xlink:title=" ">
<polygon fill="#ffffff" stroke="#000000" points="840.5,-196 840.5,-215 959.5,-215 959.5,-196 840.5,-196"/>
<text text-anchor="middle" x="900" y="-203" font-family="Helvetica,sans-Serif" font-size="10.00" fill="#000000">sitkImageFileWriter.h</text>
</a>
</g>
</g>
<!-- Node5&#45;&gt;Node329 -->
<g id="edge105" class="edge">
<title>Node5&#45;&gt;Node329</title>
<path fill="none" stroke="#191970" d="M1199.8646,-375.8651C1131.6872,-370.5384 1009.7934,-357.8001 974,-333 930.8736,-303.119 909.3643,-239.3349 902.5058,-215.1068"/>
<polygon fill="#191970" stroke="#191970" points="1199.6846,-379.3614 1209.9206,-376.6275 1200.2139,-372.3815 1199.6846,-379.3614"/>
</g>
<!-- Node330 -->
<g id="node42" class="node">
<title>Node330</title>
<g id="a_node42"><a xlink:href="sitkImageSeriesWriter_8h.html" target="_top" xlink:title=" ">
<polygon fill="#ffffff" stroke="#000000" points="1092.5,-196 1092.5,-215 1225.5,-215 1225.5,-196 1092.5,-196"/>
<text text-anchor="middle" x="1159" y="-203" font-family="Helvetica,sans-Serif" font-size="10.00" fill="#000000">sitkImageSeriesWriter.h</text>
</a>
</g>
</g>
<!-- Node5&#45;&gt;Node330 -->
<g id="edge107" class="edge">
<title>Node5&#45;&gt;Node330</title>
<path fill="none" stroke="#191970" d="M1242.5143,-359.2899C1239.1111,-345.8991 1233.8497,-327.97 1227,-313 1209.3582,-274.4439 1179.9291,-233.2532 1166.3172,-215.0676"/>
<polygon fill="#191970" stroke="#191970" points="1239.1829,-360.4055 1244.93,-369.3061 1245.9878,-358.7643 1239.1829,-360.4055"/>
</g>
<!-- Node331 -->
<g id="node43" class="node">
<title>Node331</title>
<g id="a_node43"><a xlink:href="sitkImageViewer_8h.html" target="_top" xlink:title=" ">
<polygon fill="#ffffff" stroke="#000000" points="1243.5,-196 1243.5,-215 1350.5,-215 1350.5,-196 1243.5,-196"/>
<text text-anchor="middle" x="1297" y="-203" font-family="Helvetica,sans-Serif" font-size="10.00" fill="#000000">sitkImageViewer.h</text>
</a>
</g>
</g>
<!-- Node5&#45;&gt;Node331 -->
<g id="edge108" class="edge">
<title>Node5&#45;&gt;Node331</title>
<path fill="none" stroke="#191970" d="M1253.0505,-359.4335C1255.5492,-351.2727 1258.4515,-341.6887 1261,-333 1273.8829,-289.0787 1288.4904,-236.3977 1294.3566,-215.1157"/>
<polygon fill="#191970" stroke="#191970" points="1249.6575,-358.5596 1250.0619,-369.1468 1256.348,-360.6182 1249.6575,-358.5596"/>
</g>
<!-- Node332 -->
<g id="node44" class="node">
<title>Node332</title>
<g id="a_node44"><a xlink:href="sitkShow_8h.html" target="_top" xlink:title=" ">
<polygon fill="#ffffff" stroke="#000000" points="2843.5,-196 2843.5,-215 2912.5,-215 2912.5,-196 2843.5,-196"/>
<text text-anchor="middle" x="2878" y="-203" font-family="Helvetica,sans-Serif" font-size="10.00" fill="#000000">sitkShow.h</text>
</a>
</g>
</g>
<!-- Node5&#45;&gt;Node332 -->
<g id="edge110" class="edge">
<title>Node5&#45;&gt;Node332</title>
<path fill="none" stroke="#191970" d="M1294.5899,-371.6364C1433.0307,-350.4819 1847.7189,-289.0027 2194,-257 2477.6852,-230.7823 2554.6411,-276.886 2834,-221 2840.8298,-219.6337 2848.0364,-217.4361 2854.5959,-215.12"/>
<polygon fill="#191970" stroke="#191970" points="1293.6934,-368.2328 1284.3385,-373.2064 1294.7531,-375.1521 1293.6934,-368.2328"/>
</g>
<!-- Node333 -->
<g id="node45" class="node">
<title>Node333</title>
<g id="a_node45"><a xlink:href="sitkImageConvert_8h.html" target="_top" xlink:title=" ">
<polygon fill="#ffffff" stroke="#000000" points="1105.5,-313.5 1105.5,-332.5 1218.5,-332.5 1218.5,-313.5 1105.5,-313.5"/>
<text text-anchor="middle" x="1162" y="-320.5" font-family="Helvetica,sans-Serif" font-size="10.00" fill="#000000">sitkImageConvert.h</text>
</a>
</g>
</g>
<!-- Node5&#45;&gt;Node333 -->
<g id="edge102" class="edge">
<title>Node5&#45;&gt;Node333</title>
<path fill="none" stroke="#191970" d="M1223.4581,-363.49C1208.461,-353.6096 1189.5027,-341.1194 1176.6362,-332.6427"/>
<polygon fill="#191970" stroke="#191970" points="1221.9179,-366.6666 1232.1941,-369.2455 1225.7691,-360.8212 1221.9179,-366.6666"/>
</g>
<!-- Node6&#45;&gt;Node4 -->
<g id="edge6" class="edge">
<title>Node6&#45;&gt;Node4</title>
<path fill="none" stroke="#191970" d="M4092.0057,-188.3716C4100.4318,-179.1031 4109.5713,-166.9217 4114,-154 4128.1215,-112.7972 4144.571,-87.0242 4114,-56 4085.5098,-27.0875 1378.5429,-12.0323 1025.7537,-10.1923"/>
<polygon fill="#191970" stroke="#191970" points="4089.3472,-186.0862 4084.921,-195.7122 4094.384,-190.9474 4089.3472,-186.0862"/>
</g>
<!-- Node7&#45;&gt;Node4 -->
<g id="edge8" class="edge">
<title>Node7&#45;&gt;Node4</title>
<path fill="none" stroke="#191970" d="M632.037,-120.3848C644.8583,-101.0508 667.889,-71.1611 696,-56 739.3058,-32.6438 881.56,-18.4686 950.2372,-12.8245"/>
<polygon fill="#191970" stroke="#191970" points="629.0201,-118.6059 626.5854,-128.9173 634.9189,-122.3748 629.0201,-118.6059"/>
</g>
<!-- Node8&#45;&gt;Node4 -->
<g id="edge12" class="edge">
<title>Node8&#45;&gt;Node4</title>
<path fill="none" stroke="#191970" d="M3145.1328,-264.8708C3345.0834,-256.716 4013.9841,-224.3326 4076,-154 4104.8063,-121.3307 4106.5682,-87.0269 4076,-56 4047.866,-27.4438 1375.1923,-12.0858 1025.5683,-10.1983"/>
<polygon fill="#191970" stroke="#191970" points="3144.9849,-261.3739 3135.1342,-265.2743 3145.2672,-268.3682 3144.9849,-261.3739"/>
</g>
<!-- Node8&#45;&gt;Node6 -->
<g id="edge11" class="edge">
<title>Node8&#45;&gt;Node6</title>
<path fill="none" stroke="#191970" d="M3145.1518,-257.4261C3146.4456,-257.2751 3147.7298,-257.1327 3149,-257 3519.3295,-218.3214 3615.8523,-261.3816 3986,-221 3999.2625,-219.5531 4013.5453,-217.3291 4026.6664,-215.0134"/>
<polygon fill="#191970" stroke="#191970" points="3144.5759,-253.9714 3135.1105,-258.7313 3145.4782,-260.9131 3144.5759,-253.9714"/>
</g>
<!-- Node8&#45;&gt;Node323 -->
<g id="edge13" class="edge">
<title>Node8&#45;&gt;Node323</title>
<path fill="none" stroke="#191970" d="M3069.5906,-250.8692C3055.9799,-239.5576 3038.2302,-224.8062 3026.7255,-215.2449"/>
<polygon fill="#191970" stroke="#191970" points="3067.5097,-253.6907 3077.4375,-257.3906 3071.9838,-248.3072 3067.5097,-253.6907"/>
</g>
<!-- Node323&#45;&gt;Node4 -->
<g id="edge14" class="edge">
<title>Node323&#45;&gt;Node4</title>
<path fill="none" stroke="#191970" d="M3110.0364,-202.1644C3351.2177,-193.4763 3969.0813,-169.7326 3984,-154 3993.4803,-144.0025 3993.2846,-133.1796 3984,-123 3874.6695,-3.1304 3418.9851,-65.0945 3257,-56 2796.9854,-30.1729 1283.7378,-13.1433 1025.6067,-10.3926"/>
<polygon fill="#191970" stroke="#191970" points="3109.7477,-198.6724 3099.8798,-202.5294 3109.9991,-205.6679 3109.7477,-198.6724"/>
</g>
<!-- Node324&#45;&gt;Node4 -->
<g id="edge85" class="edge">
<title>Node324&#45;&gt;Node4</title>
<path fill="none" stroke="#191970" d="M1072.1589,-247.5006C1066.5995,-229.4797 1055.6109,-203.5137 1036,-190 983.2534,-153.653 792.3725,-202.0404 750,-154 739.579,-142.185 730.0135,-81.068 751,-56 776.0221,-26.1116 889.7946,-15.3717 950.1431,-11.733"/>
<polygon fill="#191970" stroke="#191970" points="1068.8278,-248.5853 1074.8883,-257.2755 1075.5699,-246.7026 1068.8278,-248.5853"/>
</g>
<!-- Node324&#45;&gt;Node7 -->
<g id="edge84" class="edge">
<title>Node324&#45;&gt;Node7</title>
<path fill="none" stroke="#191970" d="M1065.0093,-248.8153C1051.8914,-230.5794 1029.084,-203.3457 1002,-190 879.1649,-129.4728 831.179,-175.878 696,-154 685.6311,-152.3218 674.5195,-150.2034 664.111,-148.0761"/>
<polygon fill="#191970" stroke="#191970" points="1062.3886,-251.1788 1070.9573,-257.41 1068.1446,-247.1953 1062.3886,-251.1788"/>
</g>
<!-- Node324&#45;&gt;Node323 -->
<g id="edge101" class="edge">
<title>Node324&#45;&gt;Node323</title>
<path fill="none" stroke="#191970" d="M1143.8406,-266.5906C1431.632,-264.6341 2566.5589,-254.8824 2922,-221 2936.1764,-219.6486 2951.4582,-217.4256 2965.4567,-215.0795"/>
<polygon fill="#191970" stroke="#191970" points="1143.5386,-263.0924 1133.5623,-266.6596 1143.5856,-270.0923 1143.5386,-263.0924"/>
</g>
<!-- Node11 -->
<g id="node11" class="node">
<title>Node11</title>
<g id="a_node11"><a xlink:href="sitkImageFilter_8h.html" target="_top" xlink:title=" ">
<polygon fill="#ffffff" stroke="#ff0000" points="1892,-196 1892,-215 1990,-215 1990,-196 1892,-196"/>
<text text-anchor="middle" x="1941" y="-203" font-family="Helvetica,sans-Serif" font-size="10.00" fill="#000000">sitkImageFilter.h</text>
</a>
</g>
</g>
<!-- Node324&#45;&gt;Node11 -->
<g id="edge16" class="edge">
<title>Node324&#45;&gt;Node11</title>
<path fill="none" stroke="#191970" d="M1143.8435,-262.242C1311.1666,-250.3319 1745.1239,-219.4426 1891.7587,-209.005"/>
<polygon fill="#191970" stroke="#191970" points="1143.4157,-258.7635 1133.6895,-262.9648 1143.9128,-265.7459 1143.4157,-258.7635"/>
</g>
<!-- Node308 -->
<g id="node35" class="node">
<title>Node308</title>
<g id="a_node35"><a xlink:href="sitkCenteredTransformInitializerFilter_8h.html" target="_top" xlink:title=" ">
<polygon fill="#ffffff" stroke="#000000" points="649.5,-190.5 649.5,-220.5 822.5,-220.5 822.5,-190.5 649.5,-190.5"/>
<text text-anchor="start" x="657.5" y="-208.5" font-family="Helvetica,sans-Serif" font-size="10.00" fill="#000000">sitkCenteredTransformInitializer</text>
<text text-anchor="middle" x="736" y="-197.5" font-family="Helvetica,sans-Serif" font-size="10.00" fill="#000000">Filter.h</text>
</a>
</g>
</g>
<!-- Node324&#45;&gt;Node308 -->
<g id="edge80" class="edge">
<title>Node324&#45;&gt;Node308</title>
<path fill="none" stroke="#191970" d="M1014.1608,-255.6668C959.3469,-245.781 879.4084,-231.364 819.2778,-220.5193"/>
<polygon fill="#191970" stroke="#191970" points="1013.6304,-259.1276 1024.0929,-257.4581 1014.8729,-252.2387 1013.6304,-259.1276"/>
</g>
<!-- Node309 -->
<g id="node36" class="node">
<title>Node309</title>
<g id="a_node36"><a xlink:href="sitkCenteredVersorTransformInitializerFilter_8h.html" target="_top" xlink:title=" ">
<polygon fill="#ffffff" stroke="#000000" points="435,-190.5 435,-220.5 593,-220.5 593,-190.5 435,-190.5"/>
<text text-anchor="start" x="443" y="-208.5" font-family="Helvetica,sans-Serif" font-size="10.00" fill="#000000">sitkCenteredVersorTransform</text>
<text text-anchor="middle" x="514" y="-197.5" font-family="Helvetica,sans-Serif" font-size="10.00" fill="#000000">InitializerFilter.h</text>
</a>
</g>
</g>
<!-- Node324&#45;&gt;Node309 -->
<g id="edge82" class="edge">
<title>Node324&#45;&gt;Node309</title>
<path fill="none" stroke="#191970" d="M1010.282,-260.3439C924.5406,-251.7058 771.102,-235.9628 640,-221 624.8906,-219.2756 608.7725,-217.3547 593.2872,-215.4685"/>
<polygon fill="#191970" stroke="#191970" points="1010.0964,-263.8429 1020.3966,-261.3616 1010.7972,-256.878 1010.0964,-263.8429"/>
</g>
<!-- Node325 -->
<g id="node37" class="node">
<title>Node325</title>
<g id="a_node37"><a xlink:href="sitkImageReaderBase_8h.html" target="_top" xlink:title=" ">
<polygon fill="#ffffff" stroke="#000000" points="171,-196 171,-215 303,-215 303,-196 171,-196"/>
<text text-anchor="middle" x="237" y="-203" font-family="Helvetica,sans-Serif" font-size="10.00" fill="#000000">sitkImageReaderBase.h</text>
</a>
</g>
</g>
<!-- Node324&#45;&gt;Node325 -->
<g id="edge86" class="edge">
<title>Node324&#45;&gt;Node325</title>
<path fill="none" stroke="#191970" d="M1010.0719,-262.5209C892.0675,-254.5678 639.2969,-237.2816 426,-221 385.1302,-217.8803 339.3113,-214.129 303.0234,-211.0983"/>
<polygon fill="#191970" stroke="#191970" points="1010.1707,-266.0354 1020.3833,-263.2152 1010.6411,-259.0512 1010.1707,-266.0354"/>
</g>
<!-- Node324&#45;&gt;Node329 -->
<g id="edge93" class="edge">
<title>Node324&#45;&gt;Node329</title>
<path fill="none" stroke="#191970" d="M1039.8756,-254.1009C1006.3053,-242.4366 957.6479,-225.5302 927.462,-215.0419"/>
<polygon fill="#191970" stroke="#191970" points="1038.7489,-257.4146 1049.3438,-257.3906 1041.0465,-250.8023 1038.7489,-257.4146"/>
</g>
<!-- Node324&#45;&gt;Node330 -->
<g id="edge95" class="edge">
<title>Node324&#45;&gt;Node330</title>
<path fill="none" stroke="#191970" d="M1098.1345,-251.1491C1113.3707,-239.722 1133.4334,-224.6749 1146.2775,-215.0419"/>
<polygon fill="#191970" stroke="#191970" points="1095.7125,-248.5906 1089.8125,-257.3906 1099.9125,-254.1906 1095.7125,-248.5906"/>
</g>
<!-- Node324&#45;&gt;Node331 -->
<g id="edge97" class="edge">
<title>Node324&#45;&gt;Node331</title>
<path fill="none" stroke="#191970" d="M1121.0111,-254.6969C1162.7859,-243.0189 1224.7032,-225.7103 1262.8664,-215.0419"/>
<polygon fill="#191970" stroke="#191970" points="1120.0635,-251.3275 1111.375,-257.3906 1121.9481,-258.0691 1120.0635,-251.3275"/>
</g>
<!-- Node324&#45;&gt;Node332 -->
<g id="edge99" class="edge">
<title>Node324&#45;&gt;Node332</title>
<path fill="none" stroke="#191970" d="M1144.3308,-265.5234C1461.3578,-258.5352 2791.7195,-228.8002 2834,-221 2841.0089,-219.707 2848.3983,-217.4713 2855.0786,-215.0939"/>
<polygon fill="#191970" stroke="#191970" points="1143.8444,-262.0331 1133.9239,-265.7526 1143.9986,-269.0314 1143.8444,-262.0331"/>
</g>
<!-- Node11&#45;&gt;Node4 -->
<g id="edge24" class="edge">
<title>Node11&#45;&gt;Node4</title>
<path fill="none" stroke="#191970" d="M1881.7576,-203.6093C1666.248,-196.5939 935.6932,-171.5556 919,-154 909.506,-144.0155 909.9786,-133.4135 919,-123 992.5036,-38.1537 1095.4964,-171.8463 1169,-87 1211.6517,-37.7666 1090.2512,-19.1521 1025.5946,-12.8616"/>
<polygon fill="#191970" stroke="#191970" points="1881.8177,-207.113 1891.9261,-203.9393 1882.0449,-200.1167 1881.8177,-207.113"/>
</g>
<!-- Node11&#45;&gt;Node7 -->
<g id="edge21" class="edge">
<title>Node11&#45;&gt;Node7</title>
<path fill="none" stroke="#191970" d="M1881.7906,-203.5626C1713.7869,-197.9017 1219.7313,-180.121 810,-154 767.2873,-151.277 719.2165,-147.3225 682.244,-144.0894"/>
<polygon fill="#191970" stroke="#191970" points="1881.7989,-207.0648 1891.9106,-203.9022 1882.0337,-200.0687 1881.7989,-207.0648"/>
</g>
<!-- Node10 -->
<g id="node12" class="node">
<title>Node10</title>
<g id="a_node12"><a xlink:href="sitkBSplineTransformInitializerFilter_8h.html" target="_top" xlink:title=" ">
<polygon fill="#ffffff" stroke="#000000" points="814,-56.5 814,-86.5 980,-86.5 980,-56.5 814,-56.5"/>
<text text-anchor="start" x="822" y="-74.5" font-family="Helvetica,sans-Serif" font-size="10.00" fill="#000000">sitkBSplineTransformInitializer</text>
<text text-anchor="middle" x="897" y="-63.5" font-family="Helvetica,sans-Serif" font-size="10.00" fill="#000000">Filter.h</text>
</a>
</g>
</g>
<!-- Node11&#45;&gt;Node10 -->
<g id="edge17" class="edge">
<title>Node11&#45;&gt;Node10</title>
<path fill="none" stroke="#191970" d="M1881.8559,-203.7353C1660.6119,-196.9968 893.4799,-172.3456 876,-154 858.5661,-135.7027 873.7926,-105.0394 885.826,-86.6942"/>
<polygon fill="#191970" stroke="#191970" points="1881.8719,-207.2373 1891.9735,-204.0425 1882.0844,-200.2405 1881.8719,-207.2373"/>
</g>
<!-- Node12 -->
<g id="node13" class="node">
<title>Node12</title>
<g id="a_node13"><a xlink:href="sitkCastImageFilter_8h.html" target="_top" xlink:title=" ">
<polygon fill="#ffffff" stroke="#000000" points="928.5,-129 928.5,-148 1047.5,-148 1047.5,-129 928.5,-129"/>
<text text-anchor="middle" x="988" y="-136" font-family="Helvetica,sans-Serif" font-size="10.00" fill="#000000">sitkCastImageFilter.h</text>
</a>
</g>
</g>
<!-- Node11&#45;&gt;Node12 -->
<g id="edge19" class="edge">
<title>Node11&#45;&gt;Node12</title>
<path fill="none" stroke="#191970" d="M1881.8473,-203.3411C1710.5681,-196.8862 1216.2447,-176.7649 1056,-154 1045.8102,-152.5524 1034.8904,-150.3573 1024.8488,-148.0707"/>
<polygon fill="#191970" stroke="#191970" points="1881.81,-206.8421 1891.9342,-203.7195 1882.0725,-199.847 1881.81,-206.8421"/>
</g>
<!-- Node13 -->
<g id="node14" class="node">
<title>Node13</title>
<g id="a_node14"><a xlink:href="sitkLandmarkBasedTransformInitializerFilter_8h.html" target="_top" xlink:title=" ">
<polygon fill="#ffffff" stroke="#000000" points="998,-56.5 998,-86.5 1160,-86.5 1160,-56.5 998,-56.5"/>
<text text-anchor="start" x="1006" y="-74.5" font-family="Helvetica,sans-Serif" font-size="10.00" fill="#000000">sitkLandmarkBasedTransform</text>
<text text-anchor="middle" x="1079" y="-63.5" font-family="Helvetica,sans-Serif" font-size="10.00" fill="#000000">InitializerFilter.h</text>
</a>
</g>
</g>
<!-- Node11&#45;&gt;Node13 -->
<g id="edge22" class="edge">
<title>Node11&#45;&gt;Node13</title>
<path fill="none" stroke="#191970" d="M1881.6702,-203.7019C1661.5368,-196.8927 903.2926,-172.1573 886,-154 876.4981,-144.023 877.607,-133.9263 886,-123 893.6581,-113.0305 954.5585,-97.8326 1005.9308,-86.5274"/>
<polygon fill="#191970" stroke="#191970" points="1881.6377,-207.2024 1891.7409,-204.0125 1881.8536,-200.2058 1881.6377,-207.2024"/>
</g>
<!-- Node14 -->
<g id="node15" class="node">
<title>Node14</title>
<g id="a_node15"><a xlink:href="sitkAbsImageFilter_8h.html" target="_top" xlink:title=" ">
<polygon fill="#ffffff" stroke="#000000" points="1573,-129 1573,-148 1689,-148 1689,-129 1573,-129"/>
<text text-anchor="middle" x="1631" y="-136" font-family="Helvetica,sans-Serif" font-size="10.00" fill="#000000">sitkAbsImageFilter.h</text>
</a>
</g>
</g>
<!-- Node11&#45;&gt;Node14 -->
<g id="edge25" class="edge">
<title>Node11&#45;&gt;Node14</title>
<path fill="none" stroke="#191970" d="M1884.9829,-193.9348C1835.6897,-183.6847 1762.0077,-168.1853 1698,-154 1689.4909,-152.1142 1680.3866,-150.0436 1671.7184,-148.0468"/>
<polygon fill="#191970" stroke="#191970" points="1884.3096,-197.3696 1894.8124,-195.9764 1885.7331,-190.5159 1884.3096,-197.3696"/>
</g>
<!-- Node17 -->
<g id="node18" class="node">
<title>Node17</title>
<g id="a_node18"><a xlink:href="sitkAbsoluteValueDifferenceImageFilter_8h.html" target="_top" xlink:title=" ">
<polygon fill="#ffffff" stroke="#000000" points="1707.5,-123.5 1707.5,-153.5 1862.5,-153.5 1862.5,-123.5 1707.5,-123.5"/>
<text text-anchor="start" x="1715.5" y="-141.5" font-family="Helvetica,sans-Serif" font-size="10.00" fill="#000000">sitkAbsoluteValueDifference</text>
<text text-anchor="middle" x="1785" y="-130.5" font-family="Helvetica,sans-Serif" font-size="10.00" fill="#000000">ImageFilter.h</text>
</a>
</g>
</g>
<!-- Node11&#45;&gt;Node17 -->
<g id="edge29" class="edge">
<title>Node11&#45;&gt;Node17</title>
<path fill="none" stroke="#191970" d="M1909.2791,-191.8763C1883.3545,-180.742 1846.7457,-165.019 1819.976,-153.5218"/>
<polygon fill="#191970" stroke="#191970" points="1908.0794,-195.1701 1918.649,-195.9005 1910.8418,-188.7382 1908.0794,-195.1701"/>
</g>
<!-- Node18 -->
<g id="node19" class="node">
<title>Node18</title>
<g id="a_node19"><a xlink:href="sitkAcosImageFilter_8h.html" target="_top" xlink:title=" ">
<polygon fill="#ffffff" stroke="#000000" points="1880.5,-129 1880.5,-148 2001.5,-148 2001.5,-129 1880.5,-129"/>
<text text-anchor="middle" x="1941" y="-136" font-family="Helvetica,sans-Serif" font-size="10.00" fill="#000000">sitkAcosImageFilter.h</text>
</a>
</g>
</g>
<!-- Node11&#45;&gt;Node18 -->
<g id="edge32" class="edge">
<title>Node11&#45;&gt;Node18</title>
<path fill="none" stroke="#191970" d="M1941,-185.6079C1941,-173.214 1941,-157.8263 1941,-148.0817"/>
<polygon fill="#191970" stroke="#191970" points="1937.5001,-185.9005 1941,-195.9005 1944.5001,-185.9006 1937.5001,-185.9005"/>
</g>
<!-- Node19 -->
<g id="node20" class="node">
<title>Node19</title>
<g id="a_node20"><a xlink:href="sitkAdaptiveHistogramEqualizationImageFilter_8h.html" target="_top" xlink:title=" ">
<polygon fill="#ffffff" stroke="#000000" points="1065.5,-123.5 1065.5,-153.5 1254.5,-153.5 1254.5,-123.5 1065.5,-123.5"/>
<text text-anchor="start" x="1073.5" y="-141.5" font-family="Helvetica,sans-Serif" font-size="10.00" fill="#000000">sitkAdaptiveHistogramEqualization</text>
<text text-anchor="middle" x="1160" y="-130.5" font-family="Helvetica,sans-Serif" font-size="10.00" fill="#000000">ImageFilter.h</text>
</a>
</g>
</g>
<!-- Node11&#45;&gt;Node19 -->
<g id="edge35" class="edge">
<title>Node11&#45;&gt;Node19</title>
<path fill="none" stroke="#191970" d="M1881.3502,-202.4098C1763.253,-195.972 1491.4097,-179.5624 1264,-154 1260.9161,-153.6533 1257.7831,-153.2844 1254.6212,-152.8976"/>
<polygon fill="#191970" stroke="#191970" points="1881.443,-205.9199 1891.6175,-202.9654 1881.8213,-198.9301 1881.443,-205.9199"/>
</g>
<!-- Node20 -->
<g id="node21" class="node">
<title>Node20</title>
<g id="a_node21"><a xlink:href="sitkAddImageFilter_8h.html" target="_top" xlink:title=" ">
<polygon fill="#ffffff" stroke="#ff0000" points="1273,-129 1273,-148 1389,-148 1389,-129 1273,-129"/>
<text text-anchor="middle" x="1331" y="-136" font-family="Helvetica,sans-Serif" font-size="10.00" fill="#000000">sitkAddImageFilter.h</text>
</a>
</g>
</g>
<!-- Node11&#45;&gt;Node20 -->
<g id="edge38" class="edge">
<title>Node11&#45;&gt;Node20</title>
<path fill="none" stroke="#191970" d="M1881.4448,-202.445C1781.164,-196.7224 1572.4568,-182.3242 1398,-154 1388.3364,-152.4311 1377.9894,-150.2769 1368.3882,-148.0734"/>
<polygon fill="#191970" stroke="#191970" points="1881.497,-205.9534 1891.6777,-203.0202 1881.8899,-198.9644 1881.497,-205.9534"/>
</g>
<!-- Node22 -->
<g id="node22" class="node">
<title>Node22</title>
<g id="a_node22"><a xlink:href="sitkAdditiveGaussianNoiseImageFilter_8h.html" target="_top" xlink:title=" ">
<polygon fill="#ffffff" stroke="#000000" points="1407,-123.5 1407,-153.5 1555,-153.5 1555,-123.5 1407,-123.5"/>
<text text-anchor="start" x="1415" y="-141.5" font-family="Helvetica,sans-Serif" font-size="10.00" fill="#000000">sitkAdditiveGaussianNoise</text>
<text text-anchor="middle" x="1481" y="-130.5" font-family="Helvetica,sans-Serif" font-size="10.00" fill="#000000">ImageFilter.h</text>
</a>
</g>
</g>
<!-- Node11&#45;&gt;Node22 -->
<g id="edge41" class="edge">
<title>Node11&#45;&gt;Node22</title>
<path fill="none" stroke="#191970" d="M1881.6753,-198.306C1807.2966,-189.0773 1675.9554,-172.0894 1564,-154 1561.1058,-153.5324 1558.1572,-153.0432 1555.1804,-152.5387"/>
<polygon fill="#191970" stroke="#191970" points="1881.4305,-201.8023 1891.7845,-199.556 1882.2896,-194.8552 1881.4305,-201.8023"/>
</g>
<!-- Node65 -->
<g id="node23" class="node">
<title>Node65</title>
<g id="a_node23"><a xlink:href="sitkClampImageFilter_8h.html" target="_top" xlink:title=" ">
<polygon fill="#ffffff" stroke="#000000" points="2160.5,-129 2160.5,-148 2289.5,-148 2289.5,-129 2160.5,-129"/>
<text text-anchor="middle" x="2225" y="-136" font-family="Helvetica,sans-Serif" font-size="10.00" fill="#000000">sitkClampImageFilter.h</text>
</a>
</g>
</g>
<!-- Node11&#45;&gt;Node65 -->
<g id="edge44" class="edge">
<title>Node11&#45;&gt;Node65</title>
<path fill="none" stroke="#191970" d="M1991.2702,-193.6405C2046.278,-180.6633 2133.3917,-160.1118 2184.2908,-148.1039"/>
<polygon fill="#191970" stroke="#191970" points="1990.3178,-190.269 1981.3887,-195.9717 1991.9252,-197.082 1990.3178,-190.269"/>
</g>
<!-- Node159 -->
<g id="node24" class="node">
<title>Node159</title>
<g id="a_node24"><a xlink:href="sitkLabelIntensityStatisticsImageFilter_8h.html" target="_top" xlink:title=" ">
<polygon fill="#ffffff" stroke="#000000" points="2307.5,-123.5 2307.5,-153.5 2456.5,-153.5 2456.5,-123.5 2307.5,-123.5"/>
<text text-anchor="start" x="2315.5" y="-141.5" font-family="Helvetica,sans-Serif" font-size="10.00" fill="#000000">sitkLabelIntensityStatistics</text>
<text text-anchor="middle" x="2382" y="-130.5" font-family="Helvetica,sans-Serif" font-size="10.00" fill="#000000">ImageFilter.h</text>
</a>
</g>
</g>
<!-- Node11&#45;&gt;Node159 -->
<g id="edge47" class="edge">
<title>Node11&#45;&gt;Node159</title>
<path fill="none" stroke="#191970" d="M2000.2608,-197.6751C2071.1787,-188.1437 2193.4605,-171.1786 2298,-154 2301.073,-153.495 2304.2071,-152.9686 2307.3715,-152.4276"/>
<polygon fill="#191970" stroke="#191970" points="1999.6247,-194.2289 1990.1784,-199.0265 2000.5548,-201.1669 1999.6247,-194.2289"/>
</g>
<!-- Node160 -->
<g id="node25" class="node">
<title>Node160</title>
<g id="a_node25"><a xlink:href="sitkLabelMapContourOverlayImageFilter_8h.html" target="_top" xlink:title=" ">
<polygon fill="#ffffff" stroke="#000000" points="2474,-123.5 2474,-153.5 2632,-153.5 2632,-123.5 2474,-123.5"/>
<text text-anchor="start" x="2482" y="-141.5" font-family="Helvetica,sans-Serif" font-size="10.00" fill="#000000">sitkLabelMapContourOverlay</text>
<text text-anchor="middle" x="2553" y="-130.5" font-family="Helvetica,sans-Serif" font-size="10.00" fill="#000000">ImageFilter.h</text>
</a>
</g>
</g>
<!-- Node11&#45;&gt;Node160 -->
<g id="edge50" class="edge">
<title>Node11&#45;&gt;Node160</title>
<path fill="none" stroke="#191970" d="M2000.5033,-201.1405C2097.8776,-193.6726 2297.2292,-176.9855 2465,-154 2467.9202,-153.5999 2470.8916,-153.1738 2473.8907,-152.7278"/>
<polygon fill="#191970" stroke="#191970" points="1999.977,-197.6703 1990.2718,-201.92 2000.5088,-204.6501 1999.977,-197.6703"/>
</g>
<!-- Node161 -->
<g id="node26" class="node">
<title>Node161</title>
<g id="a_node26"><a xlink:href="sitkLabelMapMaskImageFilter_8h.html" target="_top" xlink:title=" ">
<polygon fill="#ffffff" stroke="#000000" points="2650,-129 2650,-148 2820,-148 2820,-129 2650,-129"/>
<text text-anchor="middle" x="2735" y="-136" font-family="Helvetica,sans-Serif" font-size="10.00" fill="#000000">sitkLabelMapMaskImageFilter.h</text>
</a>
</g>
</g>
<!-- Node11&#45;&gt;Node161 -->
<g id="edge53" class="edge">
<title>Node11&#45;&gt;Node161</title>
<path fill="none" stroke="#191970" d="M2000.5289,-202.9302C2121.5099,-197.3089 2404.6726,-182.1201 2641,-154 2654.4676,-152.3975 2668.952,-150.2313 2682.4199,-148.027"/>
<polygon fill="#191970" stroke="#191970" points="2000.1978,-199.4416 1990.3692,-203.3974 2000.5194,-206.4342 2000.1978,-199.4416"/>
</g>
<!-- Node162 -->
<g id="node27" class="node">
<title>Node162</title>
<g id="a_node27"><a xlink:href="sitkLabelMapOverlayImageFilter_8h.html" target="_top" xlink:title=" ">
<polygon fill="#ffffff" stroke="#000000" points="2838,-123.5 2838,-153.5 2988,-153.5 2988,-123.5 2838,-123.5"/>
<text text-anchor="start" x="2846" y="-141.5" font-family="Helvetica,sans-Serif" font-size="10.00" fill="#000000">sitkLabelMapOverlayImage</text>
<text text-anchor="middle" x="2913" y="-130.5" font-family="Helvetica,sans-Serif" font-size="10.00" fill="#000000">Filter.h</text>
</a>
</g>
</g>
<!-- Node11&#45;&gt;Node162 -->
<g id="edge56" class="edge">
<title>Node11&#45;&gt;Node162</title>
<path fill="none" stroke="#191970" d="M2000.6016,-204.6029C2143.8566,-201.89 2518.6453,-191.4856 2829,-154 2831.9445,-153.6444 2834.9416,-153.2497 2837.9652,-152.8242"/>
<polygon fill="#191970" stroke="#191970" points="2000.2204,-201.1092 1990.2864,-204.7924 2000.349,-208.108 2000.2204,-201.1092"/>
</g>
<!-- Node167 -->
<g id="node28" class="node">
<title>Node167</title>
<g id="a_node28"><a xlink:href="sitkLabelOverlayImageFilter_8h.html" target="_top" xlink:title=" ">
<polygon fill="#ffffff" stroke="#000000" points="3006,-129 3006,-148 3168,-148 3168,-129 3006,-129"/>
<text text-anchor="middle" x="3087" y="-136" font-family="Helvetica,sans-Serif" font-size="10.00" fill="#000000">sitkLabelOverlayImageFilter.h</text>
</a>
</g>
</g>
<!-- Node11&#45;&gt;Node167 -->
<g id="edge59" class="edge">
<title>Node11&#45;&gt;Node167</title>
<path fill="none" stroke="#191970" d="M2000.2763,-205.1358C2161.0985,-203.6026 2618.9642,-195.6146 2997,-154 3010.3959,-152.5254 3024.8181,-150.3212 3038.1082,-148.0345"/>
<polygon fill="#191970" stroke="#191970" points="2000.0847,-201.6373 1990.1168,-205.2278 2000.1481,-208.637 2000.0847,-201.6373"/>
</g>
<!-- Node169 -->
<g id="node29" class="node">
<title>Node169</title>
<g id="a_node29"><a xlink:href="sitkLabelStatisticsImageFilter_8h.html" target="_top" xlink:title=" ">
<polygon fill="#ffffff" stroke="#000000" points="3186.5,-123.5 3186.5,-153.5 3323.5,-153.5 3323.5,-123.5 3186.5,-123.5"/>
<text text-anchor="start" x="3194.5" y="-141.5" font-family="Helvetica,sans-Serif" font-size="10.00" fill="#000000">sitkLabelStatisticsImage</text>
<text text-anchor="middle" x="3255" y="-130.5" font-family="Helvetica,sans-Serif" font-size="10.00" fill="#000000">Filter.h</text>
</a>
</g>
</g>
<!-- Node11&#45;&gt;Node169 -->
<g id="edge62" class="edge">
<title>Node11&#45;&gt;Node169</title>
<path fill="none" stroke="#191970" d="M2000.1754,-204.2479C2213.8138,-199.5382 2944.89,-181.7293 3177,-154 3180.016,-153.6397 3183.0896,-153.2268 3186.1888,-152.7731"/>
<polygon fill="#191970" stroke="#191970" points="2000.0207,-200.7503 1990.0998,-204.4687 2000.1741,-207.7487 2000.0207,-200.7503"/>
</g>
<!-- Node185 -->
<g id="node30" class="node">
<title>Node185</title>
<g id="a_node30"><a xlink:href="sitkMaskImageFilter_8h.html" target="_top" xlink:title=" ">
<polygon fill="#ffffff" stroke="#000000" points="3341.5,-129 3341.5,-148 3464.5,-148 3464.5,-129 3341.5,-129"/>
<text text-anchor="middle" x="3403" y="-136" font-family="Helvetica,sans-Serif" font-size="10.00" fill="#000000">sitkMaskImageFilter.h</text>
</a>
</g>
</g>
<!-- Node11&#45;&gt;Node185 -->
<g id="edge65" class="edge">
<title>Node11&#45;&gt;Node185</title>
<path fill="none" stroke="#191970" d="M2000.4759,-203.9353C2249.2633,-197.3034 3199.7616,-171.0733 3333,-154 3343.7412,-152.6236 3355.2663,-150.3926 3365.8019,-148.0468"/>
<polygon fill="#191970" stroke="#191970" points="2000.0976,-200.444 1990.1943,-204.2088 2000.2839,-207.4415 2000.0976,-200.444"/>
</g>
<!-- Node204 -->
<g id="node31" class="node">
<title>Node204</title>
<g id="a_node31"><a xlink:href="sitkMorphologicalWatershedFromMarkersImageFilter_8h.html" target="_top" xlink:title=" ">
<polygon fill="#ffffff" stroke="#000000" points="3482.5,-123.5 3482.5,-153.5 3637.5,-153.5 3637.5,-123.5 3482.5,-123.5"/>
<text text-anchor="start" x="3490.5" y="-141.5" font-family="Helvetica,sans-Serif" font-size="10.00" fill="#000000">sitkMorphologicalWatershed</text>
<text text-anchor="middle" x="3560" y="-130.5" font-family="Helvetica,sans-Serif" font-size="10.00" fill="#000000">FromMarkersImageFilter.h</text>
</a>
</g>
</g>
<!-- Node11&#45;&gt;Node204 -->
<g id="edge68" class="edge">
<title>Node11&#45;&gt;Node204</title>
<path fill="none" stroke="#191970" d="M2000.3298,-204.016C2264.3249,-197.3437 3325.7873,-169.7621 3474,-154 3476.7155,-153.7112 3479.4743,-153.3864 3482.2569,-153.0321"/>
<polygon fill="#191970" stroke="#191970" points="2000.0887,-200.5209 1990.1802,-204.2721 2000.2654,-207.5186 2000.0887,-200.5209"/>
</g>
<!-- Node241 -->
<g id="node32" class="node">
<title>Node241</title>
<g id="a_node32"><a xlink:href="sitkResampleImageFilter_8h.html" target="_top" xlink:title=" ">
<polygon fill="#ffffff" stroke="#000000" points="3656,-129 3656,-148 3802,-148 3802,-129 3656,-129"/>
<text text-anchor="middle" x="3729" y="-136" font-family="Helvetica,sans-Serif" font-size="10.00" fill="#000000">sitkResampleImageFilter.h</text>
</a>
</g>
</g>
<!-- Node11&#45;&gt;Node241 -->
<g id="edge71" class="edge">
<title>Node11&#45;&gt;Node241</title>
<path fill="none" stroke="#191970" d="M2000.015,-204.2681C2281.4836,-198.3187 3480.7793,-172.1059 3647,-154 3659.5306,-152.6351 3673.0148,-150.4077 3685.3573,-148.0618"/>
<polygon fill="#191970" stroke="#191970" points="1999.928,-200.7691 1990.0041,-204.4794 2000.0757,-207.7675 1999.928,-200.7691"/>
</g>
<!-- Node294 -->
<g id="node33" class="node">
<title>Node294</title>
<g id="a_node33"><a xlink:href="sitkVectorIndexSelectionCastImageFilter_8h.html" target="_top" xlink:title=" ">
<polygon fill="#ffffff" stroke="#000000" points="3820.5,-123.5 3820.5,-153.5 3957.5,-153.5 3957.5,-123.5 3820.5,-123.5"/>
<text text-anchor="start" x="3828.5" y="-141.5" font-family="Helvetica,sans-Serif" font-size="10.00" fill="#000000">sitkVectorIndexSelection</text>
<text text-anchor="middle" x="3889" y="-130.5" font-family="Helvetica,sans-Serif" font-size="10.00" fill="#000000">CastImageFilter.h</text>
</a>
</g>
</g>
<!-- Node11&#45;&gt;Node294 -->
<g id="edge74" class="edge">
<title>Node11&#45;&gt;Node294</title>
<path fill="none" stroke="#191970" d="M2000.2764,-204.149C2308.6677,-197.0849 3719.053,-164.3272 3811,-154 3814.0184,-153.661 3817.0941,-153.2658 3820.195,-152.8265"/>
<polygon fill="#191970" stroke="#191970" points="2000.1155,-200.6517 1990.1982,-204.3797 2000.2758,-207.6499 2000.1155,-200.6517"/>
</g>
<!-- Node299 -->
<g id="node34" class="node">
<title>Node299</title>
<g id="a_node34"><a xlink:href="sitkWarpImageFilter_8h.html" target="_top" xlink:title=" ">
<polygon fill="#ffffff" stroke="#000000" points="2020,-129 2020,-148 2142,-148 2142,-129 2020,-129"/>
<text text-anchor="middle" x="2081" y="-136" font-family="Helvetica,sans-Serif" font-size="10.00" fill="#000000">sitkWarpImageFilter.h</text>
</a>
</g>
</g>
<!-- Node11&#45;&gt;Node299 -->
<g id="edge77" class="edge">
<title>Node11&#45;&gt;Node299</title>
<path fill="none" stroke="#191970" d="M1970.1029,-191.5722C1997.3019,-178.5555 2037.1884,-159.467 2060.9786,-148.0817"/>
<polygon fill="#191970" stroke="#191970" points="1968.5679,-188.4266 1961.0586,-195.9005 1971.5898,-194.7407 1968.5679,-188.4266"/>
</g>
<!-- Node10&#45;&gt;Node4 -->
<g id="edge18" class="edge">
<title>Node10&#45;&gt;Node4</title>
<path fill="none" stroke="#191970" d="M927.8085,-50.6789C943.3439,-40.1797 961.439,-27.9505 973.7015,-19.6633"/>
<polygon fill="#191970" stroke="#191970" points="925.8199,-47.7984 919.4944,-56.2977 929.7395,-53.5982 925.8199,-47.7984"/>
</g>
<!-- Node12&#45;&gt;Node4 -->
<g id="edge20" class="edge">
<title>Node12&#45;&gt;Node4</title>
<path fill="none" stroke="#191970" d="M1038.6974,-126.7016C1101.5699,-112.0126 1200.7092,-88.6383 1202,-87 1210.5268,-76.1778 1210.6584,-66.7173 1202,-56 1180.2681,-29.1004 1081.2738,-17.1988 1025.8585,-12.5658"/>
<polygon fill="#191970" stroke="#191970" points="1037.8811,-123.298 1028.9387,-128.9799 1039.4725,-130.1147 1037.8811,-123.298"/>
</g>
<!-- Node13&#45;&gt;Node4 -->
<g id="edge23" class="edge">
<title>Node13&#45;&gt;Node4</title>
<path fill="none" stroke="#191970" d="M1048.1915,-50.6789C1032.6561,-40.1797 1014.561,-27.9505 1002.2985,-19.6633"/>
<polygon fill="#191970" stroke="#191970" points="1046.2605,-53.5982 1056.5056,-56.2977 1050.1801,-47.7984 1046.2605,-53.5982"/>
</g>
<!-- Node15 -->
<g id="node16" class="node">
<title>Node15</title>
<g id="a_node16"><a xlink:href="CMakeTmp_2SimpleITKBasicFiltersGeneratedHeaders_8h.html" target="_top" xlink:title=" ">
<polygon fill="#ffffff" stroke="#000000" points="2275.5,-56.5 2275.5,-86.5 2448.5,-86.5 2448.5,-56.5 2275.5,-56.5"/>
<text text-anchor="start" x="2283.5" y="-74.5" font-family="Helvetica,sans-Serif" font-size="10.00" fill="#000000">SimpleITKBasicFiltersGenerated</text>
<text text-anchor="middle" x="2362" y="-63.5" font-family="Helvetica,sans-Serif" font-size="10.00" fill="#000000">Headers.h</text>
</a>
</g>
</g>
<!-- Node14&#45;&gt;Node15 -->
<g id="edge26" class="edge">
<title>Node14&#45;&gt;Node15</title>
<path fill="none" stroke="#191970" d="M1677.5251,-126.7924C1684.36,-125.3479 1691.3399,-124.0228 1698,-123 1903.5689,-91.4318 2148.073,-78.8001 2275.3087,-74.0791"/>
<polygon fill="#191970" stroke="#191970" points="1676.6767,-123.3953 1667.6688,-128.9728 1678.1888,-130.2301 1676.6767,-123.3953"/>
</g>
<!-- Node16 -->
<g id="node17" class="node">
<title>Node16</title>
<g id="a_node17"><a xlink:href="include_2SimpleITKBasicFiltersGeneratedHeaders_8h.html" target="_top" xlink:title=" ">
<polygon fill="#ffffff" stroke="#000000" points="2466.5,-56.5 2466.5,-86.5 2639.5,-86.5 2639.5,-56.5 2466.5,-56.5"/>
<text text-anchor="start" x="2474.5" y="-74.5" font-family="Helvetica,sans-Serif" font-size="10.00" fill="#000000">SimpleITKBasicFiltersGenerated</text>
<text text-anchor="middle" x="2553" y="-63.5" font-family="Helvetica,sans-Serif" font-size="10.00" fill="#000000">Headers.h</text>
</a>
</g>
</g>
<!-- Node14&#45;&gt;Node16 -->
<g id="edge27" class="edge">
<title>Node14&#45;&gt;Node16</title>
<path fill="none" stroke="#191970" d="M1677.0102,-126.7115C1684.0043,-125.2525 1691.1664,-123.9447 1698,-123 2032.5312,-76.7543 2121.1029,-121.9702 2457,-87 2460.1065,-86.6766 2463.2653,-86.319 2466.4527,-85.9338"/>
<polygon fill="#191970" stroke="#191970" points="1675.9524,-123.3607 1666.941,-128.9325 1677.4602,-130.1963 1675.9524,-123.3607"/>
</g>
<!-- Node16&#45;&gt;Node4 -->
<g id="edge28" class="edge">
<title>Node16&#45;&gt;Node4</title>
<path fill="none" stroke="#191970" d="M2456.1336,-56.0358C2146.0942,-27.847 1224.1186,-13.368 1025.823,-10.5236"/>
<polygon fill="#191970" stroke="#191970" points="2456.1766,-59.5551 2466.4592,-57.0017 2456.8286,-52.5855 2456.1766,-59.5551"/>
</g>
<!-- Node17&#45;&gt;Node15 -->
<g id="edge30" class="edge">
<title>Node17&#45;&gt;Node15</title>
<path fill="none" stroke="#191970" d="M1872.8569,-122.7903C2019.4464,-102.2143 2179.1969,-87.0065 2275.2854,-78.646"/>
<polygon fill="#191970" stroke="#191970" points="1872.185,-119.3504 1862.7741,-124.2171 1873.1659,-126.2813 1872.185,-119.3504"/>
</g>
<!-- Node17&#45;&gt;Node16 -->
<g id="edge31" class="edge">
<title>Node17&#45;&gt;Node16</title>
<path fill="none" stroke="#191970" d="M1872.8392,-122.8639C2131.8113,-92.4065 2200.9546,-115.4649 2457,-87 2460.1041,-86.6549 2463.261,-86.2787 2466.4467,-85.8778"/>
<polygon fill="#191970" stroke="#191970" points="1872.2698,-119.4069 1862.7542,-124.0656 1873.0981,-126.3578 1872.2698,-119.4069"/>
</g>
<!-- Node18&#45;&gt;Node15 -->
<g id="edge33" class="edge">
<title>Node18&#45;&gt;Node15</title>
<path fill="none" stroke="#191970" d="M1991.6904,-126.8233C1998.1745,-125.4629 2004.7336,-124.1519 2011,-123 2100.6509,-106.5196 2203.9572,-91.8819 2275.1659,-82.4645"/>
<polygon fill="#191970" stroke="#191970" points="1990.6581,-123.465 1981.6154,-128.9858 1992.1273,-130.3091 1990.6581,-123.465"/>
</g>
<!-- Node18&#45;&gt;Node16 -->
<g id="edge34" class="edge">
<title>Node18&#45;&gt;Node16</title>
<path fill="none" stroke="#191970" d="M1989.8843,-126.7801C1996.9407,-125.3499 2004.1359,-124.032 2011,-123 2207.6567,-93.4336 2259.5706,-110.868 2457,-87 2460.1007,-86.6251 2463.2546,-86.2235 2466.4378,-85.801"/>
<polygon fill="#191970" stroke="#191970" points="1988.7583,-123.4408 1979.6999,-128.9358 1990.2079,-130.2891 1988.7583,-123.4408"/>
</g>
<!-- Node19&#45;&gt;Node15 -->
<g id="edge36" class="edge">
<title>Node19&#45;&gt;Node15</title>
<path fill="none" stroke="#191970" d="M1264.7684,-122.9983C1647.2418,-86.1333 2091.1566,-75.5553 2275.3112,-72.5908"/>
<polygon fill="#191970" stroke="#191970" points="1264.2237,-119.5347 1254.6089,-123.9852 1264.9005,-126.5019 1264.2237,-119.5347"/>
</g>
<!-- Node19&#45;&gt;Node16 -->
<g id="edge37" class="edge">
<title>Node19&#45;&gt;Node16</title>
<path fill="none" stroke="#191970" d="M1264.7948,-123.015C1794.1109,-76.5974 1932.2865,-137.0628 2457,-87 2460.1091,-86.7034 2463.2703,-86.3686 2466.4596,-86.0029"/>
<polygon fill="#191970" stroke="#191970" points="1264.2548,-119.549 1254.6026,-123.9177 1264.8724,-126.5217 1264.2548,-119.549"/>
</g>
<!-- Node20&#45;&gt;Node15 -->
<g id="edge39" class="edge">
<title>Node20&#45;&gt;Node15</title>
<path fill="none" stroke="#191970" d="M1377.0153,-126.7483C1384.0088,-125.2842 1391.1692,-123.9651 1398,-123 1566.026,-99.2601 2071.4099,-80.8536 2275.3062,-74.1971"/>
<polygon fill="#191970" stroke="#191970" points="1375.9561,-123.3978 1366.9466,-128.9727 1377.4662,-130.233 1375.9561,-123.3978"/>
</g>
<!-- Node20&#45;&gt;Node16 -->
<g id="edge40" class="edge">
<title>Node20&#45;&gt;Node16</title>
<path fill="none" stroke="#191970" d="M1376.7551,-126.6796C1383.8281,-125.2114 1391.0807,-123.9093 1398,-123 1864.9242,-61.6409 1988.2766,-132.6231 2457,-87 2460.1086,-86.6974 2463.2692,-86.3576 2466.4581,-85.9876"/>
<polygon fill="#191970" stroke="#191970" points="1375.5925,-123.3518 1366.5807,-128.9231 1377.0998,-130.1876 1375.5925,-123.3518"/>
</g>
<!-- Node22&#45;&gt;Node15 -->
<g id="edge42" class="edge">
<title>Node22&#45;&gt;Node15</title>
<path fill="none" stroke="#191970" d="M1565.3101,-122.9338C1829.372,-90.4341 2130.5276,-78.0807 2275.4756,-73.6792"/>
<polygon fill="#191970" stroke="#191970" points="1564.6345,-119.4907 1555.1425,-124.1975 1565.4979,-126.4373 1564.6345,-119.4907"/>
</g>
<!-- Node22&#45;&gt;Node16 -->
<g id="edge43" class="edge">
<title>Node22&#45;&gt;Node16</title>
<path fill="none" stroke="#191970" d="M1565.1199,-122.9896C1960.4337,-79.2211 2065.0611,-126.398 2457,-87 2460.1076,-86.6876 2463.2674,-86.3394 2466.4556,-85.9623"/>
<polygon fill="#191970" stroke="#191970" points="1564.6803,-119.5168 1555.1319,-124.1078 1565.4592,-126.4734 1564.6803,-119.5168"/>
</g>
<!-- Node65&#45;&gt;Node15 -->
<g id="edge45" class="edge">
<title>Node65&#45;&gt;Node15</title>
<path fill="none" stroke="#191970" d="M2253.765,-124.4324C2276.4729,-113.3271 2308.0853,-97.867 2331.2839,-86.5218"/>
<polygon fill="#191970" stroke="#191970" points="2252.0744,-121.3631 2244.6288,-128.9005 2255.1497,-127.6513 2252.0744,-121.3631"/>
</g>
<!-- Node65&#45;&gt;Node16 -->
<g id="edge46" class="edge">
<title>Node65&#45;&gt;Node16</title>
<path fill="none" stroke="#191970" d="M2279.9453,-126.7723C2286.0353,-125.4907 2292.1482,-124.2121 2298,-123 2358.3683,-110.4953 2426.8574,-96.684 2477.6441,-86.5146"/>
<polygon fill="#191970" stroke="#191970" points="2278.8294,-123.4307 2269.7681,-128.921 2280.2755,-130.2797 2278.8294,-123.4307"/>
</g>
<!-- Node159&#45;&gt;Node15 -->
<g id="edge48" class="edge">
<title>Node159&#45;&gt;Node15</title>
<path fill="none" stroke="#191970" d="M2374.5702,-113.6103C2371.8672,-104.5553 2368.8955,-94.5998 2366.5203,-86.6432"/>
<polygon fill="#191970" stroke="#191970" points="2371.2475,-114.7156 2377.4617,-123.2967 2377.955,-112.7133 2371.2475,-114.7156"/>
</g>
<!-- Node159&#45;&gt;Node16 -->
<g id="edge49" class="edge">
<title>Node159&#45;&gt;Node16</title>
<path fill="none" stroke="#191970" d="M2429.912,-119.7275C2456.616,-109.2645 2489.4277,-96.4084 2514.4569,-86.6017"/>
<polygon fill="#191970" stroke="#191970" points="2428.4097,-116.5569 2420.3757,-123.4639 2430.9634,-123.0745 2428.4097,-116.5569"/>
</g>
<!-- Node160&#45;&gt;Node15 -->
<g id="edge51" class="edge">
<title>Node160&#45;&gt;Node15</title>
<path fill="none" stroke="#191970" d="M2500.6581,-120.1392C2470.6229,-109.6033 2433.3755,-96.5375 2405.0511,-86.6017"/>
<polygon fill="#191970" stroke="#191970" points="2499.541,-123.4564 2510.1359,-123.4639 2501.8582,-116.851 2499.541,-123.4564"/>
</g>
<!-- Node160&#45;&gt;Node16 -->
<g id="edge52" class="edge">
<title>Node160&#45;&gt;Node16</title>
<path fill="none" stroke="#191970" d="M2553,-113.0249C2553,-104.128 2553,-94.4287 2553,-86.6432"/>
<polygon fill="#191970" stroke="#191970" points="2549.5001,-113.2966 2553,-123.2967 2556.5001,-113.2967 2549.5001,-113.2966"/>
</g>
<!-- Node161&#45;&gt;Node15 -->
<g id="edge54" class="edge">
<title>Node161&#45;&gt;Node15</title>
<path fill="none" stroke="#191970" d="M2671.8882,-127.1636C2609.706,-115.9941 2514.3295,-98.8621 2445.8156,-86.5553"/>
<polygon fill="#191970" stroke="#191970" points="2671.493,-130.6485 2681.9543,-128.9717 2672.7307,-123.7588 2671.493,-130.6485"/>
</g>
<!-- Node161&#45;&gt;Node16 -->
<g id="edge55" class="edge">
<title>Node161&#45;&gt;Node16</title>
<path fill="none" stroke="#191970" d="M2699.1848,-125.3153C2668.8778,-114.1583 2625.4493,-98.1709 2593.8054,-86.5218"/>
<polygon fill="#191970" stroke="#191970" points="2698.3304,-128.7303 2708.9238,-128.9005 2700.7487,-122.1613 2698.3304,-128.7303"/>
</g>
<!-- Node162&#45;&gt;Node15 -->
<g id="edge57" class="edge">
<title>Node162&#45;&gt;Node15</title>
<path fill="none" stroke="#191970" d="M2827.9315,-122.927C2662.7895,-100.2276 2618.5061,-107.9676 2457,-87 2454.2656,-86.645 2451.489,-86.2714 2448.6871,-85.883"/>
<polygon fill="#191970" stroke="#191970" points="2827.5594,-126.4089 2837.9463,-124.3203 2828.524,-119.4757 2827.5594,-126.4089"/>
</g>
<!-- Node162&#45;&gt;Node16 -->
<g id="edge58" class="edge">
<title>Node162&#45;&gt;Node16</title>
<path fill="none" stroke="#191970" d="M2827.9784,-122.6765C2769.2696,-111.7502 2691.6695,-97.3079 2633.8782,-86.5523"/>
<polygon fill="#191970" stroke="#191970" points="2827.4988,-126.1473 2837.9704,-124.5362 2828.7796,-119.2655 2827.4988,-126.1473"/>
</g>
<!-- Node167&#45;&gt;Node15 -->
<g id="edge60" class="edge">
<title>Node167&#45;&gt;Node15</title>
<path fill="none" stroke="#191970" d="M3027.2179,-127.3098C3017.1563,-125.6836 3006.8005,-124.1674 2997,-123 2758.1558,-94.5495 2695.9673,-114.3973 2457,-87 2454.2606,-86.6859 2451.4797,-86.348 2448.674,-85.9905"/>
<polygon fill="#191970" stroke="#191970" points="3026.7108,-130.7735 3037.1499,-128.964 3027.8608,-123.8686 3026.7108,-130.7735"/>
</g>
<!-- Node167&#45;&gt;Node16 -->
<g id="edge61" class="edge">
<title>Node167&#45;&gt;Node16</title>
<path fill="none" stroke="#191970" d="M3024.751,-127.3207C3015.4617,-125.7856 3005.9892,-124.2944 2997,-123 2873.1472,-105.1658 2729.1619,-89.3658 2639.5451,-80.1131"/>
<polygon fill="#191970" stroke="#191970" points="3024.2859,-130.7915 3034.7275,-128.9964 3025.4455,-123.8882 3024.2859,-130.7915"/>
</g>
<!-- Node169&#45;&gt;Node15 -->
<g id="edge63" class="edge">
<title>Node169&#45;&gt;Node15</title>
<path fill="none" stroke="#191970" d="M3176.1973,-123.0341C2857.2878,-84.4259 2772.3397,-120.5025 2457,-87 2454.2581,-86.7087 2451.475,-86.3905 2448.6674,-86.0502"/>
<polygon fill="#191970" stroke="#191970" points="3175.8334,-126.5156 3186.1849,-124.2583 3176.6851,-119.5676 3175.8334,-126.5156"/>
</g>
<!-- Node169&#45;&gt;Node16 -->
<g id="edge64" class="edge">
<title>Node169&#45;&gt;Node16</title>
<path fill="none" stroke="#191970" d="M3176.1883,-122.9911C2978.7255,-95.7802 2758.4604,-81.7524 2639.6481,-75.5296"/>
<polygon fill="#191970" stroke="#191970" points="3175.7817,-126.4682 3186.1688,-124.3805 3176.747,-119.535 3175.7817,-126.4682"/>
</g>
<!-- Node185&#45;&gt;Node15 -->
<g id="edge66" class="edge">
<title>Node185&#45;&gt;Node15</title>
<path fill="none" stroke="#191970" d="M3355.9428,-126.8886C3348.3129,-125.3506 3340.4665,-123.9723 3333,-123 2946.6005,-72.6825 2844.6603,-126.4451 2457,-87 2454.2568,-86.7209 2451.4726,-86.4133 2448.6641,-86.0822"/>
<polygon fill="#191970" stroke="#191970" points="3355.2892,-130.3278 3365.7982,-128.982 3356.7437,-123.4806 3355.2892,-130.3278"/>
</g>
<!-- Node185&#45;&gt;Node16 -->
<g id="edge67" class="edge">
<title>Node185&#45;&gt;Node16</title>
<path fill="none" stroke="#191970" d="M3355.1428,-126.8925C3347.7615,-125.3956 3340.2007,-124.0288 3333,-123 3082.9465,-87.2719 2784.186,-76.273 2639.7224,-72.9306"/>
<polygon fill="#191970" stroke="#191970" points="3354.5374,-130.3419 3365.0463,-128.9948 3355.991,-123.4945 3354.5374,-130.3419"/>
</g>
<!-- Node204&#45;&gt;Node15 -->
<g id="edge69" class="edge">
<title>Node204&#45;&gt;Node15</title>
<path fill="none" stroke="#191970" d="M3472.2482,-122.91C3022.5616,-75.5908 2903.7917,-131.1781 2457,-87 2454.256,-86.7287 2451.4711,-86.4279 2448.662,-86.1027"/>
<polygon fill="#191970" stroke="#191970" points="3471.9421,-126.3971 3482.2562,-123.9743 3472.6824,-119.4363 3471.9421,-126.3971"/>
</g>
<!-- Node204&#45;&gt;Node16 -->
<g id="edge70" class="edge">
<title>Node204&#45;&gt;Node16</title>
<path fill="none" stroke="#191970" d="M3472.1235,-122.864C3160.7992,-86.8442 2801.4929,-76.0361 2639.6486,-72.8118"/>
<polygon fill="#191970" stroke="#191970" points="3471.9096,-126.3627 3482.2481,-124.0463 3472.7216,-119.4099 3471.9096,-126.3627"/>
</g>
<!-- Node241&#45;&gt;Node15 -->
<g id="edge72" class="edge">
<title>Node241&#45;&gt;Node15</title>
<path fill="none" stroke="#191970" d="M3675.3194,-127.1084C3665.9186,-125.4703 3656.2021,-124.0027 3647,-123 3120.9824,-65.6853 2983.6951,-137.7122 2457,-87 2454.2554,-86.7357 2451.4699,-86.4411 2448.6602,-86.1212"/>
<polygon fill="#191970" stroke="#191970" points="3674.8915,-130.588 3685.3572,-128.9388 3676.1473,-123.7015 3674.8915,-130.588"/>
</g>
<!-- Node241&#45;&gt;Node16 -->
<g id="edge73" class="edge">
<title>Node241&#45;&gt;Node16</title>
<path fill="none" stroke="#191970" d="M3674.9804,-127.1819C3665.6823,-125.5517 3656.0877,-124.0675 3647,-123 3452.4922,-100.1519 2862.6314,-80.7276 2639.6368,-74.0115"/>
<polygon fill="#191970" stroke="#191970" points="3674.4496,-130.6428 3684.9156,-128.9955 3675.7067,-123.7566 3674.4496,-130.6428"/>
</g>
<!-- Node294&#45;&gt;Node15 -->
<g id="edge75" class="edge">
<title>Node294&#45;&gt;Node15</title>
<path fill="none" stroke="#191970" d="M3810.0048,-123.0378C3210.9686,-57.0718 3052.9586,-143.2802 2457,-87 2454.2549,-86.7408 2451.469,-86.4505 2448.6589,-86.1344"/>
<polygon fill="#191970" stroke="#191970" points="3809.87,-126.5442 3820.1954,-124.1699 3810.643,-119.5871 3809.87,-126.5442"/>
</g>
<!-- Node294&#45;&gt;Node16 -->
<g id="edge76" class="edge">
<title>Node294&#45;&gt;Node16</title>
<path fill="none" stroke="#191970" d="M3810.2305,-123.0695C3564.6441,-95.4524 2882.5431,-78.5994 2639.9343,-73.3"/>
<polygon fill="#191970" stroke="#191970" points="3809.8525,-126.549 3820.1891,-124.2241 3810.6588,-119.5956 3809.8525,-126.549"/>
</g>
<!-- Node299&#45;&gt;Node15 -->
<g id="edge78" class="edge">
<title>Node299&#45;&gt;Node15</title>
<path fill="none" stroke="#191970" d="M2130.8836,-126.606C2177.7553,-115.4302 2248.0938,-98.6591 2298.8574,-86.5553"/>
<polygon fill="#191970" stroke="#191970" points="2129.8776,-123.2477 2120.962,-128.9717 2131.5011,-130.0568 2129.8776,-123.2477"/>
</g>
<!-- Node299&#45;&gt;Node16 -->
<g id="edge79" class="edge">
<title>Node299&#45;&gt;Node16</title>
<path fill="none" stroke="#191970" d="M2130.6861,-126.8517C2137.4909,-125.4458 2144.4033,-124.1155 2151,-123 2286.0212,-100.1686 2321.3751,-105.9179 2457,-87 2460.0933,-86.5685 2463.2409,-86.1185 2466.4187,-85.6548"/>
<polygon fill="#191970" stroke="#191970" points="2129.8935,-123.4419 2120.8426,-128.9491 2131.3524,-130.2882 2129.8935,-123.4419"/>
</g>
<!-- Node308&#45;&gt;Node4 -->
<g id="edge81" class="edge">
<title>Node308&#45;&gt;Node4</title>
<path fill="none" stroke="#191970" d="M639.6282,-191.1552C597.4364,-182.7147 554.6392,-170.4323 542,-154 517.7253,-122.4405 570.8541,-60.2085 577,-56 607.4723,-35.1336 854.4487,-18.0945 950.2322,-12.2094"/>
<polygon fill="#191970" stroke="#191970" points="638.9793,-194.5945 649.4621,-193.0578 640.309,-187.7219 638.9793,-194.5945"/>
</g>
<!-- Node309&#45;&gt;Node4 -->
<g id="edge83" class="edge">
<title>Node309&#45;&gt;Node4</title>
<path fill="none" stroke="#191970" d="M511.8973,-180.2588C510.6124,-146.3049 514.0855,-86.6509 550,-56 580.2063,-30.2207 849.8401,-15.9882 950.4064,-11.539"/>
<polygon fill="#191970" stroke="#191970" points="508.4061,-180.5163 512.4466,-190.3104 515.3956,-180.1343 508.4061,-180.5163"/>
</g>
<!-- Node325&#45;&gt;Node326 -->
<g id="edge87" class="edge">
<title>Node325&#45;&gt;Node326</title>
<path fill="none" stroke="#191970" d="M202.3883,-192.2487C168.3706,-179.2247 117.284,-159.6659 87.0267,-148.0817"/>
<polygon fill="#191970" stroke="#191970" points="201.3364,-195.5936 211.9268,-195.9005 203.8393,-189.0564 201.3364,-195.5936"/>
</g>
<!-- Node325&#45;&gt;Node327 -->
<g id="edge89" class="edge">
<title>Node325&#45;&gt;Node327</title>
<path fill="none" stroke="#191970" d="M229.5736,-186.3628C224.7157,-173.8444 218.5769,-158.0252 214.7183,-148.0817"/>
<polygon fill="#191970" stroke="#191970" points="226.3941,-187.8441 233.2748,-195.9005 232.92,-185.3116 226.3941,-187.8441"/>
</g>
<!-- Node325&#45;&gt;Node328 -->
<g id="edge91" class="edge">
<title>Node325&#45;&gt;Node328</title>
<path fill="none" stroke="#191970" d="M264.1605,-191.0575C288.6098,-178.0567 323.85,-159.3179 344.9808,-148.0817"/>
<polygon fill="#191970" stroke="#191970" points="262.2388,-188.1152 255.0527,-195.9005 265.5253,-194.2958 262.2388,-188.1152"/>
</g>
<!-- Node326&#45;&gt;Node4 -->
<g id="edge88" class="edge">
<title>Node326&#45;&gt;Node4</title>
<path fill="none" stroke="#191970" d="M93.7591,-125.0901C140.4237,-106.0566 230.6903,-71.7696 311,-56 434.9791,-31.6556 826.4914,-15.8123 950.169,-11.3154"/>
<polygon fill="#191970" stroke="#191970" points="92.3978,-121.8655 84.4824,-128.908 95.062,-128.3387 92.3978,-121.8655"/>
</g>
<!-- Node327&#45;&gt;Node4 -->
<g id="edge90" class="edge">
<title>Node327&#45;&gt;Node4</title>
<path fill="none" stroke="#191970" d="M237.0789,-123.6715C272.486,-104.3432 338.3252,-71.2173 399,-56 504.2076,-29.6137 837.6039,-15.4289 950.3322,-11.2947"/>
<polygon fill="#191970" stroke="#191970" points="234.9866,-120.829 227.9289,-128.7309 238.3738,-126.9549 234.9866,-120.829"/>
</g>
<!-- Node328&#45;&gt;Node4 -->
<g id="edge92" class="edge">
<title>Node328&#45;&gt;Node4</title>
<path fill="none" stroke="#191970" d="M374.2636,-120.5574C387.7162,-100.8894 412.1852,-70.2392 442,-56 487.6563,-34.1951 834.5228,-16.8623 950.4225,-11.6281"/>
<polygon fill="#191970" stroke="#191970" points="371.3023,-118.6906 368.7236,-128.9668 377.1478,-122.5416 371.3023,-118.6906"/>
</g>
<!-- Node329&#45;&gt;Node4 -->
<g id="edge94" class="edge">
<title>Node329&#45;&gt;Node4</title>
<path fill="none" stroke="#191970" d="M850.3036,-193.7571C843.8281,-192.3975 837.2686,-191.1046 831,-190 769.2174,-179.1133 592.4351,-201.1035 551,-154 541.9,-143.6551 544.4037,-135.0961 551,-123 577.3241,-74.7273 603.4407,-75.1009 655,-56 708.5638,-36.1565 874.9135,-19.764 950.2479,-13.1471"/>
<polygon fill="#191970" stroke="#191970" points="849.8424,-197.2382 860.3563,-195.9311 851.322,-190.3964 849.8424,-197.2382"/>
</g>
<!-- Node330&#45;&gt;Node4 -->
<g id="edge96" class="edge">
<title>Node330&#45;&gt;Node4</title>
<path fill="none" stroke="#191970" d="M1102.5136,-194.1525C1094.3062,-192.6605 1085.9473,-191.2263 1078,-190 1010.3318,-179.5589 817.4986,-205.1652 772,-154 743.0567,-121.452 744.5962,-89.8544 772,-56 794.0122,-28.8064 894.4138,-17.0071 950.2518,-12.4734"/>
<polygon fill="#191970" stroke="#191970" points="1101.9408,-197.6058 1112.4118,-195.9908 1103.2191,-190.7235 1101.9408,-197.6058"/>
</g>
<!-- Node331&#45;&gt;Node4 -->
<g id="edge98" class="edge">
<title>Node331&#45;&gt;Node4</title>
<path fill="none" stroke="#191970" d="M1252.1421,-193.628C1246.0725,-192.2672 1239.9035,-191.0088 1234,-190 1152.7879,-176.1223 938.4983,-191.229 865,-154 829.3408,-135.9376 819.2745,-124.3372 805,-87 800.0799,-74.1307 796.528,-66.8652 805,-56 822.6762,-33.3307 902.122,-20.1243 950.3381,-14.0603"/>
<polygon fill="#191970" stroke="#191970" points="1251.6631,-197.1107 1262.1983,-195.9889 1253.263,-190.2959 1251.6631,-197.1107"/>
</g>
<!-- Node332&#45;&gt;Node4 -->
<g id="edge100" class="edge">
<title>Node332&#45;&gt;Node4</title>
<path fill="none" stroke="#191970" d="M2910.6765,-192.7696C2914.4504,-191.665 2918.2794,-190.7023 2922,-190 2979.0819,-179.2251 3926.6375,-195.777 3967,-154 3976.5732,-144.0913 3976.4918,-132.9866 3967,-123 3913.7808,-67.0067 1367.4379,-17.1454 1025.7617,-10.7025"/>
<polygon fill="#191970" stroke="#191970" points="2909.3535,-189.5194 2900.9284,-195.9434 2911.5207,-196.1755 2909.3535,-189.5194"/>
</g>
<!-- Node333&#45;&gt;Node324 -->
<g id="edge103" class="edge">
<title>Node333&#45;&gt;Node324</title>
<path fill="none" stroke="#191970" d="M1138.4581,-307.49C1123.461,-297.6096 1104.5027,-285.1194 1091.6362,-276.6427"/>
<polygon fill="#191970" stroke="#191970" points="1136.9179,-310.6666 1147.1941,-313.2455 1140.7691,-304.8212 1136.9179,-310.6666"/>
</g>
<!-- Node334&#45;&gt;Node12 -->
<g id="edge113" class="edge">
<title>Node334&#45;&gt;Node12</title>
<path fill="none" stroke="#191970" d="M2634.8442,-203.5579C2297.0382,-196.8508 1211.983,-173.9785 1056,-154 1045.431,-152.6463 1034.093,-150.3917 1023.7636,-148.0156"/>
<polygon fill="#191970" stroke="#191970" points="2634.7926,-207.0574 2644.86,-203.7563 2634.9313,-200.0588 2634.7926,-207.0574"/>
</g>
<!-- Node334&#45;&gt;Node65 -->
<g id="edge114" class="edge">
<title>Node334&#45;&gt;Node65</title>
<path fill="none" stroke="#191970" d="M2634.621,-196.3172C2545.8089,-187.5633 2412.8578,-172.9206 2298,-154 2287.7729,-152.3153 2276.8089,-150.1698 2266.5672,-148.0162"/>
<polygon fill="#191970" stroke="#191970" points="2634.3956,-199.8118 2644.6891,-197.303 2635.0778,-192.8451 2634.3956,-199.8118"/>
</g>
<!-- Node334&#45;&gt;Node159 -->
<g id="edge115" class="edge">
<title>Node334&#45;&gt;Node159</title>
<path fill="none" stroke="#191970" d="M2674.674,-194.05C2614.3876,-182.6076 2521.5688,-164.9904 2456.6692,-152.6723"/>
<polygon fill="#191970" stroke="#191970" points="2674.3213,-197.5455 2684.7986,-195.9717 2675.6267,-190.6683 2674.3213,-197.5455"/>
</g>
<!-- Node334&#45;&gt;Node160 -->
<g id="edge116" class="edge">
<title>Node334&#45;&gt;Node160</title>
<path fill="none" stroke="#191970" d="M2699.1848,-192.3153C2668.8778,-181.1583 2625.4493,-165.1709 2593.8054,-153.5218"/>
<polygon fill="#191970" stroke="#191970" points="2698.3304,-195.7303 2708.9238,-195.9005 2700.7487,-189.1613 2698.3304,-195.7303"/>
</g>
<!-- Node334&#45;&gt;Node161 -->
<g id="edge117" class="edge">
<title>Node334&#45;&gt;Node161</title>
<path fill="none" stroke="#191970" d="M2735,-185.6079C2735,-173.214 2735,-157.8263 2735,-148.0817"/>
<polygon fill="#191970" stroke="#191970" points="2731.5001,-185.9005 2735,-195.9005 2738.5001,-185.9006 2731.5001,-185.9005"/>
</g>
<!-- Node334&#45;&gt;Node162 -->
<g id="edge118" class="edge">
<title>Node334&#45;&gt;Node162</title>
<path fill="none" stroke="#191970" d="M2770.028,-192.3153C2799.669,-181.1583 2842.1429,-165.1709 2873.0914,-153.5218"/>
<polygon fill="#191970" stroke="#191970" points="2768.629,-189.1021 2760.5031,-195.9005 2771.095,-195.6534 2768.629,-189.1021"/>
</g>
<!-- Node334&#45;&gt;Node167 -->
<g id="edge119" class="edge">
<title>Node334&#45;&gt;Node167</title>
<path fill="none" stroke="#191970" d="M2795.2129,-194.039C2863.3582,-181.0682 2973.1349,-160.1732 3036.8288,-148.0496"/>
<polygon fill="#191970" stroke="#191970" points="2794.2284,-190.6635 2785.0592,-195.9717 2795.5373,-197.54 2794.2284,-190.6635"/>
</g>
<!-- Node334&#45;&gt;Node169 -->
<g id="edge120" class="edge">
<title>Node334&#45;&gt;Node169</title>
<path fill="none" stroke="#191970" d="M2803.3984,-194.4435C2813.9678,-192.8666 2824.7681,-191.3307 2835,-190 2986.5634,-170.2888 3025.8883,-176.9186 3177,-154 3180.0031,-153.5445 3183.066,-153.0529 3186.1564,-152.5346"/>
<polygon fill="#191970" stroke="#191970" points="2802.7252,-191.0055 2793.3617,-195.9627 2803.7729,-197.9266 2802.7252,-191.0055"/>
</g>
<!-- Node334&#45;&gt;Node185 -->
<g id="edge121" class="edge">
<title>Node334&#45;&gt;Node185</title>
<path fill="none" stroke="#191970" d="M2801.3838,-194.434C2812.5838,-192.79 2824.1075,-191.2358 2835,-190 3055.4964,-164.984 3113.4191,-186.0728 3333,-154 3343.3458,-152.4889 3354.4388,-150.3006 3364.6748,-148.0422"/>
<polygon fill="#191970" stroke="#191970" points="2800.585,-191.0147 2791.2165,-195.9625 2801.6257,-197.9369 2800.585,-191.0147"/>
</g>
<!-- Node334&#45;&gt;Node204 -->
<g id="edge122" class="edge">
<title>Node334&#45;&gt;Node204</title>
<path fill="none" stroke="#191970" d="M2800.1928,-194.4567C2811.7618,-192.7652 2823.7165,-191.1895 2835,-190 3117.8829,-160.1798 3191.5043,-187.2891 3474,-154 3476.712,-153.6804 3479.4679,-153.3291 3482.2479,-152.9522"/>
<polygon fill="#191970" stroke="#191970" points="2799.5204,-191.0184 2790.1518,-195.9661 2800.5611,-197.9406 2799.5204,-191.0184"/>
</g>
<!-- Node334&#45;&gt;Node241 -->
<g id="edge123" class="edge">
<title>Node334&#45;&gt;Node241</title>
<path fill="none" stroke="#191970" d="M2799.558,-194.434C2811.3216,-192.7197 2823.5067,-191.142 2835,-190 3194.4731,-154.2805 3288.1661,-195.6535 3647,-154 3659.3768,-152.5633 3672.6919,-150.3427 3684.9182,-148.0269"/>
<polygon fill="#191970" stroke="#191970" points="2798.725,-191.0198 2789.3567,-195.9681 2799.7661,-197.942 2798.725,-191.0198"/>
</g>
<!-- Node334&#45;&gt;Node294 -->
<g id="edge124" class="edge">
<title>Node334&#45;&gt;Node294</title>
<path fill="none" stroke="#191970" d="M2798.7758,-194.476C2810.7792,-192.7249 2823.2498,-191.1235 2835,-190 3267.1022,-148.6858 3379.8704,-204.4619 3811,-154 3814.0168,-153.6469 3817.0912,-153.24 3820.1909,-152.7912"/>
<polygon fill="#191970" stroke="#191970" points="2798.1957,-191.0238 2788.8289,-195.9749 2799.2388,-197.9456 2798.1957,-191.0238"/>
</g>
<!-- Node334&#45;&gt;Node299 -->
<g id="edge125" class="edge">
<title>Node334&#45;&gt;Node299</title>
<path fill="none" stroke="#191970" d="M2634.7781,-200.6306C2518.0704,-194.0439 2319.7332,-180.0083 2151,-154 2140.7895,-152.4262 2129.8416,-150.2435 2119.7078,-148.0123"/>
<polygon fill="#191970" stroke="#191970" points="2634.5926,-204.1256 2644.7719,-201.1877 2634.9822,-197.1365 2634.5926,-204.1256"/>
</g>
<!-- Node335&#45;&gt;Node7 -->
<g id="edge130" class="edge">
<title>Node335&#45;&gt;Node7</title>
<path fill="none" stroke="#191970" d="M583.0899,-249.5459C589.8276,-241.3993 597.1946,-231.2502 602,-221 613.6045,-196.2472 618.3762,-163.9121 620.118,-148.0796"/>
<polygon fill="#191970" stroke="#191970" points="580.3341,-247.3816 576.4301,-257.2309 585.6242,-251.9659 580.3341,-247.3816"/>
</g>
<!-- Node335&#45;&gt;Node323 -->
<g id="edge136" class="edge">
<title>Node335&#45;&gt;Node323</title>
<path fill="none" stroke="#191970" d="M656.5316,-264.8868C746.2022,-262.7931 888.1563,-259.5404 1011,-257 1435.6512,-248.2181 2499.0539,-260.0179 2922,-221 2936.3434,-219.6768 2951.815,-217.4317 2965.9442,-215.055"/>
<polygon fill="#191970" stroke="#191970" points="656.3165,-261.3907 646.4011,-265.1236 656.4801,-268.3888 656.3165,-261.3907"/>
</g>
<!-- Node335&#45;&gt;Node11 -->
<g id="edge127" class="edge">
<title>Node335&#45;&gt;Node11</title>
<path fill="none" stroke="#191970" d="M656.3582,-263.0003C920.1867,-251.1914 1689.8978,-216.7393 1891.9548,-207.6953"/>
<polygon fill="#191970" stroke="#191970" points="655.8911,-259.5177 646.0576,-263.4614 656.2041,-266.5107 655.8911,-259.5177"/>
</g>
<!-- Node335&#45;&gt;Node308 -->
<g id="edge128" class="edge">
<title>Node335&#45;&gt;Node308</title>
<path fill="none" stroke="#191970" d="M602.8212,-253.9645C629.6941,-244.1853 666.5351,-230.7786 694.6579,-220.5446"/>
<polygon fill="#191970" stroke="#191970" points="601.6065,-250.6819 593.4063,-257.3906 604.0003,-257.2599 601.6065,-250.6819"/>
</g>
<!-- Node335&#45;&gt;Node309 -->
<g id="edge129" class="edge">
<title>Node335&#45;&gt;Node309</title>
<path fill="none" stroke="#191970" d="M552.0491,-249.6514C544.1493,-240.4845 534.547,-229.3423 526.9653,-220.5446"/>
<polygon fill="#191970" stroke="#191970" points="549.5392,-252.1003 558.7188,-257.3906 554.8418,-247.5306 549.5392,-252.1003"/>
</g>
<!-- Node335&#45;&gt;Node326 -->
<g id="edge131" class="edge">
<title>Node335&#45;&gt;Node326</title>
<path fill="none" stroke="#191970" d="M477.4442,-262.7631C375.8147,-256.9205 217.025,-244.3582 162,-221 122.2226,-204.1145 85.8613,-166.151 70.1667,-148.2246"/>
<polygon fill="#191970" stroke="#191970" points="477.5252,-266.2731 487.7064,-263.3415 477.9192,-259.2842 477.5252,-266.2731"/>
</g>
<!-- Node335&#45;&gt;Node327 -->
<g id="edge133" class="edge">
<title>Node335&#45;&gt;Node327</title>
<path fill="none" stroke="#191970" d="M512.1456,-255.1229C477.2856,-246.9544 431.456,-235.0617 392,-221 330.6814,-199.1467 261.5296,-164.746 229.3259,-148.1244"/>
<polygon fill="#191970" stroke="#191970" points="511.6002,-258.589 522.1316,-257.4315 513.1769,-251.7689 511.6002,-258.589"/>
</g>
<!-- Node335&#45;&gt;Node328 -->
<g id="edge135" class="edge">
<title>Node335&#45;&gt;Node328</title>
<path fill="none" stroke="#191970" d="M503.2688,-254.8997C477.6315,-247.9067 448.8046,-237.177 426,-221 398.0723,-201.1888 376.8967,-165.3404 367.8343,-148.1728"/>
<polygon fill="#191970" stroke="#191970" points="502.7304,-258.3755 513.2882,-257.491 504.4831,-251.5985 502.7304,-258.3755"/>
</g>
<!-- Node335&#45;&gt;Node329 -->
<g id="edge132" class="edge">
<title>Node335&#45;&gt;Node329</title>
<path fill="none" stroke="#191970" d="M636.4228,-255.8475C689.7639,-247.0503 765.204,-234.1144 831,-221 840.151,-219.176 849.95,-217.069 859.2055,-215.0076"/>
<polygon fill="#191970" stroke="#191970" points="635.6933,-252.4204 626.3933,-257.4958 636.8286,-259.3277 635.6933,-252.4204"/>
</g>
<!-- Node335&#45;&gt;Node330 -->
<g id="edge134" class="edge">
<title>Node335&#45;&gt;Node330</title>
<path fill="none" stroke="#191970" d="M656.4482,-257.7077C776.0311,-245.2848 985.2963,-223.5452 1092.1254,-212.4473"/>
<polygon fill="#191970" stroke="#191970" points="655.8103,-254.255 646.2255,-258.7697 656.5336,-261.2175 655.8103,-254.255"/>
</g>
<!-- Node336&#45;&gt;Node325 -->
<g id="edge147" class="edge">
<title>Node336&#45;&gt;Node325</title>
<path fill="none" stroke="#191970" d="M777.7412,-492.3698C603.9407,-480.5028 143,-442.9975 143,-379 143,-379 143,-379 143,-323 143,-273.3647 194.7792,-232.6828 221.4778,-215.0054"/>
<polygon fill="#191970" stroke="#191970" points="777.5666,-495.8659 787.7799,-493.0485 778.0388,-488.8818 777.5666,-495.8659"/>
</g>
<!-- Node336&#45;&gt;Node335 -->
<g id="edge146" class="edge">
<title>Node336&#45;&gt;Node335</title>
<path fill="none" stroke="#191970" d="M777.6246,-490.7644C686.8576,-482.1304 531.8423,-464.6931 515,-445 476.8692,-400.415 490.9028,-366.4893 515,-313 522.1292,-297.1752 537.6911,-284.5986 549.9433,-276.623"/>
<polygon fill="#191970" stroke="#191970" points="777.5374,-494.2716 787.8211,-491.7231 778.1927,-487.3023 777.5374,-494.2716"/>
</g>
<!-- Node337 -->
<g id="node49" class="node">
<title>Node337</title>
<g id="a_node49"><a xlink:href="sitkPixelIDTokens_8h.html" target="_top" xlink:title=" ">
<polygon fill="#ffffff" stroke="#000000" points="1191,-425.5 1191,-444.5 1303,-444.5 1303,-425.5 1191,-425.5"/>
<text text-anchor="middle" x="1247" y="-432.5" font-family="Helvetica,sans-Serif" font-size="10.00" fill="#000000">sitkPixelIDTokens.h</text>
</a>
</g>
</g>
<!-- Node336&#45;&gt;Node337 -->
<g id="edge141" class="edge">
<title>Node336&#45;&gt;Node337</title>
<path fill="none" stroke="#191970" d="M908.5611,-486.5198C986.9197,-474.5914 1116.7114,-454.8335 1190.7185,-443.5676"/>
<polygon fill="#191970" stroke="#191970" points="907.6867,-483.1125 898.3274,-488.0776 908.7402,-490.0328 907.6867,-483.1125"/>
</g>
<!-- Node337&#45;&gt;Node5 -->
<g id="edge143" class="edge">
<title>Node337&#45;&gt;Node5</title>
<path fill="none" stroke="#191970" d="M1247,-415.1575C1247,-406.155 1247,-395.9199 1247,-388.6427"/>
<polygon fill="#191970" stroke="#191970" points="1243.5001,-415.2455 1247,-425.2455 1250.5001,-415.2456 1243.5001,-415.2455"/>
</g>
<!-- Node337&#45;&gt;Node323 -->
<g id="edge145" class="edge">
<title>Node337&#45;&gt;Node323</title>
<path fill="none" stroke="#191970" d="M1313.1496,-427.4665C1538.5928,-401.5962 2297.5012,-312.9009 2922,-221 2934.3075,-219.1888 2947.504,-217.087 2959.9769,-215.0266"/>
<polygon fill="#191970" stroke="#191970" points="1312.6715,-423.9983 1303.1353,-428.6146 1313.4689,-430.9528 1312.6715,-423.9983"/>
</g>
<!-- Node337&#45;&gt;Node12 -->
<g id="edge142" class="edge">
<title>Node337&#45;&gt;Node12</title>
<path fill="none" stroke="#191970" d="M1284.8425,-421.5467C1323.8473,-404.968 1379,-372.7328 1379,-323 1379,-323 1379,-323 1379,-267 1379,-231.6422 1385.6412,-213.2469 1359,-190 1307.9092,-145.4186 1122.8158,-165.5509 1056,-154 1046.4549,-152.3499 1036.2349,-150.2174 1026.6939,-148.0652"/>
<polygon fill="#191970" stroke="#191970" points="1283.2589,-418.4124 1275.3173,-425.4254 1285.8989,-424.8955 1283.2589,-418.4124"/>
</g>
<!-- Node338 -->
<g id="node50" class="node">
<title>Node338</title>
<g id="a_node50"><a xlink:href="sitkPimpleImageBase_8h.html" target="_top" xlink:title=" ">
<polygon fill="#ffffff" stroke="#000000" points="557,-369.5 557,-388.5 689,-388.5 689,-369.5 557,-369.5"/>
<text text-anchor="middle" x="623" y="-376.5" font-family="Helvetica,sans-Serif" font-size="10.00" fill="#000000">sitkPimpleImageBase.h</text>
</a>
</g>
</g>
<!-- Node337&#45;&gt;Node338 -->
<g id="edge144" class="edge">
<title>Node337&#45;&gt;Node338</title>
<path fill="none" stroke="#191970" d="M1180.7357,-430.2555C1078.2157,-422.7214 875.0191,-407.0168 703,-389 698.5453,-388.5334 693.9543,-388.0273 689.3307,-387.4987"/>
<polygon fill="#191970" stroke="#191970" points="1180.7078,-433.7628 1190.9367,-431.0026 1181.2191,-426.7815 1180.7078,-433.7628"/>
</g>
</g>
</svg>
