<?xml version="1.0" encoding="UTF-8" standalone="no"?>
<!DOCTYPE svg PUBLIC "-//W3C//DTD SVG 1.1//EN"
 "http://www.w3.org/Graphics/SVG/1.1/DTD/svg11.dtd">
<!-- Generated by graphviz version 2.40.1 (20161225.0304)
 -->
<!-- Title: sitkScaleSkewVersor3DTransform.h Pages: 1 -->
<svg width="1431pt" height="487pt"
 viewBox="0.00 0.00 1430.50 487.00" xmlns="http://www.w3.org/2000/svg" xmlns:xlink="http://www.w3.org/1999/xlink">
<g id="graph0" class="graph" transform="scale(1 1) rotate(0) translate(4 483)">
<title>sitkScaleSkewVersor3DTransform.h</title>
<polygon fill="#ffffff" stroke="transparent" points="-4,4 -4,-483 1426.5,-483 1426.5,4 -4,4"/>
<!-- Node1 -->
<g id="node1" class="node">
<title>Node1</title>
<g id="a_node1"><a xlink:title=" ">
<polygon fill="#bfbfbf" stroke="#000000" points="0,-459.5 0,-478.5 189,-478.5 189,-459.5 0,-459.5"/>
<text text-anchor="middle" x="94.5" y="-466.5" font-family="Helvetica,sans-Serif" font-size="10.00" fill="#000000">sitkScaleSkewVersor3DTransform.h</text>
</a>
</g>
</g>
<!-- Node2 -->
<g id="node2" class="node">
<title>Node2</title>
<g id="a_node2"><a xlink:href="sitkCommon_8h.html" target="_top" xlink:title=" ">
<polygon fill="#ffffff" stroke="#000000" points="340.5,-112.5 340.5,-131.5 428.5,-131.5 428.5,-112.5 340.5,-112.5"/>
<text text-anchor="middle" x="384.5" y="-119.5" font-family="Helvetica,sans-Serif" font-size="10.00" fill="#000000">sitkCommon.h</text>
</a>
</g>
</g>
<!-- Node1&#45;&gt;Node2 -->
<g id="edge1" class="edge">
<title>Node1&#45;&gt;Node2</title>
<path fill="none" stroke="#191970" d="M78.8232,-459.4175C53.0376,-442.3156 4.5,-403.8956 4.5,-357 4.5,-357 4.5,-357 4.5,-239.5 4.5,-206.6194 -1.2436,-189.6538 23.5,-168 46.1501,-148.1783 235.1014,-132.3782 330.2275,-125.5954"/>
<polygon fill="#191970" stroke="#191970" points="330.5103,-129.0842 340.2396,-124.8901 330.0183,-122.1015 330.5103,-129.0842"/>
</g>
<!-- Node10 -->
<g id="node10" class="node">
<title>Node10</title>
<g id="a_node10"><a xlink:href="sitkTransform_8h.html" target="_top" xlink:title=" ">
<polygon fill="#ffffff" stroke="#000000" points="138.5,-403.5 138.5,-422.5 230.5,-422.5 230.5,-403.5 138.5,-403.5"/>
<text text-anchor="middle" x="184.5" y="-410.5" font-family="Helvetica,sans-Serif" font-size="10.00" fill="#000000">sitkTransform.h</text>
</a>
</g>
</g>
<!-- Node1&#45;&gt;Node10 -->
<g id="edge9" class="edge">
<title>Node1&#45;&gt;Node10</title>
<path fill="none" stroke="#191970" d="M110.1768,-459.2455C123.9856,-450.6534 144.3193,-438.0014 160.2292,-428.1018"/>
<polygon fill="#191970" stroke="#191970" points="162.3613,-430.8974 169.0028,-422.6427 158.6632,-424.954 162.3613,-430.8974"/>
</g>
<!-- Node3 -->
<g id="node3" class="node">
<title>Node3</title>
<g id="a_node3"><a xlink:href="sitkMacro_8h.html" target="_top" xlink:title=" ">
<polygon fill="#ffffff" stroke="#000000" points="566,-56.5 566,-75.5 639,-75.5 639,-56.5 566,-56.5"/>
<text text-anchor="middle" x="602.5" y="-63.5" font-family="Helvetica,sans-Serif" font-size="10.00" fill="#000000">sitkMacro.h</text>
</a>
</g>
</g>
<!-- Node2&#45;&gt;Node3 -->
<g id="edge2" class="edge">
<title>Node2&#45;&gt;Node3</title>
<path fill="none" stroke="#191970" d="M421.9755,-112.3733C459.1225,-102.8309 516.1123,-88.1913 556.099,-77.9195"/>
<polygon fill="#191970" stroke="#191970" points="557.0616,-81.286 565.8763,-75.4079 555.3199,-74.5061 557.0616,-81.286"/>
</g>
<!-- Node4 -->
<g id="node4" class="node">
<title>Node4</title>
<g id="a_node4"><a xlink:title=" ">
<polygon fill="#ffffff" stroke="#bfbfbf" points="915,-.5 915,-19.5 968,-19.5 968,-.5 915,-.5"/>
<text text-anchor="middle" x="941.5" y="-7.5" font-family="Helvetica,sans-Serif" font-size="10.00" fill="#000000">stdint.h</text>
</a>
</g>
</g>
<!-- Node3&#45;&gt;Node4 -->
<g id="edge3" class="edge">
<title>Node3&#45;&gt;Node4</title>
<path fill="none" stroke="#191970" d="M639.101,-59.9538C704.1346,-49.2108 839.1169,-26.9128 904.4622,-16.1183"/>
<polygon fill="#191970" stroke="#191970" points="905.4082,-19.5096 914.704,-14.4265 904.2673,-12.6032 905.4082,-19.5096"/>
</g>
<!-- Node5 -->
<g id="node5" class="node">
<title>Node5</title>
<g id="a_node5"><a xlink:title=" ">
<polygon fill="#ffffff" stroke="#bfbfbf" points="538.5,-.5 538.5,-19.5 594.5,-19.5 594.5,-.5 538.5,-.5"/>
<text text-anchor="middle" x="566.5" y="-7.5" font-family="Helvetica,sans-Serif" font-size="10.00" fill="#000000">stddef.h</text>
</a>
</g>
</g>
<!-- Node3&#45;&gt;Node5 -->
<g id="edge4" class="edge">
<title>Node3&#45;&gt;Node5</title>
<path fill="none" stroke="#191970" d="M596.2293,-56.2455C591.2736,-48.5367 584.217,-37.5598 578.2224,-28.2348"/>
<polygon fill="#191970" stroke="#191970" points="581.0506,-26.1618 572.6989,-19.6427 575.1624,-29.9471 581.0506,-26.1618"/>
</g>
<!-- Node6 -->
<g id="node6" class="node">
<title>Node6</title>
<g id="a_node6"><a xlink:title=" ">
<polygon fill="#ffffff" stroke="#bfbfbf" points="612.5,-.5 612.5,-19.5 664.5,-19.5 664.5,-.5 612.5,-.5"/>
<text text-anchor="middle" x="638.5" y="-7.5" font-family="Helvetica,sans-Serif" font-size="10.00" fill="#000000">cassert</text>
</a>
</g>
</g>
<!-- Node3&#45;&gt;Node6 -->
<g id="edge5" class="edge">
<title>Node3&#45;&gt;Node6</title>
<path fill="none" stroke="#191970" d="M608.7707,-56.2455C613.7264,-48.5367 620.783,-37.5598 626.7776,-28.2348"/>
<polygon fill="#191970" stroke="#191970" points="629.8376,-29.9471 632.3011,-19.6427 623.9494,-26.1618 629.8376,-29.9471"/>
</g>
<!-- Node7 -->
<g id="node7" class="node">
<title>Node7</title>
<g id="a_node7"><a xlink:title=" ">
<polygon fill="#ffffff" stroke="#bfbfbf" points="682.5,-.5 682.5,-19.5 738.5,-19.5 738.5,-.5 682.5,-.5"/>
<text text-anchor="middle" x="710.5" y="-7.5" font-family="Helvetica,sans-Serif" font-size="10.00" fill="#000000">sstream</text>
</a>
</g>
</g>
<!-- Node3&#45;&gt;Node7 -->
<g id="edge6" class="edge">
<title>Node3&#45;&gt;Node7</title>
<path fill="none" stroke="#191970" d="M621.3122,-56.2455C638.3473,-47.4125 663.6575,-34.2887 682.9681,-24.2758"/>
<polygon fill="#191970" stroke="#191970" points="684.637,-27.353 691.9034,-19.6427 681.4147,-21.1388 684.637,-27.353"/>
</g>
<!-- Node8 -->
<g id="node8" class="node">
<title>Node8</title>
<g id="a_node8"><a xlink:title=" ">
<polygon fill="#ffffff" stroke="#bfbfbf" points="476.5,-.5 476.5,-19.5 520.5,-19.5 520.5,-.5 476.5,-.5"/>
<text text-anchor="middle" x="498.5" y="-7.5" font-family="Helvetica,sans-Serif" font-size="10.00" fill="#000000">limits</text>
</a>
</g>
</g>
<!-- Node3&#45;&gt;Node8 -->
<g id="edge7" class="edge">
<title>Node3&#45;&gt;Node8</title>
<path fill="none" stroke="#191970" d="M584.3846,-56.2455C568.055,-47.4527 543.829,-34.4079 525.2661,-24.4125"/>
<polygon fill="#191970" stroke="#191970" points="526.8719,-21.3021 516.4078,-19.6427 523.5532,-27.4654 526.8719,-21.3021"/>
</g>
<!-- Node9 -->
<g id="node9" class="node">
<title>Node9</title>
<g id="a_node9"><a xlink:href="sitkConfigure_8h.html" target="_top" xlink:title=" ">
<polygon fill="#ffffff" stroke="#000000" points="1106.5,-.5 1106.5,-19.5 1196.5,-19.5 1196.5,-.5 1106.5,-.5"/>
<text text-anchor="middle" x="1151.5" y="-7.5" font-family="Helvetica,sans-Serif" font-size="10.00" fill="#000000">sitkConfigure.h</text>
</a>
</g>
</g>
<!-- Node3&#45;&gt;Node9 -->
<g id="edge8" class="edge">
<title>Node3&#45;&gt;Node9</title>
<path fill="none" stroke="#191970" d="M639.3739,-62.2387C733.6779,-52.6194 984.0738,-27.0781 1096.0398,-15.6571"/>
<polygon fill="#191970" stroke="#191970" points="1096.5192,-19.1265 1106.1124,-14.6297 1095.8088,-12.1626 1096.5192,-19.1265"/>
</g>
<!-- Node10&#45;&gt;Node2 -->
<g id="edge10" class="edge">
<title>Node10&#45;&gt;Node2</title>
<path fill="none" stroke="#191970" d="M184.5,-403.4116C184.5,-384.0538 184.5,-338.9167 184.5,-301 184.5,-301 184.5,-301 184.5,-239.5 184.5,-171.7375 270.9054,-142.2907 330.1298,-130.066"/>
<polygon fill="#191970" stroke="#191970" points="330.9714,-133.4678 340.1135,-128.1132 329.6276,-126.598 330.9714,-133.4678"/>
</g>
<!-- Node11 -->
<g id="node11" class="node">
<title>Node11</title>
<g id="a_node11"><a xlink:href="sitkExceptionObject_8h.html" target="_top" xlink:title=" ">
<polygon fill="#ffffff" stroke="#000000" points="33,-168.5 33,-187.5 156,-187.5 156,-168.5 33,-168.5"/>
<text text-anchor="middle" x="94.5" y="-175.5" font-family="Helvetica,sans-Serif" font-size="10.00" fill="#000000">sitkExceptionObject.h</text>
</a>
</g>
</g>
<!-- Node10&#45;&gt;Node11 -->
<g id="edge11" class="edge">
<title>Node10&#45;&gt;Node11</title>
<path fill="none" stroke="#191970" d="M180.8604,-403.4967C167.3775,-368.2912 120.1113,-244.874 101.8125,-197.0937"/>
<polygon fill="#191970" stroke="#191970" points="105.0299,-195.7084 98.1849,-187.6216 98.4929,-198.212 105.0299,-195.7084"/>
</g>
<!-- Node12 -->
<g id="node12" class="node">
<title>Node12</title>
<g id="a_node12"><a xlink:href="sitkImage_8h.html" target="_top" xlink:title=" ">
<polygon fill="#ffffff" stroke="#000000" points="394.5,-347.5 394.5,-366.5 468.5,-366.5 468.5,-347.5 394.5,-347.5"/>
<text text-anchor="middle" x="431.5" y="-354.5" font-family="Helvetica,sans-Serif" font-size="10.00" fill="#000000">sitkImage.h</text>
</a>
</g>
</g>
<!-- Node10&#45;&gt;Node12 -->
<g id="edge14" class="edge">
<title>Node10&#45;&gt;Node12</title>
<path fill="none" stroke="#191970" d="M226.6802,-403.4369C270.4895,-393.5044 338.8749,-378 384.418,-367.6745"/>
<polygon fill="#191970" stroke="#191970" points="385.3603,-371.0497 394.3389,-365.4252 383.8125,-364.223 385.3603,-371.0497"/>
</g>
<!-- Node14 -->
<g id="node14" class="node">
<title>Node14</title>
<g id="a_node14"><a xlink:title=" ">
<polygon fill="#ffffff" stroke="#bfbfbf" points="361,-168.5 361,-187.5 408,-187.5 408,-168.5 361,-168.5"/>
<text text-anchor="middle" x="384.5" y="-175.5" font-family="Helvetica,sans-Serif" font-size="10.00" fill="#000000">vector</text>
</a>
</g>
</g>
<!-- Node10&#45;&gt;Node14 -->
<g id="edge52" class="edge">
<title>Node10&#45;&gt;Node14</title>
<path fill="none" stroke="#191970" d="M194.9837,-403.433C231.7001,-369.9119 352.4385,-259.5474 355.5,-255 367.4265,-237.285 375.3133,-214.0006 379.8113,-197.6933"/>
<polygon fill="#191970" stroke="#191970" points="383.2874,-198.2293 382.3919,-187.6724 376.5085,-196.4836 383.2874,-198.2293"/>
</g>
<!-- Node11&#45;&gt;Node2 -->
<g id="edge13" class="edge">
<title>Node11&#45;&gt;Node2</title>
<path fill="none" stroke="#191970" d="M144.0233,-168.4369C195.8476,-158.4294 276.9639,-142.7656 330.428,-132.4415"/>
<polygon fill="#191970" stroke="#191970" points="331.2504,-135.8474 340.4054,-130.5148 329.9231,-128.9744 331.2504,-135.8474"/>
</g>
<!-- Node11&#45;&gt;Node3 -->
<g id="edge12" class="edge">
<title>Node11&#45;&gt;Node3</title>
<path fill="none" stroke="#191970" d="M107.0032,-168.4205C127.1431,-153.5529 168.5635,-125.2572 208.5,-112 271.9211,-90.947 465.6074,-75.3784 555.6121,-69.0777"/>
<polygon fill="#191970" stroke="#191970" points="556.0662,-72.5547 565.8009,-68.3731 555.5832,-65.5714 556.0662,-72.5547"/>
</g>
<!-- Node12&#45;&gt;Node2 -->
<g id="edge15" class="edge">
<title>Node12&#45;&gt;Node2</title>
<path fill="none" stroke="#191970" d="M432.6084,-347.1413C435.4509,-318.3888 441.1461,-232.5798 416.5,-168 412.6281,-157.8544 406.0487,-147.8106 399.8591,-139.7089"/>
<polygon fill="#191970" stroke="#191970" points="402.4494,-137.3456 393.4423,-131.7669 397.0045,-141.7449 402.4494,-137.3456"/>
</g>
<!-- Node13 -->
<g id="node13" class="node">
<title>Node13</title>
<g id="a_node13"><a xlink:href="sitkTemplateFunctions_8h.html" target="_top" xlink:title=" ">
<polygon fill="#ffffff" stroke="#000000" points="212.5,-230 212.5,-249 346.5,-249 346.5,-230 212.5,-230"/>
<text text-anchor="middle" x="279.5" y="-237" font-family="Helvetica,sans-Serif" font-size="10.00" fill="#000000">sitkTemplateFunctions.h</text>
</a>
</g>
</g>
<!-- Node12&#45;&gt;Node13 -->
<g id="edge16" class="edge">
<title>Node12&#45;&gt;Node13</title>
<path fill="none" stroke="#191970" d="M394.3232,-349.0285C370.1249,-342.2741 339.1518,-330.4904 317.5,-311 301.8804,-296.9397 291.5446,-274.9172 285.6481,-259.0272"/>
<polygon fill="#191970" stroke="#191970" points="288.8241,-257.4996 282.2648,-249.1794 282.2039,-259.774 288.8241,-257.4996"/>
</g>
<!-- Node12&#45;&gt;Node14 -->
<g id="edge49" class="edge">
<title>Node12&#45;&gt;Node14</title>
<path fill="none" stroke="#191970" d="M428.9731,-347.3762C421.5455,-319.0883 399.6762,-235.7987 389.6402,-197.5767"/>
<polygon fill="#191970" stroke="#191970" points="392.9644,-196.4547 387.0394,-187.6714 386.1939,-198.2324 392.9644,-196.4547"/>
</g>
<!-- Node17 -->
<g id="node17" class="node">
<title>Node17</title>
<g id="a_node17"><a xlink:href="sitkDetail_8h.html" target="_top" xlink:title=" ">
<polygon fill="#ffffff" stroke="#000000" points="798,-291.5 798,-310.5 871,-310.5 871,-291.5 798,-291.5"/>
<text text-anchor="middle" x="834.5" y="-298.5" font-family="Helvetica,sans-Serif" font-size="10.00" fill="#000000">sitkDetail.h</text>
</a>
</g>
</g>
<!-- Node12&#45;&gt;Node17 -->
<g id="edge23" class="edge">
<title>Node12&#45;&gt;Node17</title>
<path fill="none" stroke="#191970" d="M468.6909,-351.832C542.3517,-341.5963 706.6563,-318.7649 787.5985,-307.5173"/>
<polygon fill="#191970" stroke="#191970" points="788.558,-310.9177 797.981,-306.0746 787.5945,-303.9843 788.558,-310.9177"/>
</g>
<!-- Node27 -->
<g id="node27" class="node">
<title>Node27</title>
<g id="a_node27"><a xlink:href="sitkPixelIDTokens_8h.html" target="_top" xlink:title=" ">
<polygon fill="#ffffff" stroke="#000000" points="1043.5,-291.5 1043.5,-310.5 1155.5,-310.5 1155.5,-291.5 1043.5,-291.5"/>
<text text-anchor="middle" x="1099.5" y="-298.5" font-family="Helvetica,sans-Serif" font-size="10.00" fill="#000000">sitkPixelIDTokens.h</text>
</a>
</g>
</g>
<!-- Node12&#45;&gt;Node27 -->
<g id="edge41" class="edge">
<title>Node12&#45;&gt;Node27</title>
<path fill="none" stroke="#191970" d="M468.8337,-354.7358C562.1456,-348.9362 813.011,-332.4788 1021.5,-311 1025.362,-310.6021 1029.3285,-310.1693 1033.3285,-309.7141"/>
<polygon fill="#191970" stroke="#191970" points="1033.7766,-313.1856 1043.3005,-308.5439 1032.9607,-306.2333 1033.7766,-313.1856"/>
</g>
<!-- Node30 -->
<g id="node30" class="node">
<title>Node30</title>
<g id="a_node30"><a xlink:title=" ">
<polygon fill="#ffffff" stroke="#bfbfbf" points="1019,-230 1019,-249 1088,-249 1088,-230 1019,-230"/>
<text text-anchor="middle" x="1053.5" y="-237" font-family="Helvetica,sans-Serif" font-size="10.00" fill="#000000">type_traits</text>
</a>
</g>
</g>
<!-- Node12&#45;&gt;Node30 -->
<g id="edge51" class="edge">
<title>Node12&#45;&gt;Node30</title>
<path fill="none" stroke="#191970" d="M468.5869,-354.5886C561.5479,-348.322 802.6193,-330.6379 880.5,-311 934.1339,-297.476 992.9201,-270.3307 1026.3008,-253.6538"/>
<polygon fill="#191970" stroke="#191970" points="1028.0702,-256.6811 1035.414,-249.0444 1024.9107,-250.4347 1028.0702,-256.6811"/>
</g>
<!-- Node31 -->
<g id="node31" class="node">
<title>Node31</title>
<g id="a_node31"><a xlink:title=" ">
<polygon fill="#ffffff" stroke="#bfbfbf" points="326.5,-291.5 326.5,-310.5 384.5,-310.5 384.5,-291.5 326.5,-291.5"/>
<text text-anchor="middle" x="355.5" y="-298.5" font-family="Helvetica,sans-Serif" font-size="10.00" fill="#000000">memory</text>
</a>
</g>
</g>
<!-- Node12&#45;&gt;Node31 -->
<g id="edge50" class="edge">
<title>Node12&#45;&gt;Node31</title>
<path fill="none" stroke="#191970" d="M418.2618,-347.2455C406.819,-338.814 390.0704,-326.4729 376.7525,-316.6598"/>
<polygon fill="#191970" stroke="#191970" points="378.7133,-313.757 368.5865,-310.6427 374.5609,-319.3924 378.7133,-313.757"/>
</g>
<!-- Node13&#45;&gt;Node2 -->
<g id="edge18" class="edge">
<title>Node13&#45;&gt;Node2</title>
<path fill="none" stroke="#191970" d="M288.0926,-229.8845C305.7823,-210.0889 346.488,-164.5372 368.9356,-139.4173"/>
<polygon fill="#191970" stroke="#191970" points="371.7351,-141.5371 375.7887,-131.7484 366.5155,-136.8728 371.7351,-141.5371"/>
</g>
<!-- Node13&#45;&gt;Node3 -->
<g id="edge17" class="edge">
<title>Node13&#45;&gt;Node3</title>
<path fill="none" stroke="#191970" d="M267.9379,-229.9555C252.7273,-216.1889 229.2799,-189.9962 241.5,-168 264.3792,-126.8175 287.4483,-128.7004 331.5,-112 406.7478,-83.4728 500.4509,-72.5685 555.6449,-68.4483"/>
<polygon fill="#191970" stroke="#191970" points="556.0913,-71.9257 565.8214,-67.7333 555.6006,-64.9429 556.0913,-71.9257"/>
</g>
<!-- Node13&#45;&gt;Node11 -->
<g id="edge19" class="edge">
<title>Node13&#45;&gt;Node11</title>
<path fill="none" stroke="#191970" d="M250.5938,-229.8906C218.961,-219.3749 168.097,-202.466 133.0771,-190.8243"/>
<polygon fill="#191970" stroke="#191970" points="133.7968,-187.3753 123.2033,-187.5419 131.5885,-194.0178 133.7968,-187.3753"/>
</g>
<!-- Node13&#45;&gt;Node14 -->
<g id="edge20" class="edge">
<title>Node13&#45;&gt;Node14</title>
<path fill="none" stroke="#191970" d="M295.9063,-229.8906C312.9353,-219.9165 339.7841,-204.1908 359.4651,-192.6633"/>
<polygon fill="#191970" stroke="#191970" points="361.349,-195.6161 368.209,-187.5419 357.8112,-189.5759 361.349,-195.6161"/>
</g>
<!-- Node15 -->
<g id="node15" class="node">
<title>Node15</title>
<g id="a_node15"><a xlink:title=" ">
<polygon fill="#ffffff" stroke="#bfbfbf" points="1095,-168.5 1095,-187.5 1152,-187.5 1152,-168.5 1095,-168.5"/>
<text text-anchor="middle" x="1123.5" y="-175.5" font-family="Helvetica,sans-Serif" font-size="10.00" fill="#000000">ostream</text>
</a>
</g>
</g>
<!-- Node13&#45;&gt;Node15 -->
<g id="edge21" class="edge">
<title>Node13&#45;&gt;Node15</title>
<path fill="none" stroke="#191970" d="M346.7437,-236.8813C510.1153,-230.2548 925.5239,-211.7539 1084.8729,-187.7253"/>
<polygon fill="#191970" stroke="#191970" points="1085.658,-191.1449 1094.9933,-186.1346 1084.5711,-184.2298 1085.658,-191.1449"/>
</g>
<!-- Node16 -->
<g id="node16" class="node">
<title>Node16</title>
<g id="a_node16"><a xlink:title=" ">
<polygon fill="#ffffff" stroke="#bfbfbf" points="251,-168.5 251,-187.5 304,-187.5 304,-168.5 251,-168.5"/>
<text text-anchor="middle" x="277.5" y="-175.5" font-family="Helvetica,sans-Serif" font-size="10.00" fill="#000000">iterator</text>
</a>
</g>
</g>
<!-- Node13&#45;&gt;Node16 -->
<g id="edge22" class="edge">
<title>Node13&#45;&gt;Node16</title>
<path fill="none" stroke="#191970" d="M279.1875,-229.8906C278.9103,-221.3657 278.4964,-208.6392 278.1479,-197.9235"/>
<polygon fill="#191970" stroke="#191970" points="281.6402,-197.6258 277.8169,-187.7449 274.6439,-197.8534 281.6402,-197.6258"/>
</g>
<!-- Node18 -->
<g id="node18" class="node">
<title>Node18</title>
<g id="a_node18"><a xlink:href="sitkMemberFunctionFactoryBase_8h.html" target="_top" xlink:title=" ">
<polygon fill="#ffffff" stroke="#000000" points="759.5,-224.5 759.5,-254.5 909.5,-254.5 909.5,-224.5 759.5,-224.5"/>
<text text-anchor="start" x="767.5" y="-242.5" font-family="Helvetica,sans-Serif" font-size="10.00" fill="#000000">sitkMemberFunctionFactory</text>
<text text-anchor="middle" x="834.5" y="-231.5" font-family="Helvetica,sans-Serif" font-size="10.00" fill="#000000">Base.h</text>
</a>
</g>
</g>
<!-- Node17&#45;&gt;Node18 -->
<g id="edge24" class="edge">
<title>Node17&#45;&gt;Node18</title>
<path fill="none" stroke="#191970" d="M834.5,-291.3906C834.5,-284.2234 834.5,-274.0862 834.5,-264.671"/>
<polygon fill="#191970" stroke="#191970" points="838.0001,-264.5446 834.5,-254.5446 831.0001,-264.5446 838.0001,-264.5446"/>
</g>
<!-- Node24 -->
<g id="node24" class="node">
<title>Node24</title>
<g id="a_node24"><a xlink:title=" ">
<polygon fill="#ffffff" stroke="#bfbfbf" points="938.5,-168.5 938.5,-187.5 1076.5,-187.5 1076.5,-168.5 938.5,-168.5"/>
<text text-anchor="middle" x="1007.5" y="-175.5" font-family="Helvetica,sans-Serif" font-size="10.00" fill="#000000">Ancillary/FunctionTraits.h</text>
</a>
</g>
</g>
<!-- Node17&#45;&gt;Node24 -->
<g id="edge40" class="edge">
<title>Node17&#45;&gt;Node24</title>
<path fill="none" stroke="#191970" d="M854.895,-291.3613C872.3604,-282.7538 897.8802,-269.3235 918.5,-255 945.0339,-236.5683 972.7447,-211.529 990.0552,-195.0768"/>
<polygon fill="#191970" stroke="#191970" points="992.8852,-197.2111 997.6669,-187.7567 988.033,-192.1657 992.8852,-197.2111"/>
</g>
<!-- Node18&#45;&gt;Node3 -->
<g id="edge33" class="edge">
<title>Node18&#45;&gt;Node3</title>
<path fill="none" stroke="#191970" d="M824.7274,-224.4841C814.1502,-209.0237 796.1411,-184.8734 776.5,-168 731.5153,-129.3545 669.8944,-97.1988 633.3392,-79.8607"/>
<polygon fill="#191970" stroke="#191970" points="634.7108,-76.6383 624.1696,-75.5735 631.746,-82.9795 634.7108,-76.6383"/>
</g>
<!-- Node18&#45;&gt;Node9 -->
<g id="edge25" class="edge">
<title>Node18&#45;&gt;Node9</title>
<path fill="none" stroke="#191970" d="M832.6878,-224.0927C830.4926,-197.8321 830.0114,-144.1326 857.5,-112 889.1365,-75.0186 1021.8538,-39.5713 1097.7112,-21.8146"/>
<polygon fill="#191970" stroke="#191970" points="1098.6181,-25.1973 1107.5706,-19.5313 1097.0387,-18.3778 1098.6181,-25.1973"/>
</g>
<!-- Node19 -->
<g id="node19" class="node">
<title>Node19</title>
<g id="a_node19"><a xlink:href="sitkPixelIDTypes_8h.html" target="_top" xlink:title=" ">
<polygon fill="#ffffff" stroke="#000000" points="866.5,-112.5 866.5,-131.5 972.5,-131.5 972.5,-112.5 866.5,-112.5"/>
<text text-anchor="middle" x="919.5" y="-119.5" font-family="Helvetica,sans-Serif" font-size="10.00" fill="#000000">sitkPixelIDTypes.h</text>
</a>
</g>
</g>
<!-- Node18&#45;&gt;Node19 -->
<g id="edge26" class="edge">
<title>Node18&#45;&gt;Node19</title>
<path fill="none" stroke="#191970" d="M845.6123,-224.1389C861.3442,-202.3919 890.0402,-162.7238 906.6621,-139.7465"/>
<polygon fill="#191970" stroke="#191970" points="909.5592,-141.7132 912.5846,-131.5595 903.8876,-137.6103 909.5592,-141.7132"/>
</g>
<!-- Node20 -->
<g id="node20" class="node">
<title>Node20</title>
<g id="a_node20"><a xlink:href="sitkPixelIDTypeLists_8h.html" target="_top" xlink:title=" ">
<polygon fill="#ffffff" stroke="#000000" points="1209,-168.5 1209,-187.5 1332,-187.5 1332,-168.5 1209,-168.5"/>
<text text-anchor="middle" x="1270.5" y="-175.5" font-family="Helvetica,sans-Serif" font-size="10.00" fill="#000000">sitkPixelIDTypeLists.h</text>
</a>
</g>
</g>
<!-- Node18&#45;&gt;Node20 -->
<g id="edge27" class="edge">
<title>Node18&#45;&gt;Node20</title>
<path fill="none" stroke="#191970" d="M909.9477,-228.8577C991.1694,-217.401 1119.4039,-199.3129 1199.0441,-188.0792"/>
<polygon fill="#191970" stroke="#191970" points="1199.5755,-191.539 1208.9885,-186.6765 1198.5977,-184.6076 1199.5755,-191.539"/>
</g>
<!-- Node21 -->
<g id="node21" class="node">
<title>Node21</title>
<g id="a_node21"><a xlink:title=" ">
<polygon fill="#ffffff" stroke="#bfbfbf" points="1005,-112.5 1005,-131.5 1116,-131.5 1116,-112.5 1005,-112.5"/>
<text text-anchor="middle" x="1060.5" y="-119.5" font-family="Helvetica,sans-Serif" font-size="10.00" fill="#000000">Ancillary/TypeList.h</text>
</a>
</g>
</g>
<!-- Node18&#45;&gt;Node21 -->
<g id="edge36" class="edge">
<title>Node18&#45;&gt;Node21</title>
<path fill="none" stroke="#191970" d="M851.2581,-224.334C869.4324,-208.5232 899.8349,-183.8779 929.5,-168 956.2349,-153.6905 988.3286,-142.3364 1014.0582,-134.4886"/>
<polygon fill="#191970" stroke="#191970" points="1015.3531,-137.7551 1023.9407,-131.55 1013.3579,-131.0454 1015.3531,-137.7551"/>
</g>
<!-- Node23 -->
<g id="node23" class="node">
<title>Node23</title>
<g id="a_node23"><a xlink:href="sitkNonCopyable_8h.html" target="_top" xlink:title=" ">
<polygon fill="#ffffff" stroke="#000000" points="465,-168.5 465,-187.5 574,-187.5 574,-168.5 465,-168.5"/>
<text text-anchor="middle" x="519.5" y="-175.5" font-family="Helvetica,sans-Serif" font-size="10.00" fill="#000000">sitkNonCopyable.h</text>
</a>
</g>
</g>
<!-- Node18&#45;&gt;Node23 -->
<g id="edge34" class="edge">
<title>Node18&#45;&gt;Node23</title>
<path fill="none" stroke="#191970" d="M759.4499,-224.8474C704.0048,-214.0224 629.5749,-199.4908 578.3907,-189.4977"/>
<polygon fill="#191970" stroke="#191970" points="578.9617,-186.0432 568.4763,-187.562 577.6203,-192.9135 578.9617,-186.0432"/>
</g>
<!-- Node18&#45;&gt;Node24 -->
<g id="edge37" class="edge">
<title>Node18&#45;&gt;Node24</title>
<path fill="none" stroke="#191970" d="M876.8206,-224.4554C905.6861,-214.194 943.5239,-200.7429 971.0516,-190.9571"/>
<polygon fill="#191970" stroke="#191970" points="972.4412,-194.1778 980.6911,-187.5303 970.0964,-187.5821 972.4412,-194.1778"/>
</g>
<!-- Node25 -->
<g id="node25" class="node">
<title>Node25</title>
<g id="a_node25"><a xlink:title=" ">
<polygon fill="#ffffff" stroke="#bfbfbf" points="592,-168.5 592,-187.5 685,-187.5 685,-168.5 592,-168.5"/>
<text text-anchor="middle" x="638.5" y="-175.5" font-family="Helvetica,sans-Serif" font-size="10.00" fill="#000000">unordered_map</text>
</a>
</g>
</g>
<!-- Node18&#45;&gt;Node25 -->
<g id="edge38" class="edge">
<title>Node18&#45;&gt;Node25</title>
<path fill="none" stroke="#191970" d="M786.553,-224.4554C753.4196,-214.059 709.8517,-200.3884 678.5692,-190.5727"/>
<polygon fill="#191970" stroke="#191970" points="679.4622,-187.1848 668.873,-187.5303 677.3665,-193.8637 679.4622,-187.1848"/>
</g>
<!-- Node26 -->
<g id="node26" class="node">
<title>Node26</title>
<g id="a_node26"><a xlink:title=" ">
<polygon fill="#ffffff" stroke="#bfbfbf" points="703,-168.5 703,-187.5 768,-187.5 768,-168.5 703,-168.5"/>
<text text-anchor="middle" x="735.5" y="-175.5" font-family="Helvetica,sans-Serif" font-size="10.00" fill="#000000">functional</text>
</a>
</g>
</g>
<!-- Node18&#45;&gt;Node26 -->
<g id="edge39" class="edge">
<title>Node18&#45;&gt;Node26</title>
<path fill="none" stroke="#191970" d="M810.2819,-224.4554C794.9227,-214.9141 775.1243,-202.6151 759.7575,-193.0691"/>
<polygon fill="#191970" stroke="#191970" points="761.1828,-189.8341 750.8415,-187.5303 757.489,-195.7802 761.1828,-189.8341"/>
</g>
<!-- Node20&#45;&gt;Node4 -->
<g id="edge28" class="edge">
<title>Node20&#45;&gt;Node4</title>
<path fill="none" stroke="#191970" d="M1249.7975,-168.3399C1230.2849,-159.1737 1200.2747,-144.918 1174.5,-132 1099.1676,-94.2443 1011.3655,-47.5247 968.2186,-24.3847"/>
<polygon fill="#191970" stroke="#191970" points="969.686,-21.2001 959.22,-19.5532 966.3747,-27.3673 969.686,-21.2001"/>
</g>
<!-- Node20&#45;&gt;Node9 -->
<g id="edge29" class="edge">
<title>Node20&#45;&gt;Node9</title>
<path fill="none" stroke="#191970" d="M1269.2608,-168.4588C1267.2006,-155.0811 1262.191,-130.3349 1251.5,-112 1230.7866,-76.477 1194.952,-44.1787 1172.275,-25.8311"/>
<polygon fill="#191970" stroke="#191970" points="1174.2992,-22.9695 1164.287,-19.5046 1169.9532,-28.457 1174.2992,-22.9695"/>
</g>
<!-- Node20&#45;&gt;Node19 -->
<g id="edge30" class="edge">
<title>Node20&#45;&gt;Node19</title>
<path fill="none" stroke="#191970" d="M1210.5598,-168.4369C1147.0895,-158.3106 1047.3188,-142.3927 982.6544,-132.0759"/>
<polygon fill="#191970" stroke="#191970" points="983.0151,-128.5893 972.5885,-130.47 981.9122,-135.5019 983.0151,-128.5893"/>
</g>
<!-- Node20&#45;&gt;Node21 -->
<g id="edge31" class="edge">
<title>Node20&#45;&gt;Node21</title>
<path fill="none" stroke="#191970" d="M1234.3997,-168.3733C1198.8752,-158.9001 1144.512,-144.4032 1106.0381,-134.1435"/>
<polygon fill="#191970" stroke="#191970" points="1106.6934,-130.696 1096.1292,-131.5011 1104.8897,-137.4596 1106.6934,-130.696"/>
</g>
<!-- Node22 -->
<g id="node22" class="node">
<title>Node22</title>
<g id="a_node22"><a xlink:title=" ">
<polygon fill="#ffffff" stroke="#bfbfbf" points="1183,-112.5 1183,-131.5 1242,-131.5 1242,-112.5 1183,-112.5"/>
<text text-anchor="middle" x="1212.5" y="-119.5" font-family="Helvetica,sans-Serif" font-size="10.00" fill="#000000">complex</text>
</a>
</g>
</g>
<!-- Node20&#45;&gt;Node22 -->
<g id="edge32" class="edge">
<title>Node20&#45;&gt;Node22</title>
<path fill="none" stroke="#191970" d="M1260.3972,-168.2455C1251.9972,-160.1352 1239.8506,-148.4075 1229.8916,-138.7919"/>
<polygon fill="#191970" stroke="#191970" points="1232.1122,-136.0707 1222.4871,-131.6427 1227.25,-141.1066 1232.1122,-136.0707"/>
</g>
<!-- Node23&#45;&gt;Node2 -->
<g id="edge35" class="edge">
<title>Node23&#45;&gt;Node2</title>
<path fill="none" stroke="#191970" d="M496.2927,-168.3733C474.3301,-159.2629 441.1668,-145.5062 416.6599,-135.3404"/>
<polygon fill="#191970" stroke="#191970" points="417.9824,-132.0999 407.4045,-131.5011 415.3003,-138.5657 417.9824,-132.0999"/>
</g>
<!-- Node27&#45;&gt;Node9 -->
<g id="edge42" class="edge">
<title>Node27&#45;&gt;Node9</title>
<path fill="none" stroke="#191970" d="M1155.7623,-291.5142C1248.304,-274.2996 1422.5,-234.4044 1422.5,-178 1422.5,-178 1422.5,-178 1422.5,-122 1422.5,-75.6817 1285.5771,-38.6224 1206.3836,-21.0616"/>
<polygon fill="#191970" stroke="#191970" points="1207.0707,-17.6292 1196.5543,-18.9162 1205.5779,-24.4682 1207.0707,-17.6292"/>
</g>
<!-- Node28 -->
<g id="node28" class="node">
<title>Node28</title>
<g id="a_node28"><a xlink:href="sitkPixelIDValues_8h.html" target="_top" xlink:title=" ">
<polygon fill="#ffffff" stroke="#000000" points="1125.5,-230 1125.5,-249 1235.5,-249 1235.5,-230 1125.5,-230"/>
<text text-anchor="middle" x="1180.5" y="-237" font-family="Helvetica,sans-Serif" font-size="10.00" fill="#000000">sitkPixelIDValues.h</text>
</a>
</g>
</g>
<!-- Node27&#45;&gt;Node28 -->
<g id="edge43" class="edge">
<title>Node27&#45;&gt;Node28</title>
<path fill="none" stroke="#191970" d="M1112.1563,-291.3906C1124.8768,-281.7324 1144.7004,-266.6812 1159.7284,-255.271"/>
<polygon fill="#191970" stroke="#191970" points="1162.0846,-257.8766 1167.9326,-249.0419 1157.8516,-252.3015 1162.0846,-257.8766"/>
</g>
<!-- Node27&#45;&gt;Node30 -->
<g id="edge48" class="edge">
<title>Node27&#45;&gt;Node30</title>
<path fill="none" stroke="#191970" d="M1092.3125,-291.3906C1085.5334,-282.3273 1075.2022,-268.5149 1066.9027,-257.4188"/>
<polygon fill="#191970" stroke="#191970" points="1069.5812,-255.1563 1060.7888,-249.2449 1063.9757,-259.349 1069.5812,-255.1563"/>
</g>
<!-- Node28&#45;&gt;Node2 -->
<g id="edge44" class="edge">
<title>Node28&#45;&gt;Node2</title>
<path fill="none" stroke="#191970" d="M1181.1646,-229.7764C1181.6467,-214.0111 1179.9992,-183.1163 1161.5,-168 1133.5403,-145.1533 610.538,-128.3885 438.7013,-123.4779"/>
<polygon fill="#191970" stroke="#191970" points="438.7124,-119.9769 428.6171,-123.1918 438.5138,-126.9741 438.7124,-119.9769"/>
</g>
<!-- Node28&#45;&gt;Node15 -->
<g id="edge47" class="edge">
<title>Node28&#45;&gt;Node15</title>
<path fill="none" stroke="#191970" d="M1171.5938,-229.8906C1163.0272,-220.6478 1149.8831,-206.466 1139.4997,-195.2628"/>
<polygon fill="#191970" stroke="#191970" points="1141.8965,-192.7 1132.5318,-187.7449 1136.7625,-197.4584 1141.8965,-192.7"/>
</g>
<!-- Node28&#45;&gt;Node20 -->
<g id="edge45" class="edge">
<title>Node28&#45;&gt;Node20</title>
<path fill="none" stroke="#191970" d="M1194.5625,-229.8906C1208.8286,-220.1421 1231.135,-204.8994 1247.8872,-193.4521"/>
<polygon fill="#191970" stroke="#191970" points="1250.2545,-196.0736 1256.5362,-187.5419 1246.3051,-190.2941 1250.2545,-196.0736"/>
</g>
<!-- Node29 -->
<g id="node29" class="node">
<title>Node29</title>
<g id="a_node29"><a xlink:title=" ">
<polygon fill="#ffffff" stroke="#bfbfbf" points="1350.5,-168.5 1350.5,-187.5 1394.5,-187.5 1394.5,-168.5 1350.5,-168.5"/>
<text text-anchor="middle" x="1372.5" y="-175.5" font-family="Helvetica,sans-Serif" font-size="10.00" fill="#000000">string</text>
</a>
</g>
</g>
<!-- Node28&#45;&gt;Node29 -->
<g id="edge46" class="edge">
<title>Node28&#45;&gt;Node29</title>
<path fill="none" stroke="#191970" d="M1210.4767,-229.9354C1240.9202,-220.2165 1289.6772,-204.6366 1340.8979,-188.1885"/>
<polygon fill="#191970" stroke="#191970" points="1342.0362,-191.4991 1350.4867,-185.1084 1339.8954,-184.8344 1342.0362,-191.4991"/>
</g>
</g>
</svg>
