<?xml version="1.0" encoding="UTF-8" standalone="no"?>
<!DOCTYPE svg PUBLIC "-//W3C//DTD SVG 1.1//EN"
 "http://www.w3.org/Graphics/SVG/1.1/DTD/svg11.dtd">
<!-- Generated by graphviz version 2.40.1 (20161225.0304)
 -->
<!-- Title: sitkPixelIDTypes.h Pages: 1 -->
<svg width="4560pt" height="632pt"
 viewBox="0.00 0.00 4559.50 632.00" xmlns="http://www.w3.org/2000/svg" xmlns:xlink="http://www.w3.org/1999/xlink">
<g id="graph0" class="graph" transform="scale(1 1) rotate(0) translate(4 628)">
<title>sitkPixelIDTypes.h</title>
<polygon fill="#ffffff" stroke="transparent" points="-4,4 -4,-628 4555.5,-628 4555.5,4 -4,4"/>
<!-- Node1 -->
<g id="node1" class="node">
<title>Node1</title>
<g id="a_node1"><a xlink:title=" ">
<polygon fill="#bfbfbf" stroke="#000000" points="2895.5,-604.5 2895.5,-623.5 3001.5,-623.5 3001.5,-604.5 2895.5,-604.5"/>
<text text-anchor="middle" x="2948.5" y="-611.5" font-family="Helvetica,sans-Serif" font-size="10.00" fill="#000000">sitkPixelIDTypes.h</text>
</a>
</g>
</g>
<!-- Node2 -->
<g id="node2" class="node">
<title>Node2</title>
<g id="a_node2"><a xlink:href="sitkMemberFunctionFactoryBase_8h.html" target="_top" xlink:title=" ">
<polygon fill="#ffffff" stroke="#000000" points="2799.5,-481.5 2799.5,-511.5 2949.5,-511.5 2949.5,-481.5 2799.5,-481.5"/>
<text text-anchor="start" x="2807.5" y="-499.5" font-family="Helvetica,sans-Serif" font-size="10.00" fill="#000000">sitkMemberFunctionFactory</text>
<text text-anchor="middle" x="2874.5" y="-488.5" font-family="Helvetica,sans-Serif" font-size="10.00" fill="#000000">Base.h</text>
</a>
</g>
</g>
<!-- Node1&#45;&gt;Node2 -->
<g id="edge1" class="edge">
<title>Node1&#45;&gt;Node2</title>
<path fill="none" stroke="#191970" d="M2937.0789,-595.8651C2922.5398,-572.7793 2897.681,-533.3076 2884.0818,-511.7143"/>
<polygon fill="#191970" stroke="#191970" points="2934.1535,-597.7879 2942.4443,-604.3845 2940.0767,-594.0575 2934.1535,-597.7879"/>
</g>
<!-- Node337 -->
<g id="node48" class="node">
<title>Node337</title>
<g id="a_node48"><a xlink:href="sitkPixelIDTypeLists_8h.html" target="_top" xlink:title=" ">
<polygon fill="#ffffff" stroke="#000000" points="2946,-548.5 2946,-567.5 3069,-567.5 3069,-548.5 2946,-548.5"/>
<text text-anchor="middle" x="3007.5" y="-555.5" font-family="Helvetica,sans-Serif" font-size="10.00" fill="#000000">sitkPixelIDTypeLists.h</text>
</a>
</g>
</g>
<!-- Node1&#45;&gt;Node337 -->
<g id="edge138" class="edge">
<title>Node1&#45;&gt;Node337</title>
<path fill="none" stroke="#191970" d="M2966.0307,-597.3607C2976.2377,-587.6727 2988.7469,-575.7995 2997.3408,-567.6427"/>
<polygon fill="#191970" stroke="#191970" points="2963.6206,-594.8227 2958.777,-604.2455 2968.4396,-599.8998 2963.6206,-594.8227"/>
</g>
<!-- Node3 -->
<g id="node3" class="node">
<title>Node3</title>
<g id="a_node3"><a xlink:href="sitkDetail_8h.html" target="_top" xlink:title=" ">
<polygon fill="#ffffff" stroke="#000000" points="2838,-425.5 2838,-444.5 2911,-444.5 2911,-425.5 2838,-425.5"/>
<text text-anchor="middle" x="2874.5" y="-432.5" font-family="Helvetica,sans-Serif" font-size="10.00" fill="#000000">sitkDetail.h</text>
</a>
</g>
</g>
<!-- Node2&#45;&gt;Node3 -->
<g id="edge2" class="edge">
<title>Node2&#45;&gt;Node3</title>
<path fill="none" stroke="#191970" d="M2874.5,-471.2849C2874.5,-461.9858 2874.5,-451.9883 2874.5,-444.8469"/>
<polygon fill="#191970" stroke="#191970" points="2871.0001,-471.2977 2874.5,-481.2977 2878.0001,-471.2978 2871.0001,-471.2977"/>
</g>
<!-- Node335 -->
<g id="node46" class="node">
<title>Node335</title>
<g id="a_node46"><a xlink:href="sitkDualMemberFunctionFactory_8h.html" target="_top" xlink:title=" ">
<polygon fill="#ffffff" stroke="#000000" points="1162.5,-196 1162.5,-215 1342.5,-215 1342.5,-196 1162.5,-196"/>
<text text-anchor="middle" x="1252.5" y="-203" font-family="Helvetica,sans-Serif" font-size="10.00" fill="#000000">sitkDualMemberFunctionFactory.h</text>
</a>
</g>
</g>
<!-- Node2&#45;&gt;Node335 -->
<g id="edge136" class="edge">
<title>Node2&#45;&gt;Node335</title>
<path fill="none" stroke="#191970" d="M2788.6699,-493.1462C2501.3862,-481.3609 1591.5,-439.2765 1591.5,-379 1591.5,-379 1591.5,-379 1591.5,-323 1591.5,-266.239 1419.6875,-230.7443 1320.6939,-215.0041"/>
<polygon fill="#191970" stroke="#191970" points="2788.8979,-496.6583 2799.0324,-493.5692 2789.1835,-489.6641 2788.8979,-496.6583"/>
</g>
<!-- Node336 -->
<g id="node47" class="node">
<title>Node336</title>
<g id="a_node47"><a xlink:href="sitkMemberFunctionFactory_8h.html" target="_top" xlink:title=" ">
<polygon fill="#ffffff" stroke="#000000" points="2834.5,-257.5 2834.5,-276.5 2992.5,-276.5 2992.5,-257.5 2834.5,-257.5"/>
<text text-anchor="middle" x="2913.5" y="-264.5" font-family="Helvetica,sans-Serif" font-size="10.00" fill="#000000">sitkMemberFunctionFactory.h</text>
</a>
</g>
</g>
<!-- Node2&#45;&gt;Node336 -->
<g id="edge137" class="edge">
<title>Node2&#45;&gt;Node336</title>
<path fill="none" stroke="#191970" d="M2819.2544,-476.7188C2805.4982,-469.0189 2792.427,-458.669 2784.5,-445 2755.0688,-394.2498 2750.6934,-360.9467 2784.5,-313 2794.8104,-298.3771 2837.5824,-285.0492 2871.0849,-276.5476"/>
<polygon fill="#191970" stroke="#191970" points="2817.8535,-479.9343 2828.3458,-481.4044 2821.0603,-473.712 2817.8535,-479.9343"/>
</g>
<!-- Node4 -->
<g id="node4" class="node">
<title>Node4</title>
<g id="a_node4"><a xlink:href="SimpleITK_8h.html" target="_top" xlink:title=" ">
<polygon fill="#ffffff" stroke="#000000" points="3408,-.5 3408,-19.5 3483,-19.5 3483,-.5 3408,-.5"/>
<text text-anchor="middle" x="3445.5" y="-7.5" font-family="Helvetica,sans-Serif" font-size="10.00" fill="#000000">SimpleITK.h</text>
</a>
</g>
</g>
<!-- Node3&#45;&gt;Node4 -->
<g id="edge3" class="edge">
<title>Node3&#45;&gt;Node4</title>
<path fill="none" stroke="#191970" d="M2855.8721,-418.3331C2811.0045,-376.2191 2704.9886,-263.6532 2765.5,-190 2817.8436,-126.2885 2869.0123,-179.2724 2947.5,-154 2979.1161,-143.8199 2983.6563,-132.4441 3015.5,-123 3118.9081,-92.3317 3158.4494,-134.0634 3255.5,-87 3273.6064,-78.2195 3271.0327,-65.9916 3288.5,-56 3326.0978,-34.4935 3374.6147,-22.2863 3407.6996,-15.931"/>
<polygon fill="#191970" stroke="#191970" points="2853.7598,-421.1462 2863.4843,-425.3515 2858.5048,-415.9998 2853.7598,-421.1462"/>
</g>
<!-- Node5 -->
<g id="node5" class="node">
<title>Node5</title>
<g id="a_node5"><a xlink:href="sitkImage_8h.html" target="_top" xlink:title=" ">
<polygon fill="#ffffff" stroke="#000000" points="3710.5,-369.5 3710.5,-388.5 3784.5,-388.5 3784.5,-369.5 3710.5,-369.5"/>
<text text-anchor="middle" x="3747.5" y="-376.5" font-family="Helvetica,sans-Serif" font-size="10.00" fill="#000000">sitkImage.h</text>
</a>
</g>
</g>
<!-- Node3&#45;&gt;Node5 -->
<g id="edge4" class="edge">
<title>Node3&#45;&gt;Node5</title>
<path fill="none" stroke="#191970" d="M2921.3153,-431.997C3076.3228,-422.0537 3570.9072,-390.3278 3710.4973,-381.3736"/>
<polygon fill="#191970" stroke="#191970" points="2920.9321,-428.5142 2911.1767,-432.6473 2921.3803,-435.4999 2920.9321,-428.5142"/>
</g>
<!-- Node324 -->
<g id="node9" class="node">
<title>Node324</title>
<g id="a_node9"><a xlink:href="sitkImageRegistrationMethod_8h.html" target="_top" xlink:title=" ">
<polygon fill="#ffffff" stroke="#000000" points="4113,-196 4113,-215 4282,-215 4282,-196 4113,-196"/>
<text text-anchor="middle" x="4197.5" y="-203" font-family="Helvetica,sans-Serif" font-size="10.00" fill="#000000">sitkImageRegistrationMethod.h</text>
</a>
</g>
</g>
<!-- Node3&#45;&gt;Node324 -->
<g id="edge135" class="edge">
<title>Node3&#45;&gt;Node324</title>
<path fill="none" stroke="#191970" d="M2921.306,-434.5908C3084.0104,-432.8671 3624.2666,-424.5397 3793.5,-389 3926.2865,-361.1143 3956.0835,-337.5633 4077.5,-277 4116.9962,-257.2991 4160.9856,-229.472 4183.1168,-215.0306"/>
<polygon fill="#191970" stroke="#191970" points="2921.1065,-431.0926 2911.1429,-434.695 2921.1783,-438.0922 2921.1065,-431.0926"/>
</g>
<!-- Node3&#45;&gt;Node335 -->
<g id="edge110" class="edge">
<title>Node3&#45;&gt;Node335</title>
<path fill="none" stroke="#191970" d="M2827.9547,-428.4142C2598.8178,-395.9932 1590.8128,-253.3685 1319.7912,-215.0212"/>
<polygon fill="#191970" stroke="#191970" points="2827.5706,-431.8946 2837.9623,-429.8302 2828.5513,-424.9637 2827.5706,-431.8946"/>
</g>
<!-- Node3&#45;&gt;Node336 -->
<g id="edge124" class="edge">
<title>Node3&#45;&gt;Node336</title>
<path fill="none" stroke="#191970" d="M2878.9742,-415.7267C2887.3095,-379.8207 2904.9381,-303.8822 2911.2185,-276.8279"/>
<polygon fill="#191970" stroke="#191970" points="2875.5606,-414.9538 2876.7086,-425.4862 2882.3793,-416.5367 2875.5606,-414.9538"/>
</g>
<!-- Node5&#45;&gt;Node4 -->
<g id="edge9" class="edge">
<title>Node5&#45;&gt;Node4</title>
<path fill="none" stroke="#191970" d="M3794.8201,-367.7329C3851.6709,-354.1949 3939.6024,-333.2498 3940.5,-333 4019.3772,-311.0489 4243.2005,-287.1106 4291.5,-221 4299.6278,-209.875 4298.923,-201.6071 4291.5,-190 4215.0038,-70.3858 4138.7948,-92.1848 4001.5,-56 3903.1577,-30.0814 3592.0188,-15.7315 3483.3785,-11.4114"/>
<polygon fill="#191970" stroke="#191970" points="3793.8588,-364.3639 3784.9416,-370.0852 3795.4804,-371.1735 3793.8588,-364.3639"/>
</g>
<!-- Node6 -->
<g id="node6" class="node">
<title>Node6</title>
<g id="a_node6"><a xlink:href="sitkAdditionalProcedures_8h.html" target="_top" xlink:title=" ">
<polygon fill="#ffffff" stroke="#000000" points="4376,-196 4376,-215 4523,-215 4523,-196 4376,-196"/>
<text text-anchor="middle" x="4449.5" y="-203" font-family="Helvetica,sans-Serif" font-size="10.00" fill="#000000">sitkAdditionalProcedures.h</text>
</a>
</g>
</g>
<!-- Node5&#45;&gt;Node6 -->
<g id="edge5" class="edge">
<title>Node5&#45;&gt;Node6</title>
<path fill="none" stroke="#191970" d="M3794.8778,-374.8792C3921.3462,-363.2992 4264.0892,-327.9537 4364.5,-277 4396.1409,-260.9437 4426.2092,-231.0313 4440.6197,-215.4757"/>
<polygon fill="#191970" stroke="#191970" points="3794.3776,-371.4101 3784.7348,-375.7993 3795.0101,-378.3815 3794.3776,-371.4101"/>
</g>
<!-- Node7 -->
<g id="node7" class="node">
<title>Node7</title>
<g id="a_node7"><a xlink:href="sitkHashImageFilter_8h.html" target="_top" xlink:title=" ">
<polygon fill="#ffffff" stroke="#000000" points="3258.5,-129 3258.5,-148 3380.5,-148 3380.5,-129 3258.5,-129"/>
<text text-anchor="middle" x="3319.5" y="-136" font-family="Helvetica,sans-Serif" font-size="10.00" fill="#000000">sitkHashImageFilter.h</text>
</a>
</g>
</g>
<!-- Node5&#45;&gt;Node7 -->
<g id="edge7" class="edge">
<title>Node5&#45;&gt;Node7</title>
<path fill="none" stroke="#191970" d="M3700.3556,-371.1425C3588.3335,-351.3784 3311.7918,-295.7853 3261.5,-221 3243.5227,-194.2673 3281.3507,-163.3432 3304.0509,-148.063"/>
<polygon fill="#191970" stroke="#191970" points="3699.9012,-374.616 3710.3541,-372.8883 3701.1052,-367.7204 3699.9012,-374.616"/>
</g>
<!-- Node8 -->
<g id="node8" class="node">
<title>Node8</title>
<g id="a_node8"><a xlink:href="sitkTransform_8h.html" target="_top" xlink:title=" ">
<polygon fill="#ffffff" stroke="#ff0000" points="4263.5,-257.5 4263.5,-276.5 4355.5,-276.5 4355.5,-257.5 4263.5,-257.5"/>
<text text-anchor="middle" x="4309.5" y="-264.5" font-family="Helvetica,sans-Serif" font-size="10.00" fill="#000000">sitkTransform.h</text>
</a>
</g>
</g>
<!-- Node5&#45;&gt;Node8 -->
<g id="edge10" class="edge">
<title>Node5&#45;&gt;Node8</title>
<path fill="none" stroke="#191970" d="M3795.0455,-376.7303C3863.1,-372.5911 3991.7451,-361.443 4097.5,-333 4119.818,-326.9975 4123.667,-320.5791 4145.5,-313 4187.5432,-298.4051 4236.8337,-285.0723 4270.3195,-276.5619"/>
<polygon fill="#191970" stroke="#191970" points="3794.4355,-373.2598 3784.6562,-377.336 3794.843,-380.2479 3794.4355,-373.2598"/>
</g>
<!-- Node5&#45;&gt;Node324 -->
<g id="edge109" class="edge">
<title>Node5&#45;&gt;Node324</title>
<path fill="none" stroke="#191970" d="M3794.226,-366.8328C3825.4731,-358.3039 3867.3328,-346.1189 3903.5,-333 4009.1468,-294.6788 4131.1199,-237.4492 4177.8766,-215.0106"/>
<polygon fill="#191970" stroke="#191970" points="3793.2139,-363.4807 3784.4744,-369.47 3795.0414,-370.2379 3793.2139,-363.4807"/>
</g>
<!-- Node325 -->
<g id="node10" class="node">
<title>Node325</title>
<g id="a_node10"><a xlink:href="sitkProcessObject_8h.html" target="_top" xlink:title=" ">
<polygon fill="#ffffff" stroke="#000000" points="3588,-257.5 3588,-276.5 3701,-276.5 3701,-257.5 3588,-257.5"/>
<text text-anchor="middle" x="3644.5" y="-264.5" font-family="Helvetica,sans-Serif" font-size="10.00" fill="#000000">sitkProcessObject.h</text>
</a>
</g>
</g>
<!-- Node5&#45;&gt;Node325 -->
<g id="edge15" class="edge">
<title>Node5&#45;&gt;Node325</title>
<path fill="none" stroke="#191970" d="M3738.9526,-360.0533C3732.0415,-346.0562 3721.3635,-327.0694 3708.5,-313 3694.7426,-297.9529 3675.319,-284.8386 3661.4855,-276.5045"/>
<polygon fill="#191970" stroke="#191970" points="3735.852,-361.6835 3743.2967,-369.2219 3742.1779,-358.6863 3735.852,-361.6835"/>
</g>
<!-- Node327 -->
<g id="node38" class="node">
<title>Node327</title>
<g id="a_node38"><a xlink:href="sitkImageFileReader_8h.html" target="_top" xlink:title=" ">
<polygon fill="#ffffff" stroke="#000000" points="3584.5,-129 3584.5,-148 3708.5,-148 3708.5,-129 3584.5,-129"/>
<text text-anchor="middle" x="3646.5" y="-136" font-family="Helvetica,sans-Serif" font-size="10.00" fill="#000000">sitkImageFileReader.h</text>
</a>
</g>
</g>
<!-- Node5&#45;&gt;Node327 -->
<g id="edge102" class="edge">
<title>Node5&#45;&gt;Node327</title>
<path fill="none" stroke="#191970" d="M3763.5329,-361.9145C3794.5417,-326.7551 3856.2354,-244.9982 3815.5,-190 3801.7625,-171.4525 3745.7683,-156.9136 3701.9499,-148.0804"/>
<polygon fill="#191970" stroke="#191970" points="3760.8448,-359.6689 3756.7354,-369.4343 3766.0377,-364.363 3760.8448,-359.6689"/>
</g>
<!-- Node328 -->
<g id="node39" class="node">
<title>Node328</title>
<g id="a_node39"><a xlink:href="sitkImageSeriesReader_8h.html" target="_top" xlink:title=" ">
<polygon fill="#ffffff" stroke="#000000" points="3025,-129 3025,-148 3162,-148 3162,-129 3025,-129"/>
<text text-anchor="middle" x="3093.5" y="-136" font-family="Helvetica,sans-Serif" font-size="10.00" fill="#000000">sitkImageSeriesReader.h</text>
</a>
</g>
</g>
<!-- Node5&#45;&gt;Node328 -->
<g id="edge104" class="edge">
<title>Node5&#45;&gt;Node328</title>
<path fill="none" stroke="#191970" d="M3700.0725,-378.1284C3534.0944,-374.4112 2981.0123,-356.2176 2825.5,-277 2795.504,-261.7201 2786.6529,-252.3933 2774.5,-221 2769.5261,-208.1514 2765.5322,-200.4598 2774.5,-190 2808.6013,-150.2252 2955.8264,-162.6472 3007.5,-154 3018.5727,-152.1471 3030.4299,-150.0702 3041.6928,-148.0538"/>
<polygon fill="#191970" stroke="#191970" points="3700.3636,-381.6354 3710.4371,-378.3528 3700.5152,-374.637 3700.3636,-381.6354"/>
</g>
<!-- Node329 -->
<g id="node40" class="node">
<title>Node329</title>
<g id="a_node40"><a xlink:href="sitkImportImageFilter_8h.html" target="_top" xlink:title=" ">
<polygon fill="#ffffff" stroke="#000000" points="3398.5,-129 3398.5,-148 3528.5,-148 3528.5,-129 3398.5,-129"/>
<text text-anchor="middle" x="3463.5" y="-136" font-family="Helvetica,sans-Serif" font-size="10.00" fill="#000000">sitkImportImageFilter.h</text>
</a>
</g>
</g>
<!-- Node5&#45;&gt;Node329 -->
<g id="edge107" class="edge">
<title>Node5&#45;&gt;Node329</title>
<path fill="none" stroke="#191970" d="M3700.0878,-371.3223C3652.6339,-362.9329 3583.5899,-348.5936 3561.5,-333 3495.086,-286.1172 3471.1037,-180.7947 3465.1254,-148.2611"/>
<polygon fill="#191970" stroke="#191970" points="3699.7064,-374.8084 3710.1578,-373.0711 3700.9041,-367.9116 3699.7064,-374.8084"/>
</g>
<!-- Node330 -->
<g id="node41" class="node">
<title>Node330</title>
<g id="a_node41"><a xlink:href="sitkImageFileWriter_8h.html" target="_top" xlink:title=" ">
<polygon fill="#ffffff" stroke="#000000" points="3497,-196 3497,-215 3616,-215 3616,-196 3497,-196"/>
<text text-anchor="middle" x="3556.5" y="-203" font-family="Helvetica,sans-Serif" font-size="10.00" fill="#000000">sitkImageFileWriter.h</text>
</a>
</g>
</g>
<!-- Node5&#45;&gt;Node330 -->
<g id="edge103" class="edge">
<title>Node5&#45;&gt;Node330</title>
<path fill="none" stroke="#191970" d="M3700.2717,-372.0404C3655.8724,-364.507 3593.8566,-351.0984 3577.5,-333 3546.965,-299.2134 3551.6518,-238.8383 3554.9012,-215.2874"/>
<polygon fill="#191970" stroke="#191970" points="3699.8603,-375.5198 3710.2965,-373.6934 3700.9992,-368.613 3699.8603,-375.5198"/>
</g>
<!-- Node331 -->
<g id="node42" class="node">
<title>Node331</title>
<g id="a_node42"><a xlink:href="sitkImageSeriesWriter_8h.html" target="_top" xlink:title=" ">
<polygon fill="#ffffff" stroke="#000000" points="3673,-196 3673,-215 3806,-215 3806,-196 3673,-196"/>
<text text-anchor="middle" x="3739.5" y="-203" font-family="Helvetica,sans-Serif" font-size="10.00" fill="#000000">sitkImageSeriesWriter.h</text>
</a>
</g>
</g>
<!-- Node5&#45;&gt;Node331 -->
<g id="edge105" class="edge">
<title>Node5&#45;&gt;Node331</title>
<path fill="none" stroke="#191970" d="M3746.5941,-359.3528C3744.8812,-322.2047 3741.2252,-242.9161 3739.95,-215.2595"/>
<polygon fill="#191970" stroke="#191970" points="3743.1015,-359.5966 3747.0585,-369.4248 3750.0941,-359.2741 3743.1015,-359.5966"/>
</g>
<!-- Node332 -->
<g id="node43" class="node">
<title>Node332</title>
<g id="a_node43"><a xlink:href="sitkImageViewer_8h.html" target="_top" xlink:title=" ">
<polygon fill="#ffffff" stroke="#000000" points="3901,-196 3901,-215 4008,-215 4008,-196 3901,-196"/>
<text text-anchor="middle" x="3954.5" y="-203" font-family="Helvetica,sans-Serif" font-size="10.00" fill="#000000">sitkImageViewer.h</text>
</a>
</g>
</g>
<!-- Node5&#45;&gt;Node332 -->
<g id="edge106" class="edge">
<title>Node5&#45;&gt;Node332</title>
<path fill="none" stroke="#191970" d="M3786.8668,-365.849C3806.5432,-358.1331 3830.0306,-347.1075 3848.5,-333 3894.9385,-297.5288 3934.3812,-238.1408 3948.7225,-215.0708"/>
<polygon fill="#191970" stroke="#191970" points="3785.3818,-362.6685 3777.2628,-369.4754 3787.8545,-369.2173 3785.3818,-362.6685"/>
</g>
<!-- Node333 -->
<g id="node44" class="node">
<title>Node333</title>
<g id="a_node44"><a xlink:href="sitkShow_8h.html" target="_top" xlink:title=" ">
<polygon fill="#ffffff" stroke="#000000" points="4026,-196 4026,-215 4095,-215 4095,-196 4026,-196"/>
<text text-anchor="middle" x="4060.5" y="-203" font-family="Helvetica,sans-Serif" font-size="10.00" fill="#000000">sitkShow.h</text>
</a>
</g>
</g>
<!-- Node5&#45;&gt;Node333 -->
<g id="edge108" class="edge">
<title>Node5&#45;&gt;Node333</title>
<path fill="none" stroke="#191970" d="M3789.8125,-366.2826C3814.547,-358.1542 3846.0118,-346.598 3872.5,-333 3943.3697,-296.6183 4019.4506,-238.2675 4048.394,-215.2695"/>
<polygon fill="#191970" stroke="#191970" points="3788.4475,-363.0451 3780.0029,-369.4435 3790.5944,-369.7078 3788.4475,-363.0451"/>
</g>
<!-- Node334 -->
<g id="node45" class="node">
<title>Node334</title>
<g id="a_node45"><a xlink:href="sitkImageConvert_8h.html" target="_top" xlink:title=" ">
<polygon fill="#ffffff" stroke="#000000" points="3587,-313.5 3587,-332.5 3700,-332.5 3700,-313.5 3587,-313.5"/>
<text text-anchor="middle" x="3643.5" y="-320.5" font-family="Helvetica,sans-Serif" font-size="10.00" fill="#000000">sitkImageConvert.h</text>
</a>
</g>
</g>
<!-- Node5&#45;&gt;Node334 -->
<g id="edge100" class="edge">
<title>Node5&#45;&gt;Node334</title>
<path fill="none" stroke="#191970" d="M3720.4971,-364.46C3701.8864,-354.4388 3677.6701,-341.3993 3661.4078,-332.6427"/>
<polygon fill="#191970" stroke="#191970" points="3718.9205,-367.5861 3729.3846,-369.2455 3722.2392,-361.4228 3718.9205,-367.5861"/>
</g>
<!-- Node6&#45;&gt;Node4 -->
<g id="edge6" class="edge">
<title>Node6&#45;&gt;Node4</title>
<path fill="none" stroke="#191970" d="M4444.5273,-186.0244C4434.8659,-152.6854 4410.1065,-85.4329 4361.5,-56 4323.363,-32.9068 3650.6533,-15.008 3483.0717,-10.8941"/>
<polygon fill="#191970" stroke="#191970" points="4441.2218,-187.2057 4447.2376,-195.9269 4447.9734,-185.3577 4441.2218,-187.2057"/>
</g>
<!-- Node7&#45;&gt;Node4 -->
<g id="edge8" class="edge">
<title>Node7&#45;&gt;Node4</title>
<path fill="none" stroke="#191970" d="M3349.9933,-124.3987C3366.9509,-115.4536 3387.5781,-102.6253 3402.5,-87 3422.1688,-66.4041 3435.9558,-35.0889 3442.0249,-19.5032"/>
<polygon fill="#191970" stroke="#191970" points="3348.3402,-121.3127 3341.0094,-128.9619 3351.5102,-127.5538 3348.3402,-121.3127"/>
</g>
<!-- Node8&#45;&gt;Node4 -->
<g id="edge12" class="edge">
<title>Node8&#45;&gt;Node4</title>
<path fill="none" stroke="#191970" d="M4318.7174,-248.2357C4337.3894,-207.2217 4373.8217,-109.0272 4323.5,-56 4294.1622,-25.0849 3647.5495,-13.0978 3483.2156,-10.5446"/>
<polygon fill="#191970" stroke="#191970" points="4315.5106,-246.8304 4314.4166,-257.3687 4321.8435,-249.8128 4315.5106,-246.8304"/>
</g>
<!-- Node8&#45;&gt;Node6 -->
<g id="edge11" class="edge">
<title>Node8&#45;&gt;Node6</title>
<path fill="none" stroke="#191970" d="M4340.5895,-253.3428C4367.0618,-241.7139 4404.4152,-225.3051 4427.7786,-215.0419"/>
<polygon fill="#191970" stroke="#191970" points="4339.1229,-250.1642 4331.375,-257.3906 4341.9383,-256.5731 4339.1229,-250.1642"/>
</g>
<!-- Node8&#45;&gt;Node324 -->
<g id="edge13" class="edge">
<title>Node8&#45;&gt;Node324</title>
<path fill="none" stroke="#191970" d="M4283.2227,-252.571C4262.1453,-240.9972 4233.158,-225.0801 4214.8771,-215.0419"/>
<polygon fill="#191970" stroke="#191970" points="4281.5499,-255.6453 4292,-257.3906 4284.9192,-249.5095 4281.5499,-255.6453"/>
</g>
<!-- Node324&#45;&gt;Node4 -->
<g id="edge14" class="edge">
<title>Node324&#45;&gt;Node4</title>
<path fill="none" stroke="#191970" d="M4178.1626,-189.3915C4138.5688,-157.4499 4044.1682,-86.5417 3951.5,-56 3864.3722,-27.2844 3584.788,-14.8644 3483.007,-11.2165"/>
<polygon fill="#191970" stroke="#191970" points="4176.2208,-192.3244 4186.1811,-195.9358 4180.6468,-186.9013 4176.2208,-192.3244"/>
</g>
<!-- Node325&#45;&gt;Node4 -->
<g id="edge83" class="edge">
<title>Node325&#45;&gt;Node4</title>
<path fill="none" stroke="#191970" d="M3711.4051,-257.4867C3753.6269,-249.9578 3802.5571,-237.8848 3815.5,-221 3823.882,-210.0652 3821.0223,-202.6227 3815.5,-190 3780.3291,-109.6075 3748.5818,-96.0397 3670.5,-56 3638.3038,-39.4901 3538.6626,-23.2684 3483.395,-15.2251"/>
<polygon fill="#191970" stroke="#191970" points="3710.6624,-254.063 3701.4018,-259.2099 3711.8509,-260.9614 3710.6624,-254.063"/>
</g>
<!-- Node325&#45;&gt;Node7 -->
<g id="edge82" class="edge">
<title>Node325&#45;&gt;Node7</title>
<path fill="none" stroke="#191970" d="M3645.0369,-247.1838C3644.3681,-229.5319 3640.3858,-204.3411 3624.5,-190 3585.2847,-154.5978 3441.4303,-163.7161 3389.5,-154 3380.0792,-152.2374 3369.9927,-150.1328 3360.4933,-148.0514"/>
<polygon fill="#191970" stroke="#191970" points="3641.5373,-247.2913 3645.0959,-257.2706 3648.5372,-247.2503 3641.5373,-247.2913"/>
</g>
<!-- Node325&#45;&gt;Node324 -->
<g id="edge99" class="edge">
<title>Node325&#45;&gt;Node324</title>
<path fill="none" stroke="#191970" d="M3711.3209,-261.6992C3800.9779,-254.2714 3965.0797,-239.5691 4104.5,-221 4117.318,-219.2928 4131.0812,-217.1632 4143.9857,-215.0345"/>
<polygon fill="#191970" stroke="#191970" points="3710.9711,-258.216 3701.2923,-262.5253 3711.5459,-265.1924 3710.9711,-258.216"/>
</g>
<!-- Node11 -->
<g id="node11" class="node">
<title>Node11</title>
<g id="a_node11"><a xlink:href="sitkImageFilter_8h.html" target="_top" xlink:title=" ">
<polygon fill="#ffffff" stroke="#ff0000" points="2001.5,-196 2001.5,-215 2099.5,-215 2099.5,-196 2001.5,-196"/>
<text text-anchor="middle" x="2050.5" y="-203" font-family="Helvetica,sans-Serif" font-size="10.00" fill="#000000">sitkImageFilter.h</text>
</a>
</g>
</g>
<!-- Node325&#45;&gt;Node11 -->
<g id="edge16" class="edge">
<title>Node325&#45;&gt;Node11</title>
<path fill="none" stroke="#191970" d="M3577.4815,-264.4143C3311.1875,-254.1401 2331.1782,-216.3292 2099.7211,-207.3991"/>
<polygon fill="#191970" stroke="#191970" points="3577.6412,-267.923 3587.7687,-264.8112 3577.9111,-260.9282 3577.6412,-267.923"/>
</g>
<!-- Node308 -->
<g id="node35" class="node">
<title>Node308</title>
<g id="a_node35"><a xlink:href="sitkCenteredTransformInitializerFilter_8h.html" target="_top" xlink:title=" ">
<polygon fill="#ffffff" stroke="#000000" points="2827,-190.5 2827,-220.5 3000,-220.5 3000,-190.5 2827,-190.5"/>
<text text-anchor="start" x="2835" y="-208.5" font-family="Helvetica,sans-Serif" font-size="10.00" fill="#000000">sitkCenteredTransformInitializer</text>
<text text-anchor="middle" x="2913.5" y="-197.5" font-family="Helvetica,sans-Serif" font-size="10.00" fill="#000000">Filter.h</text>
</a>
</g>
</g>
<!-- Node325&#45;&gt;Node308 -->
<g id="edge78" class="edge">
<title>Node325&#45;&gt;Node308</title>
<path fill="none" stroke="#191970" d="M3577.7162,-264.0932C3461.8018,-258.6171 3215.9798,-245.1006 3009.5,-221 3006.3978,-220.6379 3003.2426,-220.2472 3000.0583,-219.8339"/>
<polygon fill="#191970" stroke="#191970" points="3577.6993,-267.5962 3587.8519,-264.5672 3578.0263,-260.6038 3577.6993,-267.5962"/>
</g>
<!-- Node309 -->
<g id="node36" class="node">
<title>Node309</title>
<g id="a_node36"><a xlink:href="sitkCenteredVersorTransformInitializerFilter_8h.html" target="_top" xlink:title=" ">
<polygon fill="#ffffff" stroke="#000000" points="3018.5,-190.5 3018.5,-220.5 3176.5,-220.5 3176.5,-190.5 3018.5,-190.5"/>
<text text-anchor="start" x="3026.5" y="-208.5" font-family="Helvetica,sans-Serif" font-size="10.00" fill="#000000">sitkCenteredVersorTransform</text>
<text text-anchor="middle" x="3097.5" y="-197.5" font-family="Helvetica,sans-Serif" font-size="10.00" fill="#000000">InitializerFilter.h</text>
</a>
</g>
</g>
<!-- Node325&#45;&gt;Node309 -->
<g id="edge80" class="edge">
<title>Node325&#45;&gt;Node309</title>
<path fill="none" stroke="#191970" d="M3577.6721,-259.4864C3476.5298,-248.1149 3284.9411,-226.5743 3176.8572,-214.4222"/>
<polygon fill="#191970" stroke="#191970" points="3577.4373,-262.982 3587.7658,-260.6213 3578.2194,-256.0258 3577.4373,-262.982"/>
</g>
<!-- Node326 -->
<g id="node37" class="node">
<title>Node326</title>
<g id="a_node37"><a xlink:href="sitkImageReaderBase_8h.html" target="_top" xlink:title=" ">
<polygon fill="#ffffff" stroke="#000000" points="3270.5,-196 3270.5,-215 3402.5,-215 3402.5,-196 3270.5,-196"/>
<text text-anchor="middle" x="3336.5" y="-203" font-family="Helvetica,sans-Serif" font-size="10.00" fill="#000000">sitkImageReaderBase.h</text>
</a>
</g>
</g>
<!-- Node325&#45;&gt;Node326 -->
<g id="edge84" class="edge">
<title>Node325&#45;&gt;Node326</title>
<path fill="none" stroke="#191970" d="M3586.8811,-255.4949C3528.3613,-243.81 3438.7922,-225.9252 3384.1457,-215.0137"/>
<polygon fill="#191970" stroke="#191970" points="3586.2212,-258.9322 3596.7129,-257.4581 3587.5919,-252.0677 3586.2212,-258.9322"/>
</g>
<!-- Node325&#45;&gt;Node330 -->
<g id="edge91" class="edge">
<title>Node325&#45;&gt;Node330</title>
<path fill="none" stroke="#191970" d="M3622.2761,-251.4685C3605.8712,-240.0037 3584.0661,-224.765 3570.1534,-215.0419"/>
<polygon fill="#191970" stroke="#191970" points="3620.5483,-254.5311 3630.75,-257.3906 3624.5582,-248.7934 3620.5483,-254.5311"/>
</g>
<!-- Node325&#45;&gt;Node331 -->
<g id="edge93" class="edge">
<title>Node325&#45;&gt;Node331</title>
<path fill="none" stroke="#191970" d="M3668.0013,-251.786C3685.7649,-240.2864 3709.6021,-224.855 3724.7605,-215.0419"/>
<polygon fill="#191970" stroke="#191970" points="3665.8362,-249.0182 3659.3438,-257.3906 3669.6403,-254.8943 3665.8362,-249.0182"/>
</g>
<!-- Node325&#45;&gt;Node332 -->
<g id="edge95" class="edge">
<title>Node325&#45;&gt;Node332</title>
<path fill="none" stroke="#191970" d="M3708.0715,-255.5672C3756.953,-246.6188 3826.1179,-233.6162 3886.5,-221 3895.3893,-219.1427 3904.9065,-217.0432 3913.9208,-215.003"/>
<polygon fill="#191970" stroke="#191970" points="3707.1677,-252.1743 3697.959,-257.4136 3708.4251,-259.0604 3707.1677,-252.1743"/>
</g>
<!-- Node325&#45;&gt;Node333 -->
<g id="edge97" class="edge">
<title>Node325&#45;&gt;Node333</title>
<path fill="none" stroke="#191970" d="M3711.4014,-263.2612C3786.6731,-258.017 3912.1844,-246.1411 4017.5,-221 4023.8292,-219.4891 4030.5156,-217.3558 4036.681,-215.1538"/>
<polygon fill="#191970" stroke="#191970" points="3710.8614,-259.7897 3701.121,-263.9579 3711.3348,-266.7737 3710.8614,-259.7897"/>
</g>
<!-- Node11&#45;&gt;Node4 -->
<g id="edge28" class="edge">
<title>Node11&#45;&gt;Node4</title>
<path fill="none" stroke="#191970" d="M2109.9637,-203.4687C2279.3839,-197.3953 2753.8801,-178.2814 2776.5,-154 2785.8914,-143.9189 2781.6828,-135.7658 2776.5,-123 2768.1057,-102.3237 2749.8943,-107.6763 2741.5,-87 2736.3172,-74.2342 2732.0806,-66.055 2741.5,-56 2764.4493,-31.5023 3264.4719,-15.2255 3407.5602,-11.0572"/>
<polygon fill="#191970" stroke="#191970" points="2109.5994,-199.9794 2099.7303,-203.833 2109.8485,-206.975 2109.5994,-199.9794"/>
</g>
<!-- Node11&#45;&gt;Node7 -->
<g id="edge23" class="edge">
<title>Node11&#45;&gt;Node7</title>
<path fill="none" stroke="#191970" d="M2109.7512,-203.9801C2276.763,-199.4359 2765.5339,-184.3489 3170.5,-154 3199.4174,-151.8329 3231.4105,-148.6132 3258.3144,-145.6689"/>
<polygon fill="#191970" stroke="#191970" points="2109.5897,-200.483 2099.6878,-204.2517 2109.7787,-207.4805 2109.5897,-200.483"/>
</g>
<!-- Node10 -->
<g id="node12" class="node">
<title>Node10</title>
<g id="a_node12"><a xlink:href="sitkBSplineTransformInitializerFilter_8h.html" target="_top" xlink:title=" ">
<polygon fill="#ffffff" stroke="#000000" points="2750.5,-56.5 2750.5,-86.5 2916.5,-86.5 2916.5,-56.5 2750.5,-56.5"/>
<text text-anchor="start" x="2758.5" y="-74.5" font-family="Helvetica,sans-Serif" font-size="10.00" fill="#000000">sitkBSplineTransformInitializer</text>
<text text-anchor="middle" x="2833.5" y="-63.5" font-family="Helvetica,sans-Serif" font-size="10.00" fill="#000000">Filter.h</text>
</a>
</g>
</g>
<!-- Node11&#45;&gt;Node10 -->
<g id="edge17" class="edge">
<title>Node11&#45;&gt;Node10</title>
<path fill="none" stroke="#191970" d="M2109.7692,-203.3426C2283.8979,-196.7608 2783.4288,-176.039 2810.5,-154 2830.4487,-137.7596 2833.9391,-105.793 2834.1055,-86.7718"/>
<polygon fill="#191970" stroke="#191970" points="2109.6182,-199.8457 2099.7568,-203.719 2109.8813,-206.8408 2109.6182,-199.8457"/>
</g>
<!-- Node12 -->
<g id="node13" class="node">
<title>Node12</title>
<g id="a_node13"><a xlink:href="sitkCastImageFilter_8h.html" target="_top" xlink:title=" ">
<polygon fill="#ffffff" stroke="#000000" points="2649,-129 2649,-148 2768,-148 2768,-129 2649,-129"/>
<text text-anchor="middle" x="2708.5" y="-136" font-family="Helvetica,sans-Serif" font-size="10.00" fill="#000000">sitkCastImageFilter.h</text>
</a>
</g>
</g>
<!-- Node11&#45;&gt;Node12 -->
<g id="edge19" class="edge">
<title>Node11&#45;&gt;Node12</title>
<path fill="none" stroke="#191970" d="M2109.7234,-202.6021C2215.5176,-196.9089 2443.7675,-182.2835 2634.5,-154 2645.1469,-152.4212 2656.5656,-150.2635 2667.1692,-148.0598"/>
<polygon fill="#191970" stroke="#191970" points="2109.3683,-199.1159 2099.568,-203.1413 2109.7395,-206.1061 2109.3683,-199.1159"/>
</g>
<!-- Node13 -->
<g id="node14" class="node">
<title>Node13</title>
<g id="a_node14"><a xlink:href="sitkExtractImageFilter_8h.html" target="_top" xlink:title=" ">
<polygon fill="#ffffff" stroke="#000000" points="2934.5,-62 2934.5,-81 3066.5,-81 3066.5,-62 2934.5,-62"/>
<text text-anchor="middle" x="3000.5" y="-69" font-family="Helvetica,sans-Serif" font-size="10.00" fill="#000000">sitkExtractImageFilter.h</text>
</a>
</g>
</g>
<!-- Node11&#45;&gt;Node13 -->
<g id="edge21" class="edge">
<title>Node11&#45;&gt;Node13</title>
<path fill="none" stroke="#191970" d="M2109.669,-204.6205C2267.8765,-201.7912 2697.8979,-190.839 2834.5,-154 2894.4696,-137.8273 2958.3665,-99.1491 2986.1838,-81.0916"/>
<polygon fill="#191970" stroke="#191970" points="2109.5847,-201.1214 2099.6473,-204.7954 2109.7068,-208.1203 2109.5847,-201.1214"/>
</g>
<!-- Node14 -->
<g id="node15" class="node">
<title>Node14</title>
<g id="a_node15"><a xlink:href="sitkLandmarkBasedTransformInitializerFilter_8h.html" target="_top" xlink:title=" ">
<polygon fill="#ffffff" stroke="#000000" points="3084.5,-56.5 3084.5,-86.5 3246.5,-86.5 3246.5,-56.5 3084.5,-56.5"/>
<text text-anchor="start" x="3092.5" y="-74.5" font-family="Helvetica,sans-Serif" font-size="10.00" fill="#000000">sitkLandmarkBasedTransform</text>
<text text-anchor="middle" x="3165.5" y="-63.5" font-family="Helvetica,sans-Serif" font-size="10.00" fill="#000000">InitializerFilter.h</text>
</a>
</g>
</g>
<!-- Node11&#45;&gt;Node14 -->
<g id="edge24" class="edge">
<title>Node11&#45;&gt;Node14</title>
<path fill="none" stroke="#191970" d="M2110.1009,-203.8417C2275.4408,-198.9211 2737.4735,-182.9139 2886.5,-154 2929.2716,-145.7015 2937.8248,-135.7062 2979.5,-123 3022.4471,-109.9061 3071.3955,-96.4095 3108.2957,-86.5194"/>
<polygon fill="#191970" stroke="#191970" points="2109.5383,-200.3566 2099.6458,-204.1498 2109.7446,-207.3536 2109.5383,-200.3566"/>
</g>
<!-- Node15 -->
<g id="node16" class="node">
<title>Node15</title>
<g id="a_node16"><a xlink:href="sitkPasteImageFilter_8h.html" target="_top" xlink:title=" ">
<polygon fill="#ffffff" stroke="#000000" points="2532.5,-62 2532.5,-81 2656.5,-81 2656.5,-62 2532.5,-62"/>
<text text-anchor="middle" x="2594.5" y="-69" font-family="Helvetica,sans-Serif" font-size="10.00" fill="#000000">sitkPasteImageFilter.h</text>
</a>
</g>
</g>
<!-- Node11&#45;&gt;Node15 -->
<g id="edge26" class="edge">
<title>Node11&#45;&gt;Node15</title>
<path fill="none" stroke="#191970" d="M2109.7531,-204.3597C2245.1208,-201.1422 2567.9305,-189.7616 2600.5,-154 2618.8723,-133.827 2606.6682,-98.1538 2599.1543,-81.1007"/>
<polygon fill="#191970" stroke="#191970" points="2109.4799,-200.865 2099.5634,-204.5949 2109.6415,-207.8632 2109.4799,-200.865"/>
</g>
<!-- Node16 -->
<g id="node17" class="node">
<title>Node16</title>
<g id="a_node17"><a xlink:href="sitkAbsImageFilter_8h.html" target="_top" xlink:title=" ">
<polygon fill="#ffffff" stroke="#000000" points="2163.5,-129 2163.5,-148 2279.5,-148 2279.5,-129 2163.5,-129"/>
<text text-anchor="middle" x="2221.5" y="-136" font-family="Helvetica,sans-Serif" font-size="10.00" fill="#000000">sitkAbsImageFilter.h</text>
</a>
</g>
</g>
<!-- Node11&#45;&gt;Node16 -->
<g id="edge29" class="edge">
<title>Node11&#45;&gt;Node16</title>
<path fill="none" stroke="#191970" d="M2084.3206,-192.2487C2117.5608,-179.2247 2167.4796,-159.6659 2197.0453,-148.0817"/>
<polygon fill="#191970" stroke="#191970" points="2083.0341,-188.9936 2075.0001,-195.9005 2085.5878,-195.5112 2083.0341,-188.9936"/>
</g>
<!-- Node19 -->
<g id="node20" class="node">
<title>Node19</title>
<g id="a_node20"><a xlink:href="sitkAbsoluteValueDifferenceImageFilter_8h.html" target="_top" xlink:title=" ">
<polygon fill="#ffffff" stroke="#000000" points="2298,-123.5 2298,-153.5 2453,-153.5 2453,-123.5 2298,-123.5"/>
<text text-anchor="start" x="2306" y="-141.5" font-family="Helvetica,sans-Serif" font-size="10.00" fill="#000000">sitkAbsoluteValueDifference</text>
<text text-anchor="middle" x="2375.5" y="-130.5" font-family="Helvetica,sans-Serif" font-size="10.00" fill="#000000">ImageFilter.h</text>
</a>
</g>
</g>
<!-- Node11&#45;&gt;Node19 -->
<g id="edge33" class="edge">
<title>Node11&#45;&gt;Node19</title>
<path fill="none" stroke="#191970" d="M2106.8366,-193.886C2161.0396,-182.7118 2243.2655,-165.7606 2302.4703,-153.5553"/>
<polygon fill="#191970" stroke="#191970" points="2105.8068,-190.5246 2096.7194,-195.9717 2107.2202,-197.3804 2105.8068,-190.5246"/>
</g>
<!-- Node20 -->
<g id="node21" class="node">
<title>Node20</title>
<g id="a_node21"><a xlink:href="sitkAcosImageFilter_8h.html" target="_top" xlink:title=" ">
<polygon fill="#ffffff" stroke="#000000" points="2471,-129 2471,-148 2592,-148 2592,-129 2471,-129"/>
<text text-anchor="middle" x="2531.5" y="-136" font-family="Helvetica,sans-Serif" font-size="10.00" fill="#000000">sitkAcosImageFilter.h</text>
</a>
</g>
</g>
<!-- Node11&#45;&gt;Node20 -->
<g id="edge36" class="edge">
<title>Node11&#45;&gt;Node20</title>
<path fill="none" stroke="#191970" d="M2110.1411,-199.7896C2190.3381,-191.7094 2337.2288,-175.4962 2461.5,-154 2471.1894,-152.324 2481.5647,-150.2063 2491.2799,-148.0791"/>
<polygon fill="#191970" stroke="#191970" points="2109.3527,-196.3509 2099.7505,-200.8285 2110.0491,-203.3162 2109.3527,-196.3509"/>
</g>
<!-- Node21 -->
<g id="node22" class="node">
<title>Node21</title>
<g id="a_node22"><a xlink:href="sitkAdaptiveHistogramEqualizationImageFilter_8h.html" target="_top" xlink:title=" ">
<polygon fill="#ffffff" stroke="#000000" points="1956,-123.5 1956,-153.5 2145,-153.5 2145,-123.5 1956,-123.5"/>
<text text-anchor="start" x="1964" y="-141.5" font-family="Helvetica,sans-Serif" font-size="10.00" fill="#000000">sitkAdaptiveHistogramEqualization</text>
<text text-anchor="middle" x="2050.5" y="-130.5" font-family="Helvetica,sans-Serif" font-size="10.00" fill="#000000">ImageFilter.h</text>
</a>
</g>
</g>
<!-- Node11&#45;&gt;Node21 -->
<g id="edge39" class="edge">
<title>Node11&#45;&gt;Node21</title>
<path fill="none" stroke="#191970" d="M2050.5,-185.7758C2050.5,-175.4641 2050.5,-163.0437 2050.5,-153.5218"/>
<polygon fill="#191970" stroke="#191970" points="2047.0001,-185.9005 2050.5,-195.9005 2054.0001,-185.9006 2047.0001,-185.9005"/>
</g>
<!-- Node67 -->
<g id="node23" class="node">
<title>Node67</title>
<g id="a_node23"><a xlink:href="sitkClampImageFilter_8h.html" target="_top" xlink:title=" ">
<polygon fill="#ffffff" stroke="#000000" points="1809,-129 1809,-148 1938,-148 1938,-129 1809,-129"/>
<text text-anchor="middle" x="1873.5" y="-136" font-family="Helvetica,sans-Serif" font-size="10.00" fill="#000000">sitkClampImageFilter.h</text>
</a>
</g>
</g>
<!-- Node11&#45;&gt;Node67 -->
<g id="edge42" class="edge">
<title>Node11&#45;&gt;Node67</title>
<path fill="none" stroke="#191970" d="M2015.4927,-192.2487C1981.0862,-179.2247 1929.4158,-159.6659 1898.8127,-148.0817"/>
<polygon fill="#191970" stroke="#191970" points="2014.5487,-195.6336 2025.1402,-195.9005 2017.0269,-189.087 2014.5487,-195.6336"/>
</g>
<!-- Node160 -->
<g id="node24" class="node">
<title>Node160</title>
<g id="a_node24"><a xlink:href="sitkLabelIntensityStatisticsImageFilter_8h.html" target="_top" xlink:title=" ">
<polygon fill="#ffffff" stroke="#000000" points="0,-123.5 0,-153.5 149,-153.5 149,-123.5 0,-123.5"/>
<text text-anchor="start" x="8" y="-141.5" font-family="Helvetica,sans-Serif" font-size="10.00" fill="#000000">sitkLabelIntensityStatistics</text>
<text text-anchor="middle" x="74.5" y="-130.5" font-family="Helvetica,sans-Serif" font-size="10.00" fill="#000000">ImageFilter.h</text>
</a>
</g>
</g>
<!-- Node11&#45;&gt;Node160 -->
<g id="edge45" class="edge">
<title>Node11&#45;&gt;Node160</title>
<path fill="none" stroke="#191970" d="M1991.0036,-204.1453C1679.8721,-197.0274 250.688,-163.9066 157.5,-154 154.7304,-153.7056 151.9148,-153.3695 149.0751,-152.9995"/>
<polygon fill="#191970" stroke="#191970" points="1991.0914,-207.6481 2001.1688,-204.3777 1991.2515,-200.6499 1991.0914,-207.6481"/>
</g>
<!-- Node161 -->
<g id="node25" class="node">
<title>Node161</title>
<g id="a_node25"><a xlink:href="sitkLabelMapContourOverlayImageFilter_8h.html" target="_top" xlink:title=" ">
<polygon fill="#ffffff" stroke="#000000" points="166.5,-123.5 166.5,-153.5 324.5,-153.5 324.5,-123.5 166.5,-123.5"/>
<text text-anchor="start" x="174.5" y="-141.5" font-family="Helvetica,sans-Serif" font-size="10.00" fill="#000000">sitkLabelMapContourOverlay</text>
<text text-anchor="middle" x="245.5" y="-130.5" font-family="Helvetica,sans-Serif" font-size="10.00" fill="#000000">ImageFilter.h</text>
</a>
</g>
</g>
<!-- Node11&#45;&gt;Node161 -->
<g id="edge48" class="edge">
<title>Node11&#45;&gt;Node161</title>
<path fill="none" stroke="#191970" d="M1991.1092,-204.2285C1707.8473,-198.0956 500.9036,-171.1628 333.5,-154 330.5679,-153.6994 327.5863,-153.358 324.5787,-152.9836"/>
<polygon fill="#191970" stroke="#191970" points="1991.1105,-207.7293 2001.1839,-204.4463 1991.2619,-200.7309 1991.1105,-207.7293"/>
</g>
<!-- Node162 -->
<g id="node26" class="node">
<title>Node162</title>
<g id="a_node26"><a xlink:href="sitkLabelMapMaskImageFilter_8h.html" target="_top" xlink:title=" ">
<polygon fill="#ffffff" stroke="#000000" points="342.5,-129 342.5,-148 512.5,-148 512.5,-129 342.5,-129"/>
<text text-anchor="middle" x="427.5" y="-136" font-family="Helvetica,sans-Serif" font-size="10.00" fill="#000000">sitkLabelMapMaskImageFilter.h</text>
</a>
</g>
</g>
<!-- Node11&#45;&gt;Node162 -->
<g id="edge51" class="edge">
<title>Node11&#45;&gt;Node162</title>
<path fill="none" stroke="#191970" d="M1991.3303,-203.9624C1728.047,-197.0587 669.4388,-168.6262 521.5,-154 507.3448,-152.6005 492.0918,-150.3921 478.0761,-148.0761"/>
<polygon fill="#191970" stroke="#191970" points="1991.3643,-207.4643 2001.4526,-204.2274 1991.5476,-200.4667 1991.3643,-207.4643"/>
</g>
<!-- Node163 -->
<g id="node27" class="node">
<title>Node163</title>
<g id="a_node27"><a xlink:href="sitkLabelMapOverlayImageFilter_8h.html" target="_top" xlink:title=" ">
<polygon fill="#ffffff" stroke="#000000" points="530.5,-123.5 530.5,-153.5 680.5,-153.5 680.5,-123.5 530.5,-123.5"/>
<text text-anchor="start" x="538.5" y="-141.5" font-family="Helvetica,sans-Serif" font-size="10.00" fill="#000000">sitkLabelMapOverlayImage</text>
<text text-anchor="middle" x="605.5" y="-130.5" font-family="Helvetica,sans-Serif" font-size="10.00" fill="#000000">Filter.h</text>
</a>
</g>
</g>
<!-- Node11&#45;&gt;Node163 -->
<g id="edge54" class="edge">
<title>Node11&#45;&gt;Node163</title>
<path fill="none" stroke="#191970" d="M1991.1228,-204.3975C1763.6318,-199.996 947.4371,-182.5263 689.5,-154 686.5521,-153.674 683.5521,-153.3043 680.5261,-152.8998"/>
<polygon fill="#191970" stroke="#191970" points="1991.1251,-207.8981 2001.1906,-204.5912 1991.2598,-200.8994 1991.1251,-207.8981"/>
</g>
<!-- Node168 -->
<g id="node28" class="node">
<title>Node168</title>
<g id="a_node28"><a xlink:href="sitkLabelOverlayImageFilter_8h.html" target="_top" xlink:title=" ">
<polygon fill="#ffffff" stroke="#000000" points="698.5,-129 698.5,-148 860.5,-148 860.5,-129 698.5,-129"/>
<text text-anchor="middle" x="779.5" y="-136" font-family="Helvetica,sans-Serif" font-size="10.00" fill="#000000">sitkLabelOverlayImageFilter.h</text>
</a>
</g>
</g>
<!-- Node11&#45;&gt;Node168 -->
<g id="edge57" class="edge">
<title>Node11&#45;&gt;Node168</title>
<path fill="none" stroke="#191970" d="M1991.2262,-203.9128C1783.7163,-198.2004 1090.6098,-177.7638 869.5,-154 856.1004,-152.5599 841.6769,-150.3673 828.3868,-148.0807"/>
<polygon fill="#191970" stroke="#191970" points="1991.2236,-207.414 2001.3158,-204.1895 1991.4156,-200.4166 1991.2236,-207.414"/>
</g>
<!-- Node170 -->
<g id="node29" class="node">
<title>Node170</title>
<g id="a_node29"><a xlink:href="sitkLabelStatisticsImageFilter_8h.html" target="_top" xlink:title=" ">
<polygon fill="#ffffff" stroke="#000000" points="879,-123.5 879,-153.5 1016,-153.5 1016,-123.5 879,-123.5"/>
<text text-anchor="start" x="887" y="-141.5" font-family="Helvetica,sans-Serif" font-size="10.00" fill="#000000">sitkLabelStatisticsImage</text>
<text text-anchor="middle" x="947.5" y="-130.5" font-family="Helvetica,sans-Serif" font-size="10.00" fill="#000000">Filter.h</text>
</a>
</g>
</g>
<!-- Node11&#45;&gt;Node170 -->
<g id="edge60" class="edge">
<title>Node11&#45;&gt;Node170</title>
<path fill="none" stroke="#191970" d="M1991.1907,-203.6826C1801.9039,-197.6996 1213.5876,-177.6443 1024.5,-154 1021.7938,-153.6616 1019.0405,-153.2815 1016.264,-152.8682"/>
<polygon fill="#191970" stroke="#191970" points="1991.1233,-207.1821 2001.2285,-203.9985 1991.3435,-200.1856 1991.1233,-207.1821"/>
</g>
<!-- Node186 -->
<g id="node30" class="node">
<title>Node186</title>
<g id="a_node30"><a xlink:href="sitkMaskImageFilter_8h.html" target="_top" xlink:title=" ">
<polygon fill="#ffffff" stroke="#000000" points="1034,-129 1034,-148 1157,-148 1157,-129 1034,-129"/>
<text text-anchor="middle" x="1095.5" y="-136" font-family="Helvetica,sans-Serif" font-size="10.00" fill="#000000">sitkMaskImageFilter.h</text>
</a>
</g>
</g>
<!-- Node11&#45;&gt;Node186 -->
<g id="edge63" class="edge">
<title>Node11&#45;&gt;Node186</title>
<path fill="none" stroke="#191970" d="M1991.354,-203.2937C1820.093,-196.7089 1325.8145,-176.2681 1165.5,-154 1155.0205,-152.5444 1143.783,-150.3466 1133.446,-148.0599"/>
<polygon fill="#191970" stroke="#191970" points="1991.3132,-206.7946 2001.4398,-203.6798 1991.5811,-199.7997 1991.3132,-206.7946"/>
</g>
<!-- Node205 -->
<g id="node31" class="node">
<title>Node205</title>
<g id="a_node31"><a xlink:href="sitkMorphologicalWatershedFromMarkersImageFilter_8h.html" target="_top" xlink:title=" ">
<polygon fill="#ffffff" stroke="#000000" points="1175,-123.5 1175,-153.5 1330,-153.5 1330,-123.5 1175,-123.5"/>
<text text-anchor="start" x="1183" y="-141.5" font-family="Helvetica,sans-Serif" font-size="10.00" fill="#000000">sitkMorphologicalWatershed</text>
<text text-anchor="middle" x="1252.5" y="-130.5" font-family="Helvetica,sans-Serif" font-size="10.00" fill="#000000">FromMarkersImageFilter.h</text>
</a>
</g>
</g>
<!-- Node11&#45;&gt;Node205 -->
<g id="edge66" class="edge">
<title>Node11&#45;&gt;Node205</title>
<path fill="none" stroke="#191970" d="M1990.9177,-203.2797C1868.4942,-198.2566 1579.9459,-184.0445 1339.5,-154 1336.4553,-153.6196 1333.3553,-153.2039 1330.2272,-152.761"/>
<polygon fill="#191970" stroke="#191970" points="1991.06,-206.7882 2001.1934,-203.6956 1991.3432,-199.7939 1991.06,-206.7882"/>
</g>
<!-- Node241 -->
<g id="node32" class="node">
<title>Node241</title>
<g id="a_node32"><a xlink:href="sitkResampleImageFilter_8h.html" target="_top" xlink:title=" ">
<polygon fill="#ffffff" stroke="#000000" points="1348.5,-129 1348.5,-148 1494.5,-148 1494.5,-129 1348.5,-129"/>
<text text-anchor="middle" x="1421.5" y="-136" font-family="Helvetica,sans-Serif" font-size="10.00" fill="#000000">sitkResampleImageFilter.h</text>
</a>
</g>
</g>
<!-- Node11&#45;&gt;Node241 -->
<g id="edge69" class="edge">
<title>Node11&#45;&gt;Node241</title>
<path fill="none" stroke="#191970" d="M1991.0156,-201.7184C1890.3221,-194.9106 1680.0091,-178.9364 1503.5,-154 1491.8799,-152.3584 1479.4039,-150.2038 1467.777,-148.0253"/>
<polygon fill="#191970" stroke="#191970" points="1991.0762,-205.2302 2001.2878,-202.4067 1991.5442,-198.2459 1991.0762,-205.2302"/>
</g>
<!-- Node294 -->
<g id="node33" class="node">
<title>Node294</title>
<g id="a_node33"><a xlink:href="sitkVectorIndexSelectionCastImageFilter_8h.html" target="_top" xlink:title=" ">
<polygon fill="#ffffff" stroke="#000000" points="1513,-123.5 1513,-153.5 1650,-153.5 1650,-123.5 1513,-123.5"/>
<text text-anchor="start" x="1521" y="-141.5" font-family="Helvetica,sans-Serif" font-size="10.00" fill="#000000">sitkVectorIndexSelection</text>
<text text-anchor="middle" x="1581.5" y="-130.5" font-family="Helvetica,sans-Serif" font-size="10.00" fill="#000000">CastImageFilter.h</text>
</a>
</g>
</g>
<!-- Node11&#45;&gt;Node294 -->
<g id="edge72" class="edge">
<title>Node11&#45;&gt;Node294</title>
<path fill="none" stroke="#191970" d="M1991.3177,-198.9226C1914.5786,-190.1152 1776.6812,-173.3391 1659.5,-154 1656.5031,-153.5054 1653.4453,-152.9814 1650.3591,-152.4366"/>
<polygon fill="#191970" stroke="#191970" points="1990.9441,-202.4026 2001.2768,-200.0602 1991.7386,-195.4478 1990.9441,-202.4026"/>
</g>
<!-- Node299 -->
<g id="node34" class="node">
<title>Node299</title>
<g id="a_node34"><a xlink:href="sitkWarpImageFilter_8h.html" target="_top" xlink:title=" ">
<polygon fill="#ffffff" stroke="#000000" points="1668.5,-129 1668.5,-148 1790.5,-148 1790.5,-129 1668.5,-129"/>
<text text-anchor="middle" x="1729.5" y="-136" font-family="Helvetica,sans-Serif" font-size="10.00" fill="#000000">sitkWarpImageFilter.h</text>
</a>
</g>
</g>
<!-- Node11&#45;&gt;Node299 -->
<g id="edge75" class="edge">
<title>Node11&#45;&gt;Node299</title>
<path fill="none" stroke="#191970" d="M1992.9696,-193.9604C1942.0609,-183.6859 1865.7781,-168.1365 1799.5,-154 1790.6135,-152.1046 1781.1031,-150.0298 1772.0472,-148.032"/>
<polygon fill="#191970" stroke="#191970" points="1992.308,-197.3973 2002.8025,-195.9429 1993.6916,-190.5354 1992.308,-197.3973"/>
</g>
<!-- Node10&#45;&gt;Node4 -->
<g id="edge18" class="edge">
<title>Node10&#45;&gt;Node4</title>
<path fill="none" stroke="#191970" d="M2926.6828,-55.9095C3113.0857,-32.3818 3323.5886,-17.7004 3407.8691,-12.3094"/>
<polygon fill="#191970" stroke="#191970" points="2926.1787,-52.4453 2916.7011,-57.1809 2927.0632,-59.3892 2926.1787,-52.4453"/>
</g>
<!-- Node12&#45;&gt;Node4 -->
<g id="edge20" class="edge">
<title>Node12&#45;&gt;Node4</title>
<path fill="none" stroke="#191970" d="M2701.7671,-119.0303C2696.6748,-100.3425 2692.9232,-72.5793 2708.5,-56 2732.6676,-30.2769 3260.7809,-14.7662 3407.81,-10.9358"/>
<polygon fill="#191970" stroke="#191970" points="2698.4971,-120.304 2704.7844,-128.8316 2705.1872,-118.2444 2698.4971,-120.304"/>
</g>
<!-- Node13&#45;&gt;Node4 -->
<g id="edge22" class="edge">
<title>Node13&#45;&gt;Node4</title>
<path fill="none" stroke="#191970" d="M3053.538,-59.989C3060.8977,-58.5525 3068.3752,-57.1772 3075.5,-56 3196.3641,-36.0305 3340.7345,-20.4471 3407.8043,-13.6783"/>
<polygon fill="#191970" stroke="#191970" points="3052.7384,-56.5795 3043.619,-61.9728 3054.1112,-63.4436 3052.7384,-56.5795"/>
</g>
<!-- Node14&#45;&gt;Node4 -->
<g id="edge25" class="edge">
<title>Node14&#45;&gt;Node4</title>
<path fill="none" stroke="#191970" d="M3243.8101,-54.2998C3297.3623,-42.5374 3365.9675,-27.4688 3407.7811,-18.2847"/>
<polygon fill="#191970" stroke="#191970" points="3243.012,-50.8915 3233.9957,-56.4554 3244.5138,-57.7286 3243.012,-50.8915"/>
</g>
<!-- Node15&#45;&gt;Node4 -->
<g id="edge27" class="edge">
<title>Node15&#45;&gt;Node4</title>
<path fill="none" stroke="#191970" d="M2645.668,-60.0336C2653.9373,-58.4784 2662.4314,-57.0568 2670.5,-56 2952.1546,-19.1094 3295.3083,-11.7831 3407.8186,-10.3458"/>
<polygon fill="#191970" stroke="#191970" points="2644.8761,-56.6221 2635.7367,-61.9814 2646.2233,-63.4913 2644.8761,-56.6221"/>
</g>
<!-- Node17 -->
<g id="node18" class="node">
<title>Node17</title>
<g id="a_node18"><a xlink:href="CMakeTmp_2SimpleITKBasicFiltersGeneratedHeaders_8h.html" target="_top" xlink:title=" ">
<polygon fill="#ffffff" stroke="#000000" points="1166,-56.5 1166,-86.5 1339,-86.5 1339,-56.5 1166,-56.5"/>
<text text-anchor="start" x="1174" y="-74.5" font-family="Helvetica,sans-Serif" font-size="10.00" fill="#000000">SimpleITKBasicFiltersGenerated</text>
<text text-anchor="middle" x="1252.5" y="-63.5" font-family="Helvetica,sans-Serif" font-size="10.00" fill="#000000">Headers.h</text>
</a>
</g>
</g>
<!-- Node16&#45;&gt;Node17 -->
<g id="edge30" class="edge">
<title>Node16&#45;&gt;Node17</title>
<path fill="none" stroke="#191970" d="M2175.5468,-126.8525C2168.2124,-125.3332 2160.677,-123.9703 2153.5,-123 1798.1531,-74.9612 1704.1722,-123.9341 1347.5,-87 1344.7573,-86.716 1341.9736,-86.4042 1339.1654,-86.0694"/>
<polygon fill="#191970" stroke="#191970" points="2174.8547,-130.2838 2185.3713,-128.9988 2176.3488,-123.4451 2174.8547,-130.2838"/>
</g>
<!-- Node18 -->
<g id="node19" class="node">
<title>Node18</title>
<g id="a_node19"><a xlink:href="include_2SimpleITKBasicFiltersGeneratedHeaders_8h.html" target="_top" xlink:title=" ">
<polygon fill="#ffffff" stroke="#000000" points="1357,-56.5 1357,-86.5 1530,-86.5 1530,-56.5 1357,-56.5"/>
<text text-anchor="start" x="1365" y="-74.5" font-family="Helvetica,sans-Serif" font-size="10.00" fill="#000000">SimpleITKBasicFiltersGenerated</text>
<text text-anchor="middle" x="1443.5" y="-63.5" font-family="Helvetica,sans-Serif" font-size="10.00" fill="#000000">Headers.h</text>
</a>
</g>
</g>
<!-- Node16&#45;&gt;Node18 -->
<g id="edge31" class="edge">
<title>Node16&#45;&gt;Node18</title>
<path fill="none" stroke="#191970" d="M2174.2791,-126.7681C2167.3423,-125.3272 2160.2587,-124.0095 2153.5,-123 1930.274,-89.6598 1664.2117,-77.6792 1530.032,-73.5503"/>
<polygon fill="#191970" stroke="#191970" points="2173.7666,-130.2385 2184.2823,-128.946 2175.2557,-123.3987 2173.7666,-130.2385"/>
</g>
<!-- Node18&#45;&gt;Node4 -->
<g id="edge32" class="edge">
<title>Node18&#45;&gt;Node4</title>
<path fill="none" stroke="#191970" d="M1540.3733,-68.5241C1903.0867,-57.3818 3172.1585,-18.3969 3407.7216,-11.1605"/>
<polygon fill="#191970" stroke="#191970" points="1540.0538,-65.0322 1530.166,-68.8377 1540.2688,-72.0289 1540.0538,-65.0322"/>
</g>
<!-- Node19&#45;&gt;Node17 -->
<g id="edge34" class="edge">
<title>Node19&#45;&gt;Node17</title>
<path fill="none" stroke="#191970" d="M2287.5674,-123.0155C1870.6104,-78.9977 1760.5828,-128.4405 1347.5,-87 1344.7564,-86.7248 1341.9719,-86.4206 1339.163,-86.0924"/>
<polygon fill="#191970" stroke="#191970" points="2287.4731,-126.5252 2297.7882,-124.1066 2288.2162,-119.5648 2287.4731,-126.5252"/>
</g>
<!-- Node19&#45;&gt;Node18 -->
<g id="edge35" class="edge">
<title>Node19&#45;&gt;Node18</title>
<path fill="none" stroke="#191970" d="M2287.7371,-123.0061C2004.9812,-89.8452 1681.7482,-77.6769 1530.1626,-73.4828"/>
<polygon fill="#191970" stroke="#191970" points="2287.4361,-126.4948 2297.7782,-124.1946 2288.2589,-119.5433 2287.4361,-126.4948"/>
</g>
<!-- Node20&#45;&gt;Node17 -->
<g id="edge37" class="edge">
<title>Node20&#45;&gt;Node17</title>
<path fill="none" stroke="#191970" d="M2484.4502,-126.8313C2476.8193,-125.3005 2468.9707,-123.9396 2461.5,-123 1970.0022,-61.1865 1840.54,-134.9848 1347.5,-87 1344.7556,-86.7329 1341.9704,-86.4359 1339.1609,-86.1138"/>
<polygon fill="#191970" stroke="#191970" points="2483.7977,-130.2707 2494.3061,-128.9204 2485.2492,-123.4229 2483.7977,-130.2707"/>
</g>
<!-- Node20&#45;&gt;Node18 -->
<g id="edge38" class="edge">
<title>Node20&#45;&gt;Node18</title>
<path fill="none" stroke="#191970" d="M2483.9171,-126.8459C2476.4514,-125.3416 2468.7932,-123.9849 2461.5,-123 2282.6223,-98.8441 1742.391,-80.4837 1530.3025,-74.0214"/>
<polygon fill="#191970" stroke="#191970" points="2483.4173,-130.3177 2493.9257,-128.9676 2484.869,-123.4698 2483.4173,-130.3177"/>
</g>
<!-- Node21&#45;&gt;Node17 -->
<g id="edge40" class="edge">
<title>Node21&#45;&gt;Node17</title>
<path fill="none" stroke="#191970" d="M1945.9192,-123.0086C1679.5323,-95.8258 1609.3291,-116.1513 1347.5,-87 1344.7596,-86.6949 1341.9778,-86.3647 1339.1713,-86.014"/>
<polygon fill="#191970" stroke="#191970" points="1945.5789,-126.492 1955.8857,-124.0383 1946.2984,-119.529 1945.5789,-126.492"/>
</g>
<!-- Node21&#45;&gt;Node18 -->
<g id="edge41" class="edge">
<title>Node21&#45;&gt;Node18</title>
<path fill="none" stroke="#191970" d="M1945.8537,-122.9545C1793.5548,-103.9971 1628.6464,-88.1313 1530.4222,-79.1779"/>
<polygon fill="#191970" stroke="#191970" points="1945.509,-126.4385 1955.8662,-124.2076 1946.3783,-119.4927 1945.509,-126.4385"/>
</g>
<!-- Node67&#45;&gt;Node17 -->
<g id="edge43" class="edge">
<title>Node67&#45;&gt;Node17</title>
<path fill="none" stroke="#191970" d="M1822.5816,-126.9507C1814.8759,-125.4598 1806.9979,-124.0794 1799.5,-123 1600.0313,-94.2848 1547.5612,-111.2462 1347.5,-87 1344.7627,-86.6683 1341.9836,-86.3149 1339.1795,-85.9441"/>
<polygon fill="#191970" stroke="#191970" points="1822.0721,-130.4183 1832.5659,-128.9583 1823.4521,-123.5556 1822.0721,-130.4183"/>
</g>
<!-- Node67&#45;&gt;Node18 -->
<g id="edge44" class="edge">
<title>Node67&#45;&gt;Node18</title>
<path fill="none" stroke="#191970" d="M1820.1167,-126.9023C1813.1932,-125.5205 1806.1869,-124.1828 1799.5,-123 1707.8734,-106.793 1602.3072,-92.0058 1530.0674,-82.4759"/>
<polygon fill="#191970" stroke="#191970" points="1819.6573,-130.3805 1830.1545,-128.9453 1821.0535,-123.5211 1819.6573,-130.3805"/>
</g>
<!-- Node160&#45;&gt;Node17 -->
<g id="edge46" class="edge">
<title>Node160&#45;&gt;Node17</title>
<path fill="none" stroke="#191970" d="M159.2006,-122.9276C371.1414,-99.7229 946.1918,-80.6956 1165.7868,-74.0341"/>
<polygon fill="#191970" stroke="#191970" points="158.6266,-119.47 149.083,-124.071 159.4128,-126.4258 158.6266,-119.47"/>
</g>
<!-- Node160&#45;&gt;Node18 -->
<g id="edge47" class="edge">
<title>Node160&#45;&gt;Node18</title>
<path fill="none" stroke="#191970" d="M159.207,-122.9272C685.3376,-67.1605 824.1066,-136.9569 1347.5,-87 1350.6091,-86.7032 1353.7702,-86.3684 1356.9596,-86.0026"/>
<polygon fill="#191970" stroke="#191970" points="158.647,-119.467 149.0763,-124.0113 159.392,-126.4273 158.647,-119.467"/>
</g>
<!-- Node161&#45;&gt;Node17 -->
<g id="edge49" class="edge">
<title>Node161&#45;&gt;Node17</title>
<path fill="none" stroke="#191970" d="M334.7095,-122.9516C645.8861,-87.5241 1004.1087,-76.3807 1165.7337,-72.9432"/>
<polygon fill="#191970" stroke="#191970" points="334.1245,-119.4957 324.5894,-124.1143 334.9236,-126.4499 334.1245,-119.4957"/>
</g>
<!-- Node161&#45;&gt;Node18 -->
<g id="edge50" class="edge">
<title>Node161&#45;&gt;Node18</title>
<path fill="none" stroke="#191970" d="M334.5764,-122.9932C783.6987,-76.5779 901.9906,-130.7024 1347.5,-87 1350.6083,-86.6951 1353.7688,-86.3533 1356.9575,-85.9816"/>
<polygon fill="#191970" stroke="#191970" points="334.1632,-119.5173 324.5809,-124.0371 334.8903,-126.4794 334.1632,-119.5173"/>
</g>
<!-- Node162&#45;&gt;Node17 -->
<g id="edge52" class="edge">
<title>Node162&#45;&gt;Node17</title>
<path fill="none" stroke="#191970" d="M490.0121,-127.3584C500.5014,-125.7285 511.2922,-124.1985 521.5,-123 753.5217,-95.7573 1028.79,-81.0995 1165.8899,-74.989"/>
<polygon fill="#191970" stroke="#191970" points="489.4,-123.9117 480.0766,-128.9441 490.5033,-130.8242 489.4,-123.9117"/>
</g>
<!-- Node162&#45;&gt;Node18 -->
<g id="edge53" class="edge">
<title>Node162&#45;&gt;Node18</title>
<path fill="none" stroke="#191970" d="M488.5002,-127.3511C499.4563,-125.6602 510.7938,-124.112 521.5,-123 886.9936,-85.0396 981.9434,-124.3488 1347.5,-87 1350.6071,-86.6825 1353.7664,-86.33 1356.9543,-85.9492"/>
<polygon fill="#191970" stroke="#191970" points="487.8981,-123.9029 478.5749,-128.9357 489.0017,-130.8153 487.8981,-123.9029"/>
</g>
<!-- Node163&#45;&gt;Node17 -->
<g id="edge55" class="edge">
<title>Node163&#45;&gt;Node17</title>
<path fill="none" stroke="#191970" d="M690.68,-122.9147C864.9669,-99.287 1057.2248,-84.3612 1165.8979,-76.9582"/>
<polygon fill="#191970" stroke="#191970" points="689.9842,-119.4772 680.551,-124.3006 690.9331,-126.4126 689.9842,-119.4772"/>
</g>
<!-- Node163&#45;&gt;Node18 -->
<g id="edge56" class="edge">
<title>Node163&#45;&gt;Node18</title>
<path fill="none" stroke="#191970" d="M690.5497,-122.9818C982.0593,-89.0228 1059.5749,-118.0329 1347.5,-87 1350.6053,-86.6653 1353.7631,-86.298 1356.9496,-85.9047"/>
<polygon fill="#191970" stroke="#191970" points="690.0544,-119.5159 680.5334,-124.1635 690.8746,-126.4677 690.0544,-119.5159"/>
</g>
<!-- Node168&#45;&gt;Node17 -->
<g id="edge58" class="edge">
<title>Node168&#45;&gt;Node17</title>
<path fill="none" stroke="#191970" d="M842.7747,-127.3003C851.7382,-125.802 860.8461,-124.3266 869.5,-123 970.9648,-107.4465 1087.9524,-92.0888 1165.6656,-82.2485"/>
<polygon fill="#191970" stroke="#191970" points="842.0247,-123.8774 832.7479,-128.9951 843.1914,-130.7795 842.0247,-123.8774"/>
</g>
<!-- Node168&#45;&gt;Node18 -->
<g id="edge59" class="edge">
<title>Node168&#45;&gt;Node18</title>
<path fill="none" stroke="#191970" d="M839.9656,-127.2729C849.8137,-125.6788 859.9235,-124.1825 869.5,-123 1080.9402,-96.8908 1135.926,-112.0017 1347.5,-87 1350.6017,-86.6335 1353.7564,-86.239 1356.9403,-85.8225"/>
<polygon fill="#191970" stroke="#191970" points="839.1201,-123.8654 829.8307,-128.9603 840.2698,-130.7703 839.1201,-123.8654"/>
</g>
<!-- Node170&#45;&gt;Node17 -->
<g id="edge61" class="edge">
<title>Node170&#45;&gt;Node17</title>
<path fill="none" stroke="#191970" d="M1025.8539,-121.2878C1074.7546,-110.5457 1137.0982,-96.8506 1184.0172,-86.5438"/>
<polygon fill="#191970" stroke="#191970" points="1024.9641,-117.8998 1015.948,-123.4639 1026.466,-124.7367 1024.9641,-117.8998"/>
</g>
<!-- Node170&#45;&gt;Node18 -->
<g id="edge62" class="edge">
<title>Node170&#45;&gt;Node18</title>
<path fill="none" stroke="#191970" d="M1026.2934,-122.7939C1168.9397,-100.9737 1207.5949,-106.0793 1347.5,-87 1350.5946,-86.578 1353.7433,-86.136 1356.9221,-85.6792"/>
<polygon fill="#191970" stroke="#191970" points="1025.6406,-119.3532 1016.2934,-124.3412 1026.711,-126.2708 1025.6406,-119.3532"/>
</g>
<!-- Node186&#45;&gt;Node17 -->
<g id="edge64" class="edge">
<title>Node186&#45;&gt;Node17</title>
<path fill="none" stroke="#191970" d="M1127.4243,-124.8763C1153.515,-113.742 1190.3585,-98.019 1217.2997,-86.5218"/>
<polygon fill="#191970" stroke="#191970" points="1125.818,-121.7563 1117.9943,-128.9005 1128.5656,-128.1946 1125.818,-121.7563"/>
</g>
<!-- Node186&#45;&gt;Node18 -->
<g id="edge65" class="edge">
<title>Node186&#45;&gt;Node18</title>
<path fill="none" stroke="#191970" d="M1147.6703,-126.7389C1153.6762,-125.4471 1159.7175,-124.1754 1165.5,-123 1229.9558,-109.8977 1303.1027,-96.4015 1358.1823,-86.5137"/>
<polygon fill="#191970" stroke="#191970" points="1146.6756,-123.3734 1137.6479,-128.9188 1148.1634,-130.2135 1146.6756,-123.3734"/>
</g>
<!-- Node205&#45;&gt;Node17 -->
<g id="edge67" class="edge">
<title>Node205&#45;&gt;Node17</title>
<path fill="none" stroke="#191970" d="M1252.5,-113.0249C1252.5,-104.128 1252.5,-94.4287 1252.5,-86.6432"/>
<polygon fill="#191970" stroke="#191970" points="1249.0001,-113.2966 1252.5,-123.2967 1256.0001,-113.2967 1249.0001,-113.2966"/>
</g>
<!-- Node205&#45;&gt;Node18 -->
<g id="edge68" class="edge">
<title>Node205&#45;&gt;Node18</title>
<path fill="none" stroke="#191970" d="M1304.8419,-120.1392C1334.8771,-109.6033 1372.1245,-96.5375 1400.4489,-86.6017"/>
<polygon fill="#191970" stroke="#191970" points="1303.6418,-116.851 1295.3641,-123.4639 1305.959,-123.4564 1303.6418,-116.851"/>
</g>
<!-- Node241&#45;&gt;Node17 -->
<g id="edge70" class="edge">
<title>Node241&#45;&gt;Node17</title>
<path fill="none" stroke="#191970" d="M1387.8753,-125.1695C1359.7504,-114.0194 1319.6466,-98.1203 1290.3907,-86.5218"/>
<polygon fill="#191970" stroke="#191970" points="1386.7004,-128.4687 1397.2864,-128.9005 1389.2802,-121.9614 1386.7004,-128.4687"/>
</g>
<!-- Node241&#45;&gt;Node18 -->
<g id="edge71" class="edge">
<title>Node241&#45;&gt;Node18</title>
<path fill="none" stroke="#191970" d="M1427.8688,-119.1042C1431.2757,-108.7287 1435.4076,-96.145 1438.5675,-86.5218"/>
<polygon fill="#191970" stroke="#191970" points="1424.4465,-118.3077 1424.6521,-128.9005 1431.0972,-120.4915 1424.4465,-118.3077"/>
</g>
<!-- Node294&#45;&gt;Node17 -->
<g id="edge73" class="edge">
<title>Node294&#45;&gt;Node17</title>
<path fill="none" stroke="#191970" d="M1502.8001,-122.473C1449.2679,-111.5713 1378.9012,-97.2413 1326.4137,-86.5523"/>
<polygon fill="#191970" stroke="#191970" points="1502.434,-125.9702 1512.9313,-124.5362 1503.8309,-119.111 1502.434,-125.9702"/>
</g>
<!-- Node294&#45;&gt;Node18 -->
<g id="edge74" class="edge">
<title>Node294&#45;&gt;Node18</title>
<path fill="none" stroke="#191970" d="M1541.4425,-119.0518C1520.2377,-108.7567 1494.5788,-96.2991 1474.844,-86.7177"/>
<polygon fill="#191970" stroke="#191970" points="1540.0056,-122.2448 1550.5301,-123.4639 1543.0629,-115.9478 1540.0056,-122.2448"/>
</g>
<!-- Node299&#45;&gt;Node17 -->
<g id="edge76" class="edge">
<title>Node299&#45;&gt;Node17</title>
<path fill="none" stroke="#191970" d="M1679.101,-126.8498C1672.1995,-125.4443 1665.1893,-124.1145 1658.5,-123 1521.2467,-100.1327 1485.313,-106.2084 1347.5,-87 1344.7691,-86.6194 1341.9955,-86.2234 1339.1962,-85.8157"/>
<polygon fill="#191970" stroke="#191970" points="1678.5788,-130.3164 1689.0848,-128.947 1680.0179,-123.4659 1678.5788,-130.3164"/>
</g>
<!-- Node299&#45;&gt;Node18 -->
<g id="edge77" class="edge">
<title>Node299&#45;&gt;Node18</title>
<path fill="none" stroke="#191970" d="M1679.0285,-126.6762C1631.3234,-115.5006 1559.5414,-98.6845 1507.7661,-86.5553"/>
<polygon fill="#191970" stroke="#191970" points="1678.2922,-130.0984 1688.8269,-128.9717 1679.8888,-123.283 1678.2922,-130.0984"/>
</g>
<!-- Node308&#45;&gt;Node4 -->
<g id="edge79" class="edge">
<title>Node308&#45;&gt;Node4</title>
<path fill="none" stroke="#191970" d="M3009.7673,-188.6472C3076.4529,-176.5568 3155.7939,-161.1827 3170.5,-154 3189.4726,-144.7334 3187.9822,-133.1448 3206.5,-123 3255.3336,-96.247 3277.3147,-113.1008 3326.5,-87 3345.753,-76.7832 3346.5158,-68.3139 3364.5,-56 3384.9159,-42.0211 3409.8611,-28.3204 3426.6292,-19.5587"/>
<polygon fill="#191970" stroke="#191970" points="3008.8269,-185.2603 2999.608,-190.4817 3010.0708,-192.1489 3008.8269,-185.2603"/>
</g>
<!-- Node309&#45;&gt;Node4 -->
<g id="edge81" class="edge">
<title>Node309&#45;&gt;Node4</title>
<path fill="none" stroke="#191970" d="M3142.8806,-186.3078C3162.8291,-177.3033 3186.2698,-165.9352 3206.5,-154 3226.7916,-142.0286 3228.4313,-133.5438 3249.5,-123 3297.3942,-99.0314 3318.3377,-114.1549 3364.5,-87 3380.7219,-77.4575 3418.8742,-38.1583 3436.4027,-19.6825"/>
<polygon fill="#191970" stroke="#191970" points="3141.4026,-183.1346 3133.6922,-190.401 3144.2511,-189.5288 3141.4026,-183.1346"/>
</g>
<!-- Node326&#45;&gt;Node327 -->
<g id="edge85" class="edge">
<title>Node326&#45;&gt;Node327</title>
<path fill="none" stroke="#191970" d="M3390.6268,-193.8016C3450.6264,-180.834 3546.2745,-160.1616 3602.064,-148.1039"/>
<polygon fill="#191970" stroke="#191970" points="3389.6211,-190.4381 3380.5862,-195.9717 3391.0999,-197.2801 3389.6211,-190.4381"/>
</g>
<!-- Node326&#45;&gt;Node328 -->
<g id="edge87" class="edge">
<title>Node326&#45;&gt;Node328</title>
<path fill="none" stroke="#191970" d="M3292.0136,-193.2342C3244.8775,-180.2378 3171.4313,-159.9872 3128.3321,-148.1039"/>
<polygon fill="#191970" stroke="#191970" points="3291.3715,-196.6877 3301.9421,-195.9717 3293.2321,-189.9395 3291.3715,-196.6877"/>
</g>
<!-- Node326&#45;&gt;Node329 -->
<g id="edge89" class="edge">
<title>Node326&#45;&gt;Node329</title>
<path fill="none" stroke="#191970" d="M3363.5496,-191.2298C3388.2047,-178.2227 3423.9451,-159.3676 3445.3378,-148.0817"/>
<polygon fill="#191970" stroke="#191970" points="3361.9075,-188.1388 3354.696,-195.9005 3365.1738,-194.33 3361.9075,-188.1388"/>
</g>
<!-- Node327&#45;&gt;Node4 -->
<g id="edge86" class="edge">
<title>Node327&#45;&gt;Node4</title>
<path fill="none" stroke="#191970" d="M3634.2145,-120.8297C3620.5631,-102.367 3596.9306,-73.6777 3570.5,-56 3543.7825,-38.1304 3509.2266,-26.1046 3483.2211,-18.8448"/>
<polygon fill="#191970" stroke="#191970" points="3631.3988,-122.9091 3640.0829,-128.9786 3637.0792,-118.8184 3631.3988,-122.9091"/>
</g>
<!-- Node328&#45;&gt;Node4 -->
<g id="edge88" class="edge">
<title>Node328&#45;&gt;Node4</title>
<path fill="none" stroke="#191970" d="M3157.7291,-126.8717C3196.6056,-118.5423 3246.5999,-105.5019 3288.5,-87 3311.7315,-76.7416 3314.0496,-67.8709 3336.5,-56 3363.9181,-41.5024 3396.9142,-28.1033 3419.3688,-19.5508"/>
<polygon fill="#191970" stroke="#191970" points="3156.6589,-123.5197 3147.5869,-128.9924 3158.0916,-130.3715 3156.6589,-123.5197"/>
</g>
<!-- Node329&#45;&gt;Node4 -->
<g id="edge90" class="edge">
<title>Node329&#45;&gt;Node4</title>
<path fill="none" stroke="#191970" d="M3460.7227,-118.6733C3456.8076,-90.7236 3449.8149,-40.8037 3446.8686,-19.7705"/>
<polygon fill="#191970" stroke="#191970" points="3457.2936,-119.4239 3462.1471,-128.8416 3464.2259,-118.4527 3457.2936,-119.4239"/>
</g>
<!-- Node330&#45;&gt;Node4 -->
<g id="edge92" class="edge">
<title>Node330&#45;&gt;Node4</title>
<path fill="none" stroke="#191970" d="M3554.5264,-185.8489C3552.2095,-168.5836 3547.3519,-143.1458 3537.5,-123 3516.2728,-79.5936 3475.5082,-38.0556 3456.1759,-19.7604"/>
<polygon fill="#191970" stroke="#191970" points="3551.0618,-186.3556 3555.709,-195.8768 3558.0136,-185.5357 3551.0618,-186.3556"/>
</g>
<!-- Node331&#45;&gt;Node4 -->
<g id="edge94" class="edge">
<title>Node331&#45;&gt;Node4</title>
<path fill="none" stroke="#191970" d="M3738.4368,-185.6206C3736.5617,-167.6395 3731.4361,-141.2586 3717.5,-123 3660.1039,-47.8012 3543.616,-22.2759 3483.4165,-13.9017"/>
<polygon fill="#191970" stroke="#191970" points="3734.9659,-186.1272 3739.2469,-195.8187 3741.9439,-185.5729 3734.9659,-186.1272"/>
</g>
<!-- Node332&#45;&gt;Node4 -->
<g id="edge96" class="edge">
<title>Node332&#45;&gt;Node4</title>
<path fill="none" stroke="#191970" d="M3951.7703,-185.5388C3946.1039,-152.5332 3929.7645,-87.144 3886.5,-56 3854.0522,-32.6425 3583.8392,-16.9011 3483.1342,-11.797"/>
<polygon fill="#191970" stroke="#191970" points="3948.3634,-186.4088 3953.3562,-195.7535 3955.2805,-185.3349 3948.3634,-186.4088"/>
</g>
<!-- Node333&#45;&gt;Node4 -->
<g id="edge98" class="edge">
<title>Node333&#45;&gt;Node4</title>
<path fill="none" stroke="#191970" d="M4049.1695,-187.3477C4027.5645,-154.5415 3977.0123,-86.0048 3914.5,-56 3838.437,-19.4912 3580.5111,-11.9517 3483.1352,-10.4001"/>
<polygon fill="#191970" stroke="#191970" points="4046.3492,-189.4329 4054.705,-195.947 4052.2352,-185.644 4046.3492,-189.4329"/>
</g>
<!-- Node334&#45;&gt;Node325 -->
<g id="edge101" class="edge">
<title>Node334&#45;&gt;Node325</title>
<path fill="none" stroke="#191970" d="M3643.8543,-303.1575C3644.0151,-294.155 3644.1979,-283.9199 3644.3278,-276.6427"/>
<polygon fill="#191970" stroke="#191970" points="3640.3534,-303.1846 3643.6742,-313.2455 3647.3523,-303.3097 3640.3534,-303.1846"/>
</g>
<!-- Node335&#45;&gt;Node12 -->
<g id="edge111" class="edge">
<title>Node335&#45;&gt;Node12</title>
<path fill="none" stroke="#191970" d="M1352.9446,-203.0241C1622.6184,-196.1589 2358.4162,-175.9358 2600.5,-154 2616.6294,-152.5385 2634.0318,-150.3242 2650.0577,-148.0231"/>
<polygon fill="#191970" stroke="#191970" points="1352.6829,-199.5295 1342.775,-203.2823 1352.8606,-206.5273 1352.6829,-199.5295"/>
</g>
<!-- Node335&#45;&gt;Node67 -->
<g id="edge112" class="edge">
<title>Node335&#45;&gt;Node67</title>
<path fill="none" stroke="#191970" d="M1352.9905,-199.4447C1463.0273,-192.0225 1644.4811,-177.4564 1799.5,-154 1810.1422,-152.3897 1821.5591,-150.2207 1832.1626,-148.0161"/>
<polygon fill="#191970" stroke="#191970" points="1352.6412,-195.9602 1342.8967,-200.119 1353.1078,-202.9446 1352.6412,-195.9602"/>
</g>
<!-- Node335&#45;&gt;Node160 -->
<g id="edge113" class="edge">
<title>Node335&#45;&gt;Node160</title>
<path fill="none" stroke="#191970" d="M1151.9397,-202.5437C919.1038,-195.4111 348.3107,-176.1969 157.5,-154 154.7335,-153.6782 151.9204,-153.3187 149.083,-152.929"/>
<polygon fill="#191970" stroke="#191970" points="1151.9953,-206.047 1162.0975,-202.8538 1152.2089,-199.0502 1151.9953,-206.047"/>
</g>
<!-- Node335&#45;&gt;Node161 -->
<g id="edge114" class="edge">
<title>Node335&#45;&gt;Node161</title>
<path fill="none" stroke="#191970" d="M1152.0437,-203.7573C982.696,-199.9507 629.8466,-188.2802 333.5,-154 330.5721,-153.6613 327.594,-153.2875 324.5894,-152.8857"/>
<polygon fill="#191970" stroke="#191970" points="1152.1158,-207.2597 1162.1905,-203.9809 1152.27,-200.2614 1152.1158,-207.2597"/>
</g>
<!-- Node335&#45;&gt;Node162 -->
<g id="edge115" class="edge">
<title>Node335&#45;&gt;Node162</title>
<path fill="none" stroke="#191970" d="M1151.8513,-201.377C1010.6433,-194.9179 745.854,-180.3424 521.5,-154 508.0299,-152.4184 493.5446,-150.2597 480.0766,-148.0559"/>
<polygon fill="#191970" stroke="#191970" points="1152.0695,-204.8904 1162.2177,-201.8467 1152.3865,-197.8976 1152.0695,-204.8904"/>
</g>
<!-- Node335&#45;&gt;Node163 -->
<g id="edge116" class="edge">
<title>Node335&#45;&gt;Node163</title>
<path fill="none" stroke="#191970" d="M1152.0057,-199.0856C1039.1409,-191.2367 850.6622,-176.1931 689.5,-154 686.5618,-153.5954 683.57,-153.1594 680.551,-152.6994"/>
<polygon fill="#191970" stroke="#191970" points="1151.7981,-202.5795 1162.0154,-199.7766 1152.2802,-195.5961 1151.7981,-202.5795"/>
</g>
<!-- Node335&#45;&gt;Node168 -->
<g id="edge117" class="edge">
<title>Node335&#45;&gt;Node168</title>
<path fill="none" stroke="#191970" d="M1165.1263,-194.6832C1087.4118,-184.8402 970.7304,-169.5176 869.5,-154 857.5893,-152.1742 844.8185,-150.0664 832.7479,-148.0049"/>
<polygon fill="#191970" stroke="#191970" points="1164.9935,-198.1941 1175.3534,-195.9753 1165.871,-191.2493 1164.9935,-198.1941"/>
</g>
<!-- Node335&#45;&gt;Node170 -->
<g id="edge118" class="edge">
<title>Node335&#45;&gt;Node170</title>
<path fill="none" stroke="#191970" d="M1199.3127,-193.8162C1148.4421,-182.6414 1071.4814,-165.7353 1016.0355,-153.5553"/>
<polygon fill="#191970" stroke="#191970" points="1198.6068,-197.2445 1209.1248,-195.9717 1200.1087,-190.4076 1198.6068,-197.2445"/>
</g>
<!-- Node335&#45;&gt;Node186 -->
<g id="edge119" class="edge">
<title>Node335&#45;&gt;Node186</title>
<path fill="none" stroke="#191970" d="M1220.6591,-191.9118C1190.1442,-178.8895 1144.8646,-159.5664 1117.9525,-148.0817"/>
<polygon fill="#191970" stroke="#191970" points="1219.4344,-195.1946 1230.0057,-195.9005 1222.182,-188.7563 1219.4344,-195.1946"/>
</g>
<!-- Node335&#45;&gt;Node205 -->
<g id="edge120" class="edge">
<title>Node335&#45;&gt;Node205</title>
<path fill="none" stroke="#191970" d="M1252.5,-185.7758C1252.5,-175.4641 1252.5,-163.0437 1252.5,-153.5218"/>
<polygon fill="#191970" stroke="#191970" points="1249.0001,-185.9005 1252.5,-195.9005 1256.0001,-185.9006 1249.0001,-185.9005"/>
</g>
<!-- Node335&#45;&gt;Node241 -->
<g id="edge121" class="edge">
<title>Node335&#45;&gt;Node241</title>
<path fill="none" stroke="#191970" d="M1286.3489,-192.0806C1319.1995,-179.057 1368.2369,-159.6162 1397.3313,-148.0817"/>
<polygon fill="#191970" stroke="#191970" points="1284.7198,-188.9614 1276.7136,-195.9005 1287.2996,-195.4687 1284.7198,-188.9614"/>
</g>
<!-- Node335&#45;&gt;Node294 -->
<g id="edge122" class="edge">
<title>Node335&#45;&gt;Node294</title>
<path fill="none" stroke="#191970" d="M1309.1217,-193.9691C1365.6047,-182.4665 1452.4399,-164.7828 1512.8254,-152.4854"/>
<polygon fill="#191970" stroke="#191970" points="1308.3887,-190.5465 1299.2883,-195.9717 1309.7856,-197.4057 1308.3887,-190.5465"/>
</g>
<!-- Node335&#45;&gt;Node299 -->
<g id="edge123" class="edge">
<title>Node335&#45;&gt;Node299</title>
<path fill="none" stroke="#191970" d="M1352.854,-195.2792C1435.2463,-186.2864 1554.8186,-171.8569 1658.5,-154 1668.3226,-152.3083 1678.8441,-150.1846 1688.6978,-148.0567"/>
<polygon fill="#191970" stroke="#191970" points="1352.3067,-191.818 1342.7424,-196.3759 1353.0615,-198.7771 1352.3067,-191.818"/>
</g>
<!-- Node336&#45;&gt;Node7 -->
<g id="edge128" class="edge">
<title>Node336&#45;&gt;Node7</title>
<path fill="none" stroke="#191970" d="M2860.286,-253.7114C2843.695,-246.7941 2827.214,-236.4263 2817.5,-221 2810.1584,-209.3412 2808.2651,-200.2246 2817.5,-190 2843.9261,-160.7418 3131.2818,-158.0397 3170.5,-154 3199.3459,-151.0287 3231.3298,-147.7054 3258.2461,-144.9002"/>
<polygon fill="#191970" stroke="#191970" points="2859.4254,-257.1281 2870.0168,-257.3976 2861.9052,-250.582 2859.4254,-257.1281"/>
</g>
<!-- Node336&#45;&gt;Node324 -->
<g id="edge134" class="edge">
<title>Node336&#45;&gt;Node324</title>
<path fill="none" stroke="#191970" d="M3002.9084,-265.0151C3241.7567,-259.4775 3891.0354,-242.8225 4104.5,-221 4118.504,-219.5684 4133.5944,-217.3494 4147.461,-215.0336"/>
<polygon fill="#191970" stroke="#191970" points="3002.7893,-261.5168 2992.8728,-265.2468 3002.9509,-268.5149 3002.7893,-261.5168"/>
</g>
<!-- Node336&#45;&gt;Node11 -->
<g id="edge125" class="edge">
<title>Node336&#45;&gt;Node11</title>
<path fill="none" stroke="#191970" d="M2824.2379,-260.6389C2643.5624,-247.7634 2239.8241,-218.9918 2099.6031,-208.9992"/>
<polygon fill="#191970" stroke="#191970" points="2824.0192,-264.1321 2834.2427,-261.3519 2824.5168,-257.1498 2824.0192,-264.1321"/>
</g>
<!-- Node336&#45;&gt;Node308 -->
<g id="edge126" class="edge">
<title>Node336&#45;&gt;Node308</title>
<path fill="none" stroke="#191970" d="M2913.5,-247.3693C2913.5,-238.681 2913.5,-228.6241 2913.5,-220.5446"/>
<polygon fill="#191970" stroke="#191970" points="2910.0001,-247.3906 2913.5,-257.3906 2917.0001,-247.3907 2910.0001,-247.3906"/>
</g>
<!-- Node336&#45;&gt;Node309 -->
<g id="edge127" class="edge">
<title>Node336&#45;&gt;Node309</title>
<path fill="none" stroke="#191970" d="M2952.1162,-254.0929C2981.4066,-244.303 3021.7353,-230.8235 3052.4885,-220.5446"/>
<polygon fill="#191970" stroke="#191970" points="2950.6247,-250.9011 2942.25,-257.3906 2952.8438,-257.54 2950.6247,-250.9011"/>
</g>
<!-- Node336&#45;&gt;Node327 -->
<g id="edge129" class="edge">
<title>Node336&#45;&gt;Node327</title>
<path fill="none" stroke="#191970" d="M3002.6252,-261.9307C3124.4251,-254.4593 3336.333,-239.3708 3411.5,-221 3446.9367,-212.3393 3453.2353,-202.5179 3487.5,-190 3531.1068,-174.0692 3582.3145,-157.9347 3614.588,-148.0741"/>
<polygon fill="#191970" stroke="#191970" points="3002.3404,-258.4415 2992.5716,-262.5427 3002.7658,-265.4285 3002.3404,-258.4415"/>
</g>
<!-- Node336&#45;&gt;Node328 -->
<g id="edge131" class="edge">
<title>Node336&#45;&gt;Node328</title>
<path fill="none" stroke="#191970" d="M2856.9712,-254.9025C2811.1899,-242.5482 2758.2703,-220.8037 2784.5,-190 2817.0436,-151.7814 2958.0196,-162.4522 3007.5,-154 3018.4168,-152.1352 3030.1006,-150.0736 3041.2263,-148.079"/>
<polygon fill="#191970" stroke="#191970" points="2856.3416,-258.3547 2866.8994,-257.4702 2858.0943,-251.5777 2856.3416,-258.3547"/>
</g>
<!-- Node336&#45;&gt;Node329 -->
<g id="edge133" class="edge">
<title>Node336&#45;&gt;Node329</title>
<path fill="none" stroke="#191970" d="M3002.9444,-256.9106C3056.5422,-249.6255 3125.6754,-238.0354 3185.5,-221 3220.5849,-211.0094 3226.8546,-201.422 3261.5,-190 3314.7758,-172.4358 3377.5896,-157.2612 3418.861,-148.0215"/>
<polygon fill="#191970" stroke="#191970" points="3002.2312,-253.4747 2992.7816,-258.2659 3003.1565,-260.4132 3002.2312,-253.4747"/>
</g>
<!-- Node336&#45;&gt;Node330 -->
<g id="edge130" class="edge">
<title>Node336&#45;&gt;Node330</title>
<path fill="none" stroke="#191970" d="M3002.817,-263.259C3115.1964,-257.7542 3313.9035,-245.3733 3482.5,-221 3493.2825,-219.4412 3504.8519,-217.2639 3515.5646,-215.0329"/>
<polygon fill="#191970" stroke="#191970" points="3002.3676,-259.7765 2992.548,-263.7546 3002.7051,-266.7684 3002.3676,-259.7765"/>
</g>
<!-- Node336&#45;&gt;Node331 -->
<g id="edge132" class="edge">
<title>Node336&#45;&gt;Node331</title>
<path fill="none" stroke="#191970" d="M3002.8339,-263.2119C3137.7305,-257.0415 3401.3724,-243.2277 3624.5,-221 3640.838,-219.3724 3658.4288,-217.2102 3674.8189,-215.0187"/>
<polygon fill="#191970" stroke="#191970" points="3002.3869,-259.7285 2992.556,-263.6786 3002.7045,-266.7212 3002.3869,-259.7285"/>
</g>
<!-- Node337&#45;&gt;Node2 -->
<g id="edge139" class="edge">
<title>Node337&#45;&gt;Node2</title>
<path fill="none" stroke="#191970" d="M2977.6237,-544.185C2956.6397,-534.4819 2928.5852,-521.5093 2907.0355,-511.5446"/>
<polygon fill="#191970" stroke="#191970" points="2976.1731,-547.3703 2986.7188,-548.3906 2979.1111,-541.0167 2976.1731,-547.3703"/>
</g>
<!-- Node337&#45;&gt;Node4 -->
<g id="edge147" class="edge">
<title>Node337&#45;&gt;Node4</title>
<path fill="none" stroke="#191970" d="M3079.5017,-556.0857C3384.1396,-547.5214 4551.5,-509.8217 4551.5,-435 4551.5,-435 4551.5,-435 4551.5,-138.5 4551.5,-58.887 4469.3634,-76.7424 4392.5,-56 4303.7042,-32.0375 3648.1405,-14.8541 3483.1199,-10.8773"/>
<polygon fill="#191970" stroke="#191970" points="3079.3567,-552.5883 3069.4583,-556.3663 3079.5522,-559.5856 3079.3567,-552.5883"/>
</g>
<!-- Node338 -->
<g id="node49" class="node">
<title>Node338</title>
<g id="a_node49"><a xlink:href="sitkPixelIDValues_8h.html" target="_top" xlink:title=" ">
<polygon fill="#ffffff" stroke="#000000" points="3012.5,-487 3012.5,-506 3122.5,-506 3122.5,-487 3012.5,-487"/>
<text text-anchor="middle" x="3067.5" y="-494" font-family="Helvetica,sans-Serif" font-size="10.00" fill="#000000">sitkPixelIDValues.h</text>
</a>
</g>
</g>
<!-- Node337&#45;&gt;Node338 -->
<g id="edge140" class="edge">
<title>Node337&#45;&gt;Node338</title>
<path fill="none" stroke="#191970" d="M3023.8655,-541.2253C3034.8143,-530.0028 3048.8407,-515.6258 3057.9928,-506.2449"/>
<polygon fill="#191970" stroke="#191970" points="3021.353,-538.7886 3016.875,-548.3906 3026.3635,-543.6769 3021.353,-538.7886"/>
</g>
<!-- Node338&#45;&gt;Node326 -->
<g id="edge146" class="edge">
<title>Node338&#45;&gt;Node326</title>
<path fill="none" stroke="#191970" d="M3090.7244,-480.9899C3117.6857,-460.9213 3158.5,-423.2358 3158.5,-379 3158.5,-379 3158.5,-379 3158.5,-323 3158.5,-260.0515 3236.9943,-228.8914 3289.7326,-215.0598"/>
<polygon fill="#191970" stroke="#191970" points="3088.6107,-478.1987 3082.5268,-486.8726 3092.6919,-483.8858 3088.6107,-478.1987"/>
</g>
<!-- Node338&#45;&gt;Node336 -->
<g id="edge145" class="edge">
<title>Node338&#45;&gt;Node336</title>
<path fill="none" stroke="#191970" d="M3002.2859,-486.7272C2935.3616,-476.0344 2839.4856,-458.6049 2828.5,-445 2783.3204,-389.048 2869.4611,-305.1138 2901.8767,-276.7565"/>
<polygon fill="#191970" stroke="#191970" points="3001.9241,-490.2134 3012.3482,-488.3192 3003.0181,-483.2994 3001.9241,-490.2134"/>
</g>
<!-- Node339 -->
<g id="node50" class="node">
<title>Node339</title>
<g id="a_node50"><a xlink:href="sitkPixelIDTokens_8h.html" target="_top" xlink:title=" ">
<polygon fill="#ffffff" stroke="#ff0000" points="3380.5,-425.5 3380.5,-444.5 3492.5,-444.5 3492.5,-425.5 3380.5,-425.5"/>
<text text-anchor="middle" x="3436.5" y="-432.5" font-family="Helvetica,sans-Serif" font-size="10.00" fill="#000000">sitkPixelIDTokens.h</text>
</a>
</g>
</g>
<!-- Node338&#45;&gt;Node339 -->
<g id="edge141" class="edge">
<title>Node338&#45;&gt;Node339</title>
<path fill="none" stroke="#191970" d="M3132.81,-485.615C3203.0942,-473.901 3313.724,-455.4627 3380.2734,-444.3711"/>
<polygon fill="#191970" stroke="#191970" points="3132.0315,-482.1964 3122.743,-487.2928 3133.1824,-489.1011 3132.0315,-482.1964"/>
</g>
<!-- Node339&#45;&gt;Node5 -->
<g id="edge143" class="edge">
<title>Node339&#45;&gt;Node5</title>
<path fill="none" stroke="#191970" d="M3499.4757,-423.6603C3562.7401,-412.2687 3658.1138,-395.0953 3710.236,-385.7099"/>
<polygon fill="#191970" stroke="#191970" points="3498.8309,-420.2201 3489.6094,-425.4369 3500.0714,-427.1093 3498.8309,-420.2201"/>
</g>
<!-- Node339&#45;&gt;Node324 -->
<g id="edge144" class="edge">
<title>Node339&#45;&gt;Node324</title>
<path fill="none" stroke="#191970" d="M3502.7082,-433.5122C3685.8504,-429.0761 4187.3442,-414.632 4211.5,-389 4258.174,-339.4735 4217.4877,-245.3295 4202.5028,-215.1004"/>
<polygon fill="#191970" stroke="#191970" points="3502.5809,-430.0141 3492.6678,-433.753 3502.7489,-437.0121 3502.5809,-430.0141"/>
</g>
<!-- Node339&#45;&gt;Node12 -->
<g id="edge142" class="edge">
<title>Node339&#45;&gt;Node12</title>
<path fill="none" stroke="#191970" d="M3370.3147,-426.2085C3224.267,-405.6582 2880.3062,-350.5864 2791.5,-277 2747.035,-240.1555 2720.3865,-172.9258 2711.6732,-148.0697"/>
<polygon fill="#191970" stroke="#191970" points="3370.0939,-429.7115 3380.4819,-427.6282 3371.062,-422.7788 3370.0939,-429.7115"/>
</g>
</g>
</svg>
