<?xml version="1.0" encoding="UTF-8" standalone="no"?>
<!DOCTYPE svg PUBLIC "-//W3C//DTD SVG 1.1//EN"
 "http://www.w3.org/Graphics/SVG/1.1/DTD/svg11.dtd">
<!-- Generated by graphviz version 2.40.1 (20161225.0304)
 -->
<!-- Title: sitkPixelIDTypeLists.h Pages: 1 -->
<svg width="3974pt" height="576pt"
 viewBox="0.00 0.00 3974.00 576.00" xmlns="http://www.w3.org/2000/svg" xmlns:xlink="http://www.w3.org/1999/xlink">
<g id="graph0" class="graph" transform="scale(1 1) rotate(0) translate(4 572)">
<title>sitkPixelIDTypeLists.h</title>
<polygon fill="#ffffff" stroke="transparent" points="-4,4 -4,-572 3970,-572 3970,4 -4,4"/>
<!-- Node1 -->
<g id="node1" class="node">
<title>Node1</title>
<g id="a_node1"><a xlink:title=" ">
<polygon fill="#bfbfbf" stroke="#000000" points="2336.5,-548.5 2336.5,-567.5 2459.5,-567.5 2459.5,-548.5 2336.5,-548.5"/>
<text text-anchor="middle" x="2398" y="-555.5" font-family="Helvetica,sans-Serif" font-size="10.00" fill="#000000">sitkPixelIDTypeLists.h</text>
</a>
</g>
</g>
<!-- Node2 -->
<g id="node2" class="node">
<title>Node2</title>
<g id="a_node2"><a xlink:href="sitkMemberFunctionFactoryBase_8h.html" target="_top" xlink:title=" ">
<polygon fill="#ffffff" stroke="#000000" points="2323,-481.5 2323,-511.5 2473,-511.5 2473,-481.5 2323,-481.5"/>
<text text-anchor="start" x="2331" y="-499.5" font-family="Helvetica,sans-Serif" font-size="10.00" fill="#000000">sitkMemberFunctionFactory</text>
<text text-anchor="middle" x="2398" y="-488.5" font-family="Helvetica,sans-Serif" font-size="10.00" fill="#000000">Base.h</text>
</a>
</g>
</g>
<!-- Node1&#45;&gt;Node2 -->
<g id="edge1" class="edge">
<title>Node1&#45;&gt;Node2</title>
<path fill="none" stroke="#191970" d="M2398,-538.3693C2398,-529.681 2398,-519.6241 2398,-511.5446"/>
<polygon fill="#191970" stroke="#191970" points="2394.5001,-538.3906 2398,-548.3906 2401.5001,-538.3907 2394.5001,-538.3906"/>
</g>
<!-- Node4 -->
<g id="node4" class="node">
<title>Node4</title>
<g id="a_node4"><a xlink:href="SimpleITK_8h.html" target="_top" xlink:title=" ">
<polygon fill="#ffffff" stroke="#000000" points="1108.5,-.5 1108.5,-19.5 1183.5,-19.5 1183.5,-.5 1108.5,-.5"/>
<text text-anchor="middle" x="1146" y="-7.5" font-family="Helvetica,sans-Serif" font-size="10.00" fill="#000000">SimpleITK.h</text>
</a>
</g>
</g>
<!-- Node1&#45;&gt;Node4 -->
<g id="edge147" class="edge">
<title>Node1&#45;&gt;Node4</title>
<path fill="none" stroke="#191970" d="M2470.0935,-556.1724C2777.8596,-547.9048 3966,-511.0618 3966,-435 3966,-435 3966,-435 3966,-138.5 3966,-95.8536 3953.8875,-77.4016 3917,-56 3855.0622,-20.0646 1510.8065,-11.1812 1183.7368,-10.1159"/>
<polygon fill="#191970" stroke="#191970" points="2469.8535,-552.6774 2459.9504,-556.443 2470.0402,-559.6749 2469.8535,-552.6774"/>
</g>
<!-- Node337 -->
<g id="node48" class="node">
<title>Node337</title>
<g id="a_node48"><a xlink:href="sitkPixelIDValues_8h.html" target="_top" xlink:title=" ">
<polygon fill="#ffffff" stroke="#000000" points="782,-487 782,-506 892,-506 892,-487 782,-487"/>
<text text-anchor="middle" x="837" y="-494" font-family="Helvetica,sans-Serif" font-size="10.00" fill="#000000">sitkPixelIDValues.h</text>
</a>
</g>
</g>
<!-- Node1&#45;&gt;Node337 -->
<g id="edge139" class="edge">
<title>Node1&#45;&gt;Node337</title>
<path fill="none" stroke="#191970" d="M2325.9864,-555.1628C2059.067,-544.6468 1129.3899,-508.0195 892.3446,-498.6805"/>
<polygon fill="#191970" stroke="#191970" points="2326.1961,-558.6737 2336.3262,-555.5702 2326.4717,-551.6791 2326.1961,-558.6737"/>
</g>
<!-- Node3 -->
<g id="node3" class="node">
<title>Node3</title>
<g id="a_node3"><a xlink:href="sitkDetail_8h.html" target="_top" xlink:title=" ">
<polygon fill="#ffffff" stroke="#000000" points="2515.5,-425.5 2515.5,-444.5 2588.5,-444.5 2588.5,-425.5 2515.5,-425.5"/>
<text text-anchor="middle" x="2552" y="-432.5" font-family="Helvetica,sans-Serif" font-size="10.00" fill="#000000">sitkDetail.h</text>
</a>
</g>
</g>
<!-- Node2&#45;&gt;Node3 -->
<g id="edge2" class="edge">
<title>Node2&#45;&gt;Node3</title>
<path fill="none" stroke="#191970" d="M2445.1087,-477.6871C2472.5749,-466.7185 2506.0477,-453.3511 2528.1355,-444.5303"/>
<polygon fill="#191970" stroke="#191970" points="2443.6614,-474.4962 2435.6726,-481.4554 2446.2576,-480.997 2443.6614,-474.4962"/>
</g>
<!-- Node335 -->
<g id="node46" class="node">
<title>Node335</title>
<g id="a_node46"><a xlink:href="sitkDualMemberFunctionFactory_8h.html" target="_top" xlink:title=" ">
<polygon fill="#ffffff" stroke="#000000" points="2308,-196 2308,-215 2488,-215 2488,-196 2308,-196"/>
<text text-anchor="middle" x="2398" y="-203" font-family="Helvetica,sans-Serif" font-size="10.00" fill="#000000">sitkDualMemberFunctionFactory.h</text>
</a>
</g>
</g>
<!-- Node2&#45;&gt;Node335 -->
<g id="edge137" class="edge">
<title>Node2&#45;&gt;Node335</title>
<path fill="none" stroke="#191970" d="M2398,-471.0078C2398,-447.2074 2398,-410.6986 2398,-379 2398,-379 2398,-379 2398,-323 2398,-283.0174 2398,-235.3818 2398,-215.2489"/>
<polygon fill="#191970" stroke="#191970" points="2394.5001,-471.2898 2398,-481.2899 2401.5001,-471.2899 2394.5001,-471.2898"/>
</g>
<!-- Node336 -->
<g id="node47" class="node">
<title>Node336</title>
<g id="a_node47"><a xlink:href="sitkMemberFunctionFactory_8h.html" target="_top" xlink:title=" ">
<polygon fill="#ffffff" stroke="#000000" points="488,-257.5 488,-276.5 646,-276.5 646,-257.5 488,-257.5"/>
<text text-anchor="middle" x="567" y="-264.5" font-family="Helvetica,sans-Serif" font-size="10.00" fill="#000000">sitkMemberFunctionFactory.h</text>
</a>
</g>
</g>
<!-- Node2&#45;&gt;Node336 -->
<g id="edge138" class="edge">
<title>Node2&#45;&gt;Node336</title>
<path fill="none" stroke="#191970" d="M2312.5479,-494.8118C1956.7204,-487.368 608.321,-454.8839 548,-389 518.7599,-357.0634 547.4941,-299.5671 560.9174,-276.7319"/>
<polygon fill="#191970" stroke="#191970" points="2312.7129,-498.3159 2322.7835,-495.0248 2312.8585,-491.3174 2312.7129,-498.3159"/>
</g>
<!-- Node3&#45;&gt;Node4 -->
<g id="edge3" class="edge">
<title>Node3&#45;&gt;Node4</title>
<path fill="none" stroke="#191970" d="M2598.9949,-433.6898C2840.2105,-426.6628 3928,-391.1935 3928,-323 3928,-323 3928,-323 3928,-138.5 3928,-97.7508 3922.3494,-77.9229 3888,-56 3828.2858,-17.8884 1508.4247,-10.8796 1183.6201,-10.0845"/>
<polygon fill="#191970" stroke="#191970" points="2598.6993,-430.1967 2588.8047,-433.9843 2598.9017,-437.1938 2598.6993,-430.1967"/>
</g>
<!-- Node5 -->
<g id="node5" class="node">
<title>Node5</title>
<g id="a_node5"><a xlink:href="sitkImage_8h.html" target="_top" xlink:title=" ">
<polygon fill="#ffffff" stroke="#000000" points="1210,-369.5 1210,-388.5 1284,-388.5 1284,-369.5 1210,-369.5"/>
<text text-anchor="middle" x="1247" y="-376.5" font-family="Helvetica,sans-Serif" font-size="10.00" fill="#000000">sitkImage.h</text>
</a>
</g>
</g>
<!-- Node3&#45;&gt;Node5 -->
<g id="edge4" class="edge">
<title>Node3&#45;&gt;Node5</title>
<path fill="none" stroke="#191970" d="M2505.1853,-432.9911C2298.59,-424.1257 1470.4741,-388.5897 1284.2928,-380.6003"/>
<polygon fill="#191970" stroke="#191970" points="2505.2503,-436.497 2515.3912,-433.429 2505.5504,-429.5034 2505.2503,-436.497"/>
</g>
<!-- Node324 -->
<g id="node9" class="node">
<title>Node324</title>
<g id="a_node9"><a xlink:href="sitkImageRegistrationMethod_8h.html" target="_top" xlink:title=" ">
<polygon fill="#ffffff" stroke="#000000" points="2593.5,-196 2593.5,-215 2762.5,-215 2762.5,-196 2593.5,-196"/>
<text text-anchor="middle" x="2678" y="-203" font-family="Helvetica,sans-Serif" font-size="10.00" fill="#000000">sitkImageRegistrationMethod.h</text>
</a>
</g>
</g>
<!-- Node3&#45;&gt;Node324 -->
<g id="edge136" class="edge">
<title>Node3&#45;&gt;Node324</title>
<path fill="none" stroke="#191970" d="M2598.3168,-424.9361C2618.5246,-418.1548 2640.6163,-407.0288 2654,-389 2694.5999,-334.3092 2684.4152,-244.3574 2679.7148,-215.0521"/>
<polygon fill="#191970" stroke="#191970" points="2597.1231,-421.6414 2588.5944,-427.9272 2599.1815,-428.3319 2597.1231,-421.6414"/>
</g>
<!-- Node3&#45;&gt;Node335 -->
<g id="edge110" class="edge">
<title>Node3&#45;&gt;Node335</title>
<path fill="none" stroke="#191970" d="M2539.9493,-417.0413C2509.0766,-371.033 2427.9262,-250.0978 2404.4485,-215.11"/>
<polygon fill="#191970" stroke="#191970" points="2537.1005,-419.0773 2545.5789,-425.4309 2542.9131,-415.1769 2537.1005,-419.0773"/>
</g>
<!-- Node3&#45;&gt;Node336 -->
<g id="edge125" class="edge">
<title>Node3&#45;&gt;Node336</title>
<path fill="none" stroke="#191970" d="M2505.1193,-434.3865C2297.7563,-431.522 1461.7454,-418.3448 1201,-389 972.6595,-363.3021 703.4677,-300.5284 605.274,-276.5369"/>
<polygon fill="#191970" stroke="#191970" points="2505.3121,-437.8894 2515.3591,-434.5266 2505.4079,-430.8901 2505.3121,-437.8894"/>
</g>
<!-- Node5&#45;&gt;Node4 -->
<g id="edge9" class="edge">
<title>Node5&#45;&gt;Node4</title>
<path fill="none" stroke="#191970" d="M1294.32,-374.9695C1638.3439,-345.6411 3742.1744,-165.8411 3753,-154 3762.2966,-143.8314 3760.9956,-134.2204 3753,-123 3700.0629,-48.7124 3648.8135,-71.9538 3559,-56 3437.0423,-34.3364 1481.0254,-13.4406 1183.746,-10.383"/>
<polygon fill="#191970" stroke="#191970" points="1293.8651,-371.4955 1284.1985,-375.8322 1294.4597,-378.4702 1293.8651,-371.4955"/>
</g>
<!-- Node6 -->
<g id="node6" class="node">
<title>Node6</title>
<g id="a_node6"><a xlink:href="sitkAdditionalProcedures_8h.html" target="_top" xlink:title=" ">
<polygon fill="#ffffff" stroke="#000000" points="3752.5,-196 3752.5,-215 3899.5,-215 3899.5,-196 3752.5,-196"/>
<text text-anchor="middle" x="3826" y="-203" font-family="Helvetica,sans-Serif" font-size="10.00" fill="#000000">sitkAdditionalProcedures.h</text>
</a>
</g>
</g>
<!-- Node5&#45;&gt;Node6 -->
<g id="edge5" class="edge">
<title>Node5&#45;&gt;Node6</title>
<path fill="none" stroke="#191970" d="M1294.3324,-378.42C1466.595,-376.0849 2076.3055,-365.8577 2578,-333 3094.8458,-299.15 3224.7806,-290.8658 3738,-221 3750.2969,-219.326 3763.502,-217.1846 3775.8468,-215.0313"/>
<polygon fill="#191970" stroke="#191970" points="1294.0451,-374.9235 1284.0926,-378.5565 1294.1384,-381.9228 1294.0451,-374.9235"/>
</g>
<!-- Node7 -->
<g id="node7" class="node">
<title>Node7</title>
<g id="a_node7"><a xlink:href="sitkHashImageFilter_8h.html" target="_top" xlink:title=" ">
<polygon fill="#ffffff" stroke="#000000" points="560,-129 560,-148 682,-148 682,-129 560,-129"/>
<text text-anchor="middle" x="621" y="-136" font-family="Helvetica,sans-Serif" font-size="10.00" fill="#000000">sitkHashImageFilter.h</text>
</a>
</g>
</g>
<!-- Node5&#45;&gt;Node7 -->
<g id="edge7" class="edge">
<title>Node5&#45;&gt;Node7</title>
<path fill="none" stroke="#191970" d="M1199.6041,-371.1655C1165.3382,-364.2611 1118.6459,-352.243 1081,-333 1045.5243,-314.8663 1035.9761,-308.0411 1011,-277 983.9614,-243.3955 1002.8631,-215.3951 968,-190 966.5597,-188.9509 781.5772,-161.8834 682.3252,-147.4208"/>
<polygon fill="#191970" stroke="#191970" points="1199.3321,-374.678 1209.8156,-373.1465 1200.6652,-367.8061 1199.3321,-374.678"/>
</g>
<!-- Node8 -->
<g id="node8" class="node">
<title>Node8</title>
<g id="a_node8"><a xlink:href="sitkTransform_8h.html" target="_top" xlink:title=" ">
<polygon fill="#ffffff" stroke="#ff0000" points="2706,-257.5 2706,-276.5 2798,-276.5 2798,-257.5 2706,-257.5"/>
<text text-anchor="middle" x="2752" y="-264.5" font-family="Helvetica,sans-Serif" font-size="10.00" fill="#000000">sitkTransform.h</text>
</a>
</g>
</g>
<!-- Node5&#45;&gt;Node8 -->
<g id="edge10" class="edge">
<title>Node5&#45;&gt;Node8</title>
<path fill="none" stroke="#191970" d="M1294.1781,-377.795C1519.5359,-371.9789 2478.0652,-346.5365 2540,-333 2562.5781,-328.0653 2566.167,-320.5791 2588,-313 2630.0432,-298.4051 2679.3337,-285.0723 2712.8195,-276.5619"/>
<polygon fill="#191970" stroke="#191970" points="1293.914,-374.3006 1284.0075,-378.057 1294.0943,-381.2982 1293.914,-374.3006"/>
</g>
<!-- Node5&#45;&gt;Node324 -->
<g id="edge109" class="edge">
<title>Node5&#45;&gt;Node324</title>
<path fill="none" stroke="#191970" d="M1294.4091,-372.9549C1437.8656,-354.7189 1879.9771,-298.9315 2247,-257 2397.0955,-239.8519 2435.3155,-241.4269 2585,-221 2597.6502,-219.2737 2611.2253,-217.1604 2623.9873,-215.0562"/>
<polygon fill="#191970" stroke="#191970" points="1293.6845,-369.5187 1284.206,-374.2526 1294.5677,-376.4628 1293.6845,-369.5187"/>
</g>
<!-- Node325 -->
<g id="node10" class="node">
<title>Node325</title>
<g id="a_node10"><a xlink:href="sitkProcessObject_8h.html" target="_top" xlink:title=" ">
<polygon fill="#ffffff" stroke="#000000" points="1020.5,-257.5 1020.5,-276.5 1133.5,-276.5 1133.5,-257.5 1020.5,-257.5"/>
<text text-anchor="middle" x="1077" y="-264.5" font-family="Helvetica,sans-Serif" font-size="10.00" fill="#000000">sitkProcessObject.h</text>
</a>
</g>
</g>
<!-- Node5&#45;&gt;Node325 -->
<g id="edge15" class="edge">
<title>Node5&#45;&gt;Node325</title>
<path fill="none" stroke="#191970" d="M1199.6628,-369.7279C1161.0562,-361.2611 1110.6061,-347.8329 1096,-333 1080.941,-317.7072 1077.6654,-291.2905 1077.0477,-276.9534"/>
<polygon fill="#191970" stroke="#191970" points="1199.1837,-373.2046 1209.6949,-371.8763 1200.6496,-366.3598 1199.1837,-373.2046"/>
</g>
<!-- Node327 -->
<g id="node38" class="node">
<title>Node327</title>
<g id="a_node38"><a xlink:href="sitkImageFileReader_8h.html" target="_top" xlink:title=" ">
<polygon fill="#ffffff" stroke="#000000" points="0,-129 0,-148 124,-148 124,-129 0,-129"/>
<text text-anchor="middle" x="62" y="-136" font-family="Helvetica,sans-Serif" font-size="10.00" fill="#000000">sitkImageFileReader.h</text>
</a>
</g>
</g>
<!-- Node5&#45;&gt;Node327 -->
<g id="edge102" class="edge">
<title>Node5&#45;&gt;Node327</title>
<path fill="none" stroke="#191970" d="M1199.8744,-378.2058C1018.0486,-374.9441 367.9092,-361.3889 280,-333 194.252,-305.309 172.8553,-286.5243 111,-221 89.5013,-198.2261 73.1528,-164.4086 65.9845,-148.0498"/>
<polygon fill="#191970" stroke="#191970" points="1199.866,-381.7061 1209.9265,-378.3841 1199.9902,-374.7072 1199.866,-381.7061"/>
</g>
<!-- Node328 -->
<g id="node39" class="node">
<title>Node328</title>
<g id="a_node39"><a xlink:href="sitkImageSeriesReader_8h.html" target="_top" xlink:title=" ">
<polygon fill="#ffffff" stroke="#000000" points="142.5,-129 142.5,-148 279.5,-148 279.5,-129 142.5,-129"/>
<text text-anchor="middle" x="211" y="-136" font-family="Helvetica,sans-Serif" font-size="10.00" fill="#000000">sitkImageSeriesReader.h</text>
</a>
</g>
</g>
<!-- Node5&#45;&gt;Node328 -->
<g id="edge104" class="edge">
<title>Node5&#45;&gt;Node328</title>
<path fill="none" stroke="#191970" d="M1199.6354,-377.9295C1096.8115,-375.0576 845.6825,-365.0769 638,-333 423.2139,-299.826 296.9356,-391.3701 162,-221 142.7621,-196.7102 177.3461,-164.1654 197.6975,-148.1835"/>
<polygon fill="#191970" stroke="#191970" points="1199.6061,-381.4299 1209.6969,-378.2008 1199.7949,-374.4324 1199.6061,-381.4299"/>
</g>
<!-- Node329 -->
<g id="node40" class="node">
<title>Node329</title>
<g id="a_node40"><a xlink:href="sitkImportImageFilter_8h.html" target="_top" xlink:title=" ">
<polygon fill="#ffffff" stroke="#000000" points="298,-129 298,-148 428,-148 428,-129 298,-129"/>
<text text-anchor="middle" x="363" y="-136" font-family="Helvetica,sans-Serif" font-size="10.00" fill="#000000">sitkImportImageFilter.h</text>
</a>
</g>
</g>
<!-- Node5&#45;&gt;Node329 -->
<g id="edge107" class="edge">
<title>Node5&#45;&gt;Node329</title>
<path fill="none" stroke="#191970" d="M1199.4953,-375.4227C1053.4902,-364.0014 613.1074,-326.254 479,-277 435.8348,-261.1466 420.4998,-257.0878 392,-221 374.3103,-198.6005 366.9625,-164.6075 364.307,-148.1291"/>
<polygon fill="#191970" stroke="#191970" points="1199.6531,-378.9454 1209.8941,-376.2304 1200.1952,-371.9664 1199.6531,-378.9454"/>
</g>
<!-- Node330 -->
<g id="node41" class="node">
<title>Node330</title>
<g id="a_node41"><a xlink:href="sitkImageFileWriter_8h.html" target="_top" xlink:title=" ">
<polygon fill="#ffffff" stroke="#000000" points="840.5,-196 840.5,-215 959.5,-215 959.5,-196 840.5,-196"/>
<text text-anchor="middle" x="900" y="-203" font-family="Helvetica,sans-Serif" font-size="10.00" fill="#000000">sitkImageFileWriter.h</text>
</a>
</g>
</g>
<!-- Node5&#45;&gt;Node330 -->
<g id="edge103" class="edge">
<title>Node5&#45;&gt;Node330</title>
<path fill="none" stroke="#191970" d="M1199.8646,-375.8651C1131.6872,-370.5384 1009.7934,-357.8001 974,-333 930.8736,-303.119 909.3643,-239.3349 902.5058,-215.1068"/>
<polygon fill="#191970" stroke="#191970" points="1199.6846,-379.3614 1209.9206,-376.6275 1200.2139,-372.3815 1199.6846,-379.3614"/>
</g>
<!-- Node331 -->
<g id="node42" class="node">
<title>Node331</title>
<g id="a_node42"><a xlink:href="sitkImageSeriesWriter_8h.html" target="_top" xlink:title=" ">
<polygon fill="#ffffff" stroke="#000000" points="1092.5,-196 1092.5,-215 1225.5,-215 1225.5,-196 1092.5,-196"/>
<text text-anchor="middle" x="1159" y="-203" font-family="Helvetica,sans-Serif" font-size="10.00" fill="#000000">sitkImageSeriesWriter.h</text>
</a>
</g>
</g>
<!-- Node5&#45;&gt;Node331 -->
<g id="edge105" class="edge">
<title>Node5&#45;&gt;Node331</title>
<path fill="none" stroke="#191970" d="M1242.5143,-359.2899C1239.1111,-345.8991 1233.8497,-327.97 1227,-313 1209.3582,-274.4439 1179.9291,-233.2532 1166.3172,-215.0676"/>
<polygon fill="#191970" stroke="#191970" points="1239.1829,-360.4055 1244.93,-369.3061 1245.9878,-358.7643 1239.1829,-360.4055"/>
</g>
<!-- Node332 -->
<g id="node43" class="node">
<title>Node332</title>
<g id="a_node43"><a xlink:href="sitkImageViewer_8h.html" target="_top" xlink:title=" ">
<polygon fill="#ffffff" stroke="#000000" points="1243.5,-196 1243.5,-215 1350.5,-215 1350.5,-196 1243.5,-196"/>
<text text-anchor="middle" x="1297" y="-203" font-family="Helvetica,sans-Serif" font-size="10.00" fill="#000000">sitkImageViewer.h</text>
</a>
</g>
</g>
<!-- Node5&#45;&gt;Node332 -->
<g id="edge106" class="edge">
<title>Node5&#45;&gt;Node332</title>
<path fill="none" stroke="#191970" d="M1253.0505,-359.4335C1255.5492,-351.2727 1258.4515,-341.6887 1261,-333 1273.8829,-289.0787 1288.4904,-236.3977 1294.3566,-215.1157"/>
<polygon fill="#191970" stroke="#191970" points="1249.6575,-358.5596 1250.0619,-369.1468 1256.348,-360.6182 1249.6575,-358.5596"/>
</g>
<!-- Node333 -->
<g id="node44" class="node">
<title>Node333</title>
<g id="a_node44"><a xlink:href="sitkShow_8h.html" target="_top" xlink:title=" ">
<polygon fill="#ffffff" stroke="#000000" points="2506.5,-196 2506.5,-215 2575.5,-215 2575.5,-196 2506.5,-196"/>
<text text-anchor="middle" x="2541" y="-203" font-family="Helvetica,sans-Serif" font-size="10.00" fill="#000000">sitkShow.h</text>
</a>
</g>
</g>
<!-- Node5&#45;&gt;Node333 -->
<g id="edge108" class="edge">
<title>Node5&#45;&gt;Node333</title>
<path fill="none" stroke="#191970" d="M1294.0624,-370.0477C1413.3553,-347.6672 1737.4652,-288.8037 2010,-257 2225.5722,-231.8436 2284.5646,-265.4453 2497,-221 2503.8175,-219.5736 2511.0201,-217.3564 2517.5797,-215.0406"/>
<polygon fill="#191970" stroke="#191970" points="1293.3409,-366.6219 1284.1601,-371.91 1294.6347,-373.5013 1293.3409,-366.6219"/>
</g>
<!-- Node334 -->
<g id="node45" class="node">
<title>Node334</title>
<g id="a_node45"><a xlink:href="sitkImageConvert_8h.html" target="_top" xlink:title=" ">
<polygon fill="#ffffff" stroke="#000000" points="1105.5,-313.5 1105.5,-332.5 1218.5,-332.5 1218.5,-313.5 1105.5,-313.5"/>
<text text-anchor="middle" x="1162" y="-320.5" font-family="Helvetica,sans-Serif" font-size="10.00" fill="#000000">sitkImageConvert.h</text>
</a>
</g>
</g>
<!-- Node5&#45;&gt;Node334 -->
<g id="edge100" class="edge">
<title>Node5&#45;&gt;Node334</title>
<path fill="none" stroke="#191970" d="M1223.4581,-363.49C1208.461,-353.6096 1189.5027,-341.1194 1176.6362,-332.6427"/>
<polygon fill="#191970" stroke="#191970" points="1221.9179,-366.6666 1232.1941,-369.2455 1225.7691,-360.8212 1221.9179,-366.6666"/>
</g>
<!-- Node6&#45;&gt;Node4 -->
<g id="edge6" class="edge">
<title>Node6&#45;&gt;Node4</title>
<path fill="none" stroke="#191970" d="M3844.0057,-188.3716C3852.4318,-179.1031 3861.5713,-166.9217 3866,-154 3880.1215,-112.7972 3896.5369,-87.0577 3866,-56 3841.3597,-30.9395 1509.1416,-12.6999 1183.5711,-10.2749"/>
<polygon fill="#191970" stroke="#191970" points="3841.3472,-186.0862 3836.921,-195.7122 3846.384,-190.9474 3841.3472,-186.0862"/>
</g>
<!-- Node7&#45;&gt;Node4 -->
<g id="edge8" class="edge">
<title>Node7&#45;&gt;Node4</title>
<path fill="none" stroke="#191970" d="M631.8846,-120.0929C644.5726,-100.5035 667.4872,-70.3913 696,-56 767.9484,-19.6854 1013.7934,-12.0323 1108.4396,-10.4251"/>
<polygon fill="#191970" stroke="#191970" points="628.8097,-118.4098 626.4978,-128.7493 634.7529,-122.1083 628.8097,-118.4098"/>
</g>
<!-- Node8&#45;&gt;Node4 -->
<g id="edge12" class="edge">
<title>Node8&#45;&gt;Node4</title>
<path fill="none" stroke="#191970" d="M2808.4804,-265.4042C3020.3603,-258.8441 3759.3367,-230.5906 3828,-154 3857.0743,-121.569 3858.5332,-87.0614 3828,-56 3803.7196,-31.2996 1506.4824,-12.7678 1183.5535,-10.2839"/>
<polygon fill="#191970" stroke="#191970" points="2808.0946,-261.9142 2798.2061,-265.718 2808.3083,-268.911 2808.0946,-261.9142"/>
</g>
<!-- Node8&#45;&gt;Node6 -->
<g id="edge11" class="edge">
<title>Node8&#45;&gt;Node6</title>
<path fill="none" stroke="#191970" d="M2808.151,-257.419C2809.4451,-257.2701 2810.7295,-257.13 2812,-257 3221.7257,-215.0612 3328.4716,-264.823 3738,-221 3751.2654,-219.5805 3765.5493,-217.3655 3778.6703,-215.0496"/>
<polygon fill="#191970" stroke="#191970" points="2807.5797,-253.9636 2798.1085,-258.7119 2808.4736,-260.9063 2807.5797,-253.9636"/>
</g>
<!-- Node8&#45;&gt;Node324 -->
<g id="edge13" class="edge">
<title>Node8&#45;&gt;Node324</title>
<path fill="none" stroke="#191970" d="M2732.5906,-250.8692C2718.9799,-239.5576 2701.2302,-224.8062 2689.7255,-215.2449"/>
<polygon fill="#191970" stroke="#191970" points="2730.5097,-253.6907 2740.4375,-257.3906 2734.9838,-248.3072 2730.5097,-253.6907"/>
</g>
<!-- Node324&#45;&gt;Node4 -->
<g id="edge14" class="edge">
<title>Node324&#45;&gt;Node4</title>
<path fill="none" stroke="#191970" d="M2772.6336,-202.6128C3029.1093,-194.5657 3719.4844,-171.3391 3736,-154 3745.5026,-144.0236 3744.7618,-133.6329 3736,-123 3636.9457,-2.7919 3546.8806,-72.5447 3392,-56 3164.0428,-31.6491 1460.1802,-13.2248 1183.8199,-10.382"/>
<polygon fill="#191970" stroke="#191970" points="2772.4748,-199.1159 2762.5892,-202.9271 2772.6938,-206.1125 2772.4748,-199.1159"/>
</g>
<!-- Node325&#45;&gt;Node4 -->
<g id="edge83" class="edge">
<title>Node325&#45;&gt;Node4</title>
<path fill="none" stroke="#191970" d="M1072.1589,-247.5006C1066.5995,-229.4797 1055.6109,-203.5137 1036,-190 983.2534,-153.653 792.3725,-202.0404 750,-154 721.1889,-121.335 721.0329,-88.5268 750,-56 773.6194,-29.4781 1013.9197,-15.915 1108.2668,-11.5797"/>
<polygon fill="#191970" stroke="#191970" points="1068.8278,-248.5853 1074.8883,-257.2755 1075.5699,-246.7026 1068.8278,-248.5853"/>
</g>
<!-- Node325&#45;&gt;Node7 -->
<g id="edge82" class="edge">
<title>Node325&#45;&gt;Node7</title>
<path fill="none" stroke="#191970" d="M1065.0093,-248.8153C1051.8914,-230.5794 1029.084,-203.3457 1002,-190 879.1649,-129.4728 831.179,-175.878 696,-154 685.6311,-152.3218 674.5195,-150.2034 664.111,-148.0761"/>
<polygon fill="#191970" stroke="#191970" points="1062.3886,-251.1788 1070.9573,-257.41 1068.1446,-247.1953 1062.3886,-251.1788"/>
</g>
<!-- Node325&#45;&gt;Node324 -->
<g id="edge99" class="edge">
<title>Node325&#45;&gt;Node324</title>
<path fill="none" stroke="#191970" d="M1143.7745,-266.1603C1397.1558,-262.7876 2299.2852,-249.0386 2585,-221 2599.1726,-219.6092 2614.4531,-217.3735 2628.4518,-215.0279"/>
<polygon fill="#191970" stroke="#191970" points="1143.568,-262.6626 1133.6152,-266.2945 1143.6606,-269.662 1143.568,-262.6626"/>
</g>
<!-- Node11 -->
<g id="node11" class="node">
<title>Node11</title>
<g id="a_node11"><a xlink:href="sitkImageFilter_8h.html" target="_top" xlink:title=" ">
<polygon fill="#ffffff" stroke="#ff0000" points="1622,-196 1622,-215 1720,-215 1720,-196 1622,-196"/>
<text text-anchor="middle" x="1671" y="-203" font-family="Helvetica,sans-Serif" font-size="10.00" fill="#000000">sitkImageFilter.h</text>
</a>
</g>
</g>
<!-- Node325&#45;&gt;Node11 -->
<g id="edge16" class="edge">
<title>Node325&#45;&gt;Node11</title>
<path fill="none" stroke="#191970" d="M1143.8874,-260.0748C1264.4376,-247.5936 1515.4819,-221.6016 1621.7664,-210.5974"/>
<polygon fill="#191970" stroke="#191970" points="1143.2725,-256.6197 1133.6861,-261.131 1143.9935,-263.5824 1143.2725,-256.6197"/>
</g>
<!-- Node308 -->
<g id="node35" class="node">
<title>Node308</title>
<g id="a_node35"><a xlink:href="sitkCenteredTransformInitializerFilter_8h.html" target="_top" xlink:title=" ">
<polygon fill="#ffffff" stroke="#000000" points="649.5,-190.5 649.5,-220.5 822.5,-220.5 822.5,-190.5 649.5,-190.5"/>
<text text-anchor="start" x="657.5" y="-208.5" font-family="Helvetica,sans-Serif" font-size="10.00" fill="#000000">sitkCenteredTransformInitializer</text>
<text text-anchor="middle" x="736" y="-197.5" font-family="Helvetica,sans-Serif" font-size="10.00" fill="#000000">Filter.h</text>
</a>
</g>
</g>
<!-- Node325&#45;&gt;Node308 -->
<g id="edge78" class="edge">
<title>Node325&#45;&gt;Node308</title>
<path fill="none" stroke="#191970" d="M1014.1608,-255.6668C959.3469,-245.781 879.4084,-231.364 819.2778,-220.5193"/>
<polygon fill="#191970" stroke="#191970" points="1013.6304,-259.1276 1024.0929,-257.4581 1014.8729,-252.2387 1013.6304,-259.1276"/>
</g>
<!-- Node309 -->
<g id="node36" class="node">
<title>Node309</title>
<g id="a_node36"><a xlink:href="sitkCenteredVersorTransformInitializerFilter_8h.html" target="_top" xlink:title=" ">
<polygon fill="#ffffff" stroke="#000000" points="435,-190.5 435,-220.5 593,-220.5 593,-190.5 435,-190.5"/>
<text text-anchor="start" x="443" y="-208.5" font-family="Helvetica,sans-Serif" font-size="10.00" fill="#000000">sitkCenteredVersorTransform</text>
<text text-anchor="middle" x="514" y="-197.5" font-family="Helvetica,sans-Serif" font-size="10.00" fill="#000000">InitializerFilter.h</text>
</a>
</g>
</g>
<!-- Node325&#45;&gt;Node309 -->
<g id="edge80" class="edge">
<title>Node325&#45;&gt;Node309</title>
<path fill="none" stroke="#191970" d="M1010.282,-260.3439C924.5406,-251.7058 771.102,-235.9628 640,-221 624.8906,-219.2756 608.7725,-217.3547 593.2872,-215.4685"/>
<polygon fill="#191970" stroke="#191970" points="1010.0964,-263.8429 1020.3966,-261.3616 1010.7972,-256.878 1010.0964,-263.8429"/>
</g>
<!-- Node326 -->
<g id="node37" class="node">
<title>Node326</title>
<g id="a_node37"><a xlink:href="sitkImageReaderBase_8h.html" target="_top" xlink:title=" ">
<polygon fill="#ffffff" stroke="#000000" points="171,-196 171,-215 303,-215 303,-196 171,-196"/>
<text text-anchor="middle" x="237" y="-203" font-family="Helvetica,sans-Serif" font-size="10.00" fill="#000000">sitkImageReaderBase.h</text>
</a>
</g>
</g>
<!-- Node325&#45;&gt;Node326 -->
<g id="edge84" class="edge">
<title>Node325&#45;&gt;Node326</title>
<path fill="none" stroke="#191970" d="M1010.0719,-262.5209C892.0675,-254.5678 639.2969,-237.2816 426,-221 385.1302,-217.8803 339.3113,-214.129 303.0234,-211.0983"/>
<polygon fill="#191970" stroke="#191970" points="1010.1707,-266.0354 1020.3833,-263.2152 1010.6411,-259.0512 1010.1707,-266.0354"/>
</g>
<!-- Node325&#45;&gt;Node330 -->
<g id="edge91" class="edge">
<title>Node325&#45;&gt;Node330</title>
<path fill="none" stroke="#191970" d="M1039.8756,-254.1009C1006.3053,-242.4366 957.6479,-225.5302 927.462,-215.0419"/>
<polygon fill="#191970" stroke="#191970" points="1038.7489,-257.4146 1049.3438,-257.3906 1041.0465,-250.8023 1038.7489,-257.4146"/>
</g>
<!-- Node325&#45;&gt;Node331 -->
<g id="edge93" class="edge">
<title>Node325&#45;&gt;Node331</title>
<path fill="none" stroke="#191970" d="M1098.1345,-251.1491C1113.3707,-239.722 1133.4334,-224.6749 1146.2775,-215.0419"/>
<polygon fill="#191970" stroke="#191970" points="1095.7125,-248.5906 1089.8125,-257.3906 1099.9125,-254.1906 1095.7125,-248.5906"/>
</g>
<!-- Node325&#45;&gt;Node332 -->
<g id="edge95" class="edge">
<title>Node325&#45;&gt;Node332</title>
<path fill="none" stroke="#191970" d="M1121.0111,-254.6969C1162.7859,-243.0189 1224.7032,-225.7103 1262.8664,-215.0419"/>
<polygon fill="#191970" stroke="#191970" points="1120.0635,-251.3275 1111.375,-257.3906 1121.9481,-258.0691 1120.0635,-251.3275"/>
</g>
<!-- Node325&#45;&gt;Node333 -->
<g id="edge97" class="edge">
<title>Node325&#45;&gt;Node333</title>
<path fill="none" stroke="#191970" d="M1143.6633,-265.4076C1415.6109,-258.8388 2429.8709,-233.6001 2497,-221 2504.0048,-219.6852 2511.393,-217.4428 2518.0733,-215.0658"/>
<polygon fill="#191970" stroke="#191970" points="1143.4572,-261.9115 1133.5446,-265.6517 1143.6261,-268.9095 1143.4572,-261.9115"/>
</g>
<!-- Node11&#45;&gt;Node4 -->
<g id="edge28" class="edge">
<title>Node11&#45;&gt;Node4</title>
<path fill="none" stroke="#191970" d="M1611.5769,-202.0411C1448.5158,-192.4121 1005.44,-165.2656 995,-154 985.635,-143.8944 985.6404,-133.1106 995,-123 1065.5579,-46.781 1390.4421,-163.219 1461,-87 1470.3596,-76.8894 1470.011,-66.4225 1461,-56 1443.0397,-35.2265 1263.102,-18.9824 1183.5203,-12.7559"/>
<polygon fill="#191970" stroke="#191970" points="1611.7164,-205.5553 1621.9049,-202.6497 1612.1282,-198.5675 1611.7164,-205.5553"/>
</g>
<!-- Node11&#45;&gt;Node7 -->
<g id="edge23" class="edge">
<title>Node11&#45;&gt;Node7</title>
<path fill="none" stroke="#191970" d="M1611.892,-202.4154C1472.3024,-195.0324 1111.2855,-175.3623 810,-154 767.3077,-150.973 719.2367,-147.0232 682.2589,-143.8685"/>
<polygon fill="#191970" stroke="#191970" points="1611.7807,-205.9143 1621.9513,-202.9465 1612.1498,-198.9241 1611.7807,-205.9143"/>
</g>
<!-- Node10 -->
<g id="node12" class="node">
<title>Node10</title>
<g id="a_node12"><a xlink:href="sitkBSplineTransformInitializerFilter_8h.html" target="_top" xlink:title=" ">
<polygon fill="#ffffff" stroke="#000000" points="814,-56.5 814,-86.5 980,-86.5 980,-56.5 814,-56.5"/>
<text text-anchor="start" x="822" y="-74.5" font-family="Helvetica,sans-Serif" font-size="10.00" fill="#000000">sitkBSplineTransformInitializer</text>
<text text-anchor="middle" x="897" y="-63.5" font-family="Helvetica,sans-Serif" font-size="10.00" fill="#000000">Filter.h</text>
</a>
</g>
</g>
<!-- Node11&#45;&gt;Node10 -->
<g id="edge17" class="edge">
<title>Node11&#45;&gt;Node10</title>
<path fill="none" stroke="#191970" d="M1611.5738,-202.1981C1438.2751,-192.4617 944.7721,-163.9297 931,-154 909.1352,-138.2354 901.2857,-105.7879 898.5005,-86.6186"/>
<polygon fill="#191970" stroke="#191970" points="1611.6065,-205.7053 1621.7868,-202.7709 1611.9986,-198.7163 1611.6065,-205.7053"/>
</g>
<!-- Node12 -->
<g id="node13" class="node">
<title>Node12</title>
<g id="a_node13"><a xlink:href="sitkCastImageFilter_8h.html" target="_top" xlink:title=" ">
<polygon fill="#ffffff" stroke="#000000" points="1004.5,-129 1004.5,-148 1123.5,-148 1123.5,-129 1004.5,-129"/>
<text text-anchor="middle" x="1064" y="-136" font-family="Helvetica,sans-Serif" font-size="10.00" fill="#000000">sitkCastImageFilter.h</text>
</a>
</g>
</g>
<!-- Node11&#45;&gt;Node12 -->
<g id="edge19" class="edge">
<title>Node11&#45;&gt;Node12</title>
<path fill="none" stroke="#191970" d="M1611.6272,-202.2602C1512.1502,-196.2866 1305.7176,-181.5545 1133,-154 1123.058,-152.4139 1112.4057,-150.2536 1102.5182,-148.0497"/>
<polygon fill="#191970" stroke="#191970" points="1611.5908,-205.7641 1621.7804,-202.8617 1612.0049,-198.7764 1611.5908,-205.7641"/>
</g>
<!-- Node13 -->
<g id="node14" class="node">
<title>Node13</title>
<g id="a_node14"><a xlink:href="sitkExtractImageFilter_8h.html" target="_top" xlink:title=" ">
<polygon fill="#ffffff" stroke="#000000" points="998,-62 998,-81 1130,-81 1130,-62 998,-62"/>
<text text-anchor="middle" x="1064" y="-69" font-family="Helvetica,sans-Serif" font-size="10.00" fill="#000000">sitkExtractImageFilter.h</text>
</a>
</g>
</g>
<!-- Node11&#45;&gt;Node13 -->
<g id="edge21" class="edge">
<title>Node11&#45;&gt;Node13</title>
<path fill="none" stroke="#191970" d="M1611.658,-202.3807C1439.8409,-193.2114 953.3904,-166.2235 942,-154 911.4083,-121.1709 980.0976,-94.5807 1026.3216,-81.1041"/>
<polygon fill="#191970" stroke="#191970" points="1611.6153,-205.8832 1621.7873,-202.92 1611.9876,-198.8931 1611.6153,-205.8832"/>
</g>
<!-- Node14 -->
<g id="node15" class="node">
<title>Node14</title>
<g id="a_node15"><a xlink:href="sitkLandmarkBasedTransformInitializerFilter_8h.html" target="_top" xlink:title=" ">
<polygon fill="#ffffff" stroke="#000000" points="1148,-56.5 1148,-86.5 1310,-86.5 1310,-56.5 1148,-56.5"/>
<text text-anchor="start" x="1156" y="-74.5" font-family="Helvetica,sans-Serif" font-size="10.00" fill="#000000">sitkLandmarkBasedTransform</text>
<text text-anchor="middle" x="1229" y="-63.5" font-family="Helvetica,sans-Serif" font-size="10.00" fill="#000000">InitializerFilter.h</text>
</a>
</g>
</g>
<!-- Node11&#45;&gt;Node14 -->
<g id="edge24" class="edge">
<title>Node11&#45;&gt;Node14</title>
<path fill="none" stroke="#191970" d="M1611.8792,-202.3333C1441.8949,-193.0913 963.216,-166.0481 952,-154 942.6121,-143.9156 943.1929,-133.5954 952,-123 953.6,-121.0751 1066.4877,-100.5415 1147.6385,-85.9928"/>
<polygon fill="#191970" stroke="#191970" points="1611.7287,-205.8302 1621.9036,-202.8771 1612.108,-198.8405 1611.7287,-205.8302"/>
</g>
<!-- Node15 -->
<g id="node16" class="node">
<title>Node15</title>
<g id="a_node16"><a xlink:href="sitkPasteImageFilter_8h.html" target="_top" xlink:title=" ">
<polygon fill="#ffffff" stroke="#000000" points="1328,-62 1328,-81 1452,-81 1452,-62 1328,-62"/>
<text text-anchor="middle" x="1390" y="-69" font-family="Helvetica,sans-Serif" font-size="10.00" fill="#000000">sitkPasteImageFilter.h</text>
</a>
</g>
</g>
<!-- Node11&#45;&gt;Node15 -->
<g id="edge26" class="edge">
<title>Node11&#45;&gt;Node15</title>
<path fill="none" stroke="#191970" d="M1611.5681,-202.2552C1442.9637,-192.9122 973.03,-165.8603 962,-154 952.6172,-143.9109 952.7593,-133.2194 962,-123 1015.4785,-63.8575 1240.254,-99.5238 1319,-87 1329.0927,-85.3949 1339.9066,-83.2537 1349.975,-81.0765"/>
<polygon fill="#191970" stroke="#191970" points="1611.5772,-205.761 1621.7552,-202.8185 1611.9637,-198.7717 1611.5772,-205.761"/>
</g>
<!-- Node16 -->
<g id="node17" class="node">
<title>Node16</title>
<g id="a_node17"><a xlink:href="sitkAbsImageFilter_8h.html" target="_top" xlink:title=" ">
<polygon fill="#ffffff" stroke="#000000" points="1142,-129 1142,-148 1258,-148 1258,-129 1142,-129"/>
<text text-anchor="middle" x="1200" y="-136" font-family="Helvetica,sans-Serif" font-size="10.00" fill="#000000">sitkAbsImageFilter.h</text>
</a>
</g>
</g>
<!-- Node11&#45;&gt;Node16 -->
<g id="edge29" class="edge">
<title>Node11&#45;&gt;Node16</title>
<path fill="none" stroke="#191970" d="M1611.7005,-199.8272C1532.6981,-191.8395 1388.7303,-175.7826 1267,-154 1257.598,-152.3176 1247.5293,-150.173 1238.1287,-148.0194"/>
<polygon fill="#191970" stroke="#191970" points="1611.6415,-203.3387 1621.9409,-200.8541 1612.34,-196.3737 1611.6415,-203.3387"/>
</g>
<!-- Node19 -->
<g id="node20" class="node">
<title>Node19</title>
<g id="a_node20"><a xlink:href="sitkAbsoluteValueDifferenceImageFilter_8h.html" target="_top" xlink:title=" ">
<polygon fill="#ffffff" stroke="#000000" points="1276.5,-123.5 1276.5,-153.5 1431.5,-153.5 1431.5,-123.5 1276.5,-123.5"/>
<text text-anchor="start" x="1284.5" y="-141.5" font-family="Helvetica,sans-Serif" font-size="10.00" fill="#000000">sitkAbsoluteValueDifference</text>
<text text-anchor="middle" x="1354" y="-130.5" font-family="Helvetica,sans-Serif" font-size="10.00" fill="#000000">ImageFilter.h</text>
</a>
</g>
</g>
<!-- Node11&#45;&gt;Node19 -->
<g id="edge33" class="edge">
<title>Node11&#45;&gt;Node19</title>
<path fill="none" stroke="#191970" d="M1616.0502,-193.886C1563.1814,-182.7118 1482.9794,-165.7606 1425.232,-153.5553"/>
<polygon fill="#191970" stroke="#191970" points="1615.4106,-197.3281 1625.9183,-195.9717 1616.8582,-190.4794 1615.4106,-197.3281"/>
</g>
<!-- Node20 -->
<g id="node21" class="node">
<title>Node20</title>
<g id="a_node21"><a xlink:href="sitkAcosImageFilter_8h.html" target="_top" xlink:title=" ">
<polygon fill="#ffffff" stroke="#000000" points="1449.5,-129 1449.5,-148 1570.5,-148 1570.5,-129 1449.5,-129"/>
<text text-anchor="middle" x="1510" y="-136" font-family="Helvetica,sans-Serif" font-size="10.00" fill="#000000">sitkAcosImageFilter.h</text>
</a>
</g>
</g>
<!-- Node11&#45;&gt;Node20 -->
<g id="edge36" class="edge">
<title>Node11&#45;&gt;Node20</title>
<path fill="none" stroke="#191970" d="M1638.3478,-191.9118C1607.0555,-178.8895 1560.6223,-159.5664 1533.0246,-148.0817"/>
<polygon fill="#191970" stroke="#191970" points="1637.3554,-195.2898 1647.9326,-195.9005 1640.0449,-188.827 1637.3554,-195.2898"/>
</g>
<!-- Node67 -->
<g id="node22" class="node">
<title>Node67</title>
<g id="a_node22"><a xlink:href="sitkClampImageFilter_8h.html" target="_top" xlink:title=" ">
<polygon fill="#ffffff" stroke="#000000" points="2405.5,-129 2405.5,-148 2534.5,-148 2534.5,-129 2405.5,-129"/>
<text text-anchor="middle" x="2470" y="-136" font-family="Helvetica,sans-Serif" font-size="10.00" fill="#000000">sitkClampImageFilter.h</text>
</a>
</g>
</g>
<!-- Node11&#45;&gt;Node67 -->
<g id="edge39" class="edge">
<title>Node11&#45;&gt;Node67</title>
<path fill="none" stroke="#191970" d="M1730.0745,-204.015C1854.0328,-200.3041 2150.1525,-188.3181 2396,-154 2406.92,-152.4757 2418.641,-150.2829 2429.4617,-148.0244"/>
<polygon fill="#191970" stroke="#191970" points="1729.9267,-200.5177 1720.0333,-204.3086 1730.1314,-207.5147 1729.9267,-200.5177"/>
</g>
<!-- Node160 -->
<g id="node23" class="node">
<title>Node160</title>
<g id="a_node23"><a xlink:href="sitkLabelIntensityStatisticsImageFilter_8h.html" target="_top" xlink:title=" ">
<polygon fill="#ffffff" stroke="#000000" points="2552.5,-123.5 2552.5,-153.5 2701.5,-153.5 2701.5,-123.5 2552.5,-123.5"/>
<text text-anchor="start" x="2560.5" y="-141.5" font-family="Helvetica,sans-Serif" font-size="10.00" fill="#000000">sitkLabelIntensityStatistics</text>
<text text-anchor="middle" x="2627" y="-130.5" font-family="Helvetica,sans-Serif" font-size="10.00" fill="#000000">ImageFilter.h</text>
</a>
</g>
</g>
<!-- Node11&#45;&gt;Node160 -->
<g id="edge42" class="edge">
<title>Node11&#45;&gt;Node160</title>
<path fill="none" stroke="#191970" d="M1730.6223,-204.5629C1872.2224,-201.7758 2239.6635,-191.244 2544,-154 2546.7646,-153.6617 2549.5759,-153.2882 2552.412,-152.8866"/>
<polygon fill="#191970" stroke="#191970" points="1730.3518,-201.0673 1720.4205,-204.7579 1730.4856,-208.066 1730.3518,-201.0673"/>
</g>
<!-- Node161 -->
<g id="node24" class="node">
<title>Node161</title>
<g id="a_node24"><a xlink:href="sitkLabelMapContourOverlayImageFilter_8h.html" target="_top" xlink:title=" ">
<polygon fill="#ffffff" stroke="#000000" points="2719,-123.5 2719,-153.5 2877,-153.5 2877,-123.5 2719,-123.5"/>
<text text-anchor="start" x="2727" y="-141.5" font-family="Helvetica,sans-Serif" font-size="10.00" fill="#000000">sitkLabelMapContourOverlay</text>
<text text-anchor="middle" x="2798" y="-130.5" font-family="Helvetica,sans-Serif" font-size="10.00" fill="#000000">ImageFilter.h</text>
</a>
</g>
</g>
<!-- Node11&#45;&gt;Node161 -->
<g id="edge45" class="edge">
<title>Node11&#45;&gt;Node161</title>
<path fill="none" stroke="#191970" d="M1730.1096,-203.5614C1920.8476,-197.1502 2518.7449,-175.7973 2711,-154 2713.5915,-153.7062 2716.2225,-153.383 2718.8763,-153.0357"/>
<polygon fill="#191970" stroke="#191970" points="1729.8773,-200.0671 1720.0001,-203.9 1730.1117,-207.0632 1729.8773,-200.0671"/>
</g>
<!-- Node162 -->
<g id="node25" class="node">
<title>Node162</title>
<g id="a_node25"><a xlink:href="sitkLabelMapMaskImageFilter_8h.html" target="_top" xlink:title=" ">
<polygon fill="#ffffff" stroke="#000000" points="2895,-129 2895,-148 3065,-148 3065,-129 2895,-129"/>
<text text-anchor="middle" x="2980" y="-136" font-family="Helvetica,sans-Serif" font-size="10.00" fill="#000000">sitkLabelMapMaskImageFilter.h</text>
</a>
</g>
</g>
<!-- Node11&#45;&gt;Node162 -->
<g id="edge48" class="edge">
<title>Node11&#45;&gt;Node162</title>
<path fill="none" stroke="#191970" d="M1730.5288,-203.9331C1942.1992,-198.2122 2657.9203,-177.5508 2886,-154 2899.9845,-152.556 2915.0454,-150.3621 2928.9262,-148.0755"/>
<polygon fill="#191970" stroke="#191970" points="1730.1465,-200.442 1720.2444,-204.21 1730.335,-207.4395 1730.1465,-200.442"/>
</g>
<!-- Node163 -->
<g id="node26" class="node">
<title>Node163</title>
<g id="a_node26"><a xlink:href="sitkLabelMapOverlayImageFilter_8h.html" target="_top" xlink:title=" ">
<polygon fill="#ffffff" stroke="#000000" points="3083,-123.5 3083,-153.5 3233,-153.5 3233,-123.5 3083,-123.5"/>
<text text-anchor="start" x="3091" y="-141.5" font-family="Helvetica,sans-Serif" font-size="10.00" fill="#000000">sitkLabelMapOverlayImage</text>
<text text-anchor="middle" x="3158" y="-130.5" font-family="Helvetica,sans-Serif" font-size="10.00" fill="#000000">Filter.h</text>
</a>
</g>
</g>
<!-- Node11&#45;&gt;Node163 -->
<g id="edge51" class="edge">
<title>Node11&#45;&gt;Node163</title>
<path fill="none" stroke="#191970" d="M1730.5145,-203.8284C1980.5614,-196.7355 2939.3496,-168.8145 3074,-154 3076.9481,-153.6756 3079.9483,-153.3074 3082.9744,-152.904"/>
<polygon fill="#191970" stroke="#191970" points="1730.0799,-200.3392 1720.183,-204.1211 1730.2781,-207.3364 1730.0799,-200.3392"/>
</g>
<!-- Node168 -->
<g id="node27" class="node">
<title>Node168</title>
<g id="a_node27"><a xlink:href="sitkLabelOverlayImageFilter_8h.html" target="_top" xlink:title=" ">
<polygon fill="#ffffff" stroke="#000000" points="3251,-129 3251,-148 3413,-148 3413,-129 3251,-129"/>
<text text-anchor="middle" x="3332" y="-136" font-family="Helvetica,sans-Serif" font-size="10.00" fill="#000000">sitkLabelOverlayImageFilter.h</text>
</a>
</g>
</g>
<!-- Node11&#45;&gt;Node168 -->
<g id="edge54" class="edge">
<title>Node11&#45;&gt;Node168</title>
<path fill="none" stroke="#191970" d="M1730.4627,-204.0368C1998.7252,-197.3699 3089.7984,-169.5263 3242,-154 3255.7227,-152.6001 3270.5126,-150.3616 3284.0596,-148.0161"/>
<polygon fill="#191970" stroke="#191970" points="1730.0658,-200.5455 1720.1558,-204.2926 1730.2396,-207.5433 1730.0658,-200.5455"/>
</g>
<!-- Node170 -->
<g id="node28" class="node">
<title>Node170</title>
<g id="a_node28"><a xlink:href="sitkLabelStatisticsImageFilter_8h.html" target="_top" xlink:title=" ">
<polygon fill="#ffffff" stroke="#000000" points="3431.5,-123.5 3431.5,-153.5 3568.5,-153.5 3568.5,-123.5 3431.5,-123.5"/>
<text text-anchor="start" x="3439.5" y="-141.5" font-family="Helvetica,sans-Serif" font-size="10.00" fill="#000000">sitkLabelStatisticsImage</text>
<text text-anchor="middle" x="3500" y="-130.5" font-family="Helvetica,sans-Serif" font-size="10.00" fill="#000000">Filter.h</text>
</a>
</g>
</g>
<!-- Node11&#45;&gt;Node170 -->
<g id="edge57" class="edge">
<title>Node11&#45;&gt;Node170</title>
<path fill="none" stroke="#191970" d="M1730.2759,-204.0346C2026.5749,-196.6741 3336.2778,-163.7092 3422,-154 3425.0181,-153.6582 3428.0936,-153.2606 3431.1942,-152.8194"/>
<polygon fill="#191970" stroke="#191970" points="1730.0768,-200.5383 1720.1668,-204.2855 1730.2506,-207.5362 1730.0768,-200.5383"/>
</g>
<!-- Node186 -->
<g id="node29" class="node">
<title>Node186</title>
<g id="a_node29"><a xlink:href="sitkMaskImageFilter_8h.html" target="_top" xlink:title=" ">
<polygon fill="#ffffff" stroke="#000000" points="3586.5,-129 3586.5,-148 3709.5,-148 3709.5,-129 3586.5,-129"/>
<text text-anchor="middle" x="3648" y="-136" font-family="Helvetica,sans-Serif" font-size="10.00" fill="#000000">sitkMaskImageFilter.h</text>
</a>
</g>
</g>
<!-- Node11&#45;&gt;Node186 -->
<g id="edge60" class="edge">
<title>Node11&#45;&gt;Node186</title>
<path fill="none" stroke="#191970" d="M1730.5418,-204.0478C2048.2345,-196.2805 3531.0491,-159.7783 3578,-154 3588.8715,-152.662 3600.5403,-150.4124 3611.1737,-148.0359"/>
<polygon fill="#191970" stroke="#191970" points="1730.0829,-200.5579 1720.1714,-204.3013 1730.254,-207.5558 1730.0829,-200.5579"/>
</g>
<!-- Node187 -->
<g id="node30" class="node">
<title>Node187</title>
<g id="a_node30"><a xlink:href="sitkMaskNegatedImageFilter_8h.html" target="_top" xlink:title=" ">
<polygon fill="#ffffff" stroke="#000000" points="1589,-129 1589,-148 1753,-148 1753,-129 1589,-129"/>
<text text-anchor="middle" x="1671" y="-136" font-family="Helvetica,sans-Serif" font-size="10.00" fill="#000000">sitkMaskNegatedImageFilter.h</text>
</a>
</g>
</g>
<!-- Node11&#45;&gt;Node187 -->
<g id="edge63" class="edge">
<title>Node11&#45;&gt;Node187</title>
<path fill="none" stroke="#191970" d="M1671,-185.6079C1671,-173.214 1671,-157.8263 1671,-148.0817"/>
<polygon fill="#191970" stroke="#191970" points="1667.5001,-185.9005 1671,-195.9005 1674.5001,-185.9006 1667.5001,-185.9005"/>
</g>
<!-- Node205 -->
<g id="node31" class="node">
<title>Node205</title>
<g id="a_node31"><a xlink:href="sitkMorphologicalWatershedFromMarkersImageFilter_8h.html" target="_top" xlink:title=" ">
<polygon fill="#ffffff" stroke="#000000" points="1771.5,-123.5 1771.5,-153.5 1926.5,-153.5 1926.5,-123.5 1771.5,-123.5"/>
<text text-anchor="start" x="1779.5" y="-141.5" font-family="Helvetica,sans-Serif" font-size="10.00" fill="#000000">sitkMorphologicalWatershed</text>
<text text-anchor="middle" x="1849" y="-130.5" font-family="Helvetica,sans-Serif" font-size="10.00" fill="#000000">FromMarkersImageFilter.h</text>
</a>
</g>
</g>
<!-- Node11&#45;&gt;Node205 -->
<g id="edge66" class="edge">
<title>Node11&#45;&gt;Node205</title>
<path fill="none" stroke="#191970" d="M1706.028,-192.3153C1735.669,-181.1583 1778.1429,-165.1709 1809.0914,-153.5218"/>
<polygon fill="#191970" stroke="#191970" points="1704.629,-189.1021 1696.5031,-195.9005 1707.095,-195.6534 1704.629,-189.1021"/>
</g>
<!-- Node241 -->
<g id="node32" class="node">
<title>Node241</title>
<g id="a_node32"><a xlink:href="sitkResampleImageFilter_8h.html" target="_top" xlink:title=" ">
<polygon fill="#ffffff" stroke="#000000" points="1945,-129 1945,-148 2091,-148 2091,-129 1945,-129"/>
<text text-anchor="middle" x="2018" y="-136" font-family="Helvetica,sans-Serif" font-size="10.00" fill="#000000">sitkResampleImageFilter.h</text>
</a>
</g>
</g>
<!-- Node11&#45;&gt;Node241 -->
<g id="edge69" class="edge">
<title>Node11&#45;&gt;Node241</title>
<path fill="none" stroke="#191970" d="M1730.3576,-194.039C1797.5349,-181.0682 1905.7523,-160.1732 1968.5415,-148.0496"/>
<polygon fill="#191970" stroke="#191970" points="1729.5032,-190.6393 1720.3481,-195.9717 1730.8303,-197.5123 1729.5032,-190.6393"/>
</g>
<!-- Node294 -->
<g id="node33" class="node">
<title>Node294</title>
<g id="a_node33"><a xlink:href="sitkVectorIndexSelectionCastImageFilter_8h.html" target="_top" xlink:title=" ">
<polygon fill="#ffffff" stroke="#000000" points="2109.5,-123.5 2109.5,-153.5 2246.5,-153.5 2246.5,-123.5 2109.5,-123.5"/>
<text text-anchor="start" x="2117.5" y="-141.5" font-family="Helvetica,sans-Serif" font-size="10.00" fill="#000000">sitkVectorIndexSelection</text>
<text text-anchor="middle" x="2178" y="-130.5" font-family="Helvetica,sans-Serif" font-size="10.00" fill="#000000">CastImageFilter.h</text>
</a>
</g>
</g>
<!-- Node11&#45;&gt;Node294 -->
<g id="edge72" class="edge">
<title>Node11&#45;&gt;Node294</title>
<path fill="none" stroke="#191970" d="M1730.0532,-199.8584C1812.9536,-191.6097 1968.4363,-174.9373 2100,-154 2102.9997,-153.5226 2106.0598,-153.0128 2109.1479,-152.4797"/>
<polygon fill="#191970" stroke="#191970" points="1729.6728,-196.3788 1720.0659,-200.8462 1730.3619,-203.3448 1729.6728,-196.3788"/>
</g>
<!-- Node299 -->
<g id="node34" class="node">
<title>Node299</title>
<g id="a_node34"><a xlink:href="sitkWarpImageFilter_8h.html" target="_top" xlink:title=" ">
<polygon fill="#ffffff" stroke="#000000" points="2265,-129 2265,-148 2387,-148 2387,-129 2265,-129"/>
<text text-anchor="middle" x="2326" y="-136" font-family="Helvetica,sans-Serif" font-size="10.00" fill="#000000">sitkWarpImageFilter.h</text>
</a>
</g>
</g>
<!-- Node11&#45;&gt;Node299 -->
<g id="edge75" class="edge">
<title>Node11&#45;&gt;Node299</title>
<path fill="none" stroke="#191970" d="M1730.3584,-202.8305C1836.3862,-197.4944 2065.1064,-183.4095 2256,-154 2266.2107,-152.4269 2277.1586,-150.2446 2287.2924,-148.0134"/>
<polygon fill="#191970" stroke="#191970" points="1729.995,-199.3441 1720.1804,-203.3347 1730.3414,-206.3355 1729.995,-199.3441"/>
</g>
<!-- Node10&#45;&gt;Node4 -->
<g id="edge18" class="edge">
<title>Node10&#45;&gt;Node4</title>
<path fill="none" stroke="#191970" d="M967.7562,-54.0241C1013.4092,-42.7483 1070.9937,-28.5257 1108.1505,-19.3484"/>
<polygon fill="#191970" stroke="#191970" points="966.7813,-50.6596 957.9123,-56.4554 968.4598,-57.4554 966.7813,-50.6596"/>
</g>
<!-- Node12&#45;&gt;Node4 -->
<g id="edge20" class="edge">
<title>Node12&#45;&gt;Node4</title>
<path fill="none" stroke="#191970" d="M1112.45,-126.8381C1119.3231,-125.4113 1126.3224,-124.0789 1133,-123 1212.5881,-110.1413 1439.8953,-146.7686 1494,-87 1503.2464,-76.7857 1503.0816,-66.3611 1494,-56 1473.7392,-32.8849 1269.2773,-17.6335 1183.5304,-12.2076"/>
<polygon fill="#191970" stroke="#191970" points="1111.5607,-123.4493 1102.5226,-128.9776 1113.0355,-130.2922 1111.5607,-123.4493"/>
</g>
<!-- Node13&#45;&gt;Node4 -->
<g id="edge22" class="edge">
<title>Node13&#45;&gt;Node4</title>
<path fill="none" stroke="#191970" d="M1085.1345,-55.6491C1100.3707,-44.222 1120.4334,-29.1749 1133.2775,-19.5419"/>
<polygon fill="#191970" stroke="#191970" points="1082.7125,-53.0906 1076.8125,-61.8906 1086.9125,-58.6906 1082.7125,-53.0906"/>
</g>
<!-- Node14&#45;&gt;Node4 -->
<g id="edge25" class="edge">
<title>Node14&#45;&gt;Node4</title>
<path fill="none" stroke="#191970" d="M1200.1645,-50.1339C1186.2673,-39.8366 1170.2745,-27.9865 1159.2894,-19.8469"/>
<polygon fill="#191970" stroke="#191970" points="1198.3647,-53.1564 1208.4831,-56.2977 1202.5321,-47.5321 1198.3647,-53.1564"/>
</g>
<!-- Node15&#45;&gt;Node4 -->
<g id="edge27" class="edge">
<title>Node15&#45;&gt;Node4</title>
<path fill="none" stroke="#191970" d="M1342.3122,-59.4803C1295.8597,-47.772 1226.188,-30.2113 1183.545,-19.4632"/>
<polygon fill="#191970" stroke="#191970" points="1341.5905,-62.9078 1352.1427,-61.9581 1343.3014,-56.1201 1341.5905,-62.9078"/>
</g>
<!-- Node17 -->
<g id="node18" class="node">
<title>Node17</title>
<g id="a_node18"><a xlink:href="CMakeTmp_2SimpleITKBasicFiltersGeneratedHeaders_8h.html" target="_top" xlink:title=" ">
<polygon fill="#ffffff" stroke="#000000" points="2383.5,-56.5 2383.5,-86.5 2556.5,-86.5 2556.5,-56.5 2383.5,-56.5"/>
<text text-anchor="start" x="2391.5" y="-74.5" font-family="Helvetica,sans-Serif" font-size="10.00" fill="#000000">SimpleITKBasicFiltersGenerated</text>
<text text-anchor="middle" x="2470" y="-63.5" font-family="Helvetica,sans-Serif" font-size="10.00" fill="#000000">Headers.h</text>
</a>
</g>
</g>
<!-- Node16&#45;&gt;Node17 -->
<g id="edge30" class="edge">
<title>Node16&#45;&gt;Node17</title>
<path fill="none" stroke="#191970" d="M1245.0116,-126.8251C1252.3187,-125.2949 1259.8377,-123.9357 1267,-123 1755.5525,-59.1718 1884.6169,-134.7695 2375,-87 2377.7443,-86.7327 2380.5296,-86.4354 2383.339,-86.1132"/>
<polygon fill="#191970" stroke="#191970" points="1244.237,-123.4117 1235.2321,-128.9939 1245.7527,-130.2457 1244.237,-123.4117"/>
</g>
<!-- Node18 -->
<g id="node19" class="node">
<title>Node18</title>
<g id="a_node19"><a xlink:href="include_2SimpleITKBasicFiltersGeneratedHeaders_8h.html" target="_top" xlink:title=" ">
<polygon fill="#ffffff" stroke="#000000" points="2192.5,-56.5 2192.5,-86.5 2365.5,-86.5 2365.5,-56.5 2192.5,-56.5"/>
<text text-anchor="start" x="2200.5" y="-74.5" font-family="Helvetica,sans-Serif" font-size="10.00" fill="#000000">SimpleITKBasicFiltersGenerated</text>
<text text-anchor="middle" x="2279" y="-63.5" font-family="Helvetica,sans-Serif" font-size="10.00" fill="#000000">Headers.h</text>
</a>
</g>
</g>
<!-- Node16&#45;&gt;Node18 -->
<g id="edge31" class="edge">
<title>Node16&#45;&gt;Node18</title>
<path fill="none" stroke="#191970" d="M1246.0132,-126.7327C1253.0069,-125.2708 1260.168,-123.9565 1267,-123 1444.5983,-98.1365 1981.1653,-80.212 2192.3067,-73.9434"/>
<polygon fill="#191970" stroke="#191970" points="1244.9545,-123.3821 1235.9442,-128.9557 1246.4637,-130.2175 1244.9545,-123.3821"/>
</g>
<!-- Node18&#45;&gt;Node4 -->
<g id="edge32" class="edge">
<title>Node18&#45;&gt;Node4</title>
<path fill="none" stroke="#191970" d="M2182.4389,-66.2586C1944.9121,-53.3655 1340.1551,-20.5389 1183.5104,-12.0361"/>
<polygon fill="#191970" stroke="#191970" points="2182.2693,-69.7545 2192.4443,-66.8017 2182.6488,-62.7647 2182.2693,-69.7545"/>
</g>
<!-- Node19&#45;&gt;Node17 -->
<g id="edge34" class="edge">
<title>Node19&#45;&gt;Node17</title>
<path fill="none" stroke="#191970" d="M1441.8761,-122.8926C1855.1793,-78.8169 1964.5523,-128.227 2375,-87 2377.7435,-86.7244 2380.5281,-86.42 2383.3369,-86.0915"/>
<polygon fill="#191970" stroke="#191970" points="1441.312,-119.4331 1431.745,-123.9852 1442.0626,-126.3927 1441.312,-119.4331"/>
</g>
<!-- Node19&#45;&gt;Node18 -->
<g id="edge35" class="edge">
<title>Node19&#45;&gt;Node18</title>
<path fill="none" stroke="#191970" d="M1442.0907,-122.8304C1721.416,-89.7759 2041.6395,-77.6545 2192.3407,-73.4787"/>
<polygon fill="#191970" stroke="#191970" points="1441.2683,-119.4037 1431.7542,-124.0655 1442.0988,-126.3542 1441.2683,-119.4037"/>
</g>
<!-- Node20&#45;&gt;Node17 -->
<g id="edge37" class="edge">
<title>Node20&#45;&gt;Node17</title>
<path fill="none" stroke="#191970" d="M1557.5784,-126.8117C1565.0446,-125.3119 1572.7042,-123.9656 1580,-123 1930.6379,-76.5941 2023.1971,-123.5395 2375,-87 2377.7426,-86.7151 2380.5263,-86.4026 2383.3344,-86.0672"/>
<polygon fill="#191970" stroke="#191970" points="1556.6276,-123.4353 1547.5693,-128.9305 1558.0774,-130.2835 1556.6276,-123.4353"/>
</g>
<!-- Node20&#45;&gt;Node18 -->
<g id="edge38" class="edge">
<title>Node20&#45;&gt;Node18</title>
<path fill="none" stroke="#191970" d="M1558.1249,-126.8885C1565.4225,-125.4055 1572.888,-124.0438 1580,-123 1799.1158,-90.8407 2059.9734,-78.3781 2192.473,-73.8604"/>
<polygon fill="#191970" stroke="#191970" points="1557.3824,-123.468 1548.3267,-128.9674 1558.8354,-130.3156 1557.3824,-123.468"/>
</g>
<!-- Node67&#45;&gt;Node17 -->
<g id="edge40" class="edge">
<title>Node67&#45;&gt;Node17</title>
<path fill="none" stroke="#191970" d="M2470,-118.7758C2470,-108.4641 2470,-96.0437 2470,-86.5218"/>
<polygon fill="#191970" stroke="#191970" points="2466.5001,-118.9005 2470,-128.9005 2473.5001,-118.9006 2466.5001,-118.9005"/>
</g>
<!-- Node67&#45;&gt;Node18 -->
<g id="edge41" class="edge">
<title>Node67&#45;&gt;Node18</title>
<path fill="none" stroke="#191970" d="M2432.8278,-125.4605C2401.0046,-114.2974 2355.1764,-98.2216 2321.8232,-86.5218"/>
<polygon fill="#191970" stroke="#191970" points="2432.0395,-128.8931 2442.6344,-128.9005 2434.3566,-122.2877 2432.0395,-128.8931"/>
</g>
<!-- Node160&#45;&gt;Node17 -->
<g id="edge43" class="edge">
<title>Node160&#45;&gt;Node17</title>
<path fill="none" stroke="#191970" d="M2582.3641,-119.4516C2557.965,-109.0392 2528.166,-96.3224 2505.3875,-86.6017"/>
<polygon fill="#191970" stroke="#191970" points="2581.1948,-122.7579 2591.7661,-123.4639 2583.9424,-116.3197 2581.1948,-122.7579"/>
</g>
<!-- Node160&#45;&gt;Node18 -->
<g id="edge44" class="edge">
<title>Node160&#45;&gt;Node18</title>
<path fill="none" stroke="#191970" d="M2542.3699,-122.2063C2485.9116,-111.3364 2412.2225,-97.1492 2357.1522,-86.5465"/>
<polygon fill="#191970" stroke="#191970" points="2541.8639,-125.6731 2552.3453,-124.1268 2543.1873,-118.7993 2541.8639,-125.6731"/>
</g>
<!-- Node161&#45;&gt;Node17 -->
<g id="edge46" class="edge">
<title>Node161&#45;&gt;Node17</title>
<path fill="none" stroke="#191970" d="M2714.3954,-121.4222C2661.7094,-110.6601 2594.315,-96.8936 2543.6471,-86.5438"/>
<polygon fill="#191970" stroke="#191970" points="2713.8922,-124.8916 2724.3904,-123.4639 2715.2932,-118.0333 2713.8922,-124.8916"/>
</g>
<!-- Node161&#45;&gt;Node18 -->
<g id="edge47" class="edge">
<title>Node161&#45;&gt;Node18</title>
<path fill="none" stroke="#191970" d="M2708.9234,-122.7555C2560.61,-102.0259 2520.6555,-106.5475 2375,-87 2371.9045,-86.5846 2368.755,-86.1482 2365.5756,-85.6962"/>
<polygon fill="#191970" stroke="#191970" points="2708.4603,-126.2247 2718.8516,-124.1579 2709.4395,-119.2935 2708.4603,-126.2247"/>
</g>
<!-- Node162&#45;&gt;Node17 -->
<g id="edge49" class="edge">
<title>Node162&#45;&gt;Node17</title>
<path fill="none" stroke="#191970" d="M2914.2169,-127.3074C2904.7574,-125.7985 2895.1367,-124.3183 2886,-123 2772.3764,-106.6057 2640.8232,-90.8607 2556.5819,-81.19"/>
<polygon fill="#191970" stroke="#191970" points="2913.9575,-130.8107 2924.3875,-128.9496 2915.0733,-123.9002 2913.9575,-130.8107"/>
</g>
<!-- Node162&#45;&gt;Node18 -->
<g id="edge50" class="edge">
<title>Node162&#45;&gt;Node18</title>
<path fill="none" stroke="#191970" d="M2917.4879,-127.3584C2906.9986,-125.7285 2896.2078,-124.1985 2886,-123 2659.8793,-96.4504 2601.1648,-113.1713 2375,-87 2371.8974,-86.641 2368.742,-86.2529 2365.5574,-85.8418"/>
<polygon fill="#191970" stroke="#191970" points="2916.9967,-130.8242 2927.4234,-128.9441 2918.1,-123.9117 2916.9967,-130.8242"/>
</g>
<!-- Node163&#45;&gt;Node17 -->
<g id="edge52" class="edge">
<title>Node163&#45;&gt;Node17</title>
<path fill="none" stroke="#191970" d="M3072.7848,-122.9185C2882.9802,-97.7872 2672.0257,-83.117 2556.5579,-76.2224"/>
<polygon fill="#191970" stroke="#191970" points="3072.5766,-126.4217 3082.9522,-124.2775 3073.5041,-119.4834 3072.5766,-126.4217"/>
</g>
<!-- Node163&#45;&gt;Node18 -->
<g id="edge53" class="edge">
<title>Node163&#45;&gt;Node18</title>
<path fill="none" stroke="#191970" d="M3072.8041,-122.9687C2763.2867,-87.4024 2681.0171,-119.4877 2375,-87 2371.8942,-86.6703 2368.7359,-86.3073 2365.549,-85.9175"/>
<polygon fill="#191970" stroke="#191970" points="3072.6305,-126.4721 3082.9681,-124.1515 3073.4397,-119.519 3072.6305,-126.4721"/>
</g>
<!-- Node168&#45;&gt;Node17 -->
<g id="edge55" class="edge">
<title>Node168&#45;&gt;Node17</title>
<path fill="none" stroke="#191970" d="M3272.2178,-127.3102C3262.1562,-125.6839 3251.8004,-124.1676 3242,-123 2994.2422,-93.4824 2699.5849,-79.6864 2556.5256,-74.3376"/>
<polygon fill="#191970" stroke="#191970" points="3271.7107,-130.7739 3282.1499,-128.9644 3272.8608,-123.869 3271.7107,-130.7739"/>
</g>
<!-- Node168&#45;&gt;Node18 -->
<g id="edge56" class="edge">
<title>Node168&#45;&gt;Node18</title>
<path fill="none" stroke="#191970" d="M3273.6568,-127.325C3263.1513,-125.6348 3252.275,-124.0935 3242,-123 2858.5002,-82.1868 2758.7082,-125.8046 2375,-87 2371.8926,-86.6857 2368.7329,-86.336 2365.5449,-85.9574"/>
<polygon fill="#191970" stroke="#191970" points="3273.1441,-130.7878 3283.5838,-128.9814 3274.2963,-123.8832 3273.1441,-130.7878"/>
</g>
<!-- Node170&#45;&gt;Node17 -->
<g id="edge58" class="edge">
<title>Node170&#45;&gt;Node17</title>
<path fill="none" stroke="#191970" d="M3421.1044,-123.0432C3237.6744,-101.389 2754.9277,-81.971 2556.6907,-74.6094"/>
<polygon fill="#191970" stroke="#191970" points="3420.8325,-126.5359 3431.183,-124.2737 3421.6809,-119.5875 3420.8325,-126.5359"/>
</g>
<!-- Node170&#45;&gt;Node18 -->
<g id="edge59" class="edge">
<title>Node170&#45;&gt;Node18</title>
<path fill="none" stroke="#191970" d="M3421.2252,-123.0541C2957.7498,-70.3328 2835.1285,-131.8769 2375,-87 2371.8915,-86.6968 2368.7309,-86.3565 2365.542,-85.986"/>
<polygon fill="#191970" stroke="#191970" points="3420.8578,-126.5348 3431.192,-124.1994 3421.657,-119.5805 3420.8578,-126.5348"/>
</g>
<!-- Node186&#45;&gt;Node17 -->
<g id="edge61" class="edge">
<title>Node186&#45;&gt;Node17</title>
<path fill="none" stroke="#191970" d="M3600.4206,-126.8194C3592.9545,-125.3186 3585.2952,-123.9699 3578,-123 3381.0264,-96.8114 2781.5654,-79.3779 2556.5589,-73.6031"/>
<polygon fill="#191970" stroke="#191970" points="3599.9214,-130.2912 3610.4296,-128.9388 3601.3716,-123.4431 3599.9214,-130.2912"/>
</g>
<!-- Node186&#45;&gt;Node18 -->
<g id="edge62" class="edge">
<title>Node186&#45;&gt;Node18</title>
<path fill="none" stroke="#191970" d="M3601.2152,-126.8685C3593.5015,-125.3182 3585.5577,-123.9413 3578,-123 3047.1954,-56.8869 2907.4942,-137.7378 2375,-87 2371.8908,-86.7037 2368.7297,-86.3694 2365.5403,-86.0039"/>
<polygon fill="#191970" stroke="#191970" points="3600.6619,-130.329 3611.1711,-128.9846 3602.1173,-123.482 3600.6619,-130.329"/>
</g>
<!-- Node187&#45;&gt;Node17 -->
<g id="edge64" class="edge">
<title>Node187&#45;&gt;Node17</title>
<path fill="none" stroke="#191970" d="M1731.0745,-127.3071C1741.3635,-125.6657 1751.9687,-124.1454 1762,-123 2033.1521,-92.0405 2103.7415,-117.0133 2375,-87 2377.7406,-86.6968 2380.5226,-86.3682 2383.3292,-86.0189"/>
<polygon fill="#191970" stroke="#191970" points="1730.2217,-123.9003 1720.9237,-128.9794 1731.3597,-130.8072 1730.2217,-123.9003"/>
</g>
<!-- Node187&#45;&gt;Node18 -->
<g id="edge65" class="edge">
<title>Node187&#45;&gt;Node18</title>
<path fill="none" stroke="#191970" d="M1733.2605,-127.3053C1742.8674,-125.7488 1752.6877,-124.2554 1762,-123 1912.85,-102.6645 2089.4712,-86.7609 2192.3409,-78.2824"/>
<polygon fill="#191970" stroke="#191970" points="1732.6515,-123.8584 1723.3565,-128.9429 1733.7935,-130.7646 1732.6515,-123.8584"/>
</g>
<!-- Node205&#45;&gt;Node17 -->
<g id="edge67" class="edge">
<title>Node205&#45;&gt;Node17</title>
<path fill="none" stroke="#191970" d="M1936.7375,-122.9897C2131.8557,-98.2241 2183.9097,-110.3861 2375,-87 2377.7369,-86.665 2380.5157,-86.3089 2383.3195,-85.9356"/>
<polygon fill="#191970" stroke="#191970" points="1936.2041,-119.5294 1926.7319,-124.2759 1937.0966,-126.4723 1936.2041,-119.5294"/>
</g>
<!-- Node205&#45;&gt;Node18 -->
<g id="edge68" class="edge">
<title>Node205&#45;&gt;Node18</title>
<path fill="none" stroke="#191970" d="M1936.6536,-122.9173C2029.8351,-107.7066 2125.1708,-93.5687 2192.202,-83.8646"/>
<polygon fill="#191970" stroke="#191970" points="1936.0729,-119.4656 1926.7702,-124.536 1937.2044,-126.3736 1936.0729,-119.4656"/>
</g>
<!-- Node241&#45;&gt;Node17 -->
<g id="edge70" class="edge">
<title>Node241&#45;&gt;Node17</title>
<path fill="none" stroke="#191970" d="M2076.1008,-127.0958C2084.1173,-125.6457 2092.2543,-124.238 2100,-123 2221.72,-103.5449 2253.0455,-104.9268 2375,-87 2377.728,-86.599 2380.499,-86.1853 2383.2962,-85.7622"/>
<polygon fill="#191970" stroke="#191970" points="2075.2509,-123.6934 2066.0497,-128.9458 2076.5181,-130.5777 2075.2509,-123.6934"/>
</g>
<!-- Node241&#45;&gt;Node18 -->
<g id="edge71" class="edge">
<title>Node241&#45;&gt;Node18</title>
<path fill="none" stroke="#191970" d="M2064.882,-126.4652C2108.4163,-115.2897 2173.3987,-98.6084 2220.3516,-86.5553"/>
<polygon fill="#191970" stroke="#191970" points="2063.9334,-123.0951 2055.1178,-128.9717 2065.674,-129.8753 2063.9334,-123.0951"/>
</g>
<!-- Node294&#45;&gt;Node17 -->
<g id="edge73" class="edge">
<title>Node294&#45;&gt;Node17</title>
<path fill="none" stroke="#191970" d="M2253.3076,-121.2205C2300.0797,-110.4886 2359.6107,-96.8291 2404.4361,-86.5438"/>
<polygon fill="#191970" stroke="#191970" points="2252.4945,-117.8161 2243.5305,-123.4639 2254.06,-124.6388 2252.4945,-117.8161"/>
</g>
<!-- Node294&#45;&gt;Node18 -->
<g id="edge74" class="edge">
<title>Node294&#45;&gt;Node18</title>
<path fill="none" stroke="#191970" d="M2209.2119,-117.7951C2224.3457,-107.7558 2242.1992,-95.9124 2256.0598,-86.7177"/>
<polygon fill="#191970" stroke="#191970" points="2207.0648,-115.0193 2200.6664,-123.4639 2210.9344,-120.8525 2207.0648,-115.0193"/>
</g>
<!-- Node299&#45;&gt;Node17 -->
<g id="edge76" class="edge">
<title>Node299&#45;&gt;Node17</title>
<path fill="none" stroke="#191970" d="M2355.9157,-124.5809C2379.806,-113.4653 2413.2217,-97.9177 2437.7144,-86.5218"/>
<polygon fill="#191970" stroke="#191970" points="2354.2219,-121.5086 2346.6317,-128.9005 2357.1748,-127.8553 2354.2219,-121.5086"/>
</g>
<!-- Node299&#45;&gt;Node18 -->
<g id="edge77" class="edge">
<title>Node299&#45;&gt;Node18</title>
<path fill="none" stroke="#191970" d="M2313.3048,-120.4026C2305.8627,-109.7936 2296.5725,-96.5502 2289.5377,-86.5218"/>
<polygon fill="#191970" stroke="#191970" points="2310.6579,-122.7239 2319.266,-128.9005 2316.3885,-118.7039 2310.6579,-122.7239"/>
</g>
<!-- Node308&#45;&gt;Node4 -->
<g id="edge79" class="edge">
<title>Node308&#45;&gt;Node4</title>
<path fill="none" stroke="#191970" d="M639.6282,-191.1552C597.4364,-182.7147 554.6392,-170.4323 542,-154 517.6965,-122.4031 570.784,-60.1174 577,-56 621.1527,-26.7539 988.2577,-14.2771 1108.2285,-10.9555"/>
<polygon fill="#191970" stroke="#191970" points="638.9793,-194.5945 649.4621,-193.0578 640.309,-187.7219 638.9793,-194.5945"/>
</g>
<!-- Node309&#45;&gt;Node4 -->
<g id="edge81" class="edge">
<title>Node309&#45;&gt;Node4</title>
<path fill="none" stroke="#191970" d="M511.625,-180.1746C509.9933,-146.1233 512.9297,-86.3572 549,-56 591.7496,-20.0214 983.7797,-12.0301 1108.2554,-10.3932"/>
<polygon fill="#191970" stroke="#191970" points="508.1389,-180.5044 512.2791,-190.2568 515.1243,-180.0512 508.1389,-180.5044"/>
</g>
<!-- Node326&#45;&gt;Node327 -->
<g id="edge85" class="edge">
<title>Node326&#45;&gt;Node327</title>
<path fill="none" stroke="#191970" d="M202.3883,-192.2487C168.3706,-179.2247 117.284,-159.6659 87.0267,-148.0817"/>
<polygon fill="#191970" stroke="#191970" points="201.3364,-195.5936 211.9268,-195.9005 203.8393,-189.0564 201.3364,-195.5936"/>
</g>
<!-- Node326&#45;&gt;Node328 -->
<g id="edge87" class="edge">
<title>Node326&#45;&gt;Node328</title>
<path fill="none" stroke="#191970" d="M229.5736,-186.3628C224.7157,-173.8444 218.5769,-158.0252 214.7183,-148.0817"/>
<polygon fill="#191970" stroke="#191970" points="226.3941,-187.8441 233.2748,-195.9005 232.92,-185.3116 226.3941,-187.8441"/>
</g>
<!-- Node326&#45;&gt;Node329 -->
<g id="edge89" class="edge">
<title>Node326&#45;&gt;Node329</title>
<path fill="none" stroke="#191970" d="M264.1605,-191.0575C288.6098,-178.0567 323.85,-159.3179 344.9808,-148.0817"/>
<polygon fill="#191970" stroke="#191970" points="262.2388,-188.1152 255.0527,-195.9005 265.5253,-194.2958 262.2388,-188.1152"/>
</g>
<!-- Node327&#45;&gt;Node4 -->
<g id="edge86" class="edge">
<title>Node327&#45;&gt;Node4</title>
<path fill="none" stroke="#191970" d="M93.3701,-125.1024C139.8957,-105.9292 230.3821,-71.2945 311,-56 467.0134,-26.4017 966.0833,-13.7992 1108.0173,-10.7584"/>
<polygon fill="#191970" stroke="#191970" points="92.0175,-121.8742 84.1287,-128.9465 94.706,-128.3373 92.0175,-121.8742"/>
</g>
<!-- Node328&#45;&gt;Node4 -->
<g id="edge88" class="edge">
<title>Node328&#45;&gt;Node4</title>
<path fill="none" stroke="#191970" d="M236.4923,-123.8269C271.7232,-104.3767 337.8855,-70.7948 399,-56 535.8618,-22.868 976.4667,-12.8645 1108.3568,-10.5759"/>
<polygon fill="#191970" stroke="#191970" points="234.4237,-120.9737 227.4056,-128.9108 237.8415,-127.0826 234.4237,-120.9737"/>
</g>
<!-- Node329&#45;&gt;Node4 -->
<g id="edge90" class="edge">
<title>Node329&#45;&gt;Node4</title>
<path fill="none" stroke="#191970" d="M374.2152,-120.4547C387.6237,-100.6932 412.0527,-69.9583 442,-56 502.5038,-27.7995 970.4738,-14.2707 1108.0693,-10.8757"/>
<polygon fill="#191970" stroke="#191970" points="371.2324,-118.621 368.6957,-128.9077 377.0936,-122.4481 371.2324,-118.621"/>
</g>
<!-- Node330&#45;&gt;Node4 -->
<g id="edge92" class="edge">
<title>Node330&#45;&gt;Node4</title>
<path fill="none" stroke="#191970" d="M850.3036,-193.7571C843.8281,-192.3975 837.2686,-191.1046 831,-190 769.2174,-179.1133 592.4351,-201.1035 551,-154 541.9,-143.6551 544.4037,-135.0961 551,-123 577.3241,-74.7273 603.0343,-73.9659 655,-56 738.8502,-27.0109 1008.7385,-14.8106 1108.4874,-11.2153"/>
<polygon fill="#191970" stroke="#191970" points="849.8424,-197.2382 860.3563,-195.9311 851.322,-190.3964 849.8424,-197.2382"/>
</g>
<!-- Node331&#45;&gt;Node4 -->
<g id="edge94" class="edge">
<title>Node331&#45;&gt;Node4</title>
<path fill="none" stroke="#191970" d="M1102.5136,-194.1525C1094.3062,-192.6605 1085.9473,-191.2263 1078,-190 1010.3318,-179.5589 817.4986,-205.1652 772,-154 743.0567,-121.452 743.1426,-88.6242 772,-56 794.0781,-31.0401 1017.9242,-16.6724 1108.3792,-11.8472"/>
<polygon fill="#191970" stroke="#191970" points="1101.9408,-197.6058 1112.4118,-195.9908 1103.2191,-190.7235 1101.9408,-197.6058"/>
</g>
<!-- Node332&#45;&gt;Node4 -->
<g id="edge96" class="edge">
<title>Node332&#45;&gt;Node4</title>
<path fill="none" stroke="#191970" d="M1251.9114,-193.6437C1245.9145,-192.2913 1239.8265,-191.0309 1234,-190 1089.1546,-164.373 1043.1948,-204.3899 905,-154 854.7391,-135.6734 830.189,-134.1968 805,-87 798.5128,-74.845 795.9322,-66.3732 805,-56 824.7563,-33.3996 1023.7054,-17.9313 1108.2795,-12.3279"/>
<polygon fill="#191970" stroke="#191970" points="1251.3198,-197.1 1261.8555,-195.9823 1252.9223,-190.2859 1251.3198,-197.1"/>
</g>
<!-- Node333&#45;&gt;Node4 -->
<g id="edge98" class="edge">
<title>Node333&#45;&gt;Node4</title>
<path fill="none" stroke="#191970" d="M2573.6746,-192.7595C2577.4488,-191.6568 2581.2785,-190.6973 2585,-190 2646.9537,-178.3921 3675.1426,-199.2718 3719,-154 3728.5866,-144.1043 3728.4556,-133.021 3719,-123 3627.9961,-26.5545 1495.771,-11.8188 1183.9215,-10.1776"/>
<polygon fill="#191970" stroke="#191970" points="2572.3526,-189.509 2563.9261,-195.9312 2574.5184,-196.1656 2572.3526,-189.509"/>
</g>
<!-- Node334&#45;&gt;Node325 -->
<g id="edge101" class="edge">
<title>Node334&#45;&gt;Node325</title>
<path fill="none" stroke="#191970" d="M1138.4581,-307.49C1123.461,-297.6096 1104.5027,-285.1194 1091.6362,-276.6427"/>
<polygon fill="#191970" stroke="#191970" points="1136.9179,-310.6666 1147.1941,-313.2455 1140.7691,-304.8212 1136.9179,-310.6666"/>
</g>
<!-- Node335&#45;&gt;Node12 -->
<g id="edge111" class="edge">
<title>Node335&#45;&gt;Node12</title>
<path fill="none" stroke="#191970" d="M2297.7617,-203.7535C2039.7809,-198.884 1357.457,-183.5342 1133,-154 1122.4097,-152.6065 1111.0484,-150.37 1100.6633,-148.0244"/>
<polygon fill="#191970" stroke="#191970" points="2297.8082,-207.2549 2307.8721,-203.9431 2297.9395,-200.2561 2297.8082,-207.2549"/>
</g>
<!-- Node335&#45;&gt;Node67 -->
<g id="edge112" class="edge">
<title>Node335&#45;&gt;Node67</title>
<path fill="none" stroke="#191970" d="M2415.7958,-188.94C2429.607,-176.0879 2448.2697,-158.7212 2459.7033,-148.0817"/>
<polygon fill="#191970" stroke="#191970" points="2413.2522,-186.5259 2408.3158,-195.9005 2418.0209,-191.6504 2413.2522,-186.5259"/>
</g>
<!-- Node335&#45;&gt;Node160 -->
<g id="edge113" class="edge">
<title>Node335&#45;&gt;Node160</title>
<path fill="none" stroke="#191970" d="M2440.6009,-193.036C2478.8149,-181.8555 2534.9756,-165.4242 2575.657,-153.5218"/>
<polygon fill="#191970" stroke="#191970" points="2439.4249,-189.7332 2430.8101,-195.9005 2441.3906,-196.4516 2439.4249,-189.7332"/>
</g>
<!-- Node335&#45;&gt;Node161 -->
<g id="edge114" class="edge">
<title>Node335&#45;&gt;Node161</title>
<path fill="none" stroke="#191970" d="M2467.355,-194.3586C2530.8105,-184.1007 2627.2743,-168.3457 2711,-154 2713.5707,-153.5595 2716.1836,-153.1092 2718.8218,-152.6523"/>
<polygon fill="#191970" stroke="#191970" points="2466.7751,-190.9068 2457.4612,-195.9566 2467.8913,-197.8172 2466.7751,-190.9068"/>
</g>
<!-- Node335&#45;&gt;Node162 -->
<g id="edge115" class="edge">
<title>Node335&#45;&gt;Node162</title>
<path fill="none" stroke="#191970" d="M2465.7705,-194.4216C2476.537,-192.8273 2487.5619,-191.292 2498,-190 2669.8736,-168.7266 2714.231,-176.1022 2886,-154 2899.1237,-152.3113 2913.2247,-150.1644 2926.4107,-148.0105"/>
<polygon fill="#191970" stroke="#191970" points="2464.9211,-191.01 2455.5549,-195.9622 2465.965,-197.9318 2464.9211,-191.01"/>
</g>
<!-- Node335&#45;&gt;Node163 -->
<g id="edge116" class="edge">
<title>Node335&#45;&gt;Node163</title>
<path fill="none" stroke="#191970" d="M2463.4068,-194.4843C2474.9105,-192.798 2486.7877,-191.2168 2498,-190 2753.0024,-162.327 2819.4209,-185.3287 3074,-154 3076.9437,-153.6377 3079.9401,-153.2375 3082.9631,-152.8074"/>
<polygon fill="#191970" stroke="#191970" points="2462.7878,-191.038 2453.4198,-195.9868 2463.8293,-197.9601 2462.7878,-191.038"/>
</g>
<!-- Node335&#45;&gt;Node168 -->
<g id="edge117" class="edge">
<title>Node335&#45;&gt;Node168</title>
<path fill="none" stroke="#191970" d="M2462.7695,-194.4422C2474.4684,-192.7356 2486.5767,-191.1584 2498,-190 2827.3643,-156.5997 2912.9274,-190.1613 3242,-154 3255.3961,-152.5279 3269.8184,-150.3246 3283.1086,-148.0379"/>
<polygon fill="#191970" stroke="#191970" points="2461.9899,-191.02 2452.6215,-195.968 2463.0308,-197.9422 2461.9899,-191.02"/>
</g>
<!-- Node335&#45;&gt;Node170 -->
<g id="edge118" class="edge">
<title>Node335&#45;&gt;Node170</title>
<path fill="none" stroke="#191970" d="M2461.7777,-194.4958C2473.781,-192.7428 2486.251,-191.1356 2498,-190 2907.0717,-150.4599 3013.858,-202.2001 3422,-154 3425.0165,-153.6438 3428.0905,-153.2343 3431.19,-152.7834"/>
<polygon fill="#191970" stroke="#191970" points="2461.1973,-191.0437 2451.8309,-195.9955 2462.2409,-197.9655 2461.1973,-191.0437"/>
</g>
<!-- Node335&#45;&gt;Node186 -->
<g id="edge119" class="edge">
<title>Node335&#45;&gt;Node186</title>
<path fill="none" stroke="#191970" d="M2461.5633,-194.4724C2473.6313,-192.7126 2486.1795,-191.109 2498,-190 2976.1666,-145.1372 3101.5176,-214.171 3578,-154 3588.7437,-152.6433 3600.2696,-150.4185 3610.8052,-148.0725"/>
<polygon fill="#191970" stroke="#191970" points="2460.9319,-191.028 2451.5656,-195.98 2461.9757,-197.9497 2460.9319,-191.028"/>
</g>
<!-- Node335&#45;&gt;Node187 -->
<g id="edge120" class="edge">
<title>Node335&#45;&gt;Node187</title>
<path fill="none" stroke="#191970" d="M2297.5942,-200.1047C2172.0134,-192.7282 1950.5653,-177.6472 1762,-154 1749.1197,-152.3847 1735.2799,-150.2399 1722.3774,-148.0623"/>
<polygon fill="#191970" stroke="#191970" points="2297.7685,-203.6207 2307.9552,-200.7086 2298.1758,-196.6326 2297.7685,-203.6207"/>
</g>
<!-- Node335&#45;&gt;Node205 -->
<g id="edge121" class="edge">
<title>Node335&#45;&gt;Node205</title>
<path fill="none" stroke="#191970" d="M2297.8704,-196.2421C2204.1293,-187.1243 2060.2684,-171.9765 1936,-154 1932.9632,-153.5607 1929.8699,-153.0954 1926.7475,-152.6109"/>
<polygon fill="#191970" stroke="#191970" points="2297.6236,-199.7345 2307.9144,-197.2146 2298.2983,-192.7671 2297.6236,-199.7345"/>
</g>
<!-- Node335&#45;&gt;Node241 -->
<g id="edge122" class="edge">
<title>Node335&#45;&gt;Node241</title>
<path fill="none" stroke="#191970" d="M2331.2108,-194.2657C2270.781,-184.0278 2179.3633,-168.3576 2100,-154 2089.5925,-152.1172 2078.4528,-150.0478 2067.8448,-148.0513"/>
<polygon fill="#191970" stroke="#191970" points="2330.9353,-197.7688 2341.3791,-195.9867 2332.1034,-190.8669 2330.9353,-197.7688"/>
</g>
<!-- Node335&#45;&gt;Node294 -->
<g id="edge123" class="edge">
<title>Node335&#45;&gt;Node294</title>
<path fill="none" stroke="#191970" d="M2356.6038,-192.893C2319.9023,-181.7157 2266.2414,-165.3735 2227.3252,-153.5218"/>
<polygon fill="#191970" stroke="#191970" points="2355.8935,-196.3353 2366.4794,-195.9005 2357.9328,-189.6389 2355.8935,-196.3353"/>
</g>
<!-- Node335&#45;&gt;Node299 -->
<g id="edge124" class="edge">
<title>Node335&#45;&gt;Node299</title>
<path fill="none" stroke="#191970" d="M2380.2042,-188.94C2366.393,-176.0879 2347.7303,-158.7212 2336.2967,-148.0817"/>
<polygon fill="#191970" stroke="#191970" points="2377.9791,-191.6504 2387.6842,-195.9005 2382.7478,-186.5259 2377.9791,-191.6504"/>
</g>
<!-- Node336&#45;&gt;Node7 -->
<g id="edge129" class="edge">
<title>Node336&#45;&gt;Node7</title>
<path fill="none" stroke="#191970" d="M583.0899,-249.5459C589.8276,-241.3993 597.1946,-231.2502 602,-221 613.6045,-196.2472 618.3762,-163.9121 620.118,-148.0796"/>
<polygon fill="#191970" stroke="#191970" points="580.3341,-247.3816 576.4301,-257.2309 585.6242,-251.9659 580.3341,-247.3816"/>
</g>
<!-- Node336&#45;&gt;Node324 -->
<g id="edge135" class="edge">
<title>Node336&#45;&gt;Node324</title>
<path fill="none" stroke="#191970" d="M656.2497,-264.9867C1045.9139,-256.1939 2578.9092,-221.574 2585,-221 2599.3408,-219.6484 2614.8115,-217.3945 2628.9408,-215.0183"/>
<polygon fill="#191970" stroke="#191970" points="656.0742,-261.4896 646.1558,-265.2144 656.2322,-268.4879 656.0742,-261.4896"/>
</g>
<!-- Node336&#45;&gt;Node11 -->
<g id="edge126" class="edge">
<title>Node336&#45;&gt;Node11</title>
<path fill="none" stroke="#191970" d="M656.394,-262.0202C878.6463,-249.6393 1450.6056,-217.7774 1621.8463,-208.2382"/>
<polygon fill="#191970" stroke="#191970" points="656.1868,-258.5262 646.397,-262.5771 656.5762,-265.5154 656.1868,-258.5262"/>
</g>
<!-- Node336&#45;&gt;Node308 -->
<g id="edge127" class="edge">
<title>Node336&#45;&gt;Node308</title>
<path fill="none" stroke="#191970" d="M602.8212,-253.9645C629.6941,-244.1853 666.5351,-230.7786 694.6579,-220.5446"/>
<polygon fill="#191970" stroke="#191970" points="601.6065,-250.6819 593.4063,-257.3906 604.0003,-257.2599 601.6065,-250.6819"/>
</g>
<!-- Node336&#45;&gt;Node309 -->
<g id="edge128" class="edge">
<title>Node336&#45;&gt;Node309</title>
<path fill="none" stroke="#191970" d="M552.0491,-249.6514C544.1493,-240.4845 534.547,-229.3423 526.9653,-220.5446"/>
<polygon fill="#191970" stroke="#191970" points="549.5392,-252.1003 558.7188,-257.3906 554.8418,-247.5306 549.5392,-252.1003"/>
</g>
<!-- Node336&#45;&gt;Node327 -->
<g id="edge130" class="edge">
<title>Node336&#45;&gt;Node327</title>
<path fill="none" stroke="#191970" d="M477.4442,-262.7631C375.8147,-256.9205 217.025,-244.3582 162,-221 122.2226,-204.1145 85.8613,-166.151 70.1667,-148.2246"/>
<polygon fill="#191970" stroke="#191970" points="477.5252,-266.2731 487.7064,-263.3415 477.9192,-259.2842 477.5252,-266.2731"/>
</g>
<!-- Node336&#45;&gt;Node328 -->
<g id="edge132" class="edge">
<title>Node336&#45;&gt;Node328</title>
<path fill="none" stroke="#191970" d="M512.1456,-255.1229C477.2856,-246.9544 431.456,-235.0617 392,-221 330.6814,-199.1467 261.5296,-164.746 229.3259,-148.1244"/>
<polygon fill="#191970" stroke="#191970" points="511.6002,-258.589 522.1316,-257.4315 513.1769,-251.7689 511.6002,-258.589"/>
</g>
<!-- Node336&#45;&gt;Node329 -->
<g id="edge134" class="edge">
<title>Node336&#45;&gt;Node329</title>
<path fill="none" stroke="#191970" d="M503.2688,-254.8997C477.6315,-247.9067 448.8046,-237.177 426,-221 398.0723,-201.1888 376.8967,-165.3404 367.8343,-148.1728"/>
<polygon fill="#191970" stroke="#191970" points="502.7304,-258.3755 513.2882,-257.491 504.4831,-251.5985 502.7304,-258.3755"/>
</g>
<!-- Node336&#45;&gt;Node330 -->
<g id="edge131" class="edge">
<title>Node336&#45;&gt;Node330</title>
<path fill="none" stroke="#191970" d="M636.4228,-255.8475C689.7639,-247.0503 765.204,-234.1144 831,-221 840.151,-219.176 849.95,-217.069 859.2055,-215.0076"/>
<polygon fill="#191970" stroke="#191970" points="635.6933,-252.4204 626.3933,-257.4958 636.8286,-259.3277 635.6933,-252.4204"/>
</g>
<!-- Node336&#45;&gt;Node331 -->
<g id="edge133" class="edge">
<title>Node336&#45;&gt;Node331</title>
<path fill="none" stroke="#191970" d="M656.4482,-257.7077C776.0311,-245.2848 985.2963,-223.5452 1092.1254,-212.4473"/>
<polygon fill="#191970" stroke="#191970" points="655.8103,-254.255 646.2255,-258.7697 656.5336,-261.2175 655.8103,-254.255"/>
</g>
<!-- Node337&#45;&gt;Node326 -->
<g id="edge146" class="edge">
<title>Node337&#45;&gt;Node326</title>
<path fill="none" stroke="#191970" d="M771.5309,-493.8453C579.1453,-485.1808 29,-453.8594 29,-379 29,-379 29,-379 29,-323 29,-256.7443 109.9963,-227.4237 170.9017,-214.7418"/>
<polygon fill="#191970" stroke="#191970" points="771.6354,-497.3533 781.7809,-494.3007 771.9461,-490.3602 771.6354,-497.3533"/>
</g>
<!-- Node337&#45;&gt;Node336 -->
<g id="edge145" class="edge">
<title>Node337&#45;&gt;Node336</title>
<path fill="none" stroke="#191970" d="M771.7385,-490.5715C682.4816,-481.7941 531.4478,-464.2874 515,-445 476.9329,-400.3607 490.9028,-366.4893 515,-313 522.1292,-297.1752 537.6911,-284.5986 549.9433,-276.623"/>
<polygon fill="#191970" stroke="#191970" points="771.4799,-494.0628 781.7717,-491.5471 772.1574,-487.0957 771.4799,-494.0628"/>
</g>
<!-- Node338 -->
<g id="node49" class="node">
<title>Node338</title>
<g id="a_node49"><a xlink:href="sitkPixelIDTokens_8h.html" target="_top" xlink:title=" ">
<polygon fill="#ffffff" stroke="#000000" points="1191,-425.5 1191,-444.5 1303,-444.5 1303,-425.5 1191,-425.5"/>
<text text-anchor="middle" x="1247" y="-432.5" font-family="Helvetica,sans-Serif" font-size="10.00" fill="#000000">sitkPixelIDTokens.h</text>
</a>
</g>
</g>
<!-- Node337&#45;&gt;Node338 -->
<g id="edge140" class="edge">
<title>Node337&#45;&gt;Node338</title>
<path fill="none" stroke="#191970" d="M902.2228,-486.7166C981.9743,-474.7539 1115.6102,-454.7085 1190.943,-443.4086"/>
<polygon fill="#191970" stroke="#191970" points="901.6646,-483.2611 892.2944,-488.2058 902.703,-490.1836 901.6646,-483.2611"/>
</g>
<!-- Node338&#45;&gt;Node5 -->
<g id="edge142" class="edge">
<title>Node338&#45;&gt;Node5</title>
<path fill="none" stroke="#191970" d="M1247,-415.1575C1247,-406.155 1247,-395.9199 1247,-388.6427"/>
<polygon fill="#191970" stroke="#191970" points="1243.5001,-415.2455 1247,-425.2455 1250.5001,-415.2456 1243.5001,-415.2455"/>
</g>
<!-- Node338&#45;&gt;Node324 -->
<g id="edge144" class="edge">
<title>Node338&#45;&gt;Node324</title>
<path fill="none" stroke="#191970" d="M1313.187,-424.5713C1508.0936,-393.8272 2096.8925,-300.7088 2585,-221 2596.6313,-219.1006 2609.0764,-217.0435 2620.9576,-215.0677"/>
<polygon fill="#191970" stroke="#191970" points="1312.4386,-421.146 1303.106,-426.1613 1313.5292,-428.0605 1312.4386,-421.146"/>
</g>
<!-- Node338&#45;&gt;Node12 -->
<g id="edge141" class="edge">
<title>Node338&#45;&gt;Node12</title>
<path fill="none" stroke="#191970" d="M1284.8425,-421.5467C1323.8473,-404.968 1379,-372.7328 1379,-323 1379,-323 1379,-323 1379,-267 1379,-231.6422 1385.1745,-213.7712 1359,-190 1321.3531,-155.8097 1182.9453,-163.5779 1133,-154 1123.7154,-152.2195 1113.7736,-150.1078 1104.41,-148.0252"/>
<polygon fill="#191970" stroke="#191970" points="1283.2589,-418.4124 1275.3173,-425.4254 1285.8989,-424.8955 1283.2589,-418.4124"/>
</g>
<!-- Node339 -->
<g id="node50" class="node">
<title>Node339</title>
<g id="a_node50"><a xlink:href="sitkPimpleImageBase_8h.html" target="_top" xlink:title=" ">
<polygon fill="#ffffff" stroke="#000000" points="557,-369.5 557,-388.5 689,-388.5 689,-369.5 557,-369.5"/>
<text text-anchor="middle" x="623" y="-376.5" font-family="Helvetica,sans-Serif" font-size="10.00" fill="#000000">sitkPimpleImageBase.h</text>
</a>
</g>
</g>
<!-- Node338&#45;&gt;Node339 -->
<g id="edge143" class="edge">
<title>Node338&#45;&gt;Node339</title>
<path fill="none" stroke="#191970" d="M1180.7357,-430.2555C1078.2157,-422.7214 875.0191,-407.0168 703,-389 698.5453,-388.5334 693.9543,-388.0273 689.3307,-387.4987"/>
<polygon fill="#191970" stroke="#191970" points="1180.7078,-433.7628 1190.9367,-431.0026 1181.2191,-426.7815 1180.7078,-433.7628"/>
</g>
</g>
</svg>
