<?xml version="1.0" encoding="UTF-8" standalone="no"?>
<!DOCTYPE svg PUBLIC "-//W3C//DTD SVG 1.1//EN"
 "http://www.w3.org/Graphics/SVG/1.1/DTD/svg11.dtd">
<!-- Generated by graphviz version 2.40.1 (20161225.0304)
 -->
<!-- Title: sitkBSplineTransform.h Pages: 1 -->
<!--zoomable 487 -->
<svg id="main" version="1.1" xmlns="http://www.w3.org/2000/svg" xmlns:xlink="http://www.w3.org/1999/xlink" xml:space="preserve" onload="init(evt)">
<style type="text/css"><![CDATA[
.edge:hover path { stroke: red; }
.edge:hover polygon { stroke: red; fill: red; }
]]></style>
<script type="text/javascript"><![CDATA[
var edges = document.getElementsByTagName('g');
if (edges && edges.length) {
  for (var i=0;i<edges.length;i++) {
    if (edges[i].id.substr(0,4)=='edge') {
      edges[i].setAttribute('class','edge');
    }
  }
}
]]></script>
        <defs>
                <circle id="rim" cx="0" cy="0" r="7"/>
                <circle id="rim2" cx="0" cy="0" r="3.5"/>
                <g id="zoomPlus">
                        <use xlink:href="#rim" fill="#404040">
                                <set attributeName="fill" to="#808080" begin="zoomplus.mouseover" end="zoomplus.mouseout"/>
                        </use>
                        <path d="M-4,0h8M0,-4v8" fill="none" stroke="white" stroke-width="1.5" pointer-events="none"/>
                </g>
                <g id="zoomMin">
                        <use xlink:href="#rim" fill="#404040">
                                <set attributeName="fill" to="#808080" begin="zoomminus.mouseover" end="zoomminus.mouseout"/>
                        </use>
                        <path d="M-4,0h8" fill="none" stroke="white" stroke-width="1.5" pointer-events="none"/>
                </g>
                <g id="dirArrow">
                        <path fill="none" stroke="white" stroke-width="1.5" d="M0,-3.0v7 M-2.5,-0.5L0,-3.0L2.5,-0.5"/>
                </g>
               <g id="resetDef">
                       <use xlink:href="#rim2" fill="#404040">
                               <set attributeName="fill" to="#808080" begin="reset.mouseover" end="reset.mouseout"/>
                       </use>
               </g>
        </defs>

<script type="text/javascript">
var viewWidth = 1427;
var viewHeight = 487;
var sectionId = 'dynsection-0';
</script>
<script xlink:href="svgpan.js"/>
<svg id="graph" class="graph">
<g id="viewport">
<title>sitkBSplineTransform.h</title>
<polygon fill="#ffffff" stroke="transparent" points="-4,4 -4,-483 1423.4359,-483 1423.4359,4 -4,4"/>
<!-- Node1 -->
<g id="node1" class="node">
<title>Node1</title>
<g id="a_node1"><a xlink:title=" ">
<polygon fill="#bfbfbf" stroke="#000000" points="26.9359,-459.5 26.9359,-478.5 155.9359,-478.5 155.9359,-459.5 26.9359,-459.5"/>
<text text-anchor="middle" x="91.4359" y="-466.5" font-family="Helvetica,sans-Serif" font-size="10.00" fill="#000000">sitkBSplineTransform.h</text>
</a>
</g>
</g>
<!-- Node2 -->
<g id="node2" class="node">
<title>Node2</title>
<g id="a_node2"><a xlink:href="sitkCommon_8h.html" target="_top" xlink:title=" ">
<polygon fill="#ffffff" stroke="#000000" points="337.4359,-112.5 337.4359,-131.5 425.4359,-131.5 425.4359,-112.5 337.4359,-112.5"/>
<text text-anchor="middle" x="381.4359" y="-119.5" font-family="Helvetica,sans-Serif" font-size="10.00" fill="#000000">sitkCommon.h</text>
</a>
</g>
</g>
<!-- Node1&#45;&gt;Node2 -->
<g id="edge1" class="edge">
<title>Node1&#45;&gt;Node2</title>
<path fill="none" stroke="#191970" d="M75.7591,-459.4175C49.9735,-442.3156 1.4359,-403.8956 1.4359,-357 1.4359,-357 1.4359,-357 1.4359,-239.5 1.4359,-206.6194 -4.3077,-189.6538 20.4359,-168 43.086,-148.1783 232.0373,-132.3782 327.1634,-125.5954"/>
<polygon fill="#191970" stroke="#191970" points="327.4462,-129.0842 337.1755,-124.8901 326.9542,-122.1015 327.4462,-129.0842"/>
</g>
<!-- Node10 -->
<g id="node10" class="node">
<title>Node10</title>
<g id="a_node10"><a xlink:href="sitkTransform_8h.html" target="_top" xlink:title=" ">
<polygon fill="#ffffff" stroke="#000000" points="135.4359,-403.5 135.4359,-422.5 227.4359,-422.5 227.4359,-403.5 135.4359,-403.5"/>
<text text-anchor="middle" x="181.4359" y="-410.5" font-family="Helvetica,sans-Serif" font-size="10.00" fill="#000000">sitkTransform.h</text>
</a>
</g>
</g>
<!-- Node1&#45;&gt;Node10 -->
<g id="edge9" class="edge">
<title>Node1&#45;&gt;Node10</title>
<path fill="none" stroke="#191970" d="M107.1127,-459.2455C120.9215,-450.6534 141.2552,-438.0014 157.1651,-428.1018"/>
<polygon fill="#191970" stroke="#191970" points="159.2972,-430.8974 165.9388,-422.6427 155.5991,-424.954 159.2972,-430.8974"/>
</g>
<!-- Node3 -->
<g id="node3" class="node">
<title>Node3</title>
<g id="a_node3"><a xlink:href="sitkMacro_8h.html" target="_top" xlink:title=" ">
<polygon fill="#ffffff" stroke="#000000" points="562.9359,-56.5 562.9359,-75.5 635.9359,-75.5 635.9359,-56.5 562.9359,-56.5"/>
<text text-anchor="middle" x="599.4359" y="-63.5" font-family="Helvetica,sans-Serif" font-size="10.00" fill="#000000">sitkMacro.h</text>
</a>
</g>
</g>
<!-- Node2&#45;&gt;Node3 -->
<g id="edge2" class="edge">
<title>Node2&#45;&gt;Node3</title>
<path fill="none" stroke="#191970" d="M418.9114,-112.3733C456.0584,-102.8309 513.0482,-88.1913 553.0349,-77.9195"/>
<polygon fill="#191970" stroke="#191970" points="553.9975,-81.286 562.8122,-75.4079 552.2559,-74.5061 553.9975,-81.286"/>
</g>
<!-- Node4 -->
<g id="node4" class="node">
<title>Node4</title>
<g id="a_node4"><a xlink:title=" ">
<polygon fill="#ffffff" stroke="#bfbfbf" points="911.9359,-.5 911.9359,-19.5 964.9359,-19.5 964.9359,-.5 911.9359,-.5"/>
<text text-anchor="middle" x="938.4359" y="-7.5" font-family="Helvetica,sans-Serif" font-size="10.00" fill="#000000">stdint.h</text>
</a>
</g>
</g>
<!-- Node3&#45;&gt;Node4 -->
<g id="edge3" class="edge">
<title>Node3&#45;&gt;Node4</title>
<path fill="none" stroke="#191970" d="M636.0369,-59.9538C701.0705,-49.2108 836.0528,-26.9128 901.3981,-16.1183"/>
<polygon fill="#191970" stroke="#191970" points="902.3441,-19.5096 911.6399,-14.4265 901.2032,-12.6032 902.3441,-19.5096"/>
</g>
<!-- Node5 -->
<g id="node5" class="node">
<title>Node5</title>
<g id="a_node5"><a xlink:title=" ">
<polygon fill="#ffffff" stroke="#bfbfbf" points="535.4359,-.5 535.4359,-19.5 591.4359,-19.5 591.4359,-.5 535.4359,-.5"/>
<text text-anchor="middle" x="563.4359" y="-7.5" font-family="Helvetica,sans-Serif" font-size="10.00" fill="#000000">stddef.h</text>
</a>
</g>
</g>
<!-- Node3&#45;&gt;Node5 -->
<g id="edge4" class="edge">
<title>Node3&#45;&gt;Node5</title>
<path fill="none" stroke="#191970" d="M593.1652,-56.2455C588.2095,-48.5367 581.1529,-37.5598 575.1583,-28.2348"/>
<polygon fill="#191970" stroke="#191970" points="577.9865,-26.1618 569.6348,-19.6427 572.0983,-29.9471 577.9865,-26.1618"/>
</g>
<!-- Node6 -->
<g id="node6" class="node">
<title>Node6</title>
<g id="a_node6"><a xlink:title=" ">
<polygon fill="#ffffff" stroke="#bfbfbf" points="609.4359,-.5 609.4359,-19.5 661.4359,-19.5 661.4359,-.5 609.4359,-.5"/>
<text text-anchor="middle" x="635.4359" y="-7.5" font-family="Helvetica,sans-Serif" font-size="10.00" fill="#000000">cassert</text>
</a>
</g>
</g>
<!-- Node3&#45;&gt;Node6 -->
<g id="edge5" class="edge">
<title>Node3&#45;&gt;Node6</title>
<path fill="none" stroke="#191970" d="M605.7066,-56.2455C610.6623,-48.5367 617.7189,-37.5598 623.7135,-28.2348"/>
<polygon fill="#191970" stroke="#191970" points="626.7736,-29.9471 629.237,-19.6427 620.8853,-26.1618 626.7736,-29.9471"/>
</g>
<!-- Node7 -->
<g id="node7" class="node">
<title>Node7</title>
<g id="a_node7"><a xlink:title=" ">
<polygon fill="#ffffff" stroke="#bfbfbf" points="679.4359,-.5 679.4359,-19.5 735.4359,-19.5 735.4359,-.5 679.4359,-.5"/>
<text text-anchor="middle" x="707.4359" y="-7.5" font-family="Helvetica,sans-Serif" font-size="10.00" fill="#000000">sstream</text>
</a>
</g>
</g>
<!-- Node3&#45;&gt;Node7 -->
<g id="edge6" class="edge">
<title>Node3&#45;&gt;Node7</title>
<path fill="none" stroke="#191970" d="M618.2481,-56.2455C635.2832,-47.4125 660.5934,-34.2887 679.904,-24.2758"/>
<polygon fill="#191970" stroke="#191970" points="681.5729,-27.353 688.8393,-19.6427 678.3506,-21.1388 681.5729,-27.353"/>
</g>
<!-- Node8 -->
<g id="node8" class="node">
<title>Node8</title>
<g id="a_node8"><a xlink:title=" ">
<polygon fill="#ffffff" stroke="#bfbfbf" points="473.4359,-.5 473.4359,-19.5 517.4359,-19.5 517.4359,-.5 473.4359,-.5"/>
<text text-anchor="middle" x="495.4359" y="-7.5" font-family="Helvetica,sans-Serif" font-size="10.00" fill="#000000">limits</text>
</a>
</g>
</g>
<!-- Node3&#45;&gt;Node8 -->
<g id="edge7" class="edge">
<title>Node3&#45;&gt;Node8</title>
<path fill="none" stroke="#191970" d="M581.3205,-56.2455C564.9909,-47.4527 540.7649,-34.4079 522.202,-24.4125"/>
<polygon fill="#191970" stroke="#191970" points="523.8078,-21.3021 513.3437,-19.6427 520.4891,-27.4654 523.8078,-21.3021"/>
</g>
<!-- Node9 -->
<g id="node9" class="node">
<title>Node9</title>
<g id="a_node9"><a xlink:href="sitkConfigure_8h.html" target="_top" xlink:title=" ">
<polygon fill="#ffffff" stroke="#000000" points="1103.4359,-.5 1103.4359,-19.5 1193.4359,-19.5 1193.4359,-.5 1103.4359,-.5"/>
<text text-anchor="middle" x="1148.4359" y="-7.5" font-family="Helvetica,sans-Serif" font-size="10.00" fill="#000000">sitkConfigure.h</text>
</a>
</g>
</g>
<!-- Node3&#45;&gt;Node9 -->
<g id="edge8" class="edge">
<title>Node3&#45;&gt;Node9</title>
<path fill="none" stroke="#191970" d="M636.3098,-62.2387C730.6138,-52.6194 981.0098,-27.0781 1092.9757,-15.6571"/>
<polygon fill="#191970" stroke="#191970" points="1093.4551,-19.1265 1103.0483,-14.6297 1092.7447,-12.1626 1093.4551,-19.1265"/>
</g>
<!-- Node10&#45;&gt;Node2 -->
<g id="edge10" class="edge">
<title>Node10&#45;&gt;Node2</title>
<path fill="none" stroke="#191970" d="M181.4359,-403.4116C181.4359,-384.0538 181.4359,-338.9167 181.4359,-301 181.4359,-301 181.4359,-301 181.4359,-239.5 181.4359,-171.7375 267.8413,-142.2907 327.0657,-130.066"/>
<polygon fill="#191970" stroke="#191970" points="327.9073,-133.4678 337.0494,-128.1132 326.5635,-126.598 327.9073,-133.4678"/>
</g>
<!-- Node11 -->
<g id="node11" class="node">
<title>Node11</title>
<g id="a_node11"><a xlink:href="sitkExceptionObject_8h.html" target="_top" xlink:title=" ">
<polygon fill="#ffffff" stroke="#000000" points="29.9359,-168.5 29.9359,-187.5 152.9359,-187.5 152.9359,-168.5 29.9359,-168.5"/>
<text text-anchor="middle" x="91.4359" y="-175.5" font-family="Helvetica,sans-Serif" font-size="10.00" fill="#000000">sitkExceptionObject.h</text>
</a>
</g>
</g>
<!-- Node10&#45;&gt;Node11 -->
<g id="edge11" class="edge">
<title>Node10&#45;&gt;Node11</title>
<path fill="none" stroke="#191970" d="M177.7963,-403.4967C164.3134,-368.2912 117.0472,-244.874 98.7484,-197.0937"/>
<polygon fill="#191970" stroke="#191970" points="101.9658,-195.7084 95.1208,-187.6216 95.4288,-198.212 101.9658,-195.7084"/>
</g>
<!-- Node12 -->
<g id="node12" class="node">
<title>Node12</title>
<g id="a_node12"><a xlink:href="sitkImage_8h.html" target="_top" xlink:title=" ">
<polygon fill="#ffffff" stroke="#000000" points="391.4359,-347.5 391.4359,-366.5 465.4359,-366.5 465.4359,-347.5 391.4359,-347.5"/>
<text text-anchor="middle" x="428.4359" y="-354.5" font-family="Helvetica,sans-Serif" font-size="10.00" fill="#000000">sitkImage.h</text>
</a>
</g>
</g>
<!-- Node10&#45;&gt;Node12 -->
<g id="edge14" class="edge">
<title>Node10&#45;&gt;Node12</title>
<path fill="none" stroke="#191970" d="M223.6161,-403.4369C267.4254,-393.5044 335.8108,-378 381.3539,-367.6745"/>
<polygon fill="#191970" stroke="#191970" points="382.2962,-371.0497 391.2748,-365.4252 380.7484,-364.223 382.2962,-371.0497"/>
</g>
<!-- Node14 -->
<g id="node14" class="node">
<title>Node14</title>
<g id="a_node14"><a xlink:title=" ">
<polygon fill="#ffffff" stroke="#bfbfbf" points="357.9359,-168.5 357.9359,-187.5 404.9359,-187.5 404.9359,-168.5 357.9359,-168.5"/>
<text text-anchor="middle" x="381.4359" y="-175.5" font-family="Helvetica,sans-Serif" font-size="10.00" fill="#000000">vector</text>
</a>
</g>
</g>
<!-- Node10&#45;&gt;Node14 -->
<g id="edge52" class="edge">
<title>Node10&#45;&gt;Node14</title>
<path fill="none" stroke="#191970" d="M191.9196,-403.433C228.636,-369.9119 349.3744,-259.5474 352.4359,-255 364.3624,-237.285 372.2492,-214.0006 376.7472,-197.6933"/>
<polygon fill="#191970" stroke="#191970" points="380.2233,-198.2293 379.3278,-187.6724 373.4445,-196.4836 380.2233,-198.2293"/>
</g>
<!-- Node11&#45;&gt;Node2 -->
<g id="edge13" class="edge">
<title>Node11&#45;&gt;Node2</title>
<path fill="none" stroke="#191970" d="M140.9592,-168.4369C192.7835,-158.4294 273.8998,-142.7656 327.3639,-132.4415"/>
<polygon fill="#191970" stroke="#191970" points="328.1863,-135.8474 337.3413,-130.5148 326.859,-128.9744 328.1863,-135.8474"/>
</g>
<!-- Node11&#45;&gt;Node3 -->
<g id="edge12" class="edge">
<title>Node11&#45;&gt;Node3</title>
<path fill="none" stroke="#191970" d="M103.9391,-168.4205C124.079,-153.5529 165.4994,-125.2572 205.4359,-112 268.857,-90.947 462.5433,-75.3784 552.548,-69.0777"/>
<polygon fill="#191970" stroke="#191970" points="553.0021,-72.5547 562.7368,-68.3731 552.5191,-65.5714 553.0021,-72.5547"/>
</g>
<!-- Node12&#45;&gt;Node2 -->
<g id="edge15" class="edge">
<title>Node12&#45;&gt;Node2</title>
<path fill="none" stroke="#191970" d="M429.5443,-347.1413C432.3868,-318.3888 438.082,-232.5798 413.4359,-168 409.564,-157.8544 402.9846,-147.8106 396.795,-139.7089"/>
<polygon fill="#191970" stroke="#191970" points="399.3853,-137.3456 390.3782,-131.7669 393.9404,-141.7449 399.3853,-137.3456"/>
</g>
<!-- Node13 -->
<g id="node13" class="node">
<title>Node13</title>
<g id="a_node13"><a xlink:href="sitkTemplateFunctions_8h.html" target="_top" xlink:title=" ">
<polygon fill="#ffffff" stroke="#000000" points="209.4359,-230 209.4359,-249 343.4359,-249 343.4359,-230 209.4359,-230"/>
<text text-anchor="middle" x="276.4359" y="-237" font-family="Helvetica,sans-Serif" font-size="10.00" fill="#000000">sitkTemplateFunctions.h</text>
</a>
</g>
</g>
<!-- Node12&#45;&gt;Node13 -->
<g id="edge16" class="edge">
<title>Node12&#45;&gt;Node13</title>
<path fill="none" stroke="#191970" d="M391.2591,-349.0285C367.0608,-342.2741 336.0877,-330.4904 314.4359,-311 298.8163,-296.9397 288.4805,-274.9172 282.584,-259.0272"/>
<polygon fill="#191970" stroke="#191970" points="285.7601,-257.4996 279.2007,-249.1794 279.1399,-259.774 285.7601,-257.4996"/>
</g>
<!-- Node12&#45;&gt;Node14 -->
<g id="edge49" class="edge">
<title>Node12&#45;&gt;Node14</title>
<path fill="none" stroke="#191970" d="M425.909,-347.3762C418.4814,-319.0883 396.6121,-235.7987 386.5762,-197.5767"/>
<polygon fill="#191970" stroke="#191970" points="389.9003,-196.4547 383.9753,-187.6714 383.1298,-198.2324 389.9003,-196.4547"/>
</g>
<!-- Node17 -->
<g id="node17" class="node">
<title>Node17</title>
<g id="a_node17"><a xlink:href="sitkDetail_8h.html" target="_top" xlink:title=" ">
<polygon fill="#ffffff" stroke="#000000" points="794.9359,-291.5 794.9359,-310.5 867.9359,-310.5 867.9359,-291.5 794.9359,-291.5"/>
<text text-anchor="middle" x="831.4359" y="-298.5" font-family="Helvetica,sans-Serif" font-size="10.00" fill="#000000">sitkDetail.h</text>
</a>
</g>
</g>
<!-- Node12&#45;&gt;Node17 -->
<g id="edge23" class="edge">
<title>Node12&#45;&gt;Node17</title>
<path fill="none" stroke="#191970" d="M465.6268,-351.832C539.2876,-341.5963 703.5922,-318.7649 784.5344,-307.5173"/>
<polygon fill="#191970" stroke="#191970" points="785.4939,-310.9177 794.9169,-306.0746 784.5304,-303.9843 785.4939,-310.9177"/>
</g>
<!-- Node27 -->
<g id="node27" class="node">
<title>Node27</title>
<g id="a_node27"><a xlink:href="sitkPixelIDTokens_8h.html" target="_top" xlink:title=" ">
<polygon fill="#ffffff" stroke="#000000" points="1040.4359,-291.5 1040.4359,-310.5 1152.4359,-310.5 1152.4359,-291.5 1040.4359,-291.5"/>
<text text-anchor="middle" x="1096.4359" y="-298.5" font-family="Helvetica,sans-Serif" font-size="10.00" fill="#000000">sitkPixelIDTokens.h</text>
</a>
</g>
</g>
<!-- Node12&#45;&gt;Node27 -->
<g id="edge41" class="edge">
<title>Node12&#45;&gt;Node27</title>
<path fill="none" stroke="#191970" d="M465.7696,-354.7358C559.0815,-348.9362 809.9469,-332.4788 1018.4359,-311 1022.2979,-310.6021 1026.2644,-310.1693 1030.2645,-309.7141"/>
<polygon fill="#191970" stroke="#191970" points="1030.7126,-313.1856 1040.2364,-308.5439 1029.8966,-306.2333 1030.7126,-313.1856"/>
</g>
<!-- Node30 -->
<g id="node30" class="node">
<title>Node30</title>
<g id="a_node30"><a xlink:title=" ">
<polygon fill="#ffffff" stroke="#bfbfbf" points="1015.9359,-230 1015.9359,-249 1084.9359,-249 1084.9359,-230 1015.9359,-230"/>
<text text-anchor="middle" x="1050.4359" y="-237" font-family="Helvetica,sans-Serif" font-size="10.00" fill="#000000">type_traits</text>
</a>
</g>
</g>
<!-- Node12&#45;&gt;Node30 -->
<g id="edge51" class="edge">
<title>Node12&#45;&gt;Node30</title>
<path fill="none" stroke="#191970" d="M465.5228,-354.5886C558.4838,-348.322 799.5552,-330.6379 877.4359,-311 931.0698,-297.476 989.856,-270.3307 1023.2367,-253.6538"/>
<polygon fill="#191970" stroke="#191970" points="1025.0061,-256.6811 1032.3499,-249.0444 1021.8466,-250.4347 1025.0061,-256.6811"/>
</g>
<!-- Node31 -->
<g id="node31" class="node">
<title>Node31</title>
<g id="a_node31"><a xlink:title=" ">
<polygon fill="#ffffff" stroke="#bfbfbf" points="323.4359,-291.5 323.4359,-310.5 381.4359,-310.5 381.4359,-291.5 323.4359,-291.5"/>
<text text-anchor="middle" x="352.4359" y="-298.5" font-family="Helvetica,sans-Serif" font-size="10.00" fill="#000000">memory</text>
</a>
</g>
</g>
<!-- Node12&#45;&gt;Node31 -->
<g id="edge50" class="edge">
<title>Node12&#45;&gt;Node31</title>
<path fill="none" stroke="#191970" d="M415.1977,-347.2455C403.7549,-338.814 387.0063,-326.4729 373.6884,-316.6598"/>
<polygon fill="#191970" stroke="#191970" points="375.6492,-313.757 365.5224,-310.6427 371.4968,-319.3924 375.6492,-313.757"/>
</g>
<!-- Node13&#45;&gt;Node2 -->
<g id="edge18" class="edge">
<title>Node13&#45;&gt;Node2</title>
<path fill="none" stroke="#191970" d="M285.0285,-229.8845C302.7182,-210.0889 343.4239,-164.5372 365.8715,-139.4173"/>
<polygon fill="#191970" stroke="#191970" points="368.671,-141.5371 372.7246,-131.7484 363.4514,-136.8728 368.671,-141.5371"/>
</g>
<!-- Node13&#45;&gt;Node3 -->
<g id="edge17" class="edge">
<title>Node13&#45;&gt;Node3</title>
<path fill="none" stroke="#191970" d="M264.8738,-229.9555C249.6632,-216.1889 226.2158,-189.9962 238.4359,-168 261.3151,-126.8175 284.3842,-128.7004 328.4359,-112 403.6837,-83.4728 497.3868,-72.5685 552.5808,-68.4483"/>
<polygon fill="#191970" stroke="#191970" points="553.0272,-71.9257 562.7573,-67.7333 552.5365,-64.9429 553.0272,-71.9257"/>
</g>
<!-- Node13&#45;&gt;Node11 -->
<g id="edge19" class="edge">
<title>Node13&#45;&gt;Node11</title>
<path fill="none" stroke="#191970" d="M247.5297,-229.8906C215.8969,-219.3749 165.0329,-202.466 130.013,-190.8243"/>
<polygon fill="#191970" stroke="#191970" points="130.7327,-187.3753 120.1392,-187.5419 128.5244,-194.0178 130.7327,-187.3753"/>
</g>
<!-- Node13&#45;&gt;Node14 -->
<g id="edge20" class="edge">
<title>Node13&#45;&gt;Node14</title>
<path fill="none" stroke="#191970" d="M292.8422,-229.8906C309.8712,-219.9165 336.72,-204.1908 356.401,-192.6633"/>
<polygon fill="#191970" stroke="#191970" points="358.2849,-195.6161 365.1449,-187.5419 354.7471,-189.5759 358.2849,-195.6161"/>
</g>
<!-- Node15 -->
<g id="node15" class="node">
<title>Node15</title>
<g id="a_node15"><a xlink:title=" ">
<polygon fill="#ffffff" stroke="#bfbfbf" points="1091.9359,-168.5 1091.9359,-187.5 1148.9359,-187.5 1148.9359,-168.5 1091.9359,-168.5"/>
<text text-anchor="middle" x="1120.4359" y="-175.5" font-family="Helvetica,sans-Serif" font-size="10.00" fill="#000000">ostream</text>
</a>
</g>
</g>
<!-- Node13&#45;&gt;Node15 -->
<g id="edge21" class="edge">
<title>Node13&#45;&gt;Node15</title>
<path fill="none" stroke="#191970" d="M343.6796,-236.8813C507.0512,-230.2548 922.4598,-211.7539 1081.8088,-187.7253"/>
<polygon fill="#191970" stroke="#191970" points="1082.5939,-191.1449 1091.9292,-186.1346 1081.507,-184.2298 1082.5939,-191.1449"/>
</g>
<!-- Node16 -->
<g id="node16" class="node">
<title>Node16</title>
<g id="a_node16"><a xlink:title=" ">
<polygon fill="#ffffff" stroke="#bfbfbf" points="247.9359,-168.5 247.9359,-187.5 300.9359,-187.5 300.9359,-168.5 247.9359,-168.5"/>
<text text-anchor="middle" x="274.4359" y="-175.5" font-family="Helvetica,sans-Serif" font-size="10.00" fill="#000000">iterator</text>
</a>
</g>
</g>
<!-- Node13&#45;&gt;Node16 -->
<g id="edge22" class="edge">
<title>Node13&#45;&gt;Node16</title>
<path fill="none" stroke="#191970" d="M276.1234,-229.8906C275.8462,-221.3657 275.4323,-208.6392 275.0838,-197.9235"/>
<polygon fill="#191970" stroke="#191970" points="278.5761,-197.6258 274.7528,-187.7449 271.5798,-197.8534 278.5761,-197.6258"/>
</g>
<!-- Node18 -->
<g id="node18" class="node">
<title>Node18</title>
<g id="a_node18"><a xlink:href="sitkMemberFunctionFactoryBase_8h.html" target="_top" xlink:title=" ">
<polygon fill="#ffffff" stroke="#000000" points="756.4359,-224.5 756.4359,-254.5 906.4359,-254.5 906.4359,-224.5 756.4359,-224.5"/>
<text text-anchor="start" x="764.4359" y="-242.5" font-family="Helvetica,sans-Serif" font-size="10.00" fill="#000000">sitkMemberFunctionFactory</text>
<text text-anchor="middle" x="831.4359" y="-231.5" font-family="Helvetica,sans-Serif" font-size="10.00" fill="#000000">Base.h</text>
</a>
</g>
</g>
<!-- Node17&#45;&gt;Node18 -->
<g id="edge24" class="edge">
<title>Node17&#45;&gt;Node18</title>
<path fill="none" stroke="#191970" d="M831.4359,-291.3906C831.4359,-284.2234 831.4359,-274.0862 831.4359,-264.671"/>
<polygon fill="#191970" stroke="#191970" points="834.936,-264.5446 831.4359,-254.5446 827.936,-264.5446 834.936,-264.5446"/>
</g>
<!-- Node24 -->
<g id="node24" class="node">
<title>Node24</title>
<g id="a_node24"><a xlink:title=" ">
<polygon fill="#ffffff" stroke="#bfbfbf" points="935.4359,-168.5 935.4359,-187.5 1073.4359,-187.5 1073.4359,-168.5 935.4359,-168.5"/>
<text text-anchor="middle" x="1004.4359" y="-175.5" font-family="Helvetica,sans-Serif" font-size="10.00" fill="#000000">Ancillary/FunctionTraits.h</text>
</a>
</g>
</g>
<!-- Node17&#45;&gt;Node24 -->
<g id="edge40" class="edge">
<title>Node17&#45;&gt;Node24</title>
<path fill="none" stroke="#191970" d="M851.8309,-291.3613C869.2963,-282.7538 894.8161,-269.3235 915.4359,-255 941.9698,-236.5683 969.6806,-211.529 986.9911,-195.0768"/>
<polygon fill="#191970" stroke="#191970" points="989.8211,-197.2111 994.6028,-187.7567 984.9689,-192.1657 989.8211,-197.2111"/>
</g>
<!-- Node18&#45;&gt;Node3 -->
<g id="edge33" class="edge">
<title>Node18&#45;&gt;Node3</title>
<path fill="none" stroke="#191970" d="M821.6633,-224.4841C811.0861,-209.0237 793.0771,-184.8734 773.4359,-168 728.4512,-129.3545 666.8303,-97.1988 630.2751,-79.8607"/>
<polygon fill="#191970" stroke="#191970" points="631.6467,-76.6383 621.1055,-75.5735 628.6819,-82.9795 631.6467,-76.6383"/>
</g>
<!-- Node18&#45;&gt;Node9 -->
<g id="edge25" class="edge">
<title>Node18&#45;&gt;Node9</title>
<path fill="none" stroke="#191970" d="M829.6237,-224.0927C827.4286,-197.8321 826.9473,-144.1326 854.4359,-112 886.0724,-75.0186 1018.7897,-39.5713 1094.6471,-21.8146"/>
<polygon fill="#191970" stroke="#191970" points="1095.554,-25.1973 1104.5065,-19.5313 1093.9746,-18.3778 1095.554,-25.1973"/>
</g>
<!-- Node19 -->
<g id="node19" class="node">
<title>Node19</title>
<g id="a_node19"><a xlink:href="sitkPixelIDTypes_8h.html" target="_top" xlink:title=" ">
<polygon fill="#ffffff" stroke="#000000" points="863.4359,-112.5 863.4359,-131.5 969.4359,-131.5 969.4359,-112.5 863.4359,-112.5"/>
<text text-anchor="middle" x="916.4359" y="-119.5" font-family="Helvetica,sans-Serif" font-size="10.00" fill="#000000">sitkPixelIDTypes.h</text>
</a>
</g>
</g>
<!-- Node18&#45;&gt;Node19 -->
<g id="edge26" class="edge">
<title>Node18&#45;&gt;Node19</title>
<path fill="none" stroke="#191970" d="M842.5482,-224.1389C858.2801,-202.3919 886.9761,-162.7238 903.598,-139.7465"/>
<polygon fill="#191970" stroke="#191970" points="906.4951,-141.7132 909.5205,-131.5595 900.8235,-137.6103 906.4951,-141.7132"/>
</g>
<!-- Node20 -->
<g id="node20" class="node">
<title>Node20</title>
<g id="a_node20"><a xlink:href="sitkPixelIDTypeLists_8h.html" target="_top" xlink:title=" ">
<polygon fill="#ffffff" stroke="#000000" points="1205.9359,-168.5 1205.9359,-187.5 1328.9359,-187.5 1328.9359,-168.5 1205.9359,-168.5"/>
<text text-anchor="middle" x="1267.4359" y="-175.5" font-family="Helvetica,sans-Serif" font-size="10.00" fill="#000000">sitkPixelIDTypeLists.h</text>
</a>
</g>
</g>
<!-- Node18&#45;&gt;Node20 -->
<g id="edge27" class="edge">
<title>Node18&#45;&gt;Node20</title>
<path fill="none" stroke="#191970" d="M906.8836,-228.8577C988.1053,-217.401 1116.3398,-199.3129 1195.98,-188.0792"/>
<polygon fill="#191970" stroke="#191970" points="1196.5114,-191.539 1205.9245,-186.6765 1195.5336,-184.6076 1196.5114,-191.539"/>
</g>
<!-- Node21 -->
<g id="node21" class="node">
<title>Node21</title>
<g id="a_node21"><a xlink:title=" ">
<polygon fill="#ffffff" stroke="#bfbfbf" points="1001.9359,-112.5 1001.9359,-131.5 1112.9359,-131.5 1112.9359,-112.5 1001.9359,-112.5"/>
<text text-anchor="middle" x="1057.4359" y="-119.5" font-family="Helvetica,sans-Serif" font-size="10.00" fill="#000000">Ancillary/TypeList.h</text>
</a>
</g>
</g>
<!-- Node18&#45;&gt;Node21 -->
<g id="edge36" class="edge">
<title>Node18&#45;&gt;Node21</title>
<path fill="none" stroke="#191970" d="M848.194,-224.334C866.3683,-208.5232 896.7708,-183.8779 926.4359,-168 953.1708,-153.6905 985.2645,-142.3364 1010.9941,-134.4886"/>
<polygon fill="#191970" stroke="#191970" points="1012.289,-137.7551 1020.8766,-131.55 1010.2938,-131.0454 1012.289,-137.7551"/>
</g>
<!-- Node23 -->
<g id="node23" class="node">
<title>Node23</title>
<g id="a_node23"><a xlink:href="sitkNonCopyable_8h.html" target="_top" xlink:title=" ">
<polygon fill="#ffffff" stroke="#000000" points="461.9359,-168.5 461.9359,-187.5 570.9359,-187.5 570.9359,-168.5 461.9359,-168.5"/>
<text text-anchor="middle" x="516.4359" y="-175.5" font-family="Helvetica,sans-Serif" font-size="10.00" fill="#000000">sitkNonCopyable.h</text>
</a>
</g>
</g>
<!-- Node18&#45;&gt;Node23 -->
<g id="edge34" class="edge">
<title>Node18&#45;&gt;Node23</title>
<path fill="none" stroke="#191970" d="M756.3858,-224.8474C700.9407,-214.0224 626.5108,-199.4908 575.3266,-189.4977"/>
<polygon fill="#191970" stroke="#191970" points="575.8976,-186.0432 565.4122,-187.562 574.5562,-192.9135 575.8976,-186.0432"/>
</g>
<!-- Node18&#45;&gt;Node24 -->
<g id="edge37" class="edge">
<title>Node18&#45;&gt;Node24</title>
<path fill="none" stroke="#191970" d="M873.7565,-224.4554C902.622,-214.194 940.4598,-200.7429 967.9875,-190.9571"/>
<polygon fill="#191970" stroke="#191970" points="969.3771,-194.1778 977.627,-187.5303 967.0323,-187.5821 969.3771,-194.1778"/>
</g>
<!-- Node25 -->
<g id="node25" class="node">
<title>Node25</title>
<g id="a_node25"><a xlink:title=" ">
<polygon fill="#ffffff" stroke="#bfbfbf" points="588.9359,-168.5 588.9359,-187.5 681.9359,-187.5 681.9359,-168.5 588.9359,-168.5"/>
<text text-anchor="middle" x="635.4359" y="-175.5" font-family="Helvetica,sans-Serif" font-size="10.00" fill="#000000">unordered_map</text>
</a>
</g>
</g>
<!-- Node18&#45;&gt;Node25 -->
<g id="edge38" class="edge">
<title>Node18&#45;&gt;Node25</title>
<path fill="none" stroke="#191970" d="M783.4889,-224.4554C750.3555,-214.059 706.7876,-200.3884 675.5051,-190.5727"/>
<polygon fill="#191970" stroke="#191970" points="676.3981,-187.1848 665.8089,-187.5303 674.3024,-193.8637 676.3981,-187.1848"/>
</g>
<!-- Node26 -->
<g id="node26" class="node">
<title>Node26</title>
<g id="a_node26"><a xlink:title=" ">
<polygon fill="#ffffff" stroke="#bfbfbf" points="699.9359,-168.5 699.9359,-187.5 764.9359,-187.5 764.9359,-168.5 699.9359,-168.5"/>
<text text-anchor="middle" x="732.4359" y="-175.5" font-family="Helvetica,sans-Serif" font-size="10.00" fill="#000000">functional</text>
</a>
</g>
</g>
<!-- Node18&#45;&gt;Node26 -->
<g id="edge39" class="edge">
<title>Node18&#45;&gt;Node26</title>
<path fill="none" stroke="#191970" d="M807.2178,-224.4554C791.8586,-214.9141 772.0602,-202.6151 756.6934,-193.0691"/>
<polygon fill="#191970" stroke="#191970" points="758.1187,-189.8341 747.7774,-187.5303 754.4249,-195.7802 758.1187,-189.8341"/>
</g>
<!-- Node20&#45;&gt;Node4 -->
<g id="edge28" class="edge">
<title>Node20&#45;&gt;Node4</title>
<path fill="none" stroke="#191970" d="M1246.7334,-168.3399C1227.2208,-159.1737 1197.2106,-144.918 1171.4359,-132 1096.1035,-94.2443 1008.3014,-47.5247 965.1545,-24.3847"/>
<polygon fill="#191970" stroke="#191970" points="966.6219,-21.2001 956.1559,-19.5532 963.3106,-27.3673 966.6219,-21.2001"/>
</g>
<!-- Node20&#45;&gt;Node9 -->
<g id="edge29" class="edge">
<title>Node20&#45;&gt;Node9</title>
<path fill="none" stroke="#191970" d="M1266.1967,-168.4588C1264.1365,-155.0811 1259.1269,-130.3349 1248.4359,-112 1227.7225,-76.477 1191.8879,-44.1787 1169.2109,-25.8311"/>
<polygon fill="#191970" stroke="#191970" points="1171.2351,-22.9695 1161.2229,-19.5046 1166.8891,-28.457 1171.2351,-22.9695"/>
</g>
<!-- Node20&#45;&gt;Node19 -->
<g id="edge30" class="edge">
<title>Node20&#45;&gt;Node19</title>
<path fill="none" stroke="#191970" d="M1207.4957,-168.4369C1144.0254,-158.3106 1044.2547,-142.3927 979.5903,-132.0759"/>
<polygon fill="#191970" stroke="#191970" points="979.951,-128.5893 969.5245,-130.47 978.8481,-135.5019 979.951,-128.5893"/>
</g>
<!-- Node20&#45;&gt;Node21 -->
<g id="edge31" class="edge">
<title>Node20&#45;&gt;Node21</title>
<path fill="none" stroke="#191970" d="M1231.3356,-168.3733C1195.8111,-158.9001 1141.4479,-144.4032 1102.974,-134.1435"/>
<polygon fill="#191970" stroke="#191970" points="1103.6293,-130.696 1093.0651,-131.5011 1101.8256,-137.4596 1103.6293,-130.696"/>
</g>
<!-- Node22 -->
<g id="node22" class="node">
<title>Node22</title>
<g id="a_node22"><a xlink:title=" ">
<polygon fill="#ffffff" stroke="#bfbfbf" points="1179.9359,-112.5 1179.9359,-131.5 1238.9359,-131.5 1238.9359,-112.5 1179.9359,-112.5"/>
<text text-anchor="middle" x="1209.4359" y="-119.5" font-family="Helvetica,sans-Serif" font-size="10.00" fill="#000000">complex</text>
</a>
</g>
</g>
<!-- Node20&#45;&gt;Node22 -->
<g id="edge32" class="edge">
<title>Node20&#45;&gt;Node22</title>
<path fill="none" stroke="#191970" d="M1257.3331,-168.2455C1248.9331,-160.1352 1236.7865,-148.4075 1226.8275,-138.7919"/>
<polygon fill="#191970" stroke="#191970" points="1229.0481,-136.0707 1219.423,-131.6427 1224.1859,-141.1066 1229.0481,-136.0707"/>
</g>
<!-- Node23&#45;&gt;Node2 -->
<g id="edge35" class="edge">
<title>Node23&#45;&gt;Node2</title>
<path fill="none" stroke="#191970" d="M493.2286,-168.3733C471.266,-159.2629 438.1027,-145.5062 413.5958,-135.3404"/>
<polygon fill="#191970" stroke="#191970" points="414.9183,-132.0999 404.3404,-131.5011 412.2362,-138.5657 414.9183,-132.0999"/>
</g>
<!-- Node27&#45;&gt;Node9 -->
<g id="edge42" class="edge">
<title>Node27&#45;&gt;Node9</title>
<path fill="none" stroke="#191970" d="M1152.6982,-291.5142C1245.2399,-274.2996 1419.4359,-234.4044 1419.4359,-178 1419.4359,-178 1419.4359,-178 1419.4359,-122 1419.4359,-75.6817 1282.513,-38.6224 1203.3195,-21.0616"/>
<polygon fill="#191970" stroke="#191970" points="1204.0066,-17.6292 1193.4903,-18.9162 1202.5138,-24.4682 1204.0066,-17.6292"/>
</g>
<!-- Node28 -->
<g id="node28" class="node">
<title>Node28</title>
<g id="a_node28"><a xlink:href="sitkPixelIDValues_8h.html" target="_top" xlink:title=" ">
<polygon fill="#ffffff" stroke="#000000" points="1122.4359,-230 1122.4359,-249 1232.4359,-249 1232.4359,-230 1122.4359,-230"/>
<text text-anchor="middle" x="1177.4359" y="-237" font-family="Helvetica,sans-Serif" font-size="10.00" fill="#000000">sitkPixelIDValues.h</text>
</a>
</g>
</g>
<!-- Node27&#45;&gt;Node28 -->
<g id="edge43" class="edge">
<title>Node27&#45;&gt;Node28</title>
<path fill="none" stroke="#191970" d="M1109.0922,-291.3906C1121.8128,-281.7324 1141.6363,-266.6812 1156.6643,-255.271"/>
<polygon fill="#191970" stroke="#191970" points="1159.0205,-257.8766 1164.8685,-249.0419 1154.7875,-252.3015 1159.0205,-257.8766"/>
</g>
<!-- Node27&#45;&gt;Node30 -->
<g id="edge48" class="edge">
<title>Node27&#45;&gt;Node30</title>
<path fill="none" stroke="#191970" d="M1089.2484,-291.3906C1082.4693,-282.3273 1072.1381,-268.5149 1063.8386,-257.4188"/>
<polygon fill="#191970" stroke="#191970" points="1066.5171,-255.1563 1057.7247,-249.2449 1060.9116,-259.349 1066.5171,-255.1563"/>
</g>
<!-- Node28&#45;&gt;Node2 -->
<g id="edge44" class="edge">
<title>Node28&#45;&gt;Node2</title>
<path fill="none" stroke="#191970" d="M1178.1005,-229.7764C1178.5826,-214.0111 1176.9352,-183.1163 1158.4359,-168 1130.4762,-145.1533 607.4739,-128.3885 435.6372,-123.4779"/>
<polygon fill="#191970" stroke="#191970" points="435.6483,-119.9769 425.553,-123.1918 435.4497,-126.9741 435.6483,-119.9769"/>
</g>
<!-- Node28&#45;&gt;Node15 -->
<g id="edge47" class="edge">
<title>Node28&#45;&gt;Node15</title>
<path fill="none" stroke="#191970" d="M1168.5297,-229.8906C1159.9632,-220.6478 1146.819,-206.466 1136.4356,-195.2628"/>
<polygon fill="#191970" stroke="#191970" points="1138.8324,-192.7 1129.4677,-187.7449 1133.6984,-197.4584 1138.8324,-192.7"/>
</g>
<!-- Node28&#45;&gt;Node20 -->
<g id="edge45" class="edge">
<title>Node28&#45;&gt;Node20</title>
<path fill="none" stroke="#191970" d="M1191.4984,-229.8906C1205.7645,-220.1421 1228.0709,-204.8994 1244.8231,-193.4521"/>
<polygon fill="#191970" stroke="#191970" points="1247.1904,-196.0736 1253.4722,-187.5419 1243.241,-190.2941 1247.1904,-196.0736"/>
</g>
<!-- Node29 -->
<g id="node29" class="node">
<title>Node29</title>
<g id="a_node29"><a xlink:title=" ">
<polygon fill="#ffffff" stroke="#bfbfbf" points="1347.4359,-168.5 1347.4359,-187.5 1391.4359,-187.5 1391.4359,-168.5 1347.4359,-168.5"/>
<text text-anchor="middle" x="1369.4359" y="-175.5" font-family="Helvetica,sans-Serif" font-size="10.00" fill="#000000">string</text>
</a>
</g>
</g>
<!-- Node28&#45;&gt;Node29 -->
<g id="edge46" class="edge">
<title>Node28&#45;&gt;Node29</title>
<path fill="none" stroke="#191970" d="M1207.4126,-229.9354C1237.8561,-220.2165 1286.6131,-204.6366 1337.8338,-188.1885"/>
<polygon fill="#191970" stroke="#191970" points="1338.9722,-191.4991 1347.4226,-185.1084 1336.8313,-184.8344 1338.9722,-191.4991"/>
</g>
</g>
</svg>
        <g id="navigator" transform="translate(0 0)" fill="#404254">
                <rect fill="#f2f5e9" fill-opacity="0.5" stroke="#606060" stroke-width=".5" x="0" y="0" width="60" height="60"/>
                <use id="zoomplus" xlink:href="#zoomPlus" x="17" y="9" onmousedown="handleZoom(evt,'in')"/>
                <use id="zoomminus" xlink:href="#zoomMin" x="42" y="9" onmousedown="handleZoom(evt,'out')"/>
                <use id="reset" xlink:href="#resetDef" x="30" y="36" onmousedown="handleReset()"/>
                <g id="arrowUp" xlink:href="#dirArrow" transform="translate(30 24)" onmousedown="handlePan(0,-1)">
                  <use xlink:href="#rim" fill="#404040">
                        <set attributeName="fill" to="#808080" begin="arrowUp.mouseover" end="arrowUp.mouseout"/>
                  </use>
                  <path fill="none" stroke="white" stroke-width="1.5" d="M0,-3.0v7 M-2.5,-0.5L0,-3.0L2.5,-0.5"/>
                </g>
                <g id="arrowRight" xlink:href="#dirArrow" transform="rotate(90) translate(36 -43)" onmousedown="handlePan(1,0)">
                  <use xlink:href="#rim" fill="#404040">
                        <set attributeName="fill" to="#808080" begin="arrowRight.mouseover" end="arrowRight.mouseout"/>
                  </use>
                  <path fill="none" stroke="white" stroke-width="1.5" d="M0,-3.0v7 M-2.5,-0.5L0,-3.0L2.5,-0.5"/>
                </g>
                <g id="arrowDown" xlink:href="#dirArrow" transform="rotate(180) translate(-30 -48)" onmousedown="handlePan(0,1)">
                  <use xlink:href="#rim" fill="#404040">
                        <set attributeName="fill" to="#808080" begin="arrowDown.mouseover" end="arrowDown.mouseout"/>
                  </use>
                  <path fill="none" stroke="white" stroke-width="1.5" d="M0,-3.0v7 M-2.5,-0.5L0,-3.0L2.5,-0.5"/>
                </g>
                <g id="arrowLeft" xlink:href="#dirArrow" transform="rotate(270) translate(-36 17)" onmousedown="handlePan(-1,0)">
                  <use xlink:href="#rim" fill="#404040">
                        <set attributeName="fill" to="#808080" begin="arrowLeft.mouseover" end="arrowLeft.mouseout"/>
                  </use>
                  <path fill="none" stroke="white" stroke-width="1.5" d="M0,-3.0v7 M-2.5,-0.5L0,-3.0L2.5,-0.5"/>
                </g>
        </g>
        <svg viewBox="0 0 15 15" width="100%" height="30px" preserveAspectRatio="xMaxYMin meet">
         <g id="arrow_out" transform="scale(0.3 0.3)">
          <a xlink:href="sitkBSplineTransform_8h__incl_org.svg" target="_base">
           <rect id="button" ry="5" rx="5" y="6" x="6" height="38" width="38"
                fill="#f2f5e9" fill-opacity="0.5" stroke="#606060" stroke-width="1.0"/>
           <path id="arrow"
             d="M 11.500037,31.436501 C 11.940474,20.09759 22.043105,11.32322 32.158766,21.979434 L 37.068811,17.246167 C 37.068811,17.246167 37.088388,32 37.088388,32 L 22.160133,31.978069 C 22.160133,31.978069 26.997745,27.140456 26.997745,27.140456 C 18.528582,18.264221 13.291696,25.230495 11.500037,31.436501 z"
             style="fill:#404040;"/>
          </a>
         </g>
        </svg>
</svg>
