<?xml version="1.0" encoding="UTF-8" standalone="no"?>
<!DOCTYPE svg PUBLIC "-//W3C//DTD SVG 1.1//EN"
 "http://www.w3.org/Graphics/SVG/1.1/DTD/svg11.dtd">
<!-- Generated by graphviz version 2.40.1 (20161225.0304)
 -->
<!-- Title: sitkTransform.h Pages: 1 -->
<!--zoomable 431 -->
<svg id="main" version="1.1" xmlns="http://www.w3.org/2000/svg" xmlns:xlink="http://www.w3.org/1999/xlink" xml:space="preserve" onload="init(evt)">
<style type="text/css"><![CDATA[
.edge:hover path { stroke: red; }
.edge:hover polygon { stroke: red; fill: red; }
]]></style>
<script type="text/javascript"><![CDATA[
var edges = document.getElementsByTagName('g');
if (edges && edges.length) {
  for (var i=0;i<edges.length;i++) {
    if (edges[i].id.substr(0,4)=='edge') {
      edges[i].setAttribute('class','edge');
    }
  }
}
]]></script>
        <defs>
                <circle id="rim" cx="0" cy="0" r="7"/>
                <circle id="rim2" cx="0" cy="0" r="3.5"/>
                <g id="zoomPlus">
                        <use xlink:href="#rim" fill="#404040">
                                <set attributeName="fill" to="#808080" begin="zoomplus.mouseover" end="zoomplus.mouseout"/>
                        </use>
                        <path d="M-4,0h8M0,-4v8" fill="none" stroke="white" stroke-width="1.5" pointer-events="none"/>
                </g>
                <g id="zoomMin">
                        <use xlink:href="#rim" fill="#404040">
                                <set attributeName="fill" to="#808080" begin="zoomminus.mouseover" end="zoomminus.mouseout"/>
                        </use>
                        <path d="M-4,0h8" fill="none" stroke="white" stroke-width="1.5" pointer-events="none"/>
                </g>
                <g id="dirArrow">
                        <path fill="none" stroke="white" stroke-width="1.5" d="M0,-3.0v7 M-2.5,-0.5L0,-3.0L2.5,-0.5"/>
                </g>
               <g id="resetDef">
                       <use xlink:href="#rim2" fill="#404040">
                               <set attributeName="fill" to="#808080" begin="reset.mouseover" end="reset.mouseout"/>
                       </use>
               </g>
        </defs>

<script type="text/javascript">
var viewWidth = 1451;
var viewHeight = 431;
var sectionId = 'dynsection-0';
</script>
<script xlink:href="svgpan.js"/>
<svg id="graph" class="graph">
<g id="viewport">
<title>sitkTransform.h</title>
<polygon fill="#ffffff" stroke="transparent" points="-4,4 -4,-427 1447,-427 1447,4 -4,4"/>
<!-- Node1 -->
<g id="node1" class="node">
<title>Node1</title>
<g id="a_node1"><a xlink:title=" ">
<polygon fill="#bfbfbf" stroke="#000000" points="260.5,-403.5 260.5,-422.5 352.5,-422.5 352.5,-403.5 260.5,-403.5"/>
<text text-anchor="middle" x="306.5" y="-410.5" font-family="Helvetica,sans-Serif" font-size="10.00" fill="#000000">sitkTransform.h</text>
</a>
</g>
</g>
<!-- Node2 -->
<g id="node2" class="node">
<title>Node2</title>
<g id="a_node2"><a xlink:href="sitkCommon_8h.html" target="_top" xlink:title=" ">
<polygon fill="#ffffff" stroke="#000000" points="183.5,-112.5 183.5,-131.5 271.5,-131.5 271.5,-112.5 183.5,-112.5"/>
<text text-anchor="middle" x="227.5" y="-119.5" font-family="Helvetica,sans-Serif" font-size="10.00" fill="#000000">sitkCommon.h</text>
</a>
</g>
</g>
<!-- Node1&#45;&gt;Node2 -->
<g id="edge1" class="edge">
<title>Node1&#45;&gt;Node2</title>
<path fill="none" stroke="#191970" d="M268.1854,-403.4271C222.2854,-389.3915 151.5,-358.4355 151.5,-301 151.5,-301 151.5,-301 151.5,-239.5 151.5,-197.9563 185.4099,-159.486 207.9281,-138.5193"/>
<polygon fill="#191970" stroke="#191970" points="210.5192,-140.8968 215.625,-131.6133 205.8444,-135.6865 210.5192,-140.8968"/>
</g>
<!-- Node10 -->
<g id="node10" class="node">
<title>Node10</title>
<g id="a_node10"><a xlink:href="sitkExceptionObject_8h.html" target="_top" xlink:title=" ">
<polygon fill="#ffffff" stroke="#000000" points="0,-168.5 0,-187.5 123,-187.5 123,-168.5 0,-168.5"/>
<text text-anchor="middle" x="61.5" y="-175.5" font-family="Helvetica,sans-Serif" font-size="10.00" fill="#000000">sitkExceptionObject.h</text>
</a>
</g>
</g>
<!-- Node1&#45;&gt;Node10 -->
<g id="edge9" class="edge">
<title>Node1&#45;&gt;Node10</title>
<path fill="none" stroke="#191970" d="M260.2857,-405.1902C216.7624,-397.0091 155.6173,-383.1194 137.5,-367 86.258,-321.4087 69.0375,-236.4255 63.6996,-197.8998"/>
<polygon fill="#191970" stroke="#191970" points="67.1164,-197.0172 62.3999,-187.5301 60.1707,-197.8878 67.1164,-197.0172"/>
</g>
<!-- Node11 -->
<g id="node11" class="node">
<title>Node11</title>
<g id="a_node11"><a xlink:href="sitkImage_8h.html" target="_top" xlink:title=" ">
<polygon fill="#ffffff" stroke="#000000" points="466.5,-347.5 466.5,-366.5 540.5,-366.5 540.5,-347.5 466.5,-347.5"/>
<text text-anchor="middle" x="503.5" y="-354.5" font-family="Helvetica,sans-Serif" font-size="10.00" fill="#000000">sitkImage.h</text>
</a>
</g>
</g>
<!-- Node1&#45;&gt;Node11 -->
<g id="edge12" class="edge">
<title>Node1&#45;&gt;Node11</title>
<path fill="none" stroke="#191970" d="M340.3655,-403.3733C373.549,-393.9404 424.255,-379.5265 460.3194,-369.2747"/>
<polygon fill="#191970" stroke="#191970" points="461.4145,-372.6021 470.0764,-366.5011 459.5005,-365.8689 461.4145,-372.6021"/>
</g>
<!-- Node13 -->
<g id="node13" class="node">
<title>Node13</title>
<g id="a_node13"><a xlink:title=" ">
<polygon fill="#ffffff" stroke="#bfbfbf" points="542,-168.5 542,-187.5 589,-187.5 589,-168.5 542,-168.5"/>
<text text-anchor="middle" x="565.5" y="-175.5" font-family="Helvetica,sans-Serif" font-size="10.00" fill="#000000">vector</text>
</a>
</g>
</g>
<!-- Node1&#45;&gt;Node13 -->
<g id="edge50" class="edge">
<title>Node1&#45;&gt;Node13</title>
<path fill="none" stroke="#191970" d="M352.8168,-407.0031C446.5012,-393.962 653.8148,-360.1908 703.5,-311 731.767,-283.0143 748.4009,-255.7958 724.5,-224 709.4577,-203.989 641.239,-189.909 599.1959,-182.9561"/>
<polygon fill="#191970" stroke="#191970" points="599.5468,-179.4678 589.1192,-181.3427 598.4401,-186.3798 599.5468,-179.4678"/>
</g>
<!-- Node3 -->
<g id="node3" class="node">
<title>Node3</title>
<g id="a_node3"><a xlink:href="sitkMacro_8h.html" target="_top" xlink:title=" ">
<polygon fill="#ffffff" stroke="#000000" points="408,-56.5 408,-75.5 481,-75.5 481,-56.5 408,-56.5"/>
<text text-anchor="middle" x="444.5" y="-63.5" font-family="Helvetica,sans-Serif" font-size="10.00" fill="#000000">sitkMacro.h</text>
</a>
</g>
</g>
<!-- Node2&#45;&gt;Node3 -->
<g id="edge2" class="edge">
<title>Node2&#45;&gt;Node3</title>
<path fill="none" stroke="#191970" d="M264.8036,-112.3733C301.6685,-102.8598 358.166,-88.2797 397.9506,-78.0127"/>
<polygon fill="#191970" stroke="#191970" points="398.875,-81.3889 407.6831,-75.5011 397.1258,-74.611 398.875,-81.3889"/>
</g>
<!-- Node4 -->
<g id="node4" class="node">
<title>Node4</title>
<g id="a_node4"><a xlink:title=" ">
<polygon fill="#ffffff" stroke="#bfbfbf" points="655,-.5 655,-19.5 708,-19.5 708,-.5 655,-.5"/>
<text text-anchor="middle" x="681.5" y="-7.5" font-family="Helvetica,sans-Serif" font-size="10.00" fill="#000000">stdint.h</text>
</a>
</g>
</g>
<!-- Node3&#45;&gt;Node4 -->
<g id="edge3" class="edge">
<title>Node3&#45;&gt;Node4</title>
<path fill="none" stroke="#191970" d="M481.0119,-57.3727C525.5825,-46.8413 600.5054,-29.138 645.0486,-18.613"/>
<polygon fill="#191970" stroke="#191970" points="645.9488,-21.9967 654.8759,-16.2909 644.339,-15.1843 645.9488,-21.9967"/>
</g>
<!-- Node5 -->
<g id="node5" class="node">
<title>Node5</title>
<g id="a_node5"><a xlink:title=" ">
<polygon fill="#ffffff" stroke="#bfbfbf" points="518.5,-.5 518.5,-19.5 574.5,-19.5 574.5,-.5 518.5,-.5"/>
<text text-anchor="middle" x="546.5" y="-7.5" font-family="Helvetica,sans-Serif" font-size="10.00" fill="#000000">stddef.h</text>
</a>
</g>
</g>
<!-- Node3&#45;&gt;Node5 -->
<g id="edge4" class="edge">
<title>Node3&#45;&gt;Node5</title>
<path fill="none" stroke="#191970" d="M462.267,-56.2455C478.2095,-47.4928 501.8259,-34.527 519.9989,-24.5496"/>
<polygon fill="#191970" stroke="#191970" points="521.8552,-27.5233 528.9366,-19.6427 518.4863,-21.3873 521.8552,-27.5233"/>
</g>
<!-- Node6 -->
<g id="node6" class="node">
<title>Node6</title>
<g id="a_node6"><a xlink:title=" ">
<polygon fill="#ffffff" stroke="#bfbfbf" points="312.5,-.5 312.5,-19.5 364.5,-19.5 364.5,-.5 312.5,-.5"/>
<text text-anchor="middle" x="338.5" y="-7.5" font-family="Helvetica,sans-Serif" font-size="10.00" fill="#000000">cassert</text>
</a>
</g>
</g>
<!-- Node3&#45;&gt;Node6 -->
<g id="edge5" class="edge">
<title>Node3&#45;&gt;Node6</title>
<path fill="none" stroke="#191970" d="M426.0362,-56.2455C409.3926,-47.4527 384.7007,-34.4079 365.7808,-24.4125"/>
<polygon fill="#191970" stroke="#191970" points="367.2291,-21.2193 356.7522,-19.6427 363.9592,-27.4086 367.2291,-21.2193"/>
</g>
<!-- Node7 -->
<g id="node7" class="node">
<title>Node7</title>
<g id="a_node7"><a xlink:title=" ">
<polygon fill="#ffffff" stroke="#bfbfbf" points="382.5,-.5 382.5,-19.5 438.5,-19.5 438.5,-.5 382.5,-.5"/>
<text text-anchor="middle" x="410.5" y="-7.5" font-family="Helvetica,sans-Serif" font-size="10.00" fill="#000000">sstream</text>
</a>
</g>
</g>
<!-- Node3&#45;&gt;Node7 -->
<g id="edge6" class="edge">
<title>Node3&#45;&gt;Node7</title>
<path fill="none" stroke="#191970" d="M438.5777,-56.2455C433.8973,-48.5367 427.2327,-37.5598 421.5711,-28.2348"/>
<polygon fill="#191970" stroke="#191970" points="424.5361,-26.3741 416.3545,-19.6427 418.5525,-30.007 424.5361,-26.3741"/>
</g>
<!-- Node8 -->
<g id="node8" class="node">
<title>Node8</title>
<g id="a_node8"><a xlink:title=" ">
<polygon fill="#ffffff" stroke="#bfbfbf" points="456.5,-.5 456.5,-19.5 500.5,-19.5 500.5,-.5 456.5,-.5"/>
<text text-anchor="middle" x="478.5" y="-7.5" font-family="Helvetica,sans-Serif" font-size="10.00" fill="#000000">limits</text>
</a>
</g>
</g>
<!-- Node3&#45;&gt;Node8 -->
<g id="edge7" class="edge">
<title>Node3&#45;&gt;Node8</title>
<path fill="none" stroke="#191970" d="M450.4223,-56.2455C455.1027,-48.5367 461.7673,-37.5598 467.4289,-28.2348"/>
<polygon fill="#191970" stroke="#191970" points="470.4475,-30.007 472.6455,-19.6427 464.4639,-26.3741 470.4475,-30.007"/>
</g>
<!-- Node9 -->
<g id="node9" class="node">
<title>Node9</title>
<g id="a_node9"><a xlink:href="sitkConfigure_8h.html" target="_top" xlink:title=" ">
<polygon fill="#ffffff" stroke="#000000" points="922.5,-.5 922.5,-19.5 1012.5,-19.5 1012.5,-.5 922.5,-.5"/>
<text text-anchor="middle" x="967.5" y="-7.5" font-family="Helvetica,sans-Serif" font-size="10.00" fill="#000000">sitkConfigure.h</text>
</a>
</g>
</g>
<!-- Node3&#45;&gt;Node9 -->
<g id="edge8" class="edge">
<title>Node3&#45;&gt;Node9</title>
<path fill="none" stroke="#191970" d="M481.2763,-62.0622C571.7124,-52.3788 805.3466,-27.3625 912.42,-15.8977"/>
<polygon fill="#191970" stroke="#191970" points="912.8073,-19.3763 922.3778,-14.8314 912.062,-12.4161 912.8073,-19.3763"/>
</g>
<!-- Node10&#45;&gt;Node2 -->
<g id="edge11" class="edge">
<title>Node10&#45;&gt;Node2</title>
<path fill="none" stroke="#191970" d="M90.0364,-168.3733C117.5202,-159.1016 159.2686,-145.0178 189.5452,-134.804"/>
<polygon fill="#191970" stroke="#191970" points="190.9794,-138.0141 199.336,-131.5011 188.7418,-131.3813 190.9794,-138.0141"/>
</g>
<!-- Node10&#45;&gt;Node3 -->
<g id="edge10" class="edge">
<title>Node10&#45;&gt;Node3</title>
<path fill="none" stroke="#191970" d="M74.2933,-168.4257C94.4723,-153.8274 135.4259,-126.2051 174.5,-112 249.6499,-84.6799 342.5742,-73.4032 397.4946,-68.8812"/>
<polygon fill="#191970" stroke="#191970" points="397.9284,-72.358 407.6248,-68.0885 397.3822,-65.3794 397.9284,-72.358"/>
</g>
<!-- Node11&#45;&gt;Node2 -->
<g id="edge13" class="edge">
<title>Node11&#45;&gt;Node2</title>
<path fill="none" stroke="#191970" d="M466.4092,-348.1537C399.6871,-331.4344 263.7219,-293.4156 235.5,-255 210.8355,-221.4268 216.9143,-169.2688 222.6876,-141.2899"/>
<polygon fill="#191970" stroke="#191970" points="226.1036,-142.052 224.8979,-131.526 219.2763,-140.5064 226.1036,-142.052"/>
</g>
<!-- Node12 -->
<g id="node12" class="node">
<title>Node12</title>
<g id="a_node12"><a xlink:href="sitkTemplateFunctions_8h.html" target="_top" xlink:title=" ">
<polygon fill="#ffffff" stroke="#000000" points="244.5,-230 244.5,-249 378.5,-249 378.5,-230 244.5,-230"/>
<text text-anchor="middle" x="311.5" y="-237" font-family="Helvetica,sans-Serif" font-size="10.00" fill="#000000">sitkTemplateFunctions.h</text>
</a>
</g>
</g>
<!-- Node11&#45;&gt;Node12 -->
<g id="edge14" class="edge">
<title>Node11&#45;&gt;Node12</title>
<path fill="none" stroke="#191970" d="M487.7878,-347.3845C454.3031,-326.8925 375.7188,-278.8005 335.7561,-254.3442"/>
<polygon fill="#191970" stroke="#191970" points="337.5165,-251.3182 327.16,-249.0836 333.8626,-257.2889 337.5165,-251.3182"/>
</g>
<!-- Node11&#45;&gt;Node13 -->
<g id="edge47" class="edge">
<title>Node11&#45;&gt;Node13</title>
<path fill="none" stroke="#191970" d="M495.812,-347.4895C486.3502,-334.5625 472.4665,-310.7875 480.5,-291 488.8943,-270.3237 501.5793,-272.441 515.5,-255 530.5685,-236.1209 545.3185,-212.61 554.8465,-196.5672"/>
<polygon fill="#191970" stroke="#191970" points="558.0335,-198.0506 560.0604,-187.6515 551.9909,-194.5169 558.0335,-198.0506"/>
</g>
<!-- Node16 -->
<g id="node16" class="node">
<title>Node16</title>
<g id="a_node16"><a xlink:href="sitkDetail_8h.html" target="_top" xlink:title=" ">
<polygon fill="#ffffff" stroke="#000000" points="772,-291.5 772,-310.5 845,-310.5 845,-291.5 772,-291.5"/>
<text text-anchor="middle" x="808.5" y="-298.5" font-family="Helvetica,sans-Serif" font-size="10.00" fill="#000000">sitkDetail.h</text>
</a>
</g>
</g>
<!-- Node11&#45;&gt;Node16 -->
<g id="edge21" class="edge">
<title>Node11&#45;&gt;Node16</title>
<path fill="none" stroke="#191970" d="M540.5941,-350.1893C596.1214,-339.9941 700.8083,-320.7729 761.5761,-309.6155"/>
<polygon fill="#191970" stroke="#191970" points="762.4601,-313.0118 771.6636,-307.7634 761.196,-306.1269 762.4601,-313.0118"/>
</g>
<!-- Node26 -->
<g id="node26" class="node">
<title>Node26</title>
<g id="a_node26"><a xlink:href="sitkPixelIDTokens_8h.html" target="_top" xlink:title=" ">
<polygon fill="#ffffff" stroke="#000000" points="489.5,-291.5 489.5,-310.5 601.5,-310.5 601.5,-291.5 489.5,-291.5"/>
<text text-anchor="middle" x="545.5" y="-298.5" font-family="Helvetica,sans-Serif" font-size="10.00" fill="#000000">sitkPixelIDTokens.h</text>
</a>
</g>
</g>
<!-- Node11&#45;&gt;Node26 -->
<g id="edge39" class="edge">
<title>Node11&#45;&gt;Node26</title>
<path fill="none" stroke="#191970" d="M510.8158,-347.2455C516.7179,-339.3761 525.1742,-328.101 532.2594,-318.6542"/>
<polygon fill="#191970" stroke="#191970" points="535.068,-320.7427 538.268,-310.6427 529.4679,-316.5427 535.068,-320.7427"/>
</g>
<!-- Node29 -->
<g id="node29" class="node">
<title>Node29</title>
<g id="a_node29"><a xlink:title=" ">
<polygon fill="#ffffff" stroke="#bfbfbf" points="646,-230 646,-249 715,-249 715,-230 646,-230"/>
<text text-anchor="middle" x="680.5" y="-237" font-family="Helvetica,sans-Serif" font-size="10.00" fill="#000000">type_traits</text>
</a>
</g>
</g>
<!-- Node11&#45;&gt;Node29 -->
<g id="edge49" class="edge">
<title>Node11&#45;&gt;Node29</title>
<path fill="none" stroke="#191970" d="M540.7505,-352.9914C588.9248,-346.9508 668.7735,-333.7338 686.5,-311 697.8891,-296.3937 694.0244,-274.6345 688.7829,-258.9587"/>
<polygon fill="#191970" stroke="#191970" points="691.9181,-257.3544 685.1048,-249.2408 685.3713,-259.8323 691.9181,-257.3544"/>
</g>
<!-- Node30 -->
<g id="node30" class="node">
<title>Node30</title>
<g id="a_node30"><a xlink:title=" ">
<polygon fill="#ffffff" stroke="#bfbfbf" points="619.5,-291.5 619.5,-310.5 677.5,-310.5 677.5,-291.5 619.5,-291.5"/>
<text text-anchor="middle" x="648.5" y="-298.5" font-family="Helvetica,sans-Serif" font-size="10.00" fill="#000000">memory</text>
</a>
</g>
</g>
<!-- Node11&#45;&gt;Node30 -->
<g id="edge48" class="edge">
<title>Node11&#45;&gt;Node30</title>
<path fill="none" stroke="#191970" d="M528.4264,-347.3733C552.1202,-338.2226 587.9511,-324.3844 614.3068,-314.2057"/>
<polygon fill="#191970" stroke="#191970" points="615.8314,-317.3689 623.8989,-310.5011 613.3094,-310.8389 615.8314,-317.3689"/>
</g>
<!-- Node12&#45;&gt;Node2 -->
<g id="edge16" class="edge">
<title>Node12&#45;&gt;Node2</title>
<path fill="none" stroke="#191970" d="M294.0666,-229.9075C279.3154,-220.9253 258.6851,-206.1779 246.5,-188 237.1751,-174.089 232.3631,-155.5757 229.919,-141.6975"/>
<polygon fill="#191970" stroke="#191970" points="233.3698,-141.108 228.4255,-131.7376 226.4472,-142.1461 233.3698,-141.108"/>
</g>
<!-- Node12&#45;&gt;Node3 -->
<g id="edge15" class="edge">
<title>Node12&#45;&gt;Node3</title>
<path fill="none" stroke="#191970" d="M317.0662,-229.9757C325.3509,-216.0115 341.6559,-189.3272 357.5,-168 380.5754,-136.9389 410.3711,-103.2035 428.4268,-83.3669"/>
<polygon fill="#191970" stroke="#191970" points="431.2172,-85.5023 435.3923,-75.7648 426.0561,-80.7734 431.2172,-85.5023"/>
</g>
<!-- Node12&#45;&gt;Node10 -->
<g id="edge17" class="edge">
<title>Node12&#45;&gt;Node10</title>
<path fill="none" stroke="#191970" d="M272.7118,-229.9581C228.9216,-219.1857 157.6091,-201.6428 110.1304,-189.9631"/>
<polygon fill="#191970" stroke="#191970" points="110.9258,-186.5545 100.3792,-187.5643 109.2536,-193.3518 110.9258,-186.5545"/>
</g>
<!-- Node12&#45;&gt;Node13 -->
<g id="edge18" class="edge">
<title>Node12&#45;&gt;Node13</title>
<path fill="none" stroke="#191970" d="M356.1586,-229.9908C398.8497,-220.7 465.2159,-205.7362 531.919,-188.0284"/>
<polygon fill="#191970" stroke="#191970" points="533.004,-191.3612 541.7601,-185.3962 531.1953,-184.599 533.004,-191.3612"/>
</g>
<!-- Node14 -->
<g id="node14" class="node">
<title>Node14</title>
<g id="a_node14"><a xlink:title=" ">
<polygon fill="#ffffff" stroke="#bfbfbf" points="366,-168.5 366,-187.5 423,-187.5 423,-168.5 366,-168.5"/>
<text text-anchor="middle" x="394.5" y="-175.5" font-family="Helvetica,sans-Serif" font-size="10.00" fill="#000000">ostream</text>
</a>
</g>
</g>
<!-- Node12&#45;&gt;Node14 -->
<g id="edge19" class="edge">
<title>Node12&#45;&gt;Node14</title>
<path fill="none" stroke="#191970" d="M324.4688,-229.8906C337.5034,-220.2324 357.8164,-205.1812 373.2155,-193.771"/>
<polygon fill="#191970" stroke="#191970" points="375.6713,-196.3075 381.6223,-187.5419 371.5039,-190.6832 375.6713,-196.3075"/>
</g>
<!-- Node15 -->
<g id="node15" class="node">
<title>Node15</title>
<g id="a_node15"><a xlink:title=" ">
<polygon fill="#ffffff" stroke="#bfbfbf" points="256,-168.5 256,-187.5 309,-187.5 309,-168.5 256,-168.5"/>
<text text-anchor="middle" x="282.5" y="-175.5" font-family="Helvetica,sans-Serif" font-size="10.00" fill="#000000">iterator</text>
</a>
</g>
</g>
<!-- Node12&#45;&gt;Node15 -->
<g id="edge20" class="edge">
<title>Node12&#45;&gt;Node15</title>
<path fill="none" stroke="#191970" d="M306.9688,-229.8906C302.8219,-221.0965 296.5668,-207.8312 291.419,-196.9145"/>
<polygon fill="#191970" stroke="#191970" points="294.5259,-195.2969 287.0951,-187.7449 288.1945,-198.2825 294.5259,-195.2969"/>
</g>
<!-- Node17 -->
<g id="node17" class="node">
<title>Node17</title>
<g id="a_node17"><a xlink:href="sitkMemberFunctionFactoryBase_8h.html" target="_top" xlink:title=" ">
<polygon fill="#ffffff" stroke="#000000" points="1010.5,-224.5 1010.5,-254.5 1160.5,-254.5 1160.5,-224.5 1010.5,-224.5"/>
<text text-anchor="start" x="1018.5" y="-242.5" font-family="Helvetica,sans-Serif" font-size="10.00" fill="#000000">sitkMemberFunctionFactory</text>
<text text-anchor="middle" x="1085.5" y="-231.5" font-family="Helvetica,sans-Serif" font-size="10.00" fill="#000000">Base.h</text>
</a>
</g>
</g>
<!-- Node16&#45;&gt;Node17 -->
<g id="edge22" class="edge">
<title>Node16&#45;&gt;Node17</title>
<path fill="none" stroke="#191970" d="M845.2835,-292.8333C886.4839,-283.6859 954.4483,-268.5963 1007.59,-256.7977"/>
<polygon fill="#191970" stroke="#191970" points="1008.6653,-260.1443 1017.6689,-254.56 1007.148,-253.3107 1008.6653,-260.1443"/>
</g>
<!-- Node23 -->
<g id="node23" class="node">
<title>Node23</title>
<g id="a_node23"><a xlink:title=" ">
<polygon fill="#ffffff" stroke="#bfbfbf" points="645.5,-168.5 645.5,-187.5 783.5,-187.5 783.5,-168.5 645.5,-168.5"/>
<text text-anchor="middle" x="714.5" y="-175.5" font-family="Helvetica,sans-Serif" font-size="10.00" fill="#000000">Ancillary/FunctionTraits.h</text>
</a>
</g>
</g>
<!-- Node16&#45;&gt;Node23 -->
<g id="edge38" class="edge">
<title>Node16&#45;&gt;Node23</title>
<path fill="none" stroke="#191970" d="M802.7126,-291.1592C793.732,-276.1595 775.5842,-246.9038 757.5,-224 749.594,-213.987 739.96,-203.5436 731.8165,-195.1431"/>
<polygon fill="#191970" stroke="#191970" points="734.0845,-192.4582 724.5707,-187.7958 729.1004,-197.3735 734.0845,-192.4582"/>
</g>
<!-- Node17&#45;&gt;Node3 -->
<g id="edge31" class="edge">
<title>Node17&#45;&gt;Node3</title>
<path fill="none" stroke="#191970" d="M1046.2483,-224.4612C1021.1976,-214.6172 988.1641,-201.1782 959.5,-188 941.8012,-179.863 938.8484,-174.5416 920.5,-168 768.2705,-113.727 577.8682,-83.6219 491.2623,-71.8619"/>
<polygon fill="#191970" stroke="#191970" points="491.6006,-68.3761 481.2247,-70.5184 490.6719,-75.3142 491.6006,-68.3761"/>
</g>
<!-- Node17&#45;&gt;Node9 -->
<g id="edge23" class="edge">
<title>Node17&#45;&gt;Node9</title>
<path fill="none" stroke="#191970" d="M1160.639,-225.4887C1239.4071,-207.3529 1346.1336,-170.8968 1302.5,-112 1268.993,-66.7722 1108.6917,-33.6075 1022.5507,-18.7175"/>
<polygon fill="#191970" stroke="#191970" points="1023.1259,-15.2652 1012.6799,-17.0352 1021.9497,-22.1657 1023.1259,-15.2652"/>
</g>
<!-- Node18 -->
<g id="node18" class="node">
<title>Node18</title>
<g id="a_node18"><a xlink:href="sitkPixelIDTypes_8h.html" target="_top" xlink:title=" ">
<polygon fill="#ffffff" stroke="#000000" points="1057.5,-112.5 1057.5,-131.5 1163.5,-131.5 1163.5,-112.5 1057.5,-112.5"/>
<text text-anchor="middle" x="1110.5" y="-119.5" font-family="Helvetica,sans-Serif" font-size="10.00" fill="#000000">sitkPixelIDTypes.h</text>
</a>
</g>
</g>
<!-- Node17&#45;&gt;Node18 -->
<g id="edge24" class="edge">
<title>Node17&#45;&gt;Node18</title>
<path fill="none" stroke="#191970" d="M1137.703,-224.4592C1155.3991,-216.5907 1173.2628,-204.9444 1183.5,-188 1196.5832,-166.3448 1170.1049,-147.6588 1145.4557,-135.7527"/>
<polygon fill="#191970" stroke="#191970" points="1146.7358,-132.4898 1136.1845,-131.5295 1143.834,-138.8601 1146.7358,-132.4898"/>
</g>
<!-- Node19 -->
<g id="node19" class="node">
<title>Node19</title>
<g id="a_node19"><a xlink:href="sitkPixelIDTypeLists_8h.html" target="_top" xlink:title=" ">
<polygon fill="#ffffff" stroke="#000000" points="968,-168.5 968,-187.5 1091,-187.5 1091,-168.5 968,-168.5"/>
<text text-anchor="middle" x="1029.5" y="-175.5" font-family="Helvetica,sans-Serif" font-size="10.00" fill="#000000">sitkPixelIDTypeLists.h</text>
</a>
</g>
</g>
<!-- Node17&#45;&gt;Node19 -->
<g id="edge25" class="edge">
<title>Node17&#45;&gt;Node19</title>
<path fill="none" stroke="#191970" d="M1071.6573,-224.2977C1063.641,-215.4941 1053.5238,-204.3833 1045.21,-195.2529"/>
<polygon fill="#191970" stroke="#191970" points="1047.7869,-192.8845 1038.4663,-187.8469 1042.6112,-197.5974 1047.7869,-192.8845"/>
</g>
<!-- Node20 -->
<g id="node20" class="node">
<title>Node20</title>
<g id="a_node20"><a xlink:title=" ">
<polygon fill="#ffffff" stroke="#bfbfbf" points="1182,-112.5 1182,-131.5 1293,-131.5 1293,-112.5 1182,-112.5"/>
<text text-anchor="middle" x="1237.5" y="-119.5" font-family="Helvetica,sans-Serif" font-size="10.00" fill="#000000">Ancillary/TypeList.h</text>
</a>
</g>
</g>
<!-- Node17&#45;&gt;Node20 -->
<g id="edge34" class="edge">
<title>Node17&#45;&gt;Node20</title>
<path fill="none" stroke="#191970" d="M1134.9284,-224.4923C1156.2445,-216.2323 1180.3843,-204.2891 1198.5,-188 1212.8349,-175.1105 1223.4334,-155.6784 1229.9347,-141.2335"/>
<polygon fill="#191970" stroke="#191970" points="1233.2688,-142.3353 1233.9393,-131.7617 1226.8213,-139.6093 1233.2688,-142.3353"/>
</g>
<!-- Node22 -->
<g id="node22" class="node">
<title>Node22</title>
<g id="a_node22"><a xlink:href="sitkNonCopyable_8h.html" target="_top" xlink:title=" ">
<polygon fill="#ffffff" stroke="#000000" points="802,-168.5 802,-187.5 911,-187.5 911,-168.5 802,-168.5"/>
<text text-anchor="middle" x="856.5" y="-175.5" font-family="Helvetica,sans-Serif" font-size="10.00" fill="#000000">sitkNonCopyable.h</text>
</a>
</g>
</g>
<!-- Node17&#45;&gt;Node22 -->
<g id="edge32" class="edge">
<title>Node17&#45;&gt;Node22</title>
<path fill="none" stroke="#191970" d="M1029.4803,-224.4554C990.2655,-213.9239 938.5408,-200.0328 901.8989,-190.1923"/>
<polygon fill="#191970" stroke="#191970" points="902.5525,-186.7438 891.9869,-187.5303 900.7368,-193.5043 902.5525,-186.7438"/>
</g>
<!-- Node17&#45;&gt;Node23 -->
<g id="edge35" class="edge">
<title>Node17&#45;&gt;Node23</title>
<path fill="none" stroke="#191970" d="M1010.4226,-227.0546C943.496,-215.9602 846.4183,-199.8679 781.9261,-189.1771"/>
<polygon fill="#191970" stroke="#191970" points="782.3027,-185.6918 771.8649,-187.5093 781.1579,-192.5976 782.3027,-185.6918"/>
</g>
<!-- Node24 -->
<g id="node24" class="node">
<title>Node24</title>
<g id="a_node24"><a xlink:title=" ">
<polygon fill="#ffffff" stroke="#bfbfbf" points="1350,-168.5 1350,-187.5 1443,-187.5 1443,-168.5 1350,-168.5"/>
<text text-anchor="middle" x="1396.5" y="-175.5" font-family="Helvetica,sans-Serif" font-size="10.00" fill="#000000">unordered_map</text>
</a>
</g>
</g>
<!-- Node17&#45;&gt;Node24 -->
<g id="edge36" class="edge">
<title>Node17&#45;&gt;Node24</title>
<path fill="none" stroke="#191970" d="M1160.7844,-224.6126C1215.948,-213.704 1289.6582,-199.1279 1339.8689,-189.1988"/>
<polygon fill="#191970" stroke="#191970" points="1340.7671,-192.589 1349.8981,-187.2155 1339.4091,-185.722 1340.7671,-192.589"/>
</g>
<!-- Node25 -->
<g id="node25" class="node">
<title>Node25</title>
<g id="a_node25"><a xlink:title=" ">
<polygon fill="#ffffff" stroke="#bfbfbf" points="1109,-168.5 1109,-187.5 1174,-187.5 1174,-168.5 1109,-168.5"/>
<text text-anchor="middle" x="1141.5" y="-175.5" font-family="Helvetica,sans-Serif" font-size="10.00" fill="#000000">functional</text>
</a>
</g>
</g>
<!-- Node17&#45;&gt;Node25 -->
<g id="edge37" class="edge">
<title>Node17&#45;&gt;Node25</title>
<path fill="none" stroke="#191970" d="M1099.3427,-224.2977C1107.359,-215.4941 1117.4762,-204.3833 1125.79,-195.2529"/>
<polygon fill="#191970" stroke="#191970" points="1128.3888,-197.5974 1132.5337,-187.8469 1123.2131,-192.8845 1128.3888,-197.5974"/>
</g>
<!-- Node19&#45;&gt;Node4 -->
<g id="edge26" class="edge">
<title>Node19&#45;&gt;Node4</title>
<path fill="none" stroke="#191970" d="M1023.3678,-168.0585C1014.0548,-153.7362 995.0261,-127.3379 972.5,-112 891.0588,-56.5473 776.3134,-28.1083 718.2435,-16.5022"/>
<polygon fill="#191970" stroke="#191970" points="718.5649,-12.9992 708.081,-14.5282 717.2301,-19.8708 718.5649,-12.9992"/>
</g>
<!-- Node19&#45;&gt;Node9 -->
<g id="edge27" class="edge">
<title>Node19&#45;&gt;Node9</title>
<path fill="none" stroke="#191970" d="M1029.1952,-168.3226C1028.1908,-147.0083 1023.8882,-94.8226 1005.5,-56 1000.4451,-45.3277 992.3567,-35.0385 984.9389,-26.9075"/>
<polygon fill="#191970" stroke="#191970" points="987.3338,-24.3483 977.8819,-19.5617 982.2858,-29.1979 987.3338,-24.3483"/>
</g>
<!-- Node19&#45;&gt;Node18 -->
<g id="edge28" class="edge">
<title>Node19&#45;&gt;Node18</title>
<path fill="none" stroke="#191970" d="M1043.6091,-168.2455C1055.9209,-159.7337 1073.9958,-147.2375 1088.2538,-137.3801"/>
<polygon fill="#191970" stroke="#191970" points="1090.3174,-140.2085 1096.5526,-131.6427 1086.3366,-134.4506 1090.3174,-140.2085"/>
</g>
<!-- Node19&#45;&gt;Node20 -->
<g id="edge29" class="edge">
<title>Node19&#45;&gt;Node20</title>
<path fill="none" stroke="#191970" d="M1065.2565,-168.3733C1100.4426,-158.9001 1154.2881,-144.4032 1192.3956,-134.1435"/>
<polygon fill="#191970" stroke="#191970" points="1193.4639,-137.4806 1202.2101,-131.5011 1191.644,-130.7213 1193.4639,-137.4806"/>
</g>
<!-- Node21 -->
<g id="node21" class="node">
<title>Node21</title>
<g id="a_node21"><a xlink:title=" ">
<polygon fill="#ffffff" stroke="#bfbfbf" points="904,-112.5 904,-131.5 963,-131.5 963,-112.5 904,-112.5"/>
<text text-anchor="middle" x="933.5" y="-119.5" font-family="Helvetica,sans-Serif" font-size="10.00" fill="#000000">complex</text>
</a>
</g>
</g>
<!-- Node19&#45;&gt;Node21 -->
<g id="edge30" class="edge">
<title>Node19&#45;&gt;Node21</title>
<path fill="none" stroke="#191970" d="M1012.7781,-168.2455C997.9111,-159.5731 975.9534,-146.7645 958.9142,-136.825"/>
<polygon fill="#191970" stroke="#191970" points="960.4317,-133.6582 950.0303,-131.6427 956.9045,-139.7047 960.4317,-133.6582"/>
</g>
<!-- Node22&#45;&gt;Node2 -->
<g id="edge33" class="edge">
<title>Node22&#45;&gt;Node2</title>
<path fill="none" stroke="#191970" d="M801.7238,-169.1692C798.6064,-168.7514 795.5152,-168.3578 792.5,-168 605.6102,-145.822 382.6579,-131.1095 281.8073,-125.0846"/>
<polygon fill="#191970" stroke="#191970" points="281.7555,-121.5754 271.5659,-124.4776 281.3413,-128.5632 281.7555,-121.5754"/>
</g>
<!-- Node26&#45;&gt;Node9 -->
<g id="edge40" class="edge">
<title>Node26&#45;&gt;Node9</title>
<path fill="none" stroke="#191970" d="M556.1238,-291.2977C576.1519,-271.8878 617.5,-226.0028 617.5,-178 617.5,-178 617.5,-178 617.5,-122 617.5,-60.8436 813.7916,-28.4725 912.374,-16.0713"/>
<polygon fill="#191970" stroke="#191970" points="912.9629,-19.5253 922.4601,-14.8293 912.1073,-12.5777 912.9629,-19.5253"/>
</g>
<!-- Node27 -->
<g id="node27" class="node">
<title>Node27</title>
<g id="a_node27"><a xlink:href="sitkPixelIDValues_8h.html" target="_top" xlink:title=" ">
<polygon fill="#ffffff" stroke="#000000" points="396.5,-230 396.5,-249 506.5,-249 506.5,-230 396.5,-230"/>
<text text-anchor="middle" x="451.5" y="-237" font-family="Helvetica,sans-Serif" font-size="10.00" fill="#000000">sitkPixelIDValues.h</text>
</a>
</g>
</g>
<!-- Node26&#45;&gt;Node27 -->
<g id="edge41" class="edge">
<title>Node26&#45;&gt;Node27</title>
<path fill="none" stroke="#191970" d="M530.8125,-291.3906C515.7744,-281.5519 492.1824,-266.1167 474.6333,-254.6351"/>
<polygon fill="#191970" stroke="#191970" points="476.3687,-251.588 466.0844,-249.0419 472.5363,-257.4457 476.3687,-251.588"/>
</g>
<!-- Node26&#45;&gt;Node29 -->
<g id="edge46" class="edge">
<title>Node26&#45;&gt;Node29</title>
<path fill="none" stroke="#191970" d="M566.5938,-291.3906C589.0827,-281.1457 624.8918,-264.8326 650.3524,-253.2339"/>
<polygon fill="#191970" stroke="#191970" points="651.9052,-256.3727 659.5544,-249.0419 649.0032,-250.0025 651.9052,-256.3727"/>
</g>
<!-- Node27&#45;&gt;Node2 -->
<g id="edge42" class="edge">
<title>Node27&#45;&gt;Node2</title>
<path fill="none" stroke="#191970" d="M451.8788,-229.6016C451.8969,-214.1519 449.5337,-184.382 432.5,-168 411.2596,-147.5722 335.1594,-134.6055 281.9162,-127.8197"/>
<polygon fill="#191970" stroke="#191970" points="282.2814,-124.3383 271.9274,-126.5844 281.4222,-131.2854 282.2814,-124.3383"/>
</g>
<!-- Node27&#45;&gt;Node14 -->
<g id="edge45" class="edge">
<title>Node27&#45;&gt;Node14</title>
<path fill="none" stroke="#191970" d="M442.5938,-229.8906C434.0272,-220.6478 420.8831,-206.466 410.4997,-195.2628"/>
<polygon fill="#191970" stroke="#191970" points="412.8965,-192.7 403.5318,-187.7449 407.7625,-197.4584 412.8965,-192.7"/>
</g>
<!-- Node27&#45;&gt;Node19 -->
<g id="edge43" class="edge">
<title>Node27&#45;&gt;Node19</title>
<path fill="none" stroke="#191970" d="M506.6592,-233.631C611.7033,-222.4541 840.3935,-198.1212 957.3977,-185.6718"/>
<polygon fill="#191970" stroke="#191970" points="958.1065,-189.1162 967.68,-184.5777 957.3658,-182.1555 958.1065,-189.1162"/>
</g>
<!-- Node28 -->
<g id="node28" class="node">
<title>Node28</title>
<g id="a_node28"><a xlink:title=" ">
<polygon fill="#ffffff" stroke="#bfbfbf" points="479.5,-168.5 479.5,-187.5 523.5,-187.5 523.5,-168.5 479.5,-168.5"/>
<text text-anchor="middle" x="501.5" y="-175.5" font-family="Helvetica,sans-Serif" font-size="10.00" fill="#000000">string</text>
</a>
</g>
</g>
<!-- Node27&#45;&gt;Node28 -->
<g id="edge44" class="edge">
<title>Node27&#45;&gt;Node28</title>
<path fill="none" stroke="#191970" d="M459.3125,-229.8906C466.754,-220.7376 478.1334,-206.7409 487.1992,-195.59"/>
<polygon fill="#191970" stroke="#191970" points="489.9847,-197.712 493.5774,-187.7449 484.5533,-193.2962 489.9847,-197.712"/>
</g>
</g>
</svg>
        <g id="navigator" transform="translate(0 0)" fill="#404254">
                <rect fill="#f2f5e9" fill-opacity="0.5" stroke="#606060" stroke-width=".5" x="0" y="0" width="60" height="60"/>
                <use id="zoomplus" xlink:href="#zoomPlus" x="17" y="9" onmousedown="handleZoom(evt,'in')"/>
                <use id="zoomminus" xlink:href="#zoomMin" x="42" y="9" onmousedown="handleZoom(evt,'out')"/>
                <use id="reset" xlink:href="#resetDef" x="30" y="36" onmousedown="handleReset()"/>
                <g id="arrowUp" xlink:href="#dirArrow" transform="translate(30 24)" onmousedown="handlePan(0,-1)">
                  <use xlink:href="#rim" fill="#404040">
                        <set attributeName="fill" to="#808080" begin="arrowUp.mouseover" end="arrowUp.mouseout"/>
                  </use>
                  <path fill="none" stroke="white" stroke-width="1.5" d="M0,-3.0v7 M-2.5,-0.5L0,-3.0L2.5,-0.5"/>
                </g>
                <g id="arrowRight" xlink:href="#dirArrow" transform="rotate(90) translate(36 -43)" onmousedown="handlePan(1,0)">
                  <use xlink:href="#rim" fill="#404040">
                        <set attributeName="fill" to="#808080" begin="arrowRight.mouseover" end="arrowRight.mouseout"/>
                  </use>
                  <path fill="none" stroke="white" stroke-width="1.5" d="M0,-3.0v7 M-2.5,-0.5L0,-3.0L2.5,-0.5"/>
                </g>
                <g id="arrowDown" xlink:href="#dirArrow" transform="rotate(180) translate(-30 -48)" onmousedown="handlePan(0,1)">
                  <use xlink:href="#rim" fill="#404040">
                        <set attributeName="fill" to="#808080" begin="arrowDown.mouseover" end="arrowDown.mouseout"/>
                  </use>
                  <path fill="none" stroke="white" stroke-width="1.5" d="M0,-3.0v7 M-2.5,-0.5L0,-3.0L2.5,-0.5"/>
                </g>
                <g id="arrowLeft" xlink:href="#dirArrow" transform="rotate(270) translate(-36 17)" onmousedown="handlePan(-1,0)">
                  <use xlink:href="#rim" fill="#404040">
                        <set attributeName="fill" to="#808080" begin="arrowLeft.mouseover" end="arrowLeft.mouseout"/>
                  </use>
                  <path fill="none" stroke="white" stroke-width="1.5" d="M0,-3.0v7 M-2.5,-0.5L0,-3.0L2.5,-0.5"/>
                </g>
        </g>
        <svg viewBox="0 0 15 15" width="100%" height="30px" preserveAspectRatio="xMaxYMin meet">
         <g id="arrow_out" transform="scale(0.3 0.3)">
          <a xlink:href="sitkTransform_8h__incl_org.svg" target="_base">
           <rect id="button" ry="5" rx="5" y="6" x="6" height="38" width="38"
                fill="#f2f5e9" fill-opacity="0.5" stroke="#606060" stroke-width="1.0"/>
           <path id="arrow"
             d="M 11.500037,31.436501 C 11.940474,20.09759 22.043105,11.32322 32.158766,21.979434 L 37.068811,17.246167 C 37.068811,17.246167 37.088388,32 37.088388,32 L 22.160133,31.978069 C 22.160133,31.978069 26.997745,27.140456 26.997745,27.140456 C 18.528582,18.264221 13.291696,25.230495 11.500037,31.436501 z"
             style="fill:#404040;"/>
          </a>
         </g>
        </svg>
</svg>
