<?xml version="1.0" encoding="UTF-8" standalone="no"?>
<!DOCTYPE svg PUBLIC "-//W3C//DTD SVG 1.1//EN"
 "http://www.w3.org/Graphics/SVG/1.1/DTD/svg11.dtd">
<!-- Generated by graphviz version 2.40.1 (20161225.0304)
 -->
<!-- Title: sitkImageConvert.h Pages: 1 -->
<svg width="7409pt" height="274pt"
 viewBox="0.00 0.00 7408.50 274.00" xmlns="http://www.w3.org/2000/svg" xmlns:xlink="http://www.w3.org/1999/xlink">
<g id="graph0" class="graph" transform="scale(1 1) rotate(0) translate(4 270)">
<title>sitkImageConvert.h</title>
<polygon fill="#ffffff" stroke="transparent" points="-4,4 -4,-270 7404.5,-270 7404.5,4 -4,4"/>
<!-- Node1 -->
<g id="node1" class="node">
<title>Node1</title>
<g id="a_node1"><a xlink:title=" ">
<polygon fill="#bfbfbf" stroke="#000000" points="6590.5,-246.5 6590.5,-265.5 6703.5,-265.5 6703.5,-246.5 6590.5,-246.5"/>
<text text-anchor="middle" x="6647" y="-253.5" font-family="Helvetica,sans-Serif" font-size="10.00" fill="#000000">sitkImageConvert.h</text>
</a>
</g>
</g>
<!-- Node2 -->
<g id="node2" class="node">
<title>Node2</title>
<g id="a_node2"><a xlink:href="sitkProcessObject_8h.html" target="_top" xlink:title=" ">
<polygon fill="#ffffff" stroke="#000000" points="6590.5,-190.5 6590.5,-209.5 6703.5,-209.5 6703.5,-190.5 6590.5,-190.5"/>
<text text-anchor="middle" x="6647" y="-197.5" font-family="Helvetica,sans-Serif" font-size="10.00" fill="#000000">sitkProcessObject.h</text>
</a>
</g>
</g>
<!-- Node1&#45;&gt;Node2 -->
<g id="edge1" class="edge">
<title>Node1&#45;&gt;Node2</title>
<path fill="none" stroke="#191970" d="M6647,-236.1575C6647,-227.155 6647,-216.9199 6647,-209.6427"/>
<polygon fill="#191970" stroke="#191970" points="6643.5001,-236.2455 6647,-246.2455 6650.5001,-236.2456 6643.5001,-236.2455"/>
</g>
<!-- Node3 -->
<g id="node3" class="node">
<title>Node3</title>
<g id="a_node3"><a xlink:href="sitkImageFilter_8h.html" target="_top" xlink:title=" ">
<polygon fill="#ffffff" stroke="#ff0000" points="3015,-129 3015,-148 3113,-148 3113,-129 3015,-129"/>
<text text-anchor="middle" x="3064" y="-136" font-family="Helvetica,sans-Serif" font-size="10.00" fill="#000000">sitkImageFilter.h</text>
</a>
</g>
</g>
<!-- Node2&#45;&gt;Node3 -->
<g id="edge2" class="edge">
<title>Node2&#45;&gt;Node3</title>
<path fill="none" stroke="#191970" d="M6580.0383,-198.8506C6125.9988,-191.0573 3504.9267,-146.0682 3113.0211,-139.3414"/>
<polygon fill="#191970" stroke="#191970" points="6580.2998,-202.3556 6590.3585,-199.0278 6580.42,-195.3566 6580.2998,-202.3556"/>
</g>
<!-- Node5 -->
<g id="node5" class="node">
<title>Node5</title>
<g id="a_node5"><a xlink:href="SimpleITK_8h.html" target="_top" xlink:title=" ">
<polygon fill="#ffffff" stroke="#000000" points="6408.5,-.5 6408.5,-19.5 6483.5,-19.5 6483.5,-.5 6408.5,-.5"/>
<text text-anchor="middle" x="6446" y="-7.5" font-family="Helvetica,sans-Serif" font-size="10.00" fill="#000000">SimpleITK.h</text>
</a>
</g>
</g>
<!-- Node2&#45;&gt;Node5 -->
<g id="edge51" class="edge">
<title>Node2&#45;&gt;Node5</title>
<path fill="none" stroke="#191970" d="M6579.8334,-197.867C6462.3448,-193.4386 6229.5998,-181.2929 6205,-154 6195.7756,-143.7658 6196.2428,-133.6366 6205,-123 6257.9639,-58.6694 6318.5499,-131.5016 6389,-87 6415.5768,-70.2121 6433.9797,-36.243 6441.792,-19.6123"/>
<polygon fill="#191970" stroke="#191970" points="6580.0253,-201.3764 6590.1474,-198.2471 6580.2831,-194.3811 6580.0253,-201.3764"/>
</g>
<!-- Node7 -->
<g id="node7" class="node">
<title>Node7</title>
<g id="a_node7"><a xlink:href="sitkHashImageFilter_8h.html" target="_top" xlink:title=" ">
<polygon fill="#ffffff" stroke="#000000" points="6258,-62 6258,-81 6380,-81 6380,-62 6258,-62"/>
<text text-anchor="middle" x="6319" y="-69" font-family="Helvetica,sans-Serif" font-size="10.00" fill="#000000">sitkHashImageFilter.h</text>
</a>
</g>
</g>
<!-- Node2&#45;&gt;Node7 -->
<g id="edge50" class="edge">
<title>Node2&#45;&gt;Node7</title>
<path fill="none" stroke="#191970" d="M6580.2093,-198.4198C6455.6408,-194.7783 6197.9732,-183.7055 6171,-154 6161.738,-143.7998 6163.0175,-134.2297 6171,-123 6183.2946,-105.7041 6235.5632,-90.3637 6274.522,-81.0181"/>
<polygon fill="#191970" stroke="#191970" points="6580.2959,-201.9235 6590.3915,-198.7095 6580.4951,-194.9264 6580.2959,-201.9235"/>
</g>
<!-- Node304 -->
<g id="node43" class="node">
<title>Node304</title>
<g id="a_node43"><a xlink:href="sitkCenteredTransformInitializerFilter_8h.html" target="_top" xlink:title=" ">
<polygon fill="#ffffff" stroke="#000000" points="6213.5,-123.5 6213.5,-153.5 6386.5,-153.5 6386.5,-123.5 6213.5,-123.5"/>
<text text-anchor="start" x="6221.5" y="-141.5" font-family="Helvetica,sans-Serif" font-size="10.00" fill="#000000">sitkCenteredTransformInitializer</text>
<text text-anchor="middle" x="6300" y="-130.5" font-family="Helvetica,sans-Serif" font-size="10.00" fill="#000000">Filter.h</text>
</a>
</g>
</g>
<!-- Node2&#45;&gt;Node304 -->
<g id="edge46" class="edge">
<title>Node2&#45;&gt;Node304</title>
<path fill="none" stroke="#191970" d="M6583.0551,-188.6668C6527.2768,-178.781 6445.9317,-164.364 6384.7431,-153.5193"/>
<polygon fill="#191970" stroke="#191970" points="6582.7046,-192.1592 6593.162,-190.4581 6583.9263,-185.2666 6582.7046,-192.1592"/>
</g>
<!-- Node305 -->
<g id="node44" class="node">
<title>Node305</title>
<g id="a_node44"><a xlink:href="sitkCenteredVersorTransformInitializerFilter_8h.html" target="_top" xlink:title=" ">
<polygon fill="#ffffff" stroke="#000000" points="6405,-123.5 6405,-153.5 6563,-153.5 6563,-123.5 6405,-123.5"/>
<text text-anchor="start" x="6413" y="-141.5" font-family="Helvetica,sans-Serif" font-size="10.00" fill="#000000">sitkCenteredVersorTransform</text>
<text text-anchor="middle" x="6484" y="-130.5" font-family="Helvetica,sans-Serif" font-size="10.00" fill="#000000">InitializerFilter.h</text>
</a>
</g>
</g>
<!-- Node2&#45;&gt;Node305 -->
<g id="edge48" class="edge">
<title>Node2&#45;&gt;Node305</title>
<path fill="none" stroke="#191970" d="M6612.109,-186.8356C6586.2202,-177.0678 6550.8797,-163.7338 6523.8743,-153.5446"/>
<polygon fill="#191970" stroke="#191970" points="6610.9395,-190.1351 6621.5313,-190.3906 6613.4106,-183.5858 6610.9395,-190.1351"/>
</g>
<!-- Node306 -->
<g id="node45" class="node">
<title>Node306</title>
<g id="a_node45"><a xlink:href="sitkImageReaderBase_8h.html" target="_top" xlink:title=" ">
<polygon fill="#ffffff" stroke="#ff0000" points="6581,-129 6581,-148 6713,-148 6713,-129 6581,-129"/>
<text text-anchor="middle" x="6647" y="-136" font-family="Helvetica,sans-Serif" font-size="10.00" fill="#000000">sitkImageReaderBase.h</text>
</a>
</g>
</g>
<!-- Node2&#45;&gt;Node306 -->
<g id="edge52" class="edge">
<title>Node2&#45;&gt;Node306</title>
<path fill="none" stroke="#191970" d="M6647,-180.2462C6647,-169.5519 6647,-156.814 6647,-148.2449"/>
<polygon fill="#191970" stroke="#191970" points="6643.5001,-180.3906 6647,-190.3906 6650.5001,-180.3907 6643.5001,-180.3906"/>
</g>
<!-- Node310 -->
<g id="node46" class="node">
<title>Node310</title>
<g id="a_node46"><a xlink:href="sitkImageFileWriter_8h.html" target="_top" xlink:title=" ">
<polygon fill="#ffffff" stroke="#000000" points="6731.5,-129 6731.5,-148 6850.5,-148 6850.5,-129 6731.5,-129"/>
<text text-anchor="middle" x="6791" y="-136" font-family="Helvetica,sans-Serif" font-size="10.00" fill="#000000">sitkImageFileWriter.h</text>
</a>
</g>
</g>
<!-- Node2&#45;&gt;Node310 -->
<g id="edge53" class="edge">
<title>Node2&#45;&gt;Node310</title>
<path fill="none" stroke="#191970" d="M6678.9778,-186.3428C6706.2064,-174.7139 6744.627,-158.3051 6768.658,-148.0419"/>
<polygon fill="#191970" stroke="#191970" points="6677.3217,-183.2442 6669.5,-190.3906 6680.0711,-189.6817 6677.3217,-183.2442"/>
</g>
<!-- Node311 -->
<g id="node47" class="node">
<title>Node311</title>
<g id="a_node47"><a xlink:href="sitkImageSeriesWriter_8h.html" target="_top" xlink:title=" ">
<polygon fill="#ffffff" stroke="#000000" points="6868.5,-129 6868.5,-148 7001.5,-148 7001.5,-129 6868.5,-129"/>
<text text-anchor="middle" x="6935" y="-136" font-family="Helvetica,sans-Serif" font-size="10.00" fill="#000000">sitkImageSeriesWriter.h</text>
</a>
</g>
</g>
<!-- Node2&#45;&gt;Node311 -->
<g id="edge55" class="edge">
<title>Node2&#45;&gt;Node311</title>
<path fill="none" stroke="#191970" d="M6701.5423,-188.3529C6756.1889,-176.6836 6839.2985,-158.9363 6890.2112,-148.0643"/>
<polygon fill="#191970" stroke="#191970" points="6700.7326,-184.9469 6691.684,-190.4581 6702.1945,-191.7925 6700.7326,-184.9469"/>
</g>
<!-- Node312 -->
<g id="node48" class="node">
<title>Node312</title>
<g id="a_node48"><a xlink:href="sitkImageViewer_8h.html" target="_top" xlink:title=" ">
<polygon fill="#ffffff" stroke="#000000" points="7019.5,-129 7019.5,-148 7126.5,-148 7126.5,-129 7019.5,-129"/>
<text text-anchor="middle" x="7073" y="-136" font-family="Helvetica,sans-Serif" font-size="10.00" fill="#000000">sitkImageViewer.h</text>
</a>
</g>
</g>
<!-- Node2&#45;&gt;Node312 -->
<g id="edge57" class="edge">
<title>Node2&#45;&gt;Node312</title>
<path fill="none" stroke="#191970" d="M6713.7761,-193.9732C6787.0644,-186.799 6908.0053,-173.311 7011,-154 7019.8332,-152.3438 7029.2836,-150.184 7038.0764,-148.0049"/>
<polygon fill="#191970" stroke="#191970" points="6713.3739,-190.4957 6703.7579,-194.9436 6714.0488,-197.4631 6713.3739,-190.4957"/>
</g>
<!-- Node313 -->
<g id="node49" class="node">
<title>Node313</title>
<g id="a_node49"><a xlink:href="sitkShow_8h.html" target="_top" xlink:title=" ">
<polygon fill="#ffffff" stroke="#000000" points="7144.5,-129 7144.5,-148 7213.5,-148 7213.5,-129 7144.5,-129"/>
<text text-anchor="middle" x="7179" y="-136" font-family="Helvetica,sans-Serif" font-size="10.00" fill="#000000">sitkShow.h</text>
</a>
</g>
</g>
<!-- Node2&#45;&gt;Node313 -->
<g id="edge59" class="edge">
<title>Node2&#45;&gt;Node313</title>
<path fill="none" stroke="#191970" d="M6713.7116,-195.8137C6828.1949,-188.2804 7057.3409,-171.5798 7136,-154 7142.5053,-152.5461 7149.3711,-150.3775 7155.6605,-148.1198"/>
<polygon fill="#191970" stroke="#191970" points="6713.4168,-192.3254 6703.6665,-196.4705 6713.8736,-199.3105 6713.4168,-192.3254"/>
</g>
<!-- Node314 -->
<g id="node50" class="node">
<title>Node314</title>
<g id="a_node50"><a xlink:href="sitkImageRegistrationMethod_8h.html" target="_top" xlink:title=" ">
<polygon fill="#ffffff" stroke="#000000" points="7231.5,-129 7231.5,-148 7400.5,-148 7400.5,-129 7231.5,-129"/>
<text text-anchor="middle" x="7316" y="-136" font-family="Helvetica,sans-Serif" font-size="10.00" fill="#000000">sitkImageRegistrationMethod.h</text>
</a>
</g>
</g>
<!-- Node2&#45;&gt;Node314 -->
<g id="edge61" class="edge">
<title>Node2&#45;&gt;Node314</title>
<path fill="none" stroke="#191970" d="M6713.625,-196.5334C6821.0924,-190.5254 7039.2511,-176.6077 7223,-154 7236.1593,-152.3809 7250.3017,-150.2347 7263.4877,-148.057"/>
<polygon fill="#191970" stroke="#191970" points="6713.3664,-193.0422 6703.5754,-197.0901 6713.7537,-200.0315 6713.3664,-193.0422"/>
</g>
<!-- Node4 -->
<g id="node4" class="node">
<title>Node4</title>
<g id="a_node4"><a xlink:href="sitkBSplineTransformInitializerFilter_8h.html" target="_top" xlink:title=" ">
<polygon fill="#ffffff" stroke="#000000" points="0,-56.5 0,-86.5 166,-86.5 166,-56.5 0,-56.5"/>
<text text-anchor="start" x="8" y="-74.5" font-family="Helvetica,sans-Serif" font-size="10.00" fill="#000000">sitkBSplineTransformInitializer</text>
<text text-anchor="middle" x="83" y="-63.5" font-family="Helvetica,sans-Serif" font-size="10.00" fill="#000000">Filter.h</text>
</a>
</g>
</g>
<!-- Node3&#45;&gt;Node4 -->
<g id="edge3" class="edge">
<title>Node3&#45;&gt;Node4</title>
<path fill="none" stroke="#191970" d="M3004.7724,-137.9437C2619.0056,-134.2537 470.4152,-112.668 180,-87 175.4983,-86.6021 170.8891,-86.1205 166.243,-85.5768"/>
<polygon fill="#191970" stroke="#191970" points="3004.8467,-141.4444 3014.8797,-138.0401 3004.9136,-134.4448 3004.8467,-141.4444"/>
</g>
<!-- Node3&#45;&gt;Node5 -->
<g id="edge11" class="edge">
<title>Node3&#45;&gt;Node5</title>
<path fill="none" stroke="#191970" d="M3004.9284,-137.9958C2599.0644,-134.4648 238.3634,-112.8257 213,-87 203.346,-77.1701 203.2937,-65.7782 213,-56 242.1024,-26.682 5892.5224,-11.4273 6408.3936,-10.0956"/>
<polygon fill="#191970" stroke="#191970" points="3004.954,-141.4961 3014.984,-138.0831 3005.0148,-134.4963 3004.954,-141.4961"/>
</g>
<!-- Node6 -->
<g id="node6" class="node">
<title>Node6</title>
<g id="a_node6"><a xlink:href="sitkCastImageFilter_8h.html" target="_top" xlink:title=" ">
<polygon fill="#ffffff" stroke="#000000" points="222.5,-62 222.5,-81 341.5,-81 341.5,-62 222.5,-62"/>
<text text-anchor="middle" x="282" y="-69" font-family="Helvetica,sans-Serif" font-size="10.00" fill="#000000">sitkCastImageFilter.h</text>
</a>
</g>
</g>
<!-- Node3&#45;&gt;Node6 -->
<g id="edge5" class="edge">
<title>Node3&#45;&gt;Node6</title>
<path fill="none" stroke="#191970" d="M3004.7585,-138.094C2632.4215,-135.4469 622.4313,-119.7221 351,-87 340.1514,-85.6922 328.5063,-83.4203 317.9297,-81.0127"/>
<polygon fill="#191970" stroke="#191970" points="3004.7603,-141.594 3014.7848,-138.1649 3004.8099,-134.5942 3004.7603,-141.594"/>
</g>
<!-- Node3&#45;&gt;Node7 -->
<g id="edge7" class="edge">
<title>Node3&#45;&gt;Node7</title>
<path fill="none" stroke="#191970" d="M3123.1667,-138.2624C3531.7468,-136.5265 5927.6322,-124.7857 6249,-87 6260.0022,-85.7064 6271.8149,-83.4388 6282.5449,-81.0309"/>
<polygon fill="#191970" stroke="#191970" points="3123.0331,-134.7628 3113.048,-138.305 3123.0627,-141.7627 3123.0331,-134.7628"/>
</g>
<!-- Node8 -->
<g id="node8" class="node">
<title>Node8</title>
<g id="a_node8"><a xlink:href="sitkLandmarkBasedTransformInitializerFilter_8h.html" target="_top" xlink:title=" ">
<polygon fill="#ffffff" stroke="#000000" points="360,-56.5 360,-86.5 522,-86.5 522,-56.5 360,-56.5"/>
<text text-anchor="start" x="368" y="-74.5" font-family="Helvetica,sans-Serif" font-size="10.00" fill="#000000">sitkLandmarkBasedTransform</text>
<text text-anchor="middle" x="441" y="-63.5" font-family="Helvetica,sans-Serif" font-size="10.00" fill="#000000">InitializerFilter.h</text>
</a>
</g>
</g>
<!-- Node3&#45;&gt;Node8 -->
<g id="edge9" class="edge">
<title>Node3&#45;&gt;Node8</title>
<path fill="none" stroke="#191970" d="M3004.795,-137.8301C2647.3509,-133.715 784.1644,-111.2354 531,-87 528.1591,-86.728 525.2727,-86.4177 522.3614,-86.0757"/>
<polygon fill="#191970" stroke="#191970" points="3004.8884,-141.3314 3014.928,-137.9465 3004.9689,-134.3318 3004.8884,-141.3314"/>
</g>
<!-- Node9 -->
<g id="node9" class="node">
<title>Node9</title>
<g id="a_node9"><a xlink:href="sitkAbsImageFilter_8h.html" target="_top" xlink:title=" ">
<polygon fill="#ffffff" stroke="#ff0000" points="540,-62 540,-81 656,-81 656,-62 540,-62"/>
<text text-anchor="middle" x="598" y="-69" font-family="Helvetica,sans-Serif" font-size="10.00" fill="#000000">sitkAbsImageFilter.h</text>
</a>
</g>
</g>
<!-- Node3&#45;&gt;Node9 -->
<g id="edge12" class="edge">
<title>Node3&#45;&gt;Node9</title>
<path fill="none" stroke="#191970" d="M3004.9008,-137.96C2658.9433,-134.7019 903.3136,-116.801 665,-87 654.5747,-85.6963 643.3999,-83.4574 633.2226,-81.0802"/>
<polygon fill="#191970" stroke="#191970" points="3004.927,-141.4603 3014.9594,-138.0543 3004.9927,-134.4606 3004.927,-141.4603"/>
</g>
<!-- Node12 -->
<g id="node10" class="node">
<title>Node12</title>
<g id="a_node10"><a xlink:href="sitkAbsoluteValueDifferenceImageFilter_8h.html" target="_top" xlink:title=" ">
<polygon fill="#ffffff" stroke="#ff0000" points="674.5,-56.5 674.5,-86.5 829.5,-86.5 829.5,-56.5 674.5,-56.5"/>
<text text-anchor="start" x="682.5" y="-74.5" font-family="Helvetica,sans-Serif" font-size="10.00" fill="#000000">sitkAbsoluteValueDifference</text>
<text text-anchor="middle" x="752" y="-63.5" font-family="Helvetica,sans-Serif" font-size="10.00" fill="#000000">ImageFilter.h</text>
</a>
</g>
</g>
<!-- Node3&#45;&gt;Node12 -->
<g id="edge13" class="edge">
<title>Node3&#45;&gt;Node12</title>
<path fill="none" stroke="#191970" d="M3004.8147,-138.3745C2696.9537,-137.5322 1276.0387,-131.2712 838,-87 835.283,-86.7254 832.523,-86.4128 829.7393,-86.0689"/>
<polygon fill="#191970" stroke="#191970" points="3004.8617,-141.8745 3014.871,-138.4011 3004.8803,-134.8745 3004.8617,-141.8745"/>
</g>
<!-- Node13 -->
<g id="node11" class="node">
<title>Node13</title>
<g id="a_node11"><a xlink:href="sitkAcosImageFilter_8h.html" target="_top" xlink:title=" ">
<polygon fill="#ffffff" stroke="#ff0000" points="847.5,-62 847.5,-81 968.5,-81 968.5,-62 847.5,-62"/>
<text text-anchor="middle" x="908" y="-69" font-family="Helvetica,sans-Serif" font-size="10.00" fill="#000000">sitkAcosImageFilter.h</text>
</a>
</g>
</g>
<!-- Node3&#45;&gt;Node13 -->
<g id="edge14" class="edge">
<title>Node3&#45;&gt;Node13</title>
<path fill="none" stroke="#191970" d="M3004.1623,-137.7246C2684.2364,-133.4848 1182.5087,-112.3684 977,-87 966.277,-85.6763 954.7728,-83.4311 944.2914,-81.0544"/>
<polygon fill="#191970" stroke="#191970" points="3004.5571,-141.23 3014.6025,-137.8625 3004.6496,-134.2306 3004.5571,-141.23"/>
</g>
<!-- Node14 -->
<g id="node12" class="node">
<title>Node14</title>
<g id="a_node12"><a xlink:href="sitkAdaptiveHistogramEqualizationImageFilter_8h.html" target="_top" xlink:title=" ">
<polygon fill="#ffffff" stroke="#ff0000" points="986.5,-56.5 986.5,-86.5 1175.5,-86.5 1175.5,-56.5 986.5,-56.5"/>
<text text-anchor="start" x="994.5" y="-74.5" font-family="Helvetica,sans-Serif" font-size="10.00" fill="#000000">sitkAdaptiveHistogramEqualization</text>
<text text-anchor="middle" x="1081" y="-63.5" font-family="Helvetica,sans-Serif" font-size="10.00" fill="#000000">ImageFilter.h</text>
</a>
</g>
</g>
<!-- Node3&#45;&gt;Node14 -->
<g id="edge15" class="edge">
<title>Node3&#45;&gt;Node14</title>
<path fill="none" stroke="#191970" d="M3004.494,-137.8361C2726.1567,-134.5826 1550.8913,-119.1621 1185,-87 1181.9086,-86.7283 1178.7691,-86.4243 1175.6016,-86.0935"/>
<polygon fill="#191970" stroke="#191970" points="3004.7425,-141.3391 3014.7825,-137.9556 3004.8239,-134.3396 3004.7425,-141.3391"/>
</g>
<!-- Node15 -->
<g id="node13" class="node">
<title>Node15</title>
<g id="a_node13"><a xlink:href="sitkAddImageFilter_8h.html" target="_top" xlink:title=" ">
<polygon fill="#ffffff" stroke="#ff0000" points="1194,-62 1194,-81 1310,-81 1310,-62 1194,-62"/>
<text text-anchor="middle" x="1252" y="-69" font-family="Helvetica,sans-Serif" font-size="10.00" fill="#000000">sitkAddImageFilter.h</text>
</a>
</g>
</g>
<!-- Node3&#45;&gt;Node15 -->
<g id="edge16" class="edge">
<title>Node3&#45;&gt;Node15</title>
<path fill="none" stroke="#191970" d="M3004.387,-138.3234C2738.0578,-137.2912 1655.4835,-130.4517 1319,-87 1308.5801,-85.6544 1297.4068,-83.4024 1287.2295,-81.0261"/>
<polygon fill="#191970" stroke="#191970" points="3004.6073,-141.8241 3014.6204,-138.3617 3004.6336,-134.8242 3004.6073,-141.8241"/>
</g>
<!-- Node17 -->
<g id="node14" class="node">
<title>Node17</title>
<g id="a_node14"><a xlink:href="sitkAdditiveGaussianNoiseImageFilter_8h.html" target="_top" xlink:title=" ">
<polygon fill="#ffffff" stroke="#ff0000" points="1328,-56.5 1328,-86.5 1476,-86.5 1476,-56.5 1328,-56.5"/>
<text text-anchor="start" x="1336" y="-74.5" font-family="Helvetica,sans-Serif" font-size="10.00" fill="#000000">sitkAdditiveGaussianNoise</text>
<text text-anchor="middle" x="1402" y="-63.5" font-family="Helvetica,sans-Serif" font-size="10.00" fill="#000000">ImageFilter.h</text>
</a>
</g>
</g>
<!-- Node3&#45;&gt;Node17 -->
<g id="edge17" class="edge">
<title>Node3&#45;&gt;Node17</title>
<path fill="none" stroke="#191970" d="M3004.4788,-137.7705C2754.4203,-134.5188 1787.9047,-120.0291 1485,-87 1482.0855,-86.6822 1479.1198,-86.3195 1476.1287,-85.9207"/>
<polygon fill="#191970" stroke="#191970" points="3004.7621,-141.2744 3014.8065,-137.9037 3004.8525,-134.2749 3004.7621,-141.2744"/>
</g>
<!-- Node18 -->
<g id="node15" class="node">
<title>Node18</title>
<g id="a_node15"><a xlink:href="sitkAggregateLabelMapFilter_8h.html" target="_top" xlink:title=" ">
<polygon fill="#ffffff" stroke="#ff0000" points="1494,-62 1494,-81 1658,-81 1658,-62 1494,-62"/>
<text text-anchor="middle" x="1576" y="-69" font-family="Helvetica,sans-Serif" font-size="10.00" fill="#000000">sitkAggregateLabelMapFilter.h</text>
</a>
</g>
</g>
<!-- Node3&#45;&gt;Node18 -->
<g id="edge18" class="edge">
<title>Node3&#45;&gt;Node18</title>
<path fill="none" stroke="#191970" d="M3004.6265,-137.3557C2773.3618,-132.7366 1932.5531,-114.3899 1667,-87 1653.2902,-85.5859 1638.522,-83.3727 1624.9537,-81.0568"/>
<polygon fill="#191970" stroke="#191970" points="3004.7858,-140.8595 3014.8534,-137.559 3004.9249,-133.8609 3004.7858,-140.8595"/>
</g>
<!-- Node19 -->
<g id="node16" class="node">
<title>Node19</title>
<g id="a_node16"><a xlink:href="sitkAndImageFilter_8h.html" target="_top" xlink:title=" ">
<polygon fill="#ffffff" stroke="#ff0000" points="1676,-62 1676,-81 1792,-81 1792,-62 1676,-62"/>
<text text-anchor="middle" x="1734" y="-69" font-family="Helvetica,sans-Serif" font-size="10.00" fill="#000000">sitkAndImageFilter.h</text>
</a>
</g>
</g>
<!-- Node3&#45;&gt;Node19 -->
<g id="edge19" class="edge">
<title>Node3&#45;&gt;Node19</title>
<path fill="none" stroke="#191970" d="M3004.6067,-137.5486C2787.6225,-133.8438 2038.1165,-118.9769 1801,-87 1790.7061,-85.6118 1779.6708,-83.377 1769.5868,-81.0313"/>
<polygon fill="#191970" stroke="#191970" points="3004.7766,-141.0519 3014.8344,-137.7217 3004.8951,-134.0529 3004.7766,-141.0519"/>
</g>
<!-- Node20 -->
<g id="node17" class="node">
<title>Node20</title>
<g id="a_node17"><a xlink:href="sitkAntiAliasBinaryImageFilter_8h.html" target="_top" xlink:title=" ">
<polygon fill="#ffffff" stroke="#ff0000" points="1810,-56.5 1810,-86.5 1950,-86.5 1950,-56.5 1810,-56.5"/>
<text text-anchor="start" x="1818" y="-74.5" font-family="Helvetica,sans-Serif" font-size="10.00" fill="#000000">sitkAntiAliasBinaryImage</text>
<text text-anchor="middle" x="1880" y="-63.5" font-family="Helvetica,sans-Serif" font-size="10.00" fill="#000000">Filter.h</text>
</a>
</g>
</g>
<!-- Node3&#45;&gt;Node20 -->
<g id="edge20" class="edge">
<title>Node3&#45;&gt;Node20</title>
<path fill="none" stroke="#191970" d="M3004.5802,-136.8858C2805.6777,-131.3012 2164.224,-111.7785 1959,-87 1956.086,-86.6482 1953.1186,-86.2498 1950.1259,-85.8148"/>
<polygon fill="#191970" stroke="#191970" points="3004.7329,-140.3914 3014.8268,-137.1721 3004.9285,-133.3941 3004.7329,-140.3914"/>
</g>
<!-- Node21 -->
<g id="node18" class="node">
<title>Node21</title>
<g id="a_node18"><a xlink:href="sitkApproximateSignedDistanceMapImageFilter_8h.html" target="_top" xlink:title=" ">
<polygon fill="#ffffff" stroke="#ff0000" points="1968.5,-56.5 1968.5,-86.5 2141.5,-86.5 2141.5,-56.5 1968.5,-56.5"/>
<text text-anchor="start" x="1976.5" y="-74.5" font-family="Helvetica,sans-Serif" font-size="10.00" fill="#000000">sitkApproximateSignedDistance</text>
<text text-anchor="middle" x="2055" y="-63.5" font-family="Helvetica,sans-Serif" font-size="10.00" fill="#000000">MapImageFilter.h</text>
</a>
</g>
</g>
<!-- Node3&#45;&gt;Node21 -->
<g id="edge21" class="edge">
<title>Node3&#45;&gt;Node21</title>
<path fill="none" stroke="#191970" d="M3004.7299,-137.3236C2858.9267,-133.9598 2471.3006,-122.1642 2150,-87 2147.259,-86.7 2144.4767,-86.3743 2141.6698,-86.0275"/>
<polygon fill="#191970" stroke="#191970" points="3004.7289,-140.8244 3014.8055,-137.5515 3004.8873,-133.8262 3004.7289,-140.8244"/>
</g>
<!-- Node22 -->
<g id="node19" class="node">
<title>Node22</title>
<g id="a_node19"><a xlink:href="sitkAsinImageFilter_8h.html" target="_top" xlink:title=" ">
<polygon fill="#ffffff" stroke="#ff0000" points="2159.5,-62 2159.5,-81 2278.5,-81 2278.5,-62 2159.5,-62"/>
<text text-anchor="middle" x="2219" y="-69" font-family="Helvetica,sans-Serif" font-size="10.00" fill="#000000">sitkAsinImageFilter.h</text>
</a>
</g>
</g>
<!-- Node3&#45;&gt;Node22 -->
<g id="edge22" class="edge">
<title>Node3&#45;&gt;Node22</title>
<path fill="none" stroke="#191970" d="M3004.5244,-137.6829C2874.1024,-135.2072 2553.4144,-125.3829 2288,-87 2277.6714,-85.5063 2266.5948,-83.2958 2256.4055,-81.009"/>
<polygon fill="#191970" stroke="#191970" points="3004.6348,-141.1854 3014.6969,-137.8683 3004.7624,-134.1865 3004.6348,-141.1854"/>
</g>
<!-- Node23 -->
<g id="node20" class="node">
<title>Node23</title>
<g id="a_node20"><a xlink:href="sitkAtan2ImageFilter_8h.html" target="_top" xlink:title=" ">
<polygon fill="#ffffff" stroke="#ff0000" points="2297,-62 2297,-81 2423,-81 2423,-62 2297,-62"/>
<text text-anchor="middle" x="2360" y="-69" font-family="Helvetica,sans-Serif" font-size="10.00" fill="#000000">sitkAtan2ImageFilter.h</text>
</a>
</g>
</g>
<!-- Node3&#45;&gt;Node23 -->
<g id="edge23" class="edge">
<title>Node3&#45;&gt;Node23</title>
<path fill="none" stroke="#191970" d="M3004.8908,-136.2639C2892.6968,-131.4491 2641.3658,-117.9308 2432,-87 2421.5013,-85.449 2410.2418,-83.2744 2399.8185,-81.0436"/>
<polygon fill="#191970" stroke="#191970" points="3004.8474,-139.765 3014.9861,-136.6896 3005.1424,-132.7713 3004.8474,-139.765"/>
</g>
<!-- Node24 -->
<g id="node21" class="node">
<title>Node24</title>
<g id="a_node21"><a xlink:href="sitkAtanImageFilter_8h.html" target="_top" xlink:title=" ">
<polygon fill="#ffffff" stroke="#ff0000" points="2441,-62 2441,-81 2561,-81 2561,-62 2441,-62"/>
<text text-anchor="middle" x="2501" y="-69" font-family="Helvetica,sans-Serif" font-size="10.00" fill="#000000">sitkAtanImageFilter.h</text>
</a>
</g>
</g>
<!-- Node3&#45;&gt;Node24 -->
<g id="edge24" class="edge">
<title>Node3&#45;&gt;Node24</title>
<path fill="none" stroke="#191970" d="M3004.5942,-134.5648C2911.518,-127.8921 2725.8363,-112.5363 2570,-87 2560.186,-85.3918 2549.6746,-83.2496 2539.8896,-81.0722"/>
<polygon fill="#191970" stroke="#191970" points="3004.4424,-138.0627 3014.6649,-135.2787 3004.9374,-131.0803 3004.4424,-138.0627"/>
</g>
<!-- Node25 -->
<g id="node22" class="node">
<title>Node25</title>
<g id="a_node22"><a xlink:href="sitkBSplineDecompositionImageFilter_8h.html" target="_top" xlink:title=" ">
<polygon fill="#ffffff" stroke="#ff0000" points="2579.5,-56.5 2579.5,-86.5 2724.5,-86.5 2724.5,-56.5 2579.5,-56.5"/>
<text text-anchor="start" x="2587.5" y="-74.5" font-family="Helvetica,sans-Serif" font-size="10.00" fill="#000000">sitkBSplineDecomposition</text>
<text text-anchor="middle" x="2652" y="-63.5" font-family="Helvetica,sans-Serif" font-size="10.00" fill="#000000">ImageFilter.h</text>
</a>
</g>
</g>
<!-- Node3&#45;&gt;Node25 -->
<g id="edge25" class="edge">
<title>Node3&#45;&gt;Node25</title>
<path fill="none" stroke="#191970" d="M3004.5852,-129.8907C2938.2575,-120.132 2827.7773,-103.4363 2733,-87 2730.3197,-86.5352 2727.591,-86.054 2724.8359,-85.5614"/>
<polygon fill="#191970" stroke="#191970" points="3004.4398,-133.4068 3014.8421,-131.3962 3005.4564,-126.481 3004.4398,-133.4068"/>
</g>
<!-- Node26 -->
<g id="node23" class="node">
<title>Node26</title>
<g id="a_node23"><a xlink:href="sitkBilateralImageFilter_8h.html" target="_top" xlink:title=" ">
<polygon fill="#ffffff" stroke="#ff0000" points="2742.5,-62 2742.5,-81 2881.5,-81 2881.5,-62 2742.5,-62"/>
<text text-anchor="middle" x="2812" y="-69" font-family="Helvetica,sans-Serif" font-size="10.00" fill="#000000">sitkBilateralImageFilter.h</text>
</a>
</g>
</g>
<!-- Node3&#45;&gt;Node26 -->
<g id="edge26" class="edge">
<title>Node3&#45;&gt;Node26</title>
<path fill="none" stroke="#191970" d="M3018.4793,-126.3973C2969.6233,-113.4078 2893.0051,-93.0371 2848.1222,-81.1039"/>
<polygon fill="#191970" stroke="#191970" points="3017.5986,-129.7846 3028.1622,-128.9717 3019.3972,-123.0197 3017.5986,-129.7846"/>
</g>
<!-- Node27 -->
<g id="node24" class="node">
<title>Node27</title>
<g id="a_node24"><a xlink:href="sitkBinShrinkImageFilter_8h.html" target="_top" xlink:title=" ">
<polygon fill="#ffffff" stroke="#ff0000" points="2900,-62 2900,-81 3044,-81 3044,-62 2900,-62"/>
<text text-anchor="middle" x="2972" y="-69" font-family="Helvetica,sans-Serif" font-size="10.00" fill="#000000">sitkBinShrinkImageFilter.h</text>
</a>
</g>
</g>
<!-- Node3&#45;&gt;Node27 -->
<g id="edge27" class="edge">
<title>Node3&#45;&gt;Node27</title>
<path fill="none" stroke="#191970" d="M3042.7304,-123.0102C3024.9577,-110.067 3000.1761,-92.0195 2985.1569,-81.0817"/>
<polygon fill="#191970" stroke="#191970" points="3040.6746,-125.8428 3050.8186,-128.9005 3044.7955,-120.1843 3040.6746,-125.8428"/>
</g>
<!-- Node28 -->
<g id="node25" class="node">
<title>Node28</title>
<g id="a_node25"><a xlink:href="sitkBinaryClosingByReconstructionImageFilter_8h.html" target="_top" xlink:title=" ">
<polygon fill="#ffffff" stroke="#ff0000" points="3062.5,-56.5 3062.5,-86.5 3249.5,-86.5 3249.5,-56.5 3062.5,-56.5"/>
<text text-anchor="start" x="3070.5" y="-74.5" font-family="Helvetica,sans-Serif" font-size="10.00" fill="#000000">sitkBinaryClosingByReconstruction</text>
<text text-anchor="middle" x="3156" y="-63.5" font-family="Helvetica,sans-Serif" font-size="10.00" fill="#000000">ImageFilter.h</text>
</a>
</g>
</g>
<!-- Node3&#45;&gt;Node28 -->
<g id="edge28" class="edge">
<title>Node3&#45;&gt;Node28</title>
<path fill="none" stroke="#191970" d="M3085.3937,-122.9198C3100.4499,-111.955 3120.49,-97.3605 3135.3731,-86.5218"/>
<polygon fill="#191970" stroke="#191970" points="3083.2045,-120.1843 3077.1814,-128.9005 3087.3254,-125.8428 3083.2045,-120.1843"/>
</g>
<!-- Node29 -->
<g id="node26" class="node">
<title>Node29</title>
<g id="a_node26"><a xlink:href="sitkBinaryContourImageFilter_8h.html" target="_top" xlink:title=" ">
<polygon fill="#ffffff" stroke="#ff0000" points="3267.5,-62 3267.5,-81 3434.5,-81 3434.5,-62 3267.5,-62"/>
<text text-anchor="middle" x="3351" y="-69" font-family="Helvetica,sans-Serif" font-size="10.00" fill="#000000">sitkBinaryContourImageFilter.h</text>
</a>
</g>
</g>
<!-- Node3&#45;&gt;Node29 -->
<g id="edge29" class="edge">
<title>Node3&#45;&gt;Node29</title>
<path fill="none" stroke="#191970" d="M3114.8013,-126.6405C3170.3901,-113.6633 3258.424,-93.1118 3309.8608,-81.1039"/>
<polygon fill="#191970" stroke="#191970" points="3113.7578,-123.2899 3104.8153,-128.9717 3115.3492,-130.1066 3113.7578,-123.2899"/>
</g>
<!-- Node30 -->
<g id="node27" class="node">
<title>Node30</title>
<g id="a_node27"><a xlink:href="sitkBinaryDilateImageFilter_8h.html" target="_top" xlink:title=" ">
<polygon fill="#ffffff" stroke="#ff0000" points="3452,-62 3452,-81 3610,-81 3610,-62 3452,-62"/>
<text text-anchor="middle" x="3531" y="-69" font-family="Helvetica,sans-Serif" font-size="10.00" fill="#000000">sitkBinaryDilateImageFilter.h</text>
</a>
</g>
</g>
<!-- Node3&#45;&gt;Node30 -->
<g id="edge30" class="edge">
<title>Node3&#45;&gt;Node30</title>
<path fill="none" stroke="#191970" d="M3123.2994,-131.1746C3197.9879,-121.7799 3330.2067,-104.5899 3443,-87 3454.649,-85.1833 3467.1373,-83.0792 3478.9399,-81.0185"/>
<polygon fill="#191970" stroke="#191970" points="3122.637,-127.7302 3113.1504,-132.4478 3123.5083,-134.6758 3122.637,-127.7302"/>
</g>
<!-- Node31 -->
<g id="node28" class="node">
<title>Node31</title>
<g id="a_node28"><a xlink:href="sitkBinaryErodeImageFilter_8h.html" target="_top" xlink:title=" ">
<polygon fill="#ffffff" stroke="#ff0000" points="3628.5,-62 3628.5,-81 3785.5,-81 3785.5,-62 3628.5,-62"/>
<text text-anchor="middle" x="3707" y="-69" font-family="Helvetica,sans-Serif" font-size="10.00" fill="#000000">sitkBinaryErodeImageFilter.h</text>
</a>
</g>
</g>
<!-- Node3&#45;&gt;Node31 -->
<g id="edge31" class="edge">
<title>Node3&#45;&gt;Node31</title>
<path fill="none" stroke="#191970" d="M3123.2241,-134.603C3224.9053,-127.5553 3439.1165,-111.1468 3619,-87 3631.3,-85.3489 3644.5063,-83.2161 3656.8512,-81.0638"/>
<polygon fill="#191970" stroke="#191970" points="3122.8882,-131.1177 3113.152,-135.2959 3123.3687,-138.1012 3122.8882,-131.1177"/>
</g>
<!-- Node32 -->
<g id="node29" class="node">
<title>Node32</title>
<g id="a_node29"><a xlink:href="sitkBinaryFillholeImageFilter_8h.html" target="_top" xlink:title=" ">
<polygon fill="#ffffff" stroke="#ff0000" points="3804,-62 3804,-81 3968,-81 3968,-62 3804,-62"/>
<text text-anchor="middle" x="3886" y="-69" font-family="Helvetica,sans-Serif" font-size="10.00" fill="#000000">sitkBinaryFillholeImageFilter.h</text>
</a>
</g>
</g>
<!-- Node3&#45;&gt;Node32 -->
<g id="edge32" class="edge">
<title>Node3&#45;&gt;Node32</title>
<path fill="none" stroke="#191970" d="M3123.38,-136.2544C3248.0016,-131.1146 3545.8232,-116.5904 3794,-87 3807.1884,-85.4275 3821.3672,-83.2721 3834.5488,-81.0686"/>
<polygon fill="#191970" stroke="#191970" points="3123.1345,-132.7615 3113.2853,-136.6658 3123.4195,-139.7556 3123.1345,-132.7615"/>
</g>
<!-- Node33 -->
<g id="node30" class="node">
<title>Node33</title>
<g id="a_node30"><a xlink:href="sitkBinaryGrindPeakImageFilter_8h.html" target="_top" xlink:title=" ">
<polygon fill="#ffffff" stroke="#ff0000" points="3986.5,-56.5 3986.5,-86.5 4133.5,-86.5 4133.5,-56.5 3986.5,-56.5"/>
<text text-anchor="start" x="3994.5" y="-74.5" font-family="Helvetica,sans-Serif" font-size="10.00" fill="#000000">sitkBinaryGrindPeakImage</text>
<text text-anchor="middle" x="4060" y="-63.5" font-family="Helvetica,sans-Serif" font-size="10.00" fill="#000000">Filter.h</text>
</a>
</g>
</g>
<!-- Node3&#45;&gt;Node33 -->
<g id="edge33" class="edge">
<title>Node3&#45;&gt;Node33</title>
<path fill="none" stroke="#191970" d="M3123.2589,-137.7855C3269.0229,-135.4573 3656.474,-125.8062 3977,-87 3980.056,-86.63 3983.1692,-86.2164 3986.3096,-85.7689"/>
<polygon fill="#191970" stroke="#191970" points="3123.1307,-134.2869 3113.1858,-137.9407 3123.2386,-141.2861 3123.1307,-134.2869"/>
</g>
<!-- Node34 -->
<g id="node31" class="node">
<title>Node34</title>
<g id="a_node31"><a xlink:href="sitkBinaryImageToLabelMapFilter_8h.html" target="_top" xlink:title=" ">
<polygon fill="#ffffff" stroke="#ff0000" points="4152,-56.5 4152,-86.5 4306,-86.5 4306,-56.5 4152,-56.5"/>
<text text-anchor="start" x="4160" y="-74.5" font-family="Helvetica,sans-Serif" font-size="10.00" fill="#000000">sitkBinaryImageToLabelMap</text>
<text text-anchor="middle" x="4229" y="-63.5" font-family="Helvetica,sans-Serif" font-size="10.00" fill="#000000">Filter.h</text>
</a>
</g>
</g>
<!-- Node3&#45;&gt;Node34 -->
<g id="edge34" class="edge">
<title>Node3&#45;&gt;Node34</title>
<path fill="none" stroke="#191970" d="M3123.2873,-136.6741C3318.7993,-130.4946 3942.0468,-109.4938 4142,-87 4145.2016,-86.6398 4148.4634,-86.2345 4151.754,-85.7937"/>
<polygon fill="#191970" stroke="#191970" points="3123.0932,-133.1784 3113.2083,-136.9915 3123.3136,-140.1749 3123.0932,-133.1784"/>
</g>
<!-- Node35 -->
<g id="node32" class="node">
<title>Node35</title>
<g id="a_node32"><a xlink:href="sitkBinaryMagnitudeImageFilter_8h.html" target="_top" xlink:title=" ">
<polygon fill="#ffffff" stroke="#ff0000" points="4324,-56.5 4324,-86.5 4472,-86.5 4472,-56.5 4324,-56.5"/>
<text text-anchor="start" x="4332" y="-74.5" font-family="Helvetica,sans-Serif" font-size="10.00" fill="#000000">sitkBinaryMagnitudeImage</text>
<text text-anchor="middle" x="4398" y="-63.5" font-family="Helvetica,sans-Serif" font-size="10.00" fill="#000000">Filter.h</text>
</a>
</g>
</g>
<!-- Node3&#45;&gt;Node35 -->
<g id="edge35" class="edge">
<title>Node3&#45;&gt;Node35</title>
<path fill="none" stroke="#191970" d="M3123.1519,-137.1921C3338.4042,-132.2572 4079.6477,-113.6805 4315,-87 4317.9131,-86.6698 4320.8776,-86.2965 4323.8678,-85.889"/>
<polygon fill="#191970" stroke="#191970" points="3122.9216,-133.6964 3113.004,-137.4236 3123.0813,-140.6946 3122.9216,-133.6964"/>
</g>
<!-- Node36 -->
<g id="node33" class="node">
<title>Node36</title>
<g id="a_node33"><a xlink:href="sitkBinaryMedianImageFilter_8h.html" target="_top" xlink:title=" ">
<polygon fill="#ffffff" stroke="#ff0000" points="4490,-62 4490,-81 4654,-81 4654,-62 4490,-62"/>
<text text-anchor="middle" x="4572" y="-69" font-family="Helvetica,sans-Serif" font-size="10.00" fill="#000000">sitkBinaryMedianImageFilter.h</text>
</a>
</g>
</g>
<!-- Node3&#45;&gt;Node36 -->
<g id="edge36" class="edge">
<title>Node3&#45;&gt;Node36</title>
<path fill="none" stroke="#191970" d="M3123.4381,-137.39C3356.8888,-132.8677 4211.3415,-114.7425 4481,-87 4494.7101,-85.5895 4509.4785,-83.3774 4523.0468,-81.0616"/>
<polygon fill="#191970" stroke="#191970" points="3123.0493,-133.8968 3113.1186,-137.5889 3123.1842,-140.8955 3123.0493,-133.8968"/>
</g>
<!-- Node37 -->
<g id="node34" class="node">
<title>Node37</title>
<g id="a_node34"><a xlink:href="sitkBinaryMinMaxCurvatureFlowImageFilter_8h.html" target="_top" xlink:title=" ">
<polygon fill="#ffffff" stroke="#ff0000" points="4672,-56.5 4672,-86.5 4824,-86.5 4824,-56.5 4672,-56.5"/>
<text text-anchor="start" x="4680" y="-74.5" font-family="Helvetica,sans-Serif" font-size="10.00" fill="#000000">sitkBinaryMinMaxCurvature</text>
<text text-anchor="middle" x="4748" y="-63.5" font-family="Helvetica,sans-Serif" font-size="10.00" fill="#000000">FlowImageFilter.h</text>
</a>
</g>
</g>
<!-- Node3&#45;&gt;Node37 -->
<g id="edge37" class="edge">
<title>Node3&#45;&gt;Node37</title>
<path fill="none" stroke="#191970" d="M3123.0576,-137.7709C3374.3381,-134.4877 4355.6932,-119.7853 4663,-87 4665.834,-86.6977 4668.7155,-86.3548 4671.6219,-85.9791"/>
<polygon fill="#191970" stroke="#191970" points="3122.9866,-134.2714 3113.0329,-137.9008 3123.0775,-141.2708 3122.9866,-134.2714"/>
</g>
<!-- Node38 -->
<g id="node35" class="node">
<title>Node38</title>
<g id="a_node35"><a xlink:href="sitkBinaryMorphologicalClosingImageFilter_8h.html" target="_top" xlink:title=" ">
<polygon fill="#ffffff" stroke="#ff0000" points="4842,-56.5 4842,-86.5 5012,-86.5 5012,-56.5 4842,-56.5"/>
<text text-anchor="start" x="4850" y="-74.5" font-family="Helvetica,sans-Serif" font-size="10.00" fill="#000000">sitkBinaryMorphologicalClosing</text>
<text text-anchor="middle" x="4927" y="-63.5" font-family="Helvetica,sans-Serif" font-size="10.00" fill="#000000">ImageFilter.h</text>
</a>
</g>
</g>
<!-- Node3&#45;&gt;Node38 -->
<g id="edge38" class="edge">
<title>Node3&#45;&gt;Node38</title>
<path fill="none" stroke="#191970" d="M3123.4859,-137.843C3391.6974,-134.7155 4490.2754,-120.0942 4833,-87 4835.8811,-86.7218 4838.8075,-86.4092 4841.7596,-86.0682"/>
<polygon fill="#191970" stroke="#191970" points="3123.1434,-134.3466 3113.1846,-137.9622 3123.2245,-141.3461 3123.1434,-134.3466"/>
</g>
<!-- Node39 -->
<g id="node36" class="node">
<title>Node39</title>
<g id="a_node36"><a xlink:href="sitkBinaryMorphologicalOpeningImageFilter_8h.html" target="_top" xlink:title=" ">
<polygon fill="#ffffff" stroke="#ff0000" points="5030.5,-56.5 5030.5,-86.5 5205.5,-86.5 5205.5,-56.5 5030.5,-56.5"/>
<text text-anchor="start" x="5038.5" y="-74.5" font-family="Helvetica,sans-Serif" font-size="10.00" fill="#000000">sitkBinaryMorphologicalOpening</text>
<text text-anchor="middle" x="5118" y="-63.5" font-family="Helvetica,sans-Serif" font-size="10.00" fill="#000000">ImageFilter.h</text>
</a>
</g>
</g>
<!-- Node3&#45;&gt;Node39 -->
<g id="edge39" class="edge">
<title>Node3&#45;&gt;Node39</title>
<path fill="none" stroke="#191970" d="M3123.1976,-137.998C3407.9749,-135.4216 4638.86,-122.4036 5021,-87 5024.0566,-86.7168 5027.1629,-86.3968 5030.2969,-86.0466"/>
<polygon fill="#191970" stroke="#191970" points="3123.0449,-134.4992 3113.0767,-138.0888 3123.1077,-141.4989 3123.0449,-134.4992"/>
</g>
<!-- Node40 -->
<g id="node37" class="node">
<title>Node40</title>
<g id="a_node37"><a xlink:href="sitkBinaryNotImageFilter_8h.html" target="_top" xlink:title=" ">
<polygon fill="#ffffff" stroke="#ff0000" points="5224,-62 5224,-81 5370,-81 5370,-62 5224,-62"/>
<text text-anchor="middle" x="5297" y="-69" font-family="Helvetica,sans-Serif" font-size="10.00" fill="#000000">sitkBinaryNotImageFilter.h</text>
</a>
</g>
</g>
<!-- Node3&#45;&gt;Node40 -->
<g id="edge40" class="edge">
<title>Node3&#45;&gt;Node40</title>
<path fill="none" stroke="#191970" d="M3123.5686,-138.3674C3425.8506,-137.4975 4792.1899,-131.1485 5214,-87 5226.8297,-85.6572 5240.6466,-83.406 5253.256,-81.0297"/>
<polygon fill="#191970" stroke="#191970" points="3123.2579,-134.8682 3113.2677,-138.3961 3123.2774,-141.8682 3123.2579,-134.8682"/>
</g>
<!-- Node41 -->
<g id="node38" class="node">
<title>Node41</title>
<g id="a_node38"><a xlink:href="sitkBinaryOpeningByReconstructionImageFilter_8h.html" target="_top" xlink:title=" ">
<polygon fill="#ffffff" stroke="#ff0000" points="5388.5,-56.5 5388.5,-86.5 5579.5,-86.5 5579.5,-56.5 5388.5,-56.5"/>
<text text-anchor="start" x="5396.5" y="-74.5" font-family="Helvetica,sans-Serif" font-size="10.00" fill="#000000">sitkBinaryOpeningByReconstruction</text>
<text text-anchor="middle" x="5484" y="-63.5" font-family="Helvetica,sans-Serif" font-size="10.00" fill="#000000">ImageFilter.h</text>
</a>
</g>
</g>
<!-- Node3&#45;&gt;Node41 -->
<g id="edge41" class="edge">
<title>Node3&#45;&gt;Node41</title>
<path fill="none" stroke="#191970" d="M3123.4593,-138.18C3439.1544,-136.3281 4921.7758,-125.6823 5379,-87 5382.1214,-86.7359 5385.2912,-86.4386 5388.4894,-86.1135"/>
<polygon fill="#191970" stroke="#191970" points="3123.1366,-134.6817 3113.1571,-138.2397 3123.1773,-141.6815 3123.1366,-134.6817"/>
</g>
<!-- Node42 -->
<g id="node39" class="node">
<title>Node42</title>
<g id="a_node39"><a xlink:href="sitkBinaryProjectionImageFilter_8h.html" target="_top" xlink:title=" ">
<polygon fill="#ffffff" stroke="#ff0000" points="5598,-56.5 5598,-86.5 5744,-86.5 5744,-56.5 5598,-56.5"/>
<text text-anchor="start" x="5606" y="-74.5" font-family="Helvetica,sans-Serif" font-size="10.00" fill="#000000">sitkBinaryProjectionImage</text>
<text text-anchor="middle" x="5671" y="-63.5" font-family="Helvetica,sans-Serif" font-size="10.00" fill="#000000">Filter.h</text>
</a>
</g>
</g>
<!-- Node3&#45;&gt;Node42 -->
<g id="edge42" class="edge">
<title>Node3&#45;&gt;Node42</title>
<path fill="none" stroke="#191970" d="M3123.2858,-137.8745C3480.1964,-134.0315 5335.9793,-112.9257 5588,-87 5591.208,-86.67 5594.4776,-86.2822 5597.7746,-85.8491"/>
<polygon fill="#191970" stroke="#191970" points="3123.1285,-134.3759 3113.1666,-137.9832 3123.2037,-141.3755 3123.1285,-134.3759"/>
</g>
<!-- Node43 -->
<g id="node40" class="node">
<title>Node43</title>
<g id="a_node40"><a xlink:href="sitkBinaryPruningImageFilter_8h.html" target="_top" xlink:title=" ">
<polygon fill="#ffffff" stroke="#ff0000" points="5762,-62 5762,-81 5928,-81 5928,-62 5762,-62"/>
<text text-anchor="middle" x="5845" y="-69" font-family="Helvetica,sans-Serif" font-size="10.00" fill="#000000">sitkBinaryPruningImageFilter.h</text>
</a>
</g>
</g>
<!-- Node3&#45;&gt;Node43 -->
<g id="edge43" class="edge">
<title>Node3&#45;&gt;Node43</title>
<path fill="none" stroke="#191970" d="M3123.2664,-137.8913C3493.6591,-134.0172 5483.3313,-112.16 5753,-87 5767.192,-85.6759 5782.4981,-83.4306 5796.4754,-81.0538"/>
<polygon fill="#191970" stroke="#191970" points="3122.9994,-134.3938 3113.0365,-137.998 3123.0725,-141.3934 3122.9994,-134.3938"/>
</g>
<!-- Node44 -->
<g id="node41" class="node">
<title>Node44</title>
<g id="a_node41"><a xlink:href="sitkBinaryReconstructionByDilationImageFilter_8h.html" target="_top" xlink:title=" ">
<polygon fill="#ffffff" stroke="#ff0000" points="5946,-56.5 5946,-86.5 6084,-86.5 6084,-56.5 5946,-56.5"/>
<text text-anchor="start" x="5954" y="-74.5" font-family="Helvetica,sans-Serif" font-size="10.00" fill="#000000">sitkBinaryReconstruction</text>
<text text-anchor="middle" x="6015" y="-63.5" font-family="Helvetica,sans-Serif" font-size="10.00" fill="#000000">ByDilationImageFilter.h</text>
</a>
</g>
</g>
<!-- Node3&#45;&gt;Node44 -->
<g id="edge44" class="edge">
<title>Node3&#45;&gt;Node44</title>
<path fill="none" stroke="#191970" d="M3123.3218,-138.0726C3508.5323,-135.2131 5648.3035,-118.0215 5937,-87 5939.8828,-86.6902 5942.8174,-86.327 5945.7761,-85.9211"/>
<polygon fill="#191970" stroke="#191970" points="3123.2015,-134.5733 3113.2277,-138.1472 3123.2533,-141.5731 3123.2015,-134.5733"/>
</g>
<!-- Node45 -->
<g id="node42" class="node">
<title>Node45</title>
<g id="a_node42"><a xlink:href="sitkBinaryReconstructionByErosionImageFilter_8h.html" target="_top" xlink:title=" ">
<polygon fill="#ffffff" stroke="#ff0000" points="6102,-56.5 6102,-86.5 6240,-86.5 6240,-56.5 6102,-56.5"/>
<text text-anchor="start" x="6110" y="-74.5" font-family="Helvetica,sans-Serif" font-size="10.00" fill="#000000">sitkBinaryReconstruction</text>
<text text-anchor="middle" x="6171" y="-63.5" font-family="Helvetica,sans-Serif" font-size="10.00" fill="#000000">ByErosionImageFilter.h</text>
</a>
</g>
</g>
<!-- Node3&#45;&gt;Node45 -->
<g id="edge45" class="edge">
<title>Node3&#45;&gt;Node45</title>
<path fill="none" stroke="#191970" d="M3123.3634,-138.1311C3520.7375,-135.5767 5787.8136,-119.651 6093,-87 6095.8829,-86.6916 6098.8177,-86.3294 6101.7765,-85.9245"/>
<polygon fill="#191970" stroke="#191970" points="3123.2139,-134.6318 3113.2366,-138.1959 3123.2588,-141.6317 3123.2139,-134.6318"/>
</g>
<!-- Node4&#45;&gt;Node5 -->
<g id="edge4" class="edge">
<title>Node4&#45;&gt;Node5</title>
<path fill="none" stroke="#191970" d="M176.6032,-56.2969C177.7414,-56.1926 178.8741,-56.0936 180,-56 510.6629,-28.5259 5903.3302,-11.6357 6408.1662,-10.1126"/>
<polygon fill="#191970" stroke="#191970" points="175.8262,-52.8584 166.2382,-57.3661 176.5445,-59.8215 175.8262,-52.8584"/>
</g>
<!-- Node6&#45;&gt;Node5 -->
<g id="edge6" class="edge">
<title>Node6&#45;&gt;Node5</title>
<path fill="none" stroke="#191970" d="M327.5744,-59.8259C335.3426,-58.2498 343.3669,-56.876 351,-56 671.4792,-19.2224 5912.6723,-10.7704 6408.4336,-10.0523"/>
<polygon fill="#191970" stroke="#191970" points="326.5992,-56.4558 317.5643,-61.9893 328.078,-63.2978 326.5992,-56.4558"/>
</g>
<!-- Node7&#45;&gt;Node5 -->
<g id="edge8" class="edge">
<title>Node7&#45;&gt;Node5</title>
<path fill="none" stroke="#191970" d="M6348.1557,-57.3813C6372.1063,-45.7832 6405.3805,-29.6701 6426.2956,-19.5419"/>
<polygon fill="#191970" stroke="#191970" points="6346.3186,-54.3821 6338.8438,-61.8906 6349.3695,-60.6823 6346.3186,-54.3821"/>
</g>
<!-- Node8&#45;&gt;Node5 -->
<g id="edge10" class="edge">
<title>Node8&#45;&gt;Node5</title>
<path fill="none" stroke="#191970" d="M532.4904,-56.0815C936.4008,-27.8404 5925.2061,-11.6249 6408.4307,-10.1157"/>
<polygon fill="#191970" stroke="#191970" points="532.052,-52.6051 522.3571,-56.878 532.6006,-59.5836 532.052,-52.6051"/>
</g>
<!-- Node304&#45;&gt;Node5 -->
<g id="edge47" class="edge">
<title>Node304&#45;&gt;Node5</title>
<path fill="none" stroke="#191970" d="M6372.9078,-119.6783C6390.9438,-112.0524 6408.846,-101.5003 6422,-87 6439.5929,-67.6064 6444.2897,-35.4596 6445.5435,-19.5394"/>
<polygon fill="#191970" stroke="#191970" points="6371.4994,-116.4715 6363.4883,-123.4049 6374.0747,-122.9806 6371.4994,-116.4715"/>
</g>
<!-- Node305&#45;&gt;Node5 -->
<g id="edge49" class="edge">
<title>Node305&#45;&gt;Node5</title>
<path fill="none" stroke="#191970" d="M6476.7839,-113.3953C6472.0601,-97.0359 6465.7243,-75.2338 6460,-56 6456.2377,-43.3585 6451.7866,-28.799 6448.9301,-19.5045"/>
<polygon fill="#191970" stroke="#191970" points="6473.4998,-114.6387 6479.6327,-123.278 6480.2259,-112.6998 6473.4998,-114.6387"/>
</g>
<!-- Node310&#45;&gt;Node5 -->
<g id="edge54" class="edge">
<title>Node310&#45;&gt;Node5</title>
<path fill="none" stroke="#191970" d="M6755.7193,-125.3592C6686.1777,-99.4575 6532.8647,-42.3539 6471.8181,-19.6163"/>
<polygon fill="#191970" stroke="#191970" points="6754.758,-128.736 6765.3508,-128.9466 6757.2014,-122.1763 6754.758,-128.736"/>
</g>
<!-- Node311&#45;&gt;Node5 -->
<g id="edge56" class="edge">
<title>Node311&#45;&gt;Node5</title>
<path fill="none" stroke="#191970" d="M6890.0402,-126.2634C6830.0988,-109.9937 6720.6726,-80.4475 6627,-56 6577.5896,-43.1044 6520.4662,-28.6648 6483.823,-19.4622"/>
<polygon fill="#191970" stroke="#191970" points="6889.366,-129.707 6899.9338,-128.9502 6891.2006,-122.9517 6889.366,-129.707"/>
</g>
<!-- Node312&#45;&gt;Node5 -->
<g id="edge58" class="edge">
<title>Node312&#45;&gt;Node5</title>
<path fill="none" stroke="#191970" d="M7025.6295,-126.4743C7020.6951,-125.2764 7015.7496,-124.0984 7011,-123 6871.549,-90.7488 6836.3977,-83.8423 6696,-56 6620.8946,-41.1059 6532.7613,-25.2714 6483.7566,-16.6124"/>
<polygon fill="#191970" stroke="#191970" points="7025.1297,-129.9555 7035.6759,-128.9418 7026.7994,-123.1575 7025.1297,-129.9555"/>
</g>
<!-- Node313&#45;&gt;Node5 -->
<g id="edge60" class="edge">
<title>Node313&#45;&gt;Node5</title>
<path fill="none" stroke="#191970" d="M7145.0646,-125.7143C7142.0186,-124.7349 7138.9656,-123.8129 7136,-123 6892.2048,-56.1693 6588.4495,-23.2919 6483.6164,-13.3522"/>
<polygon fill="#191970" stroke="#191970" points="7144.0603,-129.0695 7154.6547,-128.9748 7146.3136,-122.4421 7144.0603,-129.0695"/>
</g>
<!-- Node314&#45;&gt;Node5 -->
<g id="edge62" class="edge">
<title>Node314&#45;&gt;Node5</title>
<path fill="none" stroke="#191970" d="M7265.5794,-126.6783C7188.5016,-108.9879 7036.561,-75.6146 6906,-56 6750.0404,-32.5697 6562.4821,-18.0064 6483.7217,-12.5025"/>
<polygon fill="#191970" stroke="#191970" points="7264.9693,-130.1294 7275.4998,-128.9636 7266.5407,-123.308 7264.9693,-130.1294"/>
</g>
</g>
</svg>
