<?xml version="1.0" encoding="UTF-8" standalone="no"?>
<!DOCTYPE svg PUBLIC "-//W3C//DTD SVG 1.1//EN"
 "http://www.w3.org/Graphics/SVG/1.1/DTD/svg11.dtd">
<!-- Generated by graphviz version 2.40.1 (20161225.0304)
 -->
<!-- Title: sitkDetail.h Pages: 1 -->
<!--zoomable 319 -->
<svg id="main" version="1.1" xmlns="http://www.w3.org/2000/svg" xmlns:xlink="http://www.w3.org/1999/xlink" xml:space="preserve" onload="init(evt)">
<style type="text/css"><![CDATA[
.edge:hover path { stroke: red; }
.edge:hover polygon { stroke: red; fill: red; }
]]></style>
<script type="text/javascript"><![CDATA[
var edges = document.getElementsByTagName('g');
if (edges && edges.length) {
  for (var i=0;i<edges.length;i++) {
    if (edges[i].id.substr(0,4)=='edge') {
      edges[i].setAttribute('class','edge');
    }
  }
}
]]></script>
        <defs>
                <circle id="rim" cx="0" cy="0" r="7"/>
                <circle id="rim2" cx="0" cy="0" r="3.5"/>
                <g id="zoomPlus">
                        <use xlink:href="#rim" fill="#404040">
                                <set attributeName="fill" to="#808080" begin="zoomplus.mouseover" end="zoomplus.mouseout"/>
                        </use>
                        <path d="M-4,0h8M0,-4v8" fill="none" stroke="white" stroke-width="1.5" pointer-events="none"/>
                </g>
                <g id="zoomMin">
                        <use xlink:href="#rim" fill="#404040">
                                <set attributeName="fill" to="#808080" begin="zoomminus.mouseover" end="zoomminus.mouseout"/>
                        </use>
                        <path d="M-4,0h8" fill="none" stroke="white" stroke-width="1.5" pointer-events="none"/>
                </g>
                <g id="dirArrow">
                        <path fill="none" stroke="white" stroke-width="1.5" d="M0,-3.0v7 M-2.5,-0.5L0,-3.0L2.5,-0.5"/>
                </g>
               <g id="resetDef">
                       <use xlink:href="#rim2" fill="#404040">
                               <set attributeName="fill" to="#808080" begin="reset.mouseover" end="reset.mouseout"/>
                       </use>
               </g>
        </defs>

<script type="text/javascript">
var viewWidth = 779;
var viewHeight = 319;
var sectionId = 'dynsection-0';
</script>
<script xlink:href="svgpan.js"/>
<svg id="graph" class="graph">
<g id="viewport">
<title>sitkDetail.h</title>
<polygon fill="#ffffff" stroke="transparent" points="-4,4 -4,-315 775,-315 775,4 -4,4"/>
<!-- Node1 -->
<g id="node1" class="node">
<title>Node1</title>
<g id="a_node1"><a xlink:title=" ">
<polygon fill="#bfbfbf" stroke="#000000" points="435.5,-291.5 435.5,-310.5 508.5,-310.5 508.5,-291.5 435.5,-291.5"/>
<text text-anchor="middle" x="472" y="-298.5" font-family="Helvetica,sans-Serif" font-size="10.00" fill="#000000">sitkDetail.h</text>
</a>
</g>
</g>
<!-- Node2 -->
<g id="node2" class="node">
<title>Node2</title>
<g id="a_node2"><a xlink:href="sitkMemberFunctionFactoryBase_8h.html" target="_top" xlink:title=" ">
<polygon fill="#ffffff" stroke="#000000" points="346,-224.5 346,-254.5 496,-254.5 496,-224.5 346,-224.5"/>
<text text-anchor="start" x="354" y="-242.5" font-family="Helvetica,sans-Serif" font-size="10.00" fill="#000000">sitkMemberFunctionFactory</text>
<text text-anchor="middle" x="421" y="-231.5" font-family="Helvetica,sans-Serif" font-size="10.00" fill="#000000">Base.h</text>
</a>
</g>
</g>
<!-- Node1&#45;&gt;Node2 -->
<g id="edge1" class="edge">
<title>Node1&#45;&gt;Node2</title>
<path fill="none" stroke="#191970" d="M464.0313,-291.3906C457.5764,-283.6068 448.2168,-272.3202 439.8739,-262.2597"/>
<polygon fill="#191970" stroke="#191970" points="442.5536,-260.008 433.476,-254.5446 437.1652,-264.4764 442.5536,-260.008"/>
</g>
<!-- Node16 -->
<g id="node16" class="node">
<title>Node16</title>
<g id="a_node16"><a xlink:title=" ">
<polygon fill="#ffffff" stroke="#bfbfbf" points="633,-168.5 633,-187.5 771,-187.5 771,-168.5 633,-168.5"/>
<text text-anchor="middle" x="702" y="-175.5" font-family="Helvetica,sans-Serif" font-size="10.00" fill="#000000">Ancillary/FunctionTraits.h</text>
</a>
</g>
</g>
<!-- Node1&#45;&gt;Node16 -->
<g id="edge24" class="edge">
<title>Node1&#45;&gt;Node16</title>
<path fill="none" stroke="#191970" d="M490.0477,-291.3484C530.2716,-269.8374 627.4636,-217.8608 674.9617,-192.4596"/>
<polygon fill="#191970" stroke="#191970" points="676.8685,-195.409 684.0361,-187.6068 673.5673,-189.2363 676.8685,-195.409"/>
</g>
<!-- Node3 -->
<g id="node3" class="node">
<title>Node3</title>
<g id="a_node3"><a xlink:href="sitkConfigure_8h.html" target="_top" xlink:title=" ">
<polygon fill="#ffffff" stroke="#000000" points="392,-.5 392,-19.5 482,-19.5 482,-.5 392,-.5"/>
<text text-anchor="middle" x="437" y="-7.5" font-family="Helvetica,sans-Serif" font-size="10.00" fill="#000000">sitkConfigure.h</text>
</a>
</g>
</g>
<!-- Node2&#45;&gt;Node3 -->
<g id="edge2" class="edge">
<title>Node2&#45;&gt;Node3</title>
<path fill="none" stroke="#191970" d="M496.1442,-225.6217C520.3256,-217.97 545.5952,-206.1654 564,-188 582.9185,-169.3276 580.2572,-158.1548 585,-132 595.1229,-76.1754 526.2136,-40.6182 478.9878,-23.0783"/>
<polygon fill="#191970" stroke="#191970" points="479.8703,-19.677 469.2757,-19.6082 477.515,-26.2689 479.8703,-19.677"/>
</g>
<!-- Node4 -->
<g id="node4" class="node">
<title>Node4</title>
<g id="a_node4"><a xlink:href="sitkPixelIDTypes_8h.html" target="_top" xlink:title=" ">
<polygon fill="#ffffff" stroke="#000000" points="184,-112.5 184,-131.5 290,-131.5 290,-112.5 184,-112.5"/>
<text text-anchor="middle" x="237" y="-119.5" font-family="Helvetica,sans-Serif" font-size="10.00" fill="#000000">sitkPixelIDTypes.h</text>
</a>
</g>
</g>
<!-- Node2&#45;&gt;Node4 -->
<g id="edge3" class="edge">
<title>Node2&#45;&gt;Node4</title>
<path fill="none" stroke="#191970" d="M345.7958,-230.7558C292.8715,-222.8746 228.6232,-209.2166 212,-188 200.8607,-173.7827 210.8384,-154.0558 221.3077,-139.8779"/>
<polygon fill="#191970" stroke="#191970" points="224.2004,-141.8644 227.7055,-131.8662 218.7304,-137.4964 224.2004,-141.8644"/>
</g>
<!-- Node5 -->
<g id="node5" class="node">
<title>Node5</title>
<g id="a_node5"><a xlink:href="sitkPixelIDTypeLists_8h.html" target="_top" xlink:title=" ">
<polygon fill="#ffffff" stroke="#000000" points="415.5,-168.5 415.5,-187.5 538.5,-187.5 538.5,-168.5 415.5,-168.5"/>
<text text-anchor="middle" x="477" y="-175.5" font-family="Helvetica,sans-Serif" font-size="10.00" fill="#000000">sitkPixelIDTypeLists.h</text>
</a>
</g>
</g>
<!-- Node2&#45;&gt;Node5 -->
<g id="edge4" class="edge">
<title>Node2&#45;&gt;Node5</title>
<path fill="none" stroke="#191970" d="M434.8427,-224.2977C442.859,-215.4941 452.9762,-204.3833 461.29,-195.2529"/>
<polygon fill="#191970" stroke="#191970" points="463.8888,-197.5974 468.0337,-187.8469 458.7131,-192.8845 463.8888,-197.5974"/>
</g>
<!-- Node7 -->
<g id="node7" class="node">
<title>Node7</title>
<g id="a_node7"><a xlink:title=" ">
<polygon fill="#ffffff" stroke="#bfbfbf" points="465.5,-112.5 465.5,-131.5 576.5,-131.5 576.5,-112.5 465.5,-112.5"/>
<text text-anchor="middle" x="521" y="-119.5" font-family="Helvetica,sans-Serif" font-size="10.00" fill="#000000">Ancillary/TypeList.h</text>
</a>
</g>
</g>
<!-- Node2&#45;&gt;Node7 -->
<g id="edge20" class="edge">
<title>Node2&#45;&gt;Node7</title>
<path fill="none" stroke="#191970" d="M496.2732,-224.8921C516.0491,-217.2633 535.1424,-205.6564 547,-188 557.121,-172.9295 546.9662,-153.3319 536.5298,-139.4173"/>
<polygon fill="#191970" stroke="#191970" points="539.1909,-137.1421 530.174,-131.5792 533.7538,-141.551 539.1909,-137.1421"/>
</g>
<!-- Node9 -->
<g id="node9" class="node">
<title>Node9</title>
<g id="a_node9"><a xlink:href="sitkMacro_8h.html" target="_top" xlink:title=" ">
<polygon fill="#ffffff" stroke="#000000" points="124.5,-56.5 124.5,-75.5 197.5,-75.5 197.5,-56.5 124.5,-56.5"/>
<text text-anchor="middle" x="161" y="-63.5" font-family="Helvetica,sans-Serif" font-size="10.00" fill="#000000">sitkMacro.h</text>
</a>
</g>
</g>
<!-- Node2&#45;&gt;Node9 -->
<g id="edge10" class="edge">
<title>Node2&#45;&gt;Node9</title>
<path fill="none" stroke="#191970" d="M345.9113,-228.5003C292.3444,-219.4069 226.0488,-205.2181 204,-188 172.2642,-163.2173 163.8898,-113.3045 161.7205,-85.6194"/>
<polygon fill="#191970" stroke="#191970" points="165.2104,-85.3444 161.1323,-75.5659 158.2224,-85.7533 165.2104,-85.3444"/>
</g>
<!-- Node14 -->
<g id="node14" class="node">
<title>Node14</title>
<g id="a_node14"><a xlink:href="sitkNonCopyable_8h.html" target="_top" xlink:title=" ">
<polygon fill="#ffffff" stroke="#000000" points="17.5,-168.5 17.5,-187.5 126.5,-187.5 126.5,-168.5 17.5,-168.5"/>
<text text-anchor="middle" x="72" y="-175.5" font-family="Helvetica,sans-Serif" font-size="10.00" fill="#000000">sitkNonCopyable.h</text>
</a>
</g>
</g>
<!-- Node2&#45;&gt;Node14 -->
<g id="edge17" class="edge">
<title>Node2&#45;&gt;Node14</title>
<path fill="none" stroke="#191970" d="M345.7019,-226.2311C283.1916,-215.2157 195.2489,-199.7186 136.0704,-189.2903"/>
<polygon fill="#191970" stroke="#191970" points="136.5547,-185.8218 126.099,-187.5332 135.3399,-192.7156 136.5547,-185.8218"/>
</g>
<!-- Node2&#45;&gt;Node16 -->
<g id="edge21" class="edge">
<title>Node2&#45;&gt;Node16</title>
<path fill="none" stroke="#191970" d="M489.7403,-224.4554C538.6823,-213.7439 603.5043,-199.5569 648.5816,-189.6912"/>
<polygon fill="#191970" stroke="#191970" points="649.4345,-193.0875 658.455,-187.5303 647.9379,-186.2493 649.4345,-193.0875"/>
</g>
<!-- Node17 -->
<g id="node17" class="node">
<title>Node17</title>
<g id="a_node17"><a xlink:title=" ">
<polygon fill="#ffffff" stroke="#bfbfbf" points="221.5,-168.5 221.5,-187.5 314.5,-187.5 314.5,-168.5 221.5,-168.5"/>
<text text-anchor="middle" x="268" y="-175.5" font-family="Helvetica,sans-Serif" font-size="10.00" fill="#000000">unordered_map</text>
</a>
</g>
</g>
<!-- Node2&#45;&gt;Node17 -->
<g id="edge22" class="edge">
<title>Node2&#45;&gt;Node17</title>
<path fill="none" stroke="#191970" d="M383.572,-224.4554C358.3794,-214.329 325.4593,-201.0964 301.2004,-191.3453"/>
<polygon fill="#191970" stroke="#191970" points="302.2934,-188.0125 291.7096,-187.5303 299.6827,-194.5074 302.2934,-188.0125"/>
</g>
<!-- Node18 -->
<g id="node18" class="node">
<title>Node18</title>
<g id="a_node18"><a xlink:title=" ">
<polygon fill="#ffffff" stroke="#bfbfbf" points="332.5,-168.5 332.5,-187.5 397.5,-187.5 397.5,-168.5 332.5,-168.5"/>
<text text-anchor="middle" x="365" y="-175.5" font-family="Helvetica,sans-Serif" font-size="10.00" fill="#000000">functional</text>
</a>
</g>
</g>
<!-- Node2&#45;&gt;Node18 -->
<g id="edge23" class="edge">
<title>Node2&#45;&gt;Node18</title>
<path fill="none" stroke="#191970" d="M407.1573,-224.2977C399.141,-215.4941 389.0238,-204.3833 380.71,-195.2529"/>
<polygon fill="#191970" stroke="#191970" points="383.2869,-192.8845 373.9663,-187.8469 378.1112,-197.5974 383.2869,-192.8845"/>
</g>
<!-- Node5&#45;&gt;Node3 -->
<g id="edge6" class="edge">
<title>Node5&#45;&gt;Node3</title>
<path fill="none" stroke="#191970" d="M471.6913,-168.4314C466.8717,-159.3299 459.9343,-145.1179 456,-132 445.4742,-96.9042 440.5339,-54.2854 438.4129,-29.836"/>
<polygon fill="#191970" stroke="#191970" points="441.8878,-29.3802 437.6063,-19.689 434.9098,-29.9349 441.8878,-29.3802"/>
</g>
<!-- Node5&#45;&gt;Node4 -->
<g id="edge7" class="edge">
<title>Node5&#45;&gt;Node4</title>
<path fill="none" stroke="#191970" d="M436.0152,-168.4369C395.0274,-158.8731 331.8996,-144.1432 287.7643,-133.845"/>
<polygon fill="#191970" stroke="#191970" points="288.3495,-130.3876 277.8157,-131.5237 286.7588,-137.2045 288.3495,-130.3876"/>
</g>
<!-- Node6 -->
<g id="node6" class="node">
<title>Node6</title>
<g id="a_node6"><a xlink:title=" ">
<polygon fill="#ffffff" stroke="#bfbfbf" points="291.5,-.5 291.5,-19.5 344.5,-19.5 344.5,-.5 291.5,-.5"/>
<text text-anchor="middle" x="318" y="-7.5" font-family="Helvetica,sans-Serif" font-size="10.00" fill="#000000">stdint.h</text>
</a>
</g>
</g>
<!-- Node5&#45;&gt;Node6 -->
<g id="edge5" class="edge">
<title>Node5&#45;&gt;Node6</title>
<path fill="none" stroke="#191970" d="M433.3641,-168.4514C398.1255,-159.8505 352.4263,-146.3803 340,-132 315.2391,-103.3455 314.123,-56.4437 315.8456,-29.9168"/>
<polygon fill="#191970" stroke="#191970" points="319.3627,-29.8664 316.7294,-19.604 312.3882,-29.2686 319.3627,-29.8664"/>
</g>
<!-- Node5&#45;&gt;Node7 -->
<g id="edge8" class="edge">
<title>Node5&#45;&gt;Node7</title>
<path fill="none" stroke="#191970" d="M484.6642,-168.2455C490.8473,-160.3761 499.7063,-149.101 507.1289,-139.6542"/>
<polygon fill="#191970" stroke="#191970" points="509.9975,-141.6683 513.4236,-131.6427 504.4932,-137.3435 509.9975,-141.6683"/>
</g>
<!-- Node8 -->
<g id="node8" class="node">
<title>Node8</title>
<g id="a_node8"><a xlink:title=" ">
<polygon fill="#ffffff" stroke="#bfbfbf" points="349.5,-112.5 349.5,-131.5 408.5,-131.5 408.5,-112.5 349.5,-112.5"/>
<text text-anchor="middle" x="379" y="-119.5" font-family="Helvetica,sans-Serif" font-size="10.00" fill="#000000">complex</text>
</a>
</g>
</g>
<!-- Node5&#45;&gt;Node8 -->
<g id="edge9" class="edge">
<title>Node5&#45;&gt;Node8</title>
<path fill="none" stroke="#191970" d="M459.9297,-168.2455C444.753,-159.5731 422.3379,-146.7645 404.9437,-136.825"/>
<polygon fill="#191970" stroke="#191970" points="406.2936,-133.5653 395.8747,-131.6427 402.8206,-139.643 406.2936,-133.5653"/>
</g>
<!-- Node9&#45;&gt;Node3 -->
<g id="edge16" class="edge">
<title>Node9&#45;&gt;Node3</title>
<path fill="none" stroke="#191970" d="M197.6507,-58.5636C244.8616,-48.9846 327.3424,-32.2494 382.0672,-21.1458"/>
<polygon fill="#191970" stroke="#191970" points="382.8434,-24.5597 391.9477,-19.141 381.4514,-17.6995 382.8434,-24.5597"/>
</g>
<!-- Node9&#45;&gt;Node6 -->
<g id="edge11" class="edge">
<title>Node9&#45;&gt;Node6</title>
<path fill="none" stroke="#191970" d="M187.9893,-56.3733C213.8699,-47.1419 253.1248,-33.1402 281.7289,-22.9375"/>
<polygon fill="#191970" stroke="#191970" points="283.12,-26.1573 291.3629,-19.5011 280.7683,-19.5642 283.12,-26.1573"/>
</g>
<!-- Node10 -->
<g id="node10" class="node">
<title>Node10</title>
<g id="a_node10"><a xlink:title=" ">
<polygon fill="#ffffff" stroke="#bfbfbf" points="136,-.5 136,-19.5 192,-19.5 192,-.5 136,-.5"/>
<text text-anchor="middle" x="164" y="-7.5" font-family="Helvetica,sans-Serif" font-size="10.00" fill="#000000">stddef.h</text>
</a>
</g>
</g>
<!-- Node9&#45;&gt;Node10 -->
<g id="edge12" class="edge">
<title>Node9&#45;&gt;Node10</title>
<path fill="none" stroke="#191970" d="M161.5226,-56.2455C161.914,-48.9382 162.4628,-38.6944 162.9444,-29.7046"/>
<polygon fill="#191970" stroke="#191970" points="166.4434,-29.8156 163.4834,-19.6427 159.4534,-29.4411 166.4434,-29.8156"/>
</g>
<!-- Node11 -->
<g id="node11" class="node">
<title>Node11</title>
<g id="a_node11"><a xlink:title=" ">
<polygon fill="#ffffff" stroke="#bfbfbf" points="210,-.5 210,-19.5 262,-19.5 262,-.5 210,-.5"/>
<text text-anchor="middle" x="236" y="-7.5" font-family="Helvetica,sans-Serif" font-size="10.00" fill="#000000">cassert</text>
</a>
</g>
</g>
<!-- Node9&#45;&gt;Node11 -->
<g id="edge13" class="edge">
<title>Node9&#45;&gt;Node11</title>
<path fill="none" stroke="#191970" d="M174.064,-56.2455C185.3562,-47.814 201.8845,-35.4729 215.0271,-25.6598"/>
<polygon fill="#191970" stroke="#191970" points="217.1669,-28.4301 223.0857,-19.6427 212.9789,-22.8211 217.1669,-28.4301"/>
</g>
<!-- Node12 -->
<g id="node12" class="node">
<title>Node12</title>
<g id="a_node12"><a xlink:title=" ">
<polygon fill="#ffffff" stroke="#bfbfbf" points="0,-.5 0,-19.5 56,-19.5 56,-.5 0,-.5"/>
<text text-anchor="middle" x="28" y="-7.5" font-family="Helvetica,sans-Serif" font-size="10.00" fill="#000000">sstream</text>
</a>
</g>
</g>
<!-- Node9&#45;&gt;Node12 -->
<g id="edge14" class="edge">
<title>Node9&#45;&gt;Node12</title>
<path fill="none" stroke="#191970" d="M138.1365,-56.3733C116.595,-47.3032 84.1162,-33.6279 60.0044,-23.4755"/>
<polygon fill="#191970" stroke="#191970" points="61.1397,-20.156 50.5652,-19.5011 58.4233,-26.6075 61.1397,-20.156"/>
</g>
<!-- Node13 -->
<g id="node13" class="node">
<title>Node13</title>
<g id="a_node13"><a xlink:title=" ">
<polygon fill="#ffffff" stroke="#bfbfbf" points="74,-.5 74,-19.5 118,-19.5 118,-.5 74,-.5"/>
<text text-anchor="middle" x="96" y="-7.5" font-family="Helvetica,sans-Serif" font-size="10.00" fill="#000000">limits</text>
</a>
</g>
</g>
<!-- Node9&#45;&gt;Node13 -->
<g id="edge15" class="edge">
<title>Node9&#45;&gt;Node13</title>
<path fill="none" stroke="#191970" d="M149.6779,-56.2455C140.0777,-47.9746 126.1108,-35.9416 114.8305,-26.2232"/>
<polygon fill="#191970" stroke="#191970" points="117.053,-23.5182 107.1924,-19.6427 112.484,-28.8214 117.053,-23.5182"/>
</g>
<!-- Node15 -->
<g id="node15" class="node">
<title>Node15</title>
<g id="a_node15"><a xlink:href="sitkCommon_8h.html" target="_top" xlink:title=" ">
<polygon fill="#ffffff" stroke="#000000" points="34,-112.5 34,-131.5 122,-131.5 122,-112.5 34,-112.5"/>
<text text-anchor="middle" x="78" y="-119.5" font-family="Helvetica,sans-Serif" font-size="10.00" fill="#000000">sitkCommon.h</text>
</a>
</g>
</g>
<!-- Node14&#45;&gt;Node15 -->
<g id="edge18" class="edge">
<title>Node14&#45;&gt;Node15</title>
<path fill="none" stroke="#191970" d="M73.0451,-168.2455C73.828,-160.9382 74.9256,-150.6944 75.8888,-141.7046"/>
<polygon fill="#191970" stroke="#191970" points="79.3815,-141.9587 76.9669,-131.6427 72.4214,-141.2129 79.3815,-141.9587"/>
</g>
<!-- Node15&#45;&gt;Node9 -->
<g id="edge19" class="edge">
<title>Node15&#45;&gt;Node9</title>
<path fill="none" stroke="#191970" d="M92.4575,-112.2455C105.0732,-103.7337 123.5944,-91.2375 138.2045,-81.3801"/>
<polygon fill="#191970" stroke="#191970" points="140.3761,-84.1371 146.7082,-75.6427 136.4609,-78.3343 140.3761,-84.1371"/>
</g>
</g>
</svg>
        <g id="navigator" transform="translate(0 0)" fill="#404254">
                <rect fill="#f2f5e9" fill-opacity="0.5" stroke="#606060" stroke-width=".5" x="0" y="0" width="60" height="60"/>
                <use id="zoomplus" xlink:href="#zoomPlus" x="17" y="9" onmousedown="handleZoom(evt,'in')"/>
                <use id="zoomminus" xlink:href="#zoomMin" x="42" y="9" onmousedown="handleZoom(evt,'out')"/>
                <use id="reset" xlink:href="#resetDef" x="30" y="36" onmousedown="handleReset()"/>
                <g id="arrowUp" xlink:href="#dirArrow" transform="translate(30 24)" onmousedown="handlePan(0,-1)">
                  <use xlink:href="#rim" fill="#404040">
                        <set attributeName="fill" to="#808080" begin="arrowUp.mouseover" end="arrowUp.mouseout"/>
                  </use>
                  <path fill="none" stroke="white" stroke-width="1.5" d="M0,-3.0v7 M-2.5,-0.5L0,-3.0L2.5,-0.5"/>
                </g>
                <g id="arrowRight" xlink:href="#dirArrow" transform="rotate(90) translate(36 -43)" onmousedown="handlePan(1,0)">
                  <use xlink:href="#rim" fill="#404040">
                        <set attributeName="fill" to="#808080" begin="arrowRight.mouseover" end="arrowRight.mouseout"/>
                  </use>
                  <path fill="none" stroke="white" stroke-width="1.5" d="M0,-3.0v7 M-2.5,-0.5L0,-3.0L2.5,-0.5"/>
                </g>
                <g id="arrowDown" xlink:href="#dirArrow" transform="rotate(180) translate(-30 -48)" onmousedown="handlePan(0,1)">
                  <use xlink:href="#rim" fill="#404040">
                        <set attributeName="fill" to="#808080" begin="arrowDown.mouseover" end="arrowDown.mouseout"/>
                  </use>
                  <path fill="none" stroke="white" stroke-width="1.5" d="M0,-3.0v7 M-2.5,-0.5L0,-3.0L2.5,-0.5"/>
                </g>
                <g id="arrowLeft" xlink:href="#dirArrow" transform="rotate(270) translate(-36 17)" onmousedown="handlePan(-1,0)">
                  <use xlink:href="#rim" fill="#404040">
                        <set attributeName="fill" to="#808080" begin="arrowLeft.mouseover" end="arrowLeft.mouseout"/>
                  </use>
                  <path fill="none" stroke="white" stroke-width="1.5" d="M0,-3.0v7 M-2.5,-0.5L0,-3.0L2.5,-0.5"/>
                </g>
        </g>
        <svg viewBox="0 0 15 15" width="100%" height="30px" preserveAspectRatio="xMaxYMin meet">
         <g id="arrow_out" transform="scale(0.3 0.3)">
          <a xlink:href="sitkDetail_8h__incl_org.svg" target="_base">
           <rect id="button" ry="5" rx="5" y="6" x="6" height="38" width="38"
                fill="#f2f5e9" fill-opacity="0.5" stroke="#606060" stroke-width="1.0"/>
           <path id="arrow"
             d="M 11.500037,31.436501 C 11.940474,20.09759 22.043105,11.32322 32.158766,21.979434 L 37.068811,17.246167 C 37.068811,17.246167 37.088388,32 37.088388,32 L 22.160133,31.978069 C 22.160133,31.978069 26.997745,27.140456 26.997745,27.140456 C 18.528582,18.264221 13.291696,25.230495 11.500037,31.436501 z"
             style="fill:#404040;"/>
          </a>
         </g>
        </svg>
</svg>
