<?xml version="1.0" encoding="UTF-8" standalone="no"?>
<!DOCTYPE svg PUBLIC "-//W3C//DTD SVG 1.1//EN"
 "http://www.w3.org/Graphics/SVG/1.1/DTD/svg11.dtd">
<!-- Generated by graphviz version 2.40.1 (20161225.0304)
 -->
<!-- Title: sitkConfigure.h Pages: 1 -->
<svg width="4624pt" height="453pt"
 viewBox="0.00 0.00 4624.05 453.00" xmlns="http://www.w3.org/2000/svg" xmlns:xlink="http://www.w3.org/1999/xlink">
<g id="graph0" class="graph" transform="scale(1 1) rotate(0) translate(4 449)">
<title>sitkConfigure.h</title>
<polygon fill="#ffffff" stroke="transparent" points="-4,4 -4,-449 4620.0539,-449 4620.0539,4 -4,4"/>
<!-- Node1 -->
<g id="node1" class="node">
<title>Node1</title>
<g id="a_node1"><a xlink:title=" ">
<polygon fill="#bfbfbf" stroke="#000000" points="626.4824,-425.5 626.4824,-444.5 716.4824,-444.5 716.4824,-425.5 626.4824,-425.5"/>
<text text-anchor="middle" x="671.4824" y="-432.5" font-family="Helvetica,sans-Serif" font-size="10.00" fill="#000000">sitkConfigure.h</text>
</a>
</g>
</g>
<!-- Node2 -->
<g id="node2" class="node">
<title>Node2</title>
<g id="a_node2"><a xlink:href="sitkMacro_8h.html" target="_top" xlink:title=" ">
<polygon fill="#ffffff" stroke="#000000" points="560.9824,-369.5 560.9824,-388.5 633.9824,-388.5 633.9824,-369.5 560.9824,-369.5"/>
<text text-anchor="middle" x="597.4824" y="-376.5" font-family="Helvetica,sans-Serif" font-size="10.00" fill="#000000">sitkMacro.h</text>
</a>
</g>
</g>
<!-- Node1&#45;&gt;Node2 -->
<g id="edge1" class="edge">
<title>Node1&#45;&gt;Node2</title>
<path fill="none" stroke="#191970" d="M650.6166,-419.2097C637.6198,-409.3743 621.3202,-397.0394 610.2245,-388.6427"/>
<polygon fill="#191970" stroke="#191970" points="648.5064,-422.002 658.5925,-425.2455 652.7305,-416.4201 648.5064,-422.002"/>
</g>
<!-- Node307 -->
<g id="node30" class="node">
<title>Node307</title>
<g id="a_node30"><a xlink:href="sitkMemberFunctionFactoryBase_8h.html" target="_top" xlink:title=" ">
<polygon fill="#ffffff" stroke="#000000" points="801.4824,-302.5 801.4824,-332.5 951.4824,-332.5 951.4824,-302.5 801.4824,-302.5"/>
<text text-anchor="start" x="809.4824" y="-320.5" font-family="Helvetica,sans-Serif" font-size="10.00" fill="#000000">sitkMemberFunctionFactory</text>
<text text-anchor="middle" x="876.4824" y="-309.5" font-family="Helvetica,sans-Serif" font-size="10.00" fill="#000000">Base.h</text>
</a>
</g>
</g>
<!-- Node1&#45;&gt;Node307 -->
<g id="edge123" class="edge">
<title>Node1&#45;&gt;Node307</title>
<path fill="none" stroke="#191970" d="M699.6307,-420.8923C717.0312,-412.0223 739.7357,-400.1782 759.4824,-389 792.214,-370.4712 829.1102,-347.5781 852.5622,-332.7659"/>
<polygon fill="#191970" stroke="#191970" points="697.8978,-417.8467 690.5619,-425.4911 701.0637,-424.0899 697.8978,-417.8467"/>
</g>
<!-- Node347 -->
<g id="node46" class="node">
<title>Node347</title>
<g id="a_node46"><a xlink:href="sitkPixelIDTokens_8h.html" target="_top" xlink:title=" ">
<polygon fill="#ffffff" stroke="#000000" points="530.4824,-190.5 530.4824,-209.5 642.4824,-209.5 642.4824,-190.5 530.4824,-190.5"/>
<text text-anchor="middle" x="586.4824" y="-197.5" font-family="Helvetica,sans-Serif" font-size="10.00" fill="#000000">sitkPixelIDTokens.h</text>
</a>
</g>
</g>
<!-- Node1&#45;&gt;Node347 -->
<g id="edge128" class="edge">
<title>Node1&#45;&gt;Node347</title>
<path fill="none" stroke="#191970" d="M680.3442,-415.9721C695.8148,-379.6709 722.9764,-299.3957 688.4824,-246 676.4129,-227.3168 654.7352,-216.1442 634.4586,-209.5012"/>
<polygon fill="#191970" stroke="#191970" points="677.0315,-414.8085 676.175,-425.3687 683.43,-417.6475 677.0315,-414.8085"/>
</g>
<!-- Node374 -->
<g id="node50" class="node">
<title>Node374</title>
<g id="a_node50"><a xlink:href="sitkPixelIDTypeLists_8h.html" target="_top" xlink:title=" ">
<polygon fill="#ffffff" stroke="#000000" points="373.9824,-369.5 373.9824,-388.5 496.9824,-388.5 496.9824,-369.5 373.9824,-369.5"/>
<text text-anchor="middle" x="435.4824" y="-376.5" font-family="Helvetica,sans-Serif" font-size="10.00" fill="#000000">sitkPixelIDTypeLists.h</text>
</a>
</g>
</g>
<!-- Node1&#45;&gt;Node374 -->
<g id="edge124" class="edge">
<title>Node1&#45;&gt;Node374</title>
<path fill="none" stroke="#191970" d="M621.3849,-423.1125C577.9339,-412.8021 515.8626,-398.0733 475.6178,-388.5237"/>
<polygon fill="#191970" stroke="#191970" points="620.6427,-426.5335 631.1807,-425.4369 622.2589,-419.7226 620.6427,-426.5335"/>
</g>
<!-- Node3 -->
<g id="node3" class="node">
<title>Node3</title>
<g id="a_node3"><a xlink:href="sitkBasicFilters_8h.html" target="_top" xlink:title=" ">
<polygon fill="#ffffff" stroke="#ff0000" points="2623.9824,-190.5 2623.9824,-209.5 2722.9824,-209.5 2722.9824,-190.5 2623.9824,-190.5"/>
<text text-anchor="middle" x="2673.4824" y="-197.5" font-family="Helvetica,sans-Serif" font-size="10.00" fill="#000000">sitkBasicFilters.h</text>
</a>
</g>
</g>
<!-- Node2&#45;&gt;Node3 -->
<g id="edge2" class="edge">
<title>Node2&#45;&gt;Node3</title>
<path fill="none" stroke="#191970" d="M644.1823,-377.9016C836.0475,-373.2809 1564.3226,-354.656 1793.4824,-333 2111.5206,-302.9449 2489.8286,-234.6872 2623.6176,-209.5363"/>
<polygon fill="#191970" stroke="#191970" points="644.0564,-374.4035 634.1432,-378.1423 644.2243,-381.4015 644.0564,-374.4035"/>
</g>
<!-- Node5 -->
<g id="node5" class="node">
<title>Node5</title>
<g id="a_node5"><a xlink:href="SimpleITK_8h.html" target="_top" xlink:title=" ">
<polygon fill="#ffffff" stroke="#000000" points="1051.9824,-.5 1051.9824,-19.5 1126.9824,-19.5 1126.9824,-.5 1051.9824,-.5"/>
<text text-anchor="middle" x="1089.4824" y="-7.5" font-family="Helvetica,sans-Serif" font-size="10.00" fill="#000000">SimpleITK.h</text>
</a>
</g>
</g>
<!-- Node2&#45;&gt;Node5 -->
<g id="edge60" class="edge">
<title>Node2&#45;&gt;Node5</title>
<path fill="none" stroke="#191970" d="M644.3747,-378.8381C1093.2506,-377.14 4613.4824,-360.4921 4613.4824,-256 4613.4824,-256 4613.4824,-256 4613.4824,-138.5 4613.4824,-100.8735 4623.7685,-79.6236 4594.4824,-56 4558.9205,-27.3141 1503.119,-11.9563 1127.2468,-10.1752"/>
<polygon fill="#191970" stroke="#191970" points="644.0355,-375.3392 634.0486,-378.8765 644.0616,-382.3392 644.0355,-375.3392"/>
</g>
<!-- Node7 -->
<g id="node7" class="node">
<title>Node7</title>
<g id="a_node7"><a xlink:href="sitkImageFilter_8h.html" target="_top" xlink:title=" ">
<polygon fill="#ffffff" stroke="#ff0000" points="2624.4824,-129 2624.4824,-148 2722.4824,-148 2722.4824,-129 2624.4824,-129"/>
<text text-anchor="middle" x="2673.4824" y="-136" font-family="Helvetica,sans-Serif" font-size="10.00" fill="#000000">sitkImageFilter.h</text>
</a>
</g>
</g>
<!-- Node2&#45;&gt;Node7 -->
<g id="edge58" class="edge">
<title>Node2&#45;&gt;Node7</title>
<path fill="none" stroke="#191970" d="M644.463,-378.2277C774.3253,-375.7181 1149.0127,-365.9446 1458.4824,-333 1915.7227,-284.3245 2463.0283,-179.9963 2625.6826,-148.0158"/>
<polygon fill="#191970" stroke="#191970" points="644.0305,-374.7351 634.0981,-378.4224 644.1621,-381.7338 644.0305,-374.7351"/>
</g>
<!-- Node10 -->
<g id="node10" class="node">
<title>Node10</title>
<g id="a_node10"><a xlink:href="sitkHashImageFilter_8h.html" target="_top" xlink:title=" ">
<polygon fill="#ffffff" stroke="#000000" points="1270.4824,-62 1270.4824,-81 1392.4824,-81 1392.4824,-62 1270.4824,-62"/>
<text text-anchor="middle" x="1331.4824" y="-69" font-family="Helvetica,sans-Serif" font-size="10.00" fill="#000000">sitkHashImageFilter.h</text>
</a>
</g>
</g>
<!-- Node2&#45;&gt;Node10 -->
<g id="edge59" class="edge">
<title>Node2&#45;&gt;Node10</title>
<path fill="none" stroke="#191970" d="M644.2213,-377.1848C821.7776,-369.6784 1444.4824,-337.5402 1444.4824,-256 1444.4824,-256 1444.4824,-256 1444.4824,-200 1444.4824,-143.1093 1381.2505,-99.4272 1349.3875,-81.0269"/>
<polygon fill="#191970" stroke="#191970" points="643.9944,-373.6911 634.1488,-377.6042 644.2858,-380.685 643.9944,-373.6911"/>
</g>
<!-- Node2&#45;&gt;Node307 -->
<g id="edge61" class="edge">
<title>Node2&#45;&gt;Node307</title>
<path fill="none" stroke="#191970" d="M644.2832,-368.6837C689.1479,-358.7942 757.3817,-343.7534 808.2881,-332.5321"/>
<polygon fill="#191970" stroke="#191970" points="643.2558,-365.3261 634.2436,-370.8967 644.7626,-372.162 643.2558,-365.3261"/>
</g>
<!-- Node328 -->
<g id="node33" class="node">
<title>Node328</title>
<g id="a_node33"><a xlink:href="sitkImageFileReader_8h.html" target="_top" xlink:title=" ">
<polygon fill="#ffffff" stroke="#000000" points="661.4824,-62 661.4824,-81 785.4824,-81 785.4824,-62 661.4824,-62"/>
<text text-anchor="middle" x="723.4824" y="-69" font-family="Helvetica,sans-Serif" font-size="10.00" fill="#000000">sitkImageFileReader.h</text>
</a>
</g>
</g>
<!-- Node2&#45;&gt;Node328 -->
<g id="edge113" class="edge">
<title>Node2&#45;&gt;Node328</title>
<path fill="none" stroke="#191970" d="M618.9474,-363.1654C629.2516,-354.9027 641.318,-344.1957 650.4824,-333 672.1665,-306.5095 676.8407,-298.1935 688.4824,-266 713.1007,-197.921 720.914,-109.935 722.9002,-81.106"/>
<polygon fill="#191970" stroke="#191970" points="616.5584,-360.5892 610.8087,-369.4882 620.8529,-366.1171 616.5584,-360.5892"/>
</g>
<!-- Node331 -->
<g id="node34" class="node">
<title>Node331</title>
<g id="a_node34"><a xlink:href="sitkImageFileWriter_8h.html" target="_top" xlink:title=" ">
<polygon fill="#ffffff" stroke="#000000" points="181.9824,-62 181.9824,-81 300.9824,-81 300.9824,-62 181.9824,-62"/>
<text text-anchor="middle" x="241.4824" y="-69" font-family="Helvetica,sans-Serif" font-size="10.00" fill="#000000">sitkImageFileWriter.h</text>
</a>
</g>
</g>
<!-- Node2&#45;&gt;Node331 -->
<g id="edge117" class="edge">
<title>Node2&#45;&gt;Node331</title>
<path fill="none" stroke="#191970" d="M550.9684,-373.7366C460.9573,-363.4065 270.6739,-340.8053 258.4824,-333 224.3199,-311.1286 209.4824,-296.5639 209.4824,-256 209.4824,-256 209.4824,-256 209.4824,-200 209.4824,-154.4791 228.6249,-102.5039 237.2989,-81.2893"/>
<polygon fill="#191970" stroke="#191970" points="550.5795,-377.2148 560.9127,-374.8747 551.3755,-370.2602 550.5795,-377.2148"/>
</g>
<!-- Node329 -->
<g id="node35" class="node">
<title>Node329</title>
<g id="a_node35"><a xlink:href="sitkImageSeriesReader_8h.html" target="_top" xlink:title=" ">
<polygon fill="#ffffff" stroke="#000000" points="505.9824,-62 505.9824,-81 642.9824,-81 642.9824,-62 505.9824,-62"/>
<text text-anchor="middle" x="574.4824" y="-69" font-family="Helvetica,sans-Serif" font-size="10.00" fill="#000000">sitkImageSeriesReader.h</text>
</a>
</g>
</g>
<!-- Node2&#45;&gt;Node329 -->
<g id="edge118" class="edge">
<title>Node2&#45;&gt;Node329</title>
<path fill="none" stroke="#191970" d="M550.6463,-372.8931C492.4851,-364.7653 397.0757,-349.4886 365.4824,-333 321.7329,-310.1671 285.4824,-305.3493 285.4824,-256 285.4824,-256 285.4824,-256 285.4824,-200 285.4824,-164.7513 278.9007,-147.2497 304.4824,-123 319.0281,-109.2116 430.7619,-91.3413 505.86,-80.6847"/>
<polygon fill="#191970" stroke="#191970" points="550.3135,-376.3802 560.6978,-374.2785 551.2694,-369.4458 550.3135,-376.3802"/>
</g>
<!-- Node332 -->
<g id="node36" class="node">
<title>Node332</title>
<g id="a_node36"><a xlink:href="sitkImageSeriesWriter_8h.html" target="_top" xlink:title=" ">
<polygon fill="#ffffff" stroke="#000000" points="30.9824,-62 30.9824,-81 163.9824,-81 163.9824,-62 30.9824,-62"/>
<text text-anchor="middle" x="97.4824" y="-69" font-family="Helvetica,sans-Serif" font-size="10.00" fill="#000000">sitkImageSeriesWriter.h</text>
</a>
</g>
</g>
<!-- Node2&#45;&gt;Node332 -->
<g id="edge119" class="edge">
<title>Node2&#45;&gt;Node332</title>
<path fill="none" stroke="#191970" d="M550.5559,-373.8824C536.1009,-372.3105 520.1358,-370.5791 505.4824,-369 430.6009,-360.9308 235.641,-367.0891 168.4824,-333 127.2411,-312.0663 98.4824,-302.25 98.4824,-256 98.4824,-256 98.4824,-256 98.4824,-200 98.4824,-155.6037 97.8781,-102.5819 97.609,-81.1717"/>
<polygon fill="#191970" stroke="#191970" points="550.4542,-377.3919 560.7742,-374.9943 551.2115,-370.433 550.4542,-377.3919"/>
</g>
<!-- Node330 -->
<g id="node37" class="node">
<title>Node330</title>
<g id="a_node37"><a xlink:href="sitkImportImageFilter_8h.html" target="_top" xlink:title=" ">
<polygon fill="#ffffff" stroke="#000000" points="319.4824,-62 319.4824,-81 449.4824,-81 449.4824,-62 319.4824,-62"/>
<text text-anchor="middle" x="384.4824" y="-69" font-family="Helvetica,sans-Serif" font-size="10.00" fill="#000000">sitkImportImageFilter.h</text>
</a>
</g>
</g>
<!-- Node2&#45;&gt;Node330 -->
<g id="edge120" class="edge">
<title>Node2&#45;&gt;Node330</title>
<path fill="none" stroke="#191970" d="M550.727,-373.676C473.1348,-364.5465 324.2069,-345.6665 303.4824,-333 267.3763,-310.9326 247.4824,-298.3157 247.4824,-256 247.4824,-256 247.4824,-256 247.4824,-200 247.4824,-162.4083 256.4506,-150.1198 282.4824,-123 301.8518,-102.821 330.8273,-89.2474 352.9513,-81.1244"/>
<polygon fill="#191970" stroke="#191970" points="550.39,-377.1603 560.7288,-374.8452 551.2028,-370.2077 550.39,-377.1603"/>
</g>
<!-- Node338 -->
<g id="node41" class="node">
<title>Node338</title>
<g id="a_node41"><a xlink:href="sitkCommon_8h.html" target="_top" xlink:title=" ">
<polygon fill="#ffffff" stroke="#ff0000" points="553.4824,-308 553.4824,-327 641.4824,-327 641.4824,-308 553.4824,-308"/>
<text text-anchor="middle" x="597.4824" y="-315" font-family="Helvetica,sans-Serif" font-size="10.00" fill="#000000">sitkCommon.h</text>
</a>
</g>
</g>
<!-- Node2&#45;&gt;Node338 -->
<g id="edge96" class="edge">
<title>Node2&#45;&gt;Node338</title>
<path fill="none" stroke="#191970" d="M597.4824,-359.2462C597.4824,-348.5519 597.4824,-335.814 597.4824,-327.2449"/>
<polygon fill="#191970" stroke="#191970" points="593.9825,-359.3906 597.4824,-369.3906 600.9825,-359.3907 593.9825,-359.3906"/>
</g>
<!-- Node343 -->
<g id="node42" class="node">
<title>Node343</title>
<g id="a_node42"><a xlink:href="sitkTemplateFunctions_8h.html" target="_top" xlink:title=" ">
<polygon fill="#ffffff" stroke="#ff0000" points="340.4824,-190.5 340.4824,-209.5 474.4824,-209.5 474.4824,-190.5 340.4824,-190.5"/>
<text text-anchor="middle" x="407.4824" y="-197.5" font-family="Helvetica,sans-Serif" font-size="10.00" fill="#000000">sitkTemplateFunctions.h</text>
</a>
</g>
</g>
<!-- Node2&#45;&gt;Node343 -->
<g id="edge110" class="edge">
<title>Node2&#45;&gt;Node343</title>
<path fill="none" stroke="#191970" d="M550.6321,-375.6238C487.5097,-368.1178 378.8662,-343.9299 342.4824,-266 331.1205,-241.6643 362.2432,-220.9926 385.2565,-209.5607"/>
<polygon fill="#191970" stroke="#191970" points="550.4092,-379.1203 560.7306,-376.7287 551.1706,-372.1618 550.4092,-379.1203"/>
</g>
<!-- Node345 -->
<g id="node44" class="node">
<title>Node345</title>
<g id="a_node44"><a xlink:href="sitkExceptionObject_8h.html" target="_top" xlink:title=" ">
<polygon fill="#ffffff" stroke="#ff0000" points="351.9824,-246.5 351.9824,-265.5 474.9824,-265.5 474.9824,-246.5 351.9824,-246.5"/>
<text text-anchor="middle" x="413.4824" y="-253.5" font-family="Helvetica,sans-Serif" font-size="10.00" fill="#000000">sitkExceptionObject.h</text>
</a>
</g>
</g>
<!-- Node2&#45;&gt;Node345 -->
<g id="edge111" class="edge">
<title>Node2&#45;&gt;Node345</title>
<path fill="none" stroke="#191970" d="M550.936,-369.3421C512.5705,-360.5805 462.0304,-346.9368 446.4824,-333 426.1219,-314.7496 417.8688,-281.7778 414.9208,-265.5493"/>
<polygon fill="#191970" stroke="#191970" points="550.373,-372.8026 560.8959,-371.5707 551.9015,-365.9715 550.373,-372.8026"/>
</g>
<!-- Node353 -->
<g id="node47" class="node">
<title>Node353</title>
<g id="a_node47"><a xlink:href="sitkExplicit_8h.html" target="_top" xlink:title=" ">
<polygon fill="#ffffff" stroke="#ff0000" points="455.4824,-308 455.4824,-327 535.4824,-327 535.4824,-308 455.4824,-308"/>
<text text-anchor="middle" x="495.4824" y="-315" font-family="Helvetica,sans-Serif" font-size="10.00" fill="#000000">sitkExplicit.h</text>
</a>
</g>
</g>
<!-- Node2&#45;&gt;Node353 -->
<g id="edge112" class="edge">
<title>Node2&#45;&gt;Node353</title>
<path fill="none" stroke="#191970" d="M572.7727,-364.1015C553.6472,-352.57 527.7326,-336.945 511.3079,-327.0419"/>
<polygon fill="#191970" stroke="#191970" points="571.1738,-367.2244 581.5449,-369.3906 574.7883,-361.2298 571.1738,-367.2244"/>
</g>
<!-- Node372 -->
<g id="node48" class="node">
<title>Node372</title>
<g id="a_node48"><a xlink:href="sitkIO_8h.html" target="_top" xlink:title=" ">
<polygon fill="#ffffff" stroke="#ff0000" points="127.9824,-129 127.9824,-148 180.9824,-148 180.9824,-129 127.9824,-129"/>
<text text-anchor="middle" x="154.4824" y="-136" font-family="Helvetica,sans-Serif" font-size="10.00" fill="#000000">sitkIO.h</text>
</a>
</g>
</g>
<!-- Node2&#45;&gt;Node372 -->
<g id="edge114" class="edge">
<title>Node2&#45;&gt;Node372</title>
<path fill="none" stroke="#191970" d="M550.8645,-373.8424C445.3299,-362.1435 197.1182,-334.4891 195.4824,-333 140.6158,-283.054 148.9891,-179.8135 153.0785,-148.0254"/>
<polygon fill="#191970" stroke="#191970" points="550.5936,-377.3337 560.9183,-374.9565 551.3646,-370.3763 550.5936,-377.3337"/>
</g>
<!-- Node373 -->
<g id="node49" class="node">
<title>Node373</title>
<g id="a_node49"><a xlink:href="sitkRegistration_8h.html" target="_top" xlink:title=" ">
<polygon fill="#ffffff" stroke="#000000" points="773.4824,-246.5 773.4824,-265.5 875.4824,-265.5 875.4824,-246.5 773.4824,-246.5"/>
<text text-anchor="middle" x="824.4824" y="-253.5" font-family="Helvetica,sans-Serif" font-size="10.00" fill="#000000">sitkRegistration.h</text>
</a>
</g>
</g>
<!-- Node2&#45;&gt;Node373 -->
<g id="edge121" class="edge">
<title>Node2&#45;&gt;Node373</title>
<path fill="none" stroke="#191970" d="M624.9202,-364.4019C641.8251,-355.3884 663.9328,-343.5661 683.4824,-333 728.1396,-308.8637 780.5658,-280.1279 807.1432,-265.5318"/>
<polygon fill="#191970" stroke="#191970" points="622.8063,-361.5623 615.6267,-369.3536 626.098,-367.7401 622.8063,-361.5623"/>
</g>
<!-- Node4 -->
<g id="node4" class="node">
<title>Node4</title>
<g id="a_node4"><a xlink:href="sitkAdditionalProcedures_8h.html" target="_top" xlink:title=" ">
<polygon fill="#ffffff" stroke="#000000" points="1066.9824,-62 1066.9824,-81 1213.9824,-81 1213.9824,-62 1066.9824,-62"/>
<text text-anchor="middle" x="1140.4824" y="-69" font-family="Helvetica,sans-Serif" font-size="10.00" fill="#000000">sitkAdditionalProcedures.h</text>
</a>
</g>
</g>
<!-- Node3&#45;&gt;Node4 -->
<g id="edge3" class="edge">
<title>Node3&#45;&gt;Node4</title>
<path fill="none" stroke="#191970" d="M2613.8006,-198.5011C2418.4458,-193.4281 1799.278,-175.9869 1600.4824,-154 1445.2434,-136.8305 1263.3699,-98.8341 1182.695,-81.0407"/>
<polygon fill="#191970" stroke="#191970" points="2613.7878,-202.0018 2623.8749,-198.7615 2613.9687,-195.0041 2613.7878,-202.0018"/>
</g>
<!-- Node6 -->
<g id="node6" class="node">
<title>Node6</title>
<g id="a_node6"><a xlink:href="sitkBSplineTransformInitializerFilter_8h.html" target="_top" xlink:title=" ">
<polygon fill="#ffffff" stroke="#000000" points="1548.4824,-56.5 1548.4824,-86.5 1714.4824,-86.5 1714.4824,-56.5 1548.4824,-56.5"/>
<text text-anchor="start" x="1556.4824" y="-74.5" font-family="Helvetica,sans-Serif" font-size="10.00" fill="#000000">sitkBSplineTransformInitializer</text>
<text text-anchor="middle" x="1631.4824" y="-63.5" font-family="Helvetica,sans-Serif" font-size="10.00" fill="#000000">Filter.h</text>
</a>
</g>
</g>
<!-- Node3&#45;&gt;Node6 -->
<g id="edge5" class="edge">
<title>Node3&#45;&gt;Node6</title>
<path fill="none" stroke="#191970" d="M2613.479,-198.8675C2495.9992,-195.9904 2227.6295,-186.1665 2004.4824,-154 1890.5909,-137.5826 1759.7479,-105.5243 1687.2438,-86.5667"/>
<polygon fill="#191970" stroke="#191970" points="2613.6182,-202.3717 2623.6983,-199.1094 2613.784,-195.3736 2613.6182,-202.3717"/>
</g>
<!-- Node3&#45;&gt;Node7 -->
<g id="edge7" class="edge">
<title>Node3&#45;&gt;Node7</title>
<path fill="none" stroke="#191970" d="M2673.4824,-180.2462C2673.4824,-169.5519 2673.4824,-156.814 2673.4824,-148.2449"/>
<polygon fill="#191970" stroke="#191970" points="2669.9825,-180.3906 2673.4824,-190.3906 2676.9825,-180.3907 2669.9825,-180.3906"/>
</g>
<!-- Node9 -->
<g id="node9" class="node">
<title>Node9</title>
<g id="a_node9"><a xlink:href="sitkExtractImageFilter_8h.html" target="_top" xlink:title=" ">
<polygon fill="#ffffff" stroke="#000000" points="1732.4824,-62 1732.4824,-81 1864.4824,-81 1864.4824,-62 1732.4824,-62"/>
<text text-anchor="middle" x="1798.4824" y="-69" font-family="Helvetica,sans-Serif" font-size="10.00" fill="#000000">sitkExtractImageFilter.h</text>
</a>
</g>
</g>
<!-- Node3&#45;&gt;Node9 -->
<g id="edge39" class="edge">
<title>Node3&#45;&gt;Node9</title>
<path fill="none" stroke="#191970" d="M2613.606,-197.3285C2517.1008,-192.4258 2321.3913,-180.0141 2157.4824,-154 2036.8459,-134.8537 1896.3822,-98.3532 1832.8302,-81.0521"/>
<polygon fill="#191970" stroke="#191970" points="2613.5917,-200.8321 2623.7537,-197.8348 2613.9406,-193.8408 2613.5917,-200.8321"/>
</g>
<!-- Node3&#45;&gt;Node10 -->
<g id="edge40" class="edge">
<title>Node3&#45;&gt;Node10</title>
<path fill="none" stroke="#191970" d="M2613.4955,-198.7182C2475.8313,-195.3365 2126.7386,-184.2556 1836.4824,-154 1641.9234,-133.7196 1593.7444,-123.053 1401.4824,-87 1392.0623,-85.2335 1381.9761,-83.1274 1372.4767,-81.0458"/>
<polygon fill="#191970" stroke="#191970" points="2613.7381,-202.225 2623.8196,-198.967 2613.9069,-195.227 2613.7381,-202.225"/>
</g>
<!-- Node11 -->
<g id="node11" class="node">
<title>Node11</title>
<g id="a_node11"><a xlink:href="sitkLandmarkBasedTransformInitializerFilter_8h.html" target="_top" xlink:title=" ">
<polygon fill="#ffffff" stroke="#000000" points="1882.4824,-56.5 1882.4824,-86.5 2044.4824,-86.5 2044.4824,-56.5 1882.4824,-56.5"/>
<text text-anchor="start" x="1890.4824" y="-74.5" font-family="Helvetica,sans-Serif" font-size="10.00" fill="#000000">sitkLandmarkBasedTransform</text>
<text text-anchor="middle" x="1963.4824" y="-63.5" font-family="Helvetica,sans-Serif" font-size="10.00" fill="#000000">InitializerFilter.h</text>
</a>
</g>
</g>
<!-- Node3&#45;&gt;Node11 -->
<g id="edge41" class="edge">
<title>Node3&#45;&gt;Node11</title>
<path fill="none" stroke="#191970" d="M2613.6856,-194.7287C2540.0902,-187.7492 2411.4739,-173.9504 2302.4824,-154 2200.5972,-135.3504 2083.5684,-104.8055 2017.0864,-86.5777"/>
<polygon fill="#191970" stroke="#191970" points="2613.414,-198.2185 2623.6973,-195.6682 2614.068,-191.2491 2613.414,-198.2185"/>
</g>
<!-- Node12 -->
<g id="node12" class="node">
<title>Node12</title>
<g id="a_node12"><a xlink:href="sitkPasteImageFilter_8h.html" target="_top" xlink:title=" ">
<polygon fill="#ffffff" stroke="#000000" points="2062.4824,-62 2062.4824,-81 2186.4824,-81 2186.4824,-62 2062.4824,-62"/>
<text text-anchor="middle" x="2124.4824" y="-69" font-family="Helvetica,sans-Serif" font-size="10.00" fill="#000000">sitkPasteImageFilter.h</text>
</a>
</g>
</g>
<!-- Node3&#45;&gt;Node12 -->
<g id="edge42" class="edge">
<title>Node3&#45;&gt;Node12</title>
<path fill="none" stroke="#191970" d="M2614.0458,-190.7083C2562.7839,-182.3237 2486.9055,-169.0253 2421.4824,-154 2323.4272,-131.4803 2209.2165,-97.5436 2155.4605,-81.1037"/>
<polygon fill="#191970" stroke="#191970" points="2613.5277,-194.1699 2623.9596,-192.3187 2614.6502,-187.2605 2613.5277,-194.1699"/>
</g>
<!-- Node13 -->
<g id="node13" class="node">
<title>Node13</title>
<g id="a_node13"><a xlink:href="sitkAbsImageFilter_8h.html" target="_top" xlink:title=" ">
<polygon fill="#ffffff" stroke="#ff0000" points="2204.4824,-62 2204.4824,-81 2320.4824,-81 2320.4824,-62 2204.4824,-62"/>
<text text-anchor="middle" x="2262.4824" y="-69" font-family="Helvetica,sans-Serif" font-size="10.00" fill="#000000">sitkAbsImageFilter.h</text>
</a>
</g>
</g>
<!-- Node3&#45;&gt;Node13 -->
<g id="edge43" class="edge">
<title>Node3&#45;&gt;Node13</title>
<path fill="none" stroke="#191970" d="M2630.4962,-187.6525C2599.114,-178.5584 2555.5778,-165.7769 2517.4824,-154 2435.0195,-128.5072 2338.1734,-96.6417 2291.0863,-81.0242"/>
<polygon fill="#191970" stroke="#191970" points="2629.6571,-191.0532 2640.2359,-190.4696 2631.6022,-184.3288 2629.6571,-191.0532"/>
</g>
<!-- Node16 -->
<g id="node14" class="node">
<title>Node16</title>
<g id="a_node14"><a xlink:href="sitkAbsoluteValueDifferenceImageFilter_8h.html" target="_top" xlink:title=" ">
<polygon fill="#ffffff" stroke="#ff0000" points="2338.9824,-56.5 2338.9824,-86.5 2493.9824,-86.5 2493.9824,-56.5 2338.9824,-56.5"/>
<text text-anchor="start" x="2346.9824" y="-74.5" font-family="Helvetica,sans-Serif" font-size="10.00" fill="#000000">sitkAbsoluteValueDifference</text>
<text text-anchor="middle" x="2416.4824" y="-63.5" font-family="Helvetica,sans-Serif" font-size="10.00" fill="#000000">ImageFilter.h</text>
</a>
</g>
</g>
<!-- Node3&#45;&gt;Node16 -->
<g id="edge44" class="edge">
<title>Node3&#45;&gt;Node16</title>
<path fill="none" stroke="#191970" d="M2645.1151,-185.8164C2596.345,-161.4313 2497.0243,-111.771 2446.8856,-86.7016"/>
<polygon fill="#191970" stroke="#191970" points="2643.656,-188.9999 2654.1656,-190.3416 2646.7866,-182.7389 2643.656,-188.9999"/>
</g>
<!-- Node17 -->
<g id="node15" class="node">
<title>Node17</title>
<g id="a_node15"><a xlink:href="sitkAcosImageFilter_8h.html" target="_top" xlink:title=" ">
<polygon fill="#ffffff" stroke="#ff0000" points="2511.9824,-62 2511.9824,-81 2632.9824,-81 2632.9824,-62 2511.9824,-62"/>
<text text-anchor="middle" x="2572.4824" y="-69" font-family="Helvetica,sans-Serif" font-size="10.00" fill="#000000">sitkAcosImageFilter.h</text>
</a>
</g>
</g>
<!-- Node3&#45;&gt;Node17 -->
<g id="edge45" class="edge">
<title>Node3&#45;&gt;Node17</title>
<path fill="none" stroke="#191970" d="M2649.7206,-184.6547C2638.3803,-176.5123 2625.2001,-165.7653 2615.4824,-154 2596.2479,-130.7128 2582.1697,-97.426 2575.9779,-81.1741"/>
<polygon fill="#191970" stroke="#191970" points="2647.7316,-187.5346 2657.9463,-190.3472 2651.7151,-181.7785 2647.7316,-187.5346"/>
</g>
<!-- Node18 -->
<g id="node16" class="node">
<title>Node18</title>
<g id="a_node16"><a xlink:href="sitkAdaptiveHistogramEqualizationImageFilter_8h.html" target="_top" xlink:title=" ">
<polygon fill="#ffffff" stroke="#ff0000" points="2689.9824,-56.5 2689.9824,-86.5 2878.9824,-86.5 2878.9824,-56.5 2689.9824,-56.5"/>
<text text-anchor="start" x="2697.9824" y="-74.5" font-family="Helvetica,sans-Serif" font-size="10.00" fill="#000000">sitkAdaptiveHistogramEqualization</text>
<text text-anchor="middle" x="2784.4824" y="-63.5" font-family="Helvetica,sans-Serif" font-size="10.00" fill="#000000">ImageFilter.h</text>
</a>
</g>
</g>
<!-- Node3&#45;&gt;Node18 -->
<g id="edge46" class="edge">
<title>Node3&#45;&gt;Node18</title>
<path fill="none" stroke="#191970" d="M2696.3422,-184.5953C2707.6687,-176.3152 2721.1046,-165.4652 2731.4824,-154 2750.6751,-132.7961 2767.5025,-103.8925 2776.8035,-86.5269"/>
<polygon fill="#191970" stroke="#191970" points="2694.304,-181.7499 2688.1775,-190.3938 2698.3572,-187.457 2694.304,-181.7499"/>
</g>
<!-- Node19 -->
<g id="node17" class="node">
<title>Node19</title>
<g id="a_node17"><a xlink:href="sitkAddImageFilter_8h.html" target="_top" xlink:title=" ">
<polygon fill="#ffffff" stroke="#ff0000" points="2897.4824,-62 2897.4824,-81 3013.4824,-81 3013.4824,-62 2897.4824,-62"/>
<text text-anchor="middle" x="2955.4824" y="-69" font-family="Helvetica,sans-Serif" font-size="10.00" fill="#000000">sitkAddImageFilter.h</text>
</a>
</g>
</g>
<!-- Node3&#45;&gt;Node19 -->
<g id="edge47" class="edge">
<title>Node3&#45;&gt;Node19</title>
<path fill="none" stroke="#191970" d="M2703.9884,-186.0992C2761.5976,-159.8482 2885.0396,-103.5989 2934.4252,-81.0952"/>
<polygon fill="#191970" stroke="#191970" points="2702.3267,-183.0101 2694.6782,-190.3416 2705.2293,-189.38 2702.3267,-183.0101"/>
</g>
<!-- Node21 -->
<g id="node18" class="node">
<title>Node21</title>
<g id="a_node18"><a xlink:href="sitkAdditiveGaussianNoiseImageFilter_8h.html" target="_top" xlink:title=" ">
<polygon fill="#ffffff" stroke="#ff0000" points="3031.4824,-56.5 3031.4824,-86.5 3179.4824,-86.5 3179.4824,-56.5 3031.4824,-56.5"/>
<text text-anchor="start" x="3039.4824" y="-74.5" font-family="Helvetica,sans-Serif" font-size="10.00" fill="#000000">sitkAdditiveGaussianNoise</text>
<text text-anchor="middle" x="3105.4824" y="-63.5" font-family="Helvetica,sans-Serif" font-size="10.00" fill="#000000">ImageFilter.h</text>
</a>
</g>
</g>
<!-- Node3&#45;&gt;Node21 -->
<g id="edge48" class="edge">
<title>Node3&#45;&gt;Node21</title>
<path fill="none" stroke="#191970" d="M2715.3105,-187.5581C2795.1209,-163.8182 2968.8404,-112.1446 3054.9757,-86.5234"/>
<polygon fill="#191970" stroke="#191970" points="2714.1867,-184.2407 2705.5996,-190.4466 2716.1825,-190.9502 2714.1867,-184.2407"/>
</g>
<!-- Node22 -->
<g id="node19" class="node">
<title>Node22</title>
<g id="a_node19"><a xlink:href="sitkAggregateLabelMapFilter_8h.html" target="_top" xlink:title=" ">
<polygon fill="#ffffff" stroke="#ff0000" points="3197.4824,-62 3197.4824,-81 3361.4824,-81 3361.4824,-62 3197.4824,-62"/>
<text text-anchor="middle" x="3279.4824" y="-69" font-family="Helvetica,sans-Serif" font-size="10.00" fill="#000000">sitkAggregateLabelMapFilter.h</text>
</a>
</g>
</g>
<!-- Node3&#45;&gt;Node22 -->
<g id="edge49" class="edge">
<title>Node3&#45;&gt;Node22</title>
<path fill="none" stroke="#191970" d="M2730.3741,-188.4072C2775.4534,-179.1869 2840.0246,-165.9034 2896.4824,-154 3019.6091,-128.0403 3164.7941,-96.5163 3235.8556,-81.0272"/>
<polygon fill="#191970" stroke="#191970" points="2729.5889,-184.9952 2720.4924,-190.4271 2730.9908,-191.8534 2729.5889,-184.9952"/>
</g>
<!-- Node23 -->
<g id="node20" class="node">
<title>Node23</title>
<g id="a_node20"><a xlink:href="sitkAndImageFilter_8h.html" target="_top" xlink:title=" ">
<polygon fill="#ffffff" stroke="#ff0000" points="3379.4824,-62 3379.4824,-81 3495.4824,-81 3495.4824,-62 3379.4824,-62"/>
<text text-anchor="middle" x="3437.4824" y="-69" font-family="Helvetica,sans-Serif" font-size="10.00" fill="#000000">sitkAndImageFilter.h</text>
</a>
</g>
</g>
<!-- Node3&#45;&gt;Node23 -->
<g id="edge50" class="edge">
<title>Node3&#45;&gt;Node23</title>
<path fill="none" stroke="#191970" d="M2733.3058,-191.8486C2854.1984,-175.0355 3136.0453,-134.1112 3370.4824,-87 3379.3783,-85.2123 3388.8973,-83.12 3397.8854,-81.0615"/>
<polygon fill="#191970" stroke="#191970" points="2732.5751,-188.4163 2723.1506,-193.2568 2733.5366,-195.35 2732.5751,-188.4163"/>
</g>
<!-- Node24 -->
<g id="node21" class="node">
<title>Node24</title>
<g id="a_node21"><a xlink:href="sitkAntiAliasBinaryImageFilter_8h.html" target="_top" xlink:title=" ">
<polygon fill="#ffffff" stroke="#ff0000" points="3513.4824,-56.5 3513.4824,-86.5 3653.4824,-86.5 3653.4824,-56.5 3513.4824,-56.5"/>
<text text-anchor="start" x="3521.4824" y="-74.5" font-family="Helvetica,sans-Serif" font-size="10.00" fill="#000000">sitkAntiAliasBinaryImage</text>
<text text-anchor="middle" x="3583.4824" y="-63.5" font-family="Helvetica,sans-Serif" font-size="10.00" fill="#000000">Filter.h</text>
</a>
</g>
</g>
<!-- Node3&#45;&gt;Node24 -->
<g id="edge51" class="edge">
<title>Node3&#45;&gt;Node24</title>
<path fill="none" stroke="#191970" d="M2733.2086,-194.3415C2814.1078,-186.4613 2962.9534,-171.1985 3089.4824,-154 3274.6127,-128.8362 3320.5655,-119.8792 3504.4824,-87 3507.3717,-86.4835 3510.3186,-85.9474 3513.2941,-85.3984"/>
<polygon fill="#191970" stroke="#191970" points="2732.8237,-190.8624 2723.2084,-195.3117 2733.4997,-197.8297 2732.8237,-190.8624"/>
</g>
<!-- Node25 -->
<g id="node22" class="node">
<title>Node25</title>
<g id="a_node22"><a xlink:href="sitkApproximateSignedDistanceMapImageFilter_8h.html" target="_top" xlink:title=" ">
<polygon fill="#ffffff" stroke="#ff0000" points="3671.9824,-56.5 3671.9824,-86.5 3844.9824,-86.5 3844.9824,-56.5 3671.9824,-56.5"/>
<text text-anchor="start" x="3679.9824" y="-74.5" font-family="Helvetica,sans-Serif" font-size="10.00" fill="#000000">sitkApproximateSignedDistance</text>
<text text-anchor="middle" x="3758.4824" y="-63.5" font-family="Helvetica,sans-Serif" font-size="10.00" fill="#000000">MapImageFilter.h</text>
</a>
</g>
</g>
<!-- Node3&#45;&gt;Node25 -->
<g id="edge52" class="edge">
<title>Node3&#45;&gt;Node25</title>
<path fill="none" stroke="#191970" d="M2733.2647,-196.0119C2831.9779,-189.164 3035.1849,-173.9581 3206.4824,-154 3409.9486,-130.2939 3460.0321,-118.215 3662.4824,-87 3665.5692,-86.5241 3668.7111,-86.036 3671.8842,-85.5399"/>
<polygon fill="#191970" stroke="#191970" points="2732.9186,-192.5273 2723.1832,-196.7073 2733.4004,-199.5107 2732.9186,-192.5273"/>
</g>
<!-- Node26 -->
<g id="node23" class="node">
<title>Node26</title>
<g id="a_node23"><a xlink:href="sitkAsinImageFilter_8h.html" target="_top" xlink:title=" ">
<polygon fill="#ffffff" stroke="#ff0000" points="3862.9824,-62 3862.9824,-81 3981.9824,-81 3981.9824,-62 3862.9824,-62"/>
<text text-anchor="middle" x="3922.4824" y="-69" font-family="Helvetica,sans-Serif" font-size="10.00" fill="#000000">sitkAsinImageFilter.h</text>
</a>
</g>
</g>
<!-- Node3&#45;&gt;Node26 -->
<g id="edge53" class="edge">
<title>Node3&#45;&gt;Node26</title>
<path fill="none" stroke="#191970" d="M2733.327,-197.6895C2907.5371,-190.2332 3428.9623,-162.7299 3854.4824,-87 3863.9,-85.3239 3873.9808,-83.2063 3883.4187,-81.0791"/>
<polygon fill="#191970" stroke="#191970" points="2732.9324,-194.203 2723.0889,-198.1217 2733.2277,-201.1968 2732.9324,-194.203"/>
</g>
<!-- Node27 -->
<g id="node24" class="node">
<title>Node27</title>
<g id="a_node24"><a xlink:href="sitkAtan2ImageFilter_8h.html" target="_top" xlink:title=" ">
<polygon fill="#ffffff" stroke="#ff0000" points="4000.4824,-62 4000.4824,-81 4126.4824,-81 4126.4824,-62 4000.4824,-62"/>
<text text-anchor="middle" x="4063.4824" y="-69" font-family="Helvetica,sans-Serif" font-size="10.00" fill="#000000">sitkAtan2ImageFilter.h</text>
</a>
</g>
</g>
<!-- Node3&#45;&gt;Node27 -->
<g id="edge54" class="edge">
<title>Node3&#45;&gt;Node27</title>
<path fill="none" stroke="#191970" d="M2733.4922,-198.2758C2869.6208,-194.0089 3212.1707,-181.2688 3497.4824,-154 3718.043,-132.9198 3773.2402,-125.2323 3991.4824,-87 4001.3061,-85.279 4011.8276,-83.1679 4021.7097,-81.064"/>
<polygon fill="#191970" stroke="#191970" points="2733.1647,-194.7841 2723.2779,-198.5921 2733.3815,-201.7808 2733.1647,-194.7841"/>
</g>
<!-- Node28 -->
<g id="node25" class="node">
<title>Node28</title>
<g id="a_node25"><a xlink:href="sitkAtanImageFilter_8h.html" target="_top" xlink:title=" ">
<polygon fill="#ffffff" stroke="#ff0000" points="4144.4824,-62 4144.4824,-81 4264.4824,-81 4264.4824,-62 4144.4824,-62"/>
<text text-anchor="middle" x="4204.4824" y="-69" font-family="Helvetica,sans-Serif" font-size="10.00" fill="#000000">sitkAtanImageFilter.h</text>
</a>
</g>
</g>
<!-- Node3&#45;&gt;Node28 -->
<g id="edge55" class="edge">
<title>Node3&#45;&gt;Node28</title>
<path fill="none" stroke="#191970" d="M2733.0894,-199.0355C2885.5536,-196.1671 3302.049,-185.8062 3647.4824,-154 3865.4837,-133.9272 3920.0453,-125.915 4135.4824,-87 4145.0273,-85.2759 4155.2521,-83.1398 4164.8282,-81.0102"/>
<polygon fill="#191970" stroke="#191970" points="2732.9358,-195.5376 2723.0021,-199.2215 2733.065,-202.5364 2732.9358,-195.5376"/>
</g>
<!-- Node29 -->
<g id="node26" class="node">
<title>Node29</title>
<g id="a_node26"><a xlink:href="sitkBSplineDecompositionImageFilter_8h.html" target="_top" xlink:title=" ">
<polygon fill="#ffffff" stroke="#ff0000" points="4282.9824,-56.5 4282.9824,-86.5 4427.9824,-86.5 4427.9824,-56.5 4282.9824,-56.5"/>
<text text-anchor="start" x="4290.9824" y="-74.5" font-family="Helvetica,sans-Serif" font-size="10.00" fill="#000000">sitkBSplineDecomposition</text>
<text text-anchor="middle" x="4355.4824" y="-63.5" font-family="Helvetica,sans-Serif" font-size="10.00" fill="#000000">ImageFilter.h</text>
</a>
</g>
</g>
<!-- Node3&#45;&gt;Node29 -->
<g id="edge56" class="edge">
<title>Node3&#45;&gt;Node29</title>
<path fill="none" stroke="#191970" d="M2733.1963,-199.6151C2900.9468,-198.0893 3390.6317,-190.5833 3795.4824,-154 4009.1331,-134.694 4061.806,-121.8208 4273.4824,-87 4276.4845,-86.5061 4279.546,-85.989 4282.6367,-85.4557"/>
<polygon fill="#191970" stroke="#191970" points="2733.0558,-196.1161 2723.0867,-199.7033 2733.1169,-203.1159 2733.0558,-196.1161"/>
</g>
<!-- Node30 -->
<g id="node27" class="node">
<title>Node30</title>
<g id="a_node27"><a xlink:href="sitkBilateralImageFilter_8h.html" target="_top" xlink:title=" ">
<polygon fill="#ffffff" stroke="#ff0000" points="4445.9824,-62 4445.9824,-81 4584.9824,-81 4584.9824,-62 4445.9824,-62"/>
<text text-anchor="middle" x="4515.4824" y="-69" font-family="Helvetica,sans-Serif" font-size="10.00" fill="#000000">sitkBilateralImageFilter.h</text>
</a>
</g>
</g>
<!-- Node3&#45;&gt;Node30 -->
<g id="edge57" class="edge">
<title>Node3&#45;&gt;Node30</title>
<path fill="none" stroke="#191970" d="M2733.5287,-198.5834C2951.1779,-193.3284 3698.3855,-174.209 3936.4824,-154 4160.3265,-135.0007 4215.868,-123.8001 4437.4824,-87 4448.1059,-85.2359 4459.4968,-83.1079 4470.2013,-81.0014"/>
<polygon fill="#191970" stroke="#191970" points="2733.1788,-195.0907 2723.2659,-198.8304 2733.3472,-202.0887 2733.1788,-195.0907"/>
</g>
<!-- Node305 -->
<g id="node28" class="node">
<title>Node305</title>
<g id="a_node28"><a xlink:href="sitkCenteredTransformInitializerFilter_8h.html" target="_top" xlink:title=" ">
<polygon fill="#ffffff" stroke="#000000" points="1028.9824,-123.5 1028.9824,-153.5 1201.9824,-153.5 1201.9824,-123.5 1028.9824,-123.5"/>
<text text-anchor="start" x="1036.9824" y="-141.5" font-family="Helvetica,sans-Serif" font-size="10.00" fill="#000000">sitkCenteredTransformInitializer</text>
<text text-anchor="middle" x="1115.4824" y="-130.5" font-family="Helvetica,sans-Serif" font-size="10.00" fill="#000000">Filter.h</text>
</a>
</g>
</g>
<!-- Node3&#45;&gt;Node305 -->
<g id="edge35" class="edge">
<title>Node3&#45;&gt;Node305</title>
<path fill="none" stroke="#191970" d="M2613.7262,-199.1466C2375.1663,-195.5808 1490.4504,-180.7974 1211.4824,-154 1208.3734,-153.7014 1205.2125,-153.3649 1202.0232,-152.9977"/>
<polygon fill="#191970" stroke="#191970" points="2613.8822,-202.6492 2623.9331,-199.2982 2613.9862,-195.65 2613.8822,-202.6492"/>
</g>
<!-- Node306 -->
<g id="node29" class="node">
<title>Node306</title>
<g id="a_node29"><a xlink:href="sitkCenteredVersorTransformInitializerFilter_8h.html" target="_top" xlink:title=" ">
<polygon fill="#ffffff" stroke="#000000" points="1220.4824,-123.5 1220.4824,-153.5 1378.4824,-153.5 1378.4824,-123.5 1220.4824,-123.5"/>
<text text-anchor="start" x="1228.4824" y="-141.5" font-family="Helvetica,sans-Serif" font-size="10.00" fill="#000000">sitkCenteredVersorTransform</text>
<text text-anchor="middle" x="1299.4824" y="-130.5" font-family="Helvetica,sans-Serif" font-size="10.00" fill="#000000">InitializerFilter.h</text>
</a>
</g>
</g>
<!-- Node3&#45;&gt;Node306 -->
<g id="edge37" class="edge">
<title>Node3&#45;&gt;Node306</title>
<path fill="none" stroke="#191970" d="M2613.7128,-198.8458C2437.9556,-195.209 1907.5951,-182.4979 1468.4824,-154 1439.0808,-152.0919 1406.8618,-149.3094 1378.5129,-146.6267"/>
<polygon fill="#191970" stroke="#191970" points="2613.7209,-202.3466 2623.7906,-199.0523 2613.8644,-195.348 2613.7209,-202.3466"/>
</g>
<!-- Node4&#45;&gt;Node5 -->
<g id="edge4" class="edge">
<title>Node4&#45;&gt;Node5</title>
<path fill="none" stroke="#191970" d="M1126.0319,-54.0744C1116.8082,-42.9517 1105.1932,-28.9454 1097.5635,-19.7449"/>
<polygon fill="#191970" stroke="#191970" points="1123.4361,-56.4272 1132.5136,-61.8906 1128.8244,-51.9588 1123.4361,-56.4272"/>
</g>
<!-- Node6&#45;&gt;Node5 -->
<g id="edge6" class="edge">
<title>Node6&#45;&gt;Node5</title>
<path fill="none" stroke="#191970" d="M1538.3832,-56.0461C1379.0379,-34.9095 1202.8162,-19.3536 1127.1251,-13.0488"/>
<polygon fill="#191970" stroke="#191970" points="1537.993,-59.525 1548.3687,-57.381 1538.9207,-52.5867 1537.993,-59.525"/>
</g>
<!-- Node7&#45;&gt;Node5 -->
<g id="edge19" class="edge">
<title>Node7&#45;&gt;Node5</title>
<path fill="none" stroke="#191970" d="M2672.1354,-118.8568C2669.6407,-99.3509 2662.5557,-70.3453 2642.4824,-56 2610.6612,-33.2592 1361.054,-13.9568 1127.0323,-10.5375"/>
<polygon fill="#191970" stroke="#191970" points="2668.6527,-119.2051 2673.1201,-128.812 2675.6187,-118.5161 2668.6527,-119.2051"/>
</g>
<!-- Node7&#45;&gt;Node6 -->
<g id="edge8" class="edge">
<title>Node7&#45;&gt;Node6</title>
<path fill="none" stroke="#191970" d="M2614.0317,-137.6034C2464.164,-134.8389 2058.9459,-124.2319 1723.4824,-87 1720.5846,-86.6784 1717.6396,-86.3254 1714.6681,-85.947"/>
<polygon fill="#191970" stroke="#191970" points="2614.3152,-141.109 2624.3765,-137.7892 2614.4409,-134.1101 2614.3152,-141.109"/>
</g>
<!-- Node8 -->
<g id="node8" class="node">
<title>Node8</title>
<g id="a_node8"><a xlink:href="sitkCastImageFilter_8h.html" target="_top" xlink:title=" ">
<polygon fill="#ffffff" stroke="#000000" points="1410.9824,-62 1410.9824,-81 1529.9824,-81 1529.9824,-62 1410.9824,-62"/>
<text text-anchor="middle" x="1470.4824" y="-69" font-family="Helvetica,sans-Serif" font-size="10.00" fill="#000000">sitkCastImageFilter.h</text>
</a>
</g>
</g>
<!-- Node7&#45;&gt;Node8 -->
<g id="edge9" class="edge">
<title>Node7&#45;&gt;Node8</title>
<path fill="none" stroke="#191970" d="M2614.1683,-137.1825C2411.9308,-132.475 1750.3164,-115.2453 1539.4824,-87 1529.017,-85.598 1517.7962,-83.3887 1507.5085,-81.0728"/>
<polygon fill="#191970" stroke="#191970" points="2614.2176,-140.6845 2624.2958,-137.4167 2614.3794,-133.6864 2614.2176,-140.6845"/>
</g>
<!-- Node7&#45;&gt;Node9 -->
<g id="edge11" class="edge">
<title>Node7&#45;&gt;Node9</title>
<path fill="none" stroke="#191970" d="M2613.6911,-137.4976C2480.2903,-134.6394 2148.4435,-124.0787 1873.4824,-87 1862.4139,-85.5074 1850.5342,-83.3255 1839.5673,-81.0674"/>
<polygon fill="#191970" stroke="#191970" points="2614.017,-141.005 2624.0874,-137.7132 2614.1622,-134.0065 2614.017,-141.005"/>
</g>
<!-- Node7&#45;&gt;Node10 -->
<g id="edge13" class="edge">
<title>Node7&#45;&gt;Node10</title>
<path fill="none" stroke="#191970" d="M2614.045,-137.4937C2396.0316,-133.5846 1640.5742,-118.061 1401.4824,-87 1390.7436,-85.6049 1379.2193,-83.3679 1368.6836,-81.0223"/>
<polygon fill="#191970" stroke="#191970" points="2614.2585,-140.998 2624.3192,-137.6764 2614.3831,-133.9991 2614.2585,-140.998"/>
</g>
<!-- Node7&#45;&gt;Node11 -->
<g id="edge15" class="edge">
<title>Node7&#45;&gt;Node11</title>
<path fill="none" stroke="#191970" d="M2614.0184,-135.3005C2503.3698,-128.9611 2258.4783,-113.1153 2053.4824,-87 2050.6513,-86.6393 2047.7735,-86.2528 2044.8694,-85.8457"/>
<polygon fill="#191970" stroke="#191970" points="2614.119,-138.8118 2624.3014,-135.8843 2614.5159,-131.823 2614.119,-138.8118"/>
</g>
<!-- Node7&#45;&gt;Node12 -->
<g id="edge17" class="edge">
<title>Node7&#45;&gt;Node12</title>
<path fill="none" stroke="#191970" d="M2614.1323,-132.912C2504.6118,-122.4662 2274.6944,-99.8752 2195.4824,-87 2185.3952,-85.3604 2174.5833,-83.2066 2164.5152,-81.0282"/>
<polygon fill="#191970" stroke="#191970" points="2614.0594,-136.4208 2624.3461,-133.8842 2614.7228,-129.4523 2614.0594,-136.4208"/>
</g>
<!-- Node7&#45;&gt;Node13 -->
<g id="edge20" class="edge">
<title>Node7&#45;&gt;Node13</title>
<path fill="none" stroke="#191970" d="M2614.2677,-130.9837C2545.7184,-121.9647 2429.5385,-105.6986 2330.4824,-87 2321.2017,-85.2481 2311.2638,-83.1249 2301.9305,-81.0192"/>
<polygon fill="#191970" stroke="#191970" points="2614.0696,-134.4876 2624.4392,-132.3147 2614.9779,-127.5467 2614.0696,-134.4876"/>
</g>
<!-- Node7&#45;&gt;Node16 -->
<g id="edge21" class="edge">
<title>Node7&#45;&gt;Node16</title>
<path fill="none" stroke="#191970" d="M2627.0479,-126.3945C2584.1824,-115.2195 2520.368,-98.583 2474.232,-86.5553"/>
<polygon fill="#191970" stroke="#191970" points="2626.3739,-129.8357 2636.9335,-128.9717 2628.1399,-123.0621 2626.3739,-129.8357"/>
</g>
<!-- Node7&#45;&gt;Node17 -->
<g id="edge22" class="edge">
<title>Node7&#45;&gt;Node17</title>
<path fill="none" stroke="#191970" d="M2650.6622,-123.3619C2631.1162,-110.3957 2603.5647,-92.119 2586.9264,-81.0817"/>
<polygon fill="#191970" stroke="#191970" points="2648.7435,-126.2892 2659.0115,-128.9005 2652.6131,-120.4559 2648.7435,-126.2892"/>
</g>
<!-- Node7&#45;&gt;Node18 -->
<g id="edge23" class="edge">
<title>Node7&#45;&gt;Node18</title>
<path fill="none" stroke="#191970" d="M2698.031,-123.6824C2716.3267,-112.639 2741.2192,-97.6138 2759.5956,-86.5218"/>
<polygon fill="#191970" stroke="#191970" points="2696.1386,-120.7364 2689.386,-128.9005 2699.7559,-126.7293 2696.1386,-120.7364"/>
</g>
<!-- Node7&#45;&gt;Node19 -->
<g id="edge24" class="edge">
<title>Node7&#45;&gt;Node19</title>
<path fill="none" stroke="#191970" d="M2723.3986,-126.6405C2778.019,-113.6633 2864.5192,-93.1118 2915.0599,-81.1039"/>
<polygon fill="#191970" stroke="#191970" points="2722.5067,-123.2549 2713.5866,-128.9717 2724.1248,-130.0653 2722.5067,-123.2549"/>
</g>
<!-- Node7&#45;&gt;Node21 -->
<g id="edge25" class="edge">
<title>Node7&#45;&gt;Node21</title>
<path fill="none" stroke="#191970" d="M2733.0186,-130.4185C2802.5751,-120.8139 2921.0668,-103.9459 3022.4824,-87 3025.374,-86.5168 3028.3205,-86.0145 3031.2955,-85.4991"/>
<polygon fill="#191970" stroke="#191970" points="2732.1314,-127.0076 2722.7024,-131.8393 2733.0865,-133.9421 2732.1314,-127.0076"/>
</g>
<!-- Node7&#45;&gt;Node22 -->
<g id="edge26" class="edge">
<title>Node7&#45;&gt;Node22</title>
<path fill="none" stroke="#191970" d="M2732.6967,-133.9162C2828.6458,-126.1884 3023.9508,-109.2119 3188.4824,-87 3201.0292,-85.3062 3214.4982,-83.1817 3227.1254,-81.0536"/>
<polygon fill="#191970" stroke="#191970" points="2732.299,-130.4367 2722.6104,-134.7239 2732.8579,-137.4144 2732.299,-130.4367"/>
</g>
<!-- Node7&#45;&gt;Node23 -->
<g id="edge27" class="edge">
<title>Node7&#45;&gt;Node23</title>
<path fill="none" stroke="#191970" d="M2732.9273,-137.1818C2853.7,-133.8282 3136.1828,-122.5425 3370.4824,-87 3380.3978,-85.4959 3391.0199,-83.31 3400.8173,-81.0517"/>
<polygon fill="#191970" stroke="#191970" points="2732.6866,-133.6869 2722.7846,-137.4552 2732.8753,-140.6843 2732.6866,-133.6869"/>
</g>
<!-- Node7&#45;&gt;Node24 -->
<g id="edge28" class="edge">
<title>Node7&#45;&gt;Node24</title>
<path fill="none" stroke="#191970" d="M2733.1356,-137.4981C2870.0133,-134.6115 3216.9915,-123.9479 3504.4824,-87 3507.3935,-86.6259 3510.3587,-86.2088 3513.3494,-85.7584"/>
<polygon fill="#191970" stroke="#191970" points="2732.7966,-134.0042 2722.8703,-137.7082 2732.9399,-141.0027 2732.7966,-134.0042"/>
</g>
<!-- Node7&#45;&gt;Node25 -->
<g id="edge29" class="edge">
<title>Node7&#45;&gt;Node25</title>
<path fill="none" stroke="#191970" d="M2732.6779,-137.6457C2886.4597,-134.9441 3311.0958,-124.4054 3662.4824,-87 3665.5881,-86.6694 3668.7463,-86.3056 3671.9331,-85.9152"/>
<polygon fill="#191970" stroke="#191970" points="2732.4493,-134.149 2722.5107,-137.8198 2732.5692,-141.148 2732.4493,-134.149"/>
</g>
<!-- Node7&#45;&gt;Node26 -->
<g id="edge30" class="edge">
<title>Node7&#45;&gt;Node26</title>
<path fill="none" stroke="#191970" d="M2732.8067,-137.3305C2940.4857,-133.0149 3634.0882,-116.6763 3854.4824,-87 3864.9224,-85.5942 3876.1201,-83.3538 3886.3546,-81.0084"/>
<polygon fill="#191970" stroke="#191970" points="2732.6345,-133.8332 2722.7088,-137.5388 2732.7789,-140.8317 2732.6345,-133.8332"/>
</g>
<!-- Node7&#45;&gt;Node27 -->
<g id="edge31" class="edge">
<title>Node7&#45;&gt;Node27</title>
<path fill="none" stroke="#191970" d="M2732.8339,-137.5461C2955.7396,-133.7512 3742.8206,-118.3841 3991.4824,-87 4002.519,-85.6071 4014.3697,-83.3707 4025.2065,-81.0251"/>
<polygon fill="#191970" stroke="#191970" points="2732.5896,-134.0496 2722.6501,-137.7181 2732.7078,-141.0486 2732.5896,-134.0496"/>
</g>
<!-- Node7&#45;&gt;Node28 -->
<g id="edge32" class="edge">
<title>Node7&#45;&gt;Node28</title>
<path fill="none" stroke="#191970" d="M2732.8951,-137.8798C2971.0793,-135.1656 3857.3362,-122.824 4135.4824,-87 4146.0764,-85.6355 4157.4389,-83.4083 4167.824,-81.0623"/>
<polygon fill="#191970" stroke="#191970" points="2732.6662,-134.3821 2722.7062,-137.9945 2732.745,-141.3816 2732.6662,-134.3821"/>
</g>
<!-- Node7&#45;&gt;Node29 -->
<g id="edge33" class="edge">
<title>Node7&#45;&gt;Node29</title>
<path fill="none" stroke="#191970" d="M2732.5824,-137.8226C2984.0425,-134.7514 3966.0906,-120.794 4273.4824,-87 4276.5067,-86.6675 4279.5866,-86.2853 4282.6926,-85.8637"/>
<polygon fill="#191970" stroke="#191970" points="2732.5074,-134.3231 2722.5505,-137.944 2732.5922,-141.3226 2732.5074,-134.3231"/>
</g>
<!-- Node7&#45;&gt;Node30 -->
<g id="edge34" class="edge">
<title>Node7&#45;&gt;Node30</title>
<path fill="none" stroke="#191970" d="M2732.8274,-138.0992C3000.3996,-136.0874 4096.3132,-125.6046 4437.4824,-87 4449.4178,-85.6495 4462.2494,-83.4267 4473.9896,-81.0806"/>
<polygon fill="#191970" stroke="#191970" points="2732.5244,-134.6012 2722.5506,-138.1753 2732.5763,-141.601 2732.5244,-134.6012"/>
</g>
<!-- Node8&#45;&gt;Node5 -->
<g id="edge10" class="edge">
<title>Node8&#45;&gt;Node5</title>
<path fill="none" stroke="#191970" d="M1420.5201,-59.8154C1414.1279,-58.4564 1407.6613,-57.1479 1401.4824,-56 1302.9712,-37.6997 1185.8677,-22.057 1127.0925,-14.6239"/>
<polygon fill="#191970" stroke="#191970" points="1419.9362,-63.2702 1430.4518,-61.9768 1421.4248,-56.4303 1419.9362,-63.2702"/>
</g>
<!-- Node9&#45;&gt;Node5 -->
<g id="edge12" class="edge">
<title>Node9&#45;&gt;Node5</title>
<path fill="none" stroke="#191970" d="M1747.4261,-60.0139C1739.4418,-58.4885 1731.2605,-57.0811 1723.4824,-56 1498.5814,-24.7392 1225.658,-14.014 1127.1796,-11.0079"/>
<polygon fill="#191970" stroke="#191970" points="1746.8987,-63.4775 1757.3891,-61.9936 1748.263,-56.6117 1746.8987,-63.4775"/>
</g>
<!-- Node10&#45;&gt;Node5 -->
<g id="edge14" class="edge">
<title>Node10&#45;&gt;Node5</title>
<path fill="none" stroke="#191970" d="M1284.215,-59.4878C1238.2874,-47.8162 1169.4545,-30.3235 1127.1174,-19.5643"/>
<polygon fill="#191970" stroke="#191970" points="1283.3814,-62.8872 1293.9354,-61.9581 1285.1055,-56.1028 1283.3814,-62.8872"/>
</g>
<!-- Node11&#45;&gt;Node5 -->
<g id="edge16" class="edge">
<title>Node11&#45;&gt;Node5</title>
<path fill="none" stroke="#191970" d="M1872.167,-55.9302C1579.9097,-22.8875 1239.1333,-13.1597 1127.1473,-10.7155"/>
<polygon fill="#191970" stroke="#191970" points="1871.7736,-59.4079 1882.1062,-57.0651 1872.5678,-52.4531 1871.7736,-59.4079"/>
</g>
<!-- Node12&#45;&gt;Node5 -->
<g id="edge18" class="edge">
<title>Node12&#45;&gt;Node5</title>
<path fill="none" stroke="#191970" d="M2076.4742,-59.8827C2068.8209,-58.3598 2060.9618,-56.9878 2053.4824,-56 1869.4127,-31.69 1281.555,-14.9956 1127.0019,-10.9505"/>
<polygon fill="#191970" stroke="#191970" points="2075.8628,-63.3305 2086.3676,-61.9519 2077.2959,-56.4787 2075.8628,-63.3305"/>
</g>
<!-- Node305&#45;&gt;Node5 -->
<g id="edge36" class="edge">
<title>Node305&#45;&gt;Node5</title>
<path fill="none" stroke="#191970" d="M1082.0723,-117.1369C1072.2808,-109.0014 1062.7865,-98.803 1057.4824,-87 1051.8348,-74.4329 1053.3594,-69.1464 1057.4824,-56 1061.9074,-41.8904 1072.3589,-28.3192 1080.1205,-19.6212"/>
<polygon fill="#191970" stroke="#191970" points="1080.2273,-120.1342 1090.2815,-123.4754 1084.5053,-114.5936 1080.2273,-120.1342"/>
</g>
<!-- Node306&#45;&gt;Node5 -->
<g id="edge38" class="edge">
<title>Node306&#45;&gt;Node5</title>
<path fill="none" stroke="#191970" d="M1282.6107,-114.8868C1268.4199,-96.5537 1246.6214,-71.6921 1222.4824,-56 1193.1896,-36.9576 1155.1228,-24.8359 1127.2243,-17.8449"/>
<polygon fill="#191970" stroke="#191970" points="1280.1307,-117.4116 1288.943,-123.2934 1285.722,-113.2 1280.1307,-117.4116"/>
</g>
<!-- Node308 -->
<g id="node31" class="node">
<title>Node308</title>
<g id="a_node31"><a xlink:href="sitkDetail_8h.html" target="_top" xlink:title=" ">
<polygon fill="#ffffff" stroke="#000000" points="931.9824,-246.5 931.9824,-265.5 1004.9824,-265.5 1004.9824,-246.5 931.9824,-246.5"/>
<text text-anchor="middle" x="968.4824" y="-253.5" font-family="Helvetica,sans-Serif" font-size="10.00" fill="#000000">sitkDetail.h</text>
</a>
</g>
</g>
<!-- Node307&#45;&gt;Node308 -->
<g id="edge62" class="edge">
<title>Node307&#45;&gt;Node308</title>
<path fill="none" stroke="#191970" d="M907.6294,-296.6789C923.3355,-286.1797 941.6295,-273.9505 954.0267,-265.6633"/>
<polygon fill="#191970" stroke="#191970" points="905.5924,-293.8305 899.2239,-302.2977 909.4826,-299.65 905.5924,-293.8305"/>
</g>
<!-- Node336 -->
<g id="node39" class="node">
<title>Node336</title>
<g id="a_node39"><a xlink:href="sitkDualMemberFunctionFactory_8h.html" target="_top" xlink:title=" ">
<polygon fill="#ffffff" stroke="#ff0000" points="1028.4824,-190.5 1028.4824,-209.5 1208.4824,-209.5 1208.4824,-190.5 1028.4824,-190.5"/>
<text text-anchor="middle" x="1118.4824" y="-197.5" font-family="Helvetica,sans-Serif" font-size="10.00" fill="#000000">sitkDualMemberFunctionFactory.h</text>
</a>
</g>
</g>
<!-- Node307&#45;&gt;Node336 -->
<g id="edge94" class="edge">
<title>Node307&#45;&gt;Node336</title>
<path fill="none" stroke="#191970" d="M933.1839,-299.0811C958.2832,-290.1956 987.8592,-278.7067 1013.4824,-266 1048.0108,-248.8771 1085.5886,-223.4317 1105.0702,-209.6737"/>
<polygon fill="#191970" stroke="#191970" points="931.734,-295.88 923.445,-302.4787 934.0398,-302.4893 931.734,-295.88"/>
</g>
<!-- Node337 -->
<g id="node40" class="node">
<title>Node337</title>
<g id="a_node40"><a xlink:href="sitkMemberFunctionFactory_8h.html" target="_top" xlink:title=" ">
<polygon fill="#ffffff" stroke="#000000" points="776.4824,-190.5 776.4824,-209.5 934.4824,-209.5 934.4824,-190.5 776.4824,-190.5"/>
<text text-anchor="middle" x="855.4824" y="-197.5" font-family="Helvetica,sans-Serif" font-size="10.00" fill="#000000">sitkMemberFunctionFactory.h</text>
</a>
</g>
</g>
<!-- Node307&#45;&gt;Node337 -->
<g id="edge95" class="edge">
<title>Node307&#45;&gt;Node337</title>
<path fill="none" stroke="#191970" d="M883.9622,-292.5781C886.9836,-278.6508 888.8473,-261.1086 884.4824,-246 880.4995,-232.214 871.0226,-218.5821 863.98,-209.7814"/>
<polygon fill="#191970" stroke="#191970" points="880.5307,-291.8742 881.51,-302.4237 887.3232,-293.566 880.5307,-291.8742"/>
</g>
<!-- Node308&#45;&gt;Node5 -->
<g id="edge63" class="edge">
<title>Node308&#45;&gt;Node5</title>
<path fill="none" stroke="#191970" d="M974.0026,-236.2091C984.9335,-198.9706 1011.679,-116.7669 1050.4824,-56 1059.1601,-42.4104 1071.5107,-28.5245 1079.9749,-19.6164"/>
<polygon fill="#191970" stroke="#191970" points="970.5158,-235.6713 971.1221,-246.2488 977.2443,-237.6018 970.5158,-235.6713"/>
</g>
<!-- Node309 -->
<g id="node32" class="node">
<title>Node309</title>
<g id="a_node32"><a xlink:href="sitkImage_8h.html" target="_top" xlink:title=" ">
<polygon fill="#ffffff" stroke="#ff0000" points="539.4824,-129 539.4824,-148 613.4824,-148 613.4824,-129 539.4824,-129"/>
<text text-anchor="middle" x="576.4824" y="-136" font-family="Helvetica,sans-Serif" font-size="10.00" fill="#000000">sitkImage.h</text>
</a>
</g>
</g>
<!-- Node308&#45;&gt;Node309 -->
<g id="edge64" class="edge">
<title>Node308&#45;&gt;Node309</title>
<path fill="none" stroke="#191970" d="M921.8089,-247.1555C880.775,-238.9453 819.636,-225.6536 767.4824,-210 705.4227,-191.3731 634.4876,-162.8403 599.0788,-148.0822"/>
<polygon fill="#191970" stroke="#191970" points="921.301,-250.6228 931.7903,-249.1316 922.6605,-243.756 921.301,-250.6228"/>
</g>
<!-- Node325 -->
<g id="node38" class="node">
<title>Node325</title>
<g id="a_node38"><a xlink:href="sitkImageRegistrationMethod_8h.html" target="_top" xlink:title=" ">
<polygon fill="#ffffff" stroke="#000000" points="803.9824,-62 803.9824,-81 972.9824,-81 972.9824,-62 803.9824,-62"/>
<text text-anchor="middle" x="888.4824" y="-69" font-family="Helvetica,sans-Serif" font-size="10.00" fill="#000000">sitkImageRegistrationMethod.h</text>
</a>
</g>
</g>
<!-- Node308&#45;&gt;Node325 -->
<g id="edge93" class="edge">
<title>Node308&#45;&gt;Node325</title>
<path fill="none" stroke="#191970" d="M961.5505,-236.5903C956.7243,-223.3634 950.0074,-205.5058 943.4824,-190 926.2399,-149.0256 903.16,-101.3307 893.2884,-81.2246"/>
<polygon fill="#191970" stroke="#191970" points="958.2863,-237.856 964.9759,-246.0718 964.8698,-235.4775 958.2863,-237.856"/>
</g>
<!-- Node308&#45;&gt;Node336 -->
<g id="edge80" class="edge">
<title>Node308&#45;&gt;Node336</title>
<path fill="none" stroke="#191970" d="M1003.8695,-242.7888C1031.2577,-232.5639 1068.5303,-218.6488 1093.0329,-209.5011"/>
<polygon fill="#191970" stroke="#191970" points="1002.4125,-239.5967 994.2683,-246.3733 1004.8609,-246.1546 1002.4125,-239.5967"/>
</g>
<!-- Node308&#45;&gt;Node337 -->
<g id="edge82" class="edge">
<title>Node308&#45;&gt;Node337</title>
<path fill="none" stroke="#191970" d="M939.9031,-241.8368C919.4765,-231.7139 892.5462,-218.3679 874.6543,-209.5011"/>
<polygon fill="#191970" stroke="#191970" points="938.5427,-245.0688 949.057,-246.3733 941.651,-238.7968 938.5427,-245.0688"/>
</g>
<!-- Node309&#45;&gt;Node4 -->
<g id="edge65" class="edge">
<title>Node309&#45;&gt;Node4</title>
<path fill="none" stroke="#191970" d="M623.7038,-132.8904C721.9582,-121.2183 949.0203,-94.2446 1066.7311,-80.2612"/>
<polygon fill="#191970" stroke="#191970" points="623.0052,-129.4486 613.488,-134.1039 623.8311,-136.3998 623.0052,-129.4486"/>
</g>
<!-- Node309&#45;&gt;Node5 -->
<g id="edge67" class="edge">
<title>Node309&#45;&gt;Node5</title>
<path fill="none" stroke="#191970" d="M545.8521,-124.3128C514.669,-108.0283 473.886,-80.4171 496.4824,-56 515.4191,-35.5374 924.5651,-16.8574 1051.9609,-11.5195"/>
<polygon fill="#191970" stroke="#191970" points="544.6345,-127.6182 555.1406,-128.9869 547.7811,-121.3653 544.6345,-127.6182"/>
</g>
<!-- Node309&#45;&gt;Node10 -->
<g id="edge66" class="edge">
<title>Node309&#45;&gt;Node10</title>
<path fill="none" stroke="#191970" d="M623.8372,-135.7291C730.7651,-129.2527 999.0082,-111.7732 1222.4824,-87 1238.0604,-85.2731 1254.8422,-83.0622 1270.4582,-80.8545"/>
<polygon fill="#191970" stroke="#191970" points="623.471,-132.2447 613.6994,-136.3394 623.8917,-139.2321 623.471,-132.2447"/>
</g>
<!-- Node309&#45;&gt;Node328 -->
<g id="edge68" class="edge">
<title>Node309&#45;&gt;Node328</title>
<path fill="none" stroke="#191970" d="M606.667,-124.7424C635.2332,-111.7224 677.371,-92.5167 702.4599,-81.0817"/>
<polygon fill="#191970" stroke="#191970" points="605.1917,-121.5683 597.5439,-128.9005 608.0949,-127.9379 605.1917,-121.5683"/>
</g>
<!-- Node309&#45;&gt;Node331 -->
<g id="edge70" class="edge">
<title>Node309&#45;&gt;Node331</title>
<path fill="none" stroke="#191970" d="M537.9184,-126.2072C533.7413,-125.0471 529.5366,-123.9513 525.4824,-123 431.1584,-100.8672 405.5612,-105.6246 310.4824,-87 301.3253,-85.2063 291.524,-83.1115 282.268,-81.0525"/>
<polygon fill="#191970" stroke="#191970" points="536.9519,-129.5711 547.531,-128.9931 538.9005,-122.8477 536.9519,-129.5711"/>
</g>
<!-- Node309&#45;&gt;Node329 -->
<g id="edge72" class="edge">
<title>Node309&#45;&gt;Node329</title>
<path fill="none" stroke="#191970" d="M575.8886,-118.6079C575.5186,-106.214 575.0593,-90.8263 574.7684,-81.0817"/>
<polygon fill="#191970" stroke="#191970" points="572.3989,-119.0094 576.1958,-128.9005 579.3958,-118.8005 572.3989,-119.0094"/>
</g>
<!-- Node309&#45;&gt;Node332 -->
<g id="edge74" class="edge">
<title>Node309&#45;&gt;Node332</title>
<path fill="none" stroke="#191970" d="M529.2931,-129.751C515.8133,-127.396 501.0898,-124.9608 487.4824,-123 348.0115,-102.903 311.6208,-109.2821 172.4824,-87 161.9794,-85.318 150.7166,-83.1736 140.1945,-81.02"/>
<polygon fill="#191970" stroke="#191970" points="528.8625,-133.2291 539.3197,-131.527 530.0835,-126.3364 528.8625,-133.2291"/>
</g>
<!-- Node309&#45;&gt;Node330 -->
<g id="edge76" class="edge">
<title>Node309&#45;&gt;Node330</title>
<path fill="none" stroke="#191970" d="M539.4653,-125.5826C502.15,-112.5611 445.4218,-92.7653 411.9403,-81.0817"/>
<polygon fill="#191970" stroke="#191970" points="538.3786,-128.9103 548.9734,-128.9005 540.685,-122.3011 538.3786,-128.9103"/>
</g>
<!-- Node309&#45;&gt;Node325 -->
<g id="edge78" class="edge">
<title>Node309&#45;&gt;Node325</title>
<path fill="none" stroke="#191970" d="M623.4286,-128.4186C683.2182,-115.5792 785.7737,-93.556 844.2396,-81.0009"/>
<polygon fill="#191970" stroke="#191970" points="622.5403,-125.0295 613.4981,-130.5511 624.01,-131.8735 622.5403,-125.0295"/>
</g>
<!-- Node328&#45;&gt;Node5 -->
<g id="edge69" class="edge">
<title>Node328&#45;&gt;Node5</title>
<path fill="none" stroke="#191970" d="M775.1646,-59.8374C781.6564,-58.4845 788.2156,-57.1716 794.4824,-56 886.4498,-38.8071 995.3837,-22.9907 1051.6384,-15.1569"/>
<polygon fill="#191970" stroke="#191970" points="774.1246,-56.4802 765.0701,-61.9817 775.5791,-63.3274 774.1246,-56.4802"/>
</g>
<!-- Node331&#45;&gt;Node5 -->
<g id="edge71" class="edge">
<title>Node331&#45;&gt;Node5</title>
<path fill="none" stroke="#191970" d="M289.1402,-59.7414C296.26,-58.2914 303.5392,-56.9783 310.4824,-56 456.3744,-35.4443 916.6743,-16.6128 1051.8241,-11.4135"/>
<polygon fill="#191970" stroke="#191970" points="287.9249,-56.4223 278.8806,-61.9406 289.3921,-63.2668 287.9249,-56.4223"/>
</g>
<!-- Node329&#45;&gt;Node5 -->
<g id="edge73" class="edge">
<title>Node329&#45;&gt;Node5</title>
<path fill="none" stroke="#191970" d="M628.8155,-60.0432C636.7342,-58.5657 644.804,-57.1645 652.4824,-56 799.5605,-33.6931 976.1284,-18.6795 1051.9233,-12.7911"/>
<polygon fill="#191970" stroke="#191970" points="628.0687,-56.6225 618.9069,-61.9435 629.3872,-63.4972 628.0687,-56.6225"/>
</g>
<!-- Node332&#45;&gt;Node5 -->
<g id="edge75" class="edge">
<title>Node332&#45;&gt;Node5</title>
<path fill="none" stroke="#191970" d="M147.6758,-60.0191C155.9285,-58.4511 164.4185,-57.0293 172.4824,-56 346.907,-33.7354 901.7687,-15.6813 1051.7837,-11.1169"/>
<polygon fill="#191970" stroke="#191970" points="146.8973,-56.6053 137.7716,-61.9878 148.2621,-63.471 146.8973,-56.6053"/>
</g>
<!-- Node330&#45;&gt;Node5 -->
<g id="edge77" class="edge">
<title>Node330&#45;&gt;Node5</title>
<path fill="none" stroke="#191970" d="M438.3053,-60.0416C446.7054,-58.5135 455.3084,-57.0981 463.4824,-56 685.4291,-26.1824 954.4307,-14.5944 1051.9235,-11.1829"/>
<polygon fill="#191970" stroke="#191970" points="437.3801,-56.6544 428.2023,-61.9477 438.6779,-63.533 437.3801,-56.6544"/>
</g>
<!-- Node325&#45;&gt;Node5 -->
<g id="edge79" class="edge">
<title>Node325&#45;&gt;Node5</title>
<path fill="none" stroke="#191970" d="M929.6627,-58.9001C967.8127,-47.2273 1023.7236,-30.1202 1058.2966,-19.5419"/>
<polygon fill="#191970" stroke="#191970" points="928.427,-55.6179 919.8886,-61.8906 930.4751,-62.3116 928.427,-55.6179"/>
</g>
<!-- Node336&#45;&gt;Node8 -->
<g id="edge81" class="edge">
<title>Node336&#45;&gt;Node8</title>
<path fill="none" stroke="#191970" d="M1219.079,-193.8023C1293.8046,-187.5311 1388.1472,-175.5821 1420.4824,-154 1447.2284,-136.1484 1461.9804,-98.668 1467.6847,-81.0435"/>
<polygon fill="#191970" stroke="#191970" points="1218.3564,-190.3495 1208.6736,-194.65 1218.9248,-197.3264 1218.3564,-190.3495"/>
</g>
<!-- Node337&#45;&gt;Node7 -->
<g id="edge83" class="edge">
<title>Node337&#45;&gt;Node7</title>
<path fill="none" stroke="#191970" d="M944.9346,-194.0616C969.122,-192.588 995.2973,-191.1136 1019.4824,-190 1653.3668,-160.8122 2424.6861,-143.6533 2624.4136,-139.4941"/>
<polygon fill="#191970" stroke="#191970" points="944.4677,-190.5836 934.7019,-194.692 944.8982,-197.5704 944.4677,-190.5836"/>
</g>
<!-- Node337&#45;&gt;Node10 -->
<g id="edge86" class="edge">
<title>Node337&#45;&gt;Node10</title>
<path fill="none" stroke="#191970" d="M944.713,-193.8193C1094.2808,-183.2491 1380.0883,-162.061 1387.4824,-154 1409.3643,-130.1444 1369.3973,-97.1196 1346.263,-81.0502"/>
<polygon fill="#191970" stroke="#191970" points="944.3529,-190.336 934.6239,-194.5309 944.8454,-197.3186 944.3529,-190.336"/>
</g>
<!-- Node337&#45;&gt;Node305 -->
<g id="edge84" class="edge">
<title>Node337&#45;&gt;Node305</title>
<path fill="none" stroke="#191970" d="M905.7383,-188.1125C947.3655,-178.2661 1006.7682,-164.2151 1051.7362,-153.5784"/>
<polygon fill="#191970" stroke="#191970" points="904.7479,-184.7501 895.8221,-190.4581 906.3592,-191.5622 904.7479,-184.7501"/>
</g>
<!-- Node337&#45;&gt;Node306 -->
<g id="edge85" class="edge">
<title>Node337&#45;&gt;Node306</title>
<path fill="none" stroke="#191970" d="M944.5076,-189.5546C1016.3989,-180.8573 1120.1102,-167.7179 1210.4824,-154 1213.7387,-153.5057 1217.0597,-152.9882 1220.4128,-152.4546"/>
<polygon fill="#191970" stroke="#191970" points="944.0883,-186.0797 934.5793,-190.752 944.9265,-193.0294 944.0883,-186.0797"/>
</g>
<!-- Node337&#45;&gt;Node328 -->
<g id="edge87" class="edge">
<title>Node337&#45;&gt;Node328</title>
<path fill="none" stroke="#191970" d="M838.0902,-183.069C810.0887,-155.81 755.8933,-103.0516 733.5189,-81.2705"/>
<polygon fill="#191970" stroke="#191970" points="835.954,-185.8741 845.5609,-190.3416 840.8369,-180.8582 835.954,-185.8741"/>
</g>
<!-- Node337&#45;&gt;Node331 -->
<g id="edge88" class="edge">
<title>Node337&#45;&gt;Node331</title>
<path fill="none" stroke="#191970" d="M765.9331,-192.181C684.8649,-184.2246 571.9905,-170.7051 530.4824,-154 508.6262,-145.2039 509.0646,-132.4482 487.4824,-123 413.9432,-90.8062 388.9824,-103.7983 310.4824,-87 301.7181,-85.1245 292.3415,-83.0583 283.4145,-81.0626"/>
<polygon fill="#191970" stroke="#191970" points="765.8613,-195.6904 776.1523,-193.1712 766.5365,-188.723 765.8613,-195.6904"/>
</g>
<!-- Node337&#45;&gt;Node329 -->
<g id="edge89" class="edge">
<title>Node337&#45;&gt;Node329</title>
<path fill="none" stroke="#191970" d="M828.6313,-185.7042C812.6508,-176.9624 792.1173,-165.3173 774.4824,-154 754.6545,-141.2753 752.4789,-133.6867 731.4824,-123 693.7739,-103.8074 647.3986,-89.6346 614.8619,-81.0685"/>
<polygon fill="#191970" stroke="#191970" points="826.9988,-188.8005 837.4578,-190.4914 830.3361,-182.6472 826.9988,-188.8005"/>
</g>
<!-- Node337&#45;&gt;Node332 -->
<g id="edge90" class="edge">
<title>Node337&#45;&gt;Node332</title>
<path fill="none" stroke="#191970" d="M766.1498,-195.1846C673.4246,-189.0682 535.3657,-176.4991 487.4824,-154 469.2696,-145.4423 472.6839,-131.5815 454.4824,-123 340.197,-69.1177 297.1088,-107.8014 172.4824,-87 162.1219,-85.2707 151.0135,-83.1327 140.6054,-81.0028"/>
<polygon fill="#191970" stroke="#191970" points="766.1747,-198.6934 776.3796,-195.8454 766.626,-191.7079 766.1747,-198.6934"/>
</g>
<!-- Node337&#45;&gt;Node330 -->
<g id="edge91" class="edge">
<title>Node337&#45;&gt;Node330</title>
<path fill="none" stroke="#191970" d="M819.8834,-186.925C774.4874,-170.5561 693.3677,-142.3236 622.4824,-123 559.058,-105.7103 484.8715,-90.4234 436.3984,-81.0854"/>
<polygon fill="#191970" stroke="#191970" points="818.9563,-190.3116 829.5505,-190.4264 821.3401,-183.73 818.9563,-190.3116"/>
</g>
<!-- Node337&#45;&gt;Node325 -->
<g id="edge92" class="edge">
<title>Node337&#45;&gt;Node325</title>
<path fill="none" stroke="#191970" d="M869.1377,-182.1708C874.6118,-174.0261 880.3544,-163.9823 883.4824,-154 891.3771,-128.8054 890.5062,-97.2084 889.3918,-81.428"/>
<polygon fill="#191970" stroke="#191970" points="866.1857,-180.282 863.225,-190.4548 871.8833,-184.3487 866.1857,-180.282"/>
</g>
<!-- Node338&#45;&gt;Node309 -->
<g id="edge97" class="edge">
<title>Node338&#45;&gt;Node309</title>
<path fill="none" stroke="#191970" d="M580.1587,-300.4452C561.467,-280.7007 532.8533,-246.2245 521.4824,-210 518.8202,-201.5191 517.9463,-198.1553 521.4824,-190 529.3921,-171.7576 547.2987,-157.0223 560.5423,-148.0606"/>
<polygon fill="#191970" stroke="#191970" points="577.7669,-303.006 587.2486,-307.7335 582.7845,-298.125 577.7669,-303.006"/>
</g>
<!-- Node338&#45;&gt;Node343 -->
<g id="edge98" class="edge">
<title>Node338&#45;&gt;Node343</title>
<path fill="none" stroke="#191970" d="M573.6745,-302.4142C550.6592,-287.8671 514.7737,-265.2809 483.4824,-246 462.8674,-233.2976 438.9533,-218.8742 423.5403,-209.6183"/>
<polygon fill="#191970" stroke="#191970" points="572.0867,-305.5513 582.4089,-307.9395 575.829,-299.6356 572.0867,-305.5513"/>
</g>
<!-- Node338&#45;&gt;Node345 -->
<g id="edge101" class="edge">
<title>Node338&#45;&gt;Node345</title>
<path fill="none" stroke="#191970" d="M558.8898,-304.6009C523.9918,-292.9366 473.4101,-276.0302 442.0305,-265.5419"/>
<polygon fill="#191970" stroke="#191970" points="558.1386,-308.04 568.7324,-307.8906 560.3576,-301.4011 558.1386,-308.04"/>
</g>
<!-- Node346 -->
<g id="node45" class="node">
<title>Node346</title>
<g id="a_node45"><a xlink:href="sitkPixelIDValues_8h.html" target="_top" xlink:title=" ">
<polygon fill="#ffffff" stroke="#ff0000" points="569.4824,-246.5 569.4824,-265.5 679.4824,-265.5 679.4824,-246.5 569.4824,-246.5"/>
<text text-anchor="middle" x="624.4824" y="-253.5" font-family="Helvetica,sans-Serif" font-size="10.00" fill="#000000">sitkPixelIDValues.h</text>
</a>
</g>
</g>
<!-- Node338&#45;&gt;Node346 -->
<g id="edge103" class="edge">
<title>Node338&#45;&gt;Node346</title>
<path fill="none" stroke="#191970" d="M605.8594,-298.4189C610.6135,-287.5901 616.3629,-274.4944 620.2041,-265.7449"/>
<polygon fill="#191970" stroke="#191970" points="602.5163,-297.3272 601.7011,-307.8906 608.9258,-300.1412 602.5163,-297.3272"/>
</g>
<!-- Node343&#45;&gt;Node309 -->
<g id="edge99" class="edge">
<title>Node343&#45;&gt;Node309</title>
<path fill="none" stroke="#191970" d="M443.3423,-186.9504C475.3803,-175.2916 521.5637,-158.4852 550.2615,-148.0419"/>
<polygon fill="#191970" stroke="#191970" points="442.0888,-183.6819 433.8886,-190.3906 444.4826,-190.2599 442.0888,-183.6819"/>
</g>
<!-- Node344 -->
<g id="node43" class="node">
<title>Node344</title>
<g id="a_node43"><a xlink:href="sitkPimpleImageBase_8h.html" target="_top" xlink:title=" ">
<polygon fill="#ffffff" stroke="#000000" points="313.4824,-129 313.4824,-148 445.4824,-148 445.4824,-129 313.4824,-129"/>
<text text-anchor="middle" x="379.4824" y="-136" font-family="Helvetica,sans-Serif" font-size="10.00" fill="#000000">sitkPimpleImageBase.h</text>
</a>
</g>
</g>
<!-- Node343&#45;&gt;Node344 -->
<g id="edge100" class="edge">
<title>Node343&#45;&gt;Node344</title>
<path fill="none" stroke="#191970" d="M398.9472,-181.253C393.988,-170.3606 387.9436,-157.0846 383.919,-148.2449"/>
<polygon fill="#191970" stroke="#191970" points="395.7783,-182.7398 403.1074,-190.3906 402.1491,-179.8392 395.7783,-182.7398"/>
</g>
<!-- Node345&#45;&gt;Node343 -->
<g id="edge102" class="edge">
<title>Node345&#45;&gt;Node343</title>
<path fill="none" stroke="#191970" d="M411.3564,-236.1575C410.3918,-227.155 409.2952,-216.9199 408.5155,-209.6427"/>
<polygon fill="#191970" stroke="#191970" points="407.8917,-236.6753 412.4372,-246.2455 414.8519,-235.9296 407.8917,-236.6753"/>
</g>
<!-- Node346&#45;&gt;Node337 -->
<g id="edge109" class="edge">
<title>Node346&#45;&gt;Node337</title>
<path fill="none" stroke="#191970" d="M673.7873,-244.0473C716.3046,-233.7401 776.8881,-219.0532 816.1972,-209.5237"/>
<polygon fill="#191970" stroke="#191970" points="672.8241,-240.6793 663.9302,-246.4369 674.4733,-247.4823 672.8241,-240.6793"/>
</g>
<!-- Node346&#45;&gt;Node347 -->
<g id="edge104" class="edge">
<title>Node346&#45;&gt;Node347</title>
<path fill="none" stroke="#191970" d="M612.2144,-237.9209C605.8336,-228.5176 598.2893,-217.3997 593.0256,-209.6427"/>
<polygon fill="#191970" stroke="#191970" points="609.352,-239.936 617.8633,-246.2455 615.1444,-236.0055 609.352,-239.936"/>
</g>
<!-- Node347&#45;&gt;Node8 -->
<g id="edge105" class="edge">
<title>Node347&#45;&gt;Node8</title>
<path fill="none" stroke="#191970" d="M642.642,-188.4921C724.9899,-171.9646 883.4842,-141.4688 1019.4824,-123 1188.4613,-100.0523 1233.0622,-113.7419 1401.4824,-87 1411.4255,-85.4212 1422.0782,-83.2635 1431.9658,-81.0598"/>
<polygon fill="#191970" stroke="#191970" points="641.855,-185.0802 632.7426,-190.4853 643.2368,-191.9425 641.855,-185.0802"/>
</g>
<!-- Node347&#45;&gt;Node309 -->
<g id="edge106" class="edge">
<title>Node347&#45;&gt;Node309</title>
<path fill="none" stroke="#191970" d="M583.2704,-180.2462C581.5315,-169.5519 579.4602,-156.814 578.0669,-148.2449"/>
<polygon fill="#191970" stroke="#191970" points="579.8602,-181.082 584.9199,-190.3906 586.7695,-179.9585 579.8602,-181.082"/>
</g>
<!-- Node347&#45;&gt;Node325 -->
<g id="edge108" class="edge">
<title>Node347&#45;&gt;Node325</title>
<path fill="none" stroke="#191970" d="M618.3908,-186.4231C679.753,-160.3136 812.8251,-103.6919 865.9318,-81.0952"/>
<polygon fill="#191970" stroke="#191970" points="617.0127,-183.2057 609.1814,-190.3416 619.7535,-189.6469 617.0127,-183.2057"/>
</g>
<!-- Node347&#45;&gt;Node344 -->
<g id="edge107" class="edge">
<title>Node347&#45;&gt;Node344</title>
<path fill="none" stroke="#191970" d="M544.3233,-187.4745C505.0291,-175.8001 447.2799,-158.6427 411.599,-148.0419"/>
<polygon fill="#191970" stroke="#191970" points="543.5559,-190.8976 554.1386,-190.3906 545.5495,-184.1875 543.5559,-190.8976"/>
</g>
<!-- Node372&#45;&gt;Node331 -->
<g id="edge115" class="edge">
<title>Node372&#45;&gt;Node331</title>
<path fill="none" stroke="#191970" d="M175.056,-122.6559C191.8281,-109.7395 214.9667,-91.9201 229.0405,-81.0817"/>
<polygon fill="#191970" stroke="#191970" points="172.7347,-120.026 166.9473,-128.9005 177.0058,-125.572 172.7347,-120.026"/>
</g>
<!-- Node372&#45;&gt;Node332 -->
<g id="edge116" class="edge">
<title>Node372&#45;&gt;Node332</title>
<path fill="none" stroke="#191970" d="M139.777,-121.2147C128.9098,-108.441 114.5163,-91.5224 105.6339,-81.0817"/>
<polygon fill="#191970" stroke="#191970" points="137.17,-123.5519 146.3157,-128.9005 142.5016,-119.016 137.17,-123.5519"/>
</g>
<!-- Node373&#45;&gt;Node325 -->
<g id="edge122" class="edge">
<title>Node373&#45;&gt;Node325</title>
<path fill="none" stroke="#191970" d="M797.1699,-241.1755C778.6325,-228.9519 758.9231,-210.3627 767.4824,-190 789.0164,-138.7702 844.7062,-98.5949 872.3814,-81.0747"/>
<polygon fill="#191970" stroke="#191970" points="795.4243,-244.2111 805.7721,-246.4859 799.1014,-238.2546 795.4243,-244.2111"/>
</g>
<!-- Node374&#45;&gt;Node5 -->
<g id="edge127" class="edge">
<title>Node374&#45;&gt;Node5</title>
<path fill="none" stroke="#191970" d="M363.5803,-372.6188C282.9601,-364.7824 157.7144,-350.3695 113.4824,-333 57.5958,-311.0539 2.4824,-316.0411 2.4824,-256 2.4824,-256 2.4824,-256 2.4824,-138.5 2.4824,-100.8735 -7.4471,-80.0591 21.4824,-56 61.8818,-22.4019 866.8345,-12.2474 1051.8145,-10.3533"/>
<polygon fill="#191970" stroke="#191970" points="363.3811,-376.1157 373.67,-373.5879 364.0504,-369.1478 363.3811,-376.1157"/>
</g>
<!-- Node374&#45;&gt;Node307 -->
<g id="edge125" class="edge">
<title>Node374&#45;&gt;Node307</title>
<path fill="none" stroke="#191970" d="M507.3708,-368.9747C588.3232,-357.6855 719.2675,-339.4245 801.4771,-327.9599"/>
<polygon fill="#191970" stroke="#191970" points="506.6866,-365.5362 497.2659,-370.3839 507.6535,-372.4691 506.6866,-365.5362"/>
</g>
<!-- Node374&#45;&gt;Node346 -->
<g id="edge126" class="edge">
<title>Node374&#45;&gt;Node346</title>
<path fill="none" stroke="#191970" d="M432.7108,-359.2478C431.4611,-342.0215 432.67,-317.4374 446.4824,-302 462.7637,-283.8032 523.1641,-270.9264 569.1319,-263.5103"/>
<polygon fill="#191970" stroke="#191970" points="429.2453,-359.7597 433.7793,-369.3354 436.2064,-359.0223 429.2453,-359.7597"/>
</g>
</g>
</svg>
