<?xml version="1.0" encoding="UTF-8" standalone="no"?>
<!DOCTYPE svg PUBLIC "-//W3C//DTD SVG 1.1//EN"
 "http://www.w3.org/Graphics/SVG/1.1/DTD/svg11.dtd">
<!-- Generated by graphviz version 2.40.1 (20161225.0304)
 -->
<!-- Title: sitkMemberFunctionFactoryBase.h Pages: 1 -->
<!--zoomable 263 -->
<svg id="main" version="1.1" xmlns="http://www.w3.org/2000/svg" xmlns:xlink="http://www.w3.org/1999/xlink" xml:space="preserve" onload="init(evt)">
<style type="text/css"><![CDATA[
.edge:hover path { stroke: red; }
.edge:hover polygon { stroke: red; fill: red; }
]]></style>
<script type="text/javascript"><![CDATA[
var edges = document.getElementsByTagName('g');
if (edges && edges.length) {
  for (var i=0;i<edges.length;i++) {
    if (edges[i].id.substr(0,4)=='edge') {
      edges[i].setAttribute('class','edge');
    }
  }
}
]]></script>
        <defs>
                <circle id="rim" cx="0" cy="0" r="7"/>
                <circle id="rim2" cx="0" cy="0" r="3.5"/>
                <g id="zoomPlus">
                        <use xlink:href="#rim" fill="#404040">
                                <set attributeName="fill" to="#808080" begin="zoomplus.mouseover" end="zoomplus.mouseout"/>
                        </use>
                        <path d="M-4,0h8M0,-4v8" fill="none" stroke="white" stroke-width="1.5" pointer-events="none"/>
                </g>
                <g id="zoomMin">
                        <use xlink:href="#rim" fill="#404040">
                                <set attributeName="fill" to="#808080" begin="zoomminus.mouseover" end="zoomminus.mouseout"/>
                        </use>
                        <path d="M-4,0h8" fill="none" stroke="white" stroke-width="1.5" pointer-events="none"/>
                </g>
                <g id="dirArrow">
                        <path fill="none" stroke="white" stroke-width="1.5" d="M0,-3.0v7 M-2.5,-0.5L0,-3.0L2.5,-0.5"/>
                </g>
               <g id="resetDef">
                       <use xlink:href="#rim2" fill="#404040">
                               <set attributeName="fill" to="#808080" begin="reset.mouseover" end="reset.mouseout"/>
                       </use>
               </g>
        </defs>

<script type="text/javascript">
var viewWidth = 918;
var viewHeight = 263;
var sectionId = 'dynsection-0';
</script>
<script xlink:href="svgpan.js"/>
<svg id="graph" class="graph">
<g id="viewport">
<title>sitkMemberFunctionFactoryBase.h</title>
<polygon fill="#ffffff" stroke="transparent" points="-4,4 -4,-259 914.3378,-259 914.3378,4 -4,4"/>
<!-- Node1 -->
<g id="node1" class="node">
<title>Node1</title>
<g id="a_node1"><a xlink:title=" ">
<polygon fill="#bfbfbf" stroke="#000000" points="346.8378,-224.5 346.8378,-254.5 496.8378,-254.5 496.8378,-224.5 346.8378,-224.5"/>
<text text-anchor="start" x="354.8378" y="-242.5" font-family="Helvetica,sans-Serif" font-size="10.00" fill="#000000">sitkMemberFunctionFactory</text>
<text text-anchor="middle" x="421.8378" y="-231.5" font-family="Helvetica,sans-Serif" font-size="10.00" fill="#000000">Base.h</text>
</a>
</g>
</g>
<!-- Node2 -->
<g id="node2" class="node">
<title>Node2</title>
<g id="a_node2"><a xlink:href="sitkConfigure_8h.html" target="_top" xlink:title=" ">
<polygon fill="#ffffff" stroke="#000000" points="104.8378,-.5 104.8378,-19.5 194.8378,-19.5 194.8378,-.5 104.8378,-.5"/>
<text text-anchor="middle" x="149.8378" y="-7.5" font-family="Helvetica,sans-Serif" font-size="10.00" fill="#000000">sitkConfigure.h</text>
</a>
</g>
</g>
<!-- Node1&#45;&gt;Node2 -->
<g id="edge1" class="edge">
<title>Node1&#45;&gt;Node2</title>
<path fill="none" stroke="#191970" d="M346.5912,-232.3039C236.7374,-219.9094 41.6837,-190.0764 6.8378,-132 -23.1316,-82.051 58.212,-42.4446 110.2123,-23.0412"/>
<polygon fill="#191970" stroke="#191970" points="111.6539,-26.2416 119.8632,-19.544 109.269,-19.6604 111.6539,-26.2416"/>
</g>
<!-- Node3 -->
<g id="node3" class="node">
<title>Node3</title>
<g id="a_node3"><a xlink:href="sitkPixelIDTypes_8h.html" target="_top" xlink:title=" ">
<polygon fill="#ffffff" stroke="#000000" points="15.8378,-112.5 15.8378,-131.5 121.8378,-131.5 121.8378,-112.5 15.8378,-112.5"/>
<text text-anchor="middle" x="68.8378" y="-119.5" font-family="Helvetica,sans-Serif" font-size="10.00" fill="#000000">sitkPixelIDTypes.h</text>
</a>
</g>
</g>
<!-- Node1&#45;&gt;Node3 -->
<g id="edge2" class="edge">
<title>Node1&#45;&gt;Node3</title>
<path fill="none" stroke="#191970" d="M346.7344,-229.948C277.5632,-220.3495 180.5694,-204.6297 145.8378,-188 121.4516,-176.3237 98.6153,-154.9072 84.2441,-139.6372"/>
<polygon fill="#191970" stroke="#191970" points="86.4999,-136.9167 77.175,-131.8872 81.3282,-141.634 86.4999,-136.9167"/>
</g>
<!-- Node4 -->
<g id="node4" class="node">
<title>Node4</title>
<g id="a_node4"><a xlink:href="sitkPixelIDTypeLists_8h.html" target="_top" xlink:title=" ">
<polygon fill="#ffffff" stroke="#000000" points="155.3378,-168.5 155.3378,-187.5 278.3378,-187.5 278.3378,-168.5 155.3378,-168.5"/>
<text text-anchor="middle" x="216.8378" y="-175.5" font-family="Helvetica,sans-Serif" font-size="10.00" fill="#000000">sitkPixelIDTypeLists.h</text>
</a>
</g>
</g>
<!-- Node1&#45;&gt;Node4 -->
<g id="edge3" class="edge">
<title>Node1&#45;&gt;Node4</title>
<path fill="none" stroke="#191970" d="M371.6892,-224.4554C336.8843,-214.0139 291.0711,-200.27 258.3227,-190.4455"/>
<polygon fill="#191970" stroke="#191970" points="259.1896,-187.0515 248.6055,-187.5303 257.1781,-193.7563 259.1896,-187.0515"/>
</g>
<!-- Node6 -->
<g id="node6" class="node">
<title>Node6</title>
<g id="a_node6"><a xlink:title=" ">
<polygon fill="#ffffff" stroke="#bfbfbf" points="293.3378,-112.5 293.3378,-131.5 404.3378,-131.5 404.3378,-112.5 293.3378,-112.5"/>
<text text-anchor="middle" x="348.8378" y="-119.5" font-family="Helvetica,sans-Serif" font-size="10.00" fill="#000000">Ancillary/TypeList.h</text>
</a>
</g>
</g>
<!-- Node1&#45;&gt;Node6 -->
<g id="edge19" class="edge">
<title>Node1&#45;&gt;Node6</title>
<path fill="none" stroke="#191970" d="M412.2943,-224.1389C398.903,-202.5843 374.5739,-163.4245 360.2447,-140.3604"/>
<polygon fill="#191970" stroke="#191970" points="363.0271,-138.2066 354.7769,-131.5595 357.0812,-141.9007 363.0271,-138.2066"/>
</g>
<!-- Node8 -->
<g id="node8" class="node">
<title>Node8</title>
<g id="a_node8"><a xlink:href="sitkMacro_8h.html" target="_top" xlink:title=" ">
<polygon fill="#ffffff" stroke="#000000" points="389.3378,-56.5 389.3378,-75.5 462.3378,-75.5 462.3378,-56.5 389.3378,-56.5"/>
<text text-anchor="middle" x="425.8378" y="-63.5" font-family="Helvetica,sans-Serif" font-size="10.00" fill="#000000">sitkMacro.h</text>
</a>
</g>
</g>
<!-- Node1&#45;&gt;Node8 -->
<g id="edge9" class="edge">
<title>Node1&#45;&gt;Node8</title>
<path fill="none" stroke="#191970" d="M422.1858,-224.4065C422.9064,-193.1485 424.5624,-121.3214 425.3733,-86.1492"/>
<polygon fill="#191970" stroke="#191970" points="428.8818,-85.816 425.6133,-75.738 421.8837,-85.6546 428.8818,-85.816"/>
</g>
<!-- Node13 -->
<g id="node13" class="node">
<title>Node13</title>
<g id="a_node13"><a xlink:href="sitkNonCopyable_8h.html" target="_top" xlink:title=" ">
<polygon fill="#ffffff" stroke="#000000" points="450.3378,-168.5 450.3378,-187.5 559.3378,-187.5 559.3378,-168.5 450.3378,-168.5"/>
<text text-anchor="middle" x="504.8378" y="-175.5" font-family="Helvetica,sans-Serif" font-size="10.00" fill="#000000">sitkNonCopyable.h</text>
</a>
</g>
</g>
<!-- Node1&#45;&gt;Node13 -->
<g id="edge16" class="edge">
<title>Node1&#45;&gt;Node13</title>
<path fill="none" stroke="#191970" d="M442.3547,-224.2977C454.836,-215.0495 470.7538,-203.2551 483.3992,-193.8853"/>
<polygon fill="#191970" stroke="#191970" points="485.5975,-196.6126 491.5485,-187.8469 481.43,-190.9882 485.5975,-196.6126"/>
</g>
<!-- Node15 -->
<g id="node15" class="node">
<title>Node15</title>
<g id="a_node15"><a xlink:title=" ">
<polygon fill="#ffffff" stroke="#bfbfbf" points="577.8378,-168.5 577.8378,-187.5 715.8378,-187.5 715.8378,-168.5 577.8378,-168.5"/>
<text text-anchor="middle" x="646.8378" y="-175.5" font-family="Helvetica,sans-Serif" font-size="10.00" fill="#000000">Ancillary/FunctionTraits.h</text>
</a>
</g>
</g>
<!-- Node1&#45;&gt;Node15 -->
<g id="edge20" class="edge">
<title>Node1&#45;&gt;Node15</title>
<path fill="none" stroke="#191970" d="M476.879,-224.4554C515.4088,-213.9239 566.2301,-200.0328 602.2319,-190.1923"/>
<polygon fill="#191970" stroke="#191970" points="603.2475,-193.5432 611.9708,-187.5303 601.4018,-186.7909 603.2475,-193.5432"/>
</g>
<!-- Node16 -->
<g id="node16" class="node">
<title>Node16</title>
<g id="a_node16"><a xlink:title=" ">
<polygon fill="#ffffff" stroke="#bfbfbf" points="734.3378,-168.5 734.3378,-187.5 827.3378,-187.5 827.3378,-168.5 734.3378,-168.5"/>
<text text-anchor="middle" x="780.8378" y="-175.5" font-family="Helvetica,sans-Serif" font-size="10.00" fill="#000000">unordered_map</text>
</a>
</g>
</g>
<!-- Node1&#45;&gt;Node16 -->
<g id="edge21" class="edge">
<title>Node1&#45;&gt;Node16</title>
<path fill="none" stroke="#191970" d="M496.8908,-226.9226C555.8894,-216.9941 640.4359,-202.6754 724.1535,-188.1087"/>
<polygon fill="#191970" stroke="#191970" points="724.841,-191.5417 734.0921,-186.3775 723.6398,-184.6456 724.841,-191.5417"/>
</g>
<!-- Node17 -->
<g id="node17" class="node">
<title>Node17</title>
<g id="a_node17"><a xlink:title=" ">
<polygon fill="#ffffff" stroke="#bfbfbf" points="845.3378,-168.5 845.3378,-187.5 910.3378,-187.5 910.3378,-168.5 845.3378,-168.5"/>
<text text-anchor="middle" x="877.8378" y="-175.5" font-family="Helvetica,sans-Serif" font-size="10.00" fill="#000000">functional</text>
</a>
</g>
</g>
<!-- Node1&#45;&gt;Node17 -->
<g id="edge22" class="edge">
<title>Node1&#45;&gt;Node17</title>
<path fill="none" stroke="#191970" d="M497.2076,-232.794C578.4695,-224.9661 711.753,-210.3991 835.2285,-188.1376"/>
<polygon fill="#191970" stroke="#191970" points="836.0277,-191.5496 845.2373,-186.312 834.7716,-184.6633 836.0277,-191.5496"/>
</g>
<!-- Node4&#45;&gt;Node2 -->
<g id="edge5" class="edge">
<title>Node4&#45;&gt;Node2</title>
<path fill="none" stroke="#191970" d="M213.0436,-168.4862C202.3608,-141.6994 171.8746,-65.2565 157.5065,-29.2289"/>
<polygon fill="#191970" stroke="#191970" points="160.7127,-27.8199 153.7573,-19.8279 154.2107,-30.413 160.7127,-27.8199"/>
</g>
<!-- Node4&#45;&gt;Node3 -->
<g id="edge6" class="edge">
<title>Node4&#45;&gt;Node3</title>
<path fill="none" stroke="#191970" d="M191.3957,-168.3733C167.1052,-159.1822 130.317,-145.2624 103.3835,-135.0713"/>
<polygon fill="#191970" stroke="#191970" points="104.5394,-131.7666 93.9479,-131.5011 102.0622,-138.3136 104.5394,-131.7666"/>
</g>
<!-- Node5 -->
<g id="node5" class="node">
<title>Node5</title>
<g id="a_node5"><a xlink:title=" ">
<polygon fill="#ffffff" stroke="#bfbfbf" points="239.3378,-.5 239.3378,-19.5 292.3378,-19.5 292.3378,-.5 239.3378,-.5"/>
<text text-anchor="middle" x="265.8378" y="-7.5" font-family="Helvetica,sans-Serif" font-size="10.00" fill="#000000">stdint.h</text>
</a>
</g>
</g>
<!-- Node4&#45;&gt;Node5 -->
<g id="edge4" class="edge">
<title>Node4&#45;&gt;Node5</title>
<path fill="none" stroke="#191970" d="M212.9695,-168.4638C208.26,-155.5076 201.5507,-131.6997 206.8378,-112 215.4898,-79.7625 237.0795,-47.1846 251.6008,-27.7953"/>
<polygon fill="#191970" stroke="#191970" points="254.5608,-29.6879 257.8887,-19.6293 249.0146,-25.4172 254.5608,-29.6879"/>
</g>
<!-- Node4&#45;&gt;Node6 -->
<g id="edge7" class="edge">
<title>Node4&#45;&gt;Node6</title>
<path fill="none" stroke="#191970" d="M239.5294,-168.3733C260.9089,-159.3032 293.1435,-145.6279 317.074,-135.4755"/>
<polygon fill="#191970" stroke="#191970" points="318.6034,-138.6287 326.4423,-131.5011 315.8695,-132.1846 318.6034,-138.6287"/>
</g>
<!-- Node7 -->
<g id="node7" class="node">
<title>Node7</title>
<g id="a_node7"><a xlink:title=" ">
<polygon fill="#ffffff" stroke="#bfbfbf" points="216.3378,-112.5 216.3378,-131.5 275.3378,-131.5 275.3378,-112.5 216.3378,-112.5"/>
<text text-anchor="middle" x="245.8378" y="-119.5" font-family="Helvetica,sans-Serif" font-size="10.00" fill="#000000">complex</text>
</a>
</g>
</g>
<!-- Node4&#45;&gt;Node7 -->
<g id="edge8" class="edge">
<title>Node4&#45;&gt;Node7</title>
<path fill="none" stroke="#191970" d="M221.8892,-168.2455C225.8397,-160.617 231.4475,-149.7881 236.2436,-140.5267"/>
<polygon fill="#191970" stroke="#191970" points="239.3537,-142.1321 240.8443,-131.6427 233.1377,-138.9131 239.3537,-142.1321"/>
</g>
<!-- Node8&#45;&gt;Node2 -->
<g id="edge15" class="edge">
<title>Node8&#45;&gt;Node2</title>
<path fill="none" stroke="#191970" d="M389.1872,-58.5636C341.9762,-48.9846 259.4954,-32.2494 204.7706,-21.1458"/>
<polygon fill="#191970" stroke="#191970" points="205.3864,-17.6995 194.8901,-19.141 203.9944,-24.5597 205.3864,-17.6995"/>
</g>
<!-- Node8&#45;&gt;Node5 -->
<g id="edge10" class="edge">
<title>Node8&#45;&gt;Node5</title>
<path fill="none" stroke="#191970" d="M398.3328,-56.3733C371.6819,-47.0454 331.1148,-32.8469 301.8914,-22.6188"/>
<polygon fill="#191970" stroke="#191970" points="303.0471,-19.3151 292.4522,-19.315 300.7346,-25.9221 303.0471,-19.3151"/>
</g>
<!-- Node9 -->
<g id="node9" class="node">
<title>Node9</title>
<g id="a_node9"><a xlink:title=" ">
<polygon fill="#ffffff" stroke="#bfbfbf" points="459.8378,-.5 459.8378,-19.5 515.8378,-19.5 515.8378,-.5 459.8378,-.5"/>
<text text-anchor="middle" x="487.8378" y="-7.5" font-family="Helvetica,sans-Serif" font-size="10.00" fill="#000000">stddef.h</text>
</a>
</g>
</g>
<!-- Node8&#45;&gt;Node9 -->
<g id="edge11" class="edge">
<title>Node8&#45;&gt;Node9</title>
<path fill="none" stroke="#191970" d="M436.6374,-56.2455C445.7056,-48.0549 458.8584,-36.1749 469.5623,-26.5069"/>
<polygon fill="#191970" stroke="#191970" points="472.087,-28.9429 477.162,-19.6427 467.3949,-23.7482 472.087,-28.9429"/>
</g>
<!-- Node10 -->
<g id="node10" class="node">
<title>Node10</title>
<g id="a_node10"><a xlink:title=" ">
<polygon fill="#ffffff" stroke="#bfbfbf" points="533.8378,-.5 533.8378,-19.5 585.8378,-19.5 585.8378,-.5 533.8378,-.5"/>
<text text-anchor="middle" x="559.8378" y="-7.5" font-family="Helvetica,sans-Serif" font-size="10.00" fill="#000000">cassert</text>
</a>
</g>
</g>
<!-- Node8&#45;&gt;Node10 -->
<g id="edge12" class="edge">
<title>Node8&#45;&gt;Node10</title>
<path fill="none" stroke="#191970" d="M448.8732,-56.3733C470.5766,-47.3032 503.2997,-33.6279 527.5928,-23.4755"/>
<polygon fill="#191970" stroke="#191970" points="529.2259,-26.5865 537.103,-19.5011 526.5267,-20.1278 529.2259,-26.5865"/>
</g>
<!-- Node11 -->
<g id="node11" class="node">
<title>Node11</title>
<g id="a_node11"><a xlink:title=" ">
<polygon fill="#ffffff" stroke="#bfbfbf" points="323.8378,-.5 323.8378,-19.5 379.8378,-19.5 379.8378,-.5 323.8378,-.5"/>
<text text-anchor="middle" x="351.8378" y="-7.5" font-family="Helvetica,sans-Serif" font-size="10.00" fill="#000000">sstream</text>
</a>
</g>
</g>
<!-- Node8&#45;&gt;Node11 -->
<g id="edge13" class="edge">
<title>Node8&#45;&gt;Node11</title>
<path fill="none" stroke="#191970" d="M412.948,-56.2455C401.9125,-47.8943 385.8086,-35.7076 372.9025,-25.9408"/>
<polygon fill="#191970" stroke="#191970" points="374.6661,-22.8862 364.5799,-19.6427 370.4419,-28.4681 374.6661,-22.8862"/>
</g>
<!-- Node12 -->
<g id="node12" class="node">
<title>Node12</title>
<g id="a_node12"><a xlink:title=" ">
<polygon fill="#ffffff" stroke="#bfbfbf" points="397.8378,-.5 397.8378,-19.5 441.8378,-19.5 441.8378,-.5 397.8378,-.5"/>
<text text-anchor="middle" x="419.8378" y="-7.5" font-family="Helvetica,sans-Serif" font-size="10.00" fill="#000000">limits</text>
</a>
</g>
</g>
<!-- Node8&#45;&gt;Node12 -->
<g id="edge14" class="edge">
<title>Node8&#45;&gt;Node12</title>
<path fill="none" stroke="#191970" d="M424.7927,-56.2455C424.0098,-48.9382 422.9122,-38.6944 421.949,-29.7046"/>
<polygon fill="#191970" stroke="#191970" points="425.4165,-29.2129 420.871,-19.6427 418.4563,-29.9587 425.4165,-29.2129"/>
</g>
<!-- Node14 -->
<g id="node14" class="node">
<title>Node14</title>
<g id="a_node14"><a xlink:href="sitkCommon_8h.html" target="_top" xlink:title=" ">
<polygon fill="#ffffff" stroke="#000000" points="460.8378,-112.5 460.8378,-131.5 548.8378,-131.5 548.8378,-112.5 460.8378,-112.5"/>
<text text-anchor="middle" x="504.8378" y="-119.5" font-family="Helvetica,sans-Serif" font-size="10.00" fill="#000000">sitkCommon.h</text>
</a>
</g>
</g>
<!-- Node13&#45;&gt;Node14 -->
<g id="edge17" class="edge">
<title>Node13&#45;&gt;Node14</title>
<path fill="none" stroke="#191970" d="M504.8378,-168.2455C504.8378,-160.9382 504.8378,-150.6944 504.8378,-141.7046"/>
<polygon fill="#191970" stroke="#191970" points="508.3379,-141.6426 504.8378,-131.6427 501.3379,-141.6427 508.3379,-141.6426"/>
</g>
<!-- Node14&#45;&gt;Node8 -->
<g id="edge18" class="edge">
<title>Node14&#45;&gt;Node8</title>
<path fill="none" stroke="#191970" d="M491.0771,-112.2455C479.1826,-103.814 461.7728,-91.4729 447.9293,-81.6598"/>
<polygon fill="#191970" stroke="#191970" points="449.6232,-78.5704 439.4409,-75.6427 445.575,-84.2811 449.6232,-78.5704"/>
</g>
</g>
</svg>
        <g id="navigator" transform="translate(0 0)" fill="#404254">
                <rect fill="#f2f5e9" fill-opacity="0.5" stroke="#606060" stroke-width=".5" x="0" y="0" width="60" height="60"/>
                <use id="zoomplus" xlink:href="#zoomPlus" x="17" y="9" onmousedown="handleZoom(evt,'in')"/>
                <use id="zoomminus" xlink:href="#zoomMin" x="42" y="9" onmousedown="handleZoom(evt,'out')"/>
                <use id="reset" xlink:href="#resetDef" x="30" y="36" onmousedown="handleReset()"/>
                <g id="arrowUp" xlink:href="#dirArrow" transform="translate(30 24)" onmousedown="handlePan(0,-1)">
                  <use xlink:href="#rim" fill="#404040">
                        <set attributeName="fill" to="#808080" begin="arrowUp.mouseover" end="arrowUp.mouseout"/>
                  </use>
                  <path fill="none" stroke="white" stroke-width="1.5" d="M0,-3.0v7 M-2.5,-0.5L0,-3.0L2.5,-0.5"/>
                </g>
                <g id="arrowRight" xlink:href="#dirArrow" transform="rotate(90) translate(36 -43)" onmousedown="handlePan(1,0)">
                  <use xlink:href="#rim" fill="#404040">
                        <set attributeName="fill" to="#808080" begin="arrowRight.mouseover" end="arrowRight.mouseout"/>
                  </use>
                  <path fill="none" stroke="white" stroke-width="1.5" d="M0,-3.0v7 M-2.5,-0.5L0,-3.0L2.5,-0.5"/>
                </g>
                <g id="arrowDown" xlink:href="#dirArrow" transform="rotate(180) translate(-30 -48)" onmousedown="handlePan(0,1)">
                  <use xlink:href="#rim" fill="#404040">
                        <set attributeName="fill" to="#808080" begin="arrowDown.mouseover" end="arrowDown.mouseout"/>
                  </use>
                  <path fill="none" stroke="white" stroke-width="1.5" d="M0,-3.0v7 M-2.5,-0.5L0,-3.0L2.5,-0.5"/>
                </g>
                <g id="arrowLeft" xlink:href="#dirArrow" transform="rotate(270) translate(-36 17)" onmousedown="handlePan(-1,0)">
                  <use xlink:href="#rim" fill="#404040">
                        <set attributeName="fill" to="#808080" begin="arrowLeft.mouseover" end="arrowLeft.mouseout"/>
                  </use>
                  <path fill="none" stroke="white" stroke-width="1.5" d="M0,-3.0v7 M-2.5,-0.5L0,-3.0L2.5,-0.5"/>
                </g>
        </g>
        <svg viewBox="0 0 15 15" width="100%" height="30px" preserveAspectRatio="xMaxYMin meet">
         <g id="arrow_out" transform="scale(0.3 0.3)">
          <a xlink:href="sitkMemberFunctionFactoryBase_8h__incl_org.svg" target="_base">
           <rect id="button" ry="5" rx="5" y="6" x="6" height="38" width="38"
                fill="#f2f5e9" fill-opacity="0.5" stroke="#606060" stroke-width="1.0"/>
           <path id="arrow"
             d="M 11.500037,31.436501 C 11.940474,20.09759 22.043105,11.32322 32.158766,21.979434 L 37.068811,17.246167 C 37.068811,17.246167 37.088388,32 37.088388,32 L 22.160133,31.978069 C 22.160133,31.978069 26.997745,27.140456 26.997745,27.140456 C 18.528582,18.264221 13.291696,25.230495 11.500037,31.436501 z"
             style="fill:#404040;"/>
          </a>
         </g>
        </svg>
</svg>
