<?xml version="1.0" encoding="UTF-8" standalone="no"?>
<!DOCTYPE svg PUBLIC "-//W3C//DTD SVG 1.1//EN"
 "http://www.w3.org/Graphics/SVG/1.1/DTD/svg11.dtd">
<!-- Generated by graphviz version 2.40.1 (20161225.0304)
 -->
<!-- Title: sitkBSplineTransform.h Pages: 1 -->
<svg width="211pt" height="151pt"
 viewBox="0.00 0.00 210.50 151.00" xmlns="http://www.w3.org/2000/svg" xmlns:xlink="http://www.w3.org/1999/xlink">
<g id="graph0" class="graph" transform="scale(1 1) rotate(0) translate(4 147)">
<title>sitkBSplineTransform.h</title>
<polygon fill="#ffffff" stroke="transparent" points="-4,4 -4,-147 206.5,-147 206.5,4 -4,4"/>
<!-- Node1 -->
<g id="node1" class="node">
<title>Node1</title>
<g id="a_node1"><a xlink:title=" ">
<polygon fill="#bfbfbf" stroke="#000000" points="73.5,-123.5 73.5,-142.5 202.5,-142.5 202.5,-123.5 73.5,-123.5"/>
<text text-anchor="middle" x="138" y="-130.5" font-family="Helvetica,sans-Serif" font-size="10.00" fill="#000000">sitkBSplineTransform.h</text>
</a>
</g>
</g>
<!-- Node2 -->
<g id="node2" class="node">
<title>Node2</title>
<g id="a_node2"><a xlink:href="sitkBSplineTransformInitializerFilter_8h.html" target="_top" xlink:title=" ">
<polygon fill="#ffffff" stroke="#000000" points="0,-56.5 0,-86.5 166,-86.5 166,-56.5 0,-56.5"/>
<text text-anchor="start" x="8" y="-74.5" font-family="Helvetica,sans-Serif" font-size="10.00" fill="#000000">sitkBSplineTransformInitializer</text>
<text text-anchor="middle" x="83" y="-63.5" font-family="Helvetica,sans-Serif" font-size="10.00" fill="#000000">Filter.h</text>
</a>
</g>
</g>
<!-- Node1&#45;&gt;Node2 -->
<g id="edge1" class="edge">
<title>Node1&#45;&gt;Node2</title>
<path fill="none" stroke="#191970" d="M122.7354,-115.9314C114.4905,-106.7122 104.4027,-95.4321 96.4545,-86.5446"/>
<polygon fill="#191970" stroke="#191970" points="120.1311,-118.2698 129.4063,-123.3906 125.3489,-113.6034 120.1311,-118.2698"/>
</g>
<!-- Node3 -->
<g id="node3" class="node">
<title>Node3</title>
<g id="a_node3"><a xlink:href="SimpleITK_8h.html" target="_top" xlink:title=" ">
<polygon fill="#ffffff" stroke="#000000" points="100.5,-.5 100.5,-19.5 175.5,-19.5 175.5,-.5 100.5,-.5"/>
<text text-anchor="middle" x="138" y="-7.5" font-family="Helvetica,sans-Serif" font-size="10.00" fill="#000000">SimpleITK.h</text>
</a>
</g>
</g>
<!-- Node1&#45;&gt;Node3 -->
<g id="edge3" class="edge">
<title>Node1&#45;&gt;Node3</title>
<path fill="none" stroke="#191970" d="M156.2328,-116.0939C163.5598,-108.0754 171.1691,-97.875 175,-87 179.5777,-74.0049 179.5777,-68.9951 175,-56 169.8921,-41.5 158.0671,-28.1993 149.1502,-19.6707"/>
<polygon fill="#191970" stroke="#191970" points="153.6443,-113.7348 149.1502,-123.3293 158.6466,-118.6314 153.6443,-113.7348"/>
</g>
<!-- Node2&#45;&gt;Node3 -->
<g id="edge2" class="edge">
<title>Node2&#45;&gt;Node3</title>
<path fill="none" stroke="#191970" d="M103.4198,-48.6669C112.3093,-38.7269 122.2579,-27.6026 129.1938,-19.8469"/>
<polygon fill="#191970" stroke="#191970" points="100.6528,-46.5106 96.5955,-56.2977 105.8706,-51.1769 100.6528,-46.5106"/>
</g>
</g>
</svg>
