<?xml version="1.0" encoding="UTF-8" standalone="no"?>
<!DOCTYPE svg PUBLIC "-//W3C//DTD SVG 1.1//EN"
 "http://www.w3.org/Graphics/SVG/1.1/DTD/svg11.dtd">
<!-- Generated by graphviz version 2.40.1 (20161225.0304)
 -->
<!-- Title: sitkExplicitITKImportImageContainer.h Pages: 1 -->
<!--zoomable 655 -->
<svg id="main" version="1.1" xmlns="http://www.w3.org/2000/svg" xmlns:xlink="http://www.w3.org/1999/xlink" xml:space="preserve" onload="init(evt)">
<style type="text/css"><![CDATA[
.edge:hover path { stroke: red; }
.edge:hover polygon { stroke: red; fill: red; }
]]></style>
<script type="text/javascript"><![CDATA[
var edges = document.getElementsByTagName('g');
if (edges && edges.length) {
  for (var i=0;i<edges.length;i++) {
    if (edges[i].id.substr(0,4)=='edge') {
      edges[i].setAttribute('class','edge');
    }
  }
}
]]></script>
        <defs>
                <circle id="rim" cx="0" cy="0" r="7"/>
                <circle id="rim2" cx="0" cy="0" r="3.5"/>
                <g id="zoomPlus">
                        <use xlink:href="#rim" fill="#404040">
                                <set attributeName="fill" to="#808080" begin="zoomplus.mouseover" end="zoomplus.mouseout"/>
                        </use>
                        <path d="M-4,0h8M0,-4v8" fill="none" stroke="white" stroke-width="1.5" pointer-events="none"/>
                </g>
                <g id="zoomMin">
                        <use xlink:href="#rim" fill="#404040">
                                <set attributeName="fill" to="#808080" begin="zoomminus.mouseover" end="zoomminus.mouseout"/>
                        </use>
                        <path d="M-4,0h8" fill="none" stroke="white" stroke-width="1.5" pointer-events="none"/>
                </g>
                <g id="dirArrow">
                        <path fill="none" stroke="white" stroke-width="1.5" d="M0,-3.0v7 M-2.5,-0.5L0,-3.0L2.5,-0.5"/>
                </g>
               <g id="resetDef">
                       <use xlink:href="#rim2" fill="#404040">
                               <set attributeName="fill" to="#808080" begin="reset.mouseover" end="reset.mouseout"/>
                       </use>
               </g>
        </defs>

<script type="text/javascript">
var viewWidth = 880;
var viewHeight = 655;
var sectionId = 'dynsection-0';
</script>
<script xlink:href="svgpan.js"/>
<svg id="graph" class="graph">
<g id="viewport">
<title>sitkExplicitITKImportImageContainer.h</title>
<polygon fill="#ffffff" stroke="transparent" points="-4,4 -4,-651 875.5,-651 875.5,4 -4,4"/>
<!-- Node1 -->
<g id="node1" class="node">
<title>Node1</title>
<g id="a_node1"><a xlink:title=" ">
<polygon fill="#bfbfbf" stroke="#000000" points="323.5,-616.5 323.5,-646.5 472.5,-646.5 472.5,-616.5 323.5,-616.5"/>
<text text-anchor="start" x="331.5" y="-634.5" font-family="Helvetica,sans-Serif" font-size="10.00" fill="#000000">sitkExplicitITKImportImage</text>
<text text-anchor="middle" x="398" y="-623.5" font-family="Helvetica,sans-Serif" font-size="10.00" fill="#000000">Container.h</text>
</a>
</g>
</g>
<!-- Node2 -->
<g id="node2" class="node">
<title>Node2</title>
<g id="a_node2"><a xlink:href="sitkExplicit_8h.html" target="_top" xlink:title=" ">
<polygon fill="#ffffff" stroke="#000000" points="292,-560.5 292,-579.5 372,-579.5 372,-560.5 292,-560.5"/>
<text text-anchor="middle" x="332" y="-567.5" font-family="Helvetica,sans-Serif" font-size="10.00" fill="#000000">sitkExplicit.h</text>
</a>
</g>
</g>
<!-- Node1&#45;&gt;Node2 -->
<g id="edge1" class="edge">
<title>Node1&#45;&gt;Node2</title>
<path fill="none" stroke="#191970" d="M381.6854,-616.2977C372.0467,-607.3163 359.8309,-595.9334 349.9241,-586.702"/>
<polygon fill="#191970" stroke="#191970" points="352.2696,-584.1036 342.5674,-579.8469 347.4975,-589.2249 352.2696,-584.1036"/>
</g>
<!-- Node10 -->
<g id="node10" class="node">
<title>Node10</title>
<g id="a_node10"><a xlink:href="https://www.itk.org/Doxygen/html/itkImportImageContainer_8h.html" xlink:title=" ">
<polygon fill="#ffffff" stroke="#000000" points="451,-560.5 451,-579.5 599,-579.5 599,-560.5 451,-560.5"/>
<text text-anchor="middle" x="525" y="-567.5" font-family="Helvetica,sans-Serif" font-size="10.00" fill="#000000">itkImportImageContainer.h</text>
</a>
</g>
</g>
<!-- Node1&#45;&gt;Node10 -->
<g id="edge9" class="edge">
<title>Node1&#45;&gt;Node10</title>
<path fill="none" stroke="#191970" d="M429.0677,-616.4554C449.5145,-606.554 476.0937,-593.683 496.0885,-584.0004"/>
<polygon fill="#191970" stroke="#191970" points="497.8447,-587.0388 505.3195,-579.5303 494.7938,-580.7387 497.8447,-587.0388"/>
</g>
<!-- Node3 -->
<g id="node3" class="node">
<title>Node3</title>
<g id="a_node3"><a xlink:href="sitkMacro_8h.html" target="_top" xlink:title=" ">
<polygon fill="#ffffff" stroke="#000000" points="233.5,-504.5 233.5,-523.5 306.5,-523.5 306.5,-504.5 233.5,-504.5"/>
<text text-anchor="middle" x="270" y="-511.5" font-family="Helvetica,sans-Serif" font-size="10.00" fill="#000000">sitkMacro.h</text>
</a>
</g>
</g>
<!-- Node2&#45;&gt;Node3 -->
<g id="edge2" class="edge">
<title>Node2&#45;&gt;Node3</title>
<path fill="none" stroke="#191970" d="M321.2004,-560.2455C312.1322,-552.0549 298.9794,-540.1749 288.2755,-530.5069"/>
<polygon fill="#191970" stroke="#191970" points="290.4429,-527.7482 280.6758,-523.6427 285.7509,-532.9429 290.4429,-527.7482"/>
</g>
<!-- Node4 -->
<g id="node4" class="node">
<title>Node4</title>
<g id="a_node4"><a xlink:title=" ">
<polygon fill="#ffffff" stroke="#bfbfbf" points="170.5,-448.5 170.5,-467.5 223.5,-467.5 223.5,-448.5 170.5,-448.5"/>
<text text-anchor="middle" x="197" y="-455.5" font-family="Helvetica,sans-Serif" font-size="10.00" fill="#000000">stdint.h</text>
</a>
</g>
</g>
<!-- Node3&#45;&gt;Node4 -->
<g id="edge3" class="edge">
<title>Node3&#45;&gt;Node4</title>
<path fill="none" stroke="#191970" d="M257.2844,-504.2455C246.398,-495.8943 230.5117,-483.7076 217.78,-473.9408"/>
<polygon fill="#191970" stroke="#191970" points="219.6346,-470.9523 209.5699,-467.6427 215.3739,-476.5063 219.6346,-470.9523"/>
</g>
<!-- Node5 -->
<g id="node5" class="node">
<title>Node5</title>
<g id="a_node5"><a xlink:title=" ">
<polygon fill="#ffffff" stroke="#bfbfbf" points="242,-448.5 242,-467.5 298,-467.5 298,-448.5 242,-448.5"/>
<text text-anchor="middle" x="270" y="-455.5" font-family="Helvetica,sans-Serif" font-size="10.00" fill="#000000">stddef.h</text>
</a>
</g>
</g>
<!-- Node3&#45;&gt;Node5 -->
<g id="edge4" class="edge">
<title>Node3&#45;&gt;Node5</title>
<path fill="none" stroke="#191970" d="M270,-504.2455C270,-496.9382 270,-486.6944 270,-477.7046"/>
<polygon fill="#191970" stroke="#191970" points="273.5001,-477.6426 270,-467.6427 266.5001,-477.6427 273.5001,-477.6426"/>
</g>
<!-- Node6 -->
<g id="node6" class="node">
<title>Node6</title>
<g id="a_node6"><a xlink:title=" ">
<polygon fill="#ffffff" stroke="#bfbfbf" points="316,-448.5 316,-467.5 368,-467.5 368,-448.5 316,-448.5"/>
<text text-anchor="middle" x="342" y="-455.5" font-family="Helvetica,sans-Serif" font-size="10.00" fill="#000000">cassert</text>
</a>
</g>
</g>
<!-- Node3&#45;&gt;Node6 -->
<g id="edge5" class="edge">
<title>Node3&#45;&gt;Node6</title>
<path fill="none" stroke="#191970" d="M282.5414,-504.2455C293.2787,-495.8943 308.9473,-483.7076 321.5047,-473.9408"/>
<polygon fill="#191970" stroke="#191970" points="323.8575,-476.5449 329.6023,-467.6427 319.5599,-471.0194 323.8575,-476.5449"/>
</g>
<!-- Node7 -->
<g id="node7" class="node">
<title>Node7</title>
<g id="a_node7"><a xlink:title=" ">
<polygon fill="#ffffff" stroke="#bfbfbf" points="386,-448.5 386,-467.5 442,-467.5 442,-448.5 386,-448.5"/>
<text text-anchor="middle" x="414" y="-455.5" font-family="Helvetica,sans-Serif" font-size="10.00" fill="#000000">sstream</text>
</a>
</g>
</g>
<!-- Node3&#45;&gt;Node7 -->
<g id="edge6" class="edge">
<title>Node3&#45;&gt;Node7</title>
<path fill="none" stroke="#191970" d="M294.7545,-504.3733C318.2849,-495.2226 353.8687,-481.3844 380.0426,-471.2057"/>
<polygon fill="#191970" stroke="#191970" points="381.5171,-474.3877 389.5685,-467.5011 378.9799,-467.8636 381.5171,-474.3877"/>
</g>
<!-- Node8 -->
<g id="node8" class="node">
<title>Node8</title>
<g id="a_node8"><a xlink:title=" ">
<polygon fill="#ffffff" stroke="#bfbfbf" points="0,-448.5 0,-467.5 44,-467.5 44,-448.5 0,-448.5"/>
<text text-anchor="middle" x="22" y="-455.5" font-family="Helvetica,sans-Serif" font-size="10.00" fill="#000000">limits</text>
</a>
</g>
</g>
<!-- Node3&#45;&gt;Node8 -->
<g id="edge7" class="edge">
<title>Node3&#45;&gt;Node8</title>
<path fill="none" stroke="#191970" d="M233.2521,-507.4086C191.9072,-499.73 122.5878,-486.0695 54.3292,-468.1601"/>
<polygon fill="#191970" stroke="#191970" points="54.8329,-464.6726 44.2694,-465.4871 53.0353,-471.4378 54.8329,-464.6726"/>
</g>
<!-- Node9 -->
<g id="node9" class="node">
<title>Node9</title>
<g id="a_node9"><a xlink:href="sitkConfigure_8h.html" target="_top" xlink:title=" ">
<polygon fill="#ffffff" stroke="#000000" points="62,-448.5 62,-467.5 152,-467.5 152,-448.5 62,-448.5"/>
<text text-anchor="middle" x="107" y="-455.5" font-family="Helvetica,sans-Serif" font-size="10.00" fill="#000000">sitkConfigure.h</text>
</a>
</g>
</g>
<!-- Node3&#45;&gt;Node9 -->
<g id="edge8" class="edge">
<title>Node3&#45;&gt;Node9</title>
<path fill="none" stroke="#191970" d="M241.9793,-504.3733C214.9922,-495.1016 173.9983,-481.0178 144.2689,-470.804"/>
<polygon fill="#191970" stroke="#191970" points="145.2497,-467.4403 134.6551,-467.5011 142.9752,-474.0605 145.2497,-467.4403"/>
</g>
<!-- Node11 -->
<g id="node11" class="node">
<title>Node11</title>
<g id="a_node11"><a xlink:href="https://www.itk.org/Doxygen/html/itkObject_8h.html" xlink:title=" ">
<polygon fill="#ffffff" stroke="#000000" points="607,-336.5 607,-355.5 677,-355.5 677,-336.5 607,-336.5"/>
<text text-anchor="middle" x="642" y="-343.5" font-family="Helvetica,sans-Serif" font-size="10.00" fill="#000000">itkObject.h</text>
</a>
</g>
</g>
<!-- Node10&#45;&gt;Node11 -->
<g id="edge10" class="edge">
<title>Node10&#45;&gt;Node11</title>
<path fill="none" stroke="#191970" d="M540.8016,-560.417C553.9276,-551.9419 572.5604,-538.6705 586,-524 625.6519,-480.7166 639.8173,-468.4256 656,-412 660.4845,-396.3635 655.9835,-378.2692 650.9262,-364.9853"/>
<polygon fill="#191970" stroke="#191970" points="654.0333,-363.3467 646.9121,-355.502 647.587,-366.0753 654.0333,-363.3467"/>
</g>
<!-- Node22 -->
<g id="node22" class="node">
<title>Node22</title>
<g id="a_node22"><a xlink:href="https://www.itk.org/Doxygen/html/itkObjectFactory_8h.html" xlink:title=" ">
<polygon fill="#ffffff" stroke="#000000" points="473,-504.5 473,-523.5 577,-523.5 577,-504.5 473,-504.5"/>
<text text-anchor="middle" x="525" y="-511.5" font-family="Helvetica,sans-Serif" font-size="10.00" fill="#000000">itkObjectFactory.h</text>
</a>
</g>
</g>
<!-- Node10&#45;&gt;Node22 -->
<g id="edge27" class="edge">
<title>Node10&#45;&gt;Node22</title>
<path fill="none" stroke="#191970" d="M525,-560.2455C525,-552.9382 525,-542.6944 525,-533.7046"/>
<polygon fill="#191970" stroke="#191970" points="528.5001,-533.6426 525,-523.6427 521.5001,-533.6427 528.5001,-533.6426"/>
</g>
<!-- Node12 -->
<g id="node12" class="node">
<title>Node12</title>
<g id="a_node12"><a xlink:href="https://www.itk.org/Doxygen/html/itkLightObject_8h.html" xlink:title=" ">
<polygon fill="#ffffff" stroke="#000000" points="644,-168.5 644,-187.5 738,-187.5 738,-168.5 644,-168.5"/>
<text text-anchor="middle" x="691" y="-175.5" font-family="Helvetica,sans-Serif" font-size="10.00" fill="#000000">itkLightObject.h</text>
</a>
</g>
</g>
<!-- Node11&#45;&gt;Node12 -->
<g id="edge11" class="edge">
<title>Node11&#45;&gt;Node12</title>
<path fill="none" stroke="#191970" d="M664.2587,-336.4644C678.9246,-328.8877 697.0211,-316.7671 706,-300 723.6298,-267.0782 710.1469,-222.156 699.8497,-197.0246"/>
<polygon fill="#191970" stroke="#191970" points="702.9303,-195.3321 695.7317,-187.5584 696.5114,-198.1245 702.9303,-195.3321"/>
</g>
<!-- Node17 -->
<g id="node17" class="node">
<title>Node17</title>
<g id="a_node17"><a xlink:href="https://www.itk.org/Doxygen/html/itkSingletonMacro_8h.html" xlink:title=" ">
<polygon fill="#ffffff" stroke="#000000" points="378.5,-56.5 378.5,-75.5 491.5,-75.5 491.5,-56.5 378.5,-56.5"/>
<text text-anchor="middle" x="435" y="-63.5" font-family="Helvetica,sans-Serif" font-size="10.00" fill="#000000">itkSingletonMacro.h</text>
</a>
</g>
</g>
<!-- Node11&#45;&gt;Node17 -->
<g id="edge26" class="edge">
<title>Node11&#45;&gt;Node17</title>
<path fill="none" stroke="#191970" d="M610.8057,-336.3822C569.8239,-321.5796 503,-289.0089 503,-234 503,-234 503,-234 503,-178 503,-139.6435 473.4993,-103.2254 453.3598,-82.8326"/>
<polygon fill="#191970" stroke="#191970" points="455.5311,-80.0616 445.9254,-75.5917 450.647,-85.0762 455.5311,-80.0616"/>
</g>
<!-- Node19 -->
<g id="node19" class="node">
<title>Node19</title>
<g id="a_node19"><a xlink:href="https://www.itk.org/Doxygen/html/itkEventObject_8h.html" xlink:title=" ">
<polygon fill="#ffffff" stroke="#000000" points="771,-224.5 771,-243.5 869,-243.5 869,-224.5 771,-224.5"/>
<text text-anchor="middle" x="820" y="-231.5" font-family="Helvetica,sans-Serif" font-size="10.00" fill="#000000">itkEventObject.h</text>
</a>
</g>
</g>
<!-- Node11&#45;&gt;Node19 -->
<g id="edge21" class="edge">
<title>Node11&#45;&gt;Node19</title>
<path fill="none" stroke="#191970" d="M667.3476,-336.3714C687.9288,-328.0555 717.317,-315.0293 741,-300 763.663,-285.618 786.9249,-265.395 802.2829,-251.1345"/>
<polygon fill="#191970" stroke="#191970" points="805.0776,-253.3095 809.9479,-243.9004 800.273,-248.2187 805.0776,-253.3095"/>
</g>
<!-- Node20 -->
<g id="node20" class="node">
<title>Node20</title>
<g id="a_node20"><a xlink:href="https://www.itk.org/Doxygen/html/itkMetaDataDictionary_8h.html" xlink:title=" ">
<polygon fill="#ffffff" stroke="#000000" points="563,-280.5 563,-299.5 697,-299.5 697,-280.5 563,-280.5"/>
<text text-anchor="middle" x="630" y="-287.5" font-family="Helvetica,sans-Serif" font-size="10.00" fill="#000000">itkMetaDataDictionary.h</text>
</a>
</g>
</g>
<!-- Node11&#45;&gt;Node20 -->
<g id="edge23" class="edge">
<title>Node11&#45;&gt;Node20</title>
<path fill="none" stroke="#191970" d="M639.9098,-336.2455C638.3439,-328.9382 636.1488,-318.6944 634.2224,-309.7046"/>
<polygon fill="#191970" stroke="#191970" points="637.584,-308.6873 632.0663,-299.6427 630.7393,-310.1541 637.584,-308.6873"/>
</g>
<!-- Node13 -->
<g id="node13" class="node">
<title>Node13</title>
<g id="a_node13"><a xlink:href="https://www.itk.org/Doxygen/html/itkMacro_8h.html" xlink:title=" ">
<polygon fill="#ffffff" stroke="#000000" points="602,-.5 602,-19.5 670,-19.5 670,-.5 602,-.5"/>
<text text-anchor="middle" x="636" y="-7.5" font-family="Helvetica,sans-Serif" font-size="10.00" fill="#000000">itkMacro.h</text>
</a>
</g>
</g>
<!-- Node12&#45;&gt;Node13 -->
<g id="edge12" class="edge">
<title>Node12&#45;&gt;Node13</title>
<path fill="none" stroke="#191970" d="M687.4944,-168.1541C684.2033,-158.8567 679.1752,-144.5122 675,-132 662.9146,-95.7825 649.4964,-53.2655 641.97,-29.192"/>
<polygon fill="#191970" stroke="#191970" points="645.2715,-28.0222 638.9525,-19.518 638.589,-30.1066 645.2715,-28.0222"/>
</g>
<!-- Node14 -->
<g id="node14" class="node">
<title>Node14</title>
<g id="a_node14"><a xlink:href="https://www.itk.org/Doxygen/html/itkSmartPointer_8h.html" xlink:title=" ">
<polygon fill="#ffffff" stroke="#000000" points="683.5,-112.5 683.5,-131.5 784.5,-131.5 784.5,-112.5 683.5,-112.5"/>
<text text-anchor="middle" x="734" y="-119.5" font-family="Helvetica,sans-Serif" font-size="10.00" fill="#000000">itkSmartPointer.h</text>
</a>
</g>
</g>
<!-- Node12&#45;&gt;Node14 -->
<g id="edge13" class="edge">
<title>Node12&#45;&gt;Node14</title>
<path fill="none" stroke="#191970" d="M698.49,-168.2455C704.5326,-160.3761 713.1903,-149.101 720.4441,-139.6542"/>
<polygon fill="#191970" stroke="#191970" points="723.2815,-141.7058 726.5958,-131.6427 717.7295,-137.4426 723.2815,-141.7058"/>
</g>
<!-- Node15 -->
<g id="node15" class="node">
<title>Node15</title>
<g id="a_node15"><a xlink:href="https://www.itk.org/Doxygen/html/itkTimeStamp_8h.html" xlink:title=" ">
<polygon fill="#ffffff" stroke="#000000" points="531.5,-112.5 531.5,-131.5 626.5,-131.5 626.5,-112.5 531.5,-112.5"/>
<text text-anchor="middle" x="579" y="-119.5" font-family="Helvetica,sans-Serif" font-size="10.00" fill="#000000">itkTimeStamp.h</text>
</a>
</g>
</g>
<!-- Node12&#45;&gt;Node15 -->
<g id="edge14" class="edge">
<title>Node12&#45;&gt;Node15</title>
<path fill="none" stroke="#191970" d="M671.7465,-168.3733C653.9288,-159.4644 627.2253,-146.1127 607.0406,-136.0203"/>
<polygon fill="#191970" stroke="#191970" points="608.5118,-132.8428 598.0022,-131.5011 605.3813,-139.1038 608.5118,-132.8428"/>
</g>
<!-- Node18 -->
<g id="node18" class="node">
<title>Node18</title>
<g id="a_node18"><a xlink:href="https://www.itk.org/Doxygen/html/itkIndent_8h.html" xlink:title=" ">
<polygon fill="#ffffff" stroke="#000000" points="802.5,-112.5 802.5,-131.5 871.5,-131.5 871.5,-112.5 802.5,-112.5"/>
<text text-anchor="middle" x="837" y="-119.5" font-family="Helvetica,sans-Serif" font-size="10.00" fill="#000000">itkIndent.h</text>
</a>
</g>
</g>
<!-- Node12&#45;&gt;Node18 -->
<g id="edge19" class="edge">
<title>Node12&#45;&gt;Node18</title>
<path fill="none" stroke="#191970" d="M716.0983,-168.3733C739.9555,-159.2226 776.0335,-145.3844 802.571,-135.2057"/>
<polygon fill="#191970" stroke="#191970" points="804.1459,-138.3503 812.2292,-131.5011 801.639,-131.8145 804.1459,-138.3503"/>
</g>
<!-- Node15&#45;&gt;Node13 -->
<g id="edge15" class="edge">
<title>Node15&#45;&gt;Node13</title>
<path fill="none" stroke="#191970" d="M583.8598,-112.4509C593.2826,-93.936 614.1878,-52.8591 626.4735,-28.7187"/>
<polygon fill="#191970" stroke="#191970" points="629.7361,-30.0246 631.1525,-19.5249 623.4975,-26.8496 629.7361,-30.0246"/>
</g>
<!-- Node16 -->
<g id="node16" class="node">
<title>Node16</title>
<g id="a_node16"><a xlink:href="https://www.itk.org/Doxygen/html/itkIntTypes_8h.html" xlink:title=" ">
<polygon fill="#ffffff" stroke="#000000" points="509.5,-56.5 509.5,-75.5 588.5,-75.5 588.5,-56.5 509.5,-56.5"/>
<text text-anchor="middle" x="549" y="-63.5" font-family="Helvetica,sans-Serif" font-size="10.00" fill="#000000">itkIntTypes.h</text>
</a>
</g>
</g>
<!-- Node15&#45;&gt;Node16 -->
<g id="edge16" class="edge">
<title>Node15&#45;&gt;Node16</title>
<path fill="none" stroke="#191970" d="M573.7744,-112.2455C569.6877,-104.617 563.8865,-93.7881 558.925,-84.5267"/>
<polygon fill="#191970" stroke="#191970" points="561.9732,-82.8047 554.1657,-75.6427 555.8028,-86.1103 561.9732,-82.8047"/>
</g>
<!-- Node15&#45;&gt;Node17 -->
<g id="edge18" class="edge">
<title>Node15&#45;&gt;Node17</title>
<path fill="none" stroke="#191970" d="M554.2455,-112.3733C530.7151,-103.2226 495.1313,-89.3844 468.9574,-79.2057"/>
<polygon fill="#191970" stroke="#191970" points="470.0201,-75.8636 459.4315,-75.5011 467.4829,-82.3877 470.0201,-75.8636"/>
</g>
<!-- Node16&#45;&gt;Node13 -->
<g id="edge17" class="edge">
<title>Node16&#45;&gt;Node13</title>
<path fill="none" stroke="#191970" d="M564.1542,-56.2455C577.5027,-47.6534 597.1586,-35.0014 612.5383,-25.1018"/>
<polygon fill="#191970" stroke="#191970" points="614.5051,-27.9982 621.0194,-19.6427 610.7164,-22.1121 614.5051,-27.9982"/>
</g>
<!-- Node18&#45;&gt;Node13 -->
<g id="edge20" class="edge">
<title>Node18&#45;&gt;Node13</title>
<path fill="none" stroke="#191970" d="M819.8629,-112.4509C784.5584,-92.7788 703.5438,-47.6363 661.8437,-24.4005"/>
<polygon fill="#191970" stroke="#191970" points="663.5328,-21.335 653.0938,-19.5249 660.1256,-27.4498 663.5328,-21.335"/>
</g>
<!-- Node19&#45;&gt;Node18 -->
<g id="edge22" class="edge">
<title>Node19&#45;&gt;Node18</title>
<path fill="none" stroke="#191970" d="M821.4494,-224.4509C824.2221,-206.184 830.3282,-165.9553 834.0102,-141.6976"/>
<polygon fill="#191970" stroke="#191970" points="837.5139,-141.9369 835.5543,-131.5249 830.5931,-140.8864 837.5139,-141.9369"/>
</g>
<!-- Node21 -->
<g id="node21" class="node">
<title>Node21</title>
<g id="a_node21"><a xlink:href="https://www.itk.org/Doxygen/html/itkMetaDataObjectBase_8h.html" xlink:title=" ">
<polygon fill="#ffffff" stroke="#000000" points="557.5,-224.5 557.5,-243.5 698.5,-243.5 698.5,-224.5 557.5,-224.5"/>
<text text-anchor="middle" x="628" y="-231.5" font-family="Helvetica,sans-Serif" font-size="10.00" fill="#000000">itkMetaDataObjectBase.h</text>
</a>
</g>
</g>
<!-- Node20&#45;&gt;Node21 -->
<g id="edge24" class="edge">
<title>Node20&#45;&gt;Node21</title>
<path fill="none" stroke="#191970" d="M629.6516,-280.2455C629.3907,-272.9382 629.0248,-262.6944 628.7037,-253.7046"/>
<polygon fill="#191970" stroke="#191970" points="632.1992,-253.5113 628.3444,-243.6427 625.2036,-253.7613 632.1992,-253.5113"/>
</g>
<!-- Node21&#45;&gt;Node12 -->
<g id="edge25" class="edge">
<title>Node21&#45;&gt;Node12</title>
<path fill="none" stroke="#191970" d="M638.9738,-224.2455C648.1882,-216.0549 661.5532,-204.1749 672.4297,-194.5069"/>
<polygon fill="#191970" stroke="#191970" points="675.0032,-196.9023 680.152,-187.6427 670.3526,-191.6704 675.0032,-196.9023"/>
</g>
<!-- Node23 -->
<g id="node23" class="node">
<title>Node23</title>
<g id="a_node23"><a xlink:href="https://www.itk.org/Doxygen/html/itkObjectFactoryBase_8h.html" xlink:title=" ">
<polygon fill="#ffffff" stroke="#000000" points="460.5,-448.5 460.5,-467.5 589.5,-467.5 589.5,-448.5 460.5,-448.5"/>
<text text-anchor="middle" x="525" y="-455.5" font-family="Helvetica,sans-Serif" font-size="10.00" fill="#000000">itkObjectFactoryBase.h</text>
</a>
</g>
</g>
<!-- Node22&#45;&gt;Node23 -->
<g id="edge28" class="edge">
<title>Node22&#45;&gt;Node23</title>
<path fill="none" stroke="#191970" d="M525,-504.2455C525,-496.9382 525,-486.6944 525,-477.7046"/>
<polygon fill="#191970" stroke="#191970" points="528.5001,-477.6426 525,-467.6427 521.5001,-477.6427 528.5001,-477.6426"/>
</g>
<!-- Node23&#45;&gt;Node17 -->
<g id="edge31" class="edge">
<title>Node23&#45;&gt;Node17</title>
<path fill="none" stroke="#191970" d="M503.4053,-448.4123C470.8594,-432.3204 413,-396.5974 413,-346 413,-346 413,-346 413,-178 413,-145.1132 422.246,-107.7958 428.7499,-85.6138"/>
<polygon fill="#191970" stroke="#191970" points="432.1853,-86.3474 431.7538,-75.7614 425.4896,-84.3059 432.1853,-86.3474"/>
</g>
<!-- Node24 -->
<g id="node24" class="node">
<title>Node24</title>
<g id="a_node24"><a xlink:href="https://www.itk.org/Doxygen/html/itkCreateObjectFunction_8h.html" xlink:title=" ">
<polygon fill="#ffffff" stroke="#000000" points="503.5,-392.5 503.5,-411.5 646.5,-411.5 646.5,-392.5 503.5,-392.5"/>
<text text-anchor="middle" x="575" y="-399.5" font-family="Helvetica,sans-Serif" font-size="10.00" fill="#000000">itkCreateObjectFunction.h</text>
</a>
</g>
</g>
<!-- Node23&#45;&gt;Node24 -->
<g id="edge29" class="edge">
<title>Node23&#45;&gt;Node24</title>
<path fill="none" stroke="#191970" d="M533.7093,-448.2455C540.8073,-440.2958 551.0084,-428.8706 559.495,-419.3656"/>
<polygon fill="#191970" stroke="#191970" points="562.3411,-421.4331 566.3905,-411.6427 557.1195,-416.771 562.3411,-421.4331"/>
</g>
<!-- Node25 -->
<g id="node25" class="node">
<title>Node25</title>
<g id="a_node25"><a xlink:href="https://www.itk.org/Doxygen/html/itkCommonEnums_8h.html" xlink:title=" ">
<polygon fill="#ffffff" stroke="#000000" points="441,-336.5 441,-355.5 557,-355.5 557,-336.5 441,-336.5"/>
<text text-anchor="middle" x="499" y="-343.5" font-family="Helvetica,sans-Serif" font-size="10.00" fill="#000000">itkCommonEnums.h</text>
</a>
</g>
</g>
<!-- Node23&#45;&gt;Node25 -->
<g id="edge32" class="edge">
<title>Node23&#45;&gt;Node25</title>
<path fill="none" stroke="#191970" d="M515.9259,-448.3243C508.4037,-439.5913 498.2769,-425.9994 494,-412 489.3835,-396.8891 491.1686,-378.9705 493.8103,-365.6196"/>
<polygon fill="#191970" stroke="#191970" points="497.2748,-366.1715 496.1092,-355.641 490.4534,-364.6 497.2748,-366.1715"/>
</g>
<!-- Node24&#45;&gt;Node11 -->
<g id="edge30" class="edge">
<title>Node24&#45;&gt;Node11</title>
<path fill="none" stroke="#191970" d="M586.6705,-392.2455C596.5661,-383.9746 610.9627,-371.9416 622.5901,-362.2232"/>
<polygon fill="#191970" stroke="#191970" points="625.035,-364.7413 630.4632,-355.6427 620.5458,-359.3703 625.035,-364.7413"/>
</g>
<!-- Node25&#45;&gt;Node16 -->
<g id="edge33" class="edge">
<title>Node25&#45;&gt;Node16</title>
<path fill="none" stroke="#191970" d="M493.9832,-336.4109C484.5255,-317.4144 465,-273.4221 465,-234 465,-234 465,-234 465,-178 465,-136.9075 501.6365,-101.2426 526.5189,-81.7588"/>
<polygon fill="#191970" stroke="#191970" points="528.8679,-84.3713 534.7505,-75.5596 524.6569,-78.7795 528.8679,-84.3713"/>
</g>
</g>
</svg>
        <g id="navigator" transform="translate(0 0)" fill="#404254">
                <rect fill="#f2f5e9" fill-opacity="0.5" stroke="#606060" stroke-width=".5" x="0" y="0" width="60" height="60"/>
                <use id="zoomplus" xlink:href="#zoomPlus" x="17" y="9" onmousedown="handleZoom(evt,'in')"/>
                <use id="zoomminus" xlink:href="#zoomMin" x="42" y="9" onmousedown="handleZoom(evt,'out')"/>
                <use id="reset" xlink:href="#resetDef" x="30" y="36" onmousedown="handleReset()"/>
                <g id="arrowUp" xlink:href="#dirArrow" transform="translate(30 24)" onmousedown="handlePan(0,-1)">
                  <use xlink:href="#rim" fill="#404040">
                        <set attributeName="fill" to="#808080" begin="arrowUp.mouseover" end="arrowUp.mouseout"/>
                  </use>
                  <path fill="none" stroke="white" stroke-width="1.5" d="M0,-3.0v7 M-2.5,-0.5L0,-3.0L2.5,-0.5"/>
                </g>
                <g id="arrowRight" xlink:href="#dirArrow" transform="rotate(90) translate(36 -43)" onmousedown="handlePan(1,0)">
                  <use xlink:href="#rim" fill="#404040">
                        <set attributeName="fill" to="#808080" begin="arrowRight.mouseover" end="arrowRight.mouseout"/>
                  </use>
                  <path fill="none" stroke="white" stroke-width="1.5" d="M0,-3.0v7 M-2.5,-0.5L0,-3.0L2.5,-0.5"/>
                </g>
                <g id="arrowDown" xlink:href="#dirArrow" transform="rotate(180) translate(-30 -48)" onmousedown="handlePan(0,1)">
                  <use xlink:href="#rim" fill="#404040">
                        <set attributeName="fill" to="#808080" begin="arrowDown.mouseover" end="arrowDown.mouseout"/>
                  </use>
                  <path fill="none" stroke="white" stroke-width="1.5" d="M0,-3.0v7 M-2.5,-0.5L0,-3.0L2.5,-0.5"/>
                </g>
                <g id="arrowLeft" xlink:href="#dirArrow" transform="rotate(270) translate(-36 17)" onmousedown="handlePan(-1,0)">
                  <use xlink:href="#rim" fill="#404040">
                        <set attributeName="fill" to="#808080" begin="arrowLeft.mouseover" end="arrowLeft.mouseout"/>
                  </use>
                  <path fill="none" stroke="white" stroke-width="1.5" d="M0,-3.0v7 M-2.5,-0.5L0,-3.0L2.5,-0.5"/>
                </g>
        </g>
        <svg viewBox="0 0 15 15" width="100%" height="30px" preserveAspectRatio="xMaxYMin meet">
         <g id="arrow_out" transform="scale(0.3 0.3)">
          <a xlink:href="sitkExplicitITKImportImageContainer_8h__incl_org.svg" target="_base">
           <rect id="button" ry="5" rx="5" y="6" x="6" height="38" width="38"
                fill="#f2f5e9" fill-opacity="0.5" stroke="#606060" stroke-width="1.0"/>
           <path id="arrow"
             d="M 11.500037,31.436501 C 11.940474,20.09759 22.043105,11.32322 32.158766,21.979434 L 37.068811,17.246167 C 37.068811,17.246167 37.088388,32 37.088388,32 L 22.160133,31.978069 C 22.160133,31.978069 26.997745,27.140456 26.997745,27.140456 C 18.528582,18.264221 13.291696,25.230495 11.500037,31.436501 z"
             style="fill:#404040;"/>
          </a>
         </g>
        </svg>
</svg>
