<?xml version="1.0" encoding="UTF-8" standalone="no"?>
<!DOCTYPE svg PUBLIC "-//W3C//DTD SVG 1.1//EN"
 "http://www.w3.org/Graphics/SVG/1.1/DTD/svg11.dtd">
<!-- Generated by graphviz version 2.40.1 (20161225.0304)
 -->
<!-- Title: sitkTransform.h Pages: 1 -->
<svg width="5465pt" height="274pt"
 viewBox="0.00 0.00 5465.00 274.00" xmlns="http://www.w3.org/2000/svg" xmlns:xlink="http://www.w3.org/1999/xlink">
<g id="graph0" class="graph" transform="scale(1 1) rotate(0) translate(4 270)">
<title>sitkTransform.h</title>
<polygon fill="#ffffff" stroke="transparent" points="-4,4 -4,-270 5461,-270 5461,4 -4,4"/>
<!-- Node1 -->
<g id="node1" class="node">
<title>Node1</title>
<g id="a_node1"><a xlink:title=" ">
<polygon fill="#bfbfbf" stroke="#000000" points="4318.5,-246.5 4318.5,-265.5 4410.5,-265.5 4410.5,-246.5 4318.5,-246.5"/>
<text text-anchor="middle" x="4364.5" y="-253.5" font-family="Helvetica,sans-Serif" font-size="10.00" fill="#000000">sitkTransform.h</text>
</a>
</g>
</g>
<!-- Node2 -->
<g id="node2" class="node">
<title>Node2</title>
<g id="a_node2"><a xlink:href="sitkBasicFilters_8h.html" target="_top" xlink:title=" ">
<polygon fill="#ffffff" stroke="#ff0000" points="2602,-190.5 2602,-209.5 2701,-209.5 2701,-190.5 2602,-190.5"/>
<text text-anchor="middle" x="2651.5" y="-197.5" font-family="Helvetica,sans-Serif" font-size="10.00" fill="#000000">sitkBasicFilters.h</text>
</a>
</g>
</g>
<!-- Node1&#45;&gt;Node2 -->
<g id="edge1" class="edge">
<title>Node1&#45;&gt;Node2</title>
<path fill="none" stroke="#191970" d="M4308.1862,-254.159C4046.1176,-245.5917 2948.2509,-209.7011 2701.07,-201.6205"/>
<polygon fill="#191970" stroke="#191970" points="4308.1291,-257.6589 4318.2382,-254.4876 4308.3579,-250.6627 4308.1291,-257.6589"/>
</g>
<!-- Node3 -->
<g id="node3" class="node">
<title>Node3</title>
<g id="a_node3"><a xlink:href="sitkAdditionalProcedures_8h.html" target="_top" xlink:title=" ">
<polygon fill="#ffffff" stroke="#000000" points="1615,-129 1615,-148 1762,-148 1762,-129 1615,-129"/>
<text text-anchor="middle" x="1688.5" y="-136" font-family="Helvetica,sans-Serif" font-size="10.00" fill="#000000">sitkAdditionalProcedures.h</text>
</a>
</g>
</g>
<!-- Node1&#45;&gt;Node3 -->
<g id="edge71" class="edge">
<title>Node1&#45;&gt;Node3</title>
<path fill="none" stroke="#191970" d="M4307.9768,-255.3965C4088.0126,-252.8647 3267.9599,-241.7195 2593.5,-210 2227.7241,-192.7978 2134.7625,-200.1333 1771.5,-154 1759.4301,-152.4672 1746.462,-150.2989 1734.4469,-148.0685"/>
<polygon fill="#191970" stroke="#191970" points="4308.2587,-258.8999 4318.2979,-255.514 4308.3384,-251.9003 4308.2587,-258.8999"/>
</g>
<!-- Node4 -->
<g id="node4" class="node">
<title>Node4</title>
<g id="a_node4"><a xlink:href="SimpleITK_8h.html" target="_top" xlink:title=" ">
<polygon fill="#ffffff" stroke="#000000" points="4243,-.5 4243,-19.5 4318,-19.5 4318,-.5 4243,-.5"/>
<text text-anchor="middle" x="4280.5" y="-7.5" font-family="Helvetica,sans-Serif" font-size="10.00" fill="#000000">SimpleITK.h</text>
</a>
</g>
</g>
<!-- Node1&#45;&gt;Node4 -->
<g id="edge72" class="edge">
<title>Node1&#45;&gt;Node4</title>
<path fill="none" stroke="#191970" d="M4357.406,-236.6103C4348.2163,-207.689 4336.563,-153.4052 4365.5,-123 4462.3266,-21.2607 4900.0566,-189.1026 4996.5,-87 5005.9608,-76.984 5005.9249,-66.0498 4996.5,-56 4973.0944,-31.0424 4462.2884,-15.0369 4318.0958,-11.0046"/>
<polygon fill="#191970" stroke="#191970" points="4354.1848,-238.0093 4360.7177,-246.3503 4360.8122,-235.7558 4354.1848,-238.0093"/>
</g>
<!-- Node306 -->
<g id="node36" class="node">
<title>Node306</title>
<g id="a_node36"><a xlink:href="sitkBSplineTransform_8h.html" target="_top" xlink:title=" ">
<polygon fill="#ffffff" stroke="#000000" points="4374,-129 4374,-148 4503,-148 4503,-129 4374,-129"/>
<text text-anchor="middle" x="4438.5" y="-136" font-family="Helvetica,sans-Serif" font-size="10.00" fill="#000000">sitkBSplineTransform.h</text>
</a>
</g>
</g>
<!-- Node1&#45;&gt;Node306 -->
<g id="edge73" class="edge">
<title>Node1&#45;&gt;Node306</title>
<path fill="none" stroke="#191970" d="M4375.9868,-237.7608C4391.872,-212.5378 4419.9849,-167.899 4432.3606,-148.2484"/>
<polygon fill="#191970" stroke="#191970" points="4372.9233,-236.0575 4370.5557,-246.3845 4378.8465,-239.7879 4372.9233,-236.0575"/>
</g>
<!-- Node307 -->
<g id="node37" class="node">
<title>Node307</title>
<g id="a_node37"><a xlink:href="sitkDisplacementFieldTransform_8h.html" target="_top" xlink:title=" ">
<polygon fill="#ffffff" stroke="#000000" points="4521.5,-129 4521.5,-148 4703.5,-148 4703.5,-129 4521.5,-129"/>
<text text-anchor="middle" x="4612.5" y="-136" font-family="Helvetica,sans-Serif" font-size="10.00" fill="#000000">sitkDisplacementFieldTransform.h</text>
</a>
</g>
</g>
<!-- Node1&#45;&gt;Node307 -->
<g id="edge76" class="edge">
<title>Node1&#45;&gt;Node307</title>
<path fill="none" stroke="#191970" d="M4393.9773,-242.0339C4445.0081,-217.8561 4548.5363,-168.8054 4592.2725,-148.0836"/>
<polygon fill="#191970" stroke="#191970" points="4392.3333,-238.9398 4384.7949,-246.3845 4395.3305,-245.2657 4392.3333,-238.9398"/>
</g>
<!-- Node308 -->
<g id="node38" class="node">
<title>Node308</title>
<g id="a_node38"><a xlink:href="sitkAffineTransform_8h.html" target="_top" xlink:title=" ">
<polygon fill="#ffffff" stroke="#000000" points="4722,-129 4722,-148 4843,-148 4843,-129 4722,-129"/>
<text text-anchor="middle" x="4782.5" y="-136" font-family="Helvetica,sans-Serif" font-size="10.00" fill="#000000">sitkAffineTransform.h</text>
</a>
</g>
</g>
<!-- Node1&#45;&gt;Node308 -->
<g id="edge78" class="edge">
<title>Node1&#45;&gt;Node308</title>
<path fill="none" stroke="#191970" d="M4408.0555,-243.7565C4491.7102,-220.2412 4673.2411,-169.2127 4748.6236,-148.0227"/>
<polygon fill="#191970" stroke="#191970" points="4407.0323,-240.4084 4398.3526,-246.484 4408.9267,-247.1472 4407.0323,-240.4084"/>
</g>
<!-- Node309 -->
<g id="node39" class="node">
<title>Node309</title>
<g id="a_node39"><a xlink:href="sitkEuler2DTransform_8h.html" target="_top" xlink:title=" ">
<polygon fill="#ffffff" stroke="#000000" points="4861,-129 4861,-148 4992,-148 4992,-129 4861,-129"/>
<text text-anchor="middle" x="4926.5" y="-136" font-family="Helvetica,sans-Serif" font-size="10.00" fill="#000000">sitkEuler2DTransform.h</text>
</a>
</g>
</g>
<!-- Node1&#45;&gt;Node309 -->
<g id="edge80" class="edge">
<title>Node1&#45;&gt;Node309</title>
<path fill="none" stroke="#191970" d="M4420.3062,-244.3436C4510.9651,-225.4057 4695.8767,-186.7715 4852.5,-154 4861.7504,-152.0645 4871.651,-149.9916 4881.1043,-148.0117"/>
<polygon fill="#191970" stroke="#191970" points="4419.3244,-240.9731 4410.2514,-246.444 4420.7558,-247.8252 4419.3244,-240.9731"/>
</g>
<!-- Node310 -->
<g id="node40" class="node">
<title>Node310</title>
<g id="a_node40"><a xlink:href="sitkEuler3DTransform_8h.html" target="_top" xlink:title=" ">
<polygon fill="#ffffff" stroke="#000000" points="5010,-129 5010,-148 5141,-148 5141,-129 5010,-129"/>
<text text-anchor="middle" x="5075.5" y="-136" font-family="Helvetica,sans-Serif" font-size="10.00" fill="#000000">sitkEuler3DTransform.h</text>
</a>
</g>
</g>
<!-- Node1&#45;&gt;Node310 -->
<g id="edge82" class="edge">
<title>Node1&#45;&gt;Node310</title>
<path fill="none" stroke="#191970" d="M4420.5714,-247.9402C4531.695,-231.7642 4787.6283,-193.4986 5001.5,-154 5011.3099,-152.1883 5021.8171,-150.0862 5031.7431,-148.0258"/>
<polygon fill="#191970" stroke="#191970" points="4419.986,-244.4884 4410.5932,-249.3899 4420.9925,-251.4157 4419.986,-244.4884"/>
</g>
<!-- Node311 -->
<g id="node41" class="node">
<title>Node311</title>
<g id="a_node41"><a xlink:href="sitkScaleTransform_8h.html" target="_top" xlink:title=" ">
<polygon fill="#ffffff" stroke="#000000" points="5159,-129 5159,-148 5278,-148 5278,-129 5159,-129"/>
<text text-anchor="middle" x="5218.5" y="-136" font-family="Helvetica,sans-Serif" font-size="10.00" fill="#000000">sitkScaleTransform.h</text>
</a>
</g>
</g>
<!-- Node1&#45;&gt;Node311 -->
<g id="edge84" class="edge">
<title>Node1&#45;&gt;Node311</title>
<path fill="none" stroke="#191970" d="M4420.6493,-249.5276C4494.998,-240.8872 4630.1732,-224.9341 4745.5,-210 4835.604,-198.3321 5061.1239,-170.3336 5150.5,-154 5159.9098,-152.2804 5169.9876,-150.146 5179.4251,-148.0166"/>
<polygon fill="#191970" stroke="#191970" points="4420.1002,-246.0678 4410.5705,-250.6975 4420.9073,-253.0211 4420.1002,-246.0678"/>
</g>
<!-- Node312 -->
<g id="node42" class="node">
<title>Node312</title>
<g id="a_node42"><a xlink:href="sitkScaleSkewVersor3DTransform_8h.html" target="_top" xlink:title=" ">
<polygon fill="#ffffff" stroke="#000000" points="4911,-190.5 4911,-209.5 5100,-209.5 5100,-190.5 4911,-190.5"/>
<text text-anchor="middle" x="5005.5" y="-197.5" font-family="Helvetica,sans-Serif" font-size="10.00" fill="#000000">sitkScaleSkewVersor3DTransform.h</text>
</a>
</g>
</g>
<!-- Node1&#45;&gt;Node312 -->
<g id="edge86" class="edge">
<title>Node1&#45;&gt;Node312</title>
<path fill="none" stroke="#191970" d="M4420.8179,-251.0799C4530.8349,-241.4684 4775.352,-220.1065 4910.7297,-208.2795"/>
<polygon fill="#191970" stroke="#191970" points="4420.2566,-247.6155 4410.5991,-251.9726 4420.8658,-254.5889 4420.2566,-247.6155"/>
</g>
<!-- Node313 -->
<g id="node43" class="node">
<title>Node313</title>
<g id="a_node43"><a xlink:href="sitkScaleVersor3DTransform_8h.html" target="_top" xlink:title=" ">
<polygon fill="#ffffff" stroke="#000000" points="5121,-190.5 5121,-209.5 5284,-209.5 5284,-190.5 5121,-190.5"/>
<text text-anchor="middle" x="5202.5" y="-197.5" font-family="Helvetica,sans-Serif" font-size="10.00" fill="#000000">sitkScaleVersor3DTransform.h</text>
</a>
</g>
</g>
<!-- Node1&#45;&gt;Node313 -->
<g id="edge88" class="edge">
<title>Node1&#45;&gt;Node313</title>
<path fill="none" stroke="#191970" d="M4420.8099,-253.3987C4545.1803,-247.4612 4852.6589,-231.7267 5109.5,-210 5113.2217,-209.6852 5117.0253,-209.3462 5120.8661,-208.99"/>
<polygon fill="#191970" stroke="#191970" points="4420.5828,-249.9054 4410.7602,-253.8761 4420.915,-256.8976 4420.5828,-249.9054"/>
</g>
<!-- Node314 -->
<g id="node44" class="node">
<title>Node314</title>
<g id="a_node44"><a xlink:href="sitkSimilarity2DTransform_8h.html" target="_top" xlink:title=" ">
<polygon fill="#ffffff" stroke="#000000" points="5304,-190.5 5304,-209.5 5457,-209.5 5457,-190.5 5304,-190.5"/>
<text text-anchor="middle" x="5380.5" y="-197.5" font-family="Helvetica,sans-Serif" font-size="10.00" fill="#000000">sitkSimilarity2DTransform.h</text>
</a>
</g>
</g>
<!-- Node1&#45;&gt;Node314 -->
<g id="edge90" class="edge">
<title>Node1&#45;&gt;Node314</title>
<path fill="none" stroke="#191970" d="M4420.9718,-254.482C4566.0199,-250.3056 4963.4467,-237.1112 5293.5,-210 5296.8336,-209.7262 5300.2367,-209.4256 5303.6728,-209.1048"/>
<polygon fill="#191970" stroke="#191970" points="4420.865,-250.9835 4410.9689,-254.7672 4421.0646,-257.9806 4420.865,-250.9835"/>
</g>
<!-- Node315 -->
<g id="node45" class="node">
<title>Node315</title>
<g id="a_node45"><a xlink:href="sitkSimilarity3DTransform_8h.html" target="_top" xlink:title=" ">
<polygon fill="#ffffff" stroke="#000000" points="0,-190.5 0,-209.5 153,-209.5 153,-190.5 0,-190.5"/>
<text text-anchor="middle" x="76.5" y="-197.5" font-family="Helvetica,sans-Serif" font-size="10.00" fill="#000000">sitkSimilarity3DTransform.h</text>
</a>
</g>
</g>
<!-- Node1&#45;&gt;Node315 -->
<g id="edge92" class="edge">
<title>Node1&#45;&gt;Node315</title>
<path fill="none" stroke="#191970" d="M4307.8618,-255.3398C3969.9703,-251.3893 2185.6475,-230.3632 729.5,-210 521.1821,-207.0868 275.4896,-203.2037 153.4005,-201.2438"/>
<polygon fill="#191970" stroke="#191970" points="4308.3149,-258.8452 4318.3552,-255.4624 4308.3968,-251.8457 4308.3149,-258.8452"/>
</g>
<!-- Node316 -->
<g id="node46" class="node">
<title>Node316</title>
<g id="a_node46"><a xlink:href="sitkTranslationTransform_8h.html" target="_top" xlink:title=" ">
<polygon fill="#ffffff" stroke="#000000" points="738.5,-190.5 738.5,-209.5 884.5,-209.5 884.5,-190.5 738.5,-190.5"/>
<text text-anchor="middle" x="811.5" y="-197.5" font-family="Helvetica,sans-Serif" font-size="10.00" fill="#000000">sitkTranslationTransform.h</text>
</a>
</g>
</g>
<!-- Node1&#45;&gt;Node316 -->
<g id="edge94" class="edge">
<title>Node1&#45;&gt;Node316</title>
<path fill="none" stroke="#191970" d="M4307.9822,-255.4582C3995.1375,-252.4022 2443.9376,-236.505 1176.5,-210 1075.2537,-207.8827 958.2346,-204.5138 884.5537,-202.2799"/>
<polygon fill="#191970" stroke="#191970" points="4308.127,-258.9597 4318.1606,-255.5574 4308.1952,-251.96 4308.127,-258.9597"/>
</g>
<!-- Node317 -->
<g id="node47" class="node">
<title>Node317</title>
<g id="a_node47"><a xlink:href="sitkVersorTransform_8h.html" target="_top" xlink:title=" ">
<polygon fill="#ffffff" stroke="#000000" points="1186,-190.5 1186,-209.5 1309,-209.5 1309,-190.5 1186,-190.5"/>
<text text-anchor="middle" x="1247.5" y="-197.5" font-family="Helvetica,sans-Serif" font-size="10.00" fill="#000000">sitkVersorTransform.h</text>
</a>
</g>
</g>
<!-- Node1&#45;&gt;Node317 -->
<g id="edge96" class="edge">
<title>Node1&#45;&gt;Node317</title>
<path fill="none" stroke="#191970" d="M4308.3179,-255.7651C4012.7486,-254.3925 2607.9558,-246.1701 1459.5,-210 1408.8612,-208.4052 1351.4604,-205.6387 1309.1701,-203.4192"/>
<polygon fill="#191970" stroke="#191970" points="4308.3461,-259.2652 4318.3621,-255.8111 4308.3783,-252.2653 4308.3461,-259.2652"/>
</g>
<!-- Node318 -->
<g id="node48" class="node">
<title>Node318</title>
<g id="a_node48"><a xlink:href="sitkVersorRigid3DTransform_8h.html" target="_top" xlink:title=" ">
<polygon fill="#ffffff" stroke="#000000" points="1469,-190.5 1469,-209.5 1630,-209.5 1630,-190.5 1469,-190.5"/>
<text text-anchor="middle" x="1549.5" y="-197.5" font-family="Helvetica,sans-Serif" font-size="10.00" fill="#000000">sitkVersorRigid3DTransform.h</text>
</a>
</g>
</g>
<!-- Node1&#45;&gt;Node318 -->
<g id="edge98" class="edge">
<title>Node1&#45;&gt;Node318</title>
<path fill="none" stroke="#191970" d="M4307.6161,-255.3611C3971.4929,-251.5331 2241.7547,-231.092 1710.5,-210 1684.3357,-208.9612 1655.8068,-207.3473 1630.1308,-205.7169"/>
<polygon fill="#191970" stroke="#191970" points="4308.0304,-258.8659 4318.0696,-255.4799 4308.11,-251.8664 4308.0304,-258.8659"/>
</g>
<!-- Node319 -->
<g id="node49" class="node">
<title>Node319</title>
<g id="a_node49"><a xlink:href="sitkCompositeTransform_8h.html" target="_top" xlink:title=" ">
<polygon fill="#ffffff" stroke="#000000" points="1719,-190.5 1719,-209.5 1864,-209.5 1864,-190.5 1719,-190.5"/>
<text text-anchor="middle" x="1791.5" y="-197.5" font-family="Helvetica,sans-Serif" font-size="10.00" fill="#000000">sitkCompositeTransform.h</text>
</a>
</g>
</g>
<!-- Node1&#45;&gt;Node319 -->
<g id="edge100" class="edge">
<title>Node1&#45;&gt;Node319</title>
<path fill="none" stroke="#191970" d="M4307.8228,-255.452C3987.1951,-252.2738 2397.7707,-235.4627 1908.5,-210 1894.1469,-209.253 1878.8259,-208.1591 1864.1587,-206.9659"/>
<polygon fill="#191970" stroke="#191970" points="4308.2192,-258.956 4318.2533,-255.555 4308.2884,-251.9563 4308.2192,-258.956"/>
</g>
<!-- Node320 -->
<g id="node50" class="node">
<title>Node320</title>
<g id="a_node50"><a xlink:href="sitkImageRegistrationMethod_8h.html" target="_top" xlink:title=" ">
<polygon fill="#ffffff" stroke="#000000" points="1917,-190.5 1917,-209.5 2086,-209.5 2086,-190.5 1917,-190.5"/>
<text text-anchor="middle" x="2001.5" y="-197.5" font-family="Helvetica,sans-Serif" font-size="10.00" fill="#000000">sitkImageRegistrationMethod.h</text>
</a>
</g>
</g>
<!-- Node1&#45;&gt;Node320 -->
<g id="edge102" class="edge">
<title>Node1&#45;&gt;Node320</title>
<path fill="none" stroke="#191970" d="M4307.8537,-255.3446C4003.8191,-251.7501 2562.734,-233.7229 2117.5,-210 2107.3066,-209.4569 2096.6208,-208.7389 2086.0336,-207.9362"/>
<polygon fill="#191970" stroke="#191970" points="4308.1454,-258.8482 4318.186,-255.4664 4308.228,-251.8487 4308.1454,-258.8482"/>
</g>
<!-- Node2&#45;&gt;Node3 -->
<g id="edge2" class="edge">
<title>Node2&#45;&gt;Node3</title>
<path fill="none" stroke="#191970" d="M2591.8266,-197.9129C2420.8044,-191.7674 1930.9809,-172.975 1771.5,-154 1759.1273,-152.5279 1745.8205,-150.3246 1733.5639,-148.0379"/>
<polygon fill="#191970" stroke="#191970" points="2591.7843,-201.4136 2601.9031,-198.2736 2592.0348,-194.418 2591.7843,-201.4136"/>
</g>
<!-- Node5 -->
<g id="node5" class="node">
<title>Node5</title>
<g id="a_node5"><a xlink:href="sitkBSplineTransformInitializerFilter_8h.html" target="_top" xlink:title=" ">
<polygon fill="#ffffff" stroke="#000000" points="4821.5,-56.5 4821.5,-86.5 4987.5,-86.5 4987.5,-56.5 4821.5,-56.5"/>
<text text-anchor="start" x="4829.5" y="-74.5" font-family="Helvetica,sans-Serif" font-size="10.00" fill="#000000">sitkBSplineTransformInitializer</text>
<text text-anchor="middle" x="4904.5" y="-63.5" font-family="Helvetica,sans-Serif" font-size="10.00" fill="#000000">Filter.h</text>
</a>
</g>
</g>
<!-- Node2&#45;&gt;Node5 -->
<g id="edge4" class="edge">
<title>Node2&#45;&gt;Node5</title>
<path fill="none" stroke="#191970" d="M2711.6512,-199.1709C2981.7634,-195.3226 4076.0684,-178.3503 4227.5,-154 4275.1202,-146.3427 4284.0664,-131.7392 4331.5,-123 4542.3273,-84.1569 4599.6868,-112.8353 4812.5,-87 4815.3943,-86.6486 4818.3364,-86.2701 4821.3053,-85.8698"/>
<polygon fill="#191970" stroke="#191970" points="2711.2202,-195.6766 2701.2709,-199.3181 2711.3195,-202.6759 2711.2202,-195.6766"/>
</g>
<!-- Node6 -->
<g id="node6" class="node">
<title>Node6</title>
<g id="a_node6"><a xlink:href="sitkImageFilter_8h.html" target="_top" xlink:title=" ">
<polygon fill="#ffffff" stroke="#ff0000" points="2687.5,-129 2687.5,-148 2785.5,-148 2785.5,-129 2687.5,-129"/>
<text text-anchor="middle" x="2736.5" y="-136" font-family="Helvetica,sans-Serif" font-size="10.00" fill="#000000">sitkImageFilter.h</text>
</a>
</g>
</g>
<!-- Node2&#45;&gt;Node6 -->
<g id="edge6" class="edge">
<title>Node2&#45;&gt;Node6</title>
<path fill="none" stroke="#191970" d="M2672.9662,-184.4685C2688.8119,-173.0037 2709.8736,-157.765 2723.312,-148.0419"/>
<polygon fill="#191970" stroke="#191970" points="2670.8314,-181.6931 2664.7813,-190.3906 2674.9347,-187.3643 2670.8314,-181.6931"/>
</g>
<!-- Node8 -->
<g id="node7" class="node">
<title>Node8</title>
<g id="a_node7"><a xlink:href="sitkExtractImageFilter_8h.html" target="_top" xlink:title=" ">
<polygon fill="#ffffff" stroke="#000000" points="2581.5,-62 2581.5,-81 2713.5,-81 2713.5,-62 2581.5,-62"/>
<text text-anchor="middle" x="2647.5" y="-69" font-family="Helvetica,sans-Serif" font-size="10.00" fill="#000000">sitkExtractImageFilter.h</text>
</a>
</g>
</g>
<!-- Node2&#45;&gt;Node8 -->
<g id="edge44" class="edge">
<title>Node2&#45;&gt;Node8</title>
<path fill="none" stroke="#191970" d="M2650.8828,-180.1733C2650.0128,-152.2236 2648.4589,-102.3037 2647.8041,-81.2705"/>
<polygon fill="#191970" stroke="#191970" points="2647.3898,-180.4554 2651.1993,-190.3416 2654.3864,-180.2375 2647.3898,-180.4554"/>
</g>
<!-- Node9 -->
<g id="node8" class="node">
<title>Node9</title>
<g id="a_node8"><a xlink:href="sitkHashImageFilter_8h.html" target="_top" xlink:title=" ">
<polygon fill="#ffffff" stroke="#000000" points="4219.5,-62 4219.5,-81 4341.5,-81 4341.5,-62 4219.5,-62"/>
<text text-anchor="middle" x="4280.5" y="-69" font-family="Helvetica,sans-Serif" font-size="10.00" fill="#000000">sitkHashImageFilter.h</text>
</a>
</g>
</g>
<!-- Node2&#45;&gt;Node9 -->
<g id="edge45" class="edge">
<title>Node2&#45;&gt;Node9</title>
<path fill="none" stroke="#191970" d="M2711.3817,-199.2278C2872.3092,-196.7538 3327.4744,-187.1316 3704.5,-154 3930.4809,-134.1416 3987.1043,-126.4473 4210.5,-87 4220.1834,-85.2901 4230.5565,-83.1595 4240.2714,-81.0306"/>
<polygon fill="#191970" stroke="#191970" points="2711.1575,-195.7306 2701.2112,-199.3806 2711.2627,-202.7299 2711.1575,-195.7306"/>
</g>
<!-- Node10 -->
<g id="node9" class="node">
<title>Node10</title>
<g id="a_node9"><a xlink:href="sitkLandmarkBasedTransformInitializerFilter_8h.html" target="_top" xlink:title=" ">
<polygon fill="#ffffff" stroke="#000000" points="4641.5,-56.5 4641.5,-86.5 4803.5,-86.5 4803.5,-56.5 4641.5,-56.5"/>
<text text-anchor="start" x="4649.5" y="-74.5" font-family="Helvetica,sans-Serif" font-size="10.00" fill="#000000">sitkLandmarkBasedTransform</text>
<text text-anchor="middle" x="4722.5" y="-63.5" font-family="Helvetica,sans-Serif" font-size="10.00" fill="#000000">InitializerFilter.h</text>
</a>
</g>
</g>
<!-- Node2&#45;&gt;Node10 -->
<g id="edge46" class="edge">
<title>Node2&#45;&gt;Node10</title>
<path fill="none" stroke="#191970" d="M2711.4612,-199.4965C2952.8681,-197.2603 3854.2314,-186.8428 4137.5,-154 4206.4201,-146.0093 4221.9223,-133.5324 4290.5,-123 4441.5685,-99.7984 4481.1072,-107.9816 4632.5,-87 4635.3269,-86.6082 4638.2012,-86.1949 4641.1023,-85.765"/>
<polygon fill="#191970" stroke="#191970" points="2711.1041,-195.9996 2701.1365,-199.5909 2711.1681,-202.9993 2711.1041,-195.9996"/>
</g>
<!-- Node11 -->
<g id="node10" class="node">
<title>Node11</title>
<g id="a_node10"><a xlink:href="sitkPasteImageFilter_8h.html" target="_top" xlink:title=" ">
<polygon fill="#ffffff" stroke="#000000" points="2131.5,-62 2131.5,-81 2255.5,-81 2255.5,-62 2131.5,-62"/>
<text text-anchor="middle" x="2193.5" y="-69" font-family="Helvetica,sans-Serif" font-size="10.00" fill="#000000">sitkPasteImageFilter.h</text>
</a>
</g>
</g>
<!-- Node2&#45;&gt;Node11 -->
<g id="edge47" class="edge">
<title>Node2&#45;&gt;Node11</title>
<path fill="none" stroke="#191970" d="M2616.4179,-186.4389C2596.7113,-178.1957 2572.0285,-166.8051 2551.5,-154 2533.0069,-142.4645 2533.4551,-131.7667 2513.5,-123 2411.1264,-78.025 2374.5255,-106.9372 2264.5,-87 2254.8167,-85.2453 2244.4429,-83.121 2234.6983,-81.0151"/>
<polygon fill="#191970" stroke="#191970" points="2615.3557,-189.786 2625.9361,-190.339 2618.0099,-183.3087 2615.3557,-189.786"/>
</g>
<!-- Node12 -->
<g id="node11" class="node">
<title>Node12</title>
<g id="a_node11"><a xlink:href="sitkAbsImageFilter_8h.html" target="_top" xlink:title=" ">
<polygon fill="#ffffff" stroke="#ff0000" points="2273.5,-62 2273.5,-81 2389.5,-81 2389.5,-62 2273.5,-62"/>
<text text-anchor="middle" x="2331.5" y="-69" font-family="Helvetica,sans-Serif" font-size="10.00" fill="#000000">sitkAbsImageFilter.h</text>
</a>
</g>
</g>
<!-- Node2&#45;&gt;Node12 -->
<g id="edge48" class="edge">
<title>Node2&#45;&gt;Node12</title>
<path fill="none" stroke="#191970" d="M2629.9496,-184.3862C2617.942,-175.593 2602.778,-164.333 2589.5,-154 2572.2989,-140.6141 2571.058,-132.62 2551.5,-123 2547.4576,-121.0116 2435.8745,-95.3449 2373.2131,-81.0157"/>
<polygon fill="#191970" stroke="#191970" points="2627.9215,-187.239 2638.0631,-190.3046 2632.0468,-181.5837 2627.9215,-187.239"/>
</g>
<!-- Node15 -->
<g id="node12" class="node">
<title>Node15</title>
<g id="a_node12"><a xlink:href="sitkAbsoluteValueDifferenceImageFilter_8h.html" target="_top" xlink:title=" ">
<polygon fill="#ffffff" stroke="#ff0000" points="2408,-56.5 2408,-86.5 2563,-86.5 2563,-56.5 2408,-56.5"/>
<text text-anchor="start" x="2416" y="-74.5" font-family="Helvetica,sans-Serif" font-size="10.00" fill="#000000">sitkAbsoluteValueDifference</text>
<text text-anchor="middle" x="2485.5" y="-63.5" font-family="Helvetica,sans-Serif" font-size="10.00" fill="#000000">ImageFilter.h</text>
</a>
</g>
</g>
<!-- Node2&#45;&gt;Node15 -->
<g id="edge49" class="edge">
<title>Node2&#45;&gt;Node15</title>
<path fill="none" stroke="#191970" d="M2640.2696,-181.9072C2629.0574,-164.986 2610.5057,-139.8599 2589.5,-123 2570.409,-107.6769 2546.0131,-95.2982 2525.6481,-86.5206"/>
<polygon fill="#191970" stroke="#191970" points="2637.3555,-183.8466 2645.7125,-190.3591 2643.2408,-180.0566 2637.3555,-183.8466"/>
</g>
<!-- Node16 -->
<g id="node13" class="node">
<title>Node16</title>
<g id="a_node13"><a xlink:href="sitkAcosImageFilter_8h.html" target="_top" xlink:title=" ">
<polygon fill="#ffffff" stroke="#ff0000" points="2770,-62 2770,-81 2891,-81 2891,-62 2770,-62"/>
<text text-anchor="middle" x="2830.5" y="-69" font-family="Helvetica,sans-Serif" font-size="10.00" fill="#000000">sitkAcosImageFilter.h</text>
</a>
</g>
</g>
<!-- Node2&#45;&gt;Node16 -->
<g id="edge50" class="edge">
<title>Node2&#45;&gt;Node16</title>
<path fill="none" stroke="#191970" d="M2711.4601,-192.3071C2739.5075,-186.0303 2771.6756,-174.6441 2794.5,-154 2816.5205,-134.083 2825.6847,-98.2858 2828.9463,-81.1517"/>
<polygon fill="#191970" stroke="#191970" points="2710.4243,-188.947 2701.3382,-194.3961 2711.8392,-195.8025 2710.4243,-188.947"/>
</g>
<!-- Node17 -->
<g id="node14" class="node">
<title>Node17</title>
<g id="a_node14"><a xlink:href="sitkAdaptiveHistogramEqualizationImageFilter_8h.html" target="_top" xlink:title=" ">
<polygon fill="#ffffff" stroke="#ff0000" points="2909,-56.5 2909,-86.5 3098,-86.5 3098,-56.5 2909,-56.5"/>
<text text-anchor="start" x="2917" y="-74.5" font-family="Helvetica,sans-Serif" font-size="10.00" fill="#000000">sitkAdaptiveHistogramEqualization</text>
<text text-anchor="middle" x="3003.5" y="-63.5" font-family="Helvetica,sans-Serif" font-size="10.00" fill="#000000">ImageFilter.h</text>
</a>
</g>
</g>
<!-- Node2&#45;&gt;Node17 -->
<g id="edge51" class="edge">
<title>Node2&#45;&gt;Node17</title>
<path fill="none" stroke="#191970" d="M2702.8564,-187.9866C2736.2079,-179.6649 2780.4014,-167.6542 2818.5,-154 2874.6131,-133.8895 2937.5221,-104.2427 2973.6284,-86.5039"/>
<polygon fill="#191970" stroke="#191970" points="2701.7439,-184.656 2692.8727,-190.4485 2703.4199,-191.4524 2701.7439,-184.656"/>
</g>
<!-- Node18 -->
<g id="node15" class="node">
<title>Node18</title>
<g id="a_node15"><a xlink:href="sitkAddImageFilter_8h.html" target="_top" xlink:title=" ">
<polygon fill="#ffffff" stroke="#ff0000" points="3116.5,-62 3116.5,-81 3232.5,-81 3232.5,-62 3116.5,-62"/>
<text text-anchor="middle" x="3174.5" y="-69" font-family="Helvetica,sans-Serif" font-size="10.00" fill="#000000">sitkAddImageFilter.h</text>
</a>
</g>
</g>
<!-- Node2&#45;&gt;Node18 -->
<g id="edge52" class="edge">
<title>Node2&#45;&gt;Node18</title>
<path fill="none" stroke="#191970" d="M2710.2642,-188.4446C2754.0315,-179.6197 2815.1796,-166.8292 2868.5,-154 2968.5361,-129.9307 3085.7026,-97.0044 3141.5953,-81.0037"/>
<polygon fill="#191970" stroke="#191970" points="2709.4798,-185.0322 2700.3647,-190.4328 2710.8582,-191.8951 2709.4798,-185.0322"/>
</g>
<!-- Node20 -->
<g id="node16" class="node">
<title>Node20</title>
<g id="a_node16"><a xlink:href="sitkAdditiveGaussianNoiseImageFilter_8h.html" target="_top" xlink:title=" ">
<polygon fill="#ffffff" stroke="#ff0000" points="3250.5,-56.5 3250.5,-86.5 3398.5,-86.5 3398.5,-56.5 3250.5,-56.5"/>
<text text-anchor="start" x="3258.5" y="-74.5" font-family="Helvetica,sans-Serif" font-size="10.00" fill="#000000">sitkAdditiveGaussianNoise</text>
<text text-anchor="middle" x="3324.5" y="-63.5" font-family="Helvetica,sans-Serif" font-size="10.00" fill="#000000">ImageFilter.h</text>
</a>
</g>
</g>
<!-- Node2&#45;&gt;Node20 -->
<g id="edge53" class="edge">
<title>Node2&#45;&gt;Node20</title>
<path fill="none" stroke="#191970" d="M2711.3726,-191.4827C2770.1273,-182.8938 2862.2028,-168.818 2941.5,-154 3053.9933,-132.9787 3184.0551,-103.9533 3260.0012,-86.5249"/>
<polygon fill="#191970" stroke="#191970" points="2710.5513,-188.0653 2701.1598,-192.9694 2711.5597,-194.9923 2710.5513,-188.0653"/>
</g>
<!-- Node21 -->
<g id="node17" class="node">
<title>Node21</title>
<g id="a_node17"><a xlink:href="sitkAggregateLabelMapFilter_8h.html" target="_top" xlink:title=" ">
<polygon fill="#ffffff" stroke="#ff0000" points="3416.5,-62 3416.5,-81 3580.5,-81 3580.5,-62 3416.5,-62"/>
<text text-anchor="middle" x="3498.5" y="-69" font-family="Helvetica,sans-Serif" font-size="10.00" fill="#000000">sitkAggregateLabelMapFilter.h</text>
</a>
</g>
</g>
<!-- Node2&#45;&gt;Node21 -->
<g id="edge54" class="edge">
<title>Node2&#45;&gt;Node21</title>
<path fill="none" stroke="#191970" d="M2711.1317,-193.6995C2785.5613,-185.6113 2916.6891,-170.6229 3028.5,-154 3182.5549,-131.0967 3363.8158,-97.3398 3449.241,-81.0225"/>
<polygon fill="#191970" stroke="#191970" points="2710.5789,-190.2388 2701.0136,-194.7945 2711.3321,-197.1982 2710.5789,-190.2388"/>
</g>
<!-- Node22 -->
<g id="node18" class="node">
<title>Node22</title>
<g id="a_node18"><a xlink:href="sitkAndImageFilter_8h.html" target="_top" xlink:title=" ">
<polygon fill="#ffffff" stroke="#ff0000" points="3598.5,-62 3598.5,-81 3714.5,-81 3714.5,-62 3598.5,-62"/>
<text text-anchor="middle" x="3656.5" y="-69" font-family="Helvetica,sans-Serif" font-size="10.00" fill="#000000">sitkAndImageFilter.h</text>
</a>
</g>
</g>
<!-- Node2&#45;&gt;Node22 -->
<g id="edge55" class="edge">
<title>Node2&#45;&gt;Node22</title>
<path fill="none" stroke="#191970" d="M2711.4955,-195.5606C2860.8412,-183.9068 3260.9193,-148.9864 3589.5,-87 3598.6511,-85.2737 3608.4457,-83.1604 3617.6421,-81.0562"/>
<polygon fill="#191970" stroke="#191970" points="2710.8802,-192.0977 2701.1803,-196.3595 2711.4208,-199.0768 2710.8802,-192.0977"/>
</g>
<!-- Node23 -->
<g id="node19" class="node">
<title>Node23</title>
<g id="a_node19"><a xlink:href="sitkAntiAliasBinaryImageFilter_8h.html" target="_top" xlink:title=" ">
<polygon fill="#ffffff" stroke="#ff0000" points="3732.5,-56.5 3732.5,-86.5 3872.5,-86.5 3872.5,-56.5 3732.5,-56.5"/>
<text text-anchor="start" x="3740.5" y="-74.5" font-family="Helvetica,sans-Serif" font-size="10.00" fill="#000000">sitkAntiAliasBinaryImage</text>
<text text-anchor="middle" x="3802.5" y="-63.5" font-family="Helvetica,sans-Serif" font-size="10.00" fill="#000000">Filter.h</text>
</a>
</g>
</g>
<!-- Node2&#45;&gt;Node23 -->
<g id="edge56" class="edge">
<title>Node2&#45;&gt;Node23</title>
<path fill="none" stroke="#191970" d="M2711.6602,-196.985C2822.4462,-191.1094 3066.0982,-176.6804 3270.5,-154 3472.7821,-131.5548 3522.9203,-121.4907 3723.5,-87 3726.3927,-86.5026 3729.3424,-85.9825 3732.3203,-85.4468"/>
<polygon fill="#191970" stroke="#191970" points="2711.1618,-193.5063 2701.3595,-197.5269 2711.5296,-200.4966 2711.1618,-193.5063"/>
</g>
<!-- Node24 -->
<g id="node20" class="node">
<title>Node24</title>
<g id="a_node20"><a xlink:href="sitkApproximateSignedDistanceMapImageFilter_8h.html" target="_top" xlink:title=" ">
<polygon fill="#ffffff" stroke="#ff0000" points="3891,-56.5 3891,-86.5 4064,-86.5 4064,-56.5 3891,-56.5"/>
<text text-anchor="start" x="3899" y="-74.5" font-family="Helvetica,sans-Serif" font-size="10.00" fill="#000000">sitkApproximateSignedDistance</text>
<text text-anchor="middle" x="3977.5" y="-63.5" font-family="Helvetica,sans-Serif" font-size="10.00" fill="#000000">MapImageFilter.h</text>
</a>
</g>
</g>
<!-- Node2&#45;&gt;Node24 -->
<g id="edge57" class="edge">
<title>Node2&#45;&gt;Node24</title>
<path fill="none" stroke="#191970" d="M2711.5019,-197.8985C2838.8595,-193.091 3145.5233,-179.6761 3401.5,-154 3615.826,-132.5017 3668.4973,-119.0576 3881.5,-87 3884.5885,-86.5352 3887.7319,-86.0566 3890.9063,-85.5686"/>
<polygon fill="#191970" stroke="#191970" points="2711.0535,-194.4127 2701.1911,-198.2836 2711.3148,-201.4078 2711.0535,-194.4127"/>
</g>
<!-- Node25 -->
<g id="node21" class="node">
<title>Node25</title>
<g id="a_node21"><a xlink:href="sitkAsinImageFilter_8h.html" target="_top" xlink:title=" ">
<polygon fill="#ffffff" stroke="#ff0000" points="4082,-62 4082,-81 4201,-81 4201,-62 4082,-62"/>
<text text-anchor="middle" x="4141.5" y="-69" font-family="Helvetica,sans-Serif" font-size="10.00" fill="#000000">sitkAsinImageFilter.h</text>
</a>
</g>
</g>
<!-- Node2&#45;&gt;Node25 -->
<g id="edge58" class="edge">
<title>Node2&#45;&gt;Node25</title>
<path fill="none" stroke="#191970" d="M2711.497,-198.405C2854.8681,-194.2638 3228.5878,-181.5207 3539.5,-154 3777.7625,-132.91 3837.9369,-128.5194 4073.5,-87 4083.0396,-85.3186 4093.2576,-83.1744 4102.7984,-81.0208"/>
<polygon fill="#191970" stroke="#191970" points="2711.0667,-194.9158 2701.1707,-198.6999 2711.2666,-201.9129 2711.0667,-194.9158"/>
</g>
<!-- Node26 -->
<g id="node22" class="node">
<title>Node26</title>
<g id="a_node22"><a xlink:href="sitkAtan2ImageFilter_8h.html" target="_top" xlink:title=" ">
<polygon fill="#ffffff" stroke="#ff0000" points="4359.5,-62 4359.5,-81 4485.5,-81 4485.5,-62 4359.5,-62"/>
<text text-anchor="middle" x="4422.5" y="-69" font-family="Helvetica,sans-Serif" font-size="10.00" fill="#000000">sitkAtan2ImageFilter.h</text>
</a>
</g>
</g>
<!-- Node2&#45;&gt;Node26 -->
<g id="edge59" class="edge">
<title>Node2&#45;&gt;Node26</title>
<path fill="none" stroke="#191970" d="M2711.4805,-198.5009C2923.1039,-193.0895 3634.3138,-173.8341 3861.5,-154 4080.0326,-134.9214 4134.4525,-124.9995 4350.5,-87 4360.3226,-85.2724 4370.8436,-83.1586 4380.7256,-81.0543"/>
<polygon fill="#191970" stroke="#191970" points="2711.1021,-195.0093 2701.1946,-198.763 2711.2805,-202.007 2711.1021,-195.0093"/>
</g>
<!-- Node27 -->
<g id="node23" class="node">
<title>Node27</title>
<g id="a_node23"><a xlink:href="sitkAtanImageFilter_8h.html" target="_top" xlink:title=" ">
<polygon fill="#ffffff" stroke="#ff0000" points="4503.5,-62 4503.5,-81 4623.5,-81 4623.5,-62 4503.5,-62"/>
<text text-anchor="middle" x="4563.5" y="-69" font-family="Helvetica,sans-Serif" font-size="10.00" fill="#000000">sitkAtanImageFilter.h</text>
</a>
</g>
</g>
<!-- Node2&#45;&gt;Node27 -->
<g id="edge60" class="edge">
<title>Node2&#45;&gt;Node27</title>
<path fill="none" stroke="#191970" d="M2711.0929,-198.8029C2938.4819,-194.1075 3751.691,-176.1142 4009.5,-154 4036.6008,-151.6754 4467.7349,-91.8462 4494.5,-87 4504.0442,-85.2719 4514.2687,-83.1343 4523.8448,-81.0045"/>
<polygon fill="#191970" stroke="#191970" points="2710.9536,-195.3049 2701.0277,-199.01 2711.0976,-202.3035 2710.9536,-195.3049"/>
</g>
<!-- Node28 -->
<g id="node24" class="node">
<title>Node28</title>
<g id="a_node24"><a xlink:href="sitkBSplineDecompositionImageFilter_8h.html" target="_top" xlink:title=" ">
<polygon fill="#ffffff" stroke="#ff0000" points="387,-56.5 387,-86.5 532,-86.5 532,-56.5 387,-56.5"/>
<text text-anchor="start" x="395" y="-74.5" font-family="Helvetica,sans-Serif" font-size="10.00" fill="#000000">sitkBSplineDecomposition</text>
<text text-anchor="middle" x="459.5" y="-63.5" font-family="Helvetica,sans-Serif" font-size="10.00" fill="#000000">ImageFilter.h</text>
</a>
</g>
</g>
<!-- Node2&#45;&gt;Node28 -->
<g id="edge61" class="edge">
<title>Node2&#45;&gt;Node28</title>
<path fill="none" stroke="#191970" d="M2591.9288,-199.0625C2480.4869,-196.5319 2245.094,-187.2941 2171.5,-154 2153.1659,-145.7056 2157.1247,-130.6197 2138.5,-123 2056.3119,-89.3754 628.8038,-96.3774 540.5,-87 537.7949,-86.7127 535.0451,-86.3827 532.2722,-86.0179"/>
<polygon fill="#191970" stroke="#191970" points="2591.9214,-202.563 2601.9948,-199.2804 2592.073,-195.5647 2591.9214,-202.563"/>
</g>
<!-- Node29 -->
<g id="node25" class="node">
<title>Node29</title>
<g id="a_node25"><a xlink:href="sitkBilateralImageFilter_8h.html" target="_top" xlink:title=" ">
<polygon fill="#ffffff" stroke="#ff0000" points="550,-62 550,-81 689,-81 689,-62 550,-62"/>
<text text-anchor="middle" x="619.5" y="-69" font-family="Helvetica,sans-Serif" font-size="10.00" fill="#000000">sitkBilateralImageFilter.h</text>
</a>
</g>
</g>
<!-- Node2&#45;&gt;Node29 -->
<g id="edge62" class="edge">
<title>Node2&#45;&gt;Node29</title>
<path fill="none" stroke="#191970" d="M2591.8852,-198.0095C2487.7034,-193.8371 2277.1509,-182.1249 2209.5,-154 2189.374,-145.6329 2191.9417,-130.5631 2171.5,-123 2017.9566,-66.1916 861.2424,-104.824 698.5,-87 686.2736,-85.6609 673.1178,-83.4109 661.1164,-81.0345"/>
<polygon fill="#191970" stroke="#191970" points="2591.8009,-201.5088 2601.9298,-198.4015 2592.074,-194.5141 2591.8009,-201.5088"/>
</g>
<!-- Node30 -->
<g id="node26" class="node">
<title>Node30</title>
<g id="a_node26"><a xlink:href="sitkBinShrinkImageFilter_8h.html" target="_top" xlink:title=" ">
<polygon fill="#ffffff" stroke="#ff0000" points="707.5,-62 707.5,-81 851.5,-81 851.5,-62 707.5,-62"/>
<text text-anchor="middle" x="779.5" y="-69" font-family="Helvetica,sans-Serif" font-size="10.00" fill="#000000">sitkBinShrinkImageFilter.h</text>
</a>
</g>
</g>
<!-- Node2&#45;&gt;Node30 -->
<g id="edge63" class="edge">
<title>Node2&#45;&gt;Node30</title>
<path fill="none" stroke="#191970" d="M2591.6829,-197.3186C2494.7658,-192.288 2308.1463,-179.5575 2247.5,-154 2227.4148,-145.5357 2229.9332,-130.586 2209.5,-123 2068.9326,-70.813 1009.5706,-103.1438 860.5,-87 847.9737,-85.6434 834.4879,-83.388 822.1825,-81.0119"/>
<polygon fill="#191970" stroke="#191970" points="2591.7446,-200.8261 2601.9093,-197.8381 2592.0998,-193.8352 2591.7446,-200.8261"/>
</g>
<!-- Node31 -->
<g id="node27" class="node">
<title>Node31</title>
<g id="a_node27"><a xlink:href="sitkBinaryClosingByReconstructionImageFilter_8h.html" target="_top" xlink:title=" ">
<polygon fill="#ffffff" stroke="#ff0000" points="870,-56.5 870,-86.5 1057,-86.5 1057,-56.5 870,-56.5"/>
<text text-anchor="start" x="878" y="-74.5" font-family="Helvetica,sans-Serif" font-size="10.00" fill="#000000">sitkBinaryClosingByReconstruction</text>
<text text-anchor="middle" x="963.5" y="-63.5" font-family="Helvetica,sans-Serif" font-size="10.00" fill="#000000">ImageFilter.h</text>
</a>
</g>
</g>
<!-- Node2&#45;&gt;Node31 -->
<g id="edge64" class="edge">
<title>Node2&#45;&gt;Node31</title>
<path fill="none" stroke="#191970" d="M2591.6324,-196.4937C2502.3935,-190.5926 2339.2251,-177.0104 2285.5,-154 2265.4644,-145.4188 2267.9188,-130.6245 2247.5,-123 2124.4073,-77.0366 1196.355,-98.8916 1065.5,-87 1062.7351,-86.7487 1059.9311,-86.4711 1057.1028,-86.1711"/>
<polygon fill="#191970" stroke="#191970" points="2591.6675,-200.0032 2601.8733,-197.1586 2592.1211,-193.0179 2591.6675,-200.0032"/>
</g>
<!-- Node32 -->
<g id="node28" class="node">
<title>Node32</title>
<g id="a_node28"><a xlink:href="sitkBinaryContourImageFilter_8h.html" target="_top" xlink:title=" ">
<polygon fill="#ffffff" stroke="#ff0000" points="1075,-62 1075,-81 1242,-81 1242,-62 1075,-62"/>
<text text-anchor="middle" x="1158.5" y="-69" font-family="Helvetica,sans-Serif" font-size="10.00" fill="#000000">sitkBinaryContourImageFilter.h</text>
</a>
</g>
</g>
<!-- Node2&#45;&gt;Node32 -->
<g id="edge65" class="edge">
<title>Node2&#45;&gt;Node32</title>
<path fill="none" stroke="#191970" d="M2591.6192,-195.4838C2510.4824,-188.7046 2370.3694,-174.4721 2323.5,-154 2303.5263,-145.2757 2305.9023,-130.6686 2285.5,-123 2177.7878,-82.5144 1364.985,-98.5839 1250.5,-87 1236.6411,-85.5977 1221.711,-83.3884 1207.9936,-81.0724"/>
<polygon fill="#191970" stroke="#191970" points="2591.4409,-198.9808 2601.6942,-196.3126 2592.0149,-192.0044 2591.4409,-198.9808"/>
</g>
<!-- Node33 -->
<g id="node29" class="node">
<title>Node33</title>
<g id="a_node29"><a xlink:href="sitkBinaryDilateImageFilter_8h.html" target="_top" xlink:title=" ">
<polygon fill="#ffffff" stroke="#ff0000" points="1259.5,-62 1259.5,-81 1417.5,-81 1417.5,-62 1259.5,-62"/>
<text text-anchor="middle" x="1338.5" y="-69" font-family="Helvetica,sans-Serif" font-size="10.00" fill="#000000">sitkBinaryDilateImageFilter.h</text>
</a>
</g>
</g>
<!-- Node2&#45;&gt;Node33 -->
<g id="edge66" class="edge">
<title>Node2&#45;&gt;Node33</title>
<path fill="none" stroke="#191970" d="M2591.5964,-194.2136C2519.0488,-186.5646 2401.5799,-171.9372 2361.5,-154 2341.6055,-145.0965 2343.8818,-130.7231 2323.5,-123 2230.2248,-87.6561 1525.674,-97.6754 1426.5,-87 1413.2355,-85.5722 1398.9519,-83.3544 1385.8309,-81.0386"/>
<polygon fill="#191970" stroke="#191970" points="2591.6513,-197.7381 2601.9596,-195.2911 2592.3752,-190.7756 2591.6513,-197.7381"/>
</g>
<!-- Node34 -->
<g id="node30" class="node">
<title>Node34</title>
<g id="a_node30"><a xlink:href="sitkBinaryErodeImageFilter_8h.html" target="_top" xlink:title=" ">
<polygon fill="#ffffff" stroke="#ff0000" points="1436,-62 1436,-81 1593,-81 1593,-62 1436,-62"/>
<text text-anchor="middle" x="1514.5" y="-69" font-family="Helvetica,sans-Serif" font-size="10.00" fill="#000000">sitkBinaryErodeImageFilter.h</text>
</a>
</g>
</g>
<!-- Node2&#45;&gt;Node34 -->
<g id="edge67" class="edge">
<title>Node2&#45;&gt;Node34</title>
<path fill="none" stroke="#191970" d="M2591.5821,-192.5694C2528.2128,-184.0935 2432.8731,-169.4036 2399.5,-154 2379.7103,-144.8659 2381.8535,-130.7972 2361.5,-123 2203.8183,-62.5936 1770.3195,-105.683 1602.5,-87 1589.3949,-85.541 1575.2909,-83.3421 1562.2961,-81.0555"/>
<polygon fill="#191970" stroke="#191970" points="2591.4797,-196.0862 2601.852,-193.9262 2592.3966,-189.1465 2591.4797,-196.0862"/>
</g>
<!-- Node35 -->
<g id="node31" class="node">
<title>Node35</title>
<g id="a_node31"><a xlink:href="sitkBinaryFillholeImageFilter_8h.html" target="_top" xlink:title=" ">
<polygon fill="#ffffff" stroke="#ff0000" points="1611.5,-62 1611.5,-81 1775.5,-81 1775.5,-62 1611.5,-62"/>
<text text-anchor="middle" x="1693.5" y="-69" font-family="Helvetica,sans-Serif" font-size="10.00" fill="#000000">sitkBinaryFillholeImageFilter.h</text>
</a>
</g>
</g>
<!-- Node2&#45;&gt;Node35 -->
<g id="edge68" class="edge">
<title>Node2&#45;&gt;Node35</title>
<path fill="none" stroke="#191970" d="M2591.7317,-194.7685C2547.403,-189.1134 2486.4348,-177.5184 2437.5,-154 2417.8551,-144.5585 2419.8096,-130.9108 2399.5,-123 2272.1414,-73.3927 1921.3111,-102.3762 1785.5,-87 1771.9806,-85.4694 1757.4281,-83.2744 1743.9759,-81.0158"/>
<polygon fill="#191970" stroke="#191970" points="2591.4258,-198.257 2601.7741,-195.9847 2592.2675,-191.3077 2591.4258,-198.257"/>
</g>
<!-- Node36 -->
<g id="node32" class="node">
<title>Node36</title>
<g id="a_node32"><a xlink:href="sitkBinaryGrindPeakImageFilter_8h.html" target="_top" xlink:title=" ">
<polygon fill="#ffffff" stroke="#ff0000" points="1794,-56.5 1794,-86.5 1941,-86.5 1941,-56.5 1794,-56.5"/>
<text text-anchor="start" x="1802" y="-74.5" font-family="Helvetica,sans-Serif" font-size="10.00" fill="#000000">sitkBinaryGrindPeakImage</text>
<text text-anchor="middle" x="1867.5" y="-63.5" font-family="Helvetica,sans-Serif" font-size="10.00" fill="#000000">Filter.h</text>
</a>
</g>
</g>
<!-- Node2&#45;&gt;Node36 -->
<g id="edge69" class="edge">
<title>Node2&#45;&gt;Node36</title>
<path fill="none" stroke="#191970" d="M2591.5477,-190.9304C2556.3969,-184.0294 2511.8919,-172.4845 2475.5,-154 2456.0672,-144.1295 2457.7488,-131.0651 2437.5,-123 2336.6851,-82.8453 2058.113,-100.9819 1950.5,-87 1947.4473,-86.6034 1944.3369,-86.1675 1941.1989,-85.7015"/>
<polygon fill="#191970" stroke="#191970" points="2591.1912,-194.4248 2601.6669,-192.8405 2592.4897,-187.5463 2591.1912,-194.4248"/>
</g>
<!-- Node37 -->
<g id="node33" class="node">
<title>Node37</title>
<g id="a_node33"><a xlink:href="sitkBinaryImageToLabelMapFilter_8h.html" target="_top" xlink:title=" ">
<polygon fill="#ffffff" stroke="#ff0000" points="1959.5,-56.5 1959.5,-86.5 2113.5,-86.5 2113.5,-56.5 1959.5,-56.5"/>
<text text-anchor="start" x="1967.5" y="-74.5" font-family="Helvetica,sans-Serif" font-size="10.00" fill="#000000">sitkBinaryImageToLabelMap</text>
<text text-anchor="middle" x="2036.5" y="-63.5" font-family="Helvetica,sans-Serif" font-size="10.00" fill="#000000">Filter.h</text>
</a>
</g>
</g>
<!-- Node2&#45;&gt;Node37 -->
<g id="edge70" class="edge">
<title>Node2&#45;&gt;Node37</title>
<path fill="none" stroke="#191970" d="M2600.372,-187.7434C2573.534,-180.1442 2540.6731,-168.9516 2513.5,-154 2494.404,-143.4927 2495.6346,-131.3463 2475.5,-123 2329.8177,-62.6113 2278.6602,-109.0024 2122.5,-87 2119.6457,-86.5978 2116.7413,-86.17 2113.8101,-85.7225"/>
<polygon fill="#191970" stroke="#191970" points="2599.7687,-191.2073 2610.3386,-190.4803 2601.6224,-184.4571 2599.7687,-191.2073"/>
</g>
<!-- Node304 -->
<g id="node34" class="node">
<title>Node304</title>
<g id="a_node34"><a xlink:href="sitkCenteredTransformInitializerFilter_8h.html" target="_top" xlink:title=" ">
<polygon fill="#ffffff" stroke="#000000" points="1780,-123.5 1780,-153.5 1953,-153.5 1953,-123.5 1780,-123.5"/>
<text text-anchor="start" x="1788" y="-141.5" font-family="Helvetica,sans-Serif" font-size="10.00" fill="#000000">sitkCenteredTransformInitializer</text>
<text text-anchor="middle" x="1866.5" y="-130.5" font-family="Helvetica,sans-Serif" font-size="10.00" fill="#000000">Filter.h</text>
</a>
</g>
</g>
<!-- Node2&#45;&gt;Node304 -->
<g id="edge40" class="edge">
<title>Node2&#45;&gt;Node304</title>
<path fill="none" stroke="#191970" d="M2591.5714,-197.884C2471.76,-193.2377 2194.2721,-180.3893 1962.5,-154 1959.3968,-153.6467 1956.2407,-153.2635 1953.0557,-152.8565"/>
<polygon fill="#191970" stroke="#191970" points="2591.514,-201.3843 2601.6406,-198.2695 2591.7818,-194.3894 2591.514,-201.3843"/>
</g>
<!-- Node305 -->
<g id="node35" class="node">
<title>Node305</title>
<g id="a_node35"><a xlink:href="sitkCenteredVersorTransformInitializerFilter_8h.html" target="_top" xlink:title=" ">
<polygon fill="#ffffff" stroke="#000000" points="1971.5,-123.5 1971.5,-153.5 2129.5,-153.5 2129.5,-123.5 1971.5,-123.5"/>
<text text-anchor="start" x="1979.5" y="-141.5" font-family="Helvetica,sans-Serif" font-size="10.00" fill="#000000">sitkCenteredVersorTransform</text>
<text text-anchor="middle" x="2050.5" y="-130.5" font-family="Helvetica,sans-Serif" font-size="10.00" fill="#000000">InitializerFilter.h</text>
</a>
</g>
</g>
<!-- Node2&#45;&gt;Node305 -->
<g id="edge42" class="edge">
<title>Node2&#45;&gt;Node305</title>
<path fill="none" stroke="#191970" d="M2591.9724,-196.0609C2496.9333,-189.4456 2305.153,-174.7604 2143.5,-154 2138.9541,-153.4162 2134.2901,-152.7747 2129.5882,-152.095"/>
<polygon fill="#191970" stroke="#191970" points="2591.7523,-199.5539 2601.9699,-196.7517 2592.235,-192.5706 2591.7523,-199.5539"/>
</g>
<!-- Node3&#45;&gt;Node4 -->
<g id="edge3" class="edge">
<title>Node3&#45;&gt;Node4</title>
<path fill="none" stroke="#191970" d="M1604.439,-136.8089C1315.1527,-130.7927 377.2223,-109.5777 355.5,-87 345.9475,-77.0714 345.8149,-65.7993 355.5,-56 391.6058,-19.4686 3843.6075,-10.9417 4242.9614,-10.0773"/>
<polygon fill="#191970" stroke="#191970" points="1604.7934,-140.3169 1614.8638,-137.0249 1604.9385,-133.3184 1604.7934,-140.3169"/>
</g>
<!-- Node5&#45;&gt;Node4 -->
<g id="edge5" class="edge">
<title>Node5&#45;&gt;Node4</title>
<path fill="none" stroke="#191970" d="M4811.3472,-55.9158C4620.0855,-31.9681 4403.6227,-17.4432 4318.02,-12.2"/>
<polygon fill="#191970" stroke="#191970" points="4810.9399,-59.3921 4821.2999,-57.1735 4811.8176,-52.4473 4810.9399,-59.3921"/>
</g>
<!-- Node6&#45;&gt;Node4 -->
<g id="edge16" class="edge">
<title>Node6&#45;&gt;Node4</title>
<path fill="none" stroke="#191970" d="M2736.3789,-118.7191C2737.4433,-99.3229 2742.4274,-70.6022 2761.5,-56 2791.8268,-32.7815 4010.7835,-13.9212 4242.6341,-10.5402"/>
<polygon fill="#191970" stroke="#191970" points="2732.8759,-118.8014 2736.1283,-128.8846 2739.8738,-118.974 2732.8759,-118.8014"/>
</g>
<!-- Node6&#45;&gt;Node5 -->
<g id="edge7" class="edge">
<title>Node6&#45;&gt;Node5</title>
<path fill="none" stroke="#191970" d="M2795.9236,-138.1673C3091.5504,-136.3379 4405.7414,-126.1103 4812.5,-87 4815.4021,-86.721 4818.351,-86.4045 4821.3256,-86.0573"/>
<polygon fill="#191970" stroke="#191970" points="2795.8185,-134.6678 2785.8401,-138.2289 2795.8614,-141.6677 2795.8185,-134.6678"/>
</g>
<!-- Node6&#45;&gt;Node8 -->
<g id="edge8" class="edge">
<title>Node6&#45;&gt;Node8</title>
<path fill="none" stroke="#191970" d="M2715.4534,-122.6559C2698.2957,-109.7395 2674.6252,-91.9201 2660.2279,-81.0817"/>
<polygon fill="#191970" stroke="#191970" points="2713.6542,-125.6824 2723.7485,-128.9005 2717.8643,-120.0899 2713.6542,-125.6824"/>
</g>
<!-- Node6&#45;&gt;Node9 -->
<g id="edge10" class="edge">
<title>Node6&#45;&gt;Node9</title>
<path fill="none" stroke="#191970" d="M2795.996,-137.8745C3035.5271,-135.1314 3929.8572,-122.6687 4210.5,-87 4221.2426,-85.6347 4232.7681,-83.4072 4243.3038,-81.0612"/>
<polygon fill="#191970" stroke="#191970" points="2795.7113,-134.3774 2785.7516,-137.9904 2795.7906,-141.3769 2795.7113,-134.3774"/>
</g>
<!-- Node6&#45;&gt;Node10 -->
<g id="edge12" class="edge">
<title>Node6&#45;&gt;Node10</title>
<path fill="none" stroke="#191970" d="M2796.1001,-138.0329C3076.1927,-135.6615 4263.4844,-123.5974 4632.5,-87 4635.34,-86.7183 4638.2255,-86.3997 4641.1362,-86.0506"/>
<polygon fill="#191970" stroke="#191970" points="2795.7193,-134.5359 2785.749,-138.1196 2795.778,-141.5357 2795.7193,-134.5359"/>
</g>
<!-- Node6&#45;&gt;Node11 -->
<g id="edge14" class="edge">
<title>Node6&#45;&gt;Node11</title>
<path fill="none" stroke="#191970" d="M2677.3674,-134.0784C2587.7057,-126.9165 2412.1615,-111.1037 2264.5,-87 2254.414,-85.3536 2243.6025,-83.1973 2233.5344,-81.0186"/>
<polygon fill="#191970" stroke="#191970" points="2677.0998,-137.5681 2687.3448,-134.8679 2677.6521,-130.5899 2677.0998,-137.5681"/>
</g>
<!-- Node6&#45;&gt;Node12 -->
<g id="edge17" class="edge">
<title>Node6&#45;&gt;Node12</title>
<path fill="none" stroke="#191970" d="M2677.4628,-130.798C2610.0085,-121.6922 2496.423,-105.4271 2399.5,-87 2390.2217,-85.236 2380.2846,-83.108 2370.9515,-81.0016"/>
<polygon fill="#191970" stroke="#191970" points="2677.101,-134.2807 2687.4779,-132.1431 2678.0328,-127.343 2677.101,-134.2807"/>
</g>
<!-- Node6&#45;&gt;Node15 -->
<g id="edge18" class="edge">
<title>Node6&#45;&gt;Node15</title>
<path fill="none" stroke="#191970" d="M2690.8843,-126.3237C2649.022,-115.1493 2586.8652,-98.5576 2541.9014,-86.5553"/>
<polygon fill="#191970" stroke="#191970" points="2690.24,-129.7742 2700.8044,-128.9717 2692.0454,-123.011 2690.24,-129.7742"/>
</g>
<!-- Node6&#45;&gt;Node16 -->
<g id="edge19" class="edge">
<title>Node6&#45;&gt;Node16</title>
<path fill="none" stroke="#191970" d="M2758.232,-123.0102C2776.391,-110.067 2801.7114,-92.0195 2817.0571,-81.0817"/>
<polygon fill="#191970" stroke="#191970" points="2756.0796,-120.2462 2749.9679,-128.9005 2760.1426,-125.9464 2756.0796,-120.2462"/>
</g>
<!-- Node6&#45;&gt;Node17 -->
<g id="edge20" class="edge">
<title>Node6&#45;&gt;Node17</title>
<path fill="none" stroke="#191970" d="M2784.1787,-126.5357C2828.7149,-115.3599 2895.3699,-98.6338 2943.5033,-86.5553"/>
<polygon fill="#191970" stroke="#191970" points="2783.3184,-123.143 2774.471,-128.9717 2785.0222,-129.9325 2783.3184,-123.143"/>
</g>
<!-- Node6&#45;&gt;Node18 -->
<g id="edge21" class="edge">
<title>Node6&#45;&gt;Node18</title>
<path fill="none" stroke="#191970" d="M2795.6221,-131.9465C2869.055,-123.4273 2998.0262,-107.2194 3107.5,-87 3116.7751,-85.2869 3126.7061,-83.1551 3136.005,-81.026"/>
<polygon fill="#191970" stroke="#191970" points="2795.1704,-128.4754 2785.6368,-133.0972 2795.9718,-135.4293 2795.1704,-128.4754"/>
</g>
<!-- Node6&#45;&gt;Node20 -->
<g id="edge22" class="edge">
<title>Node6&#45;&gt;Node20</title>
<path fill="none" stroke="#191970" d="M2796.0017,-134.0417C2890.631,-126.5897 3081.126,-110.1115 3241.5,-87 3244.4018,-86.5818 3247.3568,-86.1344 3250.3389,-85.6648"/>
<polygon fill="#191970" stroke="#191970" points="2795.4671,-130.5727 2785.7703,-134.8416 2796.0127,-137.5514 2795.4671,-130.5727"/>
</g>
<!-- Node6&#45;&gt;Node21 -->
<g id="edge23" class="edge">
<title>Node6&#45;&gt;Node21</title>
<path fill="none" stroke="#191970" d="M2796.1089,-135.7717C2913.4774,-129.9918 3182.66,-114.7171 3407.5,-87 3420.5427,-85.3922 3434.5665,-83.224 3447.6048,-81.0195"/>
<polygon fill="#191970" stroke="#191970" points="2795.72,-132.2864 2785.9022,-136.2691 2796.0608,-139.2781 2795.72,-132.2864"/>
</g>
<!-- Node6&#45;&gt;Node22 -->
<g id="edge24" class="edge">
<title>Node6&#45;&gt;Node22</title>
<path fill="none" stroke="#191970" d="M2795.8021,-136.2118C2962.9654,-129.556 3435.7955,-109.2599 3589.5,-87 3599.5435,-85.5455 3610.3039,-83.348 3620.1979,-81.0614"/>
<polygon fill="#191970" stroke="#191970" points="2795.5635,-132.7184 2785.71,-136.6118 2795.8408,-139.7129 2795.5635,-132.7184"/>
</g>
<!-- Node6&#45;&gt;Node23 -->
<g id="edge25" class="edge">
<title>Node6&#45;&gt;Node23</title>
<path fill="none" stroke="#191970" d="M2795.7217,-136.5125C2980.085,-130.1511 3542.2656,-109.3932 3723.5,-87 3726.413,-86.6401 3729.3796,-86.2349 3732.3716,-85.7943"/>
<polygon fill="#191970" stroke="#191970" points="2795.5493,-133.0162 2785.6755,-136.8578 2795.7898,-140.0121 2795.5493,-133.0162"/>
</g>
<!-- Node6&#45;&gt;Node24 -->
<g id="edge26" class="edge">
<title>Node6&#45;&gt;Node24</title>
<path fill="none" stroke="#191970" d="M2795.9847,-136.7312C2999.5873,-130.5349 3667.7291,-108.9913 3881.5,-87 3884.6069,-86.6804 3887.766,-86.326 3890.9537,-85.9436"/>
<polygon fill="#191970" stroke="#191970" points="2795.68,-133.2387 2785.7908,-137.0404 2795.8923,-140.2355 2795.68,-133.2387"/>
</g>
<!-- Node6&#45;&gt;Node25 -->
<g id="edge27" class="edge">
<title>Node6&#45;&gt;Node25</title>
<path fill="none" stroke="#191970" d="M2795.9586,-137.6773C3021.0859,-134.3344 3821.1632,-120.3251 4073.5,-87 4083.9436,-85.6208 4095.1424,-83.3888 4105.3769,-81.043"/>
<polygon fill="#191970" stroke="#191970" points="2795.6248,-134.1817 2785.6774,-137.8285 2795.7278,-141.181 2795.6248,-134.1817"/>
</g>
<!-- Node6&#45;&gt;Node26 -->
<g id="edge28" class="edge">
<title>Node6&#45;&gt;Node26</title>
<path fill="none" stroke="#191970" d="M2795.7193,-138.0394C3048.7975,-135.8508 4040.699,-124.9748 4350.5,-87 4361.5415,-85.6466 4373.3938,-83.4229 4384.2305,-81.0768"/>
<polygon fill="#191970" stroke="#191970" points="2795.5946,-134.5402 2785.6249,-138.1254 2795.6544,-141.54 2795.5946,-134.5402"/>
</g>
<!-- Node6&#45;&gt;Node27 -->
<g id="edge29" class="edge">
<title>Node6&#45;&gt;Node27</title>
<path fill="none" stroke="#191970" d="M2796.1078,-138.2878C3063.6333,-137.1001 4155.1826,-129.6811 4494.5,-87 4505.2199,-85.6516 4516.7232,-83.3987 4527.2046,-81.0224"/>
<polygon fill="#191970" stroke="#191970" points="2795.8154,-134.789 2785.8306,-138.3322 2795.8457,-141.7889 2795.8154,-134.789"/>
</g>
<!-- Node6&#45;&gt;Node28 -->
<g id="edge30" class="edge">
<title>Node6&#45;&gt;Node28</title>
<path fill="none" stroke="#191970" d="M2677.1902,-136.7684C2574.2803,-133.7872 2355.9638,-127.566 2171.5,-123 1809.0783,-114.029 901.0144,-125.2017 540.5,-87 537.7948,-86.7133 535.045,-86.3839 532.272,-86.0195"/>
<polygon fill="#191970" stroke="#191970" points="2677.2813,-140.2724 2687.3786,-137.0639 2677.4843,-133.2753 2677.2813,-140.2724"/>
</g>
<!-- Node6&#45;&gt;Node29 -->
<g id="edge31" class="edge">
<title>Node6&#45;&gt;Node29</title>
<path fill="none" stroke="#191970" d="M2677.2142,-136.6484C2579.6727,-133.6263 2379.2248,-127.5178 2209.5,-123 1873.7459,-114.0628 1032.3878,-123.4646 698.5,-87 686.2731,-85.6647 673.1173,-83.4158 661.1159,-81.0393"/>
<polygon fill="#191970" stroke="#191970" points="2677.3565,-140.1544 2687.4603,-136.9662 2677.5736,-133.1578 2677.3565,-140.1544"/>
</g>
<!-- Node6&#45;&gt;Node30 -->
<g id="edge32" class="edge">
<title>Node6&#45;&gt;Node30</title>
<path fill="none" stroke="#191970" d="M2676.9881,-136.5035C2584.926,-133.44 2402.421,-127.4658 2247.5,-123 1939.302,-114.1159 1167.0458,-120.0846 860.5,-87 847.9732,-85.648 834.4873,-83.394 822.1819,-81.0178"/>
<polygon fill="#191970" stroke="#191970" points="2677.1114,-140.0095 2687.2224,-136.8445 2677.3445,-133.0134 2677.1114,-140.0095"/>
</g>
<!-- Node6&#45;&gt;Node31 -->
<g id="edge33" class="edge">
<title>Node6&#45;&gt;Node31</title>
<path fill="none" stroke="#191970" d="M2677.339,-136.3752C2591.1528,-133.3005 2426.0221,-127.488 2285.5,-123 1743.3182,-105.6838 1605.7553,-135.8382 1065.5,-87 1062.735,-86.75 1059.9308,-86.4735 1057.1025,-86.1746"/>
<polygon fill="#191970" stroke="#191970" points="2677.3327,-139.8771 2687.4512,-136.7363 2677.5826,-132.8815 2677.3327,-139.8771"/>
</g>
<!-- Node6&#45;&gt;Node32 -->
<g id="edge34" class="edge">
<title>Node6&#45;&gt;Node32</title>
<path fill="none" stroke="#191970" d="M2676.8306,-136.1861C2596.5359,-133.0895 2449.2561,-127.4694 2323.5,-123 1846.6438,-106.0523 1725.2627,-134.7428 1250.5,-87 1236.479,-85.59 1221.3625,-83.3482 1207.5144,-81.0029"/>
<polygon fill="#191970" stroke="#191970" points="2677.1051,-139.6992 2687.2327,-136.5876 2677.3751,-132.7044 2677.1051,-139.6992"/>
</g>
<!-- Node6&#45;&gt;Node33 -->
<g id="edge35" class="edge">
<title>Node6&#45;&gt;Node33</title>
<path fill="none" stroke="#191970" d="M2677.3159,-136.002C2603.4148,-132.8948 2473.1187,-127.4556 2361.5,-123 1945.9675,-106.4128 1840.011,-131.171 1426.5,-87 1413.2343,-85.583 1398.9504,-83.3688 1385.8294,-81.0529"/>
<polygon fill="#191970" stroke="#191970" points="2677.2233,-139.5011 2687.3616,-136.4246 2677.5176,-132.5073 2677.2233,-139.5011"/>
</g>
<!-- Node6&#45;&gt;Node34 -->
<g id="edge36" class="edge">
<title>Node6&#45;&gt;Node34</title>
<path fill="none" stroke="#191970" d="M2677.3959,-135.7668C2610.1076,-132.6586 2496.8896,-127.4392 2399.5,-123 2045.2844,-106.8542 1954.9503,-125.8351 1602.5,-87 1589.3933,-85.5558 1575.2887,-83.3619 1562.2939,-81.0753"/>
<polygon fill="#191970" stroke="#191970" points="2677.2362,-139.2631 2687.3871,-136.2284 2677.5593,-132.2705 2677.2362,-139.2631"/>
</g>
<!-- Node6&#45;&gt;Node35 -->
<g id="edge37" class="edge">
<title>Node6&#45;&gt;Node35</title>
<path fill="none" stroke="#191970" d="M2677.1124,-135.3742C2472.4443,-124.5904 1807.7355,-89.4672 1785.5,-87 1771.9772,-85.4995 1757.4235,-83.3149 1743.9713,-81.0567"/>
<polygon fill="#191970" stroke="#191970" points="2677.1948,-138.8833 2687.3651,-135.9144 2677.5631,-131.893 2677.1948,-138.8833"/>
</g>
<!-- Node6&#45;&gt;Node36 -->
<g id="edge38" class="edge">
<title>Node6&#45;&gt;Node36</title>
<path fill="none" stroke="#191970" d="M2677.1875,-135.0236C2506.5211,-124.9628 2021.8452,-95.9667 1950.5,-87 1947.4457,-86.6161 1944.3339,-86.1909 1941.1947,-85.7338"/>
<polygon fill="#191970" stroke="#191970" points="2677.059,-138.522 2687.2475,-135.6161 2677.4707,-131.5341 2677.059,-138.522"/>
</g>
<!-- Node6&#45;&gt;Node37 -->
<g id="edge39" class="edge">
<title>Node6&#45;&gt;Node37</title>
<path fill="none" stroke="#191970" d="M2677.082,-134.2379C2544.6794,-124.623 2228.7273,-100.9959 2122.5,-87 2119.6422,-86.6235 2116.7349,-86.2175 2113.8011,-85.7884"/>
<polygon fill="#191970" stroke="#191970" points="2677.2003,-137.7556 2687.4272,-134.9878 2677.7065,-130.7739 2677.2003,-137.7556"/>
</g>
<!-- Node8&#45;&gt;Node4 -->
<g id="edge9" class="edge">
<title>Node8&#45;&gt;Node4</title>
<path fill="none" stroke="#191970" d="M2700.1542,-60.0461C2709.2357,-58.4302 2718.612,-56.9861 2727.5,-56 3034.6322,-21.9246 4036.0319,-11.9967 4242.9018,-10.2878"/>
<polygon fill="#191970" stroke="#191970" points="2699.2561,-56.6532 2690.0678,-61.9282 2700.5402,-63.5344 2699.2561,-56.6532"/>
</g>
<!-- Node9&#45;&gt;Node4 -->
<g id="edge11" class="edge">
<title>Node9&#45;&gt;Node4</title>
<path fill="none" stroke="#191970" d="M4280.5,-51.7462C4280.5,-41.0519 4280.5,-28.314 4280.5,-19.7449"/>
<polygon fill="#191970" stroke="#191970" points="4277.0001,-51.8906 4280.5,-61.8906 4284.0001,-51.8907 4277.0001,-51.8906"/>
</g>
<!-- Node10&#45;&gt;Node4 -->
<g id="edge13" class="edge">
<title>Node10&#45;&gt;Node4</title>
<path fill="none" stroke="#191970" d="M4630.9847,-55.8036C4510.8756,-37.8 4380.7655,-21.8575 4318.0788,-14.4027"/>
<polygon fill="#191970" stroke="#191970" points="4630.6789,-59.297 4641.089,-57.3268 4631.7224,-52.3752 4630.6789,-59.297"/>
</g>
<!-- Node11&#45;&gt;Node4 -->
<g id="edge15" class="edge">
<title>Node11&#45;&gt;Node4</title>
<path fill="none" stroke="#191970" d="M2240.6901,-59.8759C2248.5964,-58.3096 2256.7485,-56.9258 2264.5,-56 2467.8579,-31.7112 3983.8408,-13.3919 4242.8985,-10.4226"/>
<polygon fill="#191970" stroke="#191970" points="2239.9251,-56.46 2230.8556,-61.9367 2241.3609,-63.3112 2239.9251,-56.46"/>
</g>
<!-- Node304&#45;&gt;Node4 -->
<g id="edge41" class="edge">
<title>Node304&#45;&gt;Node4</title>
<path fill="none" stroke="#191970" d="M1769.7875,-123.3722C1637.588,-119.0001 392.7654,-113.947 366.5,-87 356.8832,-77.1337 356.8151,-65.7994 366.5,-56 402.4947,-19.5798 3843.048,-10.958 4242.7564,-10.079"/>
<polygon fill="#191970" stroke="#191970" points="1769.6829,-126.8711 1779.8414,-123.8621 1770.0236,-119.8794 1769.6829,-126.8711"/>
</g>
<!-- Node305&#45;&gt;Node4 -->
<g id="edge43" class="edge">
<title>Node305&#45;&gt;Node4</title>
<path fill="none" stroke="#191970" d="M1961.0238,-123.4599C1817.1537,-118.6193 407.2326,-117.4156 377.5,-87 367.8689,-77.1477 367.8152,-65.7996 377.5,-56 413.393,-19.6815 3844.2774,-10.9698 4242.8625,-10.08"/>
<polygon fill="#191970" stroke="#191970" points="1961.2591,-126.9763 1971.4241,-123.989 1961.6148,-119.9854 1961.2591,-126.9763"/>
</g>
<!-- Node306&#45;&gt;Node4 -->
<g id="edge75" class="edge">
<title>Node306&#45;&gt;Node4</title>
<path fill="none" stroke="#191970" d="M4488.8677,-126.9878C4496.7466,-125.4658 4504.8211,-124.0664 4512.5,-123 4627.2483,-107.0638 5108.8676,-140.3915 5029.5,-56 5004.8856,-29.8275 4466.3945,-14.6013 4318.0432,-10.8931"/>
<polygon fill="#191970" stroke="#191970" points="4488.1503,-123.5619 4479.0369,-128.9653 4489.5307,-130.4245 4488.1503,-123.5619"/>
</g>
<!-- Node306&#45;&gt;Node5 -->
<g id="edge74" class="edge">
<title>Node306&#45;&gt;Node5</title>
<path fill="none" stroke="#191970" d="M4491.3172,-126.8532C4498.4201,-125.4582 4505.6252,-124.1303 4512.5,-123 4645.0109,-101.2139 4679.5841,-106.1607 4812.5,-87 4815.3857,-86.584 4818.3204,-86.1499 4821.283,-85.7022"/>
<polygon fill="#191970" stroke="#191970" points="4490.1433,-123.5195 4481.034,-128.9298 4491.529,-130.381 4490.1433,-123.5195"/>
</g>
<!-- Node307&#45;&gt;Node4 -->
<g id="edge77" class="edge">
<title>Node307&#45;&gt;Node4</title>
<path fill="none" stroke="#191970" d="M4681.5878,-127.4758C4692.2622,-125.8945 4703.1689,-124.3488 4713.5,-123 4787.5239,-113.3356 4997.6215,-142.5435 5047.5,-87 5056.7056,-76.7489 5056.9462,-66.0297 5047.5,-56 5022.2341,-29.1734 4468.9811,-14.3829 4318.1733,-10.8401"/>
<polygon fill="#191970" stroke="#191970" points="4680.8207,-124.0517 4671.4512,-128.9976 4681.86,-130.9741 4680.8207,-124.0517"/>
</g>
<!-- Node308&#45;&gt;Node4 -->
<g id="edge79" class="edge">
<title>Node308&#45;&gt;Node4</title>
<path fill="none" stroke="#191970" d="M4833.7146,-126.8523C4840.0317,-125.5064 4846.4073,-124.1911 4852.5,-123 4949.4799,-104.041 5132.296,-127.8905 5064.5,-56 5038.6145,-28.5512 4471.2337,-14.1767 4318.2263,-10.7905"/>
<polygon fill="#191970" stroke="#191970" points="4832.9188,-123.4434 4823.8851,-128.9791 4834.3991,-130.2851 4832.9188,-123.4434"/>
</g>
<!-- Node309&#45;&gt;Node4 -->
<g id="edge81" class="edge">
<title>Node309&#45;&gt;Node4</title>
<path fill="none" stroke="#191970" d="M4973.235,-126.3528C5017.6382,-114.3431 5078.6379,-96.4357 5085.5,-87 5093.6035,-75.8573 5094.9604,-66.0164 5085.5,-56 5058.8419,-27.7751 4473.703,-13.9215 4318.1778,-10.7296"/>
<polygon fill="#191970" stroke="#191970" points="4972.2277,-122.9992 4963.4757,-128.9703 4974.0411,-129.7602 4972.2277,-122.9992"/>
</g>
<!-- Node310&#45;&gt;Node4 -->
<g id="edge83" class="edge">
<title>Node310&#45;&gt;Node4</title>
<path fill="none" stroke="#191970" d="M5090.4272,-120.6177C5103.9266,-102.212 5119.3179,-73.7853 5102.5,-56 5075.2178,-27.1483 4475.7578,-13.722 4318.1712,-10.6833"/>
<polygon fill="#191970" stroke="#191970" points="5087.4741,-118.714 5084.1016,-128.7578 5093.0014,-123.0093 5087.4741,-118.714"/>
</g>
<!-- Node311&#45;&gt;Node4 -->
<g id="edge85" class="edge">
<title>Node311&#45;&gt;Node4</title>
<path fill="none" stroke="#191970" d="M5204.1222,-121.1429C5186.5134,-101.3145 5154.6604,-69.8301 5119.5,-56 5044.3262,-26.4308 4471.1373,-13.5932 4318.0103,-10.6701"/>
<polygon fill="#191970" stroke="#191970" points="5201.5822,-123.5568 5210.7648,-128.8417 5206.8821,-118.984 5201.5822,-123.5568"/>
</g>
<!-- Node312&#45;&gt;Node4 -->
<g id="edge87" class="edge">
<title>Node312&#45;&gt;Node4</title>
<path fill="none" stroke="#191970" d="M5110.17,-189.4937C5185.4695,-180.8501 5275.7579,-167.8126 5287.5,-154 5296.4237,-143.5027 5294.6899,-134.753 5287.5,-123 5253.3736,-67.2153 5219.6532,-72.977 5156.5,-56 5074.8294,-34.0451 4475.3795,-15.558 4318.1661,-11.0499"/>
<polygon fill="#191970" stroke="#191970" points="5109.6694,-186.0279 5100.1267,-190.631 5110.4571,-192.9834 5109.6694,-186.0279"/>
</g>
<!-- Node313&#45;&gt;Node4 -->
<g id="edge89" class="edge">
<title>Node313&#45;&gt;Node4</title>
<path fill="none" stroke="#191970" d="M5260.0415,-187.0418C5277.2925,-180.181 5294.3164,-169.7639 5304.5,-154 5343.3687,-93.8325 5231.0495,-60.3241 5219.5,-56 5134.1402,-24.042 4482.8276,-12.832 4318.2056,-10.4938"/>
<polygon fill="#191970" stroke="#191970" points="5258.6912,-183.8081 5250.4762,-190.4988 5261.0705,-190.3914 5258.6912,-183.8081"/>
</g>
<!-- Node314&#45;&gt;Node4 -->
<g id="edge91" class="edge">
<title>Node314&#45;&gt;Node4</title>
<path fill="none" stroke="#191970" d="M5372.0449,-180.8343C5356.4356,-148.1488 5319.665,-82.5847 5265.5,-56 5222.2533,-34.7741 4493.3337,-15.3067 4318.1394,-10.9197"/>
<polygon fill="#191970" stroke="#191970" points="5368.998,-182.5853 5376.3644,-190.2001 5375.3545,-179.6535 5368.998,-182.5853"/>
</g>
<!-- Node315&#45;&gt;Node4 -->
<g id="edge93" class="edge">
<title>Node315&#45;&gt;Node4</title>
<path fill="none" stroke="#191970" d="M90.9235,-182.7328C119.1338,-150.4629 185.2858,-81.9313 258.5,-56 357.7506,-20.8471 3841.8164,-11.0972 4242.9711,-10.0904"/>
<polygon fill="#191970" stroke="#191970" points="88.1492,-180.5912 84.2918,-190.4589 93.4608,-185.1505 88.1492,-180.5912"/>
</g>
<!-- Node316&#45;&gt;Node4 -->
<g id="edge95" class="edge">
<title>Node316&#45;&gt;Node4</title>
<path fill="none" stroke="#191970" d="M728.0246,-198.5184C587.4848,-195.1812 315.8952,-184.785 285.5,-154 254.8586,-122.9657 249.8393,-87.0153 280.5,-56 317.3188,-18.7554 3838.9071,-10.8532 4242.8744,-10.0691"/>
<polygon fill="#191970" stroke="#191970" points="728.2455,-202.0243 738.3236,-198.7559 728.407,-195.0262 728.2455,-202.0243"/>
</g>
<!-- Node317&#45;&gt;Node4 -->
<g id="edge97" class="edge">
<title>Node317&#45;&gt;Node4</title>
<path fill="none" stroke="#191970" d="M1175.4454,-197.6177C959.3929,-190.3244 330.83,-167.9521 314.5,-154 281.0489,-125.4199 269.5692,-87.2904 300.5,-56 337.1242,-18.9501 3839.3001,-10.8787 4242.7496,-10.0715"/>
<polygon fill="#191970" stroke="#191970" points="1175.6118,-201.1251 1185.7239,-197.9637 1175.8474,-194.1291 1175.6118,-201.1251"/>
</g>
<!-- Node318&#45;&gt;Node4 -->
<g id="edge99" class="edge">
<title>Node318&#45;&gt;Node4</title>
<path fill="none" stroke="#191970" d="M1458.8524,-195.9702C1415.9947,-194.0964 1364.1162,-191.8733 1317.5,-190 1263.8394,-187.8437 396.5623,-183.2148 351.5,-154 312.9367,-128.9986 286.1915,-88.6858 318.5,-56 354.9576,-19.1167 3841.2954,-10.8978 4242.9203,-10.0732"/>
<polygon fill="#191970" stroke="#191970" points="1458.835,-199.4727 1468.9786,-196.4138 1459.1414,-192.4794 1458.835,-199.4727"/>
</g>
<!-- Node319&#45;&gt;Node4 -->
<g id="edge101" class="edge">
<title>Node319&#45;&gt;Node4</title>
<path fill="none" stroke="#191970" d="M1708.6865,-194.0068C1686.2448,-192.5315 1661.9494,-191.0699 1639.5,-190 1504.2611,-183.5549 549.1355,-199.1696 421.5,-154 366.3152,-134.4703 292.3489,-97.6335 333.5,-56 369.8094,-19.265 3841.1588,-10.9182 4242.751,-10.0752"/>
<polygon fill="#191970" stroke="#191970" points="1708.6433,-197.5116 1718.8539,-194.6842 1709.1087,-190.5271 1708.6433,-197.5116"/>
</g>
<!-- Node320&#45;&gt;Node4 -->
<g id="edge103" class="edge">
<title>Node320&#45;&gt;Node4</title>
<path fill="none" stroke="#191970" d="M1906.6087,-192.4726C1895.4494,-191.6211 1884.2231,-190.78 1873.5,-190 1703.6748,-177.6465 460.7853,-211.3823 344.5,-87 335.0907,-76.9356 334.8147,-65.7991 344.5,-56 380.7076,-19.3668 3842.3831,-10.9299 4242.8562,-10.0763"/>
<polygon fill="#191970" stroke="#191970" points="1906.5834,-195.9808 1916.8218,-193.256 1907.1188,-189.0013 1906.5834,-195.9808"/>
</g>
</g>
</svg>
