<?xml version="1.0" encoding="UTF-8" standalone="no"?>
<!DOCTYPE svg PUBLIC "-//W3C//DTD SVG 1.1//EN"
 "http://www.w3.org/Graphics/SVG/1.1/DTD/svg11.dtd">
<!-- Generated by graphviz version 2.40.1 (20161225.0304)
 -->
<!-- Title: sitkMacro.h Pages: 1 -->
<svg width="5799pt" height="285pt"
 viewBox="0.00 0.00 5798.66 285.00" xmlns="http://www.w3.org/2000/svg" xmlns:xlink="http://www.w3.org/1999/xlink">
<g id="graph0" class="graph" transform="scale(1 1) rotate(0) translate(4 281)">
<title>sitkMacro.h</title>
<polygon fill="#ffffff" stroke="transparent" points="-4,4 -4,-281 5794.659,-281 5794.659,4 -4,4"/>
<!-- Node1 -->
<g id="node1" class="node">
<title>Node1</title>
<g id="a_node1"><a xlink:title=" ">
<polygon fill="#bfbfbf" stroke="#000000" points="2732.159,-257.5 2732.159,-276.5 2805.159,-276.5 2805.159,-257.5 2732.159,-257.5"/>
<text text-anchor="middle" x="2768.659" y="-264.5" font-family="Helvetica,sans-Serif" font-size="10.00" fill="#000000">sitkMacro.h</text>
</a>
</g>
</g>
<!-- Node2 -->
<g id="node2" class="node">
<title>Node2</title>
<g id="a_node2"><a xlink:href="sitkBasicFilters_8h.html" target="_top" xlink:title=" ">
<polygon fill="#ffffff" stroke="#ff0000" points="2862.159,-196 2862.159,-215 2961.159,-215 2961.159,-196 2862.159,-196"/>
<text text-anchor="middle" x="2911.659" y="-203" font-family="Helvetica,sans-Serif" font-size="10.00" fill="#000000">sitkBasicFilters.h</text>
</a>
</g>
</g>
<!-- Node1&#45;&gt;Node2 -->
<g id="edge1" class="edge">
<title>Node1&#45;&gt;Node2</title>
<path fill="none" stroke="#191970" d="M2800.4148,-253.3428C2827.4543,-241.7139 2865.6081,-225.3051 2889.4722,-215.0419"/>
<polygon fill="#191970" stroke="#191970" points="2798.8064,-250.2245 2791.0028,-257.3906 2801.5721,-256.655 2798.8064,-250.2245"/>
</g>
<!-- Node4 -->
<g id="node4" class="node">
<title>Node4</title>
<g id="a_node4"><a xlink:href="SimpleITK_8h.html" target="_top" xlink:title=" ">
<polygon fill="#ffffff" stroke="#000000" points="735.159,-.5 735.159,-19.5 810.159,-19.5 810.159,-.5 735.159,-.5"/>
<text text-anchor="middle" x="772.659" y="-7.5" font-family="Helvetica,sans-Serif" font-size="10.00" fill="#000000">SimpleITK.h</text>
</a>
</g>
</g>
<!-- Node1&#45;&gt;Node4 -->
<g id="edge78" class="edge">
<title>Node1&#45;&gt;Node4</title>
<path fill="none" stroke="#191970" d="M2721.8038,-266.6521C2381.931,-264.0684 304.3452,-247.2394 174.659,-221 96.2745,-205.1405 52.4599,-220.246 7.659,-154 -76.9924,-28.8279 569.9919,-12.4591 734.9873,-10.3209"/>
<polygon fill="#191970" stroke="#191970" points="2722.004,-270.1536 2732.0302,-266.7295 2722.057,-263.1538 2722.004,-270.1536"/>
</g>
<!-- Node6 -->
<g id="node6" class="node">
<title>Node6</title>
<g id="a_node6"><a xlink:href="sitkImageFilter_8h.html" target="_top" xlink:title=" ">
<polygon fill="#ffffff" stroke="#ff0000" points="2785.659,-129 2785.659,-148 2883.659,-148 2883.659,-129 2785.659,-129"/>
<text text-anchor="middle" x="2834.659" y="-136" font-family="Helvetica,sans-Serif" font-size="10.00" fill="#000000">sitkImageFilter.h</text>
</a>
</g>
</g>
<!-- Node1&#45;&gt;Node6 -->
<g id="edge76" class="edge">
<title>Node1&#45;&gt;Node6</title>
<path fill="none" stroke="#191970" d="M2778.2743,-248.2794C2792.5115,-220.56 2818.6936,-169.5841 2829.6407,-148.2705"/>
<polygon fill="#191970" stroke="#191970" points="2775.0752,-246.8472 2773.6198,-257.3416 2781.302,-250.0454 2775.0752,-246.8472"/>
</g>
<!-- Node9 -->
<g id="node8" class="node">
<title>Node9</title>
<g id="a_node8"><a xlink:href="sitkHashImageFilter_8h.html" target="_top" xlink:title=" ">
<polygon fill="#ffffff" stroke="#000000" points="360.659,-62 360.659,-81 482.659,-81 482.659,-62 360.659,-62"/>
<text text-anchor="middle" x="421.659" y="-69" font-family="Helvetica,sans-Serif" font-size="10.00" fill="#000000">sitkHashImageFilter.h</text>
</a>
</g>
</g>
<!-- Node1&#45;&gt;Node9 -->
<g id="edge77" class="edge">
<title>Node1&#45;&gt;Node9</title>
<path fill="none" stroke="#191970" d="M2721.8209,-263.6915C2416.9537,-242.1045 719.9746,-121.1329 491.659,-87 481.4415,-85.4725 470.4911,-83.3061 460.3572,-81.0758"/>
<polygon fill="#191970" stroke="#191970" points="2721.8518,-267.2024 2732.074,-264.4172 2722.3461,-260.2198 2721.8518,-267.2024"/>
</g>
<!-- Node306 -->
<g id="node39" class="node">
<title>Node306</title>
<g id="a_node39"><a xlink:href="sitkMemberFunctionFactoryBase_8h.html" target="_top" xlink:title=" ">
<polygon fill="#ffffff" stroke="#ff0000" points="2979.659,-190.5 2979.659,-220.5 3129.659,-220.5 3129.659,-190.5 2979.659,-190.5"/>
<text text-anchor="start" x="2987.659" y="-208.5" font-family="Helvetica,sans-Serif" font-size="10.00" fill="#000000">sitkMemberFunctionFactory</text>
<text text-anchor="middle" x="3054.659" y="-197.5" font-family="Helvetica,sans-Serif" font-size="10.00" fill="#000000">Base.h</text>
</a>
</g>
</g>
<!-- Node1&#45;&gt;Node306 -->
<g id="edge79" class="edge">
<title>Node1&#45;&gt;Node306</title>
<path fill="none" stroke="#191970" d="M2815.1502,-257.0028C2861.097,-247.1226 2931.968,-231.8829 2984.7116,-220.5411"/>
<polygon fill="#191970" stroke="#191970" points="2814.2123,-253.6244 2805.1716,-259.1485 2815.684,-260.4679 2814.2123,-253.6244"/>
</g>
<!-- Node336 -->
<g id="node40" class="node">
<title>Node336</title>
<g id="a_node40"><a xlink:href="sitkCommon_8h.html" target="_top" xlink:title=" ">
<polygon fill="#ffffff" stroke="#ff0000" points="4080.659,-196 4080.659,-215 4168.659,-215 4168.659,-196 4080.659,-196"/>
<text text-anchor="middle" x="4124.659" y="-203" font-family="Helvetica,sans-Serif" font-size="10.00" fill="#000000">sitkCommon.h</text>
</a>
</g>
</g>
<!-- Node1&#45;&gt;Node336 -->
<g id="edge80" class="edge">
<title>Node1&#45;&gt;Node336</title>
<path fill="none" stroke="#191970" d="M2815.7164,-266.7537C3018.4344,-265.4739 3818.1242,-258.1256 4066.659,-221 4075.7305,-219.6449 4085.4188,-217.3899 4094.228,-215.0138"/>
<polygon fill="#191970" stroke="#191970" points="2815.3932,-263.2555 2805.4148,-266.8167 2815.4361,-270.2554 2815.3932,-263.2555"/>
</g>
<!-- Node341 -->
<g id="node41" class="node">
<title>Node341</title>
<g id="a_node41"><a xlink:href="sitkTemplateFunctions_8h.html" target="_top" xlink:title=" ">
<polygon fill="#ffffff" stroke="#ff0000" points="5656.659,-62 5656.659,-81 5790.659,-81 5790.659,-62 5656.659,-62"/>
<text text-anchor="middle" x="5723.659" y="-69" font-family="Helvetica,sans-Serif" font-size="10.00" fill="#000000">sitkTemplateFunctions.h</text>
</a>
</g>
</g>
<!-- Node1&#45;&gt;Node341 -->
<g id="edge84" class="edge">
<title>Node1&#45;&gt;Node341</title>
<path fill="none" stroke="#191970" d="M2815.6069,-264.3574C3015.1813,-252.8855 3793.8396,-205.6505 4033.659,-154 4074.6065,-145.181 4081.4484,-130.4936 4122.659,-123 4443.0591,-64.7398 5262.7807,-109.4603 5587.659,-87 5610.0625,-85.4511 5634.4579,-82.9337 5656.3219,-80.3738"/>
<polygon fill="#191970" stroke="#191970" points="2815.2402,-260.8726 2805.4567,-264.9387 2815.6405,-267.8611 2815.2402,-260.8726"/>
</g>
<!-- Node343 -->
<g id="node42" class="node">
<title>Node343</title>
<g id="a_node42"><a xlink:href="sitkExceptionObject_8h.html" target="_top" xlink:title=" ">
<polygon fill="#ffffff" stroke="#ff0000" points="4153.159,-129 4153.159,-148 4276.159,-148 4276.159,-129 4153.159,-129"/>
<text text-anchor="middle" x="4214.659" y="-136" font-family="Helvetica,sans-Serif" font-size="10.00" fill="#000000">sitkExceptionObject.h</text>
</a>
</g>
</g>
<!-- Node1&#45;&gt;Node343 -->
<g id="edge85" class="edge">
<title>Node1&#45;&gt;Node343</title>
<path fill="none" stroke="#191970" d="M2815.4185,-266.8568C3053.2707,-265.9546 4119.894,-259.7539 4177.659,-221 4202.6874,-204.2088 4210.9857,-166.1982 4213.5706,-148.2423"/>
<polygon fill="#191970" stroke="#191970" points="2815.3533,-263.3569 2805.3662,-266.8936 2815.379,-270.3569 2815.3533,-263.3569"/>
</g>
<!-- Node351 -->
<g id="node43" class="node">
<title>Node351</title>
<g id="a_node43"><a xlink:href="sitkExplicit_8h.html" target="_top" xlink:title=" ">
<polygon fill="#ffffff" stroke="#ff0000" points="4224.659,-196 4224.659,-215 4304.659,-215 4304.659,-196 4224.659,-196"/>
<text text-anchor="middle" x="4264.659" y="-203" font-family="Helvetica,sans-Serif" font-size="10.00" fill="#000000">sitkExplicit.h</text>
</a>
</g>
</g>
<!-- Node1&#45;&gt;Node351 -->
<g id="edge86" class="edge">
<title>Node1&#45;&gt;Node351</title>
<path fill="none" stroke="#191970" d="M2815.2935,-266.1988C3047.1663,-262.123 4070.3798,-243.0205 4210.659,-221 4219.1383,-219.669 4228.169,-217.4215 4236.37,-215.0449"/>
<polygon fill="#191970" stroke="#191970" points="2815.1064,-262.7015 2805.1692,-266.3761 2815.229,-269.7004 2815.1064,-262.7015"/>
</g>
<!-- Node326 -->
<g id="node44" class="node">
<title>Node326</title>
<g id="a_node44"><a xlink:href="sitkImageFileReader_8h.html" target="_top" xlink:title=" ">
<polygon fill="#ffffff" stroke="#000000" points="16.659,-129 16.659,-148 140.659,-148 140.659,-129 16.659,-129"/>
<text text-anchor="middle" x="78.659" y="-136" font-family="Helvetica,sans-Serif" font-size="10.00" fill="#000000">sitkImageFileReader.h</text>
</a>
</g>
</g>
<!-- Node1&#45;&gt;Node326 -->
<g id="edge87" class="edge">
<title>Node1&#45;&gt;Node326</title>
<path fill="none" stroke="#191970" d="M2721.6835,-266.6555C2388.5791,-264.1481 393.043,-248.035 268.659,-221 200.4854,-206.1824 126.5243,-166.4447 94.6981,-148.0658"/>
<polygon fill="#191970" stroke="#191970" points="2721.9163,-270.1573 2731.9423,-266.7324 2721.9688,-263.1574 2721.9163,-270.1573"/>
</g>
<!-- Node370 -->
<g id="node45" class="node">
<title>Node370</title>
<g id="a_node45"><a xlink:href="sitkIO_8h.html" target="_top" xlink:title=" ">
<polygon fill="#ffffff" stroke="#ff0000" points="336.159,-196 336.159,-215 389.159,-215 389.159,-196 336.159,-196"/>
<text text-anchor="middle" x="362.659" y="-203" font-family="Helvetica,sans-Serif" font-size="10.00" fill="#000000">sitkIO.h</text>
</a>
</g>
</g>
<!-- Node1&#45;&gt;Node370 -->
<g id="edge89" class="edge">
<title>Node1&#45;&gt;Node370</title>
<path fill="none" stroke="#191970" d="M2721.8457,-265.8827C2512.2071,-260.8691 1638.629,-239.8682 921.659,-221 716.8787,-215.6109 469.9168,-208.5757 389.4218,-206.2689"/>
<polygon fill="#191970" stroke="#191970" points="2721.8105,-269.3828 2731.8914,-266.1229 2721.9779,-262.3848 2721.8105,-269.3828"/>
</g>
<!-- Node329 -->
<g id="node46" class="node">
<title>Node329</title>
<g id="a_node46"><a xlink:href="sitkImageFileWriter_8h.html" target="_top" xlink:title=" ">
<polygon fill="#ffffff" stroke="#000000" points="159.159,-129 159.159,-148 278.159,-148 278.159,-129 159.159,-129"/>
<text text-anchor="middle" x="218.659" y="-136" font-family="Helvetica,sans-Serif" font-size="10.00" fill="#000000">sitkImageFileWriter.h</text>
</a>
</g>
</g>
<!-- Node1&#45;&gt;Node329 -->
<g id="edge94" class="edge">
<title>Node1&#45;&gt;Node329</title>
<path fill="none" stroke="#191970" d="M2721.6508,-266.9462C2392.5958,-266.4667 443.9357,-261.9031 326.659,-221 283.4387,-205.9258 243.702,-166.3204 226.9896,-148.0206"/>
<polygon fill="#191970" stroke="#191970" points="2721.788,-270.4463 2731.7929,-266.9605 2721.7979,-263.4463 2721.788,-270.4463"/>
</g>
<!-- Node330 -->
<g id="node47" class="node">
<title>Node330</title>
<g id="a_node47"><a xlink:href="sitkImageSeriesWriter_8h.html" target="_top" xlink:title=" ">
<polygon fill="#ffffff" stroke="#000000" points="296.159,-129 296.159,-148 429.159,-148 429.159,-129 296.159,-129"/>
<text text-anchor="middle" x="362.659" y="-136" font-family="Helvetica,sans-Serif" font-size="10.00" fill="#000000">sitkImageSeriesWriter.h</text>
</a>
</g>
</g>
<!-- Node1&#45;&gt;Node330 -->
<g id="edge97" class="edge">
<title>Node1&#45;&gt;Node330</title>
<path fill="none" stroke="#191970" d="M2721.7483,-266.5915C2532.7043,-264.738 1808.4004,-255.6435 1213.659,-221 870.725,-201.0242 783.9117,-201.2321 443.659,-154 432.0301,-152.3857 419.5403,-150.2153 407.9343,-148.0106"/>
<polygon fill="#191970" stroke="#191970" points="2721.8586,-270.0926 2731.8918,-266.6889 2721.926,-263.0929 2721.8586,-270.0926"/>
</g>
<!-- Node327 -->
<g id="node48" class="node">
<title>Node327</title>
<g id="a_node48"><a xlink:href="sitkImageSeriesReader_8h.html" target="_top" xlink:title=" ">
<polygon fill="#ffffff" stroke="#000000" points="1223.159,-196 1223.159,-215 1360.159,-215 1360.159,-196 1223.159,-196"/>
<text text-anchor="middle" x="1291.659" y="-203" font-family="Helvetica,sans-Serif" font-size="10.00" fill="#000000">sitkImageSeriesReader.h</text>
</a>
</g>
</g>
<!-- Node1&#45;&gt;Node327 -->
<g id="edge95" class="edge">
<title>Node1&#45;&gt;Node327</title>
<path fill="none" stroke="#191970" d="M2721.6589,-265.9434C2554.9638,-262.0579 1976.4808,-247.3987 1499.659,-221 1453.1987,-218.4278 1400.9732,-214.5325 1360.4761,-211.2905"/>
<polygon fill="#191970" stroke="#191970" points="2721.9595,-269.4512 2732.0379,-266.1837 2722.1216,-262.453 2721.9595,-269.4512"/>
</g>
<!-- Node328 -->
<g id="node49" class="node">
<title>Node328</title>
<g id="a_node49"><a xlink:href="sitkImportImageFilter_8h.html" target="_top" xlink:title=" ">
<polygon fill="#ffffff" stroke="#000000" points="1508.659,-196 1508.659,-215 1638.659,-215 1638.659,-196 1508.659,-196"/>
<text text-anchor="middle" x="1573.659" y="-203" font-family="Helvetica,sans-Serif" font-size="10.00" fill="#000000">sitkImportImageFilter.h</text>
</a>
</g>
</g>
<!-- Node1&#45;&gt;Node328 -->
<g id="edge98" class="edge">
<title>Node1&#45;&gt;Node328</title>
<path fill="none" stroke="#191970" d="M2721.7623,-266.009C2573.9966,-262.6589 2104.9306,-250.2881 1717.659,-221 1691.834,-219.0469 1663.4793,-216.1563 1638.811,-213.3988"/>
<polygon fill="#191970" stroke="#191970" points="2721.7647,-269.5098 2731.8406,-266.2347 2721.9215,-262.5116 2721.7647,-269.5098"/>
</g>
<!-- Node371 -->
<g id="node50" class="node">
<title>Node371</title>
<g id="a_node50"><a xlink:href="sitkRegistration_8h.html" target="_top" xlink:title=" ">
<polygon fill="#ffffff" stroke="#ff0000" points="4322.659,-196 4322.659,-215 4424.659,-215 4424.659,-196 4322.659,-196"/>
<text text-anchor="middle" x="4373.659" y="-203" font-family="Helvetica,sans-Serif" font-size="10.00" fill="#000000">sitkRegistration.h</text>
</a>
</g>
</g>
<!-- Node1&#45;&gt;Node371 -->
<g id="edge100" class="edge">
<title>Node1&#45;&gt;Node371</title>
<path fill="none" stroke="#191970" d="M2815.4569,-266.2286C3057.5489,-262.1545 4162.3979,-242.5144 4313.659,-221 4323.0323,-219.6668 4333.0513,-217.4186 4342.1645,-215.0421"/>
<polygon fill="#191970" stroke="#191970" points="2815.1778,-262.7327 2805.2379,-266.3999 2815.2952,-269.7317 2815.1778,-262.7327"/>
</g>
<!-- Node3 -->
<g id="node3" class="node">
<title>Node3</title>
<g id="a_node3"><a xlink:href="sitkAdditionalProcedures_8h.html" target="_top" xlink:title=" ">
<polygon fill="#ffffff" stroke="#000000" points="3510.159,-129 3510.159,-148 3657.159,-148 3657.159,-129 3510.159,-129"/>
<text text-anchor="middle" x="3583.659" y="-136" font-family="Helvetica,sans-Serif" font-size="10.00" fill="#000000">sitkAdditionalProcedures.h</text>
</a>
</g>
</g>
<!-- Node2&#45;&gt;Node3 -->
<g id="edge2" class="edge">
<title>Node2&#45;&gt;Node3</title>
<path fill="none" stroke="#191970" d="M2953.6308,-193.4424C2959.3186,-192.1118 2965.107,-190.9113 2970.659,-190 3201.4521,-152.1186 3263.4993,-182.3249 3495.659,-154 3508.44,-152.4406 3522.1837,-150.2631 3534.9223,-148.0322"/>
<polygon fill="#191970" stroke="#191970" points="2952.4342,-190.1333 2943.5745,-195.9433 2954.1236,-196.9264 2952.4342,-190.1333"/>
</g>
<!-- Node5 -->
<g id="node5" class="node">
<title>Node5</title>
<g id="a_node5"><a xlink:href="sitkBSplineTransformInitializerFilter_8h.html" target="_top" xlink:title=" ">
<polygon fill="#ffffff" stroke="#000000" points="1040.659,-56.5 1040.659,-86.5 1206.659,-86.5 1206.659,-56.5 1040.659,-56.5"/>
<text text-anchor="start" x="1048.659" y="-74.5" font-family="Helvetica,sans-Serif" font-size="10.00" fill="#000000">sitkBSplineTransformInitializer</text>
<text text-anchor="middle" x="1123.659" y="-63.5" font-family="Helvetica,sans-Serif" font-size="10.00" fill="#000000">Filter.h</text>
</a>
</g>
</g>
<!-- Node2&#45;&gt;Node5 -->
<g id="edge4" class="edge">
<title>Node2&#45;&gt;Node5</title>
<path fill="none" stroke="#191970" d="M2851.879,-203.7797C2671.4185,-198.319 2140.0273,-180.1806 2066.659,-154 2044.4697,-146.082 2045.9124,-130.7364 2023.659,-123 1853.8919,-63.9804 1394.3893,-105.9657 1215.659,-87 1212.7598,-86.6924 1209.8134,-86.3513 1206.8409,-85.9832"/>
<polygon fill="#191970" stroke="#191970" points="2851.8853,-207.2814 2861.986,-204.0834 2852.0956,-200.2845 2851.8853,-207.2814"/>
</g>
<!-- Node2&#45;&gt;Node6 -->
<g id="edge6" class="edge">
<title>Node2&#45;&gt;Node6</title>
<path fill="none" stroke="#191970" d="M2893.0402,-189.2992C2878.2308,-176.4131 2858.0126,-158.8207 2845.6708,-148.0817"/>
<polygon fill="#191970" stroke="#191970" points="2890.7854,-191.9767 2900.6268,-195.9005 2895.3803,-186.6959 2890.7854,-191.9767"/>
</g>
<!-- Node8 -->
<g id="node7" class="node">
<title>Node8</title>
<g id="a_node7"><a xlink:href="sitkExtractImageFilter_8h.html" target="_top" xlink:title=" ">
<polygon fill="#ffffff" stroke="#000000" points="1224.659,-62 1224.659,-81 1356.659,-81 1356.659,-62 1224.659,-62"/>
<text text-anchor="middle" x="1290.659" y="-69" font-family="Helvetica,sans-Serif" font-size="10.00" fill="#000000">sitkExtractImageFilter.h</text>
</a>
</g>
</g>
<!-- Node2&#45;&gt;Node8 -->
<g id="edge46" class="edge">
<title>Node2&#45;&gt;Node8</title>
<path fill="none" stroke="#191970" d="M2851.9973,-203.702C2677.4515,-198.1604 2175.7293,-180.1244 2106.659,-154 2085.6218,-146.0431 2087.7459,-130.8244 2066.659,-123 1920.4189,-68.7364 1520.3749,-106.8423 1365.659,-87 1354.3174,-85.5454 1342.1318,-83.3189 1330.9494,-81.0033"/>
<polygon fill="#191970" stroke="#191970" points="2851.9275,-207.2015 2862.0328,-204.0183 2852.148,-200.205 2851.9275,-207.2015"/>
</g>
<!-- Node2&#45;&gt;Node9 -->
<g id="edge47" class="edge">
<title>Node2&#45;&gt;Node9</title>
<path fill="none" stroke="#191970" d="M2851.9286,-204.7249C2656.4398,-201.8591 2037.0528,-190.0899 1840.659,-154 1796.9771,-145.9729 1789.4165,-130.6041 1745.659,-123 1470.994,-75.2689 768.3238,-121.2885 491.659,-87 480.7887,-85.6528 469.1203,-83.4002 458.4869,-81.024"/>
<polygon fill="#191970" stroke="#191970" points="2851.9606,-208.2256 2862.0101,-204.8702 2852.0616,-201.2263 2851.9606,-208.2256"/>
</g>
<!-- Node10 -->
<g id="node9" class="node">
<title>Node10</title>
<g id="a_node9"><a xlink:href="sitkLandmarkBasedTransformInitializerFilter_8h.html" target="_top" xlink:title=" ">
<polygon fill="#ffffff" stroke="#000000" points="1374.659,-56.5 1374.659,-86.5 1536.659,-86.5 1536.659,-56.5 1374.659,-56.5"/>
<text text-anchor="start" x="1382.659" y="-74.5" font-family="Helvetica,sans-Serif" font-size="10.00" fill="#000000">sitkLandmarkBasedTransform</text>
<text text-anchor="middle" x="1455.659" y="-63.5" font-family="Helvetica,sans-Serif" font-size="10.00" fill="#000000">InitializerFilter.h</text>
</a>
</g>
</g>
<!-- Node2&#45;&gt;Node10 -->
<g id="edge48" class="edge">
<title>Node2&#45;&gt;Node10</title>
<path fill="none" stroke="#191970" d="M2851.7346,-203.5237C2682.8095,-197.6655 2210.7941,-179.2162 2145.659,-154 2125.0103,-146.0061 2127.3199,-130.9624 2106.659,-123 1990.0927,-78.077 1669.7234,-101.6219 1545.659,-87 1542.8247,-86.666 1539.9441,-86.3023 1537.0376,-85.9147"/>
<polygon fill="#191970" stroke="#191970" points="2851.8254,-207.0288 2861.94,-203.8751 2852.0663,-200.033 2851.8254,-207.0288"/>
</g>
<!-- Node11 -->
<g id="node10" class="node">
<title>Node11</title>
<g id="a_node10"><a xlink:href="sitkAbsImageFilter_8h.html" target="_top" xlink:title=" ">
<polygon fill="#ffffff" stroke="#ff0000" points="1554.659,-62 1554.659,-81 1670.659,-81 1670.659,-62 1554.659,-62"/>
<text text-anchor="middle" x="1612.659" y="-69" font-family="Helvetica,sans-Serif" font-size="10.00" fill="#000000">sitkAbsImageFilter.h</text>
</a>
</g>
</g>
<!-- Node2&#45;&gt;Node11 -->
<g id="edge49" class="edge">
<title>Node2&#45;&gt;Node11</title>
<path fill="none" stroke="#191970" d="M2851.7437,-203.2916C2688.8673,-197.0025 2246.064,-177.899 2184.659,-154 2164.0247,-145.9691 2166.2676,-131.0967 2145.659,-123 2048.9881,-85.02 1782.3221,-102.7494 1679.659,-87 1669.7461,-85.4793 1659.1249,-83.2877 1649.3275,-81.0293"/>
<polygon fill="#191970" stroke="#191970" points="2851.9334,-206.8014 2862.0603,-203.6873 2852.2018,-199.8065 2851.9334,-206.8014"/>
</g>
<!-- Node14 -->
<g id="node11" class="node">
<title>Node14</title>
<g id="a_node11"><a xlink:href="sitkAbsoluteValueDifferenceImageFilter_8h.html" target="_top" xlink:title=" ">
<polygon fill="#ffffff" stroke="#ff0000" points="1689.159,-56.5 1689.159,-86.5 1844.159,-86.5 1844.159,-56.5 1689.159,-56.5"/>
<text text-anchor="start" x="1697.159" y="-74.5" font-family="Helvetica,sans-Serif" font-size="10.00" fill="#000000">sitkAbsoluteValueDifference</text>
<text text-anchor="middle" x="1766.659" y="-63.5" font-family="Helvetica,sans-Serif" font-size="10.00" fill="#000000">ImageFilter.h</text>
</a>
</g>
</g>
<!-- Node2&#45;&gt;Node14 -->
<g id="edge50" class="edge">
<title>Node2&#45;&gt;Node14</title>
<path fill="none" stroke="#191970" d="M2851.6404,-203.0768C2694.7023,-196.4499 2280.2828,-176.979 2222.659,-154 2202.4135,-145.9266 2204.7669,-131.4104 2184.659,-123 2047.7334,-65.7286 1999.5611,-108.1761 1852.659,-87 1849.9562,-86.6104 1847.2082,-86.1989 1844.4349,-85.7706"/>
<polygon fill="#191970" stroke="#191970" points="2851.9052,-206.5909 2862.0431,-203.5132 2852.1986,-199.5971 2851.9052,-206.5909"/>
</g>
<!-- Node15 -->
<g id="node12" class="node">
<title>Node15</title>
<g id="a_node12"><a xlink:href="sitkAcosImageFilter_8h.html" target="_top" xlink:title=" ">
<polygon fill="#ffffff" stroke="#ff0000" points="1862.159,-62 1862.159,-81 1983.159,-81 1983.159,-62 1862.159,-62"/>
<text text-anchor="middle" x="1922.659" y="-69" font-family="Helvetica,sans-Serif" font-size="10.00" fill="#000000">sitkAcosImageFilter.h</text>
</a>
</g>
</g>
<!-- Node2&#45;&gt;Node15 -->
<g id="edge51" class="edge">
<title>Node2&#45;&gt;Node15</title>
<path fill="none" stroke="#191970" d="M2851.8583,-202.8295C2718.7908,-196.5069 2401.7666,-179.2358 2297.659,-154 2262.6056,-145.503 2257.3891,-132.7344 2222.659,-123 2122.6088,-94.9573 2093.7383,-106.3975 1991.659,-87 1982.3714,-85.2351 1972.4285,-83.1297 1963.0647,-81.0482"/>
<polygon fill="#191970" stroke="#191970" points="2851.7232,-206.3269 2861.8768,-203.3013 2852.0525,-199.3347 2851.7232,-206.3269"/>
</g>
<!-- Node16 -->
<g id="node13" class="node">
<title>Node16</title>
<g id="a_node13"><a xlink:href="sitkAdaptiveHistogramEqualizationImageFilter_8h.html" target="_top" xlink:title=" ">
<polygon fill="#ffffff" stroke="#ff0000" points="2001.159,-56.5 2001.159,-86.5 2190.159,-86.5 2190.159,-56.5 2001.159,-56.5"/>
<text text-anchor="start" x="2009.159" y="-74.5" font-family="Helvetica,sans-Serif" font-size="10.00" fill="#000000">sitkAdaptiveHistogramEqualization</text>
<text text-anchor="middle" x="2095.659" y="-63.5" font-family="Helvetica,sans-Serif" font-size="10.00" fill="#000000">ImageFilter.h</text>
</a>
</g>
</g>
<!-- Node2&#45;&gt;Node16 -->
<g id="edge52" class="edge">
<title>Node2&#45;&gt;Node16</title>
<path fill="none" stroke="#191970" d="M2851.6713,-201.1816C2762.7784,-194.2577 2591.0255,-178.8674 2446.659,-154 2340.8613,-135.7762 2219.2889,-104.9438 2150.5589,-86.5751"/>
<polygon fill="#191970" stroke="#191970" points="2851.5943,-204.6859 2861.8336,-201.9642 2852.1319,-197.7066 2851.5943,-204.6859"/>
</g>
<!-- Node17 -->
<g id="node14" class="node">
<title>Node17</title>
<g id="a_node14"><a xlink:href="sitkAddImageFilter_8h.html" target="_top" xlink:title=" ">
<polygon fill="#ffffff" stroke="#ff0000" points="2208.659,-62 2208.659,-81 2324.659,-81 2324.659,-62 2208.659,-62"/>
<text text-anchor="middle" x="2266.659" y="-69" font-family="Helvetica,sans-Serif" font-size="10.00" fill="#000000">sitkAddImageFilter.h</text>
</a>
</g>
</g>
<!-- Node2&#45;&gt;Node17 -->
<g id="edge53" class="edge">
<title>Node2&#45;&gt;Node17</title>
<path fill="none" stroke="#191970" d="M2851.8303,-198.1227C2785.0951,-189.4529 2674.0988,-173.7153 2579.659,-154 2475.6896,-132.2952 2354.634,-97.6715 2298.3905,-81.0349"/>
<polygon fill="#191970" stroke="#191970" points="2851.7861,-201.6459 2862.1515,-199.453 2852.681,-194.7034 2851.7861,-201.6459"/>
</g>
<!-- Node19 -->
<g id="node15" class="node">
<title>Node19</title>
<g id="a_node15"><a xlink:href="sitkAdditiveGaussianNoiseImageFilter_8h.html" target="_top" xlink:title=" ">
<polygon fill="#ffffff" stroke="#ff0000" points="2342.659,-56.5 2342.659,-86.5 2490.659,-86.5 2490.659,-56.5 2342.659,-56.5"/>
<text text-anchor="start" x="2350.659" y="-74.5" font-family="Helvetica,sans-Serif" font-size="10.00" fill="#000000">sitkAdditiveGaussianNoise</text>
<text text-anchor="middle" x="2416.659" y="-63.5" font-family="Helvetica,sans-Serif" font-size="10.00" fill="#000000">ImageFilter.h</text>
</a>
</g>
</g>
<!-- Node2&#45;&gt;Node19 -->
<g id="edge54" class="edge">
<title>Node2&#45;&gt;Node19</title>
<path fill="none" stroke="#191970" d="M2855.9964,-193.8296C2810.5112,-184.023 2744.6506,-169.2067 2687.659,-154 2608.0663,-132.7628 2516.6119,-103.9978 2462.8918,-86.6477"/>
<polygon fill="#191970" stroke="#191970" points="2855.4425,-197.2903 2865.9543,-195.9666 2856.9114,-190.4461 2855.4425,-197.2903"/>
</g>
<!-- Node20 -->
<g id="node16" class="node">
<title>Node20</title>
<g id="a_node16"><a xlink:href="sitkAggregateLabelMapFilter_8h.html" target="_top" xlink:title=" ">
<polygon fill="#ffffff" stroke="#ff0000" points="2508.659,-62 2508.659,-81 2672.659,-81 2672.659,-62 2508.659,-62"/>
<text text-anchor="middle" x="2590.659" y="-69" font-family="Helvetica,sans-Serif" font-size="10.00" fill="#000000">sitkAggregateLabelMapFilter.h</text>
</a>
</g>
</g>
<!-- Node2&#45;&gt;Node20 -->
<g id="edge55" class="edge">
<title>Node2&#45;&gt;Node20</title>
<path fill="none" stroke="#191970" d="M2868.1526,-192.9875C2836.5171,-183.4446 2792.8918,-169.3594 2755.659,-154 2699.9983,-131.0387 2637.1037,-97.309 2607.6181,-81.0102"/>
<polygon fill="#191970" stroke="#191970" points="2867.3959,-196.4142 2877.9793,-195.9222 2869.399,-189.7069 2867.3959,-196.4142"/>
</g>
<!-- Node21 -->
<g id="node17" class="node">
<title>Node21</title>
<g id="a_node17"><a xlink:href="sitkAndImageFilter_8h.html" target="_top" xlink:title=" ">
<polygon fill="#ffffff" stroke="#ff0000" points="2690.659,-62 2690.659,-81 2806.659,-81 2806.659,-62 2690.659,-62"/>
<text text-anchor="middle" x="2748.659" y="-69" font-family="Helvetica,sans-Serif" font-size="10.00" fill="#000000">sitkAndImageFilter.h</text>
</a>
</g>
</g>
<!-- Node2&#45;&gt;Node21 -->
<g id="edge56" class="edge">
<title>Node2&#45;&gt;Node21</title>
<path fill="none" stroke="#191970" d="M2852.0104,-194.7142C2825.863,-187.2403 2796.6445,-174.7441 2776.659,-154 2756.825,-133.4131 2751.0155,-98.2566 2749.3331,-81.2646"/>
<polygon fill="#191970" stroke="#191970" points="2851.2915,-198.1447 2861.8557,-197.3394 2853.0951,-191.381 2851.2915,-198.1447"/>
</g>
<!-- Node22 -->
<g id="node18" class="node">
<title>Node22</title>
<g id="a_node18"><a xlink:href="sitkAntiAliasBinaryImageFilter_8h.html" target="_top" xlink:title=" ">
<polygon fill="#ffffff" stroke="#ff0000" points="2862.659,-56.5 2862.659,-86.5 3002.659,-86.5 3002.659,-56.5 2862.659,-56.5"/>
<text text-anchor="start" x="2870.659" y="-74.5" font-family="Helvetica,sans-Serif" font-size="10.00" fill="#000000">sitkAntiAliasBinaryImage</text>
<text text-anchor="middle" x="2932.659" y="-63.5" font-family="Helvetica,sans-Serif" font-size="10.00" fill="#000000">Filter.h</text>
</a>
</g>
</g>
<!-- Node2&#45;&gt;Node22 -->
<g id="edge57" class="edge">
<title>Node2&#45;&gt;Node22</title>
<path fill="none" stroke="#191970" d="M2914.7633,-185.6918C2918.9949,-158.6902 2926.4821,-110.915 2930.2909,-86.611"/>
<polygon fill="#191970" stroke="#191970" points="2911.2599,-185.4417 2913.1693,-195.8631 2918.1754,-186.5256 2911.2599,-185.4417"/>
</g>
<!-- Node23 -->
<g id="node19" class="node">
<title>Node23</title>
<g id="a_node19"><a xlink:href="sitkApproximateSignedDistanceMapImageFilter_8h.html" target="_top" xlink:title=" ">
<polygon fill="#ffffff" stroke="#ff0000" points="3021.159,-56.5 3021.159,-86.5 3194.159,-86.5 3194.159,-56.5 3021.159,-56.5"/>
<text text-anchor="start" x="3029.159" y="-74.5" font-family="Helvetica,sans-Serif" font-size="10.00" fill="#000000">sitkApproximateSignedDistance</text>
<text text-anchor="middle" x="3107.659" y="-63.5" font-family="Helvetica,sans-Serif" font-size="10.00" fill="#000000">MapImageFilter.h</text>
</a>
</g>
</g>
<!-- Node2&#45;&gt;Node23 -->
<g id="edge58" class="edge">
<title>Node2&#45;&gt;Node23</title>
<path fill="none" stroke="#191970" d="M2921.4142,-187.0476C2932.037,-168.5486 2950.6287,-140.3854 2973.659,-123 2995.5397,-106.4825 3023.3572,-94.6512 3047.9698,-86.5285"/>
<polygon fill="#191970" stroke="#191970" points="2918.2583,-185.5221 2916.4794,-195.9665 2924.3833,-188.911 2918.2583,-185.5221"/>
</g>
<!-- Node24 -->
<g id="node20" class="node">
<title>Node24</title>
<g id="a_node20"><a xlink:href="sitkAsinImageFilter_8h.html" target="_top" xlink:title=" ">
<polygon fill="#ffffff" stroke="#ff0000" points="3212.159,-62 3212.159,-81 3331.159,-81 3331.159,-62 3212.159,-62"/>
<text text-anchor="middle" x="3271.659" y="-69" font-family="Helvetica,sans-Serif" font-size="10.00" fill="#000000">sitkAsinImageFilter.h</text>
</a>
</g>
</g>
<!-- Node2&#45;&gt;Node24 -->
<g id="edge59" class="edge">
<title>Node2&#45;&gt;Node24</title>
<path fill="none" stroke="#191970" d="M2931.1591,-189.3109C2959.9265,-165.4422 3010.4938,-123.5458 3011.659,-123 3089.8864,-86.3584 3118.0603,-104.4692 3202.659,-87 3211.5568,-85.1627 3221.076,-83.0924 3230.1139,-81.0774"/>
<polygon fill="#191970" stroke="#191970" points="2928.8058,-186.7156 2923.3458,-195.7952 2933.2762,-192.1023 2928.8058,-186.7156"/>
</g>
<!-- Node25 -->
<g id="node21" class="node">
<title>Node25</title>
<g id="a_node21"><a xlink:href="sitkAtan2ImageFilter_8h.html" target="_top" xlink:title=" ">
<polygon fill="#ffffff" stroke="#ff0000" points="3349.659,-62 3349.659,-81 3475.659,-81 3475.659,-62 3349.659,-62"/>
<text text-anchor="middle" x="3412.659" y="-69" font-family="Helvetica,sans-Serif" font-size="10.00" fill="#000000">sitkAtan2ImageFilter.h</text>
</a>
</g>
</g>
<!-- Node2&#45;&gt;Node25 -->
<g id="edge60" class="edge">
<title>Node2&#45;&gt;Node25</title>
<path fill="none" stroke="#191970" d="M2940.9304,-191.4897C2960.5417,-181.7355 2986.6934,-168.0092 3008.659,-154 3027.9198,-141.7159 3028.4905,-131.589 3049.659,-123 3170.008,-74.169 3211.574,-108.5075 3339.659,-87 3349.7531,-85.3051 3360.569,-83.1801 3370.7,-81.052"/>
<polygon fill="#191970" stroke="#191970" points="2939.3044,-188.3889 2931.8755,-195.9429 2942.3936,-194.6704 2939.3044,-188.3889"/>
</g>
<!-- Node26 -->
<g id="node22" class="node">
<title>Node26</title>
<g id="a_node22"><a xlink:href="sitkAtanImageFilter_8h.html" target="_top" xlink:title=" ">
<polygon fill="#ffffff" stroke="#ff0000" points="3493.659,-62 3493.659,-81 3613.659,-81 3613.659,-62 3493.659,-62"/>
<text text-anchor="middle" x="3553.659" y="-69" font-family="Helvetica,sans-Serif" font-size="10.00" fill="#000000">sitkAtanImageFilter.h</text>
</a>
</g>
</g>
<!-- Node2&#45;&gt;Node26 -->
<g id="edge61" class="edge">
<title>Node2&#45;&gt;Node26</title>
<path fill="none" stroke="#191970" d="M2951.9861,-192.6181C2978.7164,-183.3971 3014.1621,-169.8425 3043.659,-154 3064.7334,-142.6811 3065.2049,-131.2499 3087.659,-123 3253.9582,-61.8997 3309.6338,-114.474 3484.659,-87 3494.7262,-85.4197 3505.5186,-83.2348 3515.5077,-81.0035"/>
<polygon fill="#191970" stroke="#191970" points="2950.5459,-189.4106 2942.1988,-195.9357 2952.7931,-196.0401 2950.5459,-189.4106"/>
</g>
<!-- Node27 -->
<g id="node23" class="node">
<title>Node27</title>
<g id="a_node23"><a xlink:href="sitkBSplineDecompositionImageFilter_8h.html" target="_top" xlink:title=" ">
<polygon fill="#ffffff" stroke="#ff0000" points="3632.159,-56.5 3632.159,-86.5 3777.159,-86.5 3777.159,-56.5 3632.159,-56.5"/>
<text text-anchor="start" x="3640.159" y="-74.5" font-family="Helvetica,sans-Serif" font-size="10.00" fill="#000000">sitkBSplineDecomposition</text>
<text text-anchor="middle" x="3704.659" y="-63.5" font-family="Helvetica,sans-Serif" font-size="10.00" fill="#000000">ImageFilter.h</text>
</a>
</g>
</g>
<!-- Node2&#45;&gt;Node27 -->
<g id="edge62" class="edge">
<title>Node2&#45;&gt;Node27</title>
<path fill="none" stroke="#191970" d="M2956.8608,-193.2681C2998.7814,-181.631 3057.866,-164.3993 3079.659,-154 3101.9093,-143.3826 3102.3569,-131.0507 3125.659,-123 3334.9855,-50.6789 3403.0477,-115.6141 3622.659,-87 3625.6761,-86.6069 3628.7499,-86.174 3631.8509,-85.7105"/>
<polygon fill="#191970" stroke="#191970" points="2955.8455,-189.9174 2947.1377,-195.9526 2957.7085,-196.6649 2955.8455,-189.9174"/>
</g>
<!-- Node28 -->
<g id="node24" class="node">
<title>Node28</title>
<g id="a_node24"><a xlink:href="sitkBilateralImageFilter_8h.html" target="_top" xlink:title=" ">
<polygon fill="#ffffff" stroke="#ff0000" points="3795.159,-62 3795.159,-81 3934.159,-81 3934.159,-62 3795.159,-62"/>
<text text-anchor="middle" x="3864.659" y="-69" font-family="Helvetica,sans-Serif" font-size="10.00" fill="#000000">sitkBilateralImageFilter.h</text>
</a>
</g>
</g>
<!-- Node2&#45;&gt;Node28 -->
<g id="edge63" class="edge">
<title>Node2&#45;&gt;Node28</title>
<path fill="none" stroke="#191970" d="M2957.3144,-193.4325C2961.8209,-192.2634 2966.3277,-191.1029 2970.659,-190 3035.4248,-173.5088 3055.4302,-180.7879 3116.659,-154 3139.5844,-143.97 3139.9094,-130.8821 3163.659,-123 3295.0646,-79.3887 3648.2992,-104.3684 3785.659,-87 3797.4454,-85.5097 3810.1143,-83.3002 3821.7802,-81.0135"/>
<polygon fill="#191970" stroke="#191970" points="2956.3106,-190.0771 2947.5171,-195.9868 2958.0767,-196.8507 2956.3106,-190.0771"/>
</g>
<!-- Node29 -->
<g id="node25" class="node">
<title>Node29</title>
<g id="a_node25"><a xlink:href="sitkBinShrinkImageFilter_8h.html" target="_top" xlink:title=" ">
<polygon fill="#ffffff" stroke="#ff0000" points="3952.659,-62 3952.659,-81 4096.659,-81 4096.659,-62 3952.659,-62"/>
<text text-anchor="middle" x="4024.659" y="-69" font-family="Helvetica,sans-Serif" font-size="10.00" fill="#000000">sitkBinShrinkImageFilter.h</text>
</a>
</g>
</g>
<!-- Node2&#45;&gt;Node29 -->
<g id="edge64" class="edge">
<title>Node2&#45;&gt;Node29</title>
<path fill="none" stroke="#191970" d="M2956.3229,-193.446C2961.1511,-192.2386 2966.0005,-191.0665 2970.659,-190 3051.8859,-171.4041 3077.5293,-185.5374 3154.659,-154 3177.8211,-144.5293 3177.8731,-130.772 3201.659,-123 3358.3667,-71.7963 3778.9384,-106.3565 3942.659,-87 3954.8888,-85.5541 3968.0374,-83.3596 3980.1462,-81.0729"/>
<polygon fill="#191970" stroke="#191970" points="2955.3334,-190.0863 2946.51,-195.9512 2957.065,-196.8687 2955.3334,-190.0863"/>
</g>
<!-- Node30 -->
<g id="node26" class="node">
<title>Node30</title>
<g id="a_node26"><a xlink:href="sitkBinaryClosingByReconstructionImageFilter_8h.html" target="_top" xlink:title=" ">
<polygon fill="#ffffff" stroke="#ff0000" points="4115.159,-56.5 4115.159,-86.5 4302.159,-86.5 4302.159,-56.5 4115.159,-56.5"/>
<text text-anchor="start" x="4123.159" y="-74.5" font-family="Helvetica,sans-Serif" font-size="10.00" fill="#000000">sitkBinaryClosingByReconstruction</text>
<text text-anchor="middle" x="4208.659" y="-63.5" font-family="Helvetica,sans-Serif" font-size="10.00" fill="#000000">ImageFilter.h</text>
</a>
</g>
</g>
<!-- Node2&#45;&gt;Node30 -->
<g id="edge65" class="edge">
<title>Node2&#45;&gt;Node30</title>
<path fill="none" stroke="#191970" d="M2955.9073,-193.385C2960.8677,-192.1731 2965.8608,-191.0169 2970.659,-190 3068.4429,-169.2772 3099.5373,-190.3243 3192.659,-154 3215.9717,-144.9064 3215.8461,-130.6887 3239.659,-123 3422.9523,-63.8186 3913.9252,-105.3579 4105.659,-87 4108.7192,-86.707 4111.8271,-86.3846 4114.963,-86.0379"/>
<polygon fill="#191970" stroke="#191970" points="2954.6841,-190.0838 2945.8442,-195.9239 2956.3966,-196.8711 2954.6841,-190.0838"/>
</g>
<!-- Node31 -->
<g id="node27" class="node">
<title>Node31</title>
<g id="a_node27"><a xlink:href="sitkBinaryContourImageFilter_8h.html" target="_top" xlink:title=" ">
<polygon fill="#ffffff" stroke="#ff0000" points="4320.159,-62 4320.159,-81 4487.159,-81 4487.159,-62 4320.159,-62"/>
<text text-anchor="middle" x="4403.659" y="-69" font-family="Helvetica,sans-Serif" font-size="10.00" fill="#000000">sitkBinaryContourImageFilter.h</text>
</a>
</g>
</g>
<!-- Node2&#45;&gt;Node31 -->
<g id="edge66" class="edge">
<title>Node2&#45;&gt;Node31</title>
<path fill="none" stroke="#191970" d="M2955.1007,-193.4616C2960.3221,-192.2003 2965.5962,-191.0118 2970.659,-190 3085.055,-167.1385 3121.4928,-195.1318 3230.659,-154 3254.0755,-145.1771 3253.8204,-130.6087 3277.659,-123 3387.0686,-88.079 4196.3852,-98.4647 4310.659,-87 4324.6657,-85.5948 4339.757,-83.3844 4353.6236,-81.0685"/>
<polygon fill="#191970" stroke="#191970" points="2954.0405,-190.119 2945.1941,-195.9493 2955.7455,-196.9082 2954.0405,-190.119"/>
</g>
<!-- Node32 -->
<g id="node28" class="node">
<title>Node32</title>
<g id="a_node28"><a xlink:href="sitkBinaryDilateImageFilter_8h.html" target="_top" xlink:title=" ">
<polygon fill="#ffffff" stroke="#ff0000" points="4504.659,-62 4504.659,-81 4662.659,-81 4662.659,-62 4504.659,-62"/>
<text text-anchor="middle" x="4583.659" y="-69" font-family="Helvetica,sans-Serif" font-size="10.00" fill="#000000">sitkBinaryDilateImageFilter.h</text>
</a>
</g>
</g>
<!-- Node2&#45;&gt;Node32 -->
<g id="edge67" class="edge">
<title>Node2&#45;&gt;Node32</title>
<path fill="none" stroke="#191970" d="M2954.8879,-193.4218C2960.1761,-192.1581 2965.5242,-190.9799 2970.659,-190 3101.7017,-164.9929 3143.4154,-199.9518 3268.659,-154 3292.1512,-145.3807 3291.804,-130.557 3315.659,-123 3440.7065,-83.3863 4365.1744,-100.4116 4495.659,-87 4509.0846,-85.6201 4523.5484,-83.3879 4536.7942,-81.0422"/>
<polygon fill="#191970" stroke="#191970" points="2953.7166,-190.1068 2944.8639,-195.9276 2955.4142,-196.8979 2953.7166,-190.1068"/>
</g>
<!-- Node33 -->
<g id="node29" class="node">
<title>Node33</title>
<g id="a_node29"><a xlink:href="sitkBinaryErodeImageFilter_8h.html" target="_top" xlink:title=" ">
<polygon fill="#ffffff" stroke="#ff0000" points="4681.159,-62 4681.159,-81 4838.159,-81 4838.159,-62 4681.159,-62"/>
<text text-anchor="middle" x="4759.659" y="-69" font-family="Helvetica,sans-Serif" font-size="10.00" fill="#000000">sitkBinaryErodeImageFilter.h</text>
</a>
</g>
</g>
<!-- Node2&#45;&gt;Node33 -->
<g id="edge68" class="edge">
<title>Node2&#45;&gt;Node33</title>
<path fill="none" stroke="#191970" d="M2954.2676,-193.4984C2959.7553,-192.1911 2965.3208,-190.9814 2970.659,-190 3118.3714,-162.8429 3165.316,-204.7798 3306.659,-154 3330.2088,-145.5394 3329.7919,-130.519 3353.659,-123 3493.3883,-78.9805 4525.904,-101.7461 4671.659,-87 4685.0868,-85.6415 4699.5513,-83.4162 4712.7971,-81.0702"/>
<polygon fill="#191970" stroke="#191970" points="2953.393,-190.1092 2944.5394,-195.9284 2955.0895,-196.9005 2953.393,-190.1092"/>
</g>
<!-- Node34 -->
<g id="node30" class="node">
<title>Node34</title>
<g id="a_node30"><a xlink:href="sitkBinaryFillholeImageFilter_8h.html" target="_top" xlink:title=" ">
<polygon fill="#ffffff" stroke="#ff0000" points="4856.659,-62 4856.659,-81 5020.659,-81 5020.659,-62 4856.659,-62"/>
<text text-anchor="middle" x="4938.659" y="-69" font-family="Helvetica,sans-Serif" font-size="10.00" fill="#000000">sitkBinaryFillholeImageFilter.h</text>
</a>
</g>
</g>
<!-- Node2&#45;&gt;Node34 -->
<g id="edge69" class="edge">
<title>Node2&#45;&gt;Node34</title>
<path fill="none" stroke="#191970" d="M2954.0568,-193.4907C2959.6112,-192.1742 2965.2504,-190.9643 2970.659,-190 3135.0572,-160.6899 3187.2012,-209.6134 3344.659,-154 3368.254,-145.6664 3367.7823,-130.4883 3391.659,-123 3545.9645,-74.6064 4685.6848,-102.4726 4846.659,-87 4860.8473,-85.6362 4876.1522,-83.3785 4890.1295,-81.0026"/>
<polygon fill="#191970" stroke="#191970" points="2953.074,-190.1285 2944.2187,-195.9452 2954.7686,-196.9203 2953.074,-190.1285"/>
</g>
<!-- Node35 -->
<g id="node31" class="node">
<title>Node35</title>
<g id="a_node31"><a xlink:href="sitkBinaryGrindPeakImageFilter_8h.html" target="_top" xlink:title=" ">
<polygon fill="#ffffff" stroke="#ff0000" points="5039.159,-56.5 5039.159,-86.5 5186.159,-86.5 5186.159,-56.5 5039.159,-56.5"/>
<text text-anchor="start" x="5047.159" y="-74.5" font-family="Helvetica,sans-Serif" font-size="10.00" fill="#000000">sitkBinaryGrindPeakImage</text>
<text text-anchor="middle" x="5112.659" y="-63.5" font-family="Helvetica,sans-Serif" font-size="10.00" fill="#000000">Filter.h</text>
</a>
</g>
</g>
<!-- Node2&#45;&gt;Node35 -->
<g id="edge70" class="edge">
<title>Node2&#45;&gt;Node35</title>
<path fill="none" stroke="#191970" d="M2953.848,-193.4926C2959.4685,-192.1651 2965.181,-190.9518 2970.659,-190 3151.7546,-158.5348 3209.0752,-214.451 3382.659,-154 3406.2905,-145.7703 3405.7739,-130.4615 3429.659,-123 3599.3925,-69.9766 4852.7889,-105.3821 5029.659,-87 5032.7209,-86.6818 5035.8389,-86.3115 5038.9833,-85.8997"/>
<polygon fill="#191970" stroke="#191970" points="2952.7568,-190.1575 2943.9011,-195.9737 2954.4509,-196.9494 2952.7568,-190.1575"/>
</g>
<!-- Node36 -->
<g id="node32" class="node">
<title>Node36</title>
<g id="a_node32"><a xlink:href="sitkBinaryImageToLabelMapFilter_8h.html" target="_top" xlink:title=" ">
<polygon fill="#ffffff" stroke="#ff0000" points="5204.659,-56.5 5204.659,-86.5 5358.659,-86.5 5358.659,-56.5 5204.659,-56.5"/>
<text text-anchor="start" x="5212.659" y="-74.5" font-family="Helvetica,sans-Serif" font-size="10.00" fill="#000000">sitkBinaryImageToLabelMap</text>
<text text-anchor="middle" x="5281.659" y="-63.5" font-family="Helvetica,sans-Serif" font-size="10.00" fill="#000000">Filter.h</text>
</a>
</g>
</g>
<!-- Node2&#45;&gt;Node36 -->
<g id="edge71" class="edge">
<title>Node2&#45;&gt;Node36</title>
<path fill="none" stroke="#191970" d="M2953.8415,-193.4546C2959.463,-192.1332 2965.1776,-190.9317 2970.659,-190 3168.4609,-156.3781 3230.9407,-219.2914 3420.659,-154 3444.3205,-145.8569 3443.7678,-130.4418 3467.659,-123 3650.9058,-65.9215 5003.6602,-105.8893 5194.659,-87 5197.8652,-86.6829 5201.1308,-86.3136 5204.4245,-85.9026"/>
<polygon fill="#191970" stroke="#191970" points="2952.7524,-190.1187 2943.8936,-195.9302 2954.4429,-196.9116 2952.7524,-190.1187"/>
</g>
<!-- Node37 -->
<g id="node33" class="node">
<title>Node37</title>
<g id="a_node33"><a xlink:href="sitkBinaryMagnitudeImageFilter_8h.html" target="_top" xlink:title=" ">
<polygon fill="#ffffff" stroke="#ff0000" points="5376.659,-56.5 5376.659,-86.5 5524.659,-86.5 5524.659,-56.5 5376.659,-56.5"/>
<text text-anchor="start" x="5384.659" y="-74.5" font-family="Helvetica,sans-Serif" font-size="10.00" fill="#000000">sitkBinaryMagnitudeImage</text>
<text text-anchor="middle" x="5450.659" y="-63.5" font-family="Helvetica,sans-Serif" font-size="10.00" fill="#000000">Filter.h</text>
</a>
</g>
</g>
<!-- Node2&#45;&gt;Node37 -->
<g id="edge72" class="edge">
<title>Node2&#45;&gt;Node37</title>
<path fill="none" stroke="#191970" d="M2953.6353,-193.4694C2959.3223,-192.1346 2965.1094,-190.9256 2970.659,-190 3185.1739,-154.2204 3254.7215,-229.5399 3458.659,-154 3480.4152,-145.9414 3478.6919,-130.4644 3500.659,-123 3697.1103,-56.2459 5161.2534,-108.1163 5367.659,-87 5370.5756,-86.7016 5373.543,-86.3553 5376.5356,-85.9702"/>
<polygon fill="#191970" stroke="#191970" points="2952.4372,-190.1608 2943.5796,-195.974 2954.1291,-196.9533 2952.4372,-190.1608"/>
</g>
<!-- Node38 -->
<g id="node34" class="node">
<title>Node38</title>
<g id="a_node34"><a xlink:href="sitkBinaryMedianImageFilter_8h.html" target="_top" xlink:title=" ">
<polygon fill="#ffffff" stroke="#ff0000" points="500.659,-62 500.659,-81 664.659,-81 664.659,-62 500.659,-62"/>
<text text-anchor="middle" x="582.659" y="-69" font-family="Helvetica,sans-Serif" font-size="10.00" fill="#000000">sitkBinaryMedianImageFilter.h</text>
</a>
</g>
</g>
<!-- Node2&#45;&gt;Node38 -->
<g id="edge73" class="edge">
<title>Node2&#45;&gt;Node38</title>
<path fill="none" stroke="#191970" d="M2851.7669,-204.9824C2665.3558,-202.9652 2097.2402,-193.6404 1917.659,-154 1881.6347,-146.0481 1876.7646,-130.5746 1840.659,-123 1586.7301,-69.7283 931.8254,-112.8442 673.659,-87 659.7856,-85.6112 644.8319,-83.3762 631.1343,-81.0305"/>
<polygon fill="#191970" stroke="#191970" points="2851.8888,-208.4838 2861.925,-205.0892 2851.9624,-201.4842 2851.8888,-208.4838"/>
</g>
<!-- Node39 -->
<g id="node35" class="node">
<title>Node39</title>
<g id="a_node35"><a xlink:href="sitkBinaryMinMaxCurvatureFlowImageFilter_8h.html" target="_top" xlink:title=" ">
<polygon fill="#ffffff" stroke="#ff0000" points="682.659,-56.5 682.659,-86.5 834.659,-86.5 834.659,-56.5 682.659,-56.5"/>
<text text-anchor="start" x="690.659" y="-74.5" font-family="Helvetica,sans-Serif" font-size="10.00" fill="#000000">sitkBinaryMinMaxCurvature</text>
<text text-anchor="middle" x="758.659" y="-63.5" font-family="Helvetica,sans-Serif" font-size="10.00" fill="#000000">FlowImageFilter.h</text>
</a>
</g>
</g>
<!-- Node2&#45;&gt;Node39 -->
<g id="edge74" class="edge">
<title>Node2&#45;&gt;Node39</title>
<path fill="none" stroke="#191970" d="M2851.6147,-203.7068C2658.2698,-197.723 2059.5779,-177.4882 1975.659,-154 1947.512,-146.1219 1945.889,-130.5757 1917.659,-123 1687.0188,-61.1062 1081.0956,-112.4885 843.659,-87 840.8253,-86.6958 837.9439,-86.3514 835.0376,-85.9744"/>
<polygon fill="#191970" stroke="#191970" points="2851.7663,-207.213 2861.8693,-204.0225 2851.9818,-200.2163 2851.7663,-207.213"/>
</g>
<!-- Node40 -->
<g id="node36" class="node">
<title>Node40</title>
<g id="a_node36"><a xlink:href="sitkBinaryMorphologicalClosingImageFilter_8h.html" target="_top" xlink:title=" ">
<polygon fill="#ffffff" stroke="#ff0000" points="852.659,-56.5 852.659,-86.5 1022.659,-86.5 1022.659,-56.5 852.659,-56.5"/>
<text text-anchor="start" x="860.659" y="-74.5" font-family="Helvetica,sans-Serif" font-size="10.00" fill="#000000">sitkBinaryMorphologicalClosing</text>
<text text-anchor="middle" x="937.659" y="-63.5" font-family="Helvetica,sans-Serif" font-size="10.00" fill="#000000">ImageFilter.h</text>
</a>
</g>
</g>
<!-- Node2&#45;&gt;Node40 -->
<g id="edge75" class="edge">
<title>Node2&#45;&gt;Node40</title>
<path fill="none" stroke="#191970" d="M2851.7842,-203.7976C2665.1688,-198.2457 2101.8625,-179.5419 2023.659,-154 1999.5184,-146.1155 1999.8766,-130.645 1975.659,-123 1775.4668,-59.8034 1240.5243,-108.1189 1031.659,-87 1028.7792,-86.7088 1025.8539,-86.385 1022.9027,-86.0344"/>
<polygon fill="#191970" stroke="#191970" points="2851.8595,-207.3012 2861.9586,-204.0983 2852.0664,-200.3043 2851.8595,-207.3012"/>
</g>
<!-- Node304 -->
<g id="node37" class="node">
<title>Node304</title>
<g id="a_node37"><a xlink:href="sitkCenteredTransformInitializerFilter_8h.html" target="_top" xlink:title=" ">
<polygon fill="#ffffff" stroke="#000000" points="3675.159,-123.5 3675.159,-153.5 3848.159,-153.5 3848.159,-123.5 3675.159,-123.5"/>
<text text-anchor="start" x="3683.159" y="-141.5" font-family="Helvetica,sans-Serif" font-size="10.00" fill="#000000">sitkCenteredTransformInitializer</text>
<text text-anchor="middle" x="3761.659" y="-130.5" font-family="Helvetica,sans-Serif" font-size="10.00" fill="#000000">Filter.h</text>
</a>
</g>
</g>
<!-- Node2&#45;&gt;Node304 -->
<g id="edge42" class="edge">
<title>Node2&#45;&gt;Node304</title>
<path fill="none" stroke="#191970" d="M2952.9847,-193.5019C2958.8771,-192.1257 2964.8936,-190.8969 2970.659,-190 3276.2859,-142.4547 3358.0893,-186.6985 3665.659,-154 3668.7648,-153.6698 3671.923,-153.3064 3675.1099,-152.9163"/>
<polygon fill="#191970" stroke="#191970" points="2952.1099,-190.1127 2943.2514,-195.9246 2953.8008,-196.9055 2952.1099,-190.1127"/>
</g>
<!-- Node305 -->
<g id="node38" class="node">
<title>Node305</title>
<g id="a_node38"><a xlink:href="sitkCenteredVersorTransformInitializerFilter_8h.html" target="_top" xlink:title=" ">
<polygon fill="#ffffff" stroke="#000000" points="3866.659,-123.5 3866.659,-153.5 4024.659,-153.5 4024.659,-123.5 3866.659,-123.5"/>
<text text-anchor="start" x="3874.659" y="-141.5" font-family="Helvetica,sans-Serif" font-size="10.00" fill="#000000">sitkCenteredVersorTransform</text>
<text text-anchor="middle" x="3945.659" y="-130.5" font-family="Helvetica,sans-Serif" font-size="10.00" fill="#000000">InitializerFilter.h</text>
</a>
</g>
</g>
<!-- Node2&#45;&gt;Node305 -->
<g id="edge44" class="edge">
<title>Node2&#45;&gt;Node305</title>
<path fill="none" stroke="#191970" d="M2952.7701,-193.4903C2958.7294,-192.1034 2964.8216,-190.8748 2970.659,-190 3360.4092,-131.59 3464.79,-195.9 3856.659,-154 3859.934,-153.6498 3863.2706,-153.2528 3866.6366,-152.819"/>
<polygon fill="#191970" stroke="#191970" points="2951.7929,-190.1266 2942.9348,-195.9391 2953.4842,-196.9192 2951.7929,-190.1266"/>
</g>
<!-- Node3&#45;&gt;Node4 -->
<g id="edge3" class="edge">
<title>Node3&#45;&gt;Node4</title>
<path fill="none" stroke="#191970" d="M3637.0065,-127.0793C3646.5089,-125.4277 3656.3457,-123.9631 3665.659,-123 3717.2823,-117.6616 5497.3165,-124.0497 5533.659,-87 5543.3071,-77.1642 5543.3542,-65.7893 5533.659,-56 5511.6137,-33.7406 1257.0391,-12.3656 810.4526,-10.1829"/>
<polygon fill="#191970" stroke="#191970" points="3636.0762,-123.6911 3626.8671,-128.9298 3637.3331,-130.5774 3636.0762,-123.6911"/>
</g>
<!-- Node5&#45;&gt;Node4 -->
<g id="edge5" class="edge">
<title>Node5&#45;&gt;Node4</title>
<path fill="none" stroke="#191970" d="M1030.4684,-55.1717C958.3609,-42.5375 862.2875,-25.7041 810.1598,-16.5706"/>
<polygon fill="#191970" stroke="#191970" points="1030.0229,-58.6469 1040.4769,-56.9254 1031.2311,-51.7519 1030.0229,-58.6469"/>
</g>
<!-- Node6&#45;&gt;Node4 -->
<g id="edge14" class="edge">
<title>Node6&#45;&gt;Node4</title>
<path fill="none" stroke="#191970" d="M2836.3359,-118.8422C2836.7744,-99.5428 2833.9503,-70.8969 2815.659,-56 2775.234,-23.0767 1085.6664,-11.8268 810.3905,-10.211"/>
<polygon fill="#191970" stroke="#191970" points="2832.8344,-118.7774 2835.793,-128.9507 2839.8244,-119.1529 2832.8344,-118.7774"/>
</g>
<!-- Node6&#45;&gt;Node5 -->
<g id="edge7" class="edge">
<title>Node6&#45;&gt;Node5</title>
<path fill="none" stroke="#191970" d="M2775.1488,-137.0845C2501.7583,-130.517 1372.8791,-102.6722 1215.659,-87 1212.7579,-86.7108 1209.8099,-86.3856 1206.836,-86.031"/>
<polygon fill="#191970" stroke="#191970" points="2775.1857,-140.5863 2785.2668,-137.3272 2775.3537,-133.5883 2775.1857,-140.5863"/>
</g>
<!-- Node6&#45;&gt;Node8 -->
<g id="edge8" class="edge">
<title>Node6&#45;&gt;Node8</title>
<path fill="none" stroke="#191970" d="M2775.3065,-137.0121C2518.1801,-130.4855 1507.0143,-103.9614 1365.659,-87 1354.1739,-85.6219 1341.833,-83.3903 1330.5445,-81.0445"/>
<polygon fill="#191970" stroke="#191970" points="2775.4745,-140.5173 2785.5599,-137.2718 2775.6518,-133.5196 2775.4745,-140.5173"/>
</g>
<!-- Node6&#45;&gt;Node9 -->
<g id="edge10" class="edge">
<title>Node6&#45;&gt;Node9</title>
<path fill="none" stroke="#191970" d="M2775.4826,-137.5273C2422.7025,-131.6872 608.3156,-101.0598 491.659,-87 480.7842,-85.6893 469.1144,-83.4482 458.4811,-81.0712"/>
<polygon fill="#191970" stroke="#191970" points="2775.4339,-141.0269 2785.4904,-137.6928 2775.5497,-134.0278 2775.4339,-141.0269"/>
</g>
<!-- Node6&#45;&gt;Node10 -->
<g id="edge12" class="edge">
<title>Node6&#45;&gt;Node10</title>
<path fill="none" stroke="#191970" d="M2775.5432,-137.1653C2556.1876,-132.0528 1789.02,-112.7064 1545.659,-87 1542.8209,-86.7002 1539.937,-86.3659 1537.0277,-86.0035"/>
<polygon fill="#191970" stroke="#191970" points="2775.4918,-140.665 2785.5703,-137.398 2775.6543,-133.6668 2775.4918,-140.665"/>
</g>
<!-- Node6&#45;&gt;Node11 -->
<g id="edge15" class="edge">
<title>Node6&#45;&gt;Node11</title>
<path fill="none" stroke="#191970" d="M2775.2912,-137.2876C2570.5389,-132.8816 1894.6753,-116.4132 1679.659,-87 1669.3678,-85.5922 1658.3333,-83.3511 1648.2493,-81.0057"/>
<polygon fill="#191970" stroke="#191970" points="2775.4666,-140.792 2785.5391,-137.5065 2775.6162,-133.7936 2775.4666,-140.792"/>
</g>
<!-- Node6&#45;&gt;Node14 -->
<g id="edge16" class="edge">
<title>Node6&#45;&gt;Node14</title>
<path fill="none" stroke="#191970" d="M2775.295,-137.9867C2622.0464,-136.0988 2200.7901,-127.3385 1852.659,-87 1849.9464,-86.6857 1847.19,-86.3389 1844.4095,-85.9659"/>
<polygon fill="#191970" stroke="#191970" points="2775.3894,-141.4879 2785.43,-138.1062 2775.472,-134.4884 2775.3894,-141.4879"/>
</g>
<!-- Node6&#45;&gt;Node15 -->
<g id="edge17" class="edge">
<title>Node6&#45;&gt;Node15</title>
<path fill="none" stroke="#191970" d="M2775.4781,-136.119C2609.7809,-129.2561 2143.4521,-108.5446 1991.659,-87 1981.3266,-85.5335 1970.2486,-83.332 1960.0593,-81.0453"/>
<polygon fill="#191970" stroke="#191970" points="2775.349,-139.6166 2785.4848,-136.5318 2775.6376,-132.6225 2775.349,-139.6166"/>
</g>
<!-- Node6&#45;&gt;Node16 -->
<g id="edge18" class="edge">
<title>Node6&#45;&gt;Node16</title>
<path fill="none" stroke="#191970" d="M2775.434,-135.0266C2662.9839,-128.1368 2410.9045,-111.2805 2199.659,-87 2196.576,-86.6456 2193.4438,-86.27 2190.2826,-85.8774"/>
<polygon fill="#191970" stroke="#191970" points="2775.3576,-138.5283 2785.5519,-135.6426 2775.7831,-131.5413 2775.3576,-138.5283"/>
</g>
<!-- Node6&#45;&gt;Node17 -->
<g id="edge19" class="edge">
<title>Node6&#45;&gt;Node17</title>
<path fill="none" stroke="#191970" d="M2775.1336,-134.7971C2680.9579,-128.3968 2492.0313,-113.3531 2333.659,-87 2324.0017,-85.393 2313.6569,-83.2252 2304.0559,-81.0207"/>
<polygon fill="#191970" stroke="#191970" points="2775.1068,-138.3031 2785.3187,-135.4806 2775.5755,-131.3188 2775.1068,-138.3031"/>
</g>
<!-- Node6&#45;&gt;Node19 -->
<g id="edge20" class="edge">
<title>Node6&#45;&gt;Node19</title>
<path fill="none" stroke="#191970" d="M2775.5255,-129.9951C2708.518,-120.2216 2596.0797,-103.4102 2499.659,-87 2496.7688,-86.5081 2493.8236,-85.9985 2490.8497,-85.4768"/>
<polygon fill="#191970" stroke="#191970" points="2775.0776,-133.4667 2785.4775,-131.4436 2776.0859,-126.5397 2775.0776,-133.4667"/>
</g>
<!-- Node6&#45;&gt;Node20 -->
<g id="edge21" class="edge">
<title>Node6&#45;&gt;Node20</title>
<path fill="none" stroke="#191970" d="M2790.2868,-126.3158C2742.9688,-113.3228 2669.0018,-93.0122 2625.6345,-81.1039"/>
<polygon fill="#191970" stroke="#191970" points="2789.3891,-129.6988 2799.9589,-128.9717 2791.2426,-122.9487 2789.3891,-129.6988"/>
</g>
<!-- Node6&#45;&gt;Node21 -->
<g id="edge22" class="edge">
<title>Node6&#45;&gt;Node21</title>
<path fill="none" stroke="#191970" d="M2814.3219,-122.6559C2797.7425,-109.7395 2774.8699,-91.9201 2760.9579,-81.0817"/>
<polygon fill="#191970" stroke="#191970" points="2812.2977,-125.5158 2822.3373,-128.9005 2816.5998,-119.9937 2812.2977,-125.5158"/>
</g>
<!-- Node6&#45;&gt;Node22 -->
<g id="edge23" class="edge">
<title>Node6&#45;&gt;Node22</title>
<path fill="none" stroke="#191970" d="M2856.9997,-123.2263C2873.0866,-112.2281 2894.685,-97.4618 2910.6869,-86.5218"/>
<polygon fill="#191970" stroke="#191970" points="2854.9798,-120.3674 2848.7,-128.9005 2858.9306,-126.146 2854.9798,-120.3674"/>
</g>
<!-- Node6&#45;&gt;Node23 -->
<g id="edge24" class="edge">
<title>Node6&#45;&gt;Node23</title>
<path fill="none" stroke="#191970" d="M2883.4092,-126.5357C2928.9461,-115.3599 2997.0991,-98.6338 3046.3141,-86.5553"/>
<polygon fill="#191970" stroke="#191970" points="2882.3609,-123.189 2873.4834,-128.9717 2884.0294,-129.9873 2882.3609,-123.189"/>
</g>
<!-- Node6&#45;&gt;Node24 -->
<g id="edge25" class="edge">
<title>Node6&#45;&gt;Node24</title>
<path fill="none" stroke="#191970" d="M2894.033,-131.71C2966.9753,-123.0191 3094.3747,-106.7051 3202.659,-87 3212.0809,-85.2854 3222.1669,-83.1768 3231.6376,-81.0733"/>
<polygon fill="#191970" stroke="#191970" points="2893.194,-128.2848 2883.6749,-132.9364 2894.0171,-135.2362 2893.194,-128.2848"/>
</g>
<!-- Node6&#45;&gt;Node25 -->
<g id="edge26" class="edge">
<title>Node6&#45;&gt;Node25</title>
<path fill="none" stroke="#191970" d="M2893.6359,-133.2901C3007.7658,-123.0751 3255.0381,-100.2592 3339.659,-87 3350.027,-85.3755 3361.1422,-83.2272 3371.4939,-81.0493"/>
<polygon fill="#191970" stroke="#191970" points="2893.3231,-129.804 2883.6742,-134.18 2893.946,-136.7763 2893.3231,-129.804"/>
</g>
<!-- Node6&#45;&gt;Node26 -->
<g id="edge27" class="edge">
<title>Node6&#45;&gt;Node26</title>
<path fill="none" stroke="#191970" d="M2894.2363,-134.2654C3043.7874,-123.5666 3427.205,-95.6844 3484.659,-87 3494.8565,-85.4586 3505.7908,-83.26 3515.8805,-81.0013"/>
<polygon fill="#191970" stroke="#191970" points="2893.6056,-130.8015 2883.8805,-135.0056 2894.1046,-137.7837 2893.6056,-130.8015"/>
</g>
<!-- Node6&#45;&gt;Node27 -->
<g id="edge28" class="edge">
<title>Node6&#45;&gt;Node27</title>
<path fill="none" stroke="#191970" d="M2893.8455,-134.8296C3070.932,-123.8215 3586.6536,-91.5624 3622.659,-87 3625.6774,-86.6175 3628.7524,-86.1935 3631.8544,-85.7373"/>
<polygon fill="#191970" stroke="#191970" points="2893.4359,-131.3482 2883.6723,-135.4618 2893.8701,-138.3347 2893.4359,-131.3482"/>
</g>
<!-- Node6&#45;&gt;Node28 -->
<g id="edge29" class="edge">
<title>Node6&#45;&gt;Node28</title>
<path fill="none" stroke="#191970" d="M2893.831,-135.3506C3099.9552,-124.3728 3774.5407,-88.3849 3785.659,-87 3797.4482,-85.5316 3810.1179,-83.3294 3821.7838,-81.0428"/>
<polygon fill="#191970" stroke="#191970" points="2893.5974,-131.858 2883.7977,-135.8849 2893.9697,-138.8481 2893.5974,-131.858"/>
</g>
<!-- Node6&#45;&gt;Node29 -->
<g id="edge30" class="edge">
<title>Node6&#45;&gt;Node29</title>
<path fill="none" stroke="#191970" d="M2893.8965,-135.6932C2959.7645,-132.5759 3069.3185,-127.4022 3163.659,-123 3509.874,-106.8446 3598.4167,-127.2867 3942.659,-87 3955.0344,-85.5517 3968.3491,-83.3272 3980.5754,-81.0116"/>
<polygon fill="#191970" stroke="#191970" points="2893.5325,-132.2064 2883.7093,-136.1754 2893.8636,-139.1985 2893.5325,-132.2064"/>
</g>
<!-- Node6&#45;&gt;Node30 -->
<g id="edge31" class="edge">
<title>Node6&#45;&gt;Node30</title>
<path fill="none" stroke="#191970" d="M2894.2403,-135.9395C2966.8439,-132.8296 3093.253,-127.4477 3201.659,-123 3603.4173,-106.5164 3705.36,-124.9749 4105.659,-87 4108.7195,-86.7097 4111.8276,-86.3895 4114.9637,-86.0449"/>
<polygon fill="#191970" stroke="#191970" points="2893.7682,-132.4564 2883.9273,-136.3815 2894.068,-139.45 2893.7682,-132.4564"/>
</g>
<!-- Node6&#45;&gt;Node31 -->
<g id="edge32" class="edge">
<title>Node6&#45;&gt;Node31</title>
<path fill="none" stroke="#191970" d="M2894.1422,-136.1368C2973.0927,-133.0201 3116.8419,-127.4143 3239.659,-123 3715.6205,-105.8928 3836.7399,-134.2512 4310.659,-87 4324.6665,-85.6034 4339.7582,-83.3959 4353.6247,-81.08"/>
<polygon fill="#191970" stroke="#191970" points="2893.7617,-132.649 2883.9077,-136.5413 2894.0381,-139.6436 2893.7617,-132.649"/>
</g>
<!-- Node6&#45;&gt;Node32 -->
<g id="edge33" class="edge">
<title>Node6&#45;&gt;Node32</title>
<path fill="none" stroke="#191970" d="M2894.0531,-136.3195C2979.0577,-133.222 3140.3221,-127.4322 3277.659,-123 3818.947,-105.5313 3956.9012,-142.1164 4495.659,-87 4509.0852,-85.6265 4523.5493,-83.3963 4536.7951,-81.0505"/>
<polygon fill="#191970" stroke="#191970" points="2893.6877,-132.8304 2883.822,-136.6927 2893.9429,-139.8257 2893.6877,-132.8304"/>
</g>
<!-- Node6&#45;&gt;Node33 -->
<g id="edge34" class="edge">
<title>Node6&#45;&gt;Node33</title>
<path fill="none" stroke="#191970" d="M2893.916,-136.4823C2984.7004,-133.4156 3163.6745,-127.4663 3315.659,-123 3918.2779,-105.2912 4071.8188,-147.4546 4671.659,-87 4685.0873,-85.6466 4699.552,-83.423 4712.7978,-81.0769"/>
<polygon fill="#191970" stroke="#191970" points="2893.6951,-132.9877 2883.8192,-136.8238 2893.9318,-139.9837 2893.6951,-132.9877"/>
</g>
<!-- Node6&#45;&gt;Node34 -->
<g id="edge35" class="edge">
<title>Node6&#45;&gt;Node34</title>
<path fill="none" stroke="#191970" d="M2893.7963,-136.6232C2990.132,-133.5908 3186.9448,-127.4994 3353.659,-123 4017.1659,-105.0929 4185.9357,-150.2978 4846.659,-87 4860.8477,-85.6407 4876.1528,-83.3844 4890.1301,-81.0084"/>
<polygon fill="#191970" stroke="#191970" points="2893.557,-133.1289 2883.6722,-136.9423 2893.7775,-140.1255 2893.557,-133.1289"/>
</g>
<!-- Node6&#45;&gt;Node35 -->
<g id="edge36" class="edge">
<title>Node6&#45;&gt;Node35</title>
<path fill="none" stroke="#191970" d="M2893.9134,-136.7373C2995.6875,-133.7353 3210.2733,-127.517 3391.659,-123 3755.6341,-113.9361 4667.5119,-124.5425 5029.659,-87 5032.721,-86.6826 5035.8391,-86.3129 5038.9836,-85.9018"/>
<polygon fill="#191970" stroke="#191970" points="2893.725,-133.2413 2883.8327,-137.035 2893.9317,-140.2382 2893.725,-133.2413"/>
</g>
<!-- Node6&#45;&gt;Node36 -->
<g id="edge37" class="edge">
<title>Node6&#45;&gt;Node36</title>
<path fill="none" stroke="#191970" d="M2894.3076,-136.8346C3001.4753,-133.8673 3233.7049,-127.5507 3429.659,-123 3821.8571,-113.8919 4804.2511,-125.5218 5194.659,-87 5197.8653,-86.6836 5201.1309,-86.3149 5204.4247,-85.9044"/>
<polygon fill="#191970" stroke="#191970" points="2893.9228,-133.3438 2884.0237,-137.1197 2894.1168,-140.3411 2893.9228,-133.3438"/>
</g>
<!-- Node6&#45;&gt;Node37 -->
<g id="edge38" class="edge">
<title>Node6&#45;&gt;Node37</title>
<path fill="none" stroke="#191970" d="M2893.99,-136.9376C3006.0745,-134.0104 3256.6391,-127.5827 3467.659,-123 3889.8575,-113.8312 4947.5466,-129.9085 5367.659,-87 5370.5756,-86.7021 5373.5431,-86.3562 5376.5357,-85.9715"/>
<polygon fill="#191970" stroke="#191970" points="2893.808,-133.4411 2883.903,-137.2014 2893.9911,-140.4387 2893.808,-133.4411"/>
</g>
<!-- Node6&#45;&gt;Node38 -->
<g id="edge39" class="edge">
<title>Node6&#45;&gt;Node38</title>
<path fill="none" stroke="#191970" d="M2775.3359,-137.6004C2449.8364,-132.5955 887.6399,-107.6636 673.659,-87 659.6213,-85.6444 644.4816,-83.3893 630.6563,-81.0132"/>
<polygon fill="#191970" stroke="#191970" points="2775.4462,-141.1024 2785.4988,-137.7563 2775.5537,-134.1032 2775.4462,-141.1024"/>
</g>
<!-- Node6&#45;&gt;Node39 -->
<g id="edge40" class="edge">
<title>Node6&#45;&gt;Node39</title>
<path fill="none" stroke="#191970" d="M2775.0891,-137.5085C2464.7223,-132.2689 1039.6279,-107.2794 843.659,-87 840.8241,-86.7066 837.9418,-86.3714 835.0347,-86.0022"/>
<polygon fill="#191970" stroke="#191970" points="2775.1722,-141.0103 2785.2298,-137.6793 2775.2902,-134.0113 2775.1722,-141.0103"/>
</g>
<!-- Node6&#45;&gt;Node40 -->
<g id="edge41" class="edge">
<title>Node6&#45;&gt;Node40</title>
<path fill="none" stroke="#191970" d="M2775.195,-137.2791C2483.1987,-131.2198 1208.1253,-103.9911 1031.659,-87 1028.7779,-86.7226 1025.8514,-86.4107 1022.8992,-86.0703"/>
<polygon fill="#191970" stroke="#191970" points="2775.4957,-140.786 2785.5661,-137.494 2775.6408,-133.7875 2775.4957,-140.786"/>
</g>
<!-- Node8&#45;&gt;Node4 -->
<g id="edge9" class="edge">
<title>Node8&#45;&gt;Node4</title>
<path fill="none" stroke="#191970" d="M1238.4586,-60.0121C1230.8333,-58.5379 1223.0592,-57.1459 1215.659,-56 1066.2726,-32.8672 886.6953,-18.2392 810.1604,-12.6171"/>
<polygon fill="#191970" stroke="#191970" points="1237.8621,-63.4619 1248.3533,-61.9837 1239.2301,-56.5969 1237.8621,-63.4619"/>
</g>
<!-- Node9&#45;&gt;Node4 -->
<g id="edge11" class="edge">
<title>Node9&#45;&gt;Node4</title>
<path fill="none" stroke="#191970" d="M472.8668,-59.8171C479.1851,-58.4772 485.5628,-57.173 491.659,-56 578.3094,-39.3276 680.7396,-23.5411 734.8164,-15.5109"/>
<polygon fill="#191970" stroke="#191970" points="472.073,-56.4077 463.0362,-61.9381 473.5494,-63.2503 472.073,-56.4077"/>
</g>
<!-- Node10&#45;&gt;Node4 -->
<g id="edge13" class="edge">
<title>Node10&#45;&gt;Node4</title>
<path fill="none" stroke="#191970" d="M1364.0474,-55.8698C1148.774,-29.5224 902.7102,-16.1362 810.2462,-11.6983"/>
<polygon fill="#191970" stroke="#191970" points="1363.9206,-59.3807 1374.2746,-57.1342 1364.7796,-52.4336 1363.9206,-59.3807"/>
</g>
<!-- Node304&#45;&gt;Node4 -->
<g id="edge43" class="edge">
<title>Node304&#45;&gt;Node4</title>
<path fill="none" stroke="#191970" d="M3858.3913,-123.4771C4006.93,-118.8239 5519.7947,-119.5487 5551.659,-87 5561.2973,-77.1547 5561.3544,-65.7891 5551.659,-56 5529.5243,-33.6511 1256.6693,-12.3458 810.2497,-10.1806"/>
<polygon fill="#191970" stroke="#191970" points="3858.0188,-119.9908 3848.1961,-123.9613 3858.3509,-126.9829 3858.0188,-119.9908"/>
</g>
<!-- Node305&#45;&gt;Node4 -->
<g id="edge45" class="edge">
<title>Node305&#45;&gt;Node4</title>
<path fill="none" stroke="#191970" d="M4034.7838,-123.3853C4036.0834,-123.25 4037.3757,-123.1214 4038.659,-123 4081.0094,-118.9932 5539.9347,-117.4315 5569.659,-87 5579.2862,-77.1438 5579.3546,-65.789 5569.659,-56 5547.4405,-33.5674 1258.4922,-12.337 810.3913,-10.1799"/>
<polygon fill="#191970" stroke="#191970" points="4034.242,-119.9244 4024.7069,-124.543 4035.0411,-126.8787 4034.242,-119.9244"/>
</g>
<!-- Node336&#45;&gt;Node341 -->
<g id="edge81" class="edge">
<title>Node336&#45;&gt;Node341</title>
<path fill="none" stroke="#191970" d="M4122.9868,-185.8479C4122.552,-166.553 4125.3789,-137.9106 4143.659,-123 4208.2103,-70.3472 5559.8296,-95.8583 5642.659,-87 5655.1871,-85.6602 5668.6734,-83.4099 5680.9788,-81.0335"/>
<polygon fill="#191970" stroke="#191970" points="4119.4982,-186.1551 4123.5276,-195.9538 4126.4882,-185.7811 4119.4982,-186.1551"/>
</g>
<!-- Node336&#45;&gt;Node343 -->
<g id="edge82" class="edge">
<title>Node336&#45;&gt;Node343</title>
<path fill="none" stroke="#191970" d="M4145.9421,-189.6559C4163.2926,-176.7395 4187.229,-158.9201 4201.7881,-148.0817"/>
<polygon fill="#191970" stroke="#191970" points="4143.4852,-187.1216 4137.5538,-195.9005 4147.6652,-192.7365 4143.4852,-187.1216"/>
</g>
<!-- Node343&#45;&gt;Node341 -->
<g id="edge83" class="edge">
<title>Node343&#45;&gt;Node341</title>
<path fill="none" stroke="#191970" d="M4286.6741,-137.3616C4538.0414,-133.1599 5375.6634,-117.1807 5642.659,-87 5655.0366,-85.6009 5668.3562,-83.3625 5680.5482,-81.017"/>
<polygon fill="#191970" stroke="#191970" points="4286.5026,-133.8639 4276.5622,-137.5295 4286.6189,-140.8629 4286.5026,-133.8639"/>
</g>
<!-- Node326&#45;&gt;Node4 -->
<g id="edge88" class="edge">
<title>Node326&#45;&gt;Node4</title>
<path fill="none" stroke="#191970" d="M101.3088,-123.1708C131.272,-103.7739 186.4117,-71.0805 238.659,-56 332.1959,-29.0018 629.5952,-15.406 735.0962,-11.3408"/>
<polygon fill="#191970" stroke="#191970" points="99.2845,-120.313 92.8492,-128.7295 103.1285,-126.1631 99.2845,-120.313"/>
</g>
<!-- Node370&#45;&gt;Node329 -->
<g id="edge90" class="edge">
<title>Node370&#45;&gt;Node329</title>
<path fill="none" stroke="#191970" d="M332.7246,-191.5722C304.7485,-178.5555 263.7224,-159.467 239.2525,-148.0817"/>
<polygon fill="#191970" stroke="#191970" points="331.4842,-194.8553 342.0273,-195.9005 334.4372,-188.5086 331.4842,-194.8553"/>
</g>
<!-- Node370&#45;&gt;Node330 -->
<g id="edge92" class="edge">
<title>Node370&#45;&gt;Node330</title>
<path fill="none" stroke="#191970" d="M362.659,-185.6079C362.659,-173.214 362.659,-157.8263 362.659,-148.0817"/>
<polygon fill="#191970" stroke="#191970" points="359.1591,-185.9005 362.659,-195.9005 366.1591,-185.9006 359.1591,-185.9005"/>
</g>
<!-- Node329&#45;&gt;Node4 -->
<g id="edge91" class="edge">
<title>Node329&#45;&gt;Node4</title>
<path fill="none" stroke="#191970" d="M224.98,-119.3672C232.5275,-99.8343 247.1664,-70.3998 270.659,-56 309.9726,-31.9029 624.7763,-16.3058 734.836,-11.5449"/>
<polygon fill="#191970" stroke="#191970" points="221.6803,-118.2001 221.5875,-128.7946 228.2668,-120.5704 221.6803,-118.2001"/>
</g>
<!-- Node330&#45;&gt;Node4 -->
<g id="edge93" class="edge">
<title>Node330&#45;&gt;Node4</title>
<path fill="none" stroke="#191970" d="M331.5908,-124.5634C299.7707,-108.4482 257.9473,-80.9342 280.659,-56 311.0964,-22.5841 624.8612,-13.0115 734.8309,-10.6714"/>
<polygon fill="#191970" stroke="#191970" points="330.1283,-127.7442 340.6498,-128.989 333.2011,-121.4546 330.1283,-127.7442"/>
</g>
<!-- Node327&#45;&gt;Node4 -->
<g id="edge96" class="edge">
<title>Node327&#45;&gt;Node4</title>
<path fill="none" stroke="#191970" d="M1212.7558,-201.0501C1012.4353,-189.6784 498.7641,-160.0244 481.659,-154 459.0959,-146.0533 459.1599,-133.4862 437.659,-123 387.9948,-98.7781 351.5918,-131.3697 318.659,-87 310.4474,-75.9367 309.4208,-66.2216 318.659,-56 346.3814,-25.3269 630.7687,-14.0907 734.8032,-10.9879"/>
<polygon fill="#191970" stroke="#191970" points="1212.7341,-204.5544 1222.9163,-201.6265 1213.1306,-197.5656 1212.7341,-204.5544"/>
</g>
<!-- Node328&#45;&gt;Node4 -->
<g id="edge99" class="edge">
<title>Node328&#45;&gt;Node4</title>
<path fill="none" stroke="#191970" d="M1498.0347,-199.535C1234.4402,-178.5713 371.0755,-108.3904 351.659,-87 342.3988,-76.7983 342.461,-66.2578 351.659,-56 377.0608,-27.6715 636.643,-15.0796 735.0837,-11.2971"/>
<polygon fill="#191970" stroke="#191970" points="1498.0289,-203.0455 1508.2748,-200.3487 1498.5834,-196.0675 1498.0289,-203.0455"/>
</g>
</g>
</svg>
