<?xml version="1.0" encoding="UTF-8" standalone="no"?>
<!DOCTYPE svg PUBLIC "-//W3C//DTD SVG 1.1//EN"
 "http://www.w3.org/Graphics/SVG/1.1/DTD/svg11.dtd">
<!-- Generated by graphviz version 2.40.1 (20161225.0304)
 -->
<!-- Title: sitkTransform.h Pages: 1 -->
<!--zoomable 431 -->
<svg id="main" version="1.1" xmlns="http://www.w3.org/2000/svg" xmlns:xlink="http://www.w3.org/1999/xlink" xml:space="preserve" onload="init(evt)">
<style type="text/css"><![CDATA[
.edge:hover path { stroke: red; }
.edge:hover polygon { stroke: red; fill: red; }
]]></style>
<script type="text/javascript"><![CDATA[
var edges = document.getElementsByTagName('g');
if (edges && edges.length) {
  for (var i=0;i<edges.length;i++) {
    if (edges[i].id.substr(0,4)=='edge') {
      edges[i].setAttribute('class','edge');
    }
  }
}
]]></script>
        <defs>
                <circle id="rim" cx="0" cy="0" r="7"/>
                <circle id="rim2" cx="0" cy="0" r="3.5"/>
                <g id="zoomPlus">
                        <use xlink:href="#rim" fill="#404040">
                                <set attributeName="fill" to="#808080" begin="zoomplus.mouseover" end="zoomplus.mouseout"/>
                        </use>
                        <path d="M-4,0h8M0,-4v8" fill="none" stroke="white" stroke-width="1.5" pointer-events="none"/>
                </g>
                <g id="zoomMin">
                        <use xlink:href="#rim" fill="#404040">
                                <set attributeName="fill" to="#808080" begin="zoomminus.mouseover" end="zoomminus.mouseout"/>
                        </use>
                        <path d="M-4,0h8" fill="none" stroke="white" stroke-width="1.5" pointer-events="none"/>
                </g>
                <g id="dirArrow">
                        <path fill="none" stroke="white" stroke-width="1.5" d="M0,-3.0v7 M-2.5,-0.5L0,-3.0L2.5,-0.5"/>
                </g>
               <g id="resetDef">
                       <use xlink:href="#rim2" fill="#404040">
                               <set attributeName="fill" to="#808080" begin="reset.mouseover" end="reset.mouseout"/>
                       </use>
               </g>
        </defs>

<script type="text/javascript">
var viewWidth = 1431;
var viewHeight = 431;
var sectionId = 'dynsection-0';
</script>
<script xlink:href="svgpan.js"/>
<svg id="graph" class="graph">
<g id="viewport">
<title>sitkTransform.h</title>
<polygon fill="#ffffff" stroke="transparent" points="-4,4 -4,-427 1427.3221,-427 1427.3221,4 -4,4"/>
<!-- Node1 -->
<g id="node1" class="node">
<title>Node1</title>
<g id="a_node1"><a xlink:title=" ">
<polygon fill="#bfbfbf" stroke="#000000" points="1057.8221,-403.5 1057.8221,-422.5 1149.8221,-422.5 1149.8221,-403.5 1057.8221,-403.5"/>
<text text-anchor="middle" x="1103.8221" y="-410.5" font-family="Helvetica,sans-Serif" font-size="10.00" fill="#000000">sitkTransform.h</text>
</a>
</g>
</g>
<!-- Node2 -->
<g id="node2" class="node">
<title>Node2</title>
<g id="a_node2"><a xlink:href="sitkCommon_8h.html" target="_top" xlink:title=" ">
<polygon fill="#ffffff" stroke="#000000" points="838.8221,-112.5 838.8221,-131.5 926.8221,-131.5 926.8221,-112.5 838.8221,-112.5"/>
<text text-anchor="middle" x="882.8221" y="-119.5" font-family="Helvetica,sans-Serif" font-size="10.00" fill="#000000">sitkCommon.h</text>
</a>
</g>
</g>
<!-- Node1&#45;&gt;Node2 -->
<g id="edge1" class="edge">
<title>Node1&#45;&gt;Node2</title>
<path fill="none" stroke="#191970" d="M1059.5927,-403.4454C985.6192,-386.176 844.8221,-347.2338 844.8221,-301 844.8221,-301 844.8221,-301 844.8221,-239.5 844.8221,-203.2454 861.4027,-163.6181 872.6591,-140.8929"/>
<polygon fill="#191970" stroke="#191970" points="875.9186,-142.2076 877.3776,-131.7137 869.693,-139.0073 875.9186,-142.2076"/>
</g>
<!-- Node10 -->
<g id="node10" class="node">
<title>Node10</title>
<g id="a_node10"><a xlink:href="sitkExceptionObject_8h.html" target="_top" xlink:title=" ">
<polygon fill="#ffffff" stroke="#000000" points="1125.3221,-168.5 1125.3221,-187.5 1248.3221,-187.5 1248.3221,-168.5 1125.3221,-168.5"/>
<text text-anchor="middle" x="1186.8221" y="-175.5" font-family="Helvetica,sans-Serif" font-size="10.00" fill="#000000">sitkExceptionObject.h</text>
</a>
</g>
</g>
<!-- Node1&#45;&gt;Node10 -->
<g id="edge9" class="edge">
<title>Node1&#45;&gt;Node10</title>
<path fill="none" stroke="#191970" d="M1106.9283,-403.1596C1109.8354,-393.866 1114.2535,-379.524 1117.8221,-367 1135.843,-303.7561 1128.6255,-283.8739 1155.8221,-224 1160.3264,-214.0837 1166.901,-203.9515 1172.8376,-195.7293"/>
<polygon fill="#191970" stroke="#191970" points="1175.6932,-197.7553 1178.9009,-187.6577 1170.0964,-193.551 1175.6932,-197.7553"/>
</g>
<!-- Node11 -->
<g id="node11" class="node">
<title>Node11</title>
<g id="a_node11"><a xlink:href="sitkImage_8h.html" target="_top" xlink:title=" ">
<polygon fill="#ffffff" stroke="#000000" points="1034.8221,-347.5 1034.8221,-366.5 1108.8221,-366.5 1108.8221,-347.5 1034.8221,-347.5"/>
<text text-anchor="middle" x="1071.8221" y="-354.5" font-family="Helvetica,sans-Serif" font-size="10.00" fill="#000000">sitkImage.h</text>
</a>
</g>
</g>
<!-- Node1&#45;&gt;Node11 -->
<g id="edge12" class="edge">
<title>Node1&#45;&gt;Node11</title>
<path fill="none" stroke="#191970" d="M1098.2481,-403.2455C1093.889,-395.617 1087.7011,-384.7881 1082.4088,-375.5267"/>
<polygon fill="#191970" stroke="#191970" points="1085.3325,-373.5886 1077.3322,-366.6427 1079.2548,-377.0616 1085.3325,-373.5886"/>
</g>
<!-- Node13 -->
<g id="node13" class="node">
<title>Node13</title>
<g id="a_node13"><a xlink:title=" ">
<polygon fill="#ffffff" stroke="#bfbfbf" points="1376.3221,-168.5 1376.3221,-187.5 1423.3221,-187.5 1423.3221,-168.5 1376.3221,-168.5"/>
<text text-anchor="middle" x="1399.8221" y="-175.5" font-family="Helvetica,sans-Serif" font-size="10.00" fill="#000000">vector</text>
</a>
</g>
</g>
<!-- Node1&#45;&gt;Node13 -->
<g id="edge51" class="edge">
<title>Node1&#45;&gt;Node13</title>
<path fill="none" stroke="#191970" d="M1133.5762,-403.3574C1188.0951,-384.1424 1304.0674,-335.8278 1365.8221,-255 1379.2131,-237.4732 1388.6328,-213.8466 1394.1091,-197.406"/>
<polygon fill="#191970" stroke="#191970" points="1397.4762,-198.3656 1397.1404,-187.7761 1390.7992,-196.2638 1397.4762,-198.3656"/>
</g>
<!-- Node3 -->
<g id="node3" class="node">
<title>Node3</title>
<g id="a_node3"><a xlink:href="sitkMacro_8h.html" target="_top" xlink:title=" ">
<polygon fill="#ffffff" stroke="#000000" points="840.3221,-56.5 840.3221,-75.5 913.3221,-75.5 913.3221,-56.5 840.3221,-56.5"/>
<text text-anchor="middle" x="876.8221" y="-63.5" font-family="Helvetica,sans-Serif" font-size="10.00" fill="#000000">sitkMacro.h</text>
</a>
</g>
</g>
<!-- Node2&#45;&gt;Node3 -->
<g id="edge2" class="edge">
<title>Node2&#45;&gt;Node3</title>
<path fill="none" stroke="#191970" d="M881.777,-112.2455C880.9941,-104.9382 879.8965,-94.6944 878.9333,-85.7046"/>
<polygon fill="#191970" stroke="#191970" points="882.4008,-85.2129 877.8553,-75.6427 875.4406,-85.9587 882.4008,-85.2129"/>
</g>
<!-- Node4 -->
<g id="node4" class="node">
<title>Node4</title>
<g id="a_node4"><a xlink:title=" ">
<polygon fill="#ffffff" stroke="#bfbfbf" points="590.3221,-.5 590.3221,-19.5 643.3221,-19.5 643.3221,-.5 590.3221,-.5"/>
<text text-anchor="middle" x="616.8221" y="-7.5" font-family="Helvetica,sans-Serif" font-size="10.00" fill="#000000">stdint.h</text>
</a>
</g>
</g>
<!-- Node3&#45;&gt;Node4 -->
<g id="edge3" class="edge">
<title>Node3&#45;&gt;Node4</title>
<path fill="none" stroke="#191970" d="M840.1219,-58.0953C790.5929,-47.4276 702.8752,-28.5345 653.4061,-17.8796"/>
<polygon fill="#191970" stroke="#191970" points="653.9707,-14.421 643.4579,-15.7369 652.4968,-21.2641 653.9707,-14.421"/>
</g>
<!-- Node5 -->
<g id="node5" class="node">
<title>Node5</title>
<g id="a_node5"><a xlink:title=" ">
<polygon fill="#ffffff" stroke="#bfbfbf" points="740.8221,-.5 740.8221,-19.5 796.8221,-19.5 796.8221,-.5 740.8221,-.5"/>
<text text-anchor="middle" x="768.8221" y="-7.5" font-family="Helvetica,sans-Serif" font-size="10.00" fill="#000000">stddef.h</text>
</a>
</g>
</g>
<!-- Node3&#45;&gt;Node5 -->
<g id="edge4" class="edge">
<title>Node3&#45;&gt;Node5</title>
<path fill="none" stroke="#191970" d="M858.01,-56.2455C840.9748,-47.4125 815.6646,-34.2887 796.354,-24.2758"/>
<polygon fill="#191970" stroke="#191970" points="797.9074,-21.1388 787.4187,-19.6427 794.6851,-27.353 797.9074,-21.1388"/>
</g>
<!-- Node6 -->
<g id="node6" class="node">
<title>Node6</title>
<g id="a_node6"><a xlink:title=" ">
<polygon fill="#ffffff" stroke="#bfbfbf" points="814.8221,-.5 814.8221,-19.5 866.8221,-19.5 866.8221,-.5 814.8221,-.5"/>
<text text-anchor="middle" x="840.8221" y="-7.5" font-family="Helvetica,sans-Serif" font-size="10.00" fill="#000000">cassert</text>
</a>
</g>
</g>
<!-- Node3&#45;&gt;Node6 -->
<g id="edge5" class="edge">
<title>Node3&#45;&gt;Node6</title>
<path fill="none" stroke="#191970" d="M870.5514,-56.2455C865.5957,-48.5367 858.5391,-37.5598 852.5445,-28.2348"/>
<polygon fill="#191970" stroke="#191970" points="855.3727,-26.1618 847.021,-19.6427 849.4845,-29.9471 855.3727,-26.1618"/>
</g>
<!-- Node7 -->
<g id="node7" class="node">
<title>Node7</title>
<g id="a_node7"><a xlink:title=" ">
<polygon fill="#ffffff" stroke="#bfbfbf" points="884.8221,-.5 884.8221,-19.5 940.8221,-19.5 940.8221,-.5 884.8221,-.5"/>
<text text-anchor="middle" x="912.8221" y="-7.5" font-family="Helvetica,sans-Serif" font-size="10.00" fill="#000000">sstream</text>
</a>
</g>
</g>
<!-- Node3&#45;&gt;Node7 -->
<g id="edge6" class="edge">
<title>Node3&#45;&gt;Node7</title>
<path fill="none" stroke="#191970" d="M883.0928,-56.2455C888.0485,-48.5367 895.1051,-37.5598 901.0997,-28.2348"/>
<polygon fill="#191970" stroke="#191970" points="904.1598,-29.9471 906.6233,-19.6427 898.2715,-26.1618 904.1598,-29.9471"/>
</g>
<!-- Node8 -->
<g id="node8" class="node">
<title>Node8</title>
<g id="a_node8"><a xlink:title=" ">
<polygon fill="#ffffff" stroke="#bfbfbf" points="958.8221,-.5 958.8221,-19.5 1002.8221,-19.5 1002.8221,-.5 958.8221,-.5"/>
<text text-anchor="middle" x="980.8221" y="-7.5" font-family="Helvetica,sans-Serif" font-size="10.00" fill="#000000">limits</text>
</a>
</g>
</g>
<!-- Node3&#45;&gt;Node8 -->
<g id="edge7" class="edge">
<title>Node3&#45;&gt;Node8</title>
<path fill="none" stroke="#191970" d="M894.9375,-56.2455C911.2672,-47.4527 935.4931,-34.4079 954.056,-24.4125"/>
<polygon fill="#191970" stroke="#191970" points="955.7689,-27.4654 962.9143,-19.6427 952.4502,-21.3021 955.7689,-27.4654"/>
</g>
<!-- Node9 -->
<g id="node9" class="node">
<title>Node9</title>
<g id="a_node9"><a xlink:href="sitkConfigure_8h.html" target="_top" xlink:title=" ">
<polygon fill="#ffffff" stroke="#000000" points="441.8221,-.5 441.8221,-19.5 531.8221,-19.5 531.8221,-.5 441.8221,-.5"/>
<text text-anchor="middle" x="486.8221" y="-7.5" font-family="Helvetica,sans-Serif" font-size="10.00" fill="#000000">sitkConfigure.h</text>
</a>
</g>
</g>
<!-- Node3&#45;&gt;Node9 -->
<g id="edge8" class="edge">
<title>Node3&#45;&gt;Node9</title>
<path fill="none" stroke="#191970" d="M840.1074,-59.228C833.6868,-58.1054 827.0652,-56.9869 820.8221,-56 722.9993,-40.5358 608.5837,-25.419 542.2405,-16.9456"/>
<polygon fill="#191970" stroke="#191970" points="542.3775,-13.4348 532.0155,-15.6436 541.4933,-20.3788 542.3775,-13.4348"/>
</g>
<!-- Node10&#45;&gt;Node2 -->
<g id="edge11" class="edge">
<title>Node10&#45;&gt;Node2</title>
<path fill="none" stroke="#191970" d="M1134.9081,-168.4369C1079.8303,-158.291 993.1912,-142.3311 937.1953,-132.0161"/>
<polygon fill="#191970" stroke="#191970" points="937.5794,-128.5281 927.1108,-130.1584 936.3113,-135.4122 937.5794,-128.5281"/>
</g>
<!-- Node10&#45;&gt;Node3 -->
<g id="edge10" class="edge">
<title>Node10&#45;&gt;Node3</title>
<path fill="none" stroke="#191970" d="M1160.3917,-168.4509C1104.7981,-148.3655 975.7131,-101.7284 912.7087,-78.9655"/>
<polygon fill="#191970" stroke="#191970" points="913.78,-75.6311 903.1857,-75.5249 911.4014,-82.2146 913.78,-75.6311"/>
</g>
<!-- Node11&#45;&gt;Node2 -->
<g id="edge13" class="edge">
<title>Node11&#45;&gt;Node2</title>
<path fill="none" stroke="#191970" d="M1034.5256,-350.8087C992.8845,-343.1328 929.1748,-328.8529 912.8221,-311 869.5049,-263.7089 874.4558,-180.2779 879.5121,-142.0957"/>
<polygon fill="#191970" stroke="#191970" points="883.0356,-142.1924 881.0313,-131.7889 876.1104,-141.1716 883.0356,-142.1924"/>
</g>
<!-- Node12 -->
<g id="node12" class="node">
<title>Node12</title>
<g id="a_node12"><a xlink:href="sitkTemplateFunctions_8h.html" target="_top" xlink:title=" ">
<polygon fill="#ffffff" stroke="#000000" points="1164.8221,-230 1164.8221,-249 1298.8221,-249 1298.8221,-230 1164.8221,-230"/>
<text text-anchor="middle" x="1231.8221" y="-237" font-family="Helvetica,sans-Serif" font-size="10.00" fill="#000000">sitkTemplateFunctions.h</text>
</a>
</g>
</g>
<!-- Node11&#45;&gt;Node12 -->
<g id="edge14" class="edge">
<title>Node11&#45;&gt;Node12</title>
<path fill="none" stroke="#191970" d="M1084.9156,-347.3845C1112.4573,-327.1585 1176.6126,-280.0445 1210.2957,-255.3085"/>
<polygon fill="#191970" stroke="#191970" points="1212.5594,-257.9885 1218.5477,-249.2484 1208.416,-252.3465 1212.5594,-257.9885"/>
</g>
<!-- Node11&#45;&gt;Node13 -->
<g id="edge48" class="edge">
<title>Node11&#45;&gt;Node13</title>
<path fill="none" stroke="#191970" d="M1109.1009,-354.5934C1150.6711,-350.5412 1218.7676,-339.7282 1269.8221,-311 1322.1284,-281.5674 1367.0147,-224.7558 1387.679,-195.8429"/>
<polygon fill="#191970" stroke="#191970" points="1390.6477,-197.7052 1393.5158,-187.506 1384.9133,-193.6905 1390.6477,-197.7052"/>
</g>
<!-- Node16 -->
<g id="node16" class="node">
<title>Node16</title>
<g id="a_node16"><a xlink:href="sitkDetail_8h.html" target="_top" xlink:title=" ">
<polygon fill="#ffffff" stroke="#000000" points="673.3221,-291.5 673.3221,-310.5 746.3221,-310.5 746.3221,-291.5 673.3221,-291.5"/>
<text text-anchor="middle" x="709.8221" y="-298.5" font-family="Helvetica,sans-Serif" font-size="10.00" fill="#000000">sitkDetail.h</text>
</a>
</g>
</g>
<!-- Node11&#45;&gt;Node16 -->
<g id="edge21" class="edge">
<title>Node11&#45;&gt;Node16</title>
<path fill="none" stroke="#191970" d="M1034.783,-351.2702C968.4868,-341.0144 829.6774,-319.5411 756.7972,-308.2669"/>
<polygon fill="#191970" stroke="#191970" points="756.9567,-304.75 746.5392,-306.68 755.8865,-311.6677 756.9567,-304.75"/>
</g>
<!-- Node27 -->
<g id="node27" class="node">
<title>Node27</title>
<g id="a_node27"><a xlink:href="sitkPixelIDTokens_8h.html" target="_top" xlink:title=" ">
<polygon fill="#ffffff" stroke="#000000" points="921.8221,-291.5 921.8221,-310.5 1033.8221,-310.5 1033.8221,-291.5 921.8221,-291.5"/>
<text text-anchor="middle" x="977.8221" y="-298.5" font-family="Helvetica,sans-Serif" font-size="10.00" fill="#000000">sitkPixelIDTokens.h</text>
</a>
</g>
</g>
<!-- Node11&#45;&gt;Node27 -->
<g id="edge40" class="edge">
<title>Node11&#45;&gt;Node27</title>
<path fill="none" stroke="#191970" d="M1055.4486,-347.2455C1040.8913,-338.5731 1019.3911,-325.7645 1002.7069,-315.825"/>
<polygon fill="#191970" stroke="#191970" points="1004.3904,-312.7539 994.008,-310.6427 1000.8077,-318.7676 1004.3904,-312.7539"/>
</g>
<!-- Node30 -->
<g id="node30" class="node">
<title>Node30</title>
<g id="a_node30"><a xlink:title=" ">
<polygon fill="#ffffff" stroke="#bfbfbf" points="1039.3221,-230 1039.3221,-249 1108.3221,-249 1108.3221,-230 1039.3221,-230"/>
<text text-anchor="middle" x="1073.8221" y="-237" font-family="Helvetica,sans-Serif" font-size="10.00" fill="#000000">type_traits</text>
</a>
</g>
</g>
<!-- Node11&#45;&gt;Node30 -->
<g id="edge50" class="edge">
<title>Node11&#45;&gt;Node30</title>
<path fill="none" stroke="#191970" d="M1071.9858,-347.3845C1072.3125,-328.1913 1073.0513,-284.786 1073.4857,-259.2663"/>
<polygon fill="#191970" stroke="#191970" points="1076.9854,-259.3065 1073.6562,-249.2484 1069.9864,-259.1873 1076.9854,-259.3065"/>
</g>
<!-- Node31 -->
<g id="node31" class="node">
<title>Node31</title>
<g id="a_node31"><a xlink:title=" ">
<polygon fill="#ffffff" stroke="#bfbfbf" points="1202.8221,-291.5 1202.8221,-310.5 1260.8221,-310.5 1260.8221,-291.5 1202.8221,-291.5"/>
<text text-anchor="middle" x="1231.8221" y="-298.5" font-family="Helvetica,sans-Serif" font-size="10.00" fill="#000000">memory</text>
</a>
</g>
</g>
<!-- Node11&#45;&gt;Node31 -->
<g id="edge49" class="edge">
<title>Node11&#45;&gt;Node31</title>
<path fill="none" stroke="#191970" d="M1099.3271,-347.3733C1125.7023,-338.1419 1165.7073,-324.1402 1194.8579,-313.9375"/>
<polygon fill="#191970" stroke="#191970" points="1196.3937,-317.1082 1204.6761,-310.5011 1194.0812,-310.5012 1196.3937,-317.1082"/>
</g>
<!-- Node12&#45;&gt;Node2 -->
<g id="edge16" class="edge">
<title>Node12&#45;&gt;Node2</title>
<path fill="none" stroke="#191970" d="M1209.6166,-229.9704C1186.3374,-219.8836 1148.7722,-203.3332 1116.8221,-188 1099.2602,-179.5718 1096.1023,-174.7299 1077.8221,-168 1031.5795,-150.9755 976.8003,-138.7063 937.0941,-131.1429"/>
<polygon fill="#191970" stroke="#191970" points="937.5556,-127.6687 927.0832,-129.2747 936.2714,-134.5499 937.5556,-127.6687"/>
</g>
<!-- Node12&#45;&gt;Node3 -->
<g id="edge15" class="edge">
<title>Node12&#45;&gt;Node3</title>
<path fill="none" stroke="#191970" d="M1240.7525,-229.8112C1253.1425,-215.1633 1272.4584,-187.0701 1257.8221,-168 1217.0348,-114.8569 1016.0238,-83.3637 923.5395,-71.4709"/>
<polygon fill="#191970" stroke="#191970" points="923.9702,-67.9975 913.6102,-70.2159 923.0924,-74.9423 923.9702,-67.9975"/>
</g>
<!-- Node12&#45;&gt;Node10 -->
<g id="edge17" class="edge">
<title>Node12&#45;&gt;Node10</title>
<path fill="none" stroke="#191970" d="M1224.7909,-229.8906C1218.1592,-220.8273 1208.0525,-207.0149 1199.9334,-195.9188"/>
<polygon fill="#191970" stroke="#191970" points="1202.6823,-193.7484 1193.9525,-187.7449 1197.033,-197.882 1202.6823,-193.7484"/>
</g>
<!-- Node12&#45;&gt;Node13 -->
<g id="edge18" class="edge">
<title>Node12&#45;&gt;Node13</title>
<path fill="none" stroke="#191970" d="M1258.0721,-229.8906C1287.3009,-219.1908 1334.6106,-201.8721 1366.4468,-190.2178"/>
<polygon fill="#191970" stroke="#191970" points="1368.0095,-193.3729 1376.1969,-186.6485 1365.6031,-186.7995 1368.0095,-193.3729"/>
</g>
<!-- Node14 -->
<g id="node14" class="node">
<title>Node14</title>
<g id="a_node14"><a xlink:title=" ">
<polygon fill="#ffffff" stroke="#bfbfbf" points="1011.3221,-168.5 1011.3221,-187.5 1068.3221,-187.5 1068.3221,-168.5 1011.3221,-168.5"/>
<text text-anchor="middle" x="1039.8221" y="-175.5" font-family="Helvetica,sans-Serif" font-size="10.00" fill="#000000">ostream</text>
</a>
</g>
</g>
<!-- Node12&#45;&gt;Node14 -->
<g id="edge19" class="edge">
<title>Node12&#45;&gt;Node14</title>
<path fill="none" stroke="#191970" d="M1201.8221,-229.8906C1168.466,-219.2062 1114.5055,-201.922 1078.123,-190.2683"/>
<polygon fill="#191970" stroke="#191970" points="1078.9502,-186.8581 1068.3591,-187.1408 1076.8148,-193.5245 1078.9502,-186.8581"/>
</g>
<!-- Node15 -->
<g id="node15" class="node">
<title>Node15</title>
<g id="a_node15"><a xlink:title=" ">
<polygon fill="#ffffff" stroke="#bfbfbf" points="1305.3221,-168.5 1305.3221,-187.5 1358.3221,-187.5 1358.3221,-168.5 1305.3221,-168.5"/>
<text text-anchor="middle" x="1331.8221" y="-175.5" font-family="Helvetica,sans-Serif" font-size="10.00" fill="#000000">iterator</text>
</a>
</g>
</g>
<!-- Node12&#45;&gt;Node15 -->
<g id="edge20" class="edge">
<title>Node12&#45;&gt;Node15</title>
<path fill="none" stroke="#191970" d="M1247.4471,-229.8906C1263.5919,-219.9616 1289.0043,-204.333 1307.7245,-192.8201"/>
<polygon fill="#191970" stroke="#191970" points="1309.6223,-195.7619 1316.3068,-187.5419 1305.9553,-189.7992 1309.6223,-195.7619"/>
</g>
<!-- Node17 -->
<g id="node17" class="node">
<title>Node17</title>
<g id="a_node17"><a xlink:href="sitkMemberFunctionFactoryBase_8h.html" target="_top" xlink:title=" ">
<polygon fill="#ffffff" stroke="#000000" points="219.8221,-224.5 219.8221,-254.5 369.8221,-254.5 369.8221,-224.5 219.8221,-224.5"/>
<text text-anchor="start" x="227.8221" y="-242.5" font-family="Helvetica,sans-Serif" font-size="10.00" fill="#000000">sitkMemberFunctionFactory</text>
<text text-anchor="middle" x="294.8221" y="-231.5" font-family="Helvetica,sans-Serif" font-size="10.00" fill="#000000">Base.h</text>
</a>
</g>
</g>
<!-- Node16&#45;&gt;Node17 -->
<g id="edge22" class="edge">
<title>Node16&#45;&gt;Node17</title>
<path fill="none" stroke="#191970" d="M672.9936,-295.5423C607.6976,-285.8659 470.0561,-265.4684 380.0773,-252.1342"/>
<polygon fill="#191970" stroke="#191970" points="380.5704,-248.6691 370.1653,-250.6653 379.5442,-255.5935 380.5704,-248.6691"/>
</g>
<!-- Node23 -->
<g id="node23" class="node">
<title>Node23</title>
<g id="a_node23"><a xlink:title=" ">
<polygon fill="#ffffff" stroke="#bfbfbf" points="640.8221,-168.5 640.8221,-187.5 778.8221,-187.5 778.8221,-168.5 640.8221,-168.5"/>
<text text-anchor="middle" x="709.8221" y="-175.5" font-family="Helvetica,sans-Serif" font-size="10.00" fill="#000000">Ancillary/FunctionTraits.h</text>
</a>
</g>
</g>
<!-- Node16&#45;&gt;Node23 -->
<g id="edge39" class="edge">
<title>Node16&#45;&gt;Node23</title>
<path fill="none" stroke="#191970" d="M709.8221,-291.3484C709.8221,-271.2295 709.8221,-224.4608 709.8221,-197.7098"/>
<polygon fill="#191970" stroke="#191970" points="713.3222,-197.6067 709.8221,-187.6068 706.3222,-197.6068 713.3222,-197.6067"/>
</g>
<!-- Node17&#45;&gt;Node3 -->
<g id="edge31" class="edge">
<title>Node17&#45;&gt;Node3</title>
<path fill="none" stroke="#191970" d="M353.9432,-224.4081C387.0503,-215.2602 428.7955,-202.557 464.8221,-188 482.8831,-180.7023 485.6635,-175.0513 503.8221,-168 617.8995,-123.7021 758.6364,-90.7732 830.2277,-75.4825"/>
<polygon fill="#191970" stroke="#191970" points="831.2189,-78.8503 840.2772,-73.3552 829.7692,-72.0021 831.2189,-78.8503"/>
</g>
<!-- Node17&#45;&gt;Node9 -->
<g id="edge23" class="edge">
<title>Node17&#45;&gt;Node9</title>
<path fill="none" stroke="#191970" d="M219.5472,-234.5108C149.1351,-228.2472 50.8691,-214.8808 23.8221,-188 -.3855,-163.9411 -8.623,-138.5508 12.8221,-112 64.9453,-47.4673 317.777,-21.8417 431.3657,-13.4657"/>
<polygon fill="#191970" stroke="#191970" points="431.8631,-16.9391 441.5864,-12.7311 431.3612,-9.9571 431.8631,-16.9391"/>
</g>
<!-- Node18 -->
<g id="node18" class="node">
<title>Node18</title>
<g id="a_node18"><a xlink:href="sitkPixelIDTypes_8h.html" target="_top" xlink:title=" ">
<polygon fill="#ffffff" stroke="#000000" points="21.8221,-112.5 21.8221,-131.5 127.8221,-131.5 127.8221,-112.5 21.8221,-112.5"/>
<text text-anchor="middle" x="74.8221" y="-119.5" font-family="Helvetica,sans-Serif" font-size="10.00" fill="#000000">sitkPixelIDTypes.h</text>
</a>
</g>
</g>
<!-- Node17&#45;&gt;Node18 -->
<g id="edge24" class="edge">
<title>Node17&#45;&gt;Node18</title>
<path fill="none" stroke="#191970" d="M219.6312,-235.1676C150.4895,-229.4264 55.2563,-216.468 31.8221,-188 18.6016,-171.9395 36.2727,-151.6635 52.7928,-137.8516"/>
<polygon fill="#191970" stroke="#191970" points="54.9866,-140.5789 60.6697,-131.6373 50.6509,-135.0833 54.9866,-140.5789"/>
</g>
<!-- Node19 -->
<g id="node19" class="node">
<title>Node19</title>
<g id="a_node19"><a xlink:href="sitkPixelIDTypeLists_8h.html" target="_top" xlink:title=" ">
<polygon fill="#ffffff" stroke="#000000" points="333.3221,-168.5 333.3221,-187.5 456.3221,-187.5 456.3221,-168.5 333.3221,-168.5"/>
<text text-anchor="middle" x="394.8221" y="-175.5" font-family="Helvetica,sans-Serif" font-size="10.00" fill="#000000">sitkPixelIDTypeLists.h</text>
</a>
</g>
</g>
<!-- Node17&#45;&gt;Node19 -->
<g id="edge25" class="edge">
<title>Node17&#45;&gt;Node19</title>
<path fill="none" stroke="#191970" d="M319.2849,-224.4554C334.9456,-214.8241 355.1753,-202.3828 370.7577,-192.7996"/>
<polygon fill="#191970" stroke="#191970" points="372.6411,-195.7503 379.3257,-187.5303 368.9741,-189.7876 372.6411,-195.7503"/>
</g>
<!-- Node20 -->
<g id="node20" class="node">
<title>Node20</title>
<g id="a_node20"><a xlink:title=" ">
<polygon fill="#ffffff" stroke="#bfbfbf" points="178.3221,-112.5 178.3221,-131.5 289.3221,-131.5 289.3221,-112.5 178.3221,-112.5"/>
<text text-anchor="middle" x="233.8221" y="-119.5" font-family="Helvetica,sans-Serif" font-size="10.00" fill="#000000">Ancillary/TypeList.h</text>
</a>
</g>
</g>
<!-- Node17&#45;&gt;Node20 -->
<g id="edge34" class="edge">
<title>Node17&#45;&gt;Node20</title>
<path fill="none" stroke="#191970" d="M230.1035,-224.4523C211.3197,-216.759 192.9019,-205.2258 181.8221,-188 170.0366,-169.677 189.7,-150.2702 208.1296,-137.2803"/>
<polygon fill="#191970" stroke="#191970" points="210.2634,-140.065 216.663,-131.6213 206.3946,-134.2312 210.2634,-140.065"/>
</g>
<!-- Node22 -->
<g id="node22" class="node">
<title>Node22</title>
<g id="a_node22"><a xlink:href="sitkNonCopyable_8h.html" target="_top" xlink:title=" ">
<polygon fill="#ffffff" stroke="#000000" points="513.3221,-168.5 513.3221,-187.5 622.3221,-187.5 622.3221,-168.5 513.3221,-168.5"/>
<text text-anchor="middle" x="567.8221" y="-175.5" font-family="Helvetica,sans-Serif" font-size="10.00" fill="#000000">sitkNonCopyable.h</text>
</a>
</g>
</g>
<!-- Node17&#45;&gt;Node22 -->
<g id="edge32" class="edge">
<title>Node17&#45;&gt;Node22</title>
<path fill="none" stroke="#191970" d="M361.6054,-224.4554C409.0541,-213.7664 471.866,-199.6165 515.6482,-189.7535"/>
<polygon fill="#191970" stroke="#191970" points="516.5305,-193.1425 525.5168,-187.5303 514.9921,-186.3136 516.5305,-193.1425"/>
</g>
<!-- Node17&#45;&gt;Node23 -->
<g id="edge35" class="edge">
<title>Node17&#45;&gt;Node23</title>
<path fill="none" stroke="#191970" d="M369.9755,-228.3628C445.155,-217.2218 560.1149,-200.1855 635.1309,-189.0687"/>
<polygon fill="#191970" stroke="#191970" points="636.0637,-192.4688 645.4426,-187.5406 635.0375,-185.5444 636.0637,-192.4688"/>
</g>
<!-- Node24 -->
<g id="node24" class="node">
<title>Node24</title>
<g id="a_node24"><a xlink:title=" ">
<polygon fill="#ffffff" stroke="#bfbfbf" points="41.3221,-168.5 41.3221,-187.5 134.3221,-187.5 134.3221,-168.5 41.3221,-168.5"/>
<text text-anchor="middle" x="87.8221" y="-175.5" font-family="Helvetica,sans-Serif" font-size="10.00" fill="#000000">unordered_map</text>
</a>
</g>
</g>
<!-- Node17&#45;&gt;Node24 -->
<g id="edge36" class="edge">
<title>Node17&#45;&gt;Node24</title>
<path fill="none" stroke="#191970" d="M244.1842,-224.4554C209.0398,-214.0139 162.7797,-200.27 129.7118,-190.4455"/>
<polygon fill="#191970" stroke="#191970" points="130.4825,-187.0233 119.8998,-187.5303 128.4888,-193.7334 130.4825,-187.0233"/>
</g>
<!-- Node25 -->
<g id="node25" class="node">
<title>Node25</title>
<g id="a_node25"><a xlink:title=" ">
<polygon fill="#ffffff" stroke="#bfbfbf" points="191.3221,-168.5 191.3221,-187.5 256.3221,-187.5 256.3221,-168.5 191.3221,-168.5"/>
<text text-anchor="middle" x="223.8221" y="-175.5" font-family="Helvetica,sans-Serif" font-size="10.00" fill="#000000">functional</text>
</a>
</g>
</g>
<!-- Node17&#45;&gt;Node25 -->
<g id="edge37" class="edge">
<title>Node17&#45;&gt;Node25</title>
<path fill="none" stroke="#191970" d="M277.2716,-224.2977C266.8001,-215.2274 253.501,-203.7077 242.7883,-194.4285"/>
<polygon fill="#191970" stroke="#191970" points="245.0404,-191.7487 235.1901,-187.8469 240.4572,-197.0398 245.0404,-191.7487"/>
</g>
<!-- Node26 -->
<g id="node26" class="node">
<title>Node26</title>
<g id="a_node26"><a xlink:title=" ">
<polygon fill="#ffffff" stroke="#bfbfbf" points="274.3221,-168.5 274.3221,-187.5 315.3221,-187.5 315.3221,-168.5 274.3221,-168.5"/>
<text text-anchor="middle" x="294.8221" y="-175.5" font-family="Helvetica,sans-Serif" font-size="10.00" fill="#000000">tuple</text>
</a>
</g>
</g>
<!-- Node17&#45;&gt;Node26 -->
<g id="edge38" class="edge">
<title>Node17&#45;&gt;Node26</title>
<path fill="none" stroke="#191970" d="M294.8221,-224.2977C294.8221,-216.3834 294.8221,-206.6043 294.8221,-198.0759"/>
<polygon fill="#191970" stroke="#191970" points="298.3222,-197.8469 294.8221,-187.8469 291.3222,-197.847 298.3222,-197.8469"/>
</g>
<!-- Node19&#45;&gt;Node4 -->
<g id="edge26" class="edge">
<title>Node19&#45;&gt;Node4</title>
<path fill="none" stroke="#191970" d="M405.8525,-168.3262C420.9252,-155.2142 448.9307,-131.2301 473.8221,-112 515.4131,-79.8684 565.817,-44.7701 594.3166,-25.2632"/>
<polygon fill="#191970" stroke="#191970" points="596.4736,-28.0286 602.7612,-19.5011 592.5282,-22.2464 596.4736,-28.0286"/>
</g>
<!-- Node19&#45;&gt;Node9 -->
<g id="edge27" class="edge">
<title>Node19&#45;&gt;Node9</title>
<path fill="none" stroke="#191970" d="M381.15,-168.3245C365.2376,-155.7925 342.3892,-133.053 352.8221,-112 373.9128,-69.4402 422.202,-39.8192 454.674,-23.8553"/>
<polygon fill="#191970" stroke="#191970" points="456.2548,-26.9792 463.7864,-19.5277 453.2519,-20.656 456.2548,-26.9792"/>
</g>
<!-- Node19&#45;&gt;Node18 -->
<g id="edge28" class="edge">
<title>Node19&#45;&gt;Node18</title>
<path fill="none" stroke="#191970" d="M340.1758,-168.4369C284.0679,-158.618 196.8448,-143.354 137.8551,-133.0308"/>
<polygon fill="#191970" stroke="#191970" points="138.3659,-129.567 127.9122,-131.2908 137.1592,-136.4623 138.3659,-129.567"/>
</g>
<!-- Node19&#45;&gt;Node20 -->
<g id="edge29" class="edge">
<title>Node19&#45;&gt;Node20</title>
<path fill="none" stroke="#191970" d="M367.1452,-168.3733C340.4893,-159.1016 299.9984,-145.0178 270.6337,-134.804"/>
<polygon fill="#191970" stroke="#191970" points="271.7327,-131.4807 261.1379,-131.5011 269.433,-138.0921 271.7327,-131.4807"/>
</g>
<!-- Node21 -->
<g id="node21" class="node">
<title>Node21</title>
<g id="a_node21"><a xlink:title=" ">
<polygon fill="#ffffff" stroke="#bfbfbf" points="362.3221,-112.5 362.3221,-131.5 421.3221,-131.5 421.3221,-112.5 362.3221,-112.5"/>
<text text-anchor="middle" x="391.8221" y="-119.5" font-family="Helvetica,sans-Serif" font-size="10.00" fill="#000000">complex</text>
</a>
</g>
</g>
<!-- Node19&#45;&gt;Node21 -->
<g id="edge30" class="edge">
<title>Node19&#45;&gt;Node21</title>
<path fill="none" stroke="#191970" d="M394.2996,-168.2455C393.9081,-160.9382 393.3593,-150.6944 392.8777,-141.7046"/>
<polygon fill="#191970" stroke="#191970" points="396.3687,-141.4411 392.3387,-131.6427 389.3787,-141.8156 396.3687,-141.4411"/>
</g>
<!-- Node22&#45;&gt;Node2 -->
<g id="edge33" class="edge">
<title>Node22&#45;&gt;Node2</title>
<path fill="none" stroke="#191970" d="M621.6146,-168.4369C679.301,-158.1815 770.4003,-141.9861 828.3482,-131.6843"/>
<polygon fill="#191970" stroke="#191970" points="829.1801,-135.0913 838.4131,-129.8949 827.9548,-128.1994 829.1801,-135.0913"/>
</g>
<!-- Node27&#45;&gt;Node9 -->
<g id="edge41" class="edge">
<title>Node27&#45;&gt;Node9</title>
<path fill="none" stroke="#191970" d="M938.5913,-291.4555C888.1062,-276.5564 806.8221,-242.5456 806.8221,-178 806.8221,-178 806.8221,-178 806.8221,-122 806.8221,-66.5432 633.4425,-32.0446 541.9253,-17.6976"/>
<polygon fill="#191970" stroke="#191970" points="542.4076,-14.2307 531.9916,-16.169 541.3429,-21.1493 542.4076,-14.2307"/>
</g>
<!-- Node28 -->
<g id="node28" class="node">
<title>Node28</title>
<g id="a_node28"><a xlink:href="sitkPixelIDValues_8h.html" target="_top" xlink:title=" ">
<polygon fill="#ffffff" stroke="#000000" points="910.8221,-230 910.8221,-249 1020.8221,-249 1020.8221,-230 910.8221,-230"/>
<text text-anchor="middle" x="965.8221" y="-237" font-family="Helvetica,sans-Serif" font-size="10.00" fill="#000000">sitkPixelIDValues.h</text>
</a>
</g>
</g>
<!-- Node27&#45;&gt;Node28 -->
<g id="edge42" class="edge">
<title>Node27&#45;&gt;Node28</title>
<path fill="none" stroke="#191970" d="M975.9471,-291.3906C974.2662,-282.776 971.7481,-269.8708 969.6437,-259.0858"/>
<polygon fill="#191970" stroke="#191970" points="973.074,-258.3895 967.7236,-249.2449 966.2035,-259.7301 973.074,-258.3895"/>
</g>
<!-- Node27&#45;&gt;Node30 -->
<g id="edge47" class="edge">
<title>Node27&#45;&gt;Node30</title>
<path fill="none" stroke="#191970" d="M992.8221,-291.3906C1008.1802,-281.5519 1032.2742,-266.1167 1050.1967,-254.6351"/>
<polygon fill="#191970" stroke="#191970" points="1052.3951,-257.3833 1058.9275,-249.0419 1048.6191,-251.4891 1052.3951,-257.3833"/>
</g>
<!-- Node28&#45;&gt;Node2 -->
<g id="edge43" class="edge">
<title>Node28&#45;&gt;Node2</title>
<path fill="none" stroke="#191970" d="M968.3357,-229.8868C971.5635,-215.3377 975.4641,-187.3717 963.8221,-168 954.9229,-153.1922 939.3459,-142.7326 924.2139,-135.5708"/>
<polygon fill="#191970" stroke="#191970" points="925.4797,-132.3047 914.9133,-131.5284 922.6893,-138.7245 925.4797,-132.3047"/>
</g>
<!-- Node28&#45;&gt;Node14 -->
<g id="edge46" class="edge">
<title>Node28&#45;&gt;Node14</title>
<path fill="none" stroke="#191970" d="M977.3846,-229.8906C988.83,-220.3786 1006.5694,-205.6357 1020.2191,-194.2917"/>
<polygon fill="#191970" stroke="#191970" points="1022.6429,-196.8283 1028.0966,-187.7449 1018.1688,-191.4447 1022.6429,-196.8283"/>
</g>
<!-- Node28&#45;&gt;Node19 -->
<g id="edge44" class="edge">
<title>Node28&#45;&gt;Node19</title>
<path fill="none" stroke="#191970" d="M910.8131,-233.5752C807.0333,-222.3975 582.4172,-198.2051 466.7987,-185.7523"/>
<polygon fill="#191970" stroke="#191970" points="466.9517,-182.2486 456.6344,-184.6575 466.2021,-189.2084 466.9517,-182.2486"/>
</g>
<!-- Node29 -->
<g id="node29" class="node">
<title>Node29</title>
<g id="a_node29"><a xlink:title=" ">
<polygon fill="#ffffff" stroke="#bfbfbf" points="910.8221,-168.5 910.8221,-187.5 954.8221,-187.5 954.8221,-168.5 910.8221,-168.5"/>
<text text-anchor="middle" x="932.8221" y="-175.5" font-family="Helvetica,sans-Serif" font-size="10.00" fill="#000000">string</text>
</a>
</g>
</g>
<!-- Node28&#45;&gt;Node29 -->
<g id="edge45" class="edge">
<title>Node28&#45;&gt;Node29</title>
<path fill="none" stroke="#191970" d="M960.6659,-229.8906C955.8989,-221.0068 948.6836,-207.5601 942.7925,-196.5811"/>
<polygon fill="#191970" stroke="#191970" points="945.8634,-194.9016 938.0511,-187.7449 939.6952,-198.2114 945.8634,-194.9016"/>
</g>
</g>
</svg>
        <g id="navigator" transform="translate(0 0)" fill="#404254">
                <rect fill="#f2f5e9" fill-opacity="0.5" stroke="#606060" stroke-width=".5" x="0" y="0" width="60" height="60"/>
                <use id="zoomplus" xlink:href="#zoomPlus" x="17" y="9" onmousedown="handleZoom(evt,'in')"/>
                <use id="zoomminus" xlink:href="#zoomMin" x="42" y="9" onmousedown="handleZoom(evt,'out')"/>
                <use id="reset" xlink:href="#resetDef" x="30" y="36" onmousedown="handleReset()"/>
                <g id="arrowUp" xlink:href="#dirArrow" transform="translate(30 24)" onmousedown="handlePan(0,-1)">
                  <use xlink:href="#rim" fill="#404040">
                        <set attributeName="fill" to="#808080" begin="arrowUp.mouseover" end="arrowUp.mouseout"/>
                  </use>
                  <path fill="none" stroke="white" stroke-width="1.5" d="M0,-3.0v7 M-2.5,-0.5L0,-3.0L2.5,-0.5"/>
                </g>
                <g id="arrowRight" xlink:href="#dirArrow" transform="rotate(90) translate(36 -43)" onmousedown="handlePan(1,0)">
                  <use xlink:href="#rim" fill="#404040">
                        <set attributeName="fill" to="#808080" begin="arrowRight.mouseover" end="arrowRight.mouseout"/>
                  </use>
                  <path fill="none" stroke="white" stroke-width="1.5" d="M0,-3.0v7 M-2.5,-0.5L0,-3.0L2.5,-0.5"/>
                </g>
                <g id="arrowDown" xlink:href="#dirArrow" transform="rotate(180) translate(-30 -48)" onmousedown="handlePan(0,1)">
                  <use xlink:href="#rim" fill="#404040">
                        <set attributeName="fill" to="#808080" begin="arrowDown.mouseover" end="arrowDown.mouseout"/>
                  </use>
                  <path fill="none" stroke="white" stroke-width="1.5" d="M0,-3.0v7 M-2.5,-0.5L0,-3.0L2.5,-0.5"/>
                </g>
                <g id="arrowLeft" xlink:href="#dirArrow" transform="rotate(270) translate(-36 17)" onmousedown="handlePan(-1,0)">
                  <use xlink:href="#rim" fill="#404040">
                        <set attributeName="fill" to="#808080" begin="arrowLeft.mouseover" end="arrowLeft.mouseout"/>
                  </use>
                  <path fill="none" stroke="white" stroke-width="1.5" d="M0,-3.0v7 M-2.5,-0.5L0,-3.0L2.5,-0.5"/>
                </g>
        </g>
        <svg viewBox="0 0 15 15" width="100%" height="30px" preserveAspectRatio="xMaxYMin meet">
         <g id="arrow_out" transform="scale(0.3 0.3)">
          <a xlink:href="sitkTransform_8h__incl_org.svg" target="_base">
           <rect id="button" ry="5" rx="5" y="6" x="6" height="38" width="38"
                fill="#f2f5e9" fill-opacity="0.5" stroke="#606060" stroke-width="1.0"/>
           <path id="arrow"
             d="M 11.500037,31.436501 C 11.940474,20.09759 22.043105,11.32322 32.158766,21.979434 L 37.068811,17.246167 C 37.068811,17.246167 37.088388,32 37.088388,32 L 22.160133,31.978069 C 22.160133,31.978069 26.997745,27.140456 26.997745,27.140456 C 18.528582,18.264221 13.291696,25.230495 11.500037,31.436501 z"
             style="fill:#404040;"/>
          </a>
         </g>
        </svg>
</svg>
