<?xml version="1.0" encoding="UTF-8" standalone="no"?>
<!DOCTYPE svg PUBLIC "-//W3C//DTD SVG 1.1//EN"
 "http://www.w3.org/Graphics/SVG/1.1/DTD/svg11.dtd">
<!-- Generated by graphviz version 2.40.1 (20161225.0304)
 -->
<!-- Title: itk::simple::DisplacementFieldTransform::MyVisitor Pages: 1 -->
<svg width="322pt" height="174pt"
 viewBox="0.00 0.00 321.50 174.00" xmlns="http://www.w3.org/2000/svg" xmlns:xlink="http://www.w3.org/1999/xlink">
<g id="graph0" class="graph" transform="scale(1 1) rotate(0) translate(4 170)">
<title>itk::simple::DisplacementFieldTransform::MyVisitor</title>
<polygon fill="#ffffff" stroke="transparent" points="-4,4 -4,-170 317.5,-170 317.5,4 -4,4"/>
<!-- Node1 -->
<g id="node1" class="node">
<title>Node1</title>
<g id="a_node1"><a xlink:title=" ">
<polygon fill="#bfbfbf" stroke="#000000" points="83,-.5 83,-30.5 225,-30.5 225,-.5 83,-.5"/>
<text text-anchor="start" x="91" y="-18.5" font-family="Helvetica,sans-Serif" font-size="10.00" fill="#000000">itk::simple::Displacement</text>
<text text-anchor="middle" x="154" y="-7.5" font-family="Helvetica,sans-Serif" font-size="10.00" fill="#000000">FieldTransform::MyVisitor</text>
</a>
</g>
</g>
<!-- Node2 -->
<g id="node2" class="node">
<title>Node2</title>
<g id="a_node2"><a xlink:href="classitk_1_1simple_1_1DisplacementFieldTransform.html" target="_top" xlink:title="A dense deformable transform over a bounded spatial domain for 2D or 3D coordinates space.">
<polygon fill="#ffffff" stroke="#000000" points="0,-78.5 0,-108.5 142,-108.5 142,-78.5 0,-78.5"/>
<text text-anchor="start" x="8" y="-96.5" font-family="Helvetica,sans-Serif" font-size="10.00" fill="#000000">itk::simple::Displacement</text>
<text text-anchor="middle" x="71" y="-85.5" font-family="Helvetica,sans-Serif" font-size="10.00" fill="#000000">FieldTransform</text>
</a>
</g>
</g>
<!-- Node2&#45;&gt;Node1 -->
<g id="edge1" class="edge">
<title>Node2&#45;&gt;Node1</title>
<path fill="none" stroke="#9a32cd" stroke-dasharray="5,2" d="M94.3,-71.6036C108.1529,-58.5853 125.3797,-42.3962 137.7627,-30.7592"/>
<polygon fill="#9a32cd" stroke="#9a32cd" points="91.8935,-69.0621 87.0032,-78.4608 96.6873,-74.1631 91.8935,-69.0621"/>
<text text-anchor="middle" x="129.5" y="-52" font-family="Helvetica,sans-Serif" font-size="10.00" fill="#000000"> that</text>
</g>
<!-- Node3 -->
<g id="node3" class="node">
<title>Node3</title>
<g id="a_node3"><a xlink:href="classitk_1_1simple_1_1Transform.html" target="_top" xlink:title="A simplified wrapper around a variety of ITK transforms.">
<polygon fill="#ffffff" stroke="#000000" points="9.5,-146.5 9.5,-165.5 132.5,-165.5 132.5,-146.5 9.5,-146.5"/>
<text text-anchor="middle" x="71" y="-153.5" font-family="Helvetica,sans-Serif" font-size="10.00" fill="#000000">itk::simple::Transform</text>
</a>
</g>
</g>
<!-- Node3&#45;&gt;Node2 -->
<g id="edge2" class="edge">
<title>Node3&#45;&gt;Node2</title>
<path fill="none" stroke="#191970" d="M71,-136.0501C71,-127.2205 71,-117.0001 71,-108.7892"/>
<polygon fill="#191970" stroke="#191970" points="67.5001,-136.2343 71,-146.2344 74.5001,-136.2344 67.5001,-136.2343"/>
</g>
<!-- Node4 -->
<g id="node4" class="node">
<title>Node4</title>
<g id="a_node4"><a xlink:href="classitk_1_1TransformBaseTemplate.html" target="_top" xlink:title=" ">
<polygon fill="#ffffff" stroke="#000000" points="160.5,-78.5 160.5,-108.5 313.5,-108.5 313.5,-78.5 160.5,-78.5"/>
<text text-anchor="start" x="168.5" y="-96.5" font-family="Helvetica,sans-Serif" font-size="10.00" fill="#000000">itk::TransformBaseTemplate</text>
<text text-anchor="middle" x="237" y="-85.5" font-family="Helvetica,sans-Serif" font-size="10.00" fill="#000000">&lt; TScalar &gt;</text>
</a>
</g>
</g>
<!-- Node4&#45;&gt;Node1 -->
<g id="edge3" class="edge">
<title>Node4&#45;&gt;Node1</title>
<path fill="none" stroke="#9a32cd" stroke-dasharray="5,2" d="M213.7,-71.6036C199.8471,-58.5853 182.6203,-42.3962 170.2373,-30.7592"/>
<polygon fill="#9a32cd" stroke="#9a32cd" points="211.3127,-74.1631 220.9968,-78.4608 216.1065,-69.0621 211.3127,-74.1631"/>
<text text-anchor="middle" x="226" y="-52" font-family="Helvetica,sans-Serif" font-size="10.00" fill="#000000"> transform</text>
</g>
</g>
</svg>
