<?xml version="1.0" encoding="UTF-8" standalone="no"?>
<!DOCTYPE svg PUBLIC "-//W3C//DTD SVG 1.1//EN"
 "http://www.w3.org/Graphics/SVG/1.1/DTD/svg11.dtd">
<!-- Generated by graphviz version 2.40.1 (20161225.0304)
 -->
<!-- Title: itk::simple::Transform::TransformTryCastVisitor Pages: 1 -->
<svg width="302pt" height="117pt"
 viewBox="0.00 0.00 302.00 117.00" xmlns="http://www.w3.org/2000/svg" xmlns:xlink="http://www.w3.org/1999/xlink">
<g id="graph0" class="graph" transform="scale(1 1) rotate(0) translate(4 113)">
<title>itk::simple::Transform::TransformTryCastVisitor</title>
<polygon fill="#ffffff" stroke="transparent" points="-4,4 -4,-113 298,-113 298,4 -4,4"/>
<!-- Node1 -->
<g id="node1" class="node">
<title>Node1</title>
<g id="a_node1"><a xlink:title=" ">
<polygon fill="#bfbfbf" stroke="#000000" points="85,-.5 85,-30.5 224,-30.5 224,-.5 85,-.5"/>
<text text-anchor="start" x="93" y="-18.5" font-family="Helvetica,sans-Serif" font-size="10.00" fill="#000000">itk::simple::Transform</text>
<text text-anchor="middle" x="154.5" y="-7.5" font-family="Helvetica,sans-Serif" font-size="10.00" fill="#000000">::TransformTryCastVisitor</text>
</a>
</g>
</g>
<!-- Node2 -->
<g id="node2" class="node">
<title>Node2</title>
<g id="a_node2"><a xlink:href="classitk_1_1TransformBaseTemplate.html" target="_top" xlink:title=" ">
<polygon fill="#ffffff" stroke="#000000" points="0,-78.5 0,-108.5 153,-108.5 153,-78.5 0,-78.5"/>
<text text-anchor="start" x="8" y="-96.5" font-family="Helvetica,sans-Serif" font-size="10.00" fill="#000000">itk::TransformBaseTemplate</text>
<text text-anchor="middle" x="76.5" y="-85.5" font-family="Helvetica,sans-Serif" font-size="10.00" fill="#000000">&lt; TScalar &gt;</text>
</a>
</g>
</g>
<!-- Node2&#45;&gt;Node1 -->
<g id="edge1" class="edge">
<title>Node2&#45;&gt;Node1</title>
<path fill="none" stroke="#9a32cd" stroke-dasharray="5,2" d="M98.7588,-71.2412C111.7141,-58.2859 127.7116,-42.2884 139.2408,-30.7592"/>
<polygon fill="#9a32cd" stroke="#9a32cd" points="96.1354,-68.9148 91.5392,-78.4608 101.0852,-73.8646 96.1354,-68.9148"/>
<text text-anchor="middle" x="146.5" y="-52" font-family="Helvetica,sans-Serif" font-size="10.00" fill="#000000"> transform</text>
</g>
<!-- Node3 -->
<g id="node3" class="node">
<title>Node3</title>
<g id="a_node3"><a xlink:href="classitk_1_1simple_1_1Transform.html" target="_top" xlink:title="A simplified wrapper around a variety of ITK transforms.">
<polygon fill="#ffffff" stroke="#000000" points="171,-84 171,-103 294,-103 294,-84 171,-84"/>
<text text-anchor="middle" x="232.5" y="-91" font-family="Helvetica,sans-Serif" font-size="10.00" fill="#000000">itk::simple::Transform</text>
</a>
</g>
</g>
<!-- Node3&#45;&gt;Node1 -->
<g id="edge2" class="edge">
<title>Node3&#45;&gt;Node1</title>
<path fill="none" stroke="#9a32cd" stroke-dasharray="5,2" d="M215.6165,-76.6165C201.9847,-62.9847 182.9678,-43.9678 169.7824,-30.7824"/>
<polygon fill="#9a32cd" stroke="#9a32cd" points="213.3897,-79.3395 222.9357,-83.9357 218.3395,-74.3897 213.3897,-79.3395"/>
<text text-anchor="middle" x="209" y="-52" font-family="Helvetica,sans-Serif" font-size="10.00" fill="#000000"> that</text>
</g>
</g>
</svg>
