<?xml version="1.0" encoding="UTF-8" standalone="no"?>
<!DOCTYPE svg PUBLIC "-//W3C//DTD SVG 1.1//EN"
 "http://www.w3.org/Graphics/SVG/1.1/DTD/svg11.dtd">
<!-- Generated by graphviz version 2.40.1 (20161225.0304)
 -->
<!-- Title: itk::simple::CompositeTransform::MyVisitor Pages: 1 -->
<svg width="356pt" height="174pt"
 viewBox="0.00 0.00 355.50 174.00" xmlns="http://www.w3.org/2000/svg" xmlns:xlink="http://www.w3.org/1999/xlink">
<g id="graph0" class="graph" transform="scale(1 1) rotate(0) translate(4 170)">
<title>itk::simple::CompositeTransform::MyVisitor</title>
<polygon fill="#ffffff" stroke="transparent" points="-4,4 -4,-170 351.5,-170 351.5,4 -4,4"/>
<!-- Node1 -->
<g id="node1" class="node">
<title>Node1</title>
<g id="a_node1"><a xlink:title=" ">
<polygon fill="#bfbfbf" stroke="#000000" points="92,-.5 92,-30.5 268,-30.5 268,-.5 92,-.5"/>
<text text-anchor="start" x="100" y="-18.5" font-family="Helvetica,sans-Serif" font-size="10.00" fill="#000000">itk::simple::CompositeTransform</text>
<text text-anchor="middle" x="180" y="-7.5" font-family="Helvetica,sans-Serif" font-size="10.00" fill="#000000">::MyVisitor</text>
</a>
</g>
</g>
<!-- Node2 -->
<g id="node2" class="node">
<title>Node2</title>
<g id="a_node2"><a xlink:href="classitk_1_1simple_1_1CompositeTransform.html" target="_top" xlink:title="This class contains a stack of transforms and concatenates them by composition.">
<polygon fill="#ffffff" stroke="#000000" points="0,-84 0,-103 176,-103 176,-84 0,-84"/>
<text text-anchor="middle" x="88" y="-91" font-family="Helvetica,sans-Serif" font-size="10.00" fill="#000000">itk::simple::CompositeTransform</text>
</a>
</g>
</g>
<!-- Node2&#45;&gt;Node1 -->
<g id="edge1" class="edge">
<title>Node2&#45;&gt;Node1</title>
<path fill="none" stroke="#9a32cd" stroke-dasharray="5,2" d="M107.019,-77.3752C123.1514,-63.6977 146.1319,-44.2143 161.9746,-30.7824"/>
<polygon fill="#9a32cd" stroke="#9a32cd" points="104.6452,-74.7991 99.281,-83.9357 109.172,-80.1384 104.6452,-74.7991"/>
<text text-anchor="middle" x="151.5" y="-52" font-family="Helvetica,sans-Serif" font-size="10.00" fill="#000000"> that</text>
</g>
<!-- Node3 -->
<g id="node3" class="node">
<title>Node3</title>
<g id="a_node3"><a xlink:href="classitk_1_1simple_1_1Transform.html" target="_top" xlink:title="A simplified wrapper around a variety of ITK transforms.">
<polygon fill="#ffffff" stroke="#000000" points="26.5,-146.5 26.5,-165.5 149.5,-165.5 149.5,-146.5 26.5,-146.5"/>
<text text-anchor="middle" x="88" y="-153.5" font-family="Helvetica,sans-Serif" font-size="10.00" fill="#000000">itk::simple::Transform</text>
</a>
</g>
</g>
<!-- Node3&#45;&gt;Node2 -->
<g id="edge2" class="edge">
<title>Node3&#45;&gt;Node2</title>
<path fill="none" stroke="#191970" d="M88,-135.925C88,-125.0568 88,-112.1118 88,-103.4033"/>
<polygon fill="#191970" stroke="#191970" points="84.5001,-136.2343 88,-146.2344 91.5001,-136.2344 84.5001,-136.2343"/>
</g>
<!-- Node4 -->
<g id="node4" class="node">
<title>Node4</title>
<g id="a_node4"><a xlink:href="classitk_1_1TransformBaseTemplate.html" target="_top" xlink:title=" ">
<polygon fill="#ffffff" stroke="#000000" points="194.5,-78.5 194.5,-108.5 347.5,-108.5 347.5,-78.5 194.5,-78.5"/>
<text text-anchor="start" x="202.5" y="-96.5" font-family="Helvetica,sans-Serif" font-size="10.00" fill="#000000">itk::TransformBaseTemplate</text>
<text text-anchor="middle" x="271" y="-85.5" font-family="Helvetica,sans-Serif" font-size="10.00" fill="#000000">&lt; TScalar &gt;</text>
</a>
</g>
</g>
<!-- Node4&#45;&gt;Node1 -->
<g id="edge3" class="edge">
<title>Node4&#45;&gt;Node1</title>
<path fill="none" stroke="#9a32cd" stroke-dasharray="5,2" d="M245.4542,-71.6036C230.2661,-58.5853 211.3789,-42.3962 197.8023,-30.7592"/>
<polygon fill="#9a32cd" stroke="#9a32cd" points="243.5839,-74.6103 253.4543,-78.4608 248.1395,-69.2955 243.5839,-74.6103"/>
<text text-anchor="middle" x="256" y="-52" font-family="Helvetica,sans-Serif" font-size="10.00" fill="#000000"> transform</text>
</g>
</g>
</svg>
