<?xml version="1.0" encoding="UTF-8" standalone="no"?>
<!DOCTYPE svg PUBLIC "-//W3C//DTD SVG 1.1//EN"
 "http://www.w3.org/Graphics/SVG/1.1/DTD/svg11.dtd">
<!-- Generated by graphviz version 2.40.1 (20161225.0304)
 -->
<!-- Title: itk::simple::BSplineTransform::MyVisitor Pages: 1 -->
<svg width="340pt" height="174pt"
 viewBox="0.00 0.00 339.50 174.00" xmlns="http://www.w3.org/2000/svg" xmlns:xlink="http://www.w3.org/1999/xlink">
<g id="graph0" class="graph" transform="scale(1 1) rotate(0) translate(4 170)">
<title>itk::simple::BSplineTransform::MyVisitor</title>
<polygon fill="#ffffff" stroke="transparent" points="-4,4 -4,-170 335.5,-170 335.5,4 -4,4"/>
<!-- Node1 -->
<g id="node1" class="node">
<title>Node1</title>
<g id="a_node1"><a xlink:title=" ">
<polygon fill="#bfbfbf" stroke="#000000" points="88,-.5 88,-30.5 248,-30.5 248,-.5 88,-.5"/>
<text text-anchor="start" x="96" y="-18.5" font-family="Helvetica,sans-Serif" font-size="10.00" fill="#000000">itk::simple::BSplineTransform</text>
<text text-anchor="middle" x="168" y="-7.5" font-family="Helvetica,sans-Serif" font-size="10.00" fill="#000000">::MyVisitor</text>
</a>
</g>
</g>
<!-- Node2 -->
<g id="node2" class="node">
<title>Node2</title>
<g id="a_node2"><a xlink:href="classitk_1_1simple_1_1BSplineTransform.html" target="_top" xlink:title="A deformable transform over a bounded spatial domain using a BSpline representation for a 2D or 3D co...">
<polygon fill="#ffffff" stroke="#000000" points="0,-84 0,-103 160,-103 160,-84 0,-84"/>
<text text-anchor="middle" x="80" y="-91" font-family="Helvetica,sans-Serif" font-size="10.00" fill="#000000">itk::simple::BSplineTransform</text>
</a>
</g>
</g>
<!-- Node2&#45;&gt;Node1 -->
<g id="edge1" class="edge">
<title>Node2&#45;&gt;Node1</title>
<path fill="none" stroke="#9a32cd" stroke-dasharray="5,2" d="M98.6184,-76.9973C114.0259,-63.3407 135.7434,-44.0911 150.7583,-30.7824"/>
<polygon fill="#9a32cd" stroke="#9a32cd" points="95.9524,-74.6833 90.7905,-83.9357 100.5956,-79.9218 95.9524,-74.6833"/>
<text text-anchor="middle" x="141.5" y="-52" font-family="Helvetica,sans-Serif" font-size="10.00" fill="#000000"> that</text>
</g>
<!-- Node3 -->
<g id="node3" class="node">
<title>Node3</title>
<g id="a_node3"><a xlink:href="classitk_1_1simple_1_1Transform.html" target="_top" xlink:title="A simplified wrapper around a variety of ITK transforms.">
<polygon fill="#ffffff" stroke="#000000" points="18.5,-146.5 18.5,-165.5 141.5,-165.5 141.5,-146.5 18.5,-146.5"/>
<text text-anchor="middle" x="80" y="-153.5" font-family="Helvetica,sans-Serif" font-size="10.00" fill="#000000">itk::simple::Transform</text>
</a>
</g>
</g>
<!-- Node3&#45;&gt;Node2 -->
<g id="edge2" class="edge">
<title>Node3&#45;&gt;Node2</title>
<path fill="none" stroke="#191970" d="M80,-135.925C80,-125.0568 80,-112.1118 80,-103.4033"/>
<polygon fill="#191970" stroke="#191970" points="76.5001,-136.2343 80,-146.2344 83.5001,-136.2344 76.5001,-136.2343"/>
</g>
<!-- Node4 -->
<g id="node4" class="node">
<title>Node4</title>
<g id="a_node4"><a xlink:href="classitk_1_1TransformBaseTemplate.html" target="_top" xlink:title=" ">
<polygon fill="#ffffff" stroke="#000000" points="178.5,-78.5 178.5,-108.5 331.5,-108.5 331.5,-78.5 178.5,-78.5"/>
<text text-anchor="start" x="186.5" y="-96.5" font-family="Helvetica,sans-Serif" font-size="10.00" fill="#000000">itk::TransformBaseTemplate</text>
<text text-anchor="middle" x="255" y="-85.5" font-family="Helvetica,sans-Serif" font-size="10.00" fill="#000000">&lt; TScalar &gt;</text>
</a>
</g>
</g>
<!-- Node4&#45;&gt;Node1 -->
<g id="edge3" class="edge">
<title>Node4&#45;&gt;Node1</title>
<path fill="none" stroke="#9a32cd" stroke-dasharray="5,2" d="M230.5771,-71.6036C216.0566,-58.5853 197.9996,-42.3962 185.0198,-30.7592"/>
<polygon fill="#9a32cd" stroke="#9a32cd" points="228.4434,-74.3913 238.2255,-78.4608 233.1162,-69.1793 228.4434,-74.3913"/>
<text text-anchor="middle" x="242" y="-52" font-family="Helvetica,sans-Serif" font-size="10.00" fill="#000000"> transform</text>
</g>
</g>
</svg>
