<?xml version="1.0" encoding="UTF-8" standalone="no"?>
<!DOCTYPE svg PUBLIC "-//W3C//DTD SVG 1.1//EN"
 "http://www.w3.org/Graphics/SVG/1.1/DTD/svg11.dtd">
<!-- Generated by graphviz version 2.40.1 (20161225.0304)
 -->
<!-- Title: itk::simple::ProcessObject::EventCommand Pages: 1 -->
<svg width="500pt" height="418pt"
 viewBox="0.00 0.00 500.00 418.00" xmlns="http://www.w3.org/2000/svg" xmlns:xlink="http://www.w3.org/1999/xlink">
<g id="graph0" class="graph" transform="scale(1 1) rotate(0) translate(4 414)">
<title>itk::simple::ProcessObject::EventCommand</title>
<polygon fill="#ffffff" stroke="transparent" points="-4,4 -4,-414 496,-414 496,4 -4,4"/>
<!-- Node1 -->
<g id="node1" class="node">
<title>Node1</title>
<g id="a_node1"><a xlink:title=" ">
<polygon fill="#bfbfbf" stroke="#000000" points="3.5,-312.5 3.5,-342.5 146.5,-342.5 146.5,-312.5 3.5,-312.5"/>
<text text-anchor="start" x="11.5" y="-330.5" font-family="Helvetica,sans-Serif" font-size="10.00" fill="#000000">itk::simple::ProcessObject</text>
<text text-anchor="middle" x="75" y="-319.5" font-family="Helvetica,sans-Serif" font-size="10.00" fill="#000000">::EventCommand</text>
</a>
</g>
</g>
<!-- Node8 -->
<g id="node8" class="node">
<title>Node8</title>
<g id="a_node8"><a xlink:title=" ">
<polygon fill="#ffffff" stroke="#bfbfbf" points="186.5,-223.5 186.5,-253.5 373.5,-253.5 373.5,-223.5 186.5,-223.5"/>
<text text-anchor="start" x="194.5" y="-241.5" font-family="Helvetica,sans-Serif" font-size="10.00" fill="#000000">std::list&lt; itk::simple</text>
<text text-anchor="middle" x="280" y="-230.5" font-family="Helvetica,sans-Serif" font-size="10.00" fill="#000000">::ProcessObject::EventCommand &gt;</text>
</a>
</g>
</g>
<!-- Node1&#45;&gt;Node8 -->
<g id="edge9" class="edge">
<title>Node1&#45;&gt;Node8</title>
<path fill="none" stroke="#9a32cd" stroke-dasharray="5,2" d="M119.0237,-308.3873C156.8358,-291.9713 210.6019,-268.6289 245.3966,-253.5229"/>
<polygon fill="#9a32cd" stroke="#9a32cd" points="117.5545,-305.2095 109.7755,-312.4024 120.3421,-311.6304 117.5545,-305.2095"/>
<text text-anchor="middle" x="226.5" y="-280.5" font-family="Helvetica,sans-Serif" font-size="10.00" fill="#000000"> elements</text>
</g>
<!-- Node2 -->
<g id="node2" class="node">
<title>Node2</title>
<g id="a_node2"><a xlink:href="classitk_1_1simple_1_1Command.html" target="_top" xlink:title="An implementation of the Command design pattern for callback.">
<polygon fill="#ffffff" stroke="#000000" points="68.5,-.5 68.5,-19.5 193.5,-19.5 193.5,-.5 68.5,-.5"/>
<text text-anchor="middle" x="131" y="-7.5" font-family="Helvetica,sans-Serif" font-size="10.00" fill="#000000">itk::simple::Command</text>
</a>
</g>
</g>
<!-- Node2&#45;&gt;Node1 -->
<g id="edge1" class="edge">
<title>Node2&#45;&gt;Node1</title>
<path fill="none" stroke="#9a32cd" stroke-dasharray="5,2" d="M61.8557,-22.4225C30.3644,-32.4691 0,-50.4627 0,-82.5 0,-238.5 0,-238.5 0,-238.5 0,-270.4257 28.569,-296.845 50.4422,-312.3938"/>
<polygon fill="#9a32cd" stroke="#9a32cd" points="63.0231,-25.7276 71.6326,-19.553 61.0517,-19.0109 63.0231,-25.7276"/>
<text text-anchor="middle" x="34.5" y="-158" font-family="Helvetica,sans-Serif" font-size="10.00" fill="#000000"> m_Command</text>
</g>
<!-- Node3 -->
<g id="node3" class="node">
<title>Node3</title>
<g id="a_node3"><a xlink:href="classitk_1_1simple_1_1NonCopyable.html" target="_top" xlink:title="An inheritable class to disable copying of a class.">
<polygon fill="#ffffff" stroke="#000000" points="28,-229 28,-248 168,-248 168,-229 28,-229"/>
<text text-anchor="middle" x="98" y="-236" font-family="Helvetica,sans-Serif" font-size="10.00" fill="#000000">itk::simple::NonCopyable</text>
</a>
</g>
</g>
<!-- Node3&#45;&gt;Node2 -->
<g id="edge2" class="edge">
<title>Node3&#45;&gt;Node2</title>
<path fill="none" stroke="#006400" d="M100.8359,-218.8634C107.6316,-171.8087 124.6503,-53.9671 129.6182,-19.5681"/>
<polygon fill="#006400" stroke="#006400" points="97.3413,-218.5749 99.376,-228.9726 104.2695,-219.5755 97.3413,-218.5749"/>
</g>
<!-- Node7 -->
<g id="node7" class="node">
<title>Node7</title>
<g id="a_node7"><a xlink:href="classitk_1_1simple_1_1ProcessObject.html" target="_top" xlink:title="Base class for SimpleITK classes based on ProcessObject.">
<polygon fill="#ffffff" stroke="#000000" points="126.5,-151 126.5,-170 269.5,-170 269.5,-151 126.5,-151"/>
<text text-anchor="middle" x="198" y="-158" font-family="Helvetica,sans-Serif" font-size="10.00" fill="#000000">itk::simple::ProcessObject</text>
</a>
</g>
</g>
<!-- Node3&#45;&gt;Node7 -->
<g id="edge7" class="edge">
<title>Node3&#45;&gt;Node7</title>
<path fill="none" stroke="#006400" d="M118.2214,-222.7273C138.4107,-206.9797 168.7902,-183.2836 185.6377,-170.1426"/>
<polygon fill="#006400" stroke="#006400" points="115.9944,-220.0255 110.262,-228.9357 120.2996,-225.5451 115.9944,-220.0255"/>
</g>
<!-- Node4 -->
<g id="node4" class="node">
<title>Node4</title>
<g id="a_node4"><a xlink:title="STL class.">
<polygon fill="#ffffff" stroke="#bfbfbf" points="340.5,-73 340.5,-92 405.5,-92 405.5,-73 340.5,-73"/>
<text text-anchor="middle" x="373" y="-80" font-family="Helvetica,sans-Serif" font-size="10.00" fill="#000000">std::string</text>
</a>
</g>
</g>
<!-- Node4&#45;&gt;Node2 -->
<g id="edge3" class="edge">
<title>Node4&#45;&gt;Node2</title>
<path fill="none" stroke="#9a32cd" stroke-dasharray="5,2" d="M347.3526,-67.8041C329.313,-58.0457 304.3239,-45.6654 281,-38 252.9386,-28.7776 220.8662,-22.2771 193.5999,-17.8771"/>
<polygon fill="#9a32cd" stroke="#9a32cd" points="346.1584,-71.1426 356.6049,-72.9092 349.5402,-65.0137 346.1584,-71.1426"/>
<text text-anchor="middle" x="331" y="-41" font-family="Helvetica,sans-Serif" font-size="10.00" fill="#000000"> m_Name</text>
</g>
<!-- Node5 -->
<g id="node5" class="node">
<title>Node5</title>
<g id="a_node5"><a xlink:title="STL class.">
<polygon fill="#ffffff" stroke="#bfbfbf" points="388,-145.5 388,-175.5 492,-175.5 492,-145.5 388,-145.5"/>
<text text-anchor="start" x="396" y="-163.5" font-family="Helvetica,sans-Serif" font-size="10.00" fill="#000000">std::basic_string&lt;</text>
<text text-anchor="middle" x="440" y="-152.5" font-family="Helvetica,sans-Serif" font-size="10.00" fill="#000000"> char &gt;</text>
</a>
</g>
</g>
<!-- Node5&#45;&gt;Node4 -->
<g id="edge4" class="edge">
<title>Node5&#45;&gt;Node4</title>
<path fill="none" stroke="#191970" d="M432.2826,-135.7302C429.4226,-128.8977 425.6991,-121.7813 421,-116 413.052,-106.2216 401.5419,-98.0563 391.7853,-92.2356"/>
<polygon fill="#191970" stroke="#191970" points="429.0956,-137.2013 435.8679,-145.3491 435.6548,-134.7564 429.0956,-137.2013"/>
</g>
<!-- Node6 -->
<g id="node6" class="node">
<title>Node6</title>
<g id="a_node6"><a xlink:title=" ">
<polygon fill="#ffffff" stroke="#bfbfbf" points="140,-67.5 140,-97.5 256,-97.5 256,-67.5 140,-67.5"/>
<text text-anchor="start" x="148" y="-85.5" font-family="Helvetica,sans-Serif" font-size="10.00" fill="#000000">std::set&lt; itk::simple</text>
<text text-anchor="middle" x="198" y="-74.5" font-family="Helvetica,sans-Serif" font-size="10.00" fill="#000000">::ProcessObject * &gt;</text>
</a>
</g>
</g>
<!-- Node6&#45;&gt;Node2 -->
<g id="edge5" class="edge">
<title>Node6&#45;&gt;Node2</title>
<path fill="none" stroke="#9a32cd" stroke-dasharray="5,2" d="M177.1858,-59.9772C164.7697,-46.5419 149.6258,-30.1548 140.145,-19.8957"/>
<polygon fill="#9a32cd" stroke="#9a32cd" points="174.7601,-62.5092 184.1176,-67.478 179.901,-57.7583 174.7601,-62.5092"/>
<text text-anchor="middle" x="222" y="-41" font-family="Helvetica,sans-Serif" font-size="10.00" fill="#000000"> m_ReferencedObjects</text>
</g>
<!-- Node7&#45;&gt;Node6 -->
<g id="edge6" class="edge">
<title>Node7&#45;&gt;Node6</title>
<path fill="none" stroke="#9a32cd" stroke-dasharray="5,2" d="M198,-140.8751C198,-127.5215 198,-110.1052 198,-97.7824"/>
<polygon fill="#9a32cd" stroke="#9a32cd" points="194.5001,-140.9356 198,-150.9357 201.5001,-140.9357 194.5001,-140.9356"/>
<text text-anchor="middle" x="211.5" y="-119" font-family="Helvetica,sans-Serif" font-size="10.00" fill="#000000"> keys</text>
</g>
<!-- Node8&#45;&gt;Node7 -->
<g id="edge8" class="edge">
<title>Node8&#45;&gt;Node7</title>
<path fill="none" stroke="#9a32cd" stroke-dasharray="5,2" d="M256.7253,-216.3606C240.6693,-201.0879 220.1221,-181.543 208.0753,-170.0839"/>
<polygon fill="#9a32cd" stroke="#9a32cd" points="254.5317,-219.1046 264.1896,-223.4608 259.3562,-214.0327 254.5317,-219.1046"/>
<text text-anchor="middle" x="281" y="-197" font-family="Helvetica,sans-Serif" font-size="10.00" fill="#000000"> m_Commands</text>
</g>
<!-- Node9 -->
<g id="node9" class="node">
<title>Node9</title>
<g id="a_node9"><a xlink:title="STL class.">
<polygon fill="#ffffff" stroke="#bfbfbf" points="239.5,-318 239.5,-337 320.5,-337 320.5,-318 239.5,-318"/>
<text text-anchor="middle" x="280" y="-325" font-family="Helvetica,sans-Serif" font-size="10.00" fill="#000000">std::list&lt; T &gt;</text>
</a>
</g>
</g>
<!-- Node9&#45;&gt;Node8 -->
<g id="edge10" class="edge">
<title>Node9&#45;&gt;Node8</title>
<path fill="none" stroke="#ffa500" stroke-dasharray="5,2" d="M280,-307.8808C280,-291.5122 280,-268.5251 280,-253.5725"/>
<polygon fill="#ffa500" stroke="#ffa500" points="276.5001,-307.9754 280,-317.9754 283.5001,-307.9755 276.5001,-307.9754"/>
<text text-anchor="start" x="280" y="-286" font-family="Helvetica,sans-Serif" font-size="10.00" fill="#000000"> &lt; itk::simple::ProcessObject</text>
<text text-anchor="middle" x="351" y="-275" font-family="Helvetica,sans-Serif" font-size="10.00" fill="#000000">::EventCommand &gt;</text>
</g>
<!-- Node10 -->
<g id="node10" class="node">
<title>Node10</title>
<g id="a_node10"><a xlink:title=" ">
<polygon fill="#ffffff" stroke="#bfbfbf" points="265.5,-390.5 265.5,-409.5 294.5,-409.5 294.5,-390.5 265.5,-390.5"/>
<text text-anchor="middle" x="280" y="-397.5" font-family="Helvetica,sans-Serif" font-size="10.00" fill="#000000">T</text>
</a>
</g>
</g>
<!-- Node10&#45;&gt;Node9 -->
<g id="edge11" class="edge">
<title>Node10&#45;&gt;Node9</title>
<path fill="none" stroke="#9a32cd" stroke-dasharray="5,2" d="M280,-380.1054C280,-366.1237 280,-348.0346 280,-337.1228"/>
<polygon fill="#9a32cd" stroke="#9a32cd" points="276.5001,-380.2223 280,-390.2223 283.5001,-380.2224 276.5001,-380.2223"/>
<text text-anchor="middle" x="304.5" y="-364" font-family="Helvetica,sans-Serif" font-size="10.00" fill="#000000"> elements</text>
</g>
<!-- Node11 -->
<g id="node11" class="node">
<title>Node11</title>
<g id="a_node11"><a xlink:title="STL class.">
<polygon fill="#ffffff" stroke="#bfbfbf" points="288,-151 288,-170 370,-170 370,-151 288,-151"/>
<text text-anchor="middle" x="329" y="-158" font-family="Helvetica,sans-Serif" font-size="10.00" fill="#000000">std::set&lt; K &gt;</text>
</a>
</g>
</g>
<!-- Node11&#45;&gt;Node6 -->
<g id="edge12" class="edge">
<title>Node11&#45;&gt;Node6</title>
<path fill="none" stroke="#ffa500" stroke-dasharray="5,2" d="M295.3427,-146.9451C282.6857,-141.3633 268.3726,-134.4559 256,-127 241.6509,-118.353 226.6789,-106.7921 215.5414,-97.6211"/>
<polygon fill="#ffa500" stroke="#ffa500" points="294.0698,-150.2076 304.6392,-150.9423 296.8349,-143.7768 294.0698,-150.2076"/>
<text text-anchor="middle" x="336.5" y="-119" font-family="Helvetica,sans-Serif" font-size="10.00" fill="#000000"> &lt; itk::simple::ProcessObject * &gt;</text>
</g>
<!-- Node12 -->
<g id="node12" class="node">
<title>Node12</title>
<g id="a_node12"><a xlink:title=" ">
<polygon fill="#ffffff" stroke="#bfbfbf" points="391.5,-229 391.5,-248 420.5,-248 420.5,-229 391.5,-229"/>
<text text-anchor="middle" x="406" y="-236" font-family="Helvetica,sans-Serif" font-size="10.00" fill="#000000">K</text>
</a>
</g>
</g>
<!-- Node12&#45;&gt;Node11 -->
<g id="edge13" class="edge">
<title>Node12&#45;&gt;Node11</title>
<path fill="none" stroke="#9a32cd" stroke-dasharray="5,2" d="M389.1637,-221.4451C373.6381,-205.7178 351.144,-182.9316 338.5189,-170.1426"/>
<polygon fill="#9a32cd" stroke="#9a32cd" points="387.0422,-224.278 396.5583,-228.9357 392.0238,-219.3602 387.0422,-224.278"/>
<text text-anchor="middle" x="385.5" y="-197" font-family="Helvetica,sans-Serif" font-size="10.00" fill="#000000"> keys</text>
</g>
</g>
</svg>
