<?xml version="1.0" encoding="UTF-8" standalone="no"?>
<!DOCTYPE svg PUBLIC "-//W3C//DTD SVG 1.1//EN"
 "http://www.w3.org/Graphics/SVG/1.1/DTD/svg11.dtd">
<!-- Generated by graphviz version 2.40.1 (20161225.0304)
 -->
<!-- Title: itk::simple::Transform::TransformTryCastVisitor Pages: 1 -->
<svg width="1491pt" height="191pt"
 viewBox="0.00 0.00 1491.00 190.50" xmlns="http://www.w3.org/2000/svg" xmlns:xlink="http://www.w3.org/1999/xlink">
<g id="graph0" class="graph" transform="scale(1 1) rotate(0) translate(4 186.5)">
<title>itk::simple::Transform::TransformTryCastVisitor</title>
<polygon fill="#ffffff" stroke="transparent" points="-4,4 -4,-186.5 1487,-186.5 1487,4 -4,4"/>
<!-- Node1 -->
<g id="node1" class="node">
<title>Node1</title>
<g id="a_node1"><a xlink:title=" ">
<polygon fill="#bfbfbf" stroke="#000000" points="1344,-31.5 1344,-61.5 1483,-61.5 1483,-31.5 1344,-31.5"/>
<text text-anchor="start" x="1352" y="-49.5" font-family="Helvetica,sans-Serif" font-size="10.00" fill="#000000">itk::simple::Transform</text>
<text text-anchor="middle" x="1413.5" y="-38.5" font-family="Helvetica,sans-Serif" font-size="10.00" fill="#000000">::TransformTryCastVisitor</text>
</a>
</g>
</g>
<!-- Node2 -->
<g id="node2" class="node">
<title>Node2</title>
<g id="a_node2"><a xlink:href="https://www.itk.org/Doxygen/html/classitk_1_1TransformBaseTemplate.html" xlink:title=" ">
<polygon fill="#ffffff" stroke="#000000" points="1103,-58.5 1103,-88.5 1256,-88.5 1256,-58.5 1103,-58.5"/>
<text text-anchor="start" x="1111" y="-76.5" font-family="Helvetica,sans-Serif" font-size="10.00" fill="#000000">itk::TransformBaseTemplate</text>
<text text-anchor="middle" x="1179.5" y="-65.5" font-family="Helvetica,sans-Serif" font-size="10.00" fill="#000000">&lt; TParametersValueType &gt;</text>
</a>
</g>
</g>
<!-- Node2&#45;&gt;Node1 -->
<g id="edge1" class="edge">
<title>Node2&#45;&gt;Node1</title>
<path fill="none" stroke="#9a32cd" stroke-dasharray="5,2" d="M1266.1896,-63.4974C1291.782,-60.5444 1319.4524,-57.3516 1343.8269,-54.5392"/>
<polygon fill="#9a32cd" stroke="#9a32cd" points="1265.6532,-60.0359 1256.1204,-64.6592 1266.4557,-66.9898 1265.6532,-60.0359"/>
<text text-anchor="middle" x="1300" y="-65.5" font-family="Helvetica,sans-Serif" font-size="10.00" fill="#000000"> transform</text>
</g>
<!-- Node3 -->
<g id="node3" class="node">
<title>Node3</title>
<g id="a_node3"><a xlink:href="https://www.itk.org/Doxygen/html/classitk_1_1Object.html" xlink:title=" ">
<polygon fill="#ffffff" stroke="#000000" points="999,-64 999,-83 1066,-83 1066,-64 999,-64"/>
<text text-anchor="middle" x="1032.5" y="-71" font-family="Helvetica,sans-Serif" font-size="10.00" fill="#000000">itk::Object</text>
</a>
</g>
</g>
<!-- Node3&#45;&gt;Node2 -->
<g id="edge2" class="edge">
<title>Node3&#45;&gt;Node2</title>
<path fill="none" stroke="#191970" d="M1076.449,-73.5C1084.8118,-73.5 1093.787,-73.5 1102.8264,-73.5"/>
<polygon fill="#191970" stroke="#191970" points="1076.2248,-70.0001 1066.2248,-73.5 1076.2247,-77.0001 1076.2248,-70.0001"/>
</g>
<!-- Node4 -->
<g id="node4" class="node">
<title>Node4</title>
<g id="a_node4"><a xlink:href="https://www.itk.org/Doxygen/html/classitk_1_1LightObject.html" xlink:title=" ">
<polygon fill="#ffffff" stroke="#000000" points="735,-91 735,-110 826,-110 826,-91 735,-91"/>
<text text-anchor="middle" x="780.5" y="-98" font-family="Helvetica,sans-Serif" font-size="10.00" fill="#000000">itk::LightObject</text>
</a>
</g>
</g>
<!-- Node4&#45;&gt;Node3 -->
<g id="edge3" class="edge">
<title>Node4&#45;&gt;Node3</title>
<path fill="none" stroke="#191970" d="M836.1027,-94.5426C885.8985,-89.2073 957.2961,-81.5576 998.8847,-77.1016"/>
<polygon fill="#191970" stroke="#191970" points="835.7055,-91.065 826.1353,-95.6105 836.4513,-98.0252 835.7055,-91.065"/>
</g>
<!-- Node5 -->
<g id="node5" class="node">
<title>Node5</title>
<g id="a_node5"><a xlink:title=" ">
<polygon fill="#ffffff" stroke="#bfbfbf" points="454.5,-90 454.5,-109 561.5,-109 561.5,-90 454.5,-90"/>
<text text-anchor="middle" x="508" y="-97" font-family="Helvetica,sans-Serif" font-size="10.00" fill="#000000">std::atomic&lt; int &gt;</text>
</a>
</g>
</g>
<!-- Node5&#45;&gt;Node4 -->
<g id="edge4" class="edge">
<title>Node5&#45;&gt;Node4</title>
<path fill="none" stroke="#9a32cd" stroke-dasharray="5,2" d="M571.5731,-99.7333C621.592,-99.9169 690.0857,-100.1682 734.802,-100.3323"/>
<polygon fill="#9a32cd" stroke="#9a32cd" points="571.5249,-96.2332 561.5121,-99.6964 571.4992,-103.2331 571.5249,-96.2332"/>
<text text-anchor="middle" x="648" y="-102.5" font-family="Helvetica,sans-Serif" font-size="10.00" fill="#000000"> m_ReferenceCount</text>
</g>
<!-- Node6 -->
<g id="node6" class="node">
<title>Node6</title>
<g id="a_node6"><a xlink:title="STL class.">
<polygon fill="#ffffff" stroke="#bfbfbf" points="123,-87 123,-106 223,-106 223,-87 123,-87"/>
<text text-anchor="middle" x="173" y="-94" font-family="Helvetica,sans-Serif" font-size="10.00" fill="#000000">std::atomic&lt; T &gt;</text>
</a>
</g>
</g>
<!-- Node6&#45;&gt;Node5 -->
<g id="edge5" class="edge">
<title>Node6&#45;&gt;Node5</title>
<path fill="none" stroke="#ffa500" stroke-dasharray="5,2" d="M233.3342,-97.0403C296.3105,-97.6043 394.1283,-98.4803 454.4514,-99.0205"/>
<polygon fill="#ffa500" stroke="#ffa500" points="233.1839,-93.5389 223.1529,-96.9491 233.1211,-100.5386 233.1839,-93.5389"/>
<text text-anchor="middle" x="333" y="-101.5" font-family="Helvetica,sans-Serif" font-size="10.00" fill="#000000"> &lt; int &gt;</text>
</g>
<!-- Node15 -->
<g id="node15" class="node">
<title>Node15</title>
<g id="a_node15"><a xlink:href="https://www.itk.org/Doxygen/html/classitk_1_1TimeStamp.html" xlink:title=" ">
<polygon fill="#ffffff" stroke="#000000" points="602,-52 602,-71 694,-71 694,-52 602,-52"/>
<text text-anchor="middle" x="648" y="-59" font-family="Helvetica,sans-Serif" font-size="10.00" fill="#000000">itk::TimeStamp</text>
</a>
</g>
</g>
<!-- Node6&#45;&gt;Node15 -->
<g id="edge17" class="edge">
<title>Node6&#45;&gt;Node15</title>
<path fill="none" stroke="#9a32cd" stroke-dasharray="5,2" d="M226.2981,-85.0992C234.2156,-83.702 242.3004,-82.4386 250,-81.5 376.7073,-66.0543 527.5043,-62.4839 601.8545,-61.6943"/>
<polygon fill="#9a32cd" stroke="#9a32cd" points="225.5989,-81.669 216.4004,-86.9262 226.8696,-88.5527 225.5989,-81.669"/>
<text text-anchor="middle" x="333" y="-84.5" font-family="Helvetica,sans-Serif" font-size="10.00" fill="#000000"> m_GlobalTimeStamp</text>
</g>
<!-- Node7 -->
<g id="node7" class="node">
<title>Node7</title>
<g id="a_node7"><a xlink:title=" ">
<polygon fill="#ffffff" stroke="#bfbfbf" points="0,-126 0,-145 29,-145 29,-126 0,-126"/>
<text text-anchor="middle" x="14.5" y="-133" font-family="Helvetica,sans-Serif" font-size="10.00" fill="#000000">T</text>
</a>
</g>
</g>
<!-- Node7&#45;&gt;Node6 -->
<g id="edge6" class="edge">
<title>Node7&#45;&gt;Node6</title>
<path fill="none" stroke="#9a32cd" stroke-dasharray="5,2" d="M38.0713,-122.9618C41.0275,-121.6688 44.0496,-120.4745 47,-119.5 71.3873,-111.445 99.4169,-105.9766 122.8381,-102.4004"/>
<polygon fill="#9a32cd" stroke="#9a32cd" points="36.5385,-119.8151 29.0203,-127.2802 39.5528,-126.1328 36.5385,-119.8151"/>
<text text-anchor="middle" x="71.5" y="-122.5" font-family="Helvetica,sans-Serif" font-size="10.00" fill="#000000"> ptr</text>
</g>
<!-- Node12 -->
<g id="node12" class="node">
<title>Node12</title>
<g id="a_node12"><a xlink:title="STL class.">
<polygon fill="#ffffff" stroke="#bfbfbf" points="122.5,-125 122.5,-144 223.5,-144 223.5,-125 122.5,-125"/>
<text text-anchor="middle" x="173" y="-132" font-family="Helvetica,sans-Serif" font-size="10.00" fill="#000000">std::map&lt; K, T &gt;</text>
</a>
</g>
</g>
<!-- Node7&#45;&gt;Node12 -->
<g id="edge13" class="edge">
<title>Node7&#45;&gt;Node12</title>
<path fill="none" stroke="#9a32cd" stroke-dasharray="5,2" d="M39.327,-135.3434C61.4563,-135.2037 94.5356,-134.995 122.2502,-134.8202"/>
<polygon fill="#9a32cd" stroke="#9a32cd" points="39.1049,-131.8446 29.1272,-135.4077 39.1491,-138.8445 39.1049,-131.8446"/>
<text text-anchor="middle" x="71.5" y="-137.5" font-family="Helvetica,sans-Serif" font-size="10.00" fill="#000000"> elements</text>
</g>
<!-- Node14 -->
<g id="node14" class="node">
<title>Node14</title>
<g id="a_node14"><a xlink:title="STL class.">
<polygon fill="#ffffff" stroke="#bfbfbf" points="114,-163 114,-182 232,-182 232,-163 114,-163"/>
<text text-anchor="middle" x="173" y="-170" font-family="Helvetica,sans-Serif" font-size="10.00" fill="#000000">std::shared_ptr&lt; T &gt;</text>
</a>
</g>
</g>
<!-- Node7&#45;&gt;Node14 -->
<g id="edge15" class="edge">
<title>Node7&#45;&gt;Node14</title>
<path fill="none" stroke="#9a32cd" stroke-dasharray="5,2" d="M38.444,-146.5305C41.2932,-147.6288 44.1883,-148.6498 47,-149.5 68.391,-155.9685 92.4056,-160.9029 113.687,-164.5108"/>
<polygon fill="#9a32cd" stroke="#9a32cd" points="39.6975,-143.261 29.1212,-142.6343 36.9983,-149.7197 39.6975,-143.261"/>
<text text-anchor="middle" x="71.5" y="-163.5" font-family="Helvetica,sans-Serif" font-size="10.00" fill="#000000"> ptr</text>
</g>
<!-- Node8 -->
<g id="node8" class="node">
<title>Node8</title>
<g id="a_node8"><a xlink:title="STL class.">
<polygon fill="#ffffff" stroke="#bfbfbf" points="748,-6 748,-25 813,-25 813,-6 748,-6"/>
<text text-anchor="middle" x="780.5" y="-13" font-family="Helvetica,sans-Serif" font-size="10.00" fill="#000000">std::string</text>
</a>
</g>
</g>
<!-- Node8&#45;&gt;Node3 -->
<g id="edge7" class="edge">
<title>Node8&#45;&gt;Node3</title>
<path fill="none" stroke="#9a32cd" stroke-dasharray="5,2" d="M823.3496,-13.7288C864.9736,-13.4359 929.2845,-16.8167 981,-36.5 997.0511,-42.6092 1012.6639,-55.0123 1022.4121,-63.7701"/>
<polygon fill="#9a32cd" stroke="#9a32cd" points="823.2257,-10.2301 813.2775,-13.8747 823.3271,-17.2294 823.2257,-10.2301"/>
<text text-anchor="middle" x="923" y="-39.5" font-family="Helvetica,sans-Serif" font-size="10.00" fill="#000000"> m_ObjectName</text>
</g>
<!-- Node9 -->
<g id="node9" class="node">
<title>Node9</title>
<g id="a_node9"><a xlink:title="STL class.">
<polygon fill="#ffffff" stroke="#bfbfbf" points="456,-.5 456,-30.5 560,-30.5 560,-.5 456,-.5"/>
<text text-anchor="start" x="464" y="-18.5" font-family="Helvetica,sans-Serif" font-size="10.00" fill="#000000">std::basic_string&lt;</text>
<text text-anchor="middle" x="508" y="-7.5" font-family="Helvetica,sans-Serif" font-size="10.00" fill="#000000"> char &gt;</text>
</a>
</g>
</g>
<!-- Node9&#45;&gt;Node8 -->
<g id="edge8" class="edge">
<title>Node9&#45;&gt;Node8</title>
<path fill="none" stroke="#191970" d="M570.2419,-15.5C625.4471,-15.5 703.9232,-15.5 747.718,-15.5"/>
<polygon fill="#191970" stroke="#191970" points="570.2184,-12.0001 560.2183,-15.5 570.2183,-19.0001 570.2184,-12.0001"/>
</g>
<!-- Node10 -->
<g id="node10" class="node">
<title>Node10</title>
<g id="a_node10"><a xlink:href="https://www.itk.org/Doxygen/html/classitk_1_1MetaDataDictionary.html" xlink:title=" ">
<polygon fill="#ffffff" stroke="#000000" points="714,-131 714,-150 847,-150 847,-131 714,-131"/>
<text text-anchor="middle" x="780.5" y="-138" font-family="Helvetica,sans-Serif" font-size="10.00" fill="#000000">itk::MetaDataDictionary</text>
</a>
</g>
</g>
<!-- Node10&#45;&gt;Node3 -->
<g id="edge9" class="edge">
<title>Node10&#45;&gt;Node3</title>
<path fill="none" stroke="#9a32cd" stroke-dasharray="5,2" d="M856.1379,-129.1808C894.1943,-122.3538 940.6834,-112.2739 981,-98.5 992.8503,-94.4514 1005.5113,-88.3319 1015.3142,-83.1609"/>
<polygon fill="#9a32cd" stroke="#9a32cd" points="855.3928,-125.758 846.148,-130.9334 856.6024,-132.6527 855.3928,-125.758"/>
<text text-anchor="middle" x="923" y="-129.5" font-family="Helvetica,sans-Serif" font-size="10.00" fill="#000000"> m_MetaDataDictionary</text>
</g>
<!-- Node11 -->
<g id="node11" class="node">
<title>Node11</title>
<g id="a_node11"><a xlink:title=" ">
<polygon fill="#ffffff" stroke="#bfbfbf" points="434,-128.5 434,-158.5 582,-158.5 582,-128.5 434,-128.5"/>
<text text-anchor="start" x="442" y="-146.5" font-family="Helvetica,sans-Serif" font-size="10.00" fill="#000000">std::shared_ptr&lt; MetaData</text>
<text text-anchor="middle" x="508" y="-135.5" font-family="Helvetica,sans-Serif" font-size="10.00" fill="#000000">DictionaryMapType &gt;</text>
</a>
</g>
</g>
<!-- Node11&#45;&gt;Node10 -->
<g id="edge10" class="edge">
<title>Node11&#45;&gt;Node10</title>
<path fill="none" stroke="#9a32cd" stroke-dasharray="5,2" d="M592.4076,-142.5707C631.4896,-142.1405 677.2598,-141.6366 713.8642,-141.2336"/>
<polygon fill="#9a32cd" stroke="#9a32cd" points="592.0627,-139.0742 582.1019,-142.6842 592.1398,-146.0738 592.0627,-139.0742"/>
<text text-anchor="middle" x="648" y="-144.5" font-family="Helvetica,sans-Serif" font-size="10.00" fill="#000000"> m_Dictionary</text>
</g>
<!-- Node12&#45;&gt;Node11 -->
<g id="edge11" class="edge">
<title>Node12&#45;&gt;Node11</title>
<path fill="none" stroke="#9a32cd" stroke-dasharray="5,2" d="M233.893,-134.8645C283.0524,-135.3124 353.9975,-136.3056 416,-138.5 421.7549,-138.7037 427.7105,-138.9489 433.6967,-139.2201"/>
<polygon fill="#9a32cd" stroke="#9a32cd" points="233.7745,-131.3634 223.7446,-134.7769 233.714,-138.3631 233.7745,-131.3634"/>
<text text-anchor="middle" x="333" y="-141.5" font-family="Helvetica,sans-Serif" font-size="10.00" fill="#000000"> ptr</text>
</g>
<!-- Node13 -->
<g id="node13" class="node">
<title>Node13</title>
<g id="a_node13"><a xlink:title=" ">
<polygon fill="#ffffff" stroke="#bfbfbf" points="0,-58 0,-77 29,-77 29,-58 0,-58"/>
<text text-anchor="middle" x="14.5" y="-65" font-family="Helvetica,sans-Serif" font-size="10.00" fill="#000000">K</text>
</a>
</g>
</g>
<!-- Node13&#45;&gt;Node12 -->
<g id="edge12" class="edge">
<title>Node13&#45;&gt;Node12</title>
<path fill="none" stroke="#9a32cd" stroke-dasharray="5,2" d="M39.5921,-70.655C56.6973,-73.7693 79.2026,-79.8388 96,-91.5 106.9527,-99.1037 103.1438,-107.7591 114,-115.5 119.4323,-119.3734 125.694,-122.4851 132.0647,-124.9768"/>
<polygon fill="#9a32cd" stroke="#9a32cd" points="39.6719,-67.1236 29.2456,-69.0061 38.5702,-74.0364 39.6719,-67.1236"/>
<text text-anchor="middle" x="71.5" y="-94.5" font-family="Helvetica,sans-Serif" font-size="10.00" fill="#000000"> keys</text>
</g>
<!-- Node14&#45;&gt;Node11 -->
<g id="edge14" class="edge">
<title>Node14&#45;&gt;Node11</title>
<path fill="none" stroke="#ffa500" stroke-dasharray="5,2" d="M242.2928,-166.5015C298.2365,-161.6586 376.7767,-154.8596 433.9521,-149.9101"/>
<polygon fill="#ffa500" stroke="#ffa500" points="241.781,-163.0326 232.1201,-167.3821 242.3848,-170.0066 241.781,-163.0326"/>
<text text-anchor="middle" x="333" y="-167.5" font-family="Helvetica,sans-Serif" font-size="10.00" fill="#000000"> &lt; MetaDataDictionaryMapType &gt;</text>
</g>
<!-- Node15&#45;&gt;Node3 -->
<g id="edge16" class="edge">
<title>Node15&#45;&gt;Node3</title>
<path fill="none" stroke="#9a32cd" stroke-dasharray="5,2" d="M704.4241,-63.261C785.6233,-65.7951 932.9041,-70.3917 998.9159,-72.4519"/>
<polygon fill="#9a32cd" stroke="#9a32cd" points="704.484,-59.7612 694.3797,-62.9475 704.2656,-66.7578 704.484,-59.7612"/>
<text text-anchor="middle" x="780.5" y="-70.5" font-family="Helvetica,sans-Serif" font-size="10.00" fill="#000000"> m_MTime</text>
</g>
<!-- Node16 -->
<g id="node16" class="node">
<title>Node16</title>
<g id="a_node16"><a xlink:href="classitk_1_1simple_1_1Transform.html" target="_top" xlink:title="A simplified wrapper around a variety of ITK transforms.">
<polygon fill="#ffffff" stroke="#000000" points="1118,-20 1118,-39 1241,-39 1241,-20 1118,-20"/>
<text text-anchor="middle" x="1179.5" y="-27" font-family="Helvetica,sans-Serif" font-size="10.00" fill="#000000">itk::simple::Transform</text>
</a>
</g>
</g>
<!-- Node16&#45;&gt;Node1 -->
<g id="edge18" class="edge">
<title>Node16&#45;&gt;Node1</title>
<path fill="none" stroke="#9a32cd" stroke-dasharray="5,2" d="M1251.2476,-31.2328C1275.0614,-32.1292 1301.6945,-33.4781 1326,-35.5 1331.798,-35.9823 1337.8026,-36.5638 1343.8248,-37.2044"/>
<polygon fill="#9a32cd" stroke="#9a32cd" points="1251.3476,-27.7342 1241.2292,-30.8757 1251.0982,-34.7298 1251.3476,-27.7342"/>
<text text-anchor="middle" x="1300" y="-38.5" font-family="Helvetica,sans-Serif" font-size="10.00" fill="#000000"> that</text>
</g>
</g>
</svg>
