<?xml version="1.0" encoding="UTF-8" standalone="no"?>
<!DOCTYPE svg PUBLIC "-//W3C//DTD SVG 1.1//EN"
 "http://www.w3.org/Graphics/SVG/1.1/DTD/svg11.dtd">
<!-- Generated by graphviz version 2.40.1 (20161225.0304)
 -->
<!-- Title: itk::simple::ProcessObject::EventCommand Pages: 1 -->
<svg width="2385pt" height="579pt"
 viewBox="0.00 0.00 2385.00 579.00" xmlns="http://www.w3.org/2000/svg" xmlns:xlink="http://www.w3.org/1999/xlink">
<g id="graph0" class="graph" transform="scale(1 1) rotate(0) translate(4 575)">
<title>itk::simple::ProcessObject::EventCommand</title>
<polygon fill="#ffffff" stroke="transparent" points="-4,4 -4,-575 2381,-575 2381,4 -4,4"/>
<!-- Node1 -->
<g id="node1" class="node">
<title>Node1</title>
<g id="a_node1"><a xlink:title=" ">
<polygon fill="#bfbfbf" stroke="#000000" points="1141,-422 1141,-452 1284,-452 1284,-422 1141,-422"/>
<text text-anchor="start" x="1149" y="-440" font-family="Helvetica,sans-Serif" font-size="10.00" fill="#000000">itk::simple::ProcessObject</text>
<text text-anchor="middle" x="1212.5" y="-429" font-family="Helvetica,sans-Serif" font-size="10.00" fill="#000000">::EventCommand</text>
</a>
</g>
</g>
<!-- Node8 -->
<g id="node8" class="node">
<title>Node8</title>
<g id="a_node8"><a xlink:title=" ">
<polygon fill="#ffffff" stroke="#bfbfbf" points="1474,-267 1474,-297 1661,-297 1661,-267 1474,-267"/>
<text text-anchor="start" x="1482" y="-285" font-family="Helvetica,sans-Serif" font-size="10.00" fill="#000000">std::list&lt; itk::simple</text>
<text text-anchor="middle" x="1567.5" y="-274" font-family="Helvetica,sans-Serif" font-size="10.00" fill="#000000">::ProcessObject::EventCommand &gt;</text>
</a>
</g>
</g>
<!-- Node1&#45;&gt;Node8 -->
<g id="edge9" class="edge">
<title>Node1&#45;&gt;Node8</title>
<path fill="none" stroke="#9a32cd" stroke-dasharray="5,2" d="M1278.1932,-418.9985C1284.5735,-417.0533 1290.9277,-415.038 1297,-413 1305.1375,-410.2688 1306.7189,-408.2589 1315,-406 1376.2569,-389.2908 1409.5401,-426.2791 1456,-383 1481.3993,-359.3396 1449.8096,-331.8951 1474,-307 1477.7471,-303.1438 1482.0183,-299.8609 1486.6242,-297.0685"/>
<polygon fill="#9a32cd" stroke="#9a32cd" points="1276.7613,-415.7734 1268.1825,-421.9906 1278.766,-422.4802 1276.7613,-415.7734"/>
<text text-anchor="middle" x="1385.5" y="-409" font-family="Helvetica,sans-Serif" font-size="10.00" fill="#000000"> elements</text>
</g>
<!-- Node2 -->
<g id="node2" class="node">
<title>Node2</title>
<g id="a_node2"><a xlink:href="classitk_1_1simple_1_1Command.html" target="_top" xlink:title="An implementation of the Command design pattern for callback.">
<polygon fill="#ffffff" stroke="#000000" points="2252,-241.5 2252,-260.5 2377,-260.5 2377,-241.5 2252,-241.5"/>
<text text-anchor="middle" x="2314.5" y="-248.5" font-family="Helvetica,sans-Serif" font-size="10.00" fill="#000000">itk::simple::Command</text>
</a>
</g>
</g>
<!-- Node2&#45;&gt;Node1 -->
<g id="edge1" class="edge">
<title>Node2&#45;&gt;Node1</title>
<path fill="none" stroke="#9a32cd" stroke-dasharray="5,2" d="M2301.5956,-268.8308C2266.5187,-315.0231 2164.2251,-435 2048,-435 1722.5,-435 1722.5,-435 1722.5,-435 1566.2228,-435 1383.0109,-435.9507 1284.2905,-436.5412"/>
<polygon fill="#9a32cd" stroke="#9a32cd" points="2304.5342,-270.7447 2307.699,-260.6336 2298.9196,-266.5642 2304.5342,-270.7447"/>
<text text-anchor="middle" x="1855.5" y="-438" font-family="Helvetica,sans-Serif" font-size="10.00" fill="#000000"> m_Command</text>
</g>
<!-- Node3 -->
<g id="node3" class="node">
<title>Node3</title>
<g id="a_node3"><a xlink:href="classitk_1_1simple_1_1NonCopyable.html" target="_top" xlink:title="An inheritable class to disable copying of a class.">
<polygon fill="#ffffff" stroke="#000000" points="1497.5,-226.5 1497.5,-245.5 1637.5,-245.5 1637.5,-226.5 1497.5,-226.5"/>
<text text-anchor="middle" x="1567.5" y="-233.5" font-family="Helvetica,sans-Serif" font-size="10.00" fill="#000000">itk::simple::NonCopyable</text>
</a>
</g>
</g>
<!-- Node3&#45;&gt;Node2 -->
<g id="edge2" class="edge">
<title>Node3&#45;&gt;Node2</title>
<path fill="none" stroke="#006400" d="M1647.8295,-237.613C1797.6294,-240.6211 2116.6531,-247.0272 2251.8572,-249.7421"/>
<polygon fill="#006400" stroke="#006400" points="1647.8442,-234.1127 1637.7759,-237.4112 1647.7036,-241.1113 1647.8442,-234.1127"/>
</g>
<!-- Node7 -->
<g id="node7" class="node">
<title>Node7</title>
<g id="a_node7"><a xlink:href="classitk_1_1simple_1_1ProcessObject.html" target="_top" xlink:title="Base class for SimpleITK classes based on ProcessObject.">
<polygon fill="#ffffff" stroke="#000000" points="1784,-283.5 1784,-302.5 1927,-302.5 1927,-283.5 1784,-283.5"/>
<text text-anchor="middle" x="1855.5" y="-290.5" font-family="Helvetica,sans-Serif" font-size="10.00" fill="#000000">itk::simple::ProcessObject</text>
</a>
</g>
</g>
<!-- Node3&#45;&gt;Node7 -->
<g id="edge7" class="edge">
<title>Node3&#45;&gt;Node7</title>
<path fill="none" stroke="#006400" d="M1625.6978,-247.5183C1679.0496,-258.0775 1757.1347,-273.5319 1807.138,-283.4284"/>
<polygon fill="#006400" stroke="#006400" points="1626.194,-244.0487 1615.7047,-245.5405 1624.8349,-250.9155 1626.194,-244.0487"/>
</g>
<!-- Node4 -->
<g id="node4" class="node">
<title>Node4</title>
<g id="a_node4"><a xlink:title="STL class.">
<polygon fill="#ffffff" stroke="#bfbfbf" points="841.5,-237.5 841.5,-256.5 906.5,-256.5 906.5,-237.5 841.5,-237.5"/>
<text text-anchor="middle" x="874" y="-244.5" font-family="Helvetica,sans-Serif" font-size="10.00" fill="#000000">std::string</text>
</a>
</g>
</g>
<!-- Node4&#45;&gt;Node2 -->
<g id="edge3" class="edge">
<title>Node4&#45;&gt;Node2</title>
<path fill="none" stroke="#9a32cd" stroke-dasharray="5,2" d="M916.7854,-242.2927C964.1954,-236.8225 1042.8318,-226.9951 1110,-215 1118.0675,-213.5593 1119.8811,-212.1151 1128,-211 1241.5475,-195.4047 1270.8865,-197 1385.5,-197 1385.5,-197 1385.5,-197 2048,-197 2136.5143,-197 2238.3307,-225.9679 2286.481,-241.4702"/>
<polygon fill="#9a32cd" stroke="#9a32cd" points="916.121,-238.8458 906.5828,-243.4581 916.9155,-245.8005 916.121,-238.8458"/>
<text text-anchor="middle" x="1722.5" y="-200" font-family="Helvetica,sans-Serif" font-size="10.00" fill="#000000"> m_Name</text>
</g>
<!-- Node12 -->
<g id="node12" class="node">
<title>Node12</title>
<g id="a_node12"><a xlink:href="https://www.itk.org/Doxygen/html/classitk_1_1Object.html" xlink:title=" ">
<polygon fill="#ffffff" stroke="#000000" points="1179,-149.5 1179,-168.5 1246,-168.5 1246,-149.5 1179,-149.5"/>
<text text-anchor="middle" x="1212.5" y="-156.5" font-family="Helvetica,sans-Serif" font-size="10.00" fill="#000000">itk::Object</text>
</a>
</g>
</g>
<!-- Node4&#45;&gt;Node12 -->
<g id="edge18" class="edge">
<title>Node4&#45;&gt;Node12</title>
<path fill="none" stroke="#9a32cd" stroke-dasharray="5,2" d="M899.0652,-232.4161C916.4624,-222.9208 940.4718,-211.034 963,-204 1026.1229,-184.2911 1044.9798,-193.0545 1110,-181 1133.0851,-176.7201 1158.9317,-171.1673 1178.895,-166.7111"/>
<polygon fill="#9a32cd" stroke="#9a32cd" points="897.16,-229.4711 890.1318,-237.3992 900.5701,-235.5843 897.16,-229.4711"/>
<text text-anchor="middle" x="1036.5" y="-207" font-family="Helvetica,sans-Serif" font-size="10.00" fill="#000000"> m_ObjectName</text>
</g>
<!-- Node22 -->
<g id="node22" class="node">
<title>Node22</title>
<g id="a_node22"><a xlink:title=" ">
<polygon fill="#ffffff" stroke="#bfbfbf" points="1131.5,-322 1131.5,-352 1293.5,-352 1293.5,-322 1131.5,-322"/>
<text text-anchor="start" x="1139.5" y="-340" font-family="Helvetica,sans-Serif" font-size="10.00" fill="#000000">std::set&lt; DataObjectIdentifier</text>
<text text-anchor="middle" x="1212.5" y="-329" font-family="Helvetica,sans-Serif" font-size="10.00" fill="#000000">Type &gt;</text>
</a>
</g>
</g>
<!-- Node4&#45;&gt;Node22 -->
<g id="edge29" class="edge">
<title>Node4&#45;&gt;Node22</title>
<path fill="none" stroke="#9a32cd" stroke-dasharray="5,2" d="M908.7697,-260.0434C925.1037,-265.9298 944.9188,-272.7284 963,-278 1022.0763,-295.2239 1090.1103,-311.0515 1140.1978,-321.9678"/>
<polygon fill="#9a32cd" stroke="#9a32cd" points="909.6899,-256.6536 899.0959,-256.5179 907.293,-263.2305 909.6899,-256.6536"/>
<text text-anchor="middle" x="1036.5" y="-316" font-family="Helvetica,sans-Serif" font-size="10.00" fill="#000000"> keys</text>
</g>
<!-- Node24 -->
<g id="node24" class="node">
<title>Node24</title>
<g id="a_node24"><a xlink:title=" ">
<polygon fill="#ffffff" stroke="#bfbfbf" points="1128,-373 1128,-403 1297,-403 1297,-373 1128,-373"/>
<text text-anchor="start" x="1136" y="-391" font-family="Helvetica,sans-Serif" font-size="10.00" fill="#000000">std::map&lt; DataObjectIdentifier</text>
<text text-anchor="middle" x="1212.5" y="-380" font-family="Helvetica,sans-Serif" font-size="10.00" fill="#000000">Type, bool &gt;</text>
</a>
</g>
</g>
<!-- Node4&#45;&gt;Node24 -->
<g id="edge33" class="edge">
<title>Node4&#45;&gt;Node24</title>
<path fill="none" stroke="#9a32cd" stroke-dasharray="5,2" d="M892.1903,-263.724C908.3492,-279.5578 931.4466,-304.7557 945,-331 959.7399,-359.5418 937.6141,-381.3161 963,-401 988.751,-420.9671 1070.2196,-413.0181 1133.1324,-403.0438"/>
<polygon fill="#9a32cd" stroke="#9a32cd" points="894.5334,-261.1219 884.8873,-256.7397 889.6952,-266.1808 894.5334,-261.1219"/>
<text text-anchor="middle" x="1036.5" y="-416" font-family="Helvetica,sans-Serif" font-size="10.00" fill="#000000"> keys</text>
</g>
<!-- Node29 -->
<g id="node29" class="node">
<title>Node29</title>
<g id="a_node29"><a xlink:title=" ">
<polygon fill="#ffffff" stroke="#bfbfbf" points="1128,-273 1128,-303 1297,-303 1297,-273 1128,-273"/>
<text text-anchor="start" x="1136" y="-291" font-family="Helvetica,sans-Serif" font-size="10.00" fill="#000000">std::map&lt; DataObjectIdentifier</text>
<text text-anchor="middle" x="1212.5" y="-280" font-family="Helvetica,sans-Serif" font-size="10.00" fill="#000000">Type, DataObjectPointer &gt;</text>
</a>
</g>
</g>
<!-- Node4&#45;&gt;Node29 -->
<g id="edge44" class="edge">
<title>Node4&#45;&gt;Node29</title>
<path fill="none" stroke="#9a32cd" stroke-dasharray="5,2" d="M916.8602,-247.7011C964.3356,-248.9887 1043.029,-252.641 1110,-263 1125.8388,-265.4499 1142.8249,-269.1457 1158.3236,-272.9495"/>
<polygon fill="#9a32cd" stroke="#9a32cd" points="916.7265,-244.1968 906.6427,-247.4476 916.5528,-251.1946 916.7265,-244.1968"/>
<text text-anchor="middle" x="1036.5" y="-266" font-family="Helvetica,sans-Serif" font-size="10.00" fill="#000000"> keys</text>
</g>
<!-- Node5 -->
<g id="node5" class="node">
<title>Node5</title>
<g id="a_node5"><a xlink:title="STL class.">
<polygon fill="#ffffff" stroke="#bfbfbf" points="491.5,-229 491.5,-259 595.5,-259 595.5,-229 491.5,-229"/>
<text text-anchor="start" x="499.5" y="-247" font-family="Helvetica,sans-Serif" font-size="10.00" fill="#000000">std::basic_string&lt;</text>
<text text-anchor="middle" x="543.5" y="-236" font-family="Helvetica,sans-Serif" font-size="10.00" fill="#000000"> char &gt;</text>
</a>
</g>
</g>
<!-- Node5&#45;&gt;Node4 -->
<g id="edge4" class="edge">
<title>Node5&#45;&gt;Node4</title>
<path fill="none" stroke="#191970" d="M605.5147,-244.5629C675.4669,-245.1979 786.591,-246.2066 841.333,-246.7035"/>
<polygon fill="#191970" stroke="#191970" points="605.5356,-241.0631 595.5042,-244.4721 605.472,-248.0628 605.5356,-241.0631"/>
</g>
<!-- Node6 -->
<g id="node6" class="node">
<title>Node6</title>
<g id="a_node6"><a xlink:title=" ">
<polygon fill="#ffffff" stroke="#bfbfbf" points="1990,-278 1990,-308 2106,-308 2106,-278 1990,-278"/>
<text text-anchor="start" x="1998" y="-296" font-family="Helvetica,sans-Serif" font-size="10.00" fill="#000000">std::set&lt; itk::simple</text>
<text text-anchor="middle" x="2048" y="-285" font-family="Helvetica,sans-Serif" font-size="10.00" fill="#000000">::ProcessObject * &gt;</text>
</a>
</g>
</g>
<!-- Node6&#45;&gt;Node2 -->
<g id="edge5" class="edge">
<title>Node6&#45;&gt;Node2</title>
<path fill="none" stroke="#9a32cd" stroke-dasharray="5,2" d="M2116.1607,-282.258C2158.7594,-275.5445 2213.1231,-266.9768 2254.1584,-260.5097"/>
<polygon fill="#9a32cd" stroke="#9a32cd" points="2115.4884,-278.8206 2106.1552,-283.8348 2116.5782,-285.7353 2115.4884,-278.8206"/>
<text text-anchor="middle" x="2179" y="-283" font-family="Helvetica,sans-Serif" font-size="10.00" fill="#000000"> m_ReferencedObjects</text>
</g>
<!-- Node7&#45;&gt;Node6 -->
<g id="edge6" class="edge">
<title>Node7&#45;&gt;Node6</title>
<path fill="none" stroke="#9a32cd" stroke-dasharray="5,2" d="M1937.4461,-293C1955.0416,-293 1973.2894,-293 1989.7662,-293"/>
<polygon fill="#9a32cd" stroke="#9a32cd" points="1937.1799,-289.5001 1927.1799,-293 1937.1799,-296.5001 1937.1799,-289.5001"/>
<text text-anchor="middle" x="1958.5" y="-296" font-family="Helvetica,sans-Serif" font-size="10.00" fill="#000000"> keys</text>
</g>
<!-- Node8&#45;&gt;Node7 -->
<g id="edge8" class="edge">
<title>Node8&#45;&gt;Node7</title>
<path fill="none" stroke="#9a32cd" stroke-dasharray="5,2" d="M1671.4171,-285.9691C1708.7314,-287.3943 1749.9471,-288.9685 1783.9028,-290.2654"/>
<polygon fill="#9a32cd" stroke="#9a32cd" points="1671.1317,-282.4557 1661.0053,-285.5714 1670.8644,-289.4506 1671.1317,-282.4557"/>
<text text-anchor="middle" x="1722.5" y="-292" font-family="Helvetica,sans-Serif" font-size="10.00" fill="#000000"> m_Commands</text>
</g>
<!-- Node9 -->
<g id="node9" class="node">
<title>Node9</title>
<g id="a_node9"><a xlink:title="STL class.">
<polygon fill="#ffffff" stroke="#bfbfbf" points="317.5,-.5 317.5,-19.5 398.5,-19.5 398.5,-.5 317.5,-.5"/>
<text text-anchor="middle" x="358" y="-7.5" font-family="Helvetica,sans-Serif" font-size="10.00" fill="#000000">std::list&lt; T &gt;</text>
</a>
</g>
</g>
<!-- Node9&#45;&gt;Node8 -->
<g id="edge10" class="edge">
<title>Node9&#45;&gt;Node8</title>
<path fill="none" stroke="#ffa500" stroke-dasharray="5,2" d="M408.9426,-7.9111C478.2795,-5.2523 606.2499,-1 715.5,-1 715.5,-1 715.5,-1 1212.5,-1 1325.871,-1 1384.3152,10.831 1456,-77 1506.2773,-138.6017 1423.0661,-193.9401 1474,-255 1477.8962,-259.6708 1482.5456,-263.5619 1487.6593,-266.8002"/>
<polygon fill="#ffa500" stroke="#ffa500" points="408.5951,-4.4218 398.7384,-8.3072 408.8667,-11.4166 408.5951,-4.4218"/>
<text text-anchor="start" x="803" y="-15" font-family="Helvetica,sans-Serif" font-size="10.00" fill="#000000"> &lt; itk::simple::ProcessObject</text>
<text text-anchor="middle" x="874" y="-4" font-family="Helvetica,sans-Serif" font-size="10.00" fill="#000000">::EventCommand &gt;</text>
</g>
<!-- Node10 -->
<g id="node10" class="node">
<title>Node10</title>
<g id="a_node10"><a xlink:title=" ">
<polygon fill="#ffffff" stroke="#bfbfbf" points="0,-178.5 0,-197.5 29,-197.5 29,-178.5 0,-178.5"/>
<text text-anchor="middle" x="14.5" y="-185.5" font-family="Helvetica,sans-Serif" font-size="10.00" fill="#000000">T</text>
</a>
</g>
</g>
<!-- Node10&#45;&gt;Node9 -->
<g id="edge11" class="edge">
<title>Node10&#45;&gt;Node9</title>
<path fill="none" stroke="#9a32cd" stroke-dasharray="5,2" d="M24.5907,-169.4986C30.3055,-160.1749 38.0899,-149.1499 47,-141 126.7609,-68.0445 253.0914,-32.2044 317.4369,-17.8754"/>
<polygon fill="#9a32cd" stroke="#9a32cd" points="21.4133,-168.0008 19.4239,-178.4072 27.4686,-171.5128 21.4133,-168.0008"/>
<text text-anchor="middle" x="71.5" y="-144" font-family="Helvetica,sans-Serif" font-size="10.00" fill="#000000"> elements</text>
</g>
<!-- Node15 -->
<g id="node15" class="node">
<title>Node15</title>
<g id="a_node15"><a xlink:title="STL class.">
<polygon fill="#ffffff" stroke="#bfbfbf" points="135.5,-112.5 135.5,-131.5 235.5,-131.5 235.5,-112.5 135.5,-112.5"/>
<text text-anchor="middle" x="185.5" y="-119.5" font-family="Helvetica,sans-Serif" font-size="10.00" fill="#000000">std::atomic&lt; T &gt;</text>
</a>
</g>
</g>
<!-- Node10&#45;&gt;Node15 -->
<g id="edge17" class="edge">
<title>Node10&#45;&gt;Node15</title>
<path fill="none" stroke="#9a32cd" stroke-dasharray="5,2" d="M38.576,-176.6297C41.4014,-175.3722 44.2548,-174.1368 47,-173 84.8782,-157.3141 129.5102,-141.3137 157.6576,-131.5192"/>
<polygon fill="#9a32cd" stroke="#9a32cd" points="36.9164,-173.5399 29.2753,-180.8791 39.8254,-179.9068 36.9164,-173.5399"/>
<text text-anchor="middle" x="71.5" y="-176" font-family="Helvetica,sans-Serif" font-size="10.00" fill="#000000"> ptr</text>
</g>
<!-- Node18 -->
<g id="node18" class="node">
<title>Node18</title>
<g id="a_node18"><a xlink:title="STL class.">
<polygon fill="#ffffff" stroke="#bfbfbf" points="135,-278.5 135,-297.5 236,-297.5 236,-278.5 135,-278.5"/>
<text text-anchor="middle" x="185.5" y="-285.5" font-family="Helvetica,sans-Serif" font-size="10.00" fill="#000000">std::map&lt; K, T &gt;</text>
</a>
</g>
</g>
<!-- Node10&#45;&gt;Node18 -->
<g id="edge23" class="edge">
<title>Node10&#45;&gt;Node18</title>
<path fill="none" stroke="#9a32cd" stroke-dasharray="5,2" d="M37.7203,-201.5792C72.8715,-222.1354 138.7192,-260.6428 169.2224,-278.4809"/>
<polygon fill="#9a32cd" stroke="#9a32cd" points="39.4785,-198.5528 29.0794,-196.5259 35.9448,-204.5954 39.4785,-198.5528"/>
<text text-anchor="middle" x="71.5" y="-239" font-family="Helvetica,sans-Serif" font-size="10.00" fill="#000000"> elements</text>
</g>
<!-- Node20 -->
<g id="node20" class="node">
<title>Node20</title>
<g id="a_node20"><a xlink:title="STL class.">
<polygon fill="#ffffff" stroke="#bfbfbf" points="126.5,-178.5 126.5,-197.5 244.5,-197.5 244.5,-178.5 126.5,-178.5"/>
<text text-anchor="middle" x="185.5" y="-185.5" font-family="Helvetica,sans-Serif" font-size="10.00" fill="#000000">std::shared_ptr&lt; T &gt;</text>
</a>
</g>
</g>
<!-- Node10&#45;&gt;Node20 -->
<g id="edge25" class="edge">
<title>Node10&#45;&gt;Node20</title>
<path fill="none" stroke="#9a32cd" stroke-dasharray="5,2" d="M39.2076,-188C61.9291,-188 96.5161,-188 126.3559,-188"/>
<polygon fill="#9a32cd" stroke="#9a32cd" points="39.0794,-184.5001 29.0794,-188 39.0793,-191.5001 39.0794,-184.5001"/>
<text text-anchor="middle" x="71.5" y="-191" font-family="Helvetica,sans-Serif" font-size="10.00" fill="#000000"> ptr</text>
</g>
<!-- Node28 -->
<g id="node28" class="node">
<title>Node28</title>
<g id="a_node28"><a xlink:title="STL class.">
<polygon fill="#ffffff" stroke="#bfbfbf" points="137,-506.5 137,-525.5 234,-525.5 234,-506.5 137,-506.5"/>
<text text-anchor="middle" x="185.5" y="-513.5" font-family="Helvetica,sans-Serif" font-size="10.00" fill="#000000">std::vector&lt; T &gt;</text>
</a>
</g>
</g>
<!-- Node10&#45;&gt;Node28 -->
<g id="edge40" class="edge">
<title>Node10&#45;&gt;Node28</title>
<path fill="none" stroke="#9a32cd" stroke-dasharray="5,2" d="M16.0648,-207.7158C19.8239,-251.803 30.3083,-356.9262 47,-388 76.7478,-443.3794 139.7801,-487.6897 169.4371,-506.3836"/>
<polygon fill="#9a32cd" stroke="#9a32cd" points="19.5472,-207.3573 15.2363,-197.6792 12.5709,-207.9332 19.5472,-207.3573"/>
<text text-anchor="middle" x="71.5" y="-451" font-family="Helvetica,sans-Serif" font-size="10.00" fill="#000000"> elements</text>
</g>
<!-- Node11 -->
<g id="node11" class="node">
<title>Node11</title>
<g id="a_node11"><a xlink:href="https://www.itk.org/Doxygen/html/classitk_1_1ProcessObject.html" xlink:title=" ">
<polygon fill="#ffffff" stroke="#000000" points="1515.5,-316.5 1515.5,-335.5 1619.5,-335.5 1619.5,-316.5 1515.5,-316.5"/>
<text text-anchor="middle" x="1567.5" y="-323.5" font-family="Helvetica,sans-Serif" font-size="10.00" fill="#000000">itk::ProcessObject</text>
</a>
</g>
</g>
<!-- Node11&#45;&gt;Node7 -->
<g id="edge12" class="edge">
<title>Node11&#45;&gt;Node7</title>
<path fill="none" stroke="#9a32cd" stroke-dasharray="5,2" d="M1629.9362,-319.2728C1669.0409,-315.0117 1720.4767,-309.32 1766,-304 1771.7532,-303.3277 1777.713,-302.6199 1783.6995,-301.901"/>
<polygon fill="#9a32cd" stroke="#9a32cd" points="1629.3241,-315.8187 1619.7613,-320.3796 1630.0811,-322.7776 1629.3241,-315.8187"/>
<text text-anchor="middle" x="1722.5" y="-316" font-family="Helvetica,sans-Serif" font-size="10.00" fill="#000000"> m_ActiveProcess</text>
</g>
<!-- Node12&#45;&gt;Node11 -->
<g id="edge13" class="edge">
<title>Node12&#45;&gt;Node11</title>
<path fill="none" stroke="#191970" d="M1256.3124,-158.8957C1310.9968,-161.247 1403.6823,-173.8263 1456,-229 1480.4802,-254.8166 1448.5138,-282.176 1474,-307 1485.0353,-317.7486 1500.3923,-323.1952 1515.4746,-325.7734"/>
<polygon fill="#191970" stroke="#191970" points="1256.3449,-155.395 1246.2339,-158.5599 1256.1117,-162.3911 1256.3449,-155.395"/>
</g>
<!-- Node13 -->
<g id="node13" class="node">
<title>Node13</title>
<g id="a_node13"><a xlink:href="https://www.itk.org/Doxygen/html/classitk_1_1LightObject.html" xlink:title=" ">
<polygon fill="#ffffff" stroke="#000000" points="828.5,-79.5 828.5,-98.5 919.5,-98.5 919.5,-79.5 828.5,-79.5"/>
<text text-anchor="middle" x="874" y="-86.5" font-family="Helvetica,sans-Serif" font-size="10.00" fill="#000000">itk::LightObject</text>
</a>
</g>
</g>
<!-- Node13&#45;&gt;Node12 -->
<g id="edge14" class="edge">
<title>Node13&#45;&gt;Node12</title>
<path fill="none" stroke="#191970" d="M929.8718,-83.8888C978.4871,-81.189 1050.3123,-81.4502 1110,-99 1145.8061,-109.528 1182.2192,-135.1623 1200.4817,-149.2788"/>
<polygon fill="#191970" stroke="#191970" points="929.629,-80.397 919.8629,-84.5047 930.059,-87.3838 929.629,-80.397"/>
</g>
<!-- Node14 -->
<g id="node14" class="node">
<title>Node14</title>
<g id="a_node14"><a xlink:title=" ">
<polygon fill="#ffffff" stroke="#bfbfbf" points="490,-79.5 490,-98.5 597,-98.5 597,-79.5 490,-79.5"/>
<text text-anchor="middle" x="543.5" y="-86.5" font-family="Helvetica,sans-Serif" font-size="10.00" fill="#000000">std::atomic&lt; int &gt;</text>
</a>
</g>
</g>
<!-- Node14&#45;&gt;Node13 -->
<g id="edge15" class="edge">
<title>Node14&#45;&gt;Node13</title>
<path fill="none" stroke="#9a32cd" stroke-dasharray="5,2" d="M607.4451,-89C672.3185,-89 771.1079,-89 828.4377,-89"/>
<polygon fill="#9a32cd" stroke="#9a32cd" points="607.3361,-85.5001 597.3361,-89 607.3361,-92.5001 607.3361,-85.5001"/>
<text text-anchor="middle" x="715.5" y="-92" font-family="Helvetica,sans-Serif" font-size="10.00" fill="#000000"> m_ReferenceCount</text>
</g>
<!-- Node15&#45;&gt;Node14 -->
<g id="edge16" class="edge">
<title>Node15&#45;&gt;Node14</title>
<path fill="none" stroke="#ffa500" stroke-dasharray="5,2" d="M245.6915,-113.4663C255.4772,-112.2124 265.5121,-111.0063 275,-110 349.3938,-102.1095 435.6782,-95.879 489.9298,-92.3157"/>
<polygon fill="#ffa500" stroke="#ffa500" points="245.079,-110.0165 235.6174,-114.784 245.9869,-116.9574 245.079,-110.0165"/>
<text text-anchor="middle" x="358" y="-113" font-family="Helvetica,sans-Serif" font-size="10.00" fill="#000000"> &lt; int &gt;</text>
</g>
<!-- Node21 -->
<g id="node21" class="node">
<title>Node21</title>
<g id="a_node21"><a xlink:href="https://www.itk.org/Doxygen/html/classitk_1_1TimeStamp.html" xlink:title=" ">
<polygon fill="#ffffff" stroke="#000000" points="828,-125.5 828,-144.5 920,-144.5 920,-125.5 828,-125.5"/>
<text text-anchor="middle" x="874" y="-132.5" font-family="Helvetica,sans-Serif" font-size="10.00" fill="#000000">itk::TimeStamp</text>
</a>
</g>
</g>
<!-- Node15&#45;&gt;Node21 -->
<g id="edge27" class="edge">
<title>Node15&#45;&gt;Node21</title>
<path fill="none" stroke="#9a32cd" stroke-dasharray="5,2" d="M245.7534,-123.1377C381.0997,-125.6932 706.8195,-131.8434 827.7659,-134.127"/>
<polygon fill="#9a32cd" stroke="#9a32cd" points="245.6341,-119.6349 235.5698,-122.9454 245.5019,-126.6337 245.6341,-119.6349"/>
<text text-anchor="middle" x="543.5" y="-134" font-family="Helvetica,sans-Serif" font-size="10.00" fill="#000000"> m_GlobalTimeStamp</text>
</g>
<!-- Node25 -->
<g id="node25" class="node">
<title>Node25</title>
<g id="a_node25"><a xlink:title=" ">
<polygon fill="#ffffff" stroke="#bfbfbf" points="648.5,-41.5 648.5,-60.5 782.5,-60.5 782.5,-41.5 648.5,-41.5"/>
<text text-anchor="middle" x="715.5" y="-48.5" font-family="Helvetica,sans-Serif" font-size="10.00" fill="#000000">std::atomic&lt; uint32_t &gt;</text>
</a>
</g>
</g>
<!-- Node15&#45;&gt;Node25 -->
<g id="edge36" class="edge">
<title>Node15&#45;&gt;Node25</title>
<path fill="none" stroke="#ffa500" stroke-dasharray="5,2" d="M210.9953,-107.7141C228.4492,-98.669 252.4328,-87.6489 275,-82 404.2183,-49.6544 560.9486,-46.9353 648.3212,-48.527"/>
<polygon fill="#ffa500" stroke="#ffa500" points="209.2049,-104.7021 202.0209,-112.4893 212.4931,-110.8818 209.2049,-104.7021"/>
<text text-anchor="middle" x="358" y="-85" font-family="Helvetica,sans-Serif" font-size="10.00" fill="#000000"> &lt; uint32_t &gt;</text>
</g>
<!-- Node16 -->
<g id="node16" class="node">
<title>Node16</title>
<g id="a_node16"><a xlink:href="https://www.itk.org/Doxygen/html/classitk_1_1MetaDataDictionary.html" xlink:title=" ">
<polygon fill="#ffffff" stroke="#000000" points="807.5,-167.5 807.5,-186.5 940.5,-186.5 940.5,-167.5 807.5,-167.5"/>
<text text-anchor="middle" x="874" y="-174.5" font-family="Helvetica,sans-Serif" font-size="10.00" fill="#000000">itk::MetaDataDictionary</text>
</a>
</g>
</g>
<!-- Node16&#45;&gt;Node12 -->
<g id="edge19" class="edge">
<title>Node16&#45;&gt;Node12</title>
<path fill="none" stroke="#9a32cd" stroke-dasharray="5,2" d="M950.8349,-170.7898C954.9487,-170.5095 959.0237,-170.244 963,-170 1040.2489,-165.2607 1131.0735,-161.7825 1178.9853,-160.1109"/>
<polygon fill="#9a32cd" stroke="#9a32cd" points="950.2926,-167.3192 940.5632,-171.5132 950.7844,-174.3019 950.2926,-167.3192"/>
<text text-anchor="middle" x="1036.5" y="-173" font-family="Helvetica,sans-Serif" font-size="10.00" fill="#000000"> m_MetaDataDictionary</text>
</g>
<!-- Node17 -->
<g id="node17" class="node">
<title>Node17</title>
<g id="a_node17"><a xlink:title=" ">
<polygon fill="#ffffff" stroke="#bfbfbf" points="469.5,-173 469.5,-203 617.5,-203 617.5,-173 469.5,-173"/>
<text text-anchor="start" x="477.5" y="-191" font-family="Helvetica,sans-Serif" font-size="10.00" fill="#000000">std::shared_ptr&lt; MetaData</text>
<text text-anchor="middle" x="543.5" y="-180" font-family="Helvetica,sans-Serif" font-size="10.00" fill="#000000">DictionaryMapType &gt;</text>
</a>
</g>
</g>
<!-- Node17&#45;&gt;Node16 -->
<g id="edge20" class="edge">
<title>Node17&#45;&gt;Node16</title>
<path fill="none" stroke="#9a32cd" stroke-dasharray="5,2" d="M627.8805,-185.1916C683.621,-183.3364 755.654,-180.9389 807.3685,-179.2177"/>
<polygon fill="#9a32cd" stroke="#9a32cd" points="627.5487,-181.7006 617.6707,-185.5314 627.7816,-188.6967 627.5487,-181.7006"/>
<text text-anchor="middle" x="715.5" y="-188" font-family="Helvetica,sans-Serif" font-size="10.00" fill="#000000"> m_Dictionary</text>
</g>
<!-- Node18&#45;&gt;Node17 -->
<g id="edge21" class="edge">
<title>Node18&#45;&gt;Node17</title>
<path fill="none" stroke="#9a32cd" stroke-dasharray="5,2" d="M229.466,-275.719C295.1265,-257.3781 418.6624,-222.8708 489.6465,-203.0429"/>
<polygon fill="#9a32cd" stroke="#9a32cd" points="228.5162,-272.3502 219.8265,-278.4116 230.3995,-279.0922 228.5162,-272.3502"/>
<text text-anchor="middle" x="358" y="-264" font-family="Helvetica,sans-Serif" font-size="10.00" fill="#000000"> ptr</text>
</g>
<!-- Node18&#45;&gt;Node24 -->
<g id="edge34" class="edge">
<title>Node18&#45;&gt;Node24</title>
<path fill="none" stroke="#ffa500" stroke-dasharray="5,2" d="M217.4286,-301.4256C267.7906,-321.9835 369.1934,-360.8846 459,-380 679.0833,-426.8449 738.24,-417.3213 963,-428 1028.2597,-431.1006 1048.5689,-450.2411 1110,-428 1119.7917,-424.4549 1118.8175,-417.9119 1128,-413 1135.1497,-409.1755 1142.9608,-405.863 1150.853,-403.0144"/>
<polygon fill="#ffa500" stroke="#ffa500" points="218.6349,-298.1373 208.0553,-297.5699 215.9719,-304.611 218.6349,-298.1373"/>
<text text-anchor="start" x="646" y="-435" font-family="Helvetica,sans-Serif" font-size="10.00" fill="#000000"> &lt; DataObjectIdentifierType,</text>
<text text-anchor="middle" x="715.5" y="-424" font-family="Helvetica,sans-Serif" font-size="10.00" fill="#000000"> bool &gt;</text>
</g>
<!-- Node18&#45;&gt;Node29 -->
<g id="edge45" class="edge">
<title>Node18&#45;&gt;Node29</title>
<path fill="none" stroke="#ffa500" stroke-dasharray="5,2" d="M246.1218,-288C420.8361,-288 925.7757,-288 1127.6385,-288"/>
<polygon fill="#ffa500" stroke="#ffa500" points="246.0788,-284.5001 236.0788,-288 246.0788,-291.5001 246.0788,-284.5001"/>
<text text-anchor="start" x="646" y="-302" font-family="Helvetica,sans-Serif" font-size="10.00" fill="#000000"> &lt; DataObjectIdentifierType,</text>
<text text-anchor="middle" x="715.5" y="-291" font-family="Helvetica,sans-Serif" font-size="10.00" fill="#000000"> DataObjectPointer &gt;</text>
</g>
<!-- Node19 -->
<g id="node19" class="node">
<title>Node19</title>
<g id="a_node19"><a xlink:title=" ">
<polygon fill="#ffffff" stroke="#bfbfbf" points="0,-384.5 0,-403.5 29,-403.5 29,-384.5 0,-384.5"/>
<text text-anchor="middle" x="14.5" y="-391.5" font-family="Helvetica,sans-Serif" font-size="10.00" fill="#000000">K</text>
</a>
</g>
</g>
<!-- Node19&#45;&gt;Node18 -->
<g id="edge22" class="edge">
<title>Node19&#45;&gt;Node18</title>
<path fill="none" stroke="#9a32cd" stroke-dasharray="5,2" d="M37.7923,-379.5615C73.254,-357.5794 139.8369,-316.3058 169.9759,-297.6231"/>
<polygon fill="#9a32cd" stroke="#9a32cd" points="35.7348,-376.719 29.0794,-384.9625 39.4229,-382.6686 35.7348,-376.719"/>
<text text-anchor="middle" x="71.5" y="-376" font-family="Helvetica,sans-Serif" font-size="10.00" fill="#000000"> keys</text>
</g>
<!-- Node23 -->
<g id="node23" class="node">
<title>Node23</title>
<g id="a_node23"><a xlink:title="STL class.">
<polygon fill="#ffffff" stroke="#bfbfbf" points="833,-468.5 833,-487.5 915,-487.5 915,-468.5 833,-468.5"/>
<text text-anchor="middle" x="874" y="-475.5" font-family="Helvetica,sans-Serif" font-size="10.00" fill="#000000">std::set&lt; K &gt;</text>
</a>
</g>
</g>
<!-- Node19&#45;&gt;Node23 -->
<g id="edge31" class="edge">
<title>Node19&#45;&gt;Node23</title>
<path fill="none" stroke="#9a32cd" stroke-dasharray="5,2" d="M17.9357,-413.7784C21.9091,-430.0461 30.1999,-452.1278 47,-463 113.2311,-505.8616 675.13,-486.1912 832.9336,-479.7611"/>
<polygon fill="#9a32cd" stroke="#9a32cd" points="21.292,-412.7284 15.8231,-403.6542 14.4396,-414.1583 21.292,-412.7284"/>
<text text-anchor="middle" x="358" y="-492" font-family="Helvetica,sans-Serif" font-size="10.00" fill="#000000"> keys</text>
</g>
<!-- Node20&#45;&gt;Node17 -->
<g id="edge24" class="edge">
<title>Node20&#45;&gt;Node17</title>
<path fill="none" stroke="#ffa500" stroke-dasharray="5,2" d="M254.6388,-188C316.2848,-188 406.2772,-188 469.39,-188"/>
<polygon fill="#ffa500" stroke="#ffa500" points="254.6165,-184.5001 244.6164,-188 254.6164,-191.5001 254.6165,-184.5001"/>
<text text-anchor="middle" x="358" y="-191" font-family="Helvetica,sans-Serif" font-size="10.00" fill="#000000"> &lt; MetaDataDictionaryMapType &gt;</text>
</g>
<!-- Node21&#45;&gt;Node11 -->
<g id="edge46" class="edge">
<title>Node21&#45;&gt;Node11</title>
<path fill="none" stroke="#9a32cd" stroke-dasharray="5,2" d="M930.3005,-130.0337C980.0943,-128.0547 1053.4116,-131.1827 1110,-159 1120.4391,-164.1316 1118.1087,-171.8787 1128,-178 1257.5932,-258.2002 1335.1947,-185.0885 1456,-278 1468.0247,-287.2482 1461.5478,-298.3359 1474,-307 1486.1013,-315.4199 1501.0893,-320.2818 1515.4942,-323.0419"/>
<polygon fill="#9a32cd" stroke="#9a32cd" points="929.867,-126.5504 920.0466,-130.5265 930.2031,-133.5424 929.867,-126.5504"/>
<text text-anchor="middle" x="1212.5" y="-227" font-family="Helvetica,sans-Serif" font-size="10.00" fill="#000000"> m_OutputInformationMTime</text>
</g>
<!-- Node21&#45;&gt;Node12 -->
<g id="edge26" class="edge">
<title>Node21&#45;&gt;Node12</title>
<path fill="none" stroke="#9a32cd" stroke-dasharray="5,2" d="M911.8999,-122.4174C927.5336,-117.8497 945.9516,-113.2583 963,-111 1027.7676,-102.4205 1046.2269,-96.8073 1110,-111 1143.1822,-118.3847 1178.3263,-137.7092 1197.627,-149.4636"/>
<polygon fill="#9a32cd" stroke="#9a32cd" points="910.6289,-119.1452 902.0708,-125.3909 912.6559,-125.8453 910.6289,-119.1452"/>
<text text-anchor="middle" x="1036.5" y="-114" font-family="Helvetica,sans-Serif" font-size="10.00" fill="#000000"> m_MTime</text>
</g>
<!-- Node22&#45;&gt;Node11 -->
<g id="edge28" class="edge">
<title>Node22&#45;&gt;Node11</title>
<path fill="none" stroke="#9a32cd" stroke-dasharray="5,2" d="M1303.7193,-327.6608C1307.5281,-327.4099 1311.3003,-327.1874 1315,-327 1384.174,-323.4963 1464.1438,-323.9366 1515.2335,-324.7871"/>
<polygon fill="#9a32cd" stroke="#9a32cd" points="1303.3015,-324.1816 1293.5765,-328.3859 1303.8007,-331.1638 1303.3015,-324.1816"/>
<text text-anchor="middle" x="1385.5" y="-330" font-family="Helvetica,sans-Serif" font-size="10.00" fill="#000000"> m_RequiredInputNames</text>
</g>
<!-- Node23&#45;&gt;Node6 -->
<g id="edge47" class="edge">
<title>Node23&#45;&gt;Node6</title>
<path fill="none" stroke="#ffa500" stroke-dasharray="5,2" d="M925.3445,-478.738C991.6667,-479.6263 1110.6919,-481 1212.5,-481 1212.5,-481 1212.5,-481 1855.5,-481 1954.3002,-481 2021.2413,-352.6787 2041.5284,-308.067"/>
<polygon fill="#ffa500" stroke="#ffa500" points="925.21,-475.2359 915.1634,-478.5999 925.115,-482.2353 925.21,-475.2359"/>
<text text-anchor="middle" x="1567.5" y="-484" font-family="Helvetica,sans-Serif" font-size="10.00" fill="#000000"> &lt; itk::simple::ProcessObject * &gt;</text>
</g>
<!-- Node23&#45;&gt;Node22 -->
<g id="edge30" class="edge">
<title>Node23&#45;&gt;Node22</title>
<path fill="none" stroke="#ffa500" stroke-dasharray="5,2" d="M886.4941,-460.1485C901.9342,-439.5956 930.2192,-406.5476 963,-390 1022.0332,-360.2003 1045.4652,-381.429 1110,-367 1128.4568,-362.8733 1148.478,-357.2725 1165.8868,-352.0274"/>
<polygon fill="#ffa500" stroke="#ffa500" points="883.5722,-458.2152 880.5104,-468.358 889.229,-462.3383 883.5722,-458.2152"/>
<text text-anchor="middle" x="1036.5" y="-393" font-family="Helvetica,sans-Serif" font-size="10.00" fill="#000000"> &lt; DataObjectIdentifierType &gt;</text>
</g>
<!-- Node24&#45;&gt;Node11 -->
<g id="edge32" class="edge">
<title>Node24&#45;&gt;Node11</title>
<path fill="none" stroke="#9a32cd" stroke-dasharray="5,2" d="M1274.6034,-370.3662C1287.8664,-366.959 1301.8435,-363.6348 1315,-361 1383.78,-347.2258 1464.1831,-337.0912 1515.4509,-331.3695"/>
<polygon fill="#9a32cd" stroke="#9a32cd" points="1273.4136,-367.0596 1264.6258,-372.9778 1275.1861,-373.8315 1273.4136,-367.0596"/>
<text text-anchor="start" x="1315" y="-375" font-family="Helvetica,sans-Serif" font-size="10.00" fill="#000000"> m_CachedInputReleaseData</text>
<text text-anchor="middle" x="1385.5" y="-364" font-family="Helvetica,sans-Serif" font-size="10.00" fill="#000000">Flags</text>
</g>
<!-- Node25&#45;&gt;Node11 -->
<g id="edge35" class="edge">
<title>Node25&#45;&gt;Node11</title>
<path fill="none" stroke="#9a32cd" stroke-dasharray="5,2" d="M793.0725,-49.284C872.9895,-48.6966 1000.9246,-51.0494 1110,-68 1267.4618,-92.47 1351.5846,-41.6238 1456,-162 1498.5514,-211.0557 1429.8819,-259.3483 1474,-307 1484.5782,-318.4255 1499.9944,-324.0221 1515.2694,-326.53"/>
<polygon fill="#9a32cd" stroke="#9a32cd" points="792.5721,-45.7883 782.6046,-49.3798 792.6362,-52.788 792.5721,-45.7883"/>
<text text-anchor="middle" x="1036.5" y="-71" font-family="Helvetica,sans-Serif" font-size="10.00" fill="#000000"> m_Progress</text>
</g>
<!-- Node26 -->
<g id="node26" class="node">
<title>Node26</title>
<g id="a_node26"><a xlink:title=" ">
<polygon fill="#ffffff" stroke="#bfbfbf" points="459,-507 459,-537 628,-537 628,-507 459,-507"/>
<text text-anchor="start" x="467" y="-525" font-family="Helvetica,sans-Serif" font-size="10.00" fill="#000000">std::vector&lt; DataObjectPointer</text>
<text text-anchor="middle" x="543.5" y="-514" font-family="Helvetica,sans-Serif" font-size="10.00" fill="#000000">Map::iterator &gt;</text>
</a>
</g>
</g>
<!-- Node26&#45;&gt;Node11 -->
<g id="edge37" class="edge">
<title>Node26&#45;&gt;Node11</title>
<path fill="none" stroke="#9a32cd" stroke-dasharray="5,2" d="M638.3012,-520.9918C781.988,-517.9969 1062.9661,-506.3922 1297,-462 1369.1557,-448.3133 1390.8623,-450.9243 1456,-417 1498.7705,-394.7247 1540.4249,-354.3143 1558.3364,-335.7738"/>
<polygon fill="#9a32cd" stroke="#9a32cd" points="638.1239,-517.4946 628.1955,-521.1929 638.2632,-524.4932 638.1239,-517.4946"/>
<text text-anchor="middle" x="1036.5" y="-518" font-family="Helvetica,sans-Serif" font-size="10.00" fill="#000000"> m_IndexedOutputs</text>
<text text-anchor="middle" x="1036.5" y="-507" font-family="Helvetica,sans-Serif" font-size="10.00" fill="#000000">m_IndexedInputs</text>
</g>
<!-- Node27 -->
<g id="node27" class="node">
<title>Node27</title>
<g id="a_node27"><a xlink:title="STL iterator class.">
<polygon fill="#ffffff" stroke="#bfbfbf" points="114,-551.5 114,-570.5 257,-570.5 257,-551.5 114,-551.5"/>
<text text-anchor="middle" x="185.5" y="-558.5" font-family="Helvetica,sans-Serif" font-size="10.00" fill="#000000">std::map&lt; K, T &gt;::iterator</text>
</a>
</g>
</g>
<!-- Node27&#45;&gt;Node26 -->
<g id="edge38" class="edge">
<title>Node27&#45;&gt;Node26</title>
<path fill="none" stroke="#9a32cd" stroke-dasharray="5,2" d="M267.3965,-555.5908C317.6079,-551.867 383.1428,-546.2774 441,-539 446.8166,-538.2684 452.8083,-537.4485 458.837,-536.5746"/>
<polygon fill="#9a32cd" stroke="#9a32cd" points="266.9623,-552.1131 257.2444,-556.3338 267.4733,-559.0945 266.9623,-552.1131"/>
<text text-anchor="middle" x="358" y="-557" font-family="Helvetica,sans-Serif" font-size="10.00" fill="#000000"> elements</text>
</g>
<!-- Node28&#45;&gt;Node26 -->
<g id="edge39" class="edge">
<title>Node28&#45;&gt;Node26</title>
<path fill="none" stroke="#ffa500" stroke-dasharray="5,2" d="M244.0191,-515.4841C295.8129,-515.2053 373.4468,-515.2211 441,-517 446.7883,-517.1524 452.7589,-517.3467 458.7722,-517.5698"/>
<polygon fill="#ffa500" stroke="#ffa500" points="243.9946,-511.9841 234.0155,-515.5434 244.0361,-518.984 243.9946,-511.9841"/>
<text text-anchor="start" x="296" y="-531" font-family="Helvetica,sans-Serif" font-size="10.00" fill="#000000"> &lt; DataObjectPointerMap</text>
<text text-anchor="middle" x="358" y="-520" font-family="Helvetica,sans-Serif" font-size="10.00" fill="#000000">::iterator &gt;</text>
</g>
<!-- Node29&#45;&gt;Node11 -->
<g id="edge41" class="edge">
<title>Node29&#45;&gt;Node11</title>
<path fill="none" stroke="#9a32cd" stroke-dasharray="5,2" d="M1307.3457,-282.7123C1352.9519,-282.4819 1408.0075,-285.6255 1456,-298 1464.661,-300.2332 1465.5443,-304.0842 1474,-307 1487.154,-311.5359 1501.7425,-315.1408 1515.4078,-317.9373"/>
<polygon fill="#9a32cd" stroke="#9a32cd" points="1307.1297,-279.2143 1297.1673,-282.82 1307.2038,-286.2139 1307.1297,-279.2143"/>
<text text-anchor="middle" x="1385.5" y="-312" font-family="Helvetica,sans-Serif" font-size="10.00" fill="#000000"> m_Outputs</text>
<text text-anchor="middle" x="1385.5" y="-301" font-family="Helvetica,sans-Serif" font-size="10.00" fill="#000000">m_Inputs</text>
</g>
<!-- Node30 -->
<g id="node30" class="node">
<title>Node30</title>
<g id="a_node30"><a xlink:href="https://www.itk.org/Doxygen/html/classitk_1_1SmartPointer.html" xlink:title=" ">
<polygon fill="#ffffff" stroke="#000000" points="820.5,-340 820.5,-370 927.5,-370 927.5,-340 820.5,-340"/>
<text text-anchor="start" x="828.5" y="-358" font-family="Helvetica,sans-Serif" font-size="10.00" fill="#000000">itk::SmartPointer&lt;</text>
<text text-anchor="middle" x="874" y="-347" font-family="Helvetica,sans-Serif" font-size="10.00" fill="#000000"> Self &gt;</text>
</a>
</g>
</g>
<!-- Node30&#45;&gt;Node29 -->
<g id="edge42" class="edge">
<title>Node30&#45;&gt;Node29</title>
<path fill="none" stroke="#9a32cd" stroke-dasharray="5,2" d="M937.59,-354.2365C997.0055,-352.6023 1080.8007,-347.6661 1110,-333 1120.6865,-327.6324 1117.8858,-319.3809 1128,-313 1134.0813,-309.1634 1140.7779,-305.8929 1147.6588,-303.1099"/>
<polygon fill="#9a32cd" stroke="#9a32cd" points="937.4475,-350.7388 927.5383,-354.4882 937.6228,-357.7367 937.4475,-350.7388"/>
<text text-anchor="middle" x="1036.5" y="-356" font-family="Helvetica,sans-Serif" font-size="10.00" fill="#000000"> elements</text>
</g>
<!-- Node31 -->
<g id="node31" class="node">
<title>Node31</title>
<g id="a_node31"><a xlink:href="https://www.itk.org/Doxygen/html/classitk_1_1SmartPointer.html" xlink:title=" ">
<polygon fill="#ffffff" stroke="#000000" points="490,-340 490,-370 597,-370 597,-340 490,-340"/>
<text text-anchor="start" x="498" y="-358" font-family="Helvetica,sans-Serif" font-size="10.00" fill="#000000">itk::SmartPointer&lt;</text>
<text text-anchor="middle" x="543.5" y="-347" font-family="Helvetica,sans-Serif" font-size="10.00" fill="#000000"> TObjectType &gt;</text>
</a>
</g>
</g>
<!-- Node31&#45;&gt;Node30 -->
<g id="edge43" class="edge">
<title>Node31&#45;&gt;Node30</title>
<path fill="none" stroke="#ffa500" stroke-dasharray="5,2" d="M607.3842,-355C669.341,-355 762.2748,-355 820.461,-355"/>
<polygon fill="#ffa500" stroke="#ffa500" points="607.3361,-351.5001 597.3361,-355 607.3361,-358.5001 607.3361,-351.5001"/>
<text text-anchor="middle" x="715.5" y="-358" font-family="Helvetica,sans-Serif" font-size="10.00" fill="#000000"> &lt; Self &gt;</text>
</g>
</g>
</svg>
