<?xml version="1.0" encoding="UTF-8" standalone="no"?>
<!DOCTYPE svg PUBLIC "-//W3C//DTD SVG 1.1//EN"
 "http://www.w3.org/Graphics/SVG/1.1/DTD/svg11.dtd">
<!-- Generated by graphviz version 2.40.1 (20161225.0304)
 -->
<!-- Title: itk::simple::AffineTransform::MyVisitor Pages: 1 -->
<svg width="332pt" height="174pt"
 viewBox="0.00 0.00 331.50 174.00" xmlns="http://www.w3.org/2000/svg" xmlns:xlink="http://www.w3.org/1999/xlink">
<g id="graph0" class="graph" transform="scale(1 1) rotate(0) translate(4 170)">
<title>itk::simple::AffineTransform::MyVisitor</title>
<polygon fill="#ffffff" stroke="transparent" points="-4,4 -4,-170 327.5,-170 327.5,4 -4,4"/>
<!-- Node1 -->
<g id="node1" class="node">
<title>Node1</title>
<g id="a_node1"><a xlink:title=" ">
<polygon fill="#bfbfbf" stroke="#000000" points="37.5,-.5 37.5,-30.5 189.5,-30.5 189.5,-.5 37.5,-.5"/>
<text text-anchor="start" x="45.5" y="-18.5" font-family="Helvetica,sans-Serif" font-size="10.00" fill="#000000">itk::simple::AffineTransform</text>
<text text-anchor="middle" x="113.5" y="-7.5" font-family="Helvetica,sans-Serif" font-size="10.00" fill="#000000">::MyVisitor</text>
</a>
</g>
</g>
<!-- Node2 -->
<g id="node2" class="node">
<title>Node2</title>
<g id="a_node2"><a xlink:href="classitk_1_1TransformBaseTemplate.html" target="_top" xlink:title=" ">
<polygon fill="#ffffff" stroke="#000000" points="0,-78.5 0,-108.5 153,-108.5 153,-78.5 0,-78.5"/>
<text text-anchor="start" x="8" y="-96.5" font-family="Helvetica,sans-Serif" font-size="10.00" fill="#000000">itk::TransformBaseTemplate</text>
<text text-anchor="middle" x="76.5" y="-85.5" font-family="Helvetica,sans-Serif" font-size="10.00" fill="#000000">&lt; TScalar &gt;</text>
</a>
</g>
</g>
<!-- Node2&#45;&gt;Node1 -->
<g id="edge1" class="edge">
<title>Node2&#45;&gt;Node1</title>
<path fill="none" stroke="#9a32cd" stroke-dasharray="5,2" d="M87.9293,-69.4059C93.9087,-56.8005 101.0482,-41.7497 106.2617,-30.7592"/>
<polygon fill="#9a32cd" stroke="#9a32cd" points="84.7576,-67.9257 83.634,-78.4608 91.0821,-70.9259 84.7576,-67.9257"/>
<text text-anchor="middle" x="123.5" y="-52" font-family="Helvetica,sans-Serif" font-size="10.00" fill="#000000"> transform</text>
</g>
<!-- Node3 -->
<g id="node3" class="node">
<title>Node3</title>
<g id="a_node3"><a xlink:href="classitk_1_1simple_1_1AffineTransform.html" target="_top" xlink:title="An affine transformation about a fixed center with translation for a 2D or 3D coordinate.">
<polygon fill="#ffffff" stroke="#000000" points="171.5,-84 171.5,-103 323.5,-103 323.5,-84 171.5,-84"/>
<text text-anchor="middle" x="247.5" y="-91" font-family="Helvetica,sans-Serif" font-size="10.00" fill="#000000">itk::simple::AffineTransform</text>
</a>
</g>
</g>
<!-- Node3&#45;&gt;Node1 -->
<g id="edge2" class="edge">
<title>Node3&#45;&gt;Node1</title>
<path fill="none" stroke="#9a32cd" stroke-dasharray="5,2" d="M222.3152,-78.8402C198.6613,-65.0715 163.4227,-44.5595 139.5054,-30.6375"/>
<polygon fill="#9a32cd" stroke="#9a32cd" points="220.6657,-81.9298 231.069,-83.9357 224.1873,-75.8801 220.6657,-81.9298"/>
<text text-anchor="middle" x="200" y="-52" font-family="Helvetica,sans-Serif" font-size="10.00" fill="#000000"> that</text>
</g>
<!-- Node4 -->
<g id="node4" class="node">
<title>Node4</title>
<g id="a_node4"><a xlink:href="classitk_1_1simple_1_1Transform.html" target="_top" xlink:title="A simplified wrapper around a variety of ITK transforms.">
<polygon fill="#ffffff" stroke="#000000" points="186,-146.5 186,-165.5 309,-165.5 309,-146.5 186,-146.5"/>
<text text-anchor="middle" x="247.5" y="-153.5" font-family="Helvetica,sans-Serif" font-size="10.00" fill="#000000">itk::simple::Transform</text>
</a>
</g>
</g>
<!-- Node4&#45;&gt;Node3 -->
<g id="edge3" class="edge">
<title>Node4&#45;&gt;Node3</title>
<path fill="none" stroke="#191970" d="M247.5,-135.925C247.5,-125.0568 247.5,-112.1118 247.5,-103.4033"/>
<polygon fill="#191970" stroke="#191970" points="244.0001,-136.2343 247.5,-146.2344 251.0001,-136.2344 244.0001,-136.2343"/>
</g>
</g>
</svg>
