<?xml version="1.0" encoding="utf-8"?>
<!-- Generator: Adobe Illustrator 23.1.1, SVG Export Plug-In . SVG Version: 6.00 Build 0)  -->
<svg version="1.1" id="Layer_1" xmlns="http://www.w3.org/2000/svg" xmlns:xlink="http://www.w3.org/1999/xlink" x="0px" y="0px"
	 viewBox="0 0 27.7 40.4" style="enable-background:new 0 0 27.7 40.4;" xml:space="preserve">
<style type="text/css">
	.st0{fill:#2A57A3;}
	.st1{fill:#E8B121;}
</style>
<path class="st0" d="M0.9,12.6C-0.5,15,0.3,18,2.7,19.4l17.2,10.2c2.4,1.4,5.4,0.6,6.8-1.8s0.6-5.4-1.8-6.8L7.7,10.8
	C5.3,9.4,2.3,10.2,0.9,12.6z"/>
<path class="st1" d="M0.8,17.5c1.4,2.4,4.4,3.2,6.8,1.8l17.3-10c2.4-1.4,3.2-4.4,1.8-6.8s-4.4-3.2-6.8-1.8l-17.3,10
	C0.2,12.1-0.6,15.1,0.8,17.5z"/>
<path class="st1" d="M26.8,22.9c-1.4-2.4-4.4-3.2-6.8-1.8L2.6,31c-2.4,1.4-3.2,4.4-1.8,6.8c1.4,2.4,4.4,3.2,6.8,1.8l17.3-10
	C27.3,28.3,28.2,25.2,26.8,22.9z"/>
</svg>
